<svg width="137" height="44" viewBox="0 0 137 44" fill="none" xmlns="http://www.w3.org/2000/svg">
<path d="M8.35693 12.228C6.78467 12.8774 5.57699 13.8459 4.73389 15.1333C3.89079 16.4207 3.46924 17.9987 3.46924 19.8672C3.46924 20.5964 3.54899 21.1774 3.7085 21.6104C3.75407 21.7585 3.81104 21.8895 3.87939 22.0034C3.92497 22.0832 3.94775 22.1629 3.94775 22.2427C2.68311 22.2427 1.76025 21.992 1.1792 21.4907C0.529785 20.9438 0.205078 20.0609 0.205078 18.8418C0.205078 18.0785 0.37028 17.3265 0.700684 16.5859C1.03109 15.834 1.49821 15.1105 2.10205 14.4155C2.67171 13.7547 3.34961 13.1395 4.13574 12.5698C4.93327 11.9888 5.79346 11.4875 6.71631 11.0659C8.65316 10.1886 10.5786 9.75 12.4927 9.75C13.0168 9.75 13.4839 9.77279 13.894 9.81836L8.32275 36H3.29834L8.35693 12.228ZM18.8323 36.2051C17.1119 36.2051 15.7846 35.7721 14.8504 34.9062C13.8592 33.9834 13.3636 32.5649 13.3636 30.6509C13.3636 29.9331 13.4376 29.1356 13.5857 28.2583C13.7225 27.3696 13.9389 26.4867 14.2352 25.6094C14.9301 23.4788 15.9157 21.7812 17.1917 20.5166C18.764 18.9671 20.6268 18.1924 22.7801 18.1924C24.1814 18.1924 25.2182 18.5285 25.8904 19.2007C26.4145 19.7362 26.6766 20.471 26.6766 21.4053C26.6766 22.2256 26.4943 22.8636 26.1297 23.3193C25.7879 23.7409 25.3493 23.9517 24.8138 23.9517C24.4264 23.9517 24.0162 23.8149 23.5833 23.5415C23.8681 22.8009 24.0105 22.1117 24.0105 21.4736C24.0105 21.0293 23.9251 20.6818 23.7542 20.4312C23.5947 20.1691 23.3554 20.0381 23.0364 20.0381C22.3528 20.0381 21.6408 20.6419 20.9002 21.8496C20.228 22.9206 19.6697 24.2821 19.2254 25.9341C18.7697 27.5519 18.5418 29.016 18.5418 30.3262C18.5418 31.4655 18.7583 32.2516 19.1912 32.6846C19.5672 33.0719 20.1938 33.2656 21.0711 33.2656C22.3357 33.2656 23.4922 32.9238 24.5403 32.2402C24.9847 31.9554 25.4119 31.6193 25.8221 31.2319C26.2322 30.8332 26.7107 30.3319 27.2576 29.728H28.4539C27.3488 31.5965 26.0784 33.0833 24.6429 34.1885C22.8769 35.5329 20.9401 36.2051 18.8323 36.2051ZM33.0675 36.1367C31.3357 36.1367 29.997 35.7152 29.0514 34.8721C27.9918 33.9378 27.462 32.5194 27.462 30.6167C27.462 29.8989 27.5361 29.1071 27.6842 28.2412C27.8323 27.3639 28.0602 26.481 28.3678 25.5923C29.0742 23.4731 30.0825 21.7812 31.3927 20.5166C32.9763 18.9671 34.8619 18.1924 37.0494 18.1924C40.0458 18.1924 41.544 20.0552 41.544 23.7808V23.8149C41.6124 23.8377 41.6694 23.8491 41.7149 23.8491H41.92C42.6948 23.8491 43.6119 23.6326 44.6715 23.1997C45.6057 22.8123 46.4887 22.3281 47.3204 21.7471L47.628 22.7041C46.9444 23.4219 46.0615 24.0314 44.9791 24.5327C43.9081 25.034 42.7232 25.3929 41.4244 25.6094C41.2877 27.193 40.9801 28.64 40.5016 29.9502C40.023 31.249 39.4078 32.3656 38.6559 33.2998C37.9153 34.2113 37.0665 34.9119 36.1095 35.4019C35.1524 35.8918 34.1384 36.1367 33.0675 36.1367ZM34.4688 32.9922C34.879 32.9922 35.2949 32.8099 35.7164 32.4453C36.1493 32.0693 36.5538 31.5509 36.9298 30.8901C37.3058 30.2293 37.6305 29.4546 37.9039 28.5659C38.1773 27.6772 38.3824 26.7259 38.5191 25.7119C38.1773 25.6208 37.9324 25.4499 37.7843 25.1992C37.6476 24.9486 37.5792 24.6296 37.5792 24.2422C37.5792 23.7637 37.676 23.3649 37.8697 23.0459C38.0634 22.7269 38.3312 22.4933 38.6729 22.3452C38.6274 21.6047 38.5077 21.0749 38.3141 20.7559C38.2115 20.5964 38.0805 20.4824 37.921 20.4141C37.7729 20.3457 37.5792 20.3115 37.3399 20.3115C36.5538 20.3115 35.7848 20.904 35.0328 22.0889C34.3378 23.1598 33.7682 24.4814 33.3238 26.0537C32.8909 27.5918 32.6744 28.959 32.6744 30.1553C32.6744 30.7363 32.7029 31.2091 32.7599 31.5737C32.8282 31.9383 32.9365 32.2231 33.0846 32.4282C33.2213 32.6333 33.3979 32.7814 33.6144 32.8726C33.8308 32.9523 34.1157 32.9922 34.4688 32.9922ZM56.6679 36.2051C55.2209 36.2051 54.15 35.7949 53.455 34.9746C52.8511 34.2682 52.5492 33.3625 52.5492 32.2573C52.5492 31.7332 52.6119 31.1237 52.7372 30.4287C52.8739 29.7337 53.0733 28.8394 53.3354 27.7456C53.5974 26.6291 53.7911 25.7404 53.9164 25.0796C54.0531 24.4074 54.1215 23.8263 54.1215 23.3364C54.1215 22.1401 53.6999 21.542 52.8568 21.542C52.2644 21.542 51.7175 21.8553 51.2162 22.4819C50.7947 23.0174 50.4301 23.7808 50.1225 24.772L47.747 36H42.7055L46.414 18.5H51.4555L51.0795 20.3115C51.7631 19.5482 52.4979 19.0127 53.2841 18.7051C53.8651 18.4772 54.4918 18.3633 55.164 18.3633C56.3489 18.3633 57.2831 18.6709 57.9667 19.2861C58.6959 19.9583 59.0604 20.9666 59.0604 22.311C59.0604 23.12 58.9123 24.1738 58.6161 25.4727C58.5364 25.8486 58.4053 26.4126 58.223 27.1646C57.8926 28.4292 57.6534 29.4375 57.5053 30.1895C57.4141 30.668 57.3686 31.0553 57.3686 31.3516C57.3686 31.8187 57.4711 32.1833 57.6762 32.4453C57.8926 32.696 58.2572 32.8213 58.7699 32.8213C59.4649 32.8213 60.0517 32.5365 60.5302 31.9668C60.8948 31.5339 61.2878 30.7876 61.7094 29.728H63.1791C62.3132 32.2915 61.2195 34.0859 59.8979 35.1113C58.9636 35.8405 57.8869 36.2051 56.6679 36.2051ZM70.4929 43.2461C69.6498 43.2461 68.8807 43.1322 68.1857 42.9043C67.4908 42.6764 66.8926 42.3517 66.3913 41.9302C65.89 41.5086 65.5026 41.0016 65.2292 40.4092C64.9558 39.8167 64.819 39.173 64.819 38.478C64.819 37.8058 64.9387 37.1735 65.1779 36.5811C65.4172 36 65.7533 35.4816 66.1862 35.0259C66.6078 34.5815 67.1091 34.2397 67.6901 34.0005C68.2712 33.7498 68.8864 33.6245 69.5358 33.6245C70.4359 33.6245 71.1537 33.841 71.6892 34.2739C72.236 34.7069 72.5095 35.2936 72.5095 36.0342C72.5095 36.5924 72.3841 37.0368 72.1335 37.3672C71.917 37.0824 71.6265 36.8602 71.2619 36.7007C70.9087 36.5412 70.5327 36.4614 70.134 36.4614C69.4162 36.4614 68.8465 36.6893 68.425 37.145C67.9807 37.6121 67.7585 38.2217 67.7585 38.9736C67.7585 39.7142 67.975 40.318 68.4079 40.7852C68.8295 41.2637 69.3706 41.5029 70.0314 41.5029C70.8404 41.5029 71.5354 41.1383 72.1164 40.4092C72.6975 39.6914 73.1475 38.6204 73.4665 37.1963L75.2097 29.4546H75.0729C74.4235 30.3433 73.6488 31.0212 72.7487 31.4883C71.8601 31.9554 70.8859 32.189 69.8264 32.189C68.801 32.189 67.8724 31.9839 67.0407 31.5737C66.209 31.1522 65.4969 30.554 64.9045 29.7793C64.312 29.0046 63.8563 28.0703 63.5373 26.9766C63.2183 25.8828 63.0588 24.6694 63.0588 23.3364C63.0588 22.049 63.2012 20.8128 63.486 19.6279C63.7823 18.4316 64.2095 17.3151 64.7678 16.2783C65.8843 14.182 67.4053 12.5413 69.3308 11.3564C71.3132 10.126 73.4836 9.51074 75.842 9.51074C76.8218 9.51074 77.7105 9.62467 78.508 9.85254C79.3169 10.069 80.0005 10.3823 80.5588 10.7925C81.1171 11.214 81.5443 11.7267 81.8405 12.3306C82.1368 12.923 82.2849 13.5895 82.2849 14.3301C82.2849 15.3213 82.0399 16.1245 81.55 16.7397C81.3107 17.036 81.0202 17.2638 80.6784 17.4233C80.348 17.5828 79.9948 17.6626 79.6188 17.6626C79.1859 17.6626 78.7757 17.5715 78.3884 17.3892C78.001 17.1955 77.6763 16.922 77.4143 16.5688C77.8244 16.2954 78.1776 15.8454 78.4738 15.2188C78.7701 14.5921 78.9182 13.9712 78.9182 13.356C78.9182 12.6496 78.7131 12.1084 78.3029 11.7324C77.9042 11.3451 77.3288 11.1514 76.5769 11.1514C75.8933 11.1514 75.2154 11.3109 74.5432 11.6299C73.8824 11.9489 73.2443 12.3989 72.6291 12.98C72.0253 13.5496 71.467 14.2332 70.9543 15.0308C70.4416 15.8169 70.003 16.6714 69.6384 17.5942C68.8522 19.5425 68.4592 21.5933 68.4592 23.7466C68.4592 25.5125 68.7326 26.8569 69.2795 27.7798C69.8378 28.6912 70.6467 29.147 71.7062 29.147C72.9823 29.147 74.0931 28.4919 75.0388 27.1816C75.9958 25.86 76.7762 23.9118 77.3801 21.3369L81.5158 21.3711L78.9523 33.1289C78.2004 36.5924 77.1465 39.1502 75.7907 40.8022C74.4349 42.4315 72.669 43.2461 70.4929 43.2461ZM88.3511 36.2051C86.6307 36.2051 85.3034 35.7721 84.3691 34.9062C83.3779 33.9834 82.8823 32.5649 82.8823 30.6509C82.8823 29.9331 82.9564 29.1356 83.1045 28.2583C83.2412 27.381 83.452 26.5037 83.7368 25.6265C84.0558 24.6466 84.4603 23.7181 84.9502 22.8408C85.4515 21.9635 86.0326 21.1888 86.6934 20.5166C88.2201 18.9671 90.0999 18.1924 92.333 18.1924C93.7572 18.1924 94.7939 18.5342 95.4434 19.2178C95.9447 19.7533 96.1953 20.528 96.1953 21.542C96.1953 22.5332 95.9788 23.4674 95.5459 24.3447C95.113 25.2106 94.5148 25.9797 93.7515 26.6519C92.9881 27.3127 92.1222 27.8424 91.1538 28.2412C90.1854 28.6286 89.1828 28.8564 88.146 28.9248C88.089 29.5173 88.0605 29.9844 88.0605 30.3262C88.0605 31.4655 88.277 32.2516 88.71 32.6846C89.0859 33.0719 89.7126 33.2656 90.5898 33.2656C91.8545 33.2656 93.0109 32.9238 94.0591 32.2402C94.5034 31.9554 94.9307 31.6193 95.3408 31.2319C95.751 30.8332 96.2295 30.3319 96.7764 29.728H97.9727C96.8675 31.5965 95.5972 33.0833 94.1616 34.1885C92.3957 35.5329 90.4588 36.2051 88.3511 36.2051ZM88.4194 27.25C89.0688 27.2044 89.7012 27.0164 90.3164 26.686C90.9316 26.3556 91.4785 25.9227 91.957 25.3872C92.4355 24.8403 92.8115 24.2308 93.085 23.5586C93.3584 22.875 93.4951 22.18 93.4951 21.4736C93.4951 21.0065 93.4268 20.6533 93.29 20.4141C93.1647 20.1634 92.9425 20.0381 92.6235 20.0381C92.202 20.0381 91.7747 20.2432 91.3418 20.6533C90.9202 21.0635 90.5101 21.6274 90.1113 22.3452C89.7467 23.0174 89.4163 23.7808 89.1201 24.6353C88.8239 25.4897 88.5903 26.3613 88.4194 27.25ZM102.484 36.2051C100.763 36.2051 99.436 35.7721 98.5018 34.9062C97.5105 33.9834 97.0149 32.5649 97.0149 30.6509C97.0149 29.9331 97.089 29.1356 97.2371 28.2583C97.3738 27.381 97.5846 26.5037 97.8694 25.6265C98.1884 24.6466 98.5929 23.7181 99.0828 22.8408C99.5841 21.9635 100.165 21.1888 100.826 20.5166C102.353 18.9671 104.233 18.1924 106.466 18.1924C107.89 18.1924 108.927 18.5342 109.576 19.2178C110.077 19.7533 110.328 20.528 110.328 21.542C110.328 22.5332 110.111 23.4674 109.679 24.3447C109.246 25.2106 108.647 25.9797 107.884 26.6519C107.121 27.3127 106.255 27.8424 105.286 28.2412C104.318 28.6286 103.315 28.8564 102.279 28.9248C102.222 29.5173 102.193 29.9844 102.193 30.3262C102.193 31.4655 102.41 32.2516 102.843 32.6846C103.219 33.0719 103.845 33.2656 104.722 33.2656C105.987 33.2656 107.144 32.9238 108.192 32.2402C108.636 31.9554 109.063 31.6193 109.473 31.2319C109.884 30.8332 110.362 30.3319 110.909 29.728H112.105C111 31.5965 109.73 33.0833 108.294 34.1885C106.528 35.5329 104.591 36.2051 102.484 36.2051ZM102.552 27.25C103.201 27.2044 103.834 27.0164 104.449 26.686C105.064 26.3556 105.611 25.9227 106.09 25.3872C106.568 24.8403 106.944 24.2308 107.218 23.5586C107.491 22.875 107.628 22.18 107.628 21.4736C107.628 21.0065 107.559 20.6533 107.423 20.4141C107.297 20.1634 107.075 20.0381 106.756 20.0381C106.335 20.0381 105.907 20.2432 105.474 20.6533C105.053 21.0635 104.643 21.6274 104.244 22.3452C103.879 23.0174 103.549 23.7808 103.253 24.6353C102.957 25.4897 102.723 26.3613 102.552 27.25ZM124.768 36.2051C123.321 36.2051 122.222 35.8633 121.47 35.1797C120.729 34.4961 120.359 33.5106 120.359 32.2231C120.359 31.6649 120.427 31.0553 120.564 30.3945L120.855 29.0273C120.946 28.6742 120.991 28.2469 120.991 27.7456C120.991 27.1987 120.894 26.7829 120.701 26.498C120.507 26.2018 120.182 26.0537 119.727 26.0537C119.351 26.0537 118.958 26.1619 118.547 26.3784C118.137 26.5949 117.67 26.9196 117.146 27.3525L115.317 36H110.276L115.352 12.1938L120.53 11.4932L117.915 23.8149L124.666 18.5H128.135L121.128 23.3706C121.527 23.2681 121.914 23.2168 122.29 23.2168C122.928 23.2168 123.486 23.325 123.965 23.5415C124.455 23.7466 124.865 24.0428 125.195 24.4302C125.503 24.7948 125.737 25.2277 125.896 25.729C126.056 26.2189 126.135 26.7487 126.135 27.3184C126.135 27.8538 126.09 28.2982 125.999 28.6514L125.606 30.3945C125.492 30.7705 125.435 31.1465 125.435 31.5225C125.435 31.9212 125.537 32.2402 125.742 32.4795C125.947 32.7074 126.301 32.8213 126.802 32.8213C127.497 32.8213 128.084 32.5365 128.562 31.9668C128.927 31.5339 129.32 30.7876 129.741 29.728H131.211C130.357 32.3143 129.234 34.1258 127.844 35.1626C126.933 35.8576 125.907 36.2051 124.768 36.2051Z" fill="#0D0C22"/>
<circle cx="10.5" cy="3.5" r="3.5" fill="#E83D5A"/>
</svg>
