<svg width="260" height="178" viewBox="0 0 260 178" fill="none" xmlns="http://www.w3.org/2000/svg">
<path d="M37.9844 22.104V33.8471" stroke="black" stroke-width="2.47223" stroke-linecap="round"/>
<path d="M23 39.5647C24.0816 34.1566 30.7257 30.2938 37.2153 33.5387C47.2927 38.5776 48.1858 42.8095 52.5123 33.5387H64.5644V42.8095" stroke="black" stroke-width="2.47223" stroke-linecap="round"/>
<path d="M54.8264 45.8994H40.7656" stroke="black" stroke-width="2.47223" stroke-linecap="round"/>
<path d="M31.5 30.9114L32.7361 21.3315H46.4879L51.4324 33.5382" stroke="black" stroke-width="2.47223" stroke-linecap="round"/>
<path d="M54.5284 32.6112V26.4306C54.4769 25.8641 54.8065 24.731 56.5371 24.731" stroke="black" stroke-width="2.47223" stroke-linecap="round"/>
<circle cx="32.8915" cy="44.3544" r="7.72572" stroke="black" stroke-width="2.47223"/>
<circle cx="60.7049" cy="46.8265" r="5.56252" stroke="black" stroke-width="2.47223"/>
<path d="M51.5088 95.2805L59.1834 89.834C60.0267 89.2356 61.1845 89.3639 61.8762 90.1325C62.6598 91.0032 62.5494 92.3538 61.6346 93.0856L50.7633 101.783C50.2902 102.161 49.7023 102.367 49.0964 102.367H37.0398M37.0398 102.367L32.3863 94.4291C32.1464 94.0198 31.7839 93.7391 31.3196 93.8365C30.1778 94.0761 27.9685 94.8527 27.2315 95.9203C27.0093 96.2423 27.0491 96.6572 27.1845 97.0243C28.0973 99.5001 30.9315 104.046 34.1084 105.119C34.6554 105.304 35.2581 105.154 35.5458 104.654C35.898 104.041 36.2474 103.16 37.0398 102.367Z" stroke="black" stroke-width="2.37194"/>
<path d="M44.1273 87.3078C44.4226 86.3235 44.7769 82.5241 42.6509 82.2879C39.9933 81.9926 36.1545 82.8786 34.3828 74.3153C36.942 74.1184 44.0682 74.3742 46.1943 79.335C45.9974 76.1853 44.7179 71.9529 53.8718 71.9529C54.4623 71.9529 55.9978 71.3623 57.4152 69C58.7932 72.9372 60.4862 81.0478 50.3283 81.9926C49.344 82.0911 47.966 84.0597 49.1472 86.4219" stroke="black" stroke-width="2.37194" stroke-linecap="round"/>
<path d="M32.3125 94.3951C33.2968 92.9187 36.0331 90.0839 39.1041 90.5564C42.638 91.1 42.4181 92.1442 49.9632 91.8459C51.117 91.8003 52.0967 92.7124 52.0967 93.8671C52.0967 94.9741 51.1993 95.8716 50.0923 95.8716H43.2381" stroke="black" stroke-width="2.37194"/>
<path d="M212.578 129.513V123.026" stroke="black" stroke-width="1.78948"/>
<path d="M223.539 129.289V122.802" stroke="black" stroke-width="1.78948"/>
<path d="M218.18 125.263V119" stroke="black" stroke-width="1.78948"/>
<path d="M214.862 131.526C214.655 130.065 214.985 126.766 217.969 125.263C219.521 125.89 221.263 128.27 220.766 131.526" stroke="black" stroke-width="1.78948"/>
<path d="M217.502 136.28C216.876 134.166 214.066 131.75 211.568 131.75C211.152 132.857 210.568 135.374 211.567 137.789" stroke="black" stroke-width="1.78948"/>
<path d="M217.502 136.28C218.107 134.166 220.821 131.75 223.232 131.75C223.634 132.857 224.198 135.374 223.233 137.789" stroke="black" stroke-width="1.78948"/>
<path d="M217.504 144.5C217.299 143.108 215.538 140.265 210.131 140.026C209.824 140.921 209.579 143.426 211.053 146.29" stroke="black" stroke-width="1.78948"/>
<path d="M217.496 144.276C217.701 142.885 219.462 140.041 224.869 139.803C225.176 140.697 225.421 143.203 223.947 146.066" stroke="black" stroke-width="1.78948"/>
<path d="M217.508 162.842V135.553" stroke="black" stroke-width="1.78948"/>
<path d="M217.5 158.816C214.125 158.514 207.744 156.035 209.217 148.539C211.058 148.438 215.292 148.902 217.5 151.562" stroke="black" stroke-width="1.78948"/>
<path d="M217.5 158.816C220.875 158.514 227.256 156.035 225.783 148.539C223.942 148.438 219.708 148.902 217.5 151.562" stroke="black" stroke-width="1.78948"/>
<path d="M127.89 148.394L131.058 151.879L123.771 158.848H113V147.76L120.92 141.107L123.771 144.592" stroke="black" stroke-width="1.75001"/>
<path d="M141.836 124.317L148.172 130.653L145.321 133.505L140.252 135.089L123.778 151.245L119.977 151.879L120.927 148.077L137.401 131.921L138.668 127.169L141.836 124.317Z" stroke="black" stroke-width="1.75001"/>
<path d="M138.031 154.096L143.734 159.798" stroke="black" stroke-width="1.75001"/>
<path d="M143.094 148.71L149.113 154.413" stroke="black" stroke-width="1.75001"/>
<path d="M140.25 151.245L149.91 160.365" stroke="black" stroke-width="1.75001"/>
<path d="M138.664 160.115L132.962 154.413L136.764 150.611L130.744 144.592M131.061 138.89L124.408 132.237L122.824 127.168L119.973 124L113.32 130.336L116.172 133.187L121.24 134.771L127.893 141.424M133.912 142.058L139.932 147.76L143.733 143.958L149.436 149.344" stroke="black" stroke-width="1.75001"/>
<path d="M138.977 127.168L145.313 133.188" stroke="black" stroke-width="1.75001"/>
<path d="M116.172 132.87L122.508 126.851" stroke="black" stroke-width="1.75001"/>
<path d="M217.102 103.103V96.8721" stroke="black" stroke-width="1.85596" stroke-linecap="square"/>
<path d="M228.492 102.97V96.7393" stroke="black" stroke-width="1.85596" stroke-linecap="square"/>
<path d="M205.82 69.0322V70.7556" stroke="black" stroke-width="1.85596" stroke-linecap="square"/>
<path d="M205.82 83.5103V81.7869" stroke="black" stroke-width="1.85596" stroke-linecap="square"/>
<path d="M211.148 71.021L209.928 72.2375" stroke="black" stroke-width="1.85596" stroke-linecap="square"/>
<path d="M211.148 81.521L209.928 80.3044" stroke="black" stroke-width="1.85596" stroke-linecap="square"/>
<path d="M201.602 72.2412L200.385 71.0205" stroke="black" stroke-width="1.85596" stroke-linecap="square"/>
<path d="M201.602 80.3008L200.385 81.5215" stroke="black" stroke-width="1.85596" stroke-linecap="square"/>
<path d="M212.977 76.3237L211.253 76.338" stroke="black" stroke-width="1.85596" stroke-linecap="square"/>
<path d="M200.242 76.3237L198.519 76.338" stroke="black" stroke-width="1.85596" stroke-linecap="square"/>
<path d="M198 103.5H236.18" stroke="black" stroke-width="1.85596" stroke-linecap="square"/>
<path d="M203.969 102.837V97.9987C203.969 96.7174 205.007 95.6787 206.289 95.6787C207.57 95.6787 208.609 96.7174 208.609 97.9987V102.837" stroke="black" stroke-width="1.85596" stroke-linecap="square"/>
<path d="M212.844 92.0996H219.472" stroke="black" stroke-width="1.85596" stroke-linecap="square"/>
<path d="M223.992 91.9668C226.891 91.9668 227.456 91.9668 230.355 91.9668" stroke="black" stroke-width="1.85596" stroke-linecap="square"/>
<path d="M201.844 92.2324C201.844 92.2324 205.838 92.2324 208.737 92.2324" stroke="black" stroke-width="1.85596" stroke-linecap="square"/>
<path d="M219.078 87.1943C221.229 87.9911 222.657 90.0428 222.657 92.337V102.97" stroke="black" stroke-width="1.85596" stroke-linecap="square"/>
<path d="M208.211 86.9297H228.759C231.834 86.9297 234.327 89.4231 234.327 92.4982C234.327 95.7842 234.327 98.6051 234.327 102.838" stroke="black" stroke-width="1.85596" stroke-linecap="square"/>
<path d="M201.039 102.838V92.1659C201.039 89.2007 203.443 86.7969 206.408 86.7969C209.373 86.7969 211.777 89.2007 211.777 92.1659V102.838" stroke="black" stroke-width="1.85596" stroke-linecap="square"/>
<path d="M218.148 76.1907C218.325 75.0418 219.156 73.0091 221.065 74.0696C221.684 72.6556 223.239 70.7819 225.572 72.4788C226.898 71.2857 229.019 71.9486 229.019 74.0696C230.08 73.6719 232.307 73.5394 232.731 76.1907" stroke="black" stroke-width="1.85596" stroke-linecap="round"/>
<path d="M220.273 82.5657C220.45 81.4168 221.281 79.3841 223.19 80.4446C223.809 79.0306 225.364 77.1569 227.697 78.8538C229.023 77.6607 231.144 78.3236 231.144 80.4446C232.205 80.0469 234.432 79.9144 234.856 82.5657" stroke="black" stroke-width="1.85596" stroke-linecap="round"/>
<circle cx="205.688" cy="76.3237" r="3.04907" stroke="black" stroke-width="1.85596"/>
<path d="M111 101.603V84.4438H124.227V101.603H111Z" stroke="black" stroke-width="2.00001"/>
<path d="M137.099 78.0094C134.405 77.8964 129.405 76.5856 130.957 72.2463C131.926 71.0032 134.512 69.4664 137.099 73.2633" stroke="black" stroke-width="2.00001"/>
<path d="M142.458 78.0094C145.302 77.8996 150.579 76.6258 148.941 72.4091C147.918 71.2011 145.529 69.3487 142.799 73.0383" stroke="black" stroke-width="2.00001"/>
<path d="M137.102 78.7243V70C137.102 68.8954 137.997 68 139.102 68H140.821C141.926 68 142.821 68.8954 142.821 70V78.7243" stroke="black" stroke-width="2.00001"/>
<path d="M136.068 79.7058L137.429 78.3662H142.532C143.779 79.2593 146.137 82.1171 145.593 86.4038M144.233 101.809C143.211 106.833 142.532 107.837 139.81 110.182C138.223 109.289 135.184 106.297 135.728 101.474" stroke="black" stroke-width="2.00001"/>
<path d="M124.227 99.8152H127.824C128.083 99.8152 128.323 99.9486 128.46 100.168L129.505 101.842C129.55 101.916 129.63 101.96 129.717 101.96H144.294C144.852 101.841 145.9 100.959 145.632 98.3853" stroke="black" stroke-width="2.00001"/>
<path d="M123.867 86.7802H126.892L133.138 80.91C133.451 80.6163 133.834 80.4079 134.25 80.3049L136.304 79.7969C135.296 80.6836 133.481 83.3218 134.287 86.7802H146.388V90.4381M146.388 90.4381H139.666M146.388 90.4381L146.052 94.096" stroke="black" stroke-width="2.00001"/>
<path d="M139.961 94.0957H146.038V98.028H139.961" stroke="black" stroke-width="2.00001"/>
<path d="M40.5859 125.078L40.5326 125.891C40.409 127.779 41.8391 129.41 43.7268 129.533C45.6144 129.657 47.2449 128.227 47.3685 126.339L47.4218 125.525" stroke="black" stroke-width="1.61125"/>
<path d="M38.9844 124.646L48.7499 125.285" stroke="black" stroke-width="1.61125"/>
<path d="M40.3025 124.406C40.5002 121.387 46.4851 119.298 47.7894 124.896" stroke="black" stroke-width="1.61125"/>
<path d="M71.6049 153.608H61.4922" stroke="black" stroke-width="1.61125"/>
<path d="M71.6084 157.36C66.8948 157.36 61.4792 157.36 56.7656 157.36" stroke="black" stroke-width="1.61125"/>
<path d="M71.6051 160.622H52.1953" stroke="black" stroke-width="1.61125"/>
<path d="M54.9691 154.261L30.9923 140.56H29.6874M25.4466 140.56H23" stroke="black" stroke-width="1.61125"/>
<path d="M50.7306 161.764C50.7275 161.419 50.7218 161.075 50.7135 160.731C50.6895 159.739 50.6434 158.751 50.5754 157.767L50.3754 158.257C52.1773 157.19 53.92 156.042 55.6034 154.813C57.3453 153.541 59.0237 152.182 60.6386 150.737L59.8711 150.347C59.9618 151.256 60.0718 152.166 60.2008 153.076C60.2492 153.417 60.3002 153.757 60.3539 154.098C60.4076 153.757 60.4586 153.417 60.507 153.076C60.636 152.166 60.746 151.256 60.8367 150.347L60.7589 149.364L60.0692 149.957C58.2004 151.055 56.3951 152.24 54.6533 153.512C52.9699 154.741 51.3457 156.051 49.7808 157.442L49.5134 157.68L49.5809 157.933C49.8357 158.886 50.1126 159.835 50.4115 160.781C50.5152 161.109 50.6216 161.437 50.7306 161.764Z" fill="black"/>
<path d="M45.3465 148.879L43.5517 131.916C40.942 129.796 42.7361 128.98 36.8643 127.675L26.4324 132.083C25.7365 132.377 25.2843 133.059 25.2843 133.815V139.419C25.1755 140.615 25.8388 142.779 29.362 141.866C29.5792 141.703 29.5244 141.213 29.5244 140.071" stroke="black" stroke-width="1.61125"/>
<path d="M29.5234 140.071V135.709C29.5234 135.487 29.6603 135.288 29.8677 135.208L35.8209 132.918C35.8632 132.902 35.9034 132.881 35.9398 132.854C36.6795 132.305 37.3486 131.394 37.1895 130.121" stroke="black" stroke-width="1.61125"/>
<path d="M41.1017 135.503L39.7969 145.29L42.8959 151.162V162.09" stroke="black" stroke-width="1.61125"/>
<path d="M37.6804 162.417V153.935L33.6027 147.737L32.4609 162.417" stroke="black" stroke-width="1.61125"/>
<path d="M26.9141 162.09V141.865" stroke="black" stroke-width="1.61125"/>
<path d="M55.7703 154.124C55.2411 154.216 54.712 154.308 54.1829 154.4C54.207 154.46 54.2311 154.52 54.2552 154.58C54.689 155.664 55.1228 156.748 55.5567 157.833C55.5808 157.893 55.6049 157.953 55.629 158.013C55.6313 157.948 55.6337 157.884 55.6361 157.819C55.6784 156.652 55.7208 155.485 55.7632 154.318C55.7656 154.253 55.7679 154.189 55.7703 154.124Z" fill="black"/>
<path d="M129.852 27.4282H134.137M141.994 27.4282H146.852" stroke="black" stroke-width="2.00001"/>
<path d="M119.57 38.1425V30.7139" stroke="black" stroke-width="2.00001"/>
<path d="M115.001 32.5715C116.372 34.7429 118.715 34.2381 119.715 33.7143C128.401 36.9144 124.859 20.2857 119.715 18C113.43 22 114.003 31 115.001 32.5715Z" stroke="black" stroke-width="2.00001"/>
<path d="M111 36.1431C115 36.7145 124.114 38.8859 128.571 43.0002" stroke="black" stroke-width="2.00001"/>
<path d="M111.141 41.5718C113.76 41.5718 119.969 42.4004 123.855 45.7146" stroke="black" stroke-width="2.00001"/>
<path d="M111 46.0005C113 45.7148 117.286 46.0004 120.143 48.429" stroke="black" stroke-width="2.00001"/>
<path d="M147.722 38C140.532 38.2857 123.922 41.8857 115.008 54.0001" stroke="black" stroke-width="2.00001"/>
<path d="M147.714 43.1429C143.381 42.6667 132.371 44.0286 123 53.2858" stroke="black" stroke-width="2.00001"/>
<path d="M148.001 47.5715C145.287 47.1429 138.573 47.4858 133.43 52.2858" stroke="black" stroke-width="2.00001"/>
<circle cx="138.141" cy="27.4282" r="3.00001" stroke="black" stroke-width="2.00001"/>
<path d="M131.859 21.2861L135.431 24.5719" stroke="black" stroke-width="2.00001"/>
<path d="M131.859 33.4287L135.431 30.143" stroke="black" stroke-width="2.00001"/>
<path d="M144.578 21.4287L141.007 24.7144" stroke="black" stroke-width="2.00001"/>
<path d="M144.578 33.2856L141.007 29.9999" stroke="black" stroke-width="2.00001"/>
<path d="M138.281 18.7139V23.4282M138.281 31.4282V35.5711" stroke="black" stroke-width="2.00001"/>
<path d="M203.753 33.7231C208.682 33.7232 212.631 37.5877 212.631 42.2964C212.631 47.0049 208.682 50.8686 203.753 50.8687C198.824 50.8687 194.875 47.005 194.875 42.2964C194.875 37.5876 198.823 33.7231 203.753 33.7231Z" stroke="black" stroke-width="1.75001"/>
<path d="M222.651 33.7231C227.581 33.7232 231.529 37.5877 231.529 42.2964C231.529 47.0049 227.581 50.8686 222.651 50.8687C217.722 50.8687 213.774 47.005 213.773 42.2964C213.773 37.5876 217.722 33.7231 222.651 33.7231Z" stroke="black" stroke-width="1.75001"/>
<path d="M212.901 17.875C217.831 17.8751 221.779 21.7396 221.779 26.4482C221.779 31.1568 217.831 35.0204 212.901 35.0205C207.972 35.0205 204.024 31.1569 204.023 26.4482C204.023 21.7395 207.972 17.875 212.901 17.875Z" stroke="black" stroke-width="1.75001"/>
<path d="M203.752 36.771C207.052 36.771 209.582 39.1851 209.582 41.9917C209.582 44.7981 207.052 47.2124 203.752 47.2124C200.452 47.2124 197.922 44.7982 197.922 41.9917C197.922 39.1851 200.452 36.771 203.752 36.771Z" stroke="black" stroke-width="1.75001"/>
<path d="M222.65 36.771C225.951 36.771 228.48 39.1851 228.48 41.9917C228.48 44.7981 225.95 47.2124 222.65 47.2124C219.35 47.2124 216.82 44.7982 216.82 41.9917C216.82 39.1851 219.35 36.771 222.65 36.771Z" stroke="black" stroke-width="1.75001"/>
<path d="M212.893 20.9229C216.193 20.9229 218.723 23.337 218.723 26.1436C218.723 28.95 216.193 31.3642 212.893 31.3643C209.593 31.3643 207.063 28.95 207.062 26.1436C207.062 23.337 209.592 20.9229 212.893 20.9229Z" stroke="black" stroke-width="1.75001"/>
<path d="M203.759 39.8188C205.048 39.8189 205.932 40.7398 205.932 41.687C205.932 42.6341 205.048 43.5551 203.759 43.5552C202.47 43.5552 201.586 42.6341 201.586 41.687C201.586 40.7398 202.47 39.8188 203.759 39.8188Z" stroke="black" stroke-width="1.75001"/>
<path d="M222.649 39.8188C223.938 39.8189 224.822 40.7398 224.822 41.687C224.822 42.6341 223.938 43.5551 222.649 43.5552C221.361 43.5552 220.477 42.6341 220.477 41.687C220.477 40.7398 221.36 39.8188 222.649 39.8188Z" stroke="black" stroke-width="1.75001"/>
<path d="M212.899 23.9707C214.188 23.9708 215.072 24.8917 215.072 25.8389C215.072 26.786 214.188 27.707 212.899 27.707C211.611 27.707 210.727 26.786 210.727 25.8389C210.727 24.8917 211.61 23.9707 212.899 23.9707Z" stroke="black" stroke-width="1.75001"/>
<path d="M204.125 50.8755H240.5" stroke="black" stroke-width="1.75001"/>
</svg>
