<svg width="296" height="220" viewBox="0 0 296 220" fill="none" xmlns="http://www.w3.org/2000/svg">
<path d="M139.356 35.4686C139.937 34.2454 141.741 34.2862 142.24 35.5909L145.74 44.7434C145.926 45.2299 145.682 45.7754 145.196 45.9614C144.709 46.1475 144.164 45.9036 143.978 45.4171L140.772 37.0317L137.566 45.4171C137.38 45.9035 136.835 46.1472 136.349 45.9614C135.862 45.7754 135.619 45.2299 135.805 44.7434L139.304 35.5909L139.356 35.4686Z" fill="black"/>
<path d="M147.371 45.0803V35.0208C147.371 34.4999 147.793 34.078 148.314 34.078C148.835 34.078 149.257 34.4999 149.257 35.0208V45.0803C149.257 45.6011 148.835 46.0231 148.314 46.0231C147.793 46.0231 147.371 45.6011 147.371 45.0803Z" fill="black"/>
<path d="M143.287 40.9937C143.808 40.9938 144.23 41.4156 144.23 41.9364C144.23 42.4572 143.808 42.8791 143.287 42.8792H138.572C138.051 42.8792 137.629 42.4573 137.629 41.9364C137.629 41.4156 138.051 40.9937 138.572 40.9937H143.287Z" fill="black"/>
<path d="M159.029 49.027C159.567 48.5174 160.416 48.5405 160.925 49.0786L168.978 57.5784C169.488 58.1165 169.464 58.9656 168.926 59.4753C168.388 59.985 167.539 59.9618 167.029 59.4238L158.977 50.9239C158.467 50.3858 158.49 49.5367 159.029 49.027Z" fill="black"/>
<path d="M153.238 20.0281L153.987 22.2875C154.707 24.4601 156.411 26.1645 158.584 26.8845L160.843 27.6332L158.584 28.382C156.411 29.1019 154.707 30.8063 153.987 32.9789L153.238 35.2383L152.489 32.9789C151.769 30.8063 150.065 29.1019 147.892 28.382L145.633 27.6332L147.892 26.8845C150.065 26.1645 151.769 24.4601 152.489 22.2875L153.238 20.0281Z" fill="black"/>
<path d="M153.987 22.2876C154.707 24.4601 156.411 26.1644 158.584 26.8844L160.843 27.6332L158.584 28.382L158.182 28.5279C156.202 29.3164 154.662 30.9421 153.987 32.9788L153.238 35.2383L152.489 32.9788C151.814 30.9421 150.274 29.3164 148.294 28.5279L147.892 28.382L145.633 27.6332L147.892 26.8844C149.929 26.2094 151.555 24.6695 152.343 22.6895L152.489 22.2876L153.238 20.0281L153.987 22.2876ZM153.177 22.5156C152.385 24.9053 150.51 26.7801 148.12 27.572L147.935 27.6332L148.12 27.6944C150.51 28.4863 152.385 30.3612 153.177 32.7508L153.238 32.9351L153.299 32.7508C154.091 30.3612 155.966 28.4863 158.356 27.6944L158.54 27.6332L158.356 27.572C155.966 26.7801 154.091 24.9053 153.299 22.5156L153.238 22.3304L153.177 22.5156Z" fill="black"/>
<path d="M162.634 14.6597L163.251 16.5204C163.844 18.3095 165.247 19.7132 167.036 20.3061L168.897 20.9227L167.036 21.5393C165.247 22.1322 163.844 23.5359 163.251 25.3251L162.634 27.1858L162.018 25.325C161.425 23.5359 160.021 22.1322 158.232 21.5393L156.371 20.9227L158.232 20.3061C160.021 19.7132 161.425 18.3095 162.018 16.5204L162.634 14.6597Z" fill="black"/>
<path d="M163.251 16.5208C163.844 18.3096 165.247 19.7129 167.036 20.3059L168.897 20.9227L167.036 21.5396L166.706 21.6602C165.075 22.3094 163.807 23.6475 163.251 25.3247L162.634 27.1858L162.017 25.3247C161.461 23.6475 160.193 22.3094 158.562 21.6602L158.232 21.5396L156.371 20.9227L158.232 20.3059C159.909 19.7499 161.247 18.4815 161.897 16.851L162.017 16.5208L162.634 14.6597L163.251 16.5208ZM162.583 16.7077C161.931 18.6758 160.387 20.2199 158.419 20.872L158.266 20.9227L158.419 20.9734C160.387 21.6256 161.931 23.1696 162.583 25.1377L162.634 25.2897L162.685 25.1377C163.337 23.1696 164.881 21.6256 166.849 20.9734L167.001 20.9227L166.849 20.872C164.881 20.2199 163.337 18.6758 162.685 16.7077L162.634 16.5548L162.583 16.7077Z" fill="black"/>
<path d="M163.975 28.9752L164.372 30.1714C164.753 31.3216 165.655 32.2239 166.806 32.6051L168.002 33.0015L166.806 33.3979C165.655 33.779 164.753 34.6814 164.372 35.8315L163.975 37.0277L163.579 35.8315C163.198 34.6814 162.296 33.779 161.145 33.3979L159.949 33.0015L161.145 32.6051C162.296 32.2239 163.198 31.3216 163.579 30.1714L163.975 28.9752Z" fill="black"/>
<path d="M164.372 30.1714C164.753 31.3215 165.655 32.2236 166.806 32.6048L168.002 33.0015L166.806 33.3982L166.593 33.475C165.545 33.8924 164.73 34.7531 164.372 35.8315L163.975 37.0277L163.579 35.8315C163.221 34.7531 162.406 33.8924 161.358 33.475L161.145 33.3982L159.949 33.0015L161.145 32.6048C162.295 32.2236 163.198 31.3215 163.579 30.1714L163.975 28.9752L164.372 30.1714ZM163.943 30.292C163.524 31.5572 162.531 32.5499 161.266 32.9691L161.168 33.0015L161.266 33.0338C162.531 33.4531 163.524 34.4458 163.943 35.711L163.975 35.808L164.008 35.711C164.427 34.4458 165.42 33.4531 166.685 33.0338L166.782 33.0015L166.685 32.9691C165.42 32.5499 164.427 31.5572 164.008 30.292L163.975 30.1941L163.943 30.292Z" fill="black"/>
<path d="M146.08 17.3439C147.621 17.3439 149.118 17.5262 150.554 17.8681V20.6405C149.131 20.242 147.631 20.028 146.08 20.028C136.939 20.028 129.528 27.4388 129.528 36.5804C129.528 45.722 136.939 53.1327 146.08 53.1327C154.151 53.1327 160.872 47.3561 162.336 39.7119H165.062C163.566 48.8464 155.638 55.8169 146.08 55.8169C135.456 55.8169 126.844 47.2044 126.844 36.5804C126.844 25.9564 135.456 17.3439 146.08 17.3439Z" fill="black"/>
<path d="M166.423 194.716C166.94 194.226 167.757 194.249 168.247 194.766L175.992 202.941C176.482 203.459 176.46 204.275 175.942 204.766C175.425 205.256 174.608 205.233 174.118 204.716L166.373 196.541C165.883 196.023 165.905 195.207 166.423 194.716Z" fill="black"/>
<path d="M148.376 181.455C149.089 181.455 149.667 182.033 149.667 182.746C149.667 183.458 149.089 184.036 148.376 184.036H125.572C124.859 184.036 124.281 183.458 124.281 182.746C124.281 182.033 124.859 181.455 125.572 181.455H148.376Z" fill="black"/>
<path d="M126.335 170.695C126.812 170.165 127.629 170.122 128.159 170.599L132.093 174.14H141.924C142.637 174.14 143.215 174.718 143.215 175.431C143.215 176.144 142.637 176.722 141.924 176.722H131.103L130.734 176.391L126.431 172.518C125.901 172.041 125.858 171.225 126.335 170.695Z" fill="black"/>
<path d="M126.335 194.796C126.812 195.326 127.629 195.369 128.159 194.892L132.093 191.351H141.924C142.637 191.351 143.215 190.773 143.215 190.06C143.215 189.347 142.637 188.769 141.924 188.769H131.103L130.734 189.1L126.431 192.973C125.901 193.45 125.858 194.266 126.335 194.796Z" fill="black"/>
<path d="M129.45 170.698C129.45 172.361 128.101 173.71 126.438 173.71C124.774 173.71 123.426 172.361 123.426 170.698C123.426 169.035 124.774 167.686 126.438 167.686C128.101 167.686 129.45 169.035 129.45 170.698Z" fill="black"/>
<path d="M129.45 194.793C129.45 193.13 128.101 191.781 126.438 191.781C124.774 191.781 123.426 193.13 123.426 194.793C123.426 196.456 124.774 197.805 126.438 197.805C128.101 197.805 129.45 196.456 129.45 194.793Z" fill="black"/>
<path d="M126.867 182.746C126.867 184.409 125.519 185.757 123.856 185.757C122.192 185.757 120.844 184.409 120.844 182.746C120.844 181.082 122.192 179.734 123.856 179.734C125.519 179.734 126.867 181.082 126.867 182.746Z" fill="black"/>
<path d="M153.54 163.384C163.996 163.384 172.472 171.86 172.472 182.315C172.472 192.771 163.996 201.247 153.54 201.247C147.27 201.247 141.713 198.198 138.268 193.502H141.617C144.6 196.68 148.838 198.665 153.54 198.665C162.57 198.665 169.891 191.345 169.891 182.315C169.891 173.285 162.57 165.965 153.54 165.965C148.427 165.965 143.863 168.313 140.864 171.989H137.672C141.05 166.808 146.895 163.384 153.54 163.384Z" fill="black"/>
<path d="M67.2009 162.657C67.4904 161.783 68.7261 161.783 69.0156 162.657C70.2824 166.479 73.2815 169.479 77.1043 170.745C77.9779 171.035 77.9779 172.271 77.1043 172.56C73.2815 173.827 70.2824 176.826 69.0156 180.649C68.7261 181.522 67.4904 181.522 67.2009 180.649C65.9341 176.826 62.935 173.827 59.1122 172.56C58.2386 172.271 58.2386 171.035 59.1122 170.745C62.935 169.479 65.9341 166.479 67.2009 162.657Z" fill="black"/>
<path d="M67.2011 162.656C67.4907 161.783 68.7258 161.783 69.0154 162.656C70.2822 166.479 73.2817 169.479 77.1045 170.745C77.9777 171.035 77.9777 172.27 77.1045 172.56L76.7483 172.684C73.0958 174.015 70.2426 176.946 69.0154 180.649L68.9505 180.803C68.6 181.471 67.6164 181.471 67.266 180.803L67.2011 180.649C65.9342 176.826 62.9347 173.827 59.1119 172.56C58.2387 172.27 58.2387 171.035 59.1119 170.745C62.9347 169.479 65.9342 166.479 67.2011 162.656ZM68.1082 163.957C66.6819 167.452 63.9072 170.226 60.4125 171.653C63.9069 173.079 66.6818 175.853 68.1082 179.347C69.5345 175.853 72.309 173.079 75.803 171.653C72.3087 170.226 69.5344 167.451 68.1082 163.957Z" fill="black"/>
<path d="M70.0077 196.284C70.5805 195.711 71.509 195.711 72.0818 196.284L79.4156 203.618C79.9884 204.19 79.9884 205.119 79.4156 205.692C78.8428 206.265 77.9143 206.265 77.3415 205.692L70.0077 198.358C69.4349 197.785 69.4349 196.857 70.0077 196.284Z" fill="black"/>
<path d="M76.9387 179.492C77.7485 179.507 78.3928 180.175 78.3777 180.985C78.2063 190.101 74.7871 195.852 70.4099 199.255C66.1064 202.599 61.0248 203.559 57.6006 203.418C46.4116 203.398 37.3086 194.456 37.3086 183.38C37.3087 172.292 46.4319 163.341 57.6379 163.341C58.4479 163.341 59.1046 163.998 59.1046 164.808C59.1046 165.618 58.4479 166.275 57.6379 166.275C48.009 166.275 40.2422 173.954 40.2421 183.38C40.2421 192.806 48.0089 200.485 57.6379 200.485H57.6694L57.7009 200.487C60.564 200.61 64.9405 199.79 68.6089 196.939C72.2141 194.137 75.2876 189.256 75.4442 180.93C75.4597 180.12 76.1289 179.476 76.9387 179.492Z" fill="black"/>
<path d="M242.076 194.858C243.052 193.881 244.635 193.881 245.611 194.858L252.111 201.358C253.087 202.334 253.087 203.916 252.111 204.893C251.135 205.869 249.552 205.869 248.576 204.893L242.076 198.393C241.1 197.416 241.1 195.834 242.076 194.858Z" fill="black"/>
<path d="M245.872 174.642C246.7 174.657 247.359 175.341 247.344 176.169C247.168 185.491 243.672 191.373 239.195 194.853C234.794 198.273 229.598 199.255 226.096 199.11C214.653 199.09 205.344 189.946 205.344 178.618C205.344 167.278 214.674 158.125 226.134 158.125C226.962 158.125 227.634 158.797 227.634 159.625C227.634 160.454 226.962 161.125 226.134 161.125C216.287 161.125 208.344 168.979 208.344 178.618C208.344 188.258 216.287 196.111 226.134 196.111H226.166L226.198 196.113C229.126 196.239 233.602 195.4 237.354 192.484C241.04 189.619 244.184 184.627 244.344 176.112C244.36 175.284 245.044 174.626 245.872 174.642Z" fill="black"/>
<path d="M237.155 156.132C237.219 155.958 237.466 155.958 237.53 156.132L240.559 164.318C240.66 164.591 240.876 164.807 241.15 164.909L249.336 167.938C249.51 168.002 249.51 168.248 249.336 168.313L241.15 171.342C240.876 171.443 240.66 171.659 240.559 171.933L237.53 180.118C237.466 180.292 237.219 180.292 237.155 180.118L234.126 171.933C234.025 171.659 233.809 171.443 233.535 171.342L225.349 168.313C225.175 168.248 225.175 168.002 225.349 167.938L233.535 164.909C233.809 164.807 234.025 164.591 234.126 164.318L237.155 156.132Z" fill="black"/>
<path d="M226.155 173.132C226.219 172.958 226.466 172.958 226.53 173.132L228.018 177.154C228.069 177.291 228.177 177.399 228.314 177.449L232.336 178.938C232.51 179.002 232.51 179.248 232.336 179.313L228.314 180.801C228.177 180.852 228.069 180.96 228.018 181.096L226.53 185.118C226.466 185.292 226.219 185.292 226.155 185.118L224.667 181.096C224.616 180.96 224.508 180.852 224.371 180.801L220.349 179.313C220.175 179.248 220.175 179.002 220.349 178.938L224.371 177.449C224.508 177.399 224.616 177.291 224.667 177.154L226.155 173.132Z" fill="black"/>
<path d="M73.4168 17.0129C73.4439 16.9313 73.5593 16.9313 73.5863 17.0129L73.6211 17.1177C74.8044 20.6887 77.606 23.4902 81.177 24.6736L81.2818 24.7083C81.3634 24.7354 81.3634 24.8508 81.2818 24.8778L81.177 24.9126C77.606 26.0959 74.8044 28.8975 73.6211 32.4685L73.5863 32.5733C73.5593 32.6549 73.4439 32.6549 73.4168 32.5733L73.3821 32.4685C72.1987 28.8975 69.3972 26.0959 65.8262 24.9126L65.7214 24.8778C65.6398 24.8508 65.6398 24.7354 65.7214 24.7083L65.8262 24.6736C69.3972 23.4902 72.1987 20.6887 73.3821 17.1177L73.4168 17.0129Z" fill="black"/>
<path d="M73.5861 32.5735L73.5722 32.5997C73.5374 32.6458 73.4657 32.6458 73.4309 32.5997L73.417 32.5735L73.396 32.5099L73.5015 32.5448L73.6062 32.5099L73.5861 32.5735ZM73.621 32.468L73.6062 32.5099L73.5015 32.5448L73.396 32.5099L73.3821 32.468C73.3721 32.4379 73.3609 32.4082 73.3507 32.3782L73.5015 32.4279L73.6515 32.3782C73.6413 32.4081 73.631 32.438 73.621 32.468ZM73.417 17.0126C73.4442 16.9314 73.5589 16.9314 73.5861 17.0126L73.621 17.1181C74.7944 20.6586 77.5591 23.4418 81.0867 24.6422L81.1364 24.7931L81.0867 24.943C77.5889 26.1332 74.8417 28.8804 73.6515 32.3782L73.5015 32.4279L73.3507 32.3782C72.1604 28.8802 69.4136 26.133 65.9155 24.943L65.8266 24.9125L65.7211 24.8776C65.6399 24.8504 65.6399 24.7357 65.7211 24.7085L65.7838 24.6875L65.8266 24.6736C69.3674 23.5001 72.1504 20.735 73.3507 17.207L73.3821 17.1181L73.417 17.0126ZM73.5015 19.7784C72.3234 21.879 70.5875 23.6149 68.4869 24.7931C70.5873 25.9711 72.3234 27.7066 73.5015 29.8068C74.6796 27.7068 76.4153 25.9711 78.5153 24.7931C76.415 23.6149 74.6796 21.8788 73.5015 19.7784ZM81.1765 24.6736L81.2184 24.6875L81.2533 24.7931L81.2184 24.8977L81.1765 24.9125C81.1465 24.9225 81.1166 24.9328 81.0867 24.943L81.1364 24.7931L81.0867 24.6422C81.1167 24.6524 81.1464 24.6636 81.1765 24.6736ZM81.282 24.7085C81.3632 24.7357 81.3632 24.8504 81.282 24.8776L81.2184 24.8977L81.2533 24.7931L81.2184 24.6875L81.282 24.7085Z" fill="black"/>
<path d="M60.1376 36.8472C61.5619 36.8472 62.0765 38.4998 61.2546 39.3985C58.2244 42.7116 57.4201 45.9238 57.581 48.5951C57.745 51.3155 58.9189 53.5796 59.9928 54.8932C60.777 55.8524 60.1445 57.3835 58.8157 57.3836H42.6967C38.9982 57.3836 36 54.3854 36 50.6869V47.1154C36 41.4444 40.5972 36.8472 46.2682 36.8472H60.1376ZM38.6787 50.6869C38.6787 52.906 40.4776 54.7049 42.6967 54.7049H56.6524C55.7691 53.1107 55.047 51.0703 54.9076 48.7555C54.7363 45.9113 55.4515 42.7232 57.7144 39.5258H46.2682C42.0766 39.5258 38.6787 42.9238 38.6787 47.1154V50.6869Z" fill="black"/>
<path d="M73.9463 48.0082C73.9463 44.8029 71.3479 42.2044 68.1426 42.2044C64.9372 42.2044 62.3388 44.8029 62.3388 48.0082C62.3388 51.2135 64.9372 53.8119 68.1426 53.8119V56.4906C63.4579 56.4906 59.6602 52.6929 59.6602 48.0082C59.6602 43.3235 63.4579 39.5258 68.1426 39.5258C72.8273 39.5258 76.625 43.3235 76.625 48.0082C76.625 52.6929 72.8273 56.4906 68.1426 56.4906V53.8119C71.3479 53.8119 73.9463 51.2135 73.9463 48.0082Z" fill="black"/>
<path d="M72.9532 52.4691C73.4481 51.9194 74.2956 51.8749 74.8454 52.3697L79.3098 56.3877C79.8595 56.8826 79.904 57.7301 79.4092 58.2799C78.9144 58.8296 78.0668 58.8741 77.5171 58.3793L73.0526 54.3613C72.5029 53.8664 72.4584 53.0189 72.9532 52.4691Z" fill="black"/>
<path d="M61 25.2395C61 29.9242 57.2023 33.7219 52.5176 33.7219C47.8329 33.7219 44.0352 29.9242 44.0352 25.2395C44.0352 20.5548 47.8329 16.7571 52.5176 16.7571C57.2023 16.7571 61 20.5548 61 25.2395Z" fill="black"/>
<path d="M234.688 44.5679V34.8247C234.688 34.179 235.211 33.6555 235.857 33.6555C236.502 33.6555 237.026 34.179 237.026 34.8247V44.5679C237.026 45.2136 236.502 45.737 235.857 45.737C235.211 45.737 234.688 45.2136 234.688 44.5679Z" fill="black"/>
<path d="M230.014 40.6707C230.66 40.6707 231.183 41.1941 231.183 41.8398C231.183 42.4856 230.66 43.009 230.014 43.009H225.337C224.691 43.009 224.168 42.4856 224.168 41.8398C224.168 41.1941 224.691 40.6707 225.337 40.6707H230.014Z" fill="black"/>
<path d="M243.26 42.2295V26.2507H215.979V53.1419H231.568C232.214 53.1419 232.737 53.6653 232.737 54.311C232.737 54.9568 232.214 55.4802 231.568 55.4802H213.641V23.9124H245.598V42.2295C245.598 42.8752 245.075 43.3987 244.429 43.3987C243.783 43.3987 243.26 42.8752 243.26 42.2295Z" fill="black"/>
<path d="M226.53 34.5318C226.938 33.5658 228.27 33.5141 228.765 34.4054L228.811 34.4953L233.414 44.4675C233.684 45.0538 233.428 45.749 232.842 46.0196C232.256 46.2902 231.561 46.0342 231.29 45.448L227.721 37.7158L224.465 45.4129C224.214 46.0075 223.528 46.2861 222.933 46.0348C222.339 45.7833 222.06 45.0971 222.311 44.5026L226.53 34.5318Z" fill="black"/>
<path d="M220.266 24.3021V18.8459C220.266 18.2002 220.789 17.6768 221.435 17.6768C222.081 17.6768 222.604 18.2002 222.604 18.8459V24.3021C222.604 24.9478 222.081 25.4713 221.435 25.4713C220.789 25.4713 220.266 24.9478 220.266 24.3021Z" fill="black"/>
<path d="M213.641 49.2446H208.185C207.539 49.2446 207.016 48.7212 207.016 48.0754C207.016 47.4297 207.539 46.9063 208.185 46.9063H213.641C214.287 46.9063 214.81 47.4297 214.81 48.0754C214.81 48.7212 214.287 49.2446 213.641 49.2446Z" fill="black"/>
<path d="M236.637 24.3021V18.8459C236.637 18.2002 237.16 17.6768 237.806 17.6768C238.452 17.6768 238.975 18.2002 238.975 18.8459V24.3021C238.975 24.9478 238.452 25.4713 237.806 25.4713C237.16 25.4713 236.637 24.9478 236.637 24.3021Z" fill="black"/>
<path d="M213.641 32.8761H208.185C207.539 32.8761 207.016 32.3526 207.016 31.7069C207.016 31.0612 207.539 30.5377 208.185 30.5377H213.641C214.287 30.5377 214.81 31.0612 214.81 31.7069C214.81 32.3526 214.287 32.8761 213.641 32.8761Z" fill="black"/>
<path d="M245.214 32.8761H250.671C251.316 32.8761 251.84 32.3526 251.84 31.7069C251.84 31.0612 251.316 30.5377 250.671 30.5377H245.214C244.569 30.5377 244.045 31.0612 244.045 31.7069C244.045 32.3526 244.569 32.8761 245.214 32.8761Z" fill="black"/>
<path d="M222.996 54.7008V60.157C222.996 60.8027 222.473 61.3262 221.827 61.3262C221.181 61.3262 220.658 60.8027 220.658 60.157V54.7008C220.658 54.0551 221.181 53.5316 221.827 53.5316C222.473 53.5316 222.996 54.0551 222.996 54.7008Z" fill="black"/>
<path d="M228.453 24.6918V14.1692C228.453 13.5235 228.977 13 229.622 13C230.268 13 230.791 13.5235 230.791 14.1692V24.6918C230.791 25.3375 230.268 25.861 229.622 25.861C228.977 25.861 228.453 25.3375 228.453 24.6918Z" fill="black"/>
<path d="M214.036 41.0604H203.513C202.867 41.0604 202.344 40.537 202.344 39.8912C202.344 39.2455 202.867 38.7221 203.513 38.7221H214.036C214.681 38.7221 215.205 39.2455 215.205 39.8912C215.205 40.537 214.681 41.0604 214.036 41.0604Z" fill="black"/>
<path d="M244.82 41.0604H255.343C255.988 41.0604 256.512 40.537 256.512 39.8912C256.512 39.2455 255.988 38.7221 255.343 38.7221H244.82C244.174 38.7221 243.651 39.2455 243.651 39.8912C243.651 40.537 244.174 41.0604 244.82 41.0604Z" fill="black"/>
<path d="M231.18 54.3111V64.8337C231.18 65.4795 230.656 66.0029 230.011 66.0029C229.365 66.0029 228.841 65.4795 228.841 64.8337V54.3111C228.841 53.6654 229.365 53.1419 230.011 53.1419C230.656 53.1419 231.18 53.6654 231.18 54.3111Z" fill="black"/>
<path d="M247.94 53.1419C247.94 49.9133 245.323 47.296 242.094 47.296C238.866 47.296 236.249 49.9133 236.249 53.1419C236.249 56.3705 238.866 58.9878 242.094 58.9878V61.3262C237.574 61.3262 233.91 57.6619 233.91 53.1419C233.91 48.6219 237.574 44.9576 242.094 44.9576C246.614 44.9576 250.279 48.6219 250.279 53.1419C250.279 57.6619 246.614 61.3262 242.094 61.3262V58.9878C245.323 58.9878 247.94 56.3705 247.94 53.1419Z" fill="black"/>
<path d="M246.721 57.3818C247.178 56.9252 247.918 56.9252 248.375 57.3818L252.662 61.6687C253.118 62.1253 253.118 62.8654 252.662 63.322C252.205 63.7786 251.465 63.7786 251.008 63.322L246.721 59.035C246.265 58.5785 246.265 57.8383 246.721 57.3818Z" fill="black"/>
<path d="M162.406 107.258C162.406 97.5196 154.511 89.6248 144.772 89.6247C135.034 89.6247 127.139 97.5195 127.139 107.258C127.139 116.997 135.034 124.892 144.772 124.892V127.515L144.25 127.508C133.477 127.235 124.795 118.553 124.522 107.781L124.516 107.258C124.516 96.0707 133.585 87.0015 144.772 87.0015L145.295 87.0083C156.241 87.2856 165.029 96.2455 165.029 107.258L165.022 107.781C164.745 118.726 155.785 127.515 144.772 127.515V124.892C154.511 124.891 162.406 116.997 162.406 107.258Z" fill="black"/>
<path d="M158.194 118.772C158.692 118.246 159.522 118.223 160.048 118.72L172.766 130.737C173.292 131.234 173.316 132.064 172.819 132.591C172.321 133.117 171.49 133.141 170.964 132.643L158.246 120.626C157.72 120.129 157.697 119.299 158.194 118.772Z" fill="black"/>
<path d="M150.49 94.4451C150.772 93.6838 151.849 93.6838 152.13 94.4451L153.465 98.0522C153.554 98.2915 153.742 98.4802 153.982 98.5688L157.589 99.9035C158.35 100.185 158.35 101.262 157.589 101.544L153.982 102.878C153.742 102.967 153.554 103.156 153.465 103.395L152.13 107.002C151.849 107.763 150.772 107.763 150.49 107.002L149.156 103.395C149.067 103.156 148.878 102.967 148.639 102.878L145.032 101.544C144.271 101.262 144.271 100.185 145.032 99.9035L148.639 98.5688C148.878 98.4802 149.067 98.2915 149.156 98.0522L150.49 94.4451Z" fill="black"/>
<path d="M144.118 98.7999C139.738 99.1343 136.287 102.792 136.287 107.258C136.288 111.944 140.087 115.743 144.773 115.743C148.784 115.743 152.143 112.959 153.028 109.218H155.708C154.782 114.418 150.239 118.366 144.773 118.367L144.486 118.362C138.579 118.213 133.817 113.452 133.667 107.545L133.664 107.258C133.664 101.343 138.288 96.5088 144.118 96.1698V98.7999Z" fill="black"/>
<path d="M241.461 102.389C241.461 92.5982 233.523 84.6608 223.732 84.6608C213.94 84.6608 206.003 92.5982 206.003 102.389C206.003 112.181 213.94 120.118 223.732 120.118V122.778C212.472 122.778 203.344 113.649 203.344 102.389C203.344 91.1295 212.472 82.0015 223.732 82.0015C234.992 82.0015 244.12 91.1295 244.12 102.389C244.12 113.649 234.992 122.778 223.732 122.778V120.118C233.523 120.118 241.461 112.181 241.461 102.389Z" fill="black"/>
<path d="M236.53 115.189C237.049 114.67 237.891 114.67 238.41 115.189L241.513 118.292C242.032 118.811 242.032 119.653 241.513 120.172C240.994 120.691 240.152 120.691 239.633 120.172L236.53 117.069C236.011 116.55 236.011 115.708 236.53 115.189Z" fill="black"/>
<path d="M255.944 127.699C257.821 129.546 257.846 132.565 255.999 134.442L254.103 132.577C254.92 131.747 254.909 130.411 254.079 129.595L243.504 119.188L240.546 122.195L251.121 132.601C251.951 133.418 253.286 133.407 254.103 132.577L255.999 134.442C254.152 136.319 251.133 136.343 249.256 134.496L238.049 123.468C237.351 122.782 237.342 121.659 238.029 120.961L242.23 116.691C242.917 115.993 244.039 115.984 244.737 116.671L255.944 127.699Z" fill="black"/>
<path d="M218.573 95.4443C219.211 94.0156 221.316 94.0632 221.857 95.5872L226.315 108.15C226.561 108.842 226.199 109.602 225.507 109.848C224.815 110.094 224.054 109.732 223.808 109.04L220.186 98.8299L216.564 109.04C216.319 109.732 215.558 110.094 214.866 109.848C214.174 109.602 213.812 108.842 214.057 108.15L218.516 95.5872L218.573 95.4443Z" fill="black"/>
<path d="M229.051 108.595V95.298C229.051 94.5637 229.646 93.9684 230.38 93.9684C231.115 93.9684 231.71 94.5637 231.71 95.298V108.595C231.71 109.329 231.115 109.924 230.38 109.924C229.646 109.924 229.051 109.329 229.051 108.595Z" fill="black"/>
<path d="M222.844 103.719C223.578 103.719 224.173 104.314 224.173 105.049C224.173 105.783 223.578 106.378 222.844 106.378H217.525C216.791 106.378 216.195 105.783 216.195 105.049C216.195 104.314 216.791 103.719 217.525 103.719H222.844Z" fill="black"/>
<path d="M69.9607 125.15C70.8539 124.316 72.2545 124.365 73.0881 125.258L78.7493 131.323C79.5829 132.217 79.5345 133.617 78.6413 134.451C77.7482 135.284 76.3484 135.236 75.5147 134.343L69.8527 128.277C69.0191 127.384 69.0675 125.983 69.9607 125.15Z" fill="black"/>
<path d="M66.4464 91.6307C66.5034 91.4766 66.7213 91.4766 66.7783 91.6307L67.3659 93.2185C68.6207 96.6096 71.2943 99.2832 74.6853 100.538L76.2732 101.126C76.4273 101.183 76.4273 101.401 76.2732 101.458L74.6853 102.045C71.2943 103.3 68.6207 105.974 67.3659 109.365L66.7783 110.952C66.7213 111.106 66.5034 111.106 66.4464 110.952L65.8588 109.365C64.604 105.974 61.9304 103.3 58.5393 102.045L56.9515 101.458C56.7974 101.401 56.7974 101.183 56.9515 101.126L58.5393 100.538C61.9304 99.2832 64.604 96.6096 65.8588 93.2185L66.4464 91.6307Z" fill="black"/>
<path d="M61.1173 81.117C61.1743 80.9629 61.3922 80.9629 61.4492 81.117L61.5925 81.5042C62.3543 83.563 63.9776 85.1863 66.0365 85.9481L66.4236 86.0914C66.5777 86.1484 66.5777 86.3663 66.4236 86.4234L66.0365 86.5666C63.9776 87.3285 62.3543 88.9517 61.5925 91.0106L61.4492 91.3977C61.3922 91.5518 61.1743 91.5518 61.1173 91.3977L60.974 91.0106C60.2122 88.9517 58.5889 87.3285 56.5301 86.5666L56.1429 86.4234C55.9888 86.3663 55.9888 86.1484 56.1429 86.0914L56.5301 85.9481C58.5889 85.1863 60.2122 83.563 60.974 81.5042L61.1173 81.117Z" fill="black"/>
<path d="M56.9866 92.2864C57.7168 92.2215 58.3614 92.7609 58.4263 93.4911C58.4912 94.2213 57.9519 94.8659 57.2217 94.9308L54.6473 95.1598C53.4472 95.2664 52.2651 95.5246 51.1301 95.9289C49.5141 96.5046 48.0154 97.3677 46.7064 98.4765L45.5925 99.4193L44.6065 100.49C43.5508 101.636 42.7032 102.957 42.1013 104.394C41.6443 105.485 41.3335 106.632 41.1775 107.804L41.136 108.111C40.9525 109.489 40.9525 110.886 41.136 112.264C41.3192 113.64 41.6857 114.991 42.2222 116.272C42.7589 117.553 43.4695 118.769 44.3213 119.867C45.175 120.967 46.182 121.964 47.2915 122.805C48.405 123.65 49.6397 124.356 50.9331 124.886C52.2317 125.417 53.6062 125.782 54.9973 125.963C56.393 126.145 57.8161 126.145 59.2118 125.963C60.6029 125.782 61.9774 125.417 63.276 124.886C64.5701 124.355 65.7969 123.656 66.9099 122.812L67.0559 122.7C68.0783 121.924 68.9947 121.018 69.7815 120.004L69.8221 119.952C70.7084 118.81 71.4153 117.539 71.9195 116.184C72.362 114.995 72.6441 113.752 72.7577 112.488L72.9755 110.069C73.0411 109.339 73.6859 108.801 74.4161 108.866C75.1462 108.932 75.6846 109.577 75.619 110.307L75.4021 112.726C75.2673 114.225 74.9333 115.7 74.4083 117.111C73.8101 118.718 72.9708 120.225 71.9195 121.58L71.8789 121.632C70.9499 122.829 69.8677 123.899 68.6607 124.815L68.5146 124.926C67.2169 125.911 65.7883 126.725 64.2819 127.342C62.7712 127.961 61.1735 128.385 59.5541 128.595C57.9309 128.807 56.2774 128.807 54.6542 128.595C53.0347 128.385 51.4371 127.961 49.9263 127.342C48.4193 126.725 46.9839 125.904 45.6867 124.92C44.3926 123.938 43.2199 122.778 42.224 121.495C41.2296 120.213 40.401 118.795 39.7741 117.298C39.1473 115.802 38.7188 114.224 38.5046 112.615C38.2901 111.004 38.2901 109.372 38.5046 107.761L38.5461 107.453C38.7331 106.049 39.1048 104.675 39.6522 103.369C40.3734 101.647 41.3894 100.064 42.6543 98.6908L43.6948 97.5613L43.7501 97.5017L43.8132 97.4481L44.9902 96.4509C46.5433 95.1353 48.3217 94.111 50.2392 93.428C51.5858 92.9483 52.9883 92.6419 54.4122 92.5154L56.9866 92.2864Z" fill="black" fill-opacity="0.99"/>
</svg>
