<svg width="260" height="178" viewBox="0 0 260 178" fill="none" xmlns="http://www.w3.org/2000/svg">
<path d="M127.46 16.9183C130.317 15.509 134.033 15.6103 137.129 18.6126C138.795 17.5476 141.134 17.5801 142.97 18.3772C144.892 19.212 146.515 20.9969 146.459 23.6094C149.873 23.7456 152.162 26.821 152.485 29.83C152.66 31.4671 152.288 33.2087 151.154 34.6353C150.013 36.0699 148.195 37.0717 145.693 37.3966L145.622 37.406H124.829C121.329 37.406 118.36 34.8375 117.549 31.8659C117.133 30.3411 117.274 28.6684 118.237 27.1878C119.133 25.8116 120.664 24.715 122.845 24.0206C122.663 21.0519 124.752 18.2537 127.46 16.9183ZM135.847 20.4723C133.407 17.9048 130.594 17.8478 128.442 18.9096C126.181 20.0248 124.816 22.2569 125.09 24.1782C125.204 24.9727 124.726 25.789 123.899 26.022C121.832 26.6046 120.68 27.5046 120.098 28.399C119.523 29.2822 119.42 30.2869 119.691 31.2812C120.255 33.3481 122.391 35.1858 124.829 35.1858H145.473C147.485 34.9115 148.712 34.1393 149.416 33.2537C150.133 32.3506 150.4 31.2142 150.277 30.0666C150.02 27.6669 148.196 25.7148 146.019 25.8298C144.988 25.8843 144.099 24.9859 144.215 23.9286L144.229 23.7665C144.346 22.1095 143.412 20.99 142.086 20.4138C140.633 19.7828 139.001 19.9347 138.143 20.6128C137.519 21.106 136.504 21.1632 135.847 20.4723Z" fill="black"/>
<path d="M126.183 41.7227V37.1591H128.403V41.7227C128.403 44.107 126.47 46.0397 124.086 46.0397H120.016V43.8196H124.086C125.244 43.8196 126.183 42.8808 126.183 41.7227Z" fill="black"/>
<path d="M149.864 22.9749H145.301V25.195H149.864C152.249 25.195 154.181 23.2623 154.181 20.878V13.3541H151.961V20.878C151.961 22.0361 151.023 22.9749 149.864 22.9749Z" fill="black"/>
<path d="M145.43 39.1325V37.1591H143.21V39.1325C143.21 41.5168 145.142 43.4495 147.527 43.4495H149.5V41.2294H147.527C146.368 41.2294 145.43 40.2906 145.43 39.1325Z" fill="black"/>
<path d="M123.969 18.1643V20.1378H126.189V18.1643C126.189 15.7801 124.256 13.8473 121.872 13.8473H119.898V16.0675H121.872C123.03 16.0675 123.969 17.0063 123.969 18.1643Z" fill="black"/>
<path d="M135.931 37.0359V42.3396H133.711V37.0359H135.931Z" fill="black"/>
<path d="M135.936 19.521V14.2173H138.156V19.521H135.936Z" fill="black"/>
<path d="M119.654 45.0531C119.654 44.0994 118.881 43.3263 117.927 43.3263C116.974 43.3263 116.201 44.0994 116.201 45.0531C116.201 46.0067 116.974 46.7799 117.927 46.7799V49C115.748 49 113.98 47.2329 113.98 45.0531C113.98 42.8732 115.748 41.1061 117.927 41.1061C120.107 41.1061 121.874 42.8732 121.874 45.0531C121.874 47.2329 120.107 49 117.927 49V46.7799C118.881 46.7799 119.654 46.0067 119.654 45.0531Z" fill="black"/>
<path d="M153.201 11.9971C152.247 11.9971 151.474 11.224 151.474 10.2703C151.474 9.31665 152.247 8.54354 153.201 8.54354C154.155 8.54354 154.928 9.31665 154.928 10.2703H157.148C157.148 8.09048 155.381 6.32336 153.201 6.32336C151.021 6.32336 149.254 8.09048 149.254 10.2703C149.254 12.4502 151.021 14.2173 153.201 14.2173C155.381 14.2173 157.148 12.4502 157.148 10.2703H154.928C154.928 11.224 154.155 11.9971 153.201 11.9971Z" fill="black"/>
<path d="M136.424 45.0531C136.424 44.0994 135.651 43.3263 134.697 43.3263C133.743 43.3263 132.97 44.0994 132.97 45.0531C132.97 46.0067 133.743 46.7799 134.697 46.7799V49C132.517 49 130.75 47.2329 130.75 45.0531C130.75 42.8732 132.517 41.1061 134.697 41.1061C136.877 41.1061 138.644 42.8732 138.644 45.0531C138.644 47.2329 136.877 49 134.697 49V46.7799C135.651 46.7799 136.424 46.0067 136.424 45.0531Z" fill="black"/>
<path d="M135.443 11.5038C135.443 12.4575 136.217 13.2306 137.17 13.2306C138.124 13.2306 138.897 12.4575 138.897 11.5038C138.897 10.5501 138.124 9.77703 137.17 9.77703V7.55686C139.35 7.55686 141.117 9.32398 141.117 11.5038C141.117 13.6837 139.35 15.4508 137.17 15.4508C134.99 15.4508 133.223 13.6837 133.223 11.5038C133.223 9.32398 134.99 7.55686 137.17 7.55686V9.77703C136.217 9.77703 135.443 10.5501 135.443 11.5038Z" fill="black"/>
<path d="M154.435 42.3394C154.435 41.3857 153.662 40.6126 152.709 40.6126C151.755 40.6126 150.982 41.3857 150.982 42.3394C150.982 43.2931 151.755 44.0662 152.709 44.0662V46.2864C150.529 46.2864 148.762 44.5193 148.762 42.3394C148.762 40.1596 150.529 38.3925 152.709 38.3925C154.889 38.3925 156.656 40.1596 156.656 42.3394C156.656 44.5193 154.889 46.2864 152.709 46.2864V44.0662C153.662 44.0662 154.435 43.2931 154.435 42.3394Z" fill="black"/>
<path d="M116.201 14.9574C116.201 15.9111 116.974 16.6842 117.928 16.6842C118.882 16.6842 119.655 15.9111 119.655 14.9574C119.655 14.0038 118.882 13.2306 117.928 13.2306V11.0105C120.108 11.0105 121.875 12.7776 121.875 14.9574C121.875 17.1373 120.108 18.9044 117.928 18.9044C115.748 18.9044 113.981 17.1373 113.981 14.9574C113.981 12.7776 115.748 11.0105 117.928 11.0105V13.2306C116.974 13.2306 116.201 14.0038 116.201 14.9574Z" fill="black"/>
<path d="M130.132 27.5384C130.132 26.9253 129.635 26.4283 129.022 26.4283C128.409 26.4283 127.912 26.9253 127.912 27.5384V32.4721H125.691V27.5384C125.691 25.6991 127.182 24.2081 129.022 24.2081C130.861 24.2081 132.352 25.6991 132.352 27.5384V32.4721H130.132V27.5384Z" fill="black"/>
<path d="M137.534 27.3534C137.534 26.8425 137.12 26.4283 136.609 26.4283H135.314V28.2784H136.609C137.12 28.2784 137.534 27.8643 137.534 27.3534ZM139.754 27.3534C139.754 29.0904 138.346 30.4986 136.609 30.4986H135.314V32.4721H133.094V25.5649C133.094 24.8156 133.701 24.2081 134.451 24.2081H136.609C138.346 24.2081 139.754 25.6163 139.754 27.3534Z" fill="black"/>
<path d="M142.72 24.2928V32.472H140.5V24.2928H142.72Z" fill="black"/>
<path d="M130.258 28.4019V30.622H127.668V28.4019H130.258Z" fill="black"/>
<path d="M239.535 26.6973C239.535 27.3128 239.036 27.8118 238.42 27.8118C237.805 27.8118 237.306 27.3128 237.306 26.6973V16.8064H225.325C224.71 16.8064 224.211 16.3075 224.211 15.692C224.211 15.0765 224.71 14.5775 225.325 14.5775H237.585C238.662 14.5775 239.535 15.4507 239.535 16.5278V26.6973Z" fill="black"/>
<path d="M212.09 27.1153C212.09 26.4998 212.589 26.0008 213.205 26.0008C213.82 26.0008 214.319 26.4998 214.319 27.1153V37.0062H226.3C226.915 37.0062 227.414 37.5051 227.414 38.1206C227.414 38.7361 226.915 39.2351 226.3 39.2351H214.04C212.963 39.2351 212.09 38.3619 212.09 37.2848V27.1153Z" fill="black"/>
<path d="M241.533 22.4267C241.968 21.9915 242.673 21.9915 243.109 22.4267C243.544 22.862 243.544 23.5674 243.109 24.0027L239.402 27.7098C238.864 28.2471 237.996 28.2547 237.449 27.727L233.606 24.0165C233.163 23.589 233.151 22.8834 233.578 22.4406C234.006 21.9978 234.711 21.9854 235.154 22.4129L238.406 25.5527L241.533 22.4267Z" fill="black"/>
<path d="M210.096 31.3859C209.661 31.8211 208.956 31.8211 208.52 31.3859C208.085 30.9507 208.085 30.2452 208.52 29.81L212.227 26.1028C212.764 25.5655 213.633 25.5579 214.18 26.0856L218.023 29.7961C218.466 30.2236 218.478 30.9292 218.051 31.372C217.623 31.8148 216.918 31.8272 216.475 31.3998L213.223 28.2599L210.096 31.3859Z" fill="black"/>
<path d="M228.258 42.8571H248.318V31.9911H228.258V42.8571ZM250.825 43.4143C250.825 44.4915 249.952 45.3646 248.875 45.3646H227.7C226.623 45.3646 225.75 44.4915 225.75 43.4143V31.4338C225.75 30.3567 226.623 29.4835 227.7 29.4835H248.875C249.952 29.4835 250.825 30.3567 250.825 31.4338V43.4143Z" fill="black"/>
<path d="M202.898 21.6823H222.959V10.8163H202.898V21.6823ZM225.466 22.2395C225.466 23.3166 224.593 24.1898 223.516 24.1898H202.341C201.264 24.1898 200.391 23.3166 200.391 22.2395V10.259C200.391 9.1819 201.264 8.30872 202.341 8.30872H223.516C224.593 8.30872 225.466 9.1819 225.466 10.259V22.2395Z" fill="black"/>
<path d="M248.452 34.2201C249.145 34.2201 249.706 34.7814 249.706 35.4739C249.706 36.1663 249.145 36.7276 248.452 36.7276H227.695C227.003 36.7276 226.441 36.1663 226.441 35.4739C226.441 34.7814 227.003 34.2201 227.695 34.2201H248.452Z" fill="black"/>
<path d="M223.378 16.2491C224.07 16.2491 224.632 16.8105 224.632 17.5029C224.632 18.1954 224.07 18.7567 223.378 18.7567H202.621C201.929 18.7567 201.367 18.1954 201.367 17.5029C201.367 16.8105 201.929 16.2491 202.621 16.2491H223.378Z" fill="black"/>
<path d="M232.849 39.0957C233.541 39.0957 234.102 39.657 234.102 40.3495C234.102 41.0419 233.541 41.6032 232.849 41.6032H230.48C229.788 41.6032 229.227 41.0419 229.227 40.3495C229.227 39.657 229.788 39.0957 230.48 39.0957H232.849Z" fill="black"/>
<path d="M214.739 12.3486C215.432 12.3486 215.993 12.91 215.993 13.6024C215.993 14.2948 215.432 14.8562 214.739 14.8562H212.371C211.679 14.8562 211.117 14.2948 211.117 13.6024C211.117 12.91 211.679 12.3486 212.371 12.3486H214.739Z" fill="black"/>
<path d="M220.868 12.3486C221.561 12.3486 222.122 12.91 222.122 13.6024C222.122 14.2948 221.561 14.8562 220.868 14.8562H218.5C217.807 14.8562 217.246 14.2948 217.246 13.6024C217.246 12.91 217.807 12.3486 218.5 12.3486H220.868Z" fill="black"/>
<path d="M239.536 39.0957C240.229 39.0957 240.79 39.657 240.79 40.3495C240.79 41.0419 240.229 41.6032 239.536 41.6032H237.168C236.475 41.6032 235.914 41.0419 235.914 40.3495C235.914 39.657 236.475 39.0957 237.168 39.0957H239.536Z" fill="black"/>
<path d="M150.694 74.5026C150.694 73.2076 149.644 72.1578 148.349 72.1578H139.565C138.261 72.1578 137.033 71.5498 136.242 70.5137L134.991 68.8752C134.953 68.8253 134.88 68.8213 134.836 68.8668L132.955 70.8526C132.166 71.6858 131.068 72.1578 129.921 72.1578H122.149C120.854 72.1578 119.804 73.2076 119.804 74.5026V77.1533H117.969V74.5026C117.969 72.1942 119.84 70.3228 122.149 70.3228H129.921C130.565 70.3228 131.18 70.058 131.623 69.5906L133.504 67.6048C134.325 66.7385 135.726 66.8133 136.45 67.7619L137.701 69.4005C138.144 69.9817 138.833 70.3227 139.565 70.3228H148.349C150.658 70.3228 152.529 72.1942 152.529 74.5026V77.1533H150.694V74.5026Z" fill="black"/>
<path d="M150.694 94.5862C150.694 95.8812 149.644 96.931 148.349 96.931H139.565C138.261 96.9311 137.033 97.5391 136.242 98.5751L134.991 100.214C134.953 100.264 134.88 100.268 134.836 100.222L132.955 98.2362C132.166 97.403 131.068 96.931 129.921 96.931H122.149C120.854 96.931 119.804 95.8812 119.804 94.5862V91.9356H117.969V94.5862C117.969 96.8947 119.84 98.7661 122.149 98.7661H129.921C130.565 98.7661 131.18 99.0308 131.623 99.4982L133.504 101.484C134.325 102.35 135.726 102.276 136.45 101.327L137.701 99.6884C138.144 99.1072 138.833 98.7661 139.565 98.7661H148.349C150.658 98.7661 152.529 96.8947 152.529 94.5862V91.9356H150.694V94.5862Z" fill="black"/>
<path d="M125.526 78.5771C126.029 77.2639 127.919 77.2731 128.394 78.6225L132.903 91.4271C133.071 91.905 132.82 92.4288 132.342 92.5971C131.864 92.7653 131.34 92.5143 131.172 92.0364L126.958 80.0679L122.916 92.0256C122.753 92.5056 122.233 92.7631 121.753 92.6009C121.273 92.4386 121.015 91.9178 121.177 91.4378L125.503 78.6408L125.526 78.5771Z" fill="black"/>
<path d="M129.696 85.6149C130.202 85.6149 130.613 86.0257 130.613 86.5324C130.613 87.0391 130.202 87.4499 129.696 87.4499H124.293C123.786 87.4499 123.375 87.0391 123.375 86.5324C123.375 86.0257 123.786 85.6149 124.293 85.6149H129.696Z" fill="black"/>
<path d="M142.435 82.1486C142.435 80.741 141.294 79.6 139.886 79.6H136.624V84.6973H139.886C141.294 84.6973 142.435 83.5562 142.435 82.1486ZM144.27 82.1486C144.27 84.5697 142.308 86.5324 139.886 86.5324H136.624V91.6298C136.624 92.1365 136.213 92.5473 135.707 92.5473C135.2 92.5473 134.789 92.1365 134.789 91.6298V78.8863C134.789 78.267 135.291 77.7649 135.91 77.7649H139.886C142.308 77.7649 144.27 79.7276 144.27 82.1486Z" fill="black"/>
<path d="M146.414 91.7317V78.6824C146.414 78.1757 146.825 77.7649 147.332 77.7649C147.838 77.7649 148.249 78.1757 148.249 78.6824V91.7317C148.249 92.2385 147.838 92.6493 147.332 92.6493C146.825 92.6493 146.414 92.2385 146.414 91.7317Z" fill="black"/>
<path d="M46.0181 83.7523V85.7827H20.9766V83.7523H46.0181Z" fill="black"/>
<path d="M20.5304 75.7433V95.596H18.5V75.7433H20.5304Z" fill="black"/>
<path d="M48.2765 75.856V95.7087H46.2461V75.856H48.2765Z" fill="black"/>
<path d="M22.2192 71.2311C22.2192 69.7983 21.0576 68.6367 19.6248 68.6367C18.1919 68.6367 17.0304 69.7983 17.0304 71.2311C17.0304 72.664 18.1919 73.8255 19.6248 73.8255V75.8559C17.0706 75.8559 15 73.7853 15 71.2311C15 68.6769 17.0706 66.6063 19.6248 66.6063C22.179 66.6063 24.2496 68.6769 24.2496 71.2311C24.2496 73.7853 22.179 75.8559 19.6248 75.8559V73.8255C21.0576 73.8255 22.2192 72.664 22.2192 71.2311Z" fill="black"/>
<path d="M22.2192 98.9804C22.2192 97.5475 21.0576 96.386 19.6248 96.386C18.1919 96.386 17.0304 97.5475 17.0304 98.9804C17.0304 100.413 18.1919 101.575 19.6248 101.575V103.605C17.0706 103.605 15 101.535 15 98.9804C15 96.4262 17.0706 94.3556 19.6248 94.3556C22.179 94.3556 24.2496 96.4262 24.2496 98.9804C24.2496 101.535 22.179 103.605 19.6248 103.605V101.575C21.0576 101.575 22.2192 100.413 22.2192 98.9804Z" fill="black"/>
<path d="M49.9692 71.908C49.9692 70.4751 48.8076 69.3136 47.3748 69.3136C45.9419 69.3136 44.7804 70.4751 44.7804 71.908C44.7804 73.3408 45.9419 74.5024 47.3748 74.5024V76.5328C44.8206 76.5328 42.75 74.4622 42.75 71.908C42.75 69.3538 44.8206 67.2832 47.3748 67.2832C49.929 67.2832 51.9996 69.3538 51.9996 71.908C51.9996 74.4622 49.929 76.5328 47.3748 76.5328V74.5024C48.8076 74.5024 49.9692 73.3408 49.9692 71.908Z" fill="black"/>
<path d="M49.9653 99.6573C49.9653 98.2244 48.8037 97.0629 47.3709 97.0629C45.938 97.0629 44.7765 98.2244 44.7765 99.6573C44.7765 101.09 45.938 102.252 47.3709 102.252V104.282C44.8167 104.282 42.7461 102.211 42.7461 99.6573C42.7461 97.1031 44.8167 95.0325 47.3709 95.0325C49.9251 95.0325 51.9957 97.1031 51.9957 99.6573C51.9957 102.211 49.9251 104.282 47.3709 104.282V102.252C48.8037 102.252 49.9653 101.09 49.9653 99.6573Z" fill="black"/>
<path d="M32.3983 76.1517C32.8466 75.874 33.4084 75.8589 33.8697 76.1092L33.914 76.1343L46.4412 83.5033C47.405 84.0703 47.405 85.4642 46.4412 86.0312L33.914 93.4002C33.4447 93.6762 32.8611 93.6695 32.3983 93.3828L20.5028 86.0138C19.5772 85.4404 19.5772 84.0941 20.5028 83.5207L32.3983 76.1517ZM22.3457 84.7673L33.178 91.4773L44.5853 84.7673L33.178 78.057L22.3457 84.7673Z" fill="black"/>
<path d="M230.755 76.4582C230.966 75.7703 231.694 75.383 232.382 75.5932C233.07 75.8035 233.457 76.5318 233.247 77.2198L228.471 92.8514C228.26 93.5394 227.532 93.9267 226.844 93.7165C226.156 93.5062 225.769 92.7779 225.979 92.0899L230.755 76.4582Z" fill="black"/>
<path d="M223.621 78.8951C224.164 78.4234 224.987 78.4814 225.459 79.0246C225.93 79.5678 225.872 80.3904 225.329 80.8621L220.962 84.6549L225.329 88.4478C225.872 88.9195 225.93 89.7421 225.459 90.2853C224.987 90.8285 224.164 90.8864 223.621 90.4147L218.624 86.0757C217.761 85.3256 217.761 83.9843 218.624 83.2341L223.621 78.8951Z" fill="black"/>
<path d="M235.457 78.7504C234.914 78.2787 234.091 78.3366 233.619 78.8798C233.148 79.423 233.206 80.2456 233.749 80.7173L238.116 84.5102L233.749 88.303C233.206 88.7747 233.148 89.5973 233.619 90.1405C234.091 90.6837 234.914 90.7417 235.457 90.27L240.454 85.931C241.318 85.1808 241.318 83.8395 240.454 83.0894L235.457 78.7504Z" fill="black"/>
<path d="M226.956 70.4331C226.808 70.9513 226.445 71.3811 225.959 71.6136L223.156 72.9542C222.568 73.235 221.878 73.1925 221.329 72.8416L218.881 71.2741L216.306 73.9419L217.72 76.0165C218.047 76.4954 218.134 77.098 217.958 77.6499L216.984 80.6922C216.785 81.3126 216.28 81.7863 215.648 81.9443L212.316 82.7773V86.4817L215.295 87.0776C215.893 87.1972 216.394 87.5984 216.642 88.1499L216.688 88.2621L217.778 91.1667C217.983 91.7151 217.922 92.3281 217.612 92.8247L216.131 95.1931L218.592 97.7455L221.065 96.163L221.161 96.1056C221.615 95.8518 222.154 95.7971 222.649 95.9547L222.755 95.9917L225.922 97.2101C226.567 97.4582 227.024 98.0399 227.113 98.7253L227.501 101.734H231.511L231.691 99.2203L231.704 99.0968C231.788 98.4848 232.169 97.9501 232.726 97.6714L235.888 96.0906L235.946 96.0629C236.528 95.7959 237.208 95.844 237.747 96.1907L237.8 96.2266L240.355 97.9948L242.818 95.3483L241.178 92.6822C240.861 92.1671 240.811 91.5309 241.044 90.9725L242.254 88.0682L242.304 87.9579C242.571 87.4179 243.082 87.0356 243.681 86.9357L246.619 86.4461V82.7188L243.662 82.2261C243.058 82.1254 242.54 81.7367 242.275 81.1844L240.817 78.1469C240.519 77.5261 240.584 76.7922 240.986 76.2334L242.743 73.7926L240.104 71.1531L237.375 73.0737C236.809 73.4721 236.07 73.5275 235.451 73.2179L232.85 71.9178C232.292 71.6389 231.909 71.1016 231.827 70.4834L231.439 67.576H227.772L226.956 70.4331ZM249.224 87.0593C249.224 87.979 248.559 88.7642 247.652 88.9154L244.504 89.4398L243.591 91.6323L245.326 94.4522C245.77 95.1729 245.678 96.1011 245.101 96.7205L241.835 100.229C241.198 100.913 240.155 101.026 239.387 100.494L236.669 98.6122L234.26 99.8171L234.062 102.592C233.992 103.576 233.172 104.339 232.185 104.339H226.865C225.919 104.339 225.12 103.637 224.999 102.699L224.584 99.4866L222.161 98.5546L219.497 100.26C218.742 100.743 217.75 100.626 217.128 99.981L213.863 96.5952C213.264 95.9737 213.165 95.024 213.622 94.2919L215.213 91.7468L214.39 89.5531L211.224 88.9202C210.344 88.7443 209.711 87.972 209.711 87.0751V82.2122C209.711 81.3489 210.299 80.5963 211.136 80.3869L214.626 79.5143L215.369 77.1922L213.821 74.9228C213.319 74.1859 213.403 73.1975 214.022 72.5558L217.418 69.0386L217.478 68.9795C218.082 68.4062 218.994 68.2993 219.715 68.7172L219.786 68.7607L222.394 70.43L224.541 69.4038L225.417 66.3352L225.441 66.2603C225.695 65.4933 226.413 64.9707 227.227 64.9707H232.073C232.986 64.9707 233.763 65.6259 233.924 66.5167L233.938 66.6035L234.358 69.7589L236.23 70.6943L239.103 68.6725L239.173 68.625C239.89 68.1674 240.827 68.2482 241.454 68.8218L241.516 68.8809L245.021 72.3857C245.673 73.038 245.756 74.067 245.217 74.8157L243.351 77.4068L244.461 79.7181L247.652 80.2498C248.559 80.401 249.224 81.1862 249.224 82.106V87.0593Z" fill="black"/>
<path d="M49.7812 158.891C49.7812 159.533 49.2607 160.054 48.6186 160.054H39.8461C39.3207 160.054 38.8948 159.628 38.8948 159.102C38.8948 158.577 39.3207 158.151 39.8461 158.151H47.8788V132.151H14.9025V158.151H23.675C24.2004 158.151 24.6263 158.577 24.6263 159.102C24.6263 159.628 24.2004 160.054 23.675 160.054H14.1626C13.5205 160.054 13 159.533 13 158.891V131.411C13 130.769 13.5205 130.248 14.1626 130.248H48.6186C49.2607 130.248 49.7812 130.769 49.7812 131.411V158.891Z" fill="black"/>
<path d="M48.195 136.589C48.7203 136.589 49.1462 137.015 49.1462 137.541C49.1462 138.066 48.7203 138.492 48.195 138.492H14.3731C13.8478 138.492 13.4219 138.066 13.4219 137.541C13.4219 137.015 13.8478 136.589 14.3731 136.589H48.195Z" fill="black"/>
<path d="M27.1641 164.175V155.931C27.1641 155.406 27.5899 154.98 28.1153 154.98C28.6407 154.98 29.0665 155.406 29.0665 155.931V164.175C29.0665 164.701 28.6407 165.127 28.1153 165.127C27.5899 165.127 27.1641 164.701 27.1641 164.175Z" fill="black"/>
<path d="M34.2461 162.907V154.663C34.2461 154.138 34.672 153.712 35.1973 153.712C35.7227 153.712 36.1486 154.138 36.1486 154.663V162.907C36.1486 163.433 35.7227 163.858 35.1973 163.858C34.672 163.858 34.2461 163.433 34.2461 162.907Z" fill="black"/>
<path d="M31.6937 160.309C32.0782 159.951 32.6802 159.972 33.0382 160.357L35.1684 162.645L37.1175 160.384C37.4605 159.986 38.0612 159.941 38.4591 160.284C38.857 160.627 38.9014 161.228 38.5584 161.626L36.0701 164.512C35.6179 165.037 34.8106 165.052 34.3387 164.545L31.6456 161.653C31.2877 161.269 31.3092 160.667 31.6937 160.309Z" fill="black"/>
<path d="M24.6117 157.579C24.9962 157.937 25.5982 157.915 25.9562 157.531L28.0863 155.243L30.0355 157.504C30.3785 157.902 30.9792 157.946 31.3771 157.603C31.7749 157.26 31.8194 156.659 31.4764 156.262L28.988 153.375C28.5359 152.851 27.7285 152.835 27.2567 153.342L24.5636 156.235C24.2056 156.619 24.2272 157.221 24.6117 157.579Z" fill="black"/>
<path d="M26.634 150.013V144.094C26.634 143.452 26.1135 142.931 25.4714 142.931C24.8293 142.931 24.3087 143.452 24.3087 144.094V150.013C24.3087 150.538 23.8828 150.964 23.3575 150.964C22.8321 150.964 22.4062 150.538 22.4062 150.013V144.094C22.4062 142.401 23.7785 141.029 25.4714 141.029C27.1642 141.029 28.5365 142.401 28.5365 144.094V150.013C28.5365 150.538 28.1106 150.964 27.5852 150.964C27.0599 150.964 26.634 150.538 26.634 150.013Z" fill="black"/>
<path d="M26.8445 145.679C27.3698 145.679 27.7957 146.105 27.7957 146.63C27.7957 147.156 27.3698 147.582 26.8445 147.582H23.7794C23.254 147.582 22.8281 147.156 22.8281 146.63C22.8281 146.105 23.254 145.679 23.7794 145.679H26.8445Z" fill="black"/>
<path d="M34.244 144.276C34.244 143.559 33.663 142.978 32.9462 142.978H31.6017V145.574H32.9462C33.663 145.574 34.244 144.992 34.244 144.276ZM36.1465 144.276C36.1465 146.043 34.7137 147.476 32.9462 147.476H31.6017V150.013C31.6016 150.538 31.1758 150.964 30.6505 150.964C30.1251 150.964 29.6993 150.538 29.6992 150.013V142.238C29.6992 141.596 30.2197 141.075 30.8618 141.075H32.9462C34.7137 141.075 36.1465 142.508 36.1465 144.276Z" fill="black"/>
<path d="M37.5195 150.013V142.013C37.5195 141.487 37.9454 141.062 38.4708 141.062C38.9961 141.062 39.422 141.487 39.422 142.013V150.013C39.422 150.538 38.9961 150.964 38.4708 150.964C37.9454 150.964 37.5195 150.538 37.5195 150.013Z" fill="black"/>
<path d="M19.0203 133.419C19.5457 133.419 19.9716 133.845 19.9716 134.37C19.9716 134.895 19.5457 135.321 19.0203 135.321H17.752C17.2267 135.321 16.8008 134.895 16.8008 134.37C16.8008 133.845 17.2267 133.419 17.752 133.419H19.0203Z" fill="black"/>
<path d="M22.7274 133.419C23.2527 133.419 23.6786 133.845 23.6786 134.37C23.6786 134.895 23.2527 135.321 22.7274 135.321H21.4591C20.9337 135.321 20.5078 134.895 20.5078 134.37C20.5078 133.845 20.9337 133.419 21.4591 133.419H22.7274Z" fill="black"/>
<path d="M26.5282 133.419C27.0535 133.419 27.4794 133.845 27.4794 134.37C27.4794 134.895 27.0535 135.321 26.5282 135.321H25.2598C24.7345 135.321 24.3086 134.895 24.3086 134.37C24.3086 133.845 24.7345 133.419 25.2598 133.419H26.5282Z" fill="black"/>
<path d="M138.407 145.369C138.407 144.502 137.704 143.799 136.837 143.799H135.896V146.939H136.837C137.704 146.939 138.407 146.236 138.407 145.369ZM140.291 145.369C140.291 147.276 138.745 148.823 136.837 148.823H135.896V151.334H134.012V141.915H136.837C138.745 141.915 140.291 143.462 140.291 145.369Z" fill="black"/>
<path d="M147.513 147.043C147.513 140.107 141.89 134.485 134.954 134.485C128.018 134.485 122.396 140.107 122.396 147.043C122.396 153.979 128.018 159.602 134.954 159.602V161.486C126.978 161.486 120.512 155.02 120.512 147.043C120.512 139.067 126.978 132.601 134.954 132.601C142.931 132.601 149.397 139.067 149.397 147.043C149.397 155.02 142.931 161.486 134.954 161.486V159.602C141.89 159.602 147.513 153.979 147.513 147.043Z" fill="black"/>
<path d="M130.24 145.264C130.24 144.455 129.584 143.799 128.775 143.799C127.966 143.799 127.31 144.455 127.31 145.264V151.334H125.426V145.264C125.426 143.415 126.925 141.915 128.775 141.915C130.624 141.915 132.124 143.415 132.124 145.264V151.334H130.24V145.264Z" fill="black"/>
<path d="M131.498 146.938V148.822H126.16V146.938H131.498Z" fill="black"/>
<path d="M141.965 141.915H143.849V151.334H141.965V141.915Z" fill="black"/>
<path d="M131.914 127.996H133.798V133.961H131.914V127.996Z" fill="black"/>
<path d="M131.711 160.335H133.595V166.3H131.711V160.335Z" fill="black"/>
<path d="M136.316 128.101H138.2V134.066H136.316V128.101Z" fill="black"/>
<path d="M136.105 160.439H137.989V166.404H136.105V160.439Z" fill="black"/>
<path d="M154.001 139.194V141.078H146.57V139.194H154.001Z" fill="black"/>
<path d="M116.007 139.194V141.078H123.438V139.194H116.007Z" fill="black"/>
<path d="M154.001 152.381V154.265H146.57V152.381H154.001Z" fill="black"/>
<path d="M116.007 152.381V154.265H123.438V152.381H116.007Z" fill="black"/>
<path d="M153.997 145.683V147.567H147.613V145.683H153.997Z" fill="black"/>
<path d="M116.011 145.683V147.567H122.395V145.683H116.011Z" fill="black"/>
<path d="M148.45 130.403V132.287H144.472L142.156 135.992L140.559 134.993L143.428 130.403H148.45Z" fill="black"/>
<path d="M121.66 130.403V132.287H125.638L127.953 135.992L129.551 134.993L126.682 130.403H121.66Z" fill="black"/>
<path d="M121.66 163.474V161.59H125.638L127.953 157.885L129.551 158.884L126.682 163.474H121.66Z" fill="black"/>
<path d="M148.45 163.474V161.59H144.472L142.156 157.885L140.559 158.884L143.428 163.474H148.45Z" fill="black"/>
<path d="M152.115 131.345C152.115 130.536 151.459 129.88 150.65 129.88C149.841 129.88 149.185 130.536 149.185 131.345C149.185 132.154 149.841 132.81 150.65 132.81V134.694C148.8 134.694 147.301 133.195 147.301 131.345C147.301 129.495 148.8 127.996 150.65 127.996C152.499 127.996 153.999 129.495 153.999 131.345C153.999 133.195 152.499 134.694 150.65 134.694V132.81C151.459 132.81 152.115 132.154 152.115 131.345Z" fill="black"/>
<path d="M117.998 131.345C117.998 130.536 118.654 129.88 119.464 129.88C120.273 129.88 120.929 130.536 120.929 131.345C120.929 132.154 120.273 132.81 119.464 132.81V134.694C121.313 134.694 122.812 133.195 122.812 131.345C122.812 129.495 121.313 127.996 119.464 127.996C117.614 127.996 116.115 129.495 116.115 131.345C116.115 133.195 117.614 134.694 119.464 134.694V132.81C118.654 132.81 117.998 132.154 117.998 131.345Z" fill="black"/>
<path d="M117.998 162.532C117.998 163.341 118.654 163.997 119.464 163.997C120.273 163.997 120.929 163.341 120.929 162.532C120.929 161.723 120.273 161.067 119.464 161.067V159.183C121.313 159.183 122.812 160.683 122.812 162.532C122.812 164.382 121.313 165.881 119.464 165.881C117.614 165.881 116.115 164.382 116.115 162.532C116.115 160.683 117.614 159.183 119.464 159.183V161.067C118.654 161.067 117.998 161.723 117.998 162.532Z" fill="black"/>
<path d="M152.115 162.532C152.115 163.341 151.459 163.997 150.65 163.997C149.841 163.997 149.185 163.341 149.185 162.532C149.185 161.723 149.841 161.067 150.65 161.067V159.183C148.8 159.183 147.301 160.683 147.301 162.532C147.301 164.382 148.8 165.881 150.65 165.881C152.499 165.881 153.999 164.382 153.999 162.532C153.999 160.683 152.499 159.183 150.65 159.183V161.067C151.459 161.067 152.115 161.723 152.115 162.532Z" fill="black"/>
<path d="M225.663 148.464C226.232 148.464 226.692 148.925 226.692 149.493C226.692 150.061 226.232 150.522 225.663 150.522H222.553C221.984 150.522 221.523 150.061 221.523 149.493C221.523 148.925 221.984 148.464 222.553 148.464H225.663Z" fill="black"/>
<path d="M227.031 123.793C229.097 123.437 231.327 123.682 233.392 124.815C235.271 125.844 236.95 127.573 238.244 130.118C242.166 129.333 246.092 132.146 247.815 135.709C248.769 137.679 249.127 139.995 248.46 142.274C247.791 144.566 246.121 146.702 243.244 148.366L242.353 148.882L241.323 147.1L242.213 146.585C244.716 145.138 245.988 143.396 246.485 141.697C246.985 139.986 246.732 138.197 245.962 136.605C244.37 133.314 240.874 131.32 238.02 132.306L237.13 132.613L236.745 131.754C235.558 129.105 234.011 127.501 232.403 126.62C230.792 125.737 229.044 125.535 227.379 125.821C223.96 126.409 221.156 128.977 220.706 131.513L220.555 132.362H219.692C216.69 132.362 214.64 133.189 213.309 134.348C211.976 135.509 211.271 137.083 211.099 138.753C210.745 142.199 212.649 145.661 215.445 146.489L216.431 146.781L215.847 148.754L214.86 148.462C210.844 147.272 208.628 142.663 209.051 138.542C209.269 136.429 210.177 134.346 211.958 132.795C213.595 131.369 215.893 130.461 218.882 130.323C219.892 127.089 223.303 124.433 227.031 123.793Z" fill="black"/>
<path d="M242.075 140.729V142.787H215.719V140.729H242.075Z" fill="black"/>
<path d="M240.817 139.519C240.817 138.445 239.947 137.575 238.873 137.575H218.756C217.683 137.575 216.812 138.445 216.812 139.519V159.804C216.812 160.877 217.683 161.748 218.756 161.748H238.873C239.947 161.748 240.817 160.877 240.817 159.804V139.519ZM242.875 159.804C242.875 162.014 241.083 163.806 238.873 163.806H218.756C216.546 163.806 214.754 162.014 214.754 159.804V139.519C214.754 137.308 216.546 135.516 218.756 135.516H238.873C241.083 135.517 242.875 137.308 242.875 139.519V159.804Z" fill="black"/>
<path d="M228.12 155.61V157.669H215.469V155.61H228.12Z" fill="black"/>
<path d="M228.957 156.639C228.957 157.557 229.7 158.301 230.618 158.301H232.447V154.978H230.618C229.7 154.978 228.957 155.722 228.957 156.639ZM234.506 159.139C234.506 159.813 233.959 160.359 233.285 160.359H230.618C228.564 160.359 226.898 158.694 226.898 156.639C226.898 154.585 228.564 152.92 230.618 152.92H233.285C233.959 152.92 234.506 153.466 234.506 154.14V159.139Z" fill="black"/>
<path d="M235.998 153.929C236.566 153.929 237.027 154.39 237.027 154.958C237.027 155.526 236.566 155.987 235.998 155.987H234.064C233.496 155.987 233.035 155.526 233.035 154.958C233.035 154.39 233.496 153.929 234.064 153.929H235.998Z" fill="black"/>
<path d="M235.998 157.124C236.566 157.124 237.027 157.584 237.027 158.153C237.027 158.721 236.566 159.182 235.998 159.182H234.064C233.496 159.182 233.035 158.721 233.035 158.153C233.035 157.584 233.496 157.124 234.064 157.124H235.998Z" fill="black"/>
<path d="M222.124 146.329C222.866 144.524 225.426 144.537 226.151 146.348L228.13 151.297C228.341 151.825 228.085 152.423 227.557 152.634C227.029 152.846 226.43 152.589 226.219 152.061L224.24 147.112C224.225 147.075 224.209 147.064 224.201 147.058C224.187 147.05 224.164 147.041 224.134 147.041C224.104 147.041 224.08 147.049 224.067 147.057C224.059 147.063 224.043 147.074 224.028 147.112L221.989 152.07C221.773 152.596 221.172 152.847 220.646 152.631C220.12 152.415 219.869 151.813 220.085 151.288L222.124 146.329Z" fill="black"/>
<path d="M232.283 147.559C232.283 147.013 231.841 146.571 231.295 146.571H230.558V148.548H231.295C231.841 148.548 232.283 148.105 232.283 147.559ZM234.342 147.559C234.342 149.242 232.977 150.606 231.295 150.606H230.558V151.679C230.558 152.247 230.098 152.708 229.529 152.708C228.961 152.708 228.5 152.247 228.5 151.679V145.857C228.5 145.114 229.102 144.512 229.844 144.512H231.295C232.977 144.512 234.342 145.877 234.342 147.559Z" fill="black"/>
<path d="M235.223 151.679V145.457C235.223 144.889 235.683 144.428 236.252 144.428C236.82 144.428 237.281 144.889 237.281 145.457V151.679C237.281 152.247 236.82 152.708 236.252 152.708C235.683 152.708 235.223 152.247 235.223 151.679Z" fill="black"/>
<path d="M219.776 138.291C220.344 138.291 220.805 138.752 220.805 139.32C220.805 139.888 220.344 140.349 219.776 140.349H219.271C218.703 140.349 218.242 139.888 218.242 139.32C218.242 138.752 218.703 138.291 219.271 138.291H219.776Z" fill="black"/>
<path d="M223.643 138.291C224.211 138.291 224.672 138.752 224.672 139.32C224.672 139.888 224.211 140.349 223.643 140.349H223.139C222.57 140.349 222.109 139.888 222.109 139.32C222.109 138.752 222.57 138.291 223.139 138.291H223.643Z" fill="black"/>
<path d="M227.678 138.291C228.247 138.291 228.707 138.752 228.707 139.32C228.707 139.888 228.247 140.349 227.678 140.349H227.174C226.605 140.349 226.145 139.888 226.145 139.32C226.145 138.752 226.605 138.291 227.174 138.291H227.678Z" fill="black"/>
<path d="M52.8168 30.2743L48.7025 30.7065L48.0085 32.0161L50.3904 35.6838L45.0938 40.7525L41.849 38.2269L40.1766 38.9814L39.373 43.1029L32.077 42.885L31.5274 38.7695L29.9921 38.0652L26.4835 40.1154L21.4961 35.108L23.9895 31.6746L23.1306 29.7891L19.6283 29.0648L19.792 21.6379L23.5547 20.9643L24.3424 19.4077L22.0814 16.2885L27.4973 11.115L30.3871 13.3634L32.2287 12.7677L33.0636 9.29252L40.461 9.36574L40.9501 13.1327L42.3583 13.8544L45.3636 11.6862L50.8285 16.9478L48.5753 20.2982L49.2767 21.9118L53.0304 23.1237L52.8168 30.2743ZM47.2547 24.1416L45.46 20.0142L47.2673 17.3272L45.1112 15.2511L42.6017 17.0616L38.4149 14.9165L38.0479 12.0853L35.2208 12.0572L34.5363 14.9049L29.8485 16.4207L27.6811 14.7338L25.7084 16.6178L27.5458 19.1534L25.3846 23.4235L22.4854 23.9426L22.4215 26.8408L25.0495 27.3844L27.149 31.9926L25.0898 34.8285L26.9308 36.6765L29.8396 34.9769L34.0462 36.9072L34.488 40.2124L37.1264 40.2912L37.7549 37.0644L42.2284 35.0461L44.9089 37.1322L46.8522 35.2726L44.8288 32.1573L46.9622 28.1312L50.1462 27.7965L50.2267 25.1011L47.2547 24.1416Z" fill="black"/>
<path d="M41.5337 24.2664C40.5756 21.3031 37.3966 19.6775 34.4333 20.6356C31.4699 21.5937 29.8443 24.7727 30.8024 27.7361C31.7605 30.6994 34.9395 32.325 37.9029 31.3669L38.7468 33.9773C34.3418 35.4015 29.6163 32.985 28.192 28.58C26.7678 24.175 29.1843 19.4495 33.5893 18.0252C37.9943 16.601 42.7199 19.0175 44.1441 23.4225C45.5683 27.8275 43.1519 32.553 38.7468 33.9773L37.9029 31.3669C40.8662 30.4088 42.4918 27.2298 41.5337 24.2664Z" fill="black"/>
<path d="M51.8224 12.1694L48.7742 15.2176L47.2656 13.709L50.3138 10.6608L51.8224 12.1694Z" fill="black"/>
<path d="M20.1924 39.6198L23.3492 36.6843L24.8021 38.2467L21.6452 41.1822L20.1924 39.6198Z" fill="black"/>
<path d="M15.4794 24.3691L19.7899 24.4259L19.7617 26.5592L15.4513 26.5024L15.4794 24.3691Z" fill="black"/>
<path d="M56.8917 25.2639L52.5812 25.3207L52.6094 27.454L56.9198 27.3972L56.8917 25.2639Z" fill="black"/>
<path d="M53.5097 10.0433C53.5097 9.45404 53.032 8.97639 52.4428 8.97639C51.8536 8.97639 51.3759 9.45404 51.3759 10.0433C51.3759 10.6325 51.8536 11.1101 52.4428 11.1101V13.2439C50.6751 13.2439 49.2422 11.8109 49.2422 10.0433C49.2422 8.27561 50.6751 6.84265 52.4428 6.84265C54.2104 6.84265 55.6434 8.27561 55.6434 10.0433C55.6434 11.8109 54.2104 13.2439 52.4428 13.2439V11.1101C53.032 11.1101 53.5097 10.6325 53.5097 10.0433Z" fill="black"/>
<path d="M18.4336 41.6832C18.4122 42.272 18.8722 42.7667 19.461 42.7881C20.0498 42.8095 20.5445 42.3495 20.5659 41.7607C20.5873 41.1718 20.1273 40.6772 19.5385 40.6558L19.6159 38.5234C21.3824 38.5876 22.7624 40.0717 22.6982 41.8381C22.6341 43.6046 21.15 44.9846 19.3835 44.9204C17.6171 44.8563 16.2371 43.3722 16.3012 41.6057C16.3654 39.8393 17.8494 38.4593 19.6159 38.5234L19.5385 40.6558C18.9496 40.6344 18.455 41.0944 18.4336 41.6832Z" fill="black"/>
<path d="M12.784 24.6457C12.3619 25.0568 12.353 25.7323 12.7641 26.1544C13.1753 26.5764 13.8507 26.5853 14.2728 26.1742C14.6949 25.7631 14.7038 25.0877 14.2927 24.6656L15.8212 23.1768C17.0545 24.4431 17.0278 26.4694 15.7615 27.7028C14.4953 28.9361 12.4689 28.9094 11.2356 27.6431C10.0023 26.3768 10.029 24.3505 11.2953 23.1172C12.5615 21.8838 14.5879 21.9106 15.8212 23.1768L14.2927 24.6656C13.8816 24.2435 13.2061 24.2346 12.784 24.6457Z" fill="black"/>
<path d="M59.591 25.5405C60.0131 25.9516 60.022 26.627 59.6109 27.0491C59.1997 27.4712 58.5243 27.4801 58.1022 27.069C57.6801 26.6579 57.6712 25.9825 58.0823 25.5604L56.5538 24.0716C55.3205 25.3379 55.3472 27.3642 56.6135 28.5975C57.8797 29.8309 59.9061 29.8042 61.1394 28.5379C62.3727 27.2716 62.346 25.2453 61.0797 24.0119C59.8135 22.7786 57.7871 22.8053 56.5538 24.0716L58.0823 25.5604C58.4934 25.1383 59.1689 25.1294 59.591 25.5405Z" fill="black"/>
</svg>
