<svg width="260" height="178" viewBox="0 0 260 178" fill="none" xmlns="http://www.w3.org/2000/svg">
<path d="M25.0685 19.2761C25.7098 9.634 37.259 12.2005 37.259 19.579C36.9744 11.6115 49.2704 11.2381 48.9672 19.1699M48.1665 23.1085C48.6741 21.6221 48.9235 20.3118 48.9672 19.1699M48.9672 19.1699C52.0383 19.1699 56.1082 23.2297 53.8757 27.9201M51.6954 30.8074C52.7186 29.8381 53.4254 28.8663 53.8757 27.9201M53.8757 27.9201C57.2228 28.4687 59.1152 34.8789 54.5827 38.1306M51.6954 39.4693C52.8591 39.1435 53.8135 38.6825 54.5827 38.1306M54.5827 38.1306C55.3741 41.0779 53.8757 46.848 49.1289 47.1988M44.6376 46.2063C46.4053 46.8906 47.8892 47.1897 49.1289 47.1988M49.1289 47.1988C50.0912 54.2265 38.2212 56.793 36.9382 47.4895C36.3733 55.9592 24.3798 54.9877 24.7901 47.1988M25.7098 43.6398C25.1324 44.9484 24.846 46.137 24.7901 47.1988M22.8223 35.9404C21.7427 36.4311 20.8131 37.5225 20.2554 38.8477M24.7901 47.1988C19.6388 46.0646 18.9902 41.8542 20.2554 38.8477M20.2554 38.8477C16.6017 38.2194 15.4105 30.3017 19.9197 27.9201M22.1802 27.2785C21.307 27.3579 20.5565 27.5838 19.9197 27.9201M19.9197 27.9201C17.0482 24.3912 22.1802 15.7293 29.5598 20.8623" stroke="black" stroke-width="1.28324" stroke-linecap="round"/>
<path d="M39.5625 21.1831C40.2216 21.1831 40.774 21.6827 40.8398 22.3384L41.0059 23.9985L42.6377 23.0913C43.1186 22.8243 43.7168 22.8943 44.124 23.2642L46.9521 25.8354C47.3775 26.2222 47.4944 26.8447 47.2373 27.3589L46.2256 29.3804L48.0947 29.7544C48.6942 29.8744 49.1257 30.4009 49.126 31.0122V35.0933C49.126 35.7049 48.6945 36.232 48.0947 36.3521L46.3418 36.7026L47.457 38.3755C47.7837 38.8654 47.735 39.515 47.3389 39.9507L44.8311 42.7095C44.411 43.1711 43.72 43.2633 43.1934 42.9282L41.0078 41.5386L40.8359 43.4351C40.7759 44.096 40.2213 44.602 39.5576 44.6021H35.2754C34.612 44.6017 34.0581 44.0958 33.998 43.4351L33.8223 41.5073L31.8994 42.6616C31.414 42.9525 30.7947 42.8909 30.376 42.5103L27.6396 40.0229C27.144 39.5719 27.0788 38.8147 27.4902 38.2856L28.7207 36.7026L26.7607 36.3462C26.151 36.2351 25.7072 35.7043 25.707 35.0845V30.9644C25.7072 30.3981 26.0788 29.8979 26.6211 29.7349L28.582 29.147L27.3535 27.0991C27.0382 26.5727 27.1397 25.8965 27.5957 25.4858L30.0859 23.2446C30.4778 22.8919 31.0459 22.8149 31.5176 23.0503L33.502 24.0425L33.6729 22.3384C33.7387 21.6829 34.2905 21.1835 34.9492 21.1831H39.5625ZM37.2578 28.8823C34.7775 28.8824 32.7668 30.8933 32.7666 33.3735C32.7666 35.854 34.7774 37.8647 37.2578 37.8647C39.7383 37.8647 41.749 35.854 41.749 33.3735C41.7488 30.8932 39.7382 28.8823 37.2578 28.8823ZM37.2578 30.8071C38.6751 30.8071 39.824 31.9563 39.8242 33.3735C39.8242 34.791 38.6752 35.9399 37.2578 35.9399C35.8405 35.9399 34.6914 34.7909 34.6914 33.3735C34.6916 31.9564 35.8406 30.8072 37.2578 30.8071Z" fill="black"/>
<path d="M124.336 38.3512V33.1871M130.595 38.3512V33.1871M124.336 33.1871V31.1527C124.336 29.4242 125.737 28.0229 127.466 28.0229C129.194 28.0229 130.595 29.4242 130.595 31.1527V33.1871M124.336 33.1871H130.595" stroke="black" stroke-width="1.25191" stroke-linecap="square"/>
<path d="M134.039 28.2412V38.3515" stroke="black" stroke-width="1.25191" stroke-linecap="square"/>
<path d="M141.235 27.7097V45.2365H117.449V24.8929L120.892 21.4502H141.235V24.8929" stroke="black" stroke-width="1.25191" stroke-linecap="square"/>
<path d="M111.504 41.1676H113.695V17.6943H144.679V48.992H113.695V44.9233H109" stroke="black" stroke-width="1.25191" stroke-linecap="square"/>
<path d="M117.449 13V17.0687" stroke="black" stroke-width="1.25191" stroke-linecap="square"/>
<path d="M121.52 15.5039V17.6947" stroke="black" stroke-width="1.25191" stroke-linecap="square"/>
<path d="M129.031 15.5039V17.6947" stroke="black" stroke-width="1.25191" stroke-linecap="square"/>
<path d="M137.168 15.5039V17.6947" stroke="black" stroke-width="1.25191" stroke-linecap="square"/>
<path d="M125.273 13V17.0687" stroke="black" stroke-width="1.25191" stroke-linecap="square"/>
<path d="M132.785 13V17.0687" stroke="black" stroke-width="1.25191" stroke-linecap="square"/>
<path d="M140.922 13V17.0687" stroke="black" stroke-width="1.25191" stroke-linecap="square"/>
<path d="M117.449 54V49.9313" stroke="black" stroke-width="1.25191" stroke-linecap="square"/>
<path d="M121.52 51.4961V49.3053" stroke="black" stroke-width="1.25191" stroke-linecap="square"/>
<path d="M129.031 51.4961V49.3053" stroke="black" stroke-width="1.25191" stroke-linecap="square"/>
<path d="M137.168 51.4961V49.3053" stroke="black" stroke-width="1.25191" stroke-linecap="square"/>
<path d="M125.273 54V49.9313" stroke="black" stroke-width="1.25191" stroke-linecap="square"/>
<path d="M132.785 54V49.9313" stroke="black" stroke-width="1.25191" stroke-linecap="square"/>
<path d="M140.922 54V49.9313" stroke="black" stroke-width="1.25191" stroke-linecap="square"/>
<path d="M149.688 21.7637H145.619" stroke="black" stroke-width="1.25191" stroke-linecap="square"/>
<path d="M147.184 25.2061H144.993" stroke="black" stroke-width="1.25191" stroke-linecap="square"/>
<path d="M147.184 33.3438H144.993" stroke="black" stroke-width="1.25191" stroke-linecap="square"/>
<path d="M147.184 40.855H144.993" stroke="black" stroke-width="1.25191" stroke-linecap="square"/>
<path d="M149.688 29.5879H145.619" stroke="black" stroke-width="1.25191" stroke-linecap="square"/>
<path d="M149.688 37.0991H145.619" stroke="black" stroke-width="1.25191" stroke-linecap="square"/>
<path d="M149.688 45.2368H145.619" stroke="black" stroke-width="1.25191" stroke-linecap="square"/>
<path d="M109 21.7637H113.069" stroke="black" stroke-width="1.25191" stroke-linecap="square"/>
<path d="M111.504 25.832H113.695" stroke="black" stroke-width="1.25191" stroke-linecap="square"/>
<path d="M111.504 33.3438H113.695" stroke="black" stroke-width="1.25191" stroke-linecap="square"/>
<path d="M109 29.5879H113.069" stroke="black" stroke-width="1.25191" stroke-linecap="square"/>
<path d="M109 37.0991H113.069" stroke="black" stroke-width="1.25191" stroke-linecap="square"/>
<path d="M117.448 20.5117C117.448 21.0302 117.028 21.4506 116.509 21.4506C115.991 21.4506 115.57 21.0302 115.57 20.5117C115.57 19.9931 115.991 19.5728 116.509 19.5728C117.028 19.5728 117.448 19.9931 117.448 20.5117Z" fill="black"/>
<path d="M220.844 42.8374V48.2867" stroke="black" stroke-width="1.28218"/>
<path d="M211.865 35.7847H208.659L207.377 37.7079H204.172" stroke="black" stroke-width="1.28218"/>
<path d="M229.815 35.7847H232.7L233.982 37.7079H237.188" stroke="black" stroke-width="1.28218"/>
<path d="M211.864 40.9141H208.979L206.094 44.1195" stroke="black" stroke-width="1.28218"/>
<path d="M229.816 40.9141H232.381L235.266 44.1195" stroke="black" stroke-width="1.28218"/>
<path d="M226.608 42.8374V46.0428L229.172 47.325V50.5305" stroke="black" stroke-width="1.28218"/>
<path d="M215.076 42.8374V46.0428L212.512 47.325V50.5305" stroke="black" stroke-width="1.28218"/>
<path d="M223.085 50.1868C223.085 51.426 222.081 52.4306 220.841 52.4306C219.602 52.4306 218.598 51.426 218.598 50.1868C218.598 48.9476 219.602 47.943 220.841 47.943C222.081 47.943 223.085 48.9476 223.085 50.1868Z" fill="black"/>
<path d="M231.417 52.047C231.417 53.2863 230.413 54.2908 229.173 54.2908C227.934 54.2908 226.93 53.2863 226.93 52.047C226.93 50.8078 227.934 49.8032 229.173 49.8032C230.413 49.8032 231.417 50.8078 231.417 52.047Z" fill="black"/>
<path d="M210.165 52.0866C210.165 53.3258 211.169 54.3304 212.409 54.3304C213.648 54.3304 214.652 53.3258 214.652 52.0866C214.652 50.8474 213.648 49.8428 212.409 49.8428C211.169 49.8428 210.165 50.8474 210.165 52.0866Z" fill="black"/>
<path d="M202.571 45.401C202.571 46.6403 203.576 47.6448 204.815 47.6448C206.054 47.6448 207.059 46.6403 207.059 45.401C207.059 44.1618 206.054 43.1572 204.815 43.1572C203.576 43.1572 202.571 44.1618 202.571 45.401Z" fill="black"/>
<path d="M238.792 45.401C238.792 46.6403 237.788 47.6448 236.548 47.6448C235.309 47.6448 234.305 46.6403 234.305 45.401C234.305 44.1618 235.309 43.1572 236.548 43.1572C237.788 43.1572 238.792 44.1618 238.792 45.401Z" fill="black"/>
<path d="M200.005 37.7087C200.005 38.9479 201.009 39.9525 202.248 39.9525C203.488 39.9525 204.492 38.9479 204.492 37.7087C204.492 36.4694 203.488 35.4648 202.248 35.4648C201.009 35.4648 200.005 36.4694 200.005 37.7087Z" fill="black"/>
<path d="M241.359 37.7087C241.359 38.9479 240.354 39.9525 239.115 39.9525C237.876 39.9525 236.871 38.9479 236.871 37.7087C236.871 36.4694 237.876 35.4648 239.115 35.4648C240.354 35.4648 241.359 36.4694 241.359 37.7087Z" fill="black"/>
<path d="M220.156 13.0294C221.249 12.9136 222.403 13.1145 223.533 13.7901C224.406 14.3121 225.246 15.1063 226.034 16.2208C225.703 16.5101 225.443 16.7725 225.233 17.0235C224.76 17.592 224.568 18.0783 224.396 18.5938C224.285 18.9295 224.466 19.2923 224.802 19.4044C225.138 19.5162 225.501 19.3349 225.613 18.9991C225.762 18.5531 225.891 18.2379 226.219 17.8448C226.456 17.5598 226.807 17.2252 227.359 16.7882C228.842 16.3849 230.679 16.232 232.343 16.8497C233.398 17.2414 234.371 17.9399 235.117 19.0499C235.527 19.659 235.86 20.3829 236.105 21.2335C235.997 21.9059 235.816 22.7987 235.538 23.6944C235.321 24.3956 235.05 25.0807 234.723 25.6563C234.392 26.2376 234.026 26.6651 233.639 26.9073C233.339 27.0949 233.247 27.49 233.435 27.7901C233.622 28.0904 234.018 28.1819 234.318 27.9942C234.69 27.7617 235.012 27.4502 235.293 27.0977C235.347 27.2047 235.408 27.3127 235.48 27.419C235.846 27.9542 236.423 28.4051 237.306 28.6993C237.642 28.8113 238.004 28.6299 238.116 28.294C238.228 27.9582 238.047 27.5954 237.711 27.4835C237.055 27.2648 236.724 26.9678 236.539 26.6964C236.346 26.4137 236.268 26.0961 236.22 25.7569C236.212 25.7064 236.198 25.6589 236.18 25.6134C236.409 25.1143 236.603 24.589 236.763 24.0743C236.845 23.8087 236.917 23.5431 236.984 23.2833H237.747C240.093 23.2833 241.995 25.1849 241.995 27.5304C241.995 30.1415 239.878 32.2579 237.267 32.2579H229.173C228.642 32.2576 228.211 31.8277 228.211 31.297V27.7706C228.211 26.8857 227.493 26.1681 226.608 26.1681H215.069C214.185 26.1683 213.466 26.8858 213.466 27.7706V31.297C213.466 31.8278 213.036 32.2578 212.505 32.2579H206.094C202.73 32.2576 200.004 29.5314 200.004 26.1681C200.004 23.1589 202.444 20.7191 205.453 20.7188H205.717C206.32 20.8346 206.951 20.8962 207.629 21.0938C208.309 21.2923 208.811 21.5788 209.07 22.0108C209.253 22.3141 209.647 22.4125 209.95 22.2306C210.254 22.0483 210.352 21.6542 210.17 21.3507C209.66 20.5008 208.772 20.0921 207.988 19.8634C207.522 19.7272 207.008 19.6355 206.578 19.5645C206.997 18.5041 207.676 17.3886 208.694 16.5577C210.008 15.4866 211.814 14.9477 214.159 15.4962C213.646 16.6419 213.236 18.2682 213.473 20.1593C213.517 20.5102 213.837 20.7596 214.188 20.7159C214.539 20.6718 214.789 20.3511 214.745 20.0001C214.475 17.8381 215.196 16.095 215.75 15.2384C216.859 14.2007 218.41 13.2148 220.156 13.0294ZM204.993 23.8448C204.772 23.5687 204.369 23.5237 204.093 23.7442C202.997 24.6206 202.869 26.2467 203.382 27.46C203.649 28.0916 204.108 28.6712 204.765 29.0411C205.428 29.4145 206.248 29.5483 207.183 29.3614C207.53 29.2918 207.755 28.9536 207.686 28.6065C207.616 28.2598 207.278 28.0345 206.932 28.1036C206.264 28.2372 205.762 28.131 205.394 27.9239C205.019 27.7129 204.736 27.3701 204.562 26.96C204.195 26.0902 204.386 25.1519 204.894 24.7462C205.17 24.525 205.214 24.1212 204.993 23.8448ZM231.263 19.3263C230.078 18.8327 228.595 19.1092 227.758 19.9464C227.508 20.1967 227.508 20.6023 227.758 20.8526C228.008 21.1029 228.414 21.1028 228.664 20.8526C229.109 20.4075 230.031 20.2023 230.77 20.5099C231.114 20.6536 231.41 20.9071 231.598 21.3038C231.789 21.7075 231.891 22.3102 231.746 23.1788C231.688 23.5278 231.923 23.8577 232.272 23.9161C232.622 23.9743 232.952 23.7388 233.011 23.3897C233.187 22.3351 233.087 21.454 232.757 20.7559C232.424 20.0516 231.879 19.583 231.263 19.3263ZM220.61 15.9571C219.898 15.8554 219.269 16.0101 218.747 16.3233C217.737 16.9296 217.187 18.0858 217.006 18.9913C216.937 19.3383 217.162 19.6757 217.509 19.7452C217.856 19.8144 218.194 19.5893 218.264 19.2423C218.403 18.5452 218.815 17.7785 219.407 17.4229C219.686 17.2555 220.019 17.1682 220.429 17.2266C220.849 17.2868 221.389 17.5059 222.05 18.0196C222.329 18.2367 222.732 18.1867 222.949 17.9073C223.166 17.628 223.116 17.2253 222.837 17.0079C222.055 16.4 221.312 16.0573 220.61 15.9571Z" fill="black"/>
<path d="M226.932 27.4512C227.108 27.4514 227.252 27.5948 227.252 27.7715V39.3115C227.252 39.4884 227.108 39.6316 226.932 39.6318H214.751C214.574 39.6318 214.43 39.4886 214.43 39.3115V27.7715C214.43 27.5947 214.574 27.4512 214.751 27.4512H226.932ZM224.691 30.0166C224.337 30.0166 224.051 30.3032 224.051 30.6572V36.748C224.051 37.1019 224.338 37.3887 224.691 37.3887C225.045 37.3886 225.332 37.1019 225.332 36.748V30.6572C225.332 30.3033 225.045 30.0167 224.691 30.0166ZM220.76 30.5273C220.452 29.7201 219.318 29.6969 218.978 30.4912L217.253 34.5156L216.405 36.4941C216.266 36.8193 216.416 37.1963 216.741 37.3359C217.066 37.4753 217.443 37.3248 217.583 37L218.265 35.4092H221.247L221.845 36.9756C221.971 37.3059 222.341 37.4714 222.672 37.3457C223.002 37.2195 223.169 36.8492 223.043 36.5186L222.288 34.54L220.76 30.5273ZM220.759 34.127H218.814L219.844 31.7236L220.759 34.127Z" fill="black"/>
<path d="M29.2266 89.1425V86.2974" stroke="black" stroke-width="1.2645"/>
<path d="M37.8066 89.1426C38.7058 89.1431 39.257 90.0223 39.042 90.8047C38.5006 92.7739 38.9522 93.6852 39.5254 94.1338C40.1786 94.6447 41.2403 94.7712 42.2832 94.6523C43.0151 94.5692 43.7665 95.1125 43.7666 95.9404V101.471C43.7666 102.169 43.2001 102.735 42.502 102.735H41.2383V107.161C41.2382 107.859 40.6717 108.425 39.9736 108.426H18.793C18.0947 108.426 17.5284 107.859 17.5283 107.161V102.735H16.2637C15.5655 102.735 15.0001 102.169 15 101.471V95.7812C15 95.083 15.5655 94.5168 16.2637 94.5166H17.5283V90.4062C17.5285 89.7081 18.0948 89.1426 18.793 89.1426H37.8066ZM25.7705 100.522L25.7461 100.812C25.6121 102.421 26.1457 103.473 26.9092 104.115C27.6559 104.743 28.5875 104.948 29.2227 104.948C30.9105 104.948 31.8857 104.234 32.4189 103.331C32.9364 102.454 33.0166 101.437 33.0166 100.839V100.522H25.7705ZM25.1133 93.8848C23.8914 93.8849 22.9007 94.8749 22.9004 96.0967C22.9004 97.3187 23.8913 98.3094 25.1133 98.3096C26.3354 98.3096 27.3262 97.3188 27.3262 96.0967C27.3259 94.8748 26.3353 93.8848 25.1133 93.8848ZM33.6514 93.8613C32.4295 93.8616 31.4386 94.8523 31.4385 96.0742C31.4385 97.2962 32.4294 98.2869 33.6514 98.2871C34.8735 98.2871 35.8643 97.2964 35.8643 96.0742C35.8642 94.8522 34.8734 93.8613 33.6514 93.8613Z" fill="black"/>
<circle cx="29.2243" cy="84.4001" r="2.529" fill="black"/>
<path d="M40.2902 92.9354C42.3133 94.1999 47.2449 91.3548 49.4578 89.7741C47.2449 87.9828 42.8191 85.0955 42.8191 87.8774C42.8191 91.3548 37.7612 91.3548 40.2902 92.9354Z" fill="black"/>
<path d="M50.7188 71.7554C58.0514 71.7555 63.9961 75.8603 63.9961 80.9233C63.9958 85.9862 58.0512 90.0902 50.7188 90.0903C43.3861 90.0903 37.4417 85.9863 37.4414 80.9233C37.4414 75.8602 43.3859 71.7554 50.7188 71.7554ZM44.0811 78.7095C42.8592 78.7096 41.8684 79.7005 41.8682 80.9224C41.8682 82.1444 42.859 83.1351 44.0811 83.1353C45.3032 83.1353 46.2939 82.1445 46.2939 80.9224C46.2938 79.7004 45.3031 78.7095 44.0811 78.7095ZM50.4014 78.7095C49.1796 78.7097 48.1887 79.7005 48.1885 80.9224C48.1885 82.1444 49.1794 83.135 50.4014 83.1353C51.6235 83.1353 52.6143 82.1445 52.6143 80.9224C52.6141 79.7004 51.6234 78.7095 50.4014 78.7095ZM56.7266 78.7095C55.5045 78.7095 54.5139 79.7004 54.5137 80.9224C54.5137 82.1445 55.5044 83.1353 56.7266 83.1353C57.9486 83.1352 58.9395 82.1445 58.9395 80.9224C58.9393 79.7004 57.9485 78.7095 56.7266 78.7095Z" fill="black"/>
<path d="M135.242 81.6135L137.737 78.1832C137.798 78.0994 137.895 78.0498 137.999 78.0498H142.694" stroke="black" stroke-width="1.2959" stroke-linecap="round"/>
<path d="M135.566 99.4324L138.061 102.863C138.122 102.946 138.22 102.996 138.323 102.996H143.018" stroke="black" stroke-width="1.2959" stroke-linecap="round"/>
<path d="M150.796 85.5015H142.88C142.767 85.5015 142.661 85.5612 142.603 85.6588L139.878 90.1996C139.818 90.2994 139.816 90.4237 139.874 90.5252L142.604 95.3795C142.662 95.4815 142.769 95.5447 142.886 95.5447H150.796" stroke="black" stroke-width="1.2959" stroke-linecap="round"/>
<path d="M130.439 71.5703C130.976 71.5705 131.412 72.0055 131.412 72.542V79.75C130.471 79.4883 129.48 79.3457 128.455 79.3457C122.372 79.3459 117.441 84.2772 117.44 90.3604C117.44 96.4437 122.372 101.376 128.455 101.376C129.48 101.376 130.471 101.232 131.412 100.971V107.52C131.412 108.056 130.976 108.491 130.439 108.491H124.481C123.945 108.491 123.51 108.056 123.51 107.52V103.556C123.51 103.417 123.42 103.293 123.288 103.249L121.935 102.798C121.818 102.759 121.689 102.789 121.603 102.876L118.688 105.791C118.326 106.153 117.745 106.172 117.36 105.835L112.479 101.564C112.088 101.222 112.036 100.633 112.36 100.227L114.675 97.334C114.738 97.2552 114.76 97.1507 114.735 97.0527L114.211 94.9531C114.175 94.809 114.045 94.7081 113.896 94.708H109.972C109.435 94.7077 109 94.2718 109 93.7354V87.6914C109 87.2077 109.356 86.7969 109.835 86.7285L113.925 86.1445C114.055 86.1258 114.161 86.0299 114.193 85.9023L114.735 83.7344C114.76 83.6365 114.738 83.532 114.675 83.4531L112.335 80.5293C112.026 80.1426 112.057 79.5854 112.407 79.2354L116.617 75.0254C116.997 74.646 117.612 74.646 117.991 75.0254L120.83 77.8643C120.929 77.9626 121.08 77.9871 121.204 77.9248L123.33 76.8623C123.44 76.8075 123.51 76.6948 123.51 76.5723V72.542C123.51 72.0054 123.945 71.5703 124.481 71.5703H130.439Z" fill="black"/>
<path d="M128.438 81.2896C133.448 81.2896 137.51 85.3509 137.51 90.3608C137.51 95.3708 133.448 99.4321 128.438 99.4321C123.429 99.432 119.367 95.3707 119.367 90.3608C119.367 85.351 123.429 81.2897 128.438 81.2896ZM127.644 87.4946C127.286 86.8674 126.367 86.8486 125.983 87.4604L125.91 87.6011L124.167 91.6685L123.31 93.6685C123.169 93.9974 123.321 94.3791 123.65 94.52C123.979 94.6605 124.36 94.5079 124.501 94.1792L125.19 92.5718H128.204L128.808 94.1548C128.935 94.4891 129.309 94.6571 129.644 94.5298C129.978 94.4023 130.146 94.028 130.019 93.6938L129.256 91.6929L127.712 87.6382L127.644 87.4946ZM131.677 87.1216C131.319 87.1217 131.029 87.4113 131.029 87.769V93.9243C131.029 94.2821 131.319 94.5726 131.677 94.5728C132.035 94.5728 132.324 94.2822 132.324 93.9243V87.769C132.324 87.4112 132.035 87.1216 131.677 87.1216ZM127.71 91.2759H125.745L126.785 88.8472L127.71 91.2759Z" fill="black"/>
<path d="M155.004 95.5439C155.004 96.9753 153.844 98.1357 152.412 98.1357C150.981 98.1357 149.82 96.9753 149.82 95.5439C149.82 94.1125 150.981 92.9521 152.412 92.9521C153.844 92.9521 155.004 94.1125 155.004 95.5439Z" fill="black"/>
<path d="M155.004 85.5015C155.004 86.9329 153.844 88.0933 152.412 88.0933C150.981 88.0933 149.82 86.9329 149.82 85.5015C149.82 84.0701 150.981 82.9097 152.412 82.9097C153.844 82.9097 155.004 84.0701 155.004 85.5015Z" fill="black"/>
<path d="M146.582 78.0498C146.582 79.4812 145.422 80.6416 143.99 80.6416C142.559 80.6416 141.398 79.4812 141.398 78.0498C141.398 76.6184 142.559 75.458 143.99 75.458C145.422 75.458 146.582 76.6184 146.582 78.0498Z" fill="black"/>
<path d="M146.902 102.996C146.902 101.564 145.742 100.404 144.311 100.404C142.879 100.404 141.719 101.564 141.719 102.996C141.719 104.427 142.879 105.587 144.311 105.587C145.742 105.587 146.902 104.427 146.902 102.996Z" fill="black"/>
<path d="M209.984 99.6072V79.427C209.984 78.3822 210.831 77.5352 211.876 77.5352H230.795C231.84 77.5352 232.687 78.3822 232.687 79.427V99.6072C232.687 100.652 231.84 101.499 230.795 101.499H211.876C210.831 101.499 209.984 100.652 209.984 99.6072Z" stroke="black" stroke-width="2.52252" stroke-linecap="round"/>
<path d="M214.979 83.1644C215.835 82.3084 217.3 82.0533 219.134 82.5454C220.95 83.0325 222.996 84.2275 224.81 86.041C226.624 87.8544 227.819 89.8991 228.307 91.7143C228.8 93.5483 228.546 95.0141 227.691 95.8701C226.835 96.7258 225.37 96.9797 223.536 96.4877C221.721 96.0006 219.675 94.8061 217.861 92.9928C216.047 91.1793 214.851 89.1341 214.363 87.3188C213.87 85.485 214.124 84.0204 214.979 83.1644Z" stroke="black" stroke-width="1.26126"/>
<path d="M214.979 95.8703C215.835 96.7262 217.3 96.9813 219.134 96.4893C220.95 96.0022 222.996 94.8072 224.81 92.9937C226.624 91.1803 227.819 89.1355 228.307 87.3204C228.8 85.4864 228.546 84.0206 227.691 83.1646C226.835 82.3089 225.37 82.055 223.536 82.547C221.721 83.0341 219.675 84.2286 217.861 86.0419C216.047 87.8554 214.851 89.9006 214.363 91.7159C213.87 93.5496 214.124 95.0143 214.979 95.8703Z" stroke="black" stroke-width="1.26126"/>
<circle cx="221.333" cy="89.5169" r="1.89189" fill="black"/>
<path d="M212.82 102.76V107.49" stroke="black" stroke-width="2.52252" stroke-linecap="round"/>
<path d="M212.82 71.8594V76.5891" stroke="black" stroke-width="2.52252" stroke-linecap="round"/>
<path d="M238.992 81.3188H234.262" stroke="black" stroke-width="2.52252" stroke-linecap="round"/>
<path d="M238.992 81.3188H234.262" stroke="black" stroke-width="2.52252" stroke-linecap="round"/>
<path d="M208.719 81.3188H203.989" stroke="black" stroke-width="2.52252" stroke-linecap="round"/>
<path d="M218.492 102.76C218.492 104.607 218.492 105.643 218.492 107.49" stroke="black" stroke-width="2.52252" stroke-linecap="round"/>
<path d="M218.492 71.8594C218.492 73.7064 218.492 74.742 218.492 76.5891" stroke="black" stroke-width="2.52252" stroke-linecap="round"/>
<path d="M238.992 86.9946C237.145 86.9946 236.11 86.9946 234.262 86.9946" stroke="black" stroke-width="2.52252" stroke-linecap="round"/>
<path d="M238.992 86.9946C237.145 86.9946 236.11 86.9946 234.262 86.9946" stroke="black" stroke-width="2.52252" stroke-linecap="round"/>
<path d="M208.719 86.9946C206.872 86.9946 205.836 86.9946 203.989 86.9946" stroke="black" stroke-width="2.52252" stroke-linecap="round"/>
<path d="M224.172 102.76V107.49" stroke="black" stroke-width="2.52252" stroke-linecap="round"/>
<path d="M224.172 71.8594V76.5891" stroke="black" stroke-width="2.52252" stroke-linecap="round"/>
<path d="M238.992 92.6699H234.262" stroke="black" stroke-width="2.52252" stroke-linecap="round"/>
<path d="M238.992 92.6699H234.262" stroke="black" stroke-width="2.52252" stroke-linecap="round"/>
<path d="M208.719 92.6699H203.989" stroke="black" stroke-width="2.52252" stroke-linecap="round"/>
<path d="M229.844 102.76V107.49" stroke="black" stroke-width="2.52252" stroke-linecap="round"/>
<path d="M229.844 71.8594V76.5891" stroke="black" stroke-width="2.52252" stroke-linecap="round"/>
<path d="M238.992 98.3457H234.262" stroke="black" stroke-width="2.52252" stroke-linecap="round"/>
<path d="M238.992 98.3457H234.262" stroke="black" stroke-width="2.52252" stroke-linecap="round"/>
<path d="M208.719 98.3457H203.989" stroke="black" stroke-width="2.52252" stroke-linecap="round"/>
<path d="M129.508 159.209V163.571" stroke="black" stroke-width="1.34207" stroke-linecap="round"/>
<path d="M129.508 127V131.362" stroke="black" stroke-width="1.34207" stroke-linecap="round"/>
<path d="M154 139.415H149.638" stroke="black" stroke-width="1.34207" stroke-linecap="round"/>
<path d="M135.547 159.209V163.571" stroke="black" stroke-width="1.34207" stroke-linecap="round"/>
<path d="M135.547 127V131.362" stroke="black" stroke-width="1.34207" stroke-linecap="round"/>
<path d="M154 145.454H149.638" stroke="black" stroke-width="1.34207" stroke-linecap="round"/>
<path d="M141.586 159.209V163.571" stroke="black" stroke-width="1.34207" stroke-linecap="round"/>
<path d="M141.586 127V131.362" stroke="black" stroke-width="1.34207" stroke-linecap="round"/>
<path d="M154 151.493H149.638" stroke="black" stroke-width="1.34207" stroke-linecap="round"/>
<path d="M136.021 136.059C136.576 136.059 137.027 136.51 137.027 137.066V138.496C137.027 138.608 137.084 138.713 137.177 138.775L137.516 139.001C137.639 139.084 137.802 139.075 137.916 138.98L139.17 137.935C139.57 137.602 140.157 137.629 140.525 137.997L142.078 139.549C142.471 139.942 142.471 140.58 142.078 140.973L141.4 141.65C141.321 141.729 141.287 141.844 141.309 141.954L141.482 142.819C141.514 142.975 141.651 143.088 141.811 143.088H143.05C143.606 143.088 144.057 143.539 144.057 144.095V146.267C144.057 146.823 143.606 147.274 143.05 147.274H141.785C141.631 147.274 141.496 147.379 141.459 147.528L141.327 148.057C141.299 148.171 141.332 148.292 141.415 148.375L142.465 149.425C142.836 149.797 142.859 150.392 142.517 150.792L141.188 152.342C140.864 152.72 140.313 152.804 139.891 152.541L137.837 151.256C137.752 151.203 137.648 151.191 137.553 151.223L137.257 151.322C137.12 151.367 137.028 151.495 137.027 151.639V153.296C137.027 153.852 136.576 154.303 136.021 154.303H133.849C133.293 154.303 132.842 153.852 132.842 153.296V151.991C132.842 151.846 132.749 151.718 132.612 151.672L132.41 151.605C132.29 151.565 132.157 151.597 132.067 151.686L131.047 152.707C130.672 153.081 130.072 153.101 129.673 152.752L127.816 151.128C127.411 150.774 127.357 150.162 127.693 149.742L128.49 148.746C128.556 148.664 128.579 148.556 128.554 148.455L128.41 147.879C128.373 147.73 128.239 147.626 128.085 147.625H126.819C126.264 147.625 125.813 147.174 125.812 146.619V144.358C125.812 143.857 126.181 143.432 126.677 143.361L128.114 143.156C128.249 143.136 128.359 143.037 128.393 142.905L128.554 142.259C128.579 142.158 128.556 142.05 128.49 141.968L127.667 140.94C127.347 140.54 127.379 139.962 127.741 139.599L129.303 138.038C129.696 137.645 130.334 137.645 130.727 138.038L131.667 138.979C131.769 139.081 131.926 139.106 132.055 139.042L132.656 138.741C132.77 138.684 132.842 138.568 132.842 138.441V137.066C132.842 136.51 133.293 136.059 133.849 136.059H136.021ZM134.933 142.037C133.186 142.037 131.77 143.453 131.77 145.2C131.77 146.947 133.186 148.363 134.933 148.363C136.679 148.363 138.096 146.947 138.096 145.2C138.095 143.453 136.679 142.037 134.933 142.037Z" fill="black"/>
<path d="M117.769 145.454H107.703" stroke="black" stroke-width="1.34207" stroke-linecap="round"/>
<path d="M117.765 139.754H113.068L111.055 135.388" stroke="black" stroke-width="1.34207" stroke-linecap="round"/>
<path d="M117.574 151.493H112.876L110.863 155.859" stroke="black" stroke-width="1.34207" stroke-linecap="round"/>
<path d="M113.259 133.71C113.259 132.228 112.057 131.026 110.575 131.026C109.092 131.026 107.891 132.228 107.891 133.71C107.891 135.193 109.092 136.395 110.575 136.395C112.057 136.395 113.259 135.193 113.259 133.71Z" fill="black"/>
<path d="M113.071 157.537C113.071 159.019 111.87 160.221 110.387 160.221C108.905 160.221 107.703 159.019 107.703 157.537C107.703 156.054 108.905 154.853 110.387 154.853C111.87 154.853 113.071 156.054 113.071 157.537Z" fill="black"/>
<path d="M108.368 145.454C108.368 143.971 107.167 142.769 105.684 142.769C104.202 142.769 103 143.971 103 145.454C103 146.936 104.202 148.138 105.684 148.138C107.167 148.138 108.368 146.936 108.368 145.454Z" fill="black"/>
<path d="M124.808 158.875H145.274C147.313 158.875 148.965 157.222 148.965 155.184V135.724C148.965 133.686 147.313 132.033 145.274 132.033H124.808C122.77 132.033 121.117 133.686 121.117 135.724V155.184C121.117 157.222 122.77 158.875 124.808 158.875Z" stroke="black" stroke-width="1.34207" stroke-linecap="round"/>
<path d="M48.0906 157.445C44.8526 160.38 36.1301 164.488 27.1445 157.445" stroke="black" stroke-width="1.21425" stroke-linecap="round"/>
<path d="M27.1437 132.554C30.3818 129.619 39.1043 125.511 48.0898 132.554" stroke="black" stroke-width="1.21425" stroke-linecap="round"/>
<path d="M27.7505 161.999L26.8398 157.142L31.6969 156.231" stroke="black" stroke-width="1.21425" stroke-linecap="round"/>
<path d="M47.4838 128L48.3945 132.857L43.5375 133.768" stroke="black" stroke-width="1.21425" stroke-linecap="round"/>
<path d="M39.0693 134.678C39.5722 134.678 39.9795 135.086 39.9795 135.589V137.368C39.9795 137.469 40.0309 137.564 40.1152 137.621L40.6289 137.963C40.7407 138.038 40.8889 138.03 40.9922 137.944L42.542 136.653C42.9038 136.352 43.4356 136.376 43.7686 136.708L45.6582 138.598C46.0138 138.954 46.0138 139.531 45.6582 139.886L44.7686 140.776C44.6969 140.848 44.6657 140.951 44.6855 141.05L44.9111 142.18C44.9395 142.322 45.0644 142.424 45.209 142.424H46.8145C47.3173 142.424 47.7254 142.832 47.7256 143.334V145.994C47.7255 146.497 47.3173 146.904 46.8145 146.904H45.1846C45.0456 146.904 44.9244 146.999 44.8906 147.134L44.7012 147.89C44.6755 147.993 44.7061 148.103 44.7812 148.178L46.0771 149.474C46.4136 149.811 46.4345 150.349 46.125 150.71L44.5068 152.598C44.2138 152.94 43.7149 153.016 43.333 152.778L40.9199 151.27C40.8433 151.222 40.7488 151.21 40.6631 151.239L40.1875 151.398C40.0637 151.439 39.9795 151.555 39.9795 151.686V153.739C39.9795 154.242 39.5722 154.65 39.0693 154.65H36.4102C35.9075 154.65 35.5 154.242 35.5 153.739V152.073C35.4999 151.942 35.4159 151.826 35.292 151.785L34.9014 151.655C34.7924 151.619 34.6721 151.647 34.5908 151.728L33.3213 152.998C32.9823 153.336 32.4389 153.354 32.0781 153.039L29.8438 151.084C29.4774 150.764 29.4284 150.211 29.7324 149.831L30.7314 148.583C30.7906 148.509 30.8111 148.411 30.7881 148.319L30.5889 147.521C30.5549 147.386 30.4339 147.292 30.2949 147.292H28.665C28.1622 147.291 27.7539 146.883 27.7539 146.38V143.641C27.7541 143.188 28.0877 142.804 28.5361 142.74L30.3213 142.485C30.4434 142.467 30.5432 142.378 30.5732 142.258L30.7881 141.397C30.811 141.305 30.7905 141.207 30.7314 141.133L29.709 139.856C29.4194 139.494 29.4484 138.971 29.7764 138.643L31.6738 136.746C32.0294 136.39 32.6063 136.39 32.9619 136.746L34.1592 137.944C34.2515 138.036 34.393 138.059 34.5098 138L35.332 137.589C35.4348 137.538 35.4999 137.433 35.5 137.318V135.589C35.5 135.087 35.9075 134.679 36.4102 134.678H39.0693ZM37.7393 141.2C35.8144 141.2 34.2532 142.76 34.2529 144.685C34.2529 146.61 35.8142 148.171 37.7393 148.171C39.6641 148.171 41.2246 146.61 41.2246 144.685C41.2244 142.76 39.664 141.2 37.7393 141.2Z" fill="black"/>
<path d="M48.3945 138.017H50.7357C50.9738 138.017 51.1899 137.878 51.2884 137.662L52.4827 135.034C52.5812 134.817 52.7973 134.678 53.0354 134.678H55.9837" stroke="black" stroke-width="1.21425" stroke-linecap="round"/>
<path d="M50.5195 145H55.3766" stroke="black" stroke-width="1.21425" stroke-linecap="round"/>
<path d="M48.3945 151.981H50.2761C50.7867 151.981 51.2428 152.301 51.4173 152.781L52.1956 154.921C52.2828 155.161 52.5108 155.321 52.7661 155.321H55.3766" stroke="black" stroke-width="1.21425" stroke-linecap="round"/>
<path d="M60.2516 134.679C60.2516 136.02 59.1643 137.107 57.8231 137.107C56.4818 137.107 55.3945 136.02 55.3945 134.679C55.3945 133.337 56.4818 132.25 57.8231 132.25C59.1643 132.25 60.2516 133.337 60.2516 134.679Z" fill="black"/>
<path d="M59.9274 144.999C59.9274 146.341 58.8401 147.428 57.4988 147.428C56.1576 147.428 55.0703 146.341 55.0703 144.999C55.0703 143.658 56.1576 142.571 57.4988 142.571C58.8401 142.571 59.9274 143.658 59.9274 144.999Z" fill="black"/>
<path d="M59.9274 155.321C59.9274 156.662 58.8401 157.749 57.4988 157.749C56.1576 157.749 55.0703 156.662 55.0703 155.321C55.0703 153.979 56.1576 152.892 57.4988 152.892C58.8401 152.892 59.9274 153.979 59.9274 155.321Z" fill="black"/>
<path d="M26.8633 138.018H24.5221C24.284 138.018 24.0679 137.879 23.9694 137.662L22.7751 135.035C22.6766 134.818 22.4605 134.679 22.2224 134.679H19.2741" stroke="black" stroke-width="1.21425" stroke-linecap="round"/>
<path d="M24.7383 145H19.8812" stroke="black" stroke-width="1.21425" stroke-linecap="round"/>
<path d="M26.8633 151.981H24.9817C24.4711 151.981 24.015 152.301 23.8405 152.781L23.0622 154.921C22.975 155.161 22.747 155.321 22.4917 155.321H19.8812" stroke="black" stroke-width="1.21425" stroke-linecap="round"/>
<path d="M15.0023 134.679C15.0023 136.02 16.0896 137.107 17.4308 137.107C18.7721 137.107 19.8594 136.02 19.8594 134.679C19.8594 133.337 18.7721 132.25 17.4308 132.25C16.0896 132.25 15.0023 133.337 15.0023 134.679Z" fill="black"/>
<path d="M15.3304 144.999C15.3304 146.341 16.4177 147.428 17.759 147.428C19.1002 147.428 20.1875 146.341 20.1875 144.999C20.1875 143.658 19.1002 142.571 17.759 142.571C16.4177 142.571 15.3304 143.658 15.3304 144.999Z" fill="black"/>
<path d="M15.3304 155.321C15.3304 156.662 16.4177 157.749 17.759 157.749C19.1002 157.749 20.1875 156.662 20.1875 155.321C20.1875 153.979 19.1002 152.892 17.759 152.892C16.4177 152.892 15.3304 153.979 15.3304 155.321Z" fill="black"/>
<path d="M221.211 137.364V128.919" stroke="black" stroke-width="1.2993"/>
<path d="M217.641 137.689V132.492L215.367 129.893" stroke="black" stroke-width="1.2993"/>
<path d="M225.113 137.689V132.492L227.387 129.893" stroke="black" stroke-width="1.2993"/>
<path d="M218.292 162.051V159.127H224.139V162.051H227.062C227.421 162.051 227.712 162.342 227.712 162.701V163.35C227.712 163.709 227.421 164 227.062 164H215.368C215.01 164 214.719 163.709 214.719 163.35V162.701C214.719 162.342 215.01 162.051 215.368 162.051H218.292Z" fill="black" stroke="black" stroke-width="0.649648"/>
<path d="M227.715 154.581H204.652V135.741C204.652 135.023 205.234 134.441 205.952 134.441H215.047M227.715 134.441H236.485C237.203 134.441 237.784 135.023 237.784 135.741V144.836" stroke="black" stroke-width="1.2993" stroke-linecap="round"/>
<path d="M204 155.23V154.905L228.037 154.255V155.086C228.037 155.366 228.216 155.614 228.481 155.703L229.098 155.908C229.628 156.085 229.986 156.582 229.986 157.141V159.128H207.898C205.745 159.128 204 157.383 204 155.23Z" fill="black"/>
<path d="M237.522 146.409C238.06 146.409 238.497 146.846 238.497 147.384V148.311C238.497 148.419 238.551 148.521 238.642 148.581L238.773 148.669C238.893 148.748 239.051 148.74 239.161 148.648L239.982 147.964C240.37 147.642 240.939 147.667 241.295 148.023L242.34 149.068C242.72 149.449 242.72 150.067 242.34 150.447L241.946 150.841C241.87 150.918 241.836 151.028 241.857 151.135L241.959 151.646C241.989 151.797 242.123 151.906 242.278 151.906H243.02C243.557 151.906 243.994 152.343 243.994 152.881V154.33C243.994 154.868 243.558 155.305 243.02 155.305H242.253C242.104 155.305 241.974 155.406 241.938 155.551L241.875 155.801C241.847 155.911 241.88 156.029 241.96 156.109L242.649 156.799C243.009 157.159 243.031 157.736 242.7 158.122L241.806 159.165C241.492 159.531 240.958 159.612 240.55 159.356L239.084 158.44C239.002 158.389 238.901 158.378 238.81 158.408L238.719 158.438C238.587 158.483 238.497 158.607 238.497 158.746V159.827C238.497 160.365 238.06 160.802 237.522 160.802H236.073C235.535 160.802 235.099 160.365 235.099 159.827V159.021C235.098 158.881 235.009 158.757 234.877 158.713C234.761 158.674 234.632 158.705 234.545 158.792L233.885 159.452C233.522 159.815 232.94 159.835 232.554 159.497L231.28 158.382C230.888 158.038 230.835 157.447 231.161 157.04L231.671 156.402C231.734 156.323 231.757 156.219 231.732 156.121L231.658 155.825C231.622 155.681 231.492 155.579 231.344 155.579H230.576C230.038 155.579 229.602 155.143 229.602 154.605V153.069C229.602 152.585 229.959 152.174 230.438 152.105L231.372 151.972C231.503 151.953 231.61 151.857 231.642 151.729L231.732 151.365C231.757 151.267 231.734 151.163 231.671 151.084L231.136 150.415C230.826 150.027 230.857 149.468 231.208 149.117L232.261 148.063C232.641 147.683 233.259 147.683 233.64 148.063L234.223 148.647C234.321 148.746 234.473 148.77 234.598 148.708L234.919 148.547C235.029 148.492 235.099 148.38 235.099 148.257V147.384C235.099 146.846 235.535 146.409 236.073 146.409H237.522ZM236.801 151.146C235.435 151.146 234.327 152.254 234.327 153.62C234.327 154.986 235.435 156.094 236.801 156.094C238.167 156.094 239.274 154.986 239.274 153.62C239.274 152.254 238.167 151.147 236.801 151.146Z" fill="black"/>
<path d="M210.824 144.836C213.856 140.397 223.493 134.441 231.613 144.836C228.365 148.95 219.659 154.71 210.824 144.836ZM221.219 140.613C219.066 140.613 217.321 142.358 217.321 144.511C217.321 146.663 219.066 148.409 221.219 148.409C223.371 148.409 225.117 146.663 225.117 144.511C225.117 142.358 223.371 140.613 221.219 140.613Z" fill="#020202"/>
<path d="M221.216 141.912C222.651 141.912 223.814 143.076 223.814 144.511C223.814 145.946 222.651 147.109 221.216 147.109C219.781 147.109 218.617 145.946 218.617 144.511C218.617 144.028 218.752 143.577 218.981 143.189C219.118 143.761 219.631 144.186 220.244 144.186C220.962 144.185 221.543 143.603 221.543 142.886C221.543 142.5 221.374 142.155 221.107 141.917C221.143 141.916 221.179 141.912 221.216 141.912Z" fill="black"/>
<circle cx="214.718" cy="128.919" r="1.94894" fill="black"/>
<circle cx="221.215" cy="127.62" r="1.94894" fill="black"/>
<path d="M229.984 129.244C229.984 130.32 229.111 131.193 228.035 131.193C226.959 131.193 226.086 130.32 226.086 129.244C226.086 128.167 226.959 127.295 228.035 127.295C229.111 127.295 229.984 128.167 229.984 129.244Z" fill="black"/>
</svg>
