<svg width="260" height="178" viewBox="0 0 260 178" fill="none" xmlns="http://www.w3.org/2000/svg">
<path d="M17.9736 6.14246V7.85207H10.8502V14.4056H9.14062V6.14246H17.9736Z" fill="black"/>
<path d="M17.833 45.0361V43.3265H10.7096V36.773H9V45.0361H17.833Z" fill="black"/>
<path d="M40.0576 6V7.70961H47.181V14.2631H48.8906V6H40.0576Z" fill="black"/>
<path d="M39.917 45.1786V43.469H47.0404V36.9155H48.75V45.1786H39.917Z" fill="black"/>
<path d="M41.7658 35.6332C41.7658 32.4859 39.2144 29.9345 36.0671 29.9345H34.3655C33.625 29.9345 32.9053 30.1792 32.3184 30.6307C30.4969 32.0318 27.9604 32.0318 26.1389 30.6307C25.5519 30.1792 24.8322 29.9345 24.0917 29.9345H21.6778C18.5305 29.9345 15.9791 32.4859 15.9791 35.6332V39.1949H14.2695V35.6332C14.2695 31.5417 17.5863 28.2249 21.6778 28.2249H24.0917C25.2093 28.2249 26.2954 28.5944 27.1812 29.2758C28.3882 30.2043 30.0691 30.2043 31.276 29.2758C32.1618 28.5944 33.248 28.2249 34.3655 28.2249H36.0671C40.1586 28.2249 43.4754 31.5417 43.4754 35.6332V39.1949H41.7658V35.6332Z" fill="black"/>
<path d="M29.7144 10.274L29.7673 10.2807C31.0055 10.4355 32.8118 10.9595 34.1685 12.0888C34.858 12.6629 35.4506 13.4102 35.7684 14.3594C36.088 15.3139 36.1082 16.4085 35.7531 17.6351L35.5745 18.2522H32.3676V16.5426H34.2503C34.3552 15.8898 34.2974 15.3506 34.1473 14.9023C33.9505 14.3147 33.5745 13.8189 33.0746 13.4028C32.0689 12.5656 30.6433 12.122 29.6062 11.9839C26.6815 11.9949 25.4013 12.8775 24.8046 13.801C24.2952 14.5891 24.1687 15.5712 24.1946 16.5426H29.6612V18.2522H22.6158L22.5412 17.4792C22.4197 16.2153 22.3878 14.3913 23.3687 12.8732C24.3947 11.2856 26.3555 10.274 29.6612 10.274H29.7144Z" fill="black"/>
<path d="M24.3843 18.161C24.3187 19.254 24.4609 20.9393 25.0774 22.4005C25.6664 23.7964 26.6392 24.8957 28.2184 25.2162L28.3731 25.2449L28.404 25.2499L28.4346 25.2574C29.0851 25.4156 30.2468 25.3461 31.2873 24.5804C32.2973 23.8371 33.3046 22.3514 33.5053 19.4749L35.211 19.594C34.9843 22.8436 33.8074 24.8484 32.3007 25.9572C30.8364 27.0348 29.164 27.1851 28.0573 26.9247C25.6465 26.5092 24.2512 24.8403 23.5022 23.0653C22.7582 21.3019 22.6009 19.3401 22.6778 18.0586L24.3843 18.161Z" fill="black"/>
<path d="M114.582 24.3165V16.981C114.582 16.649 114.851 16.3798 115.183 16.3798C115.515 16.3798 115.785 16.649 115.785 16.981V24.3165C115.785 24.6485 115.515 24.9177 115.183 24.9177C114.851 24.9177 114.582 24.6485 114.582 24.3165Z" fill="black"/>
<path d="M151.379 24.1962V16.8608C151.379 16.5287 151.11 16.2595 150.778 16.2595C150.446 16.2595 150.176 16.5287 150.176 16.8608V24.1962C150.176 24.5283 150.446 24.7975 150.778 24.7975C151.11 24.7975 151.379 24.5283 151.379 24.1962Z" fill="black"/>
<path d="M114.582 35.3799V28.0445C114.582 27.7124 114.851 27.4432 115.183 27.4432C115.515 27.4432 115.785 27.7124 115.785 28.0445V35.3799C115.785 35.712 115.515 35.9812 115.183 35.9812C114.851 35.9812 114.582 35.712 114.582 35.3799Z" fill="black"/>
<path d="M151.379 35.2596V27.9241C151.379 27.5921 151.11 27.3229 150.778 27.3229C150.446 27.3229 150.176 27.5921 150.176 27.9241V35.2596C150.176 35.5916 150.446 35.8608 150.778 35.8608C151.11 35.8608 151.379 35.5916 151.379 35.2596Z" fill="black"/>
<path d="M114.582 43.4367V38.2658C114.582 37.9337 114.851 37.6646 115.183 37.6646C115.515 37.6646 115.785 37.9337 115.785 38.2658V43.4367C115.785 43.6359 115.946 43.7975 116.145 43.7975H120.715C121.047 43.7975 121.316 44.0666 121.316 44.3987C121.316 44.7308 121.047 45 120.715 45H116.145C115.282 45 114.582 44.3001 114.582 43.4367Z" fill="black"/>
<path d="M151.379 43.3163V38.1455C151.379 37.8134 151.11 37.5442 150.778 37.5442C150.446 37.5442 150.176 37.8134 150.176 38.1455V43.3163C150.176 43.5156 150.015 43.6771 149.816 43.6771H145.246C144.914 43.6771 144.645 43.9463 144.645 44.2784C144.645 44.6104 144.914 44.8796 145.246 44.8796H149.816C150.679 44.8796 151.379 44.1797 151.379 43.3163Z" fill="black"/>
<path d="M114.582 13.4936V8.68353C114.582 7.82015 115.282 7.12024 116.145 7.12024H120.715C121.047 7.12024 121.316 7.38943 121.316 7.7215C121.316 8.05357 121.047 8.32277 120.715 8.32277H116.145C115.946 8.32277 115.785 8.48429 115.785 8.68353V13.4936C115.785 13.8257 115.515 14.0949 115.183 14.0949C114.851 14.0949 114.582 13.8257 114.582 13.4936Z" fill="black"/>
<path d="M151.379 13.3734V8.56329C151.379 7.69991 150.679 7 149.816 7H145.246C144.914 7 144.645 7.2692 144.645 7.60127C144.645 7.93333 144.914 8.20253 145.246 8.20253H149.816C150.015 8.20253 150.176 8.36405 150.176 8.56329V13.3734C150.176 13.7055 150.446 13.9747 150.778 13.9747C151.11 13.9747 151.379 13.7055 151.379 13.3734Z" fill="black"/>
<path d="M131.896 29.1265V23.1139C131.896 22.7818 132.166 22.5126 132.498 22.5126C132.83 22.5126 133.099 22.7818 133.099 23.1139V29.1265C133.099 30.1821 133.455 30.7106 133.763 30.9146C134.054 31.1069 134.425 31.0992 134.763 30.8143C135.046 30.5753 135.143 30.1134 135.143 29.4248V22.3924C135.143 21.1305 134.12 20.1076 132.858 20.1076C131.597 20.1076 130.574 21.1305 130.574 22.3924V30.9303C130.574 31.2624 130.304 31.5316 129.972 31.5316C129.64 31.5316 129.371 31.2624 129.371 30.9303V22.3924C129.371 20.4664 130.932 18.905 132.858 18.905C134.784 18.905 136.346 20.4664 136.346 22.3924V29.4248C136.346 30.0876 136.288 31.1008 135.538 31.7333C134.829 32.3317 133.874 32.4298 133.1 31.9173C132.343 31.4163 131.896 30.4294 131.896 29.1265Z" fill="black"/>
<path d="M143.684 30.3293V28.0445C143.684 27.7124 143.953 27.4432 144.285 27.4432C144.617 27.4432 144.886 27.7124 144.886 28.0445V30.3293C144.886 30.6614 144.617 30.9306 144.285 30.9306C143.953 30.9306 143.684 30.6614 143.684 30.3293Z" fill="black"/>
<path d="M120.953 30.9304V26.481C120.953 26.149 121.222 25.8798 121.554 25.8798C121.886 25.8798 122.156 26.149 122.156 26.481V30.9304C122.156 31.2625 121.886 31.5317 121.554 31.5317C121.222 31.5317 120.953 31.2625 120.953 30.9304Z" fill="black"/>
<path d="M143.682 23.114V21.1899C143.682 15.5447 139.105 10.9684 133.46 10.9684H132.498C126.853 10.9684 122.277 15.5447 122.277 21.1899V23.9557C122.277 24.2878 122.008 24.557 121.675 24.557C121.343 24.557 121.074 24.2878 121.074 23.9557V21.1899C121.074 14.8806 126.189 9.76587 132.498 9.76587H133.46C139.77 9.76587 144.884 14.8806 144.884 21.1899V23.114C144.884 23.446 144.615 23.7152 144.283 23.7152C143.951 23.7152 143.682 23.446 143.682 23.114Z" fill="black"/>
<path d="M123.806 26.2414C124.137 26.2229 124.421 26.4767 124.44 26.8082L124.851 34.1406C125.02 37.1452 127.165 39.6716 130.103 40.3244C130.427 40.3965 130.631 40.7176 130.559 41.0417C130.487 41.3659 130.166 41.5703 129.842 41.4983C126.379 40.7286 123.849 37.7501 123.65 34.2077L123.239 26.8753C123.221 26.5438 123.474 26.26 123.806 26.2414Z" fill="black"/>
<path d="M144.12 32.018C144.449 32.0616 144.681 32.3638 144.637 32.693C144.405 34.4461 143.562 37.0035 141.762 39.0128C139.938 41.0504 137.15 42.4963 133.143 41.9891C132.814 41.9474 132.58 41.6465 132.622 41.3171C132.664 40.9877 132.965 40.7543 133.294 40.796C136.887 41.2508 139.29 39.9709 140.867 38.2105C142.468 36.4219 143.237 34.109 143.445 32.5351C143.489 32.206 143.791 31.9744 144.12 32.018Z" fill="black"/>
<path d="M126.008 31.7722V23.0116C126.008 21.7928 126.068 20.4532 126.599 19.2177C127.369 17.4244 128.916 15.3022 131.573 14.716C132.863 14.4314 134.219 14.6204 135.398 15.1456C136.346 15.5681 137.297 16.304 137.997 17.7322C138.685 19.1368 139.115 21.1792 139.115 24.1962V29.8481C139.115 31.3386 138.615 33.2031 137.369 34.4798C136.075 35.8052 134.078 36.3957 131.346 35.4681C131.032 35.3613 130.863 35.0197 130.97 34.7052C131.077 34.3909 131.418 34.2225 131.733 34.3292C134.1 35.1332 135.59 34.5812 136.509 33.6399C137.475 32.6498 137.913 31.1234 137.913 29.8481V24.1962C137.913 21.2759 137.494 19.4379 136.917 18.2613C136.352 17.1085 135.623 16.5624 134.908 16.244C133.936 15.811 132.842 15.6675 131.832 15.8903C129.714 16.3576 128.4 18.0705 127.704 19.6924C127.278 20.684 127.21 21.8067 127.21 23.0116V31.7722C127.21 32.1042 126.941 32.3735 126.609 32.3735C126.277 32.3735 126.008 32.1042 126.008 31.7722Z" fill="black"/>
<path d="M140.915 21.239C140.915 20.1644 140.871 19.1823 140.507 18.3163C140.209 17.606 139.807 16.9607 139.403 16.4242C138.736 15.54 137.793 14.8763 136.731 14.4212C133.855 13.189 131.554 13.3139 129.755 14.0748C127.937 14.8438 126.56 16.293 125.612 17.8231C124.655 19.3692 124.441 21.2676 124.441 23.2356V24.557C124.441 24.8891 124.172 25.1583 123.84 25.1583C123.507 25.1583 123.238 24.8891 123.238 24.557V23.2356C123.238 21.217 123.449 19.0332 124.59 17.1899C125.624 15.5206 127.171 13.8618 129.286 12.9672C131.421 12.0645 134.063 11.9702 137.205 13.3159C138.413 13.8335 139.542 14.6122 140.363 15.7001C140.813 16.2977 141.271 17.0292 141.616 17.8506C142.083 18.9631 142.118 20.1676 142.118 21.239V28.267C142.424 33.1371 140.386 36.6266 137.406 38.1825C134.426 39.7376 130.638 39.2858 127.643 36.545C127.398 36.3208 127.381 35.9405 127.605 35.6954C127.829 35.4505 128.209 35.4335 128.454 35.6576C131.11 38.0877 134.357 38.4172 136.849 37.1164C139.336 35.8185 141.205 32.8221 140.917 28.3234L140.915 28.3041V21.239Z" fill="black"/>
<path d="M249.543 25.4648C249.543 15.9379 241.82 8.21479 232.293 8.21479C222.766 8.21479 215.043 15.9379 215.043 25.4648C215.043 34.9918 222.766 42.7149 232.293 42.7149V43.9297C222.095 43.9297 213.828 35.6627 213.828 25.4648C213.828 15.267 222.095 7 232.293 7C242.491 7 250.758 15.267 250.758 25.4648C250.758 35.6627 242.491 43.9297 232.293 43.9297V42.7149C241.82 42.7149 249.543 34.9918 249.543 25.4648Z" fill="black"/>
<path d="M229.041 18.5313C234.05 17.659 240.069 18.9282 246.316 24.7784L246.757 25.1917L246.346 25.6349C243.955 28.2129 239.683 31.3135 234.604 32.2216C229.475 33.1386 223.595 31.804 218.113 25.625L217.766 25.233L218.103 24.8316C220.178 22.3573 224.07 19.397 229.041 18.5313ZM245.032 25.2489C239.203 19.9929 233.728 18.9481 229.25 19.728C224.882 20.4886 221.386 22.9986 219.381 25.2143C224.481 30.7429 229.797 31.8469 234.39 31.0258C238.858 30.227 242.705 27.5922 245.032 25.2489Z" fill="black"/>
<path d="M235.691 25.4649C235.691 23.4521 234.059 21.8205 232.047 21.8205C230.034 21.8205 228.402 23.4521 228.402 25.4649C228.402 27.4776 230.034 29.1093 232.047 29.1093V30.3241C229.363 30.3241 227.188 28.1485 227.188 25.4649C227.188 22.7812 229.363 20.6057 232.047 20.6057C234.73 20.6057 236.906 22.7812 236.906 25.4649C236.906 28.1485 234.73 30.3241 232.047 30.3241V29.1093C234.059 29.1093 235.691 27.4776 235.691 25.4649Z" fill="black"/>
<path d="M19.3314 64.9824V74.5311H9V64.9824H19.3314ZM10.5654 72.9658H17.766V66.5478H10.5654V72.9658Z" fill="black"/>
<path d="M19.3314 78.4445V87.9932H9V78.4445H19.3314ZM10.5654 86.4278H17.766V80.0098H10.5654V86.4278Z" fill="black"/>
<path d="M19.3314 91.9066V101.455H9V91.9066H19.3314ZM10.5654 99.89H17.766V93.472H10.5654V99.89Z" fill="black"/>
<path d="M32.4759 64.9824V74.5311H22.1445V64.9824H32.4759ZM23.7099 72.9658H30.9106V66.5478H23.7099V72.9658Z" fill="black"/>
<path d="M45.6283 64.9824V74.5311H35.2969V64.9824H45.6283ZM36.8622 72.9658H44.0629V66.5478H36.8622V72.9658Z" fill="black"/>
<path d="M32.0088 78.4445V80.0098H24.495V88.6193H22.9297V78.4445H32.0088Z" fill="black"/>
<path d="M45.6277 78.288V81.2621H44.0623V79.8533H37.1747V82.0448H35.6094V78.288H45.6277Z" fill="black"/>
<path d="M27.6258 91.437V93.0024H24.495V102.081H22.9297V91.437H27.6258Z" fill="black"/>
<path d="M27.8154 82.0688C29.0177 81.2626 30.6401 81.5323 31.5169 82.684L39.3664 92.9945L38.121 93.9425L30.2713 83.6322C29.896 83.1393 29.2018 83.0239 28.6872 83.3689C28.1363 83.7383 28.0017 84.4911 28.3905 85.0285L36.8179 96.677C37.4239 97.5146 36.6395 98.6483 35.6421 98.3765L30.2106 96.8951C29.4281 96.6817 28.6349 97.2 28.5159 98.0024C28.4166 98.6722 28.8275 99.3124 29.4779 99.5008L42.0853 103.153C43.2861 103.374 45.2374 103.34 47.1247 102.501C48.9928 101.671 50.8321 100.038 51.8358 96.9785C51.9363 96.6166 52.0587 95.8312 51.992 94.8673C51.8919 93.4211 51.1011 92.096 50.1564 90.687L46.8633 85.7757C45.8522 84.2678 43.8102 83.865 42.3023 84.8761L41.5168 85.4027L40.6451 84.1026L41.4305 83.5759C43.6564 82.0834 46.6709 82.6779 48.1634 84.9039L51.4566 89.8152C52.3868 91.2026 53.4212 92.8467 53.5536 94.7593C53.6324 95.8987 53.4932 96.8718 53.3396 97.4151L53.3355 97.4299L53.3308 97.4448C52.1864 100.953 50.0237 102.925 47.7606 103.931C45.5282 104.924 43.2315 104.963 41.7655 104.686L41.7287 104.679L41.6928 104.669L29.0423 101.004C27.6396 100.598 26.7532 99.2172 26.9674 97.7726C27.2241 96.0422 28.9349 94.9247 30.6226 95.385L34.7689 96.5159L27.1221 85.946C26.2138 84.6904 26.5283 82.9318 27.8154 82.0688Z" fill="black"/>
<path d="M41.4653 85.6525C40.617 84.5047 38.9899 84.2808 37.8629 85.1565L36.4097 86.2859L35.4491 85.0497L36.9024 83.9204C38.7237 82.5051 41.3534 82.8672 42.7242 84.7222L43.1894 85.3517L41.9304 86.282L41.4653 85.6525Z" fill="black"/>
<path d="M37.353 87.0491C36.7968 86.2964 35.7411 86.1257 34.9761 86.6649L33.5434 87.675L32.6416 86.3954L34.0744 85.3856C35.5349 84.3562 37.5501 84.6818 38.612 86.1188L39.7545 87.665L38.4955 88.5953L37.353 87.0491Z" fill="black"/>
<path d="M153.978 74.0776C153.978 71.6801 152.034 69.7365 149.636 69.7365H117.078C114.68 69.7365 112.736 71.6801 112.736 74.0776V95.0868C112.736 97.4843 114.68 99.4279 117.078 99.4279H149.636C152.034 99.4279 153.978 97.4843 153.978 95.0868V74.0776ZM155.714 95.0868C155.714 98.4433 152.993 101.164 149.636 101.164H117.078C113.721 101.164 111 98.4433 111 95.0868V74.0776C111 70.721 113.721 68 117.078 68H149.636C152.993 68 155.714 70.721 155.714 74.0776V95.0868Z" fill="black"/>
<path d="M130.413 75.8848C130.892 75.8848 131.281 76.2735 131.281 76.753C131.281 77.2325 130.892 77.6212 130.413 77.6212H119.196C118.717 77.6212 118.328 77.2325 118.328 76.753C118.328 76.2735 118.717 75.8848 119.196 75.8848H130.413Z" fill="black"/>
<path d="M130.413 83.7695C130.892 83.7695 131.281 84.1583 131.281 84.6378C131.281 85.1173 130.892 85.506 130.413 85.506H119.196C118.717 85.506 118.328 85.1173 118.328 84.6378C118.328 84.1583 118.717 83.7695 119.196 83.7695H130.413Z" fill="black"/>
<path d="M130.413 91.5432C130.892 91.5432 131.281 91.9319 131.281 92.4114C131.281 92.891 130.892 93.2797 130.413 93.2797H119.196C118.717 93.2797 118.328 92.891 118.328 92.4114C118.328 91.9319 118.717 91.5432 119.196 91.5432H130.413Z" fill="black"/>
<path d="M147.98 92.5419C147.98 92.0861 147.632 91.5994 147.02 91.3639C145.233 90.6758 144.156 89.5509 143.758 88.8352C143.274 87.9638 143.224 87.1187 143.43 86.3662C143.627 85.6463 144.043 85.0592 144.413 84.628L144.423 84.6167L144.433 84.6057C147.119 81.6827 146.267 78.4165 145.546 77.194C143.8 74.2336 139.974 74.3103 138.292 77.155C137.444 79.019 137.449 80.4289 137.784 81.5595C138.131 82.7312 138.855 83.693 139.624 84.6286C141.221 86.346 141.068 88.0308 140.473 88.8821C139.714 90.2015 138.176 90.9722 137.007 91.3848C136.413 91.5944 136.057 92.0854 136.057 92.5512C136.057 93.0985 136.5 93.542 137.048 93.5421H146.979C147.532 93.5421 147.98 93.0943 147.98 92.5419ZM149.716 92.5419C149.716 94.0534 148.491 95.2785 146.979 95.2786H137.048C135.541 95.2785 134.32 94.0575 134.32 92.5512C134.32 91.1919 135.302 90.1451 136.429 89.7472C137.532 89.3579 138.56 88.7534 138.983 87.9918L139.012 87.9401L139.047 87.8926C139.085 87.8416 139.515 87.0446 138.332 85.7882L138.312 85.7673L138.294 85.7449C137.513 84.7966 136.576 83.5962 136.119 82.0524C135.651 80.4702 135.709 78.6159 136.732 76.3905L136.749 76.3529L136.77 76.3171C139.097 72.31 144.603 72.1769 147.042 76.312C148.022 77.9745 149.064 82.1173 145.725 85.765C145.431 86.109 145.203 86.4637 145.105 86.824C145.014 87.1542 145.02 87.5306 145.276 87.9918C145.458 88.3185 146.2 89.1872 147.644 89.7433C148.73 90.1614 149.716 91.1786 149.716 92.5419Z" fill="black"/>
<path d="M224.355 86.0251C229.689 85.3683 235.612 85.864 239.097 87.2245C239.78 87.4915 240.368 87.884 240.884 88.281L239.785 89.7111C239.33 89.3616 238.898 89.0833 238.441 88.9048C235.326 87.6885 229.728 87.181 224.576 87.8153C222.012 88.1311 219.622 88.7228 217.748 89.6092C215.862 90.5014 214.613 91.6351 214.114 92.973C213.161 95.5324 213.712 98.8727 216.699 100.561C217.408 100.962 218.979 101.391 221.19 101.734C223.355 102.07 226.013 102.306 228.799 102.383C234.392 102.538 240.313 102.043 243.811 100.54C244.017 100.416 244.321 100.204 244.58 99.959C244.717 99.8289 244.825 99.7059 244.897 99.5987C244.97 99.4901 244.982 99.4359 244.982 99.4339L246.768 99.6889C246.67 100.373 246.18 100.928 245.82 101.269C245.423 101.645 244.975 101.951 244.672 102.127L244.627 102.153L244.58 102.173C240.7 103.862 234.403 104.343 228.749 104.186C225.899 104.107 223.165 103.865 220.913 103.516C218.708 103.174 216.837 102.711 215.811 102.131C211.86 99.8981 211.246 95.5086 212.424 92.3436C213.155 90.3817 214.883 88.9691 216.977 87.9786C219.083 86.9825 221.677 86.3549 224.355 86.0251Z" fill="black"/>
<path d="M239.155 73.7138C239.155 69.3453 235.613 65.8039 231.245 65.8038C226.877 65.8038 223.335 69.3453 223.335 73.7138C223.335 78.0822 226.877 81.6235 231.245 81.6235V83.4273L230.994 83.4243C225.829 83.2934 221.665 79.1299 221.535 73.9644L221.531 73.7138C221.531 68.3491 225.88 64 231.245 64L231.496 64.0033C236.745 64.1363 240.959 68.4329 240.959 73.7138L240.956 73.9644C240.823 79.2132 236.526 83.4273 231.245 83.4273V81.6235C235.613 81.6234 239.155 78.0822 239.155 73.7138Z" fill="black"/>
<path d="M247.724 92.421L242.073 98.0724L239.246 94.3167L240.688 93.2321L242.265 95.3286L246.448 91.1456L247.724 92.421Z" fill="black"/>
<path d="M249.175 94.227C249.175 91.1248 246.66 88.6099 243.558 88.6099C240.455 88.6099 237.941 91.1248 237.941 94.227C237.941 97.3293 240.455 99.8442 243.558 99.8442V101.648C239.459 101.648 236.137 98.3255 236.137 94.227C236.137 90.1285 239.459 86.806 243.558 86.806C247.656 86.806 250.979 90.1285 250.979 94.227C250.979 98.3255 247.656 101.648 243.558 101.648V99.8442C246.66 99.8442 249.175 97.3293 249.175 94.227Z" fill="black"/>
<path d="M9.23047 135.188V130.024C9.23047 129.39 9.74427 128.876 10.3781 128.876H15.0833C15.4636 128.876 15.7719 129.184 15.7719 129.565C15.7719 129.945 15.4636 130.253 15.0833 130.253H10.6076V135.188C10.6076 135.568 10.2993 135.877 9.91904 135.877C9.53875 135.877 9.23047 135.568 9.23047 135.188Z" fill="black"/>
<path d="M43.543 135.073V129.909C43.543 129.275 43.0292 128.761 42.3954 128.761H37.6901C37.3098 128.761 37.0015 129.07 37.0015 129.45C37.0015 129.83 37.3098 130.138 37.6901 130.138H42.1658V135.073C42.1658 135.454 42.4741 135.762 42.8544 135.762C43.2347 135.762 43.543 135.454 43.543 135.073Z" fill="black"/>
<path d="M9 158.14V163.305C9 163.938 9.51381 164.452 10.1476 164.452H14.8529C15.2331 164.452 15.5414 164.144 15.5414 163.764C15.5414 163.383 15.2331 163.075 14.8529 163.075H10.3771V158.14C10.3771 157.76 10.0689 157.452 9.68857 157.452C9.30828 157.452 9 157.76 9 158.14Z" fill="black"/>
<path d="M43.7734 158.026V163.19C43.7734 163.824 43.2596 164.338 42.6258 164.338H37.9206C37.5403 164.338 37.232 164.029 37.232 163.649C37.232 163.269 37.5403 162.96 37.9206 162.96H42.3963V158.026C42.3963 157.645 42.7046 157.337 43.0849 157.337C43.4652 157.337 43.7734 157.645 43.7734 158.026Z" fill="black"/>
<path d="M9.11328 145.058V138.401C9.11328 138.021 9.42156 137.713 9.80185 137.713C10.1821 137.713 10.4904 138.021 10.4904 138.401V145.058C10.4904 145.438 10.1821 145.746 9.80185 145.746C9.42156 145.746 9.11328 145.438 9.11328 145.058Z" fill="black"/>
<path d="M43.6602 144.943V138.287C43.6602 137.906 43.3519 137.598 42.9716 137.598C42.5913 137.598 42.283 137.906 42.283 138.287V144.943C42.283 145.323 42.5913 145.631 42.9716 145.631C43.3519 145.631 43.6602 145.323 43.6602 144.943Z" fill="black"/>
<path d="M9 154.468V147.812C9 147.432 9.30828 147.123 9.68857 147.123C10.0689 147.123 10.3771 147.432 10.3771 147.812V154.468C10.3771 154.848 10.0689 155.157 9.68857 155.157C9.30828 155.157 9 154.848 9 154.468Z" fill="black"/>
<path d="M43.7734 154.353V147.697C43.7734 147.317 43.4652 147.008 43.0849 147.008C42.7046 147.008 42.3963 147.317 42.3963 147.697V154.353C42.3963 154.733 42.7046 155.042 43.0849 155.042C43.4652 155.042 43.7734 154.733 43.7734 154.353Z" fill="black"/>
<path d="M24.2621 140.65C29.3821 139.964 35.2624 141.054 40.8701 145.929C41.3628 146.357 41.418 147.15 40.8972 147.623C38.4593 149.836 34.2846 152.345 29.2238 153.052C24.134 153.763 18.188 152.643 12.285 147.649C11.7681 147.212 11.7209 146.381 12.2812 145.913L12.5273 145.711C15.1224 143.615 19.329 141.311 24.2621 140.65ZM39.7603 146.791C34.5379 142.347 29.142 141.385 24.445 142.015C19.8074 142.636 15.8304 144.813 13.3938 146.781C18.9172 151.36 24.385 152.338 29.0332 151.688C33.6284 151.047 37.4604 148.807 39.7603 146.791Z" fill="black"/>
<path d="M31.7242 146.894C31.7242 144.232 29.5662 142.074 26.9042 142.074C24.2422 142.074 22.0842 144.232 22.0842 146.894C22.0842 149.556 24.2422 151.714 26.9042 151.714V153.091C23.4816 153.091 20.707 150.316 20.707 146.894C20.707 143.471 23.4816 140.697 26.9042 140.697C30.3268 140.697 33.1013 143.471 33.1013 146.894C33.1013 150.316 30.3268 153.091 26.9042 153.091V151.714C29.5662 151.714 31.7242 149.556 31.7242 146.894Z" fill="black"/>
<path d="M29.1969 147.008C29.1969 148.213 28.2207 149.189 27.0164 149.189C25.8122 149.189 24.8359 148.213 24.8359 147.008C24.8359 145.804 25.8122 144.828 27.0164 144.828C28.2207 144.828 29.1969 145.804 29.1969 147.008Z" fill="black"/>
<path d="M131.879 144.3C131.323 143.713 130.362 143.656 129.732 144.174C129.102 144.692 129.041 145.588 129.597 146.175L143.732 161.107L135.242 160.829C134.439 160.802 133.753 161.362 133.675 162.107C133.593 162.893 134.218 163.59 135.064 163.655L149.412 164.75C150.93 164.826 153.346 164.493 155.55 163.234C157.721 161.992 159.721 159.833 160.455 156.168C160.526 155.688 160.543 154.642 160.234 153.428C159.862 151.97 158.81 150.724 157.585 149.43L151.021 142.496C150.344 141.781 149.174 141.713 148.406 142.343C147.725 142.902 147.66 143.87 148.261 144.505L151.146 147.552L149.858 148.61L146.973 145.562C145.746 144.266 145.879 142.287 147.271 141.144C148.749 139.929 151.004 140.061 152.308 141.438L158.872 148.373C160.089 149.658 161.422 151.17 161.903 153.058C162.264 154.473 162.257 155.732 162.152 156.413L162.149 156.429L162.146 156.445C161.323 160.578 159.022 163.125 156.447 164.597C153.904 166.051 151.129 166.439 149.313 166.347L149.301 166.346L149.29 166.345L134.924 165.249C133.123 165.111 131.792 163.627 131.967 161.951C132.133 160.366 133.593 159.175 135.302 159.231L139.807 159.378L128.31 147.232C127.127 145.983 127.255 144.077 128.596 142.975C129.938 141.873 131.984 141.993 133.166 143.242L143.327 153.976L142.04 155.034L131.879 144.3Z" fill="black"/>
<path d="M145.277 143.775C144.66 143.122 143.591 143.059 142.89 143.635C142.19 144.21 142.123 145.206 142.74 145.859L147.468 150.853L146.18 151.911L141.453 146.917C140.208 145.602 140.344 143.595 141.755 142.435C143.167 141.276 145.32 141.402 146.565 142.717L148.219 144.464L146.932 145.522L145.277 143.775Z" fill="black"/>
<path d="M141.23 146.679C140.57 145.982 139.43 145.916 138.682 146.53C137.935 147.144 137.863 148.207 138.522 148.903L143.175 153.818L141.887 154.876L137.235 149.961C135.949 148.602 136.089 146.529 137.547 145.331C139.005 144.132 141.231 144.262 142.517 145.621L144.246 147.448L142.959 148.506L141.23 146.679Z" fill="black"/>
<path d="M121.396 134.723C124.035 132.813 127.575 131.859 131.245 132.432C134.927 133.007 138.668 135.105 141.742 139.172C142.014 139.533 141.922 140.031 141.534 140.286C141.147 140.54 140.611 140.453 140.338 140.092C137.491 136.324 134.13 134.504 130.962 134.01C127.782 133.513 124.723 134.339 122.449 135.986C120.174 137.632 118.703 140.083 118.651 142.839C118.599 145.585 119.957 148.755 123.59 151.832C123.941 152.129 123.967 152.635 123.648 152.961C123.329 153.288 122.786 153.312 122.436 153.015C118.518 149.697 116.873 146.111 116.935 142.811C116.997 139.521 118.756 136.635 121.396 134.723Z" fill="black"/>
<path d="M124.904 138.309C128.134 136.087 133.403 136.467 137.411 141.046C137.71 141.388 137.655 141.891 137.288 142.17C136.921 142.449 136.38 142.398 136.08 142.056C132.53 138 128.271 137.98 125.924 139.596C124.735 140.414 123.971 141.675 123.94 143.185C123.908 144.7 124.614 146.557 126.563 148.523C126.885 148.848 126.863 149.354 126.515 149.653C126.167 149.953 125.624 149.933 125.303 149.609C123.13 147.417 122.182 145.177 122.224 143.154C122.266 141.127 123.304 139.41 124.904 138.309Z" fill="black"/>
<path d="M111 133.716V127H118.552C119.025 127 119.41 127.358 119.41 127.799C119.41 128.241 119.025 128.599 118.552 128.599H112.716V133.716C112.716 134.157 112.332 134.515 111.858 134.515C111.384 134.515 111 134.157 111 133.716Z" fill="black"/>
<path d="M153.73 133.876V127.16H146.179C145.705 127.16 145.321 127.518 145.321 127.959C145.321 128.401 145.705 128.759 146.179 128.759H152.014V133.876C152.014 134.317 152.398 134.675 152.872 134.675C153.346 134.675 153.73 134.317 153.73 133.876Z" fill="black"/>
<path d="M111 158.34V165.056H118.552C119.025 165.056 119.41 164.698 119.41 164.256C119.41 163.815 119.025 163.457 118.552 163.457H112.716V158.34C112.716 157.899 112.332 157.541 111.858 157.541C111.384 157.541 111 157.899 111 158.34Z" fill="black"/>
<path d="M225.752 142.06C227.842 140.69 229.899 140.318 231.741 140.697C233.572 141.074 235.122 142.179 236.239 143.642C238.456 146.548 239.069 151.013 236.691 154.441C236.488 154.733 236.086 154.805 235.794 154.603C235.501 154.4 235.429 153.998 235.632 153.706C237.637 150.816 237.154 146.966 235.214 144.424C234.252 143.164 232.957 142.263 231.481 141.959C230.015 141.658 228.301 141.93 226.459 143.138C225.392 143.838 223.946 145.357 223.234 146.975C222.881 147.777 222.732 148.55 222.847 149.233C222.955 149.874 223.306 150.499 224.08 151.043C224.491 151.171 225.093 151.161 225.646 150.852C226.206 150.538 226.788 149.873 227.018 148.548C227.283 147.024 228.354 146.004 229.539 145.75C230.132 145.623 230.763 145.688 231.314 145.997C231.872 146.31 232.298 146.845 232.523 147.564C232.887 148.731 232.983 150.598 232.161 152.521C231.33 154.465 229.585 156.416 226.353 157.762C226.025 157.899 225.647 157.744 225.51 157.415C225.373 157.086 225.529 156.709 225.858 156.572C228.814 155.34 230.291 153.616 230.976 152.015C231.669 150.393 231.572 148.843 231.292 147.948C231.154 147.507 230.923 147.256 230.684 147.121C230.439 146.984 230.134 146.941 229.81 147.011C229.16 147.15 228.467 147.742 228.288 148.769C228.003 150.409 227.23 151.442 226.276 151.976C225.346 152.497 224.311 152.506 223.561 152.228L223.488 152.201L223.424 152.158C222.337 151.423 221.75 150.483 221.576 149.447C221.405 148.433 221.64 147.397 222.054 146.455C222.877 144.586 224.499 142.882 225.752 142.06Z" fill="black"/>
<path d="M229.885 148.918C230.241 148.94 230.51 149.247 230.488 149.602C230.335 151.989 227.835 154.847 223.914 154.847C223.558 154.847 223.27 154.558 223.27 154.202C223.27 153.846 223.558 153.557 223.914 153.557C227.212 153.557 229.096 151.172 229.201 149.52C229.224 149.165 229.53 148.895 229.885 148.918Z" fill="black"/>
<path d="M227.251 143.865C228.163 143.269 229.228 142.93 230.344 142.991C231.431 143.05 232.523 143.485 233.529 144.354L233.627 144.44L233.647 144.458L233.666 144.478C234.794 145.677 235.696 147.423 235.632 149.653C235.569 151.877 234.549 154.495 232.01 157.458C231.778 157.728 231.371 157.759 231.101 157.528C230.83 157.296 230.799 156.889 231.031 156.619C233.442 153.806 234.291 151.46 234.343 149.617C234.395 147.793 233.67 146.374 232.746 145.383C231.916 144.645 231.068 144.321 230.274 144.278C229.469 144.234 228.672 144.476 227.956 144.944C226.512 145.888 225.461 147.715 225.461 149.69C225.461 150.046 225.173 150.334 224.817 150.334C224.461 150.334 224.172 150.046 224.172 149.69C224.171 147.282 225.44 145.048 227.251 143.865Z" fill="black"/>
<path d="M229.308 138.252C232.951 137.834 236.802 139.43 239.434 144.087C239.609 144.397 239.5 144.79 239.19 144.965C238.88 145.14 238.487 145.031 238.312 144.721C235.916 140.483 232.548 139.178 229.455 139.533C226.305 139.895 223.36 141.987 221.909 144.707C221.741 145.022 221.351 145.14 221.037 144.973C220.723 144.805 220.604 144.415 220.771 144.101C222.414 141.02 225.722 138.664 229.308 138.252Z" fill="black"/>
<path d="M223.933 137.69C225.848 136.335 230.934 134.512 236.36 137.658C236.668 137.837 236.772 138.231 236.594 138.539C236.415 138.847 236.021 138.952 235.713 138.774C230.825 135.938 226.285 137.605 224.677 138.742C224.386 138.948 223.984 138.879 223.779 138.588C223.573 138.298 223.642 137.895 223.933 137.69Z" fill="black"/>
<path d="M247.894 146.596C247.894 136.485 239.698 128.289 229.588 128.289C219.477 128.289 211.281 136.485 211.281 146.596C211.281 156.706 219.477 164.902 229.588 164.902V166.191C218.765 166.191 209.992 157.418 209.992 146.596C209.992 135.773 218.765 127 229.588 127C240.41 127 249.184 135.773 249.184 146.596C249.184 157.418 240.41 166.191 229.588 166.191V164.902C239.698 164.902 247.894 156.706 247.894 146.596Z" fill="black"/>
</svg>
