<svg width="296" height="220" viewBox="0 0 296 220" fill="none" xmlns="http://www.w3.org/2000/svg">
<path d="M44.1002 23.9014C44.6223 23.9014 45.0456 24.3247 45.0456 24.8468C45.0456 25.3689 44.6223 25.7922 44.1002 25.7922H43.7189C43.1967 25.7922 42.7734 25.3689 42.7734 24.8468C42.7734 24.3247 43.1967 23.9014 43.7189 23.9014H44.1002Z" fill="black"/>
<path d="M48.2955 23.9014C48.8176 23.9014 49.2409 24.3247 49.2409 24.8468C49.2409 25.3689 48.8176 25.7922 48.2955 25.7922H47.9142C47.392 25.7922 46.9688 25.3689 46.9688 24.8468C46.9688 24.3247 47.392 23.9014 47.9142 23.9014H48.2955Z" fill="black"/>
<path d="M73.0784 45.3939L66.3978 49.4028V57.1022L73.0784 61.1102L79.759 57.1022V49.4028L73.0784 45.3939ZM81.649 57.1022C81.6489 57.766 81.3009 58.3813 80.7317 58.7228L74.0511 62.7308C73.4526 63.0899 72.7043 63.0899 72.1057 62.7308L65.4251 58.7228C64.856 58.3812 64.5079 57.766 64.5078 57.1022V49.4028C64.5078 48.7391 64.8561 48.1239 65.4251 47.7823L72.1057 43.7734C72.7043 43.4142 73.4526 43.4142 74.0511 43.7734L80.7317 47.7823C81.3009 48.1239 81.649 48.739 81.649 49.4028V57.1022Z" fill="black"/>
<path d="M43.1484 44.292V39.518C43.1484 38.4742 43.9946 37.628 45.0385 37.628H68.3462C70.4338 37.628 72.1262 35.9356 72.1262 33.848V31.3286C72.1262 30.8066 72.5493 30.3835 73.0713 30.3835C73.5932 30.3836 74.0163 30.8067 74.0163 31.3286V33.848C74.0163 36.9794 71.4777 39.518 68.3462 39.518H45.0385V44.292C45.0385 44.8139 44.6154 45.237 44.0934 45.237C43.5715 45.237 43.1484 44.8139 43.1484 44.292Z" fill="black"/>
<path d="M65.065 23.5201C65.5869 23.5201 66.01 23.9432 66.01 24.4652C66.01 24.9871 65.5869 25.4102 65.065 25.4102H57.0583C56.5364 25.4102 56.1133 24.9871 56.1133 24.4652C56.1133 23.9432 56.5364 23.5201 57.0583 23.5201H65.065Z" fill="black"/>
<path d="M38.0514 23.0405C37.8377 23.3318 37.498 23.5038 37.1368 23.5038H35.89V25.8081H36.7474C37.135 25.8081 37.4962 26.0062 37.7044 26.3332L40.0392 30.0025H52.3049L54.2697 26.3988C54.4685 26.0346 54.8506 25.8081 55.2655 25.8081H56.1145V23.5038H54.8631C54.5186 23.5038 54.1924 23.3473 53.9772 23.0783L49.7421 17.7848H41.9052L38.0514 23.0405ZM58.0045 26.564C58.0045 27.1903 57.4966 27.6982 56.8703 27.6982H55.714L53.7492 31.301C53.5505 31.6653 53.1684 31.8925 52.7534 31.8926H39.6239C39.2364 31.8925 38.876 31.6943 38.6678 31.3674L36.3321 27.6982H35.1342C34.5079 27.6982 34 27.1903 34 26.564V22.7479C34.0001 22.1217 34.5079 21.6137 35.1342 21.6137H36.7547L40.6086 16.3581L40.6944 16.2547C40.9074 16.0268 41.2064 15.8949 41.5222 15.8948H50.1058C50.4073 15.8948 50.6946 16.0148 50.9059 16.2252L50.9908 16.3202L55.2258 21.6137H56.8703C57.4966 21.6137 58.0044 22.1217 58.0045 22.7479V26.564Z" fill="black"/>
<path d="M39.3359 25.9897C39.3361 23.9065 40.1687 22.2646 41.4474 21.1493C42.708 20.05 44.3605 19.4959 45.9851 19.4688C47.6099 19.4418 49.2756 19.9416 50.5496 21.0386C51.8433 22.1527 52.6657 23.8268 52.6657 25.9907C52.6655 26.5122 52.2423 26.9354 51.7207 26.9357C51.1989 26.9357 50.7759 26.5124 50.7757 25.9907C50.7757 24.3421 50.1674 23.2037 49.3167 22.4709C48.4459 21.7211 47.2515 21.3383 46.0165 21.3588C44.7815 21.3794 43.5739 21.8022 42.6896 22.5733C41.8236 23.3286 41.2261 24.4511 41.226 25.9897C41.226 26.5117 40.8029 26.9347 40.2809 26.9347C39.759 26.9347 39.3359 26.5117 39.3359 25.9897Z" fill="black"/>
<path d="M64.6852 52.4978C65.2071 52.4978 65.6302 52.9209 65.6302 53.4428C65.6302 53.9647 65.2071 54.3878 64.6852 54.3878H52.4841C51.9622 54.3878 51.5391 53.9647 51.5391 53.4428C51.5391 52.9209 51.9622 52.4978 52.4841 52.4978H64.6852Z" fill="black"/>
<path d="M51.3618 53.4429C51.3618 49.2223 47.9402 45.8008 43.7197 45.8008C39.4991 45.8008 36.0775 49.2223 36.0775 53.4429C36.0775 57.6635 39.4991 61.0851 43.7197 61.0851V62.9751L43.2287 62.9622C38.3547 62.7149 34.4463 58.807 34.1995 53.933L34.1875 53.4429C34.1875 48.1785 38.4552 43.9108 43.7197 43.9108L44.2097 43.9228C49.2464 44.1778 53.2518 48.3429 53.2518 53.4429L53.2389 53.933C52.9838 58.9696 48.8197 62.9751 43.7197 62.9751V61.0851C47.9402 61.0851 51.3618 57.6635 51.3618 53.4429Z" fill="black"/>
<path d="M79.5742 29.8203V31.7103H66.5775V29.8203H79.5742ZM79.5742 17.5859H66.5775V31.7103L66.3846 31.7002C65.495 31.61 64.788 30.9028 64.6977 30.0132L64.6875 29.8203V17.5859C64.6875 16.5421 65.5337 15.6959 66.5775 15.6959H79.5742L79.767 15.7061C80.7202 15.8027 81.4642 16.6073 81.4642 17.5859V29.8203L81.454 30.0132C81.3637 30.9028 80.6567 31.61 79.767 31.7002L79.5742 31.7103V17.5859Z" fill="black"/>
<path d="M44.6797 16.0768V13.0268C44.6797 12.5049 45.1028 12.0818 45.6247 12.0818C46.1466 12.0818 46.5697 12.5049 46.5697 13.0268V16.0768C46.5697 16.5988 46.1466 17.0219 45.6247 17.0219C45.1028 17.0219 44.6797 16.5988 44.6797 16.0768Z" fill="black"/>
<path d="M46.7852 10.7385C46.7851 10.0978 46.265 9.57849 45.6243 9.57849C44.9837 9.57862 44.4644 10.0979 44.4642 10.7385C44.4642 11.3793 44.9836 11.8994 45.6243 11.8995V13.7895L45.4674 13.7849C43.8558 13.7031 42.5742 12.3705 42.5742 10.7385C42.5743 9.05409 43.9398 7.68861 45.6243 7.68848C47.3088 7.68848 48.6751 9.05401 48.6752 10.7385L48.6706 10.8954C48.5891 12.5072 47.2564 13.7895 45.6243 13.7895V11.8995C46.2651 11.8995 46.7852 11.3793 46.7852 10.7385Z" fill="black"/>
<path d="M63.0428 157.474L67.2276 159.957L67.2856 164.824L67.2276 169.69L63.0428 172.173L58.799 174.556L54.5562 172.173L50.3705 169.69L50.3125 164.824L50.3705 159.957L54.5562 157.474L58.799 155.091L63.0428 157.474ZM55.4785 159.083L52.2133 161.021L52.168 164.824L52.2133 168.625L55.503 170.578L58.799 172.428L62.1078 170.57L65.3839 168.626L65.4292 164.824L65.3839 161.02L62.134 159.092L58.799 157.22L55.4785 159.083Z" fill="black"/>
<path d="M61.4894 161.572C61.838 161.197 62.4258 161.176 62.8013 161.524C63.1764 161.873 63.1978 162.46 62.8493 162.835L58.7007 167.303C57.9396 168.122 56.6317 168.087 55.9156 167.228L54.7188 165.792C54.3909 165.399 54.4443 164.814 54.8375 164.486C55.2311 164.158 55.8168 164.211 56.1449 164.605L57.3408 166.041L61.4894 161.572Z" fill="black"/>
<path d="M57.3019 200.954C57.8143 200.954 58.2297 201.369 58.2297 201.882C58.2297 202.394 57.8143 202.809 57.3019 202.809H56.9277C56.4154 202.809 56 202.394 56 201.882C56 201.369 56.4154 200.954 56.9277 200.954H57.3019Z" fill="black"/>
<path d="M61.4191 200.954C61.9315 200.954 62.3469 201.369 62.3469 201.882C62.3469 202.394 61.9315 202.809 61.4191 202.809H61.0449C60.5326 202.809 60.1172 202.394 60.1172 201.882C60.1172 201.369 60.5326 200.954 61.0449 200.954H61.4191Z" fill="black"/>
<path d="M51.368 200.109C51.1583 200.395 50.8248 200.563 50.4701 200.563H49.2461V202.826H50.0878C50.4684 202.826 50.823 203.02 51.0273 203.341L53.3195 206.943H65.3612L67.2901 203.406C67.4852 203.048 67.8604 202.826 68.2677 202.826H69.1012V200.563H67.8727C67.5345 200.563 67.2142 200.41 67.0029 200.146L62.8452 194.949H55.1515L51.368 200.109ZM70.9567 203.568C70.9567 204.183 70.4581 204.681 69.8432 204.681H68.708L66.7791 208.218C66.5841 208.576 66.2089 208.799 65.8015 208.799H52.9118C52.5314 208.799 52.1775 208.604 51.9732 208.283L49.6801 204.681H48.5041C47.8892 204.681 47.3906 204.183 47.3906 203.568V199.821C47.3907 199.207 47.8893 198.708 48.5041 198.708H50.095L53.8785 193.548L53.9628 193.447C54.1718 193.223 54.4654 193.093 54.7755 193.093H63.2022C63.4983 193.093 63.7803 193.211 63.9877 193.418L64.0711 193.511L68.2287 198.708H69.8432C70.458 198.708 70.9566 199.207 70.9567 199.821V203.568Z" fill="black"/>
<path d="M52.625 203.004C52.6251 200.959 53.4426 199.347 54.6979 198.252C55.9354 197.173 57.5578 196.629 59.1528 196.602C60.7478 196.576 62.3831 197.066 63.6339 198.143C64.904 199.237 65.7113 200.881 65.7113 203.005C65.7111 203.517 65.2956 203.933 64.7836 203.933C64.2713 203.933 63.856 203.517 63.8558 203.005C63.8558 201.387 63.2587 200.269 62.4234 199.55C61.5686 198.813 60.3959 198.438 59.1836 198.458C57.9711 198.478 56.7856 198.893 55.9174 199.65C55.0672 200.392 54.4806 201.494 54.4805 203.004C54.4805 203.517 54.0651 203.932 53.5527 203.932C53.0404 203.932 52.625 203.517 52.625 203.004Z" fill="black"/>
<path d="M57.8711 193.272V190.278C57.8711 189.765 58.2865 189.35 58.7988 189.35C59.3112 189.35 59.7266 189.765 59.7266 190.278V193.272C59.7266 193.785 59.3112 194.2 58.7988 194.2C58.2865 194.2 57.8711 193.785 57.8711 193.272Z" fill="black"/>
<path d="M59.9388 188.031C59.9387 187.402 59.4281 186.893 58.799 186.893C58.1701 186.893 57.6603 187.403 57.6602 188.031C57.6602 188.66 58.17 189.171 58.799 189.171V191.027L58.645 191.022C57.0628 190.942 55.8047 189.634 55.8047 188.031C55.8048 186.378 57.1454 185.037 58.799 185.037C60.4528 185.037 61.7942 186.378 61.7943 188.031L61.7898 188.185C61.7097 189.768 60.4013 191.027 58.799 191.027V189.171C59.4281 189.171 59.9388 188.661 59.9388 188.031Z" fill="black"/>
<path d="M44.6054 188.422V190.278H34.8087V188.422H44.6054ZM46.461 186.567V177.519C46.461 176.494 45.6302 175.663 44.6054 175.663H34.8087C33.7839 175.663 32.9532 176.494 32.9532 177.519V186.567C32.9532 187.592 33.7839 188.422 34.8087 188.422V190.278L34.6175 190.273C32.7201 190.177 31.1985 188.655 31.1022 186.758L31.0977 186.567V177.519C31.0977 175.469 32.7591 173.808 34.8087 173.808H44.6054C46.655 173.808 48.3165 175.469 48.3165 177.519V186.567L48.312 186.758C48.2156 188.655 46.6941 190.177 44.7966 190.273L44.6054 190.278V188.422C45.6302 188.422 46.4609 187.592 46.461 186.567Z" fill="black"/>
<path d="M81.289 188.422V190.278H71.4923V188.422H81.289ZM83.1446 186.567V177.519C83.1446 176.494 82.3138 175.663 81.289 175.663H71.4923C70.4675 175.663 69.6368 176.494 69.6368 177.519V186.567C69.6368 187.592 70.4675 188.422 71.4923 188.422V190.278L71.3011 190.273C69.4037 190.177 67.8821 188.655 67.7858 186.758L67.7812 186.567V177.519C67.7812 175.469 69.4427 173.808 71.4923 173.808H81.289C83.3386 173.808 85.0001 175.469 85.0001 177.519V186.567L84.9956 186.758C84.8992 188.655 83.3777 190.177 81.4802 190.273L81.289 190.278V188.422C82.3138 188.422 83.1445 187.592 83.1446 186.567Z" fill="black"/>
<path d="M40.8294 179.243V181.099H35.2148V179.243H40.8294Z" fill="black"/>
<path d="M77.5129 179.243V181.099H71.8984V179.243H77.5129Z" fill="black"/>
<path d="M43.4495 182.612V184.468H35.2148V182.612H43.4495Z" fill="black"/>
<path d="M80.1331 182.612V184.468H71.8984V182.612H80.1331Z" fill="black"/>
<path d="M41.1654 188.699C41.6237 188.47 42.1811 188.656 42.4103 189.114C43.3292 190.952 44.2225 193.802 47.7276 196.255C48.1472 196.549 48.2487 197.128 47.955 197.547C47.6612 197.967 47.0828 198.07 46.6631 197.776C42.6818 194.989 41.5784 191.6 40.7505 189.944C40.5213 189.486 40.7071 188.928 41.1654 188.699Z" fill="black"/>
<path d="M76.8072 188.699C76.3489 188.47 75.7915 188.656 75.5624 189.114C74.6435 190.952 73.7502 193.802 70.245 196.255C69.8254 196.549 69.7239 197.128 70.0176 197.547C70.3115 197.967 70.8898 198.07 71.3096 197.776C75.2908 194.989 76.3942 191.6 77.2222 189.944C77.4513 189.486 77.2655 188.928 76.8072 188.699Z" fill="black"/>
<path d="M66.1515 164.53C65.9895 165.016 66.2523 165.542 66.7383 165.704C68.8205 166.398 71.5608 167.848 73.6782 171.578C73.9313 172.023 74.4975 172.179 74.943 171.926C75.3885 171.673 75.5449 171.107 75.2921 170.661C72.8982 166.444 69.7351 164.746 67.3255 163.943C66.8395 163.781 66.3136 164.044 66.1515 164.53Z" fill="black"/>
<path d="M51.4071 164.53C51.5691 165.016 51.3063 165.542 50.8203 165.704C48.738 166.398 45.9978 167.848 43.8804 171.578C43.6273 172.023 43.0611 172.179 42.6156 171.926C42.1701 171.673 42.0137 171.107 42.2665 170.661C44.6604 166.444 47.8234 164.746 50.2331 163.943C50.7191 163.781 51.245 164.044 51.4071 164.53Z" fill="black"/>
<path d="M215.189 156.041C216.201 153.32 220.05 153.32 221.061 156.041C221.696 157.747 223.646 158.554 225.301 157.797C227.94 156.588 230.662 159.31 229.453 161.949L229.387 162.105C228.747 163.725 229.557 165.575 231.21 166.189C233.93 167.201 233.93 171.049 231.21 172.061L231.052 172.124C229.454 172.816 228.719 174.697 229.453 176.3C230.662 178.94 227.94 181.661 225.301 180.453C223.645 179.695 221.696 180.503 221.061 182.21L220.958 182.457C219.848 184.848 216.401 184.848 215.292 182.457L215.189 182.21C214.555 180.503 212.604 179.695 210.949 180.453L210.701 180.554C208.143 181.491 205.626 178.857 206.797 176.3C207.531 174.697 206.796 172.816 205.198 172.124L205.041 172.061C202.405 171.081 202.322 167.438 204.794 166.292L205.041 166.189C206.694 165.575 207.503 163.725 206.863 162.105L206.797 161.949C205.588 159.31 208.31 156.588 210.949 157.797C212.552 158.531 214.433 157.796 215.126 156.198L215.189 156.041ZM219.186 156.738C218.821 155.754 217.429 155.754 217.063 156.738C216.024 159.533 212.828 160.857 210.116 159.615C209.162 159.178 208.179 160.162 208.615 161.116C209.857 163.828 208.534 167.023 205.738 168.063C204.754 168.429 204.754 169.82 205.738 170.186C208.534 171.226 209.857 174.422 208.615 177.133C208.178 178.087 209.162 179.071 210.116 178.634C212.828 177.393 216.024 178.717 217.063 181.512C217.429 182.496 218.821 182.496 219.186 181.512C220.226 178.717 223.422 177.393 226.134 178.634C227.088 179.071 228.071 178.088 227.635 177.133C226.393 174.421 227.717 171.226 230.512 170.186C231.496 169.82 231.496 168.429 230.512 168.063C227.717 167.024 226.393 163.828 227.635 161.116C228.071 160.162 227.088 159.178 226.134 159.615C223.422 160.857 220.226 159.534 219.186 156.738Z" fill="black"/>
<path d="M217.148 162.334C217.376 161.284 218.874 161.284 219.102 162.334L220.002 166.483C220.085 166.866 220.384 167.165 220.767 167.248L224.915 168.148C225.965 168.376 225.965 169.874 224.915 170.102L220.767 171.001C220.384 171.084 220.085 171.384 220.002 171.767L219.102 175.914C218.881 176.932 217.468 176.965 217.172 176.01L217.148 175.914L216.249 171.767C216.176 171.432 215.938 171.16 215.623 171.042L215.483 171.001L211.335 170.102C210.284 169.874 210.284 168.376 211.335 168.148L215.483 167.248C215.818 167.176 216.089 166.937 216.208 166.622L216.249 166.483L217.148 162.334ZM218.125 167.189C217.829 168.108 217.109 168.829 216.189 169.124C217.108 169.42 217.829 170.14 218.125 171.059C218.42 170.14 219.141 169.42 220.059 169.124C219.14 168.828 218.42 168.108 218.125 167.189Z" fill="black"/>
<path d="M243.139 199.346C243.829 199.346 244.389 199.905 244.389 200.596C244.389 201.286 243.829 201.846 243.139 201.846H242.332C241.642 201.846 241.082 201.286 241.082 200.596C241.082 199.905 241.642 199.346 242.332 199.346H243.139Z" fill="black"/>
<path d="M247.982 199.346C248.673 199.346 249.232 199.905 249.232 200.596C249.232 201.286 248.673 201.846 247.982 201.846H247.176C246.485 201.846 245.926 201.286 245.926 200.596C245.926 199.905 246.485 199.346 247.176 199.346H247.982Z" fill="black"/>
<path d="M260.278 202.38C260.278 203.043 259.741 203.58 259.078 203.58H257.433L254.854 208.24C254.642 208.621 254.24 208.858 253.804 208.858H236.987C236.58 208.858 236.2 208.651 235.979 208.309L232.926 203.58H231.235C230.573 203.58 230.035 203.043 230.035 202.38V197.502C230.035 196.84 230.573 196.302 231.235 196.302H232.999C233.439 191.586 237.406 187.895 242.237 187.895H248.076C252.907 187.895 256.874 191.586 257.314 196.302H259.078C259.741 196.302 260.278 196.84 260.278 197.502V202.38ZM234.957 197.175C234.957 197.798 234.452 198.302 233.829 198.302H232.035V201.58H233.361C233.718 201.58 234.053 201.738 234.279 202.007L234.369 202.129L237.423 206.858H253.333L255.911 202.199L255.999 202.063C256.224 201.761 256.58 201.58 256.962 201.58H258.278V198.302H256.484C255.862 198.302 255.357 197.798 255.356 197.175C255.356 193.154 252.097 189.895 248.076 189.895H242.237C238.217 189.895 234.957 193.154 234.957 197.175Z" fill="black"/>
<path d="M251.824 201.403C251.824 199.203 250.987 197.658 249.787 196.654C248.563 195.63 246.892 195.113 245.175 195.141C243.457 195.169 241.772 195.741 240.534 196.79C239.317 197.821 238.492 199.343 238.492 201.403C238.492 201.955 238.044 202.403 237.492 202.403C236.94 202.403 236.492 201.955 236.492 201.403C236.492 198.746 237.583 196.668 239.241 195.263C240.878 193.876 243.026 193.175 245.142 193.141C247.257 193.107 249.419 193.738 251.07 195.12C252.745 196.52 253.824 198.637 253.824 201.403C253.824 201.955 253.376 202.403 252.824 202.403C252.272 202.403 251.824 201.955 251.824 201.403Z" fill="black"/>
<path d="M244.559 188.492V185.667C244.559 185.115 245.006 184.667 245.559 184.667C246.111 184.667 246.559 185.115 246.559 185.667V188.492C246.559 189.044 246.111 189.492 245.559 189.492C245.006 189.492 244.559 189.044 244.559 188.492Z" fill="black"/>
<path d="M247.192 182.462C247.192 181.561 246.461 180.83 245.56 180.83C244.66 180.83 243.93 181.561 243.93 182.462C243.93 183.363 244.66 184.093 245.56 184.093V186.093L245.374 186.088C243.517 185.994 242.029 184.505 241.935 182.648L241.93 182.462C241.93 180.457 243.555 178.83 245.56 178.83C247.566 178.83 249.192 180.457 249.192 182.462L249.187 182.648C249.09 184.567 247.503 186.093 245.56 186.093V184.093C246.461 184.093 247.192 183.363 247.192 182.462Z" fill="black"/>
<path d="M213.492 187.782V185.264C213.492 184.712 213.94 184.264 214.492 184.264C215.044 184.264 215.492 184.712 215.492 185.264V187.782C215.492 193.416 220.059 197.982 225.692 197.982H226.193C226.745 197.982 227.193 198.43 227.193 198.982C227.193 199.534 226.745 199.981 226.193 199.982H225.692C218.955 199.982 213.492 194.52 213.492 187.782Z" fill="black"/>
<path d="M249.401 179.212V175.207C249.401 169.673 244.988 165.148 239.456 165.009L234.237 164.88C233.685 164.866 233.248 164.406 233.262 163.854C233.276 163.302 233.735 162.866 234.287 162.88L239.506 163.01C246.123 163.176 251.401 168.588 251.401 175.207V179.212C251.401 179.764 250.953 180.212 250.401 180.212C249.849 180.211 249.401 179.764 249.401 179.212Z" fill="black"/>
<path d="M160.27 13.2971C160.424 12.8793 161.015 12.8793 161.17 13.2971L163.196 18.7741C163.682 20.0877 164.718 21.1236 166.032 21.6096L171.509 23.6362C171.926 23.7908 171.926 24.3815 171.509 24.5361L166.032 26.5627C164.718 27.0488 163.682 28.0846 163.196 29.3982L161.17 34.8752C161.025 35.267 160.496 35.2913 160.303 34.9483L160.27 34.8752L160.126 34.489L158.243 29.3982C157.787 28.1666 156.848 27.1793 155.65 26.6601L155.408 26.5627L149.931 24.5361C149.513 24.3815 149.513 23.7908 149.931 23.6362L150.316 23.4928L155.408 21.6096C156.639 21.1539 157.626 20.2149 158.146 19.0169L158.243 18.7741L160.27 13.2971ZM160.043 19.4397C159.362 21.2788 157.912 22.7288 156.073 23.4094L154.245 24.0852L156.073 24.762C157.912 25.4425 159.362 26.8928 160.043 28.7317L160.719 30.5586L161.395 28.7317C162.076 26.8927 163.526 25.4425 165.365 24.762L167.192 24.0852L165.365 23.4094C163.526 22.7288 162.076 21.2786 161.395 19.4397L160.719 17.6118L160.043 19.4397Z" fill="black"/>
<path d="M144.304 26.8711C143.937 27.4642 143.712 28.1581 143.683 28.9089C139.252 29.8046 135.916 33.7208 135.916 38.4156C135.916 43.7717 140.259 48.1135 145.615 48.1135C150.182 48.1134 154.009 44.9555 155.038 40.7046C155.828 40.6072 156.551 40.2939 157.147 39.8254C156.451 45.5767 151.554 50.0331 145.615 50.0332L145.315 50.0295C139.137 49.873 134.157 44.8936 134 38.7156L133.996 38.4156C133.996 32.4421 138.505 27.5223 144.304 26.8711Z" fill="black"/>
<path fill-rule="evenodd" clip-rule="evenodd" d="M138.363 18.6725C139.075 16.7654 141.488 16.1786 142.996 17.5458L144.194 18.6322L144.398 18.8009C145.451 19.5935 146.926 19.5739 147.961 18.7203L149.207 17.6911C150.519 16.6081 152.398 16.9192 153.343 18.1822L151.981 19.7045L151.954 19.6192C151.747 18.9731 150.952 18.7402 150.429 19.1721L149.182 20.2004C147.344 21.7177 144.67 21.6552 142.904 20.0541L141.707 18.9687C141.204 18.513 140.4 18.7082 140.163 19.3436L139.597 20.8575C138.763 23.0907 136.417 24.3745 134.087 23.8711L132.507 23.5289C131.844 23.3857 131.245 23.9567 131.357 24.6256L131.625 26.2201C132.019 28.5711 130.628 30.8558 128.358 31.5846L126.82 32.0786C126.174 32.286 125.941 33.0794 126.372 33.6027L127.402 34.8504C128.919 36.689 128.856 39.3629 127.255 41.1288L126.169 42.3258C125.714 42.8284 125.91 43.6322 126.545 43.8696L128.06 44.4358C130.293 45.2696 131.575 47.6158 131.071 49.9456L130.731 51.526C130.588 52.1892 131.159 52.7875 131.828 52.6752L133.421 52.408C135.772 52.0135 138.057 53.4041 138.786 55.6738L139.28 57.2129C139.488 57.8587 140.282 58.0917 140.805 57.6601L142.051 56.6308C143.889 55.1135 146.564 55.1757 148.33 56.7771L149.528 57.8625C150.031 58.3179 150.835 58.123 151.072 57.4876L151.636 55.9728C152.47 53.7395 154.818 52.4573 157.148 52.9611L158.727 53.3013C159.39 53.4444 159.989 52.8736 159.877 52.2046L159.608 50.6111C159.214 48.2601 160.605 45.9754 162.875 45.2466L164.413 44.7517C165.059 44.5442 165.292 43.7509 164.86 43.2275L163.832 41.9809C162.315 40.1422 162.377 37.4684 163.978 35.7024L165.064 34.5045C165.519 34.0019 165.324 33.1981 164.689 32.9606L164.603 32.9278L166.215 31.6624C167.364 32.6328 167.604 34.4036 166.609 35.6509L166.486 35.7943L165.4 36.9913C164.44 38.0508 164.402 39.6553 165.312 40.7585L166.341 42.0052L166.458 42.1552C167.593 43.7229 166.878 45.9777 165 46.5805L163.462 47.0745C162.1 47.5117 161.266 48.8819 161.503 50.2924L161.77 51.8869L161.795 52.0743C161.988 53.9373 160.36 55.4914 158.508 55.2126L158.321 55.1779L156.741 54.8367C155.431 54.5536 154.111 55.212 153.539 56.3993L153.435 56.644L152.87 58.1587C152.158 60.0658 149.745 60.6528 148.237 59.2854L147.041 58.199C146.048 57.2983 144.575 57.2091 143.486 57.9516L143.274 58.1119L142.026 59.1402C140.505 60.3951 138.223 59.7788 137.516 57.9769L137.452 57.7988L136.958 56.2606C136.548 54.984 135.318 54.1704 134.004 54.2687L133.74 54.3006L132.145 54.5687C130.2 54.8948 128.531 53.2196 128.82 51.3057L128.854 51.1201L129.196 49.5407C129.479 48.2301 128.82 46.9107 127.632 46.3386L127.388 46.2337L125.874 45.6684C123.967 44.9566 123.38 42.545 124.747 41.0369L125.834 39.839C126.734 38.8455 126.823 37.3736 126.08 36.2845L125.921 36.0717L124.892 34.826C123.597 33.2559 124.295 30.8731 126.233 30.2507L127.772 29.7558C129.048 29.3458 129.862 28.1165 129.764 26.8022L129.732 26.5379L129.463 24.9443C129.126 22.9369 130.922 21.2234 132.912 21.6533L134.492 21.9945C135.89 22.2967 137.299 21.5272 137.799 20.1872L138.363 18.6725Z" fill="black"/>
<path d="M149.031 113.171V107.913C149.031 107.313 149.517 106.827 150.117 106.827C150.717 106.827 151.203 107.313 151.203 107.913V113.171C151.203 113.771 150.717 114.257 150.117 114.257C149.518 114.257 149.031 113.771 149.031 113.171Z" fill="black"/>
<path d="M159.375 119.603C159.936 119.393 160.562 119.677 160.773 120.239C160.983 120.8 160.699 121.427 160.137 121.637L152.304 124.575C150.397 125.29 148.366 125.615 146.332 125.53L138.677 125.211C138.078 125.185 137.613 124.68 137.638 124.081C137.663 123.482 138.169 123.016 138.768 123.041L146.422 123.36C148.165 123.433 149.907 123.154 151.541 122.541L159.375 119.603Z" fill="black"/>
<path d="M169.025 107.914C171.264 106.095 174.538 106.361 176.455 108.516C177.289 109.455 177.151 110.905 176.154 111.67L163.927 121.044C163.451 121.409 162.769 121.319 162.404 120.843C162.039 120.367 162.129 119.685 162.605 119.32L174.823 109.953C173.678 108.672 171.729 108.516 170.394 109.6L166.58 112.7C166.115 113.078 165.43 113.007 165.052 112.542C164.674 112.076 164.744 111.391 165.21 111.013L169.025 107.914Z" fill="black"/>
<path d="M157.358 110.946C157.358 109.85 156.483 108.955 155.388 108.931L146.516 108.733L145.874 109.199C145.264 109.641 144.823 110.278 144.624 111.005C144.356 111.99 145.097 112.961 146.118 112.961H155.343C156.456 112.961 157.358 112.059 157.358 110.946ZM159.53 110.946C159.53 113.259 157.656 115.133 155.343 115.133H146.118C143.665 115.133 141.884 112.801 142.529 110.435C142.704 109.793 142.993 109.194 143.377 108.663L141.085 108.614C139.802 108.585 138.551 109.011 137.552 109.817L128.014 117.522C127.548 117.898 126.864 117.826 126.487 117.359C126.11 116.893 126.184 116.209 126.65 115.832L136.188 108.128C137.586 106.999 139.338 106.402 141.134 106.441L155.436 106.76C157.712 106.81 159.53 108.67 159.53 110.946Z" fill="black"/>
<path d="M124.236 119.15C124.564 118.648 125.237 118.507 125.739 118.835C126.241 119.163 126.382 119.836 126.054 120.338L118.604 131.731C118.276 132.233 117.603 132.374 117.101 132.046C116.599 131.718 116.458 131.045 116.786 130.543L124.236 119.15Z" fill="black"/>
<path d="M135.258 124.87C135.815 124.648 136.447 124.919 136.67 125.476C136.892 126.033 136.621 126.665 136.064 126.888L135.778 127.002C135.002 127.312 134.472 128.04 134.417 128.874L134.116 133.401C134.076 133.999 133.558 134.451 132.96 134.411C132.361 134.372 131.908 133.855 131.948 133.256L132.25 128.73C132.361 127.062 133.419 125.606 134.97 124.985L135.258 124.87Z" fill="black"/>
<path d="M126.146 115.889C126.58 115.476 127.268 115.493 127.682 115.928L136.445 125.129C136.859 125.564 136.842 126.252 136.407 126.665C135.973 127.078 135.286 127.062 134.873 126.628L126.108 117.425C125.694 116.991 125.712 116.303 126.146 115.889Z" fill="black"/>
<path d="M147.418 86.0645C147.593 85.5918 148.262 85.5918 148.437 86.0645L149.783 89.7024C150.333 91.1888 151.505 92.3608 152.991 92.9108L156.63 94.2567C157.103 94.4318 157.103 95.1009 156.63 95.276L156.192 95.4372L152.991 96.6219C151.505 97.1719 150.333 98.3439 149.783 99.8302L148.437 103.469L148.399 103.552C148.195 103.914 147.661 103.914 147.457 103.552L147.418 103.469L146.072 99.8302C145.522 98.3439 144.35 97.1719 142.864 96.6219L139.226 95.276C138.753 95.101 138.753 94.4317 139.226 94.2567L142.864 92.9108C144.35 92.3608 145.522 91.1888 146.072 89.7024L147.418 86.0645ZM147.927 90.8988C147.162 92.6232 145.784 94.0013 144.06 94.7658C145.784 95.5301 147.162 96.9088 147.927 98.6328C148.691 96.9089 150.07 95.5303 151.794 94.7658C150.07 94.0011 148.691 92.6231 147.927 90.8988Z" fill="black"/>
<path fill-rule="evenodd" clip-rule="evenodd" d="M162.171 99.6526C163.06 101.367 161.939 103.439 160.017 103.63L159.729 103.659L159.499 103.69C158.367 103.893 157.449 104.747 157.173 105.879L156.999 106.594C156.751 107.611 155.993 108.357 155.072 108.645L154.818 106.253C154.848 106.199 154.874 106.142 154.889 106.08L155.063 105.366C155.575 103.262 157.36 101.71 159.514 101.496L159.802 101.468C160.196 101.429 160.426 101.005 160.244 100.653C159.123 98.4906 159.759 95.8326 161.738 94.412C162.059 94.1811 162.047 93.6977 161.713 93.4843C159.661 92.1718 158.883 89.5523 159.886 87.3328C160.05 86.9721 159.797 86.5603 159.402 86.5424C156.968 86.4316 154.985 84.5515 154.744 82.1276C154.705 81.7339 154.28 81.5029 153.929 81.6849C151.766 82.8057 149.109 82.1702 147.688 80.1916C147.457 79.8701 146.975 79.8823 146.761 80.2156C145.449 82.2677 142.829 83.0463 140.609 82.0429C140.248 81.8798 139.838 82.1317 139.819 82.527C139.709 84.9605 137.828 86.9446 135.404 87.1854C135.01 87.2245 134.78 87.6483 134.962 87.9997C136.083 90.1625 135.446 92.8207 133.466 94.2411C133.145 94.472 133.159 94.9546 133.492 95.1679C135.544 96.4805 136.321 99.1006 135.318 101.32C135.155 101.681 135.408 102.092 135.803 102.11L136.184 102.128C138.372 102.228 140.183 103.861 140.508 106.027C140.528 106.159 140.654 106.249 140.786 106.227L141.05 106.181L141.074 106.405L140.937 108.393L140.908 108.397C139.753 108.477 138.698 107.716 138.41 106.594L138.36 106.349C138.189 105.21 137.236 104.35 136.085 104.298L135.706 104.281L135.526 104.266C133.759 104.073 132.642 102.253 133.27 100.591L133.339 100.426C133.898 99.1893 133.465 97.7292 132.321 96.998L132.173 96.8965C130.74 95.8462 130.683 93.7107 132.058 92.5853L132.201 92.476C133.234 91.734 133.61 90.3861 133.139 89.2279L133.033 88.9997C132.172 87.3384 133.199 85.3434 135.011 85.0469L135.188 85.0238C136.454 84.8981 137.455 83.9186 137.626 82.6797L137.647 82.4286C137.732 80.5594 139.621 79.3446 141.338 79.9939L141.503 80.063C142.663 80.5873 144.019 80.239 144.786 79.2512L144.931 79.0458C145.939 77.4694 148.181 77.3604 149.344 78.7818L149.452 78.9243C150.194 79.9579 151.542 80.3347 152.701 79.8632L152.93 79.7571C154.644 78.8683 156.715 79.9914 156.906 81.9134C157.031 83.1793 158.011 84.1791 159.25 84.3498L159.501 84.3725C161.43 84.4603 162.663 86.4679 161.867 88.2278C161.343 89.3869 161.69 90.7417 162.677 91.5092L162.884 91.6558C164.51 92.6965 164.574 95.0499 163.005 96.1762C161.903 96.9673 161.548 98.4478 162.171 99.6526Z" fill="black"/>
<path d="M163.725 117.116C163.725 115.895 162.736 114.905 161.515 114.905C160.295 114.905 159.305 115.895 159.305 117.116C159.305 118.336 160.295 119.325 161.515 119.325V121.497L161.289 121.492C159.049 121.378 157.252 119.581 157.138 117.34L157.133 117.116C157.133 114.695 159.095 112.733 161.515 112.733L161.74 112.738C164.056 112.856 165.897 114.771 165.897 117.116L165.892 117.34C165.774 119.656 163.86 121.497 161.515 121.497V119.325C162.735 119.325 163.724 118.336 163.725 117.116Z" fill="black"/>
<path d="M209.302 120.595C209.987 120.119 210.896 120.119 211.581 120.595L213.365 121.832L215.094 123.146C215.757 123.651 216.038 124.516 215.798 125.314L215.173 127.394L214.456 129.444L214.399 129.589C214.089 130.296 213.394 130.766 212.612 130.783L210.441 130.832L208.27 130.783C207.489 130.766 206.794 130.296 206.483 129.589L206.427 129.444L205.71 127.394L205.085 125.314C204.845 124.516 205.125 123.651 205.789 123.146L207.517 121.832L209.302 120.595ZM208.693 123.449L207 124.738L207.612 126.776L208.314 128.784L210.441 128.831L212.568 128.784L213.269 126.776L213.883 124.738L212.188 123.449L210.441 122.238L208.693 123.449Z" fill="black"/>
<path d="M229.505 123.767C230.284 123 231.535 122.999 232.314 123.767L234.363 125.789L236.383 127.838C237.151 128.616 237.151 129.867 236.383 130.646L234.363 132.695L232.314 134.715L232.163 134.85C231.433 135.438 230.387 135.438 229.657 134.85L229.505 134.715L227.457 132.695L225.435 130.646C224.715 129.916 224.671 128.771 225.3 127.989L225.435 127.838L227.457 125.789L229.505 123.767ZM228.861 127.213L226.859 129.242L228.861 131.271L230.91 133.292L232.959 131.271L234.96 129.242L232.959 127.213L230.91 125.191L228.861 127.213Z" fill="black"/>
<path d="M229.91 123.996V113.103C229.91 112.55 230.358 112.103 230.91 112.103C231.462 112.103 231.91 112.55 231.91 113.103V123.996C231.91 124.549 231.462 124.996 230.91 124.996C230.358 124.996 229.91 124.549 229.91 123.996ZM229.91 98.1741V88.0872C229.91 87.5349 230.358 87.0872 230.91 87.0872C231.462 87.0872 231.91 87.5349 231.91 88.0872V98.1741C231.91 98.7263 231.462 99.1741 230.91 99.1741C230.358 99.1741 229.91 98.7263 229.91 98.1741Z" fill="black"/>
<path d="M231.315 103.63V105.63H224.859V103.63H231.315Z" fill="black"/>
<path d="M236.964 107.664V109.664H224.859V107.664H236.964Z" fill="black"/>
<path d="M240.225 111.506V113.506H222.402V111.506H240.225ZM242.225 109.506V102.174C242.225 101.069 241.329 100.174 240.225 100.174H222.402C221.298 100.174 220.402 101.069 220.402 102.174V109.506C220.402 110.61 221.298 111.506 222.402 111.506V113.506L222.196 113.501C220.151 113.397 218.511 111.757 218.407 109.712L218.402 109.506V102.174C218.402 99.9647 220.193 98.1738 222.402 98.1738H240.225C242.434 98.1738 244.225 99.9647 244.225 102.174V109.506L244.22 109.712C244.116 111.757 242.476 113.397 240.431 113.501L240.225 113.506V111.506C241.329 111.506 242.225 110.61 242.225 109.506Z" fill="black"/>
<path d="M234.154 83.2452C234.154 81.4529 232.701 80 230.909 80C229.117 80 227.664 81.4529 227.664 83.2452C227.664 85.0374 229.117 86.4903 230.909 86.4903V88.4903C228.012 88.4903 225.664 86.142 225.664 83.2452C225.664 80.3483 228.012 78 230.909 78C233.806 78 236.154 80.3483 236.154 83.2452C236.154 86.142 233.806 88.4903 230.909 88.4903V86.4903C232.701 86.4903 234.154 85.0374 234.154 83.2452Z" fill="black"/>
<path d="M255.139 85.6661C255.139 83.8738 253.686 82.4209 251.894 82.4209C250.101 82.4209 248.648 83.8738 248.648 85.6661C248.648 87.4583 250.101 88.9112 251.894 88.9112V90.9112C248.997 90.9112 246.648 88.5629 246.648 85.6661C246.648 82.7692 248.997 80.4209 251.894 80.4209C254.79 80.4209 257.139 82.7692 257.139 85.6661C257.139 88.5629 254.79 90.9112 251.894 90.9112V88.9112C253.686 88.9112 255.139 87.4583 255.139 85.6661Z" fill="black"/>
<path d="M209.332 95.5364V91.718C209.332 91.1657 209.78 90.718 210.332 90.718C210.884 90.718 211.332 91.1657 211.332 91.718V95.5364C211.332 96.7363 212.047 97.8205 213.15 98.2932L219.199 100.886C219.706 101.104 219.942 101.691 219.725 102.198C219.507 102.706 218.919 102.941 218.411 102.724L212.362 100.132C210.524 99.3442 209.332 97.5364 209.332 95.5364Z" fill="black"/>
<path d="M209.332 116.547V120.365C209.332 120.917 209.78 121.365 210.332 121.365C210.884 121.365 211.332 120.917 211.332 120.365V116.547C211.332 115.347 212.047 114.262 213.15 113.79L219.199 111.197C219.706 110.979 219.942 110.392 219.725 109.885C219.507 109.377 218.919 109.142 218.411 109.359L212.362 111.951C210.524 112.739 209.332 114.547 209.332 116.547Z" fill="black"/>
<path d="M252.891 95.536V90.911C252.891 90.3587 252.443 89.911 251.891 89.911C251.338 89.911 250.891 90.3587 250.891 90.911V95.536C250.891 96.7361 250.175 97.8211 249.072 98.2938L243.023 100.886C242.516 101.103 242.281 101.692 242.498 102.199C242.716 102.707 243.304 102.941 243.812 102.724L249.86 100.132C251.699 99.3438 252.891 97.5361 252.891 95.536Z" fill="black"/>
<path d="M252.891 116.547V121.172C252.891 121.724 252.443 122.172 251.891 122.172C251.338 122.172 250.891 121.724 250.891 121.172V116.547C250.891 115.347 250.175 114.262 249.072 113.789L243.023 111.197C242.516 110.98 242.281 110.391 242.498 109.884C242.716 109.376 243.304 109.142 243.812 109.359L249.86 111.951C251.699 112.739 252.891 114.547 252.891 116.547Z" fill="black"/>
<path d="M207.492 90.1218H213.176V84.4383H207.492V90.1218ZM215.176 91.1218L215.17 91.2233C215.122 91.6943 214.748 92.0682 214.277 92.1159L214.176 92.1217H206.492L206.39 92.1159C205.919 92.0679 205.545 91.6941 205.497 91.2233L205.492 91.1218V83.4383C205.492 82.8861 205.94 82.4384 206.492 82.4384H214.176L214.277 82.4432C214.782 82.4942 215.176 82.9204 215.176 83.4383V91.1218Z" fill="black"/>
<path d="M250.206 121.796C250.992 120.564 252.792 120.564 253.578 121.796L257.266 127.577C258.089 128.867 257.218 130.545 255.727 130.649L255.581 130.654V128.654L251.891 122.872L248.203 128.654V130.654L248.056 130.649C246.565 130.545 245.693 128.867 246.516 127.577L250.206 121.796ZM255.581 128.654V130.654H248.203V128.654H255.581Z" fill="black"/>
<path d="M240.525 53.8381C241.037 53.8381 241.452 54.2532 241.452 54.7652C241.452 55.2773 241.037 55.6923 240.525 55.6923H218.829C218.317 55.6923 217.902 55.2773 217.902 54.7652C217.902 54.2532 218.317 53.8381 218.829 53.8381H240.525Z" fill="black"/>
<path d="M248.909 48.2115C249.489 47.8703 250.209 47.8703 250.79 48.2115L252.752 49.3649L254.732 50.4876C255.317 50.8195 255.677 51.4424 255.671 52.1155L255.653 54.3916L255.671 56.6677C255.677 57.3407 255.317 57.9637 254.732 58.2955L252.752 59.4182L250.79 60.5716L250.679 60.6314C250.12 60.9114 249.453 60.8916 248.909 60.5716L246.947 59.4182L244.967 58.2955C244.418 57.9843 244.067 57.4171 244.03 56.7926L244.027 56.6677L244.046 54.3916L244.027 52.1155C244.022 51.4843 244.338 50.8971 244.86 50.5528L244.967 50.4876L246.947 49.3649L248.909 48.2115ZM247.887 50.9629L247.874 50.9711L247.862 50.9783L245.882 52.1001L245.9 54.3762V54.4061L245.882 56.6822L247.862 57.8048L247.887 57.8193L249.849 58.9737L251.812 57.8193L251.837 57.8048L253.817 56.6822L253.799 54.4061V54.3762L253.817 52.1001L251.837 50.9783L251.824 50.9711L251.812 50.9629L249.849 49.8095L247.887 50.9629Z" fill="black"/>
<path d="M248.953 48.4059V25.9626C248.953 25.4506 249.368 25.0355 249.88 25.0355C250.392 25.0355 250.807 25.4506 250.807 25.9626V48.4059C250.807 48.9179 250.392 49.333 249.88 49.333C249.368 49.333 248.953 48.9179 248.953 48.4059Z" fill="black"/>
<path d="M210.795 48.1939C211.517 47.482 212.677 47.4822 213.399 48.1939L216.052 50.8104L218.668 53.4631C219.38 54.1851 219.38 55.345 218.668 56.067L216.052 58.7197L213.399 61.3363C212.677 62.0483 211.517 62.0483 210.795 61.3363L208.143 58.7197L205.526 56.067C204.814 55.345 204.814 54.185 205.526 53.4631L208.143 50.8104L210.795 48.1939ZM209.444 52.1304L206.846 54.7651L209.444 57.3997L212.097 60.0162L214.75 57.3997L217.348 54.7651L214.75 52.1304L212.097 49.5139L209.444 52.1304Z" fill="black"/>
<path d="M228.934 38.2965C229.574 38.2965 230.093 38.8154 230.093 39.4554C230.093 40.0954 229.574 40.6143 228.934 40.6143H228.186C227.546 40.6143 227.027 40.0954 227.027 39.4554C227.027 38.8154 227.546 38.2965 228.186 38.2965H228.934Z" fill="black"/>
<path d="M233.418 38.2965C234.058 38.2965 234.577 38.8154 234.577 39.4554C234.577 40.0954 234.058 40.6143 233.418 40.6143H232.671C232.031 40.6143 231.512 40.0954 231.512 39.4554C231.512 38.8154 232.031 38.2965 232.671 38.2965H233.418Z" fill="black"/>
<path d="M241.83 40.759C241.83 41.3733 241.333 41.8715 240.719 41.8717H239.707L237.935 45.0486C237.739 45.4009 237.367 45.6199 236.964 45.6199H224.984C224.608 45.6199 224.257 45.4293 224.052 45.1138L221.944 41.8717H220.89C220.276 41.8717 219.777 41.3734 219.777 40.759V37.3819C219.777 36.7676 220.276 36.2692 220.89 36.2692H221.92C222.333 32.9049 225.198 30.2994 228.674 30.2992H232.934C236.41 30.2992 239.276 32.9048 239.688 36.2692H240.719C241.333 36.2694 241.83 36.7677 241.83 37.3819V40.759ZM223.721 37.1058C223.721 37.6678 223.265 38.1234 222.704 38.1234H221.632V40.0175H222.345C222.674 40.0175 222.984 40.1634 223.194 40.4113L223.278 40.5236L225.387 43.7657H236.528L238.299 40.5878C238.496 40.2357 238.868 40.0176 239.271 40.0175H239.976V38.1234H238.904C238.342 38.1232 237.887 37.6676 237.887 37.1058C237.887 34.3706 235.669 32.1534 232.934 32.1534H228.674C225.938 32.1536 223.721 34.3707 223.721 37.1058Z" fill="black"/>
<path d="M235.484 40.2033C235.484 38.6808 234.899 37.6263 234.068 36.9412C233.214 36.2375 232.037 35.8752 230.815 35.8946C229.593 35.9141 228.403 36.3146 227.536 37.0381C226.69 37.7449 226.116 38.7849 226.116 40.2033C226.116 40.7153 225.701 41.1304 225.189 41.1304C224.677 41.1304 224.262 40.7153 224.262 40.2033C224.262 38.2207 225.09 36.6645 226.348 35.6148C227.585 34.582 229.201 34.0657 230.785 34.0404C232.368 34.0152 233.996 34.4805 235.247 35.5107C236.519 36.5598 237.338 38.1458 237.338 40.2033C237.338 40.7152 236.923 41.1302 236.411 41.1304C235.899 41.1304 235.484 40.7153 235.484 40.2033Z" fill="black"/>
<path d="M230.25 30.4783V27.4588C230.25 26.9468 230.665 26.5317 231.177 26.5317C231.689 26.5317 232.104 26.9468 232.104 27.4588V30.4783C232.104 30.9902 231.689 31.4054 231.177 31.4054C230.665 31.4054 230.25 30.9902 230.25 30.4783Z" fill="black"/>
<path d="M253.26 16.9856C253.26 14.7043 251.411 12.8546 249.13 12.8543C246.849 12.8543 244.999 14.7042 244.999 16.9856C244.999 19.2667 246.849 21.1159 249.13 21.1159V22.9701L248.821 22.9619C245.761 22.8066 243.308 20.3534 243.153 17.2934L243.145 16.9856C243.145 13.6801 245.825 11.0001 249.13 11.0001L249.438 11.0083C252.6 11.1687 255.114 13.7835 255.114 16.9856L255.106 17.2934C254.946 20.4554 252.332 22.9698 249.13 22.9701V21.1159C251.411 21.1156 253.26 19.2666 253.26 16.9856Z" fill="black"/>
<path d="M243.521 16.0582C244.033 16.0582 244.448 16.4733 244.448 16.9853C244.448 17.4974 244.033 17.9124 243.521 17.9124H221.826C221.314 17.9124 220.898 17.4974 220.898 16.9853C220.898 16.4733 221.314 16.0582 221.826 16.0582H243.521Z" fill="black"/>
<path d="M209.089 20.3674H215.854V13.6025H209.089V20.3674ZM217.708 21.2945C217.708 21.8066 217.293 22.2216 216.781 22.2216H208.161L208.066 22.2171C207.599 22.1695 207.234 21.7745 207.234 21.2945V12.6754C207.234 12.1634 207.649 11.7483 208.161 11.7483H216.781C217.293 11.7483 217.708 12.1634 217.708 12.6754V21.2945Z" fill="black"/>
<path d="M211.547 45.0399V21.8479C211.547 21.3359 211.962 20.9208 212.474 20.9208C212.986 20.9208 213.401 21.3359 213.401 21.8479V45.0399C213.401 45.5518 212.986 45.967 212.474 45.967C211.962 45.967 211.547 45.5518 211.547 45.0399Z" fill="black"/>
<path d="M232.315 25.2141C232.315 24.5855 231.804 24.076 231.176 24.076C230.547 24.0761 230.038 24.5856 230.038 25.2141C230.038 25.8426 230.547 26.3529 231.176 26.353V28.2072L231.022 28.2027C229.441 28.1225 228.184 26.8151 228.184 25.2141C228.184 23.5615 229.523 22.2219 231.176 22.2218C232.828 22.2218 234.169 23.5615 234.169 25.2141L234.164 25.368C234.084 26.9493 232.777 28.2072 231.176 28.2072V26.353C231.805 26.353 232.315 25.8427 232.315 25.2141Z" fill="black"/>
<path d="M144.482 195.64V197.64H142.465V195.64H144.482Z" fill="black"/>
<path d="M153.357 195.64V197.64H151.34V195.64H153.357Z" fill="black"/>
<path d="M146.903 165.169C155.594 165.169 162.639 172.214 162.639 180.904C162.639 182.744 162.322 184.509 161.742 186.149H159.601C160.269 184.533 160.639 182.762 160.639 180.904C160.639 173.319 154.489 167.169 146.903 167.169C139.318 167.169 133.168 173.319 133.168 180.904C133.168 182.762 133.537 184.533 134.205 186.149H132.064C131.484 184.509 131.168 182.744 131.168 180.904C131.168 172.214 138.213 165.169 146.903 165.169Z" fill="black"/>
<path fill-rule="evenodd" clip-rule="evenodd" d="M138.179 158.405C138.278 154.844 143.014 153.694 144.735 156.812C145.99 159.083 149.166 159.228 150.639 157.16L150.776 156.953C152.642 153.92 157.318 155.291 157.25 158.852C157.2 161.446 159.879 163.16 162.189 162.106L162.411 161.995C165.544 160.301 168.909 163.827 167.069 166.877L166.947 167.093C165.786 169.35 167.372 172.107 169.966 172.179C173.526 172.278 174.677 177.013 171.56 178.735C169.215 180.029 169.136 183.372 171.418 184.776C174.452 186.641 173.08 191.319 169.519 191.25C168.46 191.23 167.549 191.665 166.912 192.343L165.605 190.818C166.597 189.838 167.973 189.221 169.558 189.251C171.082 189.28 171.669 187.279 170.371 186.48C166.784 184.274 166.907 179.02 170.593 176.985C171.928 176.248 171.435 174.22 169.911 174.178C165.702 174.061 163.182 169.449 165.357 165.844C166.144 164.538 164.703 163.028 163.362 163.753C159.659 165.757 155.17 163.023 155.251 158.813C155.28 157.289 153.278 156.703 152.48 158.001C150.274 161.588 145.021 161.464 142.985 157.779C142.249 156.444 140.22 156.936 140.178 158.46C140.061 162.669 135.449 165.189 131.844 163.015C130.539 162.228 129.029 163.667 129.754 165.008C131.758 168.711 129.023 173.201 124.814 173.12C123.29 173.092 122.703 175.093 124.001 175.892C127.587 178.097 127.465 183.352 123.779 185.387C122.445 186.124 122.937 188.151 124.461 188.194C126.398 188.247 127.976 189.255 128.904 190.677L127.419 192.095C126.869 191.023 125.779 190.231 124.404 190.193C120.956 190.097 119.768 185.649 122.531 183.806L122.812 183.636C125.084 182.382 125.228 179.205 123.16 177.733L122.953 177.596C119.919 175.73 121.291 171.052 124.852 171.12C127.446 171.17 129.16 168.492 128.106 166.183L127.995 165.96C126.3 162.827 129.827 159.462 132.877 161.302C135.099 162.642 137.922 161.18 138.163 158.653L138.179 158.405Z" fill="black"/>
<path d="M163.255 196.219C163.255 195.667 162.807 195.219 162.255 195.219H161.516C160.899 195.219 160.316 194.933 159.938 194.446L158.192 192.203C156.108 189.524 152.903 187.956 149.509 187.956H146.064C142.387 187.956 138.952 189.795 136.912 192.855L135.93 194.328C135.559 194.885 134.934 195.219 134.266 195.219H133.977C133.424 195.219 132.977 195.667 132.977 196.219V199.262C132.977 199.489 133.161 199.674 133.389 199.674H133.7C134.86 199.674 135.801 200.615 135.801 201.775C135.801 203.957 137.57 205.727 139.753 205.727H156.075C158.258 205.727 160.026 203.957 160.026 201.775C160.026 200.615 160.967 199.674 162.127 199.674H162.641C162.98 199.674 163.255 199.4 163.255 199.061V196.219ZM165.255 199.061C165.255 200.504 164.084 201.674 162.641 201.674H162.127C162.072 201.674 162.026 201.719 162.026 201.775C162.026 205.062 159.362 207.727 156.075 207.727H139.753C136.466 207.727 133.801 205.062 133.801 201.775C133.801 201.719 133.756 201.674 133.7 201.674H133.389C132.056 201.674 130.977 200.594 130.977 199.262V196.219C130.977 194.562 132.32 193.219 133.977 193.219H134.266L135.248 191.745C137.659 188.129 141.718 185.956 146.064 185.956H149.509C153.52 185.956 157.308 187.808 159.771 190.975L161.516 193.219H162.255C163.912 193.219 165.255 194.562 165.255 196.219V199.061Z" fill="black"/>
<path d="M148.309 183.325V186.15H146.309V183.325H148.309Z" fill="black"/>
<path d="M148.938 180.075C148.938 179.174 148.207 178.444 147.307 178.444C146.406 178.444 145.676 179.174 145.676 180.075C145.676 180.976 146.406 181.706 147.307 181.707V183.707L147.12 183.702C145.201 183.604 143.676 182.018 143.676 180.075C143.676 178.07 145.301 176.444 147.307 176.444C149.312 176.444 150.938 178.069 150.938 180.075L150.933 180.262C150.836 182.181 149.249 183.707 147.307 183.707V181.707C148.207 181.707 148.938 180.976 148.938 180.075Z" fill="black"/>
<path d="M137.027 199.061V196.897C137.027 193.317 139.969 190.434 143.549 190.507L152.627 190.692C156.055 190.762 158.798 193.561 158.798 196.989V199.464C158.798 201.576 157.086 203.288 154.974 203.288V201.288C155.981 201.288 156.798 200.471 156.798 199.464V196.989C156.798 194.65 154.926 192.739 152.587 192.691L143.508 192.507C141.048 192.457 139.027 194.437 139.027 196.897V199.061C139.027 200.291 140.025 201.288 141.255 201.288V203.288C138.92 203.288 137.027 201.395 137.027 199.061Z" fill="black"/>
<path d="M51.0365 104.519C51.5691 104.519 52.0009 104.951 52.0009 105.484C52.0009 106.016 51.5691 106.448 51.0365 106.448H42.4768C41.9443 106.448 41.5125 106.016 41.5125 105.484C41.5125 104.951 41.9442 104.519 42.4768 104.519H51.0365ZM68.1569 104.519C68.6895 104.519 69.1213 104.951 69.1213 105.484C69.1212 106.016 68.6895 106.448 68.1569 106.448H59.2073C58.6749 106.448 58.243 106.016 58.2429 105.484C58.2429 104.951 58.6748 104.52 59.2073 104.519H68.1569ZM37.6211 101.203V91.8649C37.6213 91.3325 38.053 90.9005 38.5855 90.9005C39.1179 90.9005 39.5496 91.3325 39.5498 91.8649V101.203C39.5498 101.736 39.1181 102.168 38.5855 102.168C38.0529 102.168 37.6211 101.736 37.6211 101.203ZM63.4876 87.399C64.0202 87.399 64.452 87.8308 64.452 88.3634C64.452 88.896 64.0202 89.3278 63.4876 89.3278H42.4768C41.9442 89.3278 41.5125 88.896 41.5125 88.3634C41.5125 87.8308 41.9442 87.399 42.4768 87.399H63.4876Z" fill="black"/>
<path d="M71.1817 78.1235C71.4749 77.9588 71.8322 77.9589 72.1254 78.1235L76.0648 80.3347L79.9496 82.6402C80.2385 82.8118 80.4174 83.1215 80.4214 83.4576L80.4751 87.9743L80.4214 92.491L80.412 92.6163C80.371 92.903 80.2024 93.1593 79.9496 93.3094L76.0648 95.6139L72.1254 97.8261L72.0133 97.8798C71.7826 97.9726 71.5245 97.9726 71.2938 97.8798L71.1817 97.8261L67.2433 95.6139L63.3585 93.3094C63.0693 93.1378 62.8897 92.8273 62.8857 92.491L62.832 87.9743L62.8857 83.4576C62.8897 83.1213 63.0693 82.8118 63.3585 82.6402L67.2433 80.3347L71.1817 78.1235ZM68.202 82.0073L64.8079 84.0217L64.7608 87.9743L64.8079 91.926L68.2274 93.9555L71.6535 95.8786L75.0929 93.9479L78.4983 91.926L78.5454 87.9743L78.4983 84.0217L75.1202 82.0167L71.6535 80.0691L68.202 82.0073Z" fill="black"/>
<path d="M74.4487 84.5946C74.8111 84.2043 75.4221 84.1823 75.8124 84.5447C76.2023 84.9071 76.2246 85.5173 75.8623 85.9074L71.5499 90.5513C70.7588 91.4032 69.3993 91.3671 68.655 90.474L67.4109 88.9814C67.0701 88.5723 67.1255 87.9643 67.5343 87.6233C67.9434 87.2824 68.5523 87.3375 68.8932 87.7467L70.1364 89.2394L74.4487 84.5946Z" fill="black"/>
<path d="M70.0994 123.974C70.632 123.974 71.0638 124.406 71.0638 124.939C71.0638 125.471 70.632 125.903 70.0994 125.903H69.7105C69.1779 125.903 68.7461 125.471 68.7461 124.939C68.7461 124.406 69.1779 123.974 69.7105 123.974H70.0994Z" fill="black"/>
<path d="M74.3807 123.974C74.9133 123.974 75.345 124.406 75.345 124.939C75.345 125.471 74.9133 125.903 74.3807 125.903H73.9917C73.4591 125.903 73.0273 125.471 73.0273 124.939C73.0273 124.406 73.4591 123.974 73.9917 123.974H74.3807Z" fill="black"/>
<path d="M63.9312 123.096C63.7132 123.393 63.3666 123.568 62.9979 123.568H61.7256V125.92H62.6005C62.9961 125.92 63.3647 126.122 63.5771 126.456L65.9598 130.2H78.4768L80.4818 126.523C80.6846 126.151 81.0746 125.92 81.498 125.92H82.3644V123.568H81.0874C80.7358 123.568 80.4029 123.409 80.1833 123.134L75.8615 117.732H67.864L63.9312 123.096ZM84.2931 126.691C84.2931 127.33 83.7748 127.849 83.1357 127.849H81.9557L79.9507 131.525C79.7479 131.897 79.3579 132.129 78.9345 132.129H65.536C65.1406 132.129 64.7727 131.927 64.5603 131.593L62.1767 127.849H60.9543C60.3152 127.849 59.7969 127.33 59.7969 126.691V122.797C59.797 122.158 60.3152 121.64 60.9543 121.64H62.608L66.5409 116.276L66.6284 116.171C66.8458 115.938 67.1509 115.804 67.4732 115.803H76.2326C76.5403 115.804 76.8335 115.926 77.0491 116.141L77.1357 116.238L81.4575 121.64H83.1357C83.7748 121.64 84.2931 122.158 84.2931 122.797V126.691Z" fill="black"/>
<path d="M65.2344 126.105C65.2345 123.979 66.0842 122.304 67.3891 121.166C68.6755 120.044 70.3619 119.478 72.0198 119.451C73.6778 119.423 75.3777 119.933 76.6778 121.053C77.998 122.19 78.8372 123.898 78.8372 126.106C78.837 126.639 78.4051 127.07 77.8729 127.071C77.3404 127.071 76.9087 126.639 76.9085 126.106C76.9085 124.424 76.2878 123.262 75.4196 122.514C74.531 121.749 73.312 121.359 72.0518 121.38C70.7915 121.401 69.5592 121.832 68.6568 122.619C67.773 123.39 67.1632 124.535 67.1631 126.105C67.1631 126.638 66.7313 127.07 66.1987 127.07C65.6661 127.07 65.2344 126.638 65.2344 126.105Z" fill="black"/>
<path d="M70.6914 115.989V108.208C70.6914 107.675 71.1232 107.243 71.6558 107.243C72.1884 107.243 72.6201 107.675 72.6201 108.208V115.989C72.6201 116.522 72.1884 116.954 71.6558 116.954C71.1232 116.954 70.6914 116.522 70.6914 115.989Z" fill="black"/>
<path d="M73.6188 105.095C73.6188 104.012 72.7406 103.133 71.6571 103.133C70.5733 103.133 69.6944 104.012 69.6944 105.095C69.6946 106.179 70.5735 107.057 71.6571 107.057V108.986L71.4565 108.981C69.4668 108.88 67.8711 107.285 67.7703 105.295L67.7656 105.095C67.7656 102.946 69.5081 101.204 71.6571 101.204L71.8567 101.209C73.9127 101.313 75.5476 103.014 75.5476 105.095L75.5429 105.295C75.4387 107.351 73.7388 108.986 71.6571 108.986V107.057C72.7405 107.057 73.6186 106.179 73.6188 105.095Z" fill="black"/>
<path d="M40.9352 105.095C40.9352 104.012 40.057 103.133 38.9735 103.133C37.8897 103.133 37.0108 104.012 37.0108 105.095C37.011 106.179 37.8899 107.057 38.9735 107.057V108.986L38.7729 108.981C36.7832 108.88 35.1875 107.285 35.0867 105.295L35.082 105.095C35.082 102.946 36.8245 101.204 38.9735 101.204L39.1731 101.209C41.2291 101.313 42.864 103.014 42.864 105.095L42.8593 105.295C42.7552 107.351 41.0552 108.986 38.9735 108.986V107.057C40.0569 107.057 40.935 106.179 40.9352 105.095Z" fill="black"/>
<path d="M40.9352 87.9752C40.9352 86.8916 40.057 86.0127 38.9735 86.0125C37.8897 86.0125 37.0108 86.8915 37.0108 87.9752C37.011 89.0587 37.8899 89.9369 38.9735 89.9369V91.8657L38.7729 91.861C36.7832 91.7601 35.1875 90.1645 35.0867 88.1748L35.082 87.9752C35.082 85.8262 36.8245 84.0837 38.9735 84.0837L39.1731 84.0884C41.2291 84.1926 42.864 85.8933 42.864 87.9752L42.8593 88.1748C42.7552 90.2307 41.0552 91.8655 38.9735 91.8657V89.9369C40.0569 89.9367 40.935 89.0586 40.9352 87.9752Z" fill="black"/>
<path d="M58.0542 108.224V110.153H52.5732V108.224H58.0542ZM58.0542 102.744H52.5732V110.153L52.3764 110.143C51.4685 110.051 50.747 109.329 50.6549 108.421L50.6445 108.224V102.744C50.6445 101.745 51.4037 100.924 52.3764 100.825L52.5732 100.815H58.0542L58.251 100.825C59.2236 100.924 59.9829 101.745 59.9829 102.744V108.224L59.9725 108.421C59.8804 109.329 59.1588 110.051 58.251 110.143L58.0542 110.153V102.744Z" fill="black"/>
<path d="M42.5298 118.662C42.9396 117.659 44.4132 117.741 44.7081 118.784L44.7335 118.892L46.2234 126.591L48.0344 121.159L48.106 120.989C48.4861 120.245 49.5326 120.148 50.0432 120.809L50.144 120.963L51.6018 123.586H60.3725C60.905 123.586 61.3369 124.017 61.3369 124.55C61.3366 125.082 60.9048 125.514 60.3725 125.514H51.147C50.7268 125.514 50.3395 125.285 50.1355 124.918L49.3096 123.431L47.1228 129.993C46.7462 131.122 45.1153 131.016 44.8889 129.847L43.4207 122.26L42.6579 124.701C42.5069 125.184 42.0601 125.514 41.5541 125.514H33.9136C33.3811 125.514 32.9495 125.082 32.9492 124.55C32.9492 124.017 33.381 123.586 33.9136 123.586H40.9862L42.4921 118.766L42.5298 118.662Z" fill="black"/>
</svg>
