<svg width="260" height="178" viewBox="0 0 260 178" fill="none" xmlns="http://www.w3.org/2000/svg">
<rect x="21.1133" y="23.7964" width="4.55289" height="13.0896" rx="0.65505" fill="black"/>
<path d="M29.9336 24.4514C29.9336 24.0897 30.2269 23.7964 30.5886 23.7964H33.8314C34.1932 23.7964 34.4865 24.0897 34.4865 24.4514V36.2309C34.4865 36.5927 34.1932 36.8859 33.8314 36.8859H30.5886C30.2269 36.8859 29.9336 36.5927 29.9336 36.2309V24.4514Z" fill="black"/>
<path d="M17.9824 38.3091H45.8689" stroke="black" stroke-width="1.96515" stroke-linecap="round"/>
<path d="M16.2754 41.1543H47.5765" stroke="black" stroke-width="1.96515" stroke-linecap="round"/>
<path d="M14 44H50.1386" stroke="black" stroke-width="1.96515" stroke-linecap="round"/>
<rect x="38.7559" y="23.7964" width="4.55289" height="13.0896" rx="0.65505" fill="black"/>
<path fill-rule="evenodd" clip-rule="evenodd" d="M31.5797 11.2753C32.1035 10.9261 32.7779 10.9094 33.315 11.2235L33.4205 11.2909L46.1275 20.0878C47.4468 21.0017 46.7999 23.0718 45.1949 23.0722H19.2926C17.6727 23.0718 17.0366 20.9709 18.3844 20.0722L31.5797 11.2753ZM32.2096 15.2597C31.1097 15.2599 30.2184 16.1519 30.2184 17.2518C30.2185 18.3517 31.1098 19.2428 32.2096 19.2431C33.3096 19.2431 34.2016 18.3518 34.2018 17.2518C34.2018 16.1518 33.3097 15.2597 32.2096 15.2597Z" fill="black"/>
<path d="M108.596 44.4458H142.53" stroke="black" stroke-width="1.95006" stroke-linecap="round"/>
<path d="M111.869 43.5177V39.4401C111.869 39.0811 112.16 38.79 112.519 38.79H117.173C117.532 38.79 117.823 39.0811 117.823 39.4401V44.1481" stroke="black" stroke-width="1.95006" stroke-linecap="round"/>
<path d="M113.061 38.1944V26.2876" stroke="black" stroke-width="1.95006" stroke-linecap="round"/>
<path d="M134.492 38.1944V26.2876" stroke="black" stroke-width="1.95006" stroke-linecap="round"/>
<path d="M116.633 38.1944V26.2876" stroke="black" stroke-width="1.95006" stroke-linecap="round"/>
<path d="M138.064 38.1944V26.2876" stroke="black" stroke-width="1.95006" stroke-linecap="round"/>
<path d="M133.303 43.5177V39.4401C133.303 39.0811 133.594 38.79 133.953 38.79H138.606C138.965 38.79 139.256 39.0811 139.256 39.4401V44.1481" stroke="black" stroke-width="1.95006" stroke-linecap="round"/>
<path d="M109.788 18.0941V19.9824C109.788 20.3414 109.497 20.6324 109.138 20.6324H108.651C108.292 20.6324 108.001 20.9232 108.001 21.282L108 22.3633C108 22.7225 108.291 23.0138 108.65 23.0138H142.774C143.133 23.0138 143.424 22.7227 143.424 22.3637V21.2824C143.424 20.9234 143.133 20.6324 142.774 20.6324H142.288C141.929 20.6324 141.638 20.3414 141.638 19.9824V18.0975C141.638 17.8309 141.475 17.5913 141.228 17.4931L127.465 12.0456C127.389 12.0155 127.308 12 127.226 12H123.905C123.821 12 123.738 12.0161 123.661 12.0474L110.194 17.4914C109.948 17.5907 109.788 17.8291 109.788 18.0941Z" stroke="black" stroke-width="1.95006" stroke-linecap="round"/>
<path d="M124.074 18.5483H127.051" stroke="black" stroke-width="1.95006" stroke-linecap="round"/>
<path d="M128.54 29.562H124.671C123.684 29.562 122.885 30.3616 122.885 31.348C122.885 32.3344 123.684 33.134 124.671 33.134H126.606C127.674 33.134 128.54 34.0003 128.54 35.0689C128.54 36.1375 127.674 37.0037 126.606 37.0037H122.885" stroke="black" stroke-width="1.95006" stroke-linecap="round"/>
<path d="M125.859 28.967V27.7764" stroke="black" stroke-width="1.95006" stroke-linecap="round"/>
<path d="M125.859 38.4924V37.3018" stroke="black" stroke-width="1.95006" stroke-linecap="round"/>
<path d="M206.803 48.5922V40.0324C206.803 39.3668 207.342 38.8271 208.008 38.8271H220.581C221.247 38.8271 221.787 39.3668 221.787 40.0324V48.5922C221.787 49.2579 221.247 49.7975 220.581 49.7975H208.008C207.342 49.7975 206.803 49.2579 206.803 48.5922Z" stroke="black" stroke-width="1.8079"/>
<path d="M210.283 38.827V36.954C210.283 34.7374 212.08 32.9404 214.297 32.9404C216.513 32.9404 218.31 34.7374 218.31 36.954V38.827" stroke="black" stroke-width="1.8079"/>
<path d="M210.625 19.4908L220.859 12.2277C221.897 11.4913 223.285 11.4861 224.328 12.2147L234.735 19.483C236.185 20.4956 235.469 22.773 233.7 22.773H211.671C209.91 22.773 209.188 20.5103 210.625 19.4908Z" stroke="black" stroke-width="1.8079" stroke-linecap="round"/>
<mask id="path-23-inside-1_455_19" fill="white">
<rect x="220.449" y="24.3784" width="4.28111" height="10.7028" rx="0.602633"/>
</mask>
<rect x="220.449" y="24.3784" width="4.28111" height="10.7028" rx="0.602633" stroke="black" stroke-width="3.6158" mask="url(#path-23-inside-1_455_19)"/>
<mask id="path-24-inside-2_455_19" fill="white">
<rect x="227.941" y="24.3784" width="4.28111" height="10.7028" rx="0.602633"/>
</mask>
<rect x="227.941" y="24.3784" width="4.28111" height="10.7028" rx="0.602633" stroke="black" stroke-width="3.6158" mask="url(#path-24-inside-2_455_19)"/>
<path fill-rule="evenodd" clip-rule="evenodd" d="M216.757 24.3911C217.031 24.4473 217.238 24.6898 217.238 24.981V31.3501C216.659 31.1453 216.055 30.993 215.431 30.9019V26.186H214.765V30.8306C214.521 30.8121 214.275 30.8003 214.027 30.8003C213.666 30.8003 213.308 30.821 212.957 30.8599V24.981C212.957 24.6483 213.227 24.3785 213.56 24.3784H216.636L216.757 24.3911Z" fill="black"/>
<path d="M235.366 36.1514C235.699 36.1517 235.969 36.4213 235.969 36.7539V39.8301L235.956 39.9512C235.9 40.2256 235.657 40.4324 235.366 40.4326H224.187C224.192 40.3441 224.195 40.2549 224.195 40.165C224.195 39.6244 224.101 39.106 223.928 38.625H234.161V37.959H223.625C223.2 37.1942 222.561 36.5644 221.789 36.1514H235.366Z" fill="black"/>
<circle cx="214.564" cy="43.1083" r="1.60542" fill="black"/>
<path d="M214.562 44.1787V46.8544" stroke="black" stroke-width="1.8079"/>
<path d="M15.6465 77.4701L31.9551 67.434C32.3882 67.1675 32.9339 67.1652 33.3693 67.428L50.004 77.4717C50.4114 77.7176 50.6604 78.1588 50.6604 78.6346V80.5849C50.6604 81.3352 50.0522 81.9434 49.3019 81.9434H16.3585C15.6082 81.9434 15 81.3352 15 80.5849V78.627C15 78.1553 15.2447 77.7173 15.6465 77.4701Z" stroke="black" stroke-width="1.35849"/>
<path d="M17.7188 82.2827V83.6413C17.7188 84.204 18.1749 84.6602 18.7377 84.6602C19.3004 84.6602 19.7566 85.1164 19.7566 85.6791V95.5287C19.7566 96.0914 19.3004 96.5476 18.7377 96.5476C18.1749 96.5476 17.7188 97.0038 17.7188 97.5665V98.5854" stroke="black" stroke-width="1.35849"/>
<path d="M29.2617 82.2827V83.6413C29.2617 84.204 29.7179 84.6602 30.2806 84.6602C30.8434 84.6602 31.2996 85.1164 31.2996 85.6791V95.5287C31.2996 96.0914 30.8434 96.5476 30.2806 96.5476C29.7179 96.5476 29.2617 97.0038 29.2617 97.5665V98.5854" stroke="black" stroke-width="1.35849"/>
<path d="M40.8105 82.2827V83.6413C40.8105 84.204 41.2667 84.6602 41.8295 84.6602C42.3922 84.6602 42.8484 85.1164 42.8484 85.6791V95.5287C42.8484 96.0914 42.3922 96.5476 41.8295 96.5476C41.2667 96.5476 40.8105 97.0038 40.8105 97.5665V98.5854" stroke="black" stroke-width="1.35849"/>
<path d="M25.1855 82.2827V83.6413C25.1855 84.204 24.7294 84.6602 24.1666 84.6602C23.6039 84.6602 23.1477 85.1164 23.1477 85.6791V95.5287C23.1477 96.0914 23.6039 96.5476 24.1666 96.5476C24.7294 96.5476 25.1855 97.0038 25.1855 97.5665V98.5854" stroke="black" stroke-width="1.35849"/>
<path d="M36.7344 82.2827V83.6413C36.7344 84.204 36.2782 84.6602 35.7155 84.6602C35.1527 84.6602 34.6965 85.1164 34.6965 85.6791V95.5287C34.6965 96.0914 35.1527 96.5476 35.7155 96.5476C36.2782 96.5476 36.7344 97.0038 36.7344 97.5665V98.5854" stroke="black" stroke-width="1.35849"/>
<path d="M48.2812 82.2827V83.6413C48.2812 84.204 47.8251 84.6602 47.2623 84.6602C46.6996 84.6602 46.2434 85.1164 46.2434 85.6791V95.5287C46.2434 96.0914 46.6996 96.5476 47.2623 96.5476C47.8251 96.5476 48.2812 97.0038 48.2812 97.5665V98.5854" stroke="black" stroke-width="1.35849"/>
<rect x="15.6792" y="98.9244" width="34.6415" height="4.75472" rx="0.679245" stroke="black" stroke-width="1.35849"/>
<circle cx="32.9976" cy="75.4907" r="3.0566" stroke="black" stroke-width="1.35849"/>
<path d="M109.289 78.8088L124.083 68.3097C125.19 67.5241 126.671 67.5186 127.784 68.2958L142.829 78.8032C143.86 79.5234 143.35 81.143 142.093 81.143H110.033C108.78 81.143 108.267 79.5338 109.289 78.8088Z" fill="black"/>
<rect x="113.074" y="82.4287" width="5.14291" height="12.8573" rx="0.642864" fill="black"/>
<rect x="123.357" y="82.4287" width="5.14291" height="12.8573" rx="0.642864" fill="black"/>
<rect x="133.645" y="82.4287" width="5.14291" height="12.8573" rx="0.642864" fill="black"/>
<path d="M108.895 97.857C108.895 97.1469 109.47 96.5713 110.18 96.5713H142.002C142.712 96.5713 143.288 97.1469 143.288 97.857V101.714C143.288 102.424 142.712 103 142.002 103H110.18C109.47 103 108.895 102.424 108.895 101.714V97.857Z" fill="black"/>
<path d="M210.322 97.7134H235.952" stroke="black" stroke-width="2.98598" stroke-linecap="round"/>
<path d="M207.586 102.192H238.441" stroke="black" stroke-width="2.98598" stroke-linecap="round"/>
<path d="M212.314 85.272V97.2159" stroke="black" stroke-width="2.98598" stroke-linecap="round"/>
<path d="M219.279 85.272V97.2159" stroke="black" stroke-width="2.98598" stroke-linecap="round"/>
<path d="M226.746 85.272V97.2159" stroke="black" stroke-width="2.98598" stroke-linecap="round"/>
<path d="M234.209 85.272V97.2159" stroke="black" stroke-width="2.98598" stroke-linecap="round"/>
<path fill-rule="evenodd" clip-rule="evenodd" d="M235.949 82.7837C236.774 82.7838 237.442 83.4524 237.442 84.2769C237.442 85.1013 236.774 85.7699 235.949 85.77H210.319C209.495 85.7698 208.826 85.1012 208.826 84.2769C208.826 83.4524 209.495 82.7839 210.319 82.7837H218.969C220.056 83.7137 221.467 84.2769 223.01 84.2769C224.552 84.2767 225.963 83.7136 227.05 82.7837H235.949Z" fill="black"/>
<path fill-rule="evenodd" clip-rule="evenodd" d="M222.319 67.2133C222.736 66.9306 223.286 66.9289 223.705 67.2085L223.793 67.2729L239.79 80.0708C240.708 80.8055 240.189 82.2856 239.013 82.2856H227.572C228.602 81.1756 229.233 79.6899 229.233 78.0561C229.233 74.6206 226.448 71.8356 223.012 71.8354C219.576 71.8354 216.791 74.6205 216.791 78.0561C216.791 79.6898 217.422 81.1756 218.452 82.2856H207.247C206.075 82.2852 205.553 80.8139 206.462 80.0757L222.232 67.2778L222.319 67.2133Z" fill="black"/>
<path d="M224.754 76.2465L224.609 76.0291C224.333 75.6137 223.866 75.3643 223.367 75.3643H222.929C222.289 75.3643 221.746 75.835 221.656 76.4687C221.575 77.0342 221.877 77.5852 222.397 77.8216L223.915 78.5118C224.426 78.744 224.754 79.2534 224.754 79.8146C224.754 80.605 224.114 81.2457 223.323 81.2457H222.854C222.559 81.2457 222.271 81.1585 222.026 80.995L221.52 80.6576" stroke="black" stroke-width="1.49299" stroke-linecap="round"/>
<path d="M222.99 74.187V75.0692M222.99 81.5388V82.4211" stroke="black" stroke-width="1.49299" stroke-linecap="round"/>
<path d="M223.465 131.031L206.405 140.337C206.367 140.357 206.344 140.396 206.344 140.439V143.897C206.344 143.961 206.396 144.014 206.461 144.014H240.323C240.387 144.014 240.44 143.961 240.44 143.897V140.439C240.44 140.396 240.417 140.357 240.379 140.336L223.578 131.031C223.543 131.012 223.501 131.012 223.465 131.031Z" stroke="black" stroke-width="1.75385" stroke-linecap="round"/>
<path d="M211.287 141.411H235.493" stroke="black" stroke-width="1.75385" stroke-linecap="round"/>
<path d="M208.945 144.534V146.759C208.945 146.824 208.998 146.876 209.062 146.876H216.896C216.961 146.876 217.013 146.824 217.013 146.759V144.534" stroke="black" stroke-width="1.75385" stroke-linecap="round"/>
<path d="M229.768 144.534V146.759C229.768 146.824 229.82 146.876 229.885 146.876H237.718C237.783 146.876 237.835 146.824 237.835 146.759V144.534" stroke="black" stroke-width="1.75385" stroke-linecap="round"/>
<path d="M211.027 147.137V159.89" stroke="black" stroke-width="1.75385" stroke-linecap="round"/>
<path d="M231.85 147.137V159.89" stroke="black" stroke-width="1.75385" stroke-linecap="round"/>
<path d="M214.932 147.397V159.89" stroke="black" stroke-width="1.75385" stroke-linecap="round"/>
<path d="M235.754 147.397V159.89" stroke="black" stroke-width="1.75385" stroke-linecap="round"/>
<path d="M208.686 162.493V160.267C208.686 160.203 208.738 160.15 208.802 160.15H216.973C217.037 160.15 217.09 160.203 217.09 160.267V162.493" stroke="black" stroke-width="1.75385" stroke-linecap="round"/>
<path d="M229.508 162.493V160.267C229.508 160.203 229.56 160.15 229.625 160.15H237.795C237.86 160.15 237.912 160.203 237.912 160.267V162.493" stroke="black" stroke-width="1.75385" stroke-linecap="round"/>
<path d="M206.082 165.616V163.131C206.082 163.066 206.134 163.014 206.199 163.014H240.061C240.126 163.014 240.178 163.066 240.178 163.131V165.616" stroke="black" stroke-width="1.75385" stroke-linecap="round"/>
<path d="M204 166.137H242" stroke="black" stroke-width="1.75385" stroke-linecap="round"/>
<path d="M223.036 134.835C223.268 134.493 223.772 134.493 224.004 134.835L226.304 138.222C226.567 138.61 226.289 139.135 225.82 139.135H221.22C220.751 139.135 220.473 138.61 220.736 138.222L223.036 134.835Z" stroke="black" stroke-width="1.16923"/>
<path d="M215.453 139.068H217.015" stroke="black" stroke-width="1.75385" stroke-linecap="round"/>
<path d="M230.027 139.068H231.589" stroke="black" stroke-width="1.75385" stroke-linecap="round"/>
<path d="M224.691 151.405L224.639 151.337C224.373 150.987 223.959 150.781 223.519 150.781H223.085C222.647 150.781 222.273 151.099 222.203 151.531C222.136 151.944 222.364 152.349 222.753 152.504L224.066 153.03C224.443 153.18 224.691 153.546 224.691 153.952C224.691 154.5 224.246 154.945 223.697 154.945H223.202C222.937 154.945 222.677 154.875 222.449 154.741L222.088 154.529" stroke="black" stroke-width="1.16923" stroke-linecap="round"/>
<path d="M223.521 149.739V150.52M223.521 155.205V155.986" stroke="black" stroke-width="1.16923" stroke-linecap="round"/>
<circle cx="223.26" cy="153.123" r="5.10938" stroke="black" stroke-width="1.75385"/>
<path d="M107 139.99V138.543C107 138.293 107.15 138.067 107.381 137.971L123.811 131.1C123.964 131.036 124.137 131.036 124.29 131.1L140.72 137.971C140.951 138.067 141.101 138.293 141.101 138.543V139.99C141.101 140.333 140.823 140.61 140.481 140.61H107.62C107.278 140.61 107 140.333 107 139.99Z" stroke="black" stroke-width="1.86004" stroke-linecap="square"/>
<path d="M123.43 157.971H109.479C109.137 157.971 108.859 158.248 108.859 158.591V160.451" stroke="black" stroke-width="1.86004" stroke-linecap="square"/>
<path d="M124.05 160.761H107.62C107.278 160.761 107 161.038 107 161.381V163.241C107 163.583 107.278 163.861 107.62 163.861H125.6" stroke="black" stroke-width="1.86004" stroke-linecap="square"/>
<path d="M108.859 141.23V142.47C108.859 142.812 109.137 143.09 109.479 143.09H138.31C138.652 143.09 138.93 142.812 138.93 142.47V141.23" stroke="black" stroke-width="1.86004" stroke-linecap="square"/>
<path d="M110.721 143.71V145.136C110.721 145.205 110.776 145.26 110.845 145.26H114.627C114.695 145.26 114.751 145.205 114.751 145.136V143.71" stroke="black" stroke-width="1.86004" stroke-linecap="square"/>
<path d="M118.16 143.71V145.136C118.16 145.205 118.216 145.26 118.284 145.26H122.066C122.135 145.26 122.19 145.205 122.19 145.136V143.71" stroke="black" stroke-width="1.86004" stroke-linecap="square"/>
<path d="M125.602 143.71V145.136C125.602 145.205 125.657 145.26 125.726 145.26H129.508C129.576 145.26 129.632 145.205 129.632 145.136V143.71" stroke="black" stroke-width="1.86004" stroke-linecap="square"/>
<path d="M133.041 143.71V145.136C133.041 145.205 133.097 145.26 133.165 145.26H136.947C137.016 145.26 137.071 145.205 137.071 145.136V143.71" stroke="black" stroke-width="1.86004" stroke-linecap="square"/>
<path d="M110.721 157.041V155.614C110.721 155.546 110.776 155.49 110.845 155.49H114.627C114.695 155.49 114.751 155.546 114.751 155.614V157.041" stroke="black" stroke-width="1.86004" stroke-linecap="square"/>
<path d="M118.16 157.041V155.614C118.16 155.546 118.216 155.49 118.284 155.49H122.066C122.135 155.49 122.19 155.546 122.19 155.614V157.041" stroke="black" stroke-width="1.86004" stroke-linecap="square"/>
<path d="M111.031 145.88V155.181" stroke="black" stroke-width="1.86004" stroke-linecap="square"/>
<path d="M118.469 145.88V155.181" stroke="black" stroke-width="1.86004" stroke-linecap="square"/>
<path d="M125.91 145.88V149.6" stroke="black" stroke-width="1.86004" stroke-linecap="square"/>
<path d="M133.35 145.88V146.81" stroke="black" stroke-width="1.86004" stroke-linecap="square"/>
<path d="M114.439 145.88V155.181" stroke="black" stroke-width="1.86004" stroke-linecap="square"/>
<path d="M121.881 145.88V155.181" stroke="black" stroke-width="1.86004" stroke-linecap="square"/>
<path d="M129.32 145.88V147.43" stroke="black" stroke-width="1.86004" stroke-linecap="square"/>
<path d="M136.76 145.88V147.12" stroke="black" stroke-width="1.86004" stroke-linecap="square"/>
<path d="M124.051 134.429C125.078 134.429 125.91 135.262 125.91 136.29C125.91 137.316 125.078 138.149 124.051 138.149C123.024 138.149 122.191 137.317 122.19 136.29C122.19 135.262 123.024 134.429 124.051 134.429Z" stroke="black" stroke-width="1.24003"/>
<path d="M133.972 149.6C138.252 149.6 141.722 153.071 141.722 157.351C141.721 161.631 138.252 165.101 133.972 165.101C129.692 165.101 126.221 161.631 126.221 157.351C126.221 153.071 129.691 149.6 133.972 149.6Z" stroke="black" stroke-width="1.86004"/>
<path d="M136.762 154.56C136.762 156.101 135.513 157.351 133.972 157.351C132.431 157.351 131.182 156.101 131.182 154.56C131.182 153.02 132.431 151.77 133.972 151.77C135.513 151.77 136.762 153.02 136.762 154.56Z" fill="black"/>
<path fill-rule="evenodd" clip-rule="evenodd" d="M134.21 156.737C136.564 156.856 138.454 158.726 138.608 161.071H137.366C137.209 159.333 135.749 157.971 133.971 157.971C132.192 157.971 130.732 159.333 130.575 161.071H129.332C129.492 158.647 131.507 156.731 133.971 156.731L134.21 156.737Z" fill="black"/>
<path d="M17.8711 159.067H42.3895" stroke="black" stroke-width="1.93566"/>
<path d="M14.6465 162.938H45.6171" stroke="black" stroke-width="1.93566"/>
<path d="M30.1305 131L14 143.582H17.5487L30.1305 133.581L42.7124 143.582H46.2611L30.1305 131Z" fill="black"/>
<path fill-rule="evenodd" clip-rule="evenodd" d="M29.8096 139.388C34.6201 139.388 38.5203 143.288 38.5205 148.098C38.5205 152.909 34.6202 156.809 29.8096 156.809C24.999 156.809 21.0996 152.909 21.0996 148.098C21.0998 143.288 24.9991 139.388 29.8096 139.388ZM29.8096 142.614C29.4532 142.614 29.1641 142.903 29.1641 143.259V143.987C28.4071 144.208 27.8227 144.855 27.7061 145.669C27.5769 146.573 28.0594 147.455 28.8906 147.833L30.5566 148.589C30.8864 148.739 31.0983 149.069 31.0986 149.431C31.0986 149.942 30.6844 150.356 30.1738 150.356H29.749C29.4944 150.356 29.2451 150.28 29.0332 150.139L28.5527 149.82C28.2564 149.622 27.8559 149.702 27.6582 149.999C27.4607 150.295 27.5415 150.695 27.8379 150.893L28.3174 151.213C28.5766 151.386 28.8637 151.509 29.1641 151.579V152.292C29.1643 152.649 29.4533 152.938 29.8096 152.938C30.1658 152.938 30.4549 152.649 30.4551 152.292V151.627C31.5455 151.489 32.3896 150.559 32.3896 149.431C32.3893 148.563 31.8813 147.774 31.0908 147.415L29.4248 146.658C29.1152 146.517 28.9353 146.189 28.9834 145.852C29.0375 145.475 29.3612 145.195 29.7422 145.195H30.1143C30.5135 145.195 30.8869 145.395 31.1084 145.727L31.207 145.875C31.4047 146.172 31.8052 146.252 32.1016 146.054C32.3976 145.857 32.4784 145.456 32.2812 145.16L32.1816 145.011C31.7845 144.416 31.1534 144.025 30.4551 143.928V143.259C30.4551 142.903 30.1659 142.614 29.8096 142.614Z" fill="black"/>
</svg>
