<svg width="260" height="178" viewBox="0 0 260 178" fill="none" xmlns="http://www.w3.org/2000/svg">
<path d="M137.75 25.1671L119.704 43.2137C118.005 44.9124 115.251 44.9124 113.552 43.2137L113.274 42.9361C111.571 41.2334 111.576 38.4713 113.284 36.7742L131.628 18.548L137.75 25.1671ZM114.727 38.2265C113.823 39.125 113.82 40.5871 114.722 41.4885L114.999 41.7664C115.899 42.6657 117.357 42.6657 118.256 41.7664L134.911 25.1117L131.565 21.4953L114.727 38.2265Z" fill="black"/>
<path d="M134.95 8.72041C136.709 9.48681 139.407 11.0552 141.9 13.3068C144.388 15.555 146.749 18.5547 147.687 22.1974L148.038 23.5622L146.632 23.4743C145.697 23.4158 144.039 23.4675 142.213 23.8308C140.382 24.1951 138.461 24.8574 136.934 25.9673C136.477 26.2997 135.837 26.1986 135.505 25.7414C135.172 25.2843 135.273 24.6441 135.73 24.3116C137.582 22.9652 139.818 22.22 141.813 21.823C143.088 21.5694 144.296 21.452 145.292 21.418C144.317 18.8534 142.522 16.6274 140.527 14.8258C138.867 13.3262 137.109 12.1563 135.669 11.3619C135.655 15.6959 133.673 19.1814 132.507 20.5561C132.141 20.9871 131.495 21.04 131.064 20.6743C130.633 20.3086 130.581 19.6628 130.946 19.2317C132.008 17.9808 134.094 14.2411 133.526 9.78841L133.298 8L134.95 8.72041Z" fill="black"/>
<path d="M13.4367 36.7868C13.4367 36.2787 13.8486 35.8667 14.3568 35.8667C14.8649 35.8667 15.2769 36.2786 15.2769 36.7868V43.1031L12.94 46.5023C12.6521 46.921 12.0792 47.027 11.6605 46.7391C11.2418 46.4512 11.1359 45.8785 11.4237 45.4598L13.4367 42.5314V36.7868Z" fill="black"/>
<path d="M29.3172 36.8857C29.3172 36.3775 28.9053 35.9656 28.3971 35.9656C27.889 35.9656 27.477 36.3775 27.477 36.8857V43.202L29.8139 46.6012C30.1018 47.0199 30.6747 47.1258 31.0934 46.838C31.5121 46.5501 31.618 45.9774 31.3302 45.5587L29.3172 42.6303V36.8857Z" fill="black"/>
<path d="M28.4349 30.616C28.84 30.3092 29.4171 30.3888 29.7239 30.7939L39.9066 44.2391C40.2134 44.6442 40.1338 45.2212 39.7287 45.528C39.3236 45.8348 38.7466 45.7552 38.4398 45.3501L28.257 31.905C27.9502 31.4999 28.0298 30.9228 28.4349 30.616Z" fill="black"/>
<path d="M28.6289 25.4871L29.4528 25.513L29.8958 31.1605C29.912 31.2376 29.9185 31.3176 29.914 31.3993C29.941 31.8965 29.5665 32.327 29.0673 32.3662C28.851 32.3831 28.6466 32.3234 28.4799 32.2105L23.6284 31.5779L23.5357 30.8777C23.1616 28.0553 25.4867 25.4732 28.4855 25.4847L28.6289 25.4871ZM27.755 27.4017C26.4491 27.6911 25.5127 28.7591 25.3595 29.9477L27.9817 30.2899L27.755 27.4017Z" fill="black"/>
<path d="M11.2505 28.3851C11.741 28.2526 12.2462 28.5427 12.3788 29.0332C13.3515 32.6322 14.5699 35.3385 16.0281 37.1641C17.4665 38.965 19.1207 39.8929 21.0426 40.0211C22.4947 40.1178 23.9942 39.4157 25.3507 38.3711C26.691 37.339 27.7675 36.0672 28.3383 35.2648C28.633 34.8508 29.2074 34.7539 29.6215 35.0485C30.0355 35.3431 30.1324 35.9176 29.8378 36.3316C29.1894 37.2429 27.9918 38.66 26.4734 39.8292C24.9712 40.986 23.0271 41.9975 20.9202 41.857C18.3933 41.6886 16.2906 40.4416 14.5902 38.3127C12.9095 36.2086 11.6069 33.2302 10.6024 29.5135C10.4698 29.0229 10.76 28.5177 11.2505 28.3851Z" fill="black"/>
<path d="M30.3449 29.6688V23.1828C30.332 21.6091 29.8847 19.3081 28.6037 17.3863C27.3133 15.4503 25.1544 13.8549 21.558 13.7822C17.9738 13.7098 15.6646 15.273 14.1884 17.2571C12.6822 19.2816 12.038 21.7625 11.916 23.4095C11.8784 23.9163 11.437 24.2968 10.9303 24.2593C10.4235 24.2217 10.0431 23.7803 10.0807 23.2736C10.2223 21.3616 10.9523 18.5236 12.7118 16.1587C14.5014 13.7534 17.3496 11.8565 21.5951 11.9423C25.8285 12.0278 28.5303 13.9585 30.1349 16.3658C31.6584 18.6515 32.1708 21.3252 32.1851 23.1741V29.6688C32.1851 30.1769 31.7732 30.5888 31.265 30.5889C30.7568 30.5889 30.3449 30.1769 30.3449 29.6688Z" fill="black"/>
<path d="M10.3273 22.7187C10.7259 22.4036 11.3045 22.4713 11.6196 22.8699C11.9348 23.2685 11.8673 23.8471 11.4687 24.1622C11.3226 24.2778 11.1354 24.5481 10.9999 25.0138C10.8693 25.4622 10.8138 26.0029 10.8521 26.5384C10.8906 27.0776 11.02 27.5584 11.213 27.9096C11.4027 28.2547 11.6215 28.4245 11.8423 28.4876C12.3308 28.6273 12.6136 29.1366 12.4739 29.6252C12.3342 30.1137 11.8249 30.3965 11.3364 30.2568C10.5198 30.0234 9.95626 29.4434 9.60038 28.7958C9.24786 28.1543 9.06867 27.3992 9.01655 26.6696C8.96418 25.9365 9.03604 25.1756 9.23288 24.4994C9.42469 23.8406 9.76492 23.1634 10.3273 22.7187Z" fill="black"/>
<path d="M32.563 22.1011C32.1284 21.8378 31.5627 21.9768 31.2994 22.4114C31.0362 22.846 31.1749 23.4117 31.6095 23.675C31.7689 23.7716 31.9881 24.0166 32.1804 24.4619C32.3655 24.8906 32.4877 25.4203 32.5162 25.9564C32.5448 26.4962 32.476 26.9893 32.3281 27.3618C32.1827 27.7278 31.9867 27.9233 31.7754 28.0133C31.3079 28.2126 31.0905 28.753 31.2897 29.2205C31.489 29.6879 32.0294 29.9054 32.4969 29.7062C33.2782 29.3732 33.7654 28.7278 34.0382 28.0411C34.3084 27.3608 34.3926 26.5893 34.3538 25.8589C34.3148 25.1249 34.1491 24.3788 33.8699 23.7323C33.5978 23.1023 33.1762 22.4726 32.563 22.1011Z" fill="black"/>
<path d="M24.1892 4.32983L24.4545 4.79169C25.298 6.25985 26.9595 8.53119 29.5675 10.096C30.1449 10.4425 30.6368 11.0869 31.0274 11.7837C31.4343 12.5096 31.7948 13.407 32.0589 14.3908C32.5838 16.3458 32.7589 18.7607 32.0452 20.9567C31.8882 21.44 31.3691 21.7046 30.8859 21.5475C30.4026 21.3905 30.138 20.8712 30.2951 20.388C30.8666 18.6295 30.7454 16.5956 30.2816 14.868C30.0514 14.0106 29.7445 13.2584 29.4224 12.6836C29.0839 12.0799 28.785 11.7726 28.6209 11.6741C25.9195 10.0533 24.1389 7.7919 23.1348 6.17005H19.7841C18.9924 7.67157 17.1843 10.1923 14.4052 11.6945C13.3294 12.2761 12.632 13.6986 12.2792 15.5664C11.937 17.3787 11.9734 19.3345 12.1139 20.5681C12.1714 21.073 11.8087 21.5291 11.3039 21.5866C10.799 21.6441 10.3429 21.2815 10.2854 20.7766C10.1293 19.4069 10.0866 17.2599 10.4709 15.2249C10.8448 13.2454 11.6798 11.0758 13.5302 10.0756C16.2227 8.62018 17.8909 5.97723 18.3635 4.88469L18.6034 4.32983H24.1892Z" fill="black"/>
<path d="M232.667 13.2272V43.8301H218V13.2272H232.667ZM220.256 41.5737H230.41V15.4836H220.256V41.5737Z" fill="black"/>
<path d="M248.747 21.5479V32.8301H250.58V43.8302H236.195V32.8301H237.888V21.5479H248.747ZM238.452 41.5738H248.324V35.0865H238.452V41.5738ZM240.144 32.8301H246.49V23.8043H240.144V32.8301Z" fill="black"/>
<path d="M238.594 14.2235C238.594 12.5181 239.45 10.9266 240.873 9.98687L244.825 7.37731C246.325 6.38666 248.325 7.4623 248.325 9.25997V22.8171H246.068V9.25997L242.116 11.8698C241.326 12.3919 240.85 13.2761 240.85 14.2235V22.8171H238.594V14.2235Z" fill="black"/>
<path d="M116.531 75.0658V77.5249H109V75.0658H116.531Z" fill="black"/>
<path d="M140.969 75.0658V77.5249H148.5V75.0658H140.969Z" fill="black"/>
<path d="M118.968 76.2753L114.461 82.689L112.449 81.2751L115.934 76.3155L112.468 71.6495L114.442 70.1829L118.968 76.2753Z" fill="black"/>
<path d="M138.532 76.2753L143.039 82.689L145.051 81.2751L141.566 76.3155L145.032 71.6495L143.058 70.1829L138.532 76.2753Z" fill="black"/>
<path d="M140.352 90.4351V92.8941H116.684V90.4351H140.352Z" fill="black"/>
<path d="M136.198 92.5798C135.219 93.136 133.519 94.4701 132.164 96.3642C130.818 98.2467 129.882 100.581 130.202 103.196L127.761 103.495C127.344 100.084 128.585 97.142 130.164 94.9338C131.735 92.7371 133.708 91.1665 134.983 90.4419L136.198 92.5798Z" fill="black"/>
<path d="M123.496 90.9097C124.166 91.7713 125.473 93.2135 126.856 94.4299C127.548 95.0377 128.229 95.5629 128.835 95.929C129.481 96.3193 129.882 96.4291 130.056 96.4291V98.8882C129.185 98.8882 128.301 98.4792 127.564 98.0338C126.786 97.5642 125.984 96.9367 125.233 96.2766C123.732 94.9571 122.319 93.4022 121.555 92.4196L123.496 90.9097Z" fill="black"/>
<path d="M122.78 70.0969C123.583 72.7357 123.962 79.1354 119.291 84.3402C117.028 86.862 117.092 90.4247 117.852 94.1264C118.228 95.963 118.735 97.6619 119.135 99.23C119.33 99.9924 119.5 100.729 119.594 101.39C119.684 102.028 119.724 102.718 119.569 103.336L117.184 102.74C117.221 102.59 117.236 102.28 117.159 101.735C117.085 101.212 116.942 100.581 116.752 99.8382C116.384 98.3949 115.834 96.53 115.443 94.6205C114.665 90.8296 114.345 86.1698 117.461 82.6976C121.397 78.3121 121.059 72.8877 120.428 70.8132L122.78 70.0969Z" fill="black"/>
<path d="M134.392 70.2506C133.589 72.8893 133.21 79.289 137.88 84.4939C140.144 87.0157 140.079 90.5784 139.32 94.28C138.943 96.1167 138.437 97.8156 138.037 99.3837C137.842 100.146 137.672 100.883 137.578 101.543C137.487 102.182 137.448 102.871 137.603 103.49L139.988 102.893C139.951 102.743 139.936 102.434 140.013 101.889C140.087 101.366 140.23 100.735 140.419 99.9919C140.788 98.5486 141.337 96.6837 141.729 94.7741C142.507 90.9833 142.827 86.3234 139.711 82.8513C135.775 78.4658 136.113 73.0414 136.744 70.9668L134.392 70.2506Z" fill="black"/>
<path d="M141.583 64C141.583 66.3605 140.88 68.1826 139.638 69.4177C138.406 70.6436 136.781 71.1545 135.195 71.1659C133.615 71.1772 132.006 70.6979 130.682 69.8577C129.36 69.0184 128.243 67.7646 127.797 66.1772L130.164 65.5114C130.409 66.3831 131.06 67.185 132 67.7817C132.939 68.3775 134.086 68.7147 135.177 68.7068C136.261 68.699 137.22 68.3549 137.904 67.6742C138.579 67.0025 139.124 65.866 139.124 64H141.583Z" fill="black"/>
<path d="M116.376 64.1536C116.376 66.5187 117.093 68.3383 118.358 69.5601C119.612 70.7706 121.26 71.254 122.859 71.2426C124.454 71.2313 126.077 70.7322 127.411 69.8795C128.741 69.0286 129.869 67.7669 130.316 66.1771L127.949 65.5113C127.705 66.3805 127.046 67.1937 126.086 67.8077C125.128 68.4198 123.956 68.7756 122.842 68.7835C121.732 68.7914 120.758 68.4583 120.066 67.7909C119.387 67.1348 118.835 66.0149 118.835 64.1536H116.376Z" fill="black"/>
<path d="M24.7282 67.1516V69.1856H17.1359C13.7122 69.1856 10.9585 72.0019 11.0356 75.4247L11.3506 89.4082C11.4253 92.7237 14.1346 95.3727 17.451 95.3727H24.7282V97.4067H17.451C13.0291 97.4067 9.41677 93.8748 9.31718 89.4541L9.00211 75.4707C8.89932 70.9068 12.5709 67.1516 17.1359 67.1516H24.7282Z" fill="black"/>
<path d="M24.8542 70.7111V72.745H16.9727V70.7111H24.8542Z" fill="black"/>
<path d="M24.8542 74.1433V76.1773H16.9727V74.1433H24.8542Z" fill="black"/>
<path d="M24.8542 77.7028V79.7367H16.9727V77.7028H24.8542Z" fill="black"/>
<path d="M24.8542 81.2621V83.296H16.9727V81.2621H24.8542Z" fill="black"/>
<path d="M24.8542 84.8215V86.8555H16.9727V84.8215H24.8542Z" fill="black"/>
<path d="M24.8542 88.381V90.4149H16.9727V88.381H24.8542Z" fill="black"/>
<path d="M24.8542 91.9404V93.9744H16.9727V91.9404H24.8542Z" fill="black"/>
<path d="M37.4374 71.1018C37.4374 70.8832 37.1799 70.7666 37.0155 70.9106L32.2254 75.1121V80.118H30.1914V74.9974C30.1914 74.485 30.4123 73.9973 30.7975 73.6594L35.6743 69.3817C37.1532 68.0844 39.4713 69.1346 39.4713 71.1018V80.118H37.4374V71.1018Z" fill="black"/>
<path d="M38.967 83.4231H30.5769V97.6608C30.5769 99.4862 32.0567 100.966 33.8821 100.966H35.6618C37.4872 100.966 38.967 99.4862 38.967 97.6608V83.4231ZM41.0009 97.6608C41.0009 100.61 38.6105 103 35.6618 103H33.8821C30.9334 103 28.543 100.61 28.543 97.6608V81.3892H41.0009V97.6608Z" fill="black"/>
<path d="M39.9853 89.525V91.559H33.375V89.525H39.9853Z" fill="black"/>
<path d="M229.082 70.9204C229.503 70.8649 229.889 71.1609 229.944 71.5816C230.356 74.7026 231.284 83.0257 231.707 91.417C231.729 91.8408 231.403 92.2016 230.979 92.223C230.555 92.2444 230.194 91.9181 230.173 91.4943C229.752 83.1529 228.829 74.872 228.421 71.7827C228.365 71.362 228.661 70.9759 229.082 70.9204Z" fill="black"/>
<path d="M243.593 63.8831C244.017 63.8831 244.361 64.227 244.361 64.6513C244.361 65.0757 244.017 65.4196 243.593 65.4196H225.401C224.977 65.4196 224.633 65.0757 224.633 64.6513C224.633 64.227 224.977 63.8831 225.401 63.8831H243.593Z" fill="black"/>
<path d="M241.371 95.9602V104H227.883V95.9602H241.371ZM229.419 102.463H239.835V97.4968H229.419V102.463Z" fill="black"/>
<path d="M244.682 65.9045L244.526 66.8038C243.913 70.354 243.018 76.028 242.33 81.5043C241.638 87.0103 241.168 92.2266 241.372 94.9128L241.434 95.7392H227.814L227.798 94.9884C227.71 91.1347 227.295 85.2258 226.682 79.7094C226.375 76.9523 226.02 74.3018 225.633 72.0612C225.244 69.8046 224.831 68.0148 224.421 66.9486L224.02 65.9045H244.682ZM226.201 67.4411C226.539 68.6007 226.855 70.1036 227.148 71.8001C227.541 74.0809 227.9 76.7638 228.209 79.5397C228.787 84.7447 229.192 90.3067 229.314 94.2027H239.798C239.712 91.2007 240.179 86.2987 240.805 81.3128C241.442 76.25 242.253 71.0236 242.859 67.4411H226.201Z" fill="black"/>
<path d="M10.8108 138.402C10.8108 142.994 14.8067 146.563 19.369 146.046L30.3687 144.801L30.4195 144.795H35.2561V135.404L30.4278 134.965C30.3106 134.954 30.1957 134.926 30.087 134.881L21.4528 131.297C16.3869 129.194 10.8108 132.917 10.8108 138.402ZM37.0668 145.442C37.0668 146.085 36.5457 146.606 35.9028 146.606H30.521L19.5726 147.846C13.9365 148.484 9.00003 144.074 9 138.402C9 131.626 15.8886 127.027 22.147 129.625L30.69 133.171L36.0081 133.654C36.6077 133.709 37.0668 134.211 37.0668 134.814V145.442Z" fill="black"/>
<path d="M13.2728 145.97C13.3381 145.475 13.7929 145.126 14.2886 145.191C14.7843 145.256 15.1334 145.711 15.0682 146.207C14.8557 147.822 14.4379 151.633 14.4293 154.159C14.4285 154.396 14.3562 154.625 14.2214 154.819C13.4916 155.871 12.7474 157.412 12.6792 158.738C12.6462 159.379 12.7737 159.909 13.0712 160.321C13.3624 160.725 13.8927 161.123 14.8714 161.368C16.2035 161.587 18.2277 161.701 20.0286 161.366C21.6966 161.056 22.9142 160.418 23.4498 159.395C22.9123 158.869 22.2721 158.159 21.7408 157.385C21.1347 156.503 20.5274 155.336 20.6354 154.203C20.6056 152.914 21.1488 149.813 23.3525 146.14C23.6098 145.711 24.1659 145.572 24.5946 145.83C25.0234 146.087 25.1624 146.643 24.9051 147.072C22.8172 150.551 22.417 153.34 22.4461 154.185C22.4483 154.249 22.445 154.307 22.439 154.36C22.3888 154.806 22.6502 155.511 23.2333 156.36C23.7831 157.16 24.4915 157.906 25.0049 158.374C25.3265 158.666 25.4796 159.14 25.3265 159.597C24.5831 161.815 22.3963 162.768 20.3595 163.147C18.2769 163.533 16.0107 163.394 14.5389 163.149L14.5056 163.143L14.4727 163.135C13.1666 162.816 12.2083 162.221 11.6022 161.38C10.9995 160.544 10.823 159.572 10.8707 158.645C10.9596 156.917 11.8334 155.134 12.62 153.955C12.6487 151.314 13.0639 147.558 13.2728 145.97Z" fill="black"/>
<path d="M41.0287 134.184C42.1452 134.23 43.4774 134.575 44.2822 135.746C44.5066 136.072 44.9443 136.229 45.8338 135.976C46.6836 135.735 47.591 135.195 48.1627 134.761C48.561 134.459 49.1288 134.537 49.4311 134.935C49.7333 135.334 49.6554 135.902 49.257 136.204C48.5784 136.719 47.468 137.395 46.3281 137.718C45.228 138.03 43.704 138.101 42.7902 136.772C42.4568 136.287 41.8274 136.029 40.9542 135.993C40.0975 135.958 39.2029 136.15 38.6577 136.338C38.185 136.501 37.6698 136.25 37.5067 135.778C37.3437 135.305 37.5948 134.79 38.0675 134.627C38.7726 134.384 39.8958 134.137 41.0287 134.184Z" fill="black"/>
<path d="M39.5342 138.413C40.6339 137.77 42.0638 137.756 43.7258 138.706C46.2988 140.176 47.7439 139.22 48.0277 138.896C48.3569 138.52 48.9289 138.482 49.3052 138.811C49.6814 139.14 49.7196 139.712 49.3903 140.088C48.4669 141.144 46.0489 142.119 42.8275 140.278C41.5924 139.573 40.8664 139.732 40.4486 139.976C39.954 140.266 39.6226 140.832 39.491 141.293C39.3535 141.774 38.8524 142.052 38.3716 141.915C37.8909 141.777 37.6126 141.276 37.7499 140.796C37.9631 140.049 38.5113 139.012 39.5342 138.413Z" fill="black"/>
<path d="M40.9305 141.562C41.4951 141.501 42.0813 141.617 42.6647 141.925C44.5109 142.903 46.7724 142.503 48.8261 141.862C49.3033 141.712 49.8112 141.978 49.9603 142.456C50.1094 142.933 49.8434 143.441 49.3662 143.59C47.2809 144.242 44.3688 144.877 41.8174 143.526C41.5214 143.369 41.296 143.344 41.1258 143.362C40.9483 143.382 40.7665 143.456 40.5796 143.593C40.184 143.882 39.8695 144.375 39.7162 144.75C39.5268 145.213 38.9982 145.434 38.5354 145.245C38.0726 145.056 37.851 144.527 38.0403 144.064C38.2749 143.491 38.7623 142.678 39.5113 142.131C39.8967 141.849 40.3731 141.623 40.9305 141.562Z" fill="black"/>
<path d="M22.5755 138.587C22.5755 136.73 21.0699 135.224 19.2127 135.224C17.3554 135.224 15.8498 136.73 15.8498 138.587C15.8498 140.444 17.3554 141.95 19.2127 141.95V143.76C16.3554 143.76 14.0391 141.444 14.0391 138.587C14.0391 135.73 16.3554 133.413 19.2127 133.413C22.07 133.413 24.3863 135.73 24.3863 138.587C24.3863 141.444 22.07 143.76 19.2127 143.76V141.95C21.0699 141.95 22.5755 140.444 22.5755 138.587Z" fill="black"/>
<path d="M218.853 128.64C218.598 128.088 217.945 127.847 217.393 128.102C216.841 128.356 216.6 129.01 216.855 129.562C218.228 132.537 220.294 137.095 222.03 141.099C222.898 143.102 223.68 144.957 224.25 146.404C224.535 147.128 224.764 147.739 224.922 148.209C225.002 148.445 225.06 148.635 225.099 148.781C225.142 148.941 225.147 148.997 225.146 148.985C225.202 149.764 225.569 151.755 226.002 153.935C226.541 156.651 227.215 159.824 227.645 161.795C227.814 162.573 228.293 163.251 228.866 163.766C229.447 164.287 230.186 164.7 230.994 164.923C232.647 165.38 234.646 165.045 236.059 163.19L236.105 163.131L236.142 163.066C236.967 161.61 237.564 159.233 236.351 157.019C235.195 154.91 232.599 153.318 228.006 152.72C227.64 150.84 227.38 149.363 227.342 148.828C227.316 148.472 227.167 147.979 227.007 147.506C226.832 146.986 226.588 146.336 226.297 145.597C225.714 144.116 224.921 142.235 224.049 140.224C222.304 136.199 220.231 131.625 218.853 128.64ZM228.464 155.011C232.193 155.623 233.791 156.927 234.421 158.077C235.123 159.359 234.843 160.851 234.265 161.913C233.483 162.896 232.485 163.052 231.58 162.802C231.101 162.67 230.664 162.423 230.337 162.129C230.001 161.827 229.84 161.531 229.795 161.326C229.445 159.719 228.932 157.311 228.464 155.011Z" fill="black"/>
<path d="M232.186 128.64C232.441 128.088 233.095 127.847 233.646 128.102C234.198 128.356 234.439 129.01 234.184 129.562C232.811 132.537 230.745 137.095 229.009 141.099C228.141 143.102 227.359 144.957 226.789 146.404C226.504 147.128 226.276 147.739 226.117 148.209C226.037 148.445 225.979 148.635 225.94 148.781C225.897 148.941 225.892 148.997 225.893 148.985C225.837 149.764 225.47 151.755 225.037 153.935C224.498 156.651 223.824 159.824 223.394 161.795C223.225 162.573 222.746 163.251 222.173 163.766C221.593 164.287 220.853 164.7 220.045 164.923C218.392 165.38 216.393 165.045 214.98 163.19L214.934 163.131L214.898 163.066C214.072 161.61 213.475 159.233 214.688 157.019C215.844 154.91 218.441 153.318 223.033 152.72C223.399 150.84 223.659 149.363 223.698 148.828C223.723 148.472 223.872 147.979 224.032 147.506C224.207 146.986 224.451 146.336 224.742 145.597C225.326 144.116 226.119 142.235 226.99 140.224C228.735 136.199 230.808 131.625 232.186 128.64ZM222.575 155.011C218.846 155.623 217.248 156.927 216.618 158.077C215.916 159.359 216.196 160.851 216.774 161.913C217.556 162.896 218.554 163.052 219.459 162.802C219.938 162.67 220.375 162.423 220.703 162.129C221.038 161.827 221.199 161.531 221.244 161.326C221.594 159.719 222.107 157.311 222.575 155.011Z" fill="black"/>
<path d="M237.108 143.405C236.5 143.405 236.007 143.898 236.007 144.505C236.007 145.113 236.5 145.606 237.108 145.606H244.122C244.73 145.606 245.223 145.113 245.223 144.505C245.223 143.898 244.73 143.405 244.122 143.405H237.108Z" fill="black"/>
<path d="M237.108 138.591C236.5 138.591 236.007 139.084 236.007 139.691C236.007 140.299 236.5 140.792 237.108 140.792H244.122C244.73 140.792 245.223 140.299 245.223 139.691C245.223 139.084 244.73 138.591 244.122 138.591H237.108Z" fill="black"/>
<path d="M237.108 133.502C236.5 133.502 236.007 133.995 236.007 134.602C236.007 135.21 236.5 135.703 237.108 135.703H244.122C244.73 135.703 245.223 135.21 245.223 134.602C245.223 133.995 244.73 133.502 244.122 133.502H237.108Z" fill="black"/>
<path d="M251 161.973V132.952C251 130.369 248.906 128.275 246.324 128.275H237.246C236.638 128.275 236.145 128.768 236.145 129.376C236.145 129.983 236.638 130.476 237.246 130.476H246.324C247.691 130.476 248.799 131.585 248.799 132.952V161.973C248.799 163.113 247.876 164.036 246.736 164.036C245.597 164.036 244.673 163.113 244.673 161.973V148.219H237.246C236.638 148.219 236.145 148.712 236.145 149.319C236.145 149.927 236.638 150.42 237.246 150.42H242.472V161.973C242.472 164.328 244.381 166.237 246.736 166.237C249.091 166.237 251 164.328 251 161.973Z" fill="black"/>
<path d="M147.183 124V126.373H122.418V124H147.183Z" fill="black"/>
<path d="M145.374 128.855C146.486 130.626 147.888 133.353 148.31 135.674C148.516 136.808 148.539 138.116 147.875 139.149C147.139 140.293 145.834 140.711 144.288 140.606C142.727 140.5 141.513 139.906 140.84 138.769C140.211 137.705 140.218 136.427 140.43 135.29C140.856 133.003 142.271 130.445 143.392 128.815L144.413 127.328L145.374 128.855ZM144.33 131.798C143.62 133.068 142.991 134.496 142.762 135.725C142.593 136.631 142.682 137.222 142.882 137.561C143.038 137.825 143.401 138.167 144.45 138.239C145.514 138.311 145.787 138.009 145.88 137.865C146.045 137.608 146.149 137.059 145.975 136.098C145.737 134.787 145.072 133.207 144.33 131.798Z" fill="black"/>
<path d="M128.057 136.308V151.108C128.133 152.6 127.922 154.871 127.041 157.05C126.141 159.276 124.484 161.531 121.608 162.61L120.566 159.833C122.436 159.132 123.597 157.655 124.291 155.939C124.993 154.202 125.157 152.35 125.093 151.221L125.091 151.179V136.308H128.057ZM128.057 126.373V128.894H125.091V126.373H128.057Z" fill="black"/>
<path d="M130.501 135.122V131.266H122.494V135.122C122.494 135.777 121.963 136.308 121.307 136.308C120.652 136.308 120.121 135.777 120.121 135.122V128.894H132.874V135.122C132.874 135.777 132.343 136.308 131.688 136.308C131.033 136.308 130.501 135.777 130.501 135.122Z" fill="black"/>
<path d="M134.135 144.464V141.053C134.135 138.596 132.143 136.605 129.686 136.605H122.864C120.407 136.605 118.416 138.596 118.416 141.053V144.464C118.416 145.119 117.884 145.65 117.229 145.65C116.574 145.65 116.043 145.119 116.043 144.464V141.053C116.043 137.286 119.097 134.232 122.864 134.232H129.686C133.453 134.232 136.507 137.286 136.507 141.053V144.464C136.507 145.119 135.976 145.65 135.321 145.65C134.666 145.65 134.135 145.119 134.135 144.464Z" fill="black"/>
<path d="M134.812 143.574C135.925 143.575 136.889 144.349 137.129 145.436L140.678 161.536C141.045 163.202 139.777 164.78 138.071 164.78H113.956C112.209 164.78 110.933 163.13 111.372 161.44L115.553 145.35C115.825 144.305 116.769 143.574 117.849 143.574H134.812ZM113.669 162.036C113.62 162.224 113.762 162.407 113.956 162.407H138.071C138.261 162.407 138.402 162.232 138.361 162.047L134.812 145.947H117.849L113.669 162.036Z" fill="black"/>
</svg>
