<svg width="296" height="220" viewBox="0 0 296 220" fill="none" xmlns="http://www.w3.org/2000/svg">
<rect x="67.4054" y="21.1076" width="20.6948" height="12.1957" rx="1.59828" stroke="black" stroke-width="1.80293"/>
<rect x="70.165" y="23.9681" width="5.67715" height="2.67745" stroke="black" stroke-width="1.32215"/>
<path d="M79.25 23.8069H85.7493" stroke="black" stroke-width="1.20195"/>
<path d="M82.25 26.8065L85.7496 26.8065" stroke="black" stroke-width="1.20195"/>
<rect x="69.5039" y="30.2052" width="0.9999" height="0.9999" fill="black"/>
<rect x="72.4961" y="30.2052" width="0.9999" height="0.9999" fill="black"/>
<rect x="75.4961" y="30.2052" width="0.9999" height="0.9999" fill="black"/>
<rect x="78.5" y="30.2052" width="0.9999" height="0.9999" fill="black"/>
<rect x="81.4961" y="30.2052" width="0.9999" height="0.9999" fill="black"/>
<rect x="84.4961" y="30.2052" width="0.9999" height="0.9999" fill="black"/>
<path d="M81.2462 20.4563C81.2462 19.0397 80.4962 16.2067 76.9966 16.2067H48.215M51.2492 21.2062C51.2492 14.8085 44.0617 14.2506 43.0999 20.1712C43.0091 20.7301 43.47 21.2062 44.0362 21.2062H51.2492ZM51.2492 21.2062V52.953C51.2492 58.9027 58.9579 59.4094 59.2834 54.074C59.3198 53.4774 59.7726 52.953 60.3703 52.953H81.2462M55.4987 57.7668L84.4958 57.6328C87.5686 57.6328 88.4031 55.3693 88.5125 53.8316C88.5482 53.3295 88.1182 52.953 87.6147 52.953H81.2462M81.2462 37.0842V52.953" stroke="black" stroke-width="1.80293" stroke-linecap="round"/>
<path d="M54.5 21.7061H62.9991" stroke="black" stroke-width="1.80293"/>
<path d="M54.5 25.7057H62.4992" stroke="black" stroke-width="1.80293"/>
<path d="M54.5 29.7053H63.999" stroke="black" stroke-width="1.80293"/>
<path d="M54.5 33.7048H60.9993" stroke="black" stroke-width="1.80293"/>
<path d="M54.5 37.7045H73.4981" stroke="black" stroke-width="1.80293"/>
<path d="M54.5 41.7041H67.4987" stroke="black" stroke-width="1.80293"/>
<path d="M54.5 45.7036H75.9978" stroke="black" stroke-width="1.80293"/>
<path d="M247.538 34.2407V17.559C247.538 16.6251 246.781 15.868 245.847 15.868H215.691C214.757 15.868 214 16.6251 214 17.559V55.496C214 56.7977 215.409 57.6113 216.536 56.9604L217.664 56.3096C218.187 56.0075 218.832 56.0075 219.355 56.3096L222.173 57.9367C222.696 58.2388 223.341 58.2388 223.864 57.9367L226.683 56.3096C227.206 56.0075 227.85 56.0075 228.374 56.3096L232.037 58.4249" stroke="black" stroke-width="1.93397" stroke-linecap="round"/>
<path d="M221.125 25.0454H233.661" stroke="black" stroke-width="1.93397" stroke-linecap="round"/>
<path d="M221.125 29.4059H236.239" stroke="black" stroke-width="1.93397" stroke-linecap="round"/>
<path d="M221.125 33.9185H230.76" stroke="black" stroke-width="1.93397" stroke-linecap="round"/>
<path d="M235.918 54.086H237.645M259 54.086H257.272M237.645 54.086L239.686 58.4825H255.074L257.272 54.086M237.645 54.086H257.272M237.645 54.086C237.645 47.1772 242.827 44.3508 247.066 44.3508C255.289 44.3508 257.168 50.8409 257.272 54.086" stroke="black" stroke-width="1.93397" stroke-linecap="round"/>
<circle cx="247.198" cy="41.332" r="1.93397" stroke="black" stroke-width="1.93397" stroke-linecap="round"/>
<path d="M224.003 39.1738V41.2067H222.996V39.1738H224.003ZM223.86 50.2767V52.1125H222.854V50.2767H223.86ZM224.383 48.0602C224.383 47.8064 224.345 47.5865 224.268 47.4007C224.195 47.2149 224.077 47.0471 223.914 46.8976C223.751 46.7435 223.533 46.6029 223.262 46.476C222.767 46.2585 222.332 46.0205 221.956 45.7621C221.584 45.5037 221.297 45.1842 221.093 44.8034C220.889 44.4227 220.787 43.9445 220.787 43.3688C220.787 42.8022 220.898 42.315 221.12 41.907C221.342 41.4945 221.652 41.1773 222.051 40.9551C222.455 40.7285 222.919 40.6152 223.445 40.6152C223.849 40.6152 224.213 40.6877 224.54 40.8328C224.871 40.9733 225.154 41.1795 225.39 41.4515C225.625 41.7234 225.804 42.0589 225.927 42.4578C226.054 42.8521 226.117 43.3054 226.117 43.8176H224.377C224.377 43.5411 224.354 43.2963 224.309 43.0833C224.263 42.8657 224.198 42.6844 224.111 42.5393C224.03 42.3898 223.93 42.2764 223.812 42.1994C223.699 42.1223 223.57 42.0838 223.425 42.0838C223.216 42.0838 223.046 42.1405 222.915 42.2538C222.783 42.3626 222.684 42.5144 222.616 42.7093C222.552 42.8997 222.52 43.1173 222.52 43.362C222.52 43.5977 222.557 43.8062 222.629 43.9875C222.706 44.1689 222.829 44.3343 222.996 44.4839C223.169 44.6289 223.393 44.7762 223.669 44.9258C224.168 45.1479 224.601 45.3904 224.968 45.6533C225.335 45.9117 225.619 46.2313 225.818 46.612C226.022 46.9882 226.124 47.4664 226.124 48.0466C226.124 48.6359 226.006 49.1367 225.77 49.5492C225.539 49.9572 225.215 50.2677 224.798 50.4807C224.386 50.6937 223.898 50.8003 223.336 50.8003C222.987 50.8003 222.643 50.7459 222.303 50.6371C221.963 50.5283 221.652 50.3492 221.371 50.0999C221.095 49.8506 220.873 49.522 220.705 49.1141C220.542 48.7016 220.46 48.1939 220.46 47.5911H222.208C222.208 47.931 222.239 48.2121 222.303 48.4342C222.366 48.6563 222.45 48.833 222.554 48.9645C222.663 49.0959 222.786 49.1911 222.922 49.2501C223.058 49.3044 223.196 49.3316 223.336 49.3316C223.572 49.3316 223.767 49.2773 223.921 49.1685C224.075 49.0551 224.191 48.9056 224.268 48.7197C224.345 48.5294 224.383 48.3095 224.383 48.0602Z" fill="black"/>
<circle cx="213.237" cy="185.815" r="6.27732" stroke="black" stroke-width="1.91858"/>
<path d="M210.754 186.642L214.062 181.68V184.988H215.509L212.408 189.744V186.642H210.754Z" fill="black"/>
<path d="M213.238 178.785V175.27C213.238 172.583 214.562 171.549 217.373 171.549H221.095M247.474 171.549H221.095M213.238 192.845V201.007C213.238 201.667 213.889 202.13 214.513 201.913L217.597 200.84C217.85 200.752 218.128 200.773 218.364 200.899L220.61 202.097C220.91 202.257 221.274 202.246 221.564 202.068L223.28 201.011C223.589 200.822 223.977 200.822 224.286 201.011L225.986 202.058C226.285 202.242 226.66 202.248 226.965 202.074L228.89 200.974C229.185 200.805 229.547 200.805 229.842 200.974L231.745 202.062C232.061 202.242 232.451 202.229 232.754 202.027L234.185 201.073C234.519 200.85 234.957 200.859 235.282 201.095L236.514 201.991C236.819 202.213 237.226 202.236 237.554 202.048L239.416 200.984C239.721 200.81 240.096 200.816 240.395 201L242.023 202.002C242.368 202.214 242.809 202.187 243.125 201.934L244.306 200.99C244.533 200.808 244.666 200.532 244.666 200.241V182.84M221.095 171.549V167.959C221.095 167.429 221.525 167 222.054 167H260.041C260.57 167 261 167.429 261 167.959V178.579C261 181.468 258.895 182.917 256.865 182.84M256.865 182.84C254.972 182.769 253.143 181.372 253.143 178.579V175.477C253.35 170.308 244.666 169.688 244.666 175.477V182.84M256.865 182.84H244.666" stroke="black" stroke-width="1.91858"/>
<path d="M223.369 178.165H218.82" stroke="black" stroke-width="1.91858"/>
<path d="M239.493 178.165H225.434" stroke="black" stroke-width="1.91858"/>
<path d="M239.497 183.127L222.129 183.127" stroke="black" stroke-width="1.91858"/>
<path d="M239.496 193.465L218.82 193.465" stroke="black" stroke-width="1.91858"/>
<path d="M239.493 188.09L230.809 188.09" stroke="black" stroke-width="1.91858"/>
<path d="M228.745 188.09L222.129 188.09" stroke="black" stroke-width="1.91858"/>
<path d="M135.074 46.8748V20.5933C135.074 19.2455 135.883 16.55 139.118 16.55H164.894M162.367 31.7124V20.5933C162.367 14.5283 171.969 14.5283 171.969 20.5933V27.1636H166.41" stroke="black" stroke-width="1.88733" stroke-linecap="round"/>
<path d="M144.174 51.4236H130.022C129.854 53.9507 130.523 59.0048 136.59 59.0048H147.207" stroke="black" stroke-width="1.88733" stroke-linecap="round"/>
<circle cx="155.797" cy="50.918" r="8.15378" stroke="black" stroke-width="1.88733" stroke-linecap="round"/>
<path d="M155.441 56.5675V44.4373H156.218V56.5675H155.441ZM157.502 48.4412C157.464 48.059 157.302 47.7621 157.014 47.5504C156.727 47.3388 156.337 47.233 155.844 47.233C155.509 47.233 155.226 47.2803 154.996 47.3751C154.765 47.4667 154.588 47.5947 154.465 47.7589C154.345 47.9232 154.285 48.1096 154.285 48.318C154.279 48.4918 154.315 48.6434 154.394 48.7729C154.476 48.9024 154.588 49.0146 154.73 49.1093C154.872 49.201 155.037 49.2815 155.223 49.351C155.409 49.4173 155.609 49.4742 155.82 49.5216L156.692 49.7301C157.115 49.8248 157.504 49.9512 157.858 50.1091C158.211 50.2671 158.518 50.4614 158.777 50.692C159.036 50.9226 159.236 51.1942 159.379 51.507C159.524 51.8197 159.598 52.1782 159.601 52.5826C159.598 53.1764 159.447 53.6913 159.146 54.1273C158.85 54.56 158.42 54.8965 157.858 55.1365C157.299 55.3734 156.624 55.4919 155.834 55.4919C155.051 55.4919 154.369 55.3719 153.787 55.1318C153.209 54.8917 152.758 54.5363 152.432 54.0657C152.11 53.5918 151.941 53.0059 151.925 52.3077H153.911C153.933 52.6331 154.026 52.9048 154.19 53.1227C154.358 53.3375 154.58 53.5002 154.858 53.6108C155.139 53.7182 155.457 53.7719 155.811 53.7719C156.158 53.7719 156.46 53.7213 156.716 53.6203C156.975 53.5192 157.175 53.3786 157.317 53.1985C157.46 53.0185 157.531 52.8116 157.531 52.5778C157.531 52.3599 157.466 52.1766 157.336 52.0282C157.21 51.8797 157.024 51.7533 156.777 51.6491C156.534 51.5449 156.236 51.4501 155.882 51.3648L154.825 51.0995C154.007 50.9004 153.361 50.5893 152.887 50.166C152.413 49.7427 152.178 49.1725 152.181 48.4555C152.178 47.8679 152.334 47.3546 152.65 46.9155C152.969 46.4764 153.407 46.1337 153.963 45.8873C154.519 45.6409 155.15 45.5177 155.858 45.5177C156.578 45.5177 157.207 45.6409 157.744 45.8873C158.284 46.1337 158.704 46.4764 159.004 46.9155C159.304 47.3546 159.459 47.8632 159.469 48.4412H157.502Z" fill="black"/>
<path d="M167.924 34.6775C169.763 34.6775 171.381 35.0522 172.505 35.614C173.685 36.2041 174.056 36.8452 174.056 37.2722C174.056 37.6992 173.685 38.3395 172.505 38.9294C171.381 39.4913 169.763 39.8659 167.924 39.866C166.085 39.866 164.466 39.4913 163.342 38.9294C162.162 38.3395 161.791 37.6991 161.791 37.2722C161.791 36.8453 162.162 36.2041 163.342 35.614C164.466 35.0522 166.085 34.6775 167.924 34.6775Z" stroke="black" stroke-width="1.88733" stroke-linecap="round"/>
<path d="M174.499 41.3152V47.3801M174.499 47.3801C173.657 48.054 171.062 49.1996 167.423 48.391M174.499 47.3801V54.9613C174.162 55.6352 172.275 56.8819 167.423 56.4776M161.773 37.7488V41.3152" stroke="black" stroke-width="1.88733" stroke-linecap="round"/>
<path d="M171.97 43.8423C171.128 44.3477 168.534 45.0553 164.895 43.8423" stroke="black" stroke-width="1.88733" stroke-linecap="round"/>
<path d="M171.463 52.4342C170.789 52.6027 168.936 52.8385 166.914 52.4342" stroke="black" stroke-width="1.88733" stroke-linecap="round"/>
<path d="M153.774 35.7557H139.117" stroke="black" stroke-width="1.88733" stroke-linecap="round"/>
<path d="M148.215 40.8098H139.117" stroke="black" stroke-width="1.88733" stroke-linecap="round"/>
<path d="M144.171 46.8748H139.117" stroke="black" stroke-width="1.88733" stroke-linecap="round"/>
<path d="M149.153 29.3771V28.7568C149.153 28.259 149.26 27.7996 149.475 27.3784C149.693 26.9572 150.009 26.6184 150.422 26.3618C150.836 26.1053 151.339 25.977 151.933 25.977C152.541 25.977 153.053 26.1034 153.466 26.3561C153.884 26.6088 154.199 26.9457 154.414 27.3669C154.628 27.7881 154.735 28.2514 154.735 28.7568V29.3771C154.735 29.8748 154.626 30.3343 154.408 30.7555C154.194 31.1767 153.878 31.5155 153.46 31.772C153.043 32.0286 152.534 32.1569 151.933 32.1569C151.332 32.1569 150.824 32.0286 150.411 31.772C149.997 31.5155 149.683 31.1767 149.469 30.7555C149.258 30.3343 149.153 29.8748 149.153 29.3771ZM151.152 28.7568V29.3771C151.152 29.5953 151.205 29.8117 151.312 30.0261C151.423 30.2367 151.63 30.342 151.933 30.342C152.25 30.342 152.459 30.2386 152.559 30.0318C152.662 29.8251 152.714 29.6068 152.714 29.3771V28.7568C152.714 28.5271 152.666 28.305 152.57 28.0906C152.474 27.8762 152.262 27.7689 151.933 27.7689C151.63 27.7689 151.423 27.8762 151.312 28.0906C151.205 28.305 151.152 28.5271 151.152 28.7568ZM142.996 22.6459V22.0256C142.996 21.5202 143.105 21.0569 143.323 20.6357C143.545 20.2145 143.863 19.8776 144.277 19.6249C144.69 19.3722 145.19 19.2458 145.776 19.2458C146.385 19.2458 146.896 19.3722 147.309 19.6249C147.727 19.8776 148.043 20.2145 148.257 20.6357C148.471 21.0569 148.579 21.5202 148.579 22.0256V22.6459C148.579 23.1513 148.469 23.6127 148.251 24.03C148.037 24.4474 147.721 24.7805 147.304 25.0294C146.886 25.2783 146.377 25.4027 145.776 25.4027C145.175 25.4027 144.667 25.2763 144.254 25.0236C143.84 24.7709 143.526 24.4359 143.312 24.0185C143.101 23.6012 142.996 23.1436 142.996 22.6459ZM145.018 22.0256V22.6459C145.018 22.8756 145.071 23.0939 145.179 23.3006C145.286 23.5074 145.485 23.6108 145.776 23.6108C146.094 23.6108 146.302 23.5074 146.402 23.3006C146.505 23.0939 146.557 22.8756 146.557 22.6459V22.0256C146.557 21.7959 146.509 21.5738 146.413 21.3594C146.318 21.145 146.105 21.0378 145.776 21.0378C145.473 21.0378 145.27 21.1488 145.167 21.3709C145.067 21.5891 145.018 21.8074 145.018 22.0256ZM143.972 31.5825L152.059 19.8202H153.69L145.604 31.5825H143.972Z" fill="black"/>
<path d="M69.4883 106.193V91.0936C69.4883 89.2956 70.5894 88.1399 72.0049 87.6265M74.8811 100.441C76.8944 100.441 78.1167 99.003 78.1167 97.2054V91.0936C78.1167 87.8584 74.5519 86.7027 72.0049 87.6265M72.0049 87.6265H51.5113C48.6351 87.6265 45.0023 89.4398 45.0023 94.3293L45.0001 129.576C45 130.072 45.5151 130.401 45.9648 130.191L47.7582 129.357C47.9647 129.26 48.2056 129.274 48.3997 129.394L50.088 130.431C50.2985 130.56 50.5628 130.565 50.7777 130.443L52.6288 129.394C52.8378 129.275 53.0939 129.276 53.302 129.396L55.4625 130.641" stroke="black" stroke-width="2.03528" stroke-linecap="round"/>
<rect x="62.588" y="113.323" width="30.3213" height="16.6597" rx="1.01764" stroke="black" stroke-width="2.03528" stroke-linecap="round"/>
<path d="M51.843 105.349V93.5828H52.5968V105.349H51.843ZM53.8424 97.4665C53.8056 97.0958 53.6478 96.8077 53.369 96.6024C53.0901 96.3972 52.7117 96.2945 52.2337 96.2945C51.9089 96.2945 51.6347 96.3405 51.411 96.4324C51.1873 96.5212 51.0157 96.6453 50.8962 96.8047C50.7798 96.964 50.7216 97.1448 50.7216 97.347C50.7155 97.5155 50.7507 97.6626 50.8273 97.7882C50.907 97.9139 51.0157 98.0226 51.1536 98.1146C51.2915 98.2034 51.4508 98.2816 51.6316 98.349C51.8124 98.4133 52.0054 98.4685 52.2107 98.5144L53.0564 98.7167C53.467 98.8086 53.8439 98.9311 54.1871 99.0843C54.5302 99.2375 54.8275 99.426 55.0787 99.6497C55.33 99.8733 55.5245 100.137 55.6624 100.44C55.8034 100.744 55.8754 101.091 55.8784 101.484C55.8754 102.06 55.7283 102.559 55.4372 102.982C55.1492 103.402 54.7325 103.728 54.1871 103.961C53.6447 104.191 52.9905 104.306 52.2245 104.306C51.4646 104.306 50.8028 104.189 50.239 103.956C49.6783 103.723 49.2401 103.379 48.9245 102.922C48.612 102.462 48.4481 101.894 48.4327 101.217H50.3585C50.38 101.533 50.4703 101.796 50.6297 102.007C50.7921 102.216 51.0081 102.374 51.2777 102.481C51.5504 102.585 51.8584 102.637 52.2015 102.637C52.5386 102.637 52.8312 102.588 53.0794 102.49C53.3307 102.392 53.5252 102.256 53.6631 102.081C53.801 101.906 53.8699 101.706 53.8699 101.479C53.8699 101.267 53.8071 101.09 53.6815 100.946C53.5589 100.802 53.3781 100.679 53.1392 100.578C52.9032 100.477 52.6137 100.385 52.2705 100.302L51.2456 100.045C50.452 99.8519 49.8254 99.5501 49.3657 99.1395C48.9061 98.7289 48.6779 98.1758 48.6809 97.4803C48.6779 96.9104 48.8295 96.4125 49.1359 95.9866C49.4454 95.5607 49.8698 95.2282 50.4091 94.9892C50.9483 94.7502 51.5612 94.6307 52.2475 94.6307C52.9461 94.6307 53.5559 94.7502 54.0768 94.9892C54.6007 95.2282 55.0082 95.5607 55.2993 95.9866C55.5904 96.4125 55.7406 96.9058 55.7497 97.4665H53.8424Z" fill="black"/>
<path d="M65.3546 106.831H56.543" stroke="black" stroke-width="2.03528" stroke-linecap="round"/>
<path d="M58.7035 115.9H47.918" stroke="black" stroke-width="2.03528" stroke-linecap="round"/>
<path d="M58.7035 123.81H47.918" stroke="black" stroke-width="2.03528" stroke-linecap="round"/>
<path d="M84.765 116.491H71.0484C70.3415 119.586 68.3649 119.844 67.3906 120.149V123.807C70.1339 124.111 70.6703 125.832 71.0105 126.986H84.7271C85.0319 124.243 87.1069 123.807 88.4227 123.807V120.149C85.6794 120.149 84.7271 118.271 84.765 116.491Z" stroke="black" stroke-width="1.72559" stroke-linecap="round"/>
<circle cx="78.1297" cy="121.805" r="2.50491" stroke="black" stroke-width="1.54651" stroke-linecap="round"/>
<circle cx="136.98" cy="165.98" r="9.12281" stroke="black" stroke-width="1.71408" stroke-linecap="round"/>
<path d="M148.386 161.228H166.682C169.296 161.228 170.959 162.891 170.959 165.932V197.583M170.959 197.583L167.019 195.454C166.81 195.341 166.557 195.345 166.35 195.464L163.023 197.385C162.811 197.507 162.549 197.507 162.337 197.385L158.496 195.167C158.284 195.044 158.022 195.044 157.81 195.167L153.969 197.385C153.756 197.507 153.495 197.507 153.283 197.385L150.127 195.563C149.67 195.299 149.099 195.629 149.099 196.156V199.246C149.099 205.899 140.782 205.899 140.782 199.246V195.272M170.959 197.583L173.941 195.654C174.397 195.358 174.999 195.686 174.999 196.229V199.721C174.999 202.81 173.335 204.234 170.484 204.234H144.821M140.782 177.148V195.272M140.782 195.272L137.143 191.633C136.882 191.373 136.463 191.364 136.193 191.614L133.377 194.211C132.938 194.616 132.227 194.305 132.227 193.707V177.148" stroke="black" stroke-width="1.71408" stroke-linecap="round"/>
<path d="M133.368 166.322L138.18 160.673C138.23 160.614 138.326 160.65 138.326 160.727V164.609C138.326 164.646 138.351 164.679 138.386 164.689L141.277 165.515C141.335 165.532 141.357 165.602 141.319 165.648L136.498 171.517C136.448 171.577 136.35 171.542 136.35 171.464V167.154C136.35 167.114 136.323 167.081 136.285 167.072L133.414 166.457C133.352 166.444 133.327 166.37 133.368 166.322Z" stroke="black" stroke-width="1.58346" stroke-linecap="round"/>
<path d="M155.598 176.542V166.173H156.262V176.542H155.598ZM157.514 169.49C157.476 169.136 157.316 168.861 157.036 168.664C156.758 168.467 156.396 168.368 155.95 168.368C155.637 168.368 155.368 168.415 155.144 168.51C154.92 168.604 154.749 168.733 154.63 168.895C154.511 169.057 154.45 169.242 154.448 169.45C154.448 169.622 154.487 169.772 154.565 169.899C154.646 170.026 154.755 170.134 154.893 170.223C155.031 170.31 155.183 170.383 155.351 170.442C155.518 170.501 155.687 170.551 155.857 170.592L156.635 170.786C156.948 170.859 157.249 170.958 157.538 171.082C157.83 171.206 158.09 171.363 158.32 171.552C158.552 171.741 158.735 171.969 158.87 172.236C159.005 172.504 159.073 172.817 159.073 173.176C159.073 173.662 158.949 174.09 158.7 174.46C158.452 174.827 158.093 175.115 157.623 175.322C157.156 175.528 156.59 175.63 155.926 175.63C155.281 175.63 154.72 175.53 154.245 175.331C153.773 175.131 153.403 174.839 153.135 174.456C152.871 174.072 152.728 173.605 152.706 173.054H154.184C154.206 173.343 154.295 173.584 154.452 173.775C154.608 173.967 154.812 174.11 155.063 174.205C155.317 174.299 155.601 174.346 155.914 174.346C156.24 174.346 156.527 174.298 156.772 174.201C157.021 174.101 157.215 173.963 157.356 173.787C157.496 173.609 157.568 173.401 157.57 173.164C157.568 172.948 157.504 172.769 157.38 172.629C157.256 172.486 157.082 172.367 156.857 172.273C156.636 172.175 156.377 172.089 156.08 172.013L155.136 171.77C154.453 171.595 153.913 171.329 153.516 170.973C153.122 170.613 152.925 170.137 152.925 169.543C152.925 169.054 153.057 168.626 153.322 168.259C153.589 167.892 153.952 167.607 154.411 167.404C154.87 167.199 155.39 167.096 155.97 167.096C156.559 167.096 157.075 167.199 157.518 167.404C157.963 167.607 158.313 167.889 158.567 168.251C158.82 168.61 158.951 169.023 158.96 169.49H157.514Z" fill="black"/>
<path d="M153.055 181.187H165.731" stroke="black" stroke-width="1.71408" stroke-linecap="round"/>
<path d="M145.535 181.187H149.575" stroke="black" stroke-width="1.71408" stroke-linecap="round"/>
<path d="M153.055 185.94H165.731" stroke="black" stroke-width="1.71408" stroke-linecap="round"/>
<path d="M145.535 185.94H149.575" stroke="black" stroke-width="1.71408" stroke-linecap="round"/>
<path d="M153.055 190.692H165.731" stroke="black" stroke-width="1.71408" stroke-linecap="round"/>
<path d="M145.535 190.692H149.575" stroke="black" stroke-width="1.71408" stroke-linecap="round"/>
<path d="M251.723 119.193H258.343C258.897 125.099 255.426 127.509 252.367 126.911M213 88L242.585 88C247.731 88 248.052 89.6079 248.052 92.5021V120.801C248.053 124.364 250.096 126.467 252.367 126.911M213 88C214.785 88 216.859 89.0291 216.859 93.1453V120.801C216.859 123.374 217.502 126.911 222.647 126.911H252.367M213 88C210.105 88 208.497 90.5726 209.141 97.3258H213.389" stroke="black" stroke-width="1.75576" stroke-linecap="round"/>
<path d="M242.587 93.4668H224.578" stroke="black" stroke-width="1.75576" stroke-linecap="round"/>
<path d="M242.587 97.6475H224.578" stroke="black" stroke-width="1.75576" stroke-linecap="round"/>
<path d="M242.587 101.506H224.578" stroke="black" stroke-width="1.75576" stroke-linecap="round"/>
<path d="M232.296 105.365H224.578" stroke="black" stroke-width="1.75576" stroke-linecap="round"/>
<circle cx="221.706" cy="105.39" r="1.00294" fill="black"/>
<circle cx="221.706" cy="101.293" r="1.00294" fill="black"/>
<circle cx="221.706" cy="97.7816" r="1.00294" fill="black"/>
<circle cx="221.706" cy="93.6848" r="1.00294" fill="black"/>
<path d="M223.905 120.277V109.752H224.58V120.277H223.905ZM225.694 113.226C225.661 112.895 225.52 112.637 225.27 112.453C225.021 112.27 224.682 112.178 224.255 112.178C223.964 112.178 223.719 112.219 223.519 112.301C223.319 112.381 223.165 112.492 223.059 112.634C222.954 112.777 222.902 112.938 222.902 113.119C222.897 113.27 222.928 113.402 222.997 113.514C223.068 113.626 223.165 113.724 223.289 113.806C223.412 113.885 223.555 113.955 223.716 114.016C223.878 114.073 224.051 114.122 224.234 114.164L224.991 114.344C225.358 114.427 225.695 114.536 226.002 114.673C226.309 114.81 226.575 114.979 226.8 115.179C227.024 115.379 227.198 115.615 227.322 115.886C227.448 116.157 227.512 116.469 227.515 116.819C227.512 117.335 227.381 117.781 227.12 118.16C226.863 118.535 226.49 118.827 226.002 119.035C225.517 119.241 224.932 119.344 224.247 119.344C223.567 119.344 222.975 119.239 222.471 119.031C221.969 118.823 221.577 118.515 221.295 118.106C221.015 117.695 220.869 117.187 220.855 116.581H222.578C222.597 116.863 222.678 117.099 222.82 117.288C222.965 117.474 223.159 117.616 223.4 117.711C223.644 117.805 223.919 117.851 224.226 117.851C224.528 117.851 224.789 117.807 225.011 117.72C225.236 117.632 225.41 117.51 225.533 117.354C225.657 117.198 225.718 117.018 225.718 116.815C225.718 116.626 225.662 116.467 225.55 116.338C225.44 116.21 225.279 116.1 225.065 116.009C224.854 115.919 224.595 115.837 224.288 115.763L223.371 115.533C222.661 115.36 222.101 115.09 221.69 114.723C221.278 114.355 221.074 113.861 221.077 113.239C221.074 112.729 221.21 112.283 221.484 111.902C221.761 111.521 222.14 111.224 222.623 111.01C223.105 110.797 223.653 110.69 224.267 110.69C224.892 110.69 225.438 110.797 225.903 111.01C226.372 111.224 226.737 111.521 226.997 111.902C227.257 112.283 227.392 112.725 227.4 113.226H225.694Z" fill="black"/>
<path d="M242.359 109.224V117.264" stroke="black" stroke-width="1.75576" stroke-linecap="round"/>
<path d="M238.848 109.224V118.872" stroke="black" stroke-width="1.75576" stroke-linecap="round"/>
<path d="M235.336 109.224V117.264" stroke="black" stroke-width="1.75576" stroke-linecap="round"/>
<path d="M231.824 109.224V118.55" stroke="black" stroke-width="1.75576" stroke-linecap="round"/>
<path d="M133.086 100.879V128.582C133.086 129.131 133.735 129.423 134.146 129.058L136.167 127.261C136.384 127.069 136.702 127.047 136.943 127.207L140.723 129.727C140.964 129.888 141.283 129.866 141.5 129.674L144.198 127.275C144.422 127.076 144.753 127.06 144.995 127.236L148.403 129.714C148.635 129.883 148.951 129.876 149.175 129.697L152.208 127.27C152.45 127.076 152.797 127.085 153.029 127.292L155.693 129.66C155.917 129.858 156.248 129.875 156.49 129.699L159.898 127.221C160.13 127.052 160.446 127.059 160.67 127.238L163.088 129.172C163.505 129.506 164.122 129.209 164.122 128.675V89.2653C164.122 88.7919 163.624 88.484 163.201 88.6957L160.563 90.0148C160.391 90.1008 160.189 90.1045 160.014 90.025L156.368 88.3677C156.184 88.2841 155.972 88.2927 155.795 88.3907L152.921 89.9876C152.737 90.0897 152.515 90.0945 152.327 90.0005L149.102 88.3881C148.911 88.2924 148.684 88.2992 148.499 88.4062L147.263 89.1197" stroke="black" stroke-width="1.91046" stroke-linecap="round"/>
<path d="M132.94 87.5136C133.752 86.5223 134.656 85.8242 135.423 85.4741C136.253 85.0954 136.623 85.2353 136.716 85.3108C136.808 85.3863 137.018 85.7216 136.81 86.6102C136.618 87.4314 136.112 88.4554 135.3 89.4467C134.488 90.4378 133.584 91.136 132.817 91.4861C131.987 91.8648 131.616 91.7249 131.524 91.6494C131.432 91.5736 131.222 91.238 131.43 90.35C131.622 89.5288 132.128 88.5047 132.94 87.5136Z" stroke="black" stroke-width="1.91046" stroke-linecap="round"/>
<path d="M137.562 87.2816L139.244 88.683C139.445 88.8508 139.525 89.1266 139.432 89.3717C138.443 91.9837 136.802 93.1849 135.853 93.5633C135.664 93.6386 135.455 93.5873 135.298 93.4572L133.531 91.9846" stroke="black" stroke-width="1.91046" stroke-linecap="round"/>
<path d="M139.582 88.9612C141.597 86.6098 144.952 86.9457 142.941 90.9768C142.377 92.1082 141.676 93.1438 140.921 94.0468M135.215 93.6642C132.32 99.6768 137.267 98.4128 140.921 94.0468M140.921 94.0468L143.272 96.3983" stroke="black" stroke-width="1.91046" stroke-linecap="round"/>
<path d="M142.797 104.709V106.7H141.744V104.709H142.797ZM142.669 115.73V117.545H141.616V115.73H142.669ZM143.411 113.516C143.411 113.26 143.364 113.042 143.27 112.862C143.18 112.682 143.031 112.522 142.824 112.383C142.622 112.243 142.347 112.108 142.001 111.978C141.416 111.753 140.901 111.514 140.455 111.262C140.014 111.006 139.67 110.689 139.423 110.311C139.175 109.928 139.052 109.445 139.052 108.86C139.052 108.302 139.184 107.818 139.45 107.409C139.715 106.999 140.082 106.685 140.55 106.464C141.022 106.239 141.571 106.127 142.197 106.127C142.673 106.127 143.105 106.199 143.492 106.343C143.879 106.482 144.212 106.689 144.491 106.963C144.77 107.233 144.984 107.564 145.132 107.955C145.281 108.347 145.355 108.795 145.355 109.298H143.418C143.418 109.029 143.389 108.79 143.33 108.583C143.272 108.376 143.186 108.203 143.074 108.063C142.966 107.924 142.835 107.821 142.682 107.753C142.529 107.681 142.361 107.645 142.176 107.645C141.902 107.645 141.677 107.699 141.501 107.807C141.326 107.915 141.198 108.061 141.117 108.246C141.04 108.426 141.002 108.633 141.002 108.867C141.002 109.096 141.043 109.296 141.123 109.467C141.209 109.638 141.355 109.796 141.562 109.94C141.769 110.079 142.053 110.223 142.412 110.371C142.997 110.596 143.51 110.839 143.951 111.1C144.392 111.361 144.736 111.681 144.984 112.059C145.231 112.437 145.355 112.918 145.355 113.503C145.355 114.083 145.22 114.578 144.95 114.987C144.68 115.392 144.302 115.703 143.816 115.919C143.33 116.13 142.768 116.236 142.129 116.236C141.715 116.236 141.303 116.182 140.894 116.074C140.485 115.962 140.113 115.782 139.781 115.534C139.448 115.287 139.182 114.958 138.984 114.549C138.786 114.135 138.687 113.627 138.687 113.024H140.631C140.631 113.352 140.674 113.627 140.759 113.847C140.845 114.063 140.957 114.236 141.097 114.367C141.24 114.493 141.402 114.583 141.582 114.637C141.762 114.691 141.945 114.718 142.129 114.718C142.417 114.718 142.653 114.666 142.838 114.562C143.027 114.459 143.168 114.317 143.263 114.137C143.362 113.953 143.411 113.746 143.411 113.516Z" fill="black"/>
<path d="M158.375 98.197H149.945" stroke="black" stroke-width="1.91046"/>
<path d="M158.375 105.861H149.945" stroke="black" stroke-width="1.91046"/>
<path d="M158.375 111.991H149.945" stroke="black" stroke-width="1.91046"/>
<path d="M158.375 118.122H149.945" stroke="black" stroke-width="1.91046"/>
<path d="M169.633 128.467L171.621 126.149C171.805 125.933 172.11 125.866 172.368 125.983L175.089 127.22C175.546 127.428 176.054 127.048 175.982 126.55L170.58 88.7296C170.505 88.2101 169.87 87.9983 169.499 88.3694L167.211 90.658" stroke="black" stroke-width="1.91046" stroke-linecap="round"/>
<path d="M81.1449 177.515C79.6363 171.103 80.7546 165.94 81.8848 163.22C82.1882 162.49 81.8667 161.598 81.1219 161.332L75.1204 159.189C74.7839 159.069 74.412 159.099 74.0997 159.273L70.1041 161.493C69.709 161.712 69.2259 161.7 68.8427 161.46L65.5114 159.378C65.1367 159.144 64.6657 159.127 64.2747 159.332L60.0885 161.536C59.7176 161.731 59.2733 161.726 58.9069 161.522L55.0531 159.381C54.6339 159.148 54.1181 159.178 53.7279 159.456L50.5654 161.716C50.4431 161.804 50.3375 161.911 50.2571 162.038C48.0718 165.489 47.329 171.475 48.6713 177.515C49.9179 183.125 53.8353 194.747 49.1494 202.044C48.688 202.763 48.9244 203.774 49.7146 204.097L53.8452 205.787C54.1766 205.922 54.5505 205.908 54.8708 205.748L58.9534 203.707C59.2947 203.536 59.6955 203.532 60.0404 203.695L64.3256 205.725C64.6897 205.897 65.115 205.883 65.4661 205.685L68.8892 203.76C69.2485 203.557 69.6847 203.547 70.0535 203.731L74.0637 205.736C74.3974 205.903 74.7885 205.911 75.1287 205.758L79.9976 203.568C80.1891 203.482 80.3569 203.349 80.4785 203.177C85.6836 195.848 82.5359 183.427 81.1449 177.515Z" stroke="black" stroke-width="1.86295"/>
<path d="M72.0938 172.513C72.5642 172.584 73.0086 172.259 73.0232 171.784C73.0676 170.335 72.6758 168.899 71.8883 167.666C70.9454 166.191 69.4994 165.107 67.8183 164.616C66.1373 164.125 64.3353 164.261 62.7465 164.998C61.1578 165.734 59.8902 167.022 59.1787 168.622C58.4673 170.223 58.3603 172.027 58.8776 173.7C59.3949 175.373 60.5015 176.801 61.992 177.721C63.4825 178.64 65.2558 178.988 66.9831 178.699C68.4258 178.458 69.7545 177.787 70.8004 176.783C71.1437 176.454 71.0869 175.907 70.719 175.605V175.605C70.3512 175.303 69.8122 175.363 69.4568 175.679C68.6848 176.367 67.7302 176.827 66.6992 177C65.3832 177.22 64.0321 176.955 62.8965 176.254C61.7609 175.554 60.9179 174.465 60.5237 173.191C60.1296 171.916 60.2111 170.542 60.7531 169.322C61.2952 168.103 62.261 167.122 63.4714 166.561C64.6818 165.999 66.0547 165.896 67.3355 166.27C68.6163 166.644 69.718 167.47 70.4363 168.594C70.9991 169.475 71.2967 170.492 71.3035 171.526C71.3066 172.002 71.6233 172.442 72.0938 172.513V172.513Z" fill="black"/>
<path d="M66.2101 167.584V168.951H65.4728V167.584H66.2101ZM66.1167 175.204V176.46H65.3795V175.204H66.1167ZM66.5274 173.66C66.5274 173.486 66.4978 173.339 66.4387 173.221C66.3827 173.103 66.2894 172.999 66.1587 172.909C66.0281 172.818 65.8554 172.73 65.6408 172.643C65.2301 172.481 64.8693 172.313 64.5582 172.139C64.2471 171.961 64.0044 171.74 63.8302 171.476C63.656 171.212 63.5689 170.872 63.5689 170.459C63.5689 170.073 63.6622 169.739 63.8489 169.455C64.0355 169.169 64.2937 168.948 64.6235 168.793C64.9564 168.637 65.3406 168.559 65.7761 168.559C66.109 168.559 66.4123 168.609 66.686 168.709C66.9598 168.808 67.1947 168.951 67.3907 169.138C67.5898 169.325 67.7422 169.555 67.848 169.829C67.9538 170.099 68.0066 170.409 68.0066 170.757H66.5461C66.5461 170.574 66.5274 170.415 66.4901 170.281C66.4527 170.145 66.3983 170.033 66.3267 169.945C66.2552 169.855 66.1712 169.788 66.0747 169.745C65.9814 169.701 65.8756 169.679 65.7574 169.679C65.5863 169.679 65.4463 169.715 65.3375 169.787C65.2286 169.855 65.1492 169.949 65.0995 170.067C65.0497 170.185 65.0248 170.317 65.0248 170.463C65.0248 170.613 65.0512 170.743 65.1041 170.855C65.1601 170.967 65.2535 171.07 65.3841 171.163C65.5148 171.257 65.6937 171.352 65.9208 171.448C66.3252 171.613 66.6829 171.787 66.994 171.971C67.3051 172.151 67.5478 172.374 67.722 172.638C67.8993 172.899 67.988 173.237 67.988 173.651C67.988 174.055 67.8931 174.399 67.7033 174.682C67.5167 174.965 67.2538 175.181 66.9147 175.33C66.5787 175.477 66.1899 175.55 65.7481 175.55C65.4526 175.55 65.1601 175.512 64.8708 175.438C64.5846 175.36 64.3233 175.234 64.0869 175.06C63.8504 174.886 63.6622 174.654 63.5222 174.365C63.3822 174.075 63.3122 173.721 63.3122 173.301H64.7728C64.7728 173.518 64.7993 173.7 64.8521 173.847C64.9081 173.99 64.9812 174.105 65.0715 174.192C65.1648 174.276 65.269 174.337 65.3841 174.374C65.5023 174.411 65.6237 174.43 65.7481 174.43C65.9254 174.43 66.0716 174.396 66.1867 174.327C66.3018 174.259 66.3874 174.167 66.4434 174.052C66.4994 173.934 66.5274 173.803 66.5274 173.66Z" fill="black"/>
<path d="M54.3672 182.021H77.4399" stroke="black" stroke-width="1.86295"/>
<path d="M54.3672 187.149H77.4399" stroke="black" stroke-width="1.86295"/>
<path d="M54.3672 193.415H77.4399" stroke="black" stroke-width="1.86295"/>
<path d="M54.3672 199.112H77.4399" stroke="black" stroke-width="1.86295"/>
</svg>
