<svg width="260" height="178" viewBox="0 0 260 178" fill="none" xmlns="http://www.w3.org/2000/svg">
<path d="M38.4968 23.456C38.4968 22.226 37.8205 21.3284 36.9152 20.6886C36.1768 20.1667 35.3111 19.8372 34.6194 19.6659V23.456C34.6193 23.6712 34.4449 23.8457 34.2297 23.8457C34.0145 23.8457 33.84 23.6712 33.84 23.456V9.09548C33.84 8.13512 33.4882 7.58508 33.0111 7.29185C32.5108 6.98442 31.7935 6.91018 30.9908 7.08076C29.3725 7.42465 27.674 8.70206 27.2318 10.3602C27.0935 10.8789 27.036 11.4553 27.0907 11.999C27.1587 12.6738 27.3948 13.2623 27.8209 13.6506C28.2373 14.03 28.8918 14.2698 29.912 14.1423C30.1255 14.1156 30.3204 14.2672 30.3471 14.4808C30.3738 14.6943 30.2222 14.8892 30.0087 14.9159C28.8187 15.0646 27.9185 14.7941 27.2957 14.2265C26.7645 13.7423 26.4779 13.0803 26.3588 12.3945C25.2006 12.3318 24.174 12.9462 23.5038 13.9239C22.7771 14.9838 22.4995 16.4351 22.9547 17.7927C23.3324 18.919 24.2252 20.0135 25.8551 20.7741C26.0502 20.8651 26.1347 21.0971 26.0437 21.2921C25.9526 21.4871 25.7206 21.5714 25.5256 21.4804C23.9485 20.7444 22.9432 19.696 22.4133 18.5401C21.6109 19.2108 20.7512 20.2589 20.395 21.5233C20.0147 22.8733 20.1918 24.5253 21.7539 26.3144C22.3242 25.364 23.2116 24.5052 24.3392 23.8901C24.5282 23.7871 24.7649 23.8567 24.868 24.0457C24.971 24.2346 24.9014 24.4713 24.7124 24.5744C22.6761 25.6852 21.6395 27.5874 21.8371 29.1313C21.9346 29.8925 22.3313 30.5942 23.0978 31.1143C23.8722 31.6398 25.0457 31.9932 26.7031 31.9932H27.2216L27.0773 32.4915C26.9263 33.0124 26.8554 33.8596 27.1369 34.6711C27.4113 35.4621 28.0271 36.2441 29.3066 36.6706C29.5108 36.7387 29.6213 36.9594 29.5532 37.1636C29.4852 37.3677 29.2644 37.4781 29.0603 37.4102C27.5453 36.9052 26.752 35.9404 26.4004 34.9266C26.1337 34.1577 26.1255 33.3754 26.2218 32.7627C24.6965 32.7003 23.514 32.3386 22.6602 31.7593C21.7108 31.115 21.1902 30.2156 21.0641 29.2303C20.9729 28.5181 21.088 27.7763 21.3792 27.0618C19.469 25.0088 19.1686 23.0024 19.6448 21.3119C20.0873 19.7412 21.1841 18.4971 22.1327 17.7661C21.7165 16.2421 22.0548 14.659 22.8608 13.4832C23.6338 12.3557 24.8608 11.5743 26.291 11.6115C26.2882 11.1142 26.357 10.6161 26.4788 10.1593C27.0158 8.14549 29.0046 6.70602 30.8287 6.31836C31.7471 6.12318 32.6899 6.17938 33.4193 6.62763C33.8513 6.89311 34.1824 7.28024 34.3864 7.78379C34.8984 6.93398 35.5903 6.40537 36.3804 6.16029C37.4707 5.82212 38.6734 6.04699 39.7192 6.57308C40.7672 7.10027 41.7027 7.95113 42.2693 8.93869C42.7566 9.78814 42.9822 10.7646 42.7341 11.7206C43.823 11.9156 45.088 12.3839 46.0409 13.2543C47.1247 14.2442 47.7705 15.7256 47.342 17.7866C48.2077 18.6426 49.1615 20.0521 49.3668 21.6994C49.5847 23.4473 48.9496 25.3864 46.664 27.1328C46.7304 28.5532 46.2084 31.2952 43.5662 32.6193C43.5932 33.1785 43.5169 33.9227 43.2133 34.632C42.8486 35.4841 42.1522 36.2906 40.9342 36.6386C40.7273 36.6978 40.5116 36.5779 40.4524 36.371C40.3934 36.1641 40.5132 35.9486 40.7201 35.8894C41.6756 35.6164 42.2082 34.9998 42.4968 34.3253C42.7866 33.6482 42.8253 32.9181 42.7716 32.4544C42.4372 31.1479 41.6305 30.5906 41.058 30.0556H38.4983C38.2832 30.0555 38.1086 29.8811 38.1086 29.6659C38.1087 29.4507 38.2832 29.2762 38.4983 29.2762H40.8256V26.561C40.8256 26.3457 41.0001 26.1713 41.2153 26.1713C41.4305 26.1713 41.605 26.3458 41.605 26.561V29.4982C42.066 29.9178 42.937 30.5722 43.3937 31.8293C45.5885 30.6135 45.9779 28.1952 45.8765 27.0306C45.5096 25.9505 45.0491 25.3878 44.6356 25.0778C44.2153 24.7627 43.8061 24.6781 43.4721 24.6153C43.2606 24.5755 43.1213 24.3716 43.1611 24.1601C43.2009 23.9487 43.4045 23.8096 43.616 23.8493C43.9699 23.9159 44.5312 24.0254 45.1032 24.4541C45.5919 24.8205 46.0605 25.3984 46.4405 26.3169C48.3243 24.7768 48.7652 23.1748 48.5933 21.7958C48.4389 20.5577 47.7837 19.4453 47.1027 18.669C46.8349 19.4787 46.4151 20.3645 45.8159 21.3325C45.7026 21.5154 45.4625 21.5718 45.2795 21.4586C45.0966 21.3453 45.04 21.1052 45.1532 20.9222C45.888 19.7353 46.3227 18.7083 46.5349 17.8254C46.9929 15.9203 46.4243 14.66 45.5152 13.8297C44.6564 13.0453 43.4629 12.6202 42.4392 12.4617C41.8966 13.4552 40.7889 14.3058 39.0098 14.8989C38.8056 14.9669 38.5849 14.8564 38.5169 14.6523C38.4489 14.4481 38.5591 14.2274 38.7632 14.1593C40.5851 13.552 41.4958 12.7125 41.8567 11.8825C42.2113 11.0671 42.0757 10.1675 41.5934 9.32661C41.1096 8.48328 40.293 7.73443 39.3688 7.26952C38.4425 6.80357 37.4526 6.64395 36.6112 6.90494C35.8008 7.15634 35.0558 7.82061 34.6194 9.15764V18.8651C35.4164 19.0406 36.465 19.4159 37.365 20.052C38.4001 20.7836 39.2762 21.8916 39.2762 23.456C39.2762 23.6712 39.1017 23.8457 38.8865 23.8457C38.6713 23.8457 38.4969 23.6712 38.4968 23.456Z" fill="black"/>
<path d="M28.961 23.525C29.1373 23.4016 29.3803 23.4444 29.5037 23.6206C29.9835 24.306 30.5062 25.4528 30.4161 26.6256C31.275 26.6396 32.3449 26.8858 33.2079 27.6016C34.2704 28.4829 34.9401 30.0075 34.6165 32.4343C34.5881 32.6476 34.3919 32.7976 34.1786 32.7692C33.9653 32.7407 33.8155 32.5446 33.844 32.3313C34.1413 30.1007 33.5173 28.871 32.7104 28.2016C31.9682 27.586 31.0058 27.3891 30.2585 27.4047C29.9468 28.3223 29.1795 29.13 27.7653 29.6442C27.563 29.7178 27.3393 29.6133 27.2657 29.4111C27.1922 29.2088 27.2967 28.9853 27.4989 28.9118C28.8613 28.4163 29.4099 27.6713 29.5814 26.9417C29.8221 25.9171 29.3549 24.767 28.8654 24.0676C28.742 23.8914 28.7848 23.6484 28.961 23.525Z" fill="black"/>
<path d="M39.4993 38.2381C39.6952 38.1491 39.926 38.2355 40.0151 38.4314C40.1041 38.6273 40.0176 38.8583 39.8217 38.9474L31.2828 42.8287C31.0869 42.9177 30.8558 42.831 30.7668 42.6351C30.6778 42.4392 30.7645 42.2081 30.9604 42.1191L39.4993 38.2381ZM38.7166 34.3596C38.9109 34.267 39.1434 34.3497 39.2359 34.544C39.3284 34.7383 39.246 34.9708 39.0517 35.0634L30.901 38.9446C30.7067 39.0371 30.4742 38.9545 30.3816 38.7602C30.2892 38.5659 30.3718 38.3334 30.5661 38.2408L38.7166 34.3596Z" fill="black"/>
<path d="M38.497 41.6978C38.497 41.4826 38.6715 41.3081 38.8867 41.3081C39.1019 41.3081 39.2764 41.4826 39.2764 41.6978C39.2764 44.3582 38.8091 46.3442 38.0713 47.7108C37.3326 49.079 36.305 49.8508 35.2006 49.9924C34.0955 50.1341 33.0139 49.6315 32.2019 48.6612C31.391 47.6919 30.8356 46.2476 30.735 44.4364C30.723 44.2215 30.8877 44.0375 31.1026 44.0256C31.3175 44.0137 31.5014 44.1781 31.5134 44.393C31.6068 46.0749 32.1188 47.3474 32.7997 48.1611C33.4796 48.9736 34.3144 49.3202 35.1014 49.2193C35.889 49.1183 36.7294 48.5558 37.3855 47.3406C38.0425 46.1237 38.497 44.277 38.497 41.6978Z" fill="black"/>
<path d="M14.4353 21.5137C14.6505 21.5137 14.825 21.6881 14.825 21.9034C14.825 22.1186 14.6505 22.2931 14.4353 22.2931H9.3897C9.17447 22.2931 9 22.1186 9 21.9034C9 21.6881 9.17447 21.5137 9.3897 21.5137H14.4353Z" fill="black"/>
<path d="M54.5647 21.5137C54.3495 21.5137 54.175 21.6881 54.175 21.9034C54.175 22.1186 54.3495 22.2931 54.5647 22.2931H59.6103C59.8255 22.2931 60 22.1186 60 21.9034C60 21.6881 59.8255 21.5137 59.6103 21.5137H54.5647Z" fill="black"/>
<path d="M16.7961 28.1822C16.9726 28.059 17.2155 28.1021 17.3387 28.2786C17.462 28.455 17.4188 28.698 17.2423 28.8212L13.1056 31.71C12.9291 31.8332 12.6862 31.79 12.563 31.6136C12.4397 31.4371 12.4829 31.1942 12.6594 31.071L16.7961 28.1822Z" fill="black"/>
<path d="M52.2039 28.1822C52.0274 28.059 51.7845 28.1021 51.6613 28.2786C51.538 28.455 51.5812 28.698 51.7577 28.8212L55.8944 31.71C56.0709 31.8332 56.3138 31.79 56.437 31.6136C56.5603 31.4371 56.5171 31.1942 56.3406 31.071L52.2039 28.1822Z" fill="black"/>
<path d="M17.5719 15.4069C17.7274 15.5557 17.7329 15.8024 17.5841 15.9579C17.4353 16.1134 17.1886 16.1188 17.0331 15.9701L13.3873 12.4821C13.2318 12.3333 13.2264 12.0866 13.3751 11.9311C13.5239 11.7756 13.7706 11.7701 13.9261 11.9189L17.5719 15.4069Z" fill="black"/>
<path d="M51.4281 15.4069C51.2726 15.5557 51.2671 15.8024 51.4159 15.9579C51.5647 16.1134 51.8114 16.1188 51.9669 15.9701L55.6127 12.4821C55.7682 12.3333 55.7736 12.0866 55.6249 11.9311C55.4761 11.7756 55.2294 11.7701 55.0739 11.9189L51.4281 15.4069Z" fill="black"/>
<path d="M141.737 10.4912L153 19.767V29.3025L148.468 30.9209V36.8662H143.258L146.649 42.7396L145.955 43.1403L141.87 36.0649H147.667V30.3564L152.199 28.7378V20.1447L141.449 11.2926H124.569L114.801 18.5388V20.8501H124.931L130.758 15.6706H135.442V16.472H131.062L125.236 21.6514H114.801V24.2491H128.134L130.724 21.1738H143.212V21.9752H131.097L128.627 24.908L128.507 25.0505H114.801V27.6481H128.197L130.14 30.238H135.442V31.0394H129.739L127.796 28.4495H115.29L121.989 36.0224L131.997 33.7628L143.158 43.9388L142.618 44.5309L131.766 34.6364L121.934 36.8563L121.703 36.9088L114 28.2006V18.1358L124.197 10.57L124.304 10.4912H141.737Z" fill="black"/>
<path d="M139.82 30.3151C139.82 29.3274 139.019 28.5267 138.031 28.5266C137.044 28.5266 136.243 29.3274 136.243 30.3151C136.243 31.3027 137.044 32.1033 138.031 32.1033V32.9047L137.898 32.9013C136.574 32.8342 135.512 31.7724 135.445 30.4481L135.441 30.3151C135.441 28.8848 136.601 27.7252 138.031 27.7252L138.164 27.7286C139.533 27.7979 140.621 28.9295 140.621 30.3151L140.617 30.4481C140.548 31.8165 139.417 32.9046 138.031 32.9047V32.1033C139.019 32.1033 139.819 31.3027 139.82 30.3151Z" fill="black"/>
<path d="M146.941 21.251C146.941 20.2633 146.14 19.4626 145.152 19.4625C144.165 19.4625 143.364 20.2633 143.364 21.251C143.364 22.2387 144.165 23.0392 145.152 23.0392V23.8406L145.019 23.8372C143.695 23.7701 142.633 22.7083 142.566 21.384L142.562 21.251C142.562 19.8207 143.722 18.6611 145.152 18.6611L145.285 18.6645C146.654 18.7338 147.742 19.8654 147.742 21.251L147.739 21.384C147.669 22.7524 146.538 23.8406 145.152 23.8406V23.0392C146.14 23.0392 146.941 22.2386 146.941 21.251Z" fill="black"/>
<path d="M139.175 16.0717C139.175 15.084 138.374 14.2832 137.387 14.2832C136.399 14.2832 135.598 15.084 135.598 16.0717C135.598 17.0593 136.399 17.8599 137.387 17.8599V18.6613L137.253 18.6579C135.929 18.5908 134.867 17.529 134.8 16.2047L134.797 16.0717C134.797 14.6414 135.956 13.4818 137.387 13.4818L137.52 13.4852C138.888 13.5545 139.976 14.686 139.976 16.0717L139.973 16.2047C139.904 17.5731 138.772 18.6612 137.387 18.6613V17.8599C138.374 17.8599 139.175 17.0593 139.175 16.0717Z" fill="black"/>
<path d="M222.287 7.60296C225.226 6.62324 230.304 6.66544 233.455 11.4942C234.019 10.4221 235.005 9.66293 236.152 9.22068C237.577 8.67125 239.283 8.5945 240.859 9.00879C242.437 9.42377 243.914 10.3403 244.843 11.8084C245.718 13.1918 246.078 15.0203 245.632 17.2852C248.704 17.8838 250.865 20.6476 250.993 23.4514C251.062 24.9393 250.558 26.443 249.321 27.634C248.09 28.8198 246.167 29.6634 243.447 29.9164L243.367 29.0613C245.956 28.8205 247.674 28.0285 248.726 27.0156C249.772 26.0078 250.193 24.7495 250.136 23.4908C250.024 21.0518 248.116 18.629 245.435 18.1222C245.11 19.3169 244.572 20.6236 243.783 22.0442L243.032 21.6271C243.876 20.1072 244.41 18.7461 244.698 17.5391C245.245 15.2458 244.904 13.5116 244.117 12.2674C243.326 11.0169 242.051 10.2103 240.641 9.83931C239.227 9.46766 237.706 9.54202 236.461 10.0221C235.218 10.5011 234.282 11.3677 233.946 12.5699L233.664 13.5757L233.157 12.6627C230.332 7.57879 225.414 7.47111 222.572 8.41336C219.251 9.72069 217.596 12.0379 216.973 14.267C216.66 15.3881 216.607 16.4884 216.738 17.4289C216.87 18.3769 217.183 19.1296 217.566 19.5831L216.911 20.1377C216.389 19.5214 216.033 18.5973 215.887 17.5472C215.74 16.4896 215.801 15.2703 216.146 14.0358C216.839 11.5556 218.679 9.01946 222.266 7.61051L222.277 7.6066L222.287 7.60296Z" fill="black"/>
<path d="M216.423 17.0438C214.404 17.9346 213.143 19.1962 212.472 20.5524C211.8 21.9108 211.705 23.3927 212.066 24.7497C212.768 27.3935 215.182 29.5302 218.381 29.3315C219.342 26.417 222.339 24.0665 226.699 24.8694L226.543 25.7139C222.491 24.9675 219.858 27.221 219.12 29.8517C218.678 31.4316 218.919 33.1382 219.936 34.4452C220.948 35.7453 222.777 36.7125 225.634 36.7125C227.608 36.7125 229.953 36.8542 231.801 38.1212C233.684 39.4131 234.95 41.7958 234.95 46.0297H234.091C234.091 41.9686 232.887 39.9074 231.315 38.8292C229.706 37.726 227.607 37.5713 225.634 37.5713C222.578 37.5713 220.469 36.5288 219.258 34.9727C218.181 33.5876 217.854 31.8455 218.159 30.2008C214.646 30.2919 212.011 27.8891 211.236 24.97C210.826 23.4262 210.932 21.7294 211.702 20.1716C212.474 18.6115 213.899 17.2191 216.077 16.2583L216.423 17.0438Z" fill="black"/>
<path d="M242.476 24.2477C243.69 25.4621 244.364 27.6656 243.752 29.5012C243.441 30.4365 242.796 31.268 241.743 31.8074C240.699 32.3425 239.282 32.5754 237.438 32.3846L237.526 31.5306C239.261 31.7102 240.499 31.4801 241.352 31.0431C242.196 30.6105 242.694 29.9607 242.938 29.2297C243.437 27.7324 242.876 25.8623 241.869 24.8549L242.476 24.2477Z" fill="black"/>
<path d="M227.027 20.3262C228.393 18.688 230.904 18.2717 232.6 19.241C233.47 19.7379 234.114 20.5938 234.275 21.7941C234.434 22.9789 234.118 24.4604 233.167 26.2355L232.41 25.8299C233.311 24.1486 233.55 22.8526 233.424 21.9081C233.299 20.9791 232.817 20.3537 232.174 19.9865C230.846 19.2276 228.791 19.5518 227.687 20.8761L227.027 20.3262Z" fill="black"/>
<path d="M121.358 68.9614C125.153 64.9314 131.167 62.5015 140.031 65.034C145.608 66.6276 150.267 71.9416 151.61 78.1402C152.944 84.304 151.002 91.3392 143.506 96.5192L145.57 102.71C145.643 102.931 145.524 103.169 145.303 103.243C145.082 103.317 144.844 103.197 144.77 102.976L142.505 96.181L142.77 96.0021C150.202 90.9974 152.063 84.2156 150.786 78.3185C149.501 72.384 145.041 67.3421 139.799 65.8445C131.217 63.3926 125.536 65.7542 121.971 69.5392C118.376 73.3568 116.893 78.6688 116.843 82.1381C116.84 82.3708 116.648 82.5568 116.415 82.5535C116.183 82.5501 115.997 82.3587 116 82.126C116.053 78.4854 117.594 72.9587 121.358 68.9614Z" fill="black"/>
<path d="M120.035 79.5568C120.092 79.3311 120.321 79.1939 120.546 79.2503C120.772 79.3068 120.909 79.5355 120.853 79.7612C120.71 80.3329 120.591 81.3331 120.716 82.424C120.841 83.5142 121.206 84.6597 121.998 85.5642L122.238 85.8388L118.887 89.7478H122.026L120.48 93.1481H123.226C123.459 93.1481 123.648 93.3368 123.648 93.5695C123.648 93.8023 123.459 93.991 123.226 93.991H119.171L120.717 90.5907H117.055L121.131 85.8344C120.355 84.8161 120.004 83.6139 119.879 82.5203C119.741 81.3237 119.869 80.2216 120.035 79.5568ZM120.239 75.5812C120.443 75.4681 120.699 75.5415 120.812 75.745C122.319 78.456 127.301 84.3503 135.063 86.0482C135.29 86.0979 135.434 86.3226 135.385 86.55C135.335 86.7773 135.11 86.9213 134.883 86.8716C126.817 85.1072 121.661 79.0075 120.076 76.1543C119.963 75.9509 120.036 75.6942 120.239 75.5812Z" fill="black"/>
<path d="M130.53 103.771V100.256C127.543 100.94 124.352 100.936 122.712 100.79L122.327 100.756V96.984L120.332 96.4498C120.107 96.3895 119.974 96.1582 120.034 95.9334C120.094 95.7086 120.326 95.5752 120.55 95.6354L123.17 96.3375V99.9793C124.94 100.094 128.05 100.038 130.845 99.3123C131.93 99.0306 132.956 98.6512 133.834 98.1498C134.036 98.0343 134.293 98.1044 134.408 98.3064C134.524 98.5085 134.454 98.766 134.252 98.8815C133.381 99.3791 132.394 99.7567 131.373 100.042V103.771C131.373 104.003 131.184 104.192 130.951 104.192C130.719 104.192 130.53 104.003 130.53 103.771Z" fill="black"/>
<path d="M127.429 68.1071C129.471 67.1436 132.07 66.7123 134.737 67.0461C140.016 67.707 145.552 71.3632 147.648 79.7778L147.749 80.1948L147.751 80.208C147.988 81.6335 147.777 82.6634 147.014 83.1732C146.647 83.4183 146.205 83.5006 145.752 83.4862C145.298 83.4717 144.804 83.3601 144.301 83.1877C142.365 82.5251 140.007 80.8673 138.526 79.4765C131.671 80.0657 127.735 79.308 125.581 77.8855C124.479 77.1582 123.848 76.2596 123.542 75.2998C123.239 74.3488 123.265 73.3664 123.427 72.4738L123.429 72.4647L123.431 72.4559C123.856 70.5851 125.394 69.0669 127.429 68.1071ZM134.632 67.8824C132.114 67.5671 129.677 67.9782 127.788 68.8693C125.894 69.763 124.604 71.1094 124.254 72.6362C124.11 73.4401 124.099 74.2696 124.345 75.0441C124.59 75.8134 125.099 76.5571 126.045 77.1822C127.967 78.4513 131.706 79.2377 138.642 78.6211L138.834 78.604L138.972 78.7374C140.389 80.1033 142.733 81.76 144.574 82.3901C145.03 82.5461 145.436 82.6327 145.778 82.6436C146.12 82.6545 146.37 82.5892 146.546 82.4721C146.866 82.2581 147.143 81.7073 146.922 80.3617C144.981 72.0081 139.638 68.5092 134.632 67.8824Z" fill="black"/>
<path d="M36.5304 97.2465C37.0342 97.5899 37.7457 98.2581 38.295 99.1717C38.8468 100.09 39.2453 101.274 39.0821 102.634L38.3329 102.544C38.4715 101.389 38.1361 100.372 37.6483 99.5603C37.158 98.7448 36.524 98.1552 36.1055 97.8699L36.5304 97.2465Z" fill="black"/>
<path d="M49.6172 91.4242C47.9187 95.2131 44.9972 96.5864 42.2828 96.7402C40.9351 96.8166 39.6415 96.5931 38.5737 96.2249C37.5163 95.8602 36.6401 95.3393 36.1602 94.7875L36.7295 94.2923C37.0881 94.7046 37.8258 95.1688 38.8199 95.5116C39.8037 95.8508 40.9992 96.057 42.2401 95.9866C44.7029 95.847 47.357 94.6211 48.9284 91.1157L49.6172 91.4242Z" fill="black"/>
<path d="M37.2394 91.5334C38.1195 92.6048 40.9733 94.5285 45.1313 93.1748L45.3652 93.8925C40.8707 95.3558 37.7046 93.2886 36.6562 92.0124L37.2394 91.5334Z" fill="black"/>
<path d="M32.4863 93.839C32.6426 94.0929 32.9369 94.5077 33.2991 94.905C33.6668 95.3082 34.0752 95.6604 34.4563 95.8298L34.1498 96.5196C33.6255 96.2866 33.1326 95.8424 32.7415 95.4135C32.345 94.9787 32.0228 94.5255 31.8438 94.2345L32.4863 93.839Z" fill="black"/>
<path d="M43.8494 98.0567C43.8854 98.5901 43.8159 99.9147 43.2513 101.094L42.5708 100.768C43.0635 99.7387 43.1264 98.5531 43.0963 98.1074L43.8494 98.0567Z" fill="black"/>
<path d="M32.4194 92.6532L32.4847 93.0248C30.8379 93.3144 29.3825 93.3795 28.1164 93.271L28.5022 92.5446C29.6159 92.6105 30.8964 92.5381 32.354 92.2818L32.4194 92.6532ZM28.3441 70.3861C28.3528 70.6456 28.3536 70.865 28.3399 71.0529C28.3215 71.3047 28.2768 71.5279 28.1819 71.7383C28.0867 71.9494 27.9508 72.1248 27.7811 72.2946C26.793 73.2827 26.0742 74.2133 25.6092 74.9755C25.3766 75.3568 25.2105 75.6911 25.1056 75.9651C25.0217 76.1845 24.984 76.3478 24.9735 76.4574C25.3852 77.1833 25.4585 77.944 25.3719 78.5001L25.3527 78.6216L25.2658 78.7086C23.7774 80.1969 23.6105 81.4308 23.8915 82.3462C24.129 83.1203 24.7092 83.7438 25.2835 84.1496C25.8648 82.4426 26.9349 81.5654 28.0947 81.2067C29.3295 80.8249 30.6143 81.0452 31.4243 81.3602L31.2875 81.7117L31.1507 82.0635C30.4516 81.7916 29.3467 81.6095 28.3178 81.9276C27.319 82.2365 26.3396 83.0317 25.8673 84.8261L25.804 85.0666L25.5578 85.1034C24.1551 85.3124 23.2363 86.0047 22.7863 86.8491C22.3351 87.696 22.3303 88.7406 22.8421 89.7105C23.1729 90.3373 23.7299 90.9434 24.5345 91.4351L24.1786 92.1047C23.3537 91.6095 22.7347 90.9936 22.3192 90.3153C19.864 90.8378 17.7591 90.5169 16.096 89.5906C15.5813 89.304 15.1123 88.9606 14.69 88.57L15.0575 87.8783C15.4745 88.2879 15.9441 88.6424 16.4633 88.9316C17.9028 89.7334 19.7524 90.0499 21.9706 89.6164C21.5607 88.5633 21.6155 87.4418 22.1204 86.4942C22.5875 85.6177 23.4238 84.9189 24.5731 84.5566C23.9906 84.0823 23.4286 83.4103 23.17 82.5677C22.7939 81.342 23.09 79.864 24.6397 78.2694C24.6786 77.8541 24.6012 77.2895 24.2719 76.7526C23.7717 75.9372 22.6366 75.1033 20.2111 75.0462L20.22 74.6689L20.2288 74.2919C22.2889 74.3403 23.6047 74.922 24.3967 75.7067C24.3981 75.703 24.3995 75.6991 24.4009 75.6954C24.5261 75.3682 24.7151 74.9923 24.9651 74.5825C25.4656 73.7622 26.2235 72.7852 27.2475 71.7611C27.3747 71.6339 27.4473 71.5319 27.4942 71.428C27.5414 71.3233 27.573 71.1936 27.5873 70.9979C27.6057 70.745 27.5933 70.4271 27.5698 69.9746L28.3441 70.3861ZM53 85.7494C52.7356 86.2043 52.4124 86.6286 52.0266 87.009C50.8742 88.1452 49.197 88.8614 46.9677 88.8793C45.9207 89.3751 43.6667 90.2613 41.3417 90.6837C41.8235 90.8077 42.3671 90.9115 42.9438 90.9667C44.2466 91.0913 45.6869 90.9662 46.9599 90.3062L47.1335 90.641L47.3072 90.976C45.8638 91.7245 44.2647 91.851 42.872 91.7178C41.4795 91.5846 40.2616 91.1889 39.5533 90.8569L38.2419 90.2421L39.6867 90.1389C42.4363 89.9425 45.5227 88.7403 46.7179 88.1633L46.7958 88.1257H46.882C48.9864 88.1257 50.4913 87.4631 51.4967 86.4718C51.825 86.1482 52.1029 85.7858 52.3329 85.395L53 85.7494ZM25.4716 87.4979C25.885 87.0329 26.6692 86.6133 27.6953 86.7654C28.7169 86.9168 29.9161 87.6244 31.2072 89.277C31.3921 89.5137 31.6191 89.7297 31.8684 89.8301C32.0903 89.9196 32.3619 89.9322 32.7129 89.6982L33.1314 90.3261C32.577 90.6957 32.0435 90.7143 31.5862 90.53C31.1563 90.3567 30.8299 90.0194 30.6127 89.7415C29.3886 88.1747 28.3448 87.6246 27.5848 87.5119C26.8294 87.3999 26.293 87.7097 26.0356 87.9992L25.7536 87.7484L25.4716 87.4979ZM39.2104 85.1073C36.7724 85.1073 35.6257 85.8751 35.1157 86.7177C34.5904 87.5856 34.6635 88.6546 34.914 89.387L34.5571 89.5091L34.2002 89.6314C33.9058 88.7709 33.7903 87.4502 34.4701 86.3269C35.1654 85.1783 36.6179 84.3528 39.2104 84.3528V85.1073ZM45.1213 71.5248L45.378 71.8014C44.8605 72.2819 43.9608 73.6974 44.5949 75.4188L44.7376 75.806L44.3395 75.9135C43.7848 76.0634 43.0814 76.4349 42.5689 77.0756C42.0655 77.705 41.7281 78.6156 41.9212 79.8948C42.0199 80.5489 42.2586 81.3049 42.692 82.1718L42.8384 82.4646L42.5692 82.6508C42.4309 82.7465 42.2173 82.8689 42.072 82.9615C41.9044 83.0683 41.7433 83.1843 41.6014 83.3285C41.3308 83.6032 41.0969 84.0111 41.0968 84.7301H40.3423C40.3423 83.8144 40.6533 83.216 41.0639 82.7991C41.2625 82.5975 41.4763 82.4461 41.6662 82.3251C41.7433 82.2759 41.8094 82.2358 41.8684 82.2003C41.6385 81.7043 41.466 81.2358 41.3442 80.7938C40.3528 81.8055 39.0342 82.1861 37.7707 82.2428C36.2778 82.3097 34.8121 81.9298 33.9101 81.5575L34.054 81.2087L34.198 80.8601C35.0222 81.2004 36.3774 81.5498 37.7368 81.4889C39.0477 81.4301 40.3155 80.9946 41.1541 79.8545C40.9788 78.4474 41.364 77.374 41.9797 76.6043C42.4976 75.9568 43.1668 75.5383 43.7681 75.3078C43.2421 73.3768 44.2475 71.8215 44.8646 71.2485L45.1213 71.5248ZM25.3468 67.845C23.9729 68.3134 22.8545 68.8668 22.059 69.3667C22.7876 69.8729 23.7272 70.8272 23.9865 72.2099L23.2447 72.3489C22.9957 71.0216 21.9519 70.1467 21.3437 69.8073C19.6277 70.6214 18.191 71.6089 17.0147 72.7021C17.3097 72.9498 17.5731 73.3443 17.7383 73.8937C18.0006 74.7655 18.0299 76.0555 17.5676 77.9046C17.4189 78.4994 17.3887 79.0743 17.6052 79.5664C17.8151 80.0434 18.2922 80.5196 19.3283 80.8493L19.2139 81.2087L19.0994 81.5683C17.9221 81.1937 17.2359 80.6007 16.9145 79.8704C16.5997 79.1552 16.6699 78.3845 16.8356 77.7216C17.2788 75.9489 17.225 74.8071 17.0157 74.1111C16.8657 73.6126 16.6428 73.3564 16.4694 73.2354C13.4369 76.3564 12.3736 80.2139 12.8731 83.4132L12.3175 84.4586C11.377 80.7699 12.4918 76.1209 16.1208 72.515C17.4552 71.1891 19.1283 70.0047 21.1622 69.0589C22.1349 68.3615 23.7586 67.5155 25.8541 66.8902L25.3468 67.845ZM48.0559 78.9044C48.2921 79.3855 48.549 80.156 48.5813 80.9741C48.6648 80.9219 48.7492 80.8637 48.8294 80.7975C49.0977 80.5758 49.3075 80.2882 49.355 79.9046L50.1037 79.9974C50.0255 80.6283 49.6767 81.0761 49.3098 81.3791C49.0368 81.6046 48.743 81.759 48.5174 81.8606C48.3854 82.5353 48.041 83.1921 47.3465 83.6667L46.9206 83.0438C47.4768 82.6637 47.7297 82.1285 47.8053 81.5459C47.9161 80.6919 47.6386 79.7669 47.3784 79.237L48.0559 78.9044ZM30.8694 66.029C31.8406 65.9787 32.8578 65.9914 33.9123 66.0857C35.5013 66.2279 37.175 66.5547 38.9033 67.1265C39.4674 67.1588 40.1295 67.2398 40.8436 67.382L40.4729 68.0793C39.9155 67.9771 39.3964 67.9143 38.9419 67.8848C38.6075 68.1291 38.1427 68.5675 37.7592 69.1535C37.3374 69.7979 37.0266 70.6004 37.0719 71.5061L37.093 71.9289L36.6705 71.9014C35.9465 71.8541 35.0098 72.0358 34.2869 72.6496C33.5796 73.2502 33.0189 74.3144 33.1221 76.157C33.1663 76.9443 33.3323 77.8725 33.6608 78.9618L33.2995 79.0707L32.9381 79.1797C32.6344 78.1727 32.4593 77.2811 32.3901 76.493C30.3852 76.1445 28.7019 76.9276 28.1164 77.3615L27.6668 76.7553C28.3629 76.2395 30.1784 75.3998 32.3557 75.7227C32.3575 73.9647 32.9488 72.7957 33.7983 72.0743C34.572 71.4174 35.5184 71.1676 36.3171 71.1426C36.3582 70.2051 36.7035 69.3881 37.1277 68.7401C37.4146 68.3017 37.7425 67.9334 38.0488 67.6482C36.6303 67.2245 35.2544 66.9698 33.9391 66.8462C33.2665 67.1497 32.8089 67.6928 32.5078 68.2797C32.193 68.8936 32.0637 69.5293 32.0411 69.9122L31.6645 69.8899L31.288 69.8678C31.3161 69.3904 31.4692 68.651 31.8362 67.9354C32.0464 67.5257 32.3316 67.1152 32.7102 66.7671C31.932 66.7401 31.1785 66.7577 30.4538 66.8111L30.8694 66.029ZM44.7027 68.6958C44.8592 68.7755 45.0147 68.8583 45.1685 68.9452C47.3071 70.1528 49.1806 72.0829 49.6157 75.0278C51.104 75.6432 52.2396 76.8125 52.971 78.2154L52.5313 79.0429C51.8626 77.5047 50.6948 76.226 49.1409 75.6517L48.9244 75.5719L48.8969 75.3429C48.5634 72.5796 46.8515 70.762 44.7976 69.6022C44.6494 69.5186 44.4995 69.4389 44.3485 69.3623L44.7027 68.6958Z" fill="black"/>
<path d="M236.551 82.2629C234.287 82.2629 233.038 83.1312 232.358 84.1579C231.659 85.2128 231.522 86.4967 231.617 87.3528L230.751 87.4489C230.639 86.447 230.792 84.9442 231.631 83.6767C232.489 82.381 234.026 81.3912 236.551 81.3912V82.2629Z" fill="black"/>
<path d="M230.364 76.1525C229.898 78.0169 229.209 79.3437 228.371 80.2419C227.527 81.1463 226.549 81.5971 225.551 81.7324C223.584 81.9988 221.6 81.0367 220.387 80.1088L220.916 79.4162C222.042 80.2775 223.795 81.0908 225.434 80.8687C226.239 80.7596 227.031 80.4003 227.734 79.6472C228.442 78.8879 229.076 77.7096 229.518 75.9408L230.364 76.1525Z" fill="black"/>
<path d="M247.267 90.0846C247.267 89.0014 246.786 88.318 246.185 87.8828C245.716 87.5439 245.17 87.3545 244.716 87.2688C244.513 88.5829 243.911 89.88 242.684 90.7999C241.455 91.7206 239.658 92.2183 237.149 92.0438L239.994 96.9714H234.516L230.333 92.788C229.942 92.7766 229.406 92.7289 228.874 92.6166C228.275 92.4899 227.589 92.2634 227.163 91.8378L227.78 91.2215C228.015 91.4565 228.482 91.6427 229.054 91.7637C229.607 91.8804 230.172 91.9195 230.517 91.9195H230.697L234.878 96.0997H238.484L235.534 90.9914L236.401 91.097C239.228 91.4417 241.038 90.9438 242.161 90.1025C243.28 89.264 243.79 88.0297 243.903 86.7434C244.008 85.5489 243.767 84.3404 243.38 83.445L243.321 83.3085L243.358 83.1644C244.017 80.5788 244.017 78.6345 243.618 77.1921C243.222 75.7602 242.426 74.7975 241.432 74.1703C239.413 72.8964 236.513 72.973 234.404 73.5756L234.164 72.7374C235.742 72.2867 237.804 72.0911 239.696 72.5351C237.313 67.817 234.179 66.1339 231.231 65.9006C228.452 65.6808 225.758 66.7423 223.899 67.9455C225.141 68.4133 226.39 69.188 227.573 70.3711L226.957 70.9874C225.607 69.6375 224.185 68.8795 222.817 68.5115C219.95 67.7402 217.271 68.6723 215.96 69.5877C212.859 71.9771 212.129 74.5448 212.406 76.7406C212.687 78.9786 214.024 80.9006 215.168 81.9137L214.59 82.5662C213.403 81.5148 212.034 79.5968 211.611 77.3038C207.918 80.4208 208.656 84.6901 210.439 86.4733C212.239 88.2734 214.245 88.9149 216.096 88.8245C216.628 88.7986 217.15 88.712 217.653 88.5734C220.027 87.919 221.929 86.1231 222.513 84.179L223.347 84.4295C222.717 86.53 220.822 88.3883 218.47 89.2277C218.915 89.7711 219.613 90.3737 220.537 90.7536C221.665 91.2175 223.152 91.3595 224.971 90.6214V81.414H225.843V97.5164H224.971V91.5552C223.086 92.2356 221.475 92.0819 220.205 91.5597C218.976 91.0542 218.086 90.2118 217.575 89.4919C217.241 89.5702 216.9 89.6282 216.553 89.6635V94.2135H215.682V89.7036C213.773 89.685 211.775 88.9631 209.989 87.2515C209.587 87.3444 209.057 87.5605 208.609 87.9475C208.094 88.3921 207.676 89.0669 207.676 90.0846V97.5164H206.805V90.0846C206.805 88.7903 207.351 87.882 208.04 87.2876C208.456 86.9288 208.92 86.6861 209.345 86.5343C207.535 84.1045 207.26 79.4835 211.491 76.2844C211.367 73.8963 212.353 71.2629 215.439 68.8889L215.447 68.8829L215.455 68.8773C216.906 67.8615 219.755 66.8642 222.837 67.6172C224.799 66.1906 227.963 64.7679 231.299 65.0318C234.761 65.3057 238.307 67.3872 240.835 72.8929C241.204 73.0416 241.56 73.2204 241.897 73.4332C243.07 74.1736 244.003 75.3141 244.458 76.9594C244.903 78.5652 244.886 80.6268 244.238 83.2381C244.599 84.1303 244.829 85.2529 244.795 86.3978C245.372 86.4958 246.079 86.7302 246.696 87.1769C247.497 87.7567 248.138 88.6905 248.138 90.0846V97.5164H247.267V90.0846Z" fill="black"/>
<path d="M227.836 100.613C227.836 99.2701 226.747 98.1816 225.404 98.1816C224.062 98.1816 222.973 99.2701 222.973 100.613C222.973 101.956 224.062 103.044 225.404 103.044V103.916L225.235 103.912C223.489 103.823 222.102 102.38 222.102 100.613C222.102 98.7887 223.58 97.31 225.404 97.3099C227.229 97.3099 228.708 98.7887 228.708 100.613L228.703 100.783C228.615 102.528 227.172 103.916 225.404 103.916V103.044C226.747 103.044 227.836 101.956 227.836 100.613Z" fill="black"/>
<path d="M209.668 100.613C209.668 99.2701 208.579 98.1816 207.237 98.1816C205.894 98.1816 204.805 99.2701 204.805 100.613C204.805 101.956 205.894 103.044 207.237 103.044V103.916L207.067 103.912C205.321 103.823 203.934 102.38 203.934 100.613C203.934 98.7887 205.412 97.31 207.237 97.3099C209.061 97.3099 210.54 98.7887 210.54 100.613L210.535 100.783C210.447 102.528 209.004 103.916 207.237 103.916V103.044C208.579 103.044 209.668 101.956 209.668 100.613Z" fill="black"/>
<path d="M218.75 97.31C218.75 95.9672 217.661 94.8787 216.319 94.8787C214.976 94.8788 213.887 95.9673 213.887 97.31C213.887 98.6528 214.976 99.7416 216.319 99.7416V100.613L216.149 100.609C214.403 100.52 213.016 99.0772 213.016 97.31C213.016 95.4859 214.494 94.0071 216.319 94.0071C218.143 94.0071 219.622 95.4858 219.622 97.31L219.617 97.48C219.529 99.2252 218.086 100.613 216.319 100.613V99.7416C217.661 99.7416 218.75 98.6528 218.75 97.31Z" fill="black"/>
<path d="M250.129 100.613C250.129 99.2701 249.04 98.1816 247.697 98.1816C246.355 98.1816 245.266 99.2701 245.266 100.613C245.266 101.956 246.355 103.044 247.697 103.044V103.916L247.528 103.912C245.782 103.823 244.395 102.38 244.395 100.613C244.395 98.7887 245.873 97.31 247.697 97.3099C249.522 97.3099 251.001 98.7887 251.001 100.613L250.996 100.783C250.908 102.528 249.465 103.916 247.697 103.916V103.044C249.04 103.044 250.129 101.956 250.129 100.613Z" fill="black"/>
<path d="M35.4343 144.037L37.0547 161.865L39.8593 149.089L40.5227 149.093L42.1126 156.724L43.2358 153.917H59.112C59.2993 153.917 59.4512 154.069 59.4512 154.256C59.4512 154.444 59.2993 154.595 59.112 154.595H43.6951L41.9072 159.065L40.1818 150.783L37.2471 164.154L36.5779 164.111L34.9495 146.201L31.8804 159.427L31.2223 159.438L28.8198 150.473L27.7154 154.595H13.9916C13.8042 154.595 13.6523 154.444 13.6523 154.256C13.6524 154.069 13.8042 153.917 13.9916 153.917H27.1946L28.82 147.851L31.5263 157.951L34.7658 143.991L35.4343 144.037Z" fill="black"/>
<path d="M47.4937 142.248C47.4937 142.061 47.6456 141.909 47.833 141.909C48.0203 141.909 48.1722 142.061 48.1722 142.248C48.1722 143.248 47.8031 144.039 47.2886 144.642C47.4528 144.929 47.7165 145.292 48.0649 145.603C48.4976 145.99 49.0346 146.275 49.6524 146.275C49.8398 146.275 49.9916 146.427 49.9917 146.615C49.9917 146.802 49.8398 146.954 49.6524 146.954C48.8148 146.954 48.1238 146.565 47.613 146.109C47.2651 145.798 46.989 145.446 46.7927 145.135C46.0662 145.75 45.2105 146.09 44.6319 146.218C44.449 146.259 44.2675 146.143 44.2269 145.961C44.1863 145.778 44.3017 145.597 44.4845 145.556C45.0575 145.428 45.9663 145.049 46.6339 144.356C47.1322 143.839 47.4937 143.151 47.4937 142.248Z" fill="black"/>
<path d="M30.6893 141.912C30.8752 141.888 31.0445 142.02 31.0678 142.206C31.091 142.392 30.9593 142.562 30.7734 142.585C28.6367 142.852 27.8983 144.465 27.7922 145.207C27.7657 145.392 27.5939 145.522 27.4085 145.495C27.223 145.469 27.0941 145.297 27.1206 145.111C27.2573 144.155 28.1686 142.227 30.6893 141.912Z" fill="black"/>
<path d="M50.0429 134.971C50.0429 134.161 49.9788 133.458 49.8645 132.85C49.6042 131.466 49.0843 130.583 48.4651 130.042C47.8466 129.502 47.0974 129.276 46.326 129.261C45.551 129.247 44.7626 129.448 44.0947 129.753C43.4209 130.06 42.9049 130.458 42.6503 130.805C42.5395 130.956 42.3272 130.989 42.1761 130.878C42.0251 130.767 41.9925 130.555 42.1032 130.404C42.4498 129.931 43.0768 129.472 43.813 129.136C43.8968 129.097 43.9824 129.06 44.0698 129.025C42.5436 126.8 41.034 126.233 39.8162 126.348C38.5505 126.468 37.4777 127.332 36.8937 128.162L36.8934 135.868C37.6581 136.283 39.2753 136.738 40.8093 135.874C40.7907 134.695 41.2815 133.604 41.7346 132.957C41.842 132.803 42.0534 132.766 42.2069 132.873C42.3603 132.981 42.3978 133.192 42.2904 133.346C41.8694 133.947 41.4226 134.98 41.495 136.039C41.5573 136.952 42.0055 137.918 43.2787 138.682C43.4393 138.779 43.4914 138.987 43.395 139.148C43.2986 139.309 43.0902 139.361 42.9296 139.264C41.689 138.52 41.0879 137.567 40.8878 136.598C39.3626 137.337 37.8219 137.024 36.8937 136.62L36.894 141.52C36.894 141.708 36.7421 141.86 36.5547 141.86C36.3674 141.86 36.2155 141.708 36.2155 141.52L36.215 134.336C35.6994 133.491 34.9257 133.159 34.1323 133.089C33.3018 133.016 32.4681 133.236 31.9617 133.461C31.7905 133.538 31.5901 133.46 31.514 133.289C31.4379 133.118 31.5149 132.917 31.686 132.841C32.2712 132.581 33.2207 132.328 34.1914 132.413C34.8965 132.475 35.6216 132.717 36.215 133.268L36.2152 128.216C33.9699 126.362 32.3295 126.283 31.1939 126.81C30.1137 127.312 29.3777 128.407 28.9869 129.4C29.5846 129.611 30.2235 129.911 30.9047 130.312C31.0662 130.407 31.1203 130.615 31.0253 130.776C30.9303 130.938 30.7222 130.992 30.5607 130.897C29.7868 130.441 29.0842 130.13 28.4505 129.937C27.3738 129.609 26.4993 129.62 25.8033 129.836C25.108 130.052 24.565 130.478 24.1627 131.025C23.3488 132.13 23.1253 133.708 23.4204 134.888C23.4658 135.07 23.3551 135.255 23.1734 135.3C22.9916 135.345 22.8075 135.235 22.762 135.053C22.6428 134.576 22.5965 134.046 22.6271 133.503C19.7605 133.81 18.3666 135.066 17.7428 136.464C17.12 137.86 17.2349 139.463 17.5544 140.564C18.1455 140.87 19.4733 141.224 20.8143 140.551C21.0256 140.023 21.3634 139.512 21.8781 139.104C22.4349 138.664 23.1798 138.36 24.1519 138.272C24.3384 138.255 24.5033 138.392 24.5203 138.579C24.5372 138.765 24.3999 138.93 24.2134 138.947C23.3535 139.026 22.7386 139.289 22.2993 139.637C21.859 139.985 21.5758 140.433 21.4043 140.908C21.1454 141.625 21.1463 142.391 21.2415 142.915C21.275 143.1 21.1526 143.276 20.9683 143.31C20.784 143.343 20.6074 143.221 20.5739 143.037C20.4926 142.589 20.4691 141.999 20.5787 141.385C19.1848 141.862 17.8818 141.498 17.2329 141.161C14.5622 142.051 13.5323 144.058 13.6952 145.81C13.8614 147.597 15.2671 149.187 17.6331 149.187H23.0912C23.2786 149.187 23.4305 149.338 23.4305 149.526C23.4304 149.713 23.2786 149.865 23.0912 149.865H17.6331C14.9046 149.865 13.2172 147.997 13.0196 145.873C12.8284 143.818 14.0299 141.584 16.8539 140.574C16.5424 139.378 16.4504 137.696 17.1234 136.188C17.873 134.508 19.539 133.114 22.6955 132.814C22.6993 132.813 22.7031 132.813 22.7069 132.813C22.8445 132.035 23.1433 131.265 23.6165 130.622C24.0938 129.974 24.752 129.451 25.6024 129.188C26.3764 128.948 27.2879 128.93 28.3363 129.201C28.7586 128.104 29.5925 126.806 30.9084 126.195C32.3329 125.534 34.1978 125.731 36.4919 127.567C37.1809 126.69 38.3423 125.806 39.7521 125.673C41.3259 125.524 43.0868 126.317 44.7353 128.798C45.246 128.655 45.7911 128.573 46.3385 128.583C47.2368 128.599 48.1499 128.866 48.9115 129.531C49.6198 130.15 50.1692 131.089 50.4685 132.422C51.8896 132.341 53.6031 132.939 54.7939 134.241C56.0313 135.595 56.6765 137.677 55.9219 140.472C57.1682 140.574 58.1542 141.106 58.845 141.88C59.6112 142.739 60 143.88 60 145.023C60 146.167 59.6106 147.33 58.7989 148.234C57.9833 149.142 56.7598 149.769 55.1324 149.864L55.1223 149.865H51.1097C50.9224 149.865 50.7704 149.713 50.7704 149.526C50.7704 149.338 50.9224 149.187 51.1097 149.187H55.1C56.5616 149.099 57.6097 148.543 58.294 147.781C58.9832 147.014 59.3215 146.016 59.3215 145.023C59.3215 144.028 58.9826 143.054 58.3388 142.332C57.7 141.616 56.747 141.132 55.4764 141.132H51.8374C51.6502 141.132 51.4983 140.98 51.4982 140.793C51.4982 140.606 51.6501 140.454 51.8374 140.454H55.2235C55.9954 137.767 55.374 135.882 54.2933 134.699C53.2647 133.574 51.7947 133.054 50.5926 133.095C50.6759 133.658 50.7214 134.281 50.7214 134.971C50.7213 135.158 50.5694 135.31 50.3821 135.31C50.1948 135.31 50.0429 135.158 50.0429 134.971Z" fill="black"/>
<path d="M233.4 125.524C235.124 125.524 236.977 126.054 238.304 127.439C239.226 128.401 239.859 129.74 240.037 131.517C240.06 131.523 240.083 131.53 240.106 131.541C241.723 132.27 243.863 133.975 244.822 136.38C245.305 137.593 245.487 138.981 245.148 140.496C245.07 140.849 244.963 141.206 244.826 141.569C246.741 142.919 247.876 144.444 248.388 145.997C248.928 147.633 248.761 149.258 248.144 150.673C247.54 152.058 246.495 153.257 245.237 154.08C244.654 158.561 241.651 160.428 239.35 160.407C239.228 162.504 238.703 164.024 237.89 165.059C237.009 166.181 235.826 166.687 234.587 166.764C233.361 166.841 232.084 166.5 230.961 165.944C230.015 165.476 229.155 164.843 228.503 164.145C227.075 165.681 225.722 166.54 224.447 166.857C223.054 167.204 221.81 166.891 220.755 166.212C218.807 164.958 217.476 162.447 216.79 160.43C215.544 160.518 214.187 159.69 213.217 158.436C212.151 157.059 211.454 155.064 211.737 152.783C208.792 150.265 208.126 147.104 208.799 144.691C209.141 143.466 209.833 142.426 210.757 141.784C211.454 141.3 212.276 141.05 213.15 141.12C212.049 138.366 212.434 136.206 213.536 134.611C214.635 133.021 216.401 132.062 217.9 131.61C217.954 129.611 218.905 128.178 220.12 127.211C221.39 126.2 222.949 125.692 224.098 125.528C224.344 125.493 224.572 125.664 224.607 125.91C224.642 126.156 224.471 126.384 224.226 126.419C223.195 126.566 221.797 127.026 220.68 127.915C219.578 128.792 218.752 130.082 218.799 131.939C218.812 132.465 218.896 133.042 219.067 133.674H222.533C222.782 133.674 222.983 133.876 222.983 134.124C222.983 134.372 222.782 134.574 222.533 134.574H219.352L220.243 137.242C220.322 137.477 220.194 137.732 219.959 137.811C219.723 137.889 219.469 137.762 219.39 137.527L218.302 134.266L218.3 134.261L218.298 134.256C218.112 133.651 217.995 133.08 217.938 132.541C216.624 132.978 215.174 133.823 214.276 135.123C213.281 136.561 212.909 138.636 214.317 141.535C214.786 142.501 215.454 143.559 216.365 144.713C216.518 144.908 216.485 145.191 216.29 145.344C216.095 145.498 215.813 145.465 215.659 145.27C214.77 144.144 214.092 143.09 213.596 142.106C212.74 141.879 211.94 142.058 211.27 142.523C210.545 143.027 209.961 143.876 209.666 144.933C209.08 147.033 209.649 149.918 212.502 152.25C213.455 153.029 214.665 153.749 216.179 154.354C216.409 154.447 216.521 154.709 216.429 154.939C216.337 155.17 216.075 155.282 215.845 155.189C214.574 154.681 213.493 154.09 212.582 153.442C212.493 155.242 213.085 156.795 213.929 157.886C214.916 159.162 216.148 159.701 216.991 159.491C217.53 159.357 218.054 158.883 218.288 157.768C218.439 157.05 218.462 156.086 218.283 154.835C218.248 154.59 218.419 154.362 218.665 154.327C218.911 154.292 219.138 154.463 219.174 154.708C219.334 155.833 219.346 156.78 219.236 157.563C220.043 157.81 221.533 158.022 222.902 157.445C223.131 157.349 223.395 157.457 223.491 157.685C223.587 157.914 223.48 158.178 223.251 158.275C221.674 158.938 220.007 158.724 219.039 158.442C218.765 159.299 218.287 159.893 217.662 160.199C218.326 162.126 219.562 164.375 221.242 165.456C222.12 166.021 223.111 166.263 224.229 165.984C225.336 165.709 226.619 164.91 228.061 163.295V152.055C228.061 151.807 228.262 151.605 228.51 151.605C228.759 151.605 228.96 151.807 228.96 152.055V156.675L232.088 153.546C232.264 153.371 232.549 153.371 232.724 153.546C232.9 153.722 232.9 154.007 232.724 154.182L228.96 157.947V163.305C229.541 163.999 230.392 164.659 231.36 165.138C232.383 165.644 233.502 165.931 234.532 165.867C235.548 165.803 236.48 165.398 237.183 164.503C237.895 163.596 238.407 162.141 238.471 159.915C238.492 159.199 238.466 158.406 238.386 157.529C238.364 157.282 238.546 157.064 238.794 157.041C239.041 157.019 239.26 157.201 239.282 157.448C239.349 158.185 239.379 158.871 239.377 159.508C241.078 159.509 243.519 158.193 244.235 154.634C243.201 155.107 242.077 155.331 240.963 155.219C240.716 155.195 240.536 154.974 240.56 154.727C240.585 154.48 240.805 154.3 241.053 154.325C243.544 154.574 246.23 152.813 247.32 150.313C247.858 149.079 247.997 147.682 247.534 146.278C247.107 144.982 246.154 143.645 244.459 142.412C243.995 143.346 243.329 144.31 242.426 145.295C242.258 145.478 241.974 145.491 241.791 145.323C241.608 145.155 241.595 144.87 241.763 144.687C242.746 143.616 243.41 142.594 243.829 141.635C243.841 141.582 243.862 141.53 243.894 141.482C243.894 141.481 243.894 141.48 243.895 141.48C244.062 141.075 244.185 140.682 244.271 140.3C244.566 138.976 244.408 137.772 243.986 136.713C243.201 134.744 241.495 133.268 240.089 132.533C240.09 133.049 240.058 133.597 239.988 134.178C239.866 135.186 239.63 136.295 239.265 137.513C239.194 137.751 238.943 137.886 238.705 137.815C238.467 137.744 238.332 137.493 238.404 137.255C238.695 136.282 238.897 135.39 239.024 134.574H235.574C235.326 134.574 235.124 134.372 235.124 134.124C235.124 133.876 235.326 133.674 235.574 133.674H239.137C239.39 130.929 238.705 129.157 237.654 128.061C236.545 126.903 234.957 126.423 233.4 126.423C233.152 126.423 232.951 126.222 232.951 125.973C232.951 125.725 233.152 125.524 233.4 125.524Z" fill="black"/>
<path d="M225.348 139.014C225.348 136.914 226.443 135.34 227.677 134.274C228.666 133.42 229.769 132.87 230.546 132.611C230.781 132.532 231.036 132.66 231.114 132.895C231.193 133.131 231.065 133.385 230.83 133.464C230.239 133.661 229.402 134.064 228.605 134.678C229.053 135.119 229.922 135.618 231.122 135.318C231.363 135.258 231.607 135.404 231.667 135.645C231.727 135.886 231.581 136.13 231.34 136.19C229.728 136.593 228.543 135.901 227.925 135.268C226.977 136.198 226.247 137.441 226.247 139.014C226.247 139.263 226.046 139.464 225.797 139.464C225.549 139.464 225.348 139.263 225.348 139.014Z" fill="black"/>
<path d="M124.015 130.914C125.212 129.467 128.677 127.554 134.303 129.523L134.287 129.568C134.568 129.323 134.896 129.126 135.267 128.989C136.628 128.485 138.453 128.817 140.473 130.286L140.053 130.865C138.14 129.474 136.568 129.27 135.516 129.659C134.474 130.045 133.827 131.054 133.827 132.363H133.112C133.112 131.507 133.351 130.722 133.796 130.106C128.369 128.307 125.295 130.356 124.463 131.501L124.34 131.67L124.132 131.646C121.806 131.372 120.478 132.112 119.729 133.082C118.96 134.079 118.754 135.378 118.81 136.274L118.832 136.626L118.481 136.653C117.616 136.719 116.976 136.992 116.5 137.376C116.022 137.763 115.691 138.277 115.471 138.854C115.028 140.019 115.058 141.396 115.229 142.308L115.254 142.437L115.189 142.55C113.41 145.698 114.098 148.564 115.974 150.491C117.798 152.365 120.763 153.364 123.749 152.821C123.436 151.361 123.683 149.752 124.58 148.393C124.386 148.32 124.199 148.223 124.021 148.106C123.627 147.848 123.264 147.492 122.94 147.082C122.656 147.532 122.316 147.844 121.927 148.03C121.401 148.279 120.839 148.273 120.308 148.142C119.268 147.885 118.228 147.121 117.524 146.593L117.953 146.021C118.679 146.566 119.605 147.232 120.479 147.447C120.906 147.552 121.288 147.541 121.62 147.384C121.919 147.241 122.221 146.958 122.485 146.433C121.928 145.54 121.513 144.482 121.32 143.517L122.022 143.377C122.209 144.315 122.631 145.362 123.191 146.21C123.561 146.77 123.98 147.225 124.412 147.508C124.841 147.788 125.263 147.889 125.674 147.79C126.09 147.69 126.563 147.369 127.053 146.661C127.543 145.952 128.031 144.882 128.479 143.347L128.667 142.702L129.096 143.218C129.969 144.265 131.068 145.179 132.342 145.467C133.59 145.748 135.084 145.446 136.806 143.896L137.284 144.428C135.431 146.096 133.708 146.508 132.184 146.164C130.91 145.876 129.833 145.07 128.976 144.16C128.566 145.425 128.117 146.379 127.641 147.067C127.091 147.862 126.486 148.331 125.84 148.486C125.674 148.526 125.51 148.543 125.349 148.542C123.862 150.533 124.076 153.231 125.556 154.872C126.318 155.716 127.423 156.288 128.828 156.335C130.239 156.382 131.977 155.901 133.989 154.589L134.079 154.531H142.051V155.245H137.442L140.085 158.475C141.209 158.564 142.861 158.96 144.398 159.882C146.016 160.852 147.518 162.413 148.118 164.812L147.425 164.986C146.88 162.809 145.522 161.39 144.03 160.495C142.53 159.596 140.908 159.235 139.886 159.178L139.728 159.169L136.518 155.245H134.29C132.227 156.572 130.377 157.102 128.804 157.05C127.205 156.996 125.918 156.339 125.026 155.351C124.544 154.818 124.18 154.19 123.943 153.513C120.71 154.123 117.472 153.054 115.462 150.99C113.392 148.865 112.644 145.699 114.504 142.311C114.338 141.317 114.32 139.87 114.803 138.6C115.057 137.932 115.454 137.303 116.051 136.82C116.581 136.392 117.252 136.093 118.087 135.976C118.09 134.99 118.355 133.692 119.162 132.645C120.063 131.479 121.595 130.681 124.015 130.914ZM153.847 148.494C153.703 149.715 152.995 151.524 151.298 152.652C150.994 153.697 150.086 155.347 148.316 156.508C149.473 157.93 151.26 161.12 150.988 164.925L150.275 164.874C150.536 161.215 148.757 158.141 147.692 156.875C146.921 157.282 146.015 157.594 144.962 157.745L144.861 157.037C145.943 156.882 146.846 156.545 147.592 156.114C149.026 155.286 149.893 154.101 150.336 153.165C149.117 153.674 147.547 153.849 145.556 153.451L145.696 152.75C148.036 153.218 149.673 152.832 150.799 152.124C152.353 151.147 153.008 149.505 153.137 148.411L153.847 148.494Z" fill="black"/>
<path d="M134.704 135.543C133.87 135.96 132.67 136.984 132.288 138.527C132.064 139.435 132.115 140.549 132.724 141.867L132.074 142.166C131.54 141.008 131.383 139.96 131.476 139.036C130.313 139.413 129.229 139.048 128.565 138.652C128.293 139.265 127.814 139.703 127.285 140.002C126.629 140.372 125.877 140.542 125.274 140.586L125.223 139.872C125.747 139.835 126.391 139.685 126.933 139.379C127.471 139.075 127.888 138.632 128.029 138.005C128.166 137.398 128.06 136.551 127.436 135.393L128.066 135.054C128.677 136.19 128.877 137.142 128.767 137.932C129.332 138.329 130.475 138.781 131.636 138.199C132.121 136.485 133.451 135.37 134.384 134.904L134.704 135.543Z" fill="black"/>
<path d="M133.468 148.139C133.411 148.599 133.192 149.256 132.741 149.931C133.054 150.183 133.423 150.538 133.744 150.967C134.174 151.54 134.544 152.278 134.544 153.1H133.829C133.829 152.492 133.552 151.902 133.172 151.396C132.893 151.023 132.571 150.713 132.304 150.498C131.648 151.245 130.676 151.953 129.283 152.37L129.078 151.685C130.49 151.262 131.399 150.52 131.962 149.791C132.487 149.109 132.71 148.441 132.759 148.05L133.468 148.139Z" fill="black"/>
<path d="M147.378 134.29C147.185 134.333 147.064 134.524 147.107 134.717C147.149 134.91 147.34 135.031 147.533 134.988C150.088 134.421 151.434 136.076 151.788 136.953C151.862 137.136 152.071 137.225 152.254 137.151C152.437 137.077 152.525 136.868 152.451 136.685C152.011 135.595 150.38 133.624 147.378 134.29Z" fill="black"/>
<path d="M164.242 149.718L164.846 150.102L165.745 148.69L165.142 148.306L164.242 149.718ZM163.785 149.819L159.939 147.371C159.785 147.273 159.74 147.068 159.838 146.914L160.737 145.502C160.835 145.347 161.04 145.302 161.194 145.4L165.04 147.848C165.194 147.946 165.24 148.151 165.142 148.306L165.745 148.69L165.772 148.643C166.037 148.177 165.906 147.585 165.469 147.275L165.424 147.245L161.578 144.797C161.106 144.496 160.484 144.621 160.163 145.073L160.133 145.118L159.234 146.53L159.207 146.576C158.933 147.057 159.083 147.674 159.555 147.975L163.401 150.423L163.447 150.45C163.913 150.715 164.506 150.583 164.816 150.146L164.846 150.102L164.242 149.718C164.144 149.872 163.939 149.918 163.785 149.819Z" fill="black"/>
<path d="M156.409 144.264L159.655 146.33L160.039 145.726L156.793 143.66L156.409 144.264Z" fill="black"/>
<path d="M146.742 131.371C142.735 132.367 140.233 136.384 141.133 140.438L141.178 140.63C141.274 141.014 141.398 141.385 141.546 141.74L142.257 141.582C142.076 141.172 141.932 140.738 141.831 140.283C141.003 136.55 143.356 132.853 147.089 132.024C150.822 131.195 154.52 133.549 155.348 137.281C156.177 141.014 153.823 144.712 150.091 145.541C148.455 145.904 146.825 145.655 145.441 144.948L144.412 145.176C146.073 146.262 148.155 146.703 150.246 146.239L150.438 146.194C154.381 145.212 156.867 141.307 156.087 137.319L156.047 137.126C155.132 133.008 151.052 130.411 146.934 131.325L146.742 131.371Z" fill="black"/>
</svg>
