<svg width="48" height="62" viewBox="0 0 48 62" fill="none" xmlns="http://www.w3.org/2000/svg">
<path d="M0 56.1571H47.5323" stroke="black" stroke-width="0.958313"/>
<g filter="url(#filter0_i_575_308)">
<path d="M13.8859 32.4184C17.1137 30.6252 18.6678 28.6826 19.0413 27.9354H29.128C29.8004 28.832 31.8178 30.9838 34.5075 32.4184C36.3486 33.3897 40.271 36.2289 41.232 39.8153L43.6976 56.1781H4.02344L6.71321 39.8153C7.6098 35.3323 11.8686 33.5391 13.8859 32.4184Z" fill="#3846A3"/>
</g>
<path d="M13.8859 32.4184C17.1137 30.6252 18.6678 28.6826 19.0413 27.9354H29.128C29.8004 28.832 31.8178 30.9838 34.5075 32.4184C36.3486 33.3897 40.271 36.2289 41.232 39.8153L43.6976 56.1781H4.02344L6.71321 39.8153C7.6098 35.3323 11.8686 33.5391 13.8859 32.4184Z" stroke="black" stroke-width="0.766651"/>
<path d="M23.7501 49.4537L19.043 28.1597H28.9055L23.7501 49.4537Z" fill="#935252" stroke="black" stroke-width="0.766651"/>
<path d="M19.1766 27.4375C19.2939 26.8419 19.3143 26.1392 19.2974 25.5832C19.2869 25.2393 19.4494 24.9066 19.7564 24.7512C21.7572 23.7386 25.5967 22.7479 28.5295 25.1416C28.7688 25.3369 28.8604 25.6561 28.8807 25.9643C28.8974 26.2172 28.9536 26.5245 29.0796 26.8513C29.2712 27.3482 29.1847 27.9614 28.7362 28.2485L24.4264 31.0068C24.1467 31.1858 23.791 31.1955 23.5019 31.0321L19.7048 28.8859C19.2338 28.6197 19.0721 27.9683 19.1766 27.4375Z" fill="#EFB17C" stroke="black" stroke-width="0.766651"/>
<path d="M15.6829 19.642C12.0966 19.8213 12.3159 15.3832 15.0105 15.3832C16.2756 11.9804 20.2189 5.25157 25.8716 5.55823C27.6051 5.36657 31.2587 5.28992 32.0048 6.51656C32.6266 8.5944 33.6835 13.2767 32.9374 15.3832C35.403 14.4866 37.1515 18.3868 32.4892 19.642C29.1269 31.9702 15.9022 25.694 15.6829 19.642Z" fill="#EFB17C" stroke="black" stroke-width="0.766651" stroke-linejoin="round"/>
<path d="M15.678 16.5039C8.05814 4.17576 22.8525 -4.56604 32.7142 3.50327C34.9558 5.33747 37.1076 9.86908 32.266 16.5039C29.8045 11.7448 29.9085 8.24982 30.3448 6.77479C28.3797 11.8965 21.8848 14.0483 18.8172 14.4866C20.6104 13.4106 21.3575 10.9002 21.507 9.77945C20.7897 10.4967 19.4301 11.2426 18.8172 11.5726C15.9033 13.1417 15.5289 15.3831 15.678 16.5039Z" fill="#644C4C"/>
<path d="M15.678 16.5039C8.05814 4.17576 22.8525 -4.56604 32.7142 3.50327C34.9558 5.33747 37.1076 9.86908 32.266 16.5039C29.5763 11.3036 29.9499 7.61268 30.4729 6.41723C28.6798 11.7968 21.9553 14.0383 18.8172 14.4866C20.6104 13.4106 21.3575 10.9002 21.507 9.77945C20.7897 10.4967 19.4301 11.2426 18.8172 11.5726C15.9033 13.1417 15.5289 15.3831 15.678 16.5039Z" stroke="black" stroke-width="0.766651" stroke-linejoin="round"/>
<path d="M20.612 35.5565L23.9742 31.0736L19.043 28.1597L20.612 35.5565Z" fill="white" stroke="black" stroke-width="0.574988"/>
<path d="M27.1146 35.5565L23.7523 31.0736L28.6836 28.1597L27.1146 35.5565Z" fill="white" stroke="black" stroke-width="0.574988"/>
<path d="M23.448 37.7979L21.506 34.4357L20.6094 35.5564L21.9543 41.3843L23.448 37.7979Z" fill="#D8DEEC" stroke="black" stroke-width="0.574988"/>
<path d="M24.1926 37.7979L26.1347 34.4357L27.0312 35.5564L25.6864 41.3843L24.1926 37.7979Z" fill="#D8DEEC" stroke="black" stroke-width="0.574988"/>
<path d="M19.0403 28.1597C17.546 30.177 14.2435 34.8841 12.9883 37.5739C13.9596 37.275 16.3505 37.0359 18.1437 38.4705C16.6494 38.9188 14.109 40.2637 15.9022 42.281L23.7474 50.7986M23.7474 50.7986L32.265 41.6085C33.1616 40.7119 33.6099 40.2637 33.1616 39.8154L29.3257 36.6773C30.7399 35.96 33.2611 35.4818 34.3449 35.3324L31.3684 30.177M23.7474 50.7986V56.1781" stroke="black" stroke-width="0.766651"/>
<g filter="url(#filter1_i_575_308)">
<path d="M8.5822 51.9087C8.21936 50.6806 9.13974 49.449 10.4203 49.449H38.5271C39.9053 49.449 40.8331 50.8601 40.2867 52.1254L36.7112 60.4055C36.408 61.1076 35.7164 61.5623 34.9516 61.5623H12.8667C12.0173 61.5623 11.2692 61.0033 11.0286 60.1887L8.5822 51.9087Z" fill="#CAC8C8"/>
</g>
<path d="M10.4199 49.9197H38.5273C39.5669 49.9199 40.2666 50.9848 39.8545 51.9392L36.2793 60.2185C36.0506 60.7482 35.5281 61.0916 34.9512 61.0916H12.8662C12.2257 61.0914 11.662 60.6696 11.4805 60.0554L9.03418 51.7751C8.76051 50.8489 9.45412 49.9199 10.4199 49.9197Z" stroke="black" stroke-width="0.941615"/>
<path d="M16.6758 49.8323L18.2091 56.3488" stroke="black" stroke-width="0.958313" stroke-dasharray="1.53 1.53"/>
<path d="M31.8398 49.8323L29.7106 58.4571" stroke="black" stroke-width="0.958313" stroke-dasharray="1.53 1.53"/>
<defs>
<filter id="filter0_i_575_308" x="3.57031" y="27.5521" width="42.1075" height="30.5426" filterUnits="userSpaceOnUse" color-interpolation-filters="sRGB">
<feFlood flood-opacity="0" result="BackgroundImageFix"/>
<feBlend mode="normal" in="SourceGraphic" in2="BackgroundImageFix" result="shape"/>
<feColorMatrix in="SourceAlpha" type="matrix" values="0 0 0 0 0 0 0 0 0 0 0 0 0 0 0 0 0 0 127 0" result="hardAlpha"/>
<feOffset dx="1.91663" dy="1.5333"/>
<feGaussianBlur stdDeviation="0.766651"/>
<feComposite in2="hardAlpha" operator="arithmetic" k2="-1" k3="1"/>
<feColorMatrix type="matrix" values="0 0 0 0 0 0 0 0 0 0 0 0 0 0 0 0 0 0 0.25 0"/>
<feBlend mode="normal" in2="shape" result="effect1_innerShadow_575_308"/>
</filter>
<filter id="filter1_i_575_308" x="8.50391" y="47.5323" width="33.4747" height="14.0299" filterUnits="userSpaceOnUse" color-interpolation-filters="sRGB">
<feFlood flood-opacity="0" result="BackgroundImageFix"/>
<feBlend mode="normal" in="SourceGraphic" in2="BackgroundImageFix" result="shape"/>
<feColorMatrix in="SourceAlpha" type="matrix" values="0 0 0 0 0 0 0 0 0 0 0 0 0 0 0 0 0 0 127 0" result="hardAlpha"/>
<feOffset dx="1.5333" dy="-1.91663"/>
<feGaussianBlur stdDeviation="1.5333"/>
<feComposite in2="hardAlpha" operator="arithmetic" k2="-1" k3="1"/>
<feColorMatrix type="matrix" values="0 0 0 0 0 0 0 0 0 0 0 0 0 0 0 0 0 0 0.25 0"/>
<feBlend mode="normal" in2="shape" result="effect1_innerShadow_575_308"/>
</filter>
</defs>
</svg>
