<svg width="260" height="178" viewBox="0 0 260 178" fill="none" xmlns="http://www.w3.org/2000/svg">
<path d="M40.4223 25.1729C40.4223 24.6581 40.8396 24.2408 41.3543 24.2408C41.869 24.2408 42.2863 24.6581 42.2863 25.1729V44.8784H9V40.3514C9 39.8367 9.41728 39.4194 9.93202 39.4194C10.4468 39.4194 10.864 39.8367 10.864 40.3514V43.0143H40.4223V25.1729Z" fill="black"/>
<path d="M9 35.2919V9.59485H42.2863V17.3173H10.864V35.2919C10.864 35.8066 10.4468 36.2239 9.93202 36.2239C9.41728 36.2239 9 35.8066 9 35.2919ZM10.864 15.4532H40.4223V11.4589H10.864V15.4532Z" fill="black"/>
<path d="M40.4219 21.578V20.1134C40.4219 19.5987 40.8392 19.1814 41.3539 19.1814C41.8686 19.1814 42.2859 19.5987 42.2859 20.1134V21.578C42.2859 22.0927 41.8686 22.51 41.3539 22.51C40.8392 22.51 40.4219 22.0927 40.4219 21.578Z" fill="black"/>
<path d="M23.38 20.2465V28.5015H15.125V20.2465H23.38ZM16.989 26.6374H21.516V22.1105H16.989V26.6374Z" fill="black"/>
<path d="M23.38 31.9634V40.2184H15.125V31.9634H23.38ZM16.989 38.3544H21.516V33.8274H16.989V38.3544Z" fill="black"/>
<path d="M36.1613 20.2465V28.5015H27.9062V20.2465H36.1613ZM29.7703 26.6374H34.2972V22.1105H29.7703V26.6374Z" fill="black"/>
<path d="M36.1613 31.9634V40.2184H27.9062V31.9634H36.1613ZM29.7703 38.3544H34.2972V33.8274H29.7703V38.3544Z" fill="black"/>
<path d="M18.456 13.8556V9.06234C18.456 8.40053 17.9195 7.86403 17.2577 7.86403C16.5958 7.86403 16.0593 8.40053 16.0593 9.06234V9.72807C16.0593 10.2428 15.6421 10.6601 15.1273 10.6601C14.6126 10.6601 14.1953 10.2428 14.1953 9.72807V9.06234C14.1953 7.37106 15.5664 6 17.2577 6C18.9489 6 20.32 7.37106 20.32 9.06234V13.8556C20.32 14.3703 19.9027 14.7876 19.388 14.7876C18.8732 14.7876 18.456 14.3703 18.456 13.8556Z" fill="black"/>
<path d="M34.6981 13.8556V9.06234C34.6981 8.40053 34.1616 7.86403 33.4998 7.86403C32.838 7.86403 32.3015 8.40053 32.3015 9.06234V9.72807C32.3015 10.2428 31.8843 10.6601 31.3695 10.6601C30.8548 10.6601 30.4375 10.2428 30.4375 9.72807V9.06234C30.4375 7.37106 31.8086 6 33.4998 6C35.1911 6 36.5622 7.37106 36.5622 9.06234V13.8556C36.5622 14.3703 36.1449 14.7876 35.6302 14.7876C35.1154 14.7876 34.6981 14.3703 34.6981 13.8556Z" fill="black"/>
<path d="M135.463 9.84546C140.178 9.84546 144 13.6674 144 18.382V20.0894H109V18.382C109 13.6674 112.822 9.84546 117.537 9.84546H135.463ZM117.537 11.8373C114.017 11.8373 111.148 14.615 110.999 18.0975H142.001C141.852 14.615 138.983 11.8373 135.463 11.8373H117.537Z" fill="black"/>
<path d="M142.008 35.4552C142.008 39.0698 139.078 42 135.463 42H117.537C113.922 42 110.992 39.0698 110.992 35.4552V24.0731H142.008V35.4552ZM144 22.0813H109V35.4552C109 40.1699 112.822 43.9918 117.537 43.9918H135.463C140.178 43.9918 144 40.1699 144 35.4552V22.0813Z" fill="black"/>
<path d="M117.82 13.687V6.99996C117.82 6.44992 118.266 6.00403 118.816 6.00403C119.366 6.00403 119.812 6.44992 119.812 6.99996V13.687C119.812 14.237 119.366 14.6829 118.816 14.6829C118.266 14.6829 117.82 14.237 117.82 13.687Z" fill="black"/>
<path d="M133.328 13.687V6.99996C133.328 6.44992 133.774 6.00403 134.324 6.00403C134.874 6.00403 135.32 6.44992 135.32 6.99996V13.687C135.32 14.237 134.874 14.6829 134.324 14.6829C133.774 14.6829 133.328 14.237 133.328 13.687Z" fill="black"/>
<path d="M118.961 27.3455V29.3373H114.835V27.3455H118.961Z" fill="black"/>
<path d="M118.961 33.321V35.3129H114.835V33.321H118.961Z" fill="black"/>
<path d="M128.348 27.3455V29.3373H124.222V27.3455H128.348Z" fill="black"/>
<path d="M128.348 33.321V35.3129H124.222V33.321H128.348Z" fill="black"/>
<path d="M138.023 27.3455V29.3373H133.897V27.3455H138.023Z" fill="black"/>
<path d="M138.023 33.321V35.3129H133.897V33.321H138.023Z" fill="black"/>
<path d="M213.504 39.5314V20.9843C213.504 20.4152 213.965 19.9539 214.534 19.9539C215.103 19.9539 215.565 20.4152 215.565 20.9843V39.5314C215.565 41.4012 217.08 42.917 218.95 42.917H242.355C244.225 42.917 245.741 41.4012 245.741 39.5314V31.2882C245.741 30.7191 246.202 30.2578 246.771 30.2578C247.34 30.2578 247.801 30.7191 247.801 31.2882V39.5314C247.801 42.5393 245.363 44.9778 242.355 44.9778H218.95C215.942 44.9778 213.504 42.5393 213.504 39.5314Z" fill="black"/>
<path d="M245.738 24.9586V20.837C245.738 20.268 246.2 19.8066 246.769 19.8066C247.338 19.8066 247.799 20.268 247.799 20.837V24.9586C247.799 25.5277 247.338 25.989 246.769 25.989C246.2 25.989 245.738 25.5277 245.738 24.9586Z" fill="black"/>
<path d="M245.738 28.4914V27.9026C245.738 27.3335 246.2 26.8722 246.769 26.8722C247.338 26.8722 247.799 27.3335 247.799 27.9026V28.4914C247.799 29.0605 247.338 29.5218 246.769 29.5218C246.2 29.5218 245.738 29.0605 245.738 28.4914Z" fill="black"/>
<path d="M249.124 15.9059C249.124 14.158 247.707 12.7411 245.959 12.7411H241.617C241.048 12.7411 240.586 12.2798 240.586 11.7107C240.586 11.1416 241.048 10.6803 241.617 10.6803H245.959C248.845 10.6803 251.185 13.0199 251.185 15.9059C251.185 18.7919 248.845 21.1315 245.959 21.1315H215.107C212.269 21.1314 209.969 18.831 209.969 15.9933C209.969 13.0705 212.393 10.7379 215.275 10.7194C216.993 10.7084 218.628 10.6803 219.095 10.6803C219.664 10.6803 220.126 11.1416 220.126 11.7107C220.126 12.2798 219.664 12.7411 219.095 12.7411C218.622 12.7411 217.062 12.7688 215.288 12.7802C213.498 12.7917 212.03 14.2445 212.03 15.9933C212.03 17.6929 213.407 19.0706 215.107 19.0707H245.959C247.707 19.0707 249.124 17.6537 249.124 15.9059Z" fill="black"/>
<path d="M223.365 12.7411V9.20836C223.365 8.55799 222.838 8.03076 222.188 8.03076C221.537 8.03076 221.01 8.55799 221.01 9.20836V12.7411C221.01 13.3915 221.537 13.9187 222.188 13.9187V15.9795C220.399 15.9795 218.949 14.5297 218.949 12.7411V9.20836C218.949 7.41985 220.399 5.96997 222.188 5.96997C223.976 5.96997 225.426 7.41985 225.426 9.20836V12.7411C225.426 14.5297 223.976 15.9795 222.188 15.9795V13.9187C222.838 13.9187 223.365 13.3915 223.365 12.7411Z" fill="black"/>
<path d="M239.557 12.7411V9.20836C239.557 8.55799 239.029 8.03076 238.379 8.03076C237.729 8.03076 237.201 8.55799 237.201 9.20836V12.7411C237.201 13.3915 237.729 13.9187 238.379 13.9187V15.9795C236.591 15.9795 235.141 14.5297 235.141 12.7411V9.20836C235.141 7.41985 236.591 5.96997 238.379 5.96997C240.168 5.96997 241.617 7.41985 241.617 9.20836V12.7411C241.617 14.5297 240.168 15.9795 238.379 15.9795V13.9187C239.029 13.9187 239.557 13.3915 239.557 12.7411Z" fill="black"/>
<path d="M235.29 10.6803C235.859 10.6803 236.321 11.1416 236.321 11.7107C236.321 12.2798 235.859 12.7411 235.29 12.7411H224.839C224.27 12.7411 223.809 12.2798 223.809 11.7107C223.809 11.1416 224.27 10.6803 224.839 10.6803H235.29Z" fill="black"/>
<path d="M34.0159 99.9801V102.036H16.9841V99.9801H34.0159ZM41.9444 92.0515V79.1309C41.9444 74.752 38.3947 71.2023 34.0159 71.2023H16.9841C12.6053 71.2023 9.05556 74.752 9.05556 79.1309V92.0515C9.05556 96.4303 12.6053 99.9801 16.9841 99.9801V102.036L16.7263 102.032C11.3314 101.896 7 97.4794 7 92.0515V79.1309C7 73.6168 11.47 69.1467 16.9841 69.1467H34.0159C39.53 69.1467 44 73.6168 44 79.1309V92.0515C44 97.5656 39.53 102.036 34.0159 102.036V99.9801C38.3947 99.9801 41.9444 96.4303 41.9444 92.0515Z" fill="black"/>
<path d="M41.9431 80.3055C42.5107 80.3055 42.9709 80.7657 42.9709 81.3333C42.9709 81.9009 42.5107 82.3611 41.9431 82.3611H8.61372C8.04609 82.3611 7.58594 81.9009 7.58594 81.3333C7.58594 80.7657 8.04609 80.3055 8.61372 80.3055H41.9431Z" fill="black"/>
<path d="M20.2147 75.9008C20.2147 74.9277 19.4259 74.1389 18.4528 74.1389C17.4797 74.1389 16.6909 74.9277 16.6909 75.9008C16.6909 76.8739 17.4797 77.6627 18.4528 77.6627V79.131C16.6688 79.131 15.2227 77.6848 15.2227 75.9008C15.2227 74.1168 16.6688 72.6707 18.4528 72.6707C20.2368 72.6707 21.683 74.1168 21.683 75.9008C21.683 77.6848 20.2368 79.131 18.4528 79.131V77.6627C19.4259 77.6627 20.2147 76.8739 20.2147 75.9008Z" fill="black"/>
<path d="M34.3085 75.9008C34.3085 74.9277 33.5196 74.1389 32.5466 74.1389C31.5735 74.1389 30.7847 74.9277 30.7847 75.9008C30.7847 76.8739 31.5735 77.6627 32.5466 77.6627V79.131C30.7626 79.131 29.3164 77.6848 29.3164 75.9008C29.3164 74.1168 30.7626 72.6707 32.5466 72.6707C34.3305 72.6707 35.7767 74.1168 35.7767 75.9008C35.7767 77.6848 34.3305 79.131 32.5466 79.131V77.6627C33.5196 77.6627 34.3085 76.8739 34.3085 75.9008Z" fill="black"/>
<path d="M17.418 75.9009V69.0001C17.418 68.4324 17.8781 67.9723 18.4457 67.9723C19.0134 67.9723 19.4735 68.4324 19.4735 69.0001V75.9009C19.4735 76.4685 19.0134 76.9286 18.4457 76.9286C17.8781 76.9286 17.418 76.4685 17.418 75.9009Z" fill="black"/>
<path d="M31.5234 76.0476V69.1468C31.5234 68.5792 31.9836 68.119 32.5512 68.119C33.1188 68.119 33.579 68.5792 33.579 69.1468V76.0476C33.579 76.6152 33.1188 77.0754 32.5512 77.0754C31.9836 77.0754 31.5234 76.6152 31.5234 76.0476Z" fill="black"/>
<path d="M147.658 96.496C142.041 91.4921 141.939 78.6587 143.369 71.8846H112.12C111.269 78.6587 111.18 93.3098 117.634 97.7215L147.658 96.496Z" stroke="black" stroke-width="1.77888" stroke-linecap="round"/>
<path d="M142.451 97.1087V101.5H109.976C108.584 94.6839 109.513 82.8235 109.173 74.1179C109.117 72.7012 110.413 71.5801 111.795 71.8943" stroke="black" stroke-width="1.77888" stroke-linecap="square"/>
<path d="M111.918 77.7056H141.635" stroke="black" stroke-width="1.77888" stroke-linecap="round"/>
<path d="M115.691 83.118H120.593" stroke="black" stroke-width="1.77888" stroke-linecap="round"/>
<path d="M124.73 83.2202H129.632" stroke="black" stroke-width="1.77888" stroke-linecap="round"/>
<path d="M132.75 83.2202H137.652" stroke="black" stroke-width="1.77888" stroke-linecap="round"/>
<path d="M117.531 90.7772H122.433" stroke="black" stroke-width="1.77888" stroke-linecap="round"/>
<path d="M126.16 90.7772H131.062" stroke="black" stroke-width="1.77888" stroke-linecap="round"/>
<path d="M134.281 90.7772H139.183" stroke="black" stroke-width="1.77888" stroke-linecap="round"/>
<path d="M119.168 74.744L125.164 65.9037C126.092 64.5362 128.119 64.5733 128.995 65.9738L134.486 74.744" stroke="black" stroke-width="1.77888" stroke-linecap="round"/>
<path d="M210.141 73.3122C210.141 71.4854 211.622 70.0044 213.448 70.0044H217.491C217.965 70.0044 218.349 70.3883 218.349 70.862C218.349 71.3356 217.965 71.7196 217.491 71.7196H213.448C212.569 71.7196 211.856 72.4326 211.856 73.3122V76.8651H243.831C244.305 76.8651 244.689 77.249 244.689 77.7226C244.689 78.1963 244.305 78.5802 243.831 78.5802H210.141V73.3122Z" fill="black"/>
<path d="M226.071 70.0044C226.544 70.0044 226.928 70.3883 226.928 70.862C226.928 71.3356 226.544 71.7196 226.071 71.7196H221.17C220.696 71.7196 220.312 71.3356 220.312 70.862C220.312 70.3883 220.696 70.0044 221.17 70.0044H226.071Z" fill="black"/>
<path d="M236.116 70.0044C236.59 70.0044 236.974 70.3883 236.974 70.862C236.974 71.3356 236.59 71.7196 236.116 71.7196H229.99C229.517 71.7196 229.133 71.3356 229.133 70.862C229.133 70.3883 229.517 70.0044 229.99 70.0044H236.116Z" fill="black"/>
<path d="M247.14 98.3046V73.8023C247.14 72.652 246.207 71.7196 245.057 71.7196H239.054C238.58 71.7196 238.196 71.3356 238.196 70.862C238.196 70.3883 238.58 70.0044 239.054 70.0044H245.057C247.155 70.0044 248.855 71.7048 248.855 73.8023V98.3046C248.855 100.267 247.264 101.857 245.302 101.857H218.717C218.243 101.857 217.859 101.474 217.859 101C217.859 100.526 218.243 100.142 218.717 100.142H245.302C246.317 100.142 247.14 99.3196 247.14 98.3046Z" fill="black"/>
<path d="M210.141 98.3047V81.5205C210.141 81.0469 210.525 80.663 210.998 80.663C211.472 80.663 211.856 81.0469 211.856 81.5205V98.3047C211.856 99.3196 212.679 100.142 213.693 100.142H216.144C216.617 100.142 217.001 100.526 217.001 101C217.001 101.474 216.617 101.858 216.144 101.858H213.693C211.731 101.858 210.141 100.267 210.141 98.3047Z" fill="black"/>
<path d="M222.154 70.4945V69.3919C222.154 68.5123 221.441 67.7993 220.562 67.7993C219.682 67.7993 218.969 68.5123 218.969 69.3919V71.6838C218.969 72.738 219.757 73.626 220.804 73.7516L221.276 73.8086C221.747 73.865 222.082 74.2919 222.026 74.7621C221.969 75.2324 221.542 75.5677 221.072 75.5113L220.599 75.4546C218.691 75.2255 217.254 73.6062 217.254 71.6838V69.3919C217.254 67.5651 218.735 66.0841 220.562 66.0841C222.389 66.0841 223.87 67.5651 223.87 69.3919V70.4945C223.87 70.9682 223.486 71.3521 223.012 71.3521C222.538 71.3521 222.154 70.9682 222.154 70.4945Z" fill="black"/>
<path d="M230.604 70.3721V69.2695C230.604 68.3899 229.891 67.6768 229.011 67.6768C228.131 67.6768 227.418 68.3899 227.418 69.2695V71.5613C227.418 72.6156 228.206 73.5036 229.253 73.6292L229.726 73.6861C230.196 73.7426 230.531 74.1694 230.475 74.6397C230.418 75.1099 229.992 75.4453 229.521 75.3889L229.049 75.3322C227.14 75.1031 225.703 73.4838 225.703 71.5613V69.2695C225.703 67.4426 227.184 65.9617 229.011 65.9617C230.838 65.9617 232.319 67.4426 232.319 69.2695V70.3721C232.319 70.8457 231.935 71.2297 231.461 71.2297C230.988 71.2297 230.604 70.8457 230.604 70.3721Z" fill="black"/>
<path d="M240.162 70.3721V69.2695C240.162 68.3899 239.449 67.6768 238.57 67.6768C237.69 67.6768 236.977 68.3899 236.977 69.2695V71.5613C236.977 72.6156 237.765 73.5036 238.811 73.6292L239.284 73.6861C239.755 73.7426 240.09 74.1694 240.033 74.6397C239.977 75.1099 239.55 75.4453 239.08 75.3889L238.607 75.3322C236.698 75.1031 235.262 73.4838 235.262 71.5613V69.2695C235.262 67.4426 236.743 65.9617 238.57 65.9617C240.396 65.9617 241.877 67.4426 241.877 69.2695V70.3721C241.877 70.8457 241.493 71.2297 241.02 71.2297C240.546 71.2297 240.162 70.8457 240.162 70.3721Z" fill="black"/>
<path d="M216.149 86.9111H220.804V82.2557H216.149V86.9111ZM222.519 87.6462C222.519 88.1875 222.081 88.6263 221.539 88.6263H215.414C214.872 88.6263 214.434 88.1875 214.434 87.6462V81.5206C214.434 80.9793 214.872 80.5405 215.414 80.5405H221.539C222.081 80.5405 222.519 80.9793 222.519 81.5206V87.6462Z" fill="black"/>
<path d="M216.149 96.712H220.804V92.0566H216.149V96.712ZM222.519 97.4471C222.519 97.9884 222.081 98.4272 221.539 98.4272H215.414C214.872 98.4272 214.434 97.9884 214.434 97.4471V91.3215C214.434 90.7802 214.872 90.3414 215.414 90.3414H221.539C222.081 90.3414 222.519 90.7802 222.519 91.3215V97.4471Z" fill="black"/>
<path d="M227.172 86.9111H231.828V82.2557H227.172V86.9111ZM233.543 87.6462C233.543 88.1875 233.104 88.6263 232.563 88.6263H226.437C225.896 88.6263 225.457 88.1875 225.457 87.6462V81.5206C225.457 80.9793 225.896 80.5405 226.437 80.5405H232.563C233.104 80.5405 233.543 80.9793 233.543 81.5206V87.6462Z" fill="black"/>
<path d="M227.172 96.712H231.828V92.0566H227.172V96.712ZM233.543 97.4471C233.543 97.9884 233.104 98.4272 232.563 98.4272H226.437C225.896 98.4272 225.457 97.9884 225.457 97.4471V91.3215C225.457 90.7802 225.896 90.3414 226.437 90.3414H232.563C233.104 90.3414 233.543 90.7802 233.543 91.3215V97.4471Z" fill="black"/>
<path d="M238.2 86.9111H242.855V82.2557H238.2V86.9111ZM244.57 87.6462C244.57 88.1875 244.131 88.6263 243.59 88.6263H237.464C236.923 88.6263 236.484 88.1875 236.484 87.6462V81.5206C236.484 80.9793 236.923 80.5405 237.464 80.5405H243.59C244.131 80.5405 244.57 80.9793 244.57 81.5206V87.6462Z" fill="black"/>
<path d="M238.2 96.712H242.855V92.0566H238.2V96.712ZM244.57 97.4471C244.57 97.9884 244.131 98.4272 243.59 98.4272H237.464C236.923 98.4272 236.484 97.9884 236.484 97.4471V91.3215C236.484 90.7802 236.923 90.3414 237.464 90.3414H243.59C244.131 90.3414 244.57 90.7802 244.57 91.3215V97.4471Z" fill="black"/>
<path d="M35.8216 136.946C36.259 136.946 36.6136 137.301 36.6136 137.738C36.6136 138.176 36.259 138.53 35.8216 138.53H9.01468C8.57726 138.53 8.22266 138.176 8.22266 137.738C8.22266 137.301 8.57726 136.946 9.01468 136.946H35.8216Z" fill="black"/>
<path d="M43.416 136.946C43.8535 136.946 44.2081 137.301 44.2081 137.738C44.2081 138.176 43.8535 138.53 43.416 138.53H38.9483C38.5109 138.53 38.1562 138.176 38.1562 137.738C38.1562 137.301 38.5109 136.946 38.9483 136.946H43.416Z" fill="black"/>
<path d="M39.1751 133.037C39.6125 133.037 39.9671 133.391 39.9671 133.829C39.9671 134.266 39.6125 134.621 39.1751 134.621H13.5967C13.1593 134.621 12.8047 134.266 12.8047 133.829C12.8047 133.391 13.1593 133.037 13.5967 133.037H39.1751Z" fill="black"/>
<path d="M21.181 133.27V129.082C21.1809 128.255 20.5104 127.584 19.6833 127.584C18.8562 127.584 18.1856 128.255 18.1856 129.082V133.27C18.1856 133.708 17.831 134.062 17.3936 134.062C16.9562 134.062 16.6016 133.708 16.6016 133.27V129.082C16.6016 127.38 17.9813 126 19.6833 126C21.3853 126 22.765 127.38 22.765 129.082V133.27C22.765 133.708 22.4104 134.062 21.973 134.062C21.5356 134.062 21.181 133.708 21.181 133.27Z" fill="black"/>
<path d="M34.6966 133.382V129.194C34.6966 128.366 34.0261 127.696 33.1989 127.696C32.3718 127.696 31.7013 128.366 31.7012 129.194V133.382C31.7012 133.82 31.3466 134.174 30.9092 134.174C30.4718 134.174 30.1172 133.82 30.1172 133.382V129.194C30.1172 127.492 31.4969 126.112 33.1989 126.112C34.9009 126.112 36.2806 127.492 36.2806 129.194V133.382C36.2806 133.82 35.926 134.174 35.4886 134.174C35.0512 134.174 34.6966 133.819 34.6966 133.382Z" fill="black"/>
<path d="M8 160.189V132.935C8 130.894 9.65481 129.239 11.6961 129.239H16.6011C17.0386 129.239 17.3932 129.594 17.3932 130.031C17.3932 130.469 17.0386 130.823 16.6011 130.823H11.6961C10.5297 130.823 9.58405 131.769 9.58405 132.935V160.189C9.58405 161.356 10.5297 162.301 11.6961 162.301H41.4071C42.5735 162.301 43.5191 161.356 43.5191 160.189V132.935C43.5191 131.769 42.5735 130.823 41.4071 130.823H36.0457C35.6083 130.823 35.2537 130.469 35.2537 130.031C35.2537 129.594 35.6083 129.239 36.0457 129.239H41.4071C43.4484 129.239 45.1032 130.894 45.1032 132.935V160.189C45.1032 162.23 43.4484 163.885 41.4071 163.885H11.6961C9.65481 163.885 8 162.23 8 160.189Z" fill="black"/>
<path d="M30.5692 129.239C31.0066 129.239 31.3612 129.594 31.3612 130.031C31.3612 130.469 31.0066 130.823 30.5692 130.823H22.3037C21.8663 130.823 21.5117 130.469 21.5117 130.031C21.5117 129.594 21.8663 129.239 22.3037 129.239H30.5692Z" fill="black"/>
<path d="M31.2337 143.1C31.2336 142.612 30.838 142.216 30.3502 142.216C29.8624 142.216 29.4669 142.612 29.4669 143.1V143.211C29.4669 143.699 29.8623 144.095 30.3502 144.095C30.838 144.095 31.2337 143.699 31.2337 143.211V143.1ZM32.8178 143.211C32.8177 144.574 31.7129 145.679 30.3502 145.679C28.9875 145.679 27.8829 144.574 27.8828 143.211V143.1C27.8829 141.737 28.9875 140.632 30.3502 140.632C31.7129 140.632 32.8177 141.737 32.8178 143.1V143.211Z" fill="black"/>
<path d="M29.4669 151.02H31.2337V149.141H29.4669V151.02ZM32.8178 151.548C32.8178 152.131 32.3449 152.604 31.7617 152.604H28.9388C28.3556 152.604 27.8828 152.131 27.8828 151.548V148.613C27.8828 148.03 28.3556 147.557 28.9388 147.557H31.7617C32.3449 147.557 32.8178 148.03 32.8178 148.613V151.548Z" fill="black"/>
<path d="M29.4669 157.722H31.2337V155.843H29.4669V157.722ZM32.8178 158.25C32.8178 158.833 32.3449 159.306 31.7617 159.306H28.9388C28.3556 159.306 27.8828 158.833 27.8828 158.25V155.315C27.8828 154.732 28.3556 154.259 28.9388 154.259H31.7617C32.3449 154.259 32.8178 154.732 32.8178 155.315V158.25Z" fill="black"/>
<path d="M14.7247 151.02H16.4915V149.141H14.7247V151.02ZM18.0756 151.548C18.0756 152.131 17.6028 152.604 17.0195 152.604H14.1967C13.6134 152.604 13.1406 152.131 13.1406 151.548V148.613C13.1406 148.03 13.6134 147.557 14.1967 147.557H17.0195C17.6028 147.557 18.0756 148.03 18.0756 148.613V151.548Z" fill="black"/>
<path d="M14.7247 157.722H16.4915V155.843H14.7247V157.722ZM18.0756 158.25C18.0756 158.833 17.6028 159.306 17.0195 159.306H14.1967C13.6134 159.306 13.1406 158.833 13.1406 158.25V155.315C13.1406 154.732 13.6134 154.259 14.1967 154.259H17.0195C17.6028 154.259 18.0756 154.732 18.0756 155.315V158.25Z" fill="black"/>
<path d="M38.6087 143.1C38.6086 142.612 38.213 142.216 37.7252 142.216C37.2374 142.216 36.8419 142.612 36.8419 143.1V143.211C36.8419 143.699 37.2373 144.095 37.7252 144.095C38.213 144.095 38.6087 143.699 38.6087 143.211V143.1ZM40.1928 143.211C40.1927 144.574 39.0879 145.679 37.7252 145.679C36.3625 145.679 35.2579 144.574 35.2578 143.211V143.1C35.2579 141.737 36.3625 140.632 37.7252 140.632C39.0879 140.632 40.1927 141.737 40.1928 143.1V143.211Z" fill="black"/>
<path d="M36.8419 151.02H38.6087V149.141H36.8419V151.02ZM40.1928 151.548C40.1928 152.131 39.7199 152.604 39.1367 152.604H36.3138C35.7306 152.604 35.2578 152.131 35.2578 151.548V148.613C35.2578 148.03 35.7306 147.557 36.3138 147.557H39.1367C39.7199 147.557 40.1928 148.03 40.1928 148.613V151.548Z" fill="black"/>
<path d="M22.0919 151.02H23.8587V149.141H22.0919V151.02ZM25.4428 151.548C25.4428 152.131 24.9699 152.604 24.3867 152.604H21.5638C20.9806 152.604 20.5078 152.131 20.5078 151.548V148.613C20.5078 148.03 20.9806 147.557 21.5638 147.557H24.3867C24.9699 147.557 25.4428 148.03 25.4428 148.613V151.548Z" fill="black"/>
<path d="M22.0919 157.722H23.8587V155.843H22.0919V157.722ZM25.4428 158.25C25.4428 158.833 24.9699 159.306 24.3867 159.306H21.5638C20.9806 159.306 20.5078 158.833 20.5078 158.25V155.315C20.5078 154.732 20.9806 154.259 21.5638 154.259H24.3867C24.9699 154.259 25.4428 154.732 25.4428 155.315V158.25Z" fill="black"/>
<path d="M139.391 128.321L145.466 164.162H105.805L112.183 128.321H139.391ZM108.201 162.155H143.09L137.695 130.328H113.865L108.201 162.155Z" fill="black"/>
<path d="M151.752 160.721H143.414V158.714H148.84L137.531 129.031L139.407 128.316L151.752 160.721Z" fill="black"/>
<path d="M139.832 136.206V138.213H111.445V136.206H139.832Z" fill="black"/>
<path d="M118.003 122.207C118.979 121.882 119.904 121.919 120.663 122.424C121.377 122.9 121.751 123.668 121.953 124.381C122.354 125.803 122.234 127.597 122.033 128.776C121.94 129.322 121.422 129.69 120.876 129.597C120.329 129.504 119.962 128.985 120.055 128.439C120.236 127.372 120.303 125.925 120.021 124.927C119.881 124.43 119.696 124.192 119.549 124.094C119.447 124.026 119.209 123.921 118.638 124.111C118.174 124.266 117.876 124.568 117.678 125.035C117.464 125.538 117.374 126.226 117.409 127.052C117.479 128.703 118.032 130.585 118.533 131.813C118.742 132.326 118.495 132.912 117.982 133.121C117.469 133.33 116.883 133.083 116.674 132.57C116.123 131.218 115.487 129.099 115.404 127.137C115.362 126.157 115.455 125.136 115.83 124.251C116.22 123.332 116.918 122.569 118.003 122.207Z" fill="black"/>
<path d="M131.401 122.223C132.378 121.898 133.302 121.935 134.061 122.44C134.775 122.916 135.15 123.684 135.351 124.397C135.752 125.819 135.632 127.613 135.432 128.792C135.339 129.338 134.82 129.706 134.274 129.613C133.728 129.52 133.36 129.001 133.453 128.455C133.635 127.388 133.701 125.941 133.419 124.943C133.279 124.446 133.094 124.208 132.948 124.11C132.846 124.042 132.608 123.937 132.036 124.127C131.573 124.282 131.275 124.584 131.076 125.051C130.863 125.554 130.772 126.242 130.807 127.068C130.877 128.719 131.431 130.601 131.931 131.829C132.14 132.342 131.894 132.928 131.38 133.137C130.867 133.346 130.281 133.099 130.072 132.586C129.521 131.234 128.885 129.115 128.802 127.153C128.761 126.173 128.853 125.152 129.229 124.267C129.619 123.348 130.316 122.585 131.401 122.223Z" fill="black"/>
<path d="M123.347 142.37C123.901 142.37 124.35 142.82 124.35 143.374C124.35 143.928 123.901 144.378 123.347 144.378H115.605C115.051 144.378 114.602 143.928 114.602 143.374C114.602 142.82 115.051 142.37 115.605 142.37H123.347Z" fill="black"/>
<path d="M136.391 149.252C136.945 149.252 137.394 149.701 137.394 150.256C137.394 150.81 136.945 151.259 136.391 151.259H130.656C130.102 151.259 129.652 150.81 129.652 150.256C129.652 149.701 130.102 149.252 130.656 149.252H136.391Z" fill="black"/>
<path d="M135.245 142.37C135.799 142.37 136.248 142.82 136.248 143.374C136.248 143.928 135.799 144.378 135.245 144.378H132.234C131.68 144.378 131.23 143.928 131.23 143.374C131.23 142.82 131.68 142.37 132.234 142.37H135.245Z" fill="black"/>
<path d="M113.451 156.42C112.897 156.42 112.448 156.87 112.448 157.424C112.448 157.978 112.897 158.428 113.451 158.428H121.336C121.891 158.428 122.34 157.978 122.34 157.424C122.34 156.87 121.891 156.42 121.336 156.42H113.451Z" fill="black"/>
<path d="M128.79 142.37C129.345 142.37 129.794 142.82 129.794 143.374C129.794 143.928 129.345 144.378 128.79 144.378H127.07C126.516 144.378 126.066 143.928 126.066 143.374C126.066 142.82 126.516 142.37 127.07 142.37H128.79Z" fill="black"/>
<path d="M124.776 156.42C124.222 156.42 123.772 156.87 123.772 157.424C123.772 157.978 124.222 158.428 124.776 158.428H126.496C127.051 158.428 127.5 157.978 127.5 157.424C127.5 156.87 127.051 156.42 126.496 156.42H124.776Z" fill="black"/>
<path d="M116.322 149.252C116.876 149.252 117.325 149.701 117.325 150.256C117.325 150.81 116.876 151.259 116.322 151.259H114.601C114.047 151.259 113.598 150.81 113.598 150.256C113.598 149.701 114.047 149.252 114.601 149.252H116.322Z" fill="black"/>
<path d="M137.538 156.42C138.093 156.42 138.542 156.87 138.542 157.424C138.542 157.978 138.093 158.428 137.538 158.428H129.797C129.242 158.428 128.793 157.978 128.793 157.424C128.793 156.87 129.242 156.42 129.797 156.42H137.538Z" fill="black"/>
<path d="M127.499 149.252C128.053 149.252 128.503 149.701 128.503 150.256C128.503 150.81 128.053 151.259 127.499 151.259H119.757C119.203 151.259 118.754 150.81 118.754 150.256C118.754 149.701 119.203 149.252 119.757 149.252H127.499Z" fill="black"/>
<path d="M246.135 134.193C246.135 133.239 245.361 132.465 244.407 132.465H213.008C212.053 132.465 211.279 133.239 211.279 134.193V160.407C211.279 161.362 212.053 162.136 213.008 162.136H244.407C245.361 162.136 246.135 161.362 246.135 160.407V134.193ZM247.864 160.407C247.864 162.316 246.316 163.864 244.407 163.864H213.008C211.098 163.864 209.551 162.316 209.551 160.407V134.193C209.551 132.284 211.098 130.737 213.008 130.737H244.407C246.316 130.737 247.864 132.284 247.864 134.193V160.407Z" fill="black"/>
<path d="M242.103 158.103V159.831H215.025V158.103H242.103ZM242.103 138.226H215.025V159.831C214.071 159.831 213.297 159.057 213.297 158.103V138.226C213.297 137.272 214.071 136.498 215.025 136.498H242.103C243.058 136.498 243.832 137.272 243.832 138.226V158.103C243.832 159.057 243.058 159.831 242.103 159.831V138.226Z" fill="black"/>
<path d="M219.346 144.852H221.65V142.547H219.346V144.852ZM223.379 146.004C223.379 146.322 223.121 146.58 222.802 146.58H218.193C217.875 146.58 217.617 146.322 217.617 146.004V141.395C217.617 141.077 217.875 140.819 218.193 140.819H222.802C223.121 140.819 223.379 141.077 223.379 141.395V146.004Z" fill="black"/>
<path d="M219.346 154.07H221.65V151.766H219.346V154.07ZM223.379 155.222C223.379 155.54 223.121 155.798 222.802 155.798H218.193C217.875 155.798 217.617 155.54 217.617 155.222V150.613C217.617 150.295 217.875 150.037 218.193 150.037H222.802C223.121 150.037 223.379 150.295 223.379 150.613V155.222Z" fill="black"/>
<path d="M227.408 144.852H229.713V142.547H227.408V144.852ZM231.441 146.004C231.441 146.322 231.183 146.58 230.865 146.58H226.256C225.938 146.58 225.68 146.322 225.68 146.004V141.395C225.68 141.077 225.938 140.819 226.256 140.819H230.865C231.183 140.819 231.441 141.077 231.441 141.395V146.004Z" fill="black"/>
<path d="M227.408 154.07H229.713V151.766H227.408V154.07ZM231.441 155.222C231.441 155.54 231.183 155.798 230.865 155.798H226.256C225.938 155.798 225.68 155.54 225.68 155.222V150.613C225.68 150.295 225.938 150.037 226.256 150.037H230.865C231.183 150.037 231.441 150.295 231.441 150.613V155.222Z" fill="black"/>
<path d="M235.478 144.852H237.783V142.547H235.478V144.852ZM239.511 146.004C239.511 146.322 239.253 146.58 238.935 146.58H234.326C234.008 146.58 233.75 146.322 233.75 146.004V141.395C233.75 141.077 234.008 140.819 234.326 140.819H238.935C239.253 140.819 239.511 141.077 239.511 141.395V146.004Z" fill="black"/>
<path d="M235.478 154.07H237.783V151.766H235.478V154.07ZM239.511 155.222C239.511 155.54 239.253 155.798 238.935 155.798H234.326C234.008 155.798 233.75 155.54 233.75 155.222V150.613C233.75 150.295 234.008 150.037 234.326 150.037H238.935C239.253 150.037 239.511 150.295 239.511 150.613V155.222Z" fill="black"/>
<path d="M221.648 134.193C221.648 134.83 221.132 135.346 220.496 135.346C219.86 135.346 219.344 134.83 219.344 134.193C219.344 133.557 219.86 133.041 220.496 133.041C221.132 133.041 221.648 133.557 221.648 134.193Z" fill="black"/>
<path d="M229.719 134.193C229.719 134.83 229.203 135.346 228.566 135.346C227.93 135.346 227.414 134.83 227.414 134.193C227.414 133.557 227.93 133.041 228.566 133.041C229.203 133.041 229.719 133.557 229.719 134.193Z" fill="black"/>
<path d="M237.781 134.193C237.781 134.83 237.265 135.346 236.629 135.346C235.992 135.346 235.477 134.83 235.477 134.193C235.477 133.557 235.992 133.041 236.629 133.041C237.265 133.041 237.781 133.557 237.781 134.193Z" fill="black"/>
<path d="M221.246 127.781C221.366 127.319 221.839 127.043 222.3 127.164C222.762 127.285 223.039 127.757 222.918 128.219L221.333 134.268C221.212 134.73 220.74 135.006 220.278 134.885C219.817 134.764 219.54 134.292 219.661 133.83L221.246 127.781Z" fill="black"/>
<path d="M229.308 127.925C229.429 127.463 229.901 127.187 230.363 127.308C230.825 127.429 231.101 127.901 230.98 128.363L229.396 134.412C229.275 134.874 228.803 135.15 228.341 135.029C227.879 134.909 227.603 134.436 227.724 133.975L229.308 127.925Z" fill="black"/>
<path d="M237.378 127.925C237.499 127.463 237.972 127.187 238.433 127.308C238.895 127.429 239.171 127.901 239.05 128.363L237.466 134.412C237.345 134.874 236.873 135.15 236.411 135.029C235.95 134.909 235.673 134.436 235.794 133.975L237.378 127.925Z" fill="black"/>
</svg>
