<svg width="296" height="220" viewBox="0 0 296 220" fill="none" xmlns="http://www.w3.org/2000/svg">
<path d="M254.953 179.275C255.327 178.994 255.858 179.07 256.139 179.444L256.332 179.701C257.205 180.864 257.089 182.492 256.061 183.52C255.73 183.851 255.193 183.851 254.862 183.52C254.53 183.189 254.53 182.652 254.862 182.321C255.293 181.89 255.341 181.207 254.975 180.719L254.783 180.461C254.502 180.087 254.578 179.555 254.953 179.275Z" fill="black"/>
<path d="M246.18 175.378C246.599 175.169 247.109 175.339 247.318 175.758C247.527 176.176 247.358 176.686 246.939 176.895L246.091 177.319C245.672 177.529 245.162 177.359 244.953 176.94C244.744 176.521 244.913 176.012 245.332 175.802L246.18 175.378Z" fill="black"/>
<path d="M247.028 177.074C247.447 176.865 247.956 177.035 248.166 177.453C248.375 177.872 248.205 178.382 247.786 178.591L246.938 179.015C246.52 179.225 246.01 179.055 245.801 178.636C245.591 178.217 245.761 177.708 246.18 177.498L247.028 177.074Z" fill="black"/>
<path d="M247.876 178.77C248.294 178.561 248.804 178.731 249.013 179.15C249.223 179.568 249.053 180.078 248.634 180.287L247.786 180.711C247.367 180.921 246.858 180.751 246.648 180.332C246.439 179.913 246.609 179.404 247.028 179.194L247.876 178.77Z" fill="black"/>
<path d="M264.808 161.979C264.9 161.52 265.346 161.222 265.806 161.314C266.265 161.406 266.562 161.853 266.471 162.312L266.047 164.432C265.955 164.891 265.508 165.188 265.049 165.097C264.59 165.005 264.292 164.558 264.384 164.099L264.808 161.979Z" fill="black"/>
<path d="M270.893 169.794C271.352 169.886 271.649 170.332 271.558 170.792C271.466 171.251 271.019 171.548 270.56 171.456L268.44 171.032C267.981 170.941 267.683 170.494 267.775 170.035C267.867 169.575 268.314 169.278 268.773 169.37L270.893 169.794Z" fill="black"/>
<path d="M269.41 164.408C269.8 164.148 270.326 164.253 270.586 164.643C270.846 165.032 270.74 165.559 270.351 165.819L267.807 167.515C267.417 167.774 266.891 167.669 266.631 167.279C266.371 166.89 266.476 166.363 266.866 166.104L269.41 164.408Z" fill="black"/>
<path d="M246.946 172.457C247.339 172.203 247.864 172.315 248.119 172.709L252.783 179.916C253.037 180.309 252.924 180.835 252.531 181.089C252.138 181.343 251.613 181.23 251.358 180.837L246.694 173.629C246.44 173.236 246.553 172.711 246.946 172.457Z" fill="black"/>
<path d="M253.791 163.212C253.905 162.758 254.364 162.481 254.819 162.595C255.273 162.709 255.549 163.168 255.436 163.623C254.086 169.023 250.896 171.3 247.85 173.043L246.445 173.908C244.545 175.077 243.916 177.542 245.022 179.479C246.225 181.584 248.973 182.207 250.966 180.827L252.011 180.103C254.077 178.608 256.748 178.138 259.121 178.087C261.518 178.036 263.733 178.409 264.984 178.703C265.439 178.81 265.722 179.268 265.615 179.723C265.507 180.179 265.05 180.462 264.594 180.354C263.443 180.083 261.375 179.735 259.158 179.783C256.924 179.831 254.654 180.278 252.992 181.486L252.984 181.492L252.976 181.498L251.93 182.222C249.12 184.167 245.246 183.288 243.55 180.32C241.989 177.589 242.877 174.112 245.556 172.463L246.961 171.599L246.973 171.591L246.985 171.585C249.867 169.938 252.601 167.973 253.791 163.212Z" fill="black"/>
<path d="M219 197.76V173.169C219 170.827 220.898 168.929 223.24 168.929H250.375C250.843 168.929 251.223 169.309 251.223 169.777C251.223 170.245 250.843 170.625 250.375 170.625H223.24C221.835 170.625 220.696 171.764 220.696 173.169V197.76C220.696 199.165 221.835 200.304 223.24 200.304H258.007C259.412 200.304 260.551 199.165 260.551 197.76V179.953C260.551 179.485 260.93 179.105 261.399 179.105C261.867 179.105 262.247 179.485 262.247 179.953V197.76C262.247 200.102 260.348 202 258.007 202H223.24C220.898 202 219 200.102 219 197.76Z" fill="black"/>
<path d="M243.169 175.289C243.637 175.289 244.017 175.669 244.017 176.137C244.017 176.605 243.637 176.985 243.169 176.985H220.274C219.805 176.985 219.426 176.605 219.426 176.137C219.426 175.669 219.805 175.289 220.274 175.289H243.169Z" fill="black"/>
<path d="M224.512 172.321C224.981 172.321 225.36 172.701 225.36 173.169C225.36 173.637 224.981 174.017 224.512 174.017H223.664C223.196 174.017 222.816 173.637 222.816 173.169C222.816 172.701 223.196 172.321 223.664 172.321H224.512Z" fill="black"/>
<path d="M227.903 172.321C228.371 172.321 228.751 172.701 228.751 173.169C228.751 173.637 228.371 174.017 227.903 174.017H227.055C226.587 174.017 226.207 173.637 226.207 173.169C226.207 172.701 226.587 172.321 227.055 172.321H227.903Z" fill="black"/>
<path d="M231.294 172.321C231.762 172.321 232.142 172.701 232.142 173.169C232.142 173.637 231.762 174.017 231.294 174.017H230.446C229.977 174.017 229.598 173.637 229.598 173.169C229.598 172.701 229.977 172.321 230.446 172.321H231.294Z" fill="black"/>
<path d="M230.449 195.216C230.917 195.216 231.297 195.596 231.297 196.064C231.297 196.533 230.917 196.912 230.449 196.912H227.481C227.012 196.912 226.633 196.533 226.633 196.064C226.633 195.596 227.012 195.216 227.481 195.216H230.449ZM252.496 195.216C252.964 195.216 253.344 195.596 253.344 196.064C253.344 196.533 252.964 196.912 252.496 196.912H234.265C233.796 196.912 233.417 196.533 233.417 196.064C233.417 195.596 233.796 195.216 234.265 195.216H252.496Z" fill="black"/>
<path d="M235.961 180.946C235.961 180.275 236.641 179.838 237.239 180.079L237.356 180.137L246.01 185.082C246.623 185.433 246.639 186.312 246.038 186.684L237.384 192.041C236.763 192.426 235.961 191.979 235.961 191.248V180.946ZM237.657 189.878L244.054 185.918L237.657 182.262V189.878Z" fill="black"/>
<path d="M232.993 196.064C232.993 195.83 232.803 195.64 232.569 195.64C232.335 195.64 232.145 195.83 232.145 196.064C232.145 196.298 232.335 196.488 232.569 196.488V198.184C231.398 198.184 230.449 197.235 230.449 196.064C230.449 194.893 231.398 193.944 232.569 193.944C233.74 193.944 234.689 194.893 234.689 196.064C234.689 197.235 233.74 198.184 232.569 198.184V196.488C232.803 196.488 232.993 196.298 232.993 196.064Z" fill="black"/>
<path d="M255.746 163.342L264.479 178.269C264.659 178.577 265.056 178.681 265.364 178.501C265.672 178.32 265.776 177.924 265.595 177.616L256.863 162.689C256.683 162.381 256.287 162.278 255.979 162.458L255.122 160.995L255.335 160.884C256.343 160.423 257.542 160.738 258.195 161.633L258.327 161.833L267.059 176.759C267.712 177.876 267.337 179.311 266.22 179.964L266.007 180.074C264.927 180.567 263.628 180.172 263.015 179.125L254.283 164.199L254.173 163.986C253.68 162.906 254.075 161.607 255.122 160.995L255.979 162.458C255.671 162.639 255.566 163.034 255.746 163.342Z" fill="black"/>
<path d="M260.635 166.031C262.446 165.125 264.648 165.735 265.735 167.444C266.802 169.12 266.458 171.328 264.932 172.6L264.484 172.973C264.125 173.273 263.589 173.224 263.289 172.864C262.99 172.505 263.038 171.969 263.398 171.669L263.845 171.297C264.716 170.571 264.914 169.31 264.305 168.354C263.684 167.379 262.427 167.03 261.393 167.547L261.353 167.568C260.934 167.777 260.424 167.607 260.215 167.188C260.005 166.77 260.175 166.26 260.594 166.051L260.635 166.031Z" fill="black"/>
<path d="M251.896 180.201C252.227 179.87 252.764 179.87 253.095 180.201L257.567 184.673C258.706 185.812 258.634 187.68 257.411 188.728C256.286 189.693 254.601 189.599 253.59 188.515L248.908 183.5C248.588 183.157 248.607 182.62 248.949 182.3C249.291 181.981 249.829 182 250.148 182.342L254.829 187.358C255.221 187.777 255.872 187.813 256.308 187.44C256.781 187.035 256.808 186.313 256.368 185.872L251.896 181.4C251.565 181.069 251.565 180.532 251.896 180.201Z" fill="black"/>
<path d="M75.2016 19.7398C76.4476 19.5322 77.6912 20.1226 78.3179 21.2193C78.9429 22.3133 78.8221 23.6807 78.0155 24.6486L77.078 25.7743C76.8043 26.1027 76.3155 26.1471 75.9871 25.8734C75.6587 25.5996 75.6144 25.1109 75.8881 24.7824L76.8263 23.6575C77.219 23.1862 77.2779 22.5201 76.9737 21.9874C76.6685 21.4533 76.0624 21.1658 75.4556 21.2669L74.6746 21.397C74.253 21.4671 73.8543 21.1821 73.784 20.7604C73.7139 20.3387 73.999 19.9401 74.4206 19.8698L75.2016 19.7398Z" fill="black"/>
<path d="M67.6845 18.3057C67.9013 17.9372 68.376 17.8139 68.7445 18.0305C69.1129 18.2472 69.2363 18.7219 69.0197 19.0904C68.3512 20.2268 67.14 21.9925 65.6561 23.6387C64.1884 25.267 62.3743 26.8681 60.488 27.5541C60.0862 27.7002 59.6422 27.4932 59.4961 27.0914C59.35 26.6896 59.557 26.2457 59.9587 26.0995C61.4787 25.5468 63.0838 24.1802 64.5062 22.6022C65.9124 21.0421 67.0627 19.3628 67.6845 18.3057Z" fill="black"/>
<path d="M75.271 31.4994C75.6983 31.5095 76.0529 31.1716 76.0632 30.7444C76.0732 30.317 75.7348 29.962 75.3075 29.9518C73.9569 29.9202 71.9649 30.1322 69.9256 30.5851C67.8898 31.0373 65.7331 31.7456 64.0835 32.7451C63.7178 32.9666 63.6006 33.4433 63.8222 33.8089C64.0437 34.1744 64.5198 34.2911 64.8854 34.0698C66.3315 33.1936 68.3051 32.5311 70.2612 32.0966C72.2143 31.6628 74.0775 31.4715 75.271 31.4994Z" fill="black"/>
<path d="M63.0059 33.9253L59.5872 27.8863L57.1648 29.2576C55.6395 30.1212 55.103 32.0577 55.9664 33.5831L56.2576 34.0976C57.1212 35.6231 59.058 36.1601 60.5835 35.2967L63.0059 33.9253ZM61.3462 36.6441C59.0766 37.9288 56.1951 37.13 54.9102 34.8604L54.619 34.3459C53.3344 32.0763 54.1325 29.1951 56.402 27.9102L60.1719 25.7761L65.1161 34.51L61.3462 36.6441Z" fill="black"/>
<path d="M78.0733 29.6821L70.3882 16.7878C70.1693 16.4205 69.6941 16.3002 69.3268 16.5191C68.9595 16.738 68.8392 17.2132 69.0581 17.5805L76.7433 30.4748C76.9622 30.8421 77.4374 30.9623 77.8047 30.7434L78.5974 32.0735C77.4955 32.7302 76.07 32.3693 75.4133 31.2675L67.7281 18.3732C67.0714 17.2714 67.4323 15.8458 68.5341 15.1891C69.6359 14.5324 71.0615 14.8933 71.7182 15.9951L79.4033 28.8894C80.06 29.9912 79.6992 31.4168 78.5974 32.0735L77.8047 30.7434C78.1719 30.5245 78.2922 30.0493 78.0733 29.6821Z" fill="black"/>
<path d="M77.3855 14.3978C77.6226 14.042 78.1033 13.9459 78.459 14.1831C78.8148 14.4203 78.9109 14.9009 78.6737 15.2566L77.1254 17.5791C76.8882 17.9349 76.4076 18.031 76.0518 17.7938C75.6961 17.5567 75.6 17.076 75.8371 16.7203L77.3855 14.3978Z" fill="black"/>
<path d="M83.9219 23.8611C84.3495 23.863 84.6944 24.2112 84.6924 24.6388C84.6905 25.0663 84.3423 25.4113 83.9147 25.4093L81.1234 25.3964C80.6959 25.3944 80.3509 25.0462 80.3529 24.6186C80.3549 24.1911 80.7031 23.8461 81.1306 23.8481L83.9219 23.8611Z" fill="black"/>
<path d="M82.2454 17.6667C82.6012 17.4296 83.0818 17.5257 83.319 17.8814C83.5562 18.2372 83.46 18.7178 83.1043 18.955L80.7818 20.5033C80.426 20.7405 79.9454 20.6444 79.7082 20.2886C79.4711 19.9329 79.5672 19.4522 79.9229 19.2151L82.2454 17.6667Z" fill="black"/>
<path d="M63.9993 33.9636C64.3332 33.6965 64.8209 33.7507 65.088 34.0846L69.6853 39.8318C69.975 40.1939 69.9213 40.7212 69.5651 41.018L67.3636 42.8529C66.9891 43.1647 66.4297 43.0991 66.1373 42.7093L61.5415 36.5809C61.2851 36.2389 61.3545 35.7541 61.6965 35.4976C62.0385 35.2411 62.5233 35.3105 62.7798 35.6525L66.9357 41.1927L68.0493 40.265L63.8783 35.0523C63.6113 34.7184 63.6654 34.2307 63.9993 33.9636Z" fill="black"/>
<path d="M51.3212 50.8259C51.3212 48.6881 49.5882 46.9551 47.4504 46.9551C45.3126 46.9551 43.5796 48.6881 43.5796 50.8259C43.5796 52.9637 45.3126 54.6967 47.4504 54.6967V56.2451C44.4575 56.2451 42.0312 53.8188 42.0312 50.8259C42.0312 47.833 44.4575 45.4067 47.4504 45.4067C50.4433 45.4067 52.8696 47.833 52.8696 50.8259C52.8696 53.8188 50.4433 56.2451 47.4504 56.2451V54.6967C49.5882 54.6967 51.3212 52.9637 51.3212 50.8259Z" fill="black"/>
<path d="M46.4631 42.2964C46.3007 43.1085 45.8026 43.8148 45.0925 44.2409C44.1617 44.7993 42.9991 44.7993 42.0684 44.2409L41.7652 44.0587L40.6841 45.1398L41.0319 45.7197C41.4728 46.4548 41.5453 47.3537 41.2269 48.1496C40.871 49.0392 40.0764 49.6787 39.1312 49.8362L38.5483 49.933V51.718L38.9324 51.7822C40.0096 51.9618 40.8997 52.7225 41.2451 53.7585C41.5509 54.6763 41.387 55.6858 40.8066 56.4597L40.6962 56.6064L41.7539 57.8758L42.3443 57.404C43.0389 56.8484 43.993 56.7471 44.7885 57.1447C45.4412 57.471 45.8986 58.0905 46.0186 58.8102L46.1721 59.7288H48.3433L48.4968 58.8102C48.6168 58.0905 49.0742 57.471 49.7269 57.1447C50.5224 56.7471 51.4765 56.8484 52.1711 57.404L52.8129 57.9166L54.1549 56.5747L53.7028 56.0084C53.1192 55.2789 52.9725 54.2917 53.3195 53.4243C53.6561 52.5829 54.4078 51.9781 55.3018 51.8291L55.9671 51.718V50.2989L55.9157 50.2891C54.8631 50.0786 54.0037 49.3198 53.6642 48.3015C53.354 47.3705 53.5207 46.3461 54.1095 45.5609L54.17 45.4793L52.7494 44.0587L52.447 44.2409C51.5163 44.7993 50.3537 44.7993 49.4229 44.2409C48.7128 43.8148 48.2147 43.1085 48.0523 42.2964L47.9774 41.923H46.538L46.4631 42.2964ZM57.5154 52.3084C57.5154 52.7247 57.2145 53.0799 56.804 53.1484L55.5558 53.3563C55.1956 53.4164 54.8931 53.6606 54.7574 53.9997C54.6176 54.3493 54.6764 54.7474 54.9117 55.0415L55.7539 56.0946C56.0249 56.4334 55.998 56.9218 55.6911 57.2286L53.4669 59.4528C53.1601 59.7597 52.6717 59.7867 52.3329 59.5156L51.2041 58.6129C50.9812 58.4345 50.6748 58.4022 50.4194 58.5297C50.2099 58.6345 50.0625 58.8332 50.024 59.0642L49.7737 60.5657C49.7052 60.9762 49.35 61.2771 48.9338 61.2771H45.5816C45.1654 61.2771 44.8102 60.9762 44.7417 60.5657L44.4914 59.0642C44.4529 58.8332 44.3055 58.6345 44.096 58.5297C43.8406 58.4022 43.5342 58.4345 43.3113 58.6129L42.1878 59.5118C41.8258 59.8014 41.2984 59.7478 41.0016 59.3916L39.1539 57.1749C38.9013 56.8718 38.89 56.4345 39.1267 56.1188L39.5682 55.5306C39.8438 55.1631 39.9214 54.6834 39.7761 54.2476C39.6121 53.7559 39.1897 53.3947 38.6784 53.3094L37.7114 53.1484C37.3009 53.0799 37 52.7247 37 52.3084V49.3433C37 48.9271 37.3009 48.5719 37.7114 48.5034L38.8764 48.3091C39.2882 48.2405 39.6347 47.9618 39.7897 47.5742C39.9283 47.2276 39.8963 46.8359 39.7043 46.5158L39.0768 45.4695C38.8759 45.1344 38.9283 44.7054 39.2046 44.4292L41.0545 42.5792C41.3308 42.303 41.7598 42.2506 42.0948 42.4514L42.8645 42.9134C43.305 43.1777 43.8558 43.1777 44.2964 42.9134C44.6324 42.7117 44.8674 42.3775 44.9443 41.9933L45.131 41.0588L45.1492 40.9863C45.2545 40.6266 45.5857 40.3746 45.9664 40.3746H48.549C48.9297 40.3746 49.2609 40.6266 49.3662 40.9863L49.3844 41.0588L49.5711 41.9933C49.648 42.3775 49.883 42.7117 50.219 42.9134C50.6596 43.1777 51.2104 43.1777 51.6509 42.9134L52.4206 42.4514L52.4841 42.4166C52.7867 42.2684 53.1496 42.3129 53.4072 42.5301L53.4609 42.5792L55.6926 44.8117C55.9922 45.1113 56.0261 45.5856 55.772 45.9246L55.3479 46.4901C55.0638 46.8688 54.9835 47.3632 55.1332 47.8124C55.2969 48.3035 55.7119 48.6695 56.2196 48.771L56.8312 48.8927C57.2291 48.9725 57.5154 49.3223 57.5154 49.7281V52.3084Z" fill="black"/>
<path d="M50.9362 25.2784C50.9362 23.782 49.7231 22.5688 48.2267 22.5688C46.7302 22.5688 45.5171 23.782 45.5171 25.2784C45.5171 26.7749 46.7302 27.988 48.2267 27.988V29.5363C45.8751 29.5363 43.9688 27.63 43.9688 25.2784C43.9688 22.9268 45.8751 21.0205 48.2267 21.0205C50.5782 21.0205 52.4846 22.9268 52.4846 25.2784C52.4846 27.63 50.5782 29.5363 48.2267 29.5363V27.988C49.7231 27.988 50.9362 26.7749 50.9362 25.2784Z" fill="black"/>
<path d="M74.9355 49.6647C74.9355 48.382 73.8957 47.3422 72.613 47.3422C71.3303 47.3422 70.2905 48.382 70.2905 49.6647C70.2905 50.9473 71.3303 51.9872 72.613 51.9872V53.5355C70.4752 53.5355 68.7422 51.8025 68.7422 49.6647C68.7422 47.5269 70.4752 45.7938 72.613 45.7938C74.7508 45.7938 76.4838 47.5269 76.4838 49.6647C76.4838 51.8025 74.7508 53.5355 72.613 53.5355V51.9872C73.8957 51.9872 74.9355 50.9473 74.9355 49.6647Z" fill="black"/>
<path d="M50.8172 22.3685C52.827 20.6459 58.581 18.1089 66.2748 20.6735C66.6803 20.8088 66.8992 21.247 66.764 21.6526C66.6287 22.0581 66.1905 22.2776 65.7849 22.1425C58.6148 19.7524 53.4273 22.1701 51.8242 23.5441C51.4997 23.822 51.0115 23.7844 50.7333 23.4602C50.455 23.1356 50.4926 22.6468 50.8172 22.3685Z" fill="black"/>
<path d="M77.0027 31.1278C77.4065 30.9875 77.8474 31.2011 77.9878 31.6049C78.5351 33.1784 79.0557 35.8157 78.8814 38.7084C78.7068 41.6062 77.8302 44.821 75.5171 47.4647C75.2357 47.7864 74.7465 47.8193 74.4247 47.538C74.103 47.2565 74.0701 46.7673 74.3514 46.4456C76.3734 44.1347 77.1745 41.2851 77.3354 38.6154C77.4965 35.9407 77.0106 33.507 76.5257 32.1129C76.3854 31.7091 76.599 31.2682 77.0027 31.1278Z" fill="black"/>
<path d="M69.3739 51.0338C69.6864 50.7421 70.1769 50.7591 70.4686 51.0716C70.7603 51.3842 70.7433 51.8746 70.4308 52.1664C69.3278 53.1958 66.9562 54.4037 64.0636 55.0188C61.1457 55.6393 57.5931 55.6799 54.1241 54.2515C53.7288 54.0887 53.5403 53.636 53.703 53.2407C53.8658 52.8453 54.3185 52.6568 54.7138 52.8196C57.8253 54.1007 61.0467 54.0768 63.7415 53.5038C66.4615 52.9254 68.5414 51.8108 69.3739 51.0338Z" fill="black"/>
<path d="M45.2574 27.9457C45.4945 27.59 45.9752 27.4939 46.3309 27.731C46.6867 27.9682 46.7828 28.4488 46.5456 28.8046C45.085 30.9955 42.7171 37.0013 45.0767 43.1954C45.2289 43.5949 45.0285 44.0426 44.6291 44.1949C44.2296 44.3471 43.7819 44.1467 43.6296 43.7473C41.0347 36.9357 43.6213 30.3998 45.2574 27.9457Z" fill="black"/>
<path d="M149.411 31.9082C149.59 31.4735 150.088 31.2662 150.523 31.4452C150.957 31.6242 151.165 32.122 150.986 32.5567C149.897 35.2006 145.744 40.6578 137.617 42.4271L133.381 43.5427C131.679 43.9906 130.626 45.6944 130.989 47.4167C131.375 49.2489 133.205 50.3938 135.022 49.9398L139.325 48.864C140.952 48.3488 143.472 47.8049 146.251 47.7683C149.04 47.7317 152.153 48.2062 154.884 49.7993C155.29 50.0361 155.427 50.5579 155.191 50.964C154.954 51.37 154.432 51.5075 154.026 51.2707C151.65 49.8845 148.874 49.4367 146.272 49.4709C143.674 49.5051 141.31 50.0196 139.815 50.4951L139.79 50.5034L139.764 50.5092L135.435 51.5916C132.682 52.2799 129.908 50.5443 129.323 47.7675C128.774 45.1574 130.368 42.5747 132.948 41.8958L137.212 40.7735L137.231 40.7686L137.248 40.7644C144.78 39.1269 148.514 34.0875 149.411 31.9082Z" fill="black"/>
<path d="M157.344 37.3401C158.541 37.3401 159.577 38.1718 159.837 39.3403L160.104 40.5399C160.358 41.6837 159.801 42.8539 158.753 43.378L157.388 44.0606C156.967 44.2708 156.456 44.1003 156.246 43.6798C156.035 43.2593 156.206 42.7478 156.626 42.5376L157.991 41.855C158.341 41.6803 158.527 41.2902 158.442 40.909L158.175 39.7094C158.089 39.3199 157.743 39.0427 157.344 39.0427H155.73C155.26 39.0427 154.879 38.6615 154.879 38.1914C154.879 37.7212 155.26 37.3401 155.73 37.3401H157.344Z" fill="black"/>
<path d="M160.969 30.9298C161.218 30.5313 161.743 30.4105 162.142 30.6596C162.54 30.9089 162.661 31.434 162.412 31.8326L160.284 35.2377C160.034 35.6362 159.509 35.757 159.111 35.5079C158.712 35.2587 158.591 34.7335 158.841 34.3349L160.969 30.9298Z" fill="black"/>
<path d="M164.617 47.0914C165.013 47.344 165.539 47.2273 165.792 46.831C166.044 46.4347 165.928 45.9086 165.531 45.6558L162.146 43.4965C161.75 43.2439 161.223 43.3606 160.971 43.7569C160.718 44.1533 160.835 44.6794 161.231 44.9321L164.617 47.0914Z" fill="black"/>
<path d="M166.526 36.9584C166.972 36.8097 167.454 37.0504 167.602 37.4962C167.751 37.9422 167.51 38.424 167.065 38.5728L163.234 39.8497C162.788 39.9984 162.306 39.7577 162.157 39.3119C162.009 38.8659 162.249 38.3841 162.695 38.2353L166.526 36.9584Z" fill="black"/>
<path d="M137.607 41.2059C138.058 41.0732 138.531 41.331 138.664 41.782L140.792 49.0179C140.925 49.4689 140.667 49.9418 140.216 50.0745C139.765 50.2071 139.292 49.9493 139.159 49.4984L137.031 42.2625C136.898 41.8115 137.156 41.3386 137.607 41.2059Z" fill="black"/>
<path d="M157.449 51.1141L152.804 30.8455C152.699 30.3872 152.242 30.1009 151.784 30.2059C151.325 30.3109 151.039 30.7676 151.144 31.2259L155.79 51.4944C155.895 51.9527 156.352 52.2391 156.81 52.134L157.19 53.7935C155.815 54.1087 154.446 53.2496 154.13 51.8748L149.485 31.6063C149.17 30.2314 150.029 28.8615 151.403 28.5464C152.778 28.2313 154.148 29.0903 154.463 30.4651L159.109 50.7337C159.424 52.1085 158.565 53.4784 157.19 53.7935L156.81 52.134C157.268 52.029 157.555 51.5723 157.449 51.1141Z" fill="black"/>
<path d="M143.812 29.6787V31.3813H131.894V29.6787H143.812ZM144.663 28.8274V21.1659C144.663 20.6958 144.282 20.3146 143.812 20.3146H131.894C131.424 20.3146 131.042 20.6958 131.042 21.1659V28.8274C131.042 29.2976 131.424 29.6787 131.894 29.6787V31.3813L131.762 31.378C130.413 31.3096 129.34 30.1938 129.34 28.8274V21.1659C129.34 19.7555 130.483 18.6121 131.894 18.6121H143.812C145.222 18.6121 146.365 19.7555 146.365 21.1659V28.8274C146.365 30.2379 145.222 31.3813 143.812 31.3813V29.6787C144.282 29.6787 144.663 29.2976 144.663 28.8274Z" fill="black"/>
<path d="M135.297 22.5857C135.297 21.9197 135.965 21.4815 136.563 21.7095L136.682 21.7643L141.101 24.1744C141.752 24.5293 141.752 25.4638 141.101 25.8187L136.682 28.2288C136.058 28.5691 135.297 28.118 135.297 27.4074V22.5857ZM136.999 26.1155L139.052 24.9966L136.999 23.8768V26.1155Z" fill="black"/>
<path d="M175.736 20.2479C175.735 17.4354 173.489 15.138 170.677 15.0753L164.649 14.9415C161.308 14.8672 158.65 17.7255 158.967 21.0526C159.055 21.9769 159.462 22.8418 160.118 23.4984L160.547 23.9273C160.821 24.2013 160.898 24.6158 160.741 24.9698L160.095 26.4213L161.683 25.5401L161.79 25.4886C161.9 25.4446 162.018 25.4221 162.138 25.4221H170.561C173.419 25.4221 175.736 23.1053 175.736 20.2479ZM177.438 20.2479C177.438 24.0456 174.359 27.1246 170.561 27.1246H162.335L158.92 29.0217C158.134 29.4583 157.245 28.6444 157.61 27.8229L158.971 24.7587L158.914 24.7021C157.978 23.7657 157.397 22.5321 157.272 21.2139C156.858 16.8723 160.326 13.1429 164.686 13.2398L170.714 13.3736C174.452 13.4567 177.438 16.5098 177.438 20.2479Z" fill="black"/>
<path d="M172.75 17.7606C173.22 17.7606 173.602 18.1418 173.602 18.6119C173.602 19.0821 173.22 19.4632 172.75 19.4632H162.535C162.065 19.4632 161.684 19.0821 161.684 18.6119C161.684 18.1418 162.065 17.7606 162.535 17.7606H172.75Z" fill="black"/>
<path d="M169.345 20.3143C169.815 20.3143 170.196 20.6955 170.196 21.1656C170.196 21.6358 169.815 22.0169 169.345 22.0169H162.535C162.065 22.0169 161.684 21.6358 161.684 21.1656C161.684 20.6955 162.065 20.3143 162.535 20.3143H169.345Z" fill="black"/>
<path d="M138.298 49.362C138.711 49.137 139.228 49.2893 139.453 49.702L144.518 58.988C144.772 59.4534 144.589 60.0368 144.115 60.274L140.861 61.9009C140.415 62.1239 139.873 61.9585 139.627 61.5243L134.134 51.8053C133.903 51.3961 134.046 50.877 134.456 50.6456C134.865 50.4143 135.384 50.5582 135.615 50.9673L140.751 60.0521L142.642 59.1068L137.958 50.5167C137.733 50.104 137.885 49.5871 138.298 49.362Z" fill="black"/>
<path d="M165.346 49.4809C166.377 49.427 167.466 49.7948 168.432 50.5824C170.18 48.985 172.997 49.2461 174.185 51.1859C174.865 52.2962 174.886 53.778 174.102 55.4249C173.325 57.0575 171.736 58.9196 169.059 60.9624C168.735 61.2094 168.281 61.2205 167.944 60.9806C165.361 59.1404 163.753 57.3609 162.898 55.7483C162.044 54.1356 161.917 52.6257 162.439 51.4411C162.967 50.2464 164.088 49.5465 165.346 49.4809ZM165.435 51.1809C164.766 51.2158 164.245 51.5678 163.997 52.1278C163.746 52.6982 163.712 53.6474 164.403 54.951C165.05 56.1711 166.308 57.6457 168.474 59.2598C170.748 57.4548 171.985 55.9109 172.565 54.6933C173.175 53.4123 173.033 52.5649 172.734 52.0754C172.103 51.045 170.236 50.8316 169.247 52.2151C168.901 52.6992 168.197 52.7428 167.793 52.3107C166.98 51.4407 166.109 51.1458 165.435 51.1809Z" fill="black"/>
<path d="M35 197.588V167.766C35.0002 166.743 35.8295 165.914 36.8524 165.913H40.7348C41.2221 165.913 41.6171 166.308 41.6171 166.796C41.6171 167.283 41.2221 167.678 40.7348 167.678H36.8524C36.804 167.678 36.7647 167.717 36.7646 167.766V197.588C36.7647 197.636 36.804 197.675 36.8524 197.676H86.0845C86.1329 197.675 86.1722 197.636 86.1724 197.588V187.088C86.1724 186.601 86.5674 186.206 87.0546 186.206C87.5419 186.206 87.9369 186.601 87.9369 187.088V197.588C87.9367 198.611 87.1075 199.44 86.0845 199.44H36.8524C35.8295 199.44 35.0002 198.611 35 197.588ZM76.4673 165.913C76.9545 165.913 77.3495 166.308 77.3495 166.796C77.3495 167.283 76.9545 167.678 76.4673 167.678H57.9393C57.4521 167.678 57.0571 167.283 57.0571 166.796C57.0571 166.308 57.4521 165.913 57.9393 165.913H76.4673Z" fill="black"/>
<path d="M78.8123 168.086C79.0739 167.675 79.6196 167.554 80.0306 167.816C80.4416 168.078 80.5627 168.623 80.3012 169.034C77.6749 173.161 73.3008 175.114 71.3887 175.592C70.9161 175.71 70.4376 175.423 70.3195 174.95C70.2014 174.477 70.4887 173.999 70.9614 173.881C72.5785 173.476 76.4979 171.723 78.8123 168.086Z" fill="black"/>
<path d="M73.1931 180.932C75.3172 180.477 79.6325 179.999 83.3936 181.41C83.8495 181.581 84.0805 182.089 83.9097 182.545C83.7386 183.001 83.2295 183.233 82.7733 183.062C79.4764 181.826 75.5569 182.23 73.5636 182.657C73.0872 182.759 72.6181 182.456 72.5159 181.98C72.4138 181.504 72.7169 181.034 73.1931 180.932Z" fill="black"/>
<path d="M69.074 172.47C70.0432 172.124 71.1086 172.634 71.4469 173.606L74.3384 181.919C74.6726 182.879 74.1695 183.93 73.2114 184.273L68.8638 185.825C67.8946 186.171 66.8292 185.661 66.4909 184.69L63.5994 176.377C63.2652 175.416 63.7684 174.365 64.7264 174.023L69.074 172.47ZM69.6677 174.131L65.3192 175.685C65.2738 175.701 65.2499 175.751 65.2657 175.797L68.1573 184.11C68.1734 184.156 68.2241 184.18 68.2702 184.164L72.6187 182.611C72.664 182.594 72.6879 182.544 72.6721 182.499L69.7805 174.186C69.7644 174.14 69.7137 174.115 69.6677 174.131Z" fill="black"/>
<path d="M63.6872 176.171C64.1132 175.934 64.65 176.088 64.8866 176.514C65.1231 176.94 64.9696 177.477 64.5437 177.713L63.1729 178.475C62.0668 179.089 61.5814 180.425 62.0355 181.606C62.5121 182.845 63.8632 183.508 65.1347 183.127L66.509 182.714C66.9756 182.574 67.4675 182.839 67.6075 183.306C67.7474 183.773 67.4823 184.264 67.0156 184.404L65.6422 184.816C63.4867 185.463 61.1969 184.34 60.389 182.239C59.6191 180.237 60.4407 177.974 62.3156 176.933L63.6872 176.171Z" fill="black"/>
<path d="M85.9552 181.855L82.0636 167.768C81.9338 167.299 81.4479 167.023 80.9782 167.153C80.5085 167.283 80.233 167.769 80.3627 168.238L84.2544 182.325C84.3841 182.795 84.8701 183.07 85.3398 182.941L85.8096 184.641C84.4006 185.031 82.9428 184.204 82.5535 182.795L78.6619 168.708C78.2726 167.299 79.0993 165.841 80.5083 165.452C81.9173 165.063 83.3751 165.889 83.7644 167.298L87.6561 181.385C88.0454 182.794 87.2187 184.252 85.8096 184.641L85.3398 182.941C85.8094 182.811 86.085 182.325 85.9552 181.855Z" fill="black"/>
<path d="M72.235 183.6C72.7 183.454 73.1942 183.714 73.3395 184.179L75.0412 189.623C75.4655 190.981 74.6882 192.421 73.3206 192.812C72.0522 193.174 70.7182 192.502 70.255 191.267L68.1423 185.634C67.9713 185.178 68.2024 184.669 68.6584 184.497C69.1146 184.326 69.6237 184.557 69.7949 185.014L71.9076 190.648C72.0479 191.022 72.4522 191.225 72.8364 191.115C73.2504 190.997 73.4861 190.561 73.3576 190.15L71.656 184.704C71.5108 184.239 71.77 183.745 72.235 183.6Z" fill="black"/>
<path d="M86.6146 194.146C87.1019 194.146 87.4969 194.541 87.4969 195.029C87.4969 195.516 87.1019 195.911 86.6146 195.911H63.6753C63.188 195.911 62.793 195.516 62.793 195.029C62.793 194.541 63.188 194.146 63.6753 194.146H86.6146Z" fill="black"/>
<path d="M49.007 158.167C49.3227 157.955 49.7691 157.929 50.1185 158.183L50.1917 158.242L50.5407 158.558C52.2951 160.197 54.2165 162.671 55.2114 165.549C55.5144 166.426 55.7312 167.342 55.8309 168.283C59.9255 170.229 60.7608 173.617 60.5766 175.275L60.4896 176.06H51.3575L52.3681 174.661C54.4495 171.778 54.4687 168.8 53.5442 166.125C52.6991 163.681 51.0658 161.516 49.5214 160.026C45.6989 163.27 44.4087 166.337 44.257 168.799C44.0968 171.401 45.1955 173.478 46.2258 174.573L47.625 176.06H38.1766L38.0896 175.275C38.0341 174.775 38.1336 174.175 38.3076 173.594C38.4873 172.993 38.7692 172.336 39.1442 171.697C39.8577 170.483 40.9782 169.23 42.4976 168.665C42.7014 165.489 44.4336 161.842 48.9415 158.215L49.007 158.167ZM55.8559 170.294C55.7462 171.614 55.3781 172.96 54.6703 174.295H58.7914C58.6247 173.204 57.9246 171.543 55.8559 170.294ZM42.5596 170.583C41.8018 171.029 41.153 171.763 40.6658 172.592C40.3604 173.111 40.136 173.64 39.9981 174.1C39.9779 174.168 39.9631 174.233 39.9472 174.295H43.8365C43.2376 173.284 42.747 172.025 42.5596 170.583Z" fill="black"/>
<path d="M50.4388 169.001C50.4388 168.271 49.8462 167.678 49.1153 167.678C48.3844 167.678 47.7919 168.271 47.7919 169.001C47.7919 169.732 48.3844 170.325 49.1153 170.325V172.089C47.4099 172.089 46.0273 170.707 46.0273 169.001C46.0273 167.296 47.4099 165.913 49.1153 165.913C50.8208 165.913 52.2033 167.296 52.2033 169.001C52.2033 170.707 50.8208 172.089 49.1153 172.089V170.325C49.8462 170.325 50.4388 169.732 50.4388 169.001Z" fill="black"/>
<path d="M44.707 181.795V178.265C44.707 177.778 45.102 177.383 45.5893 177.383C46.0766 177.383 46.4716 177.778 46.4716 178.265V181.795C46.4716 182.282 46.0766 182.677 45.5893 182.677C45.102 182.677 44.707 182.282 44.707 181.795Z" fill="black"/>
<path d="M51.7617 181.795V178.265C51.7617 177.778 52.1567 177.383 52.644 177.383C53.1313 177.383 53.5263 177.778 53.5263 178.265V181.795C53.5263 182.282 53.1313 182.677 52.644 182.677C52.1567 182.677 51.7617 182.282 51.7617 181.795Z" fill="black"/>
<path d="M48.2344 187.687V178.265C48.2344 177.778 48.6294 177.383 49.1167 177.383C49.6039 177.383 49.9989 177.778 49.9989 178.265V187.687C49.9987 188.174 49.6038 188.569 49.1167 188.569C48.6295 188.569 48.2346 188.174 48.2344 187.687Z" fill="black"/>
<path d="M47.6679 190.516C48.1677 190.445 48.6853 190.476 49.1387 190.614C49.5396 190.736 50.018 190.984 50.2941 191.45L50.3467 191.547L50.3828 191.629C50.5412 192.047 50.3606 192.526 49.952 192.731C49.53 192.942 49.0203 192.782 48.7906 192.376C48.7752 192.364 48.7286 192.334 48.6252 192.302C48.4445 192.247 48.1899 192.224 47.9178 192.263C47.3547 192.343 46.9865 192.627 46.8839 193.037L46.6176 194.104L45.6337 193.612C44.7164 193.153 43.6039 193.446 42.9532 194.219C42.3623 194.92 42.1021 196.117 43.2048 197.587C43.4972 197.977 43.418 198.531 43.0282 198.823C42.6384 199.115 42.0858 199.036 41.7935 198.646C40.2496 196.588 40.4304 194.476 41.604 193.082C42.5379 191.973 44.0775 191.379 45.5699 191.726C46.0898 190.983 46.9338 190.621 47.6679 190.516Z" fill="black"/>
<path d="M59.2644 195.616C59.2643 194.561 58.4087 193.705 57.3533 193.705H54.1085L54.4489 192.57C54.8801 191.132 54.4267 190.286 53.8535 189.802C53.5415 189.539 53.168 189.363 52.8127 189.275C52.4428 189.184 52.1696 189.207 52.0441 189.248C51.582 189.402 51.0825 189.153 50.9284 188.691C50.7743 188.229 51.0237 187.729 51.4858 187.575C52.0222 187.396 52.6538 187.419 53.2349 187.562C53.8306 187.709 54.4546 188.001 54.9917 188.455C55.9031 189.224 56.5021 190.407 56.3634 191.941H57.3533C59.3833 191.941 61.0289 193.587 61.0289 195.616C61.0289 197.489 59.6206 199.063 57.7592 199.27L56.2737 199.435C55.7895 199.489 55.3531 199.14 55.2993 198.655C55.2455 198.171 55.5948 197.735 56.079 197.681L57.5644 197.516C58.5322 197.409 59.2644 196.59 59.2644 195.616Z" fill="black"/>
<path d="M79.9965 201.205C80.4837 201.205 80.8787 201.6 80.8787 202.087C80.8787 202.574 80.4837 202.969 79.9965 202.969H42.4995C42.0122 202.969 41.6172 202.574 41.6172 202.087C41.6172 201.6 42.0122 201.205 42.4995 201.205H79.9965Z" fill="black"/>
<path d="M158.961 124.076C159.331 123.812 159.846 123.898 160.11 124.268L163.793 129.424C164.29 130.119 164.173 131.078 163.525 131.634L161.9 133.026C161.162 133.659 160.041 133.519 159.481 132.726L155.057 126.458C154.795 126.086 154.883 125.572 155.255 125.309C155.627 125.047 156.141 125.135 156.404 125.507L160.827 131.775L162.452 130.383L158.768 125.226C158.504 124.855 158.59 124.341 158.961 124.076Z" fill="black"/>
<path d="M152.191 122.033L151.24 122.984C151.13 123.094 151.118 123.268 151.211 123.392C151.311 123.525 151.496 123.557 151.634 123.465L151.976 123.237L152.89 124.609L152.548 124.837C151.683 125.414 150.517 125.214 149.892 124.382C149.307 123.601 149.384 122.508 150.074 121.818L151.026 120.867L152.191 122.033Z" fill="black"/>
<path d="M170.562 84.8617C168.94 98.8036 161.946 106.158 158.135 108.371L157.302 114.212L139.324 121.203L145.573 112.871L145.397 112.696L140.796 116.88L138.138 113.557L142.361 109.333L142.214 109.041L134.137 114.267L139.014 97.1982L146.545 96.3612C148.724 92.3599 152.989 89.4994 157.338 87.539C161.854 85.503 166.61 84.3712 169.629 83.9499L170.685 83.8031L170.562 84.8617ZM168.785 85.7524C165.903 86.2526 161.863 87.3083 158.016 89.0425C153.64 91.0151 149.661 93.7993 147.811 97.5007L147.61 97.9016L140.295 98.714L136.928 110.497L142.865 106.656L144.101 109.129L144.367 109.66L140.347 113.679L140.986 114.479L145.452 110.419L147.75 112.717L144.106 117.574L155.805 113.024L156.621 107.312L156.998 107.117C160.078 105.515 166.931 98.9679 168.785 85.7524Z" fill="black"/>
<path d="M136.767 116.916L138.004 115.679L139.24 116.916L137.592 118.564C137.921 119.224 138.004 119.801 137.179 120.213C138.498 120.873 138.279 122.411 138.004 123.098L138.197 123.368C139.25 124.843 138.988 126.881 137.596 128.041C136.2 129.204 134.143 129.09 132.884 127.781L126.874 121.531C125.687 120.296 125.569 118.382 126.598 117.011C127.687 115.559 129.707 115.182 131.246 116.144L131.821 116.504C133.47 115.267 135.119 115.267 136.767 116.916Z" fill="black"/>
<path d="M168.218 104.082C169.081 103.22 170.54 103.496 171.029 104.613L178.596 121.91C179.096 123.053 178.258 124.334 177.01 124.334L162.077 124.333L157.984 126.058C155.54 127.086 152.711 126.217 151.265 123.994C149.327 121.012 150.7 117.003 154.059 115.834L157.751 114.549L168.218 104.082ZM169.384 105.248L159.185 115.447L162.442 122.685L177.01 122.685C177.069 122.685 177.109 122.625 177.085 122.57L169.518 105.274C169.495 105.22 169.425 105.207 169.384 105.248ZM154.601 117.391C152.253 118.208 151.293 121.011 152.648 123.096C153.658 124.65 155.636 125.257 157.344 124.538L160.811 123.078L157.758 116.293L154.601 117.391Z" fill="black"/>
<path d="M172.936 109.912C175.127 109.035 177.566 110.417 177.939 112.748L177.991 113.073C178.282 114.89 177.051 116.602 175.236 116.905C174.787 116.979 174.362 116.676 174.287 116.227C174.212 115.778 174.516 115.353 174.965 115.278C175.886 115.125 176.51 114.256 176.363 113.334L176.311 113.008C176.105 111.722 174.759 110.959 173.549 111.443L173.339 111.527C172.916 111.696 172.437 111.491 172.267 111.069C172.098 110.646 172.303 110.166 172.726 109.996L172.936 109.912Z" fill="black"/>
<path d="M161.912 95.0916C161.912 93.7258 160.804 92.6184 159.438 92.6183C158.072 92.6183 156.965 93.7258 156.965 95.0916C156.965 96.4573 158.072 97.5649 159.438 97.5649V99.2134L159.226 99.2081C157.119 99.1015 155.428 97.4111 155.322 95.3035L155.316 95.0916C155.316 92.8152 157.162 90.9697 159.438 90.9697L159.65 90.975C161.828 91.0854 163.56 92.8863 163.56 95.0916L163.555 95.3035C163.444 97.4812 161.643 99.2133 159.438 99.2134V97.5649C160.804 97.5648 161.911 96.4573 161.912 95.0916Z" fill="black"/>
<path d="M142.738 85.4362C144.995 85.4088 147.19 85.9995 148.965 86.9283C150.719 87.8466 152.165 89.1516 152.782 90.6325L151.26 91.2664C150.847 90.2743 149.768 89.2092 148.2 88.3887C146.652 87.5787 144.725 87.0608 142.757 87.0848C140.796 87.1087 138.814 87.6699 137.109 88.9927C135.406 90.3139 133.922 92.4413 133.033 95.7004L131.441 95.266C132.407 91.7247 134.065 89.2666 136.098 87.6897C138.128 86.1146 140.474 85.4638 142.738 85.4362Z" fill="black"/>
<path d="M132.794 100.839L136.142 94.5337L129.008 94.7863L132.794 100.839Z" fill="black"/>
<path d="M218.469 118.807V93.1562C218.469 90.3957 220.707 88.1579 223.467 88.1577H241.824C242.277 88.1577 242.643 88.5246 242.643 88.9772C242.643 89.4298 242.277 89.7967 241.824 89.7967H223.467C221.612 89.7969 220.108 91.3009 220.108 93.1562V118.807C220.108 120.662 221.612 122.166 223.467 122.166H261C262.856 122.166 264.36 120.662 264.36 118.807V94.3038C264.36 93.8512 264.727 93.4844 265.179 93.4844C265.632 93.4844 265.999 93.8512 265.999 94.3038V118.807C265.999 121.567 263.761 123.805 261 123.805H223.467C220.707 123.805 218.469 121.567 218.469 118.807Z" fill="black"/>
<path d="M223.793 116.348V94.7952C223.793 93.845 224.563 93.0748 225.514 93.0746H237.314C237.767 93.0746 238.134 93.4415 238.134 93.8941C238.134 94.3467 237.767 94.7136 237.314 94.7136H225.514C225.469 94.7137 225.432 94.7502 225.432 94.7952V116.348C225.432 116.393 225.469 116.43 225.514 116.43H258.949C258.994 116.43 259.031 116.393 259.031 116.348V97.9915C259.031 97.5389 259.398 97.172 259.85 97.172C260.303 97.172 260.67 97.5389 260.67 97.9915V116.348C260.67 117.298 259.899 118.069 258.949 118.069H225.514C224.563 118.069 223.793 117.298 223.793 116.348Z" fill="black"/>
<path d="M230.352 130.279V128.859C230.352 127.852 231.191 127.12 232.115 127.105C234.314 127.072 235.505 126.387 236.141 125.667C236.794 124.928 236.959 124.044 236.911 123.463C236.873 123.012 237.208 122.617 237.659 122.579C238.11 122.542 238.506 122.876 238.543 123.327C238.623 124.287 238.361 125.632 237.369 126.753C236.36 127.895 234.687 128.705 232.14 128.744C232.093 128.744 232.051 128.764 232.023 128.791C231.998 128.815 231.991 128.838 231.991 128.859V130.279C231.991 130.324 232.027 130.361 232.072 130.361H252.396C252.441 130.361 252.477 130.324 252.478 130.279V128.804C252.478 128.783 252.47 128.762 252.45 128.743C252.43 128.722 252.401 128.708 252.366 128.707C250.529 128.643 248.826 128.369 247.568 127.564C246.231 126.709 245.512 125.334 245.512 123.395C245.512 122.943 245.879 122.576 246.331 122.576C246.784 122.576 247.151 122.943 247.151 123.395C247.151 124.868 247.659 125.676 248.451 126.184C249.322 126.741 250.65 127.007 252.423 127.069C253.342 127.1 254.116 127.844 254.117 128.804V130.279C254.116 131.23 253.346 132 252.396 132H232.072C231.122 132 230.352 131.23 230.352 130.279Z" fill="black"/>
<path d="M227.382 110.053C228.584 109.091 230.785 108.398 232.794 108.871C233.827 109.114 234.819 109.669 235.574 110.656C235.841 111.005 236.072 111.4 236.265 111.844C236.971 111.678 237.906 111.603 238.836 111.833C240.019 112.126 241.176 112.909 241.773 114.502C241.932 114.926 241.717 115.399 241.294 115.558C240.87 115.717 240.397 115.501 240.238 115.078C239.852 114.049 239.165 113.603 238.442 113.424C237.851 113.278 237.227 113.314 236.741 113.415C236.821 113.828 236.877 114.269 236.907 114.739C236.935 115.191 236.592 115.58 236.14 115.608C235.688 115.636 235.299 115.293 235.271 114.842C235.176 113.32 234.777 112.311 234.273 111.652C233.774 111 233.126 110.633 232.418 110.466C230.944 110.12 229.253 110.656 228.406 111.333C228.053 111.616 227.537 111.558 227.254 111.205C226.971 110.852 227.028 110.335 227.382 110.053Z" fill="black"/>
<path d="M226.731 97.9943C227.443 98.0537 228.775 98.0519 229.879 98.7258C231.085 99.4617 231.876 100.861 231.989 103.279C232.01 103.731 231.661 104.115 231.208 104.136C230.756 104.158 230.373 103.808 230.351 103.356C230.254 101.267 229.61 100.481 229.025 100.125C228.339 99.7059 227.522 99.7041 226.595 99.6269C226.144 99.5893 225.809 99.1936 225.847 98.7426C225.884 98.2916 226.28 97.9567 226.731 97.9943Z" fill="black"/>
<path d="M243.465 119.298C243.918 119.298 244.284 119.665 244.284 120.117C244.284 120.57 243.918 120.937 243.465 120.937H240.597C240.144 120.937 239.777 120.57 239.777 120.117C239.777 119.665 240.144 119.298 240.597 119.298H243.465Z" fill="black"/>
<path d="M254.783 83.5489C257.496 81.7405 260.645 80.6583 263.873 81.0977C264.6 81.1967 265.188 81.7748 265.262 82.5302C265.6 85.9811 264.134 92.6904 256.179 97.4633C255.599 97.8111 255.054 98.1495 254.542 98.4781C254.974 102.117 253.967 104.405 252.213 105.658C250.502 106.88 248.299 106.953 246.714 106.687C246.13 106.589 245.341 106.037 245.531 105.092C245.714 104.183 246.444 102.977 247.921 101.513C249.422 100.026 251.768 98.1982 255.335 96.0581C262.695 91.6422 263.901 85.5845 263.632 82.7191C260.924 82.3566 258.18 83.254 255.692 84.9126C253.199 86.5745 251.021 88.9646 249.489 91.4541C247.151 95.2539 243.814 98.6703 241.892 100.407C241.112 101.111 239.924 100.917 239.365 100.079C239.042 99.5942 238.988 98.9787 239.222 98.4453L241.658 92.8754C241.933 92.249 242.551 91.8438 243.235 91.8438H247.278C247.56 91.4331 247.834 91.0161 248.093 90.5946C249.733 87.9305 252.069 85.3582 254.783 83.5489ZM252.989 99.5137C251.243 100.725 249.977 101.783 249.075 102.676C247.948 103.793 247.438 104.609 247.236 105.108C248.56 105.285 250.122 105.137 251.259 104.324C252.277 103.597 253.133 102.205 252.989 99.5137ZM243.235 93.4828C243.203 93.4828 243.173 93.502 243.16 93.5316L240.723 99.1023C240.713 99.1243 240.715 99.1496 240.729 99.1695C240.741 99.1887 240.757 99.1957 240.769 99.1975C240.776 99.1984 240.781 99.1974 240.783 99.1967C240.784 99.1963 240.788 99.1953 240.793 99.1903C242.142 97.9723 244.199 95.9045 246.077 93.4828H243.235Z" fill="black"/>
<path d="M228.011 104.945C229.558 102.367 233.561 102.139 235.527 104.891C235.79 105.259 235.705 105.771 235.336 106.034C234.968 106.297 234.457 106.212 234.194 105.843C232.882 104.007 230.328 104.27 229.417 105.789C229.184 106.177 228.68 106.303 228.292 106.07C227.904 105.837 227.779 105.334 228.011 104.945Z" fill="black"/>
<path d="M234.052 106.86C234.563 104.052 237.234 102.871 239.541 103.226C240.716 103.407 241.867 103.982 242.694 104.987C243.528 106.001 243.985 107.392 243.871 109.109C243.841 109.561 243.45 109.903 242.999 109.873C242.547 109.843 242.205 109.452 242.235 109.001C242.326 107.645 241.964 106.68 241.428 106.028C240.885 105.369 240.114 104.972 239.292 104.846C237.604 104.586 235.973 105.454 235.664 107.153C235.583 107.598 235.157 107.893 234.712 107.812C234.267 107.731 233.972 107.305 234.052 106.86Z" fill="black"/>
<path d="M239.883 109.522C240.668 109.208 241.918 108.949 243.192 109.184C244.323 109.393 245.458 109.994 246.258 111.233C247.255 110.788 248.582 110.474 249.951 110.716C251.728 111.029 253.411 112.25 254.469 114.896C254.637 115.316 254.433 115.793 254.013 115.961C253.592 116.129 253.115 115.924 252.947 115.504C252.068 113.305 250.805 112.531 249.666 112.33C248.458 112.117 247.215 112.519 246.42 112.989C245.929 113.279 245.352 113.041 245.141 112.591C244.6 111.431 243.754 110.955 242.894 110.796C241.991 110.629 241.058 110.817 240.491 111.044C240.071 111.212 239.594 111.007 239.426 110.587C239.258 110.167 239.463 109.69 239.883 109.522Z" fill="black"/>
<path d="M243.299 97.4121C243.619 97.0921 244.137 97.0921 244.457 97.4121L248.145 101.1C248.465 101.42 248.465 101.939 248.145 102.259C247.825 102.579 247.306 102.579 246.986 102.259L243.299 98.5709C242.979 98.2509 242.979 97.7322 243.299 97.4121Z" fill="black"/>
<path d="M250.276 94.9373C250.605 94.6266 251.124 94.6412 251.434 94.9701C251.745 95.2991 251.731 95.8173 251.402 96.1281L244.026 103.094C243.697 103.404 243.179 103.39 242.868 103.061C242.558 102.732 242.572 102.214 242.901 101.903L250.276 94.9373Z" fill="black"/>
<path d="M257.224 82.6613C257.544 82.3413 258.063 82.3413 258.383 82.6613L263.3 87.5782C263.62 87.8982 263.62 88.417 263.3 88.737C262.98 89.057 262.461 89.057 262.141 88.737L257.224 83.8201C256.904 83.5001 256.904 82.9813 257.224 82.6613Z" fill="black"/>
<path d="M257.782 89.4669C257.782 89.0143 257.415 88.6474 256.962 88.6474C256.51 88.6474 256.143 89.0143 256.143 89.4669C256.143 89.9195 256.51 90.2864 256.962 90.2864V91.9253C255.605 91.9253 254.504 90.8246 254.504 89.4669C254.504 88.1091 255.605 87.0084 256.962 87.0084C258.32 87.0084 259.421 88.1091 259.421 89.4669C259.421 90.8246 258.32 91.9253 256.962 91.9253V90.2864C257.415 90.2864 257.782 89.9195 257.782 89.4669Z" fill="black"/>
<path d="M168.569 163.492C168.795 163.108 169.29 162.979 169.674 163.204C170.059 163.43 170.188 163.925 169.962 164.309L163.098 176.02C162.872 176.404 162.377 176.533 161.993 176.307C161.608 176.082 161.479 175.587 161.705 175.202L168.569 163.492Z" fill="black"/>
<path d="M144.866 189.762C145.302 189.669 145.731 189.946 145.825 190.382C146.04 191.389 146.183 192.938 145.849 194.28C145.681 194.958 145.376 195.644 144.836 196.166C144.279 196.707 143.531 197.013 142.612 197.013C142.166 197.013 141.805 196.651 141.805 196.205C141.805 195.759 142.166 195.397 142.612 195.397C143.147 195.397 143.48 195.232 143.712 195.007C143.963 194.764 144.158 194.39 144.282 193.89C144.534 192.877 144.434 191.599 144.246 190.721C144.152 190.285 144.43 189.856 144.866 189.762Z" fill="black"/>
<path d="M169.172 158.484L174.341 159.263L175.961 164.232L179.066 168.438L176.698 173.098L175.919 178.267L170.949 179.888L166.744 182.992L162.083 180.624L156.915 179.845L155.294 174.875L152.19 170.669L154.558 166.009L155.337 160.841L160.306 159.22L164.512 156.116L169.172 158.484ZM161.055 160.675L156.785 162.067L156.116 166.508L154.081 170.512L156.594 173.917L156.749 174.126L156.83 174.375L158.141 178.396L162.324 179.026L162.582 179.066L166.586 181.1L169.991 178.589L170.2 178.433L170.449 178.352L174.47 177.041L175.1 172.858L175.14 172.599L175.258 172.367L177.174 168.595L174.507 164.981L174.426 164.733L173.115 160.711L168.932 160.081L168.673 160.042L168.441 159.924L164.669 158.007L161.055 160.675Z" fill="black"/>
<path d="M152.419 177.337L152.248 177.013C151.714 176.004 150.546 175.504 149.447 175.815L146.59 176.622L146.151 175.068L149.009 174.26C150.841 173.743 152.786 174.575 153.676 176.258L153.847 176.582C154.647 178.094 154.407 179.947 153.247 181.206L151.23 183.396L150.042 182.301L152.059 180.111C152.755 179.356 152.899 178.244 152.419 177.337Z" fill="black"/>
<path d="M145.96 166.612L136.115 178.83L141.965 189.891L157.755 188.003L157.947 189.607L141.797 191.539L136.804 194.86C133.619 196.978 129.302 195.882 127.514 192.501L126.139 189.901C124.47 186.747 125.675 182.837 128.829 181.169L134.628 178.102L144.702 165.598L145.96 166.612ZM128.942 191.746C130.283 194.282 133.52 195.104 135.909 193.516L140.455 190.491L134.817 179.83L129.584 182.597C127.219 183.848 126.315 186.78 127.566 189.146L128.942 191.746Z" fill="black"/>
<path d="M135.111 194.658L139.623 203.19L143.823 200.968L139.311 192.437L140.739 191.682L146.006 201.641L138.951 205.373L133.684 195.413L135.111 194.658Z" fill="black"/>
<path d="M162.397 165.92C162.397 165.251 161.855 164.708 161.186 164.708C160.517 164.708 159.975 165.251 159.975 165.92C159.975 166.589 160.517 167.131 161.186 167.131V168.746C159.625 168.746 158.359 167.481 158.359 165.92C158.359 164.359 159.625 163.093 161.186 163.093C162.747 163.093 164.013 164.359 164.013 165.92C164.013 167.481 162.747 168.746 161.186 168.746V167.131C161.855 167.131 162.397 166.589 162.397 165.92Z" fill="black"/>
<path d="M171.284 173.188C171.284 172.519 170.742 171.977 170.073 171.977C169.404 171.977 168.861 172.519 168.861 173.188C168.861 173.857 169.404 174.4 170.073 174.4V176.015C168.512 176.015 167.246 174.749 167.246 173.188C167.246 171.627 168.512 170.362 170.073 170.362C171.634 170.362 172.899 171.627 172.899 173.188C172.899 174.749 171.634 176.015 170.073 176.015V174.4C170.742 174.4 171.284 173.857 171.284 173.188Z" fill="black"/>
<path fill-rule="evenodd" clip-rule="evenodd" d="M146.24 163.574C147.998 162.771 150.484 163.802 152.982 166.097L152.007 167.397C151.688 167.099 151.372 166.823 151.059 166.574C150.038 165.762 149.12 165.268 148.368 165.05C147.627 164.835 147.152 164.913 146.847 165.075C146.543 165.236 146.211 165.584 145.971 166.318C145.728 167.062 145.621 168.098 145.717 169.399C145.91 171.995 146.897 175.328 148.696 178.731C150.496 182.133 152.695 184.825 154.733 186.445C155.753 187.257 156.671 187.751 157.423 187.969C158.164 188.184 158.639 188.106 158.943 187.945C159.248 187.784 159.579 187.436 159.819 186.702C160.062 185.957 160.171 184.92 160.074 183.62C160.051 183.3 160.014 182.97 159.966 182.63L161.611 182.757C162 185.987 161.384 188.481 159.698 189.372L159.551 189.445C156.417 190.877 150.966 186.479 147.268 179.486C143.511 172.382 142.985 165.29 146.093 163.646L146.24 163.574Z" fill="black"/>
<path d="M82.2746 86.718C74.9071 93.3099 65.5629 97.9755 57.1555 101.024C48.7569 104.069 41.2132 105.529 37.4078 105.66L37.3555 104.131C40.9472 104.007 48.3254 102.597 56.6339 99.5847C64.9336 96.5753 74.0822 91.9943 81.2538 85.5776L82.2746 86.718Z" fill="black"/>
<path d="M82.9713 85L82.5297 91.1763L81.0037 91.0672L81.328 86.5304H76.4102V85H82.9713Z" fill="black"/>
<path d="M81.3813 115.486C81.3813 114.785 80.904 114.174 80.2238 114.004L78.9003 113.672L79.271 112.188L80.5952 112.519C81.9567 112.859 82.9117 114.083 82.9118 115.486C82.9118 116.803 82.069 117.972 80.8201 118.388L78.9452 119.013L78.4609 117.561L80.3366 116.936C80.9605 116.728 81.3813 116.144 81.3813 115.486Z" fill="black"/>
<path d="M80.5107 107.523L71.0531 111.16V120.361L80.0317 122.517L79.6745 124.005L70.1967 121.73H66.6531C63.3778 121.73 60.7227 119.075 60.7227 115.8C60.7227 112.525 63.3778 109.87 66.6531 109.87H70.1451L79.9607 106.094L80.5107 107.523ZM62.2531 115.8C62.2531 118.23 64.223 120.2 66.6531 120.2H69.5227V111.4H66.6531C64.223 111.4 62.2531 113.37 62.2531 115.8Z" fill="black"/>
<path d="M65.3117 120.583V127.087H67.9899V120.965H69.5204V128.617H63.7812V120.583H65.3117Z" fill="black"/>
<path d="M46.1826 109.104V128.617H44.6522V110.635H38.5304V128.617H37V109.104H46.1826Z" fill="black"/>
<path d="M58.4248 105.278V129H56.8944V106.809H50.7726V129H49.2422V105.278H58.4248Z" fill="black"/>
<path d="M70.6709 101.835V107.957H69.1405V103.365H63.0187V109.487H61.4883V101.835H70.6709Z" fill="black"/>
<path d="M82.9131 95.713V102.217H81.3826V97.2434H75.2609V105.661H73.7305V95.713H82.9131Z" fill="black"/>
<path d="M85.2069 115.226C85.2069 112.536 84.7192 110.175 83.994 108.543C83.6306 107.725 83.2376 107.158 82.8783 106.816C82.5269 106.482 82.2819 106.426 82.146 106.426C82.01 106.426 81.765 106.482 81.4137 106.816C81.0544 107.158 80.6614 107.725 80.298 108.543C79.5728 110.175 79.0851 112.536 79.0851 115.226C79.0851 117.916 79.5728 120.277 80.298 121.909C80.6614 122.727 81.0544 123.294 81.4137 123.636C81.765 123.97 82.01 124.026 82.146 124.026V125.556C79.6103 125.556 77.5547 120.931 77.5547 115.226C77.5547 109.521 79.6103 104.896 82.146 104.896C84.6817 104.896 86.7373 109.521 86.7373 115.226C86.7373 120.931 84.6817 125.556 82.146 125.556V124.026C82.2819 124.026 82.5269 123.97 82.8783 123.636C83.2376 123.294 83.6306 122.727 83.994 121.909C84.7192 120.277 85.2069 117.916 85.2069 115.226Z" fill="black"/>
<path d="M228.988 22.3154C230.089 21.895 231.371 22.0997 232.42 23.0176C233.467 23.9339 233.837 25.0512 233.652 26.2092C233.478 27.2958 232.83 28.331 232.05 29.233C231.781 29.5449 231.486 29.8492 231.175 30.1461C232.074 30.8953 233.242 31.6747 234.746 32.4546C235.153 32.6657 235.313 33.1666 235.102 33.5737C234.891 33.9807 234.39 34.1397 233.983 33.9288C232.31 33.0617 230.966 32.1552 229.912 31.244C228.715 32.1945 227.444 32.9919 226.445 33.5128C226.039 33.7249 225.537 33.5673 225.325 33.1609C225.113 32.7544 225.27 32.2525 225.677 32.0403C226.564 31.5772 227.671 30.884 228.715 30.0731C227.112 28.2737 226.583 26.5031 226.853 25.001C227.082 23.7203 227.902 22.7304 228.988 22.3154ZM231.327 24.268C230.716 23.7332 230.077 23.6775 229.582 23.8666C229.072 24.0614 228.621 24.5515 228.487 25.2946C228.334 26.148 228.614 27.4722 229.975 28.9971C230.268 28.7194 230.544 28.4355 230.793 28.1473C231.49 27.3413 231.909 26.5888 232.012 25.9465C232.104 25.3757 231.961 24.8228 231.327 24.268Z" fill="black"/>
<path d="M247.233 29.4551V19.6573C247.233 19.107 246.787 18.6607 246.237 18.6607H222.489C221.939 18.6607 221.493 19.107 221.493 19.6573V41.744C221.493 42.2943 221.939 42.7406 222.489 42.7406H225.718C226.423 42.7406 227.099 43.0208 227.597 43.519L229.796 45.7181V43.5709C229.796 43.1123 230.168 42.7406 230.626 42.7406C231.085 42.7406 231.457 43.1123 231.457 43.5709V47.3221C231.457 48.2095 230.383 48.6535 229.756 48.0259L226.423 44.6932C226.236 44.5064 225.982 44.4013 225.718 44.4013H222.489C221.022 44.4013 219.832 43.2115 219.832 41.744V19.6573C219.832 18.1898 221.022 17 222.489 17H246.237C247.704 17 248.894 18.1898 248.894 19.6573V29.4551C248.894 29.9137 248.522 30.2855 248.064 30.2855C247.605 30.2855 247.233 29.9137 247.233 29.4551Z" fill="black"/>
<path d="M237.684 35.2675C238.143 35.2675 238.515 35.6392 238.515 36.0978C238.515 36.5564 238.143 36.9281 237.684 36.9281H236.473C235.182 36.9283 234.081 37.8614 233.868 39.1345C233.706 40.1073 234.1 41.0897 234.889 41.6815L236.522 42.9068C236.889 43.1819 236.963 43.7019 236.688 44.0688C236.413 44.4356 235.893 44.51 235.526 44.235L233.892 43.0106C232.607 42.0467 231.966 40.4467 232.231 38.8621C232.576 36.788 234.37 35.2676 236.473 35.2675H237.684Z" fill="black"/>
<path d="M259.301 38.3707C259.422 37.9284 259.878 37.6672 260.32 37.7877C260.763 37.9083 261.024 38.3646 260.903 38.8069L257.167 52.5076C257.046 52.9499 256.59 53.211 256.148 53.0906C255.705 52.97 255.444 52.5136 255.565 52.0713L259.301 38.3707Z" fill="black"/>
<path d="M254.371 52.3584C254.562 51.9417 255.055 51.7587 255.472 51.9497C255.889 52.1409 256.072 52.6341 255.881 53.0509L252.085 61.3324C251.879 61.7815 252.108 62.3098 252.577 62.466L255.007 63.2761C255.665 63.4955 256.373 63.1176 256.558 62.4482C256.68 62.0062 257.137 61.7468 257.579 61.8684C258.021 61.9902 258.281 62.4472 258.159 62.8893C257.722 64.4763 256.043 65.3722 254.481 64.8517L252.052 64.0416C250.646 63.5729 249.958 61.988 250.575 60.6407L254.371 52.3584ZM260.161 53.6583C260.322 53.229 260.801 53.0116 261.23 53.1725C261.659 53.3337 261.877 53.8128 261.716 54.2421L259.225 60.8848C259.064 61.314 258.584 61.5315 258.155 61.3705C257.726 61.2094 257.508 60.7303 257.669 60.301L260.161 53.6583Z" fill="black"/>
<path d="M250.572 52.5417C250.662 52.0921 251.1 51.8006 251.549 51.8906C251.999 51.9806 252.29 52.418 252.201 52.8677C252.132 53.2116 251.99 53.6892 251.768 54.1659C251.677 54.36 251.566 54.5647 251.435 54.7667L253.248 55.2208C253.693 55.332 253.963 55.7823 253.852 56.2271C253.741 56.672 253.291 56.9423 252.846 56.8313L250.078 56.1396C249.533 56.0034 249.351 55.5215 249.317 55.2533C249.283 54.9795 249.343 54.5609 249.693 54.2737C249.898 54.1061 250.096 53.8194 250.263 53.4629C250.425 53.1147 250.528 52.7649 250.572 52.5417Z" fill="black"/>
<path d="M243.656 29.794C243.927 29.4244 244.447 29.3445 244.817 29.6156C246.617 30.9354 253.032 34.5818 264.673 38.9773C267.093 39.8913 268.465 42.4922 267.779 45.0078L266.297 50.4423C265.503 53.3546 262.36 54.863 259.556 54.1415C255.171 53.0131 248.735 52.0189 241.917 52.7006C241.461 52.7462 241.054 52.4133 241.008 51.957C240.962 51.5007 241.295 51.0937 241.752 51.048C248.815 50.3417 255.453 51.3705 259.97 52.5328C262.016 53.0594 264.172 51.9248 264.696 50.0052L266.178 44.5707C266.633 42.9004 265.724 41.1495 264.086 40.5309C252.392 36.1155 245.813 32.4064 243.834 30.9552C243.464 30.684 243.384 30.1638 243.656 29.794Z" fill="black"/>
<path d="M238.244 51.8418L243.474 29.065C243.628 28.3945 243.209 27.7262 242.539 27.5723C241.869 27.4184 241.2 27.8371 241.046 28.5075L235.816 51.2843C235.663 51.9546 236.081 52.6231 236.751 52.777L236.38 54.3955L236.235 54.3582C234.804 53.9523 233.909 52.5243 234.168 51.059L234.198 50.9127L239.428 28.1358C239.787 26.5715 241.346 25.5945 242.911 25.9537C244.475 26.3129 245.452 27.8723 245.093 29.4366L239.863 52.2134L239.825 52.358C239.406 53.8371 237.895 54.7435 236.38 54.3955L236.751 52.777C237.422 52.9309 238.09 52.512 238.244 51.8418Z" fill="black"/>
</svg>
