<svg width="296" height="220" viewBox="0 0 296 220" fill="none" xmlns="http://www.w3.org/2000/svg">
<path d="M47.0469 29.5549L50.6153 45.1084H77.2989L80.8673 29.5549H56.5025H47.0469Z" fill="#CDFF71"/>
<path d="M79.5112 47.8715H48.4065C48.1484 47.8715 47.9246 47.693 47.8676 47.4416L43.0359 26.2202C42.5468 24.071 40.6657 22.5706 38.4617 22.5706H35.5526C35.2476 22.5706 35 22.323 35 22.018C35 21.7129 35.2476 21.4653 35.5526 21.4653H38.4617C41.1846 21.4653 43.509 23.3194 44.1136 25.9749L48.8469 46.7668H79.0696L83.4919 27.3449H56.5043C56.1992 27.3449 55.9516 27.0973 55.9516 26.7922C55.9516 26.4872 56.1992 26.2396 56.5043 26.2396H84.1849C84.3534 26.2396 84.512 26.3164 84.6165 26.4474C84.7215 26.5789 84.7613 26.7508 84.7231 26.9149L80.0495 47.4416C79.9926 47.693 79.7693 47.8715 79.5112 47.8715Z" fill="#03045E"/>
<path d="M45.7431 55.4946C43.3369 55.4946 41.3789 53.5371 41.3789 51.1309C41.3789 48.7247 43.3364 46.7667 45.7431 46.7667H79.4773C79.7829 46.7667 80.0299 47.0138 80.0299 47.3194C80.0299 47.625 79.7829 47.872 79.4773 47.872H45.7431C43.9465 47.872 42.4842 49.3343 42.4842 51.1309C42.4842 52.9275 43.9465 54.3893 45.7431 54.3893C46.0482 54.3893 46.2957 54.6363 46.2957 54.9419C46.2957 55.2475 46.0482 55.4946 45.7431 55.4946Z" fill="#03045E"/>
<path d="M75.5809 59C73.3438 59 71.5234 57.1796 71.5234 54.9419C71.5234 52.7043 73.3438 50.8839 75.5809 50.8839C77.8185 50.8839 79.6389 52.7043 79.6389 54.9419C79.6389 57.1796 77.8185 59 75.5809 59ZM75.5809 51.9892C73.9534 51.9892 72.6287 53.3133 72.6287 54.9419C72.6287 56.5706 73.9528 57.8947 75.5809 57.8947C77.209 57.8947 78.5337 56.5706 78.5337 54.9419C78.5337 53.3133 77.209 51.9892 75.5809 51.9892Z" fill="#03045E"/>
<path d="M53.7684 59C51.5313 59 49.7109 57.1796 49.7109 54.9419C49.7109 52.7043 51.5313 50.8839 53.7684 50.8839C56.006 50.8839 57.8264 52.7043 57.8264 54.9419C57.8264 57.1796 56.006 59 53.7684 59ZM53.7684 51.9892C52.1403 51.9892 50.8162 53.3133 50.8162 54.9419C50.8162 56.5706 52.1403 57.8947 53.7684 57.8947C55.3965 57.8947 56.7212 56.5706 56.7212 54.9419C56.7212 53.3133 55.3965 51.9892 53.7684 51.9892Z" fill="#03045E"/>
<path d="M67.1107 55.4947H57.2831C56.9781 55.4947 56.7305 55.2477 56.7305 54.942C56.7305 54.6364 56.9781 54.3894 57.2831 54.3894H67.1107C67.4163 54.3894 67.6633 54.6364 67.6633 54.942C67.6633 55.2477 67.4163 55.4947 67.1107 55.4947Z" fill="#03045E"/>
<path d="M79.4785 27.3443H64.8612C64.5556 27.3443 64.3086 27.0967 64.3086 26.7917V19.1564C64.3086 18.8513 64.5556 18.6038 64.8612 18.6038H79.4785C79.7841 18.6038 80.0312 18.8513 80.0312 19.1564V26.7917C80.0312 27.0973 79.7841 27.3443 79.4785 27.3443ZM65.4139 26.239H78.9259V19.709H65.4139V26.239V26.239Z" fill="#03045E"/>
<path d="M50.3651 27.3443C50.0601 27.3443 49.8125 27.0967 49.8125 26.7917V15.5526C49.8125 15.2476 50.0601 15 50.3651 15H69.5445C69.8501 15 70.0971 15.2476 70.0971 15.5526V19.1564C70.0971 19.4615 69.8501 19.709 69.5445 19.709C69.2389 19.709 68.9918 19.4615 68.9918 19.1564V16.1053H50.9178V26.7917C50.9178 27.0973 50.6702 27.3443 50.3651 27.3443Z" fill="#03045E"/>
<path d="M77.2665 21.3671H67.0703V24.5812H77.2665V21.3671Z" fill="#CDFF71"/>
<path d="M53.8867 31.9988L56.0903 42.7017" stroke="#03045E" stroke-width="0.94438" stroke-linecap="round"/>
<path d="M74.0352 31.9988L71.8316 42.7017" stroke="#03045E" stroke-width="0.94438" stroke-linecap="round"/>
<line x1="64.4331" y1="32.471" x2="64.4331" y2="42.2296" stroke="#03045E" stroke-width="0.94438" stroke-linecap="round"/>
<path d="M51.3711 37.6652H76.5546" stroke="#03045E" stroke-width="0.94438" stroke-linecap="round"/>
<path d="M247.787 131.41H233.227C231.561 131.41 230.211 130.06 230.211 128.394V88.9916C230.211 87.3257 231.561 85.9755 233.227 85.9755H247.787C249.453 85.9755 250.803 87.3257 250.803 88.9916V128.395C250.803 130.06 249.453 131.41 247.787 131.41Z" fill="#CDFF71"/>
<path d="M254.214 112.948H244.482C244.226 112.948 243.999 112.781 243.925 112.536L240.721 102.063H237.77C237.448 102.063 237.188 101.802 237.188 101.48C237.188 101.159 237.448 100.898 237.77 100.898H241.152C241.408 100.898 241.634 101.065 241.709 101.31L244.913 111.784H253.828L256.539 105.328H247.593C247.271 105.328 247.011 105.067 247.011 104.746C247.011 104.424 247.271 104.163 247.593 104.163H257.416C257.611 104.163 257.793 104.261 257.901 104.423C258.009 104.586 258.029 104.791 257.953 104.971L254.752 112.591C254.661 112.807 254.449 112.948 254.214 112.948Z" fill="#03045E"/>
<path d="M244.354 117.662C245.134 117.662 245.767 117.029 245.767 116.249C245.767 115.469 245.134 114.836 244.354 114.836C243.574 114.836 242.941 115.469 242.941 116.249C242.941 117.029 243.574 117.662 244.354 117.662Z" fill="#03045E"/>
<path d="M254.03 117.662C254.81 117.662 255.442 117.029 255.442 116.249C255.442 115.469 254.81 114.836 254.03 114.836C253.25 114.836 252.617 115.469 252.617 116.249C252.617 117.029 253.25 117.662 254.03 117.662Z" fill="#03045E"/>
<path d="M237.054 112.948H228.188C227.866 112.948 227.605 112.688 227.605 112.365C227.605 112.043 227.866 111.783 228.188 111.783H237.054C237.375 111.783 237.636 112.043 237.636 112.365C237.636 112.688 237.376 112.948 237.054 112.948Z" fill="#03045E"/>
<path d="M235.728 107.505H223.582C223.261 107.505 223 107.244 223 106.923C223 106.601 223.261 106.34 223.582 106.34H235.728C236.049 106.34 236.31 106.601 236.31 106.923C236.31 107.244 236.049 107.505 235.728 107.505Z" fill="#03045E"/>
<path d="M241.385 130.828H239.614C239.292 130.828 239.031 130.567 239.031 130.245C239.031 129.923 239.292 129.663 239.614 129.663H241.384C241.706 129.663 241.966 129.923 241.966 130.245C241.966 130.567 241.706 130.828 241.385 130.828Z" fill="#03045E"/>
<path d="M237.448 87.723H236.563C236.241 87.723 235.98 87.462 235.98 87.1405C235.98 86.8189 236.241 86.558 236.563 86.558H237.448C237.77 86.558 238.031 86.8189 238.031 87.1405C238.031 87.462 237.77 87.723 237.448 87.723Z" fill="#03045E"/>
<path d="M244.436 87.723H240.055C239.734 87.723 239.473 87.462 239.473 87.1405C239.473 86.8189 239.734 86.558 240.055 86.558H244.436C244.758 86.558 245.018 86.8189 245.018 87.1405C245.018 87.462 244.758 87.723 244.436 87.723Z" fill="#03045E"/>
<path d="M226.965 102.062C226.644 102.062 226.383 101.801 226.383 101.48V86.3675C226.383 84.2245 228.126 82.4805 230.269 82.4805H250.724C252.867 82.4805 254.611 84.2245 254.611 86.3675V100.756C254.611 101.078 254.35 101.339 254.028 101.339C253.706 101.339 253.446 101.078 253.446 100.756V86.3675C253.446 84.8664 252.225 83.6455 250.724 83.6455H230.269C228.768 83.6455 227.547 84.8664 227.547 86.3675V101.48C227.548 101.801 227.287 102.062 226.965 102.062Z" fill="#03045E"/>
<path d="M250.725 134.905H230.27C228.127 134.905 226.383 133.162 226.383 131.018V116.733C226.383 116.41 226.644 116.15 226.965 116.15C227.287 116.15 227.548 116.41 227.548 116.733V131.018C227.548 132.519 228.769 133.74 230.27 133.74H250.724C252.225 133.74 253.446 132.519 253.446 131.018V121.479C253.446 121.157 253.707 120.897 254.029 120.897C254.351 120.897 254.611 121.157 254.611 121.479V131.018C254.611 133.162 252.868 134.905 250.725 134.905Z" fill="#03045E"/>
<path d="M257.261 27.6274H222.751C220.679 27.6274 219 29.3068 219 31.3785V31.8263C219 32.9658 219.518 34.0435 220.408 34.7553L221.709 35.7963C222.383 36.3355 222.85 37.0907 223.032 37.9345L226.239 52.8001C226.611 54.5273 228.139 55.7603 229.905 55.7603H250.048C251.841 55.7603 253.383 54.4909 253.729 52.731L256.602 38.0754C256.784 37.1463 257.311 36.3205 258.077 35.7636L259.467 34.7526C260.437 34.0467 261.012 32.9191 261.012 31.719V31.3785C261.012 29.3068 259.332 27.6274 257.261 27.6274Z" stroke="#03045E" stroke-width="1.28983" stroke-linecap="round"/>
<path d="M252.947 31.145H227.067C225.513 31.145 224.254 32.4045 224.254 33.958V34.2938C224.254 35.1484 224.642 35.9566 225.31 36.4905L226.285 37.2711C226.791 37.6755 227.141 38.2418 227.278 38.8746L229.682 50.0228C229.962 51.318 231.107 52.2427 232.432 52.2427H247.537C248.882 52.2427 250.039 51.2907 250.298 49.9709L252.453 38.9803C252.59 38.2835 252.985 37.6642 253.559 37.2466L254.601 36.4884C255.329 35.959 255.76 35.1134 255.76 34.2134V33.958C255.76 32.4045 254.5 31.145 252.947 31.145Z" fill="#CDFF71"/>
<path d="M229.5 27.6268L234.001 19" stroke="#03045E" stroke-width="1.28983" stroke-linecap="round"/>
<path d="M250.512 27.6268L246.011 19" stroke="#03045E" stroke-width="1.28983" stroke-linecap="round"/>
<path d="M234.375 35.1295H245.628" stroke="#03045E" stroke-width="1.28983" stroke-linecap="round"/>
<path d="M157.931 178.035L160.888 175.13C162.149 173.892 164.169 173.892 165.43 175.13L168.387 178.035C169.007 178.644 169.357 179.477 169.357 180.347V187.16C169.357 188.949 167.906 190.4 166.116 190.4H160.202C158.412 190.4 156.961 188.949 156.961 187.16V180.347C156.961 179.477 157.31 178.644 157.931 178.035Z" fill="#CDFF71" stroke="#03045E" stroke-width="1.10223"/>
<rect x="138.551" y="165.35" width="33.8978" height="38.2728" rx="3.09472" stroke="#03045E" stroke-width="1.10223"/>
<path d="M147.848 170.267V165.528C147.848 154.955 163.16 154.955 163.16 165.528V170.267" stroke="#03045E" stroke-width="1.10223"/>
<circle cx="147.85" cy="171.726" r="1.2718" fill="#03045E" stroke="#03045E" stroke-width="1.10223"/>
<circle cx="163.155" cy="171.726" r="1.2718" fill="#03045E" stroke="#03045E" stroke-width="1.10223"/>
<path d="M139.297 196.487H171.704V201.024C171.704 202.098 170.834 202.968 169.76 202.968H141.241C140.167 202.968 139.297 202.098 139.297 201.024V196.487Z" fill="#CDFF71"/>
<line x1="138.648" y1="195.936" x2="173" y2="195.936" stroke="#03045E" stroke-width="1.10223"/>
<path d="M165.39 180.933L161.332 185.668" stroke="#03045E" stroke-width="1.10223"/>
<circle cx="161.332" cy="180.933" r="1.13985" stroke="#03045E" stroke-width="1.10223"/>
<circle cx="165.394" cy="184.992" r="1.13985" stroke="#03045E" stroke-width="1.10223"/>
<path d="M165.585 25.1827H144.873C141.949 25.1827 141.32 28.015 141.218 29.4364L140 54.108C140 57.1538 142.132 58.0676 143.96 58.0676H166.195C169.545 58.0676 171.068 56.8493 171.068 54.108L170.154 29.4364C170.154 25.5376 167.413 25.1828 165.585 25.1827Z" stroke="#03045E" stroke-width="1.35081" stroke-linecap="round"/>
<path d="M163.402 28.8129H147.193C144.904 28.8129 144.412 31.0294 144.332 32.1418L143.379 51.45C143.379 53.8337 145.048 54.5489 146.478 54.5489H163.879C166.501 54.5489 167.693 53.5954 167.693 51.45L166.978 32.1418C166.978 29.0906 164.832 28.8129 163.402 28.8129Z" fill="#CDFF71"/>
<path d="M149.95 16.541C149.364 17.01 148.368 18.6512 148.192 21.289L147.312 30.0816" stroke="#03045E" stroke-width="1.35081" stroke-linecap="round"/>
<path d="M152.586 13.7275C155.535 12.603 161.952 11.5899 163.313 20.4098L164.368 30.4334" stroke="#03045E" stroke-width="1.35081" stroke-linecap="round"/>
<path d="M155.703 36.9177V46.7109" stroke="#03045E" stroke-width="1.35081" stroke-linecap="round"/>
<path d="M150.809 41.8176L160.602 41.8176" stroke="#03045E" stroke-width="1.35081" stroke-linecap="round"/>
<path d="M246.156 174.923H255.798C257.754 174.923 259.339 176.508 259.339 178.464V179.317" stroke="#03045E" stroke-width="1.49059" stroke-linecap="round"/>
<rect x="236.624" y="156.093" width="5.21708" height="22.3589" rx="2.60854" fill="#CDFF71" stroke="#03045E" stroke-width="1.49059" stroke-linecap="round"/>
<path d="M231.769 174.923H218.541C216.586 174.923 215 176.508 215 178.464V180.569C215 182.525 216.586 184.111 218.541 184.111H240.966" stroke="#03045E" stroke-width="1.49059" stroke-linecap="round"/>
<path d="M220.598 184.111L223.492 201.155C223.897 203.539 225.962 205.283 228.38 205.283H245.765" stroke="#03045E" stroke-width="1.49059" stroke-linecap="round"/>
<path d="M230.586 189.304V198.891" stroke="#03045E" stroke-width="1.49059" stroke-linecap="round"/>
<path d="M237.371 189.304V198.891" stroke="#03045E" stroke-width="1.49059" stroke-linecap="round"/>
<circle cx="239.22" cy="175.098" r="1.11794" fill="#03045E"/>
<path d="M254.945 186.108C244.567 177.719 236.728 193.698 254.945 204.883C272.528 194.896 266.535 177.719 254.945 186.108Z" fill="#CDFF71" stroke="#03045E" stroke-width="1.49059" stroke-linecap="round"/>
<path d="M255.215 190.409V197.998" stroke="#03045E" stroke-width="1.47559"/>
<path d="M251.43 194.207L259.018 194.207" stroke="#03045E" stroke-width="1.47559"/>
<path d="M52.0645 97.6981H41.7288C40.2066 97.6981 38.9727 98.9321 38.9727 100.454V105.786C38.9727 107.309 40.2066 108.542 41.7288 108.542H80.1647C81.6869 108.542 82.9209 107.309 82.9209 105.786V100.454C82.9209 98.9321 81.6869 97.6981 80.1647 97.6981H68.9462" stroke="#03045E" stroke-width="1.37809" stroke-linecap="round"/>
<rect x="57.357" y="84.689" width="6.6125" height="16.8861" rx="3.30625" fill="#CDFF71" stroke="#03045E" stroke-width="1.37809" stroke-linecap="round"/>
<path d="M42.9688 108.542L47.9624 126.02C48.385 127.499 49.7368 128.519 51.2751 128.519H71.1182C72.6905 128.519 74.0633 127.454 74.4549 125.932L78.9264 108.542" stroke="#03045E" stroke-width="1.37809" stroke-linecap="round"/>
<path d="M51.5929 126.144L47.2422 110.917H74.6514L70.7358 126.144H51.5929Z" fill="#CDFF71"/>
<path d="M56.668 114.25V120.528" stroke="#03045E" stroke-width="1.37809" stroke-linecap="round"/>
<path d="M65.8008 114.25V120.528" stroke="#03045E" stroke-width="1.37809" stroke-linecap="round"/>
<circle cx="60.6781" cy="98.1254" r="1.03357" fill="#03045E"/>
<path d="M39 167.9H41.8315C42.6809 167.9 43.8739 168.07 44.663 171.015L45.2832 173.28M75.243 198.197H55.1395C52.5911 198.197 51.7417 196.498 51.1754 194.799L45.2832 173.28M45.2832 173.28H52.5911" stroke="#03045E" stroke-width="1.32135" stroke-linecap="round"/>
<path d="M71.5624 172.997H79.2074L74.9601 192.534H50.6094" stroke="#03045E" stroke-width="1.32135" stroke-linecap="round"/>
<circle cx="57.3978" cy="202.727" r="2.73711" fill="#CDFF71" stroke="#03045E" stroke-width="1.32135" stroke-linecap="round"/>
<circle cx="71.5618" cy="202.727" r="2.73711" fill="#CDFF71" stroke="#03045E" stroke-width="1.32135" stroke-linecap="round"/>
<path d="M56.2695 187.721H67.8786" stroke="#03045E" stroke-width="1.32135" stroke-linecap="round"/>
<path d="M56.1797 176.107H60.0181C56.9474 159.73 75.0089 155.126 81.0014 165.615C71.7055 160.411 63.8565 167.406 65.136 176.107H68.9744L62.577 184.04L56.1797 176.107Z" fill="#CDFF71" stroke="#03045E" stroke-width="1.19416" stroke-linecap="round"/>
<rect x="146.23" y="89.5813" width="13.5978" height="13.5978" rx="1.98576" fill="#CDFF71" stroke="#03045E" stroke-width="1.1625"/>
<path d="M160.094 94.7758H172.608C173.758 94.7758 175.817 95.6742 174.854 99.268L170.125 116.916" stroke="#03045E" stroke-width="1.1625" stroke-linecap="round"/>
<path d="M128 90.9253H134.738C136.022 90.9253 137.434 91.2462 137.947 93.8132L143.402 116.916" stroke="#03045E" stroke-width="1.1625" stroke-linecap="round"/>
<rect x="141.097" y="117.177" width="30.9252" height="6.53853" rx="1.98576" stroke="#03045E" stroke-width="1.1625"/>
<circle cx="149.176" cy="125.259" r="4.2319" fill="#CDFF71" stroke="#03045E" stroke-width="1.1625"/>
<circle cx="164.579" cy="125.259" r="4.2319" fill="#CDFF71" stroke="#03045E" stroke-width="1.1625"/>
<path d="M148.219 112.103H171.322" stroke="#03045E" stroke-width="1.1625" stroke-linecap="round"/>
<path d="M128 94.455H134.418" stroke="#03045E" stroke-width="1.1625" stroke-linecap="round"/>
<path d="M153.184 93.4923V99.589" stroke="#03045E" stroke-width="1.1625" stroke-linecap="round"/>
<path d="M150.141 96.5438L156.237 96.5438" stroke="#03045E" stroke-width="1.1625" stroke-linecap="round"/>
</svg>
