<svg width="260" height="178" viewBox="0 0 260 178" fill="none" xmlns="http://www.w3.org/2000/svg">
<path d="M24.0437 16.6979C24.9563 16.4317 25.9927 16.4484 27.1372 16.8756L27.459 16.9889C29.1678 17.5697 32.3131 18.3121 35.208 16.9147L35.2223 16.9078L35.2366 16.9017C36.4196 16.3759 38.5394 16.1487 40.3985 18.0078C42.3574 19.9667 45.5115 25.4076 43.0884 32.6768C42.8449 33.4073 42.3189 34.0633 41.4047 34.3336C40.5726 34.5795 39.5614 34.4601 38.389 34.0631C31.5429 31.8934 25.4944 33.2151 23.2972 34.1764L23.2969 34.1761C22.5388 34.5184 21.7349 34.6931 20.9812 34.4588C20.1767 34.2088 19.6858 33.5779 19.4139 32.8682C16.5368 25.3557 19.9412 19.9007 21.9001 17.9977C22.4382 17.475 23.1452 16.96 24.0437 16.6979ZM26.4443 18.751C25.6731 18.4618 25.0763 18.4793 24.6034 18.6173C24.1141 18.7601 23.6814 19.0548 23.2933 19.4318C21.7533 20.9278 18.7597 25.5697 21.2809 32.1529C21.4111 32.4928 21.535 32.5369 21.5747 32.5493C21.6608 32.576 21.9253 32.6039 22.483 32.3504L22.496 32.3446C25.0567 31.2243 31.4414 29.8716 38.6493 32.051L38.993 32.1575L39.0034 32.1607L39.0135 32.1643C40.0324 32.5115 40.5797 32.4924 40.8378 32.4162C41.0184 32.3628 41.1168 32.2688 41.1915 32.0445C43.3271 25.6379 40.5245 20.9617 38.9845 19.4217C37.846 18.2832 36.6683 18.4539 36.0511 18.7273C32.1888 20.5777 28.1385 19.3672 26.4538 18.7546L26.4492 18.753L26.4443 18.751Z" fill="black"/>
<path d="M25.0937 25.3128C25.0937 25.2576 25.049 25.2129 24.9938 25.2129C24.9387 25.2129 24.894 25.2576 24.8939 25.3128C24.8939 25.368 24.9386 25.4127 24.9938 25.4127V27.4121C23.8344 27.4121 22.8945 26.4722 22.8945 25.3128C22.8946 24.1534 23.8344 23.2135 24.9938 23.2135C26.1533 23.2135 27.0931 24.1534 27.0931 25.3128C27.0931 26.4722 26.1533 27.4121 24.9938 27.4121V25.4127C25.049 25.4127 25.0937 25.368 25.0937 25.3128Z" fill="black"/>
<path d="M37.3906 25.3128C37.3906 25.2576 37.3459 25.2129 37.2907 25.2129C37.2355 25.2129 37.1908 25.2576 37.1908 25.3128C37.1908 25.368 37.2355 25.4127 37.2907 25.4127V27.4121C36.1313 27.4121 35.1914 26.4722 35.1914 25.3128C35.1914 24.1534 36.1313 23.2135 37.2907 23.2135C38.4501 23.2135 39.39 24.1534 39.39 25.3128C39.39 26.4722 38.4502 27.4121 37.2907 27.4121V25.4127C37.3459 25.4127 37.3906 25.368 37.3906 25.3128Z" fill="black"/>
<path d="M51.1373 23.0635C51.1373 22.396 50.9316 21.9314 50.6339 21.5838C50.3213 21.2187 49.8604 20.9303 49.2896 20.7227C48.6864 20.5034 48.0277 20.3994 47.4392 20.3686C49.224 24.3364 49.6233 28.9424 47.8128 33.3364C50.0675 33.1827 51.1373 31.4966 51.1373 30.5612V23.0635ZM10.9994 30.5612C10.9994 31.0506 11.4064 31.9297 12.3086 32.5616C12.9499 33.0108 13.8007 33.2983 14.8208 33.1691C13.5821 29.5796 13.3561 24.728 14.8908 20.3286C14.8785 20.3299 14.8659 20.3305 14.8534 20.3319C14.2989 20.3914 13.6572 20.5525 13.0561 20.8249C11.8329 21.3791 10.9995 22.2671 10.9994 23.5132V30.5612ZM53.1367 30.5612C53.1367 32.911 50.6815 35.6461 46.8339 35.3179C45.8132 37.0772 44.412 38.7621 42.5891 40.3187L42.3089 40.5582H34.1763L33.8851 40.073C33.7795 39.897 33.5543 39.5925 33.2664 39.33C32.9867 39.0751 32.7398 38.9445 32.5593 38.9086H29.1069C28.9931 38.973 28.8563 39.078 28.7567 39.2194C28.6451 39.3779 28.5458 39.6231 28.6601 40.0495C28.8029 40.5828 28.4862 41.1309 27.9529 41.2738C27.4197 41.4166 26.8716 41.1002 26.7287 40.567C26.4573 39.5539 26.6773 38.6993 27.1218 38.068C27.538 37.477 28.1176 37.1246 28.5582 36.9675L28.7209 36.9092H32.7051L32.7669 36.917C33.5433 37.0141 34.1799 37.4575 34.6133 37.8526C34.8654 38.0824 35.0845 38.3293 35.2629 38.5588H41.565C43.2803 37.0418 44.536 35.4255 45.4037 33.7741C47.8275 29.1611 47.3014 24.1199 44.9953 19.9482C42.2195 14.9269 36.954 11.3223 31.4551 11.317C23.4698 11.5786 19.194 15.3607 17.2189 19.8659C15.1924 24.4884 15.5506 29.9656 17.0776 33.4601C17.4306 34.2677 17.8366 34.9468 18.2703 35.4754C18.6205 35.9022 18.5581 36.532 18.1314 36.8822C17.7045 37.2324 17.0748 37.1704 16.7246 36.7436C16.3184 36.2486 15.9514 35.6799 15.6259 35.0563C13.8676 35.4436 12.3161 35.0078 11.1615 34.1991C9.87984 33.3014 9 31.8713 9 30.5612V23.5132C9.00006 21.1606 10.641 19.7242 12.2308 19.0038C13.0361 18.639 13.8855 18.4252 14.6399 18.3442C15.0003 18.3055 15.3757 18.293 15.7336 18.323C18.1662 13.4327 23.0833 9.58477 31.4112 9.31828L31.4271 9.31763H31.4431C37.5743 9.31763 43.2566 13.1493 46.4011 18.3852C47.4087 18.3045 48.7558 18.4011 49.973 18.8437C50.7596 19.1298 51.5517 19.5816 52.1526 20.2834C52.7684 21.0026 53.1367 21.9315 53.1367 23.0635V30.5612Z" fill="black"/>
<path d="M142.067 25.9734V28.3929H118.334V25.9734H142.067ZM142.614 25.4264V12.9667C142.614 12.6646 142.369 12.4195 142.067 12.4195H118.334C118.032 12.4195 117.787 12.6645 117.787 12.9667V25.4264C117.787 25.7286 118.032 25.9734 118.334 25.9734V28.3929L118.181 28.389C116.664 28.3122 115.448 27.096 115.371 25.5791L115.367 25.4264V12.9667C115.367 11.3795 116.614 10.0832 118.181 10.0038L118.334 10H142.067C143.705 10 145.033 11.3283 145.033 12.9667V25.4264L145.029 25.5791C144.95 27.1465 143.654 28.3929 142.067 28.3929V25.9734C142.369 25.9734 142.614 25.7286 142.614 25.4264Z" fill="black"/>
<path d="M138.066 31.3365L138.22 31.3779C145.346 33.2874 147.502 40.0532 147.717 43.142L145.303 43.3101C145.124 40.7323 143.314 35.3344 137.74 33.756H123.833C117.585 35.5066 116.2 40.8035 116.273 43.189L113.855 43.2631C113.759 40.1297 115.557 33.4672 123.354 31.3779L123.508 31.3365H138.066Z" fill="black"/>
<path d="M151.283 15.6366V23.053H148.863V15.6366H151.283Z" fill="black"/>
<path d="M112.419 15.6366V23.053H110V15.6366H112.419Z" fill="black"/>
<path d="M125.767 15.0432V22.7564H123.348V15.0432H125.767Z" fill="black"/>
<path d="M137.935 15.0432V22.7564H135.516V15.0432H137.935Z" fill="black"/>
<path d="M220.802 19.9536L220.913 20.8612C221.142 22.743 221.676 25.0716 223.175 26.9213C224.632 28.7194 227.117 30.2051 231.563 30.2052C233.371 30.2052 235.7 29.6304 237.553 28.1994C239.363 26.8006 240.782 24.5399 240.782 20.9863V19.9536H250.185L250.249 20.9177C250.554 25.4918 248.203 35.3725 236.677 39.2593L230.53 45.4062V39.4035C227.514 39.3505 223.447 38.5047 219.849 36.1049C215.75 33.3718 212.333 28.6696 211.739 21.0666L211.652 19.9536H220.802ZM213.91 22.0189C214.681 28.3262 217.622 32.1377 220.995 34.3869C224.609 36.7973 228.794 37.4592 231.512 37.3255L232.596 37.2724V40.4201L235.564 37.4519L235.799 37.3752C245.601 34.1746 248.094 26.2982 248.205 22.0189H242.81C242.553 25.6539 240.938 28.1945 238.815 29.834C236.539 31.5924 233.742 32.2705 231.563 32.2705C226.594 32.2704 223.479 30.5763 221.57 28.2215C219.971 26.2481 219.305 23.9118 218.993 22.0189H213.91Z" fill="black"/>
<path d="M223.519 13.2977C223.519 12.5511 222.914 11.9457 222.167 11.9457C221.421 11.9457 220.815 12.551 220.815 13.2977C220.815 14.0442 221.421 14.6493 222.167 14.6493V16.7146L221.991 16.7103C220.244 16.6218 218.843 15.2208 218.754 13.4735L218.75 13.2977C218.75 11.4104 220.28 9.88037 222.167 9.88037L222.343 9.88474C224.149 9.9763 225.584 11.4694 225.584 13.2977L225.58 13.4735C225.488 15.2789 223.995 16.7146 222.167 16.7146V14.6493C222.914 14.6493 223.519 14.0442 223.519 13.2977Z" fill="black"/>
<path d="M241.175 13.2977C241.175 12.5511 240.57 11.9457 239.824 11.9457C239.077 11.9457 238.472 12.551 238.472 13.2977C238.472 14.0442 239.077 14.6493 239.824 14.6493V16.7146L239.648 16.7103C237.9 16.6218 236.499 15.2208 236.411 13.4735L236.406 13.2977C236.406 11.4104 237.936 9.88037 239.824 9.88037L239.999 9.88474C241.805 9.9763 243.241 11.4694 243.241 13.2977L243.236 13.4735C243.145 15.2789 241.652 16.7146 239.824 16.7146V14.6493C240.57 14.6493 241.175 14.0442 241.175 13.2977Z" fill="black"/>
<path d="M135.983 70.4493C143.054 70.4494 148.741 74.3333 151.037 80.2625C151.048 80.2578 151.059 80.2528 151.07 80.2482C151.618 80.0131 152.298 79.8021 153.003 79.7966C153.738 79.7908 154.552 80.013 155.186 80.7001C155.791 81.3564 156.082 82.278 156.154 83.3622C156.3 85.5564 156.242 88.4691 155.598 90.5213C155.29 91.5038 154.746 92.6237 153.699 93.1393C153.078 93.4451 152.439 93.4711 151.816 93.307C151.27 95.3885 150.205 97.0547 148.975 98.2737C147.464 99.7712 145.612 100.68 144.075 100.744L144.05 100.745H118.642L118.534 100.725C115.613 100.194 113.713 98.5157 112.557 96.6693C111.845 95.5335 111.408 94.3271 111.167 93.2578C110.487 93.4177 109.809 93.3747 109.167 93.0474C108.103 92.5053 107.566 91.3798 107.273 90.3864C106.668 88.3367 106.718 85.5161 106.914 83.6061C107.025 82.5201 107.345 81.6181 107.94 80.9707C108.558 80.2976 109.341 80.0438 110.067 80.013C110.718 79.9854 111.368 80.1355 111.933 80.336C113.03 77.2128 115.28 75.2021 116.689 74.3565L117.944 76.4479C116.739 77.1711 114.56 79.1686 113.916 82.2899C113.688 83.3949 113.648 84.6594 113.92 86.0869L111.524 86.5433C111.263 85.1767 111.235 83.905 111.376 82.735C110.956 82.5587 110.523 82.4345 110.17 82.4495C109.945 82.459 109.827 82.5212 109.736 82.6209C109.62 82.7464 109.42 83.0742 109.34 83.8549C109.153 85.6782 109.145 88.1129 109.612 89.696C109.855 90.519 110.137 90.8043 110.274 90.8744C110.306 90.8905 110.603 91.0484 111.471 90.4698L113.275 89.2667L113.365 91.4338C113.406 92.4033 113.745 93.9714 114.624 95.3746C115.468 96.7228 116.794 97.8994 118.87 98.3061H143.988C144.75 98.2684 146.048 97.7403 147.258 96.5413C148.44 95.3695 149.451 93.6358 149.705 91.3498L149.944 89.1977L151.66 90.5177C152.04 90.8102 152.3 90.9178 152.447 90.9518C152.569 90.98 152.607 90.9582 152.622 90.9512C152.723 90.9014 153.005 90.6392 153.271 89.791C153.776 88.1817 153.861 85.638 153.72 83.5245C153.668 82.7423 153.478 82.446 153.393 82.3533C153.336 82.2915 153.25 82.2333 153.023 82.2351C152.766 82.2371 152.422 82.3216 152.031 82.4893C151.933 82.531 151.838 82.5758 151.745 82.6224C152.002 83.7964 152.136 85.031 152.136 86.3149H149.697C149.697 78.5129 143.95 72.8882 135.983 72.8882H127.942V70.4493H135.983Z" fill="black"/>
<path d="M122.919 70.8068C122.919 69.9333 122.21 69.2251 121.337 69.2251C120.463 69.2251 119.755 69.9333 119.755 70.8068C119.755 71.6803 120.463 72.3885 121.337 72.3885V74.8274L121.233 74.8259C119.095 74.7716 117.372 73.0485 117.318 70.9104L117.316 70.8068C117.316 68.5863 119.116 66.7863 121.337 66.7863L121.441 66.7874C123.613 66.8424 125.358 68.621 125.358 70.8068L125.356 70.9104C125.301 73.083 123.523 74.8273 121.337 74.8274V72.3885C122.21 72.3885 122.919 71.6803 122.919 70.8068Z" fill="black"/>
<path d="M124.348 67.9446C126.938 66.9577 128.923 67.0601 130.258 68.1226C131.534 69.1379 131.803 70.7139 131.743 71.7401L129.308 71.5969C129.343 70.9957 129.153 70.3606 128.739 70.0309C128.384 69.7486 127.45 69.3725 125.216 70.2236L124.348 67.9446Z" fill="black"/>
<path d="M139.418 77.342L139.669 77.4638C141.406 78.3042 143.636 80.2841 145.045 83.0899C146.479 85.9445 147.073 89.6756 145.446 93.9305L145.147 94.7143H116.962L116.712 93.8233C116.136 91.7602 115.842 88.342 116.812 85.0971C117.802 81.7852 120.133 78.6211 124.751 77.3837L124.906 77.342H139.418ZM125.231 79.7809C121.68 80.7852 119.933 83.1737 119.148 85.7958C118.462 88.0926 118.532 90.5419 118.856 92.2755H143.44C144.448 89.0583 143.936 86.3144 142.866 84.1849C141.759 81.9811 140.064 80.4532 138.842 79.7809H125.231Z" fill="black"/>
<path d="M128.232 85.454L126.366 87.3197L127.657 88.6115L125.933 90.3361L124.641 89.0443L122.775 90.9104L121.051 89.1861L122.917 87.32L121.051 85.454L122.775 83.7296L124.641 85.5954L126.507 83.7296L128.232 85.454Z" fill="black"/>
<path d="M140.864 85.454L138.998 87.3197L140.29 88.6115L138.565 90.3361L137.274 89.0443L135.408 90.9104L133.684 89.1861L135.549 87.32L133.684 85.454L135.408 83.7296L137.274 85.5954L139.14 83.7296L140.864 85.454Z" fill="black"/>
<path d="M42.1253 78.9386C42.1253 77.5997 41.6948 76.9211 41.2187 76.5476C40.7008 76.1413 39.9628 75.9654 39.1521 75.9654H13.158C12.1687 75.9654 11.6689 76.3375 11.3687 76.8021C11.0263 77.3322 10.8747 78.1 10.8747 78.9386V94.3511C10.8747 95.6357 11.1482 96.1774 11.416 96.4311C11.6922 96.6928 12.1857 96.8644 13.158 96.8644H36.3199L41.6551 102.2C41.847 102.392 42.0007 102.513 42.1149 102.588C42.121 102.535 42.1253 102.474 42.1253 102.403V78.9386ZM44 102.403C44 102.774 43.9456 103.165 43.7971 103.517C43.6476 103.872 43.3718 104.252 42.9055 104.447C42.4327 104.644 41.9442 104.575 41.5275 104.396C41.1198 104.22 40.7211 103.917 40.3296 103.525L35.5433 98.7391H13.158C12.0601 98.7391 10.943 98.5655 10.1265 97.792C9.30175 97.0106 9 95.8269 9 94.3511V78.9386C9.00001 77.937 9.17064 76.7496 9.79425 75.7845C10.4602 74.7539 11.571 74.0907 13.158 74.0907H39.1521C40.1816 74.0907 41.3988 74.3058 42.3761 75.0726C43.3952 75.8722 44 77.1491 44 78.9386V102.403Z" fill="black"/>
<path d="M18.6432 83.7695C18.6432 83.4074 18.3496 83.1138 17.9875 83.1137C17.6254 83.1137 17.3318 83.4073 17.3318 83.7695C17.3318 84.1316 17.6254 84.4252 17.9875 84.4252V86.2999L17.8572 86.2966C16.5634 86.231 15.526 85.1935 15.4604 83.8998L15.457 83.7695C15.457 82.372 16.59 81.239 17.9875 81.239L18.1178 81.2424C19.4547 81.3102 20.5179 82.4157 20.5179 83.7695L20.5146 83.8998C20.4467 85.2367 19.3413 86.2999 17.9875 86.2999V84.4252C18.3496 84.4252 18.6432 84.1316 18.6432 83.7695Z" fill="black"/>
<path d="M16.3424 67.2068C16.3424 66.8447 16.0488 66.5511 15.6867 66.5511C15.3246 66.5511 15.031 66.8447 15.031 67.2068C15.031 67.5689 15.3246 67.8626 15.6867 67.8626V69.7373L15.5564 69.7339C14.2626 69.6683 13.2253 68.6309 13.1596 67.3371L13.1562 67.2068C13.1562 65.8093 14.2892 64.6764 15.6867 64.6764L15.817 64.6797C17.1539 64.7476 18.2171 65.853 18.2171 67.2068L18.2138 67.3371C18.146 68.6741 17.0405 69.7373 15.6867 69.7373V67.8626C16.0488 67.8625 16.3424 67.5689 16.3424 67.2068Z" fill="black"/>
<path d="M35.2096 83.7695C35.2096 83.4074 34.916 83.1138 34.5539 83.1137C34.1918 83.1137 33.8982 83.4073 33.8982 83.7695C33.8982 84.1316 34.1918 84.4252 34.5539 84.4252V86.2999L34.4236 86.2966C33.1298 86.231 32.0924 85.1935 32.0268 83.8998L32.0234 83.7695C32.0234 82.372 33.1564 81.239 34.5539 81.239L34.6842 81.2424C36.0211 81.3102 37.0843 82.4157 37.0843 83.7695L37.081 83.8998C37.0131 85.2367 35.9077 86.2999 34.5539 86.2999V84.4252C34.916 84.4252 35.2096 84.1316 35.2096 83.7695Z" fill="black"/>
<path d="M31.3474 88.3529V89.2903C31.3474 90.0537 31.2273 91.3091 30.5025 92.3977C29.7327 93.5538 28.3851 94.3682 26.2694 94.3682C25.3669 94.3682 24.1069 94.1923 23.049 93.4336C21.9358 92.6351 21.1914 91.2963 21.1914 89.2903V88.3529H31.3474ZM23.1476 90.2276C23.3151 91.1087 23.7186 91.6067 24.1417 91.9101C24.7515 92.3475 25.5617 92.4935 26.2694 92.4935C27.84 92.4935 28.563 91.9279 28.942 91.3587C29.1715 91.0141 29.3074 90.617 29.3845 90.2276H23.1476Z" fill="black"/>
<path d="M16.6247 71.3475V73.4178H14.75V71.3475H16.6247Z" fill="black"/>
<path d="M242.49 89.1529C242.49 87.909 242.302 86.9711 241.777 86.3354C241.375 85.8475 240.641 85.384 239.197 85.2338V93.0535C239.725 92.9527 240.33 92.7479 240.874 92.3923C241.746 91.8221 242.49 90.8553 242.49 89.1529ZM206.809 85.2215C204.35 85.5065 203.131 87.3456 203.097 89.1723C203.078 90.1791 203.423 91.1573 204.113 91.8782C204.691 92.4826 205.565 92.9609 206.809 93.0886V85.2215ZM244.586 89.1529C244.586 91.6133 243.441 93.2177 242.021 94.1466C241.076 94.7647 240.023 95.0769 239.129 95.1841C238.628 99.0248 235.358 103.767 229.414 103.767H215.662C213.966 103.767 211.766 103.192 209.971 101.688C208.322 100.305 207.079 98.1897 206.848 95.1957C205.042 95.0654 203.605 94.3793 202.598 93.3271C201.488 92.1663 200.973 90.6354 201.001 89.1334C201.054 86.2601 203.104 83.4004 206.854 83.1113C207.01 81.3124 207.583 79.2905 208.732 77.5993C210.135 75.5341 212.395 73.9809 215.662 73.9808H221.397V71.1262H223.493V73.9808H229.228V76.077H215.662C213.168 76.077 211.525 77.2188 210.466 78.7774C209.377 80.38 208.905 82.4393 208.905 84.1352V94.1705C208.905 97.1323 209.99 98.9683 211.318 100.081C212.682 101.225 214.385 101.671 215.662 101.671H229.414C234.457 101.671 237.101 97.2729 237.101 94.1705V84.1352C237.101 83.0901 236.601 82.2421 236.415 82.0186L238.025 80.6767C238.364 81.0835 238.89 81.9728 239.103 83.1219C241.083 83.2715 242.49 83.9057 243.394 85.0014C244.403 86.2242 244.586 87.795 244.586 89.1529Z" fill="black"/>
<path d="M223.203 67.2235C223.203 66.7513 222.82 66.3685 222.348 66.3685C221.876 66.3685 221.493 66.7513 221.493 67.2235C221.493 67.6957 221.876 68.0785 222.348 68.0785V69.8253L222.214 69.8219C220.884 69.7545 219.817 68.6877 219.75 67.3572L219.746 67.2235C219.746 65.7866 220.911 64.6217 222.348 64.6217L222.482 64.6251C223.856 64.6947 224.95 65.8314 224.95 67.2235L224.946 67.3572C224.877 68.732 223.74 69.8253 222.348 69.8253V68.0785C222.82 68.0785 223.203 67.6957 223.203 67.2235Z" fill="black"/>
<path d="M226.443 94.1189V96.2151H219.009V94.1189H226.443ZM229.922 90.6396V87.2944C229.921 85.373 228.364 83.8154 226.443 83.8154H219.009C217.087 83.8155 215.53 85.373 215.53 87.2944V90.6396C215.53 92.561 217.087 94.1188 219.009 94.1189V96.2151L218.865 96.213C215.852 96.1367 213.434 93.6707 213.434 90.6396V87.2944C213.434 84.2153 215.93 81.7193 219.009 81.7192H226.443L226.587 81.7209C229.599 81.7973 232.018 84.2634 232.018 87.2944V90.6396C232.018 93.6706 229.599 96.1366 226.587 96.213L226.443 96.2151V94.1189C228.364 94.1189 229.922 92.561 229.922 90.6396Z" fill="black"/>
<path d="M219.374 88.5955C219.374 89.1087 218.958 89.5247 218.445 89.5247C217.932 89.5247 217.516 89.1087 217.516 88.5955C217.516 88.0823 217.932 87.6663 218.445 87.6663C218.958 87.6663 219.374 88.0823 219.374 88.5955Z" fill="black"/>
<path d="M227.55 88.5955C227.55 89.1087 227.134 89.5247 226.621 89.5247C226.107 89.5247 225.691 89.1087 225.691 88.5955C225.691 88.0823 226.107 87.6663 226.621 87.6663C227.134 87.6663 227.55 88.0823 227.55 88.5955Z" fill="black"/>
<path d="M231.714 75.2937C226.817 65.9784 237.402 56.1773 246.905 62.4457C250.289 64.6773 251.551 69.3019 250.786 73.2398C250.397 75.2411 249.474 77.1597 247.947 78.586C246.405 80.0254 244.304 80.9087 241.683 80.9087H231.714V75.2937ZM245.751 64.1956C237.87 58.9969 229.601 67.1809 233.678 74.5199L233.81 74.7574V78.8126H241.683C243.801 78.8125 245.383 78.1117 246.516 77.0538C247.663 75.9827 248.408 74.4908 248.728 72.8403C249.382 69.4745 248.227 65.8288 245.751 64.1956Z" fill="black"/>
<path d="M238.385 70.5945C238.385 71.1733 237.916 71.6426 237.337 71.6426C236.758 71.6426 236.289 71.1733 236.289 70.5945C236.289 70.0156 236.758 69.5464 237.337 69.5464C237.916 69.5464 238.385 70.0156 238.385 70.5945Z" fill="black"/>
<path d="M241.881 70.5945C241.881 71.1733 241.412 71.6426 240.833 71.6426C240.254 71.6426 239.785 71.1733 239.785 70.5945C239.785 70.0156 240.254 69.5464 240.833 69.5464C241.412 69.5464 241.881 70.0156 241.881 70.5945Z" fill="black"/>
<path d="M245.37 70.5945C245.37 71.1733 244.9 71.6426 244.322 71.6426C243.743 71.6426 243.273 71.1733 243.273 70.5945C243.273 70.0156 243.743 69.5464 244.322 69.5464C244.9 69.5464 245.37 70.0156 245.37 70.5945Z" fill="black"/>
<path d="M15.0279 139.47H20.4817M20.4817 139.47H33.9726C48.3247 139.47 47.7506 163.007 33.9726 163.007H18.1853C14.1667 163.007 9 160.711 9 154.683V140.044C9 134.59 15.602 130.284 20.4817 130.284V139.47Z" stroke="black" stroke-width="2.05744"/>
<path d="M26.6529 156.979C15.8173 156.979 15.3015 149.325 16.127 145.497H36.2499C37.9836 154.235 31.2966 156.979 26.6529 156.979Z" stroke="black" stroke-width="2.05744"/>
<circle cx="21.9177" cy="150.664" r="1.14817" fill="black"/>
<circle cx="31.1013" cy="150.664" r="1.14817" fill="black"/>
<path d="M32.5364 139.47C32.2494 137.46 33.1105 132.868 38.8513 130.571" stroke="black" stroke-width="2.05744"/>
<circle cx="40.9642" cy="129.87" r="1.8417" stroke="black" stroke-width="2.05744"/>
<path d="M150.557 142.357C150.557 141.149 150.144 140.575 149.696 140.259C149.188 139.903 148.468 139.763 147.703 139.763H115.339C114.239 139.763 113.73 140.194 113.459 140.639C113.148 141.151 113.079 141.81 113.129 142.256L113.134 142.306V155.875C113.134 156.957 113.311 157.309 113.476 157.463C113.665 157.639 114.111 157.819 115.339 157.819H141.362L138.916 162.055L144.537 157.819H148.873C149.957 157.819 150.24 157.486 150.353 157.289C150.536 156.968 150.557 156.512 150.557 155.875V142.357ZM152.387 156.094C152.385 156.648 152.35 157.483 151.942 158.197C151.404 159.137 150.387 159.649 148.873 159.649H145.15L136.426 166.223L135.083 165.035L138.193 159.649H115.339C114.098 159.649 112.983 159.504 112.23 158.802C111.453 158.079 111.304 157.002 111.304 155.875V142.398C111.235 141.674 111.333 140.612 111.896 139.688C112.516 138.671 113.632 137.933 115.339 137.933H147.703C148.628 137.933 149.792 138.092 150.747 138.762C151.761 139.474 152.387 140.654 152.387 142.357V156.094Z" fill="black"/>
<path d="M144.307 151.45C144.812 151.45 145.222 151.86 145.222 152.365C145.222 152.871 144.812 153.28 144.307 153.28H119.481C118.976 153.28 118.566 152.871 118.566 152.365C118.566 151.86 118.976 151.45 119.481 151.45H144.307Z" fill="black"/>
<path d="M138.331 151.45L137.402 152.867L136.637 152.365L137.402 152.867L137.401 152.868C137.401 152.868 137.401 152.869 137.401 152.87C137.4 152.871 137.399 152.872 137.398 152.873C137.396 152.876 137.394 152.88 137.391 152.884C137.385 152.892 137.378 152.903 137.369 152.917C137.35 152.944 137.324 152.98 137.291 153.025C137.225 153.115 137.131 153.239 137.008 153.385C136.765 153.677 136.406 154.065 135.941 154.455C135.02 155.227 133.616 156.057 131.828 156.057C129.749 156.057 128.331 155.255 127.436 154.424C126.995 154.014 126.688 153.604 126.488 153.292C126.388 153.136 126.314 153.002 126.263 152.903C126.237 152.854 126.218 152.813 126.203 152.782C126.196 152.767 126.19 152.754 126.186 152.744C126.183 152.738 126.181 152.734 126.18 152.73C126.179 152.728 126.178 152.726 126.178 152.725C126.177 152.724 126.177 152.723 126.177 152.722C126.177 152.722 126.176 152.722 126.176 152.722C126.176 152.721 126.181 152.718 127.019 152.365L126.176 152.721L125.641 151.45H138.331ZM128.91 153.28C129.522 153.771 130.452 154.227 131.828 154.227C132.879 154.227 133.776 153.8 134.477 153.28H128.91Z" fill="black"/>
<path d="M153.398 152.755V145.607C153.398 145.101 153.808 144.692 154.313 144.692C154.819 144.692 155.228 145.101 155.228 145.607V152.755C155.228 153.261 154.819 153.67 154.313 153.67C153.808 153.67 153.399 153.261 153.398 152.755Z" fill="black"/>
<path d="M108.383 152.755V145.607C108.383 145.101 108.792 144.692 109.298 144.692C109.803 144.692 110.213 145.101 110.213 145.607V152.755C110.213 153.261 109.803 153.67 109.298 153.67C108.792 153.67 108.383 153.261 108.383 152.755Z" fill="black"/>
<path d="M125.273 146.079C125.658 146.407 125.705 146.984 125.378 147.369C125.05 147.754 124.473 147.801 124.088 147.473L122.081 145.768L120.074 147.473C119.689 147.801 119.111 147.754 118.784 147.369C118.457 146.984 118.504 146.407 118.889 146.079L122.081 143.366L125.273 146.079Z" fill="black"/>
<path d="M145.031 146.079C145.416 146.407 145.463 146.984 145.135 147.369C144.808 147.754 144.231 147.801 143.846 147.473L141.839 145.768L139.832 147.473C139.447 147.801 138.869 147.754 138.542 147.369C138.215 146.984 138.262 146.407 138.647 146.079L141.839 143.366L145.031 146.079Z" fill="black"/>
<path d="M120.258 135.808V132.039C120.258 131.534 120.667 131.124 121.173 131.124C121.678 131.124 122.088 131.534 122.088 132.039V135.808C122.088 136.313 121.678 136.723 121.173 136.723C120.667 136.723 120.258 136.313 120.258 135.808Z" fill="black"/>
<path d="M123.023 127.83C123.023 128.84 122.204 129.66 121.193 129.66C120.183 129.66 119.363 128.84 119.363 127.83C119.363 126.819 120.183 126 121.193 126C122.204 126 123.023 126.819 123.023 127.83Z" fill="black"/>
<path d="M137.356 166.56C137.356 167.908 136.264 169 134.916 169C133.569 169 132.477 167.908 132.477 166.56C132.477 165.213 133.569 164.12 134.916 164.12C136.264 164.12 137.356 165.213 137.356 166.56Z" fill="black"/>
<path d="M224.661 130.616V134.858H230.956L231.089 134.888C234.097 135.565 239.456 138.13 241.824 143.623C243.091 143.213 244.662 143.347 245.905 144.483C247.706 146.13 248.315 149.423 247.064 154.703L247.047 154.773L247.023 154.84C246.708 155.706 246.277 156.427 245.677 156.901C245.032 157.41 244.281 157.56 243.559 157.408C243.315 157.357 243.084 157.273 242.868 157.168C242.743 157.838 242.54 158.548 242.215 159.247C241.308 161.202 239.51 162.941 236.248 163.562L236.134 163.584H211.507L211.352 163.543C206.59 162.283 204.963 158.763 204.402 156.35C203.757 156.452 203.122 156.369 202.526 156.052C201.539 155.528 200.986 154.52 200.661 153.597C199.999 151.72 199.933 149.197 200.043 147.5C200.124 146.234 200.472 145.202 201.105 144.447C201.752 143.675 202.595 143.312 203.42 143.212C204.222 143.115 205.011 143.263 205.664 143.499C205.724 143.521 205.784 143.544 205.844 143.568C208.065 138.28 212.938 135.654 215.723 134.901L215.881 134.858H222.202V130.616H224.661ZM216.217 137.317C213.665 138.058 209.187 140.648 207.675 145.74C207.344 146.855 207.15 148.103 207.15 149.495H204.691C204.691 148.216 204.832 147.025 205.087 145.919C205.007 145.881 204.921 145.845 204.828 145.811C204.439 145.671 204.044 145.614 203.715 145.653C203.409 145.69 203.174 145.806 202.99 146.026C202.792 146.263 202.556 146.736 202.496 147.659C202.394 149.245 202.484 151.373 202.98 152.78C203.233 153.498 203.509 153.79 203.68 153.881C203.756 153.922 204.031 154.049 204.759 153.629L206.416 152.672L206.597 154.577C206.763 156.319 207.567 159.92 211.834 161.125H235.894C238.304 160.638 239.419 159.431 239.985 158.211C240.598 156.891 240.625 155.427 240.59 154.464L242.883 153.805C243.086 154.157 243.324 154.462 243.561 154.681C243.806 154.909 243.984 154.985 244.064 155.002C244.092 155.008 244.095 155.017 244.154 154.971C244.254 154.891 244.465 154.655 244.688 154.065C245.874 149 244.984 146.973 244.245 146.298C243.751 145.845 243.098 145.795 242.592 145.952C242.85 147.048 242.993 148.228 242.993 149.495H240.534C240.534 148.103 240.334 146.86 239.993 145.753C238.382 140.529 233.479 137.99 230.674 137.317H216.217Z" fill="black"/>
<path d="M209.891 154.566L209.891 148.4C209.891 146.163 210.599 144.436 211.863 143.279C213.106 142.143 214.733 141.699 216.318 141.699H219.875V144.157H216.318C215.166 144.157 214.194 144.48 213.523 145.094C212.872 145.689 212.35 146.698 212.35 148.4L212.349 154.566L212.353 154.71C212.371 155.018 212.443 155.143 212.481 155.186C212.498 155.205 212.649 155.379 213.31 155.379H219.875V157.838H213.31C212.22 157.838 211.275 157.538 210.635 156.809C210.022 156.111 209.891 155.245 209.891 154.566Z" fill="black"/>
<path d="M237.797 154.566L237.796 148.4C237.796 146.163 237.088 144.436 235.824 143.279C234.581 142.143 232.954 141.699 231.37 141.699H227.813V144.157H231.37C232.521 144.157 233.493 144.48 234.165 145.094C234.815 145.689 235.338 146.698 235.338 148.4L235.338 154.566L235.334 154.71C235.317 155.018 235.244 155.143 235.206 155.186C235.189 155.205 235.039 155.379 234.378 155.379H227.813V157.838H234.378C235.468 157.838 236.412 157.538 237.053 156.809C237.666 156.111 237.797 155.245 237.797 154.566Z" fill="black"/>
<path d="M224.808 127.059C224.808 126.301 224.194 125.687 223.436 125.687C222.678 125.687 222.064 126.301 222.064 127.059C222.064 127.816 222.679 128.431 223.436 128.431V130.889L223.337 130.888C221.3 130.836 219.658 129.195 219.607 127.158L219.605 127.059C219.605 124.943 221.321 123.228 223.436 123.228L223.535 123.229C225.605 123.282 227.266 124.976 227.266 127.059L227.265 127.158C227.213 129.227 225.519 130.889 223.436 130.889V128.431C224.194 128.43 224.808 127.816 224.808 127.059Z" fill="black"/>
</svg>
