<svg width="296" height="220" viewBox="0 0 296 220" fill="none" xmlns="http://www.w3.org/2000/svg">
<path d="M43.7148 42.2365V27.5543H67.5468V42.2365C67.5468 44.4494 67.4129 47.1255 63.9294 47.1305H60.5249C63.9294 46.6199 64.355 42.2365 60.9504 42.2365H43.7148Z" fill="#B8EA95" stroke="#2B2A28" stroke-width="1.17892"/>
<path d="M48.8281 32.4482H62.6591" stroke="#2B2A28" stroke-width="1.17892"/>
<path d="M48.8281 37.5553H62.6591" stroke="#2B2A28" stroke-width="1.17892"/>
<circle cx="55.6362" cy="35.6401" r="20.0507" stroke="#2B2A28" stroke-width="1.17892"/>
<path d="M40.9531 49.8967L70.1047 21.1708" stroke="#2B2A28" stroke-width="1.17892"/>
<rect x="227.758" y="166.089" width="29.9807" height="26.7913" rx="6.37888" fill="#B8EA95"/>
<path d="M224.619 183.312V189.372C224.619 193.945 228.461 195.871 230.866 196.528C231.309 196.649 231.635 197.04 231.635 197.499V202.69C231.635 203.542 232.666 203.969 233.269 203.367L239.648 196.988C239.827 196.808 240.07 196.707 240.324 196.707H246.945C251.538 196.707 254.28 193.518 254.28 189.372V177.571C254.28 172.213 250.453 169.597 246.945 169.597H232.273C228.16 169.597 225.4 172.628 224.991 176.297C224.932 176.822 224.509 177.252 223.981 177.252H219.834C211.56 177.252 214.073 163.303 226.103 160.374C226.175 160.357 226.251 160.348 226.325 160.348H251.72C259.697 160.667 267.986 170.873 259.694 177.571" stroke="#2B2A28" stroke-width="1.27578" stroke-linecap="round"/>
<circle cx="235.772" cy="179.804" r="2.23261" fill="#2B2A28"/>
<circle cx="235.772" cy="186.82" r="2.23261" fill="#2B2A28"/>
<circle cx="242.799" cy="179.804" r="2.23261" fill="#2B2A28"/>
<circle cx="242.799" cy="186.82" r="2.23261" fill="#2B2A28"/>
<rect x="134.852" y="20.6294" width="33.3627" height="22.2418" rx="4.5792" fill="#B8EA95"/>
<path d="M168.215 16.7045H141.413C138.505 16.7045 137.34 18.7434 137.34 20.7823V37.6761C137.34 40.0063 139.087 40.8801 140.544 40.8801H156.564L168.506 47.985L166.758 41.4627H168.506C171.535 41.4627 172.001 39.1325 172.001 37.6761V21.0736C172.001 18.0443 169.962 16.7045 168.215 16.7045Z" stroke="#2B2A28" stroke-width="1.30834"/>
<path d="M130.787 25.8055H133.699V39.7867C133.991 43.8645 137.195 44.3657 138.942 44.3657H154.088L160.788 48.2336C159.623 49.3987 158.749 49.3987 157.292 49.3987H142.146L129.913 57.263L132.243 49.3987H129.913C128.049 49.3987 127 47.9423 127 46.1947V29.5921C127 27.4949 128.456 25.8055 130.787 25.8055Z" stroke="#2B2A28" stroke-width="1.30834"/>
<circle cx="146.077" cy="29.5205" r="2.25856" stroke="#2B2A28" stroke-width="1.30834"/>
<circle cx="154.233" cy="29.5205" r="2.25856" stroke="#2B2A28" stroke-width="1.30834"/>
<circle cx="162.971" cy="29.5205" r="2.25856" stroke="#2B2A28" stroke-width="1.30834"/>
<ellipse cx="235.636" cy="30.4157" rx="14.7763" ry="14.1852" fill="#B8EA95"/>
<path d="M229.998 39.9029H218.16L220.79 36.2862C209.743 28.6582 215.531 11.9557 228.353 10.9693C251.04 9.98294 247.752 39.9029 229.998 39.9029Z" stroke="#2B2A28" stroke-width="1.1821"/>
<path d="M228.352 23.4634L229.996 19.5179L231.64 23.4634H235.915L232.955 26.4225L233.613 30.6968L229.996 28.0665L226.051 30.6968L227.037 26.4225L224.078 23.4634H228.352Z" stroke="#2B2A28" stroke-width="1.1821"/>
<path d="M243.793 28.3951C258.918 25.436 268.124 41.218 256.288 54.0408L259.247 56.9999H247.425C236.842 56.9999 231.365 48.5172 232.943 39.574" stroke="#2B2A28" stroke-width="1.1821"/>
<path d="M254.33 42.5333H239.863" stroke="#2B2A28" stroke-width="1.1821" stroke-dasharray="4.6 4.6"/>
<rect x="228.98" y="90.1774" width="26.0545" height="18.4288" rx="1.90642" fill="#B8EA95"/>
<path d="M257.45 96.2438H249.918" stroke="#2B2A28" stroke-width="1.27095" stroke-linecap="round"/>
<path d="M243.766 102.406H257.46" stroke="#2B2A28" stroke-width="1.27095" stroke-linecap="round"/>
<path d="M220.137 110.965H238.282" stroke="#2B2A28" stroke-width="1.27095" stroke-linecap="round"/>
<path d="M215 118.913V95.8275C215 95.301 215.427 94.8743 215.953 94.8743H242.805C243.332 94.8743 243.758 95.301 243.758 95.8275V114.047C243.758 118.497 240.677 119.867 237.938 119.867H229.99C229.464 119.867 229.037 120.293 229.037 120.82V122.879C229.037 123.64 228.188 124.094 227.555 123.672L222.087 120.027C221.931 119.922 221.747 119.867 221.559 119.867H215.953C215.427 119.867 215 119.44 215 118.913Z" stroke="#2B2A28" stroke-width="1.27095"/>
<path d="M233.832 94.8743V87.9532C233.832 87.4268 234.259 87 234.785 87H257.691C260.264 87 263.275 88.3694 263.275 92.8201V110.354C263.275 110.881 262.848 111.308 262.322 111.308H257.749C257.557 111.308 257.37 111.365 257.212 111.473L251.413 115.427C250.78 115.858 249.923 115.405 249.923 114.639V112.261C249.923 111.734 249.496 111.308 248.97 111.308H243.761" stroke="#2B2A28" stroke-width="1.27095"/>
<path d="M220.477 104.46H222.873M225.173 104.46H231.432" stroke="#2B2A28" stroke-width="1.27095" stroke-linecap="round"/>
<ellipse cx="135.785" cy="194.049" rx="5.88725" ry="7.19553" transform="rotate(-90 135.785 194.049)" fill="#B8EA95"/>
<ellipse cx="169.805" cy="194.049" rx="5.88725" ry="7.19553" transform="rotate(-90 169.805 194.049)" fill="#B8EA95"/>
<ellipse cx="146.582" cy="164.613" rx="12.1016" ry="9.15794" fill="#B8EA95"/>
<circle cx="131.526" cy="185.828" r="5.78988" stroke="#2B2A28" stroke-width="1.22183" stroke-linecap="round"/>
<circle cx="166.276" cy="185.828" r="5.78988" stroke="#2B2A28" stroke-width="1.22183" stroke-linecap="round"/>
<path d="M147.184 202.592H141.892M141.892 202.592H121.168C120.924 197.471 124.521 193.956 126.35 192.838C130.984 196.252 134.985 194.261 136.406 192.838C138.438 193.854 142.38 197.227 141.892 202.592Z" stroke="#2B2A28" stroke-width="1.22183" stroke-linecap="round"/>
<path d="M151.236 202.592H155.604M155.604 202.592H176.328C176.572 197.471 172.975 193.956 171.146 192.838C166.512 196.252 162.511 194.261 161.09 192.838C159.058 193.854 155.116 197.227 155.604 202.592Z" stroke="#2B2A28" stroke-width="1.22183" stroke-linecap="round"/>
<path d="M136.372 176.944C138.323 174.993 138.607 172.27 138.506 171.153C125.396 169.629 127.818 154.108 142.758 154.413C160.462 154.774 156.788 172.091 142.767 171.481C141.019 175.733 137.591 176.639 136.372 176.944Z" stroke="#2B2A28" stroke-width="1.22183" stroke-linecap="round"/>
<path d="M158.045 160.834C165.665 162.358 168.713 173.392 156.521 176.074C156.419 177.09 156.582 179.61 158.045 181.561C156.724 181.256 153.716 179.732 152.253 176.074C151.034 176.176 147.803 176.074 144.633 174.855" stroke="#2B2A28" stroke-width="1.22183" stroke-linecap="round"/>
<circle cx="138.075" cy="162.977" r="0.981208" fill="#2B2A28"/>
<circle cx="142.657" cy="162.977" r="0.981208" fill="#2B2A28"/>
<circle cx="147.231" cy="162.977" r="0.981208" fill="#2B2A28"/>
<rect x="52.0625" y="89.478" width="22.3037" height="14.2496" rx="2.47819" fill="#B8EA95"/>
<rect x="31" y="105.586" width="21.6842" height="17.3473" rx="2.47819" fill="#B8EA95"/>
<path d="M75.6816 87H57.1989C55.4386 87 55.0864 88.4002 55.0781 89.4004V103.717C55.0781 105.717 56.4784 106.003 57.2785 106.003H60.5302C60.6262 106.003 60.7191 106.038 60.7917 106.101L64.4183 109.233C64.6775 109.456 65.0798 109.272 65.0798 108.93V106.403C65.0798 106.182 65.2589 106.003 65.4799 106.003H75.6816C77.4419 106.003 78.082 105.003 78.082 103.724V89.4004C78.082 87.4801 76.8818 87 75.6816 87Z" stroke="#2B2A28" stroke-width="1.23909"/>
<path d="M54.084 108.203H35.6013C33.841 108.203 33.4887 109.604 33.4805 110.604V124.92C33.4805 126.921 34.8807 127.207 35.6808 127.207H38.9326C39.0286 127.207 39.1214 127.241 39.1941 127.304L42.8206 130.436C43.0798 130.66 43.4822 130.476 43.4822 130.133V127.607C43.4822 127.386 43.6613 127.207 43.8822 127.207H54.084C55.8443 127.207 56.4844 126.207 56.4844 124.928V110.604C56.4844 108.684 55.2842 108.203 54.084 108.203Z" stroke="#2B2A28" stroke-width="1.23909"/>
<path d="M51.6855 89.0004C47.4848 89.0004 41.2437 90.6406 41.0837 98.802H46.2846L41.0837 104.003L35.8828 98.802" stroke="#2B2A28" stroke-width="1.23909" stroke-linecap="round"/>
<path d="M59.877 125.607C64.0777 125.607 70.3188 123.966 70.4788 115.805H65.2779L70.4788 110.604L75.6797 115.805" stroke="#2B2A28" stroke-width="1.23909" stroke-linecap="round"/>
<rect x="40.7734" y="159.576" width="37.228" height="20.3591" rx="2.90844" fill="#B8EA95"/>
<path d="M43.982 182.776H38.753C35.9374 182.776 35.5352 180.345 35.5352 179.406V166.686C35.5352 164.112 37.1441 163.066 38.753 163.066H73.1528C75.164 163.066 76.5627 164.112 76.5627 166.686V179.558C76.5627 181.569 75.5973 182.776 73.3448 182.776H59.669L56.4512 186.396" stroke="black" stroke-width="1.16337" stroke-linecap="round"/>
<path d="M47.983 173.949C48.2435 174.082 48.5679 173.981 48.6573 173.702C48.8332 173.152 48.8593 172.563 48.7279 171.994C48.5563 171.253 48.1275 170.596 47.5176 170.141C46.9077 169.686 46.1562 169.462 45.3966 169.508C44.637 169.554 43.9184 169.869 43.3684 170.395C42.8185 170.921 42.4728 171.625 42.3928 172.382C42.3128 173.138 42.5037 173.899 42.9315 174.529C43.3592 175.158 43.9963 175.615 44.7294 175.82C45.2912 175.976 45.8816 175.976 46.438 175.825C46.7206 175.748 46.8369 175.428 46.7146 175.162V175.162C46.5923 174.896 46.277 174.786 45.989 174.84C45.6673 174.9 45.3338 174.887 45.014 174.798C44.5226 174.661 44.0955 174.354 43.8087 173.932C43.522 173.51 43.394 173 43.4477 172.493C43.5013 171.986 43.733 171.514 44.1017 171.161C44.4703 170.808 44.952 170.598 45.4613 170.567C45.9705 170.536 46.4743 170.686 46.8832 170.991C47.292 171.296 47.5795 171.737 47.6945 172.234C47.7693 172.557 47.768 172.891 47.6937 173.209C47.6272 173.495 47.7225 173.815 47.983 173.949V173.949Z" fill="black"/>
<path d="M58.0788 174.432C58.3152 174.632 58.6733 174.603 58.8285 174.336C59.1167 173.84 59.2687 173.273 59.2637 172.692C59.2571 171.924 58.9759 171.183 58.4709 170.605C57.9658 170.026 57.2704 169.646 56.5102 169.536C55.75 169.425 54.9752 169.59 54.3259 170C53.6766 170.411 53.1957 171.04 52.9701 171.775C52.7444 172.509 52.7889 173.3 53.0956 174.004C53.4022 174.709 53.9508 175.28 54.642 175.615C55.1643 175.868 55.742 175.974 56.3137 175.926C56.6217 175.901 56.8009 175.589 56.7222 175.29V175.29C56.6436 174.992 56.3352 174.821 56.0261 174.818C55.7179 174.815 55.4118 174.744 55.1304 174.608C54.6796 174.389 54.3219 174.017 54.1219 173.557C53.9219 173.098 53.8929 172.582 54.0401 172.103C54.1872 171.625 54.5008 171.214 54.9243 170.946C55.3477 170.678 55.8529 170.571 56.3487 170.643C56.8444 170.716 57.298 170.963 57.6273 171.34C57.9567 171.718 58.1401 172.201 58.1444 172.702C58.1471 173.015 58.0798 173.321 57.9504 173.601C57.8206 173.882 57.8424 174.233 58.0788 174.432V174.432Z" fill="black"/>
<path d="M69.5821 174.152C69.8312 174.309 70.1652 174.236 70.2791 173.964C70.5019 173.433 70.5792 172.848 70.498 172.271C70.3919 171.517 70.0217 170.825 69.4534 170.318C68.885 169.811 68.1553 169.523 67.3941 169.503C66.6328 169.483 65.8892 169.735 65.2957 170.212C64.7021 170.689 64.297 171.361 64.1523 172.109C64.0077 172.856 64.1329 173.631 64.5057 174.295C64.8785 174.959 65.4747 175.469 66.1883 175.735C66.7344 175.939 67.322 175.989 67.8888 175.885C68.1786 175.833 68.3222 175.522 68.2223 175.245V175.245C68.1224 174.968 67.8156 174.832 67.5225 174.861C67.1989 174.893 66.8698 174.851 66.5606 174.736C66.0835 174.558 65.6849 174.217 65.4356 173.773C65.1864 173.329 65.1027 172.811 65.1994 172.311C65.2961 171.811 65.567 171.362 65.9638 171.043C66.3607 170.724 66.8578 170.556 67.3667 170.569C67.8757 170.582 68.3635 170.775 68.7435 171.114C69.1235 171.453 69.371 171.916 69.4419 172.42C69.4879 172.747 69.4579 173.077 69.3571 173.386C69.2659 173.666 69.333 173.995 69.5821 174.152V174.152Z" fill="black"/>
<rect x="59.0426" y="187.782" width="4.46785" height="12.5125" rx="1.16337" stroke="black" stroke-width="1.16337"/>
<path d="M56.0529 188.809C53.1568 188.809 51.6283 188.005 51.6283 185.591V180.764C49.7856 180.764 45.7558 181.73 48.0083 188.809H41.5713C41.035 189.882 40.3646 192.349 41.9735 193.636C41.7043 194.44 41.4877 196.29 42.7749 197.256C42.6408 198.597 42.7749 200.876 45.9927 200.876H53.2329C55.6463 200.876 56.853 200.071 56.853 198.463" stroke="black" stroke-width="1.16337" stroke-linecap="round"/>
<ellipse cx="150.799" cy="96.6393" rx="11.611" ry="15.1295" fill="#B8EA95"/>
<rect x="154.668" y="118.102" width="25.3332" height="17.5925" rx="1.4074" fill="#B8EA95"/>
<path d="M128.095 95.6321C128.095 77.2643 155.173 76.3459 155.647 95.6321M128.095 95.6321V108.49C126.705 108.49 123.49 107.571 123.031 102.52C122.786 99.8517 123.949 95.6321 128.095 95.6321ZM155.647 95.6321V108.49C160.435 108.49 161.601 104.816 161.601 102.061C161.601 96.5507 157.632 95.4789 155.647 95.6321Z" stroke="#2B2A28" stroke-width="1.4074" stroke-linecap="round"/>
<path d="M152.415 96.0914C147.272 95.3567 145.374 91.4994 145.068 89.6626C143.69 92.877 140.935 97.9282 133.129 96.0914" stroke="#2B2A28" stroke-width="1.4074" stroke-linecap="round"/>
<path d="M134.047 96.2831V105.276C134.047 116.296 151.037 116.296 151.037 105.276V100.224" stroke="#2B2A28" stroke-width="1.4074" stroke-linecap="round"/>
<rect x="137.044" y="118.378" width="9.61337" height="5.02138" rx="2.1111" stroke="#2B2A28" stroke-width="1.4074"/>
<path d="M128.996 112.623V117.428C128.996 119.457 130.641 121.102 132.67 121.102H136.802" stroke="#2B2A28" stroke-width="1.4074" stroke-linecap="round"/>
<path d="M160.092 115.243L156.419 111.57C156.13 111.28 155.635 111.485 155.635 111.894V114.919C155.635 115.172 155.429 115.378 155.176 115.378H153.798C151.227 115.378 151.043 117.215 151.043 118.133L151.043 130.696C151.043 132.901 152.421 133.286 153.798 133.286H174.921C177.125 133.286 177.677 131.909 177.677 130.751V118.133C177.677 115.378 175.84 115.378 174.921 115.378H160.417C160.295 115.378 160.179 115.329 160.092 115.243Z" stroke="#2B2A28" stroke-width="1.4074" stroke-linecap="round"/>
<path d="M159.44 125.273C159.753 125.42 160.135 125.285 160.193 124.944C160.249 124.61 160.231 124.265 160.138 123.935C159.986 123.402 159.647 122.942 159.183 122.639C158.719 122.336 158.161 122.212 157.612 122.288C157.064 122.364 156.561 122.636 156.197 123.054C155.833 123.472 155.633 124.008 155.633 124.562C155.633 125.116 155.833 125.651 156.197 126.069C156.56 126.487 157.063 126.759 157.612 126.836C157.952 126.883 158.296 126.854 158.619 126.752C158.948 126.648 159.03 126.251 158.841 125.961V125.961C158.652 125.672 158.252 125.614 157.906 125.606C157.866 125.605 157.825 125.602 157.785 125.597C157.535 125.562 157.306 125.438 157.141 125.248C156.975 125.057 156.884 124.814 156.884 124.562C156.884 124.31 156.976 124.066 157.141 123.876C157.307 123.686 157.535 123.562 157.785 123.527C158.035 123.493 158.288 123.549 158.499 123.687C158.711 123.825 158.865 124.034 158.934 124.277C158.945 124.316 158.954 124.356 158.96 124.396C159.015 124.737 159.128 125.126 159.44 125.273V125.273Z" fill="#2B2A28"/>
<path d="M165.879 125.277C166.187 125.422 166.563 125.289 166.621 124.953C166.679 124.617 166.662 124.269 166.567 123.935C166.416 123.402 166.077 122.942 165.613 122.639C165.149 122.336 164.591 122.212 164.042 122.288C163.493 122.364 162.991 122.636 162.627 123.054C162.263 123.472 162.063 124.008 162.063 124.562C162.062 125.116 162.263 125.651 162.626 126.069C162.99 126.487 163.493 126.759 164.042 126.836C164.385 126.884 164.732 126.853 165.058 126.749C165.382 126.645 165.462 126.254 165.276 125.969V125.969C165.09 125.684 164.697 125.626 164.357 125.626C164.309 125.626 164.26 125.622 164.212 125.616C163.957 125.58 163.724 125.454 163.556 125.26C163.387 125.067 163.295 124.819 163.295 124.562C163.295 124.305 163.388 124.057 163.556 123.863C163.725 123.67 163.958 123.544 164.212 123.508C164.466 123.473 164.725 123.531 164.94 123.671C165.155 123.811 165.312 124.025 165.382 124.271C165.395 124.318 165.405 124.366 165.412 124.414C165.459 124.751 165.571 125.132 165.879 125.277V125.277Z" fill="#2B2A28"/>
<path d="M172.31 125.282C172.613 125.424 172.982 125.293 173.041 124.964C173.101 124.624 173.085 124.272 172.989 123.935C172.838 123.402 172.499 122.942 172.035 122.639C171.571 122.336 171.013 122.212 170.464 122.288C169.915 122.364 169.413 122.636 169.049 123.054C168.685 123.472 168.484 124.008 168.484 124.562C168.484 125.116 168.685 125.651 169.048 126.069C169.412 126.487 169.915 126.759 170.463 126.836C170.811 126.884 171.161 126.852 171.49 126.746C171.808 126.642 171.886 126.258 171.704 125.978V125.978C171.521 125.699 171.137 125.641 170.803 125.648C170.745 125.649 170.688 125.645 170.63 125.637C170.371 125.601 170.133 125.472 169.961 125.275C169.789 125.077 169.695 124.824 169.695 124.562C169.695 124.3 169.789 124.047 169.961 123.849C170.134 123.651 170.371 123.523 170.631 123.487C170.89 123.45 171.154 123.509 171.374 123.653C171.593 123.796 171.753 124.013 171.825 124.265C171.841 124.321 171.852 124.378 171.859 124.435C171.898 124.766 172.008 125.139 172.31 125.282V125.282Z" fill="#2B2A28"/>
</svg>
