<svg width="260" height="178" viewBox="0 0 260 178" fill="none" xmlns="http://www.w3.org/2000/svg">
<path d="M50.8046 50.6491H29.7142C29.5695 50.6491 29.4522 50.5318 29.4522 50.3871V31.3788C29.4522 31.1956 29.269 31.069 29.0977 31.1337L23.8161 33.129C23.6755 33.1821 23.5192 33.1063 23.4738 32.9632L20.9966 25.1602C20.9616 25.0497 21.0043 24.9285 21.1006 24.864C26.7515 21.0773 31.9791 20.0504 34.129 19.9982C34.2331 19.9957 34.3285 20.0635 34.3707 20.1586C39.4187 31.5331 44.1921 25.0228 46.024 20.1702C46.0636 20.0653 46.163 19.9975 46.275 20.002C50.7633 20.1839 56.6023 23.242 59.1534 24.8672C59.2528 24.9306 59.2946 25.0518 59.2589 25.1642L56.7843 32.9591C56.7384 33.1038 56.5795 33.1793 56.4383 33.1235L51.4249 31.1414C51.2529 31.0734 51.0665 31.2001 51.0665 31.385V50.3871C51.0665 50.5318 50.9493 50.6491 50.8046 50.6491Z" stroke="black" stroke-width="2.35793"/>
<path d="M214.281 122.883H220.466" stroke="black" stroke-width="1.767"/>
<path d="M217.761 145.097C217.54 145.097 217.319 145.097 217.098 145.097C217.089 145.36 217.08 145.623 217.071 145.886C216.905 150.619 216.739 155.352 216.574 160.085C216.565 160.348 216.555 160.61 216.546 160.873C217.135 160.873 217.724 160.873 218.313 160.873C218.304 160.61 218.295 160.348 218.286 160.085C218.12 155.352 217.954 150.619 217.789 145.886C217.779 145.623 217.77 145.36 217.761 145.097Z" fill="black"/>
<path d="M210.728 123.293L213.627 122.112C213.771 122.053 213.934 122.14 213.971 122.291C214.994 126.495 216.781 127.638 217.562 127.68C219.136 127.437 220.246 124.175 220.89 122.239C220.935 122.106 221.077 122.036 221.209 122.08L224.154 123.062C224.28 123.103 224.351 123.238 224.319 123.366C222.557 130.283 222.403 133.831 222.611 134.621C226.347 151.181 226.776 158.35 226.523 159.864H222.611V161H217.688H212.262V159.99H208.475C208.223 154.058 211.378 139.291 212.262 134.621C212.944 131.012 211.484 125.935 210.587 123.622C210.537 123.492 210.599 123.346 210.728 123.293Z" stroke="black" stroke-width="1.767"/>
<path d="M211.375 159.968C211.963 159.983 212.552 159.998 213.141 160.012C213.14 159.703 213.141 159.374 213.143 159.061C213.212 153.311 213.52 147.533 214.226 141.812C214.266 141.496 214.308 141.175 214.352 140.86C214.134 140.824 213.916 140.788 213.698 140.751C213.636 141.066 213.575 141.386 213.517 141.701C212.477 147.419 211.836 153.191 211.432 158.999C211.412 159.316 211.392 159.651 211.375 159.968Z" fill="black"/>
<path d="M221.712 159.762C222.301 159.746 222.89 159.729 223.478 159.713C223.46 159.394 223.441 159.074 223.42 158.75C223.13 154.666 222.864 150.6 222.081 146.518C221.728 144.891 221.423 143.252 221.235 141.606C221.202 141.295 221.17 140.975 221.159 140.679C220.939 140.679 220.718 140.679 220.497 140.679C220.49 141.018 220.504 141.34 220.52 141.664C220.615 143.361 220.829 145.033 221.09 146.704C221.617 150.661 221.658 154.767 221.709 158.81C221.712 159.131 221.712 159.448 221.712 159.762Z" fill="black"/>
<path d="M137.323 140.324H130.773V145.433C130.773 147.242 132.24 148.708 134.048 148.708C135.857 148.708 137.323 147.242 137.323 145.433V140.324Z" stroke="black" stroke-width="2.35793"/>
<path d="M125.992 131.548V160.629" stroke="black" stroke-width="2.35793"/>
<path d="M117.874 129.714H110.407C110.117 129.714 109.883 129.949 109.883 130.238V154.866C109.883 158.049 112.463 160.629 115.647 160.629H136.737C139.92 160.629 142.501 158.049 142.501 154.866V130.238C142.501 129.949 142.266 129.714 141.977 129.714H134.379" stroke="black" stroke-width="2.35793"/>
<path d="M120.755 125.522L117.742 129.714L120.755 137.181L125.995 131.548M120.755 125.522H131.366M120.755 125.522L125.995 131.548M125.995 131.548L131.366 137.181L134.379 129.714L131.366 125.522M125.995 131.548L131.366 125.522" stroke="black" stroke-width="2.35793"/>
<path d="M36.1911 73.5938C32.6538 73.751 25.0367 76.0935 22.8672 84.2057V95.4073L25.6836 100.896C26.7176 102.911 29.0378 103.906 31.2106 103.267L35.3893 102.038C38.0566 101.254 40.9036 101.331 43.5244 102.259L46.8431 103.434C49.1041 104.235 51.6061 103.211 52.6572 101.055L55.4106 95.4073V84.2057C54.9783 80.9828 51.7789 74.3484 42.4404 73.5938" stroke="black" stroke-width="2.1224"/>
<path d="M23.3359 95.4079C28.9171 91.792 43.0271 86.7297 54.8182 95.4079" stroke="black" stroke-width="2.1224"/>
<path d="M42.3238 81.376C42.3238 80.0085 41.2152 78.8999 39.8477 78.8999H39.4939C37.931 78.8999 36.6641 80.1669 36.6641 81.7298V83.6163C36.6641 85.1792 37.931 86.4462 39.4939 86.4462H40.2014C41.3736 86.4462 42.3238 85.496 42.3238 84.3238" stroke="black" stroke-width="2.1224"/>
<path d="M39.3682 72.0615C40.2916 72.0615 41.0807 72.316 41.6084 72.6729C42.1421 73.0339 42.3164 73.421 42.3164 73.7119C42.3164 74.0028 42.1422 74.3899 41.6084 74.751C41.0807 75.1079 40.2916 75.3623 39.3682 75.3623C38.4446 75.3623 37.6556 75.1079 37.1279 74.751C36.5942 74.3899 36.4209 74.0028 36.4209 73.7119C36.4209 73.421 36.5942 73.0339 37.1279 72.6729C37.6556 72.3159 38.4446 72.0616 39.3682 72.0615Z" stroke="black" stroke-width="2.1224"/>
<path d="M211.031 76.4995C211.192 79.4099 209.842 85.0852 203.148 84.5031" stroke="black" stroke-width="2.1828"/>
<path d="M223.172 76.3779C223.011 79.2883 224.361 84.9636 231.055 84.3815" stroke="black" stroke-width="2.1828"/>
<path d="M200.747 104.607L204.212 72.1079C204.226 71.9846 204.33 71.8911 204.454 71.8911H229.605C229.729 71.8911 229.833 71.9846 229.846 72.1079L233.311 104.607C233.326 104.751 233.214 104.876 233.07 104.876H221.529C221.415 104.876 221.317 104.796 221.292 104.685L217.305 86.4581C217.251 86.2091 216.898 86.2018 216.834 86.4483L212.044 104.695C212.016 104.801 211.92 104.876 211.809 104.876H200.989C200.844 104.876 200.732 104.751 200.747 104.607Z" stroke="black" stroke-width="2.1828"/>
<path d="M203.758 76.3779H230.315" stroke="black" stroke-width="2.1828"/>
<path d="M112.961 22.6577H122.891" stroke="black" stroke-width="1.68225"/>
<path d="M125.758 27.8843H135.688" stroke="black" stroke-width="1.68225"/>
<path d="M112.961 26.0557H122.891" stroke="black" stroke-width="1.68225"/>
<path d="M125.758 31.2817H135.688" stroke="black" stroke-width="1.68225"/>
<path d="M112.825 34.8756V19H122.885V36.377C123.756 36.8997 126.485 37.7521 129.679 39.1208C134.252 41.0806 133.207 48.9952 127.589 47.4827C120.795 45.6535 115.046 45.6535 112.172 43.563C110.348 42.2369 111.088 39.5634 112.059 37.6663C112.504 36.796 112.825 35.8533 112.825 34.8756Z" stroke="black" stroke-width="1.68225"/>
<path d="M124.062 46.6982C124.167 47.6389 124.763 48.3096 125.049 48.5274C127.923 50.6179 133.671 50.6179 140.465 52.447C146.084 53.9596 147.129 46.045 142.556 44.0851C139.362 42.7165 136.633 41.864 135.762 41.3414V23.9644H125.702L125.5 37.4218" stroke="black" stroke-width="1.68225"/>
<path d="M22.8594 157.333V160.669" stroke="black" stroke-width="1.83394"/>
<path d="M26.9531 157.484V160.821" stroke="black" stroke-width="1.83394"/>
<path d="M30.8984 157.484V160.821" stroke="black" stroke-width="1.83394"/>
<path d="M34.8516 157.484V160.821" stroke="black" stroke-width="1.83394"/>
<path d="M49.4062 157.484V160.821" stroke="black" stroke-width="1.83394"/>
<path d="M45.4609 157.484V160.821" stroke="black" stroke-width="1.83394"/>
<path d="M20.5859 153.996H53.197" stroke="black" stroke-width="1.83394"/>
<path d="M53.1899 157.332V160.821M53.1899 157.332V128.243C53.1899 127.549 52.3565 127.195 51.8577 127.677L49.1189 130.325C48.8126 130.621 48.6395 131.029 48.6395 131.455V132.76M53.1899 157.332H20.4272M19 160.831V158.6C19 157.836 19.6677 157.242 20.4272 157.332M20.4272 157.332V153.006C20.4272 150.338 22.5315 148.144 25.1978 148.033L29.8407 147.839C34.7523 147.635 38.6287 143.593 38.6287 138.677V127.655C38.6287 127.188 39.1931 126.954 39.5232 127.284L43.3254 131.086C43.6202 131.381 43.7858 131.781 43.7858 132.198V132.76M43.7858 132.76V146.563C43.7858 147.903 44.8723 148.99 46.2127 148.99C47.553 148.99 48.6395 147.903 48.6395 146.563V132.76M43.7858 132.76H48.6395" stroke="black" stroke-width="1.83394"/>
<path d="M207.252 42.5492C207.097 32.8805 214.331 18.6894 224.821 18.6895C232.44 18.6895 233.217 29.0858 232.44 32.4127C230.73 25.2392 224.821 23.5238 223.578 28.0462C223.111 29.2418 222.707 34.2217 224.822 42.7052" stroke="black" stroke-width="1.88358"/>
<path d="M203.945 51.1812V48.2531H205.344V42.7051H226.171V48.2531H227.726V51.1812" stroke="black" stroke-width="1.88358"/>
<path d="M199 51.417H232.669" stroke="black" stroke-width="1.88358" stroke-linecap="round"/>
<path d="M210.535 39.5268C210.064 36.1128 214.42 24.929 220.07 22.9277" stroke="black" stroke-width="1.88358" stroke-linecap="round"/>
<path d="M126.969 101.203H121.891" stroke="black" stroke-width="1.98182" stroke-linecap="round"/>
<path d="M125.73 89.9313V71.104H138.983C139.066 72.5904 138.884 76.777 137.497 81.6324C136.11 86.4879 135.68 92.0783 135.639 94.2665V104.547H131.056V97.7347C129.173 96.8429 126.721 101.905 125.73 104.547H112.477C111.288 102.863 111.981 101.038 112.477 100.336C120.404 97.3631 124.616 92.1608 125.73 89.9313Z" stroke="black" stroke-width="1.98182" stroke-linecap="round"/>
<path d="M132.539 71.104V79.0313" stroke="black" stroke-width="1.98182" stroke-linecap="round"/>
</svg>
