<svg width="260" height="178" viewBox="0 0 260 178" fill="none" xmlns="http://www.w3.org/2000/svg">
<path d="M23.9707 5.5186C27.363 4.44508 31.522 4.88167 34.445 8.31945C35.4762 8.19715 37.0504 8.10844 38.6163 8.54305C40.3914 9.03578 42.1318 10.1986 43.0718 12.5789C46.2704 12.4606 49.5757 14.5374 51.2565 17.4437C52.1892 19.0566 52.6579 20.9764 52.3242 22.9964C51.9898 25.0207 50.8654 27.0535 48.7734 28.9172C48.3143 29.3262 47.7164 29.3186 47.2911 29.0937C46.8737 28.8729 46.546 28.4072 46.5828 27.8309L46.596 27.5598C46.691 24.7543 45.4931 21.789 43.166 19.7266C40.7888 17.6198 37.1739 16.4066 32.4213 17.3851C31.019 17.6738 28.8307 18.7413 27.1739 20.745C25.5483 22.711 24.4115 25.6038 25.0856 29.6421C25.2138 30.411 24.6372 31.183 23.7891 31.183H17.2161L17.137 31.1699C15.1331 30.8409 12.3591 29.6952 10.6114 27.2485C8.81595 24.7348 8.25463 21.0662 10.3173 16.047L10.3455 15.9784L10.3836 15.9147C11.2386 14.49 13.772 11.815 17.5592 11.654C17.8067 10.3953 18.5042 9.2351 19.4326 8.27043C20.6064 7.05086 22.2077 6.07655 23.9707 5.5186ZM33.244 9.96478C30.9293 6.92668 27.5076 6.46363 24.5647 7.39491C23.0884 7.86208 21.7782 8.67155 20.8505 9.63546C19.9176 10.6048 19.4291 11.6646 19.4291 12.6487V13.703L18.3774 13.6306C15.1357 13.407 12.8621 15.6601 12.1077 16.8687C10.2709 21.3862 10.9126 24.2841 12.2128 26.1045C13.548 27.9737 15.7316 28.9266 17.3827 29.2148H23.0359C22.5198 24.9747 23.7848 21.7551 25.6571 19.4908C27.6072 17.1322 30.1948 15.8339 32.0241 15.4572C37.33 14.3648 41.5902 15.7001 44.4714 18.2536C46.8966 20.4029 48.3019 23.381 48.5344 26.3678C49.629 25.1051 50.1889 23.848 50.3825 22.6757C50.6321 21.1651 50.2895 19.703 49.5528 18.4291C48.0421 15.8167 45.0203 14.2035 42.5496 14.6041L41.6898 14.7435L41.4469 13.907C40.8161 11.7341 39.4794 10.8253 38.0896 10.4395C36.6279 10.0339 35.0825 10.2077 34.1701 10.3418L33.5957 10.4264L33.244 9.96478Z" fill="black"/>
<path d="M41.6452 23.7541C39.5089 20.3891 35.0493 19.3931 31.6843 21.5294C28.3194 23.6657 27.3234 28.1253 29.4597 31.4902C31.596 34.8552 36.0556 35.8512 39.4205 33.7149L40.4755 35.3766C36.1928 38.0955 30.5169 36.8278 27.798 32.5452C25.0791 28.2625 26.3468 22.5867 30.6294 19.8677C34.9121 17.1488 40.5879 18.4165 43.3068 22.6991C46.0258 26.9818 44.7581 32.6576 40.4755 35.3766L39.4205 33.7149C42.7855 31.5786 43.7815 27.119 41.6452 23.7541Z" fill="black"/>
<path d="M48.8344 39.5643C50.2271 41.6865 49.613 44.538 47.4701 45.8985C45.4044 47.2099 42.6713 46.6518 41.2852 44.6355L35.2362 35.8361L36.6739 35.5282C40.041 34.8065 41.6953 32.7368 42.0595 31.9682L42.8103 30.3847L48.8344 39.5643ZM42.9271 34.1507C42.0288 35.186 40.5648 36.3525 38.4723 37.0692L42.9072 43.5204C43.6933 44.664 45.2435 44.9806 46.4151 44.2368C47.6305 43.4652 47.9789 41.8478 47.189 40.6442L42.9271 34.1507Z" fill="black"/>
<path d="M123.341 5.73018C126.503 4.40827 130.423 4.74942 133.699 7.84649C134.362 7.55031 135.126 7.38359 135.902 7.33367C136.986 7.2639 138.17 7.41567 139.276 7.82938C141.316 8.59302 143.117 10.2756 143.432 13.0369C144.699 13.2613 145.894 13.9345 146.869 14.8299C148.081 15.9423 149.035 17.4667 149.431 19.1325C149.831 20.8127 149.664 22.6561 148.595 24.318C147.531 25.9711 145.645 27.3355 142.809 28.2176L142.241 26.3923C144.783 25.6016 146.233 24.4554 146.987 23.2836C147.736 22.1207 147.868 20.8249 147.571 19.575C147.27 18.3109 146.531 17.1144 145.577 16.2383C144.616 15.3565 143.516 14.8679 142.525 14.8679H141.569V13.9119C141.569 11.5639 140.247 10.2339 138.606 9.61988C137.767 9.30602 136.855 9.18807 136.024 9.24149C135.182 9.29569 134.499 9.52053 134.075 9.8153L133.398 10.2846L132.834 9.68523C130.019 6.69663 126.696 6.39985 124.078 7.49424C121.399 8.61426 119.488 11.1656 119.488 13.9119V14.8679H118.532C116.135 14.8679 114.448 15.6797 113.387 16.7953C112.317 17.9203 111.823 19.4159 111.925 20.895C112.027 22.3707 112.72 23.8222 114.026 24.86C115.329 25.8947 117.31 26.5713 120.067 26.3521L120.218 28.2578C117.07 28.508 114.585 27.7453 112.837 26.3568C111.094 24.9715 110.154 23.016 110.018 21.026C109.881 19.0396 110.544 17.0106 112.001 15.4778C113.309 14.1022 115.211 13.1748 117.63 12.9902C118.008 9.74447 120.348 6.98126 123.341 5.73018Z" fill="black"/>
<path d="M136.764 24.5965C136.764 21.3408 134.125 18.7015 130.869 18.7015C127.614 18.7015 124.974 21.3408 124.974 24.5965C124.974 27.8521 127.614 30.4914 130.869 30.4914V32.4032C126.558 32.4032 123.062 28.908 123.062 24.5965C123.062 20.2849 126.558 16.7897 130.869 16.7897C135.181 16.7897 138.676 20.2849 138.676 24.5965C138.676 28.908 135.181 32.4032 130.869 32.4032V30.4914C134.125 30.4914 136.764 27.8521 136.764 24.5965Z" fill="black"/>
<path d="M131.03 38.6242L136.208 31.7709L136.948 32.2265C142.133 35.4175 144.777 39.8422 144.249 44.7728L144.157 45.6269H118.125V44.671C118.125 40.7084 119.341 38.0052 120.858 36.0745C122.328 34.2045 124.131 33.0349 124.999 32.3077L125.77 31.662L131.03 38.6242ZM131.03 41.7957L125.44 34.3969C124.482 35.1342 123.375 35.9665 122.362 37.2557C121.222 38.7071 120.238 40.724 120.064 43.7151H142.4C142.46 40.2471 140.593 36.9662 136.675 34.3244L131.03 41.7957Z" fill="black"/>
<path d="M224.178 9.35744C228.224 8.35114 233 9.3518 236.036 13.8722C237.493 13.2422 239.252 13.0599 240.884 13.5522C242.759 14.1177 244.376 15.5468 245.163 17.9794C246.596 18.2094 247.861 19.0452 248.82 20.1391C249.956 21.4347 250.74 23.1709 250.948 24.9872C251.157 26.8137 250.786 28.7643 249.55 30.4205C248.311 32.08 246.282 33.3391 243.368 33.9309L242.961 31.9279C245.498 31.4126 247.037 30.3693 247.912 29.1979C248.789 28.0232 249.077 26.6143 248.917 25.2198C248.756 23.8151 248.144 22.4683 247.283 21.4865C246.419 20.5005 245.38 19.9602 244.37 19.9602H243.562L243.376 19.1737C242.852 16.9637 241.608 15.9057 240.294 15.5093C238.915 15.0935 237.344 15.3727 236.209 16.0818L235.308 16.645L234.78 15.7222C232.319 11.4154 228.223 10.4578 224.671 11.3412C220.992 12.2563 218.291 15.0047 218.291 17.7565V18.7785H217.269C214.74 18.7785 213.022 19.6085 211.936 20.7516C210.837 21.9082 210.3 23.4738 210.31 25.0814C210.329 28.3386 212.527 31.3965 216.251 31.3966V33.4405C211.118 33.4405 208.29 29.1673 208.266 25.0937C208.254 23.0357 208.941 20.9359 210.454 19.3434C211.816 17.9106 213.78 16.9583 216.322 16.7695C216.87 13.1576 220.362 10.3064 224.178 9.35744Z" fill="black"/>
<path d="M226.806 29.8429C226.806 28.9501 226.116 28.2087 225.226 28.1439L219.481 27.7261V41.2374L225.164 41.0311C226.08 40.9978 226.806 40.2454 226.806 39.3288V29.8429ZM228.85 39.3288C228.85 41.3454 227.254 43.0005 225.238 43.0737L218.85 43.3059C218.078 43.334 217.438 42.7163 217.438 41.9443V26.9935C217.438 26.202 218.11 25.5771 218.899 25.6345L225.374 26.1056C227.333 26.2481 228.85 27.8788 228.85 29.8429V39.3288Z" fill="black"/>
<path d="M232.429 29.6725C232.429 28.7797 233.118 28.0382 234.009 27.9735L239.753 27.5556V41.067L234.07 40.8607C233.154 40.8274 232.429 40.075 232.429 39.1584V29.6725ZM230.385 39.1584C230.385 41.175 231.981 42.83 233.996 42.9033L240.385 43.1355C241.156 43.1636 241.797 42.5459 241.797 41.7739V26.8231C241.797 26.0316 241.125 25.4067 240.335 25.4641L233.86 25.9352C231.901 26.0776 230.385 27.7084 230.385 29.6725V39.1584Z" fill="black"/>
<path d="M23.5808 62.3682C26.8081 61.1464 30.8669 61.5361 34.0612 64.6197C35.7149 64.0833 37.5235 64.174 39.1228 64.9399C40.7099 65.6999 42.0328 67.0964 42.8017 69.0833C46.2131 68.4338 49.6905 70.5007 51.4623 73.3528C52.461 74.9604 52.9857 76.903 52.6628 78.9037C52.3375 80.9185 51.1711 82.8773 48.9964 84.5318L47.736 82.875C49.5515 81.4937 50.38 79.9828 50.6078 78.5716C50.8379 77.1462 50.4735 75.7059 49.694 74.4512C48.0892 71.868 44.9971 70.4136 42.4744 71.3246L41.4102 71.7091L41.1158 70.6165C40.5797 68.6253 39.4634 67.4113 38.2236 66.8176C36.9694 66.217 35.5103 66.2115 34.2167 66.7864L33.5337 67.09L33.0278 66.5398C30.3915 63.6709 26.9918 63.3029 24.3181 64.3151C21.5854 65.3496 19.8039 67.7157 20.0835 70.2309L20.237 71.6122L18.8682 71.3707C16.9035 71.024 15.355 71.4234 14.1779 72.2028C12.9835 72.9937 12.1037 74.2225 11.591 75.6256C11.0773 77.031 10.9531 78.5563 11.2145 79.8774C11.4763 81.1998 12.1037 82.2389 13.0198 82.8279L11.8942 84.5789C10.3817 83.6066 9.51266 82.0001 9.17247 80.2813C8.83207 78.5613 9.0002 76.6494 9.63564 74.9107C10.272 73.1696 11.3982 71.5468 13.0282 70.4674C14.3917 69.5645 16.0618 69.0735 17.9913 69.1771C18.2292 66.0297 20.6333 63.4841 23.5808 62.3682Z" fill="black"/>
<path d="M44.2019 88.2137C44.2019 80.6448 38.0661 74.5091 30.4973 74.5091C22.9284 74.5091 16.7926 80.6448 16.7926 88.2137C16.7926 95.7825 22.9284 101.918 30.4973 101.918V104C21.7787 104 14.7109 96.9322 14.7109 88.2137C14.7109 79.4951 21.7787 72.4274 30.4973 72.4274C39.2158 72.4274 46.2836 79.4951 46.2836 88.2137C46.2836 96.9322 39.2158 104 30.4973 104V101.918C38.0661 101.918 44.2019 95.7825 44.2019 88.2137Z" fill="black"/>
<path d="M31.7145 74.0396V102.316H29.6328V74.0396H31.7145Z" fill="black"/>
<path d="M44.9096 87.1729V89.2546H15.7656V87.1729H44.9096Z" fill="black"/>
<path d="M30.1722 74.9835C27.8008 77.1369 24.965 81.2804 24.1721 86.1046C23.3921 90.8497 24.5705 96.327 30.3301 101.359L28.9606 102.927C22.6469 97.411 21.2235 91.2075 22.1178 85.7668C22.9992 80.405 26.1137 75.8572 28.7729 73.4425L30.1722 74.9835Z" fill="black"/>
<path d="M31.199 74.9835C33.5742 77.1403 36.4075 81.2417 37.1995 86.0192C37.9781 90.7165 36.8032 96.1512 31.0407 101.185L32.4103 102.753C38.7216 97.2399 40.1485 91.0805 39.2531 85.6787C38.3709 80.357 35.2539 75.8539 32.5983 73.4425L31.199 74.9835Z" fill="black"/>
<path d="M124.413 59.5888C127.43 58.4337 131.145 58.8629 134.143 61.9098C135.38 61.6906 137.028 61.6715 138.655 62.2943C140.431 62.9746 142.085 64.3856 143.12 66.9013C145.658 66.5719 147.718 67.2078 149.223 68.4942C150.871 69.9017 151.729 71.9798 151.921 74.0556C152.113 76.1298 151.652 78.3175 150.517 80.0174C149.36 81.748 147.504 82.9603 145.041 82.9603V80.8825C146.735 80.8825 147.975 80.0816 148.789 78.8632C149.623 77.6143 150.007 75.917 149.852 74.247C149.698 72.5784 149.019 71.0525 147.874 70.0738C146.759 69.1214 145.076 68.5788 142.656 69.086L141.743 69.2774L141.455 68.3907C140.646 65.902 139.26 64.7514 137.912 64.2348C136.51 63.6979 135.026 63.8027 134.044 64.0545L133.43 64.2118L133.01 63.738C130.538 60.9559 127.537 60.6177 125.155 61.5293C122.702 62.4684 120.974 64.6882 120.974 67.0305V68.177L119.833 68.0643C116.99 67.784 115.097 68.5119 113.912 69.6085C112.712 70.7189 112.107 72.3269 112.079 74.0387C112.02 77.5633 114.316 80.8824 117.856 80.8825V82.9603C112.741 82.9602 109.931 78.2275 110.001 74.0039C110.038 71.8416 110.807 69.6512 112.501 68.0833C114.024 66.6742 116.192 65.862 118.983 65.9314C119.441 63.0411 121.666 60.6401 124.413 59.5888Z" fill="black"/>
<path d="M121.082 87.3962H140.821V83.587H121.082V87.3962ZM142.899 87.7425C142.899 88.6988 142.123 89.474 141.167 89.474H120.735C119.779 89.474 119.004 88.6988 119.004 87.7425V83.2407C119.004 82.2844 119.779 81.5092 120.735 81.5092H141.167C142.123 81.5092 142.899 82.2844 142.899 83.2407V87.7425Z" fill="black"/>
<path d="M121.082 78.0461H140.821V74.2369H121.082V78.0461ZM142.899 78.3924C142.899 79.3487 142.123 80.1239 141.167 80.1239H120.735C119.779 80.1239 119.004 79.3487 119.004 78.3924V73.8906C119.004 72.9343 119.779 72.1591 120.735 72.1591H141.167C142.123 72.1591 142.899 72.9343 142.899 73.8906V78.3924Z" fill="black"/>
<path d="M121.082 96.7463H140.821V92.937H121.082V96.7463ZM142.899 97.0926C142.899 98.0489 142.123 98.8241 141.167 98.8241H120.735C119.779 98.8241 119.004 98.0489 119.004 97.0926V92.5907C119.004 91.6345 119.779 90.8593 120.735 90.8593H141.167C142.123 90.8593 142.899 91.6345 142.899 92.5907V97.0926Z" fill="black"/>
<path d="M132.164 98.8241V101.941H130.086V98.8241H132.164Z" fill="black"/>
<path d="M142.9 101.421V103.499H119.352V101.421H142.9Z" fill="black"/>
<path d="M222.408 65.6111C225.54 64.4123 229.395 64.8577 232.508 68.02C233.791 67.7925 235.502 67.7728 237.189 68.4191C239.033 69.1252 240.75 70.5897 241.824 73.2007C244.458 72.8588 246.596 73.5188 248.159 74.8539C249.869 76.3148 250.76 78.4716 250.959 80.6261C251.158 82.7789 250.68 85.0494 249.501 86.8138C248.301 88.6099 246.374 89.8682 243.818 89.8682H235.664V87.7116H243.818C245.576 87.7116 246.863 86.8804 247.708 85.6158C248.574 84.3196 248.972 82.558 248.812 80.8247C248.651 79.0929 247.947 77.5092 246.758 76.4934C245.601 75.5049 243.855 74.9417 241.343 75.4682L240.395 75.6668L240.096 74.7465C239.256 72.1635 237.818 70.9693 236.418 70.4331C234.964 69.8759 233.424 69.9847 232.405 70.246L231.767 70.4092L231.331 69.9175C228.765 67.03 225.65 66.679 223.179 67.6251C220.633 68.5998 218.839 70.9037 218.839 73.3348V74.5247L217.655 74.4078C214.704 74.1168 212.74 74.8723 211.51 76.0105C210.264 77.1629 209.637 78.8319 209.607 80.6085C209.545 84.2667 211.929 87.7115 215.602 87.7116H222.904V89.8682H215.602C210.294 89.8681 207.377 84.9561 207.451 80.5724C207.488 78.3281 208.286 76.0548 210.045 74.4275C211.626 72.965 213.876 72.122 216.772 72.1941C217.248 69.1942 219.558 66.7023 222.408 65.6111Z" fill="black"/>
<path d="M226.137 95.1912H224.089L229.172 100.759L234.014 95.1912H231.888V81.5332H226.137V95.1912ZM234.044 93.0347H236.302C237.257 93.0347 237.769 94.1587 237.143 94.8799L229.212 104L220.903 94.9002C220.25 94.1851 220.757 93.0347 221.726 93.0347H223.98V80.8144C223.98 80.0204 224.624 79.3767 225.418 79.3767H232.607C233.401 79.3767 234.044 80.0204 234.044 80.8144V93.0347Z" fill="black"/>
<path d="M24.5566 126.423C28.3221 125.276 33.0432 126.254 35.9317 130.761C39.7874 128.157 45.164 130.545 46.1073 135.556C48.5157 134.835 50.7817 135.316 52.5977 136.525C54.5915 137.853 56.0171 140.033 56.5886 142.398C57.1625 144.772 56.8938 147.419 55.3688 149.639C53.836 151.871 51.1408 153.52 47.1607 154.103L46.8366 151.888C50.3556 151.373 52.4242 149.974 53.5239 148.372C54.6314 146.76 54.864 144.787 54.4134 142.923C53.9603 141.049 52.8355 139.372 51.3574 138.387C49.9125 137.425 48.1069 137.102 46.1175 137.924C45.1814 138.311 44.0768 137.685 43.9951 136.626C43.6604 132.278 39.2479 130.766 36.7436 132.954C36.024 133.583 34.8722 133.41 34.3932 132.547C32.1288 128.468 28.269 127.632 25.2086 128.564C23.6607 129.035 22.3658 129.947 21.591 131.075C20.8326 132.179 20.552 133.51 21.0173 134.97C21.3225 135.928 20.6194 136.933 19.6088 136.966C16.0837 137.081 13.9123 138.324 12.6792 139.924C11.427 141.549 11.0184 143.703 11.345 145.848C11.6723 147.997 12.7231 150.023 14.2301 151.338C15.7086 152.628 17.6285 153.246 19.8601 152.659L20.4298 154.823C17.4109 155.618 14.7398 154.752 12.759 153.024C10.8068 151.32 9.52986 148.793 9.13265 146.185C8.73481 143.572 9.20516 140.766 10.9068 138.557C12.5018 136.488 15.0733 135.08 18.6662 134.78C18.3238 132.939 18.7776 131.219 19.7461 129.808C20.8492 128.202 22.5979 127.019 24.5566 126.423Z" fill="black"/>
<path d="M45.4647 153.758L29.844 165.703V159.521C27.9991 158.695 25.5974 157.21 23.5814 155.079C21.2807 152.648 19.424 149.307 19.5882 145.119L19.7066 142.102L21.5828 144.468C22.2024 145.249 23.4414 146.393 25.0594 147.159C26.4541 147.819 28.0863 148.18 29.844 147.837V141.354L45.4647 153.758ZM32.0819 149.529L31.297 149.774C28.5797 150.623 26.0792 150.117 24.1019 149.181C23.3587 148.829 22.6814 148.413 22.0825 147.977C22.5879 150.161 23.7654 152.018 25.2069 153.541C27.2351 155.685 29.7264 157.1 31.3658 157.733L32.0819 158.009V161.174L41.8238 153.725L32.0819 145.988V149.529Z" fill="black"/>
<path d="M123.205 126.594C126.461 125.004 130.66 124.982 134.52 128.26C135.917 127.983 137.842 127.933 139.756 128.549C141.818 129.214 143.838 130.646 145.122 133.298C148.691 133.13 152.401 135.541 154.066 138.895C154.99 140.757 155.316 142.956 154.642 145.231C153.969 147.499 152.335 149.732 149.539 151.743L148.238 149.934C150.736 148.137 152.004 146.282 152.504 144.597C153.002 142.919 152.771 141.299 152.07 139.886C150.622 136.97 147.298 135.131 144.619 135.59L143.726 135.743L143.393 134.9C142.411 132.412 140.748 131.211 139.073 130.672C137.349 130.116 135.577 130.257 134.509 130.55L133.912 130.715L133.457 130.295C130.194 127.282 126.792 127.323 124.184 128.597C121.45 129.932 119.724 132.529 119.724 134.491V135.606H118.609C112.85 135.606 109.956 139.057 109.35 142.509C109.042 144.268 109.33 146.006 110.111 147.323C110.877 148.615 112.131 149.538 113.9 149.73L113.659 151.946C111.154 151.674 109.297 150.321 108.193 148.461C107.106 146.626 106.767 144.335 107.155 142.124C107.903 137.861 111.364 133.807 117.594 133.409C118.083 130.696 120.331 127.997 123.205 126.594Z" fill="black"/>
<path d="M143.688 150.281C143.688 143.305 138.032 137.649 131.056 137.649C124.08 137.649 118.424 143.305 118.424 150.281C118.424 157.257 124.08 162.912 131.056 162.912V165.142C122.849 165.142 116.195 158.488 116.195 150.281C116.195 142.074 122.849 135.42 131.056 135.42C139.263 135.42 145.917 142.074 145.917 150.281C145.917 158.488 139.263 165.142 131.056 165.142V162.912C138.032 162.912 143.688 157.257 143.688 150.281Z" fill="black"/>
<path d="M126.406 144.956C126.406 143.869 127.528 143.162 128.498 143.599L128.592 143.645L138.612 148.989C139.631 149.532 139.668 150.98 138.677 151.574L128.657 157.586C127.666 158.181 126.406 157.467 126.406 156.312V144.956ZM128.635 154.999L136.405 150.337L128.635 146.194V154.999Z" fill="black"/>
<path d="M213.113 157.598C213.113 154.062 215.98 151.196 219.515 151.196H223.897C227.288 151.196 230.282 153.408 231.279 156.649L229.211 157.285C228.493 154.952 226.338 153.36 223.897 153.36H219.515C217.175 153.36 215.277 155.258 215.277 157.598C215.277 159.939 217.175 161.836 219.515 161.836H224.114V164H219.515C215.98 164 213.113 161.134 213.113 157.598Z" fill="black"/>
<path d="M226.739 157.944C227.819 159.479 229.58 160.393 231.458 160.393H234.934C237.325 160.393 239.262 158.456 239.262 156.065C239.262 153.675 237.325 151.737 234.934 151.737H230.786V149.573H234.934C238.52 149.573 241.426 152.48 241.426 156.065C241.426 159.651 238.52 162.557 234.934 162.557H231.458C228.876 162.557 226.455 161.301 224.969 159.189L223.59 157.229L225.359 155.984L226.739 157.944Z" fill="black"/>
<path d="M220.445 130.909C223.887 129.874 228.064 130.488 230.518 134.022C231.961 133.111 233.978 132.872 235.743 133.44C236.935 133.824 238.06 134.582 238.879 135.789C239.45 136.63 239.852 137.658 240.042 138.874C241.774 138.239 243.535 138.329 245.114 138.945C247.136 139.734 248.826 141.367 249.834 143.358C250.847 145.358 251.201 147.778 250.466 150.157C249.727 152.549 247.923 154.784 244.834 156.473L243.796 154.575C246.478 153.108 247.853 151.285 248.399 149.518C248.948 147.739 248.694 145.898 247.904 144.336C247.109 142.766 245.8 141.536 244.328 140.961C242.885 140.398 241.257 140.447 239.671 141.466L238.003 142.538V140.556C238.003 138.925 237.618 137.784 237.089 137.005C236.561 136.228 235.849 135.747 235.08 135.5C233.451 134.975 231.753 135.524 231.1 136.356L230.045 137.698L229.281 136.171C227.598 132.808 224.171 132.049 221.068 132.981C217.875 133.941 215.639 136.476 215.992 139.152L216.154 140.376H214.92C211.988 140.376 210.074 141.249 208.867 142.446C207.649 143.655 207.037 145.308 206.936 147.065C206.835 148.828 207.254 150.623 208.009 152.016C208.775 153.431 209.79 154.273 210.791 154.46L210.392 156.588C208.508 156.234 207.042 154.776 206.106 153.047C205.157 151.295 204.652 149.1 204.776 146.941C204.901 144.776 205.665 142.575 207.343 140.909C208.841 139.424 210.977 138.454 213.796 138.252C213.964 134.653 217.098 131.915 220.445 130.909Z" fill="black"/>
</svg>
