<svg width="296" height="220" viewBox="0 0 296 220" fill="none" xmlns="http://www.w3.org/2000/svg">
<path d="M55.0197 23.4478C55.4986 22.9689 56.2748 22.9689 56.7537 23.4478C57.2326 23.9266 57.2326 24.7029 56.7537 25.1818L47.2563 34.6798C46.1851 35.7509 46.1851 37.4873 47.2563 38.5585L56.7537 48.0565C57.2326 48.5353 57.2325 49.3116 56.7537 49.7905C56.2748 50.2693 55.4986 50.2693 55.0197 49.7905L45.5217 40.2931C43.4928 38.2641 43.4928 34.9741 45.5217 32.9452L55.0197 23.4478Z" fill="black"/>
<path d="M78.9803 23.4478C78.5014 22.9689 77.7252 22.9689 77.2463 23.4478C76.7674 23.9266 76.7674 24.7029 77.2463 25.1818L86.7437 34.6798C87.8149 35.7509 87.8149 37.4873 86.7437 38.5585L77.2463 48.0565C76.7674 48.5353 76.7675 49.3116 77.2463 49.7905C77.7252 50.2693 78.5014 50.2693 78.9803 49.7905L88.4783 40.2931C90.5072 38.2641 90.5072 34.9741 88.4783 32.9452L78.9803 23.4478Z" fill="black"/>
<path d="M70.9769 17.2498C71.1521 16.5956 71.8244 16.2075 72.4785 16.3828C73.1327 16.5581 73.5208 17.2303 73.3455 17.8845L63.2428 55.5915C63.0675 56.2456 62.3953 56.6337 61.7411 56.4585C61.087 56.2832 60.6989 55.6109 60.8741 54.9568L70.9769 17.2498Z" fill="black"/>
<path d="M141.54 165.344C141.998 164.886 142.741 164.886 143.199 165.344C143.657 165.802 143.657 166.544 143.199 167.002L134.115 176.087C133.09 177.112 133.09 178.773 134.115 179.797L143.199 188.882C143.657 189.34 143.657 190.083 143.199 190.541C142.741 190.999 141.998 190.999 141.54 190.541L132.456 181.456C130.515 179.516 130.515 176.369 132.456 174.428L141.54 165.344Z" fill="black"/>
<path d="M164.46 178.246C164.002 177.788 163.259 177.788 162.801 178.246C162.343 178.704 162.343 179.446 162.801 179.904L171.885 188.989C172.91 190.014 172.91 191.675 171.885 192.699L162.801 201.784C162.343 202.242 162.343 202.985 162.801 203.443C163.259 203.901 164.002 203.901 164.46 203.443L173.544 194.358C175.485 192.418 175.485 189.271 173.544 187.33L164.46 178.246Z" fill="black"/>
<path d="M156.805 165.87C156.973 165.244 157.616 164.873 158.241 165.04C158.867 165.208 159.238 165.851 159.071 166.477L149.407 202.543C149.24 203.169 148.597 203.54 147.971 203.373C147.345 203.205 146.974 202.562 147.142 201.936L156.805 165.87Z" fill="black"/>
<path d="M163.238 54.7569V56.9846H143.746V54.7569H163.238ZM170.757 47.2385V27.7462C170.757 23.5938 167.391 20.2277 163.238 20.2277H143.746C139.594 20.2277 136.228 23.5938 136.228 27.7462V47.2385C136.228 51.3908 139.594 54.7569 143.746 54.7569V56.9846C138.364 56.9846 134 52.6211 134 47.2385V27.7462C134 22.3635 138.364 18 143.746 18H163.238C168.621 18 172.985 22.3635 172.985 27.7462V47.2385C172.985 52.6211 168.621 56.9846 163.238 56.9846V54.7569C167.391 54.7569 170.757 51.3908 170.757 47.2385Z" fill="black"/>
<path d="M146.563 29.9312C146.998 29.4962 147.703 29.4963 148.138 29.9312C148.573 30.3662 148.573 31.0712 148.138 31.5062L143.079 36.5659C142.689 36.9566 142.688 37.5898 143.079 37.9805L148.138 43.0395C148.573 43.4745 148.573 44.1801 148.138 44.6151C147.703 45.0499 146.998 45.05 146.563 44.6151L141.504 39.5555C140.243 38.2948 140.243 36.2509 141.504 34.9903L146.563 29.9312Z" fill="black"/>
<path d="M159.976 29.9312C159.541 29.4962 158.836 29.4963 158.401 29.9312C157.966 30.3662 157.966 31.0712 158.401 31.5062L163.46 36.5659C163.85 36.9566 163.851 37.5898 163.46 37.9805L158.401 43.0395C157.966 43.4745 157.966 44.1801 158.401 44.6151C158.836 45.0499 159.541 45.05 159.976 44.6151L165.035 39.5555C166.296 38.2948 166.296 36.2509 165.035 34.9903L159.976 29.9312Z" fill="black"/>
<path d="M154.943 26.8363C155.102 26.2421 155.713 25.8895 156.307 26.0487C156.901 26.208 157.254 26.8186 157.095 27.4128L151.713 47.4984C151.554 48.0926 150.943 48.4457 150.349 48.2865C149.755 48.1273 149.402 47.5161 149.562 46.9219L154.943 26.8363Z" fill="black"/>
<path d="M68.9684 162L89.0277 180.032L88.9334 197.253C88.9311 200.629 87.1714 202.705 85.0164 203.868C82.9389 204.989 80.4993 205.274 78.8643 205.274H54.7083C49.7637 205.274 46 201.747 46 197.246V169.687C46 167.202 46.8849 165.242 48.361 163.913C49.8164 162.603 51.7426 162 53.6872 162H68.9684ZM69.7226 176.152C69.7226 176.654 69.8305 177.484 70.2761 178.151C70.6657 178.734 71.4137 179.352 73.0807 179.352H84.6127L69.7226 165.966V176.152ZM48.4458 197.246C48.4458 200.231 50.9429 202.828 54.7083 202.828H78.8643C80.2914 202.828 82.275 202.568 83.855 201.716C85.356 200.906 86.4876 199.582 86.4876 197.246V197.24L86.5724 181.798H73.0807C70.6652 181.798 69.1225 180.826 68.2423 179.509C67.4183 178.276 67.2768 176.893 67.2768 176.152V164.446H53.6872C52.2296 164.446 50.9232 164.897 49.9971 165.731C49.0917 166.546 48.4458 167.817 48.4458 169.687V197.246Z" fill="black"/>
<path d="M62.081 186.585C62.3318 185.958 63.0435 185.653 63.6705 185.903C64.2975 186.154 64.6026 186.867 64.3518 187.494L60.2693 197.701C60.0185 198.328 59.3063 198.633 58.6792 198.382C58.0522 198.131 57.7471 197.419 57.9979 196.792L62.081 186.585Z" fill="black"/>
<path d="M56.2318 185.494C56.7094 185.017 57.4835 185.017 57.961 185.494C58.4386 185.972 58.4386 186.746 57.961 187.223L55.4233 189.761L57.961 192.299C58.4386 192.776 58.4386 193.55 57.961 194.028C57.4835 194.506 56.7094 194.506 56.2318 194.028L51.9648 189.761L56.2318 185.494Z" fill="black"/>
<path d="M66.7995 189.577C66.3219 189.099 65.5478 189.099 65.0702 189.577C64.5927 190.054 64.5927 190.829 65.0702 191.306L67.6079 193.844L65.0702 196.382C64.5927 196.859 64.5927 197.633 65.0702 198.111C65.5478 198.588 66.3219 198.588 66.7995 198.111L71.0664 193.844L66.7995 189.577Z" fill="black"/>
<path d="M42.6719 108.964C44.7396 108.579 45.7734 107.515 45.7734 105.771C45.7734 105.001 45.6721 103.683 45.4694 101.818C45.2666 99.8315 45.1653 98.3923 45.1653 97.5003C45.1653 96.0407 45.5707 94.9258 46.3816 94.1555C47.2127 93.3852 48.3175 93 49.696 93H51.4596V95.4022H50.2129C49.4223 95.4022 48.8345 95.5846 48.4493 95.9495C48.0641 96.2941 47.8716 96.8719 47.8716 97.6828C47.8716 98.2706 47.9121 99.0004 47.9932 99.8721C48.0743 100.724 48.125 101.301 48.1452 101.605C48.3479 103.551 48.4493 104.97 48.4493 105.862C48.4493 106.937 48.1756 107.839 47.6283 108.569C47.1012 109.278 46.2802 109.755 45.1653 109.998V110.059C46.2802 110.302 47.1012 110.788 47.6283 111.518C48.1756 112.248 48.4493 113.15 48.4493 114.224C48.4493 115.116 48.3479 116.535 48.1452 118.481C48.125 118.786 48.0743 119.373 47.9932 120.245C47.9121 121.097 47.8716 121.816 47.8716 122.404C47.8716 123.215 48.0641 123.793 48.4493 124.137C48.8345 124.502 49.4223 124.685 50.2129 124.685H51.4596V127.087H49.696C48.3175 127.087 47.2127 126.702 46.3816 125.931C45.5707 125.161 45.1653 124.046 45.1653 122.586C45.1653 121.695 45.2666 120.255 45.4694 118.269C45.6721 116.404 45.7734 115.086 45.7734 114.316C45.7734 112.572 44.7396 111.508 42.6719 111.123V108.964Z" fill="black"/>
<path d="M91.9688 108.964C89.901 108.579 88.8672 107.515 88.8672 105.771C88.8672 105.001 88.9685 103.683 89.1713 101.818C89.374 99.8315 89.4753 98.3923 89.4753 97.5003C89.4753 96.0407 89.0699 94.9258 88.259 94.1555C87.4279 93.3852 86.3231 93 84.9446 93H83.181V95.4022H84.4277C85.2183 95.4022 85.8062 95.5846 86.1913 95.9495C86.5765 96.2941 86.7691 96.8719 86.7691 97.6828C86.7691 98.2706 86.7285 99.0004 86.6474 99.8721C86.5664 100.724 86.5157 101.301 86.4954 101.605C86.2927 103.551 86.1913 104.97 86.1913 105.862C86.1913 106.937 86.465 107.839 87.0123 108.569C87.5394 109.278 88.3604 109.755 89.4753 109.998V110.059C88.3604 110.302 87.5394 110.788 87.0123 111.518C86.465 112.248 86.1913 113.15 86.1913 114.224C86.1913 115.116 86.2927 116.535 86.4954 118.481C86.5157 118.786 86.5664 119.373 86.6474 120.245C86.7285 121.097 86.7691 121.816 86.7691 122.404C86.7691 123.215 86.5765 123.793 86.1913 124.137C85.8062 124.502 85.2183 124.685 84.4277 124.685H83.181V127.087H84.9446C86.3231 127.087 87.4279 126.702 88.259 125.931C89.0699 125.161 89.4753 124.046 89.4753 122.586C89.4753 121.695 89.374 120.255 89.1713 118.269C88.9685 116.404 88.8672 115.086 88.8672 114.316C88.8672 112.572 89.901 111.508 91.9688 111.123V108.964Z" fill="black"/>
<path d="M73.5659 95.5291C73.8855 94.9048 74.6506 94.6577 75.275 94.9772C75.8993 95.2968 76.1464 96.0619 75.8269 96.6863L61.4046 124.86C61.085 125.485 60.3199 125.732 59.6956 125.412C59.0712 125.093 58.8241 124.327 59.1437 123.703L73.5659 95.5291Z" fill="black"/>
<path d="M216.637 178.605V169.314C216.637 167.168 217.353 165.304 218.739 163.98C220.119 162.663 222.037 162 224.223 162H224.23L237.886 162.075C241.076 162.092 244.357 163.011 246.834 165.291C248.399 166.733 250.067 168.519 251.273 170.426C252.374 172.165 252.62 174.181 252.62 175.977V193.842C252.62 196.108 251.997 198.477 249.994 200.194C248.022 201.884 244.949 202.734 240.519 202.541C239.819 202.511 239.276 201.919 239.307 201.219C239.337 200.519 239.93 199.976 240.63 200.006C244.748 200.185 247.063 199.363 248.343 198.267C249.591 197.196 250.082 195.663 250.082 193.842V175.977C250.082 174.366 249.85 172.924 249.129 171.784C248.086 170.135 246.593 168.519 245.115 167.158C243.225 165.418 240.617 164.627 237.872 164.612L224.221 164.538C222.544 164.538 221.304 165.04 220.491 165.816C219.685 166.586 219.175 167.745 219.175 169.314V178.605C219.175 179.306 218.606 179.874 217.906 179.874C217.205 179.874 216.637 179.306 216.637 178.605Z" fill="black"/>
<path d="M213 194.927V193.67C213.814 193.67 214.382 193.505 214.702 193.175C215.028 192.839 215.191 192.296 215.191 191.544V189.712C215.191 188.903 215.292 188.24 215.493 187.722C215.699 187.205 215.998 186.803 216.391 186.516C216.783 186.228 217.262 186.029 217.827 185.919C218.392 185.804 219.034 185.747 219.752 185.747V187.744C219.187 187.744 218.754 187.823 218.452 187.981C218.151 188.134 217.942 188.371 217.827 188.692C217.717 189.013 217.662 189.422 217.662 189.921V192.277C217.662 192.645 217.6 192.99 217.475 193.311C217.351 193.632 217.123 193.914 216.793 194.159C216.462 194.398 215.991 194.587 215.378 194.726C214.77 194.86 213.977 194.927 213 194.927ZM219.752 204C219.034 204 218.392 203.943 217.827 203.828C217.262 203.717 216.783 203.519 216.391 203.231C215.998 202.944 215.699 202.542 215.493 202.025C215.292 201.507 215.191 200.844 215.191 200.035V198.21C215.191 197.458 215.028 196.917 214.702 196.587C214.382 196.252 213.814 196.084 213 196.084V194.827C213.977 194.827 214.77 194.896 215.378 195.035C215.991 195.169 216.462 195.358 216.793 195.603C217.123 195.842 217.351 196.122 217.475 196.443C217.6 196.764 217.662 197.106 217.662 197.47V199.826C217.662 200.325 217.717 200.734 217.827 201.055C217.942 201.376 218.151 201.615 218.452 201.773C218.754 201.931 219.187 202.01 219.752 202.01V204ZM213 196.084V193.67H215.277V196.084H213Z" fill="black"/>
<path d="M234.703 194.927V193.67C233.889 193.67 233.322 193.505 233.001 193.175C232.675 192.839 232.512 192.296 232.512 191.544V189.712C232.512 188.903 232.412 188.24 232.21 187.722C232.005 187.205 231.705 186.803 231.313 186.516C230.92 186.228 230.441 186.029 229.876 185.919C229.311 185.804 228.669 185.747 227.951 185.747V187.744C228.516 187.744 228.949 187.823 229.251 187.981C229.553 188.134 229.761 188.371 229.876 188.692C229.986 189.013 230.041 189.422 230.041 189.921V192.277C230.041 192.645 230.103 192.99 230.228 193.311C230.352 193.632 230.58 193.914 230.91 194.159C231.241 194.398 231.712 194.587 232.325 194.726C232.934 194.86 233.726 194.927 234.703 194.927ZM227.951 204C228.669 204 229.311 203.943 229.876 203.828C230.441 203.717 230.92 203.519 231.313 203.231C231.705 202.944 232.005 202.542 232.21 202.025C232.412 201.507 232.512 200.844 232.512 200.035V198.21C232.512 197.458 232.675 196.917 233.001 196.587C233.322 196.252 233.889 196.084 234.703 196.084V194.827C233.726 194.827 232.934 194.896 232.325 195.035C231.712 195.169 231.241 195.358 230.91 195.603C230.58 195.842 230.352 196.122 230.228 196.443C230.103 196.764 230.041 197.106 230.041 197.47V199.826C230.041 200.325 229.986 200.734 229.876 201.055C229.761 201.376 229.553 201.615 229.251 201.773C228.949 201.931 228.516 202.01 227.951 202.01V204ZM234.703 196.084V193.67H232.426V196.084H234.703Z" fill="black"/>
<path d="M130.691 110C130.691 107.047 131.074 104.332 131.84 101.855C132.613 99.3711 133.715 97.0859 135.145 95H137.582C137.02 95.7734 136.492 96.7266 136 97.8594C135.516 98.9844 135.09 100.223 134.723 101.574C134.355 102.918 134.066 104.309 133.855 105.746C133.652 107.184 133.551 108.602 133.551 110C133.551 111.859 133.73 113.746 134.09 115.66C134.449 117.574 134.934 119.352 135.543 120.992C136.152 122.633 136.832 123.969 137.582 125H135.145C133.715 122.914 132.613 120.633 131.84 118.156C131.074 115.672 130.691 112.953 130.691 110Z" fill="black"/>
<path d="M175.438 110C175.438 107.047 175.055 104.332 174.289 101.855C173.516 99.3711 172.414 97.0859 170.984 95H168.547C169.109 95.7734 169.637 96.7266 170.129 97.8594C170.613 98.9844 171.039 100.223 171.406 101.574C171.773 102.918 172.063 104.309 172.273 105.746C172.477 107.184 172.578 108.602 172.578 110C172.578 111.859 172.398 113.746 172.039 115.66C171.68 117.574 171.195 119.352 170.586 120.992C169.977 122.633 169.297 123.969 168.547 125H170.984C172.414 122.914 173.516 120.633 174.289 118.156C175.055 115.672 175.438 112.953 175.438 110Z" fill="black"/>
<path d="M167.536 101.755L169.284 104.91L162.536 107.726L169.333 110.493L167.488 113.745L161.614 109.474L162.391 116.804H158.75L159.478 109.474L153.604 113.794L151.711 110.493L158.459 107.677L151.711 104.959L153.507 101.706L159.527 106.027L158.75 98.6481H162.439L161.614 106.027L167.536 101.755Z" fill="black"/>
<path d="M146.593 117.739C146.593 119.228 145.386 120.436 143.896 120.436C142.407 120.436 141.199 119.228 141.199 117.739C141.199 116.249 142.407 115.042 143.896 115.042C145.386 115.042 146.593 116.249 146.593 117.739Z" fill="black"/>
<path d="M245.258 91C247.701 91 249.335 92.1024 250.302 93.6347C251.225 95.096 251.499 96.8679 251.499 98.2637V98.2709L251.362 120.765C251.361 123.108 250.504 124.716 249.297 125.717C248.133 126.683 246.747 127 245.769 127H220.207C217.994 127 216.492 126.05 215.59 124.714C214.732 123.443 214.477 121.918 214.477 120.759V107.978C214.477 107.354 214.982 106.849 215.605 106.849C216.229 106.849 216.734 107.354 216.734 107.978V120.759C216.734 121.645 216.939 122.676 217.461 123.45C217.94 124.159 218.738 124.742 220.207 124.742H245.769C246.325 124.742 247.171 124.548 247.856 123.98C248.496 123.449 249.105 122.502 249.105 120.759V120.752L249.241 98.2637C249.241 97.1035 249.004 95.8079 248.394 94.8408C247.828 93.9447 246.905 93.2577 245.258 93.2577H237.078C236.455 93.2577 235.949 92.7523 235.949 92.1289C235.949 91.5054 236.455 91 237.078 91H245.258Z" fill="black"/>
<path d="M220.123 92.1404C220.564 91.6996 221.279 91.6996 221.72 92.1404C222.16 92.5813 222.16 93.2958 221.72 93.7367L217.193 98.2637L221.72 102.791C222.16 103.232 222.16 103.947 221.72 104.388C221.279 104.828 220.564 104.828 220.123 104.388L214 98.2637L220.123 92.1404Z" fill="black"/>
<path d="M228.982 92.1404C228.541 91.6996 227.827 91.6996 227.386 92.1404C226.945 92.5813 226.945 93.2958 227.386 93.7367L231.913 98.2637L227.386 102.791C226.945 103.232 226.945 103.947 227.386 104.388C227.827 104.828 228.541 104.828 228.982 104.388L235.105 98.2637L228.982 92.1404Z" fill="black"/>
<path d="M213.374 17.3737C213.872 16.8756 214.679 16.8756 215.177 17.3737L251.626 53.8231C252.125 54.3212 252.125 55.1285 251.626 55.6266C251.128 56.1246 250.321 56.1246 249.823 55.6266L223.28 29.0844L216.936 35.4284L226.327 44.8182C226.824 45.3162 226.825 46.1236 226.327 46.6216C225.829 47.1197 225.021 47.1197 224.523 46.6216L213.329 35.4284L221.476 27.2803L213.374 19.1772C212.875 18.6791 212.875 17.8717 213.374 17.3737Z" fill="black"/>
<path d="M239.534 23.377C240.032 22.8789 240.839 22.8789 241.337 23.377L253.389 35.4278L247.34 41.4759C246.842 41.9737 246.035 41.9738 245.537 41.4759C245.039 40.9778 245.039 40.1699 245.537 39.6718L249.78 35.4278L239.534 25.1804C239.036 24.6824 239.036 23.875 239.534 23.377Z" fill="black"/>
</svg>
