<svg width="260" height="178" viewBox="0 0 260 178" fill="none" xmlns="http://www.w3.org/2000/svg">
<path d="M17.8842 15.5876C18.3254 15.0728 19.1006 15.0131 19.6154 15.4544C20.1302 15.8956 20.1898 16.6707 19.7486 17.1855L12.2641 25.9171L19.731 34.2551C20.1833 34.7602 20.1404 35.5364 19.6354 35.9887C19.1303 36.441 18.3541 36.3981 17.9018 35.893L9 25.9528L17.8842 15.5876Z" fill="black"/>
<path d="M36.1158 15.5876C35.6746 15.0728 34.8994 15.0131 34.3846 15.4544C33.8698 15.8956 33.8102 16.6707 34.2514 17.1855L41.7359 25.9171L34.269 34.2551C33.8167 34.7602 33.8596 35.5364 34.3646 35.9887C34.8697 36.441 35.6459 36.3981 36.0982 35.893L45 25.9528L36.1158 15.5876Z" fill="black"/>
<path d="M30.1018 11.9561C30.3074 11.31 30.9979 10.9529 31.644 11.1585C32.29 11.364 32.6471 12.0546 32.4416 12.7006L24.1741 38.6863C23.9685 39.3323 23.278 39.6894 22.6319 39.4839C21.9858 39.2783 21.6287 38.5878 21.8343 37.9417L30.1018 11.9561Z" fill="black"/>
<path d="M126.195 23.5661L123.253 26.4507L126.194 29.6947L125.112 30.6762L121.227 26.3912L125.172 22.5227L126.195 23.5661Z" fill="black"/>
<path d="M131.036 22.0434L128.865 31.0131L127.445 30.6694L129.616 21.6997L131.036 22.0434Z" fill="black"/>
<path d="M132.168 23.5661L135.11 26.4507L132.169 29.6947L133.252 30.6762L137.137 26.3912L133.191 22.5227L132.168 23.5661Z" fill="black"/>
<path d="M142.577 11.6224C142.577 10.9499 142.032 10.4047 141.359 10.4047H117.249C116.577 10.4047 116.031 10.9499 116.031 11.6224V23.4411L113.69 26.4505L116.031 29.1261V40.3597C116.031 41.0322 116.577 41.5774 117.249 41.5774H141.359C142.032 41.5774 142.577 41.0322 142.577 40.3597V29.1361L144.814 26.4515L142.577 23.4315V11.6224ZM144.038 22.949L146.672 26.5048L144.038 29.665V40.3597C144.038 41.8393 142.839 43.0386 141.359 43.0386H117.249C115.77 43.0386 114.57 41.8393 114.57 40.3597V29.675L111.797 26.5055L114.57 22.9395V11.6224C114.57 10.1429 115.77 8.94348 117.249 8.94348H141.359C142.839 8.94348 144.038 10.1429 144.038 11.6224V22.949Z" fill="black"/>
<path d="M248.924 22.7766V18.8335C248.924 18.2601 249.388 17.7953 249.962 17.7953C250.535 17.7953 251 18.2601 251 18.8335V22.7766C251 24.3448 250.88 25.9743 250.44 27.5649C247.242 39.1336 238.306 44.0093 233.8 45.0419C233.576 45.0931 233.358 45.0821 233.162 45.0298C222.775 42.2588 218.021 33.0819 216.481 27.3896C216.079 25.9032 216 24.388 216 22.9553V14.8649C216 14.3576 216.288 13.8941 216.742 13.6689L232.907 5.65926C233.257 5.48578 233.665 5.47498 234.022 5.62682L234.093 5.65926L250.423 13.7508C250.936 14.0054 251.146 14.628 250.892 15.1418C250.637 15.6555 250.015 15.8656 249.501 15.611L233.5 7.68281L218.076 15.3248V22.9553C218.076 24.3275 218.155 25.6262 218.485 26.8474C219.925 32.17 224.282 40.4198 233.518 42.9744C237.494 41.9863 245.527 37.5482 248.439 27.0116C248.809 25.6717 248.924 24.2487 248.924 22.7766Z" fill="black"/>
<path d="M226.983 20.3242C227.389 19.9188 228.046 19.9188 228.451 20.3242C228.857 20.7296 228.857 21.3868 228.451 21.7922L224.839 25.4045L228.497 29.5677C228.876 29.9984 228.833 30.6544 228.403 31.0328C227.972 31.4113 227.316 31.369 226.938 30.9384L222.82 26.2532C222.356 25.7245 222.382 24.926 222.879 24.4284L226.983 20.3242Z" fill="black"/>
<path d="M240.017 20.3242C239.611 19.9188 238.954 19.9188 238.549 20.3242C238.143 20.7296 238.143 21.3868 238.549 21.7922L242.161 25.4045L238.503 29.5677C238.124 29.9984 238.167 30.6544 238.597 31.0328C239.028 31.4113 239.684 31.369 240.062 30.9384L244.18 26.2532C244.644 25.7245 244.618 24.926 244.121 24.4284L240.017 20.3242Z" fill="black"/>
<path d="M233.769 19.6028C233.917 19.049 234.487 18.7204 235.04 18.8688C235.594 19.0172 235.923 19.5866 235.774 20.1404L232.873 30.9666C232.725 31.5204 232.155 31.849 231.602 31.7006C231.048 31.5522 230.719 30.9828 230.868 30.429L233.769 19.6028Z" fill="black"/>
<path d="M44.0563 96.6832V98.5565H11.9437V96.6832H44.0563ZM45.1268 95.6128V72.3311C45.1268 71.7399 44.6475 71.2607 44.0563 71.2607H11.9437C11.3525 71.2607 10.8732 71.7399 10.8732 72.3311V95.6128C10.8732 96.204 11.3525 96.6832 11.9437 96.6832V98.5565C10.3179 98.5565 9 97.2385 9 95.6128V72.3311C9 70.7054 10.3179 69.3875 11.9437 69.3875H44.0563C45.6821 69.3875 47 70.7054 47 72.3311V95.6128C47 97.2385 45.6821 98.5565 44.0563 98.5565V96.6832C44.6475 96.6832 45.1268 96.204 45.1268 95.6128Z" fill="black"/>
<path d="M21.4743 70.0681C21.9111 69.7912 22.4898 69.9209 22.7668 70.3577L25.9697 75.4085H36.6941C37.2114 75.4085 37.6307 75.8278 37.6307 76.3451C37.6307 76.8624 37.2114 77.2817 36.6941 77.2817H24.9396L21.1847 71.3607C20.9078 70.9239 21.0375 70.3451 21.4743 70.0681Z" fill="black"/>
<path d="M45.1245 75.4087C45.6418 75.4087 46.0611 75.828 46.0611 76.3453C46.0611 76.8626 45.6418 77.2819 45.1245 77.2819H41.378C40.8607 77.2819 40.4414 76.8626 40.4414 76.3453C40.4414 75.828 40.8607 75.4087 41.378 75.4087H45.1245Z" fill="black"/>
<path d="M23.787 91.2056C24.235 91.4642 24.8079 91.3107 25.0665 90.8627C25.3252 90.4147 25.1716 89.8418 24.7237 89.5832L20.5962 87.2006L24.7088 84.9252C25.1614 84.6748 25.3253 84.1048 25.0749 83.6522C24.8245 83.1996 24.2546 83.0357 23.8019 83.2861L18.4467 86.2488C17.7181 86.652 17.7086 87.6963 18.4297 88.1127L23.787 91.2056Z" fill="black"/>
<path d="M31.9512 91.2056C31.5033 91.4642 30.9304 91.3107 30.6718 90.8627C30.4131 90.4147 30.5666 89.8418 31.0146 89.5832L35.1421 87.2006L31.0295 84.9252C30.5769 84.6748 30.413 84.1048 30.6634 83.6522C30.9138 83.1996 31.4837 83.0357 31.9363 83.2861L37.2916 86.2488C38.0202 86.652 38.0297 87.6963 37.3086 88.1127L31.9512 91.2056Z" fill="black"/>
<path d="M29.1181 80.729C29.2834 80.2389 29.8147 79.9755 30.3048 80.1408C30.795 80.306 31.0583 80.8373 30.8931 81.3275L26.879 93.2359C26.7137 93.7261 26.1824 93.9894 25.6923 93.8242C25.2021 93.6589 24.9388 93.1276 25.104 92.6375L29.1181 80.729Z" fill="black"/>
<path d="M15.4241 73.8029C15.4241 74.4679 14.8849 75.0071 14.2199 75.0071C13.5548 75.0071 13.0156 74.4679 13.0156 73.8029C13.0156 73.1378 13.5548 72.5986 14.2199 72.5986C14.8849 72.5986 15.4241 73.1378 15.4241 73.8029Z" fill="black"/>
<path d="M20.2366 73.8029C20.2366 74.4679 19.6974 75.0071 19.0324 75.0071C18.3673 75.0071 17.8281 74.4679 17.8281 73.8029C17.8281 73.1378 18.3673 72.5986 19.0324 72.5986C19.6974 72.5986 20.2366 73.1378 20.2366 73.8029Z" fill="black"/>
<path d="M139.667 82.4854C139.667 77.1596 135.35 72.8421 130.024 72.8421H129.173C123.847 72.8421 119.53 77.1596 119.53 82.4854V83.3363H117.828V82.4854C117.828 76.2197 122.907 71.1404 129.173 71.1404H130.024C136.29 71.1404 141.369 76.2197 141.369 82.4854V83.3363H139.667V82.4854Z" fill="black"/>
<path d="M137.046 63.908C137.046 59.9136 133.807 56.6755 129.813 56.6755C125.819 56.6755 122.581 59.9136 122.581 63.908C122.581 67.9023 125.819 71.1404 129.813 71.1404V72.8422C124.879 72.8422 120.879 68.8422 120.879 63.908C120.879 58.9737 124.879 54.9738 129.813 54.9738C134.747 54.9738 138.747 58.9737 138.747 63.908C138.747 68.8422 134.747 72.8422 129.813 72.8422V71.1404C133.807 71.1404 137.046 67.9023 137.046 63.908Z" fill="black"/>
<path d="M128.961 71.5658H130.663V80.6418H128.961V71.5658Z" fill="black"/>
<path d="M145.297 85.3217C146.322 85.3217 147.114 86.2209 146.985 87.2375L144.79 104.539C144.682 105.389 143.959 106.026 143.102 106.026H116.244C115.383 106.026 114.657 105.382 114.554 104.526L112.489 87.225C112.368 86.2125 113.159 85.3217 114.179 85.3217H145.297ZM116.244 104.325H143.102L145.297 87.0234H114.179L116.244 104.325Z" fill="black"/>
<path d="M126.429 93.6072L121.753 96.1346L126.442 98.9229L125.572 100.386L120.024 97.0863C119.266 96.636 119.289 95.5321 120.064 95.1131L125.62 92.1101L126.429 93.6072Z" fill="black"/>
<path d="M133.337 93.6072L138.013 96.1346L133.324 98.9229L134.194 100.386L139.742 97.0863C140.499 96.636 140.477 95.5321 139.702 95.1131L134.146 92.1101L133.337 93.6072Z" fill="black"/>
<path d="M132.466 91.3471L128.89 100.882L127.297 100.285L130.872 90.7496L132.466 91.3471Z" fill="black"/>
<path d="M219.862 69.24C221.174 68.2403 222.756 68.0639 223.817 68.1888C224.43 68.2609 224.869 68.8165 224.797 69.4296C224.725 70.0427 224.169 70.4812 223.556 70.4091C222.907 70.3327 221.952 70.4583 221.216 71.0185C220.545 71.5296 219.867 72.5475 219.972 74.6714C220.127 76.3924 220.018 78.9881 219.133 81.242C218.224 83.5579 216.41 85.6676 213.168 85.815C212.552 85.8429 212.029 85.3659 212.001 84.7492C211.973 84.1326 212.451 83.61 213.067 83.582C215.14 83.4877 216.346 82.2257 217.052 80.4251C217.776 78.5805 217.883 76.3386 217.743 74.8384L217.74 74.8143L217.739 74.79C217.604 72.0873 218.485 70.2884 219.862 69.24Z" fill="black"/>
<path d="M220.166 100.157C221.479 101.157 223.06 101.333 224.122 101.208C224.735 101.136 225.174 100.581 225.101 99.9675C225.029 99.3544 224.474 98.9159 223.861 98.988C223.211 99.0644 222.257 98.9388 221.521 98.3786C220.85 97.8675 220.172 96.8496 220.276 94.7257C220.432 93.0047 220.322 90.409 219.438 88.1551C218.529 85.8392 216.715 83.7295 213.473 83.5821C212.857 83.5542 212.334 84.0312 212.306 84.6479C212.278 85.2645 212.755 85.7871 213.372 85.8151C215.445 85.9094 216.65 87.1714 217.357 88.972C218.081 90.8166 218.188 93.0585 218.047 94.5587L218.045 94.5827L218.044 94.6071C217.909 97.3098 218.79 99.1087 220.166 100.157Z" fill="black"/>
<path d="M247.138 68.9658C245.826 67.9662 244.244 67.7897 243.183 67.9146C242.57 67.9867 242.131 68.5423 242.203 69.1554C242.275 69.7685 242.831 70.207 243.444 70.1349C244.093 70.0586 245.048 70.1842 245.784 70.7444C246.455 71.2555 247.133 72.2734 247.028 74.3972C246.873 76.1182 246.982 78.714 247.867 80.9678C248.776 83.2838 250.59 85.3935 253.832 85.5408C254.448 85.5688 254.971 85.0917 254.999 84.4751C255.027 83.8584 254.549 83.3358 253.933 83.3078C251.86 83.2135 250.654 81.9515 249.948 80.1509C249.224 78.3063 249.117 76.0644 249.257 74.5642L249.26 74.5402L249.261 74.5158C249.396 71.8131 248.515 70.0143 247.138 68.9658Z" fill="black"/>
<path d="M246.834 99.8829C245.521 100.883 243.94 101.059 242.878 100.934C242.265 100.862 241.826 100.306 241.899 99.6934C241.971 99.0803 242.526 98.6417 243.139 98.7139C243.789 98.7902 244.743 98.6646 245.479 98.1044C246.15 97.5933 246.828 96.5754 246.724 94.4516C246.568 92.7306 246.678 90.1348 247.562 87.881C248.471 85.565 250.285 83.4553 253.527 83.3079C254.143 83.28 254.666 83.7571 254.694 84.3737C254.722 84.9904 254.245 85.5129 253.628 85.541C251.555 85.6352 250.35 86.8972 249.643 88.6978C248.919 90.5424 248.812 92.7843 248.953 94.2846L248.955 94.3086L248.956 94.333C249.091 97.0356 248.21 98.8345 246.834 99.8829Z" fill="black"/>
<path d="M232.836 95.5687V88.322C232.836 87.7047 233.336 87.2042 233.954 87.2042C234.571 87.2042 235.072 87.7047 235.072 88.322V95.5687C235.072 96.186 234.571 96.6865 233.954 96.6865C233.336 96.6865 232.836 96.186 232.836 95.5687Z" fill="black"/>
<path d="M232.836 80.4713V78.9617C232.836 78.3443 233.336 77.8439 233.954 77.8439C234.571 77.8439 235.072 78.3443 235.072 78.9617V80.4713C235.072 81.0887 234.571 81.5891 233.954 81.5891C233.336 81.5891 232.836 81.0887 232.836 80.4713Z" fill="black"/>
<path d="M12.1797 153.526V136.579C12.1797 134.273 14.0491 132.404 16.3551 132.404H41.4078C43.7138 132.404 45.5832 134.273 45.5832 136.579V153.526" stroke="black" stroke-width="1.7193" stroke-linecap="round"/>
<path d="M22.614 156.105H8C9.17895 160.133 11.9298 161.632 14.7544 162H43.4912C48.0105 161.411 49.7135 157.825 50 156.105H35.1404C29.9333 159.74 24.6199 157.62 22.614 156.105Z" stroke="black" stroke-width="1.7193" stroke-linecap="round"/>
<path d="M24.5829 140.14L20.0391 144.684L24.5829 149.228" stroke="black" stroke-width="1.7193" stroke-linecap="round"/>
<path d="M33.7921 140.14L38.3359 144.684L33.7921 149.228" stroke="black" stroke-width="1.7193" stroke-linecap="round"/>
<path d="M31.3373 138.421L27.0391 150.21" stroke="black" stroke-width="1.7193" stroke-linecap="round"/>
<path d="M127.331 139.864L122.188 145.008L127.331 150.328L125.805 151.804L119.211 144.982L125.83 138.363L127.331 139.864Z" fill="black"/>
<path d="M136.536 139.688L141.679 144.831L136.536 150.152L138.062 151.627L144.656 144.806L138.037 138.187L136.536 139.688Z" fill="black"/>
<path d="M134.922 137.89L130.634 153.204L128.59 152.631L132.878 137.317L134.922 137.89Z" fill="black"/>
<path d="M149.506 126.739C150.125 125.33 152.125 125.33 152.745 126.739L154.199 130.045C154.377 130.45 154.701 130.774 155.106 130.952L158.412 132.406C159.821 133.026 159.821 135.026 158.412 135.646L155.106 137.1C154.701 137.278 154.377 137.602 154.199 138.007L152.745 141.313L152.715 141.378C152.063 142.722 150.116 142.7 149.506 141.313L148.051 138.007C147.884 137.627 147.589 137.318 147.219 137.135L147.144 137.1L143.838 135.646C142.429 135.026 142.429 133.026 143.838 132.406L147.144 130.952C147.524 130.785 147.833 130.49 148.017 130.12L148.051 130.045L149.506 126.739ZM149.995 130.9C149.603 131.791 148.89 132.504 147.999 132.896L145.429 134.026L147.999 135.156C148.835 135.524 149.513 136.173 149.918 136.987L149.995 137.152L151.125 139.722L152.255 137.152L152.332 136.987C152.737 136.173 153.415 135.524 154.251 135.156L156.821 134.026L154.251 132.896C153.36 132.504 152.648 131.791 152.255 130.9L151.125 128.33L149.995 130.9Z" fill="black"/>
<path d="M112.914 152.78V135.795C112.914 132.864 115.29 130.488 118.222 130.488H141.435V132.611H118.222C116.463 132.611 115.037 134.036 115.037 135.795V152.78C115.037 154.538 116.463 155.964 118.222 155.964H126.239L131.547 161.789L136.513 155.964H145.114C146.873 155.964 148.298 154.538 148.298 152.78V143.6H150.421V152.78C150.421 155.711 148.045 158.087 145.114 158.087H137.493L131.601 165L125.302 158.087H118.222C115.29 158.087 112.914 155.711 112.914 152.78Z" fill="black"/>
<path d="M248.384 162.164V163.764H217.636V162.164H248.384ZM249.402 161.147V130.617C249.402 130.055 248.946 129.599 248.384 129.599H217.636C217.074 129.599 216.619 130.055 216.619 130.617V161.147C216.619 161.709 217.074 162.164 217.636 162.164V163.764L217.502 163.76C216.119 163.69 215.02 162.547 215.02 161.147V130.617C215.02 129.217 216.119 128.074 217.502 128.003L217.636 128H248.384C249.83 128 251.001 129.172 251.001 130.617V161.147C251.001 162.592 249.83 163.764 248.384 163.764V162.164C248.946 162.164 249.402 161.709 249.402 161.147Z" fill="black"/>
<path d="M250.274 135.705V137.304H215.855V135.705H250.274Z" fill="black"/>
<path d="M218.727 131.271H221.561V134.106H218.727V131.271Z" fill="black"/>
<path d="M223.961 131.271H226.796V134.106H223.961V131.271Z" fill="black"/>
<path d="M229.191 131.271H232.026V134.106H229.191V131.271Z" fill="black"/>
<path d="M228.576 152.923V155.277L221.284 159.626L220.465 158.253L226.977 154.369V153.888L220.481 150.469L221.226 149.054L228.576 152.923Z" fill="black"/>
<path d="M235.988 155.441V157.04H230.027V155.441H235.988Z" fill="black"/>
</svg>
