<svg width="260" height="178" viewBox="0 0 260 178" fill="none" xmlns="http://www.w3.org/2000/svg">
<path d="M40.441 11.0451C40.441 9.71165 39.3601 8.63071 38.0267 8.63071H26.3573C25.0239 8.63071 23.943 9.71165 23.943 11.0451V17.0809C23.943 18.4143 25.0239 19.4953 26.3573 19.4953H28.2399C29.7708 19.4953 31.1792 20.2613 32.0173 21.5007C32.857 20.2587 34.2668 19.4953 35.7947 19.4953H38.0267C39.3601 19.4953 40.441 18.4143 40.441 17.0809V11.0451ZM42.5871 17.0809C42.5871 19.5996 40.5453 21.6414 38.0267 21.6414H35.7947C34.8662 21.6414 34.02 22.1739 33.6182 23.011L33.2105 23.86C32.7146 24.8932 31.2352 24.8686 30.7737 23.8197L30.4496 23.0833C30.064 22.207 29.1972 21.6414 28.2399 21.6414H26.3573C23.8387 21.6414 21.7969 19.5996 21.7969 17.0809V11.0451C21.7969 8.5264 23.8387 6.48462 26.3573 6.48462H38.0267C40.5453 6.48462 42.5871 8.5264 42.5871 11.0451V17.0809Z" fill="black"/>
<path d="M20.1558 22.8488C21.1359 22.8418 22.2648 23.0473 23.0876 23.6318C24.1174 24.3636 25.2448 25.6583 25.6316 27.6188C26.0183 29.5791 25.635 32.0523 23.9398 35.0895L23.9285 35.1094L23.9165 35.1288C23.8221 35.2821 23.6737 35.6194 23.6209 36.029C23.6039 36.1619 23.6265 36.321 23.955 36.5791C24.3087 36.8571 24.8396 37.0947 25.4417 37.3179C26.6275 37.7574 27.9467 38.4625 29.0841 39.2473C30.1926 40.0121 31.2613 40.9431 31.8121 41.8788C32.0488 42.2811 32.1575 42.755 32.041 43.2416C31.9293 43.7087 31.6432 44.0491 31.3565 44.2756C30.8061 44.7105 30.0566 44.8944 29.4056 44.8944H10.8183C10.195 44.8944 9.63125 44.5901 9.29964 44.1027C8.9573 43.5995 8.88134 42.9193 9.21345 42.3072L9.31588 42.124C10.4089 40.2266 12.5946 38.1454 15.7497 37.0892C16.433 36.8604 16.8326 36.3065 16.8327 35.779C16.8327 35.3817 16.6102 34.9224 16.1864 34.2921C15.3294 33.0174 14.7151 31.0476 14.7209 29.0956C14.7268 27.131 15.3706 24.9787 17.2883 23.6292C18.0728 23.0772 19.1768 22.8559 20.1558 22.8488ZM18.9788 35.779C18.9787 37.4149 17.7993 38.6661 16.4311 39.1242C14.049 39.9217 12.3774 41.4036 11.4573 42.7483H29.4056C29.5341 42.7483 29.6633 42.7296 29.7776 42.6985C29.4034 42.2137 28.7366 41.6148 27.8652 41.0135C26.8533 40.3154 25.6919 39.6993 24.6958 39.3301C24.0755 39.1001 23.2671 38.768 22.6289 38.2665C21.9654 37.7451 21.343 36.9148 21.4924 35.7547C21.5831 35.0506 21.8279 34.4406 22.0674 34.0395C23.5894 31.3112 23.7873 29.3594 23.5259 28.0341C23.2643 26.7084 22.5139 25.8568 21.8448 25.3813C21.5349 25.1612 20.92 24.9892 20.1713 24.9946C19.4215 25 18.8117 25.1812 18.5232 25.3842C17.3701 26.1957 16.8717 27.5545 16.867 29.1019C16.8623 30.6617 17.3692 32.2049 17.9673 33.0946C18.3867 33.7185 18.9788 34.6651 18.9788 35.779Z" fill="black"/>
<path d="M44.0311 22.8488C45.0112 22.8418 46.1401 23.0473 46.9629 23.6318C47.9927 24.3636 49.1201 25.6583 49.5069 27.6188C49.8936 29.5791 49.5103 32.0523 47.8151 35.0895L47.8038 35.1094L47.7918 35.1288C47.6943 35.2872 47.541 35.6386 47.4923 36.0614C47.478 36.1857 47.4961 36.3277 47.8041 36.5592C48.1421 36.8133 48.6562 37.0272 49.2478 37.2209C50.5225 37.6383 51.8913 38.3578 53.048 39.1677C54.176 39.9575 55.2417 40.93 55.7633 41.9113C55.984 42.3263 56.0684 42.8025 55.9368 43.2793C55.8107 43.7361 55.5214 44.0673 55.2323 44.289C54.6762 44.7154 53.9287 44.8944 53.2809 44.8944H34.9619C33.7686 44.8943 32.649 43.6496 33.3337 42.3213L33.4304 42.1392C34.4609 40.2518 36.4991 38.1605 39.6203 37.0955C40.3086 36.8605 40.7079 36.305 40.708 35.779C40.708 35.3817 40.4855 34.9224 40.0617 34.2921C39.2047 33.0174 38.5904 31.0476 38.5962 29.0956C38.6021 27.131 39.2459 24.9787 41.1636 23.6292C41.9481 23.0772 43.0521 22.8559 44.0311 22.8488ZM42.8541 35.779C42.854 37.4165 41.6723 38.6628 40.3132 39.1265C37.983 39.9217 36.425 41.3985 35.5626 42.7483H53.2809C53.4224 42.7483 53.566 42.7276 53.6909 42.6912C53.7013 42.6882 53.711 42.6841 53.7207 42.681C53.3734 42.182 52.7117 41.552 51.8172 40.9258C50.8024 40.2152 49.621 39.6016 48.5798 39.2607C47.9562 39.0565 47.1533 38.7546 46.5149 38.2749C45.8465 37.7725 45.2283 36.9623 45.3601 35.8162C45.4441 35.0862 45.6963 34.4533 45.9417 34.0416C47.4647 31.3122 47.6627 29.3597 47.4012 28.0341C47.1396 26.7084 46.3892 25.8568 45.7201 25.3813C45.4102 25.1612 44.7953 24.9892 44.0466 24.9946C43.2968 25 42.687 25.1812 42.3985 25.3842C41.2454 26.1957 40.747 27.5545 40.7423 29.1019C40.7376 30.6617 41.2444 32.2049 41.8426 33.0946C42.262 33.7185 42.8541 34.6651 42.8541 35.779Z" fill="black"/>
<path d="M147.372 25.5733H145.806V10.566H114.617V31.1848H130.668V32.7508H114.095C113.518 32.7508 113.051 32.2834 113.051 31.7068V10.044C113.051 9.46741 113.518 9 114.095 9H146.328C146.905 9 147.372 9.46741 147.372 10.044V25.5733Z" fill="black"/>
<path d="M145.882 39.5311L139.842 38.1887L134.746 44.5956L131.246 35.9924L123.879 33.594L152.815 22.4993L145.882 39.5311ZM128.567 33.4734L132.423 34.7289L135.187 41.5248L139.226 36.4478L144.93 37.7154L150.003 25.2543L128.567 33.4734Z" fill="black"/>
<path d="M151.122 25.2681L136.874 36.8203L136.022 42.6432L134.473 42.4167L135.413 35.9891L142.757 30.0346L132.196 36.037L131.422 34.6754L150.242 23.9791L151.122 25.2681Z" fill="black"/>
<path d="M128.986 39.4554C129.319 39.1797 129.812 39.2263 130.088 39.5594C130.364 39.8926 130.317 40.3863 129.984 40.662L122.415 46.926C122.082 47.2017 121.588 47.1551 121.313 46.822C121.037 46.4888 121.083 45.9951 121.417 45.7194L128.986 39.4554Z" fill="black"/>
<path d="M130.523 42.7448C130.841 42.4521 131.337 42.4727 131.63 42.791C131.922 43.1092 131.902 43.6046 131.583 43.8974L128.321 46.8989C128.003 47.1916 127.507 47.171 127.215 46.8527C126.922 46.5345 126.942 46.0391 127.261 45.7463L130.523 42.7448Z" fill="black"/>
<path d="M128.794 21.8329C129.604 22.406 130.687 22.408 131.499 21.838L146.516 11.3023L147.415 12.5841L132.399 23.1201C131.045 24.07 129.24 24.0665 127.889 23.1114L113 12.58L113.904 11.3015L128.794 21.8329Z" fill="black"/>
<path d="M125.767 20.0327L114.411 32.6819L113.246 31.6359L124.602 18.9867L125.767 20.0327Z" fill="black"/>
<path d="M142.863 26.3444L141.768 27.4636L134.516 20.3654L135.611 19.2462L142.863 26.3444Z" fill="black"/>
<path d="M223.171 28.764C223.171 29.5238 222.555 30.1398 221.795 30.1398H210.651C209.739 30.1398 209 29.4006 209 28.4888V20.7944C209 17.011 212.149 13.9877 215.929 14.141L217.059 14.1866C219.48 14.2848 221.621 15.7863 222.538 18.0289C222.768 18.5915 222.499 19.2341 221.936 19.4643C221.374 19.6945 220.731 19.425 220.501 18.8624C219.91 17.4171 218.53 16.4495 216.969 16.3863L215.84 16.3403C213.309 16.2377 211.201 18.2617 211.201 20.7944V27.9385H220.969V24.3615C220.969 23.7536 221.462 23.2609 222.07 23.2609C222.678 23.2609 223.171 23.7536 223.171 24.3615V28.764Z" fill="black"/>
<path d="M224.016 16.0542C225.716 15.1898 227.795 15.875 228.648 17.5807C229.477 19.2401 228.84 21.2584 227.208 22.1407L220.198 25.93C219.134 26.5047 217.852 26.5037 216.79 25.927L213.154 23.9531C212.62 23.6631 212.422 22.9949 212.712 22.4607C213.002 21.9265 213.67 21.7284 214.204 22.0184L217.84 23.9923C218.249 24.2141 218.742 24.2147 219.151 23.9937L226.161 20.2044C226.748 19.8872 226.977 19.1615 226.679 18.565C226.372 17.9518 225.625 17.7056 225.014 18.0163L219.134 21.0062C218.698 21.2277 218.177 21.2014 217.766 20.9371L215.973 19.7841C215.462 19.4554 215.314 18.7745 215.642 18.2632C215.971 17.7519 216.652 17.604 217.163 17.9327L218.558 18.8291L224.016 16.0542Z" fill="black"/>
<path d="M219.042 9.09039C219.042 7.49476 217.749 6.20125 216.153 6.20125C214.557 6.20125 213.264 7.49476 213.264 9.09039C213.264 10.686 214.557 11.9795 216.153 11.9795V14.1808C213.342 14.1808 211.062 11.9017 211.062 9.09039C211.062 6.27905 213.342 4 216.153 4C218.964 4 221.243 6.27905 221.243 9.09039C221.243 11.9017 218.964 14.1808 216.153 14.1808V11.9795C217.749 11.9795 219.042 10.686 219.042 9.09039Z" fill="black"/>
<path d="M236.103 44.7231C236.103 45.4829 236.719 46.0989 237.479 46.0989H248.623C249.534 46.0989 250.273 45.3597 250.273 44.448V36.7535C250.273 32.9701 247.125 29.9468 243.345 30.1001L242.215 30.1457C239.794 30.2439 237.653 31.7454 236.735 33.988C236.505 34.5506 236.774 35.1933 237.337 35.4234C237.9 35.6536 238.542 35.3841 238.772 34.8215C239.364 33.3762 240.744 32.4086 242.304 32.3454L243.434 32.2994C245.964 32.1968 248.072 34.2208 248.072 36.7535V43.8976H238.304V40.3206C238.304 39.7128 237.811 39.22 237.204 39.22C236.596 39.22 236.103 39.7128 236.103 40.3206V44.7231Z" fill="black"/>
<path d="M235.257 32.0132C233.557 31.1488 231.479 31.834 230.626 33.5397C229.796 35.1991 230.433 37.2174 232.066 38.0996L239.076 41.889C240.139 42.4637 241.421 42.4627 242.483 41.886L246.12 39.9121C246.654 39.6221 246.852 38.9539 246.562 38.4197C246.272 37.8855 245.604 37.6874 245.069 37.9774L241.433 39.9513C241.024 40.1731 240.531 40.1737 240.123 39.9526L233.112 36.1633C232.526 35.8462 232.296 35.1205 232.595 34.524C232.901 33.9108 233.649 33.6646 234.26 33.9753L240.14 36.9652C240.575 37.1867 241.096 37.1604 241.507 36.8961L243.301 35.7431C243.812 35.4144 243.96 34.7335 243.631 34.2222C243.302 33.7109 242.621 33.563 242.11 33.8917L240.715 34.7881L235.257 32.0132Z" fill="black"/>
<path d="M240.231 25.0494C240.231 23.4537 241.525 22.1602 243.121 22.1602C244.716 22.1602 246.01 23.4537 246.01 25.0494C246.01 26.645 244.716 27.9385 243.121 27.9385V30.1398C245.932 30.1398 248.211 27.8607 248.211 25.0494C248.211 22.238 245.932 19.959 243.121 19.959C240.309 19.959 238.03 22.238 238.03 25.0494C238.03 27.8607 240.309 30.1398 243.121 30.1398V27.9385C241.525 27.9385 240.231 26.645 240.231 25.0494Z" fill="black"/>
<path d="M241.743 18.1705C241.743 15.7391 239.772 13.768 237.34 13.768H229.636C229.028 13.768 228.535 13.2753 228.535 12.6674C228.535 12.0595 229.028 11.5668 229.636 11.5668H237.34C240.987 11.5668 243.944 14.5234 243.944 18.1705C243.944 18.7784 243.451 19.2711 242.843 19.2711C242.235 19.2711 241.743 18.7784 241.743 18.1705Z" fill="black"/>
<path d="M215.465 32.066C215.465 31.4581 215.958 30.9653 216.565 30.9653C217.173 30.9653 217.666 31.4581 217.666 32.066C217.666 34.8013 219.884 37.0188 222.619 37.0188H225.921C226.529 37.0188 227.021 37.5115 227.021 38.1194C227.021 38.7273 226.529 39.22 225.921 39.22H222.619C218.668 39.22 215.465 36.017 215.465 32.066Z" fill="black"/>
<path d="M224.661 34.6667C225.124 34.273 225.819 34.3293 226.213 34.7925L229.173 38.2754L226.194 41.6047C225.789 42.0577 225.093 42.0965 224.64 41.6913C224.187 41.286 224.149 40.5901 224.554 40.137L226.253 38.2381L224.535 36.2182C224.142 35.7551 224.198 35.0604 224.661 34.6667Z" fill="black"/>
<path d="M230.901 9.2148C230.438 8.82113 229.743 8.87743 229.35 9.34056L226.389 12.8235L229.368 16.1528C229.773 16.6058 230.469 16.6446 230.922 16.2393C231.375 15.8341 231.414 15.1381 231.009 14.6851L229.31 12.7862L231.027 10.7663C231.421 10.3032 231.364 9.60848 230.901 9.2148Z" fill="black"/>
<path d="M135.416 146.776C136.002 145.866 137.338 145.849 137.947 146.743L138.005 146.836L147.513 163.096H126.422L135.36 146.87L135.416 146.776ZM130.634 160.607H143.174L136.717 149.564L130.634 160.607Z" fill="black"/>
<path d="M150.222 147.538L148.878 148.357C146.121 150.038 143.523 150.629 141.235 150.324C138.94 150.019 137.079 148.828 135.797 147.18C133.265 143.924 132.963 138.854 135.811 135.009L136.675 133.842L150.222 147.538ZM137.046 137.756C135.744 140.459 136.161 143.593 137.762 145.652C138.676 146.827 139.968 147.645 141.563 147.857C142.841 148.027 144.39 147.817 146.177 146.987L137.046 137.756Z" fill="black"/>
<path d="M143.405 130.196C143.769 129.613 144.537 129.435 145.12 129.8C145.702 130.164 145.88 130.932 145.515 131.515L142.378 136.534C142.014 137.117 141.246 137.294 140.663 136.93C140.08 136.566 139.903 135.798 140.267 135.215L143.405 130.196Z" fill="black"/>
<path d="M151.133 132.338C151.631 131.864 152.419 131.884 152.893 132.381C153.367 132.879 153.348 133.667 152.85 134.141L147.579 139.16C147.082 139.634 146.294 139.615 145.82 139.117C145.346 138.62 145.365 137.832 145.863 137.358L151.133 132.338Z" fill="black"/>
<path d="M154.174 139.666C154.783 139.348 155.535 139.583 155.854 140.192C156.172 140.802 155.936 141.554 155.327 141.872L149.806 144.758C149.197 145.077 148.445 144.841 148.126 144.232C147.808 143.623 148.043 142.871 148.653 142.552L154.174 139.666Z" fill="black"/>
<path d="M122.522 146.776C121.936 145.866 120.6 145.849 119.991 146.743L119.933 146.836L110.425 163.096H131.516L122.578 146.87L122.522 146.776ZM127.303 160.607H114.763L121.22 149.564L127.303 160.607Z" fill="black"/>
<path d="M107.716 147.538L109.059 148.357C111.816 150.038 114.414 150.629 116.703 150.324C118.997 150.019 120.858 148.828 122.14 147.18C124.673 143.924 124.974 138.854 122.127 135.009L121.263 133.842L107.716 147.538ZM120.892 137.756C122.194 140.459 121.777 143.593 120.175 145.652C119.261 146.827 117.97 147.645 116.374 147.857C115.097 148.027 113.547 147.817 111.761 146.987L120.892 137.756Z" fill="black"/>
<path d="M114.529 130.196C114.165 129.613 113.397 129.435 112.814 129.8C112.231 130.164 112.054 130.932 112.418 131.515L115.555 136.534C115.92 137.117 116.687 137.294 117.27 136.93C117.853 136.566 118.03 135.798 117.666 135.215L114.529 130.196Z" fill="black"/>
<path d="M106.804 132.338C106.306 131.864 105.519 131.884 105.045 132.381C104.571 132.879 104.59 133.667 105.088 134.141L110.358 139.16C110.856 139.634 111.644 139.615 112.118 139.117C112.592 138.62 112.572 137.832 112.075 137.358L106.804 132.338Z" fill="black"/>
<path d="M103.763 139.666C103.154 139.348 102.402 139.583 102.084 140.192C101.766 140.802 102.001 141.554 102.61 141.872L108.132 144.758C108.741 145.077 109.493 144.841 109.811 144.232C110.13 143.623 109.894 142.871 109.285 142.552L103.763 139.666Z" fill="black"/>
<path d="M50.3487 65.9795V83.6593H25.1289V65.9795H50.3487ZM27.2089 81.5794H48.2687V68.0595H27.2089V81.5794Z" fill="black"/>
<path d="M12.6513 86.5192V104.199H37.8711V86.5192H12.6513ZM35.7911 102.119H14.7313V88.5991H35.7911V102.119Z" fill="black"/>
<path d="M48.6438 66.2196C49.0855 65.8524 49.7414 65.9127 50.1086 66.3544C50.4758 66.796 50.4154 67.4519 49.9738 67.8192L37.7389 77.9918L25.504 67.8192C25.0624 67.4519 25.002 66.796 25.3692 66.3544C25.7364 65.9127 26.3923 65.8524 26.834 66.2196L37.7389 75.2865L48.6438 66.2196Z" fill="black"/>
<path d="M14.3562 86.7594C13.9145 86.3922 13.2586 86.4525 12.8914 86.8942C12.5242 87.3358 12.5846 87.9917 13.0262 88.359L25.2611 98.5316L37.496 88.359C37.9376 87.9917 37.998 87.3358 37.6308 86.8942C37.2636 86.4525 36.6077 86.3922 36.166 86.7594L25.2611 95.8263L14.3562 86.7594Z" fill="black"/>
<path d="M34.9986 74.1448C35.4428 73.7807 36.098 73.8458 36.4621 74.29C36.8261 74.7343 36.7611 75.3895 36.3168 75.7535L26.9569 83.4235C26.5127 83.7875 25.8575 83.7225 25.4934 83.2782C25.1294 82.834 25.1944 82.1788 25.6387 81.8147L34.9986 74.1448Z" fill="black"/>
<path d="M28.0014 94.6847C27.5572 94.3207 26.902 94.3857 26.5379 94.8299C26.1739 95.2742 26.2389 95.9294 26.6832 96.2934L36.0431 103.963C36.4873 104.327 37.1425 104.262 37.5066 103.818C37.8706 103.374 37.8056 102.719 37.3613 102.355L28.0014 94.6847Z" fill="black"/>
<path d="M39.0114 74.2967C39.3717 73.8495 40.0266 73.779 40.4739 74.1393L49.8338 81.6793C50.281 82.0396 50.3515 82.6945 49.9912 83.1417C49.6309 83.589 48.976 83.6595 48.5287 83.2992L39.1688 75.7592C38.7216 75.3989 38.6511 74.744 39.0114 74.2967Z" fill="black"/>
<path d="M23.9886 94.8365C23.6283 94.3893 22.9734 94.3188 22.5261 94.6791L13.1662 102.219C12.719 102.579 12.6485 103.234 13.0088 103.682C13.3691 104.129 14.024 104.199 14.4713 103.839L23.8312 96.299C24.2784 95.9387 24.3489 95.2838 23.9886 94.8365Z" fill="black"/>
<path d="M23.0474 69.6193C23.6218 69.6193 24.0874 70.0849 24.0874 70.6593C24.0874 71.2336 23.6218 71.6992 23.0474 71.6992H17.9775C17.4031 71.6992 16.9375 71.2336 16.9375 70.6593C16.9375 70.0849 17.4031 69.6193 17.9775 69.6193H23.0474Z" fill="black"/>
<path d="M39.9526 90.1592C39.3782 90.1592 38.9126 90.6248 38.9126 91.1992C38.9126 91.7735 39.3782 92.2392 39.9526 92.2392H45.0225C45.5969 92.2392 46.0625 91.7735 46.0625 91.1992C46.0625 90.6248 45.5969 90.1592 45.0225 90.1592H39.9526Z" fill="black"/>
<path d="M21.6199 73.9092C22.1943 73.9092 22.6599 74.3748 22.6599 74.9492C22.6599 75.5235 22.1943 75.9892 21.6199 75.9892H13.04C12.4656 75.9892 12 75.5235 12 74.9492C12 74.3748 12.4656 73.9092 13.04 73.9092H21.6199Z" fill="black"/>
<path d="M41.3801 94.4491C40.8057 94.4491 40.3401 94.9147 40.3401 95.4891C40.3401 96.0635 40.8057 96.5291 41.3801 96.5291H49.96C50.5344 96.5291 51 96.0635 51 95.4891C51 94.9147 50.5344 94.4491 49.96 94.4491H41.3801Z" fill="black"/>
<path d="M23.0468 78.1992C23.6212 78.1992 24.0868 78.6648 24.0868 79.2392C24.0868 79.8136 23.6212 80.2792 23.0468 80.2792H14.3369C13.7625 80.2792 13.2969 79.8136 13.2969 79.2392C13.2969 78.6648 13.7625 78.1992 14.3369 78.1992H23.0468Z" fill="black"/>
<path d="M39.9532 98.739C39.3788 98.739 38.9132 99.2046 38.9132 99.779C38.9132 100.353 39.3788 100.819 39.9532 100.819H48.6631C49.2375 100.819 49.7031 100.353 49.7031 99.779C49.7031 99.2046 49.2375 98.739 48.6631 98.739H39.9532Z" fill="black"/>
<path d="M139.107 83.4067V73.9781C139.107 71.0139 136.704 68.611 133.74 68.611H116.478C113.514 68.611 111.111 71.0139 111.111 73.9781V83.6968C111.111 86.5007 113.384 88.7738 116.188 88.7738H117.493V94.0697L124.908 88.7738H133.74C136.704 88.7738 139.107 86.3708 139.107 83.4067ZM141.718 83.4067C141.718 87.8129 138.146 91.3848 133.74 91.3848H125.745L114.882 99.1435V91.2737C111.258 90.6537 108.5 87.4977 108.5 83.6968V73.9781C108.5 69.5719 112.072 66 116.478 66H133.74C138.146 66 141.718 69.5719 141.718 73.9781V83.4067Z" fill="black"/>
<path d="M148.391 91.9649V79.6352C148.391 77.2318 146.442 75.2835 144.039 75.2835C143.318 75.2835 142.734 74.699 142.734 73.978C142.734 73.257 143.318 72.6725 144.039 72.6725C147.884 72.6725 151.002 75.7898 151.002 79.6352V91.9649C151.002 94.7848 148.99 97.1343 146.323 97.6578L144.947 105.921L135.433 97.7671H123.731C123.01 97.7671 122.426 97.1826 122.426 96.4616C122.426 95.7406 123.01 95.1561 123.731 95.1561H136.399L143.132 100.927L144.093 95.1561H145.2C146.962 95.1561 148.391 93.7274 148.391 91.9649Z" fill="black"/>
<path d="M133.158 72.6725C133.88 72.6725 134.464 73.257 134.464 73.978C134.464 74.699 133.88 75.2835 133.158 75.2835H117.638C116.917 75.2835 116.332 74.699 116.332 73.978C116.332 73.257 116.917 72.6725 117.638 72.6725H133.158Z" fill="black"/>
<path d="M133.158 77.8945C133.88 77.8945 134.464 78.479 134.464 79.2C134.464 79.921 133.88 80.5055 133.158 80.5055H117.638C116.917 80.5055 116.332 79.921 116.332 79.2C116.332 78.479 116.917 77.8945 117.638 77.8945H133.158Z" fill="black"/>
<path d="M128.517 83.1165C129.238 83.1165 129.822 83.7009 129.822 84.422C129.822 85.143 129.238 85.7275 128.517 85.7275H117.638C116.917 85.7275 116.332 85.143 116.332 84.422C116.332 83.7009 116.917 83.1165 117.638 83.1165H128.517Z" fill="black"/>
<path d="M218.537 73.6948V68.15C218.537 67.6515 218.133 67.2474 217.634 67.2474H203.708C203.209 67.2474 202.805 67.6515 202.805 68.15V94.9711C202.805 95.4696 203.209 95.8737 203.708 95.8737H217.634C218.133 95.8737 218.537 95.4696 218.537 94.9711V90.329C218.537 89.8305 218.941 89.4264 219.439 89.4264C219.938 89.4264 220.342 89.8305 220.342 90.329V94.9711C220.342 96.4666 219.13 97.679 217.634 97.679H203.708C202.212 97.679 201 96.4666 201 94.9711V68.15C201 66.6545 202.212 65.4421 203.708 65.4421H217.634C219.13 65.4421 220.342 66.6545 220.342 68.15V73.6948C220.342 74.1933 219.938 74.5974 219.439 74.5974C218.941 74.5974 218.537 74.1933 218.537 73.6948Z" fill="black"/>
<path d="M232.463 80.9159V74.0817C232.463 73.5832 232.867 73.179 233.366 73.179H247.292C247.791 73.179 248.195 73.5832 248.195 74.0817V100.903C248.195 101.401 247.791 101.805 247.292 101.805H233.366C232.867 101.805 232.463 101.401 232.463 100.903V96.0027C232.463 95.5042 232.059 95.1001 231.561 95.1001C231.062 95.1001 230.658 95.5042 230.658 96.0027V100.903C230.658 102.398 231.87 103.611 233.366 103.611H247.292C248.788 103.611 250 102.398 250 100.903V74.0817C250 72.5861 248.788 71.3738 247.292 71.3738H233.366C231.87 71.3738 230.658 72.5861 230.658 74.0817V80.9159C230.658 81.4144 231.062 81.8185 231.561 81.8185C232.059 81.8185 232.463 81.4144 232.463 80.9159Z" fill="black"/>
<path d="M211.704 67.5054C212.202 67.5054 212.607 67.9095 212.607 68.408C212.607 68.9065 212.202 69.3106 211.704 69.3106H209.899C209.4 69.3106 208.996 68.9065 208.996 68.408C208.996 67.9095 209.4 67.5054 209.899 67.5054H211.704Z" fill="black"/>
<path d="M239.296 73.4369C238.798 73.4369 238.393 73.841 238.393 74.3395C238.393 74.838 238.798 75.2422 239.296 75.2422H241.101C241.6 75.2422 242.004 74.838 242.004 74.3395C242.004 73.841 241.6 73.4369 241.101 73.4369H239.296Z" fill="black"/>
<path d="M228.337 81.0447C228.337 81.472 227.991 81.8184 227.563 81.8184C227.136 81.8184 226.79 81.472 226.79 81.0447V76.4026H214.153V85.0421H218.021V87.9361L220.644 85.0421H223.308C223.735 85.0421 224.082 85.3885 224.082 85.8158C224.082 86.243 223.735 86.5894 223.308 86.5894H221.33L218.27 89.9662C217.636 90.6654 216.474 90.2171 216.474 89.2734V86.5894H213.637C213.067 86.5894 212.605 86.1276 212.605 85.5579V75.8868C212.605 75.3171 213.067 74.8552 213.637 74.8552H227.305C227.875 74.8552 228.337 75.3171 228.337 75.8868V81.0447Z" fill="black"/>
<path d="M225.886 83.6238H238.523V92.2633H234.655V95.1573L232.032 92.2633H226.918C226.348 92.2633 225.886 91.8014 225.886 91.2317V83.6238ZM224.339 91.2317C224.339 92.656 225.493 93.8106 226.918 93.8106H231.346L234.406 97.1874C235.04 97.8866 236.202 97.4383 236.202 96.4946V93.8106H239.039C239.608 93.8106 240.07 93.3488 240.07 92.779V83.108C240.07 82.5383 239.608 82.0764 239.039 82.0764H225.37C224.801 82.0764 224.339 82.5383 224.339 83.108V91.2317Z" fill="black"/>
<path d="M224.081 77.9501C224.508 77.9501 224.854 78.2965 224.854 78.7238C224.854 79.1511 224.508 79.4974 224.081 79.4974H216.86C216.432 79.4974 216.086 79.1511 216.086 78.7238C216.086 78.2965 216.432 77.9501 216.86 77.9501H224.081Z" fill="black"/>
<path d="M235.686 84.6553C236.113 84.6553 236.46 85.0017 236.46 85.429C236.46 85.8563 236.113 86.2026 235.686 86.2026H228.465C228.038 86.2026 227.691 85.8563 227.691 85.429C227.691 85.0017 228.038 84.6553 228.465 84.6553H235.686Z" fill="black"/>
<path d="M223.436 80.2711C223.863 80.2711 224.21 80.6175 224.21 81.0448C224.21 81.4721 223.863 81.8185 223.436 81.8185H216.86C216.432 81.8185 216.086 81.4721 216.086 81.0448C216.086 80.6175 216.432 80.2711 216.86 80.2711H223.436Z" fill="black"/>
<path d="M235.686 86.9763C236.113 86.9763 236.46 87.3227 236.46 87.75C236.46 88.1773 236.113 88.5237 235.686 88.5237H228.465C228.038 88.5237 227.691 88.1773 227.691 87.75C227.691 87.3227 228.038 86.9763 228.465 86.9763H235.686Z" fill="black"/>
<path d="M221.373 82.5922C221.8 82.5922 222.146 82.9386 222.146 83.3658C222.146 83.7931 221.8 84.1395 221.373 84.1395H216.86C216.432 84.1395 216.086 83.7931 216.086 83.3658C216.086 82.9386 216.432 82.5922 216.86 82.5922H221.373Z" fill="black"/>
<path d="M235.428 89.2974C235.856 89.2974 236.202 89.6438 236.202 90.071C236.202 90.4983 235.856 90.8447 235.428 90.8447H228.465C228.038 90.8447 227.691 90.4983 227.691 90.071C227.691 89.6438 228.038 89.2974 228.465 89.2974H235.428Z" fill="black"/>
<path d="M26.986 139.488C26.1143 140.235 25.0736 141.615 24.7762 143.259C24.4941 144.818 24.8489 146.774 27.0323 148.868L25.4875 150.479C22.8115 147.912 22.1539 145.219 22.5805 142.862C22.9917 140.588 24.3808 138.782 25.5338 137.794L26.986 139.488Z" fill="black"/>
<path d="M24.39 134.896C22.5968 136.458 20.4677 139.262 19.8544 142.543C19.2597 145.725 20.0548 149.519 24.39 153.295L22.9247 154.978C18.037 150.721 16.9107 146.148 17.6611 142.133C18.3927 138.219 20.875 134.998 22.9247 133.213L24.39 134.896Z" fill="black"/>
<path d="M21.7806 129.696C18.911 132.15 15.4988 136.541 14.512 141.69C13.5459 146.731 14.8663 152.677 21.7738 158.489L20.3373 160.197C12.8651 153.91 11.1897 147.171 12.3206 141.27C13.4309 135.477 17.2086 130.67 20.3306 128L21.7806 129.696Z" fill="black"/>
<path d="M34.3382 139.488C35.2099 140.235 36.2506 141.615 36.548 143.259C36.8302 144.818 36.4753 146.774 34.292 148.868L35.8367 150.479C38.5127 147.912 39.1703 145.219 38.7438 142.862C38.3325 140.588 36.9434 138.782 35.7904 137.794L34.3382 139.488Z" fill="black"/>
<path d="M36.9304 134.896C38.7235 136.458 40.8526 139.262 41.4659 142.543C42.0606 145.725 41.2655 149.519 36.9304 153.295L38.3956 154.978C43.2833 150.721 44.4096 146.148 43.6593 142.133C42.9276 138.219 40.4453 134.998 38.3956 133.213L36.9304 134.896Z" fill="black"/>
<path d="M39.5436 129.696C42.4132 132.15 45.8254 136.541 46.8122 141.69C47.7783 146.731 46.4579 152.677 39.5504 158.489L40.9869 160.197C48.4591 153.91 50.1345 147.171 49.0036 141.27C47.8933 135.477 44.1156 130.67 40.9937 128L39.5436 129.696Z" fill="black"/>
<path d="M36.7568 163.503L34.6092 164.108L30.4637 149.402L26.2179 164.115L24.0742 163.496L30.4891 141.268L36.7568 163.503Z" fill="black"/>
<path d="M33.2443 154.104L26.5502 160.054L25.7266 159.128L32.4206 153.177L33.2443 154.104Z" fill="black"/>
<path d="M35.0062 159.401L34.1297 160.277L27.6836 153.831L28.5601 152.954L35.0062 159.401Z" fill="black"/>
<path d="M31.9644 151.533V152.773H29.1133V151.533H31.9644Z" fill="black"/>
<path d="M31.8405 142.608C31.8405 143.361 31.23 143.971 30.4769 143.971C29.7238 143.971 29.1133 143.361 29.1133 142.608C29.1133 141.855 29.7238 141.244 30.4769 141.244C31.23 141.244 31.8405 141.855 31.8405 142.608Z" fill="black"/>
<path d="M220.707 147.573C220.707 145.657 219.369 144.533 218.221 144.533C217.072 144.533 215.734 145.657 215.734 147.573C215.734 149.489 217.072 150.612 218.221 150.612V152.823C215.626 152.823 213.523 150.472 213.523 147.573C213.523 144.673 215.626 142.323 218.221 142.323C220.815 142.323 222.918 144.673 222.918 147.573C222.918 150.472 220.815 152.823 218.221 152.823V150.612C219.369 150.612 220.707 149.489 220.707 147.573Z" fill="black"/>
<path d="M242.262 147.296C242.262 145.38 240.924 144.257 239.775 144.257C238.627 144.257 237.289 145.38 237.289 147.296C237.289 149.213 238.627 150.336 239.775 150.336V152.546C237.181 152.546 235.078 150.196 235.078 147.296C235.078 144.397 237.181 142.047 239.775 142.047C242.37 142.047 244.473 144.397 244.473 147.296C244.473 150.196 242.37 152.546 239.775 152.546V150.336C240.924 150.336 242.262 149.213 242.262 147.296Z" fill="black"/>
<path d="M218.223 154.48C223.87 154.48 228.447 156.583 228.447 159.178C228.447 161.772 223.87 164.842 218.223 164.842V162.632C220.665 162.632 222.83 161.963 224.329 161.079C225.079 160.636 225.6 160.176 225.911 159.784C226.193 159.429 226.23 159.225 226.235 159.185C226.22 159.154 226.069 158.572 224.53 157.865C223.03 157.176 220.802 156.691 218.223 156.691C215.644 156.691 213.417 157.176 211.917 157.865C210.376 158.573 210.226 159.156 210.212 159.185C210.217 159.225 210.254 159.429 210.536 159.784C210.847 160.176 211.368 160.636 212.118 161.079C213.616 161.963 215.782 162.632 218.223 162.632V164.842C212.577 164.842 208 161.772 208 159.178C208 156.583 212.577 154.48 218.223 154.48Z" fill="black"/>
<path d="M239.778 154.48C245.424 154.48 250.002 156.583 250.002 159.178C250.002 161.772 245.424 164.842 239.778 164.842V162.632C242.219 162.632 244.385 161.963 245.884 161.079C246.634 160.636 247.155 160.176 247.466 159.784C247.748 159.429 247.785 159.225 247.79 159.185C247.775 159.154 247.624 158.572 246.084 157.865C244.584 157.176 242.357 156.691 239.778 156.691C237.199 156.691 234.972 157.176 233.472 157.865C231.93 158.573 231.781 159.156 231.766 159.185C231.771 159.225 231.809 159.429 232.09 159.784C232.401 160.176 232.923 160.636 233.673 161.079C235.171 161.963 237.337 162.632 239.778 162.632V164.842C234.132 164.842 229.555 161.772 229.555 159.178C229.555 156.583 234.132 154.48 239.778 154.48Z" fill="black"/>
<path d="M232.141 124.916L227.124 137.626H216.672L211.175 141.985V137.626H208.965V124.916H232.141ZM211.175 135.415H213.386V137.411L215.902 135.415H225.62L228.892 127.126H211.175V135.415Z" fill="black"/>
<path d="M232.166 128.508L229.356 138.873H240.493L245.722 143.128V138.873H248.07V128.508H232.166ZM245.86 136.663H243.511V138.479L241.279 136.663H232.246L233.857 130.718H245.86V136.663Z" fill="black"/>
</svg>
