<svg width="260" height="178" viewBox="0 0 260 178" fill="none" xmlns="http://www.w3.org/2000/svg">
<path d="M234.527 125H202.011C200.348 125 199 126.348 199 128.011V150.591C199 152.254 200.348 153.602 202.011 153.602H234.527C236.19 153.602 237.538 152.254 237.538 150.591V128.011C237.538 126.348 236.19 125 234.527 125Z" stroke="black" stroke-width="2.4086"/>
<path d="M210.066 160.978C214.161 159.894 214.081 156.111 213.529 154.354H223.163C222.41 159.021 224.719 160.727 226.776 160.978V163.236H210.066V160.978Z" fill="black"/>
<path d="M236.407 149.236H199.977V152.849H236.407V149.236Z" fill="black"/>
<path d="M42.9321 101.589V99.6614C42.9321 99.5013 43.0619 99.3716 43.2219 99.3716H49.6701C49.8301 99.3716 49.9599 99.5013 49.9599 99.6614V101.572C49.9599 101.721 50.0739 101.845 50.2213 101.867C52.3317 102.181 52.6891 103.601 52.5953 104.298H40.4432C40.336 102.813 41.7736 102.104 42.6917 101.884C42.8296 101.851 42.9321 101.731 42.9321 101.589Z" fill="black"/>
<path d="M27.8984 81.8389H33.5494" stroke="black" stroke-width="2.31832"/>
<path d="M27.8984 86.4751H33.5494" stroke="black" stroke-width="2.31832"/>
<path d="M25 106.036V79.2307C25 78.1104 25.9082 77.2021 27.0285 77.2021H34.5631C35.6834 77.2021 36.5916 78.1104 36.5916 79.2307V106.036C36.5916 107.157 35.6834 108.065 34.5631 108.065H27.0285C25.9082 108.065 25 107.157 25 106.036Z" stroke="black" stroke-width="2.31832"/>
<path d="M31.2344 73H60.9379C61.5781 73 62.0971 73.519 62.0971 74.1592V95.3139C62.0971 95.9541 61.5781 96.473 60.9379 96.473H40.2179" stroke="black" stroke-width="2.31832"/>
<path d="M61.5262 94.4443H40.2266" stroke="black" stroke-width="2.31832"/>
<circle cx="29.6365" cy="99.9509" r="1.44895" fill="black"/>
<path d="M114.414 147.682V131.35C114.414 128.395 116.809 126 119.764 126H145.952C148.906 126 151.302 128.395 151.302 131.35V147.682C151.302 150.637 148.906 153.032 145.952 153.032H119.764C116.809 153.032 114.414 150.637 114.414 147.682Z" stroke="black" stroke-width="2.25269" stroke-linecap="round"/>
<path d="M150.897 163.592H114.391C113.623 163.592 113 162.969 113 162.201C113 161.602 113.383 161.071 113.951 160.882L119.357 159.08C119.902 158.898 120.474 158.805 121.049 158.805H143.982C144.537 158.805 145.088 158.891 145.616 159.061L151.32 160.89C151.893 161.074 152.281 161.607 152.281 162.208C152.281 162.973 151.662 163.592 150.897 163.592Z" fill="black"/>
<path d="M127.641 155.426H137.919" stroke="black" stroke-width="2.81586"/>
<path d="M132.164 95.7852H132.917" stroke="black" stroke-width="2.4086" stroke-linecap="round"/>
<path d="M153.398 87.957V76.8172C153.398 74.1567 151.241 72 148.581 72H116.817C114.157 72 112 74.1567 112 76.8172V94.8817C112 97.5422 114.157 99.6989 116.817 99.6989H148.581C151.241 99.6989 153.398 97.5422 153.398 94.8817V92.4731C153.398 92.3068 153.263 92.172 153.097 92.172H112" stroke="black" stroke-width="2.4086" stroke-linecap="round"/>
<path d="M130.211 99.8491C129.91 101.154 128.705 103.944 126.297 104.666" stroke="black" stroke-width="2.4086"/>
<path d="M135.031 99.8491C135.332 101.154 136.537 103.944 138.945 104.666" stroke="black" stroke-width="2.4086"/>
<path d="M122.984 104.667H142.253" stroke="black" stroke-width="2.4086" stroke-linecap="round"/>
<path d="M45.1745 129.517H59.4756V154.355H26.5078V147.732" stroke="black" stroke-width="1.80645"/>
<path d="M27.4141 153H38.8549V151.495H46.0807V153H58.5754" stroke="black" stroke-width="1.50538"/>
<path d="M36.4357 159.172L38.6937 157.366H46.9733L48.7797 159.172H51.0378V160.979H34.3281V159.172H36.4357Z" fill="black"/>
<circle cx="35.086" cy="135.086" r="9.33333" stroke="black" stroke-width="1.50538"/>
<path d="M29.0083 143.441L30.137 142.445L28.1451 140.187L27.0163 141.183L28.0123 142.312L29.0083 143.441ZM24.4571 143.441C23.8337 143.991 23.7743 144.943 24.3243 145.566C24.8744 146.189 25.8257 146.249 26.4491 145.699L25.4531 144.57L24.4571 143.441ZM28.0123 142.312L27.0163 141.183L24.4571 143.441L25.4531 144.57L26.4491 145.699L29.0083 143.441L28.0123 142.312Z" fill="black"/>
<path d="M31.625 132.376H37.9476" stroke="black" stroke-width="1.50538" stroke-linecap="square"/>
<path d="M31.625 135.237H37.9476" stroke="black" stroke-width="1.50538" stroke-linecap="square"/>
<path d="M31.625 137.946H35.6895" stroke="black" stroke-width="1.50538" stroke-linecap="square"/>
<path d="M27.7109 151.495H38.3991" stroke="black" stroke-width="1.50538" stroke-linecap="square"/>
<path d="M47.125 151.495H58.5659" stroke="black" stroke-width="1.50538" stroke-linecap="square"/>
<path d="M216.317 84.5795L216.657 84.8813L215.151 86.3867L214.317 85.6568C214.086 85.4549 213.768 85.3903 213.467 85.449C210.513 86.0256 209.938 83.4521 210.033 82.0211L211.359 83.0628C211.813 83.4194 212.455 83.4039 212.892 83.026L213.296 82.6756C213.868 82.18 213.846 81.2861 213.251 80.8185L212.291 80.0641C214.863 79.6206 215.525 81.0006 215.514 82.34C215.508 83.1671 215.699 84.0299 216.317 84.5795Z" fill="black"/>
<path d="M217.894 89.5489L217.554 89.2471L219.06 87.7417L219.894 88.4716C220.125 88.6735 220.443 88.7382 220.744 88.6794C223.698 88.1028 224.273 90.6764 224.178 92.1073L222.852 91.0656C222.398 90.709 221.755 90.7245 221.319 91.1025L220.915 91.4529C220.343 91.9484 220.365 92.8423 220.96 93.3099L221.92 94.0643C219.348 94.5078 218.686 93.1278 218.697 91.7884C218.703 90.9613 218.512 90.0985 217.894 89.5489Z" fill="black"/>
<path d="M215.293 88.9459L220.562 83.8276" stroke="black" stroke-width="1.2043" stroke-linecap="square"/>
<path d="M216.65 90.301L213.94 87.5913L210.384 91.3771C209.765 92.0358 209.781 93.0667 210.42 93.7057C211.045 94.3304 212.048 94.3617 212.71 93.7772L216.65 90.301Z" fill="black" stroke="black" stroke-width="1.2043" stroke-linecap="square"/>
<path d="M220.414 81.4189V83.8275L222.973 83.978L224.627 80.1607C224.736 79.9102 224.482 79.6562 224.231 79.7647L220.414 81.4189Z" fill="black"/>
<path d="M233.968 76H219.667H201V94.2151V100.839H233.968V76Z" stroke="black" stroke-width="2.70968"/>
<path d="M201.898 98.8814H213.339V97.376H220.565V98.8814H233.06" stroke="black" stroke-width="2.10753"/>
<path d="M210.932 105.656L213.19 103.849H221.469L223.276 105.656H225.534V107.462H208.824V105.656H210.932Z" fill="black"/>
<path d="M202.207 97.376H212.895" stroke="black" stroke-width="2.10753" stroke-linecap="square"/>
<path d="M222.371 97.376H233.059" stroke="black" stroke-width="2.10753" stroke-linecap="square"/>
<path d="M121.82 55.2694C121.82 52.8584 123.775 50.9038 126.186 50.9038H138.078C140.489 50.9038 142.444 52.8584 142.444 55.2694" stroke="black" stroke-width="2.70968"/>
<path d="M122.72 22H132.627H142.29C145.45 22 148.011 24.5611 148.011 27.7204V41.2688C148.011 44.4281 145.45 46.9892 142.29 46.9892H122.72C119.561 46.9892 117 44.4281 117 41.2688V27.7204C117 24.5611 119.561 22 122.72 22Z" stroke="black" stroke-width="2.70968"/>
<path d="M199 42.7634V27.7097C199 26.2132 200.213 25 201.71 25H231.667C233.163 25 234.376 26.2132 234.376 27.7097V42.7634C234.376 44.26 233.163 45.4731 231.667 45.4731H201.71C200.213 45.4731 199 44.26 199 42.7634Z" stroke="black" stroke-width="2.70968"/>
<path d="M213.3 46.0752C213.501 46.7275 213.451 48.9956 211.645 51.0429H221.881C221.179 50.2401 219.894 47.9118 220.376 46.2257" stroke="black" stroke-width="2.70968"/>
<path d="M50.9421 41.1467H28.2976C28.1332 41.1467 28 41.0134 28 40.8491V20.2976C28 20.1332 28.1332 20 28.2976 20H58.6245C58.7888 20 58.922 20.1332 58.922 20.2976V31.1718" stroke="black" stroke-width="0.892664" stroke-linecap="round"/>
<path d="M51.8444 47.7303H61.2242C61.3885 47.7303 61.5217 47.597 61.5217 47.4327V32.0681C61.5217 31.9037 61.3885 31.7705 61.2242 31.7705H51.8444C51.6801 31.7705 51.5469 31.9037 51.5469 32.0681V47.4327C51.5469 47.597 51.6801 47.7303 51.8444 47.7303Z" stroke="black" stroke-width="0.892664" stroke-linecap="round"/>
<path d="M53.7344 33.9648H59.3203" stroke="black" stroke-width="0.892664" stroke-linecap="round"/>
<path d="M53.5391 36.1592H59.125" stroke="black" stroke-width="0.892664" stroke-linecap="round"/>
<circle cx="56.5321" cy="42.7425" r="2.94511" stroke="black" stroke-width="0.892664"/>
<path d="M41.7676 41.5454V43.0433C41.7676 43.2077 41.6343 43.3409 41.47 43.3409H38.9713C38.8523 43.3409 38.7447 43.4118 38.6978 43.5212L37.7559 45.7191C37.6717 45.9154 37.8158 46.1338 38.0294 46.1338H49.266C49.4872 46.1338 49.631 45.9011 49.5321 45.7032L48.4332 43.5054C48.3828 43.4046 48.2798 43.3409 48.1671 43.3409H45.6561C45.4917 43.3409 45.3585 43.2077 45.3585 43.0433V41.5454" stroke="black" stroke-width="0.892664" stroke-linecap="round"/>
<path d="M51.3442 49.7251H30.0213C29.8895 49.7251 29.7734 49.8118 29.736 49.9381L28.3163 54.7294C28.2598 54.9201 28.4027 55.1115 28.6016 55.1115H53.2962C53.5075 55.1115 53.6515 54.8974 53.5718 54.7017L51.6197 49.9104C51.5741 49.7983 51.4652 49.7251 51.3442 49.7251Z" stroke="black" stroke-width="0.892664" stroke-linecap="round"/>
<path d="M59.7881 55.1115H56.4602C56.2279 55.1115 56.0852 54.857 56.2063 54.6587L57.6164 52.3514C57.8484 51.9717 58.3999 51.9717 58.6319 52.3514L60.042 54.6587C60.1631 54.857 60.0204 55.1115 59.7881 55.1115Z" stroke="black" stroke-width="0.892664" stroke-linecap="round"/>
</svg>
