<svg width="260" height="178" viewBox="0 0 260 178" fill="none" xmlns="http://www.w3.org/2000/svg">
<path d="M12.1108 25.3991C10.4518 22.5063 9.65073 20.1441 9.16771 17.7496C8.45334 14.2083 10.0882 10.7489 12.7964 8.54158C13.941 7.60867 15.2532 7.92741 15.93 9.1417L17.4581 11.8831C18.6693 14.056 19.2748 15.1424 19.1547 16.2943C19.0346 17.4461 18.2179 18.3843 16.5845 20.2605L12.1108 25.3991ZM12.1108 25.3991C15.4689 31.2545 20.7387 36.5272 26.6009 39.8892M26.6009 39.8892C29.4937 41.5482 31.8559 42.3493 34.2504 42.8323C37.7917 43.5467 41.2511 41.9118 43.4584 39.2036C44.3913 38.059 44.0726 36.7468 42.8583 36.07L40.1169 34.5419C37.944 33.3307 36.8576 32.7252 35.7057 32.8453C34.5539 32.9654 33.6157 33.7821 31.7395 35.4155L26.6009 39.8892Z" stroke="black" stroke-width="3.10484" stroke-linejoin="round"/>
<path d="M42.25 20.3347L28.25 20.3347M42.25 20.3347C42.25 21.5601 38.76 23.8495 37.875 24.7097M42.25 20.3347C42.25 19.1093 38.76 16.8199 37.875 15.9597" stroke="black" stroke-width="2.82258" stroke-linecap="round" stroke-linejoin="round"/>
<path d="M114.2 25.8958C112.493 22.9204 111.669 20.4907 111.173 18.0279C110.438 14.3855 112.119 10.8274 114.905 8.55704C116.082 7.5975 117.432 7.92533 118.128 9.17429L119.7 11.9939C120.945 14.2289 121.568 15.3463 121.445 16.531C121.321 17.7158 120.481 18.6807 118.801 20.6105L114.2 25.8958ZM114.2 25.8958C117.654 31.9183 123.074 37.3415 129.103 40.7994M129.103 40.7994C132.079 42.5058 134.508 43.3298 136.971 43.8266C140.614 44.5613 144.172 42.8798 146.442 40.0943C147.402 38.917 147.074 37.5674 145.825 36.8713L143.005 35.2996C140.77 34.0538 139.653 33.4309 138.468 33.5545C137.283 33.678 136.318 34.5181 134.389 36.1981L129.103 40.7994Z" stroke="black" stroke-width="3.14278" stroke-linejoin="round"/>
<path d="M132.602 16.6971C135.163 17.785 137.216 19.8379 138.304 22.3996M133.779 8C140.146 9.83732 145.164 14.8552 147.001 21.2218" stroke="black" stroke-width="3.14278" stroke-linecap="round"/>
<path d="M239.603 33.0061C232.224 30.323 227.585 22.9443 226.187 19.5904C237.077 7.01313 209.197 1.14378 216.12 19.5904C218.635 26.2983 226.858 36.8631 239.603 42.2295C257.211 48.0989 252.18 22.1058 239.603 33.0061Z" stroke="black" stroke-width="3.06835"/>
<path d="M108.149 79.8132C105.94 62.7689 129.199 68.0012 117.251 86.0997L126.212 95.0608C127.618 96.4668 128.883 96.5935 130.64 95.2756C145.4 84.206 149.266 109.86 130.64 104.413C123.963 102.129 109.379 89.3017 108.149 79.8132Z" stroke="black" stroke-width="3.13347"/>
<path d="M151.723 65.7561C138.368 51.3476 122.731 66.1075 128.679 86.666C130.989 86.1388 132.044 86.4903 132.922 86.666C156.858 91.4568 158.075 72.6089 151.723 65.7561Z" stroke="black" stroke-width="3.13347"/>
<mask id="path-8-inside-1_1972_3696" fill="white">
<ellipse cx="133.866" cy="74.1909" rx="2.28428" ry="2.6357" transform="rotate(9.85158 133.866 74.1909)"/>
</mask>
<path d="M136.117 74.5817L133.647 74.1528C133.622 74.2959 133.559 74.3568 133.553 74.3618C133.552 74.3627 133.575 74.3438 133.629 74.3281C133.687 74.3114 133.763 74.3039 133.844 74.3179L133.415 76.7878L132.986 79.2576C135.913 79.7659 138.16 77.4652 138.586 75.0106L136.117 74.5817ZM133.415 76.7878L133.844 74.3179C133.925 74.332 133.994 74.3649 134.043 74.4001C134.089 74.433 134.104 74.4586 134.103 74.4574C134.099 74.4506 134.06 74.372 134.085 74.229L131.615 73.8001L129.146 73.3712C128.719 75.8258 130.059 78.7493 132.986 79.2576L133.415 76.7878ZM131.615 73.8001L134.085 74.229C134.11 74.086 134.173 74.025 134.179 74.02C134.18 74.0191 134.157 74.0381 134.103 74.0537C134.046 74.0705 133.969 74.0779 133.888 74.0639L134.317 71.5941L134.746 69.1243C131.819 68.616 129.572 70.9166 129.146 73.3712L131.615 73.8001ZM134.317 71.5941L133.888 74.0639C133.807 74.0498 133.738 74.017 133.689 73.9818C133.643 73.9488 133.628 73.9233 133.629 73.9245C133.633 73.9313 133.672 74.0098 133.647 74.1528L136.117 74.5817L138.586 75.0106C139.013 72.5561 137.673 69.6326 134.746 69.1243L134.317 71.5941Z" fill="black" mask="url(#path-8-inside-1_1972_3696)"/>
<mask id="path-10-inside-2_1972_3696" fill="white">
<ellipse cx="141.245" cy="74.1909" rx="2.28428" ry="2.6357" transform="rotate(9.85158 141.245 74.1909)"/>
</mask>
<path d="M143.496 74.5817L141.026 74.1528C141.001 74.2959 140.938 74.3568 140.932 74.3618C140.931 74.3627 140.954 74.3438 141.008 74.3281C141.065 74.3114 141.142 74.3039 141.223 74.3179L140.794 76.7878L140.365 79.2576C143.292 79.7659 145.539 77.4652 145.965 75.0106L143.496 74.5817ZM140.794 76.7878L141.223 74.3179C141.304 74.332 141.373 74.3649 141.422 74.4001C141.468 74.433 141.483 74.4586 141.482 74.4574C141.478 74.4506 141.439 74.372 141.464 74.229L138.994 73.8001L136.525 73.3712C136.098 75.8258 137.438 78.7493 140.365 79.2576L140.794 76.7878ZM138.994 73.8001L141.464 74.229C141.489 74.086 141.552 74.025 141.558 74.02C141.559 74.0191 141.536 74.0381 141.482 74.0537C141.424 74.0705 141.348 74.0779 141.267 74.0639L141.696 71.5941L142.125 69.1243C139.198 68.616 136.951 70.9166 136.525 73.3712L138.994 73.8001ZM141.696 71.5941L141.267 74.0639C141.186 74.0498 141.117 74.017 141.068 73.9818C141.022 73.9488 141.007 73.9233 141.008 73.9245C141.012 73.9313 141.051 74.0098 141.026 74.1528L143.496 74.5817L145.965 75.0106C146.392 72.5561 145.052 69.6326 142.125 69.1243L141.696 71.5941Z" fill="black" mask="url(#path-10-inside-2_1972_3696)"/>
<mask id="path-12-inside-3_1972_3696" fill="white">
<ellipse cx="148.632" cy="74.1909" rx="2.28428" ry="2.6357" transform="rotate(9.85158 148.632 74.1909)"/>
</mask>
<path d="M150.882 74.5817L148.412 74.1528C148.388 74.2959 148.325 74.3568 148.319 74.3618C148.318 74.3627 148.34 74.3438 148.394 74.3281C148.452 74.3114 148.529 74.3039 148.61 74.3179L148.181 76.7878L147.752 79.2576C150.679 79.7659 152.926 77.4652 153.352 75.0106L150.882 74.5817ZM148.181 76.7878L148.61 74.3179C148.69 74.332 148.76 74.3649 148.809 74.4001C148.854 74.433 148.869 74.4586 148.869 74.4574C148.865 74.4506 148.826 74.372 148.851 74.229L146.381 73.8001L143.911 73.3712C143.485 75.8258 144.825 78.7493 147.752 79.2576L148.181 76.7878ZM146.381 73.8001L148.851 74.229C148.876 74.086 148.938 74.025 148.945 74.02C148.946 74.0191 148.923 74.0381 148.869 74.0537C148.811 74.0705 148.735 74.0779 148.654 74.0639L149.083 71.5941L149.512 69.1243C146.585 68.616 144.338 70.9166 143.911 73.3712L146.381 73.8001ZM149.083 71.5941L148.654 74.0639C148.573 74.0498 148.503 74.017 148.455 73.9818C148.409 73.9488 148.394 73.9233 148.395 73.9245C148.399 73.9313 148.437 74.0098 148.412 74.1528L150.882 74.5817L153.352 75.0106C153.778 72.5561 152.438 69.6326 149.512 69.1243L149.083 71.5941Z" fill="black" mask="url(#path-12-inside-3_1972_3696)"/>
<path d="M41 79L33 79L33 71M45 67L33.8117 78.1883" stroke="black" stroke-width="2.90323" stroke-linecap="round" stroke-linejoin="round"/>
<path d="M21.3165 72.4245L20.5112 70.6125C19.9846 69.4278 19.7214 68.8354 19.3276 68.382C18.8341 67.8139 18.1909 67.3959 17.4713 67.1757C16.8972 67 16.2489 67 14.9524 67C13.0558 67 12.1075 67 11.3115 67.3646C10.3737 67.794 9.52687 68.7266 9.18945 69.7012C8.90302 70.5286 8.98507 71.3789 9.14916 73.0794C10.8958 91.1804 20.8196 101.104 38.9206 102.851C40.6211 103.015 41.4714 103.097 42.2988 102.811C43.2734 102.473 44.206 101.626 44.6354 100.689C45 99.8925 45 98.9442 45 97.0476C45 95.7511 45 95.1028 44.8243 94.5287C44.6041 93.8091 44.1861 93.1659 43.618 92.6724C43.1646 92.2787 42.5722 92.0154 41.3875 91.4888L39.5755 90.6835C38.2925 90.1132 37.651 89.8281 36.999 89.7661C36.3752 89.7068 35.7461 89.7943 35.1622 90.0217C34.552 90.2593 34.0126 90.7088 32.934 91.6076C31.8603 92.5024 31.3234 92.9498 30.6675 93.1894C30.086 93.4018 29.3171 93.4805 28.7046 93.3903C28.0137 93.2884 27.4847 93.0057 26.4266 92.4403C23.1344 90.6809 21.3191 88.8656 19.5597 85.5734C18.9943 84.5153 18.7116 83.9863 18.6097 83.2954C18.5195 82.6829 18.5982 81.914 18.8106 81.3325C19.0502 80.6766 19.4976 80.1397 20.3924 79.066C21.2912 77.9874 21.7407 77.448 21.9783 76.8378C22.2057 76.2539 22.2932 75.6248 22.2339 75.001C22.1719 74.349 21.8868 73.7075 21.3165 72.4245Z" stroke="black" stroke-width="3.19355" stroke-linecap="round"/>
<path d="M249 65L211 103" stroke="black" stroke-width="3.60345" stroke-linecap="round" stroke-linejoin="round"/>
<path d="M221.733 83.8223C221.405 83.1808 221.223 82.7369 221.144 82.2007C221.048 81.5542 221.131 80.7426 221.356 80.1288C221.609 79.4364 222.081 78.8697 223.025 77.7363C223.974 76.5978 224.448 76.0285 224.699 75.3844C224.939 74.768 225.032 74.104 224.969 73.4455C224.904 72.7573 224.603 72.0802 224.001 70.7258L223.151 68.8132C222.595 67.5626 222.317 66.9373 221.901 66.4588C221.38 65.8591 220.702 65.4179 219.942 65.1855C219.336 65 218.652 65 217.283 65C215.281 65 214.28 65 213.44 65.3848C212.45 65.8382 211.556 66.8225 211.2 67.8513C210.898 68.7246 210.984 69.6221 211.157 71.4171C211.832 78.4033 213.66 84.2355 216.642 88.9138M220.397 93.6034C225.634 98.841 233.03 101.921 242.583 102.843C244.378 103.016 245.275 103.102 246.149 102.8C247.178 102.444 248.162 101.55 248.615 100.56C249 99.7199 249 98.7189 249 96.7169C249 95.3484 249 94.6641 248.815 94.058C248.582 93.2985 248.141 92.6195 247.541 92.0986C247.063 91.683 246.437 91.4051 245.187 90.8493L243.274 89.9992C241.92 89.3973 241.243 89.0963 240.555 89.0309C239.896 88.9683 239.232 89.0607 238.616 89.3007C237.972 89.5515 237.402 90.0259 236.264 90.9747C235.13 91.9192 234.564 92.3914 233.871 92.6444C233.257 92.8686 232.446 92.9517 231.799 92.8564C231.07 92.7489 230.512 92.4505 229.395 91.8536C227.657 90.9251 226.309 89.9818 225.164 88.8362" stroke="black" stroke-width="3.60345" stroke-linecap="round" stroke-linejoin="round"/>
<path d="M249 135V127H241M237 139L248.188 127.812" stroke="black" stroke-width="2.90323" stroke-linecap="round" stroke-linejoin="round"/>
<path d="M225.317 132.424L224.511 130.613C223.985 129.428 223.721 128.835 223.328 128.382C222.834 127.814 222.191 127.396 221.471 127.176C220.897 127 220.249 127 218.952 127C217.056 127 216.108 127 215.311 127.365C214.374 127.794 213.527 128.727 213.189 129.701C212.903 130.529 212.985 131.379 213.149 133.079C214.896 151.18 224.82 161.104 242.921 162.851C244.621 163.015 245.471 163.097 246.299 162.811C247.273 162.473 248.206 161.626 248.635 160.689C249 159.892 249 158.944 249 157.048C249 155.751 249 155.103 248.824 154.529C248.604 153.809 248.186 153.166 247.618 152.672C247.165 152.279 246.572 152.015 245.387 151.489L243.576 150.683C242.292 150.113 241.651 149.828 240.999 149.766C240.375 149.707 239.746 149.794 239.162 150.022C238.552 150.259 238.013 150.709 236.934 151.608C235.86 152.502 235.323 152.95 234.667 153.189C234.086 153.402 233.317 153.481 232.705 153.39C232.014 153.288 231.485 153.006 230.427 152.44C227.134 150.681 225.319 148.866 223.56 145.573C222.994 144.515 222.712 143.986 222.61 143.295C222.519 142.683 222.598 141.914 222.811 141.333C223.05 140.677 223.498 140.14 224.392 139.066C225.291 137.987 225.741 137.448 225.978 136.838C226.206 136.254 226.293 135.625 226.234 135.001C226.172 134.349 225.887 133.708 225.317 132.424Z" stroke="black" stroke-width="3.19355" stroke-linecap="round"/>
<path d="M10.8453 141.016C8.1509 131.765 12.3978 125.424 16.5587 122.566C17.0569 122.224 17.726 122.376 18.0755 122.869L24.4912 131.921C26.0604 134.275 25.7681 137.671 21.4947 140.555C21.0719 140.841 20.8486 141.354 21.0307 141.83C21.8336 143.93 24.1664 147.956 28.0774 151.304C28.5873 151.74 29.3509 151.613 29.8242 151.138C32.3048 148.644 36.3512 148.248 38.5465 150.843C41.6705 154.535 42.783 156.833 43.8199 158.456C44.1081 158.907 44.1056 159.499 43.7355 159.886C41.0991 162.641 34.9997 166.288 27.3824 162.099C23.2183 159.809 14.1512 151.599 10.8453 141.016Z" stroke="black" stroke-width="3.22957"/>
<path d="M113.695 130.23V124.216C113.695 123.266 114.012 122 115.911 122H145.983C147.883 122 151.048 122.633 151.048 127.065V160.619C151.048 162.835 150.415 166.317 145.983 166.317H115.911C114.962 166.317 113.695 166.001 113.695 163.468V157.531M113.695 139.41V148.907" stroke="black" stroke-width="2.80675"/>
<circle cx="132.69" cy="137.827" r="4.29453" stroke="black" stroke-width="2.80675" stroke-linecap="round"/>
<path d="M122.795 153.795C122.627 148.469 125.892 145.83 128.04 144.976C128.377 144.842 128.75 144.908 129.068 145.083C131.933 146.658 134.528 145.952 135.945 145.146C136.3 144.944 136.725 144.857 137.095 145.03C139.034 145.938 141.848 148.577 141.642 153.795C141.617 154.438 141.069 154.921 140.426 154.921H124.007C123.364 154.921 122.816 154.438 122.795 153.795Z" stroke="black" stroke-width="2.80675" stroke-linecap="round"/>
<path d="M108.949 134.662H118.129" stroke="black" stroke-width="2.80675" stroke-linecap="round"/>
<path d="M108.949 153.022H118.129" stroke="black" stroke-width="2.80675" stroke-linecap="round"/>
</svg>
