<svg width="260" height="178" viewBox="0 0 260 178" fill="none" xmlns="http://www.w3.org/2000/svg">
<circle cx="37.4862" cy="29.0334" r="4.44686" stroke="black" stroke-width="2.13334"/>
<path d="M33.6094 35.6699V42.0003C37.3667 37.4261 40.4162 40.0944 41.4713 42.0003V35.6699" stroke="black" stroke-width="2.13334"/>
<path d="M42.0864 20.0482V8.40857H19.8281" stroke="black" stroke-width="2.13334"/>
<path d="M14.6156 12.1864V11.0633C14.6156 6.87711 9 7.08131 9 11.0633V35.3636L11.961 40.9793L14.6156 35.3636V12.1864ZM14.6156 12.1864C15.4324 11.9822 17.985 12.2885 17.985 15.3516V27.0934" stroke="black" stroke-width="2.13334"/>
<path d="M15.6367 41.4897H30.3394" stroke="black" stroke-width="2.13334"/>
<path d="M18.2891 34.5469L27.8867 34.5469" stroke="black" stroke-width="2.13334"/>
<path d="M20.9453 29.0332L27.8883 29.0332" stroke="black" stroke-width="2.13334"/>
<path d="M20.9453 23.5199L27.8883 23.5199" stroke="black" stroke-width="2.13334"/>
<path d="M20.9453 18.0063L31.1555 18.0063" stroke="black" stroke-width="2.13334"/>
<path d="M35.2383 18.0063L38.7098 18.0063" stroke="black" stroke-width="2.13334"/>
<path d="M136.307 28.127C136.413 27.3577 136.582 26.4635 136.821 25.4914M145.093 11.8739C140.417 15.1111 137.901 21.0973 136.821 25.4914M136.821 25.4914C133.233 19.3415 133.673 6.16328 153 7.04184C152.756 12.3131 149.179 23.3828 136.821 25.4914Z" stroke="black" stroke-width="2.5843"/>
<path d="M130.161 37.7911V28.1271H144.218V37.7911M130.161 37.7911H136.75M130.161 37.7911C129.076 38.084 127.117 39.4604 127.965 42.6231H146.854C147.294 39.5482 145.097 38.084 144.218 37.7911M144.218 37.7911H141.143" stroke="black" stroke-width="2.5843"/>
<path d="M114.348 23.2435H129.722" stroke="black" stroke-width="2.5843"/>
<path d="M119.18 17.9724L129.722 17.9724" stroke="black" stroke-width="2.5843"/>
<path d="M131.917 12.9335H111.271L106 40.6078H123.571" stroke="black" stroke-width="2.5843"/>
<path d="M243.504 20.384V11.024C243.504 9.872 243.36 8 240.48 8H218.88C217.584 8 216 8.432 216 11.024V39.824C216 41.984 216.288 44 218.88 44H228.528" stroke="black" stroke-width="2.592"/>
<path d="M246.851 32.768L240.482 41.8392L232.418 44V36.944L239.33 27.44M246.851 32.768L249.986 28.304L242.354 23.12L239.33 27.44M246.851 32.768L239.33 27.44" stroke="black" stroke-width="2.592"/>
<path d="M220.609 15.0559H238.897" stroke="black" stroke-width="2.592"/>
<path d="M220.609 27.728H232.129" stroke="black" stroke-width="2.592"/>
<path d="M220.609 21.3921H228.097" stroke="black" stroke-width="2.592"/>
<path d="M230.543 21.3921H237.455" stroke="black" stroke-width="2.592"/>
<path d="M9 102.44V75.7305H15.9677V79.9111H37.3355V75.7305H45V102.44" stroke="black" stroke-width="2.20645"/>
<path d="M19.3555 71.794V76.0685H34.1025V71.794H30.4692V66.4508H22.7751V71.794H19.3555Z" stroke="black" stroke-width="2.0304"/>
<path d="M21.7773 85.2532H41.5193" stroke="black" stroke-width="2.20645"/>
<path d="M21.7773 97.3306H41.5193" stroke="black" stroke-width="2.20645"/>
<path d="M21.7773 88.9692H37.5709" stroke="black" stroke-width="2.20645"/>
<path d="M21.7773 101.047H37.5709" stroke="black" stroke-width="2.20645"/>
<path d="M12.9492 86.879L15.0395 88.9693L18.7557 85.2532" stroke="black" stroke-width="2.20645"/>
<path d="M12.9492 98.4918L15.0395 100.582L18.7557 96.866" stroke="black" stroke-width="2.20645"/>
<path d="M139.782 76.2509V66.9855C139.782 66.1913 139.649 65 138.061 65H111.853C111.059 65 110 65.2647 110 66.9855V95.4436L113.971 99.4145" stroke="black" stroke-width="2.36026"/>
<path d="M113.973 95.9731H116.355C117.414 95.9731 117.811 96.1584 117.811 97.4291V104.047H138.328C139.122 104.047 140.181 103.65 140.181 101.797V95.576" stroke="black" stroke-width="2.36026"/>
<path d="M120.062 84.9869H129.857" stroke="black" stroke-width="2.36026"/>
<path d="M116.75 91.4727L125.751 91.4727" stroke="black" stroke-width="2.36026"/>
<path d="M121.777 98.3556L133.69 98.3556" stroke="black" stroke-width="2.36026"/>
<path d="M143.224 85.6487L133.562 93.9876H128.797L129.459 88.9578L142.166 78.2364C144.019 78.1922 147.275 79.1894 145.475 83.5309M143.224 85.6487L141.107 83.5309M143.224 85.6487C143.886 86.3105 145.579 87.8989 144.52 88.9578L139.49 93.4582" stroke="black" stroke-width="2.36026"/>
<path d="M127.206 70.0298C131.177 67.6473 135.412 75.4567 125.485 80.4865C112.911 76.9127 120.588 65.2647 125.22 72.4124" stroke="black" stroke-width="2.36026"/>
<path d="M226.066 75.6893H238.341" stroke="black" stroke-width="2.63274"/>
<path d="M226.066 80.1099H238.341" stroke="black" stroke-width="2.63274"/>
<path d="M247.697 82.703V63.9989H223.148M223.148 63.9989L214.965 72.1819M223.148 63.9989V72.1819H214.965M214.965 72.1819V82.703" stroke="black" stroke-width="2.63274"/>
<path d="M243.673 90.9391L243.626 89.6513C244.77 88.6497 247.661 87.2475 250.064 89.6513L250.494 100.812C249.635 101.527 247.146 102.614 244.055 101.241L244.007 99.953M243.673 90.9391L238.904 85.7882C229.891 83.6417 219.846 95.2315 232.895 91.7976M243.673 90.9391L244.007 99.953M244.007 99.953C243.022 100.239 240.193 100.898 236.759 101.241" stroke="black" stroke-width="2.63274"/>
<path d="M217.868 100.382C216.723 101.527 213.747 103.129 211 100.382V89.2218C212.145 88.0772 215.121 86.4746 217.868 89.2218V90.9388M217.868 100.382V90.9388M217.868 100.382L223.448 105.533L232.891 101.67C233.464 100.954 234.437 98.8368 233.75 96.0897M217.868 90.9388C219.013 90.3664 220.923 89.5652 223.67 89.2218" stroke="black" stroke-width="2.63274"/>
<path d="M13.2669 152.379L20.1992 159.311V162.47H16.7769L9.84464 155.538C7.38762 153.081 10.8099 150.009 13.2669 152.379Z" stroke="black" stroke-width="2.30512"/>
<path d="M9.24075 146.876V131.944C9.15915 130.639 9.82822 128.028 13.1573 128.028H34.6984C35.8407 128.109 38.1253 129.007 38.1253 131.944V158.87C38.1253 164.256 44.0001 164.745 44.0001 158.87V142.715C44.0001 141.001 43.2657 139.777 41.3075 139.777" stroke="black" stroke-width="2.30512"/>
<path d="M14.1367 136.595H33.2297" stroke="black" stroke-width="2.30512"/>
<path d="M14.1367 142.225H33.2297" stroke="black" stroke-width="2.30512"/>
<path d="M22.9492 149.079L33.2301 149.079" stroke="black" stroke-width="2.30512"/>
<path d="M21.9727 162.297L33.2326 162.297" stroke="black" stroke-width="2.30512"/>
<path d="M26.8672 154.954L33.2315 154.954" stroke="black" stroke-width="2.30512"/>
<path d="M111.306 136.914H105.087C103.961 125.651 114.055 122.547 115.971 129.452M118.768 163.849L141.156 164.084C147.374 164.084 147.374 159.301 146.131 156.814H141.156M115.971 129.452C116.17 130.171 116.281 131 116.281 131.939V158.057C116.281 164.276 119.912 167.758 126.231 156.814H141.156M115.971 129.452H136.181C141.156 129.452 141.156 133.183 141.156 135.67V156.814" stroke="black" stroke-width="2.46095"/>
<path d="M123.742 134.427H132.448" stroke="black" stroke-width="2.46095"/>
<path d="M121.254 141.889L136.179 141.889" stroke="black" stroke-width="2.46095"/>
<path d="M121.254 149.351L136.179 149.351" stroke="black" stroke-width="2.46095"/>
<path d="M237.948 162.912H217.592C214.718 162.912 214 160.637 214 158.961V132.977C214 131.181 215.006 129.625 217.592 129.625H240.343C241.9 129.625 244.055 130.343 244.055 132.977V145.67" stroke="black" stroke-width="2.99592"/>
<path d="M244.179 150.1V163.152M237.594 156.925H251.005" stroke="black" stroke-width="2.99592"/>
<path d="M220.344 137.168H237.826" stroke="black" stroke-width="2.99592"/>
<path d="M220.344 144.832H237.826" stroke="black" stroke-width="2.99592"/>
<path d="M220.344 152.255H237.826" stroke="black" stroke-width="2.99592"/>
</svg>
