<svg width="296" height="220" viewBox="0 0 296 220" fill="none" xmlns="http://www.w3.org/2000/svg">
<path d="M239.045 54.9829V56.6812H236.498V54.9829H239.045ZM239.045 49.0389V52.0109H236.498V49.0389H239.045ZM254.186 28.2348H246.688V40.1229H244.14V25.6874H248.531L241.593 17.8444L234.655 25.6874H239.045V46.0669H236.498V28.2348H229L241.593 14L254.186 28.2348Z" fill="black"/>
<path d="M257.728 21.0171V19.3188H260.275V21.0171H257.728ZM257.728 26.9611V23.9891H260.275V26.9611H257.728ZM242.588 47.7652H250.086V35.8771H252.633V50.3126H248.242L255.181 58.1556L262.119 50.3126H257.728V29.9331H260.275V47.7652H267.773L255.181 62L242.588 47.7652Z" fill="black"/>
<path d="M53.2734 39.0479L51.1523 41.1689L50.1523 40.1689L52.2734 38.0479L53.2734 39.0479ZM50.7734 36.5479L48.6523 38.6689L45.6523 35.6689L47.7734 33.5479L50.7734 36.5479ZM76.208 25.2236L73.2178 24.9932L73.585 20.2158L62.874 20.9072L65.8379 24.2422L55.6807 33.1299L46.1191 24.2061L49.041 20.918L37.4248 20.2139L38.8203 31.3789L42.2129 27.9873L46.2734 32.0479L44.1523 34.1689L42.2129 32.2295L36.6045 37.8379L34 17.002L55.3848 18.2979L50.3057 24.0098L55.7451 29.0869L61.5869 23.9746L56.5508 18.3096L76.8408 17L76.208 25.2236ZM73.0078 30.2822L73.2188 27.9727L76.207 28.2441L75.417 36.9336L70.2129 31.7295L65.7734 36.1689L63.6523 34.0479L70.2129 27.4873L73.0078 30.2822Z" fill="#0C0966"/>
<path d="M75.9082 37.791L70.1855 43.5146L61.2461 35.0205L59.1797 37.1963L70.2393 47.7031L73.5166 44.4258L74.5508 55.4512L62.8076 54.3838L65.8379 50.9746L55.709 42.1113L44.8818 51.665L48.2344 54.3477L37.3867 55.0049L38.3799 45.3975L41.2129 48.2295L48.2734 41.1689L46.1523 39.0479L41.2129 43.9873L36.0449 38.8193L34.0391 58.2129L56.1914 56.8701L49.543 51.5527L55.7168 46.1055L61.5869 51.2422L56.6172 56.833L77.875 58.7656L75.9082 37.791Z" fill="#0C0966"/>
<path d="M134.39 186.657L133.068 187.852L131.276 185.87L132.597 184.675L134.39 186.657ZM139.014 182.474L136.702 184.566L134.909 182.583L137.222 180.492L139.014 182.474ZM165.856 179.613L160.579 173.78L151.33 182.146L149.537 180.164L160.768 170.005L163.858 173.421L165.078 162.503L154.093 162.624L157.183 166.041L141.327 180.382L139.534 178.4L153.408 165.851L148.132 160.018L168.069 159.798L165.856 179.613Z" fill="black"/>
<path d="M173.966 177.289L175.287 176.094L177.08 178.076L175.759 179.271L173.966 177.289ZM169.341 181.472L171.653 179.381L173.446 181.363L171.134 183.454L169.341 181.472ZM142.5 184.333L147.776 190.167L157.026 181.8L158.819 183.783L147.587 193.941L144.497 190.525L143.277 201.443L154.262 201.322L151.172 197.905L167.029 183.564L168.821 185.546L154.947 198.095L160.224 203.929L140.286 204.148L142.5 184.333Z" fill="black"/>
<path d="M246.264 181.499L229.5 196.329V187.5H225.5V184.5H232.5V189.669L241.735 181.499L232.5 173.329V178.999H221V176H229.5V166.67L246.264 181.499ZM223 184.5V187.5H221V184.5H223Z" fill="#0C0966"/>
<path d="M247.501 182.736L262.331 199.5H253.501V203.5H250.501V196.5H255.671L247.501 187.265L239.33 196.5H245.001V208H242.001V199.5H232.672L247.501 182.736ZM250.501 206H253.501V208H250.501V206Z" fill="#0C0966"/>
<path d="M248.736 181.5L265.5 166.67V175.5H269.5V178.5H262.5V173.33L253.265 181.5L262.5 189.671V184H274V187H265.5V196.329L248.736 181.5ZM272 178.5V175.5H274V178.5H272Z" fill="#0C0966"/>
<path d="M247.499 180.263L232.669 163.499H241.499V159.5H244.499V166.499H239.329L247.499 175.734L255.67 166.499H249.999V154.999H252.999V163.499H262.328L247.499 180.263ZM244.499 157H241.499V154.999H244.499V157Z" fill="#0C0966"/>
<path d="M48.2509 178.139V184.087H45.5056V178.139H48.2509ZM48.2509 173.106V176.766H45.5056V173.106H48.2509ZM61.6116 168.53H54.6564V176.309H51.9112V165.785H55.9379L50.0533 158.353L43.8604 165.785H48.2509V171.276H45.5056V168.53H38L50.1087 154L61.6116 168.53Z" fill="#0C0966"/>
<path d="M54.6591 201.473V207.879H51.9139V201.473H54.6591ZM51.9139 189.12C51.9139 183.813 56.2157 179.511 61.5222 179.511H67.0127V183.376L73.5729 177.71L67.0127 172.342V175.225L58.5759 176.335C53.1604 177.047 48.819 181.153 47.796 186.509V201.016H45.0508V186.25L45.0731 186.129C46.2704 179.544 51.5824 174.487 58.2176 173.613L64.2675 172.816V166.549L77.8391 177.653L64.2675 189.374V182.257H61.5222C57.7318 182.257 54.6591 185.329 54.6591 189.12V198.728H51.9139V189.12Z" fill="#0C0966"/>
<path d="M176.49 112.036C176.49 109.546 174.424 107.046 171.44 106.458C168.582 105.894 164.626 107.097 161.102 112.662C156.833 119.401 151.796 124.294 146.549 126.517C141.238 128.767 135.77 128.246 130.942 124.28C128.681 122.683 126.48 119.594 125.813 115.761C125.134 111.851 126.061 107.234 129.984 102.693L131.754 104.223C128.266 108.26 127.565 112.176 128.118 115.36C128.647 118.4 130.328 120.833 131.985 122.139L132.316 122.385L132.354 122.413L132.391 122.442C136.519 125.854 141.07 126.298 145.637 124.363C150.283 122.394 154.997 117.928 159.125 111.41C163.01 105.277 167.829 103.361 171.892 104.162C175.829 104.938 178.831 108.287 178.831 112.036C178.831 115.109 177.896 117.463 176.331 119.101C174.776 120.727 172.701 121.54 170.602 121.731C168.507 121.922 166.332 121.501 164.481 120.6C162.636 119.7 161.032 118.28 160.211 116.405L162.355 115.467C162.9 116.711 164.026 117.775 165.507 118.496C166.983 119.216 168.731 119.551 170.39 119.401C172.043 119.25 173.55 118.625 174.64 117.485C175.718 116.357 176.49 114.617 176.49 112.036ZM134.896 102.165C134.264 102.481 133.489 102.876 132.86 103.505L131.206 101.85C132.136 100.92 133.234 100.379 133.85 100.071L134.896 102.165Z" fill="#0C0966"/>
<path d="M153.823 107.417L140.693 110.568L142.082 106.863C138.923 106.809 137.066 107.771 135.984 108.891C134.698 110.223 134.318 111.971 134.371 113.153C134.458 115.054 135.074 116.358 135.919 117.241C136.776 118.137 137.954 118.691 139.302 118.927C142.058 119.408 145.194 118.504 146.848 117.016L146.882 116.985L146.918 116.958C149.283 115.139 151.32 112.238 153.549 109.093C155.719 106.03 158.064 102.749 160.967 100.572C165.25 97.361 171.421 96.9782 176.41 99.1165C181.473 101.286 185.413 106.095 185.063 113.263C184.855 117.531 183.308 120.802 181.011 123.167C178.729 125.515 175.765 126.911 172.787 127.559C169.813 128.205 166.759 128.121 164.235 127.442C161.765 126.777 159.54 125.464 158.647 123.424L160.79 122.485C161.262 123.565 162.645 124.591 164.842 125.182C166.984 125.758 169.659 125.845 172.29 125.273C174.917 124.701 177.435 123.489 179.333 121.537C181.215 119.6 182.545 116.875 182.726 113.149C183.023 107.059 179.75 103.094 175.488 101.267C171.152 99.409 165.888 99.8058 162.37 102.443C159.814 104.36 157.674 107.318 155.458 110.446C153.308 113.48 151.065 116.707 148.374 118.788C146.123 120.786 142.265 121.818 138.9 121.231C137.177 120.93 135.504 120.192 134.228 118.858C132.941 117.512 132.143 115.647 132.035 113.259C131.958 111.582 132.475 109.157 134.302 107.265C136.169 105.331 139.227 104.138 143.856 104.634L145.357 104.794L144.43 107.265L150.796 105.737L148.583 99.0975L147.416 101.434L146.417 101.035C145.563 100.693 143.89 100.25 141.986 100.121C140.074 99.9919 138.067 100.188 136.456 100.994L135.41 98.9017C137.542 97.8359 140.019 97.643 142.144 97.7867C143.714 97.8929 145.166 98.189 146.26 98.5125L149.017 93L153.823 107.417Z" fill="#0C0966"/>
<path d="M226 127.5V102.416C226 99.9179 228.025 97.8927 230.523 97.8927H241.215V100.36H230.523C229.388 100.36 228.467 101.281 228.467 102.416V127.5C228.467 128.636 229.388 129.556 230.523 129.556H238.336V132.024H230.523C228.025 132.024 226 129.998 226 127.5ZM259.141 101.956L246.972 113.018V106.939H234.636V122.977H238.336V125.444H232.168V104.472H249.439V107.44L255.363 102.054L249.439 97.206V100.36H244.093V97.8927H246.972V92L259.141 101.956Z" fill="black"/>
<path d="M270 102.005V127.089C270 129.587 267.975 131.612 265.477 131.612H249.028V137.505L236.831 127.526L249.028 116.992V122.566H256.43V125.033H246.561V122.383L240.665 127.475L246.561 132.299V129.145H265.477C266.612 129.145 267.533 128.225 267.533 127.089V102.005C267.533 100.869 266.612 99.9488 265.477 99.9488H257.664V97.4815H265.477C267.975 97.4815 270 99.5067 270 102.005ZM259.308 125.033V122.566H261.364V106.528H257.664V104.061H263.832V125.033H259.308Z" fill="black"/>
<path d="M159.445 45.3716C159.445 51.5684 154.421 56.592 148.224 56.592C142.027 56.592 137.004 51.5684 137.004 45.3716C137.004 39.1747 142.027 34.1511 148.224 34.1511C154.421 34.1511 159.445 39.1747 159.445 45.3716Z" fill="#70FF24" fill-opacity="0.52"/>
<path d="M128.844 50.4717V43.6813C128.844 43.2306 129.209 42.8653 129.66 42.8653C130.11 42.8653 130.476 43.2306 130.476 43.6813V50.4717C130.476 53.1758 132.668 55.3679 135.372 55.3679H175.562C178.266 55.3679 180.458 53.1758 180.458 50.4717V25.9908C180.458 23.2867 178.266 21.0946 175.562 21.0946H135.372C132.668 21.0946 130.476 23.2867 130.476 25.9908V37.9109C130.476 38.3615 130.11 38.7269 129.66 38.7269C129.209 38.7269 128.844 38.3615 128.844 37.9109V25.9908C128.844 22.3853 131.767 19.4625 135.372 19.4625H175.562C179.167 19.4625 182.09 22.3853 182.09 25.9908V50.4717C182.09 54.0772 179.167 57 175.562 57H135.372C131.767 57 128.844 54.0772 128.844 50.4717ZM128.844 41.4372V40.155C128.844 39.7043 129.209 39.339 129.66 39.339C130.11 39.339 130.476 39.7043 130.476 40.155V41.4372C130.476 41.8878 130.11 42.2532 129.66 42.2532C129.209 42.2532 128.844 41.8878 128.844 41.4372Z" fill="black"/>
<path d="M180.953 29.7212C181.404 29.7213 181.769 30.0866 181.769 30.5372C181.769 30.9878 181.404 31.3531 180.953 31.3533H129.66C129.209 31.3533 128.844 30.9879 128.844 30.5372C128.844 30.0865 129.209 29.7212 129.66 29.7212H180.953Z" fill="black"/>
<path d="M173.896 26.6609V28.293H156.585V26.6609H173.896ZM175.15 25.4082C175.15 24.7161 174.588 24.1546 173.896 24.1546H156.585C155.893 24.1546 155.331 24.7161 155.331 25.4082C155.331 26.1001 155.893 26.6609 156.585 26.6609V28.293L156.436 28.289C154.961 28.2141 153.778 27.0316 153.703 25.5564L153.699 25.4082C153.699 23.8646 154.911 22.604 156.436 22.5266L156.585 22.5226H173.896C175.489 22.5226 176.782 23.8147 176.782 25.4082L176.778 25.5564C176.7 27.0808 175.44 28.293 173.896 28.293V26.6609C174.588 26.6609 175.149 26.1001 175.15 25.4082Z" fill="black"/>
<path d="M137.963 25.4082C137.963 24.7162 137.402 24.1549 136.71 24.1547C136.018 24.1547 135.456 24.7161 135.456 25.4082C135.456 26.1002 136.018 26.661 136.71 26.661V28.2931L136.561 28.2891C135.086 28.2142 133.903 27.0317 133.828 25.5565L133.824 25.4082C133.824 23.8147 135.116 22.5226 136.71 22.5226L136.858 22.5266C138.383 22.6039 139.595 23.8646 139.595 25.4082L139.591 25.5565C139.513 27.0808 138.253 28.2929 136.71 28.2931V26.661C137.402 26.6608 137.962 26.1001 137.963 25.4082Z" fill="black"/>
<path d="M147.611 26.8067C147.611 28.1588 146.515 29.2548 145.163 29.2548C143.811 29.2548 142.715 28.1588 142.715 26.8067C142.715 25.4547 143.811 24.3586 145.163 24.3586C146.515 24.3586 147.611 25.4547 147.611 26.8067Z" fill="#A3FF71" fill-opacity="0.84"/>
<path d="M144.377 25.4082C144.377 24.7162 143.816 24.1549 143.124 24.1547C142.432 24.1547 141.87 24.7161 141.87 25.4082C141.871 26.1002 142.432 26.661 143.124 26.661V28.2931L142.975 28.2891C141.5 28.2142 140.317 27.0317 140.242 25.5565L140.238 25.4082C140.238 23.8147 141.53 22.5226 143.124 22.5226L143.272 22.5266C144.797 22.6039 146.009 23.8646 146.009 25.4082L146.005 25.5565C145.927 27.0808 144.667 28.2929 143.124 28.2931V26.661C143.816 26.6608 144.377 26.1001 144.377 25.4082Z" fill="black"/>
<path d="M154.633 43.3607C154.633 38.0652 150.34 33.7723 145.045 33.7723C139.749 33.7723 135.456 38.0652 135.456 43.3607C135.456 48.6562 139.749 52.9491 145.045 52.9491V54.5811C138.848 54.5811 133.824 49.5576 133.824 43.3607C133.824 37.1638 138.848 32.1403 145.045 32.1403C151.242 32.1403 156.265 37.1638 156.265 43.3607C156.265 49.5576 151.242 54.5811 145.045 54.5811V52.9491C150.34 52.9491 154.633 48.6562 154.633 43.3607Z" fill="black"/>
<path d="M148.224 43.3603C148.224 41.606 146.801 40.1838 145.047 40.1838C143.293 40.1839 141.87 41.606 141.87 43.3603C141.87 45.1147 143.292 46.5374 145.047 46.5376V48.1696L144.8 48.1632C142.259 48.0346 140.238 45.9332 140.238 43.3603C140.238 40.7047 142.391 38.5519 145.047 38.5518C147.703 38.5518 149.856 40.7046 149.856 43.3603L149.85 43.6081C149.721 46.1489 147.62 48.1696 145.047 48.1696V46.5376C146.801 46.5376 148.224 45.1147 148.224 43.3603Z" fill="black"/>
<path d="M145.657 43.3608C145.657 43.0228 145.383 42.7488 145.045 42.7488C144.707 42.7488 144.433 43.0228 144.433 43.3608C144.433 43.6988 144.707 43.9728 145.045 43.9728V45.6049C143.805 45.6049 142.801 44.6002 142.801 43.3608C142.801 42.1214 143.805 41.1167 145.045 41.1167C146.284 41.1167 147.289 42.1214 147.289 43.3608C147.289 44.6002 146.284 45.6049 145.045 45.6049V43.9728C145.383 43.9728 145.657 43.6988 145.657 43.3608Z" fill="black"/>
<path d="M175.152 40.767V42.3991H161.105V40.767H175.152ZM175.152 37.6192H161.105V42.3991L160.938 42.3903C160.17 42.3124 159.559 41.7018 159.481 40.9336L159.473 40.767V37.6192C159.473 36.7179 160.203 35.9872 161.105 35.9872H175.152C176.053 35.9872 176.784 36.7179 176.784 37.6192V40.767L176.776 40.9336C176.698 41.7017 176.087 42.3123 175.319 42.3903L175.152 42.3991V37.6192Z" fill="black"/>
<path d="M175.152 49.102V50.7341H161.105V49.102H175.152ZM175.152 45.9542H161.105V50.7341L160.938 50.7253C160.17 50.6474 159.559 50.0368 159.481 49.2685L159.473 49.102V45.9542C159.473 45.0528 160.203 44.3221 161.105 44.3221H175.152C176.053 44.3221 176.784 45.0528 176.784 45.9542V49.102L176.776 49.2685C176.698 50.0367 176.087 50.6472 175.319 50.7253L175.152 50.7341V45.9542Z" fill="black"/>
<path d="M40.6984 123.868C40.6982 122.515 39.6014 121.419 38.2491 121.419C36.8968 121.419 35.8007 122.515 35.8005 123.868C35.8005 125.22 36.8967 126.317 38.2491 126.317V127.911L38.0413 127.905C35.9055 127.797 34.207 126.03 34.207 123.868C34.2072 121.635 36.0168 119.826 38.2491 119.826C40.4815 119.826 42.2917 121.635 42.2919 123.868L42.2864 124.076C42.1781 126.212 40.4118 127.911 38.2491 127.911V126.317C39.6015 126.317 40.6984 125.22 40.6984 123.868Z" fill="black"/>
<path d="M48.5172 121.853C56.5707 121.487 63.3006 127.917 63.3006 135.979V136.776H29V135.611C29.0002 130.503 33.141 126.362 38.249 126.362C38.7998 126.362 39.3391 126.413 39.8635 126.505C41.0482 123.848 43.6353 122.075 46.558 121.942L48.5172 121.853ZM61.6807 135.182C61.257 128.407 55.4681 123.132 48.5896 123.445L46.6304 123.534C44.3974 123.635 42.4116 124.944 41.4282 126.923C44.8426 128.173 47.3141 131.378 47.4878 135.182H61.6807ZM38.249 127.956C34.165 127.956 30.8285 131.154 30.6059 135.182H45.892C45.6694 131.154 42.333 127.956 38.249 127.956Z" fill="black"/>
<path d="M53.5618 116.502C53.5616 113.932 51.4775 111.848 48.9073 111.848C46.3372 111.848 44.2538 113.932 44.2537 116.502C44.2537 119.072 46.3371 121.156 48.9073 121.156V122.75L48.586 122.741C45.2851 122.574 42.6602 119.844 42.6602 116.502C42.6603 113.052 45.4572 110.255 48.9073 110.255C52.3576 110.255 55.1551 113.051 55.1552 116.502L55.1467 116.823C54.9795 120.124 52.2499 122.75 48.9073 122.75V121.156C51.4776 121.156 53.5618 119.072 53.5618 116.502Z" fill="black"/>
<path d="M72.6715 97.3926C72.6715 91.981 68.2847 87.5937 62.8731 87.5935C57.4614 87.5935 53.074 91.9809 53.074 97.3926C53.0741 102.804 57.4615 107.191 62.8731 107.191V108.785L62.579 108.781C56.5208 108.627 51.638 103.745 51.4844 97.6868L51.4805 97.3926C51.4805 91.1008 56.5813 86 62.8731 86L63.1672 86.0039C69.323 86.16 74.265 91.1993 74.265 97.3926L74.2611 97.6868C74.1049 103.842 69.0664 108.784 62.8731 108.785V107.191C68.2846 107.191 72.6713 102.804 72.6715 97.3926Z" fill="black"/>
<path d="M59.5 99.5974C59.5 99.1574 59.8567 98.8007 60.2967 98.8007C60.7368 98.8007 61.0935 99.1574 61.0935 99.5974C61.0936 100.781 62.0529 101.74 63.2363 101.74H63.4207C64.5027 101.74 65.3799 100.863 65.3799 99.781C65.3799 98.699 64.5028 97.822 63.4207 97.8218H63.0527C61.0906 97.8217 59.5 96.2305 59.5 94.2684C59.5001 92.3064 61.0907 90.7158 63.0527 90.7157H63.2363C65.2999 90.7157 66.9732 92.3885 66.9734 94.452C66.9734 94.892 66.6167 95.2487 66.1767 95.2488C65.7366 95.2488 65.3799 94.892 65.3799 94.452C65.3797 93.2685 64.4198 92.3092 63.2363 92.3092H63.0527C61.9707 92.3093 61.0936 93.1864 61.0935 94.2684C61.0935 95.3505 61.9706 96.2282 63.0527 96.2284H63.4207C65.3828 96.2285 66.9734 97.8189 66.9734 99.781C66.9734 101.743 65.3828 103.334 63.4207 103.334H63.2363C61.1728 103.334 59.5001 101.661 59.5 99.5974Z" fill="black"/>
<path d="M62.4414 104.374V89.6749C62.4414 89.2349 62.7981 88.8782 63.2382 88.8782C63.6782 88.8782 64.0349 89.2349 64.0349 89.6749V104.374C64.0349 104.814 63.6782 105.171 63.2382 105.171C62.7981 105.171 62.4414 104.814 62.4414 104.374Z" fill="black"/>
<path d="M48.8487 94.7603C49.2875 94.7291 49.6685 95.0591 49.6999 95.498C49.7312 95.9368 49.401 96.3177 48.9622 96.3492C46.6331 96.5156 42.8795 98.2307 40.2937 101.43C37.7545 104.572 36.3431 109.144 38.6255 115.115C38.7827 115.526 38.5767 115.986 38.1657 116.143C37.7547 116.3 37.2942 116.095 37.1371 115.684C34.6434 109.16 36.1733 103.993 39.0543 100.429C41.8887 96.9215 46.0351 94.9614 48.8487 94.7603Z" fill="black"/>
<path d="M38.5789 111.531C38.6856 111.105 39.1177 110.845 39.5445 110.952C39.9713 111.058 40.2308 111.491 40.1241 111.917L38.7407 117.451L34.1174 114.214C33.757 113.962 33.669 113.465 33.9213 113.105C34.1737 112.744 34.6704 112.657 35.0309 112.909L37.7565 114.817L38.5789 111.531Z" fill="black"/>
<path d="M73.583 109.153C73.988 108.982 74.4553 109.171 74.6272 109.576C77.3065 115.891 76.2036 121.013 73.7293 124.708C71.2889 128.353 67.5362 130.58 64.8997 131.24C64.473 131.346 64.041 131.087 63.9341 130.66C63.8274 130.233 64.0869 129.8 64.5138 129.694C66.7773 129.128 70.1906 127.129 72.405 123.821C74.5856 120.565 75.626 116.01 73.1605 110.198C72.9887 109.793 73.1779 109.325 73.583 109.153Z" fill="black"/>
<path d="M77.6042 109.934C77.9842 110.156 78.1129 110.643 77.8913 111.023C77.6696 111.403 77.1813 111.532 76.8013 111.31L73.496 109.382L73.2198 113.251C73.1884 113.69 72.8075 114.021 72.3686 113.989C71.9297 113.958 71.5996 113.576 71.631 113.137L72.0893 106.717L77.6042 109.934Z" fill="black"/>
</svg>
