<svg width="296" height="220" viewBox="0 0 296 220" fill="none" xmlns="http://www.w3.org/2000/svg">
<path d="M49.1211 46.8049V39.0179M49.1211 33.7338V29.2841" stroke="#03045E" stroke-width="1.31304"/>
<path d="M69.1484 30.9528H83.0539" stroke="#03045E" stroke-width="1.31304"/>
<path d="M69.1484 37.3494H83.0539" stroke="#03045E" stroke-width="1.31304"/>
<path d="M69.1484 43.4677H83.0539" stroke="#03045E" stroke-width="1.31304"/>
<path d="M90.2845 24H38.8343L40.7811 28.4497L38.2781 32.8995L40.7811 36.793L38 41.5209L40.7811 45.9706L38.8343 50.6985H90.2845V24Z" stroke="#03045E" stroke-width="1.31304"/>
<path d="M50.5145 44.0239L60.2496 33.7339C61.8249 35.6806 63.863 40.6866 60.5258 44.0239L51.2598 53.1008C48.5647 50.0573 48.3134 46.2245 50.5145 44.0239Z" fill="#CDFF71"/>
<path d="M54.9642 57.3732L51.3501 53.2015C48.5706 50.1423 48.289 46.2488 50.5145 44.0239L60.2496 33.7339C61.8249 35.6806 63.863 40.6866 60.5258 44.0239L46.8984 57.3732" stroke="#03045E" stroke-width="1.31304"/>
<circle cx="44.5851" cy="60.4825" r="3.50992" fill="#CDFF71" stroke="#03045E" stroke-width="1.42374"/>
<circle cx="57.1358" cy="60.4825" r="3.50992" fill="#CDFF71" stroke="#03045E" stroke-width="1.42374"/>
<path d="M251.215 122.995V103.19C254.562 103.19 255.585 100.029 255.678 98.4481H265.999V127.737H255.678C255.232 123.497 252.517 122.809 251.215 122.995Z" fill="#CDFF71" stroke="#03045E" stroke-width="1.27781"/>
<path d="M213 98.4481H246.752C248.704 105.422 255.12 104.027 255.678 98.4481H265.999V127.458H255.678C254.841 121.321 247.868 121.6 246.752 127.458H213V98.4481Z" stroke="#03045E" stroke-width="1.27781"/>
<path d="M258.465 106.537V119.369" stroke="#03045E" stroke-width="1.27781"/>
<path d="M244.524 105.98L234.203 119.648" stroke="#03045E" stroke-width="1.27781"/>
<path d="M218.02 106.259H227.503" stroke="#03045E" stroke-width="1.27781"/>
<path d="M218.02 112.953H227.503" stroke="#03045E" stroke-width="1.27781"/>
<path d="M218.02 119.648H227.503" stroke="#03045E" stroke-width="1.27781"/>
<circle cx="235.592" cy="107.653" r="2.42944" fill="#CDFF71" stroke="#03045E" stroke-width="1.27781"/>
<circle cx="243.408" cy="116.579" r="2.42944" fill="#CDFF71" stroke="#03045E" stroke-width="1.27781"/>
<path d="M228.195 35.6838V39.71" stroke="#03045E" stroke-width="1.207"/>
<path d="M233.645 35.6838V39.71" stroke="#03045E" stroke-width="1.207"/>
<path d="M225.35 30.2367V27.1578H221.324" stroke="#03045E" stroke-width="1.207"/>
<path d="M258.985 21.2369H219.67C219.67 23.5105 218.012 24.3158 216.828 24.3158V41.131C219.291 41.131 219.749 43.0256 219.67 43.973H258.985C258.985 41.6994 260.879 41.131 261.827 41.131V24.3158C259.363 24.3158 258.906 22.2632 258.985 21.2369Z" stroke="#03045E" stroke-width="1.207"/>
<path d="M242.164 21V25.4998" stroke="#03045E" stroke-width="1.207"/>
<path d="M242.164 28.8156V31.6576" stroke="#03045E" stroke-width="1.207"/>
<path d="M242.164 34.0259V36.8679" stroke="#03045E" stroke-width="1.207"/>
<path d="M239.798 48.236L251.402 27.6315C254.622 29.9051 255.194 32.605 253.536 35.9207L240.274 58.4199C236.958 64.8144 232.932 68.3669 226.535 65.288C217.773 59.604 224.405 46.5782 233.403 50.1307C236.245 50.8885 238.377 50.3675 239.798 48.236Z" fill="#CDFF71" stroke="#03045E" stroke-width="1.207"/>
<circle cx="231.033" cy="57.9462" r="2.94901" fill="white" stroke="#03045E" stroke-width="1.207"/>
<path d="M245.721 61.9724L235.301 43.973H241.458C245.248 51.3622 249.037 50.1307 251.169 49.657C258.179 47.194 264.91 55.9454 260.884 62.3399C255.2 69.7291 248.8 67.1827 245.721 61.9724Z" fill="#CDFF71" stroke="#03045E" stroke-width="1.207"/>
<circle cx="253.299" cy="57.9462" r="2.94901" fill="white" stroke="#03045E" stroke-width="1.207"/>
<rect x="225.721" y="30.3664" width="10.6347" height="4.95068" fill="#CDFF71" stroke="#03045E" stroke-width="1.207"/>
<path d="M133.23 29.627L136.413 26.4442H171.424L174.607 29.627V45.5411L171.424 48.724H136.413L133.23 45.5411V29.627Z" fill="#CDFF71" stroke="#03045E" stroke-width="1.38804"/>
<path d="M141.91 19.7892V31.0737" stroke="#03045E" stroke-width="1.38804"/>
<path d="M141.91 44.3837V55.6682" stroke="#03045E" stroke-width="1.38804"/>
<path d="M141.91 35.1246L141.91 40.3329" stroke="#03045E" stroke-width="1.38804"/>
<path d="M155.512 31.6526V34.8354" stroke="#03045E" stroke-width="1.38804"/>
<path d="M163.609 39.7543V42.9371" stroke="#03045E" stroke-width="1.38804"/>
<path d="M164.481 32.8099L155.512 41.7797" stroke="#03045E" stroke-width="1.38804"/>
<rect x="126.694" y="20.1939" width="54.1666" height="35.0697" stroke="#03045E" stroke-width="1.38804"/>
<circle cx="234.481" cy="183.73" r="4.02198" stroke="#03045E" stroke-width="1.39397"/>
<path d="M215.445 179.712L229.308 181.371L218.723 172.162C212.574 167.443 207.384 177.824 215.445 179.712Z" fill="#CDFF71" stroke="#03045E" stroke-width="1.39397"/>
<path d="M217.996 194.874L229.275 186.646L215.253 187.113C207.536 187.847 210.807 198.983 217.996 194.874Z" fill="#CDFF71" stroke="#03045E" stroke-width="1.39397"/>
<path d="M231.996 180.122C234.513 175.403 241.371 165.137 248.166 162.495C250.872 161.442 253.734 161.928 255.244 165.326L238.256 181.842" stroke="#03045E" stroke-width="1.39397"/>
<path d="M232.348 187.44C234.864 192.159 240.902 201.379 247.697 204.022C250.403 205.074 253.265 204.588 254.775 201.19L238.259 185.146" stroke="#03045E" stroke-width="1.39397"/>
<path d="M269.421 175.236H245.119L238.273 181.864C238.622 182.561 238.97 183.955 238.622 185.349L245.113 191.752H269.421V175.236Z" fill="#CDFF71" stroke="#03045E" stroke-width="1.39397"/>
<path d="M269.405 183.73H263.742" stroke="#03045E" stroke-width="1.39397"/>
<path d="M258.072 183.73H254.297" stroke="#03045E" stroke-width="1.39397"/>
<path d="M248.644 183.73H245.812" stroke="#03045E" stroke-width="1.39397"/>
<path d="M65.3633 154.503V159.193" stroke="#03045E" stroke-width="1.54942"/>
<path d="M65.3633 206.244V201.555" stroke="#03045E" stroke-width="1.54942"/>
<path d="M80.7148 156.379L77.0843 159.348" stroke="#03045E" stroke-width="1.54942"/>
<path d="M80.7148 204.369L77.0843 201.4" stroke="#03045E" stroke-width="1.54942"/>
<path d="M49.8828 156.379L53.5133 159.348" stroke="#03045E" stroke-width="1.54942"/>
<path d="M49.8828 204.369L53.5133 201.4" stroke="#03045E" stroke-width="1.54942"/>
<rect x="33.7747" y="167.471" width="35.9677" height="25.6505" rx="3.91495" stroke="#03045E" stroke-width="1.54942"/>
<rect x="69.5755" y="167.471" width="25.6505" height="25.6505" rx="3.91495" fill="#CDFF71" stroke="#03045E" stroke-width="1.54942"/>
<path d="M43.3242 176.545H60.2069" stroke="#03045E" stroke-width="1.54942"/>
<path d="M43.3242 184.517H60.2069" stroke="#03045E" stroke-width="1.54942"/>
<path d="M77.2461 173.731V177.014" stroke="#03045E" stroke-width="1.54942"/>
<path d="M87.5742 184.517V187.8" stroke="#03045E" stroke-width="1.54942"/>
<path d="M87.5633 175.607L77.2461 185.924" stroke="#03045E" stroke-width="1.54942"/>
<path d="M45.3555 112.114C45.3554 109.796 45.3555 107.478 46.1282 105.546C47.9827 101.528 51.5371 99.2358 53.0825 98.5919C53.0825 99.3646 60.8095 99.751 61.1959 112.114" stroke="#03045E" stroke-width="1.26446"/>
<path d="M53.082 97.8195V123.705" stroke="#03045E" stroke-width="1.26446"/>
<path d="M68.5391 113.274L78.5842 130.273" stroke="#03045E" stroke-width="1.26446" stroke-linecap="round"/>
<path d="M70.4805 130.273L80.1393 113.543" stroke="#03045E" stroke-width="1.26446" stroke-linecap="round"/>
<path d="M84.7671 97.8195H40.3366C40.3366 100.524 38.0184 101.297 36.8594 101.297V120.228C39.6411 120.228 40.3366 122.546 40.3366 123.705H84.7671C84.7671 120.923 87.0852 120.228 88.2443 120.228V101.297C85.1535 101.606 84.6383 99.1073 84.7671 97.8195Z" stroke="#03045E" stroke-width="1.26446"/>
<circle cx="68.1444" cy="133.75" r="3.61765" fill="#CDFF71" stroke="#03045E" stroke-width="1.26446"/>
<circle cx="80.5194" cy="133.75" r="3.61765" fill="#CDFF71" stroke="#03045E" stroke-width="1.26446"/>
<path d="M46.1245 86.6151L52.3061 97.8193L41.1019 92.7967C39.5565 92.1786 38.0166 90.865 39.5653 88.9332L42.6526 85.8424C44.198 84.297 45.3571 85.0697 46.1245 86.6151Z" fill="#CDFF71" stroke="#03045E" stroke-width="1.26446"/>
<path d="M60.0435 86.6151L53.8619 97.8193L65.0661 92.7967C66.6115 92.1786 68.1514 90.865 66.6027 88.9332L63.5154 85.8424C61.97 84.297 60.8109 85.0697 60.0435 86.6151Z" fill="#CDFF71" stroke="#03045E" stroke-width="1.26446"/>
<path d="M74.3359 97.8195V101.297" stroke="#03045E" stroke-width="1.26446"/>
<path d="M74.3359 106.705V112.114" stroke="#03045E" stroke-width="1.26446"/>
<path d="M168.633 159H131.278C129.967 159 128 159.35 128 162.495V169.923C136.301 168.175 136.301 179.972 128 178.661V186.963C128 188.273 128.437 190.021 131.278 190.021H168.633C169.798 190.021 172.129 189.409 172.129 186.963V178.661C164.264 180.409 163.39 169.049 172.129 169.923V162.495C172.129 159.874 170.381 159 168.633 159Z" stroke="#03045E" stroke-width="1.37971"/>
<rect x="137.862" y="164.059" width="24.8353" height="20.4661" rx="3.67931" fill="#CDFF71" stroke="#03045E" stroke-width="1.37971"/>
<path d="M155.091 169.486L144.168 180.409" stroke="#03045E" stroke-width="1.37971"/>
<circle cx="144.609" cy="170.797" r="2.36856" stroke="#03045E" stroke-width="1.37971"/>
<circle cx="155.957" cy="177.787" r="2.36856" stroke="#03045E" stroke-width="1.37971"/>
<path d="M166.011 173.855H177.371C179.119 173.855 180.43 174.816 180.43 176.914V184.778C172.565 184.778 173.439 194.827 180.43 194.39V201.818C180.43 203.566 179.556 204.876 177.371 204.876H142.855C140.233 204.876 139.359 203.129 139.359 201.381V193.516C141.107 193.808 144.165 193.516 144.602 190.021" stroke="#03045E" stroke-width="1.37971"/>
<path d="M150.281 204.876L150.281 202.255" stroke="#03045E" stroke-width="1.37971"/>
<path d="M150.281 199.196V194.827" stroke="#03045E" stroke-width="1.37971"/>
<path d="M150.281 192.206V189.584" stroke="#03045E" stroke-width="1.37971"/>
<path d="M155.169 107.991H147.365L143.668 114.974L148.449 116.871L146.543 126.065L156.402 114.974L151.883 113.331L155.169 107.991Z" fill="#CDFF71" stroke="#03045E" stroke-width="1.42466"/>
<path d="M149.849 99.6889H131.933C129.748 99.6889 128 100.825 128 103.622V110.613C134.992 109.739 135.866 119.79 128 119.79V126.344C128 128.092 128.437 130.277 131.933 130.277H175.61C177.795 130.277 180 129.403 180 125.907V119.79C172.571 120.227 172.134 110.613 180 110.613V103.622C180 100.126 176.213 99.5432 174.319 99.6889" stroke="#03045E" stroke-width="1.42466"/>
<rect x="150.13" y="84.6701" width="23.9199" height="19.5501" rx="3.65742" fill="#CDFF71" stroke="#03045E" stroke-width="1.42466"/>
<circle cx="157.278" cy="90.9495" r="1.90952" stroke="#03045E" stroke-width="1.42466"/>
<circle cx="166.887" cy="97.067" r="1.90952" stroke="#03045E" stroke-width="1.42466"/>
<path d="M173.876 125.907H158.582" stroke="#03045E" stroke-width="1.42466"/>
<path d="M173.879 121.538L164.266 121.538" stroke="#03045E" stroke-width="1.42466"/>
<path d="M139.801 99.689V130.277" stroke="#03045E" stroke-width="1.42466" stroke-dasharray="4.99 4.99"/>
<path d="M166.885 90.0753L155.961 101" stroke="#03045E" stroke-width="1.42466"/>
</svg>
