<svg width="260" height="178" viewBox="0 0 260 178" fill="none" xmlns="http://www.w3.org/2000/svg">
<path d="M32.0854 11.2576C32.0854 10.3679 31.3641 9.64656 30.4744 9.64655C29.5846 9.64655 28.8633 10.3678 28.8633 11.2576C28.8634 12.1473 29.5847 12.8686 30.4744 12.8686V14.5523L30.3894 14.5512C28.6373 14.5069 27.2251 13.0947 27.1808 11.3425L27.1797 11.2576C27.1797 9.43799 28.6548 7.96289 30.4744 7.96289L30.5593 7.96399C32.3397 8.00905 33.7691 9.4664 33.7691 11.2576L33.768 11.3425C33.7229 13.1229 32.2656 14.5523 30.4744 14.5523V12.8686C31.3641 12.8686 32.0854 12.1473 32.0854 11.2576Z" fill="black"/>
<path d="M27.5888 10.4159V12.0996H17.3692L21.3529 20.7911L19.8221 21.4926L16.0572 13.2779L12.2925 21.4926L10.7617 20.7911L15.517 10.4159H27.5888Z" fill="black"/>
<path d="M32.9424 10.4159V12.0996H43.162L39.1784 20.7911L40.7091 21.4926L44.4741 13.2779L48.2388 21.4926L49.7695 20.7911L45.0142 10.4159H32.9424Z" fill="black"/>
<path d="M37.8742 37.2035C37.8742 36.4008 37.6308 36.031 37.4322 35.8523C37.2125 35.6546 36.9173 35.5741 36.6567 35.5741H25.1253C24.573 35.5741 24.1853 35.6721 23.9434 35.8602C23.7443 36.0151 23.4962 36.3482 23.4962 37.2035V42.1274H37.8742V37.2035ZM39.5579 43.8111H21.8125V37.2035C21.8125 35.9997 22.1822 35.097 22.9097 34.5312C23.5945 33.9986 24.4422 33.8905 25.1253 33.8905H29.6373V14.1405H31.321V33.8905H36.6567C37.2197 33.8905 37.9545 34.0572 38.5585 34.6008C39.1836 35.1634 39.5579 36.0295 39.5579 37.2035V43.8111Z" fill="black"/>
<path d="M23.1302 23.6737V24.5155C23.1302 27.3839 22.0639 29.2858 20.5846 30.4489C19.1419 31.5834 17.3951 31.9468 16.1003 31.9468C12.9441 31.9468 11.0144 30.7015 9.97539 29.0363C8.97489 27.4327 8.87598 25.5609 9.09875 24.3618L9.22673 23.6737H23.1302ZM10.686 25.3574C10.6641 26.1952 10.8422 27.2445 11.4039 28.1449C12.096 29.2541 13.4466 30.2631 16.1003 30.2631C17.1253 30.2631 18.4726 29.9677 19.5439 29.1254C20.4513 28.4118 21.2304 27.2526 21.4084 25.3574H10.686Z" fill="black"/>
<path d="M52.0012 23.6737V24.5155C52.0012 27.3839 50.935 29.2858 49.4557 30.4489C48.013 31.5834 46.2662 31.9468 44.9714 31.9468C41.8152 31.9468 39.8855 30.7015 38.8465 29.0363C37.846 27.4327 37.7471 25.5609 37.9698 24.3618L38.0978 23.6737H52.0012ZM39.5571 25.3574C39.5352 26.1952 39.7133 27.2445 40.275 28.1449C40.9671 29.2541 42.3177 30.2631 44.9714 30.2631C45.9964 30.2631 47.3437 29.9677 48.415 29.1254C49.3224 28.4118 50.1015 27.2526 50.2795 25.3574H39.5571Z" fill="black"/>
<path d="M111.367 25.6913H146.155V22.9408H111.367V25.6913ZM147.905 25.9831L147.903 26.058C147.865 26.8039 147.267 27.4019 146.521 27.4396L146.446 27.4416H111.076L111.001 27.4396C110.255 27.4019 109.657 26.8039 109.619 26.058L109.617 25.9831V22.6491C109.617 21.8436 110.27 21.1906 111.076 21.1906H146.446C147.252 21.1906 147.905 21.8436 147.905 22.6491V25.9831Z" fill="black"/>
<path d="M109.028 46.7888H149.285V42.4754H109.028V46.7888ZM151.035 47.0805L151.033 47.1554C150.995 47.9013 150.397 48.4993 149.651 48.5371L149.576 48.5391H108.736L108.661 48.5371C107.915 48.4993 107.317 47.9013 107.279 47.1554L107.277 47.0805V42.1837C107.277 41.3781 107.93 40.7251 108.736 40.7251H149.576C150.382 40.7251 151.035 41.3781 151.035 42.1837V47.0805Z" fill="black"/>
<path d="M114.016 27.0509V41.1157H112.266V27.0509H114.016Z" fill="black"/>
<path d="M122.223 30.9579L122.223 36.4276L120.473 36.4276L120.473 30.9579L122.223 30.9579Z" fill="black"/>
<path d="M130.028 30.9579L130.028 36.4276L128.277 36.4276L128.277 30.9579L130.028 30.9579Z" fill="black"/>
<path d="M137.844 30.9579L137.844 36.4276L136.094 36.4276L136.094 30.9579L137.844 30.9579Z" fill="black"/>
<path d="M145.66 27.0509V41.1157H143.91V27.0509H145.66Z" fill="black"/>
<path d="M131.314 7.90684C131.314 6.71581 130.348 5.7503 129.157 5.7503C127.966 5.75035 127 6.71584 127 7.90684C127 9.09789 127.966 10.0636 129.157 10.0637V11.814L129.056 11.8125C126.945 11.759 125.25 10.0308 125.25 7.90684C125.25 5.74917 126.999 4.00004 129.157 4C131.315 4 133.064 5.74915 133.064 7.90684L133.063 8.00769C133.009 10.1189 131.281 11.814 129.157 11.814V10.0637C130.348 10.0637 131.314 9.09791 131.314 7.90684Z" fill="black"/>
<path d="M122.036 9.46964C122.036 8.71017 121.42 8.09453 120.661 8.09453C119.901 8.0946 119.286 8.71022 119.285 9.46964C119.285 10.2291 119.901 10.845 120.661 10.845V12.5953L120.5 12.5913C118.848 12.5076 117.535 11.1419 117.535 9.46964C117.535 7.74356 118.934 6.3443 120.661 6.34424C122.387 6.34424 123.786 7.74352 123.786 9.46964L123.782 9.63059C123.699 11.282 122.333 12.5953 120.661 12.5953V10.845C121.42 10.845 122.036 10.2292 122.036 9.46964Z" fill="black"/>
<path d="M136.374 9.46964C136.374 8.71017 136.99 8.09453 137.75 8.09453C138.509 8.0946 139.125 8.71022 139.125 9.46964C139.125 10.2291 138.509 10.845 137.75 10.845V12.5953L137.91 12.5913C139.562 12.5076 140.875 11.1419 140.875 9.46964C140.875 7.74356 139.476 6.3443 137.75 6.34424C136.023 6.34424 134.624 7.74352 134.624 9.46964L134.628 9.63059C134.712 11.282 136.077 12.5953 137.75 12.5953V10.845C136.99 10.845 136.374 10.2292 136.374 9.46964Z" fill="black"/>
<path d="M124.959 14.4963C124.164 15.0245 123.414 16.5708 123.775 18.7L122.049 18.9926C121.615 16.4336 122.433 14.073 123.991 13.0383L124.959 14.4963Z" fill="black"/>
<path d="M117.244 14.4963C116.449 15.0245 115.699 16.5708 116.06 18.7L114.334 18.9926C113.901 16.4336 114.718 14.073 116.276 13.0383L117.244 14.4963Z" fill="black"/>
<path d="M141.17 14.4963C141.965 15.0245 142.715 16.5708 142.354 18.7L144.08 18.9926C144.513 16.4336 143.696 14.073 142.138 13.0383L141.17 14.4963Z" fill="black"/>
<path d="M132.58 14.4963C133.375 15.0245 134.125 16.5708 133.764 18.7L135.49 18.9926C135.924 16.4336 135.106 14.073 133.548 13.0383L132.58 14.4963Z" fill="black"/>
<path d="M213.724 20.6911C213.804 21.2689 213.997 21.9105 214.368 22.4696C214.895 23.2623 215.825 23.9671 217.539 24.0449C218.37 24.0826 219.366 23.8659 220.137 23.2554C220.753 22.7671 221.29 21.9754 221.452 20.6911H213.724ZM214.13 19.0405H221.032L217.516 11.4875L214.13 19.0405ZM223.152 19.8658C223.152 22.0855 222.345 23.6109 221.162 24.5489C220.01 25.4615 218.594 25.7452 217.464 25.6939C215.244 25.593 213.821 24.6298 212.993 23.3824C212.194 22.1791 211.997 20.7882 212.031 19.8365L212.037 19.6754L216.967 8.67639H225.186V10.327H218.796L223.152 19.6831V19.8658Z" fill="black"/>
<path d="M241.467 20.6911C241.387 21.2689 241.194 21.9105 240.823 22.4696C240.297 23.2623 239.366 23.9671 237.652 24.0449C236.822 24.0826 235.825 23.8659 235.055 23.2554C234.439 22.7671 233.901 21.9754 233.74 20.6911H241.467ZM241.061 19.0405H234.16L237.676 11.4875L241.061 19.0405ZM232.04 19.8658C232.04 22.0855 232.846 23.6109 234.03 24.5489C235.181 25.4615 236.597 25.7452 237.727 25.6939C239.948 25.593 241.37 24.6298 242.198 23.3824C242.997 22.1791 243.194 20.7882 243.16 19.8365L243.155 19.6754L238.224 8.67639H230.006V10.327H236.395L232.04 19.6831V19.8658Z" fill="black"/>
<path d="M228.71 9.68027C228.71 9.11156 228.249 8.65055 227.68 8.65055C227.112 8.65061 226.651 9.1116 226.651 9.68027C226.651 10.249 227.112 10.7102 227.68 10.7103V12.3608L227.542 12.3573C226.126 12.2855 225 11.1143 225 9.68027C225 8.20002 226.2 7.00006 227.68 7C229.161 7 230.361 8.19999 230.361 9.68027L230.357 9.81835C230.286 11.2346 229.114 12.3608 227.68 12.3608V10.7103C228.249 10.7103 228.71 10.249 228.71 9.68027Z" fill="black"/>
<path d="M228.507 12.1821V27.7967H231.613V29.4473H223.75V27.7967H226.856V12.1821H228.507Z" fill="black"/>
<path d="M208.876 28.9394C209.727 28.7144 210.57 28.8085 211.268 29.0595L211.405 29.1116L211.411 29.1138L211.416 29.1159L224.679 34.6332C224.661 34.3516 224.675 34.0899 224.707 33.8659L224.789 33.2878L225.362 33.1733C227.099 32.8258 231.133 31.7849 233.394 30.7673C235.603 29.7735 238.582 29.8867 242.076 31.8841L242.242 31.9805L242.245 31.9821L242.248 31.984L250.105 36.6749L249.259 38.0923L241.407 33.4044C238.171 31.5071 235.703 31.5383 234.072 32.2723C231.903 33.2481 228.343 34.2048 226.337 34.6525C226.375 34.972 226.484 35.3132 226.697 35.593C226.973 35.9545 227.517 36.3377 228.668 36.3264L228.782 36.324C229.553 36.2847 230.769 36.2378 231.938 36.2241C233.085 36.2106 234.276 36.227 234.924 36.335L234.653 37.963C234.175 37.8835 233.137 37.8608 231.957 37.8747C230.806 37.8882 229.604 37.9346 228.85 37.9732L228.841 37.9735L228.833 37.9738C227.302 38.0216 226.22 37.549 225.536 36.777L210.791 30.6435C210.341 30.4642 209.809 30.3999 209.298 30.5349C208.97 30.6219 208.623 30.7987 208.292 31.1214L222.485 41.4031L222.649 41.517C223.085 41.8126 223.892 42.3042 224.892 42.6998C226.041 43.1545 227.379 43.4562 228.68 43.253L228.682 43.2524L242.084 41.2L245.658 44.391L244.559 45.6222L241.565 42.9491L228.932 44.8842L228.932 44.8839C227.231 45.149 225.58 44.7472 224.285 44.2346C222.982 43.7192 221.973 43.0657 221.526 42.7463L221.521 42.7431L206 31.4994L206.414 30.8444C207.08 29.7894 207.952 29.184 208.876 28.9394Z" fill="black"/>
<path d="M144.034 69.1659V70.9356H134.168V69.1659H144.034Z" fill="black"/>
<path d="M139.717 74.0985V75.8683H134.168V74.0985H139.717Z" fill="black"/>
<path d="M149.847 63V81.1094H140.388L133.896 87.602V80.2246H135.665V83.3294L139.655 79.3397H148.077V64.7698H128.574V67.5845H126.805V63H149.847Z" fill="black"/>
<path d="M119.789 69.7809C121.427 68.4421 123.611 68.0338 125.624 68.3274C127.635 68.6208 129.601 69.6323 130.793 71.2998C131.985 72.9655 132.326 75.1788 131.33 77.7056C131.54 81.2651 130.764 83.7243 129.483 85.3167C128.176 86.9413 126.424 87.5617 124.965 87.5617C121.596 87.5617 119.613 85.5294 118.551 83.165C117.518 80.8666 117.294 78.1631 117.392 76.3509C117.164 73.3373 118.132 71.136 119.789 69.7809ZM125.368 70.0785C123.735 69.8403 122.083 70.1918 120.909 71.1511C119.768 72.0845 118.952 73.6978 119.161 76.2729L119.166 76.3345L119.162 76.3962C119.066 78.0282 119.274 80.4575 120.165 82.4394C121.037 84.38 122.498 85.7919 124.965 85.7919C125.936 85.7919 127.162 85.3788 128.104 84.2077C128.959 83.1448 129.645 81.3739 129.592 78.5361C124.275 78.9447 120.881 76.7772 119.726 75.3915L121.086 74.2583C121.863 75.1905 124.8 77.2345 129.8 76.7418C130.447 74.8685 130.119 73.3995 129.354 72.3292C128.495 71.1288 127.004 70.3169 125.368 70.0785Z" fill="black"/>
<path d="M121.776 94.1357L120.243 95.0203L117.545 90.3459C115.975 90.5529 114.004 91.3144 112.626 92.9709C111.122 94.7785 110.184 97.8264 111.532 102.858L109.822 103.316C108.369 97.8937 109.297 94.205 111.265 91.8391C113.198 89.5158 115.994 88.6395 117.978 88.5283L118.522 88.4978L121.776 94.1357Z" fill="black"/>
<path d="M127.533 94.1357L129.065 95.0203L131.764 90.3459C133.334 90.5529 135.305 91.3144 136.683 92.9709C138.186 94.7785 139.125 97.8264 137.777 102.858L139.486 103.316C140.939 97.8937 140.011 94.205 138.043 91.8391C136.111 89.5158 133.315 88.6395 131.331 88.5283L130.787 88.4978L127.533 94.1357Z" fill="black"/>
<path d="M129.429 87.9192L125.723 95.3318L129.407 101.713L124.959 106.162L120.539 101.742L123.714 95.392L121.921 92.2854L123.453 91.4005L124.662 93.4952L126.566 89.6889H121.312V87.9192H129.429ZM122.692 101.393L124.959 103.659L127.196 101.422L124.774 97.2285L122.692 101.393Z" fill="black"/>
<path d="M24.7508 95.4702C25.6327 96.9238 25.9604 98.2757 25.8326 99.4587C25.7647 100.086 25.5703 100.646 25.2825 101.124H44.786C45.3067 100.658 45.8599 99.8999 46.0318 98.9868C46.2051 98.0657 46.0153 96.8573 44.7336 95.4702H24.7508ZM41.042 70.5921C41.042 69.7992 41.0161 69.2698 40.7492 68.8917C40.5312 68.5828 39.9791 68.1685 38.3249 68.1685H18.5218C18.9316 68.8296 19.1684 69.6448 19.1684 70.5921V70.5968L19.011 97.0176C19.012 99.1118 19.6909 100.291 20.4346 100.869C21.1862 101.453 22.1187 101.521 22.8734 101.192C23.5726 100.886 24.1275 100.237 24.2303 99.2856C24.3349 98.3179 23.9794 96.9171 22.5688 95.1706L21.5091 93.8585H41.042V91.9785H42.6536V93.8585H45.4109L45.6469 94.0946C47.4488 95.8965 47.912 97.7099 47.6156 99.2848C47.3302 100.801 46.3667 101.956 45.5677 102.569L45.3508 102.736H23.3524C22.1111 103.212 20.629 103.062 19.4454 102.142C18.2014 101.175 17.3993 99.4542 17.3993 97.0129V97.0082L17.5567 70.5921L17.5528 70.4142C17.5137 69.5431 17.1874 68.9376 16.7595 68.5407C16.291 68.1061 15.6493 67.875 14.9865 67.875C14.3238 67.875 13.6821 68.1061 13.2135 68.5407C12.7572 68.964 12.4164 69.6248 12.4164 70.5921V75.0703H14.5461V76.682H10.8047V70.5921C10.8047 69.2108 11.3079 68.11 12.1176 67.359C12.915 66.6194 13.9613 66.2633 14.9865 66.2633C15.5202 66.2633 16.0595 66.36 16.5665 66.5568H38.3249C40.1935 66.5568 41.4031 67.0236 42.0658 67.9623C42.6028 68.7232 42.6502 69.6491 42.6536 70.3208V74.4082H41.042V70.5921Z" fill="black"/>
<path d="M54.9458 93.116L54.9801 93.3904C55.0468 93.9239 54.9737 94.7223 54.5004 95.4133C53.9935 96.1534 53.1142 96.6446 51.8321 96.6447H51.4982L48.62 93.7665L49.7598 92.6267L52.1492 95.0165C52.7549 94.9527 53.0298 94.7082 53.1707 94.5026C53.31 94.2991 53.3727 94.0515 53.3866 93.8358L47.1523 87.6015L48.2918 86.462L54.9458 93.116Z" fill="black"/>
<path d="M42.3207 76.7591C44.2968 76.8091 46.0616 77.7085 47.2646 79.1055H44.7996C44.0251 78.6378 43.1173 78.3687 42.1465 78.3686C39.3076 78.3686 37.0062 80.6701 37.0062 83.509C37.0062 86.3479 39.3076 88.6493 42.1465 88.6493C44.9854 88.6492 47.2869 86.3478 47.2869 83.509C47.2869 83.2087 47.2607 82.9145 47.2113 82.6284H48.8411C48.8786 82.9166 48.8986 83.2105 48.8986 83.509L48.8962 83.6831C48.8038 87.3316 45.8172 90.2609 42.1465 90.261L41.9724 90.2586C38.3817 90.1677 35.4876 87.2738 35.3966 83.6831L35.3945 83.509C35.3945 79.78 38.4175 76.757 42.1465 76.757L42.3207 76.7591Z" fill="black"/>
<path d="M32.1603 75.951V77.5627H22.4727V75.951H32.1603Z" fill="black"/>
<path d="M29.5182 85.3451V86.9568H22.4727V85.3451H29.5182Z" fill="black"/>
<path d="M27.7568 80.6482V82.2599H22.4727V80.6482H27.7568Z" fill="black"/>
<path d="M229.226 86.5871V92.4573H227.48V86.5871H229.226ZM229.226 79.7388V84.3043H227.48V79.7388H229.226Z" fill="black"/>
<path d="M242.213 96.6392V98.3851H215.309V96.6392H242.213Z" fill="black"/>
<path d="M248.001 74.5634L247.595 76.2091H209.766L209.359 74.5634L228.68 64.4033L248.001 74.5634ZM213.302 74.4631H244.059L228.68 66.3758L213.302 74.4631Z" fill="black"/>
<path d="M220.854 101.694V103.44H210.418V101.694H220.854ZM245.965 101.694V103.44H223.442V101.694H245.965Z" fill="black"/>
<path d="M219.609 79.9019V92.4573H217.863V79.9019H219.609Z" fill="black"/>
<path d="M239.012 79.9019V92.4573H237.266V79.9019H239.012Z" fill="black"/>
<path d="M113.116 133.143C114.712 132.075 116.594 131.884 117.849 132.023L117.664 133.693C116.693 133.585 115.236 133.746 114.05 134.539C112.917 135.297 111.918 136.705 111.918 139.351H110.238C110.238 136.209 111.466 134.246 113.116 133.143Z" fill="black"/>
<path d="M140.759 133.143C139.163 132.075 137.281 131.884 136.026 132.023L136.211 133.693C137.182 133.585 138.639 133.746 139.825 134.539C140.958 135.297 141.957 136.705 141.957 139.351H143.637C143.637 136.209 142.409 134.246 140.759 133.143Z" fill="black"/>
<path d="M153 141.294V142.974H100.5V141.294H153Z" fill="black"/>
<path d="M153 162.071V163.751H100.5V162.071H153Z" fill="black"/>
<path d="M103.184 162.725V142.319C103.184 141.855 103.56 141.479 104.024 141.479C104.488 141.479 104.864 141.855 104.864 142.319V162.725C104.864 163.189 104.488 163.565 104.024 163.565C103.56 163.565 103.184 163.189 103.184 162.725Z" fill="black"/>
<path d="M148.633 162.725V142.319C148.633 141.855 149.009 141.479 149.473 141.479C149.937 141.479 150.313 141.855 150.313 142.319V162.725C150.313 163.189 149.937 163.565 149.473 163.565C149.009 163.565 148.633 163.189 148.633 162.725Z" fill="black"/>
<path d="M118.307 146.586V158.088H108.66V146.586H118.307ZM110.34 156.408H116.627V148.266H110.34V156.408Z" fill="black"/>
<path d="M131.666 146.586V158.088H122.02V146.586H131.666ZM123.7 156.408H129.986V148.266H123.7V156.408Z" fill="black"/>
<path d="M145.026 146.586V158.088H135.379V146.586H145.026ZM137.059 156.408H143.346V148.266H137.059V156.408Z" fill="black"/>
<path d="M128.873 123.953C128.873 122.832 127.964 121.923 126.843 121.923C125.722 121.923 124.813 122.832 124.813 123.953C124.813 125.075 125.722 125.984 126.843 125.984V127.664L126.747 127.662C124.774 127.612 123.184 126.022 123.134 124.049L123.133 123.953C123.133 121.904 124.794 120.243 126.843 120.243L126.939 120.244C128.944 120.295 130.553 121.936 130.553 123.953L130.552 124.049C130.501 126.054 128.86 127.664 126.843 127.664V125.984C127.964 125.984 128.873 125.075 128.873 123.953Z" fill="black"/>
<path d="M117.745 125.809C117.745 125.097 117.168 124.52 116.456 124.52C115.745 124.52 115.168 125.097 115.168 125.809C115.168 126.52 115.745 127.097 116.456 127.097V128.777C114.817 128.777 113.488 127.448 113.488 125.809C113.488 124.169 114.817 122.84 116.456 122.84C118.096 122.84 119.425 124.169 119.425 125.809C119.425 127.448 118.096 128.777 116.456 128.777V127.097C117.168 127.097 117.745 126.52 117.745 125.809Z" fill="black"/>
<path d="M138.518 125.809C138.518 125.097 137.941 124.52 137.23 124.52C136.518 124.52 135.942 125.097 135.942 125.809C135.942 126.52 136.518 127.097 137.23 127.097V128.777C135.591 128.777 134.262 127.448 134.262 125.809C134.262 124.169 135.591 122.84 137.23 122.84C138.869 122.84 140.198 124.169 140.198 125.809C140.198 127.448 138.869 128.777 137.23 128.777V127.097C137.941 127.097 138.518 126.52 138.518 125.809Z" fill="black"/>
<path d="M127.141 131.714L128.406 129.606H128.881C129.923 129.606 131.491 130.022 132.702 131.536C133.906 133.042 134.657 135.511 134.35 139.417L132.675 139.285C132.963 135.622 132.232 133.638 131.39 132.585C130.731 131.762 129.944 131.43 129.333 131.327L127.282 134.744L124.824 131.397C124.201 131.612 123.371 132.106 122.673 133.044C121.793 134.227 121.082 136.175 121.364 139.275L119.69 139.427C119.379 135.996 120.153 133.616 121.325 132.041C122.482 130.486 123.988 129.772 125.045 129.615L125.546 129.541L127.141 131.714Z" fill="black"/>
<path d="M37.6092 127.736L49.4907 139.617L54.0276 140.457L39.6643 154.82L38.5099 150.512L33.7262 145.729L26.3877 155.164L24.9212 154.024L32.4025 144.405L30.3032 142.305L13.0778 156.683C12.7509 158.069 12.7296 159.777 13.4164 160.936C13.7604 161.516 14.2981 161.991 15.1616 162.243C16.0034 162.488 17.201 162.531 18.8788 162.167L22.7524 157.693L24.1568 158.909L19.8872 163.841L19.5954 163.91C17.5755 164.389 15.9418 164.405 14.6425 164.027C13.3175 163.641 12.3979 162.861 11.8181 161.883C10.7036 160.002 10.9152 157.53 11.3561 155.917L11.4329 155.636L28.9846 140.987L26.1258 138.128H21.2122L36.3402 123L37.6092 127.736ZM38.2372 147.612L40.1756 149.551L40.6258 151.231L50.2161 141.641L48.5854 141.339L46.6092 139.363L38.2372 147.612ZM30.3189 139.694L36.9234 146.298L45.2955 138.049L38.6296 131.384L30.3189 139.694ZM25.6971 136.27H26.895L29.0055 138.381L37.3162 130.07L35.9435 128.697L35.3783 126.589L25.6971 136.27Z" fill="black"/>
<path d="M52.4165 158.085L52.6269 158.202C54.1748 159.062 55.1424 160.606 55.6672 162.025C55.9333 162.744 56.0989 163.465 56.1676 164.109C56.2338 164.729 56.2196 165.363 56.0518 165.866L55.8401 166.502H51.1783V164.644H54.3446C54.3413 164.542 54.3336 164.429 54.3205 164.306C54.2688 163.822 54.1401 163.251 53.925 162.669C53.5155 161.562 52.8386 160.534 51.9197 159.943H39.5414C38.5463 160.428 36.9486 162.023 36.8334 164.644H46.3306V166.502H35.0619L34.996 165.644C34.6776 161.508 37.2193 158.863 38.9993 158.152L39.1652 158.085H52.4165Z" fill="black"/>
<path d="M230.343 132.298C230.343 131.282 229.519 130.457 228.502 130.457C227.485 130.457 226.661 131.282 226.661 132.298C226.661 133.315 227.485 134.14 228.502 134.14V135.831C226.551 135.831 224.969 134.25 224.969 132.298C224.969 130.347 226.551 128.765 228.502 128.765C230.453 128.765 232.035 130.347 232.035 132.298C232.035 134.25 230.453 135.831 228.502 135.831V134.14C229.519 134.14 230.343 133.315 230.343 132.298Z" fill="black"/>
<path d="M229.497 122.435V128.913H227.805V122.435H229.497Z" fill="black"/>
<path d="M227.429 134.5V155.471L221.147 161.63H236.222L230.909 155.452L229.861 138.829L231.549 138.722L232.562 154.779L239.909 163.322H217.004L225.737 154.76V134.5H227.429Z" fill="black"/>
<path d="M218.576 131.594C221.913 129.37 224.522 129.671 226 130L225.633 131.652C224.462 131.391 222.36 131.105 219.515 133.002C218.637 133.587 217.694 133.972 216.773 134.219L219.255 141.292L217.659 141.852L215.092 134.538C215.089 134.538 215.087 134.538 215.085 134.539L211.159 144.795C210.795 145.898 210.901 147.272 211.581 148.338C212.235 149.362 213.485 150.2 215.639 150.148C216.388 150.13 217.395 149.841 218.224 149.032C218.934 148.338 219.575 147.201 219.765 145.362H214.482V143.67H221.53L221.51 144.536C221.447 147.242 220.599 149.077 219.406 150.242C218.227 151.394 216.79 151.812 215.68 151.839C213.006 151.904 211.164 150.829 210.155 149.248C209.174 147.712 209.043 145.794 209.557 144.249L209.563 144.231L209.57 144.214L213.242 134.621C212.545 134.603 211.952 134.533 211.531 134.455L211.839 132.791C212.369 132.889 213.316 132.983 214.421 132.903C214.773 132.877 215.14 132.834 215.513 132.768C216.557 132.584 217.63 132.225 218.576 131.594Z" fill="black"/>
<path d="M238.424 131.594C235.087 129.37 232.478 129.672 231 130L231.367 131.652C232.538 131.391 234.64 131.105 237.485 133.002C238.363 133.587 239.306 133.972 240.227 134.22L237.745 141.292L239.341 141.852L241.908 134.538C241.911 134.538 241.913 134.538 241.915 134.539L245.841 144.795C246.205 145.898 246.099 147.272 245.419 148.338C244.765 149.362 243.515 150.201 241.361 150.148C240.612 150.13 239.605 149.841 238.776 149.032C238.066 148.338 237.425 147.202 237.235 145.362H242.518V143.67H235.47L235.49 144.536C235.553 147.242 236.401 149.077 237.594 150.242C238.773 151.394 240.21 151.812 241.32 151.839C243.994 151.905 245.836 150.829 246.845 149.248C247.826 147.712 247.957 145.794 247.443 144.249L247.437 144.231L247.43 144.214L243.758 134.621C244.455 134.603 245.048 134.533 245.469 134.455L245.161 132.791C244.631 132.889 243.684 132.983 242.579 132.903C242.227 132.877 241.86 132.834 241.487 132.768C240.443 132.584 239.37 132.225 238.424 131.594Z" fill="black"/>
</svg>
