<svg width="260" height="178" viewBox="0 0 260 178" fill="none" xmlns="http://www.w3.org/2000/svg">
<path d="M46.5979 25.5C46.5979 15.507 38.4969 7.40601 28.5039 7.40601C18.5109 7.40601 10.4099 15.507 10.4099 25.5C10.4099 35.493 18.5109 43.594 28.5039 43.594V45.0039C17.7322 45.0039 9 36.2717 9 25.5C9 14.7283 17.7322 5.99609 28.5039 5.99609C39.2756 5.99609 48.0078 14.7283 48.0078 25.5C48.0078 36.2717 39.2756 45.0039 28.5039 45.0039V43.594C38.4969 43.594 46.5979 35.493 46.5979 25.5Z" fill="black"/>
<path d="M42.84 25.5001C42.84 17.5835 36.4224 11.1659 28.5058 11.1659C20.5893 11.1659 14.1716 17.5835 14.1716 25.5001C14.1716 33.4167 20.5893 39.8343 28.5058 39.8343V41.2442C19.8106 41.2442 12.7617 34.1953 12.7617 25.5001C12.7617 16.8049 19.8106 9.75598 28.5058 9.75598C37.2011 9.75598 44.25 16.8049 44.25 25.5001C44.25 34.1953 37.2011 41.2442 28.5058 41.2442V39.8343C36.4224 39.8343 42.84 33.4167 42.84 25.5001Z" fill="black"/>
<path d="M31.0884 21.7401V21.0352C31.0884 19.7374 30.0363 18.6853 28.7385 18.6853H27.916C26.6182 18.6853 25.5662 19.7374 25.5662 21.0352V22.4451C25.5662 23.7429 26.6182 24.795 27.916 24.795H28.7385C30.815 24.795 32.4983 26.4783 32.4983 28.5548V29.9647C32.4983 32.0412 30.815 33.7245 28.7385 33.7245H27.916C25.8396 33.7245 24.1562 32.0412 24.1562 29.9647V29.6122C24.1562 29.2229 24.4719 28.9072 24.8612 28.9072C25.2505 28.9072 25.5662 29.2229 25.5662 29.6122V29.9647C25.5662 31.2625 26.6182 32.3145 27.916 32.3145H28.7385C30.0363 32.3145 31.0884 31.2625 31.0884 29.9647V28.5548C31.0884 27.257 30.0363 26.2049 28.7385 26.2049H27.916C25.8396 26.2049 24.1562 24.5216 24.1562 22.4451V21.0352C24.1562 18.9587 25.8396 17.2754 27.916 17.2754H28.7385C30.815 17.2754 32.4983 18.9587 32.4983 21.0352V21.7401C32.4983 22.1295 32.1827 22.4451 31.7933 22.4451C31.404 22.4451 31.0884 22.1295 31.0884 21.7401Z" fill="black"/>
<path d="M28.9724 27.3798V35.7219H27.5625V27.3798H28.9724ZM28.9724 15.3955V23.5026H27.5625V15.3955H28.9724Z" fill="black"/>
<path d="M17.6136 27.1499C18.0001 27.1039 18.3506 27.3799 18.3966 27.7663C18.5715 29.2351 19.8695 32.773 23.6443 34.6164C23.994 34.7872 24.139 35.2091 23.9682 35.5589C23.7974 35.9086 23.3755 36.0536 23.0257 35.8828C18.7192 33.7796 17.2139 29.753 16.9972 27.9329C16.9512 27.5464 17.2271 27.1959 17.6136 27.1499Z" fill="black"/>
<path d="M114.791 30.3223C114.791 29.9177 114.463 29.5897 114.059 29.5897H108.198C107.793 29.5897 107.465 29.9177 107.465 30.3223V43.8021C107.465 44.2068 107.793 44.5347 108.198 44.5347H114.059C114.463 44.5347 114.791 44.2068 114.791 43.8021V30.3223ZM116.256 43.8021C116.256 45.016 115.272 45.9999 114.059 45.9999H108.198C106.984 45.9999 106 45.016 106 43.8021V30.3223C106 29.1085 106.984 28.1245 108.198 28.1245H114.059C115.272 28.1245 116.256 29.1085 116.256 30.3223V43.8021Z" fill="black"/>
<path d="M125.469 27.2455C126.166 27.2455 126.855 27.3961 127.488 27.687L131.278 29.4287C131.719 29.6315 132.2 29.7363 132.685 29.7363H137.448C139.269 29.7363 140.795 31.1141 140.981 32.926C141.2 35.0537 139.502 36.8903 137.363 36.8394L134.408 36.769L134.443 35.3044L137.398 35.3748C138.654 35.4047 139.652 34.3254 139.524 33.0754C139.415 32.0109 138.518 31.2015 137.448 31.2015H132.685C131.988 31.2015 131.3 31.0509 130.667 30.76L126.876 29.0183C126.435 28.8155 125.955 28.7107 125.469 28.7107H121.129C120.332 28.7107 119.561 28.9932 118.953 29.508L116.29 31.7607L115.344 30.6423L118.006 28.3896C118.879 27.6509 119.986 27.2455 121.129 27.2455H125.469Z" fill="black"/>
<path d="M148.176 28.4077C149.521 27.1847 151.563 27.1407 152.959 28.3047C154.605 29.6764 154.718 32.1654 153.203 33.6804L144.906 41.9774C143.175 43.7085 140.827 44.6811 138.379 44.6812H115.965V43.216H138.379C140.438 43.2159 142.414 42.3978 143.87 40.9415L152.167 32.6442C153.073 31.7384 153.005 30.2506 152.021 29.4305C151.186 28.7345 149.966 28.7608 149.161 29.492L141.785 36.1976C141.381 36.5654 140.854 36.7691 140.307 36.7691H129.005V35.3039H140.307C140.489 35.3039 140.665 35.2359 140.8 35.1133L148.176 28.4077Z" fill="black"/>
<path d="M128.86 14.9379V18.6009H135.159C136.943 18.6009 138.404 20.0201 138.455 21.8034C138.508 23.6603 137.017 25.1943 135.159 25.1943H129.592C128.379 25.1943 127.395 24.2103 127.395 22.9965V14.9379H128.86ZM128.86 22.9965C128.86 23.4011 129.188 23.7291 129.592 23.7291H135.159C136.191 23.7291 137.019 22.8768 136.99 21.8452C136.962 20.8545 136.15 20.0661 135.159 20.0661H128.86V22.9965Z" fill="black"/>
<path d="M131.934 13.7655V10.9816C131.934 10.577 132.262 10.249 132.666 10.249C133.071 10.249 133.399 10.577 133.399 10.9816V13.7655C133.399 14.1701 133.071 14.4981 132.666 14.4981C132.262 14.4981 131.934 14.1701 131.934 13.7655Z" fill="black"/>
<path d="M131.934 27.5386V24.7547C131.934 24.3501 132.262 24.0221 132.666 24.0221C133.071 24.0221 133.399 24.3501 133.399 24.7547V27.5386C133.399 27.9432 133.071 28.2712 132.666 28.2712C132.262 28.2712 131.934 27.9432 131.934 27.5386Z" fill="black"/>
<path d="M137.068 16.6725C137.068 15.5526 136.16 14.6446 135.04 14.6446H129.499C129.085 14.6446 128.753 14.9877 128.766 15.4016L128.863 18.2833L127.398 18.332L127.302 15.4505C127.261 14.2087 128.256 13.1794 129.499 13.1794H135.04C136.969 13.1794 138.533 14.7434 138.533 16.6725C138.533 18.6246 136.933 20.1976 134.981 20.1646L129.144 20.0659L129.168 18.6007L135.006 18.6997C136.139 18.7189 137.068 17.8057 137.068 16.6725Z" fill="black"/>
<path d="M132.818 6C140.181 6 146.151 11.9695 146.151 19.3333C146.151 24.6865 142.996 29.3017 138.444 31.4235C137.919 31.1049 137.36 30.8047 136.784 30.5215C141.388 28.8893 144.686 24.4969 144.686 19.3333C144.686 12.7787 139.372 7.4652 132.818 7.4652C126.263 7.4652 120.95 12.7787 120.95 19.3333C120.95 22.4144 122.124 25.221 124.049 27.3307C123.474 27.4315 122.942 27.5607 122.45 27.7167C120.596 25.4263 119.484 22.5098 119.484 19.3333C119.484 11.9695 125.454 6 132.818 6Z" fill="black"/>
<path d="M237.024 25.5C237.397 25.5 237.7 25.8028 237.7 26.1763C237.7 26.5498 237.397 26.8526 237.024 26.8526H226.09C225.717 26.8526 225.414 26.5498 225.414 26.1763C225.414 25.8028 225.717 25.5 226.09 25.5H237.024Z" fill="black"/>
<path d="M236.911 28.5433C237.284 28.5433 237.587 28.8461 237.587 29.2196C237.587 29.5931 237.284 29.8959 236.911 29.8959H225.977C225.604 29.8959 225.301 29.5931 225.301 29.2196C225.301 28.8461 225.604 28.5433 225.977 28.5433H236.911Z" fill="black"/>
<path d="M230.822 33.3903V26.1544L225.862 18.6594C225.656 18.3479 225.742 17.9283 226.053 17.7222C226.365 17.5161 226.784 17.6016 226.99 17.9131L231.511 24.7439L236.24 17.9016C236.452 17.5944 236.874 17.5175 237.181 17.7299C237.488 17.9423 237.565 18.3636 237.353 18.6708L232.175 26.1619V33.3903C232.175 33.7638 231.872 34.0666 231.499 34.0666C231.125 34.0666 230.822 33.7638 230.822 33.3903Z" fill="black"/>
<path d="M249.647 25.5C249.647 15.4775 241.523 7.3526 231.5 7.3526C221.477 7.3526 213.353 15.4775 213.353 25.5C213.353 35.5225 221.477 43.6474 231.5 43.6474V45C220.73 45 212 36.2696 212 25.5C212 14.7304 220.73 6 231.5 6C242.27 6 251 14.7304 251 25.5C251 36.2696 242.27 45 231.5 45V43.6474C241.523 43.6474 249.647 35.5225 249.647 25.5Z" fill="black"/>
<path d="M47.6207 84C47.6207 73.7161 39.2839 65.3793 29 65.3793C18.7161 65.3793 10.3793 73.7161 10.3793 84C10.3793 94.2839 18.7161 102.621 29 102.621V104C17.9543 104 9 95.0457 9 84C9 72.9543 17.9543 64 29 64C40.0457 64 49 72.9543 49 84C49 95.0457 40.0457 104 29 104V102.621C39.2839 102.621 47.6207 94.2839 47.6207 84Z" fill="black"/>
<path d="M27.5116 99.1003C28.0012 99.148 28.498 99.1724 29.0009 99.1724V100.552C28.4533 100.552 27.912 100.525 27.3781 100.473L27.5116 99.1003ZM30.4903 99.1003L30.6236 100.473C30.0897 100.525 29.5485 100.552 29.0009 100.552V99.1724C29.5038 99.1724 30.0006 99.148 30.4903 99.1003ZM21.8485 97.3843C22.717 97.8495 23.6358 98.2324 24.5945 98.5229L24.1947 99.8425C23.1479 99.5253 22.145 99.1073 21.1972 98.5997L21.8485 97.3843ZM36.8045 98.5997C35.8567 99.1073 34.8538 99.5254 33.807 99.8425L33.8041 99.8324L33.4074 98.5229C34.3661 98.2324 35.2849 97.8495 36.1534 97.3843L36.8045 98.5997ZM17.2714 93.6248C17.9026 94.393 18.6079 95.0983 19.3761 95.7295L18.5005 96.795C17.6629 96.1067 16.894 95.3378 16.2057 94.5001L17.2714 93.6248ZM41.7959 94.5001C41.1077 95.3378 40.3388 96.1067 39.5011 96.795L38.6258 95.7295C39.394 95.0983 40.0993 94.393 40.7305 93.6248L41.7959 94.5001ZM14.478 88.4064C14.7685 89.3652 15.1515 90.2839 15.6166 91.1524L14.401 91.8035C13.8934 90.8557 13.4753 89.8528 13.1582 88.806L14.478 88.4064ZM44.8435 88.806C44.5263 89.8528 44.1083 90.8557 43.6007 91.8035L42.9932 91.4782L42.3852 91.1524C42.8504 90.2839 43.2334 89.3652 43.5239 88.4064L44.8435 88.806ZM12.4492 84C12.4492 83.4524 12.4761 82.911 12.528 82.3771L13.2141 82.4438L13.9006 82.5107C13.8529 83.0003 13.8285 83.4971 13.8285 84C13.8285 84.5029 13.8529 84.9997 13.9006 85.4893L13.2139 85.556L13.2141 85.5562L12.528 85.6226C12.4761 85.0888 12.4492 84.5475 12.4492 84ZM45.5527 84C45.5527 84.5475 45.5256 85.0887 45.4736 85.6226L44.7878 85.5562L44.1013 85.4893C44.1489 84.9997 44.1734 84.5029 44.1734 84C44.1734 83.4971 44.1489 83.0003 44.1013 82.5107L45.4736 82.3771C45.5256 82.911 45.5527 83.4524 45.5527 84ZM15.0087 76.5217L15.6166 76.8475C15.1515 77.716 14.7685 78.6348 14.478 79.5935L13.1582 79.1937C13.4753 78.1469 13.8933 77.144 14.401 76.1962L15.0087 76.5217ZM43.6007 76.1962C44.1083 77.144 44.5263 78.1469 44.8435 79.1937L43.5239 79.5935C43.2334 78.6348 42.8504 77.716 42.3852 76.8475L43.6007 76.1962ZM19.3761 72.2704C18.6079 72.9016 17.9026 73.6069 17.2714 74.3751L16.2057 73.4996C16.894 72.6619 17.6629 71.893 18.5005 71.2048L19.3761 72.2704ZM39.5011 71.2048C40.3388 71.893 41.1077 72.6619 41.7959 73.4996L40.7305 74.3751C40.0993 73.6069 39.394 72.9016 38.6258 72.2704L39.5011 71.2048ZM24.5945 69.477C23.6358 69.7675 22.717 70.1505 21.8485 70.6157L21.1972 69.4C22.145 68.8924 23.1479 68.4744 24.1947 68.1572L24.5945 69.477ZM33.807 68.1572C34.8538 68.4743 35.8567 68.8924 36.8045 69.4L36.4792 70.0077L36.4789 70.0075L36.1534 70.6157C35.2849 70.1505 34.3661 69.7675 33.4074 69.477L33.807 68.1572ZM29.0009 67.4482C29.5485 67.4482 30.0897 67.4751 30.6236 67.527L30.4903 68.8996C30.0006 68.852 29.5038 68.8276 29.0009 68.8276C28.498 68.8276 28.0012 68.852 27.5116 68.8996L27.3781 67.527C27.912 67.4751 28.4534 67.4482 29.0009 67.4482Z" fill="black"/>
<path d="M27.1606 72.7356V95.0344H25.7812V72.7356H27.1606Z" fill="black"/>
<path d="M34.7452 80.092C34.7452 78.6319 33.5616 77.4483 32.1016 77.4483H22.1016V76.069H32.1016C34.3234 76.069 36.1246 77.8701 36.1246 80.092C36.1246 82.3138 34.3234 84.1149 32.1016 84.1149H26.6993V82.7356H32.1016C33.5616 82.7356 34.7452 81.552 34.7452 80.092Z" fill="black"/>
<path d="M35.8947 87.1034C35.8947 88.6905 34.6081 89.977 33.0211 89.977H22.1016V91.3563H33.0211C35.3699 91.3563 37.274 89.4522 37.274 87.1034C37.274 84.7547 35.3699 82.8506 33.0211 82.8506H27.0957V84.2299H33.0211C34.6081 84.2299 35.8947 85.5164 35.8947 87.1034Z" fill="black"/>
<path d="M31.0707 72.7356V76.4138H29.6914V72.7356H31.0707Z" fill="black"/>
<path d="M31.0707 91.2413V95.0344H29.6914V91.2413H31.0707Z" fill="black"/>
<path d="M127.5 64.5916C138.553 64.5916 147.33 72.2443 147.33 81.4744C147.33 90.7042 138.553 98.3562 127.5 98.3562C116.447 98.3562 107.67 90.7042 107.67 81.4744C107.67 72.2443 116.447 64.5916 127.5 64.5916Z" stroke="black" stroke-width="1.33987"/>
<path d="M124.957 71.9608V91.1209" stroke="black" stroke-width="1.33987"/>
<path d="M128.168 71.9608V75.4445M128.168 88.0392V91.0704" stroke="black" stroke-width="1.33987"/>
<path d="M120.797 75.8463H129.908C131.388 75.8463 132.588 77.0461 132.588 78.5261C132.588 80.006 131.388 81.2058 129.908 81.2058H125.486" stroke="black" stroke-width="1.33987"/>
<path d="M120.938 87.5033H130.384C132.123 87.5033 133.532 86.0936 133.532 84.3546C133.532 82.6156 132.123 81.2059 130.384 81.2059H125.761" stroke="black" stroke-width="1.33987"/>
<path d="M112.092 98.0882C109.412 95.6228 107.849 91.5228 107.402 89.781C108.581 91.8176 111.02 94.2026 112.092 95.1405V98.0882Z" fill="black"/>
<path d="M142.908 98.2221C145.588 95.7567 147.151 91.6567 147.598 89.9149C146.419 91.9515 143.98 94.3365 142.908 95.2744V98.2221Z" fill="black"/>
<path d="M115.311 97.5522L113.703 96.4803V99.696C114.132 100.125 114.954 100.589 115.311 100.768V97.5522Z" fill="black"/>
<path d="M139.689 97.6863L141.297 96.6144V99.8301C140.868 100.259 140.046 100.723 139.689 100.902V97.6863Z" fill="black"/>
<path d="M117.051 101.706V98.4902C120.052 99.9909 123.571 100.688 124.956 100.732V103.85C121.74 103.635 118.346 102.331 117.051 101.706Z" fill="black"/>
<path d="M137.953 101.84V98.6241C134.952 100.125 131.432 100.822 130.048 100.866V103.984C133.264 103.769 136.658 102.465 137.953 101.84Z" fill="black"/>
<path d="M128.303 100.768H126.695V104.117H128.303V100.768Z" fill="black"/>
<path d="M232.428 81.2067C232.835 81.2067 233.165 81.5364 233.165 81.9432C233.165 82.35 232.835 82.6797 232.428 82.6797H221.135C220.728 82.6797 220.398 82.35 220.398 81.9432C220.398 81.5364 220.728 81.2067 221.135 81.2067H232.428Z" fill="black"/>
<path d="M232.307 84.2756C232.714 84.2756 233.044 84.6054 233.044 85.0122C233.044 85.4189 232.714 85.7487 232.307 85.7487H221.014C220.607 85.7487 220.277 85.4189 220.277 85.0122C220.277 84.6054 220.607 84.2756 221.014 84.2756H232.307Z" fill="black"/>
<path d="M228.789 74.3377C230.539 74.127 231.822 74.6932 232.679 75.4768C233.502 76.23 233.928 77.1805 234.014 77.7883C234.072 78.1909 233.792 78.5639 233.389 78.6214C232.987 78.6789 232.614 78.3992 232.556 77.9966C232.52 77.7451 232.27 77.0996 231.685 76.5638C231.132 76.0585 230.272 75.6428 228.965 75.8002C227.992 75.9173 226.955 76.6505 226.068 77.9043C225.193 79.1412 224.538 80.7877 224.299 82.511C224.059 84.234 224.241 85.9831 224.974 87.4528C225.698 88.9046 226.983 90.1343 229.061 90.8151C229.275 90.8853 229.478 90.9217 229.658 90.9189C230.087 90.9123 230.608 90.8255 231.123 90.5396C231.63 90.2577 232.175 89.7584 232.627 88.8563C232.809 88.4925 233.251 88.3451 233.615 88.5271C233.979 88.7092 234.126 89.1517 233.944 89.5154C233.369 90.6639 232.623 91.3913 231.838 91.8274C231.06 92.2595 230.286 92.3823 229.681 92.3917C229.295 92.3977 228.925 92.3207 228.602 92.2148C226.161 91.4148 224.56 89.9243 223.655 88.11C222.76 86.3135 222.57 84.2502 222.84 82.3081C223.11 80.3662 223.846 78.4944 224.865 77.0534C225.873 75.6293 227.234 74.5249 228.789 74.3377Z" fill="black"/>
<path d="M247.527 83.5C247.527 72.9917 239.008 64.4731 228.5 64.4731C217.992 64.4731 209.473 72.9917 209.473 83.5C209.473 94.0083 217.992 102.527 228.5 102.527V104C217.178 104 208 94.8218 208 83.5C208 72.1782 217.178 63 228.5 63C239.822 63 249 72.1782 249 83.5C249 94.8218 239.822 104 228.5 104V102.527C239.008 102.527 247.527 94.0083 247.527 83.5Z" fill="black"/>
<path d="M40.8112 135.086C40.8112 128.11 34.2896 122.088 25.7608 122.088C17.2319 122.088 10.7103 128.11 10.7103 135.086C10.7103 142.062 17.2319 148.084 25.7608 148.084V149.795C16.504 149.795 9 143.209 9 135.086C9 126.963 16.504 120.378 25.7608 120.378C35.0175 120.378 42.5215 126.963 42.5215 135.086C42.5215 143.209 35.0175 149.795 25.7608 149.795V148.084C34.2896 148.084 40.8112 142.062 40.8112 135.086Z" fill="black"/>
<path d="M12.418 149.11C10.2288 146.921 9.33946 143.467 9.51049 141.756C9.92096 142.851 11.6768 144.949 12.418 145.861L12.418 149.11Z" fill="black"/>
<path d="M21.2773 160.056C18.9657 157.997 18.5061 156.301 18.5783 154.583C19.4334 155.952 20.4596 156.465 21.2773 157.149L21.2773 160.056Z" fill="black"/>
<path d="M13.7891 150.821V147.4L16.5255 149.11V152.873L13.7891 150.821Z" fill="black"/>
<path d="M22.74 161.182L22.543 157.768L25.3734 159.317L25.5901 163.074L22.74 161.182Z" fill="black"/>
<path d="M17.8906 153.386V149.795L21.1402 150.821V154.754L17.8906 153.386Z" fill="black"/>
<path d="M26.9881 163.507L26.7812 159.922L30.0845 160.759L30.311 164.686L26.9881 163.507Z" fill="black"/>
<path d="M22.3438 155.096V151.163H25.5933V155.096H22.3438Z" fill="black"/>
<path d="M31.5273 164.958L31.3008 161.031L34.5449 160.844L34.7715 164.771L31.5273 164.958Z" fill="black"/>
<path d="M26.4414 155.096V151.163L29.6909 150.992V155.096H26.4414Z" fill="black"/>
<path d="M35.6231 164.722L35.3966 160.795L38.6309 160.437L38.8673 164.535L35.6231 164.722Z" fill="black"/>
<path d="M30.8906 154.754V150.821L33.9691 149.795V153.899L30.8906 154.754Z" fill="black"/>
<path d="M40.0435 164.125L39.8169 160.197L42.8312 158.996L43.0676 163.094L40.0435 164.125Z" fill="black"/>
<path d="M35.3359 152.873V148.769L38.0724 147.229V150.992L35.3359 152.873Z" fill="black"/>
<path d="M44.368 161.99L44.1316 157.892L46.7749 156.198L46.9916 159.954L44.368 161.99Z" fill="black"/>
<path d="M42.5238 141.414C42.1134 142.646 40.3005 145.006 39.4453 146.032V149.453C41.7713 147.127 42.4668 143.124 42.5238 141.414Z" fill="black"/>
<path d="M50.8859 150.137C50.547 151.39 48.8731 153.85 48.0785 154.924L48.2755 158.339C50.4636 155.883 50.9275 151.847 50.8859 150.137Z" fill="black"/>
<path d="M44.744 133.718C50.6347 138.136 51.2562 146.214 47.7894 152.089C46.0436 155.048 43.2501 157.484 39.536 158.666C35.8208 159.849 31.2495 159.757 25.9727 157.779L26.5733 156.177C31.558 158.046 35.7306 158.083 39.0169 157.037C42.3042 155.991 44.7699 153.841 46.3163 151.22C49.4341 145.936 48.7729 138.878 43.7178 135.086L44.744 133.718Z" fill="black"/>
<path d="M31.0984 141.639L29.656 142.558L20.9336 128.876L22.376 127.956L31.0984 141.639Z" fill="black"/>
<path d="M22.3092 143.078L20.8662 142.159L29.5771 128.47L31.02 129.388L22.3092 143.078Z" fill="black"/>
<path d="M32.7738 132.521V134.231H19.4336V132.521H32.7738Z" fill="black"/>
<path d="M32.9457 135.941V137.651H19.6055V135.941H32.9457Z" fill="black"/>
<path d="M11.3672 149.775C10.8069 152.896 11.4972 157.804 14.6047 161.517C17.6609 165.169 23.1832 167.811 32.6017 166.225L32.8857 167.912C23.0063 169.575 16.8208 166.83 13.2929 162.615C9.81645 158.461 9.04674 153.021 9.68363 149.473L11.3672 149.775Z" fill="black"/>
<path d="M113.566 140.783V137.255C113.566 136.787 113.945 136.408 114.413 136.408C114.881 136.408 115.26 136.787 115.26 137.255V140.783C115.26 143.277 117.282 145.299 119.775 145.299H131.206C131.673 145.299 132.052 145.678 132.052 146.145C132.052 146.613 131.673 146.992 131.206 146.992H119.775C116.346 146.992 113.566 144.212 113.566 140.783Z" fill="black"/>
<path d="M113.566 146.286V141.771C113.566 141.303 113.945 140.924 114.413 140.924C114.881 140.924 115.26 141.303 115.26 141.771V146.286C115.26 148.78 117.282 150.802 119.775 150.802H129.795C130.262 150.802 130.641 151.181 130.641 151.649C130.641 152.116 130.262 152.495 129.795 152.495H119.775C116.346 152.495 113.566 149.715 113.566 146.286Z" fill="black"/>
<path d="M114.392 145.44C114.859 145.428 115.248 145.797 115.26 146.265L115.409 152.186C115.471 154.635 117.474 156.588 119.924 156.588H130.5C130.968 156.588 131.347 156.967 131.347 157.434C131.347 157.902 130.968 158.281 130.5 158.281H119.924C116.556 158.281 113.802 155.596 113.717 152.229L113.567 146.308C113.555 145.84 113.924 145.452 114.392 145.44Z" fill="black"/>
<path d="M113.848 158.422V153.342H115.541V158.422C115.541 160.916 117.563 162.938 120.057 162.938H135.72V164.631H120.057C116.628 164.631 113.848 161.851 113.848 158.422Z" fill="black"/>
<path d="M139.656 126.389C140.123 126.381 140.509 126.754 140.517 127.221L140.565 130.094C140.624 133.564 137.828 136.408 134.357 136.408H119.399C116.012 136.408 113.25 133.693 113.191 130.306L113.141 127.391C113.133 126.924 113.505 126.538 113.973 126.53C114.44 126.522 114.826 126.895 114.834 127.362L114.884 130.277C114.927 132.74 116.936 134.715 119.399 134.715H134.357C136.881 134.715 138.915 132.646 138.872 130.123L138.824 127.25C138.816 126.783 139.188 126.397 139.656 126.389Z" fill="black"/>
<path d="M139.645 130.199C140.113 130.186 140.503 130.554 140.516 131.021L140.641 135.384C140.741 138.882 137.933 141.771 134.434 141.771H119.554C116.16 141.771 113.395 139.045 113.346 135.652L113.281 131.199C113.275 130.732 113.648 130.347 114.116 130.34C114.583 130.333 114.968 130.707 114.975 131.174L115.039 135.627C115.075 138.095 117.086 140.077 119.554 140.077H134.434C136.979 140.077 139.021 137.976 138.948 135.433L138.823 131.07C138.81 130.603 139.178 130.213 139.645 130.199Z" fill="black"/>
<path d="M141.082 142.617H142.775V163.784H141.082V142.617Z" fill="black"/>
<path d="M144.609 141.912H146.303V163.079H144.609V141.912Z" fill="black"/>
<path d="M157.309 152.636C157.309 145.311 151.37 139.372 144.044 139.372C136.718 139.372 130.779 145.311 130.779 152.636C130.779 159.962 136.718 165.901 144.044 165.901V167.595C135.783 167.595 129.086 160.898 129.086 152.636C129.086 144.375 135.783 137.678 144.044 137.678C152.305 137.678 159.002 144.375 159.002 152.636C159.002 160.898 152.305 167.595 144.044 167.595V165.901C151.37 165.901 157.309 159.962 157.309 152.636Z" fill="black"/>
<path d="M142.467 144.593C144.81 144.379 147.494 145.2 148.976 147.029C149.27 147.392 149.214 147.925 148.851 148.22C148.488 148.514 147.955 148.458 147.66 148.095C146.623 146.815 144.558 146.102 142.621 146.279C140.709 146.455 139.264 147.44 139.018 149.204C138.874 150.237 139.484 151.235 140.369 151.492C141.291 151.759 142.417 151.716 144.232 151.622C145.849 151.538 147.537 152.075 148.67 153.048C149.244 153.54 149.706 154.17 149.908 154.921C150.113 155.685 150.03 156.505 149.623 157.314C148.958 158.636 147.727 159.704 145.797 160.146C143.903 160.579 141.372 160.406 138.049 159.378C137.602 159.24 137.352 158.765 137.49 158.319C137.628 157.872 138.103 157.622 138.549 157.76C141.721 158.741 143.926 158.837 145.419 158.495C146.877 158.161 147.681 157.407 148.11 156.554C148.344 156.089 148.362 155.696 148.272 155.361C148.178 155.012 147.946 154.658 147.568 154.333C146.797 153.672 145.549 153.249 144.319 153.313C142.6 153.402 141.152 153.482 139.897 153.118C138.09 152.594 137.098 150.713 137.341 148.97C137.735 146.142 140.1 144.81 142.467 144.593Z" fill="black"/>
<path d="M127.534 123C134.938 123 140.517 124.961 140.517 127.377L140.513 127.489C140.342 129.853 134.823 131.749 127.534 131.749V130.056C131.109 130.056 134.159 129.581 136.256 128.866C137.312 128.506 138.033 128.116 138.456 127.769C138.703 127.567 138.787 127.434 138.814 127.376C138.787 127.318 138.702 127.185 138.456 126.983C138.032 126.636 137.311 126.245 136.255 125.885C134.159 125.169 131.108 124.693 127.534 124.693C123.961 124.693 120.529 125.168 118.042 125.905C116.787 126.277 115.867 126.687 115.3 127.073C115.112 127.2 114.995 127.302 114.922 127.375C114.995 127.447 115.112 127.549 115.3 127.676C115.867 128.062 116.787 128.473 118.042 128.844C120.529 129.581 123.961 130.056 127.534 130.056V131.749C120.13 131.749 113.141 129.791 113.141 127.375C113.141 124.959 120.13 123 127.534 123Z" fill="black"/>
<path d="M248.332 144.345C248.332 133.306 239.383 124.358 228.345 124.358C217.306 124.358 208.357 133.306 208.357 144.345C208.357 155.384 217.306 164.333 228.345 164.333V165.998C216.386 165.998 206.691 156.304 206.691 144.345C206.691 132.387 216.386 122.692 228.345 122.692C240.303 122.692 249.998 132.387 249.998 144.345C249.998 156.304 240.303 165.998 228.345 165.998V164.333C239.383 164.333 248.332 155.384 248.332 144.345Z" fill="black"/>
<path d="M234.581 138.989C234.581 136.617 232.658 134.693 230.285 134.693H219.766V133.028H230.285C233.578 133.028 236.246 135.697 236.246 138.989C236.246 142.281 233.578 144.95 230.285 144.95H224.242V143.284H230.285C232.658 143.284 234.581 141.361 234.581 138.989Z" fill="black"/>
<path d="M236.404 149.132C236.404 146.822 234.532 144.95 232.223 144.95H224.78V143.285H232.223C235.452 143.285 238.07 145.903 238.07 149.132C238.07 152.361 235.452 154.979 232.223 154.979H219.766V153.313H232.223C234.532 153.313 236.404 151.441 236.404 149.132Z" fill="black"/>
<path d="M223.184 128.925H224.849V159.424H223.184V128.925Z" fill="black"/>
<path d="M228.426 128.925H230.091V133.896H228.426V128.925Z" fill="black"/>
<path d="M228.426 154.453H230.091V159.424H228.426V154.453Z" fill="black"/>
</svg>
