<svg width="260" height="178" viewBox="0 0 260 178" fill="none" xmlns="http://www.w3.org/2000/svg">
<path d="M9.375 21.4536V18.3554C9.375 17.9447 9.70791 17.6118 10.1186 17.6118C10.5292 17.6118 10.8621 17.9447 10.8621 18.3554V21.4536C10.8621 23.6438 12.6376 25.4193 14.8278 25.4193H24.866C25.2766 25.4193 25.6095 25.7522 25.6095 26.1628C25.6095 26.5735 25.2766 26.9064 24.866 26.9064H14.8278C11.8163 26.9064 9.375 24.4651 9.375 21.4536Z" fill="black"/>
<path d="M9.375 26.2869V22.3212C9.375 21.9105 9.70791 21.5776 10.1186 21.5776C10.5292 21.5776 10.8621 21.9105 10.8621 22.3212V26.2869C10.8621 28.4771 12.6376 30.2526 14.8278 30.2526H23.6267C24.0374 30.2526 24.3703 30.5855 24.3703 30.9962C24.3703 31.4068 24.0374 31.7397 23.6267 31.7397H14.8278C11.8163 31.7397 9.375 29.2984 9.375 26.2869Z" fill="black"/>
<path d="M10.0997 25.5435C10.5102 25.5331 10.8515 25.8574 10.8619 26.2679L10.9936 31.4683C11.0481 33.6186 12.807 35.3335 14.958 35.3335H24.2463C24.657 35.3335 24.9899 35.6664 24.9899 36.0771C24.9899 36.4877 24.657 36.8207 24.2463 36.8207H14.958C12.0003 36.8207 9.58177 34.4626 9.50692 31.5058L9.37524 26.3057C9.36485 25.8952 9.68919 25.5539 10.0997 25.5435Z" fill="black"/>
<path d="M9.61719 36.9447V32.4833H11.1043V36.9447C11.1043 39.1349 12.8798 40.9104 15.07 40.9104H28.826V42.3975H15.07C12.0585 42.3975 9.61719 39.9562 9.61719 36.9447Z" fill="black"/>
<path d="M32.286 8.81297C32.6966 8.80602 33.0352 9.13336 33.0421 9.54396L33.0847 12.0666C33.1364 15.1138 30.6803 17.6119 27.6326 17.6119H14.4963C11.5214 17.6118 9.09569 15.2273 9.04441 12.2529L9.00011 9.6933C8.99303 9.2827 9.32026 8.94399 9.73085 8.9369C10.1414 8.92982 10.4802 9.25704 10.4872 9.66764L10.5313 12.2273C10.5686 14.3905 12.3328 16.1247 14.4963 16.1247H27.6326C29.8491 16.1247 31.6354 14.3079 31.5978 12.0917L31.555 9.56913C31.548 9.15853 31.8754 8.81993 32.286 8.81297Z" fill="black"/>
<path d="M32.2783 12.1591C32.6888 12.1474 33.0312 12.4707 33.0429 12.8811L33.1523 16.7127C33.24 19.784 30.7742 22.3212 27.7017 22.3212H14.6341C11.6534 22.3212 9.22491 19.9277 9.18172 16.9473L9.12508 13.0373C9.11913 12.6267 9.44719 12.2888 9.85775 12.2828C10.2683 12.2769 10.6062 12.6049 10.6122 13.0155L10.6689 16.9257C10.7003 19.0933 12.4663 20.8341 14.6341 20.8341H27.7017C29.9362 20.8341 31.7297 18.9888 31.6659 16.7551L31.5563 12.9237C31.5445 12.5133 31.8678 12.1709 32.2783 12.1591Z" fill="black"/>
<path d="M33.5391 23.0647H35.0262V41.6539H33.5391V23.0647Z" fill="black"/>
<path d="M36.6367 22.4451H38.1239V41.0342H36.6367V22.4451Z" fill="black"/>
<path d="M47.7934 31.8636C47.7934 25.43 42.5779 20.2144 36.1442 20.2144C29.7105 20.2144 24.4949 25.43 24.4949 31.8636C24.4949 38.2973 29.7105 43.5129 36.1442 43.5129V45C28.8892 45 23.0078 39.1187 23.0078 31.8636C23.0078 24.6086 28.8892 18.7273 36.1442 18.7273C43.3992 18.7273 49.2805 24.6086 49.2805 31.8636C49.2805 39.1187 43.3992 45 36.1442 45V43.5129C42.5779 43.5129 47.7934 38.2973 47.7934 31.8636Z" fill="black"/>
<path d="M34.7561 24.8C36.8137 24.6117 39.171 25.333 40.4725 26.939C40.731 27.258 40.6819 27.7263 40.3628 27.9849C40.0438 28.2434 39.5755 28.1943 39.317 27.8752C38.4057 26.7509 36.5922 26.1252 34.8916 26.2809C33.2122 26.4346 31.9433 27.3 31.7273 28.8492C31.6009 29.7566 32.1367 30.633 32.9139 30.8585C33.7231 31.0932 34.7122 31.0549 36.3059 30.9725C37.7266 30.8989 39.2085 31.3708 40.2041 32.2248C40.7076 32.6568 41.1132 33.2108 41.2906 33.8698C41.4713 34.5413 41.398 35.2612 41.0408 35.9717C40.457 37.1328 39.3752 38.0701 37.681 38.4582C36.0177 38.8393 33.7949 38.6866 30.8761 37.7839C30.4838 37.6625 30.2641 37.246 30.3854 36.8537C30.5068 36.4614 30.9233 36.2417 31.3156 36.3631C34.1007 37.2245 36.038 37.3091 37.3489 37.0089C38.6288 36.7157 39.3355 36.0528 39.7122 35.3036C39.9173 34.8958 39.9336 34.5501 39.8545 34.2563C39.7721 33.9499 39.5683 33.6387 39.2359 33.3535C38.5593 32.7731 37.4626 32.4018 36.3829 32.4577C34.8731 32.5358 33.6011 32.6063 32.4995 32.2868C30.9123 31.8264 30.0412 30.1748 30.2545 28.644C30.6007 26.16 32.6773 24.9903 34.7561 24.8Z" fill="black"/>
<path d="M21.6406 5.83655C28.1428 5.83655 33.042 7.5585 33.042 9.68025L33.0384 9.77925C32.8886 11.8552 28.0413 13.5201 21.6406 13.5201V12.0329C24.7798 12.0329 27.4588 11.616 29.2997 10.9883C30.2272 10.672 30.8604 10.3296 31.2325 10.0249C31.4488 9.84776 31.5226 9.73076 31.5466 9.68001C31.5225 9.62909 31.4486 9.51199 31.2322 9.33461C30.8601 9.02954 30.2265 8.68671 29.299 8.37005C27.4581 7.74154 24.7794 7.32368 21.6406 7.32368C18.5027 7.32368 15.4886 7.74079 13.3043 8.38772C12.2025 8.71403 11.3947 9.07473 10.896 9.41327C10.7311 9.52515 10.6281 9.61432 10.5646 9.67831C10.6281 9.74231 10.7311 9.83148 10.896 9.94335C11.3947 10.2819 12.2025 10.6426 13.3043 10.9689C15.4886 11.6158 18.5027 12.0329 21.6406 12.0329V13.5201C15.1385 13.5201 9 11.8001 9 9.67831C9 7.55656 15.1385 5.83655 21.6406 5.83655Z" fill="black"/>
<path d="M148.598 25.5039C148.598 15.5109 140.497 7.40992 130.504 7.40992C120.511 7.40992 112.41 15.5109 112.41 25.5039C112.41 35.4969 120.511 43.5979 130.504 43.5979V45.0078C119.732 45.0078 111 36.2756 111 25.5039C111 14.7322 119.732 6 130.504 6C141.276 6 150.008 14.7322 150.008 25.5039C150.008 36.2756 141.276 45.0078 130.504 45.0078V43.5979C140.497 43.5979 148.598 35.4969 148.598 25.5039Z" fill="black"/>
<path d="M144.84 25.5039C144.84 17.5873 138.422 11.1697 130.506 11.1697C122.589 11.1697 116.172 17.5873 116.172 25.5039C116.172 33.4204 122.589 39.8381 130.506 39.8381V41.248C121.811 41.248 114.762 34.1991 114.762 25.5039C114.762 16.8086 121.811 9.75977 130.506 9.75977C139.201 9.75977 146.25 16.8086 146.25 25.5039C146.25 34.1991 139.201 41.248 130.506 41.248V39.8381C138.422 39.8381 144.84 33.4204 144.84 25.5039Z" fill="black"/>
<path d="M133.084 21.744V21.0391C133.084 19.7413 132.032 18.6892 130.735 18.6892H129.912C128.614 18.6892 127.562 19.7413 127.562 21.0391V22.449C127.562 23.7468 128.614 24.7989 129.912 24.7989H130.735C132.811 24.7989 134.494 26.4822 134.494 28.5587V29.9686C134.494 32.0451 132.811 33.7284 130.735 33.7284H129.912C127.836 33.7284 126.152 32.0451 126.152 29.9686V29.6161C126.152 29.2268 126.468 28.9111 126.857 28.9111C127.247 28.9111 127.562 29.2268 127.562 29.6161V29.9686C127.562 31.2664 128.614 32.3185 129.912 32.3185H130.735C132.032 32.3185 133.084 31.2664 133.084 29.9686V28.5587C133.084 27.2609 132.032 26.2088 130.735 26.2088H129.912C127.836 26.2088 126.152 24.5255 126.152 22.449V21.0391C126.152 18.9626 127.836 17.2793 129.912 17.2793H130.735C132.811 17.2793 134.494 18.9626 134.494 21.0391V21.744C134.494 22.1334 134.179 22.449 133.789 22.449C133.4 22.449 133.084 22.1334 133.084 21.744Z" fill="black"/>
<path d="M130.972 27.3837V35.7258H129.562V27.3837H130.972ZM130.972 15.3994V23.5065H129.562V15.3994H130.972Z" fill="black"/>
<path d="M119.61 27.1538C119.996 27.1078 120.347 27.3838 120.393 27.7704C120.568 29.2394 121.866 32.7779 125.642 34.6218C125.991 34.7926 126.136 35.2146 125.966 35.5644C125.795 35.9142 125.373 36.0592 125.023 35.8884C120.716 33.7848 119.21 29.7574 118.993 27.937C118.947 27.5504 119.223 27.1998 119.61 27.1538Z" fill="black"/>
<path d="M218.108 43.667V44.9999H212.777V43.667H218.108ZM218.553 43.2227V28.7836C218.553 28.5382 218.354 28.3393 218.108 28.3393H212.777C212.532 28.3393 212.333 28.5382 212.333 28.7836V43.2227C212.333 43.4681 212.532 43.667 212.777 43.667V44.9999L212.686 44.9975C211.747 44.9498 211 44.1735 211 43.2227V28.7836C211 27.8021 211.796 27.0065 212.777 27.0065H218.108C219.09 27.0065 219.886 27.8021 219.886 28.7836V43.2227C219.886 44.2042 219.09 44.9999 218.108 44.9999V43.667C218.354 43.667 218.553 43.4681 218.553 43.2227Z" fill="black"/>
<path d="M221.84 29.4501C222.32 29.4501 222.796 29.5417 223.242 29.7202L226.214 30.909C226.682 31.0961 227.196 31.1341 227.686 31.0176L232.844 29.7926C234.747 29.3406 236.681 30.4168 237.299 32.2726L237.909 34.0998L237.419 34.3669C236.147 35.0607 232.859 36.4983 228.742 37.7515C228.389 37.8586 228.017 37.6599 227.91 37.3079C227.803 36.9558 228.002 36.5835 228.354 36.4764C231.935 35.3863 234.848 34.1624 236.287 33.451L236.035 32.6941C235.635 31.4933 234.384 30.7968 233.152 31.0892L227.994 32.3143C227.237 32.4942 226.442 32.4355 225.719 32.1463L222.747 30.9578C222.459 30.8423 222.151 30.7829 221.84 30.7829H219.44C219.072 30.7829 218.773 30.4845 218.773 30.1165C218.773 29.7484 219.072 29.4501 219.44 29.4501H221.84Z" fill="black"/>
<path d="M244.454 28.8135C245.995 28.1167 247.811 28.5287 248.9 29.8218L250.77 32.0426C251.122 32.461 251.016 33.0955 250.547 33.377L232.453 44.2332C231.584 44.755 230.541 44.9052 229.559 44.6497L223.1 42.9685C222.899 42.9162 222.692 42.8897 222.484 42.8897H219.217C218.849 42.8897 218.551 42.5914 218.551 42.2233C218.551 41.8553 218.849 41.5569 219.217 41.5569H222.484C222.805 41.5569 223.125 41.5977 223.436 41.6786L229.895 43.3598C230.53 43.5251 231.205 43.428 231.767 43.0904L249.414 32.5021L247.88 30.6802C247.175 29.8435 246.001 29.5771 245.004 30.0279L237.818 33.2785C237.483 33.4301 237.088 33.2812 236.937 32.9459C236.785 32.6106 236.934 32.2158 237.269 32.0641L244.454 28.8135Z" fill="black"/>
<path d="M244.095 17.0103C244.095 11.4895 239.62 7.014 234.099 7.014C228.578 7.014 224.102 11.4895 224.102 17.0103C224.102 22.5311 228.578 27.0067 234.099 27.0067V28.3395C227.842 28.3395 222.77 23.2673 222.77 17.0103C222.77 10.7534 227.842 5.68115 234.099 5.68115C240.356 5.68115 245.428 10.7534 245.428 17.0103C245.428 23.2673 240.356 28.3395 234.099 28.3395V27.0067C239.62 27.0067 244.095 22.5311 244.095 17.0103Z" fill="black"/>
<path d="M237.213 15.011C237.213 14.0295 236.417 13.2338 235.436 13.2338H233.437C232.087 13.2338 230.993 14.3279 230.993 15.6774V18.3431C230.993 19.6926 232.087 20.7866 233.437 20.7866H235.658C236.517 20.7866 237.213 20.0904 237.213 19.2316C237.213 18.8636 237.511 18.5652 237.879 18.5652C238.247 18.5652 238.546 18.8636 238.546 19.2316C238.546 20.8265 237.253 22.1195 235.658 22.1195H233.437C231.351 22.1195 229.66 20.4287 229.66 18.3431V15.6774C229.66 13.5917 231.351 11.901 233.437 11.901H235.436C237.153 11.901 238.546 13.2934 238.546 15.011C238.546 15.379 238.247 15.6774 237.879 15.6774C237.511 15.6774 237.213 15.379 237.213 15.011Z" fill="black"/>
<path d="M233.438 23.3413V21.5641C233.438 21.1961 233.736 20.8977 234.104 20.8977C234.472 20.8977 234.77 21.1961 234.77 21.5641V23.3413C234.77 23.7093 234.472 24.0077 234.104 24.0077C233.736 24.0077 233.438 23.7093 233.438 23.3413Z" fill="black"/>
<path d="M233.438 12.5674V10.7903C233.438 10.4223 233.736 10.1239 234.104 10.1239C234.472 10.1239 234.77 10.4223 234.77 10.7903V12.5674C234.77 12.9355 234.472 13.2339 234.104 13.2339C233.736 13.2339 233.438 12.9355 233.438 12.5674Z" fill="black"/>
<path d="M41.296 84.3539C41.296 74.9971 33.7108 67.4118 24.3539 67.4118C14.9971 67.4118 7.41184 74.9971 7.41184 84.3539C7.41184 93.7108 14.9971 101.296 24.3539 101.296V102.708C14.2173 102.708 6 94.4905 6 84.3539C6 74.2173 14.2173 66 24.3539 66C34.4905 66 42.7079 74.2173 42.7079 84.3539C42.7079 94.4905 34.4905 102.708 24.3539 102.708V101.296C33.7108 101.296 41.296 93.7108 41.296 84.3539Z" fill="black"/>
<path d="M29.636 79.8138C29.636 77.8029 28.0059 76.1727 25.995 76.1727H17.0781V74.7609H25.995C28.7856 74.7609 31.0479 77.0231 31.0479 79.8138C31.0479 82.6044 28.7856 84.8667 25.995 84.8667H20.8727V83.4548H25.995C28.0059 83.4548 29.636 81.8247 29.636 79.8138Z" fill="black"/>
<path d="M31.1816 88.4111C31.1816 86.4536 29.5948 84.8666 27.6373 84.8666H21.3286V83.4547H27.6373C30.3746 83.4548 32.5934 85.6738 32.5934 88.4111C32.5934 91.1483 30.3745 93.3672 27.6373 93.3672H17.0781V91.9554H27.6373C29.5948 91.9554 31.1816 90.3686 31.1816 88.4111Z" fill="black"/>
<path d="M19.9805 71.2832H21.3923V97.1348H19.9805V71.2832Z" fill="black"/>
<path d="M24.4219 71.2832H25.8337V75.4964H24.4219V71.2832Z" fill="black"/>
<path d="M24.4219 92.9216H25.8337V97.1349H24.4219V92.9216Z" fill="black"/>
<path d="M114.789 87.8897C114.789 87.4981 114.472 87.1807 114.08 87.1807H108.408C108.017 87.1807 107.699 87.4981 107.699 87.8897V100.935C107.699 101.327 108.017 101.644 108.408 101.644H114.08C114.472 101.644 114.789 101.327 114.789 100.935V87.8897ZM116.207 100.935C116.207 102.11 115.255 103.062 114.08 103.062H108.408C107.234 103.062 106.281 102.11 106.281 100.935V87.8897C106.281 86.715 107.234 85.7627 108.408 85.7627H114.08C115.255 85.7627 116.207 86.715 116.207 87.8897V100.935Z" fill="black"/>
<path d="M125.123 84.9119C125.798 84.9119 126.464 85.0577 127.077 85.3392L130.745 87.0247C131.172 87.221 131.637 87.3225 132.107 87.3225H136.716C138.479 87.3225 139.956 88.6558 140.136 90.4094C140.347 92.4686 138.704 94.246 136.634 94.1967L133.774 94.1286L133.808 92.7112L136.668 92.7793C137.884 92.8082 138.85 91.7638 138.725 90.554C138.62 89.5238 137.752 88.7405 136.716 88.7405H132.107C131.433 88.7405 130.766 88.5947 130.153 88.3131L126.485 86.6276C126.058 86.4314 125.593 86.3299 125.123 86.3299H120.923C120.152 86.3299 119.406 86.6033 118.817 87.1015L116.24 89.2816L115.324 88.1993L117.901 86.0191C118.746 85.3043 119.817 84.9119 120.923 84.9119H125.123Z" fill="black"/>
<path d="M147.103 86.0367C148.405 84.8531 150.381 84.8105 151.733 85.937C153.326 87.2645 153.435 89.6734 151.969 91.1396L143.939 99.1693C142.263 100.845 139.991 101.786 137.622 101.786H115.93V100.368H137.622C139.615 100.368 141.527 99.5762 142.936 98.1668L150.966 90.1368C151.842 89.2602 151.777 87.8203 150.825 87.0266C150.016 86.353 148.835 86.3784 148.057 87.0861L140.918 93.5757C140.527 93.9316 140.017 94.1288 139.488 94.1288H128.55V92.7108H139.488C139.664 92.7108 139.834 92.6449 139.965 92.5263L147.103 86.0367Z" fill="black"/>
<path d="M128.402 73.0006V76.5456H134.499C136.225 76.5456 137.639 77.9191 137.688 79.645C137.739 81.442 136.296 82.9266 134.499 82.9266H129.111C127.937 82.9266 126.984 81.9743 126.984 80.7996V73.0006H128.402ZM128.402 80.7996C128.402 81.1912 128.72 81.5086 129.111 81.5086H134.499C135.497 81.5086 136.299 80.6838 136.271 79.6854C136.243 78.7266 135.458 77.9636 134.499 77.9636H128.402V80.7996Z" fill="black"/>
<path d="M131.383 71.8662V69.172C131.383 68.7804 131.7 68.463 132.092 68.463C132.483 68.463 132.801 68.7804 132.801 69.172V71.8662C132.801 72.2578 132.483 72.5752 132.092 72.5752C131.7 72.5752 131.383 72.2578 131.383 71.8662Z" fill="black"/>
<path d="M131.383 85.1954V82.5012C131.383 82.1097 131.7 81.7922 132.092 81.7922C132.483 81.7922 132.801 82.1097 132.801 82.5012V85.1954C132.801 85.587 132.483 85.9044 132.092 85.9044C131.7 85.9044 131.383 85.587 131.383 85.1954Z" fill="black"/>
<path d="M136.343 74.6796C136.343 73.5958 135.464 72.7171 134.381 72.7171H129.018C128.617 72.7171 128.296 73.049 128.309 73.4496L128.402 76.2385L126.985 76.2856L126.892 73.497C126.852 72.2952 127.815 71.2991 129.018 71.2991H134.381C136.248 71.2991 137.761 72.8126 137.761 74.6796C137.761 76.5688 136.213 78.0912 134.324 78.0592L128.674 77.9637L128.698 76.5457L134.347 76.6415C135.444 76.6601 136.343 75.7763 136.343 74.6796Z" fill="black"/>
<path d="M132.232 64.3508C139.359 64.3508 145.136 70.1281 145.136 77.2547C145.136 82.4354 142.082 86.9019 137.677 88.9554C137.169 88.6471 136.628 88.3565 136.07 88.0824C140.526 86.5029 143.718 82.2519 143.718 77.2547C143.718 70.9112 138.575 65.7688 132.232 65.7688C125.889 65.7688 120.746 70.9112 120.746 77.2547C120.746 80.2365 121.883 82.9527 123.746 84.9944C123.189 85.092 122.675 85.217 122.198 85.368C120.404 83.1514 119.328 80.3289 119.328 77.2547C119.328 70.1281 125.105 64.3508 132.232 64.3508Z" fill="black"/>
<path d="M232.236 83.3186C232.623 83.3186 232.937 83.6323 232.937 84.0192C232.937 84.4061 232.623 84.7198 232.236 84.7198H221.494C221.107 84.7198 220.793 84.4061 220.793 84.0192C220.793 83.6323 221.107 83.3186 221.494 83.3186H232.236Z" fill="black"/>
<path d="M232.119 86.2377C232.506 86.2377 232.819 86.5513 232.819 86.9383C232.819 87.3252 232.506 87.6389 232.119 87.6389H221.376C220.989 87.6389 220.676 87.3252 220.676 86.9383C220.676 86.5513 220.989 86.2377 221.376 86.2377H232.119Z" fill="black"/>
<path d="M228.774 76.7846C230.439 76.5842 231.66 77.1228 232.475 77.8682C233.258 78.5846 233.662 79.4888 233.745 80.0669C233.8 80.4499 233.533 80.8047 233.15 80.8594C232.767 80.914 232.413 80.648 232.358 80.2651C232.324 80.0258 232.086 79.4118 231.529 78.9022C231.003 78.4215 230.186 78.026 228.942 78.1758C228.017 78.2872 227.03 78.9847 226.186 80.1773C225.354 81.3538 224.731 82.92 224.503 84.5592C224.276 86.1982 224.448 87.8619 225.145 89.26C225.834 90.641 227.056 91.8106 229.033 92.4583C229.237 92.525 229.43 92.5597 229.601 92.557C230.009 92.5507 230.505 92.4682 230.994 92.1962C231.477 91.928 231.996 91.4531 232.425 90.595C232.598 90.249 233.019 90.1088 233.365 90.2819C233.711 90.4551 233.851 90.876 233.678 91.222C233.131 92.3144 232.422 93.0063 231.675 93.4211C230.934 93.8322 230.198 93.949 229.623 93.958C229.256 93.9637 228.904 93.8904 228.597 93.7897C226.274 93.0287 224.752 91.6109 223.891 89.8851C223.039 88.1763 222.859 86.2136 223.116 84.3663C223.372 82.519 224.072 80.7386 225.042 79.3679C226.001 78.0133 227.296 76.9627 228.774 76.7846Z" fill="black"/>
<path d="M246.599 85.5C246.599 75.5043 238.496 67.4012 228.5 67.4012C218.504 67.4012 210.401 75.5043 210.401 85.5C210.401 95.4957 218.504 103.599 228.5 103.599V105C217.73 105 209 96.2696 209 85.5C209 74.7304 217.73 66 228.5 66C239.27 66 248 74.7304 248 85.5C248 96.2696 239.27 105 228.5 105V103.599C238.496 103.599 246.599 95.4957 246.599 85.5Z" fill="black"/>
<path d="M37.0906 135.988C37.0906 129.828 31.3318 124.51 23.8004 124.51C16.2691 124.51 10.5102 129.828 10.5102 135.988C10.5102 142.148 16.2691 147.466 23.8004 147.466V148.976C15.6264 148.976 9 143.161 9 135.988C9 128.815 15.6264 123 23.8004 123C31.9745 123 38.6009 128.815 38.6009 135.988C38.6009 143.161 31.9745 148.976 23.8004 148.976V147.466C31.3318 147.466 37.0906 142.148 37.0906 135.988Z" fill="black"/>
<path d="M12.0195 148.372C10.0864 146.439 9.30108 143.388 9.45211 141.878C9.81457 142.845 11.3651 144.697 12.0195 145.503L12.0195 148.372Z" fill="black"/>
<path d="M19.8398 158.038C17.7986 156.219 17.3927 154.721 17.4565 153.205C18.2116 154.413 19.1178 154.866 19.8398 155.47L19.8398 158.038Z" fill="black"/>
<path d="M13.2305 149.882V146.862L15.6469 148.372V151.695L13.2305 149.882Z" fill="black"/>
<path d="M21.131 159.032L20.957 156.017L23.4564 157.385L23.6478 160.702L21.131 159.032Z" fill="black"/>
<path d="M16.8516 152.148V148.976L19.721 149.882V153.356L16.8516 152.148Z" fill="black"/>
<path d="M24.8819 161.085L24.6992 157.919L27.6161 158.658L27.8162 162.126L24.8819 161.085Z" fill="black"/>
<path d="M20.7812 153.658V150.184H23.6507V153.658H20.7812Z" fill="black"/>
<path d="M28.8876 162.367L28.6875 158.899L31.5522 158.734L31.7523 162.201L28.8876 162.367Z" fill="black"/>
<path d="M24.4023 153.658V150.185L27.2718 150.034V153.658H24.4023Z" fill="black"/>
<path d="M32.5095 162.158L32.3095 158.69L35.1655 158.374L35.3742 161.993L32.5095 162.158Z" fill="black"/>
<path d="M28.332 153.356V149.882L31.0505 148.976V152.601L28.332 153.356Z" fill="black"/>
<path d="M36.4124 161.63L36.2123 158.162L38.8741 157.101L39.0828 160.72L36.4124 161.63Z" fill="black"/>
<path d="M32.2578 151.695V148.07L34.6742 146.711V150.033L32.2578 151.695Z" fill="black"/>
<path d="M40.2324 159.746L40.0236 156.127L42.3577 154.631L42.5491 157.948L40.2324 159.746Z" fill="black"/>
<path d="M38.6013 141.576C38.2388 142.663 36.6379 144.748 35.8828 145.654V148.674C37.9368 146.62 38.5509 143.086 38.6013 141.576Z" fill="black"/>
<path d="M45.9835 149.278C45.6842 150.385 44.2061 152.558 43.5044 153.506L43.6783 156.521C45.6106 154.353 46.0202 150.789 45.9835 149.278Z" fill="black"/>
<path d="M40.5642 134.78C45.7659 138.681 46.3147 145.814 43.2534 151.002C41.7118 153.615 39.2449 155.766 35.9653 156.81C32.6846 157.855 28.6479 157.774 23.9883 156.026L24.5186 154.612C28.9204 156.263 32.605 156.295 35.5069 155.372C38.4097 154.447 40.587 152.549 41.9526 150.235C44.7057 145.569 44.1218 139.336 39.658 135.988L40.5642 134.78Z" fill="black"/>
<path d="M28.515 141.774L27.2413 142.586L19.5391 130.504L20.8127 129.692L28.515 141.774Z" fill="black"/>
<path d="M20.7449 143.045L19.4708 142.234L27.1628 130.146L28.437 130.957L20.7449 143.045Z" fill="black"/>
<path d="M29.9909 133.723V135.233H18.2109V133.723H29.9909Z" fill="black"/>
<path d="M30.1432 136.743V138.254H18.3633V136.743H30.1432Z" fill="black"/>
<path d="M11.0918 148.959C10.5971 151.715 11.2067 156.049 13.9507 159.328C16.6494 162.552 21.5259 164.886 29.8428 163.485L30.0935 164.974C21.3696 166.443 15.9076 164.019 12.7923 160.297C9.72247 156.629 9.04278 151.826 9.60518 148.692L11.0918 148.959Z" fill="black"/>
<path d="M133.262 146.044C133.64 146.044 133.947 146.35 133.947 146.728C133.947 147.106 133.64 147.412 133.262 147.412H123.797C123.42 147.412 123.113 147.106 123.113 146.728C123.113 146.35 123.42 146.044 123.797 146.044H133.262Z" fill="black"/>
<path d="M147.632 146.5C147.632 136.486 139.514 128.368 129.5 128.368C119.486 128.368 111.368 136.486 111.368 146.5C111.368 156.514 119.486 164.632 129.5 164.632V166C118.73 166 110 157.27 110 146.5C110 135.73 118.73 127 129.5 127C140.27 127 149 135.73 149 146.5C149 157.27 140.27 166 129.5 166V164.632C139.514 164.632 147.632 156.514 147.632 146.5Z" fill="black"/>
<path d="M126.859 139.768C128.113 137.632 130.307 137.19 132.136 137.571C133.048 137.761 133.905 138.158 134.57 138.682C135.224 139.197 135.759 139.892 135.88 140.697C135.936 141.07 135.679 141.419 135.305 141.475C134.931 141.531 134.583 141.274 134.527 140.9C134.476 140.565 134.223 140.15 133.723 139.757C133.235 139.372 132.574 139.06 131.857 138.911C130.426 138.613 128.914 138.97 128.039 140.461C127.352 141.632 127.273 142.552 127.415 143.391C127.488 143.828 127.624 144.259 127.791 144.716C127.948 145.146 128.161 145.669 128.325 146.151C128.673 147.172 128.927 148.331 128.596 149.718C128.341 150.783 127.755 151.931 126.696 153.228H134.405C134.783 153.228 135.089 153.534 135.089 153.912C135.089 154.29 134.783 154.597 134.405 154.597H123.555L124.677 153.437C126.31 151.747 127.015 150.448 127.265 149.401C127.511 148.369 127.337 147.496 127.029 146.592C126.866 146.112 126.694 145.7 126.506 145.186C126.328 144.699 126.159 144.178 126.065 143.618C125.871 142.466 126.007 141.219 126.859 139.768Z" fill="black"/>
<path d="M228.499 126.834C239.012 126.834 247.36 134.112 247.36 142.891C247.36 151.671 239.012 158.949 228.499 158.949C217.986 158.949 209.638 151.671 209.638 142.891C209.638 134.112 217.986 126.834 228.499 126.834Z" stroke="black" stroke-width="1.27444"/>
<path d="M226.074 133.843V152.067" stroke="black" stroke-width="1.27444"/>
<path d="M229.129 133.843V137.156M229.129 149.136V152.019" stroke="black" stroke-width="1.27444"/>
<path d="M222.121 137.539H230.787C232.195 137.539 233.336 138.68 233.336 140.087C233.336 141.495 232.195 142.636 230.787 142.636H226.582" stroke="black" stroke-width="1.27444"/>
<path d="M222.25 148.626H231.235C232.889 148.626 234.23 147.285 234.23 145.631C234.23 143.977 232.889 142.636 231.235 142.636H226.838" stroke="black" stroke-width="1.27444"/>
<path d="M213.839 158.694C211.291 156.349 209.804 152.449 209.379 150.793C210.5 152.73 212.82 154.998 213.839 155.89V158.694Z" fill="black"/>
<path d="M243.153 158.822C245.702 156.477 247.188 152.577 247.613 150.92C246.492 152.857 244.172 155.126 243.153 156.018V158.822Z" fill="black"/>
<path d="M216.897 158.185L215.367 157.165V160.224C215.775 160.632 216.557 161.073 216.897 161.243V158.185Z" fill="black"/>
<path d="M240.096 158.312L241.625 157.292V160.351C241.217 160.759 240.436 161.201 240.096 161.371V158.312Z" fill="black"/>
<path d="M218.555 162.135V159.077C221.409 160.504 224.757 161.167 226.074 161.209V164.174C223.015 163.97 219.787 162.73 218.555 162.135Z" fill="black"/>
<path d="M238.434 162.263V159.204C235.579 160.631 232.231 161.294 230.914 161.337V164.302C233.973 164.098 237.202 162.857 238.434 162.263Z" fill="black"/>
<path d="M229.256 161.243H227.727V164.429H229.256V161.243Z" fill="black"/>
</svg>
