<svg width="260" height="178" viewBox="0 0 260 178" fill="none" xmlns="http://www.w3.org/2000/svg">
<path d="M237.746 127.302L244.372 120.676M244.372 120.676L250.998 127.302M244.372 120.676V164.142" stroke="black" stroke-width="2" stroke-linecap="round" stroke-linejoin="round"/>
<path d="M223.156 131.279L225.923 134.515C226.32 134.979 227.047 134.954 227.41 134.462L229.721 131.333C229.9 131.09 230.184 130.947 230.485 130.947H232.279C232.767 130.947 233.175 131.316 233.225 131.801L234.423 143.533C234.48 144.093 234.04 144.58 233.477 144.58H231.565C231.075 144.58 230.666 144.952 230.618 145.439L228.871 163.459C228.824 163.946 228.414 164.318 227.925 164.318H224.257C223.767 164.318 223.358 163.946 223.311 163.459L221.563 145.439C221.516 144.952 221.107 144.58 220.617 144.58H219.066C218.498 144.58 218.057 144.085 218.122 143.521L219.469 131.789C219.524 131.309 219.931 130.947 220.414 130.947H222.434C222.712 130.947 222.976 131.068 223.156 131.279Z" stroke="black" stroke-width="2"/>
<circle cx="226.269" cy="121.123" r="5.08166" stroke="black" stroke-width="2"/>
<path d="M119.428 144.234C120.368 125.861 129.151 125.711 133.657 128.033C133.792 128.102 133.94 128.131 134.091 128.127C135.504 128.092 137.815 128.841 137.432 132.16C137.42 132.267 137.427 132.379 137.458 132.483L140.905 144.133C141.011 144.49 140.843 144.872 140.499 145.016C139.147 145.58 136.765 146.347 134.482 146.404C134.12 146.413 133.797 146.654 133.743 147.012C133.559 148.246 133.56 150.207 134.875 150.967C138.741 153.2 147.61 151.062 147.988 162.498C148.001 162.918 147.659 163.267 147.239 163.267H113.772C113.381 163.267 113.051 162.962 113.028 162.572C112.392 151.926 122.912 153.574 125.871 150.967C126.901 150.109 126.914 148.223 126.741 146.996C126.691 146.646 126.381 146.404 126.027 146.386C123.604 146.27 121.17 145.489 119.869 144.955C119.584 144.838 119.412 144.541 119.428 144.234Z" stroke="black" stroke-width="2"/>
<path d="M55.3712 121.307C54.1551 118.267 47.9255 115.683 45.4907 122.675M55.3712 121.307C51.115 123.374 47.0108 123.08 45.4907 122.675M55.3712 121.307C56.8305 124.955 54.1579 127.412 51.875 127.843M45.4907 122.675C45.4907 124.499 46.2534 128.603 51.875 127.843M51.875 127.843C53.5754 127.235 55.4228 128.299 56.1339 128.907C58.4647 130.934 62.7615 137.116 61.3022 145.628C61.157 146.886 60.3743 148.928 58.4152 149.706M51.875 127.843C50.6599 128.147 48.3207 129.789 48.6855 133.924L45.7974 138.028L39.5651 140.156C37.4369 141.068 37.893 142.588 40.0211 142.436L48.0775 141.828L50.5096 139.016M52.9418 136.204L50.5096 139.016M50.5096 139.016C51.9689 140.779 52.2331 143.956 52.1828 145.324L48.0775 152.469V164.325C50.147 168.217 52.1826 165.947 52.9418 164.325V153.837L53.7827 152.469M58.4152 149.706C57.6111 150.026 56.6089 150.132 55.3712 149.885L53.7827 152.469M58.4152 149.706L60.6953 156.117L65.8636 160.525C66.2182 161.893 66.0764 164.447 62.6714 163.717L56.7426 158.549L53.7827 152.469" stroke="black" stroke-width="2"/>
<path d="M34.4022 127.539C34.6049 125.664 33.9472 121.915 29.3854 121.611C27.7149 121.499 25.1596 122.28 24.6732 124.955M34.4022 127.539C33.7444 126.982 32.5792 125.866 30.9071 126.323C29.4873 126.83 26.2528 127.266 24.6732 124.955M34.4022 127.539C33.9972 129.363 32.0016 132.646 27.2589 131.187M24.6732 124.955C24.2133 126.208 24.2069 127.27 24.4542 128.147M27.2589 131.187C26.3268 130.821 24.927 129.822 24.4542 128.147M27.2589 131.187L28.171 138.635L35.1633 142.891C35.67 143.803 36.1058 145.628 33.7953 145.628L24.9781 141.523L21.4819 135.747M24.4542 128.147C22.9063 127.539 19.6052 127.387 17.3784 131.491C14.6568 136.507 10.69 146.35 15.8583 149.124C16.0289 149.215 16.2351 149.301 16.4656 149.379M23.9147 139.851C22.2123 141.797 22.5973 144.513 23.0027 145.628L27.2589 152.62V165.085C25.07 167.882 23.104 166.25 22.3947 165.085V153.532L21.1779 151.91M16.4656 149.379C17.3835 149.69 18.6866 149.884 19.6585 149.884L21.1779 151.91M16.4656 149.379L14.1855 156.116L9.01726 161.132C8.91592 162.146 9.26047 164.112 11.4494 163.868L18.4418 158.548L21.1779 151.91" stroke="black" stroke-width="2"/>
<path d="M36.454 150.947L40.6342 149.275C45.4984 155.963 42.2556 159.561 40.0262 160.524C33.7933 162.196 32.5271 155.457 32.2737 152.619L36.454 150.947ZM36.454 150.947L34.2494 145.627M32.2737 140.915L28.6251 131.49" stroke="black" stroke-width="2"/>
<path d="M36.831 111.882V114.77L40.1751 118.57M40.1751 118.57V114.77M40.1751 118.57V123.13M40.1751 139.851V130.123M40.1751 123.13L36.5269 119.482V117.354M40.1751 123.13V128.146M43.9753 123.13L42.6073 126.018L40.1751 128.146M40.1751 128.146V130.123M40.1751 130.123L37.439 127.386L36.5269 123.738M40.1751 142.435V144.715M43.2153 149.276L42.6073 147.603L40.1751 145.627V144.715M45.1914 146.691L43.6713 145.019L40.1751 144.715M40.1751 144.715L37.439 146.083L36.831 147.907" stroke="black" stroke-width="2" stroke-linecap="round" stroke-linejoin="round"/>
<path d="M237.871 47.1262C238.264 48.4044 239.464 51.1378 241.116 51.8457C241.017 53.0256 239.464 54.3235 234.036 50.0759L232.562 49.486C232.365 48.4044 232.562 46.2413 234.921 46.2413" stroke="black" stroke-width="1.43958"/>
<path d="M235.508 44.4714L234.918 46.2412C235.213 46.6345 236.216 47.3621 237.868 47.1262L238.753 45.3563" stroke="black" stroke-width="1.43958"/>
<path d="M218.993 47.4219C217.813 48.5034 215.453 50.7255 215.453 50.9615C216.24 52.2397 218.816 53.6162 222.827 48.8967L223.712 48.6018C223.712 47.9135 223.24 46.537 221.353 46.537" stroke="black" stroke-width="1.43958"/>
<path d="M220.76 34.4426H216.041C215.058 34.7376 213.386 35.9765 214.566 38.5722L218.105 45.6514C218.695 45.6514 220.053 45.4155 220.76 44.4716L220.146 41.5219M219.285 37.3923L220.146 41.5219M222.825 41.8169L220.146 41.5219" stroke="black" stroke-width="1.43958"/>
<path d="M224.889 22.0542H223.414C224.103 24.2173 224.712 28.3075 221.645 27.3636C222.431 28.8385 223.768 32.3191 222.824 34.4429H233.443C233.247 32.6731 233.148 28.7795 234.328 27.3636C233.345 27.8552 231.673 27.4816 232.853 22.0542C232.657 21.8575 232.086 21.5822 231.379 22.0542" stroke="black" stroke-width="1.43958"/>
<path d="M232.845 18.2191C233.337 18.0225 233.966 18.1601 232.55 20.2839C232.452 20.3822 232.196 20.5199 231.96 20.2839C231.488 23.1156 229.011 24.0202 227.831 24.1185C225.235 23.1746 224.39 21.1688 224.291 20.2839C224.055 20.5199 223.8 20.3822 223.701 20.2839C222.993 19.8119 222.816 18.9074 222.816 18.5141C222.816 18.0421 223.21 18.1208 223.406 18.2191" stroke="black" stroke-width="1.43958"/>
<path d="M224.595 12.0245C222.471 13.2044 223.024 16.6458 223.417 18.2189C223.652 16.5671 224.595 14.9742 225.186 14.3843C226.838 16.2721 229.611 15.1709 230.79 14.3843C232.562 14.9743 232.56 17.1374 232.855 18.2189C233.799 14.2073 233.445 12.6145 232.265 12.0245C229.315 9.07489 226.071 10.2548 224.595 12.0245Z" stroke="black" stroke-width="1.43958"/>
<path d="M231.377 22.0534C231.77 23.4299 231.722 26.4779 228.418 27.6578C227.14 27.3628 224.651 25.534 224.887 21.7584" stroke="black" stroke-width="1.43958"/>
<path d="M223.412 22.0543C221.347 20.4811 217.158 16.0369 216.922 10.8454L218.102 9.07562L216.922 6.4209C215.743 6.71587 213.383 7.65977 213.383 9.07562C213.678 9.46891 214.386 10.3735 214.858 10.8454L215.743 18.2197L221.642 27.3637" stroke="black" stroke-width="1.43958"/>
<path d="M232.852 22.0543L236.981 17.0398L239.046 11.1404L237.866 9.37059V7.89574L239.046 6.4209C240.324 6.71587 242.881 7.42379 242.881 7.89574C242.881 8.48568 241.996 10.5505 241.406 11.1404L239.931 18.5146L234.326 27.3637" stroke="black" stroke-width="1.43958"/>
<path d="M222.827 34.4426H220.762C221.45 34.9342 222.827 37.0973 222.827 41.8169C224.498 42.5051 229.08 43.4687 234.035 41.8169C232.855 37.8053 234.527 35.2292 235.51 34.4426H233.445" stroke="black" stroke-width="1.43958"/>
<path d="M218.109 45.6513L218.994 47.4211C219.486 47.5194 220.646 47.4801 221.354 46.5362L220.764 44.4714" stroke="black" stroke-width="1.43958"/>
<path d="M235.514 34.4426H239.349C240.528 34.5409 242.652 35.5045 241.708 38.5722L238.759 45.3565C237.874 45.3565 235.986 45.1795 235.514 44.4716L236.006 41.5219M236.694 37.3923L236.006 41.5219M234.039 41.8169L236.006 41.5219" stroke="black" stroke-width="1.43958"/>
<path d="M209.555 10.5507C210.44 10.1574 212.445 9.3118 213.389 9.07582M217.519 7.89595C221.353 7.20768 230.792 6.24412 237.872 7.89595M242.591 9.07582C243.083 9.17414 244.597 9.48877 246.721 9.96073" stroke="black" stroke-width="1.43958" stroke-linecap="round" stroke-linejoin="round"/>
<path d="M211.913 17.1156C208.373 14.0898 206.309 7.08671 206.309 3.54706C206.309 1.42328 207.685 2.4655 208.373 3.25209C211.205 6.55574 213.388 12.9861 213.683 16.2307C213.683 18.0006 212.601 17.5089 211.913 17.1156Z" stroke="black" stroke-width="1.43958"/>
<path d="M244.653 17.1156C248.193 14.0898 250.258 7.08671 250.258 3.54706C250.258 1.42328 248.881 2.4655 248.193 3.25209C245.361 6.55574 243.179 12.9861 242.884 16.2307C242.884 18.0006 243.965 17.5089 244.653 17.1156Z" stroke="black" stroke-width="1.43958"/>
<path d="M206.604 2.29102C205.424 2.48766 203.241 2.99894 202.77 4.65077C202.77 7.89543 204.244 15.2697 208.964 18.8093C209.849 18.8093 212.209 18.7503 213.388 17.3344" stroke="black" stroke-width="1.43958"/>
<path d="M249.958 2.29102C251.138 2.48766 253.321 2.99894 253.793 4.65077C253.793 7.89543 252.318 15.2697 247.599 18.8093C246.714 18.8093 244.354 18.7503 243.174 17.3344" stroke="black" stroke-width="1.43958"/>
<path d="M202.77 6.4209C202.18 6.4209 201 6.59788 201 7.30581C201.295 10.1572 202.711 16.3909 206.014 18.5146C206.408 18.613 207.194 18.5146 207.784 17.9247" stroke="black" stroke-width="1.43958"/>
<path d="M253.793 6.4209C254.383 6.4209 255.562 6.59788 255.562 7.30581C255.268 10.1572 253.852 16.3909 250.548 18.5146C250.155 18.613 249.368 18.5146 248.778 17.9247" stroke="black" stroke-width="1.43958"/>
<path d="M128.617 74.6624C129.257 74.5557 130.666 74.4063 131.178 74.6624" stroke="black" stroke-width="0.77362" stroke-linecap="round"/>
<path d="M126.055 70.5011C126.482 70.7145 127.463 71.0133 127.976 70.5011" stroke="black" stroke-width="0.77362"/>
<path d="M131.812 70.5011C132.239 70.7145 133.221 71.0133 133.733 70.5011" stroke="black" stroke-width="0.77362"/>
<path d="M123.163 69.5402C121.37 65.9546 121.772 63.7026 124.123 62.1769C125.724 60.256 131.265 56.1078 135.969 62.1769C137.805 62.6478 138.86 66.2343 136.93 69.8604C136.076 69.1134 134.241 67.2352 133.728 65.6985C131.915 66.5523 127.775 67.5554 125.725 64.7381C124.871 65.3783 123.163 67.2351 123.163 69.5402Z" stroke="black" stroke-width="1.65776"/>
<path d="M136.934 69.8602C137.147 69.6467 137.638 69.3479 137.894 69.8602C137.787 70.3937 137.382 71.5889 136.614 72.1011C136.507 72.2078 136.229 72.3572 135.973 72.1011C135.546 73.5951 133.796 76.7752 130.211 77.5436C126.625 76.7751 124.448 73.5951 123.808 72.1011C123.552 72.3572 123.302 71.9834 123.167 71.7811C122.527 70.8206 122.207 69.8601 122.207 69.2198C122.527 68.8998 122.954 69.3265 123.167 69.54" stroke="black" stroke-width="1.65776"/>
<path d="M126.679 75.9437V78.825L124.758 79.4653C126.145 82.7735 130.905 87.4049 135.002 79.4653L133.082 78.825V76.2639" stroke="black" stroke-width="1.65776"/>
<path d="M124.76 79.4646L122.839 79.7847C123.159 81.5989 123.351 86.0596 121.559 89.3891V99.6337C124.013 101.021 130.779 102.963 138.206 99.6337L137.566 89.3891C135.773 85.2912 136.392 81.4922 136.926 80.1049C136.669 79.5927 135.538 79.4646 135.005 79.4646" stroke="black" stroke-width="1.65776"/>
<path d="M122.849 79.7854C121.248 79.6787 117.599 81.8344 115.806 91.3107L109.403 96.7532C108.016 96.8599 105.881 96.433 104.921 98.9942L103 101.875C104.814 102.409 108.955 102.58 111.004 98.9942L119.007 93.8718L121.568 89.3898" stroke="black" stroke-width="1.65776"/>
<path d="M136.941 80.1047C138.649 79.9979 142.512 82.1536 144.305 91.6299L150.708 97.0724C151.881 96.6455 154.485 96.6242 155.51 99.9537L157.111 102.195C155.296 102.728 151.156 102.835 149.107 98.9932L140.143 93.2306L137.582 89.3889" stroke="black" stroke-width="1.65776"/>
<path d="M121.562 99.6341C119.107 99.2072 113.686 98.4176 111.637 98.6737M105.555 102.195C106.942 105.183 113.686 110.903 129.566 109.879C129.811 109.854 130.14 109.807 130.526 109.733M112.278 100.595C117.656 101.363 124.977 104.33 127.965 105.717C127.453 105.461 127.965 104.543 128.285 104.116L131.807 105.077C133.02 104.76 134.082 104.628 135.008 104.632M138.209 99.6341C140.344 99.2072 145.445 98.4176 148.774 98.6737M154.537 102.515C151.656 105.513 142.82 111.154 130.526 109.733M130.526 109.733C131.818 109.487 133.75 108.944 135.328 107.958C136.289 107.744 138.658 107.446 140.45 107.958C140.112 106.687 138.575 104.649 135.008 104.632M135.008 104.632C137.036 103.393 141.603 100.851 143.652 100.595" stroke="black" stroke-width="1.65776"/>
<path d="M125.73 68.58C126.264 68.2599 127.523 67.8117 128.292 68.58" stroke="black" stroke-width="0.77362"/>
<path d="M131.176 68.58C131.709 68.2599 132.969 67.8117 133.737 68.58" stroke="black" stroke-width="0.77362"/>
<path d="M130.53 71.7814L130.851 72.7418H128.93L129.25 71.7814" stroke="black" stroke-width="0.77362" stroke-linecap="round"/>
<path d="M126.691 101.234L128.612 104.116M133.094 101.234L130.853 104.756" stroke="black" stroke-width="1.65776"/>
<path d="M13.2393 17.759C13.4664 13.4439 17.5245 6.23998 25.7305 9.58291C27.7746 10.4157 30.2729 13.5952 30.6512 17.759M13.2393 17.759C15.1167 16.366 16.4441 17.7842 16.8731 18.6674C20.9914 18.8491 23.9893 16.1692 24.9734 14.8065C25.7002 16.1389 27.3959 17.33 28.153 17.759C29.0614 17.335 30.1212 17.2291 30.6512 17.759M13.2393 17.759C12.7846 18.2461 12.2129 19.3164 12.3149 20.7115M30.6512 17.759C31.1798 18.1859 31.4463 19.1041 31.055 20.7115M12.3149 20.7115C12.3714 21.4844 12.6347 22.357 13.2393 23.2854C13.6178 23.7649 14.6776 24.5269 15.8888 23.7396C16.1919 24.6336 17.1354 26.097 18.6144 27.1369M12.3149 20.7115C11.7902 20.8881 10.6047 20.8932 10.0596 19.5002C9.70632 15.4626 11.5434 7.14526 21.7181 6.17624C25.5033 6.05007 33.2405 8.53821 33.9067 19.5002C33.7468 20.3077 32.9525 21.6805 31.055 20.7115M31.055 20.7115C30.9606 21.0994 30.8278 21.5274 30.6512 21.9984C30.2475 22.9069 29.1826 24.5269 28.153 23.7396C27.0323 25.5711 25.9362 26.726 24.9734 27.4258M18.6144 27.1369C19.5987 27.8289 20.8202 28.3334 22.248 28.3576C22.8295 28.4545 23.803 28.2764 24.9734 27.4258M18.6144 27.1369C18.5411 27.6364 18.5205 28.2886 18.6144 28.9716M24.9734 27.4258C25.1165 27.9953 25.1865 28.509 25.1976 28.9716M18.6144 28.9716C18.8438 30.6394 19.7557 32.4906 22.248 32.7484C23.3664 32.6061 25.2622 31.6419 25.1976 28.9716M18.6144 28.9716C16.2171 28.3379 10.938 28.4787 9 34.1111V42.8171C9 43.7255 9.56021 45.5424 11.8011 45.5424H20.507M30.6512 45.5424V35.0195C30.6765 34.0859 31.3933 32.2185 34.0581 32.2185M30.6512 45.5424C30.6512 49.4791 32.9225 49.6052 34.0581 49.4791M30.6512 45.5424H25.9577M34.0581 32.2185H49.2746C50.1831 32.1932 52 32.7181 52 35.0195V47.2836C51.6972 48.0154 50.7282 49.4791 49.2746 49.4791H34.0581M34.0581 32.2185C32.0595 28.4636 27.3184 28.4893 25.1976 28.9716M34.0581 49.4791H23.0053C20.6433 49.4791 20.3556 46.8546 20.507 45.5424M13.1637 40.546H20.507M25.9577 45.5424C25.0493 41.7875 22.5006 40.6469 21.3398 40.546H20.507M25.9577 45.5424H20.507M20.507 40.546V45.5424" stroke="black" stroke-width="1.43076"/>
<circle cx="41.2495" cy="40.5461" r="2.84272" stroke="black" stroke-width="1.43076"/>
<path d="M40.5 14.8824V10.2644M48.8275 13.3683V8.82606M48.8275 8.82606V6.10071L40.5 7.61479V10.2644M48.8275 8.82606L40.5 10.2644" stroke="black" stroke-width="1.43076"/>
<circle cx="38.7507" cy="16.3964" r="1.70716" stroke="black" stroke-width="1.43076"/>
<circle cx="47.0866" cy="14.8825" r="1.70716" stroke="black" stroke-width="1.43076"/>
<circle cx="45.7931" cy="27.6774" r="1.48004" stroke="black" stroke-width="1.43076"/>
<path d="M47.3086 26.1627V23.6645M47.3086 23.6645V20.4849L51.4723 18.9708V22.2261L47.3086 23.6645Z" stroke="black" stroke-width="1.43076"/>
<circle cx="7.37409" cy="7.37409" r="6.44241" transform="matrix(-1 0 0 1 52.2969 64.2803)" stroke="black" stroke-width="1.86336"/>
<path d="M31.9994 88.23L33.9533 85.5199C35.5667 83.3013 37.1886 82.7047 37.7979 82.6837H51.2855C52.336 82.7467 54.7142 83.7173 55.8234 87.0955L59.0799 96.9276M31.9994 88.23L34.2054 94.0284H41.2643M31.9994 88.23L29.0372 80.9189H10.4444C9.6881 80.982 8.40236 81.7005 9.30994 84.0703L14.289 96.9276M50.3401 91.1922L51.2855 94.0284H41.2643M14.289 96.9276H11.2638V100.709H18.7639M14.289 96.9276H41.9576M59.0799 96.9276L59.1008 96.9907H62V100.709H55.0041M59.0799 96.9276H41.9576M41.2643 94.0284L41.9576 96.9276M55.0041 100.709V104.176H18.7639V100.709M55.0041 100.709H18.7639" stroke="black" stroke-width="1.86336"/>
<mask id="path-52-inside-1_756_3658" fill="white">
<ellipse cx="1.76474" cy="2.33198" rx="1.76474" ry="2.33198" transform="matrix(-0.957662 0.287896 0.287896 0.957662 22.0898 85.5836)"/>
</mask>
<path d="M19.3812 88.833L21.1656 88.2965C21.245 88.5607 21.3798 88.7074 21.4501 88.7587C21.4821 88.7821 21.4797 88.7711 21.4343 88.761C21.3833 88.7497 21.2999 88.7455 21.2061 88.7737L21.7426 90.5582L22.279 92.3426C21.1316 92.6876 20.0372 92.3418 19.2517 91.7679C18.4673 91.1949 17.8881 90.3387 17.5967 89.3694L19.3812 88.833ZM21.7426 90.5582L21.2061 88.7737C21.1123 88.8019 21.0451 88.8514 21.0087 88.889C20.9764 88.9223 20.9805 88.9328 20.9943 88.8958C21.0246 88.8142 21.0562 88.6175 20.9767 88.3533L22.7612 87.8169L24.5457 87.2804C24.837 88.2496 24.826 89.2833 24.4876 90.1939C24.1487 91.1058 23.4264 91.9977 22.279 92.3426L21.7426 90.5582ZM22.7612 87.8169L20.9767 88.3533C20.8973 88.0892 20.7625 87.9425 20.6923 87.8911C20.6603 87.8678 20.6627 87.8788 20.7081 87.8888C20.7591 87.9001 20.8425 87.9044 20.9363 87.8761L20.3998 86.0917L19.8634 84.3072C21.0108 83.9623 22.1052 84.3081 22.8907 84.8819C23.6751 85.455 24.2543 86.3112 24.5457 87.2804L22.7612 87.8169ZM20.3998 86.0917L20.9363 87.8761C21.0301 87.8479 21.0973 87.7984 21.1336 87.7609C21.166 87.7275 21.1619 87.717 21.1481 87.7541C21.1178 87.8357 21.0862 88.0324 21.1656 88.2965L19.3812 88.833L17.5967 89.3694C17.3053 88.4002 17.3164 87.3665 17.6548 86.456C17.9936 85.5441 18.716 84.6521 19.8634 84.3072L20.3998 86.0917Z" fill="black" mask="url(#path-52-inside-1_756_3658)"/>
<path d="M135.937 9.00314L143.243 9.60371L147.447 16.21C147.581 17.1775 147.287 18.8925 145.045 18.0117L141.642 13.5074H138.238L141.642 24.1174C142.092 25.0734 142.21 27.048 139.84 28.3645M130.932 10.8048L127.628 14.5083L124.225 10.3044C122.303 9.02316 121.556 10.8382 121.423 11.9059L125.927 19.3129L130.331 18.0117L131.332 24.1174L126.627 28.6217L121.423 41.5339C120.822 45.5377 123.825 44.4366 124.626 42.735L129.931 32.9257L134.085 30.9739M139.84 28.3645C139.398 28.6102 138.868 28.8331 138.238 29.0221L134.085 30.9739M139.84 28.3645L141.642 34.227L149.549 35.9286C151.652 36.329 152.853 39.3318 148.648 39.1316L138.238 38.0306L134.085 30.9739M105.108 43.1354V49.041C105.274 49.9085 106.309 51.6434 109.111 51.6434H151.251C152.886 51.4766 155.876 50.1821 154.755 46.3384L117.92 43.962M105.108 43.1354L117.92 43.962M105.108 43.1354V36.5292H107.51M117.92 43.962L114.917 36.5292H112.414M112.414 36.5292V18.0117M112.414 36.5292H107.51M112.414 18.0117H107.51M112.414 18.0117H114.917V13.5074H109.111L105.708 7.9021H100.003L105.108 18.0117H107.51M107.51 18.0117V36.5292M144.445 28.6217H153.353M144.445 25.6188H149.049M136.237 38.8313H129.531M128.329 41.5339H132.934" stroke="black" stroke-width="1.55661" stroke-linecap="round" stroke-linejoin="round"/>
<circle cx="4.40416" cy="4.40416" r="3.62586" transform="matrix(-1 0 0 1 136.637 2.29688)" stroke="black" stroke-width="1.55661"/>
<path d="M238.088 80.5881C231.018 75.2981 223.524 78.384 220.66 80.5881L229.25 87.0771L238.088 80.5881Z" stroke="black" stroke-width="1.5"/>
<path d="M233.878 70.6392C229.527 70.392 225.968 68.3114 224.732 67.302C223.545 74.9157 227.533 77.2723 229.676 77.4989C233.631 75.9662 234.125 72.2871 233.878 70.6392Z" stroke="black" stroke-width="1.5"/>
<path d="M226.899 76.201C226.059 76.8932 225.073 77.1153 224.551 77.1898C216.703 78.3092 219.545 74.038 221.893 72.1223C221.378 68.5997 222.165 61.4434 229.433 60.9984C231.864 61.1838 236.676 63.6681 236.478 72.1223C238.682 73.8938 239.878 78.4258 233.574 77.1898C232.664 77.0115 232.153 76.5718 231.844 76.201" stroke="black" stroke-width="1.5"/>
<path d="M220.601 80.5267L217.572 78.0547L213.308 84.5436M213.308 84.5436L225.792 87.819M213.308 84.5436L210.527 83.8638V90.4763V91.0943M225.792 87.819C226.904 88.7253 229.623 89.9943 231.601 87.819M225.792 87.819V105.185M231.601 87.819V105.185M231.601 87.819L245.629 84.8568M231.601 105.185C230.571 106.318 227.967 107.904 225.792 105.185M231.601 105.185L247.112 103.701V100.55V98.4484V97.8922M225.792 105.185L210.527 103.701V100.55V98.263V97.645M238.09 80.5885L240.747 78.0547L245.629 84.8568M245.629 84.8568L247.112 84.5436V90.4763V91.0325" stroke="black" stroke-width="1.5"/>
<path d="M211.512 91.7211C212.61 91.7211 213.576 92.0577 214.25 92.5658C214.924 93.0737 215.272 93.7194 215.272 94.3705C215.272 95.0214 214.924 95.6664 214.25 96.1742C213.576 96.6823 212.61 97.0188 211.512 97.0189C210.413 97.0189 209.447 96.6824 208.772 96.1742C208.099 95.6664 207.75 95.0213 207.75 94.3705C207.75 93.7195 208.098 93.0737 208.772 92.5658C209.447 92.0576 210.413 91.7211 211.512 91.7211Z" stroke="black" stroke-width="1.5"/>
<path d="M246.361 91.7211C247.492 91.7211 248.489 92.0704 249.186 92.6C249.882 93.1291 250.246 93.8057 250.246 94.4935C250.246 95.1814 249.882 95.858 249.186 96.3871C248.489 96.9167 247.492 97.266 246.361 97.266C245.23 97.266 244.235 96.9166 243.538 96.3871C242.842 95.8579 242.477 95.1815 242.477 94.4935C242.477 93.8056 242.842 93.1291 243.538 92.6C244.235 92.0705 245.23 91.7211 246.361 91.7211Z" stroke="black" stroke-width="1.5"/>
</svg>
