<svg width="260" height="178" viewBox="0 0 260 178" fill="none" xmlns="http://www.w3.org/2000/svg">
<rect width="260" height="178" fill="white"/>
<path d="M214 70.3191C214 69.731 214.477 69.2543 215.065 69.2543C215.653 69.2543 216.13 69.731 216.13 70.3191V76.2193C220.565 77.5301 225.589 77.8119 230.166 77.5991C234.498 77.3977 238.367 76.7562 240.858 76.17V70.4959C240.858 69.9079 241.335 69.4311 241.923 69.4311C242.511 69.4311 242.988 69.9079 242.988 70.4959V77.8253L242.193 78.0335C239.635 78.7032 235.237 79.4953 230.265 79.7265C225.3 79.9574 219.684 79.6331 214.734 78.0157L214 77.7759V70.3191Z" fill="black"/>
<path d="M228.553 66C236.525 66 242.988 67.96 242.988 70.3777C242.988 72.7955 236.525 74.7555 228.553 74.7555V72.6258C232.39 72.6258 235.78 72.1513 238.142 71.4352C239.303 71.0829 240.102 70.7052 240.574 70.3777C240.102 70.0502 239.303 69.6726 238.142 69.3203C235.78 68.6041 232.39 68.1297 228.553 68.1297C224.716 68.1297 221.294 68.604 218.899 69.3221C217.731 69.6725 216.919 70.0485 216.434 70.3777C216.919 70.7069 217.731 71.083 218.899 71.4333C221.294 72.1514 224.716 72.6258 228.553 72.6258V74.7555C220.581 74.7555 214 72.7955 214 70.3777C214 67.96 220.581 66 228.553 66Z" fill="black"/>
<path d="M240.858 84.8595V81.6065C237.705 82.1941 233.63 82.7932 229.338 82.9775C224.958 83.1657 220.291 82.9244 216.13 81.7606V84.6601C219.407 85.7971 225.366 86.9576 234.865 85.7152C235.448 85.639 235.982 86.0498 236.059 86.6329C236.135 87.216 235.724 87.7507 235.141 87.8269C224.629 89.2017 218.148 87.7424 214.68 86.3967L214 86.1331V78.826L215.41 79.309C219.549 80.7267 224.487 81.0541 229.247 80.8497C233.994 80.6458 238.491 79.9166 241.714 79.272L242.988 79.0174V84.8595C242.988 85.4476 242.511 85.9244 241.923 85.9244C241.335 85.9244 240.858 85.4476 240.858 84.8595Z" fill="black"/>
<path d="M215.413 87.8291C221.42 89.9085 226.247 90.3672 231.56 90.0207C232.147 89.9824 232.654 90.4271 232.692 91.0139C232.73 91.6008 232.285 92.1075 231.699 92.1458C226.549 92.4816 221.792 92.0903 216.13 90.3084V92.9523C222.747 94.4373 224.732 94.7378 230.404 94.5154C230.992 94.4923 231.487 94.9499 231.51 95.5375C231.533 96.1251 231.076 96.6201 230.488 96.6432C224.322 96.885 222.209 96.5095 214.83 94.8433L214 94.6559V87.3398L215.413 87.8291Z" fill="black"/>
<path d="M215.419 96.4683C221.252 98.5269 227.471 98.497 230.979 98.3022C231.566 98.2696 232.068 98.7191 232.101 99.3063C232.134 99.8934 231.684 100.396 231.097 100.429C227.777 100.613 221.921 100.669 216.13 98.9379V101.463C216.677 101.628 217.467 101.813 218.464 101.993C219.899 102.253 221.664 102.488 223.53 102.653C227.296 102.986 231.332 103.021 233.888 102.466C234.462 102.341 235.03 102.706 235.154 103.28C235.279 103.855 234.915 104.422 234.34 104.547C231.453 105.175 227.148 105.111 223.342 104.774C221.422 104.604 219.592 104.361 218.085 104.088C216.615 103.823 215.345 103.511 214.614 103.17L214 102.883V95.9673L215.419 96.4683Z" fill="black"/>
<path d="M248.195 95.5793C248.195 91.6586 245.017 88.4803 241.096 88.4803C237.175 88.4803 233.997 91.6586 233.997 95.5793C233.997 99.5 237.175 102.678 241.096 102.678V104.808C235.999 104.808 231.867 100.676 231.867 95.5793C231.867 90.4824 235.999 86.3506 241.096 86.3506C246.193 86.3506 250.325 90.4824 250.325 95.5793C250.325 100.676 246.193 104.808 241.096 104.808V102.678C245.017 102.678 248.195 99.5 248.195 95.5793Z" fill="black"/>
<path d="M242.161 93.6863V100.075H240.031V93.6863H242.161Z" fill="black"/>
<path d="M242.161 91.2015V92.7397H240.031V91.2015H242.161Z" fill="black"/>
<path d="M22.1207 80.2643C22.1207 80.2123 22.0566 79.7659 21.067 79.2274C20.1465 78.7266 18.7516 78.3611 17.1122 78.3611C15.471 78.3611 13.9831 78.7274 12.9682 79.2479C12.4615 79.5078 12.1392 79.7717 11.9623 79.982C11.8774 80.083 11.8374 80.1578 11.8195 80.2015C11.8031 80.2417 11.8031 80.2598 11.8031 80.2643C11.8031 80.2688 11.8031 80.287 11.8195 80.3271C11.8374 80.3708 11.8774 80.4457 11.9623 80.5466C12.1392 80.757 12.4615 81.0208 12.9682 81.2807C13.9831 81.8012 15.471 82.1676 17.1122 82.1676V83.9707C13.3502 83.9707 10 82.3113 10 80.2643C10 78.2174 13.3502 76.558 17.1122 76.558C20.8741 76.558 23.9238 78.2174 23.9238 80.2643C23.9238 82.3113 20.8741 83.9707 17.1122 83.9707V82.1676C18.7516 82.1676 20.1465 81.8021 21.067 81.3013C22.0566 80.7628 22.1207 80.3164 22.1207 80.2643Z" fill="black"/>
<path d="M11.8031 80.5649V90.7282C13.5036 91.8789 17.4977 93.252 22.1207 90.6652V80.5649H23.9238V91.6898L23.491 91.9532C17.5775 95.5527 12.3097 93.4793 10.3351 91.8845L10 91.6137V80.5649H11.8031Z" fill="black"/>
<path d="M21.9494 85.8074C22.3735 85.5465 22.9287 85.6786 23.1896 86.1027C23.4506 86.5267 23.3184 87.0819 22.8944 87.3429C18.6526 89.9532 13.8674 89.1982 11.0098 87.3298C10.5931 87.0573 10.4762 86.4985 10.7486 86.0817C11.0211 85.665 11.5799 85.5481 11.9967 85.8205C14.348 87.3579 18.378 88.0053 21.9494 85.8074Z" fill="black"/>
<path d="M45.4606 80.2643C45.4606 80.2123 45.3964 79.7659 44.4068 79.2274C43.4864 78.7266 42.0914 78.3611 40.452 78.3611C38.8109 78.3611 37.3229 78.7274 36.308 79.2479C35.8013 79.5078 35.4791 79.7717 35.3022 79.982C35.2173 80.083 35.1773 80.1578 35.1594 80.2015C35.1429 80.2417 35.1429 80.2598 35.1429 80.2643C35.1429 80.2688 35.1429 80.287 35.1594 80.3271C35.1773 80.3708 35.2173 80.4457 35.3022 80.5466C35.4791 80.757 35.8013 81.0208 36.308 81.2807C37.3229 81.8012 38.8109 82.1676 40.452 82.1676V83.9707C36.69 83.9707 33.3398 82.3113 33.3398 80.2643C33.3398 78.2174 36.69 76.558 40.452 76.558C44.214 76.558 47.2637 78.2174 47.2637 80.2643C47.2637 82.3113 44.214 83.9707 40.452 83.9707V82.1676C42.0914 82.1676 43.4864 81.8021 44.4068 81.3013C45.3964 80.7628 45.4606 80.3164 45.4606 80.2643Z" fill="black"/>
<path d="M35.1429 80.5649V90.7282C36.8434 91.8789 40.8375 93.252 45.4606 90.6652V80.5649H47.2637V91.6898L46.8309 91.9532C40.9173 95.5527 35.6496 93.4793 33.675 91.8845L33.3398 91.6137V80.5649H35.1429Z" fill="black"/>
<path d="M45.2854 85.8074C45.7094 85.5465 46.2646 85.6786 46.5256 86.1027C46.7865 86.5267 46.6544 87.0819 46.2303 87.3429C41.9885 89.9532 37.2034 89.1982 34.3458 87.3298C33.929 87.0573 33.8121 86.4985 34.0846 86.0817C34.3571 85.665 34.9159 85.5481 35.3326 85.8205C37.6839 87.3579 41.7139 88.0053 45.2854 85.8074Z" fill="black"/>
<path d="M24.3664 68.4698C28.7332 67.4032 34.117 67.9654 39.9699 72.1163C40.3759 72.4043 40.4717 72.967 40.1837 73.3731C39.8957 73.7793 39.3328 73.875 38.9267 73.587C33.4802 69.7243 28.6298 69.2846 24.7943 70.2215C20.9166 71.1686 17.9958 73.5439 16.5147 75.4147C16.2057 75.8051 15.6387 75.871 15.2483 75.562C14.8579 75.253 14.7919 74.6858 15.101 74.2954C16.792 72.1594 20.0418 69.5261 24.3664 68.4698Z" fill="black"/>
<path d="M39.4519 68.5442H41.255V74.4535L35.3576 75.1555L35.1445 73.3651L39.4519 72.8521V68.5442Z" fill="black"/>
<path d="M32.9562 102.72C28.5509 103.614 23.1933 102.841 17.5079 98.464C17.1134 98.1602 17.0398 97.5942 17.3435 97.1997C17.6473 96.8052 18.2134 96.7316 18.608 97.0354C23.8986 101.109 28.728 101.738 32.5974 100.953C36.5093 100.159 39.5211 97.8998 41.0744 96.0885C41.3985 95.7106 41.9677 95.667 42.3456 95.991C42.7236 96.3152 42.7673 96.8845 42.4431 97.2625C40.6696 99.3305 37.3189 101.834 32.9562 102.72Z" fill="black"/>
<path d="M17.8913 102.054L16.0896 101.983L16.3215 96.0781L22.2419 95.6081L22.3845 97.4054L18.0603 97.749L17.8913 102.054Z" fill="black"/>
<path d="M11.6093 13.9582V19.1919L27.3848 23.136L43.5652 19.1865V13.9641L27.3853 9.50511L11.6093 13.9582ZM46.0339 19.9406C46.0339 20.6359 45.5587 21.2411 44.8832 21.4061L27.74 25.5908C27.5022 25.6488 27.2539 25.648 27.0164 25.5886L10.2834 21.4053C9.61178 21.2374 9.14062 20.6339 9.14062 19.9416V13.2317C9.14062 12.5564 9.58948 11.9633 10.2394 11.7799L26.9725 7.05677C27.2044 6.99133 27.4481 6.98243 27.6832 7.03025L27.7834 7.05409L44.926 11.7785C45.5805 11.9589 46.0339 12.5542 46.0339 13.2331V19.9406Z" fill="black"/>
<path d="M45.8933 30.2267C45.8933 30.9221 45.418 31.5273 44.7425 31.6923L27.5993 35.8769C27.3616 35.935 27.1133 35.9342 26.8758 35.8748L10.1427 31.6915C9.47115 31.5236 9 30.9201 9 30.2278V23.4614C9.00004 22.9438 9.26553 22.4625 9.70316 22.1861L13.2246 19.9617L14.5431 22.0489L11.4687 23.9907V29.478L27.2441 33.4222L43.4246 29.4727V24.073L39.7114 22.2166L40.8153 20.0085L45.0594 22.1304C45.5705 22.3859 45.8933 22.9085 45.8933 23.4799V30.2267Z" fill="black"/>
<path d="M45.8933 40.2387C45.8933 40.9341 45.418 41.5393 44.7425 41.7043L27.5993 45.8889C27.3616 45.9469 27.1133 45.9461 26.8758 45.8868L10.1427 41.7035C9.47115 41.5355 9 40.9321 9 40.2398V33.4777C9 32.9478 9.27796 32.4565 9.73236 32.1839L13.4008 29.983L14.6708 32.1L11.4687 34.0209V39.49L27.2441 43.4342L43.4246 39.4847V34.0549L39.9669 32.1691L41.1491 30.0018L45.1071 32.1608C45.5917 32.4252 45.8933 32.9331 45.8933 33.4852V40.2387Z" fill="black"/>
<path d="M13.29 27.6785C13.4529 27.0165 14.1214 26.612 14.7833 26.7749L23.6981 28.9693C24.36 29.1323 24.7645 29.8008 24.6016 30.4627C24.4387 31.1246 23.7702 31.5291 23.1082 31.3662L14.1935 29.1718C13.5316 29.0089 13.1271 28.3404 13.29 27.6785Z" fill="black"/>
<path d="M13.4267 17.6665C13.5896 17.0046 14.2581 16.6001 14.9201 16.763L23.8348 18.9574C24.4967 19.1203 24.9012 19.7888 24.7383 20.4508C24.5754 21.1127 23.9069 21.5172 23.2449 21.3543L14.3302 19.1599C13.6683 18.997 13.2638 18.3284 13.4267 17.6665Z" fill="black"/>
<path d="M13.29 37.6904C13.4529 37.0285 14.1214 36.624 14.7833 36.7869L23.6981 38.9813C24.36 39.1442 24.7645 39.8128 24.6016 40.4747C24.4387 41.1366 23.7702 41.5411 23.1082 41.3782L14.1935 39.1838C13.5316 39.0209 13.1271 38.3524 13.29 37.6904Z" fill="black"/>
<path d="M27.3804 16.2814L44.6177 12.2255L45.1831 14.6286L27.7241 18.7367C27.495 18.7906 27.2563 18.7901 27.0274 18.7353L9.84375 14.623L10.4183 12.222L27.3804 16.2814Z" fill="black"/>
<path d="M27.2452 26.4296L44.3426 22.373L44.9123 24.775L27.5915 28.885C27.3606 28.9397 27.1201 28.9393 26.8894 28.8836L9.84375 24.7691L10.4232 22.3693L27.2452 26.4296Z" fill="black"/>
<path d="M43.1277 32.8094C43.7897 32.6467 44.4584 33.0515 44.6211 33.7135C44.7838 34.3755 44.379 35.0441 43.717 35.2068L27.5987 39.1681C27.3622 39.2262 27.1151 39.2262 26.8787 39.1681L10.7603 35.2068C10.0984 35.0441 9.69357 34.3755 9.85627 33.7135C10.019 33.0515 10.6877 32.6467 11.3496 32.8094L27.2387 36.7141L43.1277 32.8094Z" fill="black"/>
<path d="M219.484 160.405V155.484L222.493 152.344V149.416C222.493 148.766 223.02 148.239 223.671 148.239C224.321 148.239 224.848 148.766 224.848 149.416V153.291L221.839 156.43V160.405C221.839 161.055 221.312 161.582 220.662 161.582C220.011 161.582 219.484 161.055 219.484 160.405Z" fill="black"/>
<path d="M243.031 160.536V155.615L240.022 152.475V149.547C240.022 148.897 239.495 148.37 238.845 148.37C238.195 148.37 237.668 148.897 237.668 149.547V153.422L240.677 156.561V160.536C240.677 161.186 241.204 161.713 241.854 161.713C242.504 161.713 243.031 161.186 243.031 160.536Z" fill="black"/>
<path d="M228.119 150.332C228.119 149.682 228.646 149.155 229.296 149.155C229.946 149.155 230.473 149.682 230.473 150.332V154.911L229.061 156.794C228.67 157.315 227.932 157.42 227.412 157.03C226.892 156.64 226.787 155.902 227.177 155.382L228.119 154.126V150.332Z" fill="black"/>
<path d="M234.791 150.332C234.791 149.682 234.264 149.155 233.614 149.155C232.964 149.155 232.437 149.682 232.437 150.332V154.911L233.85 156.794C234.24 157.315 234.978 157.42 235.498 157.03C236.018 156.64 236.123 155.902 235.733 155.382L234.791 154.126V150.332Z" fill="black"/>
<path d="M231.39 126C238.976 126 245.649 128.036 245.649 130.709C245.649 133.383 238.976 135.68 231.39 135.68V133.326C234.974 133.326 238.27 132.779 240.592 131.973C241.764 131.566 242.564 131.135 243.023 130.77C243.041 130.756 243.057 130.742 243.073 130.729C243.069 130.726 243.065 130.722 243.061 130.719C242.612 130.377 241.819 129.973 240.642 129.593C238.313 128.843 235.003 128.355 231.39 128.355C227.777 128.355 224.43 128.843 222.064 129.596C220.869 129.976 220.058 130.383 219.595 130.729C219.607 130.738 219.619 130.749 219.632 130.759C220.104 131.128 220.923 131.561 222.114 131.97C224.473 132.779 227.805 133.326 231.39 133.326V135.68C223.804 135.68 217 133.383 217 130.709C217 128.036 223.804 126 231.39 126Z" fill="black"/>
<path d="M217 131.102C217 130.452 217.527 129.925 218.177 129.925C218.828 129.925 219.355 130.452 219.355 131.102V145.795C219.501 145.88 219.686 145.978 219.913 146.086C220.426 146.328 221.092 146.592 221.893 146.851C223.494 147.367 225.585 147.848 227.965 148.098C232.547 148.58 238.111 148.201 243.294 145.682V131.102C243.294 130.452 243.821 129.925 244.472 129.925C245.122 129.925 245.649 130.452 245.649 131.102V147.12L245.017 147.451C239.127 150.533 232.793 150.974 227.718 150.44C225.176 150.173 222.926 149.658 221.17 149.092C220.293 148.808 219.528 148.509 218.905 148.214C218.304 147.929 217.766 147.617 217.395 147.287L217 146.936V131.102Z" fill="black"/>
<path d="M221.315 162.759C221.315 162.254 220.905 161.844 220.4 161.844C219.894 161.844 219.484 162.254 219.484 162.759C219.484 163.265 219.894 163.675 220.4 163.675V165.507C218.882 165.507 217.652 164.277 217.652 162.759C217.652 161.242 218.882 160.012 220.4 160.012C221.917 160.012 223.147 161.242 223.147 162.759C223.147 164.277 221.917 165.507 220.4 165.507V163.675C220.905 163.675 221.315 163.265 221.315 162.759Z" fill="black"/>
<path d="M243.46 135.917C244.052 135.648 244.75 135.91 245.019 136.502C245.287 137.095 245.025 137.792 244.433 138.061C232.731 143.37 222.176 140.304 218.237 138.006C217.675 137.678 217.485 136.957 217.813 136.396C218.141 135.834 218.861 135.644 219.423 135.972C222.809 137.947 232.558 140.863 243.46 135.917Z" fill="black"/>
<path d="M243.492 140.744C244.091 140.492 244.781 140.773 245.034 141.372C245.286 141.971 245.005 142.662 244.405 142.914C232.112 148.091 221.843 145.116 218.09 142.835C217.534 142.498 217.357 141.773 217.695 141.218C218.032 140.662 218.757 140.485 219.312 140.823C222.449 142.729 231.925 145.614 243.492 140.744Z" fill="black"/>
<path d="M227.335 157.527C227.335 157.021 226.925 156.611 226.419 156.611C225.913 156.611 225.503 157.021 225.503 157.527C225.503 158.033 225.913 158.443 226.419 158.443V160.274C224.902 160.274 223.672 159.044 223.672 157.527C223.672 156.01 224.902 154.78 226.419 154.78C227.936 154.78 229.166 156.01 229.166 157.527C229.166 159.044 227.936 160.274 226.419 160.274V158.443C226.925 158.443 227.335 158.033 227.335 157.527Z" fill="black"/>
<path d="M237.276 157.527C237.276 157.021 236.866 156.611 236.36 156.611C235.855 156.611 235.445 157.021 235.445 157.527C235.445 158.033 235.855 158.443 236.36 158.443V160.274C234.843 160.274 233.613 159.044 233.613 157.527C233.613 156.01 234.843 154.78 236.36 154.78C237.878 154.78 239.108 156.01 239.108 157.527C239.108 159.044 237.878 160.274 236.36 160.274V158.443C236.866 158.443 237.276 158.033 237.276 157.527Z" fill="black"/>
<path d="M242.768 162.759C242.768 162.254 242.358 161.844 241.853 161.844C241.347 161.844 240.937 162.254 240.937 162.759C240.937 163.265 241.347 163.675 241.853 163.675V165.507C240.335 165.507 239.105 164.277 239.105 162.759C239.105 161.242 240.335 160.012 241.853 160.012C243.37 160.012 244.6 161.242 244.6 162.759C244.6 164.277 243.37 165.507 241.853 165.507V163.675C242.358 163.675 242.768 163.265 242.768 162.759Z" fill="black"/>
<path d="M147.503 69.7452C147.503 69.0557 146.944 68.4968 146.255 68.4968H110.745C110.056 68.4968 109.497 69.0557 109.497 69.7452V75.571C109.497 76.2604 110.056 76.8194 110.745 76.8194H146.255C146.944 76.8194 147.503 76.2604 147.503 75.571V69.7452ZM150 75.571C150 77.6394 148.323 79.3161 146.255 79.3161H110.745C108.677 79.3161 107 77.6394 107 75.571V69.7452C107 67.6768 108.677 66 110.745 66H146.255C148.323 66 150 67.6768 150 69.7452V75.571Z" fill="black"/>
<path d="M147.503 83.7549C147.503 83.0655 146.944 82.5065 146.255 82.5065H110.745C110.056 82.5065 109.497 83.0655 109.497 83.7549V89.5807C109.497 90.2702 110.056 90.8291 110.745 90.8291H146.255C146.944 90.8291 147.503 90.2702 147.503 89.5807V83.7549ZM150 89.5807C150 91.6491 148.323 93.3259 146.255 93.3259H110.745C108.677 93.3259 107 91.6491 107 89.5807V83.7549C107 81.6865 108.677 80.0098 110.745 80.0098H146.255C148.323 80.0098 150 81.6865 150 83.7549V89.5807Z" fill="black"/>
<path d="M112.41 77.2355H114.907V82.229H112.41V77.2355Z" fill="black"/>
<path d="M141.398 77.2355H143.895V82.229H141.398V77.2355Z" fill="black"/>
<path d="M111.996 92.0775H114.493V94.5743H141.264V92.0775H143.761V97.0711H111.996V92.0775Z" fill="black"/>
<path d="M125.028 95.4064H127.525V101.232H123.919V102.758H132.241V101.232H128.912V95.4064H131.409V98.7354H134.738V105.255H121.422V98.7354H125.028V95.4064Z" fill="black"/>
<path d="M144.454 100.677V103.174H133.496V100.677H144.454Z" fill="black"/>
<path d="M122.673 100.539V103.035H111.715V100.539H122.673Z" fill="black"/>
<path d="M111.852 70.0225H114.348V75.4321H111.852V70.0225Z" fill="black"/>
<path d="M111.715 83.8934H114.212V89.3031H111.715V83.8934Z" fill="black"/>
<path d="M116.707 70.0225H119.204V75.4321H116.707V70.0225Z" fill="black"/>
<path d="M116.574 83.8934H119.071V89.3031H116.574V83.8934Z" fill="black"/>
<path d="M121.703 70.0225H124.2V75.4321H121.703V70.0225Z" fill="black"/>
<path d="M121.57 83.8934H124.067V89.3031H121.57V83.8934Z" fill="black"/>
<path d="M126.695 70.0225H129.192V75.4321H126.695V70.0225Z" fill="black"/>
<path d="M126.559 83.8934H129.055V89.3031H126.559V83.8934Z" fill="black"/>
<path d="M132.504 142.374V140.624C132.504 140.072 132.952 139.624 133.504 139.624C134.056 139.624 134.504 140.072 134.504 140.624V142.374C134.504 142.926 134.056 143.374 133.504 143.374C132.952 143.374 132.504 142.926 132.504 142.374Z" fill="black"/>
<path d="M132.504 150.624V148.874C132.504 148.322 132.952 147.874 133.504 147.874C134.056 147.874 134.504 148.322 134.504 148.874V150.624C134.504 151.177 134.056 151.624 133.504 151.624C132.952 151.624 132.504 151.177 132.504 150.624Z" fill="black"/>
<path d="M142.75 142.624V140.874C142.75 140.322 143.198 139.874 143.75 139.874C144.302 139.874 144.75 140.322 144.75 140.874V142.624C144.75 143.176 144.302 143.624 143.75 143.624C143.198 143.624 142.75 143.176 142.75 142.624Z" fill="black"/>
<path d="M142.75 150.874V149.124C142.75 148.572 143.198 148.124 143.75 148.124C144.302 148.124 144.75 148.572 144.75 149.124V150.874C144.75 151.427 144.302 151.875 143.75 151.875C143.198 151.875 142.75 151.427 142.75 150.874Z" fill="black"/>
<path d="M130.504 144.499V146.499H121.129V144.499H130.504Z" fill="black"/>
<path d="M112.629 136.499H114.629V139.999H112.629V136.499Z" fill="black"/>
<path d="M112.5 150.624H114.5V154.125H112.5V150.624Z" fill="black"/>
<path d="M135.375 137.749C135.927 137.749 136.375 137.301 136.375 136.749C136.375 136.197 135.927 135.749 135.375 135.749H134.5C133.948 135.749 133.5 136.197 133.5 136.749C133.5 137.301 133.948 137.749 134.5 137.749H135.375Z" fill="black"/>
<path d="M135.375 146.749C135.927 146.749 136.375 146.302 136.375 145.749C136.375 145.197 135.927 144.749 135.375 144.749H134.5C133.948 144.749 133.5 145.197 133.5 145.749C133.5 146.302 133.948 146.749 134.5 146.749H135.375Z" fill="black"/>
<path d="M135.375 155.75C135.927 155.75 136.375 155.302 136.375 154.75C136.375 154.197 135.927 153.75 135.375 153.75H134.5C133.948 153.75 133.5 154.197 133.5 154.75C133.5 155.302 133.948 155.75 134.5 155.75H135.375Z" fill="black"/>
<path d="M109 135.874H120.501V128.874H117.38C116.974 128.874 116.593 128.676 116.359 128.344L115.232 126.748H109V135.874ZM122.501 136.624C122.501 137.314 121.941 137.874 121.251 137.874H108.25C107.56 137.874 107 137.314 107 136.624V125.998C107 125.308 107.56 124.748 108.25 124.748H115.621C116.001 124.748 116.36 124.922 116.596 125.217L116.642 125.277L117.768 126.873H121.251C121.941 126.873 122.501 127.433 122.501 128.124V136.624Z" fill="black"/>
<path d="M109 149.999H120.501V142.999H117.38C116.974 142.999 116.593 142.802 116.359 142.47L115.232 140.874H109V149.999ZM122.501 150.749C122.501 151.44 121.941 151.999 121.251 151.999H108.25C107.56 151.999 107 151.44 107 150.749V140.124C107 139.434 107.56 138.874 108.25 138.874H115.621C116.001 138.874 116.36 139.047 116.596 139.342L116.642 139.403L117.768 140.999H121.251C121.941 140.999 122.501 141.559 122.501 142.249V150.749Z" fill="black"/>
<path d="M109 164H120.501V157H117.38C116.974 157 116.593 156.802 116.359 156.471L115.232 154.875H109V164ZM122.501 164.75C122.501 165.44 121.941 166 121.251 166H108.25C107.56 166 107 165.44 107 164.75V154.125C107 153.434 107.56 152.875 108.25 152.875H115.621C116.001 152.875 116.36 153.048 116.596 153.343L116.642 153.404L117.768 155H121.251C121.941 155 122.501 155.559 122.501 156.25V164.75Z" fill="black"/>
<path d="M118.246 132.999C118.799 132.999 119.246 133.446 119.246 133.999C119.246 134.551 118.799 134.999 118.246 134.999H115.746C115.194 134.999 114.746 134.551 114.746 133.999C114.746 133.446 115.194 132.999 115.746 132.999H118.246Z" fill="black"/>
<path d="M118.246 147.124C118.799 147.124 119.246 147.572 119.246 148.124C119.246 148.676 118.799 149.124 118.246 149.124H115.746C115.194 149.124 114.746 148.676 114.746 148.124C114.746 147.572 115.194 147.124 115.746 147.124H118.246Z" fill="black"/>
<path d="M118.246 161.125C118.799 161.125 119.246 161.572 119.246 162.125C119.246 162.677 118.799 163.125 118.246 163.125H115.746C115.194 163.125 114.746 162.677 114.746 162.125C114.746 161.572 115.194 161.125 115.746 161.125H118.246Z" fill="black"/>
<path d="M146.001 138.874V140.874H131.25V138.874H146.001ZM146.001 134.874H131.25V140.874C130.145 140.874 129.25 139.978 129.25 138.874V134.874C129.25 133.769 130.145 132.874 131.25 132.874H146.001C147.105 132.874 148.001 133.769 148.001 134.874V138.874C148.001 139.978 147.105 140.874 146.001 140.874V134.874Z" fill="black"/>
<path d="M146.001 147.874V149.874H131.25V147.874H146.001ZM146.001 143.874H131.25V149.874C130.145 149.874 129.25 148.979 129.25 147.874V143.874C129.25 142.769 130.145 141.874 131.25 141.874H146.001C147.105 141.874 148.001 142.769 148.001 143.874V147.874C148.001 148.979 147.105 149.874 146.001 149.874V143.874Z" fill="black"/>
<path d="M146.001 156.875V158.875H131.25V156.875H146.001ZM146.001 152.874H131.25V158.875C130.145 158.875 129.25 157.979 129.25 156.875V152.874C129.25 151.77 130.145 150.874 131.25 150.874H146.001C147.105 150.874 148.001 151.77 148.001 152.874V156.875C148.001 157.979 147.105 158.875 146.001 158.875V152.874Z" fill="black"/>
<path d="M143.879 137.874C144.431 137.874 144.879 137.426 144.879 136.874C144.879 136.322 144.431 135.874 143.879 135.874H138.504C137.952 135.874 137.504 136.322 137.504 136.874C137.504 137.426 137.952 137.874 138.504 137.874H143.879Z" fill="black"/>
<path d="M143.879 146.874C144.431 146.874 144.879 146.427 144.879 145.874C144.879 145.322 144.431 144.874 143.879 144.874H138.504C137.952 144.874 137.504 145.322 137.504 145.874C137.504 146.427 137.952 146.874 138.504 146.874H143.879Z" fill="black"/>
<path d="M143.879 155.875C144.431 155.875 144.879 155.427 144.879 154.875C144.879 154.322 144.431 153.875 143.879 153.875H138.504C137.952 153.875 137.504 154.322 137.504 154.875C137.504 155.427 137.952 155.875 138.504 155.875H143.879Z" fill="black"/>
<path d="M209.317 17.9958H242.62V9.16563H209.317V17.9958ZM244.89 18.2481C244.89 19.3628 243.987 20.2664 242.872 20.2664H209.065C207.951 20.2664 207.047 19.3628 207.047 18.2481V8.91334C207.047 7.79865 207.951 6.89502 209.065 6.89502H242.872C243.987 6.89502 244.89 7.79865 244.89 8.91334V18.2481Z" fill="black"/>
<path d="M228.105 10.5533V8.78728C228.105 8.16027 228.614 7.65198 229.241 7.65198C229.868 7.65198 230.376 8.16027 230.376 8.78728V10.5533C230.376 11.1803 229.868 11.6886 229.241 11.6886C228.614 11.6886 228.105 11.1803 228.105 10.5533Z" fill="black"/>
<path d="M228.105 22.0326V20.2665C228.105 19.6395 228.614 19.1312 229.241 19.1312C229.868 19.1312 230.376 19.6395 230.376 20.2665V22.0326C230.376 22.6596 229.868 23.1679 229.241 23.1679C228.614 23.1679 228.105 22.6596 228.105 22.0326Z" fill="black"/>
<path d="M238.457 10.6794V8.91338C238.457 8.28637 238.965 7.77808 239.592 7.77808C240.219 7.77808 240.728 8.28637 240.728 8.91338V10.6794C240.728 11.3064 240.219 11.8147 239.592 11.8147C238.965 11.8147 238.457 11.3064 238.457 10.6794Z" fill="black"/>
<path d="M238.457 22.1585V20.3925C238.457 19.7655 238.965 19.2572 239.592 19.2572C240.219 19.2572 240.728 19.7655 240.728 20.3925V22.1585C240.728 22.7856 240.219 23.2938 239.592 23.2938C238.965 23.2938 238.457 22.7856 238.457 22.1585Z" fill="black"/>
<path d="M233.406 10.6794V8.91338C233.406 8.28637 233.915 7.77808 234.542 7.77808C235.169 7.77808 235.677 8.28637 235.677 8.91338V10.6794C235.677 11.3064 235.169 11.8147 234.542 11.8147C233.915 11.8147 233.406 11.3064 233.406 10.6794Z" fill="black"/>
<path d="M233.406 22.1585V20.3925C233.406 19.7655 233.915 19.2572 234.542 19.2572C235.169 19.2572 235.677 19.7655 235.677 20.3925V22.1585C235.677 22.7856 235.169 23.2938 234.542 23.2938C233.915 23.2938 233.406 22.7856 233.406 22.1585Z" fill="black"/>
<path d="M210.21 17.9667L211.859 17.996C212.485 18.0071 212.985 18.5244 212.974 19.1513C212.963 19.7782 212.445 20.2772 211.818 20.2661L210.169 20.2371C209.676 20.2283 209.271 20.6261 209.271 21.1198L209.271 29.8534C209.271 30.3411 209.666 30.7364 210.154 30.7364H232.526C233.153 30.7365 233.662 31.2448 233.662 31.8717C233.662 32.4987 233.153 33.007 232.526 33.007H210.154C208.412 33.007 207 31.5953 207 29.8536L207 21.1201C207 19.3565 208.446 17.9355 210.21 17.9667Z" fill="black"/>
<path d="M242.747 27.0782V21.1494C242.747 20.6617 242.352 20.2663 241.864 20.2663H240.729C240.102 20.2663 239.594 19.758 239.594 19.131C239.594 18.504 240.102 17.9957 240.729 17.9957H241.864C243.606 17.9957 245.018 19.4077 245.018 21.1494V27.0782C245.018 27.7052 244.51 28.2135 243.883 28.2135C243.256 28.2135 242.747 27.7052 242.747 27.0782Z" fill="black"/>
<path d="M214.615 13.5809C214.615 13.0932 214.219 12.6979 213.732 12.6979C213.244 12.6979 212.849 13.0932 212.849 13.5809C212.849 14.0685 213.244 14.4639 213.732 14.4639V16.7345C211.99 16.7345 210.578 15.3226 210.578 13.5809C210.578 11.8392 211.99 10.4272 213.732 10.4272C215.473 10.4272 216.885 11.8392 216.885 13.5809C216.885 15.3226 215.473 16.7345 213.732 16.7345V14.4639C214.219 14.4639 214.615 14.0685 214.615 13.5809Z" fill="black"/>
<path d="M214.615 25.9429C214.615 25.4553 214.219 25.0599 213.732 25.0599C213.244 25.0599 212.849 25.4553 212.849 25.9429C212.849 26.4306 213.244 26.8259 213.732 26.8259V29.0966C211.99 29.0966 210.578 27.6846 210.578 25.9429C210.578 24.2012 211.99 22.7893 213.732 22.7893C215.473 22.7893 216.885 24.2012 216.885 25.9429C216.885 27.6846 215.473 29.0966 213.732 29.0966V26.8259C214.219 26.8259 214.615 26.4306 214.615 25.9429Z" fill="black"/>
<path d="M222.943 13.5809C222.943 13.0932 222.548 12.6979 222.06 12.6979C221.572 12.6979 221.177 13.0932 221.177 13.5809C221.177 14.0685 221.572 14.4639 222.06 14.4639V16.7345C220.318 16.7345 218.906 15.3226 218.906 13.5809C218.906 11.8392 220.318 10.4272 222.06 10.4272C223.802 10.4272 225.214 11.8392 225.214 13.5809C225.214 15.3226 223.802 16.7345 222.06 16.7345V14.4639C222.548 14.4639 222.943 14.0685 222.943 13.5809Z" fill="black"/>
<path d="M222.943 25.9429C222.943 25.4553 222.548 25.0599 222.06 25.0599C221.572 25.0599 221.177 25.4553 221.177 25.9429C221.177 26.4306 221.572 26.8259 222.06 26.8259V29.0966C220.318 29.0966 218.906 27.6846 218.906 25.9429C218.906 24.2012 220.318 22.7893 222.06 22.7893C223.802 22.7893 225.214 24.2012 225.214 25.9429C225.214 27.6846 223.802 29.0966 222.06 29.0966V26.8259C222.548 26.8259 222.943 26.4306 222.943 25.9429Z" fill="black"/>
<path d="M248.421 36.2868C248.421 32.1764 245.089 28.8442 240.979 28.8442C236.868 28.8442 233.536 32.1764 233.536 36.2868C233.536 40.3972 236.868 43.7293 240.979 43.7293V45.9999C235.614 45.9999 231.266 41.6512 231.266 36.2868C231.266 30.9223 235.614 26.5736 240.979 26.5736C246.343 26.5736 250.692 30.9223 250.692 36.2868C250.692 41.6512 246.343 45.9999 240.979 45.9999V43.7293C245.089 43.7293 248.421 40.3972 248.421 36.2868Z" fill="black"/>
<path d="M244.464 33.0874C244.908 32.644 245.626 32.644 246.07 33.0874C246.513 33.5308 246.513 34.2494 246.07 34.6928L240.634 40.1291C239.981 40.7817 238.919 40.7673 238.284 40.0973L236.37 38.0768C235.939 37.6216 235.958 36.9031 236.413 36.4719C236.868 36.0407 237.587 36.0601 238.018 36.5152L239.486 38.065L244.464 33.0874Z" fill="black"/>
<path d="M122.603 14.8144C122.603 14.7729 122.464 13.9615 120.465 13.006C118.67 12.1479 116.046 11.5526 113.101 11.5526C110.156 11.5526 107.532 12.1479 105.737 13.006C103.738 13.9615 103.6 14.7729 103.6 14.8144C103.6 14.8559 103.738 15.6672 105.737 16.6228C107.532 17.4808 110.156 18.0761 113.101 18.0761V20.6287C106.6 20.6287 101.047 18.0255 101.047 14.8144C101.047 11.6032 106.6 9 113.101 9C119.602 9 125.155 11.6032 125.155 14.8144C125.155 18.0255 119.602 20.6287 113.101 20.6287V18.0761C116.046 18.0761 118.67 17.4808 120.465 16.6228C122.464 15.6672 122.603 14.8559 122.603 14.8144Z" fill="black"/>
<path d="M122.603 20.0721V15.6653C122.603 14.9604 123.174 14.389 123.879 14.389C124.584 14.389 125.155 14.9604 125.155 15.6653V20.0721C125.155 21.2034 124.563 22.3138 123.492 22.8773C115.396 27.1391 106.518 25.1879 102.502 22.8408C101.506 22.2586 101.047 21.2005 101.047 20.2061V15.5235C101.047 14.8186 101.618 14.2472 102.323 14.2472C103.028 14.2472 103.6 14.8186 103.6 15.5235V20.2061C103.6 20.4583 103.71 20.5899 103.79 20.6368C107.199 22.6291 115.133 24.3933 122.304 20.6186C122.467 20.5324 122.603 20.3354 122.603 20.0721Z" fill="black"/>
<path d="M120.782 21.9269C121.005 21.2582 121.728 20.8967 122.397 21.1195C123.198 21.3868 123.816 21.8637 124.257 22.4399C124.78 23.1233 125.011 23.8945 124.961 24.6782C124.912 25.4352 124.607 26.1145 124.215 26.6774C123.443 27.7852 122.185 28.6596 120.956 29.1431C115.324 31.359 109.783 30.7995 105.924 29.4732C104.447 28.9656 102.885 27.9462 101.931 26.6924C101.45 26.0599 101.057 25.2798 101.006 24.4084C100.951 23.4865 101.289 22.6112 102.003 21.8901C102.428 21.4611 103.019 21.1061 103.757 21.0569C104.46 21.01 105.068 21.5422 105.115 22.2454C105.162 22.9488 104.63 23.5571 103.926 23.604C103.926 23.6041 103.926 23.6039 103.926 23.604C103.925 23.6042 103.921 23.6052 103.914 23.609C103.898 23.6168 103.865 23.6377 103.817 23.6857C103.577 23.9286 103.545 24.11 103.554 24.2583C103.566 24.457 103.669 24.7605 103.962 25.1463C104.558 25.9291 105.665 26.6849 106.754 27.0591C110.157 28.2287 115.06 28.7194 120.021 26.7674C120.892 26.4249 121.698 25.8252 122.121 25.2177C122.326 24.9229 122.402 24.6841 122.413 24.5136C122.423 24.3699 122.393 24.2042 122.23 23.9921C122.082 23.7985 121.881 23.6385 121.589 23.5414C120.921 23.3185 120.559 22.5956 120.782 21.9269Z" fill="black"/>
<path d="M120.895 26.7486C121.118 26.0799 121.841 25.7183 122.51 25.9412C123.312 26.2085 123.929 26.6854 124.37 27.2615C124.894 27.9449 125.125 28.7161 125.074 29.4998C125.025 30.2569 124.72 30.9362 124.328 31.4991C123.556 32.6069 122.298 33.4813 121.069 33.9647C115.437 36.1807 109.897 35.6212 106.038 34.2949C104.561 33.7873 102.999 32.7679 102.044 31.514C101.563 30.8815 101.17 30.1014 101.119 29.23C101.065 28.3081 101.402 27.4328 102.116 26.7117C102.541 26.2827 103.132 25.9278 103.87 25.8786C104.573 25.8317 105.181 26.3638 105.228 27.0671C105.275 27.7704 104.743 28.3788 104.04 28.4257C104.039 28.4257 104.039 28.4256 104.039 28.4257C104.039 28.4258 104.035 28.4269 104.027 28.4307C104.012 28.4385 103.978 28.4594 103.93 28.5074C103.69 28.7503 103.658 28.9317 103.667 29.0799C103.679 29.2786 103.782 29.5822 104.075 29.9679C104.671 30.7508 105.778 31.5065 106.867 31.8807C110.27 33.0503 115.173 33.5411 120.135 31.5891C121.005 31.2465 121.811 30.6469 122.234 30.0394C122.44 29.7446 122.516 29.5057 122.527 29.3353C122.536 29.1915 122.506 29.0258 122.344 28.8137C122.195 28.6202 121.994 28.4602 121.703 28.3631C121.034 28.1402 120.672 27.4173 120.895 26.7486Z" fill="black"/>
<path d="M148.696 14.8144C148.696 14.7729 148.557 13.9615 146.559 13.006C144.764 12.1479 142.14 11.5526 139.195 11.5526C136.25 11.5526 133.626 12.1479 131.831 13.006C129.832 13.9615 129.693 14.7729 129.693 14.8144C129.693 14.8559 129.832 15.6672 131.831 16.6228C133.626 17.4808 136.25 18.0761 139.195 18.0761V20.6287C132.694 20.6287 127.141 18.0255 127.141 14.8144C127.141 11.6032 132.694 9 139.195 9C145.695 9 151.249 11.6032 151.249 14.8144C151.249 18.0255 145.695 20.6287 139.195 20.6287V18.0761C142.14 18.0761 144.764 17.4808 146.559 16.6228C148.557 15.6672 148.696 14.8559 148.696 14.8144Z" fill="black"/>
<path d="M148.696 20.0721V15.6653C148.696 14.9604 149.268 14.389 149.973 14.389C150.678 14.389 151.249 14.9604 151.249 15.6653V20.0721C151.249 21.2034 150.657 22.3138 149.586 22.8773C141.49 27.1391 132.612 25.1879 128.596 22.8408C127.6 22.2586 127.141 21.2005 127.141 20.2061V15.5235C127.141 14.8186 127.712 14.2472 128.417 14.2472C129.122 14.2472 129.693 14.8186 129.693 15.5235V20.2061C129.693 20.4583 129.804 20.5899 129.884 20.6368C133.293 22.6291 141.226 24.3933 148.397 20.6186C148.561 20.5324 148.696 20.3354 148.696 20.0721Z" fill="black"/>
<path d="M146.872 21.9269C147.095 21.2582 147.818 20.8967 148.486 21.1195C149.288 21.3868 149.906 21.8637 150.347 22.4399C150.87 23.1233 151.101 23.8945 151.051 24.6782C151.002 25.4352 150.697 26.1145 150.305 26.6774C149.533 27.7852 148.275 28.6596 147.046 29.1431C141.414 31.359 135.873 30.7995 132.014 29.4732C130.537 28.9656 128.975 27.9462 128.021 26.6924C127.539 26.0599 127.147 25.2798 127.095 24.4084C127.041 23.4865 127.379 22.6112 128.093 21.8901C128.518 21.4611 129.108 21.1061 129.846 21.0569C130.55 21.01 131.158 21.5422 131.205 22.2454C131.252 22.9488 130.72 23.5571 130.016 23.604C130.016 23.6041 130.016 23.6039 130.016 23.604C130.015 23.6042 130.011 23.6052 130.004 23.609C129.988 23.6168 129.954 23.6377 129.907 23.6857C129.666 23.9286 129.635 24.11 129.644 24.2583C129.655 24.457 129.758 24.7605 130.052 25.1463C130.648 25.9291 131.755 26.6849 132.844 27.0591C136.247 28.2287 141.15 28.7194 146.111 26.7674C146.982 26.4249 147.787 25.8252 148.211 25.2177C148.416 24.9229 148.492 24.6841 148.503 24.5136C148.513 24.3699 148.483 24.2042 148.32 23.9921C148.172 23.7985 147.97 23.6385 147.679 23.5414C147.011 23.3185 146.649 22.5956 146.872 21.9269Z" fill="black"/>
<path d="M146.985 26.7486C147.208 26.0799 147.931 25.7183 148.6 25.9412C149.402 26.2085 150.019 26.6854 150.46 27.2615C150.984 27.9449 151.215 28.7161 151.164 29.4998C151.115 30.2569 150.81 30.9362 150.418 31.4991C149.646 32.6069 148.388 33.4813 147.159 33.9647C141.527 36.1807 135.986 35.6212 132.127 34.2949C130.651 33.7873 129.089 32.7679 128.134 31.514C127.653 30.8815 127.26 30.1014 127.209 29.23C127.154 28.3081 127.492 27.4328 128.206 26.7117C128.631 26.2827 129.222 25.9278 129.96 25.8786C130.663 25.8317 131.271 26.3638 131.318 27.0671C131.365 27.7704 130.833 28.3788 130.13 28.4257C130.129 28.4257 130.129 28.4256 130.129 28.4257C130.128 28.4258 130.125 28.4269 130.117 28.4307C130.102 28.4385 130.068 28.4594 130.02 28.5074C129.78 28.7503 129.748 28.9317 129.757 29.0799C129.769 29.2786 129.872 29.5822 130.165 29.9679C130.761 30.7508 131.868 31.5065 132.957 31.8807C136.36 33.0503 141.263 33.5411 146.225 31.5891C147.095 31.2465 147.901 30.6469 148.324 30.0394C148.53 29.7446 148.606 29.5057 148.617 29.3353C148.626 29.1915 148.596 29.0258 148.433 28.8137C148.285 28.6202 148.084 28.4602 147.793 28.3631C147.124 28.1402 146.762 27.4173 146.985 26.7486Z" fill="black"/>
<path d="M111.541 42.4681H114.377V39.6319H111.541V42.4681ZM116.93 44.1699C116.93 44.6398 116.549 45.0208 116.079 45.0208H109.839C109.369 45.0208 108.988 44.6398 108.988 44.1699V37.9301C108.988 37.4602 109.369 37.0792 109.839 37.0792H116.079C116.549 37.0792 116.93 37.4602 116.93 37.9301V44.1699Z" fill="black"/>
<path d="M137.631 42.4681H140.467V39.6319H137.631V42.4681ZM143.02 44.1699C143.02 44.6398 142.639 45.0208 142.169 45.0208H135.929C135.459 45.0208 135.078 44.6398 135.078 44.1699V37.9301C135.078 37.4602 135.459 37.0792 135.929 37.0792H142.169C142.639 37.0792 143.02 37.4602 143.02 37.9301V44.1699Z" fill="black"/>
<path d="M111.824 37.5046V34.952C111.824 34.2471 112.396 33.6757 113.101 33.6757C113.805 33.6757 114.377 34.2471 114.377 34.952V37.5046C114.377 38.2095 113.805 38.781 113.101 38.781C112.396 38.781 111.824 38.2095 111.824 37.5046Z" fill="black"/>
<path d="M137.777 37.3628V34.8101C137.777 34.1052 138.349 33.5338 139.054 33.5338C139.759 33.5338 140.33 34.1052 140.33 34.8101V37.3628C140.33 38.0677 139.759 38.6391 139.054 38.6391C138.349 38.6391 137.777 38.0677 137.777 37.3628Z" fill="black"/>
<path d="M135.509 39.7738C136.214 39.7738 136.785 40.3452 136.785 41.0501C136.785 41.755 136.214 42.3265 135.509 42.3265H116.647C115.943 42.3265 115.371 41.755 115.371 41.0501C115.371 40.3452 115.943 39.7738 116.647 39.7738H135.509Z" fill="black"/>
<path d="M109.272 39.7738C109.977 39.7738 110.548 40.3452 110.548 41.0501C110.548 41.755 109.977 42.3265 109.272 42.3265H102.323C101.618 42.3265 101.047 41.755 101.047 41.0501C101.047 40.3452 101.618 39.7738 102.323 39.7738H109.272Z" fill="black"/>
<path d="M149.409 39.7738C150.114 39.7738 150.685 40.3452 150.685 41.0501C150.685 41.755 150.114 42.3265 149.409 42.3265H142.46C141.755 42.3265 141.184 41.755 141.184 41.0501C141.184 40.3452 141.755 39.7738 142.46 39.7738H149.409Z" fill="black"/>
<path d="M35.4948 155.585V142.129C35.4948 141.486 36.0162 140.965 36.6595 140.965C37.3028 140.965 37.8242 141.486 37.8242 142.129V155.585C37.8242 158.518 36.3932 161.501 33.5432 162.827C25.5389 166.553 18.2571 164.999 13.7106 162.727C11.1325 161.438 10 158.686 10 156.082V142.129C10 141.486 10.5215 140.965 11.1647 140.965C11.808 140.965 12.3295 141.486 12.3295 142.129V156.082C12.3295 158.099 13.1969 159.866 14.7522 160.643C18.8147 162.674 25.339 164.077 32.5602 160.716C34.4071 159.856 35.4947 157.832 35.4948 155.585Z" fill="black"/>
<path d="M10.6886 148.469C11.1182 147.991 11.8546 147.951 12.3333 148.381C14.741 150.541 18.1861 152.628 22.1855 153.139C26.1345 153.644 30.7572 152.632 35.6368 148.37C36.1213 147.947 36.8572 147.997 37.2803 148.481C37.7034 148.966 37.6535 149.701 37.1691 150.125C31.825 154.792 26.5473 156.045 21.8903 155.45C17.2837 154.861 13.4167 152.483 10.7773 150.114C10.2986 149.684 10.259 148.948 10.6886 148.469Z" fill="black"/>
<path d="M35.4415 154.013C35.9546 153.625 36.6851 153.726 37.0731 154.239C37.4612 154.752 37.3599 155.482 36.8469 155.87C26.1804 163.939 15.1702 159.508 10.8052 155.833C10.3132 155.418 10.2501 154.683 10.6644 154.191C11.0787 153.699 11.8135 153.636 12.3056 154.051C16.1369 157.277 25.9194 161.215 35.4415 154.013Z" fill="black"/>
<path d="M35.4998 141.72C35.7974 141.15 36.501 140.929 37.0713 141.226C37.6415 141.524 37.8625 142.227 37.5649 142.798C35.8012 146.178 31.483 149.03 26.5027 149.8C21.4438 150.582 15.5848 149.245 10.7096 144.095C10.2673 143.628 10.2875 142.891 10.7545 142.448C11.2217 142.006 11.9588 142.026 12.401 142.493C16.7143 147.05 21.7908 148.171 26.1468 147.498C30.5814 146.812 34.1576 144.293 35.4998 141.72Z" fill="black"/>
<path d="M10 142.129C10 140.275 11.1073 138.738 12.535 137.685C13.9728 136.624 15.868 135.94 17.8053 135.791C18.4467 135.742 19.0066 136.222 19.0558 136.864C19.1049 137.505 18.6247 138.065 17.9833 138.114C16.446 138.232 14.9763 138.778 13.9181 139.559C12.8497 140.348 12.3295 141.266 12.3295 142.129C12.3295 142.773 11.808 143.294 11.1647 143.294C10.5215 143.294 10 142.773 10 142.129Z" fill="black"/>
<path d="M37.8242 142.259C37.8242 140.405 36.7169 138.868 35.2893 137.814C33.8514 136.753 31.9562 136.069 30.0189 135.921C29.3775 135.872 28.8176 136.352 28.7685 136.993C28.7193 137.635 29.1996 138.195 29.8409 138.244C31.3782 138.362 32.8479 138.907 33.9061 139.689C34.9745 140.477 35.4947 141.395 35.4947 142.259C35.4947 142.902 36.0162 143.424 36.6595 143.424C37.3027 143.424 37.8242 142.902 37.8242 142.259Z" fill="black"/>
<path d="M22.8184 124.841C23.484 124.292 24.5007 124.28 25.1679 124.905L25.2336 124.97L25.318 125.056C27.1045 126.845 29.5085 127.229 30.8872 127.167L30.9673 127.166C31.771 127.168 32.5701 127.747 32.6772 128.662L32.6856 128.755L32.6985 128.971C33.195 138.082 27.7161 142.146 24.4417 143.08C24.0931 143.179 23.7407 143.154 23.4344 143.045C19.655 141.695 17.4853 139.029 16.3351 136.236C15.1984 133.475 15.0451 130.574 15.2563 128.59C15.3492 127.716 16.0756 127.145 16.8386 127.101L17.1199 127.082C19.9943 126.852 21.907 125.668 22.7532 124.897L22.8184 124.841ZM23.9301 126.952C22.6686 127.957 20.4988 129.099 17.5279 129.384C17.4305 131.036 17.6291 133.26 18.4891 135.349C19.4132 137.593 21.088 139.665 24.012 140.775C26.3604 140 30.6365 136.901 30.389 129.499C28.6334 129.456 26.0356 128.901 23.9301 126.952Z" fill="black"/>
<path d="M26.0598 130.31C26.3694 129.746 27.0775 129.54 27.6413 129.849C28.2051 130.159 28.4111 130.867 28.1016 131.431L24.868 137.321C24.2766 138.398 22.7677 138.498 22.0388 137.509L20.7075 135.702C20.326 135.185 20.4366 134.455 20.9544 134.074C21.4723 133.692 22.2014 133.803 22.583 134.321L23.3132 135.312L26.0598 130.31Z" fill="black"/>
</svg>
