<svg width="260" height="178" viewBox="0 0 260 178" fill="none" xmlns="http://www.w3.org/2000/svg">
<path d="M123.633 9.97791H137.369V8.18632H123.633V9.97791ZM140.057 11.4713L140.055 11.5326C140.024 12.1434 139.535 12.6332 138.924 12.6641L138.862 12.6655H122.14L122.078 12.6641C121.468 12.6333 120.978 12.1434 120.947 11.5326L120.945 11.4713V6.69328C120.945 6.05416 121.447 5.53234 122.078 5.50042L122.14 5.49878H138.862L138.924 5.50042C139.555 5.5324 140.057 6.0542 140.057 6.69328V11.4713Z" fill="black"/>
<path d="M128.8 19.637C129.764 18.7657 131.236 18.7657 132.2 19.637L132.295 19.7269L137.773 25.2047C138.764 26.1959 138.764 27.8029 137.773 28.7941L132.295 34.2719C131.304 35.263 129.697 35.263 128.706 34.2719L123.228 28.7941C122.237 27.8029 122.237 26.1959 123.228 25.2047L128.706 19.7269L128.8 19.637ZM125.234 26.9992L130.5 32.2657L135.767 26.9992L130.5 21.7327L125.234 26.9992Z" fill="black"/>
<path d="M118.257 42.5276C118.257 40.7135 116.787 39.2427 114.973 39.2426C113.158 39.2426 111.688 40.7134 111.688 42.5276C111.688 44.3417 113.158 45.8122 114.973 45.8122V48.4998L114.818 48.4978C111.642 48.4174 109.082 45.8575 109.002 42.6814L109 42.5276C109 39.2291 111.674 36.5551 114.973 36.5551L115.126 36.557C118.354 36.6387 120.945 39.2806 120.945 42.5276L120.943 42.6814C120.861 45.9087 118.219 48.4997 114.973 48.4998V45.8122C116.787 45.8122 118.257 44.3416 118.257 42.5276Z" fill="black"/>
<path d="M151.999 36.5551V48.4998H140.055V36.5551H151.999ZM142.742 45.8122H149.312V39.2426H142.742V45.8122Z" fill="black"/>
<path d="M129.156 19.8324V12.6657C129.156 11.9235 129.758 11.3219 130.5 11.3219C131.242 11.3219 131.844 11.9235 131.844 12.6657V19.8324C131.844 20.5745 131.242 21.1761 130.5 21.1761C129.758 21.1761 129.156 20.5745 129.156 19.8324Z" fill="black"/>
<path d="M113.629 36.9097V28.1939C113.629 26.7921 114.765 25.6556 116.167 25.6556H123.334C124.076 25.6556 124.678 26.2573 124.678 26.9994C124.678 27.7416 124.076 28.3432 123.334 28.3432H116.316V36.9097C116.316 37.6518 115.715 38.2535 114.973 38.2535C114.231 38.2535 113.629 37.6518 113.629 36.9097Z" fill="black"/>
<path d="M147.369 36.9097C147.369 37.6518 146.767 38.2535 146.025 38.2535C145.283 38.2534 144.682 37.6518 144.681 36.9097V28.3432H137.664C136.922 28.3432 136.32 27.7416 136.32 26.9994C136.32 26.2573 136.922 25.6556 137.664 25.6556H144.831C146.233 25.6556 147.369 26.7921 147.369 28.1939V36.9097Z" fill="black"/>
<path d="M221.486 42.3098V45.5817H205V42.3098H221.486Z" fill="black"/>
<path d="M249.513 42.3098V45.5817H233.027V42.3098H249.513Z" fill="black"/>
<path d="M230.851 43.3962C230.851 41.5612 229.363 40.0738 227.528 40.0738C225.693 40.0738 224.206 41.5613 224.205 43.3962C224.205 45.2311 225.693 46.7188 227.528 46.7189V49.9907L227.358 49.9885C223.795 49.8983 220.934 46.9813 220.934 43.3962C220.934 39.7543 223.886 36.8019 227.528 36.8019C231.17 36.8019 234.122 39.7542 234.122 43.3962L234.12 43.5665C234.03 47.1298 231.113 49.9907 227.528 49.9907V46.7189C229.363 46.7189 230.851 45.2311 230.851 43.3962Z" fill="black"/>
<path d="M226.848 5.08047C230.48 4.93072 234.292 5.85884 237.238 8.08972C239.98 10.1666 241.875 13.307 242.179 17.4734C246.292 19.1056 248.153 22.9589 247.687 26.5705C247.171 30.5629 243.86 34.0415 238.385 34.0415H215.307C212.664 34.0415 210.559 33.0343 209.133 31.4192C207.734 29.8348 207.074 27.7667 207.074 25.7423C207.075 22.1395 209.212 18.3292 213.499 17.289C213.313 13.7644 214.707 10.8717 217 8.79874C219.583 6.46242 223.223 5.22998 226.848 5.08047ZM235.262 10.698C233.038 9.01346 230.015 8.22447 226.983 8.34949C223.945 8.47476 221.092 9.50903 219.194 11.2255C217.359 12.8853 216.336 15.239 216.916 18.369L217.253 20.1849L215.41 20.2999C212.04 20.5105 210.346 23.0639 210.346 25.7426C210.346 27.0841 210.786 28.3479 211.585 29.2535C212.358 30.1285 213.552 30.7696 215.307 30.7696H238.385C242.249 30.7696 244.141 28.4783 244.442 26.151C244.749 23.769 243.44 21.1255 240.163 20.2475L238.951 19.9225V18.6671C238.951 14.9141 237.433 12.3426 235.262 10.698Z" fill="black"/>
<path d="M46.6079 66.1361C46.6079 65.8078 46.5455 65.6604 46.5181 65.6106C46.4964 65.5712 46.4756 65.5516 46.4345 65.53C46.3784 65.5005 46.2819 65.4692 46.1282 65.4499C45.9731 65.4306 45.8157 65.4292 45.6273 65.4292H12.4107C12.0242 65.4292 11.7966 65.4835 11.6729 65.5315C11.5602 65.5752 11.5276 65.6151 11.5193 65.6255C11.4863 65.6668 11.4288 65.7906 11.4292 66.1349V70.2745H46.6079V66.1361ZM49.0371 76.0568H46.6079V72.7036H11.4292V100.45C11.4292 100.794 11.4841 101.039 11.5771 101.176C11.6116 101.227 11.6599 101.276 11.7542 101.321C11.8567 101.37 12.0556 101.431 12.4107 101.431H24.2155V103.861H12.4107C11.1057 103.861 10.1381 103.383 9.56578 102.538C9.05493 101.783 9 100.93 9 100.45V66.1361C8.99958 65.6568 9.05217 64.8204 9.62271 64.1075C10.2356 63.3417 11.2048 63 12.4107 63H45.7714C46.16 63.0014 46.8962 63.0289 47.564 63.3796C47.9802 63.5982 48.371 63.939 48.6466 64.4399C48.9164 64.9306 49.0371 65.5037 49.0371 66.1361V76.0568Z" fill="black"/>
<path d="M34.1376 79.0404C31.8272 79.0859 29.581 79.8085 27.6775 81.1187C25.774 82.4288 24.2969 84.2689 23.4294 86.4107C22.5619 88.5525 22.3422 90.9019 22.7974 93.1674C23.2526 95.433 24.3628 97.515 25.9903 99.1555C27.6179 100.796 29.6911 101.923 31.9529 102.396C34.2148 102.869 36.5658 102.668 38.7144 101.817C40.863 100.967 42.7148 99.5045 44.04 97.6114C45.3652 95.7184 46.1057 93.478 46.1695 91.168L43.7158 91.1002C43.6653 92.9298 43.0788 94.7044 42.0292 96.2038C40.9795 97.7032 39.5128 98.8615 37.811 99.5351C36.1092 100.209 34.2471 100.368 32.4556 99.9933C30.6641 99.6185 29.0219 98.7261 27.7329 97.4267C26.4438 96.1274 25.5645 94.4783 25.2039 92.6839C24.8433 90.8894 25.0174 89.0286 25.7045 87.3322C26.3916 85.6358 27.5615 84.1783 29.0692 83.1406C30.5769 82.1029 32.356 81.5305 34.1859 81.4945L34.1376 79.0404Z" fill="black"/>
<path d="M35.3081 79.0934V89.9022H46.172V92.3313H32.8789V79.0934H35.3081Z" fill="black"/>
<path d="M37.9997 74.7457C43.0944 74.7457 46.3702 76.7951 48.3207 79.4644C50.2253 82.0708 50.7941 85.1637 50.7434 87.2447L50.7146 88.43H36.7852V74.7457H37.9997ZM39.2143 86.0008H48.2644C48.1031 84.4456 47.554 82.5325 46.3592 80.8975C45.0261 79.0732 42.8299 77.5081 39.2143 77.2217V86.0008Z" fill="black"/>
<path d="M27.5075 76.1765V78.6057H14.6055V76.1765H27.5075Z" fill="black"/>
<path d="M22.2918 81.1178V83.547H14.6055V81.1178H22.2918Z" fill="black"/>
<path d="M19.5465 86.059V88.4881H14.6055V86.059H19.5465Z" fill="black"/>
<path d="M130.74 62.3328C134.759 62.3328 138.827 63.8046 141.66 66.8732C144.303 69.7351 145.756 73.8602 145.225 79.14C147.008 79.4942 149.073 80.3813 150.56 82.1474C152.531 84.4907 153.221 88.0562 151.47 93.0589L149.002 92.1947C150.546 87.7809 149.765 85.2645 148.558 83.8311C147.276 82.3073 145.229 81.6584 143.689 81.5727L142.244 81.4923L142.47 80.063C143.301 74.8017 141.973 71.0669 139.739 68.6473C137.477 66.1984 134.151 64.9481 130.74 64.9481C127.328 64.9481 123.948 66.2003 121.606 68.6001C119.294 70.9684 117.886 74.5622 118.572 79.4988L118.788 81.0533L117.22 80.985C114.685 80.8747 112.945 81.3195 111.76 82.0018C110.592 82.6744 109.864 83.6336 109.434 84.7531C108.542 87.0748 108.947 90.08 109.684 92.1972L107.213 93.0564C106.38 90.6615 105.785 86.9572 106.992 83.8152C107.612 82.2028 108.708 80.7414 110.456 79.7354C111.872 78.9197 113.649 78.4422 115.827 78.3645C115.496 73.4179 117.067 69.506 119.734 66.7733C122.634 63.8026 126.722 62.3328 130.74 62.3328Z" fill="black"/>
<path d="M144.687 91.1132L142.837 92.9627L137.419 87.5439V100.278H134.803V87.5436L129.384 92.9627L127.535 91.1132L136.111 82.5374L144.687 91.1132Z" fill="black"/>
<path d="M128.796 98.424L126.947 96.5746L121.528 101.993V89.2595H118.913V101.994L113.494 96.5746L111.645 98.424L120.22 107L128.796 98.424Z" fill="black"/>
<path d="M208.397 101.147C208.397 100.688 208.025 100.317 207.566 100.317C207.108 100.317 206.737 100.688 206.737 101.147C206.737 101.605 207.108 101.977 207.566 101.977V104.823L207.377 104.818C205.435 104.72 203.891 103.114 203.891 101.147C203.891 99.1167 205.536 97.471 207.566 97.4709C209.597 97.4709 211.243 99.1167 211.243 101.147L211.238 101.336C211.139 103.278 209.533 104.823 207.566 104.823V101.977C208.025 101.977 208.397 101.605 208.397 101.147Z" fill="black"/>
<path d="M225.549 101.147C225.549 100.688 225.177 100.317 224.719 100.317C224.26 100.317 223.889 100.688 223.889 101.147C223.889 101.605 224.26 101.977 224.719 101.977V104.823L224.53 104.818C222.588 104.72 221.043 103.114 221.043 101.147C221.043 99.1167 222.689 97.471 224.719 97.4709C226.749 97.4709 228.395 99.1167 228.395 101.147L228.39 101.336C228.292 103.278 226.686 104.823 224.719 104.823V101.977C225.177 101.977 225.549 101.605 225.549 101.147Z" fill="black"/>
<path d="M245.158 101.147C245.158 100.688 244.787 100.317 244.328 100.317C243.87 100.317 243.498 100.688 243.498 101.147C243.498 101.605 243.87 101.977 244.328 101.977V104.823L244.139 104.818C242.197 104.72 240.652 103.114 240.652 101.147C240.652 99.1167 242.298 97.471 244.328 97.4709C246.358 97.4709 248.004 99.1167 248.004 101.147L248 101.336C247.901 103.278 246.295 104.823 244.328 104.823V101.977C244.787 101.977 245.158 101.605 245.158 101.147Z" fill="black"/>
<path d="M211.716 64.4467C211.716 63.6668 211.026 62.8459 209.937 62.8459C208.849 62.8459 208.158 63.6668 208.158 64.4467C208.158 65.2267 208.849 66.0476 209.937 66.0476V68.8935C207.383 68.8935 205.312 66.9026 205.312 64.4467C205.312 61.9909 207.383 60 209.937 60C212.491 60 214.562 61.9909 214.562 64.4467C214.562 66.9026 212.491 68.8935 209.937 68.8935V66.0476C211.026 66.0476 211.716 65.2267 211.716 64.4467Z" fill="black"/>
<path d="M245.158 69.2885C245.158 68.8301 244.787 68.4586 244.328 68.4586C243.87 68.4586 243.498 68.8302 243.498 69.2885C243.498 69.7469 243.87 70.1187 244.328 70.1188V72.9647L244.139 72.9598C242.197 72.8614 240.652 71.2553 240.652 69.2885C240.652 67.2584 242.298 65.6127 244.328 65.6127C246.358 65.6127 248.004 67.2584 248.004 69.2885L248 69.4779C247.901 71.4201 246.295 72.9647 244.328 72.9647V70.1188C244.787 70.1188 245.158 69.7469 245.158 69.2885Z" fill="black"/>
<path d="M213.297 85.2176C213.296 84.0826 212.376 83.1624 211.241 83.1624C210.106 83.1625 209.186 84.0826 209.186 85.2176C209.186 86.3527 210.106 87.2731 211.241 87.2732V90.1191L211.115 90.1174C208.466 90.0502 206.34 87.8822 206.34 85.2176C206.34 82.5109 208.534 80.3166 211.241 80.3165C213.948 80.3165 216.142 82.5108 216.142 85.2176L216.141 85.3444C216.073 87.9928 213.906 90.1191 211.241 90.1191V87.2732C212.376 87.2732 213.297 86.3528 213.297 85.2176Z" fill="black"/>
<path d="M240.25 90.119C240.25 88.9839 239.329 88.0638 238.194 88.0638C237.059 88.0639 236.139 88.984 236.139 90.119C236.139 91.2541 237.059 92.1745 238.194 92.1746V95.0205L238.068 95.0187C235.419 94.9516 233.293 92.7836 233.293 90.119C233.293 87.4122 235.487 85.218 238.194 85.2179C240.901 85.2179 243.095 87.4122 243.096 90.119L243.094 90.2458C243.027 92.8942 240.859 95.0205 238.194 95.0205V92.1746C239.329 92.1746 240.25 91.2542 240.25 90.119Z" fill="black"/>
<path d="M230.452 75.4155C230.452 72.927 228.434 70.9094 225.946 70.9094C223.457 70.9094 221.44 72.9269 221.44 75.4155C221.44 77.9041 223.457 79.9213 225.946 79.9213V82.7672L225.756 82.7648C221.846 82.6656 218.695 79.5147 218.596 75.6052L218.594 75.4155C218.594 71.3552 221.885 68.0635 225.946 68.0635L226.135 68.0659C230.108 68.1666 233.297 71.4186 233.297 75.4155L233.295 75.6052C233.194 79.5778 229.943 82.7671 225.946 82.7672V79.9213C228.434 79.9212 230.452 77.904 230.452 75.4155Z" fill="black"/>
<path d="M233.532 91.5467C234.097 91.0004 234.998 91.0158 235.545 91.5807C236.091 92.1456 236.076 93.0462 235.511 93.5925L228.357 100.51C227.792 101.056 226.891 101.041 226.345 100.476C225.799 99.9109 225.814 99.01 226.379 98.4638L233.532 91.5467ZM212.754 87.8229C213.346 87.3054 214.245 87.3653 214.762 87.9566L223.339 97.7592C223.857 98.3506 223.797 99.2497 223.206 99.7672C222.614 100.285 221.715 100.225 221.198 99.6335L212.62 89.8309C212.103 89.2395 212.163 88.3404 212.754 87.8229ZM240.019 92.519C240.723 92.1714 241.577 92.4606 241.924 93.1652L244.118 97.6123C244.466 98.317 244.177 99.1701 243.472 99.5178C242.767 99.8654 241.914 99.576 241.566 98.8713L239.372 94.4245C239.025 93.7198 239.314 92.8668 240.019 92.519ZM208.556 89.0034C208.747 88.241 209.519 87.7773 210.282 87.9678C211.044 88.1583 211.508 88.9309 211.317 89.6933L209.183 98.231C208.992 98.9934 208.22 99.4571 207.457 99.2666C206.695 99.076 206.231 98.3034 206.422 97.5411L208.556 89.0034ZM229.007 80.0057C229.55 79.4374 230.45 79.4167 231.019 79.9595L236.73 85.414C237.298 85.9568 237.319 86.8575 236.776 87.4258C236.233 87.9941 235.333 88.0148 234.764 87.472L229.053 82.0175C228.485 81.4747 228.464 80.574 229.007 80.0057ZM218.964 77.9529C219.593 77.4814 220.485 77.6087 220.956 78.2374C221.428 78.8661 221.3 79.7579 220.672 80.2294L215.77 83.9056C215.142 84.377 214.25 84.2496 213.778 83.6211C213.307 82.9924 213.434 82.1003 214.063 81.6287L218.964 77.9529ZM209.822 66.2299C210.605 66.1664 211.292 66.75 211.355 67.5333L212.422 80.6956C212.486 81.4789 211.902 82.1655 211.119 82.229C210.336 82.2925 209.649 81.7089 209.585 80.9256L208.518 67.7633C208.455 66.98 209.038 66.2934 209.822 66.2299ZM240.775 68.2114C241.544 68.0518 242.298 68.5464 242.457 69.3158C242.617 70.0852 242.122 70.8386 241.353 70.9983L231.926 72.9548C231.156 73.1144 230.403 72.6199 230.243 71.8504C230.084 71.081 230.578 70.3277 231.348 70.168L240.775 68.2114ZM211.727 65.1606C212.118 64.4793 212.988 64.2445 213.669 64.636L221.752 69.28C222.433 69.6715 222.668 70.5413 222.277 71.2227C221.886 71.9041 221.016 72.1391 220.334 71.7476L212.251 67.1032C211.57 66.7116 211.335 65.8419 211.727 65.1606Z" fill="black"/>
<path d="M112.936 126.885V161.545H147.325V163.711H110.77V126.885H112.936Z" fill="black"/>
<path d="M147.999 127.825L141.786 138.771L134.607 134.855L128.431 157.412L119.865 154.31L114.563 156.456L113.75 154.448L119.821 151.991L126.961 154.576L133.241 131.642L140.954 135.849L146.115 126.756L147.999 127.825Z" fill="black"/>
<path d="M115.386 152.622L114.658 153.366L113.109 151.852L113.837 151.107L115.386 152.622ZM118.297 149.643L116.842 151.132L115.293 149.618L116.748 148.129L118.297 149.643ZM120.687 145.569V147.735H120.162L119.753 148.154L118.204 146.639L119.25 145.569H120.687ZM142.135 145.772L142.065 145.868L142.951 146.631L141.678 148.109L139.858 146.804L141.119 145.044L142.135 145.772ZM124.614 145.569V147.735H122.651V145.569H124.614ZM129.052 146.69L128.007 147.735H126.577V145.569H127.11L127.52 145.158L129.052 146.69ZM139.089 143.588L137.827 145.349L135.796 143.893L137.058 142.133L139.089 143.588ZM131.963 143.779L130.508 145.234L128.976 143.703L130.431 142.247L131.963 143.779ZM145.456 143.72L144.204 145.175L142.561 143.762L143.814 142.307L145.456 143.72ZM135.027 140.677L133.765 142.438L133.496 142.246L133.418 142.324L132.946 141.851L132.749 141.71L132.773 141.678L131.887 140.792L133.264 139.414L135.027 140.677ZM147.334 141.537L146.708 142.264L145.066 140.851L145.692 140.123L147.334 141.537Z" fill="black"/>
<path d="M24.1389 127.221H40.588V130.117H21.2227V126.993L13.124 135.036L21.2227 143.08V139.159H44.0599V132.336L60 148.168L44.0599 164V155.187H27.4654V152.291H46.976V157.007L55.8757 148.168L46.976 139.328V142.055H24.1389V150.072L9 135.036L24.1389 120V127.221ZM22.6808 152.291V155.187H15.2082V152.291H22.6808ZM51.7411 127.221V130.117H45.1445V127.221H51.7411Z" fill="black"/>
<path d="M205.891 162.74H209.162V159.469H205.891V162.74ZM212.053 164.499L212.051 164.557C212.022 165.136 211.558 165.6 210.979 165.629L210.921 165.631H204.132L204.073 165.629C203.495 165.6 203.031 165.136 203.001 164.557L203 164.499V157.71C203 157.104 203.476 156.61 204.073 156.58L204.132 156.578H210.921L210.979 156.58C211.577 156.61 212.053 157.104 212.053 157.71V164.499Z" fill="black"/>
<path d="M205.891 151.425H209.162V148.153H205.891V151.425ZM212.053 153.184L212.051 153.242C212.022 153.82 211.558 154.284 210.979 154.314L210.921 154.315H204.132L204.073 154.314C203.495 154.285 203.031 153.82 203.001 153.242L203 153.184V146.394C203 145.789 203.476 145.294 204.073 145.264L204.132 145.263H210.921L210.979 145.264C211.577 145.294 212.053 145.789 212.053 146.394V153.184Z" fill="black"/>
<path d="M217.207 162.74H220.478V159.469H217.207V162.74ZM223.369 164.499L223.368 164.557C223.338 165.136 222.874 165.6 222.296 165.629L222.237 165.631H215.448L215.39 165.629C214.811 165.6 214.347 165.136 214.318 164.557L214.316 164.499V157.71C214.316 157.104 214.792 156.61 215.39 156.58L215.448 156.578H222.237L222.296 156.58C222.893 156.61 223.369 157.104 223.369 157.71V164.499Z" fill="black"/>
<path d="M228.524 162.74H231.795V159.469H228.524V162.74ZM234.685 164.499L234.684 164.557C234.655 165.136 234.191 165.6 233.612 165.629L233.554 165.631H226.764L226.706 165.629C226.128 165.6 225.664 165.136 225.634 164.557L225.633 164.499V157.71C225.633 157.104 226.108 156.61 226.706 156.58L226.764 156.578H233.554L233.612 156.58C234.21 156.61 234.685 157.104 234.685 157.71V164.499Z" fill="black"/>
<path d="M217.207 151.425H220.478V148.153H217.207V151.425ZM223.369 153.184L223.368 153.242C223.338 153.82 222.874 154.284 222.296 154.314L222.237 154.315H215.448L215.39 154.314C214.811 154.285 214.347 153.82 214.318 153.242L214.316 153.184V146.394C214.316 145.789 214.792 145.294 215.39 145.264L215.448 145.263H222.237L222.296 145.264C222.893 145.294 223.369 145.789 223.369 146.394V153.184Z" fill="black"/>
<path d="M217.207 140.109H220.478V136.838H217.207V140.109ZM223.369 141.868L223.368 141.926C223.338 142.505 222.874 142.969 222.296 142.998L222.237 143H215.448L215.39 142.998C214.811 142.969 214.347 142.505 214.318 141.926L214.316 141.868V135.079C214.316 134.473 214.792 133.979 215.39 133.949L215.448 133.947H222.237L222.296 133.949C222.893 133.979 223.369 134.473 223.369 135.079V141.868Z" fill="black"/>
<path d="M228.524 151.425H231.795V148.153H228.524V151.425ZM234.685 153.184L234.684 153.242C234.655 153.82 234.191 154.284 233.612 154.314L233.554 154.315H226.764L226.706 154.314C226.128 154.285 225.664 153.82 225.634 153.242L225.633 153.184V146.394C225.633 145.789 226.108 145.294 226.706 145.264L226.764 145.263H233.554L233.612 145.264C234.21 145.294 234.685 145.789 234.685 146.394V153.184Z" fill="black"/>
<path d="M228.524 140.109H231.795V136.838H228.524V140.109ZM234.685 141.868L234.684 141.926C234.655 142.505 234.191 142.969 233.612 142.998L233.554 143H226.764L226.706 142.998C226.128 142.969 225.664 142.505 225.634 141.926L225.633 141.868V135.079C225.633 134.473 226.108 133.979 226.706 133.949L226.764 133.947H233.554L233.612 133.949C234.21 133.979 234.685 134.473 234.685 135.079V141.868Z" fill="black"/>
<path d="M239.84 151.425H243.111V148.153H239.84V151.425ZM246.002 153.184L246 153.242C245.971 153.82 245.507 154.284 244.928 154.314L244.87 154.315H238.081L238.023 154.314C237.444 154.285 236.98 153.82 236.951 153.242L236.949 153.184V146.394C236.949 145.789 237.425 145.294 238.023 145.264L238.081 145.263H244.87L244.928 145.264C245.526 145.294 246.002 145.789 246.002 146.394V153.184Z" fill="black"/>
<path d="M239.84 140.109H243.111V136.838H239.84V140.109ZM246.002 141.868L246 141.926C245.971 142.505 245.507 142.969 244.928 142.998L244.87 143H238.081L238.023 142.998C237.444 142.969 236.98 142.505 236.951 141.926L236.949 141.868V135.079C236.949 134.473 237.425 133.979 238.023 133.949L238.081 133.947H244.87L244.928 133.949C245.526 133.979 246.002 134.473 246.002 135.079V141.868Z" fill="black"/>
<path d="M205.529 129.155H243.47V127.424H205.529V129.155ZM245.999 131.684H203V127.158C203 125.908 204.013 124.895 205.263 124.895H243.736C244.986 124.895 245.999 125.908 245.999 127.158V131.684Z" fill="black"/>
<path d="M46.5764 14.5659V34.9294H31.929V22.9762H35.0024V31.856H43.5031V16.3403L29.979 8.53228L15.9054 16.3568V31.856H24.9848V22.9762H28.0581V34.9294H12.832V14.5494L30.0078 5L46.5764 14.5659Z" fill="black"/>
<path d="M24.4182 43.1018V46.1752H8V43.1018H24.4182Z" fill="black"/>
<path d="M52.5617 43.1018L52.5617 46.1752L37.5156 46.1752L37.5156 43.1018L52.5617 43.1018Z" fill="black"/>
<path d="M34.8191 44.0527C34.8191 41.8674 33.0476 40.0958 30.8624 40.0957C28.6771 40.0957 26.9054 41.8674 26.9054 44.0527C26.9055 46.2379 28.6771 48.0094 30.8624 48.0094V51.0828L30.6808 51.0804C26.9423 50.9856 23.9291 47.9725 23.8344 44.234L23.832 44.0527C23.832 40.17 26.9797 37.0223 30.8624 37.0223L31.0437 37.0247C34.8425 37.121 37.8925 40.2307 37.8925 44.0527L37.8901 44.234C37.7938 48.0328 34.6844 51.0827 30.8624 51.0828V48.0094C33.0476 48.0093 34.819 46.2379 34.8191 44.0527Z" fill="black"/>
</svg>
