<svg width="260" height="178" viewBox="0 0 260 178" fill="none" xmlns="http://www.w3.org/2000/svg">
<path d="M11.6507 13.086V18.4157L27.7159 22.4323L44.1935 18.4103V13.092L27.7164 8.55111L11.6507 13.086ZM46.7075 19.1782C46.7075 19.8863 46.2235 20.5026 45.5356 20.6706L28.0776 24.9321C27.8355 24.9912 27.5826 24.9904 27.3408 24.9299L10.3004 20.6698C9.61652 20.4988 9.13672 19.8842 9.13672 19.1793V12.3462C9.13672 11.6584 9.59381 11.0545 10.2557 10.8676L27.2961 6.05781C27.5321 5.99117 27.7804 5.98211 28.0198 6.03081L28.1218 6.05509L45.5792 10.8663C46.2457 11.0499 46.7075 11.6562 46.7075 12.3475V19.1782Z" fill="black"/>
<path d="M46.5708 29.6533C46.5708 30.3614 46.0868 30.9777 45.3989 31.1457L27.9409 35.4072C27.6988 35.4663 27.4459 35.4655 27.2041 35.4051L10.1637 31.1449C9.4798 30.9739 9 30.3593 9 29.6544V22.7637C9.00004 22.2366 9.27041 21.7464 9.71607 21.465L13.3022 19.1997L14.6448 21.3253L11.514 23.3027V28.8908L27.5792 32.9074L44.0567 28.8854V23.3865L40.2753 21.4961L41.3995 19.2474L45.7216 21.4082C46.2421 21.6685 46.5708 22.2006 46.5708 22.7825V29.6533Z" fill="black"/>
<path d="M46.5708 39.8491C46.5708 40.5572 46.0868 41.1735 45.3989 41.3415L27.9409 45.603C27.6988 45.6621 27.4459 45.6613 27.2041 45.6008L10.1637 41.3407C9.4798 41.1697 9 40.5551 9 39.8501V32.9638C9 32.4242 9.28307 31.9239 9.74581 31.6463L13.4817 29.405L14.775 31.5609L11.514 33.5171V39.0866L27.5792 43.1032L44.0567 39.0812V33.5517L40.5356 31.6313L41.7394 29.4241L45.7701 31.6228C46.2637 31.892 46.5708 32.4093 46.5708 32.9715V39.8491Z" fill="black"/>
<path d="M13.3648 27.0583C13.5308 26.3842 14.2116 25.9723 14.8857 26.1382L23.9644 28.3729C24.6385 28.5388 25.0504 29.2196 24.8845 29.8937C24.7186 30.5678 24.0378 30.9798 23.3637 30.8139L14.285 28.5791C13.6109 28.4132 13.1989 27.7324 13.3648 27.0583Z" fill="black"/>
<path d="M13.5055 16.8625C13.6714 16.1884 14.3522 15.7765 15.0263 15.9424L24.105 18.1771C24.7791 18.343 25.191 19.0238 25.0251 19.6979C24.8592 20.372 24.1784 20.784 23.5043 20.6181L14.4256 18.3833C13.7515 18.2174 13.3396 17.5366 13.5055 16.8625Z" fill="black"/>
<path d="M13.3648 37.2541C13.5308 36.58 14.2116 36.1681 14.8857 36.334L23.9644 38.5687C24.6385 38.7346 25.0504 39.4154 24.8845 40.0895C24.7186 40.7636 24.0378 41.1756 23.3637 41.0097L14.285 38.7749C13.6109 38.609 13.1989 37.9282 13.3648 37.2541Z" fill="black"/>
<path d="M27.722 15.452L45.2757 11.3217L45.8516 13.7689L28.072 17.9524C27.8386 18.0073 27.5956 18.0068 27.3625 17.951L9.86328 13.7631L10.4484 11.3181L27.722 15.452Z" fill="black"/>
<path d="M27.5808 25.7865L44.9926 21.6553L45.5728 24.1015L27.9335 28.287C27.6984 28.3428 27.4534 28.3423 27.2185 28.2856L9.85938 24.0955L10.4494 21.6515L27.5808 25.7865Z" fill="black"/>
<path d="M43.7597 32.2832C44.4339 32.1175 45.1149 32.5297 45.2806 33.2039C45.4463 33.8781 45.034 34.559 44.3599 34.7247L27.9452 38.7589C27.7043 38.818 27.4527 38.818 27.2119 38.7589L10.7971 34.7247C10.123 34.559 9.71077 33.8781 9.87646 33.2039C10.0422 32.5297 10.7231 32.1175 11.3973 32.2832L27.5785 36.2598L43.7597 32.2832Z" fill="black"/>
<path d="M117.777 44.434V38.9367L121.138 35.4294V32.1585C121.138 31.4321 121.727 30.8433 122.454 30.8433C123.18 30.8433 123.769 31.4321 123.769 32.1585V36.4866L120.408 39.9936V44.434C120.408 45.1603 119.819 45.7492 119.093 45.7492C118.366 45.7492 117.777 45.1603 117.777 44.434Z" fill="black"/>
<path d="M144.082 44.58V39.0827L140.721 35.5754V32.3045C140.721 31.5781 140.132 30.9893 139.406 30.9893C138.679 30.9893 138.09 31.5781 138.09 32.3045V36.6326L141.452 40.1396V44.58C141.452 45.3063 142.04 45.8952 142.767 45.8952C143.493 45.8952 144.082 45.3063 144.082 44.58Z" fill="black"/>
<path d="M127.425 33.1814C127.425 32.4551 128.013 31.8662 128.74 31.8662C129.466 31.8662 130.055 32.4551 130.055 33.1814V38.2962L128.477 40.4006C128.041 40.9817 127.216 41.0993 126.635 40.6635C126.054 40.2277 125.937 39.4033 126.373 38.8223L127.425 37.4194V33.1814Z" fill="black"/>
<path d="M134.88 33.1814C134.88 32.4551 134.291 31.8662 133.565 31.8662C132.838 31.8662 132.25 32.4551 132.25 33.1814V38.2962L133.828 40.4006C134.264 40.9817 135.088 41.0993 135.669 40.6635C136.25 40.2277 136.368 39.4033 135.932 38.8223L134.88 37.4194V33.1814Z" fill="black"/>
<path d="M131.075 6C139.549 6 147.004 8.27468 147.004 11.2609C147.004 14.2471 139.549 16.8141 131.075 16.8141V14.1836C135.079 14.1836 138.761 13.5729 141.355 12.6723C142.664 12.2175 143.558 11.7364 144.07 11.3291C144.09 11.3133 144.109 11.2974 144.127 11.2826C144.122 11.2791 144.118 11.2753 144.113 11.2718C143.612 10.8899 142.726 10.4381 141.41 10.0142C138.809 9.17596 135.111 8.63046 131.075 8.63046C127.039 8.63046 123.3 9.17586 120.657 10.017C119.322 10.442 118.416 10.8958 117.899 11.2826C117.912 11.2933 117.926 11.3048 117.94 11.316C118.468 11.7283 119.382 12.2127 120.713 12.6692C123.348 13.573 127.071 14.1836 131.075 14.1836V16.8141C122.601 16.8141 115 14.2471 115 11.2609C115 8.27468 122.601 6 131.075 6Z" fill="black"/>
<path d="M115 11.6993C115 10.9729 115.589 10.384 116.315 10.384C117.042 10.384 117.63 10.9729 117.63 11.6993V28.1125C117.794 28.2076 118 28.3175 118.254 28.4376C118.827 28.7087 119.572 29.0038 120.466 29.2924C122.254 29.8696 124.59 30.4062 127.249 30.6859C132.368 31.2244 138.583 30.8003 144.373 27.9869V11.6993C144.373 10.9729 144.962 10.384 145.689 10.384C146.415 10.384 147.004 10.9729 147.004 11.6993V29.5936L146.298 29.9626C139.718 33.4058 132.643 33.8985 126.973 33.3021C124.134 33.0033 121.619 32.4286 119.658 31.7956C118.678 31.4792 117.824 31.1444 117.128 30.8152C116.456 30.4969 115.855 30.1479 115.442 29.7802L115 29.3878V11.6993Z" fill="black"/>
<path d="M119.826 47.064C119.826 46.4991 119.368 46.0411 118.803 46.0411C118.238 46.0411 117.78 46.4991 117.78 47.064C117.78 47.6289 118.238 48.0868 118.803 48.0868V50.1325C117.108 50.1325 115.734 48.7587 115.734 47.064C115.734 45.3693 117.108 43.9955 118.803 43.9955C120.498 43.9955 121.871 45.3693 121.871 47.064C121.871 48.7587 120.498 50.1325 118.803 50.1325V48.0868C119.368 48.0868 119.826 47.6289 119.826 47.064Z" fill="black"/>
<path d="M144.565 17.0778C145.226 16.7777 146.005 17.0706 146.306 17.732C146.606 18.3935 146.313 19.1729 145.651 19.4731C132.579 25.4042 120.788 21.9787 116.387 19.4114C115.76 19.0454 115.548 18.2401 115.914 17.6127C116.28 16.9853 117.085 16.7735 117.713 17.1395C121.495 19.346 132.385 22.6037 144.565 17.0778Z" fill="black"/>
<path d="M144.595 22.4702C145.265 22.1884 146.036 22.5026 146.318 23.1721C146.6 23.8415 146.285 24.6127 145.616 24.8946C131.882 30.6771 120.411 27.3539 116.218 24.8064C115.598 24.4292 115.4 23.6201 115.777 22.9994C116.155 22.3786 116.964 22.1812 117.584 22.5584C121.088 24.6873 131.674 27.9109 144.595 22.4702Z" fill="black"/>
<path d="M126.544 41.2185C126.544 40.6536 126.087 40.1957 125.522 40.1957C124.957 40.1957 124.499 40.6536 124.499 41.2185C124.499 41.7834 124.957 42.2413 125.522 42.2413V44.287C123.827 44.287 122.453 42.9132 122.453 41.2185C122.453 39.5238 123.827 38.15 125.522 38.15C127.216 38.15 128.59 39.5238 128.59 41.2185C128.59 42.9132 127.216 44.287 125.522 44.287V42.2413C126.087 42.2413 126.544 41.7834 126.544 41.2185Z" fill="black"/>
<path d="M137.654 41.2185C137.654 40.6536 137.196 40.1957 136.631 40.1957C136.066 40.1957 135.608 40.6536 135.608 41.2185C135.608 41.7834 136.066 42.2413 136.631 42.2413V44.287C134.936 44.287 133.562 42.9132 133.562 41.2185C133.562 39.5238 134.936 38.15 136.631 38.15C138.326 38.15 139.699 39.5238 139.699 41.2185C139.699 42.9132 138.326 44.287 136.631 44.287V42.2413C137.196 42.2413 137.654 41.7834 137.654 41.2185Z" fill="black"/>
<path d="M143.791 47.064C143.791 46.4991 143.333 46.0411 142.768 46.0411C142.203 46.0411 141.745 46.4991 141.745 47.064C141.745 47.6289 142.203 48.0868 142.768 48.0868V50.1325C141.073 50.1325 139.699 48.7587 139.699 47.064C139.699 45.3693 141.073 43.9955 142.768 43.9955C144.462 43.9955 145.836 45.3693 145.836 47.064C145.836 48.7587 144.462 50.1325 142.768 50.1325V48.0868C143.333 48.0868 143.791 47.6289 143.791 47.064Z" fill="black"/>
<path d="M222.661 20.3557C222.661 20.297 222.589 19.7939 221.474 19.1869C220.436 18.6224 218.864 18.2105 217.016 18.2105C215.166 18.2105 213.489 18.6234 212.345 19.2101C211.774 19.503 211.411 19.8004 211.212 20.0375C211.116 20.1513 211.071 20.2357 211.051 20.2849C211.032 20.3301 211.032 20.3506 211.032 20.3557C211.032 20.3608 211.032 20.3812 211.051 20.4265C211.071 20.4757 211.116 20.5601 211.212 20.6739C211.411 20.9109 211.774 21.2084 212.345 21.5013C213.489 22.0879 215.166 22.5009 217.016 22.5009V24.5331C212.776 24.5331 209 22.6628 209 20.3557C209 18.0485 212.776 16.1782 217.016 16.1782C221.256 16.1782 224.694 18.0485 224.694 20.3557C224.694 22.6628 221.256 24.5331 217.016 24.5331V22.5009C218.864 22.5009 220.436 22.0889 221.474 21.5244C222.589 20.9175 222.661 20.4143 222.661 20.3557Z" fill="black"/>
<path d="M211.032 20.6946V32.1497C212.949 33.4467 217.451 34.9943 222.661 32.0787V20.6946H224.694V33.2336L224.206 33.5304C217.541 37.5875 211.603 35.2505 209.378 33.453L209 33.1478V20.6946H211.032Z" fill="black"/>
<path d="M222.462 26.6038C222.94 26.3096 223.566 26.4586 223.86 26.9365C224.154 27.4145 224.005 28.0402 223.527 28.3344C218.746 31.2766 213.353 30.4255 210.132 28.3196C209.662 28.0125 209.531 27.3826 209.838 26.9129C210.145 26.4432 210.775 26.3114 211.244 26.6185C213.895 28.3513 218.437 29.0809 222.462 26.6038Z" fill="black"/>
<path d="M248.97 20.3557C248.97 20.297 248.898 19.7939 247.782 19.1869C246.745 18.6224 245.173 18.2105 243.325 18.2105C241.475 18.2105 239.798 18.6234 238.654 19.2101C238.083 19.503 237.72 19.8004 237.52 20.0375C237.425 20.1513 237.38 20.2357 237.359 20.2849C237.341 20.3301 237.341 20.3506 237.341 20.3557C237.341 20.3608 237.341 20.3812 237.359 20.4265C237.38 20.4757 237.425 20.5601 237.52 20.6739C237.72 20.9109 238.083 21.2084 238.654 21.5013C239.798 22.0879 241.475 22.5009 243.325 22.5009V24.5331C239.085 24.5331 235.309 22.6628 235.309 20.3557C235.309 18.0485 239.085 16.1782 243.325 16.1782C247.565 16.1782 251.002 18.0485 251.002 20.3557C251.002 22.6628 247.565 24.5331 243.325 24.5331V22.5009C245.173 22.5009 246.745 22.0889 247.782 21.5244C248.898 20.9175 248.97 20.4143 248.97 20.3557Z" fill="black"/>
<path d="M237.341 20.6946V32.1497C239.258 33.4467 243.759 34.9943 248.97 32.0787V20.6946H251.002V33.2336L250.514 33.5304C243.849 37.5875 237.912 35.2505 235.686 33.453L235.309 33.1478V20.6946H237.341Z" fill="black"/>
<path d="M248.775 26.6038C249.253 26.3096 249.878 26.4586 250.173 26.9365C250.467 27.4145 250.318 28.0402 249.84 28.3344C245.059 31.2766 239.665 30.4255 236.445 28.3196C235.975 28.0125 235.843 27.3826 236.15 26.9129C236.457 26.4432 237.087 26.3114 237.557 26.6185C240.207 28.3513 244.749 29.0809 248.775 26.6038Z" fill="black"/>
<path d="M225.198 7.06168C230.12 5.85948 236.189 6.49305 242.786 11.1718C243.243 11.4964 243.351 12.1307 243.027 12.5884C242.702 13.0462 242.068 13.1541 241.61 12.8295C235.471 8.47564 230.004 7.98009 225.68 9.03603C221.31 10.1036 218.017 12.7809 216.348 14.8896C216 15.3296 215.361 15.4039 214.921 15.0557C214.481 14.7073 214.406 14.068 214.755 13.628C216.661 11.2204 220.324 8.25227 225.198 7.06168Z" fill="black"/>
<path d="M242.195 7.14563H244.227V13.8061L237.58 14.5973L237.34 12.5794L242.195 12.0012V7.14563Z" fill="black"/>
<path d="M234.878 45.6668C229.912 46.6749 223.873 45.8037 217.465 40.8696C217.021 40.5273 216.938 39.8893 217.28 39.4446C217.622 38.9999 218.26 38.917 218.705 39.2594C224.668 43.8508 230.112 44.5605 234.473 43.675C238.883 42.7798 242.277 40.2337 244.028 38.1922C244.393 37.7662 245.035 37.717 245.461 38.0823C245.887 38.4476 245.936 39.0893 245.571 39.5153C243.572 41.8463 239.795 44.6684 234.878 45.6668Z" fill="black"/>
<path d="M217.895 44.9156L215.864 44.8358L216.126 38.1805L222.799 37.6507L222.959 39.6765L218.085 40.0638L217.895 44.9156Z" fill="black"/>
<path d="M127.014 72.2172C127.014 72.1749 126.873 71.3481 124.836 70.3743C123.006 69.4998 120.332 68.8932 117.331 68.8932C114.33 68.8932 111.656 69.4998 109.827 70.3743C107.79 71.3481 107.648 72.1749 107.648 72.2172C107.648 72.2595 107.79 73.0863 109.827 74.0602C111.656 74.9346 114.33 75.5412 117.331 75.5412V78.1426C110.706 78.1426 105.047 75.4897 105.047 72.2172C105.047 68.9447 110.706 66.2919 117.331 66.2919C123.956 66.2919 129.615 68.9447 129.615 72.2172C129.615 75.4897 123.956 78.1426 117.331 78.1426V75.5412C120.332 75.5412 123.006 74.9346 124.836 74.0602C126.873 73.0863 127.014 72.2595 127.014 72.2172Z" fill="black"/>
<path d="M127.014 77.5752V73.0844C127.014 72.366 127.596 71.7837 128.315 71.7837C129.033 71.7837 129.615 72.366 129.615 73.0844V77.5752C129.615 78.7282 129.012 79.8598 127.921 80.434C119.67 84.7772 110.623 82.7887 106.53 80.3968C105.515 79.8035 105.047 78.7252 105.047 77.7119V72.9398C105.047 72.2215 105.629 71.6392 106.348 71.6392C107.066 71.6392 107.648 72.2215 107.648 72.9398V77.7119C107.648 77.9688 107.761 78.103 107.843 78.1508C111.317 80.1811 119.401 81.979 126.709 78.1322C126.876 78.0444 127.014 77.8436 127.014 77.5752Z" fill="black"/>
<path d="M125.16 79.4656C125.387 78.7841 126.124 78.4156 126.805 78.6427C127.622 78.9151 128.251 79.4012 128.701 79.9883C129.234 80.6848 129.47 81.4707 129.418 82.2693C129.368 83.0408 129.058 83.7331 128.658 84.3067C127.871 85.4357 126.589 86.3268 125.337 86.8195C119.597 89.0777 113.951 88.5075 110.018 87.1559C108.513 86.6387 106.921 85.5998 105.949 84.322C105.458 83.6774 105.058 82.8824 105.006 81.9944C104.95 81.0549 105.295 80.1629 106.022 79.428C106.455 78.9908 107.057 78.6291 107.809 78.579C108.526 78.5312 109.146 79.0735 109.193 79.7902C109.241 80.5069 108.699 81.1269 107.982 81.1747C107.982 81.1747 107.982 81.1746 107.982 81.1747C107.981 81.1748 107.977 81.1759 107.97 81.1798C107.954 81.1878 107.919 81.209 107.871 81.258C107.626 81.5055 107.594 81.6903 107.603 81.8414C107.615 82.0439 107.72 82.3533 108.019 82.7463C108.626 83.5441 109.754 84.3143 110.864 84.6957C114.332 85.8876 119.329 86.3877 124.385 84.3985C125.272 84.0494 126.093 83.4383 126.524 82.8192C126.734 82.5187 126.811 82.2753 126.822 82.1017C126.832 81.9551 126.801 81.7863 126.636 81.5701C126.485 81.3729 126.279 81.2098 125.982 81.1109C125.301 80.8837 124.933 80.147 125.16 79.4656Z" fill="black"/>
<path d="M125.273 84.3794C125.5 83.6979 126.237 83.3294 126.918 83.5566C127.735 83.829 128.365 84.315 128.814 84.9021C129.348 85.5986 129.583 86.3845 129.531 87.1831C129.482 87.9546 129.171 88.6469 128.771 89.2205C127.984 90.3495 126.702 91.2406 125.45 91.7333C119.71 93.9915 114.064 93.4213 110.132 92.0697C108.626 91.5525 107.035 90.5136 106.062 89.2358C105.572 88.5912 105.171 87.7963 105.119 86.9082C105.064 85.9687 105.408 85.0767 106.135 84.3418C106.568 83.9046 107.17 83.5429 107.923 83.4928C108.639 83.445 109.259 83.9873 109.307 84.704C109.355 85.4207 108.812 86.0407 108.096 86.0885C108.095 86.0885 108.095 86.0884 108.095 86.0885C108.094 86.0887 108.09 86.0897 108.083 86.0936C108.067 86.1016 108.033 86.1228 107.984 86.1718C107.739 86.4193 107.707 86.6042 107.716 86.7552C107.728 86.9577 107.833 87.2671 108.132 87.6602C108.739 88.458 109.867 89.2282 110.977 89.6095C114.445 90.8015 119.442 91.3015 124.498 89.3123C125.385 88.9632 126.206 88.3521 126.637 87.733C126.847 87.4326 126.924 87.1891 126.935 87.0155C126.945 86.869 126.914 86.7001 126.749 86.484C126.598 86.2867 126.393 86.1237 126.096 86.0247C125.414 85.7976 125.046 85.0608 125.273 84.3794Z" fill="black"/>
<path d="M153.604 72.2172C153.604 72.1749 153.462 71.3481 151.425 70.3743C149.596 69.4998 146.922 68.8932 143.921 68.8932C140.92 68.8932 138.246 69.4998 136.417 70.3743C134.38 71.3481 134.238 72.1749 134.238 72.2172C134.238 72.2595 134.38 73.0863 136.417 74.0602C138.246 74.9346 140.92 75.5412 143.921 75.5412V78.1426C137.296 78.1426 131.637 75.4897 131.637 72.2172C131.637 68.9447 137.296 66.2919 143.921 66.2919C150.546 66.2919 156.205 68.9447 156.205 72.2172C156.205 75.4897 150.546 78.1426 143.921 78.1426V75.5412C146.922 75.5412 149.596 74.9346 151.425 74.0602C153.462 73.0863 153.604 72.2595 153.604 72.2172Z" fill="black"/>
<path d="M153.604 77.5752V73.0844C153.604 72.366 154.186 71.7837 154.905 71.7837C155.623 71.7837 156.205 72.366 156.205 73.0844V77.5752C156.205 78.7282 155.602 79.8598 154.511 80.434C146.26 84.7772 137.213 82.7887 133.12 80.3968C132.105 79.8035 131.637 78.7252 131.637 77.7119V72.9398C131.637 72.2215 132.219 71.6392 132.937 71.6392C133.656 71.6392 134.238 72.2215 134.238 72.9398V77.7119C134.238 77.9688 134.351 78.103 134.433 78.1508C137.907 80.1811 145.991 81.979 153.299 78.1322C153.466 78.0444 153.604 77.8436 153.604 77.5752Z" fill="black"/>
<path d="M151.749 79.4656C151.977 78.7841 152.713 78.4156 153.395 78.6427C154.212 78.9151 154.841 79.4012 155.291 79.9883C155.824 80.6848 156.06 81.4707 156.008 82.2693C155.958 83.0408 155.648 83.7331 155.248 84.3067C154.461 85.4357 153.179 86.3268 151.927 86.8195C146.187 89.0777 140.541 88.5075 136.608 87.1559C135.103 86.6387 133.511 85.5998 132.539 84.322C132.048 83.6774 131.648 82.8824 131.596 81.9944C131.54 81.0549 131.885 80.1629 132.612 79.428C133.045 78.9908 133.647 78.6291 134.399 78.579C135.116 78.5312 135.735 79.0735 135.783 79.7902C135.831 80.5069 135.289 81.1269 134.572 81.1747C134.572 81.1747 134.572 81.1746 134.572 81.1747C134.571 81.1748 134.567 81.1759 134.559 81.1798C134.544 81.1878 134.509 81.209 134.461 81.258C134.216 81.5055 134.184 81.6903 134.192 81.8414C134.204 82.0439 134.309 82.3533 134.609 82.7463C135.216 83.5441 136.344 84.3143 137.454 84.6957C140.922 85.8876 145.918 86.3877 150.974 84.3985C151.862 84.0494 152.682 83.4383 153.114 82.8192C153.323 82.5187 153.401 82.2753 153.412 82.1017C153.422 81.9551 153.391 81.7863 153.225 81.5701C153.074 81.3729 152.869 81.2098 152.572 81.1109C151.891 80.8837 151.522 80.147 151.749 79.4656Z" fill="black"/>
<path d="M151.863 84.3794C152.09 83.6979 152.827 83.3294 153.508 83.5566C154.325 83.829 154.954 84.315 155.404 84.9021C155.938 85.5986 156.173 86.3845 156.121 87.1831C156.072 87.9546 155.761 88.6469 155.361 89.2205C154.574 90.3495 153.292 91.2406 152.04 91.7333C146.3 93.9915 140.654 93.4213 136.721 92.0697C135.216 91.5525 133.625 90.5136 132.652 89.2358C132.161 88.5912 131.761 87.7963 131.709 86.9082C131.653 85.9687 131.998 85.0767 132.725 84.3418C133.158 83.9046 133.76 83.5429 134.512 83.4928C135.229 83.445 135.849 83.9873 135.897 84.704C135.944 85.4207 135.402 86.0407 134.685 86.0885C134.685 86.0885 134.685 86.0884 134.685 86.0885C134.684 86.0887 134.68 86.0897 134.673 86.0936C134.657 86.1016 134.622 86.1228 134.574 86.1718C134.329 86.4193 134.297 86.6042 134.306 86.7552C134.318 86.9577 134.423 87.2671 134.722 87.6602C135.329 88.458 136.457 89.2282 137.567 89.6095C141.035 90.8015 146.032 91.3015 151.088 89.3123C151.975 88.9632 152.796 88.3521 153.227 87.733C153.437 87.4326 153.514 87.1891 153.525 87.0155C153.535 86.869 153.504 86.7001 153.339 86.484C153.188 86.2867 152.982 86.1237 152.686 86.0247C152.004 85.7976 151.636 85.0608 151.863 84.3794Z" fill="black"/>
<path d="M115.746 100.399H118.636V97.5082H115.746V100.399ZM121.238 102.133C121.238 102.612 120.849 103 120.371 103H114.012C113.533 103 113.145 102.612 113.145 102.133V95.774C113.145 95.2951 113.533 94.9069 114.012 94.9069H120.371C120.849 94.9069 121.238 95.2951 121.238 95.774V102.133Z" fill="black"/>
<path d="M142.332 100.399H145.222V97.5082H142.332V100.399ZM147.824 102.133C147.824 102.612 147.435 103 146.957 103H140.598C140.119 103 139.73 102.612 139.73 102.133V95.774C139.73 95.2951 140.119 94.9069 140.598 94.9069H146.957C147.435 94.9069 147.824 95.2951 147.824 95.774V102.133Z" fill="black"/>
<path d="M116.031 95.3405V92.7392C116.031 92.0208 116.614 91.4385 117.332 91.4385C118.05 91.4385 118.633 92.0208 118.633 92.7392V95.3405C118.633 96.0589 118.05 96.6412 117.332 96.6412C116.614 96.6412 116.031 96.0589 116.031 95.3405Z" fill="black"/>
<path d="M142.477 95.1961V92.5948C142.477 91.8764 143.059 91.2941 143.777 91.2941C144.496 91.2941 145.078 91.8764 145.078 92.5948V95.1961C145.078 95.9145 144.496 96.4968 143.777 96.4968C143.059 96.4968 142.477 95.9145 142.477 95.1961Z" fill="black"/>
<path d="M140.163 97.6531C140.881 97.6531 141.463 98.2354 141.463 98.9538C141.463 99.6721 140.881 100.254 140.163 100.254H120.941C120.223 100.254 119.641 99.6721 119.641 98.9538C119.641 98.2354 120.223 97.6531 120.941 97.6531H140.163Z" fill="black"/>
<path d="M113.429 97.6531C114.147 97.6531 114.73 98.2354 114.73 98.9538C114.73 99.6721 114.147 100.254 113.429 100.254H106.348C105.629 100.254 105.047 99.6721 105.047 98.9538C105.047 98.2354 105.629 97.6531 106.348 97.6531H113.429Z" fill="black"/>
<path d="M154.328 97.6531C155.046 97.6531 155.628 98.2354 155.628 98.9538C155.628 99.6721 155.046 100.254 154.328 100.254H147.246C146.528 100.254 145.945 99.6721 145.945 98.9538C145.945 98.2354 146.528 97.6531 147.246 97.6531H154.328Z" fill="black"/>
<path d="M45.6268 69.5597C45.6268 68.9044 45.0956 68.3732 44.4403 68.3732H10.6886C10.0333 68.3732 9.50207 68.9044 9.50207 69.5597V75.0971C9.50207 75.7524 10.0333 76.2837 10.6886 76.2837H44.4403C45.0956 76.2837 45.6268 75.7524 45.6268 75.0971V69.5597ZM48 75.0971C48 77.0631 46.4062 78.6569 44.4403 78.6569H10.6886C8.72266 78.6569 7.12891 77.0631 7.12891 75.0971V69.5597C7.12891 67.5938 8.72266 66 10.6886 66H44.4403C46.4062 66 48 67.5938 48 69.5597V75.0971Z" fill="black"/>
<path d="M45.6268 82.8759C45.6268 82.2206 45.0956 81.6893 44.4403 81.6893H10.6886C10.0333 81.6893 9.50207 82.2206 9.50207 82.8759V88.4133C9.50207 89.0686 10.0333 89.5999 10.6886 89.5999H44.4403C45.0956 89.5999 45.6268 89.0686 45.6268 88.4133V82.8759ZM48 88.4133C48 90.3793 46.4062 91.973 44.4403 91.973H10.6886C8.72266 91.973 7.12891 90.3793 7.12891 88.4133V82.8759C7.12891 80.9099 8.72266 79.3162 10.6886 79.3162H44.4403C46.4062 79.3162 48 80.9099 48 82.8759V88.4133Z" fill="black"/>
<path d="M12.2734 76.6792H14.6466V81.4255H12.2734V76.6792Z" fill="black"/>
<path d="M39.8242 76.6792H42.1974V81.4255H39.8242V76.6792Z" fill="black"/>
<path d="M11.8711 90.7864H14.2443V93.1595H39.6898V90.7864H42.063V95.5327H11.8711V90.7864Z" fill="black"/>
<path d="M24.2677 93.9506H26.6409V99.4879H23.213V100.938H31.1235V99.4879H27.9593V93.9506H30.3325V97.1148H33.4967V103.311H20.8398V97.1148H24.2677V93.9506Z" fill="black"/>
<path d="M42.728 98.9604V101.334H32.3125V98.9604H42.728Z" fill="black"/>
<path d="M22.0288 98.8287V101.202H11.6133V98.8287H22.0288Z" fill="black"/>
<path d="M11.7422 69.8235H14.1153V74.9653H11.7422V69.8235Z" fill="black"/>
<path d="M11.6133 83.0076H13.9864V88.1494H11.6133V83.0076Z" fill="black"/>
<path d="M16.3594 69.8235H18.7325V74.9653H16.3594V69.8235Z" fill="black"/>
<path d="M16.2227 83.0076H18.5958V88.1494H16.2227V83.0076Z" fill="black"/>
<path d="M21.1055 69.8235H23.4786V74.9653H21.1055V69.8235Z" fill="black"/>
<path d="M20.9727 83.0076H23.3458V88.1494H20.9727V83.0076Z" fill="black"/>
<path d="M25.8555 69.8235H28.2286V74.9653H25.8555V69.8235Z" fill="black"/>
<path d="M25.7148 83.0076H28.088V88.1494H25.7148V83.0076Z" fill="black"/>
<path d="M210.038 78.063H246.227V68.4674H210.038V78.063ZM248.694 78.3372C248.694 79.5485 247.712 80.5305 246.501 80.5305H209.764C208.552 80.5305 207.57 79.5485 207.57 78.3372V68.1933C207.57 66.982 208.552 66 209.764 66H246.501C247.712 66 248.694 66.982 248.694 68.1933V78.3372Z" fill="black"/>
<path d="M230.465 69.9754V68.0562C230.465 67.3749 231.017 66.8225 231.699 66.8225C232.38 66.8225 232.932 67.3749 232.932 68.0562V69.9754C232.932 70.6567 232.38 71.2091 231.699 71.2091C231.017 71.2091 230.465 70.6567 230.465 69.9754Z" fill="black"/>
<path d="M230.465 82.4496V80.5305C230.465 79.8491 231.017 79.2968 231.699 79.2968C232.38 79.2968 232.932 79.8491 232.932 80.5305V82.4496C232.932 83.131 232.38 83.6833 231.699 83.6833C231.017 83.6833 230.465 83.131 230.465 82.4496Z" fill="black"/>
<path d="M241.703 70.1124V68.1933C241.703 67.512 242.255 66.9596 242.937 66.9596C243.618 66.9596 244.171 67.512 244.171 68.1933V70.1124C244.171 70.7938 243.618 71.3462 242.937 71.3462C242.255 71.3462 241.703 70.7938 241.703 70.1124Z" fill="black"/>
<path d="M241.703 82.5867V80.6676C241.703 79.9862 242.255 79.4338 242.937 79.4338C243.618 79.4338 244.171 79.9862 244.171 80.6676V82.5867C244.171 83.268 243.618 83.8204 242.937 83.8204C242.255 83.8204 241.703 83.268 241.703 82.5867Z" fill="black"/>
<path d="M236.223 70.1124V68.1933C236.223 67.512 236.775 66.9596 237.456 66.9596C238.138 66.9596 238.69 67.512 238.69 68.1933V70.1124C238.69 70.7938 238.138 71.3462 237.456 71.3462C236.775 71.3462 236.223 70.7938 236.223 70.1124Z" fill="black"/>
<path d="M236.223 82.5867V80.6676C236.223 79.9862 236.775 79.4338 237.456 79.4338C238.138 79.4338 238.69 79.9862 238.69 80.6676V82.5867C238.69 83.268 238.138 83.8204 237.456 83.8204C236.775 83.8204 236.223 83.268 236.223 82.5867Z" fill="black"/>
<path d="M211.011 78.0313L212.803 78.0632C213.484 78.0752 214.027 78.6373 214.015 79.3186C214.003 79.9998 213.441 80.5421 212.76 80.5301L210.968 80.4985C210.431 80.489 209.991 80.9212 209.991 81.4578L209.991 90.9484C209.991 91.4784 210.421 91.908 210.951 91.908H235.263C235.944 91.908 236.496 92.4604 236.496 93.1417C236.496 93.823 235.944 94.3754 235.263 94.3754H210.951C209.058 94.3754 207.524 92.8413 207.524 90.9487L207.523 81.458C207.523 79.5416 209.095 77.9974 211.011 78.0313Z" fill="black"/>
<path d="M246.368 87.9327V81.49C246.368 80.96 245.939 80.5304 245.409 80.5304H244.175C243.494 80.5304 242.941 79.9781 242.941 79.2967C242.941 78.6153 243.494 78.063 244.175 78.063H245.409C247.302 78.063 248.836 79.5973 248.836 81.49V87.9327C248.836 88.6141 248.283 89.1665 247.602 89.1665C246.921 89.1665 246.368 88.6141 246.368 87.9327Z" fill="black"/>
<path d="M215.797 73.2653C215.797 72.7353 215.367 72.3057 214.837 72.3057C214.307 72.3057 213.878 72.7353 213.878 73.2653C213.878 73.7952 214.307 74.2248 214.837 74.2248V76.6923C212.944 76.6923 211.41 75.1579 211.41 73.2653C211.41 71.3726 212.944 69.8383 214.837 69.8383C216.73 69.8383 218.264 71.3726 218.264 73.2653C218.264 75.1579 216.73 76.6923 214.837 76.6923V74.2248C215.367 74.2248 215.797 73.7952 215.797 73.2653Z" fill="black"/>
<path d="M215.797 86.6991C215.797 86.1691 215.367 85.7395 214.837 85.7395C214.307 85.7395 213.878 86.1691 213.878 86.6991C213.878 87.229 214.307 87.6587 214.837 87.6587V90.1261C212.944 90.1261 211.41 88.5918 211.41 86.6991C211.41 84.8064 212.944 83.2721 214.837 83.2721C216.73 83.2721 218.264 84.8064 218.264 86.6991C218.264 88.5918 216.73 90.1261 214.837 90.1261V87.6587C215.367 87.6587 215.797 87.229 215.797 86.6991Z" fill="black"/>
<path d="M224.844 73.2653C224.844 72.7353 224.414 72.3057 223.884 72.3057C223.354 72.3057 222.924 72.7353 222.924 73.2653C222.924 73.7952 223.354 74.2248 223.884 74.2248V76.6923C221.991 76.6923 220.457 75.1579 220.457 73.2653C220.457 71.3726 221.991 69.8383 223.884 69.8383C225.777 69.8383 227.311 71.3726 227.311 73.2653C227.311 75.1579 225.777 76.6923 223.884 76.6923V74.2248C224.414 74.2248 224.844 73.7952 224.844 73.2653Z" fill="black"/>
<path d="M224.844 86.6991C224.844 86.1691 224.414 85.7395 223.884 85.7395C223.354 85.7395 222.924 86.1691 222.924 86.6991C222.924 87.229 223.354 87.6587 223.884 87.6587V90.1261C221.991 90.1261 220.457 88.5918 220.457 86.6991C220.457 84.8064 221.991 83.2721 223.884 83.2721C225.777 83.2721 227.311 84.8064 227.311 86.6991C227.311 88.5918 225.777 90.1261 223.884 90.1261V87.6587C224.414 87.6587 224.844 87.229 224.844 86.6991Z" fill="black"/>
<path d="M252.534 97.9396C252.534 93.4728 248.913 89.8518 244.446 89.8518C239.979 89.8518 236.358 93.4728 236.358 97.9396C236.358 102.406 239.979 106.027 244.446 106.027V108.495C238.616 108.495 233.891 103.769 233.891 97.9396C233.891 92.1101 238.616 87.3844 244.446 87.3844C250.275 87.3844 255.001 92.1101 255.001 97.9396C255.001 103.769 250.275 108.495 244.446 108.495V106.027C248.913 106.027 252.534 102.406 252.534 97.9396Z" fill="black"/>
<path d="M248.236 94.4628C248.718 93.981 249.499 93.981 249.981 94.4628C250.462 94.9446 250.462 95.7255 249.981 96.2073L244.073 102.115C243.364 102.824 242.21 102.808 241.52 102.08L239.44 99.8847C238.971 99.39 238.992 98.6093 239.487 98.1407C239.981 97.6721 240.762 97.6931 241.231 98.1878L242.827 99.8718L248.236 94.4628Z" fill="black"/>
<path d="M13 129.307C13 128.721 13.4754 128.245 14.0619 128.245C14.6484 128.245 15.1238 128.721 15.1238 129.307V135.191C19.5473 136.498 24.5571 136.779 29.1213 136.567C33.4411 136.366 37.2995 135.726 39.7838 135.142V129.483C39.7838 128.897 40.2592 128.422 40.8457 128.422C41.4321 128.422 41.9075 128.897 41.9076 129.483V136.793L41.1146 137C38.5646 137.668 34.1785 138.458 29.22 138.689C24.2683 138.919 18.6685 138.595 13.7321 136.983L13 136.743V129.307Z" fill="black"/>
<path d="M27.5128 125C35.4628 125 41.9076 126.955 41.9076 129.366C41.9076 131.777 35.4628 133.731 27.5128 133.731V131.607C31.3389 131.607 34.7202 131.134 37.0751 130.42C38.2336 130.069 39.0303 129.692 39.5001 129.366C39.0303 129.039 38.2336 128.662 37.0751 128.311C34.7202 127.597 31.3389 127.124 27.5128 127.124C23.6869 127.124 20.2733 127.597 17.8853 128.313C16.7203 128.662 15.9105 129.037 15.4269 129.366C15.9105 129.694 16.7203 130.069 17.8853 130.418C20.2733 131.134 23.6869 131.607 27.5128 131.607V133.731C19.5628 133.731 13 131.777 13 129.366C13 126.955 19.5628 125 27.5128 125Z" fill="black"/>
<path d="M39.7838 143.807V140.563C36.6396 141.149 32.5758 141.747 28.2959 141.931C23.9274 142.118 19.2737 141.878 15.1238 140.717V143.609C18.3921 144.742 24.3344 145.9 33.8071 144.661C34.3886 144.585 34.9217 144.994 34.9978 145.576C35.0739 146.157 34.664 146.691 34.0824 146.767C23.5999 148.138 17.1362 146.682 13.6778 145.34L13 145.077V137.791L14.406 138.272C18.5341 139.686 23.4575 140.013 28.2046 139.809C32.9388 139.605 37.4234 138.878 40.6374 138.235L41.9076 137.981V143.807C41.9076 144.394 41.4322 144.869 40.8457 144.869C40.2592 144.869 39.7838 144.394 39.7838 143.807Z" fill="black"/>
<path d="M14.4092 146.769C20.3998 148.842 25.2128 149.3 30.5114 148.954C31.0966 148.916 31.602 149.359 31.6401 149.945C31.6783 150.53 31.2349 151.035 30.6497 151.073C25.5146 151.408 20.7709 151.018 15.1238 149.241V151.878C21.723 153.359 23.7023 153.658 29.3589 153.436C29.9449 153.413 30.4386 153.87 30.4616 154.456C30.4846 155.042 30.0283 155.535 29.4423 155.558C23.2939 155.8 21.1865 155.425 13.828 153.763L13 153.577V146.281L14.4092 146.769Z" fill="black"/>
<path d="M14.4154 155.384C20.232 157.437 26.434 157.407 29.9316 157.213C30.5171 157.18 31.0183 157.629 31.0509 158.214C31.0834 158.8 30.6351 159.301 30.0496 159.333C26.7387 159.517 20.8995 159.573 15.1238 157.847V160.364C15.6695 160.53 16.4573 160.714 17.4514 160.893C18.8828 161.152 20.6426 161.387 22.5033 161.552C26.2594 161.884 30.2843 161.919 32.8327 161.365C33.4058 161.241 33.9715 161.604 34.096 162.177C34.2206 162.75 33.857 163.316 33.2839 163.441C30.4048 164.066 26.1113 164.003 22.3162 163.667C20.4012 163.498 18.577 163.255 17.0734 162.983C15.6081 162.718 14.3409 162.407 13.6128 162.067L13 161.781V154.884L14.4154 155.384Z" fill="black"/>
<path d="M47.103 154.498C47.103 150.588 43.9334 147.418 40.0235 147.418C36.1137 147.418 32.9441 150.588 32.9441 154.498C32.9441 158.407 36.1137 161.577 40.0235 161.577V163.701C34.9407 163.701 30.8203 159.58 30.8203 154.498C30.8203 149.415 34.9407 145.294 40.0235 145.294C45.1064 145.294 49.2268 149.415 49.2268 154.498C49.2268 159.58 45.1064 163.701 40.0235 163.701V161.577C43.9334 161.577 47.103 158.407 47.103 154.498Z" fill="black"/>
<path d="M41.0809 152.61V158.981H38.957V152.61H41.0809Z" fill="black"/>
<path d="M41.0809 150.132V151.666H38.957V150.132H41.0809Z" fill="black"/>
<path d="M136.609 140.743V138.78C136.609 138.161 137.112 137.658 137.731 137.658C138.351 137.658 138.853 138.161 138.853 138.78V140.743C138.853 141.363 138.351 141.865 137.731 141.865C137.112 141.865 136.609 141.363 136.609 140.743Z" fill="black"/>
<path d="M136.609 149.998V148.035C136.609 147.415 137.112 146.913 137.731 146.913C138.351 146.913 138.853 147.415 138.853 148.035V149.998C138.853 150.617 138.351 151.119 137.731 151.119C137.112 151.119 136.609 150.617 136.609 149.998Z" fill="black"/>
<path d="M148.105 141.024V139.061C148.105 138.441 148.608 137.939 149.227 137.939C149.847 137.939 150.349 138.441 150.349 139.061V141.024C150.349 141.643 149.847 142.146 149.227 142.146C148.608 142.146 148.105 141.643 148.105 141.024Z" fill="black"/>
<path d="M148.105 150.278V148.315C148.105 147.696 148.608 147.193 149.227 147.193C149.847 147.193 150.349 147.696 150.349 148.315V150.278C150.349 150.898 149.847 151.4 149.227 151.4C148.608 151.4 148.105 150.898 148.105 150.278Z" fill="black"/>
<path d="M134.368 143.127V145.37H123.852V143.127H134.368Z" fill="black"/>
<path d="M114.312 134.153H116.556V138.079H114.312V134.153Z" fill="black"/>
<path d="M114.18 149.998H116.423V153.924H114.18V149.998Z" fill="black"/>
<path d="M139.838 135.555C140.457 135.555 140.959 135.053 140.959 134.433C140.959 133.814 140.457 133.312 139.838 133.312H138.856C138.237 133.312 137.734 133.814 137.734 134.433C137.734 135.053 138.237 135.555 138.856 135.555H139.838Z" fill="black"/>
<path d="M139.838 145.651C140.457 145.651 140.959 145.149 140.959 144.529C140.959 143.91 140.457 143.407 139.838 143.407H138.856C138.237 143.407 137.734 143.91 137.734 144.529C137.734 145.149 138.237 145.651 138.856 145.651H139.838Z" fill="black"/>
<path d="M139.838 155.747C140.457 155.747 140.959 155.244 140.959 154.625C140.959 154.005 140.457 153.503 139.838 153.503H138.856C138.237 153.503 137.734 154.005 137.734 154.625C137.734 155.244 138.237 155.747 138.856 155.747H139.838Z" fill="black"/>
<path d="M110.251 133.452H123.151V125.6H119.651C119.196 125.6 118.768 125.378 118.506 125.006L117.242 123.216H110.251V133.452ZM125.395 134.293C125.395 135.068 124.767 135.696 123.993 135.696H109.41C108.636 135.696 108.008 135.068 108.008 134.293V122.375C108.008 121.6 108.636 120.973 109.41 120.973H117.678C118.105 120.973 118.507 121.167 118.772 121.498L118.823 121.566L120.087 123.356H123.993C124.767 123.356 125.395 123.984 125.395 124.758V134.293Z" fill="black"/>
<path d="M110.251 149.297H123.151V141.444H119.651C119.196 141.444 118.768 141.223 118.506 140.851L117.242 139.061H110.251V149.297ZM125.395 150.138C125.395 150.912 124.767 151.54 123.993 151.54H109.41C108.636 151.54 108.008 150.912 108.008 150.138V138.219C108.008 137.445 108.636 136.817 109.41 136.817H117.678C118.105 136.817 118.507 137.012 118.772 137.343L118.823 137.411L120.087 139.201H123.993C124.767 139.201 125.395 139.829 125.395 140.603V150.138Z" fill="black"/>
<path d="M110.251 165.001H123.151V157.149H119.651C119.196 157.149 118.768 156.928 118.506 156.555L117.242 154.765H110.251V165.001ZM125.395 165.843C125.395 166.617 124.767 167.245 123.993 167.245H109.41C108.636 167.245 108.008 166.617 108.008 165.843V153.924C108.008 153.15 108.636 152.522 109.41 152.522H117.678C118.105 152.522 118.507 152.716 118.772 153.047L118.823 153.115L120.087 154.905H123.993C124.767 154.905 125.395 155.533 125.395 156.308V165.843Z" fill="black"/>
<path d="M120.625 130.227C121.245 130.227 121.747 130.729 121.747 131.349C121.747 131.968 121.245 132.47 120.625 132.47H117.821C117.201 132.47 116.699 131.968 116.699 131.349C116.699 130.729 117.201 130.227 117.821 130.227H120.625Z" fill="black"/>
<path d="M120.625 146.072C121.245 146.072 121.747 146.574 121.747 147.193C121.747 147.813 121.245 148.315 120.625 148.315H117.821C117.201 148.315 116.699 147.813 116.699 147.193C116.699 146.574 117.201 146.072 117.821 146.072H120.625Z" fill="black"/>
<path d="M120.625 161.776C121.245 161.776 121.747 162.278 121.747 162.898C121.747 163.518 121.245 164.02 120.625 164.02H117.821C117.201 164.02 116.699 163.518 116.699 162.898C116.699 162.278 117.201 161.776 117.821 161.776H120.625Z" fill="black"/>
<path d="M151.758 136.817V139.06H135.212V136.817H151.758ZM151.758 132.33H135.212V139.06C133.973 139.06 132.969 138.056 132.969 136.817V132.33C132.969 131.091 133.973 130.086 135.212 130.086H151.758C152.997 130.086 154.002 131.091 154.002 132.33V136.817C154.002 138.056 152.997 139.06 151.758 139.06V132.33Z" fill="black"/>
<path d="M151.758 146.913V149.157H135.212V146.913H151.758ZM151.758 142.426H135.212V149.157C133.973 149.157 132.969 148.152 132.969 146.913V142.426C132.969 141.187 133.973 140.183 135.212 140.183H151.758C152.997 140.183 154.002 141.187 154.002 142.426V146.913C154.002 148.152 152.997 149.157 151.758 149.157V142.426Z" fill="black"/>
<path d="M151.758 157.009V159.252H135.212V157.009H151.758ZM151.758 152.522H135.212V159.252C133.973 159.252 132.969 158.248 132.969 157.009V152.522C132.969 151.283 133.973 150.278 135.212 150.278H151.758C152.997 150.278 154.002 151.283 154.002 152.522V157.009C154.002 158.248 152.997 159.252 151.758 159.252V152.522Z" fill="black"/>
<path d="M149.366 135.695C149.986 135.695 150.488 135.193 150.488 134.574C150.488 133.954 149.986 133.452 149.366 133.452H143.337C142.717 133.452 142.215 133.954 142.215 134.574C142.215 135.193 142.717 135.695 143.337 135.695H149.366Z" fill="black"/>
<path d="M149.366 145.791C149.986 145.791 150.488 145.289 150.488 144.67C150.488 144.05 149.986 143.548 149.366 143.548H143.337C142.717 143.548 142.215 144.05 142.215 144.67C142.215 145.289 142.717 145.791 143.337 145.791H149.366Z" fill="black"/>
<path d="M149.366 155.887C149.986 155.887 150.488 155.385 150.488 154.765C150.488 154.146 149.986 153.643 149.366 153.643H143.337C142.717 153.643 142.215 154.146 142.215 154.765C142.215 155.385 142.717 155.887 143.337 155.887H149.366Z" fill="black"/>
<path d="M243.238 154.805V139.902C243.238 139.189 243.816 138.612 244.528 138.612C245.241 138.612 245.818 139.189 245.818 139.902V154.805C245.818 158.054 244.233 161.358 241.077 162.827C232.211 166.954 224.146 165.233 219.11 162.716C216.254 161.288 215 158.241 215 155.356V139.902C215 139.189 215.578 138.612 216.29 138.612C217.003 138.612 217.58 139.189 217.58 139.902V155.356C217.58 157.59 218.541 159.547 220.264 160.408C224.763 162.657 231.99 164.211 239.988 160.488C242.033 159.536 243.238 157.294 243.238 154.805Z" fill="black"/>
<path d="M215.76 146.924C216.236 146.394 217.051 146.35 217.581 146.826C220.248 149.219 224.064 151.53 228.494 152.096C232.868 152.655 237.988 151.534 243.393 146.814C243.929 146.345 244.744 146.4 245.213 146.937C245.682 147.474 245.626 148.289 245.09 148.757C239.171 153.927 233.325 155.315 228.167 154.656C223.065 154.003 218.781 151.369 215.858 148.746C215.328 148.27 215.284 147.454 215.76 146.924Z" fill="black"/>
<path d="M243.176 153.064C243.745 152.634 244.554 152.746 244.983 153.314C245.413 153.883 245.301 154.692 244.733 155.121C232.919 164.058 220.724 159.151 215.889 155.079C215.344 154.621 215.274 153.807 215.733 153.262C216.192 152.717 217.006 152.647 217.551 153.106C221.794 156.679 232.629 161.041 243.176 153.064Z" fill="black"/>
<path d="M243.241 139.448C243.571 138.817 244.35 138.572 244.981 138.901C245.613 139.231 245.858 140.01 245.528 140.642C243.575 144.386 238.792 147.544 233.276 148.397C227.672 149.264 221.183 147.783 215.783 142.079C215.293 141.561 215.315 140.745 215.833 140.255C216.35 139.765 217.167 139.787 217.656 140.305C222.434 145.351 228.057 146.594 232.881 145.848C237.793 145.088 241.754 142.298 243.241 139.448Z" fill="black"/>
<path d="M215 139.902C215 137.848 216.226 136.146 217.808 134.979C219.4 133.804 221.499 133.046 223.645 132.882C224.356 132.827 224.976 133.359 225.03 134.07C225.085 134.78 224.553 135.4 223.842 135.455C222.14 135.585 220.512 136.19 219.34 137.055C218.156 137.928 217.58 138.945 217.58 139.902C217.58 140.614 217.003 141.192 216.29 141.192C215.578 141.192 215 140.614 215 139.902Z" fill="black"/>
<path d="M245.816 140.045C245.816 137.992 244.59 136.289 243.009 135.122C241.416 133.947 239.317 133.19 237.171 133.025C236.461 132.971 235.841 133.503 235.786 134.213C235.732 134.923 236.264 135.543 236.974 135.598C238.677 135.728 240.305 136.333 241.477 137.198C242.66 138.072 243.236 139.089 243.236 140.045C243.236 140.758 243.814 141.335 244.526 141.335C245.239 141.335 245.816 140.758 245.816 140.045Z" fill="black"/>
<path d="M229.199 120.753C229.937 120.145 231.063 120.131 231.802 120.824L231.875 120.895L231.968 120.991C233.947 122.973 236.609 123.398 238.136 123.329L238.225 123.328C239.115 123.331 240 123.972 240.119 124.986L240.128 125.088L240.143 125.327C240.693 135.419 234.624 139.92 230.997 140.955C230.611 141.065 230.221 141.037 229.882 140.916C225.696 139.421 223.292 136.468 222.018 133.374C220.759 130.316 220.59 127.103 220.824 124.905C220.927 123.937 221.731 123.305 222.576 123.257L222.888 123.235C226.071 122.98 228.19 121.669 229.127 120.816L229.199 120.753ZM230.431 123.091C229.033 124.204 226.63 125.47 223.34 125.784C223.232 127.615 223.452 130.078 224.404 132.391C225.428 134.877 227.283 137.172 230.521 138.402C233.123 137.543 237.859 134.11 237.585 125.912C235.64 125.864 232.763 125.25 230.431 123.091Z" fill="black"/>
<path d="M232.789 126.81C233.132 126.186 233.916 125.958 234.541 126.3C235.165 126.643 235.393 127.428 235.051 128.052L231.469 134.576C230.814 135.769 229.143 135.88 228.335 134.784L226.861 132.783C226.438 132.21 226.561 131.402 227.134 130.979C227.708 130.557 228.516 130.679 228.938 131.253L229.747 132.351L232.789 126.81Z" fill="black"/>
</svg>
