<svg width="260" height="178" viewBox="0 0 260 178" fill="none" xmlns="http://www.w3.org/2000/svg">
<path d="M27.6719 26.3125V39.711" stroke="#0C0966" stroke-width="1.64063" stroke-linecap="square"/>
<path d="M32.0469 26.3125V39.711" stroke="#0C0966" stroke-width="1.64063" stroke-linecap="square"/>
<path d="M36.4219 26.3125V39.711" stroke="#0C0966" stroke-width="1.64063" stroke-linecap="square"/>
<path d="M22.4766 21.6641L23.3986 41.2581C23.4947 43.3001 25.1783 44.9063 27.2225 44.9063H36.7242C38.7166 44.9063 40.3759 43.378 40.5394 41.3923L42.1641 21.6641" stroke="#0C0966" stroke-width="1.64063" stroke-linecap="round"/>
<path d="M27.3984 16.4688V13.1875H36.9688V16.4688" stroke="#0C0966" stroke-width="1.64063" stroke-linecap="round"/>
<rect x="19.7422" y="17.0156" width="24.6094" height="4.37501" rx="1.91407" stroke="#0C0966" stroke-width="1.64063"/>
<path d="M146.258 133.734C146.56 133.734 146.805 133.979 146.805 134.281V135.375C146.805 135.677 146.56 135.922 146.258 135.922H143.765C143.476 135.922 143.236 136.147 143.219 136.436L141.734 160.937C141.664 162.091 140.707 162.992 139.551 162.992H124.255C123.098 162.992 122.141 162.091 122.071 160.937L120.586 136.436C120.568 136.147 120.329 135.922 120.04 135.922H117.547C117.245 135.922 117 135.677 117 135.375V134.281C117 133.979 117.245 133.734 117.547 133.734H146.258ZM131.766 138.109C131.162 138.109 130.672 138.599 130.672 139.203V158.344C130.672 158.948 131.162 159.438 131.766 159.438C132.37 159.437 132.859 158.948 132.859 158.344V139.203C132.859 138.599 132.37 138.109 131.766 138.109ZM125.956 138.932C125.353 138.968 124.894 139.487 124.931 140.09L126.024 158.137C126.061 158.739 126.58 159.198 127.183 159.162C127.785 159.125 128.245 158.607 128.208 158.004L127.114 139.957C127.077 139.354 126.559 138.895 125.956 138.932ZM138.122 138.932C137.519 138.895 137.001 139.354 136.964 139.957L135.87 158.004C135.834 158.607 136.293 159.125 136.896 159.162C137.498 159.198 138.017 158.739 138.054 158.137L139.147 140.09C139.184 139.487 138.725 138.968 138.122 138.932Z" fill="#181061"/>
<path d="M125.75 135.375V132.641C125.75 131.735 126.485 131 127.391 131H136.414C137.32 131 138.055 131.735 138.055 132.641V135.375" stroke="#181061" stroke-width="2.73438"/>
<path d="M233.894 75.2725H241.697V78.7969H239.157L238.528 99.5684C238.458 101.88 236.564 103.719 234.251 103.719H220.664C218.368 103.719 216.48 101.906 216.388 99.6113L215.547 78.7969H213V75.2725H221.056V72H233.894V75.2725ZM222.816 97.6777H224.83V81.3145H222.816V97.6777ZM229.865 81.3145V97.6777H231.879V81.3145H229.865Z" fill="#0C0966"/>
<path d="M141.969 80.063H120.641C119.735 80.063 119 79.3285 119 78.4224V77.3286C119 76.4225 119.735 75.688 120.641 75.688H141.969C142.875 75.688 143.609 76.4225 143.609 77.3286V78.4224C143.609 79.3285 142.875 80.063 141.969 80.063Z" stroke="#0C0966" stroke-width="1.64063"/>
<path d="M126.115 75.4517C125.842 70.2194 135.686 68.852 136.779 75.4517" stroke="#0C0966" stroke-width="1.64063"/>
<path d="M125.836 87.3667L126.93 101.039" stroke="#0C0966" stroke-width="1.64063" stroke-linecap="round"/>
<path d="M137.594 87.3667L136.227 101.039" stroke="#0C0966" stroke-width="1.64063" stroke-linecap="round"/>
<path d="M131.578 87.3667C131.578 93.133 131.578 100.765 131.578 100.765" stroke="#0C0966" stroke-width="1.64063" stroke-linecap="round"/>
<path d="M122.162 102.067L120.78 84.5671C120.705 83.6131 121.459 82.7974 122.416 82.7974H140.74C141.697 82.7974 142.451 83.6131 142.376 84.5671L140.994 102.067C140.927 102.92 140.215 103.579 139.359 103.579H123.797C122.941 103.579 122.229 102.92 122.162 102.067Z" stroke="#0C0966" stroke-width="1.64063"/>
<path d="M216.729 20.8828L219.031 41.029C219.101 41.6415 219.619 42.104 220.236 42.104H235.336C235.959 42.104 236.481 41.6319 236.543 41.012L238.556 20.8828" stroke="#0C0966" stroke-width="1.81896" stroke-linecap="round"/>
<path d="M221.881 23.0049C222.354 27.9773 222.62 32.2809 223.093 37.2534" stroke="#0C0966" stroke-width="1.81896" stroke-linecap="round"/>
<path d="M233.705 23.0049C233.232 27.9773 232.966 32.2809 232.492 37.2534" stroke="#0C0966" stroke-width="1.81896" stroke-linecap="round"/>
<path d="M227.643 22.7017V37.2533" stroke="#0C0966" stroke-width="1.81896" stroke-linecap="round"/>
<path d="M223.398 16.9411V14.819C223.398 13.8144 224.213 13 225.217 13H230.674C231.679 13 232.493 13.8144 232.493 14.819V16.9411" stroke="#0C0966" stroke-width="2.42528" stroke-linecap="round"/>
<path d="M214 19.0636C219.76 17.5477 232.675 16.8809 241.891 19.0636" stroke="#0C0966" stroke-width="2.42528" stroke-linecap="round"/>
<path d="M124.4 16.1115V14.8669C124.4 13.8358 125.236 13 126.267 13H133.113C134.144 13 134.98 13.8358 134.98 14.8669V16.1115" stroke="#0C0966" stroke-width="1.86692" stroke-linecap="round"/>
<path d="M140.581 41.6265C140.581 42.6575 139.745 43.4937 138.714 43.4937H120.667C119.636 43.4935 118.801 42.6574 118.801 41.6265V21.7124H140.581V41.6265ZM123.467 24.5132C122.78 24.5133 122.223 25.0701 122.223 25.7573V39.1372C122.223 39.8244 122.78 40.3812 123.467 40.3813C124.154 40.3813 124.711 39.8245 124.711 39.1372V25.7573C124.711 25.07 124.154 24.5132 123.467 24.5132ZM129.691 24.5132C129.004 24.5132 128.447 25.07 128.447 25.7573V39.1372C128.447 39.8245 129.004 40.3813 129.691 40.3813C130.379 40.3813 130.935 39.8245 130.936 39.1372V25.7573C130.935 25.0701 130.379 24.5132 129.691 24.5132ZM135.914 24.5132C135.227 24.5132 134.67 25.07 134.67 25.7573V39.1372C134.67 39.8245 135.227 40.3813 135.914 40.3813C136.601 40.3812 137.158 39.8244 137.158 39.1372V25.7573C137.158 25.0701 136.601 24.5133 135.914 24.5132Z" fill="#0C0966"/>
<path d="M141.981 20.4675H117.089C116.488 20.4675 116 19.9799 116 19.3784C116 18.777 116.488 18.2894 117.089 18.2894H117.32C117.67 18.2894 118.006 18.1503 118.254 17.9028L119.498 16.6581C119.848 16.308 120.323 16.1113 120.818 16.1113H138.563C139.058 16.1113 139.533 16.308 139.883 16.6581L141.192 17.9672C141.399 18.1735 141.682 18.2894 141.974 18.2894C142.575 18.2894 143.07 18.777 143.07 19.3784C143.07 19.9799 142.583 20.4675 141.981 20.4675Z" fill="#0C0966"/>
<path d="M50.6355 92.5155H38.8173C38.3152 92.5155 37.9082 92.1085 37.9082 91.6064V90.0912C37.9082 89.5891 38.3152 89.1821 38.8173 89.1821H50.6355C51.1376 89.1821 51.5446 89.5891 51.5446 90.0912V91.6064C51.5446 92.1085 51.1376 92.5155 50.6355 92.5155Z" fill="#0C0966" stroke="#0C0966" stroke-width="0.909092"/>
<path d="M41.548 89.2246C41.3968 86.3253 46.8515 85.5676 47.4571 89.2246" stroke="#0C0966" stroke-width="1.21212"/>
<path d="M50.0293 93.5757C50.7821 93.5759 51.3934 94.1861 51.3936 94.939V104.636C51.3934 105.389 50.7821 105.999 50.0293 106H39.7266C38.9736 106 38.3635 105.389 38.3633 104.636V94.939C38.3634 94.186 38.9735 93.5757 39.7266 93.5757H50.0293ZM41.2422 94.939C40.9075 94.939 40.6357 95.2107 40.6357 95.5454V104.03C40.6357 104.364 40.9075 104.636 41.2422 104.636C41.5769 104.636 41.8486 104.365 41.8486 104.03V95.5454C41.8486 95.2107 41.5769 94.939 41.2422 94.939ZM44.8779 95.0903C44.5435 95.0905 44.2717 95.3624 44.2715 95.6968V103.878C44.2715 104.213 44.5433 104.485 44.8779 104.485C45.2126 104.485 45.4844 104.213 45.4844 103.878V95.6968C45.4841 95.3623 45.2125 95.0903 44.8779 95.0903ZM48.666 94.939C48.3313 94.939 48.0596 95.2107 48.0596 95.5454V103.878C48.0596 104.213 48.3313 104.485 48.666 104.485C49.0007 104.485 49.2725 104.213 49.2725 103.878V95.5454C49.2725 95.2107 49.0007 94.939 48.666 94.939Z" fill="#0C0966"/>
<circle cx="30.7866" cy="77.5152" r="6.51516" fill="#0C0966"/>
<path d="M27.3065 84.7229C20.711 86.7189 17.7881 93.5197 17.065 97.0244C17.02 97.2424 17.0649 97.4716 17.1868 97.6578C22.1283 105.207 33.0164 103.812 37.4546 102.515V93.5756H37.3031C36.9683 93.5756 36.697 93.3043 36.697 92.9696V89.5658C36.697 88.757 37.3322 88.0908 38.1401 88.0524L39.8788 87.9696C38.577 86.9932 35.5194 85.3372 34.3123 84.7829C34.0943 84.6828 33.8478 84.6945 33.6235 84.7795C31.473 85.5949 29.0901 85.157 27.8954 84.7447C27.7054 84.6791 27.499 84.6646 27.3065 84.7229Z" fill="#0C0966"/>
<path d="M240.094 138.5L219.457 136.137C219.05 136.09 218.758 135.723 218.804 135.316C218.851 134.909 219.219 134.616 219.626 134.663L240.263 137.026C240.67 137.073 240.962 137.44 240.916 137.847C240.869 138.254 240.501 138.547 240.094 138.5Z" fill="#0C0966" stroke="#0C0966" stroke-width="1.48371"/>
<ellipse cx="230.357" cy="134.398" rx="3.95657" ry="2.96743" transform="rotate(6.53191 230.357 134.398)" fill="#0C0966"/>
<path d="M220.609 141.275C212.043 142.87 212.538 148.558 213.527 151.772C214.269 148.558 220.073 146.085 222.182 146.085L222.754 148.886L228.116 141.881L220.073 138.914L220.609 141.275Z" fill="#0C0966"/>
<path d="M237.828 140.433C239.159 140.433 240.193 141.594 240.039 142.916L237.911 161.18C237.78 162.301 236.831 163.147 235.701 163.147H223.738C222.619 163.147 221.673 162.316 221.53 161.205L219.77 147.463C220.375 147.258 221.009 147.123 221.688 147.074L222.229 148.968L223.681 159.85C223.771 160.526 224.393 161.001 225.069 160.911C225.746 160.821 226.222 160.199 226.132 159.522L224.593 147.982L229.354 141.634L226.599 140.433H237.828ZM229.604 143.612C228.922 143.612 228.368 144.166 228.368 144.849V159.686C228.368 160.368 228.922 160.922 229.604 160.922C230.287 160.922 230.841 160.368 230.841 159.686V144.849C230.841 144.166 230.287 143.613 229.604 143.612ZM236.443 143.623C235.767 143.533 235.145 144.009 235.055 144.686L233.076 159.522C232.986 160.199 233.462 160.821 234.139 160.911C234.815 161.001 235.437 160.526 235.527 159.85L237.506 145.012C237.596 144.335 237.12 143.713 236.443 143.623Z" fill="#0C0966"/>
<path d="M24.1211 140.257L26.4955 161.034C26.5677 161.665 27.1023 162.142 27.738 162.142H43.3112C43.9537 162.142 44.4916 161.656 44.5556 161.016L46.6314 140.257" stroke="#0C0966" stroke-width="1.87586" stroke-linecap="round"/>
<path d="M29.2031 141.998C29.6915 147.126 30.1977 152.012 30.6861 157.14" stroke="#0C0966" stroke-width="1.87586" stroke-linecap="round"/>
<path d="M41.8926 141.998C41.4042 147.126 40.866 152.012 40.3776 157.14" stroke="#0C0966" stroke-width="1.87586" stroke-linecap="round"/>
<path d="M35.377 141.716C35.377 147.577 35.377 151.28 35.377 157.14" stroke="#0C0966" stroke-width="1.87586" stroke-linecap="round"/>
<path d="M29.7656 135.512V132.876C29.7656 131.84 30.6055 131 31.6415 131H39.7334C40.7695 131 41.6093 131.84 41.6093 132.876V135.512" stroke="#0C0966" stroke-width="2.50115" stroke-linecap="round"/>
<path d="M23 136.076H48.0973" stroke="#0C0966" stroke-width="2.25594" stroke-linecap="round"/>
</svg>
