<svg width="260" height="178" viewBox="0 0 260 178" fill="none" xmlns="http://www.w3.org/2000/svg">
<path d="M129.57 31.9083C129.919 32.6961 130.253 33.4897 130.573 34.2891C130.694 34.5939 130.814 34.8997 130.932 35.2062C131.414 34.7634 131.901 34.3264 132.396 33.8963L132.942 33.2759L133.278 34.1044C133.448 34.7637 133.608 35.4264 133.76 36.0919C134.276 36.1722 134.793 36.2579 135.309 36.3496C135.641 36.4087 135.973 36.4702 136.306 36.534C135.969 36.5643 135.632 36.5923 135.296 36.6179C134.684 36.6645 134.073 36.7034 133.462 36.7344L133.198 36.6941L133.155 36.5009C132.97 36.0889 132.789 35.6753 132.612 35.2606C132.127 35.8057 131.634 36.3435 131.133 36.8729L130.374 37.5936L130.023 36.645C129.76 36.038 129.506 35.4275 129.261 34.8137C129.186 34.6273 129.112 34.4405 129.039 34.2534C128.814 34.9973 128.578 35.7385 128.328 36.4766L128.223 36.7871L127.968 36.7623C127.267 36.6941 126.565 36.6157 125.864 36.5268C125.529 36.4845 125.194 36.4398 124.859 36.3927C125.194 36.3456 125.529 36.301 125.864 36.2586C126.457 36.1835 127.05 36.116 127.643 36.0557C127.829 34.6961 128.053 33.3453 128.315 32.0035L128.756 29.9647L129.57 31.9083Z" fill="black"/>
<path d="M121.893 34.8382C121.893 32.653 120.122 30.8815 117.937 30.8815H115.817C115.503 30.8815 115.212 30.7786 114.978 30.605L114.804 37.53C114.759 39.3079 116.188 40.7733 117.967 40.7733C120.135 40.7732 121.893 39.0152 121.893 36.8466V34.8382ZM136.307 37.1643V34.8382C136.307 31.0921 139.344 28.0553 143.09 28.0553H145.634V24.8052C145.634 16.5325 138.927 9.82621 130.655 9.82621H130.107C121.981 9.82621 115.337 16.3056 115.133 24.4292L115.036 28.2907C115.26 28.1419 115.528 28.0553 115.817 28.0553H117.937C121.683 28.0553 124.72 31.0921 124.72 34.8382V36.8466C124.72 40.5761 121.696 43.5995 117.967 43.5995C114.6 43.5995 111.894 40.8251 111.978 37.4591L112.307 24.3583C112.55 14.7019 120.448 7 130.107 7H130.655C140.488 7 148.46 14.9716 148.46 24.8052V37.8819C148.46 41.0396 145.9 43.5994 142.742 43.5995C139.188 43.5995 136.307 40.7183 136.307 37.1643ZM139.133 37.1643C139.133 39.1574 140.749 40.7733 142.742 40.7733C144.339 40.7732 145.634 39.4787 145.634 37.8819V30.8815H143.09C140.905 30.8815 139.133 32.653 139.133 34.8382V37.1643Z" fill="black"/>
<path d="M25.5145 67.7184V82.2875H22.6641V67.7184H25.5145Z" fill="black"/>
<path d="M35.8153 68.035V82.6042H32.9648V68.035H35.8153Z" fill="black"/>
<path d="M44.2058 84.5045H12.8505V95.273C12.8505 98.509 15.4738 101.132 18.7098 101.132H38.3464C41.5825 101.132 44.2058 98.509 44.2058 95.273V84.5045ZM47.0562 95.273C47.0562 100.083 43.1567 103.983 38.3464 103.983H18.7098C13.8995 103.983 10 100.083 10 95.273V81.6541H47.0562V95.273Z" fill="black"/>
<path d="M22.6692 68.3518C22.6692 67.1133 22.2593 66.5244 21.7964 66.165C21.2253 65.7217 20.1823 65.3429 18.5519 65.3429C17.1238 65.3429 15.7249 65.819 14.7404 66.5727C13.7895 67.3007 13.3309 68.1823 13.3309 69.1436C13.3334 71.3673 14.0748 72.6594 14.9186 73.4205C15.8171 74.2309 17.1107 74.6862 18.5519 74.6862V77.5366C14.5287 77.5366 10.4854 75.0029 10.4805 69.1436C10.4805 65.1204 14.5287 62.4924 18.5519 62.4924C22.575 62.4924 25.5197 64.3286 25.5197 68.3518L25.5176 68.541C25.4275 72.5349 22.5122 77.5366 18.5519 77.5366V74.6862C19.2641 74.6862 20.2461 74.2123 21.1995 72.8325C22.1325 71.4822 22.6692 69.7452 22.6692 68.3518Z" fill="black"/>
<path d="M35.8112 68.1944C35.8112 66.956 36.2212 66.367 36.6841 66.0077C37.2552 65.5643 38.2982 65.1856 39.9286 65.1856C41.3567 65.1856 42.7556 65.6616 43.7401 66.4153C44.6909 67.1433 45.1495 68.0249 45.1495 68.9862C45.1471 71.2099 44.4057 72.5021 43.5619 73.2632C42.6634 74.0736 41.3697 74.5288 39.9286 74.5288V77.3793L40.1173 77.3774C44.0772 77.2993 47.9951 74.7539 48 68.9862C48 64.9631 43.9517 62.3351 39.9286 62.3351C35.9054 62.3351 32.9608 64.1713 32.9608 68.1944L32.9629 68.3837C33.053 72.3775 35.9683 77.3793 39.9286 77.3793V74.5288C39.2163 74.5288 38.2343 74.0549 37.281 72.6752C36.348 71.3248 35.8112 69.5878 35.8112 68.1944Z" fill="black"/>
<path d="M27.1055 89.7304V87.1967C27.1055 86.497 27.6727 85.9298 28.3723 85.9298C29.072 85.9298 29.6392 86.497 29.6392 87.1967V89.7304C29.6392 90.4301 29.072 90.9973 28.3723 90.9973C27.6727 90.9973 27.1055 90.4301 27.1055 89.7304Z" fill="black"/>
<path d="M107.547 91.4997V70.92C107.547 69.054 109.06 67.5413 110.926 67.5413H130.246C130.924 67.5413 131.474 68.0914 131.474 68.7699C131.474 69.4484 130.924 69.9985 130.246 69.9985H110.926C110.417 69.9985 110.004 70.4111 110.004 70.92V91.4997C110.004 92.0086 110.417 92.4212 110.926 92.4212H145.635C146.144 92.4212 146.556 92.0086 146.556 91.4997V85.6142C146.556 84.9356 147.106 84.3856 147.785 84.3856C148.463 84.3856 149.013 84.9356 149.013 85.6142V91.4997C149.013 93.3658 147.501 94.8785 145.635 94.8785H110.926C109.06 94.8785 107.547 93.3658 107.547 91.4997Z" fill="black"/>
<path d="M146.566 91.7642C147.098 91.3435 147.871 91.434 148.292 91.9664L155.424 100.991C156.22 101.998 155.503 103.479 154.219 103.479H102.539C101.225 103.479 100.517 101.936 101.376 100.94L108.617 92.5405C109.06 92.0266 109.836 91.9691 110.349 92.4121C110.863 92.8552 110.921 93.6308 110.478 94.1447L104.55 101.022H152.316L146.364 93.4902C145.943 92.9578 146.034 92.185 146.566 91.7642Z" fill="black"/>
<path d="M134.96 96.8749L137.677 100.407H119.047L121.764 96.8749H134.96ZM122.166 98.8714H134.558L134.204 98.4107H122.52L122.166 98.8714Z" fill="black"/>
<path d="M129.979 81.517V87.6602H123.836V81.517H129.979ZM125.986 85.51H127.829V83.6671H125.986V85.51Z" fill="black"/>
<path d="M133.046 74.4523V80.5955H126.902V74.4523H133.046ZM129.052 78.4453H130.895V76.6024H129.052V78.4453Z" fill="black"/>
<path d="M138.422 67.5413V73.3773H132.586V67.5413H138.422ZM134.429 71.5343H136.579V69.3842H134.429V71.5343Z" fill="black"/>
<path d="M136.577 81.3634V86.5851H131.355V81.3634H136.577ZM133.198 84.7422H134.734V83.2064H133.198V84.7422Z" fill="black"/>
<path d="M139.647 74.6058V79.8276H134.426V74.6058H139.647ZM136.269 77.9846H137.805V76.4488H136.269V77.9846Z" fill="black"/>
<path d="M144.409 80.5955V86.7387H138.266V80.5955H144.409ZM140.416 84.5885H142.259V82.7456H140.416V84.5885Z" fill="black"/>
<path d="M154.089 74.6058V83.5135H145.488V74.6058H154.089ZM147.946 81.0562H151.631V77.0631H147.946V81.0562Z" fill="black"/>
<path d="M146.868 66.7733V74.1452H139.496V66.7733H146.868ZM141.646 71.995H144.718V68.9234H141.646V71.995Z" fill="black"/>
<path d="M146.1 59.8622V66.0054H139.957V59.8622H146.1ZM141.8 64.1624H144.257V61.7051H141.8V64.1624Z" fill="black"/>
<path d="M158.999 59.2478V70.6127H147.941V59.2478H158.999ZM150.399 68.1554H156.542V61.7051H150.399V68.1554Z" fill="black"/>
<path d="M25.3297 31.7913C26.1782 32.7206 27.7548 33.8582 29.6666 34.2192C31.5261 34.5703 33.7816 34.2047 36.122 32.0137L37.2728 33.2433C34.548 35.7942 31.7516 36.3268 29.3541 35.8741C27.0089 35.4312 25.1234 34.0632 24.0859 32.9269L25.3297 31.7913Z" fill="black"/>
<path d="M39.834 23.3752C39.834 24.1549 39.2284 24.7927 38.462 24.8449C37.9031 27.012 36.5405 28.5453 35.066 29.5767C33.4512 30.7062 31.6609 31.2669 30.4943 31.4407L30.3438 31.4631L30.195 31.4314C25.3195 30.3941 23.3246 27.0194 22.7947 24.843C22.039 24.7799 21.4453 24.1472 21.4453 23.3752V22.5249H23.1294V23.1647H24.2599L24.3374 23.9208C24.4847 25.3573 25.867 28.7203 30.3946 29.7504C31.3459 29.5842 32.797 29.1088 34.1008 28.1968C35.4607 27.2456 36.618 25.8536 36.9489 23.8684L37.0663 23.1647H38.1499V22.7944H39.834V23.3752Z" fill="black"/>
<path d="M24.5425 30.8762V27.7787H26.2266V30.8762C26.2266 32.3743 25.1739 33.6664 23.7066 33.9689L15.4366 35.674C14.0256 35.9649 12.9558 37.1212 12.7751 38.5504L11.671 47.2833L10 47.0719L11.1042 38.3391C11.3752 36.1952 12.9799 34.461 15.0963 34.0246L23.3666 32.3195C24.0513 32.1783 24.5425 31.5753 24.5425 30.8762Z" fill="black"/>
<path d="M36.5981 30.8762V27.7787H34.914V30.8762C34.914 32.3743 35.9667 33.6664 37.434 33.9689L45.7041 35.674C47.1151 35.9649 48.1848 37.1212 48.3655 38.5504L49.4697 47.2833L51.1406 47.0719L50.0365 38.3391C49.7654 36.1952 48.1608 34.461 46.0443 34.0246L37.774 32.3195C37.0893 32.1783 36.5981 31.5753 36.5981 30.8762Z" fill="black"/>
<path d="M29.8314 6.21153C33.0892 5.8914 36.6031 7.3502 38.9162 11.4703L37.4475 12.2946C35.4497 8.736 32.5646 7.63522 29.9961 7.88762C27.3558 8.14708 25.0184 9.83006 24.1405 11.9369L22.5859 11.2891C23.7288 8.54629 26.6453 6.52461 29.8314 6.21153Z" fill="black"/>
<path d="M33.5009 4.84351V11.3435H31.8168V6.52761H29.5943V11.3435H27.9102V4.84351H33.5009Z" fill="black"/>
<path d="M19.4258 19.6735V14.3951C19.4258 12.8197 20.4055 11.2856 22.1479 11.0332C26.1458 10.4541 33.9879 10.397 38.7799 11.0472C40.6589 11.3022 41.8559 12.9525 41.856 14.7289V19.8423C41.856 21.7118 40.5464 23.3885 38.6199 23.6478C34.5914 24.19 28.2926 24.4965 22.5113 23.4665C20.6546 23.1357 19.4258 21.4835 19.4258 19.6735ZM21.1099 19.6735C21.1099 20.7445 21.8272 21.634 22.8067 21.8085C28.3614 22.7981 34.4741 22.5064 38.3954 21.9787C39.4135 21.8417 40.1719 20.944 40.1719 19.8423V14.7289C40.1718 13.6726 39.4816 12.8421 38.5535 12.7161C33.9106 12.0861 26.226 12.1441 22.3892 12.6999C21.6517 12.8067 21.1099 13.4647 21.1099 14.3951V19.6735Z" fill="black"/>
<path d="M22.418 17.3794C22.418 16.9144 22.795 16.5374 23.26 16.5374C23.7251 16.5374 24.1021 16.9144 24.1021 17.3794V18.9583H36.9434V17.3794C36.9434 16.9144 37.3204 16.5374 37.7855 16.5374C38.2505 16.5374 38.6275 16.9144 38.6275 17.3794V20.6424H22.418V17.3794Z" fill="black"/>
<path d="M27.3568 14.2219C27.3568 14.1056 27.2626 14.0114 27.1463 14.0114C27.0301 14.0114 26.9358 14.1056 26.9358 14.2219C26.9358 14.3381 27.0301 14.4324 27.1463 14.4324V15.2744C26.565 15.2744 26.0938 14.8032 26.0938 14.2219C26.0938 13.6406 26.565 13.1693 27.1463 13.1693C27.7276 13.1693 28.1989 13.6406 28.1989 14.2219C28.1989 14.8032 27.7276 15.2744 27.1463 15.2744V14.4324C27.2626 14.4324 27.3568 14.3381 27.3568 14.2219Z" fill="black"/>
<path d="M30.517 14.2219C30.517 14.1056 30.4227 14.0114 30.3065 14.0114C30.1902 14.0114 30.096 14.1056 30.096 14.2219C30.096 14.3381 30.1902 14.4324 30.3065 14.4324V15.2744C29.7252 15.2744 29.2539 14.8032 29.2539 14.2219C29.2539 13.6406 29.7252 13.1693 30.3065 13.1693C30.8878 13.1693 31.359 13.6406 31.359 14.2219C31.359 14.8032 30.8878 15.2744 30.3065 15.2744V14.4324C30.4227 14.4324 30.517 14.3381 30.517 14.2219Z" fill="black"/>
<path d="M33.6732 14.2219C33.6732 14.1056 33.579 14.0114 33.4627 14.0114C33.3465 14.0114 33.2522 14.1056 33.2522 14.2219C33.2522 14.3381 33.3465 14.4324 33.4627 14.4324V15.2744C32.8814 15.2744 32.4102 14.8032 32.4102 14.2219C32.4102 13.6406 32.8814 13.1693 33.4627 13.1693C34.044 13.1693 34.5153 13.6406 34.5153 14.2219C34.5153 14.8032 34.044 15.2744 33.4627 15.2744V14.4324C33.579 14.4324 33.6732 14.3381 33.6732 14.2219Z" fill="black"/>
<path d="M242.597 11.7699V14.376H215.957V11.7699H242.597Z" fill="black"/>
<path d="M238.692 37.975V40.581H220.016V37.975H238.692Z" fill="black"/>
<path d="M238.692 42.3187V44.9248H220.016V42.3187H238.692Z" fill="black"/>
<path d="M215.383 45.7933V34.9347C215.383 34.2151 215.966 33.6317 216.686 33.6317C217.405 33.6317 217.989 34.2151 217.989 34.9347V45.7933C217.989 46.8328 218.832 47.6755 219.871 47.6755H239.127C240.166 47.6755 241.009 46.8328 241.009 45.7933V34.9347C241.009 34.2151 241.592 33.6317 242.312 33.6317C243.032 33.6317 243.615 34.2151 243.615 34.9347V45.7933C243.615 48.2721 241.606 50.2815 239.127 50.2815H219.871C217.392 50.2815 215.383 48.2721 215.383 45.7933Z" fill="black"/>
<path d="M215.383 8.5846V19.4432C215.383 20.1628 215.966 20.7462 216.686 20.7462C217.405 20.7462 217.989 20.1628 217.989 19.4432V8.5846C217.989 7.54512 218.832 6.70245 219.871 6.70245H239.127C240.166 6.70245 241.009 7.54512 241.009 8.5846V19.4432C241.009 20.1628 241.592 20.7462 242.312 20.7462C243.032 20.7462 243.615 20.1628 243.615 19.4432V8.5846C243.615 6.10583 241.606 4.09639 239.127 4.09639H219.871C217.392 4.09639 215.383 6.10583 215.383 8.5846Z" fill="black"/>
<path d="M248.394 34.5004V25.9583C248.394 23.1597 246.125 20.891 243.327 20.891H215.673C212.875 20.891 210.606 23.1597 210.606 25.9583V34.5004C210.606 37.299 212.875 39.5677 215.673 39.5677H216.542C217.262 39.5677 217.845 40.1511 217.845 40.8708C217.845 41.5904 217.262 42.1738 216.542 42.1738H215.673C211.435 42.1738 208 38.7383 208 34.5004V25.9583C208 21.7204 211.435 18.2849 215.673 18.2849H243.327C247.564 18.2849 251 21.7204 251 25.9583V34.5004C251 38.7383 247.565 42.1738 243.327 42.1738H242.458C241.738 42.1738 241.155 41.5904 241.155 40.8708C241.155 40.1511 241.738 39.5677 242.458 39.5677H243.327C246.125 39.5677 248.394 37.299 248.394 34.5004Z" fill="black"/>
<path d="M244.049 33.0525C244.769 33.0525 245.352 33.6359 245.352 34.3555C245.352 35.0752 244.769 35.6586 244.049 35.6586H214.658C213.939 35.6586 213.355 35.0752 213.355 34.3555C213.355 33.6359 213.939 33.0525 214.658 33.0525H244.049Z" fill="black"/>
<path d="M243.181 25.3793C243.181 26.1789 242.533 26.8271 241.733 26.8271C240.933 26.8271 240.285 26.1789 240.285 25.3793C240.285 24.5797 240.933 23.9315 241.733 23.9315C242.533 23.9315 243.181 24.5797 243.181 25.3793Z" fill="black"/>
<path d="M115.16 126.827C115.732 126.169 116.731 126.099 117.39 126.672C118.049 127.245 118.119 128.244 117.546 128.903C116.654 129.928 115.437 132.622 117.587 135.31C118.133 135.991 118.022 136.986 117.34 137.532C116.659 138.077 115.663 137.967 115.118 137.285C111.646 132.946 113.709 128.496 115.16 126.827Z" fill="black"/>
<path d="M127.38 126.652C126.807 125.993 125.808 125.924 125.149 126.496C124.49 127.069 124.421 128.068 124.994 128.727C125.885 129.752 127.102 132.447 124.952 135.134C124.407 135.816 124.517 136.811 125.199 137.356C125.881 137.902 126.876 137.792 127.421 137.11C130.893 132.77 128.83 128.32 127.38 126.652Z" fill="black"/>
<path d="M110.811 124.368C111.287 123.636 112.266 123.428 112.998 123.904C113.73 124.38 113.938 125.359 113.462 126.092C112.1 128.188 110.315 133.415 113.43 137.848C113.932 138.563 113.76 139.549 113.046 140.051C112.331 140.553 111.345 140.38 110.843 139.666C106.65 133.699 109.128 126.957 110.811 124.368Z" fill="black"/>
<path d="M131.728 124.193C131.252 123.461 130.273 123.253 129.541 123.728C128.809 124.204 128.601 125.184 129.077 125.916C130.44 128.012 132.224 133.239 129.109 137.672C128.607 138.387 128.779 139.373 129.493 139.875C130.208 140.377 131.194 140.205 131.696 139.49C135.889 133.523 133.411 126.781 131.728 124.193Z" fill="black"/>
<path d="M106.107 122.373C106.618 121.665 107.606 121.504 108.315 122.015C109.023 122.526 109.183 123.514 108.672 124.222C107.153 126.33 104.758 132.717 108.779 140.11C109.196 140.877 108.912 141.837 108.145 142.254C107.378 142.671 106.418 142.388 106.001 141.621C101.308 132.992 103.996 125.301 106.107 122.373Z" fill="black"/>
<path d="M136.432 122.197C135.921 121.489 134.933 121.329 134.225 121.839C133.516 122.35 133.356 123.338 133.867 124.046C135.386 126.154 137.781 132.541 133.76 139.934C133.343 140.701 133.627 141.661 134.394 142.078C135.161 142.495 136.121 142.212 136.538 141.445C141.231 132.816 138.543 125.125 136.432 122.197Z" fill="black"/>
<path d="M151.838 150.176C151.838 149.109 150.973 148.243 149.905 148.243H108.095C107.027 148.243 106.162 149.109 106.162 150.176V158.608C106.162 159.676 107.027 160.541 108.095 160.541H149.905C150.973 160.541 151.838 159.676 151.838 158.608V150.176ZM155 158.608C155 161.422 152.719 163.703 149.905 163.703H108.095C105.281 163.703 103 161.422 103 158.608V150.176C103 147.362 105.281 145.081 108.095 145.081H149.905C152.719 145.081 155 147.362 155 150.176V158.608Z" fill="black"/>
<path d="M119.516 145.784V136.473C119.516 135.6 120.223 134.892 121.097 134.892C121.97 134.892 122.678 135.6 122.678 136.473V145.784C122.678 146.657 121.97 147.365 121.097 147.365C120.223 147.365 119.516 146.657 119.516 145.784Z" fill="black"/>
<path d="M123.201 132.081C123.201 133.148 122.336 134.014 121.268 134.014C120.201 134.014 119.336 133.148 119.336 132.081C119.336 131.014 120.201 130.149 121.268 130.149C122.336 130.149 123.201 131.014 123.201 132.081Z" fill="black"/>
<path d="M117.231 154.392C117.231 155.944 115.973 157.203 114.42 157.203C112.868 157.203 111.609 155.944 111.609 154.392C111.609 152.84 112.868 151.581 114.42 151.581C115.973 151.581 117.231 152.84 117.231 154.392Z" fill="black"/>
<path d="M127.067 154.392C127.067 155.944 125.808 157.203 124.256 157.203C122.704 157.203 121.445 155.944 121.445 154.392C121.445 152.84 122.704 151.581 124.256 151.581C125.808 151.581 127.067 152.84 127.067 154.392Z" fill="black"/>
<path d="M136.907 154.392C136.907 155.944 135.648 157.203 134.096 157.203C132.544 157.203 131.285 155.944 131.285 154.392C131.285 152.84 132.544 151.581 134.096 151.581C135.648 151.581 136.907 152.84 136.907 154.392Z" fill="black"/>
<path d="M146.743 154.392C146.743 155.944 145.484 157.203 143.932 157.203C142.38 157.203 141.121 155.944 141.121 154.392C141.121 152.84 142.38 151.581 143.932 151.581C145.484 151.581 146.743 152.84 146.743 154.392Z" fill="black"/>
<path d="M245.018 94.1763V96.8555H231.473V94.1763H245.018Z" fill="black"/>
<path d="M214.058 93.5808V97.4508H211.379V93.5808H214.058Z" fill="black"/>
<path d="M222.093 93.5808V97.4508H219.414V93.5808H222.093Z" fill="black"/>
<path d="M204.679 101.321H249.63V90.0086H204.679V101.321ZM252.31 101.618C252.31 102.934 251.243 104 249.928 104H204.382C203.066 104 202 102.934 202 101.618V89.7109C202 88.3956 203.066 87.3293 204.382 87.3293H249.928C251.243 87.3293 252.31 88.3956 252.31 89.7109V101.618Z" fill="black"/>
<path d="M213.906 66.4911V88.2224H211.227V66.4911H213.906Z" fill="black"/>
<path d="M243.23 66.4911V88.2224H240.551V66.4911H243.23Z" fill="black"/>
<path d="M43.9184 166.637V167.993H42.8477V166.637H43.9184Z" fill="black"/>
<path d="M46.4033 133.387V144.245H44.2348V135.556H35.5039V133.387H46.4033Z" fill="black"/>
<path d="M22.5108 165.894V155.088H24.6793V163.725H33.4102V165.894H22.5108Z" fill="black"/>
<path d="M45.297 143.4L47.5457 140.887L49.1618 142.333L45.3425 146.601L41.3203 142.356L42.8948 140.864L45.297 143.4Z" fill="black"/>
<path d="M23.617 155.881L21.3684 158.394L19.7523 156.949L23.5715 152.68L27.5938 156.926L26.0193 158.417L23.617 155.881Z" fill="black"/>
<path d="M38.5786 168.187H47.8315V151.439H38.5786V168.187ZM50 169C50 169.749 49.3932 170.355 48.6447 170.355H37.7655C37.0169 170.355 36.4102 169.749 36.4102 169V150.626C36.4102 149.877 37.0169 149.27 37.7655 149.27H48.6447C49.3932 149.27 50 149.877 50 150.626V169Z" fill="black"/>
<path d="M48.5629 152.532V153.888H37.8555V152.532H48.5629Z" fill="black"/>
<path d="M48.8988 164.981V166.337H38.1914V164.981H48.8988Z" fill="black"/>
<path d="M22.8755 143.752V146.964H20.707V143.752H22.8755Z" fill="black"/>
<path d="M25.0065 146.415V148.584H18.582V146.415H25.0065Z" fill="black"/>
<path d="M12.1685 127.168V142.132H31.772V127.168H12.1685ZM33.9404 142.132C33.9404 143.33 32.9695 144.301 31.772 144.301H12.1685C10.9709 144.301 10.0001 143.33 10 142.132V127.168C10 125.971 10.9709 125 12.1685 125H31.772C32.9696 125 33.9404 125.971 33.9404 127.168V142.132Z" fill="black"/>
<path d="M228.566 137.745V131.985C228.566 131.269 229.147 130.689 229.862 130.689C230.578 130.689 231.158 131.269 231.158 131.985V137.745C231.158 138.461 230.578 139.041 229.862 139.041C229.147 139.041 228.566 138.461 228.566 137.745Z" fill="black"/>
<path d="M230.292 140.913C230.292 140.674 230.099 140.481 229.86 140.481C229.621 140.481 229.428 140.674 229.428 140.913V146.385C229.428 146.624 229.621 146.817 229.86 146.817C230.099 146.817 230.292 146.624 230.292 146.385V140.913ZM232.884 146.385C232.884 148.055 231.53 149.409 229.86 149.409C228.19 149.409 226.836 148.055 226.836 146.385V140.913C226.836 139.243 228.19 137.889 229.86 137.889C231.53 137.889 232.884 139.243 232.884 140.913V146.385Z" fill="black"/>
<path d="M221.867 131.798C224.548 129.96 227.571 129.968 230.001 130.248C233.553 129.823 236.689 130.521 239.14 132.777C241.577 135.021 243.143 138.629 243.956 143.583C244.818 148.833 245.083 154.906 243.274 159.731C242.358 162.172 240.896 164.334 238.681 165.877C236.466 167.421 233.601 168.274 230.005 168.274C226.704 168.274 223.962 167.731 221.759 166.592C219.532 165.44 217.933 163.717 216.882 161.504C214.826 157.176 214.897 151.028 216.052 143.594C217.03 137.301 219.114 133.686 221.867 131.798ZM229.849 132.839C227.553 132.561 225.266 132.61 223.333 133.935C221.414 135.251 219.538 138.045 218.614 143.992C217.464 151.39 217.534 156.835 219.223 160.391C220.044 162.12 221.252 163.412 222.95 164.29C224.671 165.18 226.969 165.682 230.005 165.682C233.184 165.682 235.503 164.933 237.2 163.751C238.897 162.568 240.075 160.879 240.847 158.821C242.412 154.646 242.24 149.127 241.398 144.003C240.627 139.308 239.21 136.365 237.385 134.684C235.61 133.051 233.259 132.44 230.171 132.838L230.01 132.859L229.849 132.839Z" fill="black"/>
<path d="M228.869 116.459C229.317 115.929 230.099 115.849 230.644 116.265L230.696 116.307L230.762 116.365C232.139 117.608 232.27 120.253 229.699 123.314C229.195 123.915 229.003 124.371 228.942 124.681C228.884 124.974 228.929 125.2 229.023 125.395C229.24 125.85 229.79 126.252 230.318 126.453C230.988 126.707 231.325 127.455 231.071 128.124C230.817 128.793 230.068 129.13 229.399 128.876C228.536 128.548 227.3 127.799 226.685 126.514C226.362 125.839 226.228 125.047 226.399 124.181C226.566 123.332 227.009 122.486 227.715 121.647C229.803 119.16 228.956 118.239 229 118.268L229.022 118.286C228.475 117.823 228.407 117.005 228.869 116.459Z" fill="black"/>
</svg>
