<svg width="260" height="178" viewBox="0 0 260 178" fill="none" xmlns="http://www.w3.org/2000/svg">
<path d="M22.323 43.0001C18.1495 43.0001 16.2053 43.0001 14.7526 41.7035C13.2999 40.407 12.9331 38.2172 12.1994 33.8376L10.119 21.4181C9.78055 19.398 9.61135 18.3879 10.1324 17.7245C10.6534 17.0612 11.6159 17.0612 13.541 17.0612H38.2606C40.1856 17.0612 41.1482 17.0612 41.6692 17.7245C42.1902 18.3879 42.021 19.398 41.6826 21.4181L41.2138 24.2167" stroke="black" stroke-width="2.96501" stroke-linecap="round"/>
<path d="M27.9411 29.4794C30.0998 28.1716 31.9839 28.6986 33.1158 29.5381C33.5799 29.8823 33.8119 30.0544 33.9484 30.0544C34.085 30.0544 34.317 29.8823 34.7811 29.5381C35.9129 28.6986 37.7971 28.1716 39.9558 29.4794C42.7889 31.1957 43.43 36.8581 36.8951 41.6352C35.6504 42.5451 35.0281 43.0001 33.9484 43.0001C32.8688 43.0001 32.2464 42.5451 31.0018 41.6352C24.4669 36.8581 25.108 31.1957 27.9411 29.4794Z" stroke="black" stroke-width="2.96501" stroke-linecap="round"/>
<path d="M16.9531 17.0611V16.1666C16.9531 11.2267 20.9577 7.22217 25.8976 7.22217C30.8374 7.22217 34.842 11.2267 34.842 16.1666V17.0611" stroke="black" stroke-width="2.96501"/>
<path d="M12.4844 34.9501H21.4288" stroke="black" stroke-width="2.96501" stroke-linecap="round"/>
<path d="M145.125 39.125C145.125 41.8174 142.942 44 140.25 44C137.558 44 135.375 41.8174 135.375 39.125C135.375 36.4326 137.558 34.25 140.25 34.25C142.942 34.25 145.125 36.4326 145.125 39.125Z" stroke="black" stroke-width="2.83065"/>
<path d="M125.625 39.125C125.625 41.8174 123.442 44 120.75 44C118.058 44 115.875 41.8174 115.875 39.125C115.875 36.4326 118.058 34.25 120.75 34.25C123.442 34.25 125.625 36.4326 125.625 39.125Z" stroke="black" stroke-width="2.83065"/>
<path d="M135.375 39.125H125.625M145.125 39.125H146.613C147.042 39.125 147.257 39.125 147.437 39.1026C148.765 38.937 149.812 37.8904 149.978 36.5618C150 36.3816 150 36.1672 150 35.7382V30.35C150 23.3498 144.325 17.675 137.325 17.675M128.55 12.8H130.5C133.258 12.8 134.637 12.8 135.493 13.6568C136.35 14.5135 136.35 15.8923 136.35 18.65V35.225M111 24.5V34.25C111 36.0725 111 36.9838 111.392 37.6625C111.649 38.1072 112.018 38.4765 112.463 38.7332C113.141 39.125 114.052 39.125 115.875 39.125" stroke="black" stroke-width="2.83065" stroke-linecap="round" stroke-linejoin="round"/>
<path d="M122.408 16.4075L119.775 14.6525V10.265M111 13.775C111 18.6213 114.929 22.55 119.775 22.55C124.621 22.55 128.55 18.6213 128.55 13.775C128.55 8.9287 124.621 5 119.775 5C114.929 5 111 8.9287 111 13.775Z" stroke="black" stroke-width="2.83065" stroke-linecap="round" stroke-linejoin="round"/>
<path d="M239.865 8.55926L227.668 14.414C226.729 14.8646 225.726 14.9775 224.704 14.7484C224.035 14.5985 223.7 14.5236 223.431 14.4928C220.085 14.1108 218 16.7586 218 19.8035V21.4746C218 24.5194 220.085 27.1673 223.431 26.7853C223.7 26.7545 224.035 26.6796 224.704 26.5297C225.726 26.3006 226.729 26.4135 227.668 26.8641L239.865 32.7188C242.665 34.0628 244.065 34.7348 245.625 34.211C247.186 33.6872 247.722 32.5633 248.793 30.3154C251.736 24.1428 251.736 17.1353 248.793 10.9626C247.722 8.71478 247.186 7.59085 245.625 7.06706C244.065 6.54326 242.665 7.21526 239.865 8.55926Z" stroke="black" stroke-width="3.15952" stroke-linecap="round" stroke-linejoin="round"/>
<path d="M233.509 41.3022L230.775 43.5555C224.612 38.6677 225.365 36.3368 225.365 27.0555H227.444C228.287 32.3006 230.277 34.7849 233.023 36.5834C234.714 37.6912 235.063 40.0218 233.509 41.3022Z" stroke="black" stroke-width="3.15952" stroke-linecap="round" stroke-linejoin="round"/>
<path d="M226.25 26.1389V15.1389" stroke="black" stroke-width="3.15952" stroke-linecap="round" stroke-linejoin="round"/>
<path d="M6 66H8.53385C10.8426 66 11.9969 66 12.7796 66.7233C13.5622 67.4466 13.7148 68.6544 14.0199 71.07L16.2154 88.4505C16.6222 91.6713 16.8256 93.2817 17.8692 94.2461C18.9127 95.2105 20.4518 95.2105 23.5301 95.2105H43" stroke="black" stroke-width="2.775" stroke-linecap="round"/>
<circle cx="22.5539" cy="100.079" r="2.92105" stroke="black" stroke-width="2.775"/>
<circle cx="36.1867" cy="100.079" r="2.92105" stroke="black" stroke-width="2.775"/>
<path d="M35.2116 89.3685H31.3168C27.6448 89.3685 25.8088 89.3685 24.6681 88.2277C23.5273 87.087 23.5273 85.251 23.5273 81.579V77.6842C23.5273 74.0123 23.5273 72.1763 24.6681 71.0355C25.8088 69.8948 27.6448 69.8948 31.3168 69.8948H35.2116C38.8835 69.8948 40.7195 69.8948 41.8603 71.0355C43.001 72.1763 43.001 74.0123 43.001 77.6842V81.579C43.001 85.251 43.001 87.087 41.8603 88.2277C40.7195 89.3685 38.8835 89.3685 35.2116 89.3685Z" stroke="black" stroke-width="2.775" stroke-linecap="round" stroke-linejoin="round"/>
<path d="M32.2891 75.7368L34.2364 75.7368" stroke="black" stroke-width="2.775" stroke-linecap="round" stroke-linejoin="round"/>
<path d="M128.9 103.999C127.345 103.999 125.86 103.351 122.89 102.054C119.423 100.541 116.769 99.3827 114.928 98.2992H108M128.9 103.999C130.454 103.999 131.939 103.351 134.91 102.054C142.303 98.8271 146 97.2135 146 94.4992V74.5494M128.9 103.999V83.0993M111.8 74.5494V80.2494" stroke="black" stroke-width="2.75803" stroke-linecap="round" stroke-linejoin="round"/>
<path d="M121.92 80.613L116.37 77.9273C113.324 76.4534 111.801 75.7164 111.801 74.5494C111.801 73.3824 113.324 72.6454 116.37 71.1715L121.92 68.4859C125.345 66.8283 127.058 65.9995 128.901 65.9995C130.743 65.9995 132.456 66.8283 135.881 68.4859L141.431 71.1715C144.477 72.6454 146 73.3824 146 74.5494C146 75.7164 144.477 76.4534 141.431 77.9273L135.881 80.613C132.456 82.2705 130.743 83.0993 128.901 83.0993C127.058 83.0993 125.345 82.2705 121.92 80.613Z" stroke="black" stroke-width="2.75803" stroke-linecap="round" stroke-linejoin="round"/>
<path d="M138.66 69.8292L119.148 79.2706" stroke="black" stroke-width="2.75803" stroke-linecap="round" stroke-linejoin="round"/>
<path d="M108 86.8992H113.7" stroke="black" stroke-width="2.75803" stroke-linecap="round" stroke-linejoin="round"/>
<path d="M108 92.5992H113.7" stroke="black" stroke-width="2.75803" stroke-linecap="round" stroke-linejoin="round"/>
<path d="M247.1 84.4751C247.052 84.3066 247.003 84.1358 246.953 83.9628C244.931 76.9426 242.217 74.725 234.287 74.725H226.918C219.303 74.725 216.358 76.6515 214.252 83.9628C212.355 90.5482 211.407 93.8408 212.399 96.3943C213.006 97.9581 214.084 99.3141 215.496 100.291C218.185 102.149 224.932 103.075 231.5 102.996" stroke="black" stroke-width="2.87708" stroke-linecap="round"/>
<path d="M221.75 75.6999V72.5089C221.75 67.8095 225.679 63.9998 230.525 63.9998C235.371 63.9998 239.3 67.8095 239.3 72.5089V75.6999" stroke="black" stroke-width="2.87708"/>
<path d="M235.398 97.1502C235.398 97.1502 237.348 97.1502 239.298 101.05C239.298 101.05 245.493 91.3001 250.999 89.3501" stroke="black" stroke-width="2.87708" stroke-linecap="round" stroke-linejoin="round"/>
<path d="M228.574 81.55H232.474" stroke="black" stroke-width="2.87708" stroke-linecap="round"/>
<path d="M30.5 163H25.0973C20.7813 163 18.6233 163 17.121 161.659C15.6187 160.318 15.2393 158.054 14.4806 153.524L12.329 140.681C11.9791 138.592 11.8041 137.547 12.3429 136.861C12.8818 136.175 13.8772 136.175 15.868 136.175H41.4321C43.4229 136.175 44.4183 136.175 44.9571 136.861C45.4959 137.547 45.3209 138.592 44.971 140.681L44.4861 143.575" stroke="black" stroke-width="2.775" stroke-linecap="round"/>
<path d="M36.0547 158.375C36.964 159.311 39.3843 163 40.6797 163M45.3047 158.375C44.3954 159.311 41.9751 163 40.6797 163M40.6797 163V148.2" stroke="black" stroke-width="2.775" stroke-linecap="round" stroke-linejoin="round"/>
<path d="M19.4023 136.175V135.25C19.4023 130.141 23.5437 126 28.6523 126C33.761 126 37.9024 130.141 37.9024 135.25V136.175" stroke="black" stroke-width="2.775"/>
<path d="M14.7773 154.675H30.5024" stroke="black" stroke-width="2.775" stroke-linecap="round"/>
<path d="M118.99 152.938H132.447C140.761 152.938 142.025 147.715 143.559 140.097C144.001 137.9 144.222 136.801 143.69 136.069C143.379 135.641 142.901 135.463 142.149 135.389M115.285 135.337H122.696" stroke="black" stroke-width="2.93337" stroke-linecap="round"/>
<path d="M118.987 152.937L114.13 129.807C113.718 128.157 112.236 127 110.536 127H108.797" stroke="black" stroke-width="2.93337" stroke-linecap="round"/>
<path d="M120.621 152.937H119.859C117.333 152.937 115.285 155.07 115.285 157.701C115.285 158.14 115.626 158.495 116.047 158.495H136.591" stroke="black" stroke-width="2.93337" stroke-linecap="round" stroke-linejoin="round"/>
<circle cx="123.619" cy="161.274" r="2.779" stroke="black" stroke-width="2.93337"/>
<circle cx="136.592" cy="161.274" r="2.779" stroke="black" stroke-width="2.93337"/>
<path d="M215.988 137.339V128.907H245.641V137.339C245.641 143.615 245.641 146.753 243.711 148.703C241.781 150.652 238.674 150.652 232.462 150.652H229.167C222.955 150.652 219.848 150.652 217.918 148.703C215.988 146.753 215.988 143.615 215.988 137.339Z" stroke="black" stroke-width="2.43302" stroke-linecap="round" stroke-linejoin="round"/>
<path d="M215.988 128.907L217.414 125.866C218.52 123.507 219.072 122.328 220.193 121.664C221.313 121 222.751 121 225.625 121H236.004C238.878 121 240.316 121 241.436 121.664C242.557 122.328 243.109 123.507 244.215 125.866L245.641 128.907" stroke="black" stroke-width="2.43302" stroke-linecap="round"/>
<path d="M227.848 134.838H233.778" stroke="black" stroke-width="2.43302" stroke-linecap="round"/>
<path d="M215 162.564H230.815M246.629 162.564H230.815M230.815 162.564V157.622" stroke="black" stroke-width="2.43302" stroke-linecap="round" stroke-linejoin="round"/>
</svg>
