<svg width="260" height="178" viewBox="0 0 260 178" fill="none" xmlns="http://www.w3.org/2000/svg">
<path d="M38.105 24.4851C38.105 24.5067 38.1066 24.496 38.0939 24.4295C38.0834 24.3744 38.0663 24.297 38.0407 24.2C37.9896 24.0062 37.9065 23.7406 37.7815 23.4266C37.5314 22.7981 37.1157 21.983 36.4554 21.1647C35.146 19.5419 32.8549 17.8793 28.9033 17.658C27.6855 17.7328 25.8158 18.1477 24.1725 19.1452C22.5308 20.1418 21.134 21.705 20.7998 24.0897L20.8 24.0899C20.4123 27.2066 20.2059 35.6899 22.2532 44.4661L23.1495 43.6337L22.6159 40.2394C22.5134 39.5869 23.3674 39.2755 23.7173 39.8011L23.7496 39.8545L24.8249 41.8291C25.0271 41.6868 25.2514 41.5495 25.4735 41.4278C25.7505 41.2761 26.0414 41.1388 26.3029 41.039V39.6607L27.3512 36.671L27.3893 36.6204C27.9365 35.8973 28.0966 35.5589 28.1738 35.2873C28.2153 35.1414 28.2355 35.0076 28.2708 34.8065C28.3052 34.6097 28.3502 34.376 28.4399 34.0717L28.5544 33.6833L29.3314 33.9124L29.2168 34.301C29.1391 34.5643 29.1003 34.7648 29.0686 34.9462C29.0375 35.1232 29.0089 35.3116 28.9528 35.509C28.8374 35.9146 28.6144 36.3374 28.0737 37.0577L27.1129 39.7983V41.6342L26.8191 41.7182C26.5753 41.7878 26.2206 41.9421 25.8626 42.1382C25.5039 42.3347 25.176 42.5545 24.9746 42.7415L24.5927 43.0964L23.5977 41.2696L24.0166 43.9341L21.792 46L21.6274 45.3317C19.3821 36.2116 19.588 27.2711 19.9961 23.9901L19.9966 23.987L19.997 23.9842C20.3711 21.2984 21.9552 19.5437 23.7522 18.4529C25.5391 17.3682 27.5554 16.9253 28.8783 16.848L28.9009 16.8467L28.9238 16.848C33.1302 17.0771 35.6369 18.8605 37.0858 20.6562C37.8059 21.5487 38.2598 22.4375 38.5342 23.1269C38.6715 23.4717 38.7646 23.7685 38.8239 23.9933C38.8535 24.1056 38.8752 24.2016 38.8897 24.278C38.9021 24.343 38.915 24.4218 38.915 24.4851C38.915 24.6283 38.9405 25.027 38.9946 25.4489C39.0213 25.6578 39.054 25.865 39.0922 26.0431C39.1321 26.2292 39.1722 26.3553 39.204 26.4194C39.2275 26.4667 39.3242 26.6084 39.5018 26.8411C39.669 27.0603 39.8847 27.3306 40.1186 27.6175C40.5862 28.191 41.1196 28.8225 41.4679 29.2288L41.6835 29.4803L40.3979 31.1284L40.7233 32.1113L40.6147 32.2752C40.5472 32.3773 40.4689 32.4806 40.3909 32.5775C40.5465 32.7182 40.6289 32.8927 40.6629 33.0627C40.7241 33.3684 40.6345 33.6723 40.5459 33.8644C40.3272 34.5368 40.3876 35.0608 40.4321 35.2328L40.4406 35.2627L40.4456 35.2773L40.4493 35.2923C40.6075 35.9298 40.1836 36.3781 40.198 36.3489L40.1975 36.3486C40.13 36.4953 40.0171 36.5935 39.9157 36.6571C39.8061 36.7258 39.6814 36.7735 39.5606 36.8083C39.3188 36.8781 39.0251 36.9152 38.7326 36.9345C38.1429 36.9734 37.4748 36.9442 37.0389 36.906L37.0346 36.9058L37.0304 36.9053C35.5089 36.7396 34.6019 37.2046 34.0632 37.7962C33.5064 38.4075 33.2986 39.2032 33.2824 39.7418L33.2702 40.1466L32.4606 40.1222L32.4728 39.7174C32.4935 39.032 32.7492 38.036 33.4644 37.2508C34.1975 36.4459 35.3706 35.9096 37.118 36.0999C37.5289 36.1355 38.148 36.1614 38.6794 36.1263C38.9491 36.1085 39.176 36.0761 39.3361 36.03C39.4114 36.0083 39.4569 35.9874 39.4809 35.9733C39.5182 35.903 39.5694 35.8357 39.5885 35.8094C39.6191 35.7672 39.6379 35.7389 39.652 35.7106C39.6714 35.6715 39.6931 35.6128 39.6637 35.4913C39.5649 35.1661 39.4997 34.4472 39.7821 33.5937L39.791 33.5664L39.8037 33.5407C39.8264 33.4949 39.8493 33.4338 39.8623 33.3703C39.8756 33.3054 39.8755 33.2547 39.8688 33.2216C39.8633 33.194 39.8551 33.1843 39.8468 33.1771C39.836 33.1677 39.7928 33.1361 39.6742 33.1211L38.8575 33.0182L39.4373 32.4341C39.5171 32.3537 39.6841 32.1715 39.8277 31.9833L39.4931 30.9719L40.6379 29.5037C40.3028 29.1096 39.8753 28.6008 39.4909 28.1293C39.2546 27.8395 39.0328 27.5616 38.8579 27.3324C38.6934 27.1169 38.5433 26.91 38.4784 26.7792C38.3998 26.6208 38.3432 26.413 38.3003 26.2132C38.2557 26.0053 38.2196 25.7741 38.1911 25.5518C38.1347 25.1115 38.105 24.6756 38.105 24.4851Z" fill="black"/>
<path d="M23.7104 5.91333C23.5202 5.89837 23.3307 5.95086 23.1753 6.06156L11.0842 14.676C10.471 15.1129 10.731 16.0769 11.4807 16.1463L18.8802 16.831L18.9548 16.0244L11.5553 15.3396C11.5548 15.3396 11.5543 15.3394 11.5539 15.3393C11.5538 15.3389 11.5535 15.3386 11.5533 15.3381C11.5532 15.3375 11.5534 15.3368 11.5533 15.3363C11.5536 15.3361 11.5539 15.3359 11.5542 15.3356L23.6453 6.72118C23.6458 6.7209 23.6463 6.72073 23.6468 6.72077L38.4406 7.88454C38.4411 7.88458 38.4416 7.88457 38.442 7.88461C38.4422 7.88509 38.4425 7.88565 38.4427 7.88623C38.4428 7.88668 38.4429 7.8871 38.443 7.8875C38.4426 7.88779 38.4422 7.88819 38.4417 7.88853L32.3687 12.3076L32.8453 12.9625L38.9184 8.54359C39.5284 8.09969 39.2563 7.13627 38.5042 7.0771L23.7104 5.91333Z" fill="black"/>
<path d="M31.3121 9.47895C28.5849 9.46916 22.987 10.1796 18.2103 13.1809C17.8984 13.3769 17.7633 13.7568 17.8699 14.1026L19.4121 19.1008C19.6106 19.7442 20.4195 19.8552 20.839 19.4223C22.61 17.5947 26.7643 15.0756 32.7116 16.266C33.2941 16.3826 33.832 15.8544 33.6752 15.2547L32.323 10.0842C32.2342 9.74483 31.934 9.49001 31.567 9.48208L31.3121 9.47895ZM18.6445 13.8647C23.3938 10.8819 29.0181 10.2392 31.54 10.2916L32.8915 15.4596C32.8916 15.4602 32.8918 15.4607 32.8919 15.4611C32.8915 15.4618 32.8905 15.4635 32.8884 15.4657C32.8854 15.4688 32.882 15.4707 32.8794 15.4715C32.8783 15.4719 32.8772 15.4721 32.8762 15.4722C32.8752 15.4723 32.8734 15.4723 32.8706 15.4717C26.6083 14.2183 22.1858 16.8688 20.2574 18.8587C20.248 18.8684 20.2297 18.8767 20.2051 18.8716C20.1942 18.8694 20.1885 18.8655 20.187 18.8642C20.1869 18.8641 20.1868 18.8647 20.186 18.862L18.6445 13.8647Z" fill="black"/>
<path d="M13.6766 16.8282C13.6738 16.704 13.7109 16.5078 13.825 16.349C13.9266 16.2074 14.1038 16.0734 14.4394 16.0619C14.5414 16.0721 14.7019 16.1195 14.835 16.2283C14.9626 16.3325 15.0782 16.5025 15.0847 16.7973L15.1221 18.4961C15.1233 18.5532 15.0782 18.6006 15.0211 18.6019L13.8195 18.6283C13.7624 18.6295 13.7152 18.5842 13.7139 18.5271L13.6766 16.8282ZM13.1066 18.5404C13.1152 18.9329 13.4403 19.2442 13.8329 19.2356L15.0344 19.2092C15.427 19.2006 15.7383 18.8753 15.7296 18.4827L15.6923 16.7839C15.6818 16.3065 15.4806 15.9713 15.2193 15.7578C15.0679 15.6342 14.9011 15.5549 14.7474 15.5081L14.6852 12.6798L14.0779 12.6932L14.1394 15.4868C13.7689 15.5611 13.5044 15.754 13.3314 15.9949C13.1253 16.2821 13.0643 16.6148 13.0692 16.8416L13.1066 18.5404Z" fill="black"/>
<path d="M37.761 21.5162L37.6198 21.9398C37.5118 22.2637 37.2777 22.7579 36.9157 23.2449C36.5534 23.7324 36.0437 24.2387 35.3747 24.5475C35.0542 24.6954 34.6982 24.9163 34.313 25.1513C33.9493 25.3731 33.5518 25.6121 33.1894 25.7561C33.4267 26.5469 33.411 27.7405 33.3513 28.7874C33.3209 29.3226 33.2771 29.8426 33.2415 30.2807C33.2051 30.7281 33.1789 31.0732 33.1789 31.2844C33.1808 31.3407 33.1793 31.4147 33.1597 31.491C33.1381 31.5753 33.0666 31.7606 32.8528 31.8393C32.6622 31.9095 32.5014 31.8379 32.447 31.8106C32.3786 31.7762 32.3223 31.7317 32.2846 31.6994C32.1482 31.5825 31.9482 31.3497 31.7709 31.1573C31.5723 30.942 31.3486 30.7137 31.1072 30.5252C30.8659 30.3369 30.6324 30.2088 30.4147 30.1603C30.3719 30.2988 30.365 30.5588 30.4027 30.9376C30.4392 31.3044 30.5079 31.7058 30.569 32.1015C30.6268 32.4757 30.6827 32.8716 30.6693 33.1659C30.6486 33.619 30.2765 33.8373 30.0237 33.9063L29.4341 34.0669C29.3562 34.0882 29.2958 34.1499 29.2762 34.2282L29.1514 34.7274L28.2852 34.5107L28.3935 34.0776L28.4101 34.0118C28.5079 33.6202 28.8097 33.312 29.1991 33.2058L29.7782 33.0475C29.7756 32.8578 29.74 32.583 29.6867 32.2378C29.6289 31.8636 29.5539 31.4242 29.5143 31.0259C29.4762 30.6435 29.4599 30.2149 29.5659 29.8837C29.6219 29.7091 29.7273 29.5122 29.9297 29.3837C30.1389 29.251 30.3759 29.2387 30.5941 29.2854C30.9991 29.3722 31.3591 29.5893 31.6564 29.8214C31.9125 30.0213 32.1412 30.2487 32.3321 30.4511C32.3383 30.3722 32.3448 30.2911 32.3515 30.2083C32.3875 29.7663 32.4303 29.2586 32.4601 28.7366C32.5209 27.6692 32.5198 26.6299 32.3343 26.0122C32.2998 25.8974 32.279 25.8477 32.2515 25.7642C32.241 25.7323 32.2235 25.6776 32.2146 25.6173C32.2052 25.5535 32.1991 25.444 32.2513 25.325C32.3048 25.203 32.3926 25.1317 32.4535 25.0931C32.5091 25.0579 32.5657 25.0355 32.5985 25.0229C32.6336 25.0094 32.6777 24.9939 32.714 24.981C32.7541 24.9668 32.7989 24.9507 32.8507 24.9305C33.1308 24.8207 33.4655 24.6224 33.8481 24.389C34.2136 24.166 34.6217 23.9115 35.0005 23.7367C35.4921 23.5098 35.8939 23.1233 36.1993 22.7124C36.505 22.3012 36.695 21.8913 36.773 21.6573L36.914 21.2338L37.761 21.5162Z" fill="black"/>
<path d="M130.042 39.0288C132.6 35.8969 139.443 30.5421 148.886 31.3526L149.118 31.3736L149.336 31.3946L151.145 36.1258L150.58 36.0726C148.308 35.8591 144.729 35.7954 141.387 36.2966C139.716 36.5472 138.118 36.9372 136.777 37.5126C135.473 38.0717 134.438 38.7944 133.803 39.7088V41.5991H126.397V39.6963C125.924 38.9218 124.581 37.7602 121.982 36.912C119.311 36.0401 115.345 35.5118 109.74 36.0724L109.203 36.126L110.736 31.3888L110.974 31.3728C113.093 31.2329 116.581 31.4667 120.208 32.614C123.713 33.7225 127.372 35.6923 130.042 39.0288ZM148.833 32.056C139.324 31.2365 132.529 36.8845 130.323 39.8129L130.042 40.186L129.76 39.8135C127.184 36.4097 123.534 34.4056 119.996 33.2865C116.591 32.2096 113.315 31.9606 111.259 32.0629L110.205 35.3198C115.605 34.8367 119.504 35.3612 122.201 36.2414C124.972 37.146 126.508 38.4391 127.058 39.4295L127.102 39.5095V40.8939H133.097V39.4949L133.156 39.4066C133.89 38.2929 135.086 37.4703 136.499 36.8642C137.914 36.257 139.577 35.855 141.283 35.5991C144.429 35.1272 147.768 35.1466 150.083 35.323L148.833 32.056Z" fill="black"/>
<path d="M126.028 22.6879L125.825 23.3636L122.481 22.3603L111.225 31.8763L110.77 31.3377L122.318 21.5751L126.028 22.6879Z" fill="black"/>
<path d="M149.199 31.4603L148.732 31.9891L137.826 22.3594L134.249 23.3654L134.059 22.6865L137.82 21.6284L138.005 21.5765L149.199 31.4603Z" fill="black"/>
<path d="M126.632 39.2482V39.9534H108.764V40.8938H126.632V41.5993H108.059V39.2482H126.632Z" fill="black"/>
<path d="M133.45 39.2482V39.9534H151.318V40.8938H133.45V41.5993H152.023V39.2482H133.45Z" fill="black"/>
<path d="M110.841 35.8905L108.725 39.7695L108.105 39.4318L110.221 35.5525L110.841 35.8905Z" fill="black"/>
<path d="M151.997 39.4715L151.341 39.7301L149.812 35.8508L150.469 35.5925L151.997 39.4715Z" fill="black"/>
<path d="M124.472 12.5825C127.117 9.18148 130.926 9.59409 133.147 10.5062L133.357 10.5957L133.373 10.6029L133.389 10.6114C136.076 12.1384 137.087 14.2148 137.181 16.2208C137.274 18.2 136.473 20.0706 135.614 21.2368C133.593 23.9789 133.137 25.7916 132.982 27.1337C133.353 29.3681 132.968 30.781 132.233 31.6167C131.501 32.4489 130.491 32.6302 129.78 32.5465V32.5468C129.044 32.4941 128.465 32.2231 128.027 31.8075C127.595 31.397 127.317 30.8624 127.144 30.3041C126.804 29.2078 126.845 27.9489 126.984 27.1122C126.985 26.3487 127.008 25.6709 126.762 24.7967C126.513 23.9109 125.979 22.8034 124.82 21.2376C122.245 17.7615 123.294 14.0966 124.472 12.5825ZM133.055 11.2335C131.006 10.3286 127.465 9.88367 125.029 13.0154C124.012 14.3226 123.03 17.6371 125.386 20.8178C126.577 22.4258 127.161 23.6106 127.441 24.6057C127.721 25.6015 127.689 26.3873 127.689 27.1404V27.1701L127.684 27.1996C127.553 27.9698 127.517 29.1264 127.817 30.0952C127.967 30.5761 128.193 30.9922 128.513 31.296C128.808 31.5761 129.198 31.7756 129.723 31.8336L129.83 31.8434L129.84 31.8439L129.849 31.845C130.391 31.9127 131.156 31.7732 131.703 31.1512C132.248 30.5319 132.646 29.3545 132.279 27.1994L132.27 27.1507L132.276 27.1013C132.44 25.6267 132.932 23.6875 135.046 20.8183C135.833 19.7511 136.56 18.0363 136.477 16.2538C136.395 14.5016 135.528 12.6442 133.055 11.2335Z" fill="black"/>
<path d="M132.629 26.6702V27.3754H127.457V26.6702H132.629Z" fill="black"/>
<path d="M132.743 27.728V28.4333H127.336V27.728H132.743Z" fill="black"/>
<path d="M132.626 28.551V29.2563H127.336V28.551H132.626Z" fill="black"/>
<path d="M130.469 20.8414L130.889 20.2539L131.098 20.3532L130.827 21.3433L131.272 21.0473L131.428 21.2195L130.37 22.5125L130.279 22.4381L130.188 22.3637L130.748 21.6787L130.697 21.7132L130.435 21.8873L130.698 20.9251L130.324 21.4485L130.2 20.6431L130.139 21.4371L129.67 20.8895L130.02 21.8524L129.529 21.6069L130.136 22.3648L130.044 22.4381L129.952 22.5117L129.012 21.3361L129.156 21.1576L129.597 21.3781L129.228 20.3625L129.428 20.2456L129.948 20.8528L130.044 19.6079L130.278 19.5991L130.469 20.8414Z" fill="black"/>
<path d="M130.393 32.4302V39.6009H129.688V32.4302H130.393Z" fill="black"/>
<path d="M130.51 22.2031V26.7876H129.805V22.2031H130.51Z" fill="black"/>
<path d="M120.305 13.38C120.374 13.1978 120.577 13.1056 120.759 13.1741L122.774 13.9321C122.956 14.0006 123.048 14.2038 122.979 14.3861C122.911 14.5684 122.707 14.6606 122.525 14.592L120.511 13.8344C120.329 13.7658 120.236 13.5623 120.305 13.38Z" fill="black"/>
<path d="M140.027 13.3537C139.958 13.1714 139.755 13.0792 139.573 13.1478L137.559 13.9057C137.376 13.9743 137.284 14.1775 137.353 14.3598C137.421 14.5421 137.625 14.6342 137.807 14.5657L139.821 13.808C140.003 13.7394 140.096 13.536 140.027 13.3537Z" fill="black"/>
<path d="M125.172 10.5128C125.029 10.6452 124.806 10.6367 124.674 10.4938L123.353 9.06827C123.221 8.92539 123.229 8.70221 123.372 8.56987C123.515 8.4376 123.738 8.44617 123.87 8.58896L125.191 10.0143C125.324 10.1571 125.315 10.3804 125.172 10.5128Z" fill="black"/>
<path d="M135.168 10.4864C135.31 10.6188 135.534 10.6103 135.666 10.4675L136.987 9.0419C137.119 8.89902 137.11 8.67585 136.968 8.5435C136.825 8.41123 136.602 8.4198 136.469 8.56259L135.149 9.98791C135.016 10.1308 135.025 10.3541 135.168 10.4864Z" fill="black"/>
<path d="M129.729 8.9584C129.534 8.96037 129.375 8.804 129.373 8.60927L129.353 6.66607C129.351 6.47135 129.508 6.31194 129.703 6.30997C129.897 6.30807 130.056 6.46429 130.059 6.65897L130.078 8.60206C130.08 8.79681 129.924 8.95642 129.729 8.9584Z" fill="black"/>
<path d="M244.975 30.8777C244.975 28.7639 243.261 27.0504 241.148 27.0504H218.32C218.094 27.0504 217.91 26.8668 217.91 26.6403C217.91 26.4138 218.094 26.2302 218.32 26.2302H241.148C243.714 26.2302 245.795 28.311 245.795 30.8777C245.795 33.4444 243.714 35.5252 241.148 35.5252H218.32C218.094 35.5252 217.91 35.3416 217.91 35.1151C217.91 34.8886 218.094 34.705 218.32 34.705H241.148C243.261 34.705 244.975 32.9915 244.975 30.8777Z" fill="black"/>
<path d="M244.975 39.3526C244.975 37.2388 243.261 35.5252 241.148 35.5252H218.32C218.094 35.5252 217.91 35.3416 217.91 35.1152C217.91 34.8887 218.094 34.7051 218.32 34.7051H241.148C243.714 34.7051 245.795 36.7858 245.795 39.3526C245.795 41.9193 243.714 44 241.148 44H218.32C218.094 44 217.91 43.8165 217.91 43.59C217.91 43.3635 218.094 43.1799 218.32 43.1799H241.148C243.261 43.1799 244.975 41.4663 244.975 39.3526Z" fill="black"/>
<path d="M239.918 26.3669V18.6749C233.102 14.7685 226.272 16.9713 223.515 18.6652V26.3669C223.515 26.5934 223.332 26.777 223.105 26.777C222.879 26.777 222.695 26.5934 222.695 26.3669V18.2165L222.882 18.095C225.701 16.2629 233.144 13.7176 240.537 18.0859L240.738 18.205V26.3669C240.738 26.5934 240.555 26.777 240.328 26.777C240.102 26.777 239.918 26.5934 239.918 26.3669Z" fill="black"/>
<path d="M231.645 8.24253C231.78 8.20068 231.925 8.20197 232.06 8.246L232.126 8.27136L249.507 16.0403C250.045 16.2804 250.047 17.0422 249.512 17.2863L240.768 21.2725C240.562 21.3664 240.319 21.2753 240.225 21.0693C240.131 20.8632 240.222 20.6199 240.428 20.526L248.896 16.6653L231.846 9.04452L214.02 16.6658L222.856 20.5233C223.063 20.614 223.158 20.8559 223.067 21.0634C222.977 21.2709 222.735 21.3658 222.527 21.2751L213.402 17.2908C212.853 17.0511 212.856 16.2715 213.407 16.036L231.579 8.26709L231.645 8.24253Z" fill="black"/>
<path d="M247.57 21.7195H245.109V24.7267C245.109 25.4062 245.66 25.957 246.339 25.957C247.019 25.957 247.57 25.4062 247.57 24.7267V21.7195ZM248.39 24.7267C248.39 25.8591 247.472 26.7771 246.339 26.7771C245.207 26.7771 244.289 25.8591 244.289 24.7267V21.5829C244.289 21.2054 244.595 20.8994 244.973 20.8994H245.929V15.2951C245.929 15.0686 246.113 14.885 246.339 14.885C246.566 14.885 246.749 15.0686 246.749 15.2951V20.8994H247.706C248.084 20.8994 248.39 21.2054 248.39 21.5829V24.7267Z" fill="black"/>
<path d="M230.619 30.6042C230.845 30.6042 231.029 30.7878 231.029 31.0143C231.029 31.2408 230.845 31.4244 230.619 31.4244H220.777C220.551 31.4244 220.367 31.2408 220.367 31.0143C220.367 30.7878 220.551 30.6042 220.777 30.6042H230.619Z" fill="black"/>
<path d="M230.619 38.8058C230.845 38.8058 231.029 38.9894 231.029 39.2159C231.029 39.4423 230.845 39.6259 230.619 39.6259H220.777C220.551 39.6259 220.367 39.4423 220.367 39.2159C220.367 38.9894 220.551 38.8058 220.777 38.8058H230.619Z" fill="black"/>
<path d="M235.269 30.6042C235.495 30.6042 235.679 30.7878 235.679 31.0143C235.679 31.2408 235.495 31.4244 235.269 31.4244H233.082C232.855 31.4244 232.672 31.2408 232.672 31.0143C232.672 30.7878 232.855 30.6042 233.082 30.6042H235.269Z" fill="black"/>
<path d="M235.269 38.8058C235.495 38.8058 235.679 38.9894 235.679 39.2159C235.679 39.4423 235.495 39.6259 235.269 39.6259H233.082C232.855 39.6259 232.672 39.4423 232.672 39.2159C232.672 38.9894 232.855 38.8058 233.082 38.8058H235.269Z" fill="black"/>
<path d="M245.385 30.6042C245.611 30.6042 245.795 30.7878 245.795 31.0143C245.795 31.2408 245.611 31.4244 245.385 31.4244L236.91 31.4244C236.684 31.4244 236.5 31.2408 236.5 31.0143C236.5 30.7878 236.684 30.6042 236.91 30.6042L245.385 30.6042Z" fill="black"/>
<path d="M245.385 38.8058C245.611 38.8058 245.795 38.9894 245.795 39.2159C245.795 39.4423 245.611 39.6259 245.385 39.6259L236.91 39.6259C236.684 39.6259 236.5 39.4423 236.5 39.2159C236.5 38.9894 236.684 38.8058 236.91 38.8058L245.385 38.8058Z" fill="black"/>
<path d="M219.938 15.3253C220.147 15.2396 220.387 15.34 220.473 15.5496C220.559 15.7592 220.458 15.9988 220.249 16.0846L217.241 17.3148C217.032 17.4005 216.792 17.3001 216.706 17.0905C216.621 16.8809 216.721 16.6413 216.931 16.5555L219.938 15.3253Z" fill="black"/>
<path d="M229.092 10.9534C229.301 10.8648 229.542 10.962 229.63 11.1705C229.719 11.3789 229.622 11.6198 229.413 11.7084L223.946 14.0322C223.737 14.1207 223.496 14.0235 223.408 13.8151C223.319 13.6067 223.416 13.3658 223.625 13.2772L229.092 10.9534Z" fill="black"/>
<path d="M244.994 6.45527C245.089 6.23334 245.403 6.23334 245.498 6.45527L246.038 7.72592C246.062 7.78437 246.107 7.83235 246.163 7.86161L247.376 8.49116C247.572 8.59321 247.572 8.87437 247.376 8.97642L246.163 9.60596C246.107 9.63523 246.062 9.68321 246.038 9.74166L245.498 11.0123C245.403 11.2342 245.089 11.2342 244.994 11.0123L244.454 9.74166C244.429 9.68321 244.385 9.63523 244.329 9.60596L243.116 8.97642C242.92 8.87437 242.92 8.59321 243.116 8.49116L244.329 7.86161C244.385 7.83235 244.429 7.78437 244.454 7.72592L244.994 6.45527Z" fill="black"/>
<path d="M250.304 12.8346C250.531 12.8346 250.714 13.0182 250.714 13.2447C250.714 13.4711 250.531 13.6547 250.304 13.6547H247.707C247.48 13.6547 247.297 13.4711 247.297 13.2447C247.297 13.0182 247.48 12.8346 247.707 12.8346H250.304Z" fill="black"/>
<path d="M248.664 14.6116V11.7411C248.664 11.5147 248.848 11.3311 249.074 11.3311C249.301 11.3311 249.484 11.5147 249.484 11.7411V14.6116C249.484 14.8381 249.301 15.0217 249.074 15.0217C248.848 15.0217 248.664 14.8381 248.664 14.6116Z" fill="black"/>
<path d="M240.054 7.50366C240.281 7.50366 240.464 7.68726 240.464 7.91373C240.464 8.14021 240.281 8.32381 240.054 8.32381H237.457C237.23 8.32381 237.047 8.14021 237.047 7.91373C237.047 7.68726 237.23 7.50366 237.457 7.50366H240.054Z" fill="black"/>
<path d="M238.414 9.28058V6.41007C238.414 6.1836 238.598 6 238.824 6C239.051 6 239.234 6.1836 239.234 6.41007V9.28058C239.234 9.50705 239.051 9.69065 238.824 9.69065C238.598 9.69065 238.414 9.50705 238.414 9.28058Z" fill="black"/>
<path d="M245.529 78.8702C245.716 78.7634 245.955 78.8282 246.061 79.0152C246.168 79.2021 246.103 79.4403 245.916 79.5471L243.295 81.0445C243.061 81.475 242.425 81.9385 241.303 81.9385C240.555 81.9384 239.847 81.8364 239.286 81.7374C239.01 81.6888 238.753 81.6374 238.564 81.6028C238.356 81.5646 238.239 81.5484 238.184 81.5484H235.974C235.865 81.5484 235.688 81.5279 235.501 81.5021C235.304 81.475 235.066 81.4379 234.818 81.397C234.505 81.3452 234.173 81.2864 233.883 81.2341C233.888 81.4142 233.903 81.6053 233.936 81.7781C233.967 81.9429 234.009 82.0657 234.055 82.1432C234.094 82.2108 234.115 82.2103 234.105 82.2068C234.521 82.2909 235.586 82.623 236.416 82.8916L237.137 83.1282L237.26 83.1692L238.427 84.8547C238.768 84.9594 239.241 85.0992 239.687 85.2173C239.94 85.2841 240.18 85.3432 240.379 85.3853C240.59 85.4296 240.725 85.4478 240.783 85.4478H243.261L243.357 85.6979L244.007 87.3877L244.033 87.4552V88.5099L243.481 89.9436C243.713 90.049 244.003 90.1464 244.303 90.1822C244.739 90.2343 245.144 90.1545 245.447 89.8516C245.944 89.3542 246.6 89.137 247.183 89.0555C247.694 88.9841 248.181 89.0123 248.526 89.0698L248.664 89.0962L248.882 89.1427L249.732 91.6939C249.8 91.8982 249.69 92.1191 249.485 92.1872C249.281 92.2552 249.06 92.1447 248.992 91.9404L248.286 89.823C248.021 89.7889 247.664 89.7758 247.291 89.8278C246.804 89.8959 246.333 90.0687 245.998 90.4032C245.469 90.9321 244.791 91.0257 244.211 90.9564C243.636 90.8877 243.108 90.6559 242.789 90.4596L242.513 90.2896L243.253 88.3646V87.6002L242.725 86.2279H240.783C240.634 86.2279 240.426 86.1919 240.219 86.1482C240.001 86.1023 239.746 86.0396 239.487 85.971C238.969 85.8338 238.418 85.6698 238.067 85.5602L237.939 85.5201L236.767 83.8276C235.938 83.5527 234.414 83.0638 233.948 82.9706C233.669 82.9149 233.489 82.7227 233.38 82.5354C233.272 82.35 233.209 82.13 233.17 81.9233C233.091 81.5072 233.092 81.0414 233.115 80.7386L233.149 80.3051L233.576 80.3853C233.921 80.4499 234.457 80.5469 234.946 80.6275C235.19 80.6679 235.42 80.7036 235.607 80.7293C235.804 80.7564 235.927 80.7686 235.974 80.7686H238.184C238.323 80.7686 238.515 80.8009 238.705 80.8359C238.914 80.8744 239.144 80.9205 239.421 80.9694C239.965 81.0653 240.622 81.1583 241.303 81.1584C242.333 81.1584 242.605 80.7 242.623 80.6452L242.67 80.5039L245.529 78.8702Z" fill="black"/>
<path d="M240.967 94.9816C241.385 95.2014 242.025 95.5574 242.589 95.9131C242.871 96.0906 243.14 96.2723 243.356 96.4397C243.464 96.5232 243.563 96.6073 243.646 96.6893C243.724 96.7662 243.809 96.8628 243.864 96.9722C243.939 97.1215 244.003 97.3499 244.058 97.5818C244.115 97.8257 244.171 98.1137 244.221 98.4065C244.321 98.9895 244.401 99.6157 244.424 99.9818C244.438 100.197 244.274 100.382 244.06 100.395C243.845 100.409 243.659 100.246 243.646 100.031C243.625 99.7035 243.55 99.1075 243.453 98.538C243.404 98.2547 243.351 97.9838 243.299 97.761C243.243 97.5262 243.196 97.3797 243.166 97.321C243.164 97.317 243.146 97.2917 243.098 97.2439C243.045 97.1916 242.971 97.1284 242.878 97.0558C242.691 96.9106 242.445 96.7445 242.173 96.5732C241.706 96.2785 241.179 95.9814 240.783 95.7681L238.345 97.0454C237.892 97.9062 237.042 99.5265 236.845 99.9207C236.79 100.031 236.706 100.124 236.629 100.197C236.548 100.274 236.452 100.349 236.351 100.421C236.149 100.564 235.9 100.71 235.644 100.847C235.18 101.096 234.663 101.33 234.29 101.487L233.445 102.815C233.33 102.997 233.089 103.05 232.907 102.935C232.725 102.819 232.672 102.578 232.788 102.396L233.764 100.863L233.878 100.816C234.238 100.667 234.791 100.419 235.275 100.16C235.518 100.029 235.736 99.9006 235.901 99.7839C235.984 99.7256 236.047 99.6745 236.092 99.6319C236.141 99.5857 236.15 99.5655 236.147 99.5719C236.358 99.1513 237.279 97.3956 237.711 96.5749L237.767 96.4675L240.786 94.8862L240.967 94.9816Z" fill="black"/>
<path d="M224.65 65.7423C224.405 65.761 224.175 65.8654 223.999 66.0369L210.342 79.387C209.649 80.0641 210.171 81.2377 211.138 81.177L220.679 80.5781L220.613 79.538L211.072 80.1369C211.072 80.137 211.071 80.1368 211.07 80.1368C211.07 80.1364 211.07 80.136 211.069 80.1354C211.069 80.1347 211.069 80.1338 211.069 80.1331C211.069 80.1328 211.07 80.1324 211.07 80.1321L224.728 66.782C224.728 66.7816 224.729 66.7812 224.73 66.7812L243.764 65.3229C243.765 65.3229 243.765 65.3228 243.766 65.3228C243.766 65.3233 243.767 65.324 243.767 65.3247C243.767 65.3252 243.768 65.3257 243.768 65.3262C243.767 65.3267 243.767 65.3273 243.766 65.3278L236.925 72.1505L237.661 72.8882L244.502 66.0657C245.189 65.3804 244.652 64.2099 243.685 64.284L224.65 65.7423Z" fill="black"/>
<path d="M235.138 68.8986C228.98 71.5226 226.964 72.4506 219.398 76.029C218.877 76.2754 218.644 76.9054 218.902 77.4337L222.456 84.7139L222.911 84.5216C224.938 83.6647 227.488 82.2432 230.319 80.7644C233.168 79.2763 236.337 77.7107 239.663 76.5237L240.236 76.3193L236.469 69.3613L236.444 69.3174C236.174 68.8722 235.616 68.6952 235.138 68.8986ZM219.843 76.9709C227.402 73.3959 229.405 72.4741 235.547 69.8573C235.547 69.857 235.548 69.8567 235.548 69.8567C235.548 69.8567 235.548 69.8566 235.549 69.8566C235.549 69.8566 235.551 69.8567 235.552 69.8571C235.552 69.8573 235.553 69.8573 235.553 69.8574L238.743 75.7499C235.556 76.9327 232.536 78.431 229.837 79.8408C227.175 81.2311 224.854 82.5185 222.957 83.3646L219.839 76.9772C219.839 76.977 219.839 76.9766 219.839 76.9763C219.84 76.9747 219.84 76.9734 219.841 76.9726C219.841 76.9723 219.842 76.972 219.842 76.9718C219.842 76.9717 219.843 76.9713 219.843 76.9709Z" fill="black"/>
<path d="M229.539 81.0721L229.568 81.1156L229.585 81.1652L230.625 84.2848L230.667 84.4107L230.623 84.5363L229.583 87.5257L229.519 87.7105L229.332 87.7697L227.067 88.4847L226.485 90.6975V93.7211L227.125 96.4063L227.131 96.4349L227.134 96.4644C227.158 96.7529 227.149 97.0945 227.058 97.4105C226.968 97.7272 226.782 98.059 226.425 98.2458C226.069 98.4324 225.627 98.4296 225.122 98.2638C224.617 98.0981 224.006 97.7569 223.262 97.1985C223.089 97.0693 223.054 96.8248 223.183 96.6525C223.313 96.4803 223.557 96.4454 223.729 96.5746C224.44 97.1079 224.974 97.3942 225.366 97.5226C225.756 97.6508 225.961 97.6087 226.064 97.5549C226.166 97.5013 226.253 97.3912 226.308 97.1962C226.362 97.0078 226.374 96.7783 226.358 96.5549L225.716 93.8574L225.705 93.8128V90.5968L225.718 90.548L226.368 88.0784L226.423 87.8706L226.628 87.8059L228.911 87.0844L229.843 84.4053L228.861 81.4613L228.392 80.7572C228.625 80.6421 228.859 80.5259 229.097 80.4089L229.539 81.0721Z" fill="black"/>
<path d="M238.843 74.2991C245.329 75.8778 250.144 81.7254 250.144 88.6976L250.143 88.8891C250.04 96.9847 243.446 103.516 235.326 103.516L235.135 103.514C227.103 103.413 220.611 96.9209 220.509 88.8891L220.508 88.6976C220.508 86.3484 221.055 84.1269 222.028 82.1534L222.25 82.6082C222.315 82.7425 222.407 82.8569 222.515 82.9483C221.727 84.703 221.288 86.649 221.288 88.6976C221.288 96.4507 227.573 102.736 235.326 102.736C243.079 102.736 249.364 96.4507 249.364 88.6976C249.364 82.2821 245.061 76.8718 239.183 75.1958C239.172 75.0953 239.146 74.9945 239.103 74.8963L238.843 74.2991Z" fill="black"/>
<path d="M212.733 85.0043C212.739 84.6802 212.832 84.1946 213.08 83.8067C213.311 83.4443 213.672 83.1664 214.271 83.1691C214.455 83.1994 214.755 83.3176 215.007 83.5905C215.26 83.8644 215.487 84.3163 215.475 85.0509L215.407 89.0319C215.406 89.1053 215.345 89.1637 215.272 89.1625L212.796 89.1204C212.723 89.1191 212.664 89.0587 212.665 88.9852L212.733 85.0043ZM211.884 88.9719C211.875 89.4769 212.278 89.8932 212.783 89.9018L215.258 89.9439C215.763 89.9525 216.18 89.5501 216.189 89.0452L216.256 85.0642C216.272 84.1472 215.983 83.4951 215.581 83.0601C215.305 82.7619 214.986 82.5762 214.698 82.4755L214.805 76.2157L214.023 76.2024L213.918 82.4106C213.21 82.5092 212.726 82.9085 212.421 83.3864C212.076 83.927 211.959 84.5643 211.951 84.991L211.884 88.9719Z" fill="black"/>
<path d="M146.517 150.138C146.517 141.803 139.761 135.047 131.426 135.047C123.092 135.047 116.335 141.803 116.335 150.138C116.335 158.472 123.092 165.229 131.426 165.229V165.923C122.708 165.923 115.641 158.856 115.641 150.138C115.641 141.42 122.708 134.352 131.426 134.352C140.144 134.352 147.212 141.42 147.212 150.138C147.212 158.856 140.144 165.923 131.426 165.923V165.229C139.761 165.229 146.517 158.472 146.517 150.138Z" fill="black"/>
<path d="M123.056 163.161V162.845C123.056 162.664 122.95 162.105 122.485 161.582C122.226 161.291 122.084 161.074 122.023 160.909C121.993 160.827 121.974 160.735 121.992 160.644C121.995 160.628 122 160.613 122.005 160.598L121.411 158.816L121.399 158.78V156.245L121.418 156.2C121.588 155.808 121.843 155.196 122.056 154.636C122.162 154.356 122.256 154.091 122.324 153.875C122.357 153.767 122.384 153.674 122.401 153.598C122.42 153.518 122.425 153.472 122.425 153.453C122.425 153.431 122.414 153.388 122.363 153.322C122.312 153.257 122.236 153.188 122.139 153.119C121.961 152.991 121.746 152.885 121.59 152.822H119.709L116.979 152.054V151.127C116.764 150.972 116.496 150.768 116.298 150.591C116.189 150.493 116.078 150.383 116.018 150.286C116.002 150.259 115.984 150.224 115.972 150.182C115.961 150.141 115.951 150.074 115.98 150C116.047 149.831 116.22 149.822 116.268 149.822H120.26C120.371 149.685 120.51 149.512 120.629 149.357C120.702 149.261 120.766 149.175 120.811 149.111C120.834 149.078 120.849 149.055 120.858 149.04C120.865 149.015 120.873 148.999 120.875 148.997C120.883 148.981 120.891 148.967 120.898 148.957C120.911 148.937 120.927 148.916 120.944 148.895C120.977 148.853 121.023 148.798 121.077 148.736C121.186 148.611 121.336 148.446 121.501 148.267C121.816 147.925 122.191 147.527 122.453 147.251L123.056 145.443V143.798C122.693 143.757 122.207 143.696 121.735 143.626C121.171 143.541 120.605 143.44 120.298 143.338C120.205 143.307 120.096 143.252 120.033 143.143C119.961 143.021 119.981 142.895 120.022 142.805C120.06 142.72 120.123 142.647 120.184 142.587C120.248 142.525 120.325 142.464 120.407 142.405C120.673 142.217 121.039 142.024 121.346 141.88L120.82 140.225L121.486 139.368L123.2 138.634C123.624 138.448 124.552 138.01 124.971 137.712C125.079 137.634 125.139 137.449 125.108 137.138C125.079 136.848 124.977 136.537 124.892 136.342C124.839 136.222 124.894 136.082 125.013 136.03C125.133 135.977 125.273 136.032 125.325 136.152C125.424 136.377 125.544 136.738 125.579 137.091C125.612 137.425 125.58 137.858 125.246 138.097C124.781 138.429 123.806 138.885 123.388 139.068L121.785 139.755L121.347 140.319L121.926 142.139L121.731 142.225C121.407 142.368 120.966 142.589 120.682 142.791C120.619 142.836 120.568 142.877 120.529 142.913C120.809 142.993 121.288 143.08 121.805 143.157C122.368 143.242 122.953 143.312 123.318 143.351L123.53 143.374V145.52L122.886 147.45L122.87 147.5L122.833 147.539C122.571 147.815 122.177 148.232 121.849 148.588C121.685 148.766 121.539 148.927 121.434 149.047C121.382 149.108 121.341 149.155 121.315 149.189C121.309 149.197 121.304 149.203 121.301 149.208C121.297 149.217 121.295 149.224 121.294 149.226C121.285 149.245 121.275 149.264 121.266 149.279C121.249 149.309 121.225 149.345 121.2 149.381C121.149 149.455 121.079 149.548 121.005 149.645C120.855 149.84 120.675 150.063 120.556 150.209L120.485 150.296H116.68C116.885 150.472 117.154 150.673 117.352 150.813L117.453 150.883V151.695L119.774 152.348H121.68L121.721 152.364C121.905 152.435 122.18 152.566 122.415 152.734C122.532 152.818 122.648 152.917 122.736 153.03C122.824 153.142 122.898 153.286 122.898 153.453C122.898 153.528 122.883 153.618 122.862 153.705C122.841 153.796 122.811 153.902 122.775 154.016C122.704 154.245 122.606 154.519 122.498 154.804C122.291 155.351 122.044 155.945 121.872 156.343V158.703L122.567 160.785L122.497 160.808C122.545 160.901 122.645 161.049 122.839 161.267C123.384 161.881 123.53 162.553 123.53 162.845V163.161C123.53 163.292 123.424 163.398 123.293 163.398C123.162 163.398 123.056 163.292 123.056 163.161Z" fill="black"/>
<path d="M139.476 150.612C139.476 150.37 139.611 150.151 139.736 149.998C139.846 149.863 139.974 149.748 140.075 149.67L140.672 148.4C140.715 148.241 140.733 148.027 140.679 147.864C140.653 147.786 140.614 147.728 140.559 147.688C140.504 147.648 140.415 147.612 140.265 147.612H138.765C138.642 147.612 138.459 147.58 138.265 147.538C138.064 147.494 137.827 147.434 137.584 147.367C137.115 147.239 136.614 147.087 136.282 146.981H134.569C134.392 147.087 134.138 147.23 133.886 147.352C133.745 147.42 133.601 147.483 133.468 147.53C133.342 147.574 133.203 147.612 133.083 147.612C132.972 147.612 132.876 147.569 132.804 147.527C132.729 147.483 132.656 147.425 132.589 147.369C132.443 147.245 132.323 147.126 132.171 147.012C132.025 146.903 131.89 146.831 131.758 146.81C131.637 146.791 131.498 146.812 131.328 146.936C131.058 147.132 130.922 147.474 130.877 147.868C130.839 148.201 130.871 148.539 130.919 148.781L132.067 149.24L132.739 150.5L132.754 150.528L133.313 153.006L133.319 153.032V154.286L134.009 156.585L134.74 157.641V158.392L136.407 158.749L136.087 157.211L136.068 157.12L136.116 157.04L137.5 154.76L139.233 154.1L139.274 154.084H139.953L139.484 152.412L139.476 152.381V150.612ZM139.949 152.315L140.577 154.558H139.361L137.82 155.145L136.569 157.206L137.019 159.365L134.266 158.775V157.789L133.577 156.793L133.566 156.757L132.856 154.389L132.846 154.356V153.084L132.306 150.694L131.73 149.615L130.514 149.129L130.485 149.011C130.414 148.726 130.355 148.271 130.406 147.814C130.458 147.362 130.624 146.862 131.049 146.553C131.313 146.361 131.578 146.302 131.832 146.343C132.075 146.381 132.285 146.506 132.455 146.634C132.619 146.756 132.785 146.914 132.895 147.007C132.956 147.059 133.004 147.096 133.043 147.118C133.067 147.133 133.081 147.137 133.085 147.138C133.123 147.137 133.198 147.123 133.311 147.083C133.421 147.044 133.548 146.989 133.68 146.925C133.944 146.798 134.213 146.644 134.379 146.542L134.436 146.507H136.355L136.391 146.519C136.717 146.623 137.231 146.78 137.709 146.91C137.948 146.976 138.176 147.034 138.366 147.075C138.563 147.118 138.699 147.139 138.765 147.139H140.265C140.493 147.139 140.686 147.195 140.837 147.305C140.988 147.415 141.079 147.564 141.129 147.715C141.226 148.008 141.183 148.337 141.124 148.545L141.119 148.564L141.111 148.581L140.479 149.923L140.453 149.979L140.403 150.015C140.325 150.071 140.203 150.175 140.103 150.297C139.998 150.427 139.949 150.538 139.949 150.612V152.315Z" fill="black"/>
<path d="M135.769 137.681C136.186 137.634 136.63 137.766 137.092 138.108C138.678 139.283 140.511 138.604 141.237 138.104C141.344 138.03 141.492 138.057 141.566 138.164C141.64 138.272 141.613 138.42 141.505 138.494C140.705 139.046 138.634 139.84 136.81 138.489C136.42 138.2 136.092 138.121 135.822 138.152C135.548 138.182 135.293 138.329 135.059 138.565C134.584 139.041 134.255 139.824 134.102 140.411L134.084 140.48L134.03 140.528C133.46 141.033 132.699 141.831 132.254 142.585C132.029 142.964 131.902 143.305 131.896 143.577C131.893 143.709 131.919 143.819 131.971 143.911C132.023 144.003 132.109 144.091 132.25 144.168C133.933 145.086 135.381 145.085 136.138 145.009C136.316 144.991 136.582 144.927 136.927 144.847C137.263 144.769 137.657 144.681 138.063 144.625C138.859 144.516 139.783 144.519 140.42 145.065C140.958 145.525 141.67 146.097 142.218 146.576C142.495 146.819 142.745 147.05 142.927 147.249C143.018 147.348 143.097 147.445 143.154 147.535C143.207 147.617 143.265 147.728 143.265 147.849V150.269L143.94 153.268L145.512 153.769H146.186C146.316 153.769 146.423 153.875 146.423 154.006C146.422 154.136 146.316 154.242 146.186 154.242H145.439L145.403 154.231L143.538 153.637L142.797 150.348L142.792 150.322V147.858C142.79 147.854 142.783 147.833 142.756 147.79C142.719 147.732 142.66 147.658 142.578 147.569C142.414 147.39 142.18 147.172 141.906 146.932C141.348 146.444 140.68 145.911 140.112 145.424C139.644 145.023 138.911 144.986 138.128 145.094C137.745 145.147 137.369 145.231 137.034 145.309C136.708 145.384 136.402 145.458 136.185 145.48C135.364 145.562 133.813 145.56 132.023 144.584C131.817 144.471 131.661 144.324 131.559 144.145C131.457 143.965 131.418 143.768 131.422 143.567C131.431 143.173 131.607 142.748 131.846 142.344C132.312 141.554 133.081 140.744 133.663 140.221C133.833 139.604 134.184 138.772 134.723 138.23C135.006 137.946 135.355 137.728 135.769 137.681Z" fill="black"/>
<path d="M131.348 165.687V165.111C131.192 165.003 131.08 164.854 131.087 164.656C131.095 164.441 131.248 164.269 131.382 164.152C131.667 163.905 132.126 163.692 132.448 163.571L132.489 163.556H132.532C133.068 163.556 133.814 163.536 134.321 163.478C133.891 163.287 133.447 163.047 133.017 162.805C132.468 162.495 131.945 162.185 131.479 161.952C131.27 161.848 131.122 161.823 131.002 161.834C130.879 161.846 130.758 161.896 130.604 161.991C130.311 162.172 129.881 162.542 129.233 162.826C128.614 163.096 127.993 163.445 127.42 163.771C126.855 164.093 126.324 164.399 125.911 164.565C125.789 164.613 125.652 164.554 125.603 164.433C125.554 164.312 125.613 164.174 125.735 164.125C126.11 163.975 126.606 163.69 127.185 163.36C127.757 163.035 128.398 162.674 129.043 162.392C129.657 162.123 129.977 161.822 130.355 161.588C130.536 161.476 130.731 161.384 130.959 161.363C131.189 161.342 131.426 161.396 131.69 161.529C132.171 161.769 132.714 162.09 133.25 162.392C133.792 162.698 134.331 162.986 134.827 163.177C134.885 163.199 134.938 163.223 134.984 163.25C135.026 163.275 135.08 163.312 135.119 163.368C135.166 163.434 135.196 163.532 135.155 163.638C135.122 163.723 135.056 163.771 135.018 163.794C134.939 163.843 134.833 163.872 134.737 163.893C134.633 163.915 134.51 163.934 134.376 163.949C133.856 164.008 133.115 164.028 132.577 164.029C132.274 164.146 131.903 164.327 131.692 164.51C131.639 164.556 131.604 164.596 131.582 164.628C131.567 164.651 131.563 164.665 131.561 164.67C131.569 164.684 131.596 164.718 131.69 164.765L131.821 164.83V165.687C131.821 165.817 131.715 165.924 131.584 165.924C131.454 165.924 131.348 165.817 131.348 165.687Z" fill="black"/>
<path d="M141.241 157.423L139.704 159.92L138.621 157.971L139.526 157.247L140.452 155.395L141.241 157.423ZM139.926 157.505L139.903 157.552L139.862 157.584L139.229 158.091L139.725 158.983L140.714 157.375L140.398 156.562L139.926 157.505Z" fill="black"/>
<path d="M155.002 133.21V139.839L145.586 141.984L145.432 141.307L154.307 139.285V133.643L131.386 122.407V128.433L108.935 139.434L117.568 141.306L117.42 141.985L106.836 139.69L130.691 128V122.412L108.041 133.737L107.73 133.116L131.037 121.462L155.002 133.21Z" fill="black"/>
<path d="M130.96 125.403L108.271 136.516L107.965 135.893L130.655 124.779L130.96 125.403Z" fill="black"/>
<path d="M111.472 134.815V137.594H110.777V134.815H111.472Z" fill="black"/>
<path d="M111.472 140.488V147.781H110.777V140.488H111.472Z" fill="black"/>
<path d="M112.861 147.318V149.865H109.504V147.318H112.861ZM110.198 149.17H112.166V148.013H110.198V149.17Z" fill="black"/>
<path d="M110.535 149.734L108.47 156.579H109.149L109.902 154.507L110.467 156.579H110.732L111.276 154.039L112.184 156.579H112.52L113.052 155.338L113.761 156.579H113.807L112.065 149.719L112.738 149.548L114.701 157.274H113.358L113.141 156.894L113.068 157.063L112.978 157.274H111.694L111.612 157.043L111.444 156.573L111.293 157.274H109.937L109.807 156.8L109.718 157.045L109.635 157.274H107.535L109.87 149.533L110.535 149.734Z" fill="black"/>
<path d="M124.907 73.4806C130.119 76.797 135.166 74.8599 137.022 73.4924L137.11 73.4275L137.219 73.4337C138.393 73.4989 139.587 74.0781 140.584 74.7456C141.587 75.4167 142.426 76.2008 142.897 76.7242L143.19 77.0494L131.126 81.8117L118.934 77.0616L119.188 76.739C121.07 74.355 123.632 73.5427 124.714 73.4346L124.818 73.4242L124.907 73.4806ZM137.288 74.0476C135.239 75.501 130.042 77.4077 124.674 74.0509C123.719 74.1788 121.601 74.8804 119.93 76.7975L131.124 81.1589L142.14 76.8105C141.678 76.3472 141.012 75.7634 140.246 75.2506C139.316 74.6283 138.272 74.1314 137.288 74.0476Z" fill="black"/>
<path d="M113.653 86.347C114.42 86.347 114.929 86.6737 115.236 87.1002C115.532 87.5111 115.628 87.995 115.628 88.3221V88.626H113.197V88.0183H114.986C114.947 87.835 114.871 87.6322 114.743 87.4551C114.549 87.1852 114.222 86.9548 113.653 86.9548C112.851 86.9548 111.739 87.1388 110.875 87.7028C110.447 87.9821 110.085 88.352 109.844 88.8369C109.604 89.3212 109.478 89.9379 109.549 90.7254C109.584 91.1114 109.814 91.7175 110.245 92.2574C110.671 92.7916 111.269 93.2302 112.023 93.3384L112.243 93.366C112.787 93.4267 113.516 93.4569 114.101 93.2903C114.431 93.1965 114.685 93.0483 114.843 92.8375C114.966 92.6738 115.051 92.4466 115.045 92.1203H113.501V91.5126H115.587L115.625 91.7734C115.709 92.3661 115.6 92.8417 115.329 93.2025C115.064 93.5566 114.672 93.7599 114.267 93.8749C113.468 94.1023 112.502 94.0173 111.94 93.9408L111.939 93.9405C110.991 93.8051 110.264 93.2564 109.77 92.6363C109.279 92.0216 108.992 91.306 108.944 90.7806C108.864 89.8969 109.003 89.1651 109.3 88.5669C109.596 87.9695 110.04 87.5226 110.543 87.1942C111.54 86.5429 112.783 86.3471 113.653 86.347Z" fill="black"/>
<path d="M115.631 88.322V92.4241H115.023V88.322H115.631Z" fill="black"/>
<path d="M115.018 89.6895V90.2972H113.043V89.6895H115.018Z" fill="black"/>
<path d="M113.649 78.8038C114.076 78.4696 114.706 78.3483 115.563 78.6122L115.573 78.6151L115.582 78.6184L129.755 84.0103V107.45L114.193 101.536C113.922 101.509 113.637 101.318 113.428 100.966C113.2 100.583 113.043 99.9912 113.043 99.1091V96.5263H113.347C114.145 96.5263 115.341 96.3282 116.326 95.7477C117.296 95.1763 118.057 94.2418 118.057 92.7281V87.5753C118.008 86.9493 117.718 85.9959 117.003 85.202C116.293 84.4142 115.148 83.7644 113.347 83.7644H113.043V79.9522L113.044 79.9386C113.075 79.601 113.239 79.1259 113.649 78.8038ZM118.664 92.7281C118.664 94.4959 117.754 95.6121 116.635 96.2714C115.653 96.8498 114.507 97.081 113.651 97.1251V99.1091C113.651 99.9284 113.798 100.4 113.95 100.655C114.103 100.912 114.245 100.932 114.258 100.932H114.314L114.366 100.952L129.147 106.568V84.4293L115.375 79.1902C114.658 78.9719 114.253 79.1032 114.024 79.2822C113.783 79.4716 113.673 79.7662 113.651 79.9848V83.1626C115.449 83.2325 116.668 83.9222 117.454 84.7952C118.275 85.7064 118.608 86.7985 118.663 87.54L118.664 87.5513V92.7281Z" fill="black"/>
<path d="M148.297 86.3252C147.529 86.3252 147.02 86.6519 146.713 87.0783C146.417 87.4892 146.322 87.9731 146.322 88.3003V88.6041H148.752V87.9964H146.963C147.003 87.8132 147.079 87.6104 147.206 87.4332C147.4 87.1633 147.727 86.9329 148.297 86.9329C149.098 86.9329 150.21 87.1169 151.074 87.681C151.502 87.9603 151.865 88.3302 152.105 88.8151C152.345 89.2994 152.471 89.916 152.4 90.7035C152.365 91.0895 152.135 91.6957 151.705 92.2355C151.278 92.7697 150.68 93.2083 149.927 93.3165L149.706 93.3441C149.163 93.4048 148.433 93.435 147.848 93.2685C147.518 93.1746 147.264 93.0265 147.106 92.8157C146.983 92.652 146.899 92.4248 146.905 92.0985H148.449V91.4907H146.362L146.325 91.7516C146.24 92.3442 146.349 92.8198 146.62 93.1806C146.886 93.5348 147.277 93.738 147.682 93.853C148.481 94.0805 149.447 93.9955 150.009 93.9189L150.011 93.9186C150.958 93.7833 151.685 93.2345 152.18 92.6145C152.67 91.9998 152.957 91.2842 153.005 90.7587C153.085 89.875 152.946 89.1432 152.649 88.5451C152.353 87.9476 151.909 87.5007 151.406 87.1724C150.409 86.5211 149.166 86.3252 148.297 86.3252Z" fill="black"/>
<path d="M146.318 88.3003V92.4023H146.926V88.3003H146.318Z" fill="black"/>
<path d="M146.927 89.6676V90.2753H148.902V89.6676H146.927Z" fill="black"/>
<path d="M148.296 78.7821C147.869 78.4479 147.24 78.3266 146.382 78.5904L146.373 78.5934L146.363 78.5967L132.19 83.9886V107.428L147.752 101.514C148.024 101.488 148.308 101.297 148.518 100.944C148.746 100.562 148.902 99.9694 148.902 99.0873V96.5046H148.598C147.801 96.5046 146.605 96.3064 145.619 95.7259C144.649 95.1546 143.889 94.22 143.889 92.7064V87.5536C143.937 86.9276 144.227 85.9742 144.942 85.1803C145.652 84.3925 146.797 83.7426 148.598 83.7426H148.902V79.9305L148.901 79.9168C148.87 79.5792 148.707 79.1041 148.296 78.7821ZM143.281 92.7064C143.281 94.4741 144.192 95.5904 145.311 96.2497C146.293 96.8281 147.439 97.0593 148.295 97.1034V99.0873C148.295 99.9067 148.148 100.378 147.996 100.633C147.842 100.891 147.701 100.91 147.687 100.91H147.631L147.579 100.93L132.798 106.547V84.4076L146.57 79.1685C147.287 78.9502 147.693 79.0815 147.921 79.2605C148.163 79.4499 148.273 79.7445 148.295 79.9631V83.1408C146.496 83.2108 145.278 83.9005 144.491 84.7735C143.67 85.6847 143.337 86.7767 143.282 87.5183L143.281 87.5295V92.7064Z" fill="black"/>
<path d="M137.05 65.8368C137.05 62.3965 134.261 59.6077 130.821 59.6077C127.381 59.6077 124.592 62.3965 124.592 65.8368C124.592 69.277 127.381 72.0658 130.821 72.0658V72.6735C127.045 72.6735 123.984 69.6126 123.984 65.8368C123.984 62.0609 127.045 59 130.821 59C134.597 59 137.658 62.0609 137.658 65.8368C137.658 69.6126 134.597 72.6735 130.821 72.6735V72.0658C134.261 72.0658 137.05 69.277 137.05 65.8368Z" fill="black"/>
<path d="M127.178 86.6509V102.755H126.57V86.6509H127.178Z" fill="black"/>
<path d="M135.533 86.6509V102.755H134.926V86.6509H135.533Z" fill="black"/>
<path d="M130.972 77.5091L129.148 75.6859V75.4082H129.491L129.527 75.2655C129.966 75.3766 130.551 75.4031 131.11 75.3857C131.666 75.3683 132.17 75.3088 132.437 75.261L133.39 75.0907L130.972 77.5091ZM131.657 75.964C131.49 75.9767 131.312 75.9874 131.129 75.9931C130.864 76.0013 130.582 75.9995 130.305 75.9836L130.972 76.6497L131.657 75.964Z" fill="black"/>
<path d="M130.662 76.5356L129.75 80.7895L129.156 80.6619L130.068 76.408L130.662 76.5356Z" fill="black"/>
<path d="M131.286 76.5331L132.198 80.939L132.793 80.8162L131.881 76.4103L131.286 76.5331Z" fill="black"/>
<path d="M28.1065 85.568L28.1209 85.5687C33.2834 85.8865 35.436 89.9433 35.8692 91.9426L35.9912 92.5047H35.4159C33.9894 92.5047 32.5792 93.3147 31.3341 94.4185C30.0991 95.5133 29.0912 96.8398 28.4763 97.7469L28.0775 98.3353L27.6995 97.7333C26.7123 96.1611 25.5053 94.8433 24.2829 93.9231C23.0513 92.996 21.8482 92.5047 20.8625 92.5047H20.2773L20.4109 91.9352C21.6046 86.8423 26.0256 85.568 28.0924 85.568H28.1065ZM28.0777 86.4956C26.3304 86.5014 22.6801 87.5477 21.4551 91.6199C22.5576 91.7753 23.7295 92.3455 24.8408 93.182C26.006 94.0592 27.1395 95.255 28.1048 96.6614C28.7462 95.7773 29.647 94.6746 30.7189 93.7243C31.8759 92.6986 33.2842 91.8052 34.8186 91.615C34.2097 89.7533 32.2497 86.7588 28.0777 86.4956Z" fill="black"/>
<path d="M47 93.1074L46.1482 93.3342C36.8817 95.8003 31.5634 99.2704 30.1028 100.642L29.9689 100.767H26.0435L25.9123 100.653C23.9048 98.901 20.824 97.3121 17.7531 96.0346C14.6915 94.761 11.6838 93.8146 9.85603 93.3344L9 93.1096L11.1168 91.2955H11.2883C18.148 91.2955 24.0977 95.0586 27.1476 97.7233C27.6779 98.1867 28.5009 98.1813 29.0291 97.7107C34.2303 93.0764 41.478 91.5021 44.6847 91.2962L44.8731 91.2843L47 93.1074ZM10.9383 92.6697C12.8086 93.2018 15.4385 94.0672 18.1095 95.1783C21.1401 96.439 24.266 98.0334 26.3887 99.8396H29.6061C31.3164 98.3177 36.4624 95.0741 45.0629 92.6687L44.5578 92.2357C41.3835 92.4821 34.5409 94.042 29.6463 98.4032C28.7713 99.1828 27.4221 99.1949 26.5371 98.4217C23.5964 95.8523 17.9304 92.2859 11.458 92.2243L10.9383 92.6697Z" fill="black"/>
<path d="M31.0138 79.9285C31.0138 78.3147 29.7057 77.0065 28.0918 77.0065C26.478 77.0065 25.1698 78.3147 25.1698 79.9285C25.1698 81.5423 26.478 82.8505 28.0918 82.8505V83.7782C25.9657 83.7782 24.2422 82.0546 24.2422 79.9285C24.2422 77.8024 25.9657 76.0789 28.0918 76.0789C30.2179 76.0789 31.9415 77.8024 31.9415 79.9285C31.9415 82.0546 30.2179 83.7782 28.0918 83.7782V82.8505C29.7057 82.8505 31.0138 81.5423 31.0138 79.9285Z" fill="black"/>
<path d="M45.5601 81.2521C45.7626 81.4088 45.7999 81.7001 45.6431 81.9026C45.4864 82.1052 45.1951 82.1423 44.9926 81.9857L27.4363 68.4025L9.88036 81.9857C9.67779 82.1423 9.38652 82.1052 9.22979 81.9026C9.07306 81.7001 9.11026 81.4088 9.31281 81.2521L27.4363 67.23L45.5601 81.2521Z" fill="black"/>
<path d="M17.2117 71.4781V69.5945H15.0407V74.4828C15.0406 74.739 14.8331 74.9465 14.577 74.9465C14.3209 74.9465 14.1133 74.739 14.1133 74.4828V68.6671H18.1394V71.4781C18.1394 71.7342 17.9316 71.942 17.6754 71.942C17.4193 71.942 17.2117 71.7342 17.2117 71.4781Z" fill="black"/>
<path d="M44.8036 99.9337C45.0597 99.9337 45.2675 100.141 45.2675 100.397C45.2675 100.654 45.0597 100.861 44.8036 100.861H11.5653C11.3091 100.861 11.1016 100.654 11.1016 100.397C11.1016 100.141 11.3091 99.9337 11.5653 99.9337H44.8036Z" fill="black"/>
<path d="M44.8155 140.516C44.8155 132.289 38.1463 125.62 29.9193 125.62C21.6923 125.62 15.0228 132.289 15.0228 140.516C15.0228 148.743 21.6923 155.412 29.9193 155.412V156.24L29.716 156.239C21.1933 156.131 14.3045 149.242 14.1965 140.719L14.1953 140.516C14.1953 131.832 21.2352 124.792 29.9193 124.792L30.1225 124.793C38.7129 124.902 45.6432 131.9 45.6432 140.516L45.6417 140.719C45.5329 149.31 38.5355 156.24 29.9193 156.24V155.412C38.1462 155.412 44.8154 148.743 44.8155 140.516Z" fill="black"/>
<path d="M50.5561 161.218L46.7165 162.294C46.4964 162.355 46.2678 162.227 46.2062 162.007C46.1447 161.787 46.2733 161.558 46.4933 161.497L49.5501 160.641L48.9285 158.259L30.6051 162.906V165.369L44.8521 161.907C45.0741 161.853 45.2977 161.989 45.3516 162.211C45.4056 162.433 45.2693 162.657 45.0472 162.711L29.7773 166.422V162.263L49.5221 157.255L50.5561 161.218Z" fill="black"/>
<path d="M8.99862 161.081L12.8382 162.156C13.0583 162.217 13.2869 162.089 13.3485 161.869C13.41 161.649 13.2814 161.42 13.0614 161.359L10.0046 160.503L10.6253 158.124L28.9496 162.904V165.364L14.7062 161.77C14.4846 161.714 14.2599 161.848 14.2039 162.07C14.148 162.291 14.2823 162.517 14.5039 162.572L29.7773 166.426V162.265L10.0332 157.115L8.99862 161.081Z" fill="black"/>
<path d="M16.6392 154.873C16.8609 154.929 16.9957 155.153 16.9403 155.375C16.8848 155.597 16.6603 155.731 16.4386 155.676L13.5521 154.954L12.9454 158.111C12.9022 158.336 12.6851 158.483 12.4607 158.44C12.2364 158.396 12.0894 158.18 12.1325 157.955L12.9049 153.94L16.6392 154.873Z" fill="black"/>
<path d="M17.7928 155.592C17.8462 155.37 18.0696 155.233 18.2918 155.286L25.2017 156.944L25.2148 156.949C26.3349 157.299 27.4815 157.771 28.3638 158.634C29.2601 159.511 29.8462 160.755 29.9188 162.568C29.9279 162.797 29.7502 162.989 29.5218 162.998C29.2935 163.007 29.101 162.83 29.0919 162.601C29.0265 160.967 28.509 159.934 27.7848 159.225C27.0492 158.506 26.0625 158.081 24.9807 157.742L18.0984 156.091C17.8762 156.037 17.7395 155.814 17.7928 155.592Z" fill="black"/>
<path d="M41.1274 155.287L34.2347 156.941L34.2213 156.944L34.2079 156.949C33.0879 157.299 31.9415 157.771 31.0593 158.634C30.1629 159.512 29.5768 160.755 29.5043 162.568C29.4952 162.797 29.6729 162.989 29.9012 162.998C30.1295 163.007 30.3221 162.83 30.3312 162.601C30.3966 160.967 30.9137 159.934 31.638 159.225C32.3738 158.505 33.3608 158.081 34.443 157.742L41.3244 156.091L41.3283 156.09L45.8698 154.954L46.4765 158.111C46.5196 158.336 46.7368 158.483 46.9612 158.44C47.1855 158.396 47.3325 158.18 47.2894 157.955L46.5169 153.94L41.1274 155.287Z" fill="black"/>
<path d="M22.5539 130.585L23.7801 132.425L23.811 132.471L24.9765 135.967L23.8268 139.273L23.7583 139.469L23.5605 139.532L21.1572 140.29L20.5394 142.638V145.847L21.2179 148.696L21.225 148.727L21.2277 148.758C21.2532 149.064 21.2434 149.426 21.1476 149.762C21.0516 150.098 20.8547 150.45 20.4761 150.648C20.0979 150.846 19.6292 150.843 19.0931 150.667C18.5576 150.491 17.909 150.129 17.1188 149.537C16.936 149.4 16.8987 149.14 17.0358 148.957C17.1729 148.775 17.4323 148.738 17.6151 148.875C18.3698 149.441 18.9363 149.745 19.3513 149.881C19.7657 150.017 19.9831 149.972 20.0922 149.915C20.2009 149.858 20.2926 149.741 20.3517 149.534C20.4088 149.334 20.4217 149.091 20.4044 148.854L19.7117 145.944V142.532L19.7254 142.48L20.4731 139.639L23.1132 138.805L24.102 135.962L23.0609 132.838L22.1111 131.413H18.3325C18.104 131.413 17.9186 131.228 17.9186 130.999C17.9186 130.771 18.104 130.585 18.3325 130.585H22.5539Z" fill="black"/>
<path d="M31.5896 127.576L33.8283 128.102H35.6684L38.2466 127.56C38.4702 127.513 38.6896 127.656 38.7367 127.879C38.7838 128.103 38.6407 128.323 38.4171 128.37L35.7963 128.921L35.7544 128.93H33.7322L31.3405 128.368L31.2804 128.353L29.8058 127.493L27.7961 128.967L25.5357 128.365L25.5235 128.361L25.5116 128.357L22.6149 127.392C22.3982 127.319 22.2811 127.085 22.3534 126.868C22.4257 126.651 22.66 126.534 22.8768 126.607L25.7579 127.567L27.6262 128.065L29.5356 126.666L29.7543 126.505L31.5896 127.576Z" fill="black"/>
<path d="M40.7458 130.088C40.9442 129.975 41.1971 130.044 41.3105 130.242C41.4239 130.44 41.3548 130.693 41.1564 130.806L38.3755 132.395C38.1272 132.852 37.4524 133.344 36.2614 133.344C35.4675 133.344 34.7161 133.236 34.1206 133.131C33.8284 133.079 33.5549 133.025 33.355 132.988C33.1344 132.947 33.0097 132.93 32.9512 132.93H30.6065C30.4906 132.93 30.3029 132.908 30.1042 132.881C29.8953 132.852 29.6428 132.813 29.3803 132.769C29.0479 132.714 28.6956 132.652 28.388 132.597C28.3929 132.788 28.4092 132.99 28.4439 133.174C28.4771 133.349 28.522 133.479 28.5698 133.561C28.6115 133.633 28.6335 133.632 28.6236 133.629C29.0649 133.718 30.1951 134.07 31.0757 134.355L31.8407 134.606L31.9717 134.65L33.2098 136.438C33.5712 136.55 34.0737 136.698 34.5466 136.823C34.8145 136.894 35.0692 136.957 35.2813 137.001C35.5047 137.048 35.6476 137.068 35.7098 137.068H38.3389L38.4407 137.333L39.1304 139.126L39.1581 139.198V140.317L38.5725 141.838C38.8188 141.95 39.1268 142.054 39.4449 142.092C39.9077 142.147 40.3372 142.062 40.6586 141.741C41.1864 141.213 41.8823 140.982 42.5007 140.896C43.0431 140.82 43.5602 140.85 43.9254 140.911L44.0724 140.939L44.3033 140.989L45.2057 143.696C45.2779 143.912 45.1607 144.147 44.9439 144.219C44.7271 144.291 44.4928 144.174 44.4205 143.957L43.6716 141.71C43.3903 141.674 43.0106 141.66 42.6153 141.716C42.0981 141.788 41.5985 141.971 41.2436 142.326C40.6823 142.887 39.9623 142.987 39.347 142.913C38.7365 142.84 38.1764 142.594 37.8378 142.386L37.545 142.206L38.3306 140.163V139.352L37.7706 137.896H35.7098C35.5512 137.896 35.331 137.857 35.1108 137.811C34.8792 137.762 34.6095 137.696 34.3348 137.623C33.785 137.477 33.1996 137.303 32.8277 137.187L32.692 137.145L31.4486 135.349C30.568 135.057 28.9508 134.538 28.4564 134.439C28.1609 134.38 27.9701 134.176 27.8545 133.977C27.74 133.781 27.6726 133.547 27.631 133.328C27.5473 132.886 27.5486 132.392 27.5733 132.071L27.6087 131.611L28.0622 131.696C28.428 131.764 28.9974 131.867 29.5154 131.953C29.7745 131.996 30.0186 132.034 30.217 132.061C30.4258 132.09 30.5569 132.103 30.6065 132.103H32.9512C33.0996 132.103 33.3025 132.137 33.5043 132.174C33.7267 132.215 33.9706 132.264 34.2646 132.316C34.8414 132.417 35.5382 132.516 36.2614 132.516C37.3545 132.516 37.6425 132.03 37.662 131.972L37.712 131.822L40.7458 130.088Z" fill="black"/>
<path d="M35.9044 147.184C36.3476 147.418 37.0265 147.795 37.6254 148.173C37.9243 148.361 38.2104 148.554 38.4392 148.732C38.5534 148.82 38.6592 148.909 38.7472 148.996C38.8298 149.078 38.9204 149.181 38.9784 149.297C39.0576 149.455 39.1256 149.697 39.1837 149.943C39.2448 150.202 39.3043 150.508 39.3575 150.819C39.4633 151.437 39.5486 152.102 39.5729 152.49C39.5872 152.718 39.4139 152.915 39.1858 152.929C38.9578 152.943 38.7612 152.77 38.7469 152.542C38.7252 152.195 38.6453 151.562 38.5419 150.958C38.4905 150.657 38.4344 150.37 38.3785 150.134C38.3197 149.884 38.2692 149.729 38.2381 149.667C38.235 149.662 38.2165 149.636 38.1652 149.585C38.109 149.529 38.0309 149.462 37.9316 149.385C37.7332 149.231 37.4727 149.055 37.1842 148.873C36.6879 148.56 36.1295 148.245 35.7092 148.019L33.1217 149.374C32.6412 150.288 31.7393 152.007 31.5302 152.425C31.4716 152.542 31.3832 152.641 31.301 152.719C31.215 152.801 31.1135 152.88 31.0062 152.956C30.7916 153.108 30.5275 153.263 30.2555 153.408C29.7631 153.672 29.2151 153.921 28.8192 154.088L27.923 155.497C27.8003 155.689 27.5445 155.746 27.3517 155.624C27.159 155.501 27.1023 155.245 27.2249 155.052L28.2607 153.425L28.3818 153.375C28.7637 153.218 29.3505 152.954 29.8648 152.679C30.1225 152.541 30.3533 152.404 30.5286 152.28C30.6162 152.218 30.6835 152.164 30.7312 152.119C30.7829 152.07 30.7932 152.048 30.7899 152.055C31.013 151.609 31.9906 149.746 32.449 148.875L32.5091 148.761L35.7122 147.083L35.9044 147.184Z" fill="black"/>
<path d="M43.1293 122.479C43.2079 122.309 43.4488 122.309 43.5274 122.479L44.0538 123.612C44.0857 123.681 44.151 123.729 44.2264 123.738L45.4674 123.888C45.6527 123.911 45.727 124.139 45.5903 124.267L44.6748 125.117C44.6192 125.169 44.5944 125.246 44.609 125.32L44.8494 126.547C44.8831 126.719 44.7141 126.854 44.5584 126.795L44.5275 126.781L43.4349 126.173C43.3686 126.137 43.2881 126.137 43.2218 126.173L42.1292 126.781C41.9661 126.872 41.7714 126.73 41.8073 126.547L42.0477 125.32C42.0605 125.255 42.0431 125.188 42.0013 125.138L41.9819 125.117L41.0664 124.267C40.9297 124.139 41.004 123.911 41.1893 123.888L42.4303 123.738C42.4963 123.73 42.5543 123.692 42.5892 123.637L42.6029 123.612L43.1293 122.479ZM43.1555 123.869C43.0347 124.129 42.7881 124.308 42.5035 124.343L42.0962 124.392L42.3967 124.671C42.6067 124.866 42.7009 125.156 42.6458 125.438L42.5666 125.84L42.9255 125.641L42.9731 125.616C43.1979 125.51 43.4588 125.51 43.6836 125.616L43.7312 125.641L44.0898 125.84L44.0109 125.438C43.9558 125.156 44.05 124.866 44.26 124.671L44.5602 124.392L44.1532 124.343C43.8686 124.308 43.622 124.129 43.5012 123.869L43.3281 123.497L43.1555 123.869Z" fill="black"/>
<path d="M29.7191 119.127C29.7978 118.958 30.0386 118.958 30.1173 119.127L30.6436 120.261C30.6756 120.329 30.7409 120.377 30.8162 120.386L32.0573 120.536C32.2426 120.559 32.3169 120.788 32.1802 120.915L31.2646 121.766C31.209 121.818 31.1843 121.894 31.1988 121.969L31.4393 123.196C31.4729 123.367 31.3039 123.502 31.1483 123.444L31.1173 123.43L30.0247 122.822C29.9584 122.785 29.878 122.785 29.8117 122.822L28.7191 123.43C28.556 123.52 28.3613 123.379 28.3971 123.196L28.6375 121.969C28.6503 121.904 28.633 121.837 28.5911 121.786L28.5718 121.766L27.6562 120.915C27.5195 120.788 27.5938 120.559 27.7791 120.536L29.0202 120.386C29.0861 120.378 29.1442 120.341 29.1791 120.285L29.1928 120.261L29.7191 119.127ZM29.7453 120.517C29.6246 120.777 29.378 120.957 29.0934 120.991L28.686 121.04L28.9866 121.32C29.1965 121.515 29.2907 121.805 29.2356 122.086L29.1565 122.489L29.5153 122.289L29.5629 122.265C29.7877 122.158 30.0487 122.158 30.2735 122.265L30.3211 122.289L30.6796 122.489L30.6008 122.086C30.5456 121.805 30.6398 121.515 30.8498 121.32L31.15 121.04L30.743 120.991C30.4584 120.957 30.2118 120.777 30.0911 120.517L29.9179 120.145L29.7453 120.517Z" fill="black"/>
<path d="M16.0082 122.479C16.0868 122.309 16.3277 122.309 16.4063 122.479L16.9327 123.612C16.9646 123.681 17.0299 123.729 17.1053 123.738L18.3463 123.888C18.5316 123.911 18.6059 124.139 18.4692 124.267L17.5537 125.117C17.4981 125.169 17.4733 125.246 17.4879 125.32L17.7283 126.547C17.762 126.719 17.593 126.854 17.4373 126.795L17.4064 126.781L16.3138 126.173C16.2475 126.137 16.167 126.137 16.1007 126.173L15.0081 126.781C14.845 126.872 14.6503 126.73 14.6862 126.547L14.9266 125.32C14.9394 125.255 14.922 125.188 14.8802 125.138L14.8608 125.117L13.9453 124.267C13.8086 124.139 13.8829 123.911 14.0682 123.888L15.3093 123.738C15.3752 123.73 15.4332 123.692 15.4681 123.637L15.4818 123.612L16.0082 122.479ZM16.0344 123.869C15.9136 124.129 15.667 124.308 15.3825 124.343L14.9751 124.392L15.2756 124.671C15.4856 124.866 15.5798 125.156 15.5247 125.438L15.4455 125.84L15.8044 125.641L15.852 125.616C16.0768 125.51 16.3378 125.51 16.5625 125.616L16.6101 125.641L16.9687 125.84L16.8898 125.438C16.8347 125.156 16.9289 124.866 17.1389 124.671L17.4391 124.392L17.0321 124.343C16.7475 124.308 16.5009 124.129 16.3801 123.869L16.207 123.497L16.0344 123.869Z" fill="black"/>
<path d="M227.934 129.51C228.247 129.525 228.499 129.713 228.639 129.944C229.588 131.509 230.745 132.175 231.83 132.392C232.931 132.612 233.998 132.378 234.753 132.071C235.231 131.877 235.761 132.097 236.005 132.514C236.338 133.084 236.744 133.28 237.126 133.317C237.533 133.356 237.961 133.218 238.299 133.028C238.309 133.022 238.32 133.016 238.33 133.01C238.337 133.006 238.359 132.986 238.359 132.937V129.756L238.681 129.944C238.773 129.998 238.874 130.036 238.98 130.055L239.125 130.081V132.937C239.125 133.158 239.041 133.388 238.869 133.554V135.368C238.869 135.932 238.754 136.367 238.535 136.683C238.31 137.008 238 137.168 237.693 137.223C237.586 137.242 237.482 137.288 237.412 137.345C237.344 137.4 237.338 137.439 237.338 137.455C237.338 137.554 237.32 137.654 237.285 137.748C235.603 142.276 232.309 143.027 230.704 142.773C230.688 142.771 230.675 142.77 230.662 142.771C228.951 142.863 227.552 142.346 226.485 141.333C225.477 140.377 224.791 139.003 224.391 137.354C223.861 137.204 223.496 136.802 223.26 136.4C222.984 135.928 222.844 135.392 222.797 135.035L222.793 135.01V134.985C222.793 134.143 222.955 133.59 223.18 133.249C223.259 133.13 223.32 133.047 223.371 132.953C223.419 132.863 223.431 132.81 223.431 132.78V131.412H224.197V132.747L224.199 132.769C224.449 133.581 225.225 133.876 225.821 133.951C225.824 133.951 225.826 133.951 225.827 133.951H225.828C225.828 133.951 225.828 133.951 225.828 133.95C225.829 133.95 225.831 133.949 225.833 133.947C225.842 133.938 225.855 133.916 225.855 133.881V132.193C225.763 131.097 225.982 130.375 226.449 129.948C226.908 129.527 227.508 129.489 227.934 129.51ZM227.897 130.274C227.521 130.256 227.19 130.307 226.965 130.512C226.751 130.708 226.532 131.143 226.619 132.145L226.621 132.161V133.881C226.621 134.324 226.263 134.778 225.726 134.71C225.18 134.642 224.335 134.394 223.811 133.683C223.701 133.857 223.562 134.235 223.559 134.958C223.6 135.24 223.714 135.659 223.921 136.013C224.122 136.356 224.374 136.582 224.682 136.637L224.745 136.645L225.02 136.673L225.081 136.943C225.451 138.608 226.1 139.913 227.012 140.778C227.914 141.634 229.102 142.088 230.62 142.006C230.69 142.003 230.758 142.007 230.824 142.017C232.068 142.214 235.013 141.668 236.568 137.481C236.571 137.473 236.573 137.463 236.573 137.455C236.573 137.142 236.741 136.905 236.928 136.752C237.113 136.601 237.344 136.507 237.56 136.469C237.691 136.446 237.811 136.383 237.906 136.247C238.007 136.101 238.104 135.836 238.104 135.368V133.947C237.784 134.053 237.423 134.115 237.053 134.079C236.415 134.018 235.795 133.673 235.344 132.9C235.275 132.782 235.135 132.742 235.041 132.781C234.194 133.125 232.97 133.401 231.68 133.143C230.374 132.881 229.039 132.08 227.985 130.341C227.953 130.289 227.914 130.275 227.897 130.274Z" fill="black"/>
<path d="M216.551 149.448C216.551 149.019 216.858 148.635 217.305 148.575C219.833 148.238 225.086 148.333 229.85 150.883C230.401 151.178 231.063 151.198 231.627 150.936C234.35 149.67 239.375 148.017 244.227 148.582C244.678 148.634 245.003 149.02 245.003 149.461V156.93H244.238V149.461C244.238 149.395 244.191 149.348 244.138 149.342C239.486 148.801 234.613 150.392 231.95 151.63C231.165 151.995 230.25 151.966 229.489 151.558C224.906 149.105 219.826 149.011 217.406 149.334C217.361 149.34 217.317 149.38 217.317 149.448V156.93H216.551V149.448Z" fill="black"/>
<path d="M228.793 150.805H229.559V169.561H228.793V150.805Z" fill="black"/>
<path d="M231.863 150.805H232.629V169.561H231.863V150.805Z" fill="black"/>
<path d="M244.365 165.924V161.778H245.131V165.924C245.131 166.465 244.667 166.854 244.169 166.844C242.834 166.818 240.96 167.174 238.937 167.712C236.922 168.248 234.794 168.953 232.965 169.605C231.425 170.154 229.746 170.095 228.229 169.519C223.625 167.769 219.566 167.077 217.565 167.194C217.053 167.224 216.551 166.833 216.551 166.267V161.778H217.317V166.267C217.317 166.306 217.333 166.345 217.371 166.378C217.41 166.413 217.465 166.433 217.52 166.43C219.674 166.304 223.85 167.036 228.501 168.803C229.86 169.32 231.351 169.367 232.708 168.884C234.547 168.229 236.697 167.515 238.74 166.972C240.773 166.432 242.735 166.05 244.183 166.078C244.297 166.081 244.365 165.994 244.365 165.924Z" fill="black"/>
<path d="M238.036 154.118C239.411 153.835 240.942 153.635 242.221 153.741L242.603 153.773L242.539 154.536L242.158 154.504C240.987 154.407 239.541 154.59 238.19 154.868C236.845 155.145 235.624 155.51 234.917 155.76L234.556 155.887L234.301 155.165L234.662 155.038C235.4 154.777 236.655 154.402 238.036 154.118Z" fill="black"/>
<path d="M243.596 146.595C243.596 146.526 243.539 146.47 243.47 146.471C236.998 146.55 233.393 148.129 231.821 149.338C231.505 149.581 231.095 149.67 230.718 149.657C230.34 149.644 229.944 149.526 229.642 149.291C228.518 148.416 226.528 147.761 224.342 147.302C222.175 146.847 219.88 146.597 218.203 146.495C218.139 146.491 218.078 146.542 218.078 146.619V149.019H217.312V146.619C217.313 146.114 217.732 145.7 218.249 145.731C219.954 145.834 222.287 146.088 224.5 146.553C226.694 147.014 228.839 147.695 230.112 148.687C230.262 148.803 230.494 148.883 230.745 148.892C230.997 148.901 231.217 148.837 231.354 148.732C233.097 147.391 236.881 145.786 243.461 145.705C243.956 145.699 244.361 146.1 244.361 146.595V149.019H243.596V146.595Z" fill="black"/>
<path d="M228.09 141.819L228.024 142.196C227.964 142.534 227.893 143.07 227.678 143.559C227.455 144.067 227.066 144.555 226.364 144.789C225.18 145.184 223.717 145.161 221.196 146.548L220.861 146.732L220.492 146.061L220.828 145.877C223.41 144.456 225.168 144.381 226.122 144.063C226.569 143.914 226.817 143.615 226.977 143.251C227.145 142.868 227.202 142.448 227.27 142.063L227.336 141.686L228.09 141.819Z" fill="black"/>
<path d="M233.202 141.819L233.268 142.196C233.328 142.534 233.399 143.07 233.613 143.559C233.837 144.067 234.226 144.555 234.928 144.789C235.222 144.887 235.538 144.952 235.867 145.014C236.201 145.078 236.555 145.14 236.957 145.235C237.75 145.423 238.726 145.737 239.968 146.42L240.303 146.605L240.672 145.934L240.336 145.749C239.027 145.029 237.985 144.692 237.133 144.49C236.71 144.39 236.334 144.324 236.01 144.262C235.68 144.2 235.41 144.143 235.17 144.063C234.723 143.914 234.474 143.615 234.315 143.251C234.146 142.868 234.09 142.448 234.022 142.063L233.956 141.686L233.202 141.819Z" fill="black"/>
<path d="M235.2 144.426L234.929 144.697C233.45 146.175 231.717 146.483 230.175 146.269C228.649 146.057 227.3 145.335 226.514 144.729L226.211 144.495L226.679 143.889L226.982 144.123C227.685 144.666 228.913 145.321 230.28 145.511C231.633 145.699 233.111 145.433 234.388 144.155L234.658 143.885L235.2 144.426Z" fill="black"/>
<path d="M245.943 155.301C246.613 155.876 247.204 156.654 247.322 157.612C247.541 159.391 246.97 160.816 246.483 161.541C246.316 161.79 246.041 161.906 245.779 161.906H242.449C241.815 161.906 241.301 161.392 241.301 160.758V157.696C241.301 157.057 241.828 156.545 242.484 156.61C242.839 156.645 243.228 156.681 243.578 156.683C243.946 156.685 244.197 156.648 244.319 156.587C244.433 156.531 244.545 156.35 244.578 155.969C244.609 155.616 244.558 155.224 244.5 154.974L244.239 153.84L245.943 155.301ZM242.067 160.758C242.067 160.969 242.238 161.14 242.449 161.14H245.779C245.824 161.14 245.843 161.122 245.847 161.115C246.246 160.521 246.755 159.277 246.562 157.705C246.476 157.011 246.038 156.391 245.444 155.882L245.352 155.803C245.351 155.88 245.347 155.958 245.341 156.035C245.304 156.459 245.161 157.023 244.662 157.272C244.361 157.423 243.943 157.451 243.572 157.448C243.183 157.446 242.761 157.406 242.409 157.371C242.223 157.353 242.067 157.489 242.067 157.696V160.758Z" fill="black"/>
<path d="M215.425 155.173C214.754 155.748 214.163 156.527 214.045 157.484C213.826 159.263 214.398 160.689 214.884 161.414C215.051 161.662 215.326 161.778 215.588 161.778H218.918C219.552 161.778 220.066 161.264 220.066 160.63V157.568C220.066 156.929 219.539 156.417 218.883 156.482C218.528 156.517 218.139 156.553 217.79 156.555C217.421 156.558 217.17 156.521 217.048 156.46C216.934 156.403 216.822 156.223 216.789 155.841C216.758 155.489 216.809 155.096 216.867 154.847L217.129 153.713L215.425 155.173ZM219.301 160.63C219.301 160.841 219.129 161.013 218.918 161.013H215.588C215.543 161.013 215.525 160.994 215.52 160.987C215.121 160.393 214.612 159.15 214.805 157.578C214.891 156.883 215.329 156.264 215.923 155.755L216.015 155.676C216.016 155.753 216.02 155.83 216.026 155.907C216.063 156.332 216.206 156.895 216.705 157.145C217.006 157.295 217.424 157.323 217.795 157.321C218.184 157.318 218.606 157.279 218.959 157.244C219.144 157.226 219.301 157.361 219.301 157.568V160.63Z" fill="black"/>
<path d="M219.865 157.695V158.461H217.695V157.695H219.865Z" fill="black"/>
<path d="M241.811 157.95V158.716H243.98V157.95H241.811Z" fill="black"/>
<path d="M219.865 158.716V159.482H217.312V158.716H219.865Z" fill="black"/>
<path d="M241.807 158.971V159.737H244.359V158.971H241.807Z" fill="black"/>
<path d="M219.864 159.737V160.503H217.949V159.737H219.864Z" fill="black"/>
<path d="M241.808 159.992V160.758H243.723V159.992H241.808Z" fill="black"/>
<path d="M223.235 123.899C225.755 122.608 232.398 120.818 239 123.893L239.212 123.992V130.346L238.724 130.175C232.421 127.973 225.954 129.261 223.531 130.172L223.035 130.359V124.001L223.235 123.899ZM238.478 124.462C232.377 121.72 226.265 123.257 223.769 124.454V129.312C226.524 128.411 232.515 127.399 238.478 129.319V124.462Z" fill="black"/>
<path d="M231.076 115.607C231.197 115.57 231.327 115.571 231.447 115.61L231.507 115.633L247.062 122.586C247.542 122.801 247.545 123.482 247.066 123.701L239.241 127.268C239.056 127.352 238.838 127.271 238.754 127.086C238.67 126.902 238.752 126.684 238.936 126.6L246.515 123.145L231.256 116.325L215.303 123.145L223.21 126.598C223.396 126.679 223.481 126.895 223.399 127.081C223.318 127.267 223.102 127.352 222.916 127.271L214.75 123.705C214.258 123.49 214.261 122.793 214.754 122.582L231.017 115.629L231.076 115.607Z" fill="black"/>
<path d="M245.334 127.668H243.132V130.359C243.132 130.967 243.625 131.46 244.233 131.46C244.841 131.46 245.334 130.967 245.334 130.359V127.668ZM246.068 130.359C246.068 131.373 245.247 132.194 244.233 132.194C243.22 132.194 242.398 131.373 242.398 130.359V127.546C242.398 127.208 242.672 126.934 243.01 126.934H243.866V121.918C243.866 121.716 244.031 121.552 244.233 121.552C244.436 121.552 244.6 121.716 244.6 121.918V126.934H245.457C245.794 126.934 246.068 127.208 246.068 127.546V130.359Z" fill="black"/>
<path d="M220.608 121.946C220.795 121.869 221.01 121.959 221.086 122.147C221.163 122.334 221.073 122.549 220.886 122.625L218.194 123.727C218.006 123.803 217.792 123.713 217.715 123.526C217.638 123.338 217.728 123.124 217.916 123.047L220.608 121.946Z" fill="black"/>
<path d="M228.8 118.033C228.987 117.954 229.202 118.041 229.282 118.227C229.361 118.414 229.274 118.629 229.087 118.709L224.194 120.788C224.008 120.868 223.792 120.781 223.713 120.594C223.634 120.408 223.721 120.192 223.907 120.113L228.8 118.033Z" fill="black"/>
<path d="M243.024 114.007C243.108 113.809 243.39 113.809 243.474 114.007L243.957 115.145C243.98 115.197 244.019 115.24 244.07 115.266L245.155 115.829C245.331 115.921 245.331 116.172 245.155 116.264L244.07 116.827C244.019 116.853 243.98 116.896 243.957 116.948L243.474 118.086C243.39 118.284 243.108 118.284 243.024 118.086L242.54 116.948C242.518 116.896 242.478 116.853 242.428 116.827L241.343 116.264C241.167 116.172 241.167 115.921 241.343 115.829L242.428 115.266C242.478 115.24 242.518 115.197 242.54 115.145L243.024 114.007Z" fill="black"/>
<path d="M247.774 119.717C247.977 119.717 248.141 119.881 248.141 120.084C248.141 120.286 247.977 120.451 247.774 120.451H245.449C245.246 120.451 245.082 120.286 245.082 120.084C245.082 119.881 245.246 119.717 245.449 119.717H247.774Z" fill="black"/>
<path d="M246.312 121.308V118.738C246.312 118.535 246.477 118.371 246.68 118.371C246.882 118.371 247.047 118.535 247.047 118.738V121.308C247.047 121.51 246.882 121.675 246.68 121.675C246.477 121.675 246.313 121.51 246.312 121.308Z" fill="black"/>
<path d="M238.606 114.946C238.809 114.946 238.973 115.11 238.973 115.313C238.973 115.515 238.809 115.68 238.606 115.68H236.281C236.078 115.68 235.914 115.515 235.914 115.313C235.914 115.11 236.078 114.946 236.281 114.946H238.606Z" fill="black"/>
<path d="M237.133 116.537V113.967C237.133 113.764 237.297 113.6 237.5 113.6C237.703 113.6 237.867 113.764 237.867 113.967V116.537C237.867 116.739 237.703 116.904 237.5 116.904C237.297 116.904 237.133 116.739 237.133 116.537Z" fill="black"/>
</svg>
