<svg width="296" height="220" viewBox="0 0 296 220" fill="none" xmlns="http://www.w3.org/2000/svg">
<path d="M49.3394 39.5155C49.9319 38.923 50.8924 38.9231 51.4849 39.5155C52.0774 40.108 52.0774 41.0685 51.4849 41.661L38.5439 54.602L36.3984 52.4565L49.3394 39.5155Z" fill="black"/>
<path d="M56.6606 36.4845C56.0681 37.077 55.1076 37.0769 54.5151 36.4845C53.9226 35.892 53.9226 34.9315 54.5151 34.339L67.4561 21.398L69.6016 23.5435L56.6606 36.4845Z" fill="black"/>
<path d="M36.2812 41.5589C36.2812 40.7209 36.9605 40.0416 37.7985 40.0416C38.6364 40.0416 39.3157 40.7209 39.3157 41.5589V51.6884H49.1222C49.96 51.6885 50.6393 52.3679 50.6395 53.2056C50.6395 54.0435 49.9601 54.7227 49.1222 54.7229H38.5571C37.3002 54.7229 36.2812 53.7039 36.2812 52.447V41.5589Z" fill="black"/>
<path d="M69.7188 34.4411C69.7188 35.2791 69.0395 35.9584 68.2015 35.9584C67.3636 35.9584 66.6843 35.2791 66.6843 34.4411V24.3116H56.8778C56.04 24.3115 55.3607 23.6321 55.3605 22.7944C55.3605 21.9565 56.0399 21.2773 56.8778 21.2771H67.4429C68.6998 21.2771 69.7188 22.2961 69.7188 23.553V34.4411Z" fill="black"/>
<path d="M75 16V60H31V16H75ZM34.0345 56.9655H71.9655V19.0345H34.0345V56.9655Z" fill="black"/>
<path d="M151.108 173.837L148.624 176.416L135.824 164.091L138.308 161.511L151.108 173.837Z" fill="#0C0966"/>
<path d="M129.076 154.222L144.249 159.139L133.37 169.582L129.076 154.222Z" fill="#0C0966"/>
<path d="M144.249 159.139L133.37 169.583L129.076 154.222L144.249 159.139ZM133.83 167.9L142.549 159.53L130.387 155.588L133.83 167.9Z" fill="#0C0966"/>
<path d="M168.64 173.885C177.629 173.885 184.917 181.172 184.917 190.161C184.917 199.151 177.629 206.438 168.64 206.438C159.651 206.438 152.363 199.151 152.363 190.161C152.363 181.172 159.651 173.885 168.64 173.885ZM156.528 187.89L164.098 193.568V190.161C170.533 189.783 176.135 190.692 178.861 197.354C179.618 192.054 176.817 184.408 164.098 185.62V182.213L156.528 187.89Z" fill="#0C0966"/>
<path d="M136.366 197.489L152.111 197.789C152.597 199.065 153.214 200.276 153.946 201.405L135.419 201.053C133.956 201.025 132.785 199.831 132.785 198.368V173.23H136.366V197.489ZM173.426 158.089C174.909 158.089 176.112 159.291 176.112 160.775V172.552C174.962 172.179 173.765 171.911 172.531 171.759V161.67H146.791V158.089H173.426Z" fill="#0C0966"/>
<path d="M30.7103 161.364L46.703 164.788L33.2823 177.516L30.7103 161.364Z" fill="#0C0966"/>
<path d="M46.703 164.787L33.2823 177.515L30.7103 161.364L46.703 164.787ZM34.056 175.232L44.3816 165.44L32.0771 162.806L34.056 175.232Z" fill="#0C0966"/>
<path d="M40.4396 169.176L48.1749 177.332L45.7274 179.653L37.9922 171.497L40.4396 169.176Z" fill="#0C0966"/>
<path d="M30.7103 204.347L46.703 200.924L33.2823 188.196L30.7103 204.347Z" fill="#0C0966"/>
<path d="M46.703 200.924L33.2823 188.196L30.7103 204.347L46.703 200.924ZM34.056 190.479L44.3816 200.272L32.0771 202.905L34.056 190.479Z" fill="#0C0966"/>
<path d="M40.4396 196.536L48.1749 188.379L45.7274 186.058L37.9922 194.214L40.4396 196.536Z" fill="#0C0966"/>
<path d="M72.8092 161.364L56.8165 164.788L70.2372 177.516L72.8092 161.364Z" fill="#0C0966"/>
<path d="M56.8166 164.788L70.2372 177.516L72.8092 161.364L56.8166 164.788ZM69.4635 175.233L59.138 165.44L71.4424 162.807L69.4635 175.233Z" fill="#0C0966"/>
<path d="M63.076 169.176L55.3408 177.332L57.7882 179.653L65.5234 171.497L63.076 169.176Z" fill="#0C0966"/>
<path d="M72.8092 204.347L56.8165 200.923L70.2372 188.195L72.8092 204.347Z" fill="#0C0966"/>
<path d="M56.8166 200.924L70.2372 188.196L72.8092 204.347L56.8166 200.924ZM69.4635 190.479L59.138 200.271L71.4424 202.905L69.4635 190.479Z" fill="#0C0966"/>
<path d="M63.076 196.535L55.3408 188.379L57.7882 186.058L65.5234 194.214L63.076 196.535Z" fill="#0C0966"/>
<path d="M55.8102 183.263C55.8102 185.5 53.9971 187.313 51.7605 187.313C49.524 187.313 47.7109 185.5 47.7109 183.263C47.7109 181.026 49.524 179.213 51.7605 179.213C53.9971 179.213 55.8102 181.026 55.8102 183.263Z" fill="#0C0966"/>
<path d="M54.9102 183.263C54.9102 181.523 53.5001 180.113 51.7605 180.113C50.021 180.113 48.6109 181.523 48.6109 183.263C48.6109 185.003 50.021 186.413 51.7605 186.413V187.313C49.524 187.313 47.7109 185.5 47.7109 183.263C47.7109 181.026 49.524 179.213 51.7605 179.213C53.9971 179.213 55.8102 181.026 55.8102 183.263C55.8102 185.5 53.9971 187.313 51.7605 187.313V186.413C53.5001 186.413 54.9102 185.003 54.9102 183.263Z" fill="#0C0966"/>
<path d="M241.998 158.461C243.591 158.502 244.327 160.458 243.157 161.538L239.11 165.273L246.315 172.478C246.975 173.138 246.975 174.208 246.315 174.867C245.655 175.527 244.586 175.527 243.926 174.867L234.234 165.176L237.958 161.737L227.379 161.466V172.11L231.692 168.415L240.824 177.547C241.483 178.207 241.483 179.276 240.824 179.936C240.164 180.596 239.094 180.596 238.434 179.936L231.515 173.017L226.929 176.948C225.778 177.934 224 177.116 224 175.601V158L241.998 158.461Z" fill="#0C0966"/>
<path d="M241.998 205.358C243.591 205.317 244.327 203.361 243.157 202.281L239.11 198.546L246.315 191.341C246.975 190.681 246.975 189.612 246.315 188.952C245.655 188.292 244.586 188.292 243.926 188.952L234.234 198.643L237.958 202.082L227.379 202.353V191.709L231.692 195.404L240.824 186.272C241.483 185.613 241.483 184.543 240.824 183.883C240.164 183.223 239.094 183.223 238.434 183.883L231.515 190.802L226.929 186.871C225.778 185.885 224 186.703 224 188.219V205.819L241.998 205.358Z" fill="#0C0966"/>
<path d="M255.002 158.461C253.409 158.502 252.673 160.458 253.843 161.538L257.89 165.273L250.685 172.478C250.025 173.138 250.025 174.208 250.685 174.867C251.345 175.527 252.414 175.527 253.074 174.867L262.766 165.176L259.042 161.737L269.621 161.466V172.11L265.308 168.415L256.176 177.547C255.517 178.207 255.517 179.276 256.176 179.936C256.836 180.596 257.906 180.596 258.566 179.936L265.485 173.017L270.071 176.948C271.222 177.934 273 177.116 273 175.601V158L255.002 158.461Z" fill="#0C0966"/>
<path d="M255.002 205.358C253.409 205.317 252.673 203.361 253.843 202.281L257.89 198.546L250.685 191.341C250.025 190.681 250.025 189.612 250.685 188.952C251.345 188.292 252.414 188.292 253.074 188.952L262.766 198.643L259.042 202.082L269.621 202.353V191.709L265.308 195.404L256.176 186.272C255.517 185.613 255.517 184.543 256.176 183.883C256.836 183.223 257.906 183.223 258.566 183.883L265.485 190.802L270.071 186.871C271.222 185.885 273 186.703 273 188.219V205.819L255.002 205.358Z" fill="#0C0966"/>
<path d="M271.894 107.808V111.988H227.164V107.808H271.894Z" fill="#0C0966"/>
<path d="M234.369 98.4883C235.129 97.6195 236.45 97.5314 237.319 98.2915C238.187 99.0517 238.275 100.373 237.515 101.241L229.94 109.898L237.515 118.554C238.275 119.423 238.187 120.744 237.319 121.504C236.45 122.264 235.129 122.176 234.369 121.307L226.072 111.825C225.106 110.722 225.106 109.074 226.072 107.971L234.369 98.4883Z" fill="#0C0966"/>
<path d="M265.948 98.4883C265.188 97.6195 263.867 97.5314 262.998 98.2915C262.129 99.0517 262.041 100.373 262.801 101.241L270.376 109.898L262.801 118.554C262.041 119.423 262.129 120.744 262.998 121.504C263.867 122.264 265.188 122.176 265.948 121.307L274.245 111.825C275.21 110.722 275.21 109.074 274.245 107.971L265.948 98.4883Z" fill="#0C0966"/>
<path d="M252.664 133.308H248.484V86.4878H252.664V133.308Z" fill="#0C0966"/>
<path d="M261.981 92.021C262.85 92.7811 262.938 94.1021 262.178 94.9709C261.418 95.8397 260.097 95.9278 259.228 95.1677L250.572 87.5923L241.916 95.1677C241.047 95.9278 239.726 95.8397 238.966 94.9709C238.205 94.1021 238.294 92.7811 239.162 92.021L248.645 83.7238C249.748 82.7587 251.396 82.7587 252.499 83.7238L261.981 92.021Z" fill="#0C0966"/>
<path d="M261.981 127.775C262.85 127.015 262.938 125.694 262.178 124.825C261.418 123.956 260.097 123.868 259.228 124.628L250.572 132.203L241.916 124.628C241.047 123.868 239.726 123.956 238.966 124.825C238.205 125.694 238.294 127.015 239.162 127.775L248.645 136.072C249.748 137.037 251.396 137.037 252.499 136.072L261.981 127.775Z" fill="#0C0966"/>
<path d="M136.523 19.1615H183.002V63.1936H136.523V19.1615Z" fill="#C3FFA3"/>
<path d="M151.59 14.7804L144.584 21.2471L151.538 28.2012C152.175 28.838 152.175 29.8704 151.538 30.5072C150.901 31.1441 149.869 31.1441 149.232 30.5072L139.878 21.1531L143.473 17.8342L133.262 17.5722V27.8468L137.424 24.2794L146.238 33.0936C146.875 33.7305 146.875 34.7628 146.238 35.3997C145.601 36.0366 144.569 36.0366 143.932 35.3997L137.253 28.7211L130 34.9386V14.2269L151.59 14.7804Z" fill="#0C0966"/>
<path d="M151.59 59.8285L144.584 53.3618L151.538 46.4077C152.175 45.7709 152.175 44.7385 151.538 44.1016C150.901 43.4648 149.869 43.4648 149.232 44.1016L139.878 53.4558L143.473 56.7747L133.262 57.0367V46.7621L137.424 50.3295L146.238 41.5153C146.875 40.8784 146.875 39.8461 146.238 39.2092C145.601 38.5723 144.569 38.5723 143.932 39.2092L137.253 45.8877L130 39.6702V60.382L151.59 59.8285Z" fill="#0C0966"/>
<path d="M155.707 14.7804L162.713 21.2471L155.759 28.2012C155.122 28.838 155.122 29.8704 155.759 30.5072C156.395 31.1441 157.428 31.1441 158.065 30.5072L167.419 21.1531L163.824 17.8342L174.035 17.5722V27.8468L169.873 24.2794L161.059 33.0936C160.422 33.7305 160.422 34.7628 161.059 35.3997C161.696 36.0366 162.728 36.0366 163.365 35.3997L170.043 28.7211L177.297 34.9386V14.2269L155.707 14.7804Z" fill="#0C0966"/>
<path d="M155.707 59.8285L162.713 53.3618L155.759 46.4077C155.122 45.7709 155.122 44.7385 155.759 44.1016C156.395 43.4648 157.428 43.4648 158.065 44.1016L167.419 53.4558L163.824 56.7747L174.035 57.0367V46.7621L169.873 50.3295L161.059 41.5153C160.422 40.8784 160.422 39.8461 161.059 39.2092C161.696 38.5723 162.728 38.5723 163.365 39.2092L170.043 45.8877L177.297 39.6702V60.382L155.707 59.8285Z" fill="#0C0966"/>
<path d="M47.4904 111.924H31.8786C30.6987 111.924 29.7422 112.881 29.7422 114.061V130.124C29.7422 131.304 30.6987 132.261 31.8786 132.261H47.4904C48.6703 132.261 49.6268 131.304 49.6268 130.124V114.061C49.6268 112.881 48.6703 111.924 47.4904 111.924Z" fill="#74DF3B"/>
<path d="M48.197 114.061C48.197 113.667 47.8781 113.348 47.4848 113.348H31.8731C31.4798 113.348 31.161 113.667 31.161 114.061V130.124C31.161 130.518 31.4798 130.836 31.8731 130.836H47.4848C47.8781 130.836 48.197 130.518 48.197 130.124V114.061ZM51.0454 130.124C51.0454 132.091 49.4513 133.685 47.4848 133.685H31.8731C29.9066 133.685 28.3125 132.091 28.3125 130.124V114.061C28.3125 112.094 29.9066 110.5 31.8731 110.5H47.4848C49.4513 110.5 51.0454 112.094 51.0454 114.061V130.124Z" fill="#0C0966"/>
<path d="M71.4394 131.152V134H31.5606V131.152H71.4394ZM72.1515 130.439V90.5606C72.1515 90.1673 71.8327 89.8485 71.4394 89.8485H31.5606C31.1673 89.8485 30.8485 90.1673 30.8485 90.5606V130.439C30.8485 130.833 31.1673 131.152 31.5606 131.152V134L31.3777 133.995C29.4962 133.9 28 132.345 28 130.439V90.5606C28 88.5941 29.5941 87 31.5606 87H71.4394C73.4059 87 75 88.5941 75 90.5606V130.439C75 132.406 73.4059 134 71.4394 134V131.152C71.8327 131.152 72.1515 130.833 72.1515 130.439Z" fill="#0C0966"/>
<path d="M64.5269 95.9138C65.0948 95.3695 65.9966 95.389 66.5409 95.9569C67.0851 96.5248 67.0656 97.4266 66.4977 97.9708L55.6518 108.365C55.0839 108.909 54.1821 108.89 53.6378 108.322C53.0939 107.754 53.1132 106.853 53.681 106.308L64.5269 95.9138Z" fill="#0C0966"/>
<path d="M65.4342 102.818V97.011H59.6274C58.8408 97.011 58.2031 96.3733 58.2031 95.5867C58.2031 94.8001 58.8408 94.1625 59.6274 94.1625H68.2827V102.818C68.2825 103.604 67.6448 104.242 66.8585 104.242C66.072 104.242 65.4344 103.604 65.4342 102.818Z" fill="#0C0966"/>
<path d="M239.687 17.3652C240.695 17.3652 241.513 18.1828 241.513 19.1913C241.513 20.1998 240.695 21.0174 239.687 21.0174H231.652V55.3478H266.348V48.0435C266.348 47.035 267.165 46.2174 268.174 46.2174C269.182 46.2174 270 47.035 270 48.0435V59H228V17.3652H239.687ZM270 36.7218C270 37.7303 269.182 38.5478 268.174 38.5478C267.165 38.5478 266.348 37.7303 266.348 36.7218V23.5996L239.517 50.4303C238.804 51.1434 237.648 51.1434 236.935 50.4303C236.222 49.7171 236.222 48.5612 236.935 47.848L263.766 21.0174H251.009C250 21.0174 249.183 20.1998 249.183 19.1913C249.183 18.1828 250 17.3652 251.009 17.3652H270V36.7218Z" fill="#0C0966"/>
<path d="M134.583 88.5807C135.167 87.9965 136.114 87.9965 136.698 88.5807L152.692 104.574C153.276 105.158 153.276 106.106 152.692 106.69C152.108 107.274 151.16 107.274 150.576 106.69L134.583 90.6958C133.998 90.1117 133.998 89.1648 134.583 88.5807Z" fill="#0C0966"/>
<path d="M134.583 129.919C135.167 130.503 136.114 130.503 136.698 129.919L152.692 113.926C153.276 113.342 153.276 112.394 152.692 111.81C152.108 111.226 151.16 111.226 150.576 111.81L134.583 127.804C133.998 128.388 133.998 129.335 134.583 129.919Z" fill="#0C0966"/>
<path d="M164.719 100.153C164.135 99.5685 163.188 99.5685 162.604 100.153L158.865 103.892C158.281 104.476 158.281 105.423 158.865 106.007C159.449 106.591 160.396 106.591 160.98 106.007L164.719 102.268C165.303 101.684 165.303 100.737 164.719 100.153ZM175.917 88.5807C175.333 87.9965 174.386 87.9965 173.802 88.5807L165.805 96.5775C165.221 97.1617 165.221 98.1085 165.805 98.6927C166.39 99.2768 167.336 99.2768 167.921 98.6927L175.917 90.6958C176.502 90.1117 176.502 89.1648 175.917 88.5807Z" fill="#0C0966"/>
<path d="M175.917 129.919C175.333 130.503 174.386 130.503 173.802 129.919L157.808 113.926C157.224 113.342 157.224 112.394 157.808 111.81C158.392 111.226 159.34 111.226 159.924 111.81L175.917 127.804C176.502 128.388 176.502 129.335 175.917 129.919Z" fill="#0C0966"/>
<path d="M133 103.728V87H149.728C150.554 87.0001 151.224 87.6697 151.224 88.4958C151.224 89.3219 150.554 89.9915 149.728 89.9916H135.992V103.728C135.992 104.554 135.322 105.224 134.496 105.224C133.67 105.224 133 104.554 133 103.728Z" fill="#0C0966"/>
<path d="M133 114.772V131.5H149.728C150.554 131.5 151.224 130.83 151.224 130.004C151.224 129.178 150.554 128.508 149.728 128.508H135.992V114.772C135.992 113.946 135.322 113.276 134.496 113.276C133.67 113.276 133 113.946 133 114.772Z" fill="#0C0966"/>
<path d="M177.5 103.728V87H160.772C159.946 87.0001 159.276 87.6697 159.276 88.4958C159.276 89.3219 159.946 89.9915 160.772 89.9916H174.508V103.728C174.508 104.554 175.178 105.224 176.004 105.224C176.83 105.224 177.5 104.554 177.5 103.728Z" fill="#0C0966"/>
<path d="M177.5 114.772V131.5H160.772C159.946 131.5 159.276 130.83 159.276 130.004C159.276 129.178 159.946 128.508 160.772 128.508H174.508V114.772C174.508 113.946 175.178 113.276 176.004 113.276C176.83 113.276 177.5 113.946 177.5 114.772Z" fill="#0C0966"/>
</svg>
