<svg width="260" height="178" viewBox="0 0 260 178" fill="none" xmlns="http://www.w3.org/2000/svg">
<rect width="260" height="178" fill="white"/>
<path d="M18.3145 21.8371V20.9126C18.3145 19.9976 19.0562 19.2559 19.9712 19.2559H50.0907C51.0057 19.2559 51.7475 19.9976 51.7475 20.9126V21.8371C51.7475 22.7521 51.0057 23.4938 50.0907 23.4938H19.9712C19.0562 23.4938 18.3145 22.7521 18.3145 21.8371Z" stroke="#0C0966" stroke-width="2.76119"/>
<path d="M50.4058 22.1948C51.6375 22.1948 52.2527 23.6855 51.3794 24.5542L39.2974 36.5728C39.1497 36.7197 39.062 36.9173 39.0532 37.1255L38.6362 47.1333C38.6103 47.756 38.3514 48.3469 37.9106 48.7876L35.1987 51.4995C34.0095 52.6882 31.9739 51.8963 31.9009 50.2163L31.3325 37.1372C31.3233 36.926 31.2332 36.7259 31.0815 36.5786L18.7104 24.5659C17.8213 23.7023 18.4329 22.1951 19.6724 22.1948H50.4058ZM32.6753 25.9214C32.0653 25.9214 31.5708 26.4159 31.5708 27.0259C31.571 27.6357 32.0654 28.1304 32.6753 28.1304H37.1489C37.7585 28.13 38.2533 27.6355 38.2534 27.0259C38.2534 26.4161 37.7586 25.9217 37.1489 25.9214H32.6753Z" fill="#0C0966"/>
<path d="M205 133H236.29" stroke="black" stroke-width="2.31776" stroke-linecap="round"/>
<path d="M207.898 133.58V138.325C207.898 139.003 208.136 139.659 208.57 140.18L218.039 151.542V160.175C218.039 160.212 218.056 160.247 218.087 160.268L222.794 163.668C222.986 163.807 223.254 163.67 223.254 163.434V151.542L226.151 148.355M233.683 133.869V138.127C233.683 138.933 233.403 139.714 232.891 140.337L229.627 144.299" stroke="black" stroke-width="2.31776" stroke-linecap="round"/>
<path d="M209.059 139.953H232.526" stroke="black" stroke-width="2.31776" stroke-linecap="round"/>
<path d="M22 142.49V138.552C22 138.247 22.2472 138 22.5522 138H48.7836C49.0886 138 49.3358 138.247 49.3358 138.552V142.49C49.3358 142.622 49.2889 142.749 49.2036 142.849L39.8039 153.86C39.7185 153.96 39.6716 154.087 39.6716 154.219V165.665C39.6716 166.11 39.1722 166.372 38.8059 166.119L31.9029 161.359C31.7534 161.256 31.6642 161.086 31.6642 160.904V154.219C31.6642 154.087 31.6173 153.96 31.532 153.86L22.1322 142.849C22.0469 142.749 22 142.622 22 142.49Z" stroke="black" stroke-width="2.20896" stroke-linecap="round"/>
<path d="M22.8281 142.694H48.5072" stroke="black" stroke-width="2.20896" stroke-linecap="round"/>
<path d="M36.9102 154.843H38.843" stroke="black" stroke-width="2.20896" stroke-linecap="round"/>
<path d="M37.1855 158.157H38.5661" stroke="black" stroke-width="2.20896" stroke-linecap="round"/>
<path d="M38.0156 161.47H38.844" stroke="black" stroke-width="2.20896" stroke-linecap="round"/>
<path d="M118 80.4419H143.127" stroke="black" stroke-width="2.20896" stroke-linecap="round"/>
<path d="M118 88.7026H143.127" stroke="black" stroke-width="2.20896" stroke-linecap="round"/>
<path d="M118 96.9639H143.127" stroke="black" stroke-width="2.20896" stroke-linecap="round"/>
<circle cx="126.95" cy="80.442" r="3.44204" fill="black"/>
<circle cx="135.899" cy="88.7028" r="3.44204" fill="black"/>
<circle cx="126.95" cy="96.964" r="3.44204" fill="black"/>
<path d="M206.553 78.5894H223.948" stroke="#0C0966" stroke-width="2.20896" stroke-linecap="round"/>
<path d="M215.939 89.3579H233.335" stroke="#0C0966" stroke-width="2.20896" stroke-linecap="round"/>
<path d="M206.553 99.8506H223.948" stroke="#0C0966" stroke-width="2.20896" stroke-linecap="round"/>
<circle cx="230.023" cy="78.5896" r="2.76119" stroke="#0C0966" stroke-width="1.65672"/>
<circle cx="209.59" cy="89.6345" r="2.76119" stroke="#0C0966" stroke-width="1.65672"/>
<circle cx="230.023" cy="100.127" r="2.76119" stroke="#0C0966" stroke-width="1.65672"/>
<path d="M118.6 21.1756V19.8002C118.6 19.4688 118.868 19.2002 119.2 19.2002H147.4C147.732 19.2002 148.001 19.4688 148.001 19.8002V21.1797C148.001 21.3254 147.948 21.466 147.851 21.5755L136.778 34.193C136.681 34.3025 136.628 34.4431 136.628 34.5888V48.6568C136.628 49.1406 136.085 49.4255 135.687 49.1503L130.508 45.5691C130.346 45.4571 130.249 45.2726 130.249 45.0756V34.5929C130.249 34.4448 130.194 34.3019 130.095 34.1917L118.753 21.5768C118.654 21.4666 118.6 21.3237 118.6 21.1756Z" fill="#DCFF9A"/>
<path d="M115 19.9754V18.6C115 18.2686 115.269 18 115.6 18H143.801C144.132 18 144.401 18.2686 144.401 18.6V19.9795C144.401 20.1252 144.348 20.2658 144.252 20.3753L133.178 32.9928C133.082 33.1023 133.029 33.2429 133.029 33.3886V47.4566C133.029 47.9404 132.486 48.2253 132.088 47.9501L126.908 44.3689C126.746 44.2569 126.649 44.0724 126.649 43.8754V33.3927C126.649 33.2446 126.595 33.1017 126.496 32.9915L115.154 20.3766C115.055 20.2664 115 20.1235 115 19.9754Z" stroke="#0C0966" stroke-width="2.40007" stroke-linecap="round"/>
<path d="M127.299 33.3003H132.399" stroke="#0C0966" stroke-width="2.40007"/>
<path d="M49.4403 77H21L32.0448 91.3582V106.269L37.5672 101.851V91.3582L49.4403 77Z" stroke="#0C0966" stroke-width="2.20896" stroke-linecap="round"/>
<path d="M199.336 20.0657V18.6275C199.336 18.2809 199.617 18 199.963 18H229.454C229.8 18 230.081 18.2809 230.081 18.6275V20.07C230.081 20.2223 230.026 20.3694 229.925 20.4839L218.345 33.6783C218.244 33.7927 218.189 33.9398 218.189 34.0922V48.8033C218.189 49.3093 217.621 49.6072 217.205 49.3194L211.789 45.5745C211.619 45.4573 211.518 45.2644 211.518 45.0584V34.0964C211.518 33.9416 211.461 33.7921 211.357 33.6769L199.497 20.4852C199.393 20.37 199.336 20.2206 199.336 20.0657Z" stroke="#0C0966" stroke-width="2.5098" stroke-linecap="round"/>
<path d="M224.436 33.3726H238.239" stroke="#0C0966" stroke-width="2.5098" stroke-linecap="round"/>
<path d="M228.826 27.4121H237.924" stroke="#0C0966" stroke-width="2.5098" stroke-linecap="round"/>
<path d="M142.418 139.826C142.739 139.826 143 140.086 143 140.407V142.835C143 142.9 142.988 142.963 142.968 143.023H134.86C134.539 143.023 134.279 143.284 134.279 143.605C134.279 143.926 134.539 144.186 134.86 144.186H142.16L135.552 153.336C135.48 153.435 135.441 153.554 135.441 153.676V161.587C135.441 161.793 135.334 161.983 135.157 162.087L127.018 166.92C126.63 167.15 126.14 166.871 126.14 166.42V153.688C126.14 153.559 126.096 153.433 126.017 153.331L118.122 143.181C118.043 143.079 118 142.953 118 142.824V140.407C118 140.086 118.26 139.826 118.581 139.826H142.418Z" fill="#0C0966"/>
<circle cx="124.687" cy="134.012" r="2.61626" fill="#0C0966"/>
<circle cx="135.151" cy="136.337" r="2.61626" fill="#0C0966"/>
<circle cx="131.665" cy="127.616" r="2.61626" fill="#0C0966"/>
</svg>
