<svg width="171" height="26" viewBox="0 0 171 26" fill="none" xmlns="http://www.w3.org/2000/svg">
<path d="M10.4431 25.4082C8.48312 25.4082 6.73312 24.9999 5.19312 24.1832C3.67642 23.3432 2.48642 22.1999 1.62312 20.7532C0.759823 19.3066 0.328125 17.6616 0.328125 15.8182C0.328125 13.9516 0.759823 12.3066 1.62312 10.8832C2.48642 9.43658 3.67642 8.30488 5.19312 7.48818C6.73312 6.67158 8.48312 6.26318 10.4431 6.26318C12.2631 6.26318 13.8614 6.63658 15.2381 7.38318C16.6381 8.10658 17.6998 9.17988 18.4231 10.6032L15.0631 12.5632C14.5031 11.6766 13.8148 11.0232 12.9981 10.6032C12.2048 10.1832 11.3414 9.97318 10.4081 9.97318C9.33482 9.97318 8.36642 10.2066 7.50312 10.6732C6.63982 11.1399 5.96312 11.8166 5.47312 12.7032C4.98312 13.5666 4.73812 14.6049 4.73812 15.8182C4.73812 17.0316 4.98312 18.0816 5.47312 18.9682C5.96312 19.8316 6.63982 20.4966 7.50312 20.9632C8.36642 21.4299 9.33482 21.6632 10.4081 21.6632C11.3414 21.6632 12.2048 21.4532 12.9981 21.0332C13.8148 20.6132 14.5031 19.9599 15.0631 19.0732L18.4231 21.0332C17.6998 22.4332 16.6381 23.5182 15.2381 24.2882C13.8614 25.0349 12.2631 25.4082 10.4431 25.4082ZM30.3316 25.4082C28.4182 25.4082 26.7149 24.9999 25.2216 24.1832C23.7282 23.3432 22.5499 22.1999 21.6866 20.7532C20.8232 19.3066 20.3916 17.6616 20.3916 15.8182C20.3916 13.9516 20.8232 12.3066 21.6866 10.8832C22.5499 9.43658 23.7282 8.30488 25.2216 7.48818C26.7149 6.67158 28.4182 6.26318 30.3316 6.26318C32.2682 6.26318 33.9832 6.67158 35.4766 7.48818C36.9932 8.30488 38.1716 9.42488 39.0116 10.8482C39.8749 12.2716 40.3066 13.9282 40.3066 15.8182C40.3066 17.6616 39.8749 19.3066 39.0116 20.7532C38.1716 22.1999 36.9932 23.3432 35.4766 24.1832C33.9832 24.9999 32.2682 25.4082 30.3316 25.4082ZM30.3316 21.6632C31.4049 21.6632 32.3616 21.4299 33.2016 20.9632C34.0416 20.4966 34.6949 19.8199 35.1616 18.9332C35.6516 18.0466 35.8966 17.0082 35.8966 15.8182C35.8966 14.6049 35.6516 13.5666 35.1616 12.7032C34.6949 11.8166 34.0416 11.1399 33.2016 10.6732C32.3616 10.2066 31.4166 9.97318 30.3666 9.97318C29.2932 9.97318 28.3366 10.2066 27.4966 10.6732C26.6799 11.1399 26.0266 11.8166 25.5366 12.7032C25.0466 13.5666 24.8016 14.6049 24.8016 15.8182C24.8016 17.0082 25.0466 18.0466 25.5366 18.9332C26.0266 19.8199 26.6799 20.4966 27.4966 20.9632C28.3366 21.4299 29.2816 21.6632 30.3316 21.6632ZM55.0952 6.26318C56.5885 6.26318 57.9185 6.55488 59.0852 7.13818C60.2752 7.72158 61.2085 8.61988 61.8852 9.83318C62.5618 11.0232 62.9002 12.5632 62.9002 14.4532V25.1632H58.5252V15.0132C58.5252 13.3566 58.1285 12.1199 57.3352 11.3032C56.5652 10.4866 55.4802 10.0782 54.0802 10.0782C53.0535 10.0782 52.1435 10.2882 51.3502 10.7082C50.5568 11.1282 49.9385 11.7582 49.4952 12.5982C49.0752 13.4149 48.8652 14.4532 48.8652 15.7132V25.1632H44.4902V6.47318H48.6552V11.5132L47.9202 9.97318C48.5735 8.78318 49.5185 7.87318 50.7552 7.24318C52.0152 6.58988 53.4618 6.26318 55.0952 6.26318ZM74.2251 25.4082C72.6621 25.4082 71.1571 25.2099 69.7101 24.8132C68.2871 24.3932 67.1551 23.8916 66.3151 23.3082L67.9951 19.9832C68.8351 20.5199 69.8381 20.9632 71.0051 21.3132C72.1721 21.6632 73.3381 21.8382 74.5051 21.8382C75.8821 21.8382 76.8731 21.6516 77.4801 21.2782C78.1101 20.9049 78.4251 20.4032 78.4251 19.7732C78.4251 19.2599 78.2151 18.8749 77.7951 18.6182C77.3751 18.3382 76.8271 18.1282 76.1501 17.9882C75.4731 17.8482 74.7151 17.7199 73.8751 17.6032C73.0581 17.4866 72.2301 17.3349 71.3901 17.1482C70.5731 16.9382 69.8271 16.6466 69.1501 16.2732C68.4731 15.8766 67.9251 15.3516 67.5051 14.6982C67.0851 14.0449 66.8751 13.1816 66.8751 12.1082C66.8751 10.9182 67.2135 9.89158 67.8901 9.02818C68.5671 8.14158 69.5121 7.46488 70.7251 6.99818C71.9621 6.50818 73.4201 6.26318 75.1001 6.26318C76.3601 6.26318 77.6321 6.40318 78.9151 6.68318C80.1981 6.96318 81.2601 7.35988 82.1001 7.87318L80.4201 11.1982C79.5331 10.6616 78.6351 10.2999 77.7251 10.1132C76.8381 9.90318 75.9521 9.79818 75.0651 9.79818C73.7351 9.79818 72.7431 9.99658 72.0901 10.3932C71.4601 10.7899 71.1451 11.2916 71.1451 11.8982C71.1451 12.4582 71.3551 12.8782 71.7751 13.1582C72.1951 13.4382 72.7431 13.6599 73.4201 13.8232C74.0971 13.9866 74.8431 14.1266 75.6601 14.2432C76.5001 14.3366 77.3281 14.4882 78.1451 14.6982C78.9621 14.9082 79.7081 15.1999 80.3851 15.5732C81.0851 15.9232 81.6451 16.4249 82.0651 17.0782C82.4851 17.7316 82.6951 18.5832 82.6951 19.6332C82.6951 20.7999 82.3451 21.8149 81.6451 22.6782C80.9681 23.5416 80.0001 24.2182 78.7401 24.7082C77.4801 25.1749 75.9751 25.4082 74.2251 25.4082Z" fill="#181818"/>
<path d="M98.3317 25.5135C96.4177 25.5135 94.6567 25.2102 93.0467 24.6035C91.4597 23.9735 90.0717 23.0985 88.8817 21.9785C87.6917 20.8352 86.7697 19.4935 86.1167 17.9535C85.4627 16.4135 85.1367 14.7335 85.1367 12.9135C85.1367 11.0935 85.4627 9.41348 86.1167 7.87348C86.7697 6.33348 87.6917 5.00348 88.8817 3.88348C90.0947 2.74018 91.5067 1.86518 93.1167 1.25848C94.7267 0.628478 96.4877 0.313477 98.4017 0.313477C100.478 0.313477 102.345 0.651878 104.002 1.32848C105.682 2.00518 107.093 2.99688 108.237 4.30348L105.367 7.10348C104.41 6.14688 103.372 5.44688 102.252 5.00348C101.155 4.53688 99.9417 4.30348 98.6117 4.30348C97.3277 4.30348 96.1377 4.51348 95.0417 4.93348C93.9447 5.35348 92.9997 5.94848 92.2067 6.71848C91.4127 7.48848 90.7947 8.39848 90.3517 9.44848C89.9317 10.4985 89.7217 11.6535 89.7217 12.9135C89.7217 14.1502 89.9317 15.2935 90.3517 16.3435C90.7947 17.3935 91.4127 18.3152 92.2067 19.1085C92.9997 19.8785 93.9327 20.4735 95.0067 20.8935C96.0797 21.3135 97.2697 21.5235 98.5767 21.5235C99.7897 21.5235 100.957 21.3369 102.077 20.9635C103.22 20.5669 104.305 19.9135 105.332 19.0035L107.922 22.3985C106.638 23.4252 105.145 24.2069 103.442 24.7435C101.762 25.2569 100.058 25.5135 98.3317 25.5135ZM103.617 21.8035V12.6335H107.922V22.3985L103.617 21.8035ZM121.413 25.4085C119.826 25.4085 118.426 25.1169 117.213 24.5335C116 23.9269 115.055 23.0169 114.378 21.8035C113.701 20.5669 113.363 19.0152 113.363 17.1485V6.47348H117.738V16.5535C117.738 18.2335 118.111 19.4935 118.858 20.3335C119.628 21.1502 120.713 21.5585 122.113 21.5585C123.14 21.5585 124.026 21.3485 124.773 20.9285C125.543 20.5085 126.138 19.8785 126.558 19.0385C127.001 18.1985 127.223 17.1602 127.223 15.9235V6.47348H131.598V25.1635H127.433V20.1235L128.168 21.6635C127.538 22.8769 126.616 23.8102 125.403 24.4635C124.19 25.0935 122.86 25.4085 121.413 25.4085ZM137.326 25.1635V6.47348H141.491V11.6185L141.001 10.1135C141.561 8.85348 142.436 7.89688 143.626 7.24348C144.839 6.59018 146.344 6.26348 148.141 6.26348V10.4285C147.954 10.3819 147.779 10.3585 147.616 10.3585C147.453 10.3352 147.289 10.3235 147.126 10.3235C145.469 10.3235 144.151 10.8135 143.171 11.7935C142.191 12.7502 141.701 14.1852 141.701 16.0985V25.1635H137.326ZM159.933 25.4085C158.347 25.4085 156.947 25.1169 155.733 24.5335C154.52 23.9269 153.575 23.0169 152.898 21.8035C152.222 20.5669 151.883 19.0152 151.883 17.1485V6.47348H156.258V16.5535C156.258 18.2335 156.632 19.4935 157.378 20.3335C158.148 21.1502 159.233 21.5585 160.633 21.5585C161.66 21.5585 162.547 21.3485 163.293 20.9285C164.063 20.5085 164.658 19.8785 165.078 19.0385C165.522 18.1985 165.743 17.1602 165.743 15.9235V6.47348H170.118V25.1635H165.953V20.1235L166.688 21.6635C166.058 22.8769 165.137 23.8102 163.923 24.4635C162.71 25.0935 161.38 25.4085 159.933 25.4085Z" fill="#1FB141"/>
</svg>
