<svg width="296" height="220" viewBox="0 0 296 220" fill="none" xmlns="http://www.w3.org/2000/svg">
<path d="M37 52.4757V22.6505C37 19.0472 39.921 16.1262 43.5243 16.1262H62.7148C63.4869 16.1262 64.1129 16.7522 64.1129 17.5243C64.1129 18.2964 63.4869 18.9223 62.7148 18.9223H43.5243C41.4653 18.9223 39.7961 20.5915 39.7961 22.6505V52.4757C39.7961 54.5347 41.4653 56.2039 43.5243 56.2039H73.3495C75.4085 56.2039 77.0777 54.5347 77.0777 52.4757V33.379C77.0778 32.6069 77.7037 31.9809 78.4757 31.9809C79.2478 31.9809 79.8737 32.6069 79.8738 33.379V52.4757C79.8738 56.079 76.9528 59 73.3495 59H43.5243C39.921 59 37 56.079 37 52.4757Z" fill="black"/>
<path d="M69.8529 11L72.4162 17.9273C73.2658 20.2234 75.0761 22.0337 77.3722 22.8833L84.2995 25.4466L77.3722 28.0099C75.0761 28.8595 73.2658 30.6698 72.4162 32.9659L69.8529 39.8932L67.2895 32.9659C66.4399 30.6699 64.6296 28.8596 62.3336 28.0099L55.4062 25.4466L62.3335 22.8833C64.6296 22.0337 66.4399 20.2234 67.2895 17.9273L69.8529 11Z" fill="black"/>
<path d="M62.1853 35.899L61.6642 37.3941C60.8585 39.7059 61.103 42.2543 62.3335 44.3708L63.1293 45.7396L61.6342 45.2185C59.3224 44.4128 56.7739 44.6573 54.6574 45.8878L53.2887 46.6836L53.8097 45.1885C54.6154 42.8767 54.371 40.3282 53.1405 38.2117L52.3447 36.843L53.8397 37.364C56.1516 38.1697 58.7 37.9253 60.8165 36.6948L62.1853 35.899Z" fill="black"/>
<path d="M82.2047 11.932C82.8438 13.6592 84.2057 15.021 85.9329 15.6602C84.2057 16.2993 82.8438 17.6611 82.2047 19.3883C81.5656 17.6611 80.2038 16.2993 78.4766 15.6602C80.2038 15.021 81.5656 13.6592 82.2047 11.932Z" fill="black"/>
<path d="M213 52.3571V20.5892C213 17.0294 215.886 14.1436 219.446 14.1436H239.243C240.006 14.1436 240.624 14.7619 240.624 15.5248C240.624 16.2876 240.006 16.906 239.243 16.906H219.446C217.411 16.906 215.762 18.555 215.762 20.5892V52.3571C215.762 54.3913 217.411 56.0403 219.446 56.0403H250.293C252.327 56.0403 253.976 54.3913 253.976 52.3571V32.0993C253.976 31.3365 254.594 30.7181 255.357 30.7181C256.12 30.7181 256.738 31.3365 256.738 32.0993V52.3571C256.738 55.9169 253.853 58.8028 250.293 58.8028H219.446C215.886 58.8028 213 55.9169 213 52.3571Z" fill="black"/>
<path d="M230.031 27.2211C230.621 26.1123 232.236 26.1286 232.803 27.249L232.856 27.365L240.517 45.8432C240.809 46.5478 240.475 47.3558 239.77 47.648C239.065 47.94 238.257 47.6053 237.965 46.9007L231.378 31.0141L224.392 46.9268C224.085 47.6252 223.271 47.9428 222.572 47.6363C221.874 47.3297 221.556 46.5156 221.863 45.8172L229.977 27.3353L230.031 27.2211Z" fill="black"/>
<path d="M243.387 46.3719V27.7606C243.387 26.9978 244.005 26.3794 244.768 26.3794C245.531 26.3794 246.149 26.9978 246.149 27.7606V46.3719C246.149 47.1347 245.531 47.7531 244.768 47.7531C244.005 47.7531 243.387 47.1347 243.387 46.3719Z" fill="black"/>
<path d="M249.829 10.9208C250.855 13.6937 253.041 15.88 255.814 16.906C253.041 17.9321 250.855 20.1184 249.829 22.8913C248.803 20.1184 246.617 17.9321 243.844 16.906C246.617 15.88 248.803 13.6937 249.829 10.9208Z" fill="black"/>
<path d="M256.274 20.1289C256.826 21.622 258.003 22.7992 259.496 23.3517C258.003 23.9042 256.826 25.0815 256.274 26.5746C255.721 25.0815 254.544 23.9042 253.051 23.3517C254.544 22.7992 255.721 21.622 256.274 20.1289Z" fill="black"/>
<path d="M256.279 10C256.673 11.0665 257.514 11.9074 258.581 12.302C257.514 12.6967 256.673 13.5375 256.279 14.604C255.884 13.5375 255.043 12.6967 253.977 12.302C255.043 11.9074 255.884 11.0665 256.279 10Z" fill="black"/>
<path d="M235.559 39.4659C236.321 39.4659 236.94 40.0843 236.94 40.8472C236.94 41.61 236.321 42.2284 235.559 42.2284H226.811C226.048 42.2284 225.43 41.61 225.43 40.8472C225.43 40.0843 226.048 39.4659 226.811 39.4659H235.559Z" fill="black"/>
<path d="M63.2439 183.263L63.151 183.015C62.4762 181.216 61.0493 179.802 59.2447 179.143L58.9962 179.053L59.2438 178.96C61.0426 178.285 62.4567 176.858 63.1154 175.053L63.2061 174.805L63.2989 175.053C63.9737 176.851 65.4006 178.266 67.2053 178.924L67.4537 179.015L67.2061 179.108C65.4074 179.783 63.9932 181.209 63.3346 183.014L63.2439 183.263Z" fill="black"/>
<path d="M75.003 160.84L75.8893 163.203C77.046 166.287 79.4921 168.711 82.5859 169.84L84.9565 170.705L82.5937 171.592C79.5102 172.748 77.0859 175.194 75.9568 178.288L75.0916 180.659L74.2053 178.296C73.0486 175.213 70.6025 172.788 67.5087 171.659L65.1381 170.794L67.5008 169.908C70.5844 168.751 73.0087 166.305 74.1378 163.211L75.003 160.84Z" fill="black"/>
<path d="M59.8513 157.062C60.9004 159.859 63.119 162.057 65.925 163.082C63.1283 164.131 60.9295 166.349 59.9054 169.155C58.8563 166.358 56.6377 164.16 53.8317 163.136C56.6284 162.086 58.8273 159.868 59.8513 157.062Z" fill="black"/>
<path d="M43.1092 180.047C44.0187 177.51 47.6275 177.571 48.451 180.137L55.5981 202.418C55.9153 203.407 55.3711 204.466 54.3823 204.784C53.3934 205.101 52.3342 204.557 52.0168 203.568L45.7154 183.923L38.6517 203.628C38.3013 204.605 37.2244 205.114 36.2467 204.764C35.269 204.413 34.7603 203.336 35.1108 202.359L43.1092 180.047Z" fill="black"/>
<path d="M50.5174 192.649C51.5561 192.649 52.3981 193.491 52.3981 194.53C52.3981 195.569 51.5561 196.411 50.5174 196.411H40.1737C39.135 196.411 38.293 195.569 38.293 194.53C38.293 193.491 39.135 192.649 40.1737 192.649H50.5174Z" fill="black"/>
<path d="M61.332 202.993V187.007C61.332 185.969 62.174 185.127 63.2127 185.127C64.2514 185.127 65.0934 185.969 65.0934 187.007V202.993C65.0934 204.032 64.2514 204.874 63.2127 204.874C62.174 204.874 61.332 204.032 61.332 202.993Z" fill="black"/>
<path d="M145.596 101.372C146.378 99.473 149.111 99.4729 149.894 101.372L149.965 101.569L156.536 122.104L153.872 122.957L147.745 103.809L141.617 122.957L138.953 122.104L145.525 101.569L145.596 101.372Z" fill="black"/>
<path d="M152.405 114.139C153.178 114.139 153.804 114.765 153.804 115.537C153.804 116.31 153.178 116.936 152.405 116.936H142.149C141.376 116.936 140.75 116.31 140.75 115.537C140.75 114.765 141.376 114.139 142.149 114.139H152.405Z" fill="black"/>
<path d="M159.867 107.611H162.664V122.53H159.867V107.611Z" fill="black"/>
<path d="M163.596 103.462C163.596 104.749 162.552 105.793 161.265 105.793C159.977 105.793 158.934 104.749 158.934 103.462C158.934 102.175 159.977 101.131 161.265 101.131C162.552 101.131 163.596 102.175 163.596 103.462Z" fill="black"/>
<path d="M170.588 98.7533C170.588 100.041 169.544 101.084 168.257 101.084C166.969 101.084 165.926 100.041 165.926 98.7533C165.926 97.4659 166.969 96.4222 168.257 96.4222C169.544 96.4222 170.588 97.4659 170.588 98.7533Z" fill="black"/>
<path d="M160.8 94.7905C160.8 95.4343 160.278 95.9561 159.634 95.9561C158.991 95.9561 158.469 95.4343 158.469 94.7905C158.469 94.1468 158.991 93.625 159.634 93.625C160.278 93.625 160.8 94.1468 160.8 94.7905Z" fill="black"/>
<path d="M166.394 93.6837C166.394 94.7136 165.559 95.5486 164.529 95.5486C163.499 95.5486 162.664 94.7136 162.664 93.6837C162.664 92.6538 163.499 91.8188 164.529 91.8188C165.559 91.8188 166.394 92.6538 166.394 93.6837Z" fill="black"/>
<path d="M150.076 91.294C150.076 92.5814 149.033 93.6251 147.745 93.6251C146.458 93.6251 145.414 92.5814 145.414 91.294C145.414 90.0066 146.458 88.9629 147.745 88.9629C149.033 88.9629 150.076 90.0066 150.076 91.294Z" fill="black"/>
<path d="M132.026 102.892C132.936 103.375 133.281 104.505 132.798 105.414C132.314 106.324 131.185 106.669 130.276 106.186C129.366 105.702 129.021 104.573 129.504 103.664C129.987 102.754 131.117 102.409 132.026 102.892Z" fill="black"/>
<path d="M133.266 123.883C134.146 123.348 135.293 123.626 135.829 124.506C136.364 125.386 136.086 126.533 135.206 127.069C134.326 127.605 133.179 127.326 132.643 126.446C132.107 125.567 132.386 124.419 133.266 123.883Z" fill="black"/>
<path d="M152.653 133.586C152.606 132.557 153.402 131.685 154.43 131.638C155.459 131.59 156.332 132.386 156.379 133.415C156.426 134.444 155.631 135.316 154.602 135.363C153.573 135.411 152.701 134.615 152.653 133.586Z" fill="black"/>
<path d="M170.261 122.073C169.35 121.593 169 120.465 169.479 119.554C169.959 118.643 171.087 118.292 171.998 118.772C172.91 119.252 173.26 120.379 172.78 121.291C172.301 122.202 171.173 122.552 170.261 122.073Z" fill="black"/>
<path d="M135.965 98.5446C136.76 98.9676 137.063 99.9555 136.64 100.751C136.217 101.547 135.229 101.849 134.433 101.426C133.637 101.004 133.335 100.016 133.758 99.2197C134.181 98.424 135.169 98.1217 135.965 98.5446Z" fill="black"/>
<path d="M131.532 118.278C132.302 117.81 133.306 118.054 133.774 118.823C134.243 119.593 133.999 120.597 133.23 121.066C132.46 121.534 131.456 121.29 130.987 120.521C130.518 119.751 130.762 118.747 131.532 118.278Z" fill="black"/>
<path d="M146.907 132.413C146.866 131.513 147.562 130.75 148.462 130.708C149.362 130.667 150.126 131.363 150.167 132.263C150.209 133.163 149.512 133.927 148.612 133.968C147.712 134.01 146.949 133.313 146.907 132.413Z" fill="black"/>
<path d="M166.345 126.438C165.547 126.018 165.241 125.032 165.661 124.234C166.08 123.437 167.067 123.13 167.865 123.55C168.662 123.97 168.968 124.956 168.549 125.754C168.129 126.551 167.143 126.858 166.345 126.438Z" fill="black"/>
<path d="M140.751 95.3826C141.433 95.7451 141.692 96.5919 141.33 97.274C140.967 97.9561 140.12 98.2152 139.438 97.8527C138.756 97.4902 138.497 96.6433 138.86 95.9612C139.222 95.2791 140.069 95.0201 140.751 95.3826Z" fill="black"/>
<path d="M131.255 112.549C131.915 112.148 132.775 112.357 133.177 113.016C133.579 113.676 133.37 114.537 132.71 114.938C132.05 115.34 131.19 115.131 130.788 114.471C130.386 113.812 130.595 112.951 131.255 112.549Z" fill="black"/>
<path d="M141.747 129.906C141.711 129.134 142.308 128.48 143.08 128.444C143.851 128.409 144.506 129.005 144.541 129.777C144.577 130.549 143.98 131.203 143.208 131.238C142.437 131.274 141.782 130.677 141.747 129.906Z" fill="black"/>
<path d="M161.573 129.619C160.889 129.26 160.627 128.414 160.986 127.73C161.346 127.047 162.192 126.784 162.875 127.144C163.559 127.503 163.822 128.349 163.462 129.033C163.102 129.716 162.257 129.979 161.573 129.619Z" fill="black"/>
<path d="M143.081 91.7014C143.081 92.7313 142.246 93.5663 141.216 93.5663C140.186 93.5663 139.352 92.7313 139.352 91.7014C139.352 90.6715 140.186 89.8365 141.216 89.8365C142.246 89.8365 143.081 90.6715 143.081 91.7014Z" fill="black"/>
<path d="M129.033 108.242C130.056 108.786 130.444 110.056 129.901 111.079C129.357 112.103 128.087 112.491 127.064 111.947C126.04 111.404 125.652 110.133 126.196 109.11C126.739 108.087 128.01 107.699 129.033 108.242Z" fill="black"/>
<path d="M136.336 129.189C137.325 128.587 138.616 128.9 139.219 129.89C139.822 130.88 139.508 132.17 138.518 132.773C137.529 133.376 136.238 133.062 135.635 132.073C135.033 131.083 135.346 129.792 136.336 129.189Z" fill="black"/>
<path d="M158.782 133.44C158.729 132.282 159.624 131.301 160.782 131.247C161.939 131.194 162.921 132.089 162.974 133.247C163.027 134.404 162.132 135.385 160.975 135.439C159.817 135.492 158.836 134.597 158.782 133.44Z" fill="black"/>
<path d="M173.233 116.712C172.207 116.172 171.813 114.903 172.353 113.878C172.892 112.853 174.161 112.459 175.186 112.998C176.212 113.538 176.606 114.806 176.066 115.832C175.527 116.857 174.258 117.251 173.233 116.712Z" fill="black"/>
<path d="M137.021 94.0912C137.021 94.9924 136.291 95.723 135.39 95.723C134.488 95.723 133.758 94.9924 133.758 94.0912C133.758 93.19 134.488 92.4595 135.39 92.4595C136.291 92.4595 137.021 93.19 137.021 94.0912Z" fill="black"/>
<path d="M127.871 115.018C128.667 115.441 128.969 116.429 128.546 117.225C128.123 118.021 127.135 118.323 126.339 117.9C125.544 117.477 125.241 116.489 125.664 115.693C126.087 114.898 127.075 114.595 127.871 115.018Z" fill="black"/>
<path d="M141.571 133.642C142.341 133.173 143.345 133.417 143.813 134.187C144.282 134.957 144.038 135.961 143.269 136.429C142.499 136.898 141.495 136.654 141.026 135.885C140.557 135.115 140.801 134.111 141.571 133.642Z" fill="black"/>
<path d="M165.208 130.985C165.166 130.085 165.863 129.322 166.763 129.28C167.663 129.239 168.426 129.935 168.468 130.835C168.509 131.736 167.813 132.499 166.913 132.54C166.013 132.582 165.249 131.886 165.208 130.985Z" fill="black"/>
<path d="M174.368 109.931C173.571 109.511 173.264 108.524 173.684 107.727C174.104 106.929 175.09 106.623 175.888 107.042C176.685 107.462 176.992 108.449 176.572 109.246C176.153 110.044 175.166 110.35 174.368 109.931Z" fill="black"/>
<path d="M131.973 97.3547C131.973 98.1272 131.347 98.7534 130.574 98.7534C129.802 98.7534 129.176 98.1272 129.176 97.3547C129.176 96.5823 129.802 95.9561 130.574 95.9561C131.347 95.9561 131.973 96.5823 131.973 97.3547Z" fill="black"/>
<path d="M128.388 121.008C129.07 121.37 129.329 122.217 128.966 122.899C128.604 123.581 127.757 123.84 127.075 123.478C126.393 123.115 126.134 122.268 126.496 121.586C126.859 120.904 127.706 120.645 128.388 121.008Z" fill="black"/>
<path d="M146.989 136.255C147.649 135.854 148.51 136.063 148.912 136.722C149.313 137.382 149.104 138.243 148.445 138.645C147.785 139.046 146.924 138.837 146.522 138.178C146.121 137.518 146.33 136.657 146.989 136.255Z" fill="black"/>
<path d="M170.098 127.49C170.063 126.719 170.66 126.064 171.431 126.029C172.203 125.993 172.857 126.59 172.893 127.362C172.928 128.133 172.331 128.788 171.56 128.823C170.788 128.859 170.134 128.262 170.098 127.49Z" fill="black"/>
<path d="M173.827 103.942C173.143 103.582 172.881 102.736 173.24 102.053C173.6 101.369 174.446 101.107 175.129 101.466C175.813 101.826 176.076 102.672 175.716 103.355C175.356 104.039 174.511 104.302 173.827 103.942Z" fill="black"/>
<path d="M169.55 105.747C168.866 105.387 168.603 104.541 168.963 103.858C169.323 103.174 170.168 102.911 170.852 103.271C171.536 103.631 171.798 104.476 171.439 105.16C171.079 105.844 170.233 106.106 169.55 105.747Z" fill="black"/>
<path d="M127.698 101.784C127.698 102.428 127.176 102.949 126.533 102.949C125.889 102.949 125.367 102.428 125.367 101.784C125.367 101.14 125.889 100.618 126.533 100.618C127.176 100.618 127.698 101.14 127.698 101.784Z" fill="black"/>
<path d="M130.291 126.862C130.86 127.164 131.075 127.87 130.773 128.438C130.471 129.007 129.766 129.223 129.197 128.921C128.629 128.619 128.413 127.913 128.715 127.344C129.017 126.776 129.723 126.56 130.291 126.862Z" fill="black"/>
<path d="M152.994 137.603C153.544 137.268 154.261 137.442 154.596 137.992C154.93 138.542 154.756 139.259 154.206 139.594C153.657 139.929 152.939 139.755 152.605 139.205C152.27 138.655 152.444 137.938 152.994 137.603Z" fill="black"/>
<path d="M174.165 122.87C174.135 122.227 174.632 121.681 175.275 121.652C175.918 121.622 176.464 122.119 176.493 122.762C176.523 123.405 176.026 123.951 175.383 123.98C174.74 124.01 174.194 123.513 174.165 122.87Z" fill="black"/>
<path d="M171.895 98.0956C171.325 97.7959 171.106 97.0911 171.406 96.5214C171.706 95.9517 172.411 95.7329 172.98 96.0326C173.55 96.3323 173.769 97.0371 173.469 97.6068C173.169 98.1765 172.465 98.3953 171.895 98.0956Z" fill="black"/>
<path d="M169.969 111.15C169.399 110.85 169.181 110.145 169.48 109.575C169.78 109.006 170.485 108.787 171.054 109.087C171.624 109.386 171.843 110.091 171.543 110.661C171.244 111.231 170.539 111.449 169.969 111.15Z" fill="black"/>
<path d="M161.498 89.6785C161.498 90.5797 160.767 91.3103 159.866 91.3103C158.965 91.3103 158.234 90.5797 158.234 89.6785C158.234 88.7773 158.965 88.0468 159.866 88.0468C160.767 88.0468 161.498 88.7773 161.498 89.6785Z" fill="black"/>
<path d="M155.473 87.098C155.473 87.8704 154.847 88.4966 154.074 88.4966C153.302 88.4966 152.676 87.8704 152.676 87.098C152.676 86.3255 153.302 85.6993 154.074 85.6993C154.847 85.6993 155.473 86.3255 155.473 87.098Z" fill="black"/>
<path d="M155.204 92.2264C155.204 92.9989 154.577 93.6251 153.805 93.6251C153.032 93.6251 152.406 92.9989 152.406 92.2264C152.406 91.454 153.032 90.8278 153.805 90.8278C154.577 90.8278 155.204 91.454 155.204 92.2264Z" fill="black"/>
<path d="M149.144 86.1655C149.144 86.8093 148.622 87.3311 147.978 87.3311C147.334 87.3311 146.812 86.8093 146.812 86.1655C146.812 85.5218 147.334 85 147.978 85C148.622 85 149.144 85.5218 149.144 86.1655Z" fill="black"/>
<path d="M258.175 169.945C258.587 170.097 258.588 170.68 258.176 170.833L255.228 171.929C252.638 172.892 250.597 174.938 249.642 177.532L248.555 180.483C248.403 180.896 247.82 180.896 247.667 180.485L246.571 177.536C245.608 174.946 243.562 172.906 240.969 171.951L238.017 170.864C237.605 170.712 237.604 170.129 238.016 169.976L240.964 168.88C243.554 167.917 245.594 165.87 246.549 163.277L247.637 160.326C247.789 159.913 248.371 159.912 248.525 160.324L249.621 163.273C250.584 165.863 252.63 167.903 255.223 168.858L258.175 169.945Z" fill="black"/>
<path d="M246.695 185.374H249.536V203.808H246.695V185.374Z" fill="black"/>
<path d="M225.035 167.793C225.896 165.968 228.548 166.018 229.34 167.874L229.413 168.065L241.25 203.281L238.558 204.187L227.142 170.227L214.289 204.218L211.633 203.214L224.956 167.983L225.035 167.793Z" fill="black"/>
<path d="M234.256 190.572C235.04 190.572 235.676 191.208 235.676 191.992C235.676 192.776 235.04 193.412 234.256 193.412H219.53C218.745 193.412 218.109 192.776 218.109 191.992C218.109 191.208 218.745 190.572 219.53 190.572H234.256Z" fill="black"/>
<path d="M141.027 16.1379C141.687 14.3526 144.213 14.3526 144.873 16.1379L147.162 22.3244C147.37 22.8856 147.813 23.3282 148.374 23.5359L154.561 25.8257C156.347 26.4863 156.347 29.0119 154.561 29.6724L148.374 31.9612C147.813 32.1689 147.37 32.6116 147.162 33.1727L144.873 39.3603L144.805 39.5225C144.08 41.0914 141.819 41.0915 141.094 39.5225L141.027 39.3603L138.737 33.1727C138.529 32.6116 138.087 32.1689 137.525 31.9612L131.339 29.6724C129.554 29.0119 129.554 26.4863 131.339 25.8257L137.525 23.5359C138.087 23.3282 138.529 22.8857 138.737 22.3244L141.027 16.1379ZM141.622 23.3927C141.102 24.7954 139.996 25.9012 138.594 26.4205L135.004 27.7481L138.594 29.0767C139.997 29.596 141.102 30.7025 141.622 32.1054L142.949 35.6938L144.278 32.1054C144.797 30.7023 145.903 29.5959 147.306 29.0767L150.895 27.7481L147.306 26.4205C145.904 25.9012 144.797 24.7956 144.278 23.3927L142.949 19.8034L141.622 23.3927Z" fill="black"/>
<path d="M166.302 28.161C167.265 27.1675 168.826 27.1258 169.839 28.0209L170.033 28.2121L176.328 35.0795C177.266 36.1027 177.218 37.6861 176.222 38.6519L154.718 59.4834C154.404 59.7875 154.018 60.0066 153.596 60.1192L140.59 63.5875L144.921 50.5955L144.97 50.4604C145.094 50.1491 145.277 49.8646 145.511 49.6233L166.302 28.161ZM147.802 51.6789L145.313 59.144L152.674 57.1816L173.723 36.7896L168.133 30.6911L147.802 51.6789Z" fill="black"/>
<path d="M170.004 40.7268L167.718 42.7844L161.414 35.7818L163.701 33.7233L170.004 40.7268Z" fill="black"/>
<path d="M217.312 124.559V117.691H220.312V124.559C220.313 127.044 222.327 129.059 224.812 129.059H231.206C231.956 129.059 232.666 129.395 233.141 129.975L238.113 136.052L243.086 129.975C243.561 129.395 244.272 129.059 245.021 129.059H252.13C254.615 129.059 256.63 127.044 256.63 124.559V104.39C256.63 101.905 254.615 99.8901 252.13 99.8899H243.117V96.8899H252.13C256.272 96.8901 259.63 100.248 259.63 104.39V124.559C259.63 128.701 256.272 132.059 252.13 132.059H245.258L240.049 138.426C239.049 139.648 237.179 139.648 236.179 138.426L230.97 132.059H224.812C220.671 132.059 217.313 128.701 217.312 124.559Z" fill="black"/>
<path d="M237.201 97.6748C238.508 98.1561 238.511 100.003 237.206 100.488L230.962 102.809C229.048 103.521 227.539 105.034 226.833 106.951L224.531 113.201C224.05 114.508 222.203 114.511 221.717 113.206L219.397 106.963C218.685 105.048 217.172 103.539 215.255 102.833L209.004 100.531C207.698 100.05 207.695 98.2027 209 97.7175L215.243 95.3966C217.158 94.6847 218.667 93.1717 219.373 91.2546L221.675 85.0044C222.156 83.6978 224.003 83.695 224.488 85.0002L226.809 91.2433C227.521 93.1583 229.034 94.6667 230.951 95.3728L237.201 97.6748Z" fill="black"/>
<path d="M245.515 115.316C246.197 115.567 246.199 116.531 245.518 116.784L242.261 117.994C241.262 118.366 240.475 119.155 240.107 120.155L238.906 123.416C238.655 124.097 237.691 124.099 237.438 123.418L236.227 120.161C235.856 119.162 235.067 118.375 234.067 118.007L230.806 116.806C230.125 116.555 230.123 115.591 230.804 115.338L234.061 114.127C235.06 113.756 235.847 112.967 236.215 111.967L237.416 108.706C237.667 108.025 238.63 108.023 238.884 108.704L240.094 111.961C240.466 112.96 241.255 113.747 242.255 114.115L245.515 115.316Z" fill="black"/>
<path d="M45.8516 135.615V96.8377C45.8516 96.1394 46.4177 95.5732 47.116 95.5732C47.8144 95.5732 48.3805 96.1394 48.3805 96.8377V135.615C48.3805 136.313 47.8144 136.879 47.116 136.879C46.4177 136.879 45.8516 136.313 45.8516 135.615Z" fill="black"/>
<path d="M71.1445 135.193V112.433C71.1445 111.735 71.7107 111.168 72.409 111.168C73.1074 111.168 73.6735 111.735 73.6735 112.433V135.193C73.6735 135.892 73.1074 136.458 72.409 136.458C71.7107 136.458 71.1445 135.892 71.1445 135.193Z" fill="black"/>
<path d="M75.1712 105.247L75.1226 105.352C74.8468 105.842 74.0916 105.807 73.8845 105.247L73.6795 104.695L74.5274 105.008L75.3753 104.695L75.1712 105.247ZM73.8845 86.7747C74.1054 86.1775 74.9502 86.1775 75.1712 86.7747L75.8503 88.6096C76.8925 91.4259 79.1128 93.6462 81.929 94.6883L83.2116 95.1625L83.5253 96.0104L83.2116 96.8584L81.929 97.3334C79.1128 98.3755 76.8924 100.596 75.8503 103.412L75.3753 104.695L74.5274 105.008L73.6795 104.695L73.2053 103.412C72.1632 100.596 69.9428 98.3755 67.1266 97.3334L65.2916 96.6542C64.6945 96.4332 64.6945 95.5885 65.2916 95.3675L67.1266 94.6883C69.9428 93.6462 72.1632 91.4259 73.2053 88.6096L73.8845 86.7747ZM74.5274 91.6655C73.453 93.4443 71.9613 94.936 70.1824 96.0104C71.9613 97.0847 73.453 98.5767 74.5274 100.355C75.6018 98.5767 77.0937 97.0848 78.8724 96.0104C77.0936 94.936 75.6017 93.4443 74.5274 91.6655ZM83.764 95.3675C84.3612 95.5885 84.3612 96.4332 83.764 96.6542L83.2116 96.8584L83.5253 96.0104L83.2116 95.1625L83.764 95.3675Z" fill="black"/>
<path d="M78.9928 102.612C79.191 102.076 79.9488 102.076 80.147 102.612C81.0815 105.137 83.0724 107.128 85.5976 108.062C86.1331 108.261 86.1331 109.018 85.5976 109.217L85.363 109.307C82.9493 110.276 81.0524 112.221 80.147 114.667L80.1034 114.762C79.8561 115.201 79.1786 115.169 78.9928 114.667C78.0875 112.221 76.1905 110.276 73.7769 109.307L73.5423 109.217C73.0067 109.018 73.0067 108.261 73.5423 108.062C76.0674 107.128 78.0583 105.137 78.9928 102.612ZM79.5699 106.688C78.9982 107.413 78.3431 108.068 77.618 108.639C78.3429 109.211 78.9983 109.866 79.5699 110.591C80.1414 109.866 80.7963 109.211 81.521 108.639C80.7961 108.068 80.1415 107.412 79.5699 106.688Z" fill="black"/>
<path d="M46.6908 104.846C47.3891 104.846 47.9553 105.412 47.9553 106.111C47.9553 106.809 47.3891 107.375 46.6908 107.375H38.6824C37.9841 107.375 37.418 106.809 37.418 106.111C37.418 105.412 37.9841 104.846 38.6824 104.846H46.6908Z" fill="black"/>
<path d="M46.6908 114.962C47.3891 114.962 47.9553 115.528 47.9553 116.226C47.9553 116.925 47.3891 117.491 46.6908 117.491H38.6824C37.9841 117.491 37.418 116.925 37.418 116.226C37.418 115.528 37.9841 114.962 38.6824 114.962H46.6908Z" fill="black"/>
<path d="M46.6908 125.078C47.3891 125.078 47.9553 125.644 47.9553 126.342C47.9553 127.04 47.3891 127.607 46.6908 127.607H38.6824C37.9841 127.607 37.418 127.04 37.418 126.342C37.418 125.644 37.9841 125.078 38.6824 125.078H46.6908Z" fill="black"/>
<path d="M79.5708 125.078C80.2692 125.078 80.8353 125.644 80.8353 126.342C80.8353 127.04 80.2692 127.607 79.5708 127.607H72.827C72.1286 127.607 71.5625 127.04 71.5625 126.342C71.5625 125.644 72.1286 125.078 72.827 125.078H79.5708Z" fill="black"/>
<path d="M75.7774 114.962C76.4758 114.962 77.0419 115.528 77.0419 116.226C77.0419 116.925 76.4758 117.491 75.7774 117.491H72.827C72.1286 117.491 71.5625 116.925 71.5625 116.226C71.5625 115.528 72.1286 114.962 72.827 114.962H75.7774Z" fill="black"/>
<path d="M37 128.028V104.425C37 99.0705 41.3403 94.7302 46.6943 94.7302H62.711C63.4093 94.7302 63.9755 95.2963 63.9755 95.9947C63.9755 96.693 63.4093 97.2592 62.711 97.2592H46.6943C42.737 97.2592 39.5289 100.467 39.5289 104.425V128.028C39.5289 131.985 42.737 135.193 46.6943 135.193H71.5623C75.5196 135.193 78.7277 131.985 78.7277 128.028V119.177C78.7277 118.478 79.2938 117.912 79.9921 117.912C80.6905 117.912 81.2566 118.478 81.2566 119.177V128.028C81.2566 133.382 76.9163 137.722 71.5623 137.722H46.6943C41.3403 137.722 37 133.382 37 128.028Z" fill="black"/>
<path d="M53.0156 110.91C53.0159 109.356 54.631 108.354 56.0089 108.998L56.1414 109.065L65.8168 114.403C67.2477 115.192 67.2742 117.24 65.8645 118.066L56.1892 123.738C54.7843 124.562 53.0158 123.549 53.0156 121.921V110.91ZM55.5446 121.185L63.9456 116.259L55.5446 111.624V121.185Z" fill="black"/>
<path d="M159.023 171.614C159.898 170.909 161.154 170.913 162.025 171.623L162.206 171.786L167.736 177.318C168.676 178.258 168.666 179.785 167.715 180.713L140.497 207.268C138.026 209.679 134.058 209.598 131.687 207.088C129.381 204.645 129.447 200.808 131.837 198.447L158.842 171.776L159.023 171.614ZM133.849 200.484C132.566 201.751 132.531 203.811 133.769 205.122C135.041 206.469 137.17 206.513 138.497 205.219L165.369 179.001L160.515 174.146L133.849 200.484Z" fill="black"/>
<path d="M153.388 177.619C153.947 177.06 154.853 177.06 155.413 177.619L161.532 183.739C162.092 184.298 162.092 185.204 161.532 185.763C160.973 186.322 160.067 186.322 159.508 185.763L153.388 179.643C152.829 179.084 152.829 178.178 153.388 177.619Z" fill="black"/>
<path d="M143.334 180.473L143.271 180.62C142.938 181.261 142.013 181.301 141.626 180.691L141.552 180.55L141.212 179.764L142.429 180.17L143.604 179.661L143.334 180.473ZM141.552 163.708C141.9 162.904 143.056 162.954 143.334 163.784L143.964 165.671C144.7 167.876 146.401 169.624 148.585 170.422L150.8 171.232C151.635 171.538 151.635 172.719 150.8 173.025L148.585 173.835L148.181 173.995C146.192 174.853 144.654 176.52 143.964 178.587L143.604 179.661L142.429 180.17L141.212 179.764L140.437 177.973C139.689 176.246 138.331 174.86 136.63 174.074L136.286 173.925L134.027 173.014C133.231 172.692 133.231 171.565 134.027 171.244L134.879 170.899L136.286 170.332C138.032 169.628 139.452 168.306 140.279 166.625L140.437 166.285L141.552 163.708ZM142.317 168.836C141.481 170.167 140.357 171.291 139.029 172.128C140.357 172.965 141.481 174.09 142.317 175.42C143.151 174.092 144.274 172.966 145.602 172.128C144.274 171.29 143.151 170.164 142.317 168.836Z" fill="black"/>
<path d="M170.456 162.452C170.729 161.821 171.638 161.859 171.856 162.512L172.351 163.994C172.929 165.726 174.266 167.101 175.982 167.728L177.127 168.146L177.464 169.068L177.127 169.989L175.982 170.408L175.664 170.535C174.102 171.209 172.893 172.519 172.351 174.143L172.068 174.986L171.856 175.625L171.806 175.74C171.526 176.279 170.712 176.277 170.456 175.685L169.58 173.66C168.992 172.303 167.925 171.214 166.589 170.597L166.318 170.48L164.544 169.764C163.918 169.512 163.918 168.625 164.544 168.373L165.214 168.102L166.318 167.657C167.69 167.104 168.805 166.065 169.456 164.744L169.58 164.477L170.456 162.452ZM171.057 166.48C170.4 167.526 169.517 168.41 168.473 169.068C169.516 169.726 170.4 170.61 171.057 171.656C171.713 170.611 172.596 169.727 173.641 169.068C172.596 168.409 171.713 167.524 171.057 166.48ZM177.722 168.364C178.378 168.604 178.378 169.533 177.722 169.773L177.127 169.989L177.464 169.068L177.127 168.146L177.722 168.364Z" fill="black"/>
<path d="M167.393 187.698C167.666 187.066 168.575 187.105 168.793 187.757L169.288 189.239C169.867 190.972 171.204 192.346 172.919 192.973L174.065 193.392L174.401 194.313L174.065 195.234L172.919 195.654L172.602 195.78C171.039 196.454 169.831 197.764 169.288 199.388L169.006 200.231L168.793 200.87L168.744 200.985C168.463 201.525 167.649 201.522 167.393 200.93L166.517 198.906C165.929 197.548 164.863 196.459 163.526 195.842L163.256 195.725L161.481 195.01C160.855 194.757 160.855 193.87 161.481 193.618L162.151 193.347L163.256 192.902C164.627 192.349 165.743 191.31 166.393 189.989L166.517 189.722L167.393 187.698ZM167.994 191.725C167.337 192.771 166.454 193.655 165.411 194.313C166.454 194.971 167.337 195.855 167.994 196.901C168.651 195.857 169.534 194.972 170.578 194.313C169.533 193.654 168.651 192.77 167.994 191.725ZM174.66 193.61C175.316 193.85 175.316 194.778 174.66 195.018L174.065 195.234L174.401 194.313L174.065 193.392L174.66 193.61Z" fill="black"/>
</svg>
