<svg width="296" height="220" viewBox="0 0 296 220" fill="none" xmlns="http://www.w3.org/2000/svg">
<path d="M68.1782 18.2907C70.3439 21.146 74.5555 27.7929 74.3231 38.7143C74.3097 39.3364 73.7948 39.8301 73.1727 39.8169C72.5506 39.8035 72.0569 39.288 72.0701 38.6659C72.2584 29.8136 69.351 24.0133 67.2875 20.9238C62.962 27.4524 57.9633 40.465 67.9405 55.5327L66.0611 56.7772C54.6559 39.553 61.6194 24.7067 66.3758 18.3L67.271 17.0946L68.1782 18.2907Z" fill="black"/>
<path d="M85.5933 29.676V31.9295H48.4102V29.676H85.5933Z" fill="black"/>
<path d="M68.4067 41.7888C69.029 41.7888 69.5335 42.2933 69.5335 42.9156C69.5335 43.5379 69.029 44.0423 68.4067 44.0423L49.2518 44.0423C48.6295 44.0423 48.125 43.5379 48.125 42.9156C48.125 42.2933 48.6295 41.7888 49.2518 41.7888L68.4067 41.7888Z" fill="black"/>
<path d="M67 17C78.0457 17 87 25.9543 87 37C87 37.3215 86.9922 37.6412 86.977 37.959C86.9495 38.5346 86.4638 38.9718 85.8875 38.9718C85.2203 38.9718 84.7042 38.3918 84.7316 37.7251C84.7414 37.4846 84.7465 37.2429 84.7465 37C84.7465 27.1989 76.8011 19.2535 67 19.2535C57.1989 19.2535 49.2535 27.1989 49.2535 37C49.2535 46.8011 57.1989 54.7465 67 54.7465C67.4213 54.7465 67.8392 54.7314 68.2531 54.702C68.932 54.6539 69.5352 55.174 69.5352 55.8547C69.5352 56.418 69.1163 56.8969 68.5546 56.9402C68.0416 56.9798 67.5231 57 67 57C55.9543 57 47 48.0457 47 37C47 25.9543 55.9543 17 67 17Z" fill="black"/>
<path d="M78.3577 54.476C78.3577 55.0486 78.8217 55.5126 79.3942 55.5126C79.9667 55.5126 80.4308 55.0486 80.4308 54.476V44.2796L85.1403 48.9891C85.5451 49.394 86.2011 49.394 86.6059 48.9891C87.0107 48.5843 87.0108 47.9283 86.6059 47.5235L79.3942 40.3112L72.1825 47.5235C71.7777 47.9283 71.7777 48.5843 72.1825 48.9891C72.5873 49.394 73.2434 49.394 73.6482 48.9891L78.3577 44.2796V54.476Z" fill="black"/>
<path d="M233.71 86.3229C235.93 89.2496 240.247 96.0626 240.009 107.257C239.995 107.895 239.467 108.401 238.829 108.387C238.192 108.374 237.686 107.845 237.699 107.208C237.892 98.1338 234.912 92.1886 232.797 89.0219C228.363 95.7137 223.24 109.052 233.466 124.496L231.54 125.772C219.85 108.117 226.987 92.8993 231.863 86.3325L232.78 85.0969L233.71 86.3229Z" fill="black"/>
<path d="M251.554 97.993V100.303H213.441V97.993H251.554Z" fill="black"/>
<path d="M233.945 110.409C234.583 110.409 235.1 110.926 235.1 111.563C235.1 112.201 234.583 112.718 233.945 112.718H214.311C213.673 112.718 213.156 112.201 213.156 111.563C213.156 110.926 213.673 110.409 214.311 110.409H233.945Z" fill="black"/>
<path d="M232.5 85C243.822 85 253 94.1782 253 105.5C253 105.83 252.992 106.157 252.976 106.483C252.948 107.073 252.45 107.521 251.86 107.521C251.176 107.521 250.647 106.927 250.675 106.243C250.685 105.997 250.69 105.749 250.69 105.5C250.69 95.4539 242.546 87.3099 232.5 87.3099C222.454 87.3099 214.31 95.4539 214.31 105.5C214.31 115.546 222.454 123.69 232.5 123.69C232.932 123.69 233.36 123.675 233.784 123.645C234.48 123.595 235.099 124.128 235.099 124.826C235.099 125.403 234.669 125.894 234.093 125.939C233.568 125.979 233.036 126 232.5 126C221.178 126 212 116.822 212 105.5C212 94.1782 221.178 85 232.5 85Z" fill="black"/>
<path d="M242.188 111.887C242.639 111.436 243.37 111.436 243.821 111.887C244.272 112.338 244.272 113.069 243.821 113.52L240.196 117.145L243.821 120.771C244.272 121.222 244.272 121.953 243.821 122.404C243.37 122.855 242.639 122.855 242.188 122.404L236.93 117.145L242.188 111.887Z" fill="black"/>
<path d="M248.796 111.887C248.345 111.436 247.614 111.436 247.163 111.887C246.712 112.338 246.712 113.069 247.163 113.52L250.788 117.145L247.163 120.771C246.712 121.222 246.712 121.953 247.163 122.404C247.614 122.855 248.345 122.855 248.796 122.404L254.055 117.145L248.796 111.887Z" fill="black"/>
<path d="M154.847 86.3315C157.081 89.277 161.425 96.1338 161.186 107.4C161.172 108.042 160.641 108.551 159.999 108.538C159.357 108.524 158.848 107.992 158.862 107.35C159.056 98.2184 156.057 92.2349 153.928 89.0478C149.466 95.7826 144.309 109.206 154.602 124.75L152.663 126.034C140.897 108.265 148.081 92.9502 152.987 86.3412L153.911 85.0977L154.847 86.3315Z" fill="black"/>
<path d="M172.815 98.0767V100.401H134.457V98.0767H172.815Z" fill="black"/>
<path d="M155.087 110.572C155.729 110.572 156.25 111.092 156.25 111.734C156.25 112.376 155.729 112.897 155.087 112.897H135.326C134.684 112.897 134.164 112.376 134.164 111.734C134.164 111.092 134.684 110.572 135.326 110.572H155.087Z" fill="black"/>
<path d="M153.632 85C165.026 85 174.263 94.2371 174.263 105.632C174.263 105.963 174.255 106.293 174.24 106.621C174.211 107.215 173.71 107.666 173.116 107.666C172.428 107.666 171.895 107.067 171.923 106.38C171.934 106.132 171.939 105.882 171.939 105.632C171.939 95.521 163.742 87.3247 153.632 87.3247C143.521 87.3247 135.325 95.521 135.325 105.632C135.325 115.742 143.521 123.939 153.632 123.939C154.066 123.939 154.497 123.923 154.924 123.893C155.625 123.843 156.247 124.38 156.247 125.082C156.247 125.663 155.815 126.157 155.235 126.202C154.706 126.243 154.171 126.263 153.632 126.263C142.237 126.263 133 117.026 133 105.632C133 94.2371 142.237 85 153.632 85Z" fill="black"/>
<path d="M171.514 117.956C171.514 115.506 169.528 113.519 167.078 113.519C164.628 113.519 162.641 115.506 162.641 117.956C162.641 120.406 164.628 122.392 167.078 122.392V124.717L166.903 124.715C163.308 124.624 160.41 121.726 160.319 118.13L160.316 117.956C160.316 114.222 163.344 111.194 167.078 111.194L167.252 111.197C170.906 111.289 173.839 114.28 173.839 117.956L173.837 118.13C173.744 121.784 170.754 124.717 167.078 124.717V122.392C169.528 122.392 171.514 120.406 171.514 117.956Z" fill="black"/>
<path d="M174.663 124.861C175.117 125.314 175.117 126.051 174.663 126.505C174.209 126.959 173.473 126.959 173.019 126.505L170.121 123.607L171.765 121.963L174.663 124.861Z" fill="black"/>
<path d="M68.9811 163.34C71.2289 166.303 75.6001 173.202 75.3589 184.537C75.345 185.183 74.8105 185.695 74.1649 185.682C73.5193 185.668 73.0068 185.133 73.0206 184.487C73.216 175.299 70.1983 169.279 68.0566 166.073C63.5673 172.849 58.3791 186.354 68.7344 201.993L66.7838 203.285C54.9464 185.408 62.1738 169.999 67.1104 163.349L68.0395 162.098L68.9811 163.34Z" fill="black"/>
<path d="M87.0531 175.156V177.495H48.4609V175.156H87.0531Z" fill="black"/>
<path d="M69.2221 187.728C69.868 187.728 70.3916 188.252 70.3916 188.898C70.3916 189.543 69.868 190.067 69.2221 190.067H49.3413C48.6955 190.067 48.1719 189.543 48.1719 188.898C48.1719 188.252 48.6955 187.728 49.3413 187.728H69.2221Z" fill="black"/>
<path d="M67.7579 162C79.2221 162 88.5158 171.294 88.5158 182.758C88.5158 183.092 88.5077 183.423 88.4919 183.753C88.4633 184.351 87.9592 184.804 87.3611 184.804C86.6686 184.804 86.133 184.202 86.1614 183.511C86.1716 183.261 86.1769 183.01 86.1769 182.758C86.1769 172.585 77.9304 164.339 67.7579 164.339C57.5854 164.339 49.3389 172.585 49.3389 182.758C49.3389 192.93 57.5854 201.177 67.7579 201.177C68.1952 201.177 68.6288 201.161 69.0584 201.131C69.7631 201.081 70.3892 201.621 70.3892 202.327C70.3892 202.912 69.9544 203.409 69.3714 203.454C68.8389 203.495 68.3008 203.516 67.7579 203.516C56.2936 203.516 47 194.222 47 182.758C47 171.294 56.2936 162 67.7579 162Z" fill="black"/>
<path d="M80.7561 187.728C84.1272 187.728 86.3446 189.637 87.1521 192.102C87.9356 194.493 87.3737 197.356 85.4305 199.325L85.4254 199.331L80.7561 204L76.0863 199.331C73.6492 196.916 73.417 193.973 74.5616 191.641C75.6699 189.384 78.0602 187.728 80.7561 187.728ZM80.7561 190.067C79.017 190.067 77.4052 191.156 76.6607 192.672C75.9755 194.068 76.0134 195.856 77.5795 197.513L77.7359 197.673L80.7555 200.692L83.766 197.682L83.8859 197.557C85.0956 196.237 85.4337 194.368 84.9297 192.83C84.4335 191.315 83.1049 190.067 80.7561 190.067Z" fill="black"/>
<path d="M83.501 194.387C83.501 195.903 82.2722 197.131 80.7564 197.131C79.2405 197.131 78.0117 195.903 78.0117 194.387C78.0117 192.871 79.2405 191.642 80.7564 191.642C82.2722 191.642 83.501 192.871 83.501 194.387Z" fill="black"/>
<path d="M232.971 17.6013C242.735 17.8487 250.713 25.285 251.809 34.8152C251.887 35.4972 251.337 36.0736 250.651 36.0736C250.015 36.0736 249.493 35.5753 249.415 34.9439C248.371 26.5125 241.183 19.9861 232.469 19.986C223.037 19.9861 215.391 27.6318 215.391 37.0635C215.391 45.9877 222.237 53.3121 230.963 54.0743C231.614 54.1312 232.139 54.66 232.139 55.3135V56.355C232.139 56.4501 232.061 56.5268 231.966 56.5257C221.613 56.2634 213.269 47.9189 213.006 37.5659L213 37.0635C213 26.3113 221.716 17.5949 232.469 17.5948L232.971 17.6013Z" fill="black"/>
<path d="M237.978 33.7633C237.978 28.0537 234.826 23.6131 232.658 20.9974C230.232 23.5009 227.471 27.4031 226.393 32.5739C225.198 38.3054 226.04 45.7444 231.974 54.7751C232.306 55.2808 232.166 55.9602 231.66 56.2925C231.154 56.6249 230.475 56.4842 230.143 55.9784C223.934 46.5306 222.918 38.5049 224.247 32.1266C225.57 25.7842 229.181 21.2182 231.981 18.5891L232.814 17.8074L233.561 18.6715C235.65 21.0911 240.17 26.4583 240.17 33.7633C240.17 34.3685 239.679 34.859 239.074 34.8591C238.469 34.8591 237.978 34.3685 237.978 33.7633Z" fill="black"/>
<path d="M232.802 35.3075C233.407 35.3075 233.898 35.7981 233.898 36.4033C233.898 37.0085 233.407 37.4991 232.802 37.4991H214.197C213.592 37.4991 213.102 37.0085 213.102 36.4033C213.102 35.7981 213.592 35.3075 214.197 35.3075H232.802Z" fill="black"/>
<path d="M248.955 46.9623C248.955 43.3219 246.003 40.3709 242.363 40.3709C238.723 40.371 235.772 43.3219 235.772 46.9623C235.772 50.6028 238.723 53.5542 242.363 53.5542V55.9229C237.414 55.9229 233.402 51.9112 233.402 46.9623C233.402 42.0135 237.414 38.0018 242.363 38.0017C247.312 38.0017 251.324 42.0135 251.324 46.9623C251.324 51.9112 247.312 55.9229 242.363 55.9229V53.5542C246.003 53.5542 248.955 50.6028 248.955 46.9623Z" fill="black"/>
<path d="M241.094 43.6468C241.094 42.9926 241.624 42.4622 242.278 42.4622C242.933 42.4622 243.463 42.9926 243.463 43.6468V47.2975H246.207C246.861 47.2975 247.392 47.828 247.392 48.4821C247.392 49.1362 246.861 49.6666 246.207 49.6667H241.094V43.6468Z" fill="black"/>
<path d="M86.5604 106C86.5604 95.7496 78.2509 87.4397 68.0003 87.4396C57.7496 87.4396 49.4396 95.7496 49.4396 106C49.4397 116.251 57.7496 124.56 68.0003 124.56V127L67.4583 126.993C56.2908 126.711 47.2901 117.71 47.0071 106.542L47 106C47 94.4022 56.4022 85 68.0003 85L68.5423 85.0071C79.8898 85.2947 89 94.5835 89 106L88.9934 106.542C88.7059 117.89 79.417 127 68.0003 127V124.56C78.2509 124.56 86.5603 116.251 86.5604 106Z" fill="black"/>
<path d="M67.5778 86.2407L60.3848 106.403L67.2747 125.984L64.9733 126.794L57.7969 106.398L65.28 85.4211L67.5778 86.2407ZM78.0491 106.408L71.5535 126.46L69.233 125.708L75.4898 106.391L69.2282 86.1919L71.5582 85.47L78.0491 106.408Z" fill="black"/>
<path d="M88.4047 105.18V107.62H47.4648V105.18H88.4047Z" fill="black"/>
<path d="M154 17C161.549 17 168.121 21.1832 171.525 27.3579C171.914 28.0635 171.38 28.8919 170.574 28.8919C170.156 28.8919 169.775 28.656 169.571 28.2912C166.518 22.8438 160.689 19.1622 154 19.1622C144.148 19.1622 136.162 27.1484 136.162 37C136.162 46.8516 144.148 54.8378 154 54.8378C162.429 54.8378 169.491 48.9919 171.356 41.1336C171.477 40.6209 171.925 40.2432 172.452 40.2432C173.125 40.2432 173.64 40.848 173.489 41.504C171.446 50.3806 163.497 57 154 57C142.954 57 134 48.0457 134 37C134 25.9543 142.954 17 154 17Z" fill="black"/>
<path d="M156.976 17.6392C156.582 17.1899 155.899 17.1448 155.45 17.5379C155.001 17.9311 154.955 18.6141 155.348 19.0634C158.08 22.1852 161.071 27.1979 161.914 33.3957C162.752 39.5595 161.48 46.9815 155.561 55.0068C155.207 55.4872 155.309 56.1641 155.789 56.5186C156.269 56.873 156.946 56.7709 157.301 56.2905C163.542 47.8294 164.973 39.8459 164.056 33.1043C163.143 26.3968 159.92 21.0039 156.976 17.6392Z" fill="black"/>
<path d="M144.975 33.7569C145.617 33.7569 146.115 34.3145 146.074 34.9549C145.703 40.7945 147.279 47.6475 152.708 55.007C153.062 55.4874 152.96 56.1644 152.479 56.5188C151.999 56.8731 151.322 56.771 150.968 56.2907C145.22 48.4981 143.494 41.111 143.921 34.7254C143.958 34.1742 144.423 33.7569 144.975 33.7569ZM151.023 17.6394C151.416 17.1903 152.099 17.145 152.549 17.5381C152.998 17.9313 153.043 18.6144 152.65 19.0636C150.923 21.0376 149.116 23.7718 147.826 27.0868C147.658 27.5187 147.247 27.811 146.783 27.811C146.037 27.811 145.51 27.0817 145.778 26.3858C147.174 22.7689 149.14 19.7914 151.023 17.6394Z" fill="black"/>
<path d="M140.789 30.511C140.94 29.9332 141.531 29.587 142.108 29.7377L142.111 29.7387C142.113 29.7393 142.117 29.7401 142.122 29.7413C142.133 29.7441 142.149 29.7485 142.171 29.754C142.215 29.7652 142.282 29.7817 142.37 29.8031C142.546 29.846 142.807 29.9076 143.14 29.9821C143.806 30.131 144.76 30.3302 145.906 30.5295C148.204 30.9291 151.245 31.3244 154.268 31.3244C157.291 31.3244 160.332 30.9291 162.63 30.5295C163.776 30.3302 164.73 30.131 165.396 29.9821C165.729 29.9076 165.99 29.846 166.166 29.8031C166.253 29.7817 166.32 29.7652 166.365 29.754C166.387 29.7485 166.403 29.7441 166.414 29.7413C166.419 29.7401 166.422 29.7393 166.425 29.7387L166.427 29.7377C167.005 29.587 167.596 29.9333 167.747 30.511C167.897 31.0887 167.551 31.6794 166.973 31.8301H166.972L166.971 31.8307C166.97 31.8309 166.969 31.8313 166.967 31.8317C166.963 31.8327 166.958 31.8337 166.951 31.8354C166.938 31.8388 166.918 31.8439 166.893 31.8502C166.844 31.8628 166.771 31.8811 166.677 31.904C166.488 31.9499 166.215 32.0149 165.868 32.0925C165.174 32.2476 164.186 32.4539 163 32.6599C160.636 33.0711 157.461 33.4866 154.268 33.4866C151.074 33.4866 147.899 33.0711 145.535 32.6599C144.35 32.4539 143.362 32.2476 142.668 32.0925C142.321 32.0149 142.047 31.9499 141.859 31.904C141.765 31.8811 141.692 31.8628 141.642 31.8502C141.617 31.8439 141.598 31.8388 141.585 31.8354C141.578 31.8337 141.573 31.8327 141.569 31.8317C141.567 31.8313 141.566 31.8309 141.565 31.8307L141.564 31.8301H141.562C140.985 31.6794 140.638 31.0887 140.789 30.511Z" fill="black"/>
<path d="M140.789 42.6731C140.94 42.0954 141.531 41.7491 142.108 41.8998L142.111 41.9008C142.113 41.9014 142.117 41.9022 142.122 41.9035C142.133 41.9062 142.149 41.9106 142.171 41.9161C142.215 41.9273 142.282 41.9438 142.37 41.9652C142.546 42.0081 142.807 42.0697 143.14 42.1442C143.806 42.2931 144.76 42.4923 145.906 42.6916C148.204 43.0912 151.245 43.4865 154.268 43.4865C157.291 43.4865 160.332 43.0912 162.63 42.6916C163.776 42.4923 164.73 42.2931 165.396 42.1442C165.729 42.0697 165.99 42.0081 166.166 41.9652C166.253 41.9438 166.32 41.9273 166.365 41.9161C166.387 41.9106 166.403 41.9062 166.414 41.9035C166.419 41.9022 166.422 41.9014 166.425 41.9008L166.427 41.8998C167.005 41.7491 167.596 42.0954 167.747 42.6731C167.897 43.2508 167.551 43.8415 166.973 43.9922H166.972L166.971 43.9928C166.97 43.993 166.969 43.9934 166.967 43.9938C166.963 43.9948 166.958 43.9958 166.951 43.9975C166.938 44.0009 166.918 44.006 166.893 44.0123C166.844 44.0249 166.771 44.0432 166.677 44.0661C166.488 44.112 166.215 44.177 165.868 44.2546C165.174 44.4097 164.186 44.616 163 44.8221C160.636 45.2332 157.461 45.6487 154.268 45.6487C151.074 45.6487 147.899 45.2332 145.535 44.8221C144.35 44.616 143.362 44.4097 142.668 44.2546C142.321 44.177 142.047 44.112 141.859 44.0661C141.765 44.0432 141.692 44.0249 141.642 44.0123C141.617 44.006 141.598 44.0009 141.585 43.9975C141.578 43.9958 141.573 43.9948 141.569 43.9938C141.567 43.9934 141.566 43.993 141.565 43.9928L141.564 43.9922H141.562C140.985 43.8415 140.638 43.2508 140.789 42.6731Z" fill="black"/>
<path d="M234.154 163.511C236.419 166.498 240.824 173.45 240.581 184.874C240.567 185.524 240.028 186.041 239.378 186.027C238.727 186.013 238.211 185.474 238.224 184.823C238.421 175.564 235.38 169.497 233.222 166.265C228.698 173.094 223.469 186.705 233.905 202.465L231.939 203.767C220.01 185.751 227.293 170.222 232.268 163.521L233.205 162.26L234.154 163.511Z" fill="black"/>
<path d="M252.365 175.42V177.777H213.473V175.42H252.365Z" fill="black"/>
<path d="M234.39 188.09C235.041 188.09 235.568 188.617 235.568 189.268C235.568 189.919 235.041 190.447 234.39 190.447H214.354C213.703 190.447 213.176 189.919 213.176 189.268C213.176 188.617 213.703 188.09 214.354 188.09H234.39Z" fill="black"/>
<path d="M232.919 162.161C244.473 162.161 253.839 171.527 253.839 183.081C253.839 183.417 253.831 183.751 253.815 184.084C253.786 184.686 253.278 185.143 252.675 185.143C251.977 185.143 251.437 184.536 251.466 183.839C251.476 183.588 251.482 183.335 251.482 183.081C251.482 172.829 243.171 164.518 232.919 164.518C222.668 164.518 214.357 172.829 214.357 183.081C214.357 193.332 222.668 201.643 232.919 201.643C233.36 201.643 233.797 201.627 234.23 201.596C234.94 201.546 235.571 202.09 235.571 202.802C235.571 203.391 235.133 203.892 234.545 203.937C234.009 203.979 233.467 204 232.919 204C221.366 204 212 194.634 212 183.081C212 171.527 221.366 162.161 232.919 162.161Z" fill="black"/>
<path d="M252.093 190.246C252.529 189.81 253.237 189.81 253.673 190.246C254.109 190.682 254.109 191.39 253.673 191.826L244.633 200.865L238.687 194.92C238.25 194.483 238.25 193.776 238.687 193.339C239.123 192.903 239.831 192.903 240.267 193.339L244.633 197.706L252.093 190.246Z" fill="black"/>
<path d="M154.238 163.355C156.512 166.353 160.934 173.333 160.69 184.8C160.676 185.453 160.135 185.972 159.482 185.958C158.829 185.944 158.311 185.402 158.324 184.749C158.522 175.454 155.469 169.364 153.303 166.12C148.761 172.975 143.512 186.638 153.988 202.459L152.015 203.766C140.04 185.681 147.351 170.092 152.345 163.365L153.285 162.099L154.238 163.355Z" fill="black"/>
<path d="M172.523 175.31V177.676H133.48V175.31H172.523Z" fill="black"/>
<path d="M154.479 188.028C155.133 188.028 155.662 188.558 155.662 189.211C155.662 189.865 155.133 190.394 154.479 190.394H134.367C133.713 190.394 133.184 189.865 133.184 189.211C133.184 188.558 133.713 188.028 134.367 188.028H154.479Z" fill="black"/>
<path d="M153 162C164.598 162 174 171.402 174 183C174 183.338 173.992 183.673 173.976 184.007C173.947 184.611 173.437 185.07 172.832 185.07C172.131 185.07 171.589 184.461 171.618 183.761C171.629 183.509 171.634 183.255 171.634 183C171.634 172.709 163.291 164.366 153 164.366C142.709 164.366 134.366 172.709 134.366 183C134.366 193.291 142.709 201.634 153 201.634C153.442 201.634 153.881 201.618 154.316 201.587C155.029 201.537 155.662 202.083 155.662 202.797C155.662 203.389 155.222 203.892 154.632 203.937C154.094 203.979 153.549 204 153 204C141.402 204 132 194.598 132 183C132 171.402 141.402 162 153 162Z" fill="black"/>
<path d="M164.928 188.016C164.928 187.415 165.415 186.928 166.016 186.928C166.617 186.928 167.104 187.415 167.104 188.016V198.723L172.049 193.778C172.474 193.353 173.163 193.353 173.588 193.778C174.013 194.203 174.013 194.891 173.588 195.317L166.016 202.889L158.444 195.317C158.019 194.891 158.019 194.203 158.444 193.778C158.869 193.353 159.558 193.353 159.983 193.778L164.928 198.723V188.016Z" fill="black"/>
</svg>
