<svg width="260" height="178" viewBox="0 0 260 178" fill="none" xmlns="http://www.w3.org/2000/svg">
<path d="M139.377 94.8969V91.7903C139.377 90.5651 140.37 89.5719 141.596 89.5719C142.923 89.5719 143.999 90.6479 143.999 91.9752V101.178C143.999 102.546 143.927 103.945 143.337 105.18C142.701 106.508 141.853 107.462 141.387 107.858C135.439 112.52 129.732 109.532 127.622 107.456L118.758 98.248C117.942 97.3999 117.978 96.0476 118.839 95.2443C119.653 94.4844 120.918 94.4888 121.727 95.2544L125.914 99.2171V82.0365C125.914 80.8712 126.859 79.9266 128.024 79.9266C129.189 79.9266 130.134 80.8712 130.134 82.0365V94.8969" stroke="black" stroke-width="1.27264" stroke-linecap="square"/>
<path d="M134.852 95.0978V89.5216C134.852 88.2731 135.864 87.261 137.112 87.261C138.361 87.261 139.373 88.2731 139.373 89.5216V90.9785" stroke="black" stroke-width="1.27264" stroke-linecap="square"/>
<path d="M130.133 94.6959V89.2202C130.133 87.9162 131.19 86.8591 132.494 86.8591C133.798 86.8591 134.855 87.9162 134.855 89.2202V90.7775" stroke="black" stroke-width="1.27264" stroke-linecap="square"/>
<path d="M128.347 73.8179C133.056 73.8179 136.874 77.6353 136.874 82.3443L136.862 82.7837C136.822 83.5827 136.668 84.3516 136.423 85.0777C135.98 84.9569 135.556 84.8749 135.165 84.8228C135.446 84.0494 135.601 83.2149 135.601 82.3443C135.6 78.3381 132.353 75.0904 128.347 75.0904C124.341 75.0906 121.093 78.3383 121.093 82.3443C121.093 84.5515 122.08 86.5266 123.636 87.857V89.4498C121.337 87.9224 119.82 85.3112 119.82 82.3443C119.82 77.6354 123.638 73.8182 128.347 73.8179Z" fill="black"/>
<path d="M128.663 70.0039C135.334 70.1728 140.689 75.6335 140.689 82.3447L140.686 82.6631C140.649 84.1257 140.356 85.5247 139.853 86.8184C139.501 86.5326 139.139 86.2832 138.773 86.0664C139.189 84.9031 139.417 83.6507 139.417 82.3447C139.417 76.2299 134.46 71.2725 128.345 71.2725C122.23 71.2725 117.272 76.2298 117.272 82.3447C117.273 86.7749 119.876 90.5952 123.635 92.3652V93.2461C123.635 93.425 123.651 93.6015 123.682 93.7744C119.269 91.9722 116.131 87.6932 116.004 82.6631L116 82.3447C116 75.527 121.527 70 128.345 70L128.663 70.0039Z" fill="black"/>
<path d="M129.48 148.801C131.561 149.461 135.782 151.815 136.025 155.955" stroke="black" stroke-width="1.24528" stroke-linecap="round"/>
<path d="M130.848 146.67C134.653 145.605 138.001 149.41 141.654 148.801" stroke="black" stroke-width="1.24528" stroke-linecap="round"/>
<path d="M129.633 166L129.176 161.738C128.161 161.282 125.584 159.303 123.392 155.042C120.653 149.714 118.218 146.366 117 145.301C117.355 144.286 118.674 142.652 121.109 144.235C121.972 144.996 123.94 146.853 124.914 148.192L126.436 149.562C127.045 148.091 128.232 144.113 128.111 139.974C128.015 136.724 127.851 132.887 127.735 130.406C127.691 129.458 128.4 128.643 129.345 128.557C130.276 128.472 131.112 129.127 131.253 130.052L132.795 140.184C132.84 140.478 133.269 140.461 133.289 140.164L134.234 126.591C134.3 125.642 135.089 124.906 136.04 124.906C137.041 124.906 137.851 125.715 137.854 126.715C137.87 131.947 137.954 139.766 138.198 141.881C138.223 142.094 138.378 142.082 138.422 141.873L140.996 129.778C141.194 128.844 142.099 128.238 143.038 128.408C143.968 128.577 144.599 129.449 144.471 130.385L142.8 142.561C142.761 142.845 143.154 142.959 143.273 142.698L146.242 136.209C146.415 135.831 146.739 135.543 147.135 135.415C148.305 135.039 149.393 136.167 148.974 137.322C147.536 141.293 145.71 146.461 145.614 148.192C145.918 152.15 145.492 160.399 141.352 161.738V166" stroke="black" stroke-width="1.24528" stroke-linecap="round"/>
<path d="M132.066 162.173C132.644 162.277 134.099 162.256 135.299 161.342C135.8 161.758 137.193 162.505 138.763 162.173" stroke="black" stroke-width="1.24528" stroke-linecap="round"/>
<path d="M214.703 79.7447L216.203 79.0725C217.847 78.3353 219.777 79.0887 220.487 80.7453L222.913 86.4052" stroke="black" stroke-width="1.8816" stroke-linecap="round"/>
<path d="M220.742 80.2094L222.678 79.6933C224.232 79.2787 225.855 80.0731 226.48 81.5553L228.332 85.9406" stroke="black" stroke-width="1.8816" stroke-linecap="round"/>
<path d="M226.472 81.1388L229.669 81.6382C230.764 81.8094 231.696 82.5297 232.128 83.5509C233.811 87.5333 236.231 93.4902 236.231 94.4598C236.231 95.3536 236.43 100.121 236.509 103.547C236.54 104.884 235.715 106.082 234.465 106.559L222.824 111" stroke="black" stroke-width="1.8816" stroke-linecap="round"/>
<path d="M222.825 111C219.103 107.521 210.634 100.632 205.414 97.0978C203.718 95.9497 202.826 93.291 204.226 91.7965C205.227 90.7285 206.549 90.0924 208.592 90.8138C208.74 90.8661 208.884 90.9363 209.02 91.0141L213.152 93.3755L206.826 76.6359C206.226 75.0482 207.092 73.2839 208.715 72.7879C210.174 72.3422 211.731 73.0867 212.299 74.5017L217.644 87.7993" stroke="black" stroke-width="1.8816" stroke-linecap="round"/>
<path d="M204.703 27.8542C205.661 28.4132 209.734 24.7396 212.25 21.0261L215.615 14.9327C216.216 13.8438 217.557 13.405 218.686 13.9276C221.284 15.1302 222.674 17.9967 222.011 20.7815L220.755 26.0573L236.726 26.4469C238.812 26.4977 240.519 28.1216 240.675 30.2021C240.85 32.5559 238.988 34.5625 236.627 34.5625H226.984" stroke="black" stroke-width="1.61068" stroke-linecap="round"/>
<path d="M226.984 34.5625C229.38 34.5625 231.417 37.8688 228.542 41.0313C229.42 42.4289 229.62 45.3438 226.625 46.9011C226.745 49.6164 225.715 53.8011 218.719 51.6928C213.405 50.0913 210.524 49.1976 208.382 48.716C206.356 48.2602 204.703 46.5761 204.703 44.499V27.8542" stroke="black" stroke-width="1.61068" stroke-linecap="round"/>
<path d="M205.422 27.6146H198.866C196.731 27.6146 195 29.3453 195 31.4802V44.3532C195 46.4881 196.731 48.2188 198.866 48.2188H206.38" stroke="black" stroke-width="1.61068" stroke-linecap="round"/>
<circle cx="199.789" cy="44.2657" r="1.35091" stroke="black" stroke-width="1.61068"/>
<path d="M39.4864 148.198C39.4083 147.495 39.4395 145.95 40.1891 145.387C41.126 144.685 44.2883 140.703 50.8468 139.649C53.8529 141.327 59.5174 145.411 58.8616 148.503C58.2057 151.595 55.4144 147.847 50.6126 144.919C49.2072 145.856 47.4504 146.559 46.045 149.018C46.9429 150.97 49.1135 154.71 50.6126 154.054C51.6276 153.781 54.1261 152.766 56 150.892C57.8739 149.018 59.1231 151.204 59.5135 152.532L51.9009 160.261C51.3544 160.925 50.2378 163.002 50.1441 166H39.018C37.1441 163.58 32.8108 156.631 30.4685 148.198L30.0598 133.382C30.027 132.196 30.98 131.216 32.1671 131.216H32.9279L33.2793 133.207" stroke="black" stroke-width="1.05405" stroke-linecap="round"/>
<path d="M33.3945 144.919L36.1474 129.037C36.3071 128.115 37.1987 127.51 38.1144 127.7C38.7962 127.842 39.316 128.396 39.4145 129.086L39.6017 130.396" stroke="black" stroke-width="1.05405" stroke-linecap="round"/>
<path d="M34.5664 147.847L42.8841 128.106C43.1452 127.487 43.8464 127.18 44.4783 127.41C45.9947 127.962 46.7849 129.631 46.2505 131.153L43.3502 139.414" stroke="black" stroke-width="1.05405" stroke-linecap="round"/>
<path d="M125.657 28.0752C128.255 25.5664 132.801 28.5398 129.74 32.6283C130.76 29.2832 138.09 31.2345 134.564 36.7168C135.863 33.4646 140.966 36.3451 139.482 39.2257L134.936 48.2389C134.07 49.8186 130.946 53.1823 125.379 54L116.101 49.2611C114.987 48.115 112.983 44.0389 114.616 37.2743L126.06 14.5208C126.762 13.1249 128.458 12.5555 129.86 13.2449C131.277 13.9417 131.856 15.6589 131.151 17.0719L125.657 28.0752Z" stroke="black" stroke-width="1.25"/>
<path d="M43.4013 74.631H45.7043C46.6369 74.631 47.5365 75.0055 48.1201 75.7329C51.0871 79.4313 55.136 86.986 53.0621 94.8309C50.8711 103.119 42.1779 103.021 37.4728 101.81C36.993 101.686 36.5629 101.432 36.1879 101.109C34.2853 99.4658 30.8018 96.7838 28.2757 95.9305C28.0728 95.8619 27.8632 95.8266 27.6505 95.8015C25.2003 95.5115 20.5603 94.2065 19.3119 90.9415C18.1573 87.9218 20.454 86.5787 22.1862 86.1645C22.604 86.0646 23.0394 86.1 23.4426 86.2481C24.4671 86.6243 26.1966 87.4389 27.969 88.8086C30.729 90.9415 32.862 91.3179 35.1203 90.1887C36.8037 89.3471 36.4394 86.9152 35.9758 85.5722C35.9117 85.3863 35.8247 85.2094 35.704 85.0541C35.0002 84.1483 33.1972 82.7956 30.3526 83.1627C26.7591 83.6264 23.8079 84.4114 21.7966 83.1427C21.4631 82.9323 21.2113 82.6138 21.069 82.246C20.5435 80.887 20.3775 78.6531 22.825 77.5167C25.6352 76.2119 32.4856 76.3359 35.1203 77.2658C36.5423 77.7677 39.6873 79.1227 40.8917 81.5316" stroke="black" stroke-width="1.13097" stroke-linecap="round"/>
<path d="M31.3555 76.6385C33.2798 75.1418 33.7466 74.7382 36.171 74.4187C37.0982 74.2966 38.0288 74.6026 38.7345 75.2162L43.4001 79.2733" stroke="black" stroke-width="1.13097" stroke-linecap="round"/>
<path d="M36.1211 74.3801L39.592 73.4711C40.7125 73.1776 41.9053 73.476 42.7555 74.2625L46.4092 77.6422" stroke="black" stroke-width="1.13097" stroke-linecap="round"/>
<path d="M39.1348 102.359C38.9257 104.785 39.9127 109.46 45.5336 108.758C51.1544 108.055 54.818 102.861 55.9472 100.351C56.7 98.7622 57.252 95.2826 53.4379 94.0782" stroke="black" stroke-width="1.13097"/>
<path d="M214 133.467L217.763 135.441" stroke="black" stroke-width="1.08915" stroke-linecap="round"/>
<path d="M233.695 133.194L229.932 135.169" stroke="black" stroke-width="1.08915" stroke-linecap="round"/>
<path d="M217.953 128.713L220.519 132.101" stroke="black" stroke-width="1.08915" stroke-linecap="round"/>
<path d="M229.742 128.441L227.177 131.829" stroke="black" stroke-width="1.08915" stroke-linecap="round"/>
<path d="M223.723 127L223.831 131.248" stroke="black" stroke-width="1.08915" stroke-linecap="round"/>
<path d="M220.895 149.6C220.228 149.308 218.697 149.323 217.524 151.434C217.304 151.83 217.219 152.284 217.219 152.738V157.114C217.219 157.72 217.383 158.315 217.719 158.819C219.139 160.952 221.739 164.299 224.114 165.643C224.495 165.858 224.932 165.937 225.369 165.937H234.713C234.94 165.937 235.166 165.917 235.383 165.856C237.164 165.355 240.321 163.546 241.129 159.54C241.166 159.359 241.18 159.173 241.18 158.989V149.668C241.18 148.277 240.052 147.149 238.661 147.149C237.27 147.149 236.143 148.277 236.143 149.668V150.961" stroke="black" stroke-width="1.08915"/>
<path d="M236.143 150.825V147.626C236.143 146.235 235.015 145.107 233.624 145.107C232.233 145.107 231.105 146.235 231.105 147.626V150.144" stroke="black" stroke-width="1.08915"/>
<path d="M231.104 150.144V146.605C231.104 145.251 230.007 144.154 228.654 144.154C227.3 144.154 226.203 145.251 226.203 146.605V150.144" stroke="black" stroke-width="1.08915"/>
<path d="M221.031 155.046V137.483C221.031 136.054 222.189 134.896 223.618 134.896C225.047 134.896 226.205 136.054 226.205 137.483V150.008" stroke="black" stroke-width="1.08915"/>
<path d="M29.4469 41.0355C30.754 39.6239 33.1457 35.3902 33.1061 29.1009C33.0991 27.9928 33.4492 26.8994 34.1838 26.0696L39.5554 20.0016C41.0184 18.349 40.7751 15.803 39.0257 14.4573C37.2068 13.0582 34.5639 13.5685 33.2355 15.4397C30.3648 19.4834 25.9121 24.7303 21.2461 27.3675C20.1641 28.0509 18 30.5795 18 35.2266" stroke="black" stroke-width="1.3668" stroke-linecap="round"/>
<path d="M18.6834 39.8396C18.6834 39.4621 18.3774 39.1562 18 39.1562C17.6226 39.1562 17.3166 39.4621 17.3166 39.8396H18H18.6834ZM44.475 54.5326L45.1584 54.5393L45.1718 53.1726L44.4884 53.1659L44.4817 53.8492L44.475 54.5326ZM18 39.8396H17.3166V43.7867H18H18.6834V39.8396H18ZM18.058 44.4279L17.3886 44.5654C17.944 47.2695 20.3755 52.3878 26.3699 54.1956L26.5672 53.5413L26.7646 52.887C21.4044 51.2705 19.2188 46.6828 18.7274 44.2904L18.058 44.4279ZM27.5606 53.6834L27.5539 54.3667L44.475 54.5326L44.4817 53.8492L44.4884 53.1659L27.5673 53L27.5606 53.6834ZM26.5672 53.5413L26.3699 54.1956C26.765 54.3147 27.167 54.3629 27.5539 54.3667L27.5606 53.6834L27.5673 53C27.2827 52.9972 27.0125 52.9618 26.7646 52.887L26.5672 53.5413ZM18 43.7867H17.3166C17.3166 44.0321 17.3331 44.2951 17.3886 44.5654L18.058 44.4279L18.7274 44.2904C18.6961 44.138 18.6834 43.9727 18.6834 43.7867H18Z" fill="black"/>
<path d="M33.7188 27.0258H42.2612" stroke="black" stroke-width="1.3668" stroke-linecap="round"/>
<path d="M46.5312 27.8801L50.0683 30.1203C51.0573 30.7466 51.6567 31.8357 51.6567 33.0064C51.6567 34.8931 50.1272 36.4226 48.2405 36.4226H38.9284C37.3715 36.4226 36.1094 35.1605 36.1094 33.6036C36.1094 32.0467 37.3715 30.7845 38.9284 30.7845H44.1393" stroke="black" stroke-width="1.3668" stroke-linecap="round"/>
<path d="M49.095 36.4226H39.1857C37.5816 36.4226 36.2812 37.7229 36.2812 39.327C36.2812 40.9311 37.5816 42.2315 39.1857 42.2315H49.095C50.6991 42.2315 51.9994 40.9311 51.9994 39.327C51.9994 37.7229 50.6991 36.4226 49.095 36.4226Z" stroke="black" stroke-width="1.3668"/>
<path d="M47.3865 42.2315H39.1857C37.5816 42.2315 36.2812 43.5318 36.2812 45.1359C36.2812 46.74 37.5816 48.0404 39.1857 48.0404H47.3865C48.9906 48.0404 50.2909 46.74 50.2909 45.1359C50.2909 43.5318 48.9906 42.2315 47.3865 42.2315Z" stroke="black" stroke-width="1.3668"/>
<path d="M45.3367 48.0404H40.5529C38.9488 48.0404 37.6484 49.3407 37.6484 50.9448C37.6484 52.5489 38.9488 53.8492 40.5529 53.8492H45.3367C46.9408 53.8492 48.2411 52.5489 48.2411 50.9448C48.2411 49.3407 46.9408 48.0404 45.3367 48.0404Z" stroke="black" stroke-width="1.3668"/>
</svg>
