<svg width="260" height="178" viewBox="0 0 260 178" fill="none" xmlns="http://www.w3.org/2000/svg">
<path d="M15.2438 11.5316C16.745 11.0095 18.2505 11.0075 19.6497 11.3173C22.1994 11.8818 24.4227 13.4866 25.7169 14.9389C27.531 12.6106 29.7586 11.6258 31.7046 11.297C33.7256 10.9556 35.4607 11.3184 36.1303 11.6212C39.2336 12.7896 40.8994 15.0716 41.7135 17.3905C42.5218 19.6927 42.4983 22.0471 42.2219 23.4416C41.7185 27.3594 38.8605 31.0181 35.5689 33.9796C32.26 36.9565 28.4445 39.2901 25.9133 40.5445L25.7338 40.6336L25.5553 40.5427C15.8723 35.6209 11.3429 30.3024 9.6749 25.6274C8.00635 20.9509 9.22214 16.9705 10.9237 14.8028C12.2692 13.0886 13.7416 12.0541 15.2438 11.5316ZM19.4772 12.0964C18.1981 11.8132 16.8455 11.8196 15.506 12.2855C14.1675 12.751 12.816 13.6841 11.5513 15.2953C10.0163 17.2509 8.85142 20.9449 10.4264 25.3593C11.9922 29.7475 16.2865 34.8986 25.7382 39.7397C28.2162 38.4912 31.867 36.2364 35.035 33.3862C38.2929 30.4552 40.9724 26.9553 41.4327 23.3246L41.4345 23.3104L41.4371 23.2966C41.6905 22.0295 41.7188 19.8151 40.9604 17.6549C40.2068 15.5083 38.6843 13.4311 35.8372 12.3634L35.8235 12.3582L35.8102 12.3523C35.3164 12.1244 33.7368 11.763 31.8376 12.0839C29.9599 12.4012 27.7875 13.3825 26.0614 15.8118L25.7533 16.2453L25.4231 15.8281C24.2946 14.4016 22.0506 12.6661 19.4772 12.0964Z" fill="black"/>
<path d="M15.1045 24.5142C15.3127 24.4422 15.5398 24.5525 15.6119 24.7608C16.78 28.1355 19.2423 32.1644 25.1134 34.9042C25.313 34.9974 25.3993 35.235 25.3061 35.4347C25.2129 35.6343 24.9753 35.7206 24.7757 35.6274C18.6761 32.7809 16.084 28.5633 14.858 25.0216C14.7859 24.8133 14.8963 24.5863 15.1045 24.5142Z" fill="black"/>
<path d="M15.1067 16.6042C15.276 16.4631 15.5276 16.4861 15.6686 16.6554C15.8097 16.8246 15.787 17.0762 15.6177 17.2173C15.1958 17.5689 14.3604 18.7975 14.9446 20.6477C15.011 20.8578 14.8945 21.0822 14.6843 21.1485C14.4742 21.2149 14.2502 21.0983 14.1837 20.8882C13.4911 18.695 14.4646 17.1393 15.1067 16.6042Z" fill="black"/>
<path d="M119.129 16.1854C120.604 15.8949 122.035 16.0899 123.315 16.5323C124.594 16.9745 125.728 17.6657 126.615 18.3773C127.497 19.0856 128.153 19.8281 128.462 20.3847C128.531 20.5086 128.486 20.6649 128.363 20.7336C128.239 20.8023 128.083 20.7577 128.014 20.634C127.748 20.1561 127.147 19.4621 126.293 18.7773C125.444 18.0956 124.361 17.4369 123.147 17.0172C121.934 16.5979 120.596 16.4194 119.228 16.6889C117.862 16.958 116.449 17.6768 115.088 19.0788C113.246 20.9773 112.648 23.0703 112.899 25.2212C113.152 27.3856 114.266 29.6275 115.885 31.7929C119.124 36.1236 124.323 40.0679 128.365 42.3558C128.488 42.4256 128.531 42.5822 128.461 42.7054C128.391 42.8286 128.235 42.8721 128.112 42.8023C124.031 40.4924 118.769 36.5055 115.475 32.1002C113.828 29.8977 112.657 27.5703 112.39 25.2806C112.121 22.9773 112.77 20.7311 114.72 18.7214C116.147 17.2513 117.651 16.4765 119.129 16.1854Z" fill="black"/>
<path d="M137.345 16.0466C135.868 15.771 134.436 15.9861 133.156 16.4483C131.877 16.9102 130.743 17.6209 129.856 18.3468C128.973 19.0697 128.318 19.8215 128.009 20.3771C127.941 20.5009 127.985 20.657 128.109 20.7258C128.233 20.7945 128.389 20.7499 128.458 20.6261C128.724 20.1472 129.326 19.4432 130.181 18.7438C131.032 18.0475 132.115 17.3693 133.33 16.9307C134.544 16.4924 135.883 16.2954 137.25 16.5508C138.616 16.8057 140.028 17.5144 141.388 18.9159C143.231 20.814 143.828 22.9172 143.577 25.0841C143.324 27.2643 142.21 29.5269 140.59 31.7127C137.352 36.084 132.153 40.0688 128.112 42.3562C127.989 42.4259 127.945 42.5823 128.015 42.7056C128.085 42.8288 128.241 42.8723 128.365 42.8025C132.447 40.492 137.708 36.464 141.002 32.018C142.649 29.795 143.82 27.4475 144.087 25.143C144.355 22.8252 143.707 20.5688 141.756 18.5587C140.329 17.0881 138.824 16.3227 137.345 16.0466Z" fill="black"/>
<path d="M109.268 30.707C109.319 30.575 109.467 30.5096 109.599 30.561C111.404 31.2627 114.223 31.5271 115.415 31.5696C115.556 31.5747 115.667 31.6936 115.662 31.8351C115.657 31.9766 115.538 32.0871 115.396 32.082C114.193 32.0391 111.302 31.7733 109.414 31.0389C109.282 30.9875 109.216 30.839 109.268 30.707Z" fill="black"/>
<path d="M147.58 30.707C147.529 30.575 147.38 30.5096 147.248 30.561C145.444 31.2627 142.624 31.5271 141.433 31.5696C141.291 31.5747 141.181 31.6936 141.186 31.8351C141.191 31.9766 141.31 32.0871 141.452 32.082C142.654 32.0391 145.545 31.7733 147.434 31.0389C147.566 30.9875 147.631 30.839 147.58 30.707Z" fill="black"/>
<path d="M114.417 8.02711C115.739 7.83424 116.988 8.68927 117.287 9.99201L117.75 12.0123C118.047 13.3074 117.305 14.6149 116.041 15.0248L114.898 15.3955C113.87 15.729 112.75 15.3208 112.175 14.4107L110.27 22.2683C110.237 22.4059 110.099 22.4905 109.961 22.4571C109.823 22.4238 109.739 22.2852 109.772 22.1476L111.69 14.2376L111.701 14.1988C111.824 13.8194 112.333 13.7416 112.564 14.0671L112.586 14.1011L112.629 14.169C113.085 14.8588 113.947 15.1647 114.74 14.9076L115.883 14.5367C116.894 14.2087 117.488 13.1629 117.25 12.1267L116.787 10.1067C116.548 9.06451 115.549 8.38026 114.491 8.53455L110.505 9.11563C109.811 9.62202 109.059 10.62 108.293 11.9534C107.514 13.3088 106.739 14.9792 106.008 16.7541C104.546 20.3033 103.272 24.2488 102.523 26.8786C102.498 26.9641 102.521 27.0466 102.578 27.1018C103.248 27.7498 104.202 28.3528 105.142 28.8475C106.078 29.3407 106.984 29.7177 107.543 29.9172C107.676 29.9649 107.746 30.1115 107.698 30.2448C107.65 30.3782 107.504 30.4477 107.37 30.4001C106.79 30.1927 105.862 29.8063 104.903 29.3013C103.947 28.7979 102.942 28.168 102.222 27.4702C102.022 27.2768 101.956 26.996 102.029 26.7378C102.782 24.0952 104.062 20.1305 105.533 16.5587C106.269 14.7731 107.054 13.0803 107.849 11.6979C108.638 10.3244 109.453 9.22491 110.259 8.66104L110.309 8.62622L114.417 8.02711Z" fill="black"/>
<path d="M142.431 8.02711C141.108 7.83424 139.859 8.68927 139.561 9.99201L139.098 12.0123C138.801 13.3074 139.542 14.6149 140.806 15.0248L141.95 15.3955C142.978 15.729 144.098 15.3208 144.672 14.4107L146.577 22.2683C146.611 22.4059 146.749 22.4905 146.887 22.4571C147.024 22.4238 147.109 22.2852 147.076 22.1476L145.158 14.2376L145.147 14.1988C145.024 13.8194 144.514 13.7416 144.283 14.0671L144.261 14.1011L144.219 14.169C143.763 14.8588 142.9 15.1647 142.108 14.9076L140.965 14.5367C139.953 14.2087 139.36 13.1629 139.597 12.1267L140.061 10.1067C140.299 9.06451 141.299 8.38026 142.357 8.53455L146.343 9.11563C147.036 9.62202 147.788 10.62 148.554 11.9534C149.333 13.3088 150.109 14.9792 150.84 16.7541C152.302 20.3033 153.575 24.2488 154.325 26.8786C154.349 26.9641 154.327 27.0466 154.269 27.1018C153.6 27.7498 152.645 28.3528 151.706 28.8475C150.769 29.3407 149.864 29.7177 149.305 29.9172C149.172 29.9649 149.102 30.1115 149.15 30.2448C149.197 30.3782 149.344 30.4477 149.477 30.4001C150.058 30.1927 150.986 29.8063 151.945 29.3013C152.901 28.7979 153.905 28.168 154.626 27.4702C154.826 27.2768 154.892 26.996 154.818 26.7378C154.065 24.0952 152.786 20.1305 151.314 16.5587C150.579 14.7731 149.793 13.0803 148.999 11.6979C148.21 10.3244 147.394 9.22491 146.589 8.66104L146.539 8.62622L142.431 8.02711Z" fill="black"/>
<path d="M110.626 22.3318C111.477 21.9952 112.29 22.0536 112.792 22.2211C112.927 22.2659 112.999 22.4111 112.954 22.5455C112.91 22.6798 112.764 22.7526 112.63 22.7078C112.235 22.5761 111.547 22.5191 110.815 22.8087C110.09 23.0952 109.303 23.7285 108.712 25.0085C108.653 25.1371 108.5 25.1931 108.372 25.1338C108.243 25.0744 108.187 24.922 108.246 24.7934C108.887 23.4061 109.767 22.6716 110.626 22.3318Z" fill="black"/>
<path d="M146.218 22.3318C145.367 21.9952 144.554 22.0536 144.052 22.2211C143.917 22.2659 143.845 22.4111 143.889 22.5455C143.934 22.6798 144.079 22.7526 144.214 22.7078C144.609 22.5761 145.297 22.5191 146.029 22.8087C146.754 23.0952 147.541 23.7285 148.132 25.0085C148.191 25.1371 148.343 25.1931 148.472 25.1338C148.601 25.0744 148.657 24.922 148.597 24.7934C147.957 23.4061 147.077 22.6716 146.218 22.3318Z" fill="black"/>
<path d="M237.076 13.999C238.809 12.8426 240.569 12.5654 242.231 12.8584C245.513 13.4374 248.347 16.2248 249.95 18.6003L250.023 18.7093L250.022 18.8405C249.884 34.386 238.373 40.9243 232.612 42.2493L232.497 42.2761L232.385 42.2387C216.6 37.0229 213.982 24.4721 214.678 18.7853L214.692 18.6713L214.762 18.5798C216.887 15.8035 218.936 14.161 220.874 13.3694C222.823 12.5734 224.632 12.6499 226.237 13.2601C229.099 14.3484 231.267 17.1146 232.525 19.5153C233.959 16.8242 235.497 15.053 237.076 13.999ZM242.084 13.6912C240.631 13.4349 239.093 13.6701 237.546 14.7026C235.988 15.7422 234.399 17.6055 232.897 20.6433L232.504 21.4371L232.134 20.6328C230.995 18.1617 228.8 15.1395 225.936 14.0505C224.523 13.5133 222.936 13.4407 221.194 14.1523C219.46 14.8603 217.547 16.356 215.505 19.0017C214.898 24.4062 217.411 36.3443 232.536 41.3977C238.071 40.0738 248.979 33.7993 249.174 18.9653C247.61 16.6906 244.985 14.2028 242.084 13.6912Z" fill="black"/>
<path d="M222.064 27.7286C222.272 27.6208 222.527 27.7013 222.635 27.9083C224.137 30.7945 226.799 33.5601 229.367 34.6385C229.582 34.7289 229.683 34.9768 229.593 35.1921C229.503 35.4074 229.255 35.5088 229.039 35.4184C226.242 34.2434 223.451 31.3074 221.885 28.299C221.777 28.0919 221.857 27.8364 222.064 27.7286Z" fill="black"/>
<path d="M219.527 21.3715C219.756 21.3227 219.98 21.4683 220.029 21.6965C220.144 22.2289 220.526 23.4888 221.118 24.2988C221.255 24.4874 221.214 24.7518 221.026 24.8895C220.837 25.0272 220.573 24.986 220.435 24.7974C219.74 23.8456 219.326 22.4492 219.202 21.8736C219.153 21.6454 219.299 21.4205 219.527 21.3715Z" fill="black"/>
<path d="M221.934 4.51286C222.117 4.36755 222.382 4.39792 222.528 4.58067L225.688 8.55481C225.833 8.73758 225.803 9.00335 225.62 9.14868C225.437 9.29398 225.172 9.26362 225.026 9.08087L221.866 5.10673C221.721 4.92396 221.751 4.65819 221.934 4.51286Z" fill="black"/>
<path d="M242.101 4.90983C241.919 4.76453 241.653 4.79489 241.507 4.97764L238.347 8.95178C238.202 9.13455 238.232 9.40033 238.415 9.54565C238.598 9.69096 238.864 9.66059 239.009 9.47784L242.169 5.5037C242.314 5.32093 242.284 5.05516 242.101 4.90983Z" fill="black"/>
<path d="M232.025 2.57779C231.792 2.58741 231.611 2.78421 231.621 3.0175L231.829 8.09072C231.839 8.324 232.036 8.50519 232.269 8.49559C232.502 8.48597 232.683 8.28917 232.674 8.05588L232.465 2.98267C232.456 2.74938 232.259 2.56819 232.025 2.57779Z" fill="black"/>
<path d="M14.1481 70.2194C17.6955 68.9677 20.529 69.6461 22.6158 71.0286C24.3693 72.1903 25.5799 73.8374 26.2626 75.2103C28.8291 71.8861 31.5711 70.7536 34.0264 70.7878C36.5146 70.8224 38.6202 72.0548 39.8503 73.219L39.9668 73.3314L39.9836 73.348L39.9985 73.3663C42.9969 77.0467 43.2853 80.6051 42.3869 83.5528C41.5025 86.4541 39.4816 88.7273 37.8753 89.9506C35.8203 92.0947 32.0824 94.1114 28.3014 95.7557C24.4869 97.4145 20.5598 98.7233 18.1038 99.4225L17.225 99.6728L17.5783 98.83C18.901 95.675 18.2885 93.2772 17.1617 91.5199C16.0179 89.736 14.3305 88.5923 13.4735 88.0185C11.6665 86.8087 10.357 84.9703 9.76271 83.9358L9.75298 83.9184L9.74469 83.9004C8.03032 80.1701 8.37529 77.0966 9.54387 74.7749C10.7016 72.475 12.6484 70.9481 14.1014 70.2388L14.1243 70.2277L14.1481 70.2194ZM22.1304 71.7612C20.2692 70.5282 17.7304 69.8947 14.4642 71.0398C13.1524 71.6863 11.3786 73.0847 10.3288 75.1703C9.2856 77.2429 8.93841 80.0298 10.5354 83.5162C11.0988 84.4916 12.321 86.1893 13.9624 87.2882C14.8214 87.8633 16.6498 89.0935 17.9015 91.0457C19.0654 92.8608 19.7186 95.2834 18.7042 98.3303C21.1324 97.6004 24.5879 96.4123 27.9509 94.9499C31.7423 93.3011 35.3479 91.3328 37.2643 89.3187L37.2892 89.2929L37.3178 89.2712C38.8199 88.1352 40.7238 85.9955 41.5464 83.2965C42.3586 80.6317 42.1302 77.385 39.3323 73.9402C38.2343 72.8636 36.2875 71.6982 34.0141 71.6666C31.7603 71.6352 29.0904 72.7173 26.5275 76.3297L26.0586 76.9905L25.7605 76.237C25.2292 74.8937 24.0169 73.0111 22.1304 71.7612Z" fill="black"/>
<path d="M113.161 71.6624C116.881 68.4521 122.627 67.9916 126.407 71.1607L126.586 71.3144L126.6 71.327L126.613 71.3409L131.913 76.8056C132.104 77.0026 132.099 77.3171 131.902 77.5081C131.705 77.6991 131.39 77.6941 131.199 77.4971L125.917 72.0495C122.571 69.1038 117.271 69.4279 113.81 72.4147C112.09 73.8986 110.833 76.0374 110.519 78.7534C110.205 81.4727 110.833 84.8061 112.948 88.6705C113.08 88.9112 112.992 89.2131 112.751 89.3449C112.51 89.4766 112.208 89.3882 112.077 89.1476C109.886 85.1462 109.189 81.6071 109.532 78.6392C109.875 75.668 111.258 73.3041 113.161 71.6624Z" fill="black"/>
<path d="M128.404 72.9724C132.877 68.9731 136.84 68.4121 139.996 69.4644C143.104 70.5011 145.308 73.0647 146.395 75.0954L146.404 75.111L146.411 75.1271C148.468 79.7219 147.836 83.92 146.219 87.2783C144.608 90.6206 142.019 93.1427 140.111 94.4524L140.109 94.454L140.106 94.4559C139.267 95.015 135.529 98.0447 132.289 100.701C130.211 102.406 127.234 102.471 125.09 100.847L117.505 95.1012C117.287 94.9355 117.244 94.6239 117.41 94.4052C117.575 94.1865 117.887 94.1434 118.106 94.3091L125.69 100.055C127.466 101.4 129.934 101.347 131.659 99.933C134.868 97.301 138.663 94.2238 139.554 93.6292C141.345 92.3986 143.802 90.0039 145.323 86.8471C146.836 83.7066 147.419 79.8235 145.51 75.5483C144.497 73.6627 142.465 71.3355 139.681 70.4069C136.936 69.4914 133.336 69.8962 129.066 73.7131C128.862 73.8959 128.547 73.8785 128.365 73.6739C128.182 73.4694 128.199 73.1553 128.404 72.9724Z" fill="black"/>
<path d="M223.744 70.5948C220.69 69.6799 217.553 70.623 215.195 73.4416C212.002 77.2576 212.837 82.6158 215.228 87.67C217.634 92.7554 221.699 97.7274 225.325 100.968C228.305 103.631 232.559 103.643 235.82 101.427C240.922 97.9609 245.893 92.9411 248.529 87.8172C249.848 85.2534 250.597 82.633 250.456 80.1513C250.313 77.6539 249.269 75.3307 247.067 73.3899C245.381 71.9045 243.656 71.264 241.978 71.2208C240.309 71.1779 238.731 71.7266 237.329 72.541C234.651 74.0962 232.525 76.6727 231.463 78.2707C229.531 74.113 226.72 71.4862 223.744 70.5948ZM215.923 74.0511C218.059 71.498 220.812 70.7084 223.471 71.505C226.158 72.3096 228.839 74.7621 230.699 78.8812C230.964 79.4683 231.785 79.5224 232.13 78.9848C233.098 77.4762 235.193 74.8797 237.806 73.3624C239.106 72.607 240.511 72.1334 241.953 72.1705C243.387 72.2074 244.903 72.7492 246.439 74.1028C248.451 75.8768 249.379 77.9633 249.507 80.2054C249.636 82.4632 248.955 84.9121 247.684 87.3827C245.141 92.3278 240.297 97.2371 235.286 100.641C232.34 102.643 228.573 102.597 225.958 100.26C222.409 97.0879 218.429 92.2148 216.087 87.264C213.73 82.2821 213.111 77.4127 215.923 74.0511Z" fill="black"/>
<path d="M207.351 67.0793C207.509 66.8704 207.807 66.8297 208.016 66.9884L211.975 69.9968C212.184 70.1556 212.224 70.4535 212.066 70.6624C211.907 70.8712 211.609 70.9119 211.4 70.7533L207.442 67.7448C207.233 67.5861 207.192 67.2881 207.351 67.0793Z" fill="black"/>
<path d="M215.215 61.9279C215.457 61.8285 215.735 61.9446 215.834 62.1873L217.718 66.7887C217.817 67.0314 217.701 67.3088 217.458 67.4082C217.216 67.5076 216.938 67.3915 216.839 67.1488L214.955 62.5474C214.856 62.3047 214.972 62.0273 215.215 61.9279Z" fill="black"/>
<path d="M225.608 61.1627C225.862 61.2266 226.017 61.4845 225.953 61.7389L224.743 66.5614C224.679 66.8159 224.421 66.9704 224.167 66.9067C223.912 66.8428 223.758 66.5849 223.821 66.3305L225.031 61.508C225.095 61.2535 225.353 61.099 225.608 61.1627Z" fill="black"/>
<path d="M16.5762 127C19.4925 127 21.1586 129.103 22.0834 131.682C22.995 134.225 23.2535 137.383 23.2908 139.961C23.2919 139.961 23.2931 139.962 23.2942 139.962C23.2979 139.963 23.3015 139.962 23.305 139.963C24.4277 136.591 25.949 133.582 27.7629 131.619C29.6026 129.628 31.8331 128.637 34.2467 129.627C37.6869 131.038 38.8838 134.6 38.5054 138.397C38.1261 142.204 36.1681 146.406 33.0918 149.399C31.7484 150.706 29.5683 153.251 27.4205 156.022C25.2725 158.794 23.1837 161.758 22.0116 163.898C21.888 164.124 21.6814 164.239 21.5021 164.29C21.3237 164.341 21.1372 164.341 20.9728 164.311C20.8082 164.282 20.6341 164.217 20.4848 164.109C20.3356 164.001 20.1814 163.825 20.1385 163.574C19.5933 160.386 17.8022 157.269 16.8317 155.946L16.8311 155.945C11.2226 148.249 9.35606 141.724 9.13013 139.351C8.82034 136.097 9.02788 133.034 10.1421 130.764C10.7036 129.621 11.4991 128.672 12.5758 128.012C13.6519 127.353 14.9792 127 16.5762 127ZM16.5762 127.971C15.1245 127.971 13.9802 128.291 13.0834 128.84C12.1872 129.389 11.5078 130.187 11.0143 131.193C10.0184 133.221 9.79369 136.068 10.0975 139.259C10.3032 141.42 12.0849 147.783 17.6153 155.371L17.8168 155.654C18.8605 157.163 20.5258 160.188 21.0822 163.336C21.0834 163.337 21.0846 163.338 21.086 163.338C21.1028 163.345 21.1229 163.351 21.1448 163.355C21.1647 163.358 21.1835 163.359 21.1998 163.359C22.4162 161.157 24.5198 158.18 26.6526 155.428C28.8091 152.645 31.0219 150.058 32.4144 148.703C35.3288 145.867 37.1824 141.877 37.5387 138.301C37.8958 134.717 36.7522 131.705 33.878 130.526C31.9882 129.75 30.1686 130.447 28.4764 132.278C26.7773 134.117 25.2977 137.02 24.1923 140.373C24.1053 140.636 23.9035 140.791 23.7117 140.866C23.5261 140.939 23.3274 140.949 23.1545 140.923C22.9817 140.898 22.7933 140.832 22.6358 140.708C22.4724 140.58 22.3248 140.371 22.3215 140.091C22.2908 137.519 22.0383 134.435 21.1688 132.01C20.2986 129.583 18.8799 127.972 16.5762 127.971Z" fill="black"/>
<path d="M124.275 142.413C125.773 141.335 128.258 140.196 130.856 140.333C133.507 140.473 136.179 141.939 137.975 145.879L138.062 146.062C138.959 148.042 139.679 152.629 136.19 156.955C132.691 161.294 125.681 166.653 122.631 168.782L122.319 169L115.809 163.937C115.583 163.761 115.543 163.436 115.718 163.211C115.894 162.985 116.219 162.945 116.444 163.12L122.35 167.713C125.531 165.462 132.097 160.382 135.385 156.305C138.682 152.216 137.84 147.923 137.049 146.341L137.045 146.333L137.041 146.324C135.388 142.688 133.034 141.484 130.802 141.366C128.514 141.245 126.257 142.261 124.88 143.253C124.648 143.42 124.324 143.367 124.157 143.135C123.99 142.903 124.043 142.58 124.275 142.413Z" fill="black"/>
<path d="M113.999 139.904C116.665 139.608 118.79 140.664 120.34 142.07C121.882 143.468 122.881 145.232 123.336 146.446C123.436 146.713 123.301 147.011 123.033 147.111C122.766 147.212 122.467 147.076 122.367 146.809C121.96 145.723 121.045 144.106 119.645 142.837C118.255 141.576 116.413 140.677 114.113 140.933C109.503 141.445 107.941 145.515 107.49 147.599L107.487 147.613L107.483 147.628C106.969 149.477 107.244 154.766 113.192 160.037C113.405 160.227 113.425 160.554 113.236 160.767C113.046 160.981 112.719 161.001 112.505 160.811C106.323 155.331 105.852 149.662 106.483 147.364C106.957 145.187 108.688 140.494 113.999 139.904Z" fill="black"/>
<path d="M127.179 124.109C129.241 121.955 132.301 120.497 136.127 121.821C139.642 123.038 141.417 125.259 142.143 127.577C142.858 129.866 142.54 132.208 141.959 133.707C141.855 133.973 141.556 134.105 141.289 134.002C141.023 133.899 140.891 133.599 140.994 133.333C141.505 132.016 141.79 129.916 141.155 127.886C140.529 125.886 138.999 123.91 135.788 122.799C132.44 121.64 129.786 122.882 127.927 124.825C126.992 125.801 126.268 126.949 125.778 128.039C125.285 129.137 125.047 130.138 125.047 130.815V130.844L125.044 130.873L124.227 138.063C124.194 138.346 123.938 138.55 123.654 138.518C123.37 138.486 123.166 138.23 123.199 137.946L124.013 130.78C124.021 129.909 124.313 128.775 124.834 127.615C125.366 126.431 126.154 125.181 127.179 124.109Z" fill="black"/>
<path d="M144.761 132.218C144.813 131.937 145.083 131.752 145.364 131.804C147.147 132.136 149.466 133.132 151.099 135.085C152.752 137.064 153.654 139.967 152.67 143.991L152.666 144.008L152.661 144.025C152.231 145.376 151.149 147.297 149.286 148.743C147.406 150.202 144.746 151.163 141.219 150.587C140.937 150.541 140.746 150.275 140.792 149.993C140.838 149.711 141.104 149.52 141.386 149.566C144.619 150.094 146.99 149.215 148.651 147.926C150.322 146.629 151.292 144.902 151.67 143.725C152.575 139.998 151.724 137.447 150.305 135.749C148.863 134.023 146.783 133.121 145.174 132.821C144.893 132.769 144.708 132.499 144.761 132.218Z" fill="black"/>
<path d="M238.316 129.586C241.332 129.302 243.853 130.334 245.269 131.396C247.908 133.376 249.391 135.496 250.048 137.638C250.704 139.779 250.522 141.895 249.915 143.844C248.707 147.718 245.792 151.008 244.256 152.697C243.608 153.411 242.502 154.317 241.167 155.305C239.825 156.298 238.225 157.391 236.571 158.481C233.261 160.661 229.716 162.834 227.536 164.168L227.295 164.316L222.283 161.244L222.276 161.239L222.268 161.234L214.867 156.3L214.854 156.29C212.366 154.346 210.242 152.248 208.634 150.401C207.035 148.563 205.922 146.944 205.483 145.957L205.478 145.947L205.475 145.938C204.2 142.686 204.4 139.503 205.056 137.136C205.383 135.953 205.828 134.961 206.271 134.254C206.492 133.902 206.72 133.608 206.944 133.395C207.145 133.204 207.428 132.997 207.751 132.997H208.351L208.198 133.577C206.872 138.576 207.843 141.863 209.515 143.882C211.205 145.923 213.665 146.741 215.433 146.693L215.462 146.692L215.492 146.695C216.594 146.805 217.799 146.455 219.052 145.759C220.301 145.064 221.562 144.045 222.759 142.873C225.156 140.53 227.249 137.631 228.44 135.68L228.455 135.655L228.474 135.632C231.803 131.486 235.284 129.873 238.316 129.586ZM244.715 132.135C243.464 131.197 241.168 130.244 238.403 130.506C235.659 130.765 232.401 132.224 229.21 136.189C227.988 138.187 225.858 141.135 223.405 143.533C222.173 144.738 220.846 145.817 219.5 146.566C218.167 147.307 216.778 147.743 215.428 147.616C213.403 147.661 210.68 146.738 208.804 144.471C207.099 142.411 206.136 139.297 206.948 134.918C206.591 135.53 206.225 136.373 205.946 137.383C205.332 139.598 205.148 142.565 206.329 145.587C206.713 146.448 207.752 147.981 209.331 149.794C210.901 151.598 212.978 153.651 215.409 155.552L222.775 160.462L227.295 163.232C229.488 161.89 232.886 159.802 236.063 157.71C237.71 156.625 239.294 155.541 240.618 154.562C241.949 153.577 242.991 152.717 243.573 152.076C245.116 150.379 247.894 147.225 249.033 143.569C249.599 141.752 249.754 139.831 249.165 137.909C248.576 135.989 247.231 134.022 244.715 132.135Z" fill="black"/>
<path d="M205.157 136.852C206.422 133.056 209.637 129.07 215.31 129.611C216.415 129.617 217.995 130.076 219.418 131.059C220.861 132.055 222.173 133.609 222.665 135.82C222.72 136.069 222.563 136.316 222.314 136.371C222.066 136.427 221.819 136.27 221.764 136.021C221.332 134.077 220.182 132.708 218.894 131.819C217.594 130.922 216.184 130.534 215.289 130.534H215.267L215.245 130.532C210.16 130.036 207.228 133.558 206.032 137.144C205.952 137.386 205.69 137.517 205.448 137.436C205.207 137.355 205.076 137.094 205.157 136.852Z" fill="black"/>
</svg>
