<svg width="296" height="220" viewBox="0 0 296 220" fill="none" xmlns="http://www.w3.org/2000/svg">
<path d="M73.457 48.6482V46.9129C73.457 46.1717 74.0579 45.5708 74.7991 45.5708C75.5404 45.5708 76.1412 46.1717 76.1412 46.9129V48.6482C76.1412 49.3894 75.5403 49.9903 74.7991 49.9903C74.0579 49.9903 73.4571 49.3894 73.457 48.6482Z" fill="black"/>
<path d="M73.457 60.7949V59.0596C73.457 58.3184 74.0579 57.7175 74.7991 57.7175C75.5404 57.7175 76.1412 58.3184 76.1412 59.0596V60.7949C76.1412 61.5361 75.5403 62.137 74.7991 62.137C74.0579 62.137 73.4571 61.5361 73.457 60.7949Z" fill="black"/>
<path d="M76.3509 56.5863C76.3507 56.0816 76.0157 55.638 75.5304 55.4993L72.9249 54.7548C71.3579 54.3071 70.2773 52.8746 70.2773 51.2449C70.2775 49.2293 71.9115 47.5954 73.9271 47.5952H75.3793C77.3982 47.5953 79.0351 49.2321 79.0351 51.251C79.035 51.9921 78.4341 52.593 77.693 52.5932C76.9518 52.5932 76.3509 51.9922 76.3509 51.251C76.3509 50.7145 75.9157 50.2795 75.3793 50.2794H73.9271C73.3939 50.2796 72.9617 50.7118 72.9616 51.2449C72.9616 51.6762 73.2477 52.0553 73.6623 52.1737L76.2679 52.9182C77.9055 53.3861 79.0349 54.8831 79.0351 56.5863C79.0351 58.6931 77.327 60.4009 75.2202 60.4011H73.9332C71.9143 60.4011 70.2775 58.765 70.2773 56.7462C70.2773 56.0049 70.8782 55.4041 71.6194 55.4041C72.3607 55.4041 72.9616 56.0049 72.9616 56.7462C72.9617 57.2826 73.3967 57.7169 73.9332 57.7169H75.2202C75.8446 57.7167 76.3509 57.2106 76.3509 56.5863Z" fill="black"/>
<path d="M83.3219 54.0985C83.3219 49.008 79.1951 44.8813 74.1046 44.8812C69.0141 44.8812 64.8873 49.008 64.8873 54.0985C64.8874 59.1889 69.0141 63.3158 74.1046 63.3158V65.9999L73.797 65.9956C67.4681 65.8351 62.3668 60.7342 62.2066 54.4052L62.2031 54.0985C62.2031 47.5255 67.5316 42.197 74.1046 42.197L74.4113 42.2005C80.8424 42.3632 86.006 47.6281 86.006 54.0985L86.0017 54.4052C85.839 60.8363 80.5749 65.9999 74.1046 65.9999V63.3158C79.195 63.3157 83.3218 59.1889 83.3219 54.0985Z" fill="black"/>
<path d="M78.5021 19.0263C78.5021 18.2852 77.9011 17.6843 77.16 17.6842H46.1693C46.7188 18.4783 47.1235 19.5095 47.1235 20.8568V58.8036C47.1235 59.5432 47.7227 60.1431 48.4656 60.1431H63.1291V62.8273H48.4656C46.2436 62.8273 44.4393 61.0289 44.4393 58.8036V20.8568C44.4393 19.0162 43.3657 18.5796 42.0679 17.6842H41.7105C39.4868 17.6842 37.6842 19.4868 37.6842 21.7105V23.3593C37.6842 25.0888 39.0863 26.4909 40.8158 26.4909H43.8399V29.1751H40.8158C37.6038 29.1751 35 26.5713 35 23.3593V21.7105C35 18.0044 38.0044 15 41.7105 15H77.16C79.3836 15.0001 81.1864 16.8027 81.1864 19.0263V42.7185H78.5021V19.0263Z" fill="black"/>
<path d="M72.1542 24.0287V26.7129H53.875V24.0287H72.1542Z" fill="black"/>
<path d="M75.4437 31.0054V33.6896H50.1875V31.0054H75.4437Z" fill="black"/>
<path d="M75.4437 36.7511V39.4353H50.1875V36.7511H75.4437Z" fill="black"/>
<path d="M63.5421 42.4966V45.1808H50.1875V42.4966H63.5421Z" fill="black"/>
<path d="M61.0799 48.2419V50.9261H50.1875V48.2419H61.0799Z" fill="black"/>
<path d="M60.2585 53.9875V56.6718H50.1875V53.9875H60.2585Z" fill="black"/>
<path d="M71.6933 168.697V171.531H53.5547V168.697H71.6933Z" fill="black"/>
<path d="M75.947 175.5V178.333H50.1562V175.5H75.947Z" fill="black"/>
<path d="M75.947 181.877V184.71H50.1562V181.877H75.947Z" fill="black"/>
<path d="M75.947 188.254V191.087H50.1562V188.254H75.947Z" fill="black"/>
<path d="M79.4908 165.058C79.4908 163.232 78.0108 161.752 76.1853 161.752H45.1661C45.9543 163.075 46.6113 164.78 46.6113 166.713V202.664C46.6115 204.333 47.9651 205.685 49.6401 205.685C51.8031 205.685 53.5569 203.931 53.557 201.768V197.087C53.557 195.261 55.0369 193.781 56.8625 193.781H82.7501C85.0973 193.781 87 195.684 87 198.031V199.546C86.9999 204.501 82.983 208.518 78.028 208.518H57.949C57.1668 208.518 56.5325 207.884 56.5323 207.102C56.5323 206.32 57.1668 205.685 57.949 205.685H78.028C81.4182 205.685 84.1666 202.937 84.1667 199.546V198.031C84.1667 197.249 83.5325 196.615 82.7501 196.615H56.8625C56.6017 196.615 56.3903 196.826 56.3903 197.087V201.768C56.3901 205.496 53.3679 208.518 49.6401 208.518C46.4058 208.518 43.7782 205.904 43.7781 202.664V166.713C43.7781 164.562 42.5391 162.7 41.6753 161.779C38.9561 162.052 36.8333 164.347 36.8333 167.138V169.831C36.8333 170.614 37.4677 171.248 38.2499 171.248H40.5187C41.3009 171.248 41.9353 171.882 41.9353 172.665C41.9353 173.447 41.3009 174.081 40.5187 174.081H38.2499C35.9025 174.081 34 172.178 34 169.831V167.138C34 162.599 37.6802 158.919 42.2194 158.919H76.1853C79.5755 158.919 82.324 161.667 82.324 165.058V193.638H79.4908V165.058Z" fill="black"/>
<path d="M142.991 15.2165C144.6 13.8222 146.978 13.7845 148.631 15.127L151.401 17.3784C151.921 17.8014 152.663 17.8159 153.2 17.4136L156.008 15.3069C157.609 14.1066 159.819 14.141 161.381 15.3907L163.502 17.0881C164.042 17.5201 164.833 17.4223 165.252 16.872C167.653 13.7205 172.684 15.3966 172.715 19.3585L173 55.517C173.031 59.4416 168.286 61.4289 165.511 58.6537L164.738 57.8797C164.214 57.3565 163.382 57.3073 162.801 57.7645L161.006 59.1744C159.415 60.4242 157.176 60.4241 155.586 59.1744L153.496 57.5332C152.98 57.1279 152.257 57.1157 151.728 57.5037L149.1 59.4314C147.632 60.5081 145.651 60.5661 144.122 59.5771L141.004 57.5599C140.413 57.1773 139.633 57.2704 139.149 57.7817L138.614 58.3462C135.887 61.2245 131.043 59.2945 131.043 55.3294V19.6355C131.043 15.6701 135.887 13.7401 138.614 16.6187L138.896 16.9167C139.434 17.4846 140.324 17.5279 140.915 17.0157L142.991 15.2165ZM133.967 55.3294C133.968 56.6509 135.582 57.2941 136.491 56.3347L137.026 55.7702C138.479 54.2364 140.819 53.9562 142.593 55.1038L145.711 57.122C146.22 57.4516 146.881 57.4321 147.37 57.0734L149.998 55.1457C151.586 53.9816 153.755 54.0172 155.303 55.2333L157.392 56.8754C157.923 57.2917 158.669 57.2919 159.199 56.8754L160.994 55.4646C162.74 54.0929 165.235 54.2421 166.805 55.8121L167.579 56.586C168.504 57.5107 170.086 56.8479 170.075 55.5398L169.791 19.3813C169.781 18.2071 168.29 17.7105 167.578 18.6445C166.164 20.5012 163.498 20.829 161.675 19.3709L159.554 17.6745C159.034 17.258 158.297 17.2461 157.764 17.6459L154.954 19.7526C153.344 20.9602 151.119 20.9171 149.557 19.6479L146.786 17.3965C146.235 16.9493 145.443 16.9623 144.906 17.427L142.83 19.2252C141.056 20.7624 138.387 20.6312 136.773 18.9273L136.491 18.6302C135.582 17.6707 133.967 18.3137 133.967 19.6355V55.3294Z" fill="black"/>
<path d="M158.142 39.8483V42.7727H138.293V39.8483H158.142Z" fill="black"/>
<path d="M165.799 47.9077V50.8321H138.293V47.9077H165.799Z" fill="black"/>
<path d="M167.61 26.4006L159.095 34.9159L157.027 32.8482L165.543 24.3329L167.61 26.4006Z" fill="black"/>
<path d="M164.891 27.1442L158.129 27.5431L157.957 24.6234L167.816 24.0437V33.5043H164.891V27.1442Z" fill="black"/>
<path d="M159.695 186.494C160.476 186.494 161.11 187.128 161.11 187.909C161.11 188.69 160.476 189.324 159.695 189.324H143.973C143.192 189.324 142.559 188.691 142.559 187.909C142.559 187.128 143.192 186.494 143.973 186.494H159.695Z" fill="black"/>
<path d="M159.695 192.39C160.476 192.39 161.11 193.023 161.11 193.805C161.11 194.586 160.476 195.219 159.695 195.219H143.973C143.192 195.219 142.559 194.586 142.559 193.805C142.559 193.023 143.192 192.39 143.973 192.39H159.695Z" fill="black"/>
<path d="M137.529 198.776H166.141V160.83H137.529V198.776ZM168.971 199.248C168.97 200.55 167.915 201.606 166.612 201.606H137.057C135.755 201.606 134.699 200.55 134.699 199.248V160.358C134.699 159.056 135.755 158 137.057 158H166.612C167.915 158 168.971 159.056 168.971 160.358V199.248Z" fill="black"/>
<path d="M150.766 167.298V165.31C150.766 164.789 151.188 164.367 151.709 164.367C152.23 164.367 152.652 164.789 152.652 165.31V167.298C152.652 167.819 152.23 168.241 151.709 168.241C151.188 168.241 150.766 167.819 150.766 167.298Z" fill="black"/>
<path d="M150.766 179.889V177.901C150.766 177.38 151.188 176.958 151.709 176.958C152.23 176.958 152.652 177.38 152.652 177.901V179.889C152.652 180.41 152.23 180.832 151.709 180.832C151.188 180.832 150.766 180.41 150.766 179.889Z" fill="black"/>
<path d="M154.08 175.323C154.08 174.587 153.588 173.941 152.878 173.746L149.916 172.933C148.462 172.534 147.453 171.212 147.453 169.704C147.453 167.854 148.953 166.355 150.802 166.355H152.352C154.338 166.355 155.874 168.096 155.627 170.066C155.563 170.583 155.091 170.949 154.575 170.885C154.058 170.82 153.691 170.349 153.756 169.832C153.861 168.988 153.203 168.241 152.352 168.241H150.802C149.995 168.241 149.34 168.896 149.34 169.704C149.34 170.363 149.78 170.94 150.416 171.114L153.376 171.927C154.906 172.346 155.966 173.737 155.966 175.323C155.966 177.267 154.389 178.844 152.445 178.844H150.82C148.961 178.844 147.453 177.336 147.453 175.477C147.453 174.956 147.875 174.533 148.396 174.533C148.917 174.533 149.34 174.956 149.34 175.477C149.34 176.294 150.002 176.957 150.82 176.957H152.445C153.347 176.957 154.08 176.226 154.08 175.323Z" fill="black"/>
<path d="M131.691 164.387C132.472 164.387 133.106 165.02 133.106 165.802C133.106 166.583 132.472 167.216 131.691 167.216H128.903L134.362 204.977L146.72 203.212C147.494 203.102 148.211 203.639 148.321 204.412C148.432 205.186 147.894 205.903 147.121 206.013L134.297 207.846C133.009 208.029 131.816 207.136 131.63 205.849L126.025 167.082C125.819 165.66 126.922 164.387 128.359 164.387H131.691Z" fill="black"/>
<path d="M171.977 164.387C171.196 164.387 170.562 165.02 170.562 165.802C170.562 166.583 171.196 167.216 171.977 167.216H174.765L169.306 204.977L156.948 203.212C156.174 203.102 155.457 203.639 155.347 204.412C155.236 205.186 155.774 205.903 156.547 206.013L169.371 207.846C170.659 208.029 171.852 207.136 172.038 205.849L177.643 167.082C177.849 165.66 176.746 164.387 175.309 164.387H171.977Z" fill="black"/>
<path d="M244.858 101.505C245.687 101.505 246.358 102.177 246.358 103.005C246.358 103.833 245.687 104.505 244.858 104.505H228.652C227.824 104.505 227.152 103.833 227.152 103.005C227.152 102.177 227.824 101.505 228.652 101.505H244.858Z" fill="black"/>
<path d="M224.903 96.3524V90.4003C224.903 89.572 225.575 88.9005 226.403 88.9003C227.231 88.9003 227.903 89.5718 227.903 90.4003V96.3524C227.903 98.592 226.256 100.49 224.04 100.807L217.162 101.789C216.342 101.906 215.582 101.336 215.464 100.516C215.347 99.6964 215.918 98.9364 216.738 98.8192L223.616 97.8368C224.355 97.7311 224.903 97.0983 224.903 96.3524Z" fill="black"/>
<path d="M248.763 110.957C248.763 110.128 248.091 109.457 247.263 109.457H224.902C224.074 109.457 223.402 110.128 223.402 110.957V131.967C223.402 132.795 224.074 133.467 224.902 133.467H247.263C248.091 133.467 248.763 132.795 248.763 131.967V110.957ZM251.763 131.967C251.763 134.452 249.748 136.467 247.263 136.467H224.902C222.417 136.467 220.402 134.452 220.402 131.967V110.957C220.402 108.472 222.417 106.457 224.902 106.457H247.263C249.748 106.457 251.763 108.472 251.763 110.957V131.967Z" fill="black"/>
<path d="M248.911 112.759C249.74 112.759 250.411 113.431 250.411 114.259C250.411 115.088 249.74 115.759 248.911 115.759H222.352C221.523 115.759 220.852 115.088 220.852 114.259C220.852 113.431 221.523 112.759 222.352 112.759H248.911Z" fill="black"/>
<path d="M237.657 119.512C238.486 119.512 239.157 120.183 239.157 121.012C239.157 121.84 238.486 122.512 237.657 122.512H222.352C221.523 122.512 220.852 121.84 220.852 121.012C220.852 120.183 221.523 119.512 222.352 119.512H237.657ZM249.361 119.512C250.19 119.512 250.861 120.183 250.861 121.012C250.861 121.84 250.19 122.512 249.361 122.512H245.76C244.932 122.511 244.26 121.84 244.26 121.012C244.26 120.183 244.932 119.512 245.76 119.512H249.361Z" fill="black"/>
<path d="M227.303 126.714C228.131 126.714 228.803 127.386 228.803 128.214C228.803 129.043 228.131 129.714 227.303 129.714H222.801C221.972 129.714 221.301 129.043 221.301 128.214C221.301 127.386 221.972 126.714 222.801 126.714H227.303ZM246.659 126.714C247.488 126.714 248.159 127.386 248.159 128.214C248.159 129.043 247.488 129.714 246.659 129.714H235.405C234.577 129.714 233.905 129.043 233.905 128.214C233.905 127.386 234.577 126.714 235.405 126.714H246.659Z" fill="black"/>
<path d="M229.855 134.517V117.86C229.855 117.032 230.527 116.36 231.355 116.36C232.184 116.36 232.855 117.032 232.855 117.86V134.517C232.855 135.345 232.184 136.017 231.355 136.017C230.527 136.017 229.856 135.345 229.855 134.517Z" fill="black"/>
<path d="M240.66 133.616V115.159C240.66 114.331 241.332 113.659 242.16 113.659C242.989 113.659 243.66 114.331 243.66 115.159V133.616C243.66 134.445 242.989 135.116 242.16 135.116C241.332 135.116 240.66 134.445 240.66 133.616Z" fill="black"/>
<path d="M254.164 92.5C254.164 91.6716 253.492 91 252.664 91H226.296C225.898 91 225.517 91.1582 225.235 91.4395L218.439 98.2354C218.158 98.5167 218 98.8981 218 99.2959V136.919C218 137.747 218.672 138.419 219.5 138.419H252.664C253.492 138.419 254.164 137.747 254.164 136.919V92.5ZM257.164 136.919C257.164 139.404 255.149 141.419 252.664 141.419H219.5C217.015 141.419 215 139.404 215 136.919V99.2959C215 98.1024 215.474 96.9582 216.318 96.1143L223.114 89.3184C223.958 88.4745 225.102 88 226.296 88H252.664C255.149 88 257.164 90.0147 257.164 92.5V136.919Z" fill="black"/>
<path d="M239.45 40.6093V43.3436H226.234V40.6093H239.45Z" fill="black"/>
<path d="M239.448 46.078V48.8124H215.75V46.078H239.448Z" fill="black"/>
<path d="M239.448 51.5466V54.281H215.75V51.5466H239.448Z" fill="black"/>
<path d="M228.966 57.0154V59.7497H215.75V57.0154H228.966Z" fill="black"/>
<path d="M253.118 55.6482V58.3826H246.738V55.6482H253.118Z" fill="black"/>
<path d="M259.498 54.0532C259.498 56.6959 257.356 58.8383 254.713 58.8383C252.071 58.8383 249.928 56.6959 249.928 54.0532V20.7851C249.928 19.6525 249.01 18.7344 247.877 18.7344C246.745 18.7344 245.827 19.6525 245.827 20.7851V63.3956C245.827 64.654 244.806 65.6742 243.548 65.6742H212.103C210.844 65.6742 209.824 64.654 209.824 63.3956V18.2786C209.824 17.0202 210.844 16 212.103 16H242.181C242.936 16 243.548 16.6121 243.548 17.3672C243.548 18.1223 242.936 18.7344 242.181 18.7344H212.559V62.9398H243.092V20.7851C243.092 18.1424 245.235 16 247.877 16C250.52 16 252.663 18.1424 252.663 20.7851V54.0532C252.663 55.1858 253.581 56.1039 254.713 56.1039C255.846 56.1039 256.764 55.1858 256.764 54.0532V25.5703H254.485C253.73 25.5703 253.118 24.9582 253.118 24.2031C253.118 23.448 253.73 22.8359 254.485 22.8359H257.22C258.478 22.8359 259.498 23.8561 259.498 25.1145V54.0532Z" fill="black"/>
<path d="M247.193 16C247.948 16 248.56 16.6121 248.56 17.3672C248.56 18.1223 247.948 18.7344 247.193 18.7344H242.18C241.425 18.7344 240.812 18.1223 240.812 17.3672C240.812 16.6121 241.425 16 242.18 16H247.193Z" fill="black"/>
<path d="M219.508 25.5916V23.7473C219.508 23.1181 220.018 22.608 220.647 22.608C221.276 22.608 221.786 23.1181 221.786 23.7473V25.5916C221.786 26.2208 221.276 26.7309 220.647 26.7309C220.018 26.7309 219.508 26.2208 219.508 25.5916Z" fill="black"/>
<path d="M219.508 37.2709V35.4267C219.508 34.7974 220.018 34.2874 220.647 34.2874C221.276 34.2874 221.786 34.7974 221.786 35.4267V37.2709C221.786 37.9001 221.276 38.4103 220.647 38.4103C220.018 38.4103 219.508 37.9001 219.508 37.2709Z" fill="black"/>
<path d="M222.581 33.0351C222.581 32.4711 222.203 31.9773 221.659 31.8281L218.913 31.0742C217.449 30.6726 216.434 29.3418 216.434 27.8236C216.434 25.9617 217.943 24.4519 219.805 24.4519H221.242C223.243 24.4519 224.791 26.2056 224.543 28.1912C224.465 28.8155 223.896 29.259 223.271 29.181C222.647 29.1029 222.204 28.5333 222.282 27.909C222.361 27.2834 221.872 26.7305 221.242 26.7305H219.805C219.202 26.7305 218.712 27.2201 218.712 27.8236C218.712 28.3155 219.042 28.7464 219.516 28.8765L222.263 29.6305C223.796 30.0512 224.859 31.4449 224.859 33.0351C224.859 34.985 223.278 36.566 221.328 36.566H219.821C217.95 36.566 216.434 35.0491 216.434 33.1784C216.434 32.5491 216.944 32.039 217.573 32.039C218.202 32.039 218.712 32.5491 218.712 33.1784C218.712 33.7907 219.209 34.2874 219.821 34.2874H221.328C222.02 34.2874 222.581 33.7265 222.581 33.0351Z" fill="black"/>
<path d="M83.499 136.641C83.499 137.916 82.465 138.95 81.1895 138.95H41.5324C37.9247 138.95 35.0001 136.025 35 132.418C35 131.434 35.7978 130.636 36.7817 130.636H43.3141V133.407H37.904C38.3385 135.004 39.7979 136.179 41.5324 136.179H80.7276V90.9131H41.1039C39.6204 90.9131 38.3637 91.8827 37.932 93.2226H43.776V95.9939H36.7483C35.7828 95.9938 35.0001 95.2111 35 94.2456C35 90.8747 37.7329 88.1417 41.1039 88.1417H81.1895C82.465 88.1417 83.499 89.1757 83.499 90.4512V136.641Z" fill="black"/>
<path d="M45.1639 132.946V94.1464C45.1639 92.1762 44.0173 91.3926 43.7259 91.2758L42.4385 90.7615L43.4679 88.1877L44.7543 88.7029C46.003 89.2024 47.9353 90.944 47.9353 94.1464V132.946C47.9353 135.621 45.8202 137.574 43.2929 138.417L41.9784 138.855L41.1016 136.227L42.416 135.788C44.3227 135.153 45.1639 133.966 45.1639 132.946Z" fill="black"/>
<path d="M72.4163 116.317V119.089H56.25V116.317H72.4163Z" fill="black"/>
<path d="M77.0341 122.322V125.093H51.168V122.322H77.0341Z" fill="black"/>
<path d="M77.0341 128.789V131.56H51.168V128.789H77.0341Z" fill="black"/>
<path d="M63.7539 98.7869V96.9177C63.7539 96.2799 64.2709 95.7629 64.9086 95.7629C65.5464 95.7629 66.0634 96.2799 66.0634 96.9177V98.7869C66.0633 99.4246 65.5463 99.9416 64.9086 99.9416C64.271 99.9416 63.754 99.4246 63.7539 98.7869Z" fill="black"/>
<path d="M63.75 110.624V108.755C63.75 108.117 64.267 107.6 64.9047 107.6C65.5425 107.6 66.0595 108.117 66.0595 108.755V110.624C66.0594 111.262 65.5424 111.779 64.9047 111.779C64.267 111.779 63.7501 111.262 63.75 110.624Z" fill="black"/>
<path d="M66.8669 106.331C66.8669 105.759 66.4844 105.259 65.9332 105.108L63.1501 104.344C61.666 103.937 60.6369 102.588 60.6367 101.049C60.6367 99.1619 62.1669 97.6317 64.054 97.6317H65.5101C67.5382 97.6317 69.1076 99.4092 68.8561 101.422C68.777 102.054 68.1997 102.504 67.5669 102.425C66.9342 102.346 66.4857 101.768 66.5647 101.136C66.6439 100.502 66.1491 99.9412 65.5101 99.9412H64.054C63.4424 99.9412 62.9462 100.437 62.9462 101.049C62.9464 101.548 63.2799 101.984 63.7608 102.116L66.5448 102.88C68.099 103.307 69.1763 104.719 69.1764 106.331C69.1764 108.307 67.5739 109.91 65.5976 109.91H64.0703C62.1741 109.91 60.6367 108.372 60.6367 106.476C60.6367 105.839 61.1537 105.322 61.7915 105.322C62.4292 105.322 62.9462 105.839 62.9462 106.476C62.9462 107.097 63.4496 107.6 64.0703 107.6H65.5976C66.2984 107.6 66.8669 107.032 66.8669 106.331Z" fill="black"/>
<path d="M241.16 171.823V174.529H226.277V171.823H241.16Z" fill="black"/>
<path d="M237.547 178.588V181.294H222.664V178.588H237.547Z" fill="black"/>
<path d="M232.586 184.902V187.608H222.664V184.902H232.586Z" fill="black"/>
<path d="M230.331 190.313V193.019H222.664V190.313H230.331Z" fill="black"/>
<path d="M250.628 169.568H242.51C241.265 169.568 240.255 168.559 240.255 167.313V159.196H217.706V202.49H235.745V205.196H217.255C216.01 205.196 215 204.186 215 202.941V158.745C215 157.499 216.01 156.49 217.255 156.49H242.137C242.735 156.49 243.308 156.727 243.731 157.15L252.673 166.092C253.096 166.515 253.334 167.089 253.334 167.687V179.039H250.628V169.568ZM242.961 166.862H249.617L242.961 160.207V166.862Z" fill="black"/>
<path d="M246.68 188.08V186.255C246.68 185.632 247.184 185.127 247.807 185.127C248.43 185.127 248.935 185.632 248.935 186.255V188.08C248.935 188.702 248.43 189.207 247.807 189.207C247.185 189.207 246.68 188.702 246.68 188.08Z" fill="black"/>
<path d="M246.68 199.638V197.813C246.68 197.19 247.184 196.685 247.807 196.685C248.43 196.685 248.935 197.19 248.935 197.813V199.638C248.935 200.26 248.43 200.765 247.807 200.765C247.185 200.765 246.68 200.26 246.68 199.638Z" fill="black"/>
<path d="M249.72 195.446C249.72 194.888 249.346 194.399 248.808 194.251L246.091 193.505C244.642 193.108 243.637 191.791 243.637 190.288C243.637 188.446 245.131 186.952 246.973 186.952H248.395C250.375 186.952 251.907 188.687 251.662 190.652C251.585 191.27 251.021 191.709 250.403 191.632C249.785 191.555 249.348 190.991 249.425 190.373C249.502 189.754 249.019 189.207 248.395 189.207H246.973C246.376 189.207 245.892 189.691 245.892 190.288C245.892 190.775 246.218 191.202 246.687 191.331L249.405 192.077C250.923 192.493 251.975 193.872 251.975 195.446C251.975 197.375 250.41 198.94 248.48 198.94H246.989C245.138 198.94 243.637 197.439 243.637 195.588C243.637 194.965 244.142 194.46 244.764 194.46C245.387 194.46 245.892 194.965 245.892 195.588C245.892 196.194 246.383 196.685 246.989 196.685H248.48C249.165 196.685 249.72 196.13 249.72 195.446Z" fill="black"/>
<path d="M258.295 193.47C258.295 187.493 253.449 182.647 247.471 182.647C241.493 182.647 236.647 187.493 236.647 193.47C236.647 199.448 241.493 204.294 247.471 204.294V207C239.999 207 233.941 200.943 233.941 193.47C233.941 185.998 239.999 179.941 247.471 179.941C254.943 179.941 261.001 185.998 261.001 193.47C261.001 200.943 254.943 207 247.471 207V204.294C253.449 204.294 258.295 199.448 258.295 193.47Z" fill="black"/>
<path d="M131.5 124.013H134.5V131.513H131.5V124.013ZM179 94.3252C179 95.5333 178.021 96.5127 176.812 96.5127H166.5V93.5127H175.899C175.537 92.0761 174.237 91.0127 172.688 91.0127H134.5V101.513H131.5V90.5127C131.5 89.132 132.619 88.0127 134 88.0127H172.688C176.174 88.0127 179 90.8389 179 94.3252Z" fill="black"/>
<path d="M162 99.0127V102.013H138V99.0127H162Z" fill="black"/>
<path d="M162 108.013V111.013H138V108.013H162Z" fill="black"/>
<path d="M162 116.013V119.013H138V116.013H162Z" fill="black"/>
<path d="M162 124.013V127.013H138V124.013H162Z" fill="black"/>
<path d="M159 132.013C159 133.946 160.567 135.513 162.5 135.513C164.433 135.513 166 133.946 166 132.013V97.0127C166 91.7216 168.255 89.4577 169.829 88.6709L171.171 88L172.513 90.6836L171.171 91.3545C170.745 91.5677 169 92.7038 169 97.0127V132.013C169 135.603 166.09 138.513 162.5 138.513C159.078 138.513 156.277 135.869 156.021 132.513H128.058C128.361 134.218 129.85 135.513 131.643 135.513H154.5V138.513H131.643C127.974 138.513 125 135.539 125 131.87C125 130.568 126.056 129.513 127.357 129.513H156.5C157.881 129.513 159 130.632 159 132.013Z" fill="black"/>
<path d="M131.121 107.536V105.513C131.121 104.822 131.681 104.263 132.371 104.263C133.061 104.263 133.621 104.822 133.621 105.513V107.536C133.621 108.226 133.061 108.786 132.371 108.786C131.681 108.786 131.121 108.226 131.121 107.536Z" fill="black"/>
<path d="M131.121 120.35V118.327C131.121 117.636 131.681 117.077 132.371 117.077C133.061 117.077 133.621 117.636 133.621 118.327V120.35C133.621 121.04 133.061 121.6 132.371 121.6C131.681 121.6 131.121 121.04 131.121 120.35Z" fill="black"/>
<path d="M134.494 115.703C134.494 115.084 134.08 114.542 133.483 114.378L130.471 113.551C128.864 113.111 127.75 111.651 127.75 109.985C127.75 107.942 129.406 106.286 131.449 106.286H133.025C135.221 106.286 136.92 108.21 136.647 110.388C136.562 111.073 135.937 111.56 135.252 111.474C134.567 111.389 134.082 110.764 134.167 110.079C134.253 109.392 133.717 108.786 133.025 108.786H131.449C130.787 108.786 130.25 109.323 130.25 109.985C130.25 110.525 130.611 110.997 131.132 111.14L134.146 111.967C135.828 112.429 136.994 113.958 136.994 115.703C136.994 117.842 135.259 119.577 133.12 119.577H131.467C129.414 119.577 127.75 117.912 127.75 115.86C127.75 115.17 128.31 114.61 129 114.61C129.69 114.61 130.25 115.17 130.25 115.86C130.25 116.532 130.795 117.077 131.467 117.077H133.12C133.879 117.077 134.494 116.461 134.494 115.703Z" fill="black"/>
</svg>
