<svg width="260" height="178" viewBox="0 0 260 178" fill="none" xmlns="http://www.w3.org/2000/svg">
<path d="M223.8 154.975C219.947 153.369 216.467 154.608 215.275 155.25L218.575 157.175C219.584 156.716 221.93 156.02 223.25 156.9C224.57 157.78 227.65 157.816 229.025 157.725L235.625 153.6C233.425 153.05 231.486 153.841 230.125 154.425C228.2 155.25 227.1 156.35 223.8 154.975Z" stroke="black" stroke-width="0.550002" stroke-linecap="round"/>
<path d="M221.325 143.425V145.9" stroke="black" stroke-width="1.1" stroke-linecap="round"/>
<path d="M214.726 147.825C214.726 147.385 216.376 147.275 217.201 147.275C217.476 147 218.246 146.395 219.126 146.175C220.226 145.9 221.601 146.175 222.976 146.45C224.351 146.725 224.626 148.1 225.451 149.475C226.111 150.575 225.176 151.034 224.626 151.125C223.709 151.217 221.601 151.345 220.501 151.125C219.126 150.85 218.851 150.3 217.201 150.025C215.551 149.75 214.726 148.375 214.726 147.825Z" fill="#625F5F" stroke="black" stroke-width="0.550002" stroke-linecap="round"/>
<path d="M229.85 148.925V145.35" stroke="black" stroke-width="1.1" stroke-linecap="round"/>
<path d="M228.476 127.75L229.143 125.527C229.19 125.37 229.412 125.37 229.459 125.527L230.081 127.6C230.109 127.693 230.183 127.764 230.278 127.788L231.018 127.973C231.14 128.004 231.226 128.114 231.226 128.24V129.95C231.226 130.102 231.349 130.225 231.501 130.225H231.776C231.928 130.225 232.051 130.348 232.051 130.5V132.425C232.051 132.577 232.174 132.7 232.326 132.7C232.478 132.7 232.601 132.823 232.601 132.975V134.675C232.601 134.806 232.693 134.919 232.822 134.944L233.755 135.131C233.883 135.157 233.976 135.269 233.976 135.4V137.65C233.976 137.802 234.099 137.925 234.251 137.925H234.801C234.953 137.925 235.076 138.048 235.076 138.2V142.875L234.251 143.425L233.151 143.975L232.601 144.8L231.226 145.9H229.851H228.476L227.376 145.35L225.726 144.25L223.801 143.15V138.475C223.801 138.171 224.047 137.925 224.351 137.925H224.626C224.778 137.925 224.901 137.802 224.901 137.65V135.45C224.901 135.146 225.147 134.9 225.451 134.9C225.603 134.9 225.726 134.777 225.726 134.625V133.8C225.726 133.496 225.972 133.25 226.276 133.25C226.428 133.25 226.551 133.127 226.551 132.975V131.6C226.551 131.296 226.797 131.05 227.101 131.05C227.253 131.05 227.376 130.927 227.376 130.775V128.64C227.376 128.432 227.493 128.241 227.68 128.148L228.476 127.75Z" fill="#424141" stroke="black" stroke-width="0.550002" stroke-linecap="round"/>
<path d="M216.65 140.95L204.078 148.603C204.043 148.624 204.043 148.676 204.079 148.697L222.06 159.389C223.468 160.226 225.224 160.212 226.618 159.352L244.349 148.422C244.384 148.401 244.384 148.35 244.349 148.328L235.075 142.6" stroke="black" stroke-width="1.1"/>
<path d="M204 148.65V151.675L221.761 162.475C223.35 163.442 225.347 163.436 226.93 162.46L244.425 151.675V148.375" stroke="black" stroke-width="1.1" stroke-linecap="round"/>
<path d="M221.601 134.075C222.789 134.075 223.782 134.874 224.208 135.843C224.419 136.322 224.474 136.808 224.373 137.223C224.275 137.625 224.022 137.998 223.534 138.269L223.251 138.426V138.75C223.251 139.481 223.295 140.199 223.313 140.8C223.333 141.424 223.325 141.931 223.244 142.336C223.165 142.731 223.027 142.973 222.825 143.129C222.616 143.291 222.255 143.425 221.601 143.425C219.019 143.425 216.926 141.331 216.926 138.75C216.926 136.168 219.019 134.075 221.601 134.075Z" stroke="black" stroke-width="1.1"/>
<path d="M25.6758 38.7002L22.9258 40.3502V42.0002L25.6758 40.9002V38.7002Z" stroke="black" stroke-width="0.825003"/>
<path d="M44.9248 33.2002V35.9502" stroke="black" stroke-width="1.1"/>
<path d="M44.9248 37.6001V40.3501" stroke="black" stroke-width="1.1"/>
<path d="M44.9248 42V44.75" stroke="black" stroke-width="1.1"/>
<path d="M46.2998 32.375V35.125" stroke="black" stroke-width="1.1"/>
<path d="M46.2998 36.7749V39.5249" stroke="black" stroke-width="1.1"/>
<path d="M46.2998 41.1748V43.9248" stroke="black" stroke-width="1.1"/>
<path d="M47.6748 31.2749V34.0249" stroke="black" stroke-width="1.1"/>
<path d="M47.6748 35.6753V38.4253" stroke="black" stroke-width="1.1"/>
<path d="M47.6748 40.0752V42.8252" stroke="black" stroke-width="1.1"/>
<path d="M25.9492 14.7749L30.3492 17.7999L35.0242 14.7749" stroke="black" stroke-width="1.1"/>
<path d="M24.5752 16.1504L30.3502 20.0004L36.4002 16.1504" stroke="black" stroke-width="1.1"/>
<path d="M37.2246 28.5251L42.9996 32.6501M37.2246 28.5251V44.4752L42.7246 48.0502M37.2246 28.5251L41.6246 23.8501H44.3746L49.3246 28.8001M42.9996 32.6501L49.3246 28.8001M42.9996 32.6501L42.7246 48.0502M49.3246 28.8001V44.4752L42.7246 48.0502" stroke="black" stroke-width="1.1"/>
<path d="M43 23.85V20" stroke="black" stroke-width="1.1"/>
<path d="M39.9756 26.0503L43.0006 27.9753L46.3006 26.0503" stroke="black" stroke-width="1.1"/>
<path d="M38.5996 27.4248L42.9996 30.4498L47.6746 27.4248" stroke="black" stroke-width="1.1"/>
<path d="M22.6504 32.3751V17.25M22.6504 17.25L30.3504 11.75L38.6004 17.25M22.6504 17.25L30.3504 22.475M38.6004 17.25V26.6M38.6004 17.25L30.3504 22.475M30.3504 22.475V45.0251M30.3504 45.0251L36.9504 42.0001M30.3504 45.0251L27.6004 43.6501" stroke="black" stroke-width="1.1"/>
<path d="M14.9502 35.6751L21.2752 32.1001L27.3252 35.6751M14.9502 35.6751L21.2752 39.5251M14.9502 35.6751V45.3001L21.2752 48.3251M27.3252 35.6751L21.2752 39.5251M27.3252 35.6751V45.0251L21.2752 48.3251M21.2752 39.5251V48.3251" stroke="black" stroke-width="1.1"/>
<path d="M24.5752 21.375V25.225" stroke="black" stroke-width="1.1"/>
<path d="M24.5752 27.9751V31.8251" stroke="black" stroke-width="1.1"/>
<path d="M26.5 21.9248V25.7748" stroke="black" stroke-width="1.1"/>
<path d="M26.5 28.5249V32.3749" stroke="black" stroke-width="1.1"/>
<path d="M28.1504 23.5752V27.4252" stroke="black" stroke-width="1.1"/>
<path d="M28.1504 30.1753V34.0253" stroke="black" stroke-width="1.1"/>
<path d="M33.7487 49.6558L31.8659 48.1153C31.6346 47.9261 31.2945 47.9561 31.1 48.183L31.0422 48.2505C30.3873 49.0146 30.563 50.1819 31.4139 50.7193L34.3637 52.5824C34.7822 52.8467 35.2971 52.9092 35.7666 52.7527L37.8922 52.0441C39.139 51.6285 39.4232 49.9933 38.3899 49.1814L36.9498 48.0499L35.176 49.6266C34.7721 49.9857 34.167 49.9981 33.7487 49.6558Z" fill="black"/>
<path d="M31.1748 48.3252L32.3635 46.8393C32.9251 46.1373 33.9454 46.0141 34.658 46.5622L36.9498 48.3252" stroke="black" stroke-width="0.275001"/>
<path d="M236.832 87.0249C238.609 87.6172 240.682 87.9133 242.755 87.0249" stroke="black" stroke-width="0.888382"/>
<path d="M236.832 89.9863C238.609 90.5786 240.682 90.8747 242.755 89.9863" stroke="black" stroke-width="0.888382"/>
<path d="M236.832 92.9473C238.609 93.5395 240.682 93.8356 242.755 92.9473" stroke="black" stroke-width="0.888382"/>
<path d="M237.128 84.3604C238.115 84.7552 240.385 85.2487 242.754 84.3604" stroke="black" stroke-width="0.888382"/>
<path d="M236.832 81.6946V95.0203C239.438 96.4417 242.064 95.6126 243.051 95.0203V81.6946C240.682 80.5102 238.017 81.1024 236.832 81.6946Z" stroke="black" stroke-width="0.888382"/>
<path d="M220.248 81.103V88.5062L223.802 90.5791V83.1759L220.248 81.103Z" stroke="black" stroke-width="0.888382"/>
<path d="M215.807 85.2485V75.1802" stroke="black" stroke-width="1.18451"/>
<path d="M228.836 82.583V89.6901" stroke="black" stroke-width="1.18451"/>
<path d="M240.089 76.9565V80.8062" stroke="black" stroke-width="1.18451"/>
<path d="M231.205 92.3551L236.831 89.6899" stroke="black" stroke-width="1.18451"/>
<path d="M222.618 74.5875L214.237 75.1113C213.643 75.1484 213.142 74.677 213.142 74.0823C213.142 73.5351 213.569 73.0832 214.115 73.0528L223.802 72.5146L231.214 82.0779C231.835 82.8795 231.14 84.0247 230.142 83.8433C229.873 83.7945 229.632 83.6481 229.465 83.4323L222.618 74.5875Z" stroke="black" stroke-width="1.18451"/>
<path d="M214.03 73.1071L225.748 66.3691C225.832 66.3212 225.926 66.2943 226.022 66.2907L233.219 66.0241C233.625 66.0091 234.01 66.203 234.24 66.538L240.978 76.3645L231.502 82.5831" stroke="black" stroke-width="1.18451"/>
<path d="M216.398 84.6562L220.248 92.3555H223.802V88.5059L227.06 87.3213L234.463 94.1328L233.278 102.424L228.836 105.385L226.763 101.239L213.733 101.832L210.477 93.54H203.369L201 87.3213L205.442 84.6562H216.398ZM201.592 87.3213L204.257 93.2441H210.476L214.325 100.943L227.059 100.351L229.428 103.608L230.612 96.2051L224.69 90.5781V94.1318L216.99 94.7246L213.141 86.7285L201.592 87.3213Z" fill="black"/>
<path d="M230.385 38.2252V42.3502L234.51 44.8252M230.385 38.2252L234.51 36.5752L238.36 38.2252M230.385 38.2252L234.51 40.9752M234.51 44.8252L238.36 42.6252V38.2252M234.51 44.8252V40.9752M238.36 38.2252L234.51 40.9752" stroke="black" stroke-width="1.1" stroke-linecap="round"/>
<path d="M212.055 22.7537C212.484 22.4172 213.067 22.3942 213.53 22.6551L223.085 28.0457C223.517 28.2895 223.784 28.7469 223.785 29.243V33.5506C223.784 34.006 223.415 34.3758 222.959 34.3758C222.808 34.3761 222.685 34.4987 222.685 34.6502V38.9041C222.685 39.5451 221.985 39.942 221.435 39.6121L213.177 34.657C212.763 34.4086 212.51 33.9601 212.51 33.4773V32.8045C212.51 32.6968 212.446 32.5991 212.348 32.5545L209.72 31.3592C209.659 31.3312 209.595 31.2971 209.536 31.2576C208.645 30.6592 208.172 29.9365 208.039 29.1434C207.908 28.36 208.115 27.5486 208.498 26.7771C209.262 25.2389 210.774 23.7576 212.055 22.7537ZM221.221 28.4734C221.087 28.5253 220.962 28.5957 220.845 28.6766C220.378 29.004 220.048 29.4681 219.83 29.9627C219.084 31.7151 219.09 33.6259 219.427 35.3924C219.451 35.517 219.479 35.644 219.507 35.7713C219.516 35.8092 219.537 35.8445 219.569 35.868C219.601 35.8915 219.641 35.9024 219.68 35.8973C219.719 35.892 219.754 35.8707 219.779 35.8396C219.803 35.8086 219.815 35.7692 219.814 35.7303C219.808 35.6023 219.804 35.4753 219.801 35.3514C219.764 33.5941 219.928 31.8298 220.586 30.2928C220.778 29.8591 220.96 29.4303 221.2 29.0213C221.26 28.9195 221.325 28.8208 221.399 28.7273C221.422 28.6989 221.44 28.6639 221.445 28.6267C221.449 28.5897 221.441 28.5526 221.421 28.5232C221.401 28.4938 221.368 28.473 221.331 28.4646C221.295 28.4564 221.256 28.4609 221.221 28.4734ZM219.022 27.3728C218.894 27.4208 218.776 27.4855 218.662 27.5584C218.218 27.8479 217.876 28.2443 217.617 28.6805C216.727 30.201 216.312 32.0433 216.67 33.7644C216.696 33.8871 216.726 34.0073 216.759 34.1277C216.77 34.1654 216.793 34.1994 216.826 34.2215C216.859 34.2435 216.899 34.2518 216.937 34.2449C216.975 34.2379 217.01 34.2157 217.034 34.1834C217.057 34.1511 217.066 34.111 217.063 34.0721C217.053 33.9537 217.047 33.8373 217.043 33.7195C217 32.0744 217.523 30.4837 218.327 29.0994C218.561 28.7057 218.775 28.3018 219.01 27.91C219.071 27.8114 219.133 27.7157 219.2 27.6267C219.223 27.598 219.241 27.5633 219.245 27.5262C219.25 27.489 219.242 27.4519 219.221 27.4226C219.201 27.3934 219.169 27.3734 219.132 27.365C219.096 27.3567 219.057 27.3609 219.022 27.3728ZM216.822 26.2732C216.696 26.3193 216.577 26.378 216.461 26.4461C216.007 26.7138 215.636 27.0992 215.363 27.534C214.399 29.0629 214.124 30.9581 214.476 32.66C214.5 32.7814 214.528 32.9014 214.558 33.0232C214.568 33.0612 214.59 33.096 214.622 33.1189C214.655 33.1419 214.695 33.1512 214.734 33.1453C214.772 33.1393 214.807 33.1182 214.831 33.0867C214.855 33.0551 214.866 33.0154 214.864 32.9764C214.857 32.8551 214.853 32.7367 214.85 32.618C214.809 30.9522 215.214 29.326 216.062 27.9725C216.304 27.5887 216.537 27.198 216.794 26.8123C216.861 26.7148 216.928 26.6192 216.999 26.5271C217.023 26.4985 217.04 26.4636 217.044 26.4266C217.049 26.3894 217.041 26.3523 217.021 26.323C217 26.2938 216.968 26.2738 216.932 26.2654C216.895 26.257 216.857 26.2612 216.822 26.2732ZM214.621 25.1726C214.516 25.2043 214.409 25.2512 214.314 25.3006C213.923 25.5078 213.613 25.8128 213.378 26.156C212.567 27.3651 212.118 28.7841 212.08 30.2068C212.078 30.3083 212.078 30.4093 212.08 30.5105C212.081 30.5493 212.096 30.5882 212.121 30.618C212.147 30.6475 212.183 30.666 212.221 30.6697C212.26 30.6732 212.299 30.6611 212.329 30.6365C212.36 30.6119 212.381 30.5769 212.389 30.5389C212.409 30.4435 212.431 30.349 212.453 30.2547C212.779 28.9402 213.333 27.7057 214.06 26.6199C214.27 26.3131 214.452 25.9935 214.646 25.6678C214.693 25.5883 214.746 25.5051 214.798 25.4266C214.819 25.3969 214.836 25.3625 214.84 25.326C214.844 25.2897 214.836 25.2537 214.817 25.2254C214.797 25.1971 214.765 25.1763 214.73 25.1678C214.694 25.1594 214.656 25.163 214.621 25.1726ZM212.697 24.073C212.6 24.0988 212.502 24.1335 212.41 24.1707C212.035 24.3238 211.706 24.5578 211.44 24.8484C210.507 25.8603 209.91 27.2122 209.881 28.5711C209.879 28.6685 209.879 28.7638 209.881 28.8611C209.883 28.8998 209.896 28.9379 209.922 28.9676C209.948 28.9972 209.984 29.0168 210.023 29.0203C210.061 29.0236 210.1 29.0115 210.13 28.9871C210.161 28.9626 210.182 28.9272 210.19 28.8894C210.21 28.7991 210.23 28.7114 210.253 28.6228C210.574 27.3897 211.219 26.3132 212.048 25.4051C212.285 25.1462 212.501 24.868 212.714 24.5613C212.766 24.4856 212.822 24.4056 212.874 24.3269C212.895 24.297 212.91 24.2626 212.914 24.2264C212.918 24.1901 212.911 24.154 212.891 24.1258C212.871 24.0977 212.84 24.0778 212.805 24.0691C212.77 24.0606 212.732 24.064 212.697 24.073Z" fill="black"/>
<path d="M210.859 31.6251V35.6491C210.859 36.0506 211.078 36.4202 211.43 36.6134L224.884 44.0001M224.884 44.0001L230.384 40.7001M224.884 44.0001V27.5001M224.884 27.5001L238.359 19.525M224.884 27.5001L210.859 19.525M238.359 19.525L238.623 35.837C238.63 36.2835 238.366 36.69 237.956 36.8658L236.709 37.4001M238.359 19.525L225.461 11.3647C225.108 11.1413 224.659 11.1373 224.301 11.3543L210.859 19.525M210.859 19.525V24.2" stroke="black" stroke-width="1.1"/>
<path d="M224.074 24.9961L216.044 20.4389C215.319 20.027 215.298 18.9886 216.007 18.548L224.037 13.5564C224.388 13.3379 224.833 13.3352 225.187 13.5496L233.433 18.5409C234.157 18.9789 234.136 20.0356 233.396 20.4447L225.149 25.0022C224.814 25.1874 224.407 25.1851 224.074 24.9961Z" stroke="black" stroke-width="1.1"/>
<path d="M216.635 20.8997L223.76 16.3192C224.112 16.0929 224.562 16.086 224.921 16.3013L232.585 20.8997" stroke="black" stroke-width="1.1"/>
<path d="M234.509 38.775V33" stroke="black" stroke-width="1.1" stroke-linecap="square"/>
<circle cx="234.51" cy="32.725" r="2.47501" fill="black"/>
<path d="M134.412 135.293C134.287 140.895 134.217 143.398 134.093 148.999C135.368 150.274 141.551 151.677 144.611 148.362L144.293 135.293" stroke="black" stroke-width="0.637494"/>
<path d="M124.849 130.201C124.725 135.803 124.655 138.306 124.53 143.908C125.805 145.183 132.499 145.493 134.093 144.218M134.73 130.193V134.337" stroke="black" stroke-width="0.637494"/>
<path d="M144.292 144.537C141.105 148.043 135.686 146.768 134.411 144.537V148.681C138.555 151.55 143.23 149.531 144.292 148.043V144.537Z" fill="black" stroke="black" stroke-width="0.637494"/>
<path d="M134.092 139.445C132.18 142.305 126.124 141.676 124.849 139.445V143.589C128.355 145.493 133.03 145.076 134.092 143.589V139.445Z" fill="black" stroke="black" stroke-width="0.637494"/>
<path d="M108.274 139.118C107.956 138.481 107.637 137.142 108.912 136.887C110.506 136.568 109.868 135.293 110.506 134.975C111.143 134.656 112.737 136.25 113.374 134.337C114.012 132.425 112.099 129.875 115.287 129.556C118.474 129.237 118.156 129.556 119.112 127.325" stroke="black" stroke-width="0.637494"/>
<path d="M111.144 139.438C110.719 138.906 110.442 137.908 112.737 138.163C115.606 138.481 115.925 137.206 116.881 134.975C117.837 132.744 120.069 134.656 121.344 134.019C122.364 133.509 123.256 131.894 123.575 131.15" stroke="black" stroke-width="0.637494"/>
<path d="M107.637 140.074L107 156.012H111.144L108.912 151.868L111.144 150.593L110.825 140.074H107.637Z" fill="#1D1D1D" stroke="black" stroke-width="0.637494"/>
<path d="M118.955 144.262L128.198 149.681L128.356 149.773V155.872L128.204 155.965L116.729 162.978L116.575 163.071L116.415 162.988L109.084 159.163L108.913 159.074V151.331L109.116 151.253L114.772 149.053L118.545 144.338L118.717 144.123L118.955 144.262ZM109.868 151.868L116.243 156.649L120.068 153.143L114.649 149.955L109.868 151.868ZM116.562 149.318L122.3 152.824L125.806 149.956L119.112 146.131L116.562 149.318Z" fill="#1B1A1A"/>
<path d="M125.012 138.118L118.465 141.986L140.15 154.686L151.627 148.042L144.451 143.856L144.612 143.581L144.772 143.305L152.423 147.768L152.573 147.856L152.58 148.03L152.899 155.68L152.907 155.871L152.742 155.967L140.312 163.299L140.147 163.396L139.984 163.297L127.872 155.965L127.846 155.95L127.823 155.929L123.409 151.917L125.806 149.956L119.112 146.13L118.241 147.218L117.304 146.367L117.188 146.261L117.201 146.106L117.52 141.962L117.532 141.797L117.675 141.712L124.688 137.569L125.012 138.118Z" fill="#1B1A1A"/>
<path d="M140.149 155.056V162.706" stroke="black" stroke-width="0.637494"/>
<path d="M139.512 132.416C140.87 132.416 142.085 132.761 142.949 133.302C143.818 133.845 144.293 134.555 144.293 135.285C144.293 136.016 143.818 136.725 142.949 137.269C142.085 137.809 140.87 138.154 139.512 138.154C138.152 138.154 136.853 137.811 135.904 137.267C134.943 136.716 134.411 136.005 134.411 135.293C134.411 134.58 134.944 133.866 135.905 133.312C136.854 132.764 138.153 132.416 139.512 132.416Z" stroke="black" stroke-width="0.637494"/>
<path d="M129.949 127.324C131.307 127.324 132.522 127.67 133.387 128.21C134.256 128.753 134.73 129.463 134.73 130.193C134.73 130.924 134.256 131.634 133.387 132.177C132.522 132.717 131.307 133.062 129.949 133.062C128.59 133.062 127.291 132.719 126.342 132.175C125.381 131.624 124.849 130.913 124.849 130.201C124.849 129.488 125.382 128.775 126.343 128.22C127.292 127.672 128.591 127.324 129.949 127.324Z" stroke="black" stroke-width="0.637494"/>
<path d="M139.449 133.691C140.253 133.691 140.966 133.894 141.467 134.204C141.973 134.517 142.222 134.908 142.222 135.285C142.222 135.662 141.973 136.054 141.467 136.367C140.966 136.677 140.253 136.879 139.449 136.879C138.644 136.879 137.878 136.678 137.324 136.363C136.757 136.041 136.483 135.649 136.483 135.29C136.484 134.931 136.758 134.536 137.325 134.212C137.879 133.895 138.645 133.691 139.449 133.691Z" fill="#1B1B1B" stroke="black" stroke-width="0.637494"/>
<path d="M129.887 128.599C130.69 128.599 131.403 128.802 131.904 129.112C132.41 129.425 132.659 129.816 132.659 130.193C132.659 130.57 132.411 130.962 131.904 131.275C131.403 131.585 130.69 131.787 129.887 131.787C129.082 131.787 128.316 131.586 127.762 131.271C127.195 130.949 126.921 130.556 126.921 130.198C126.921 129.839 127.196 129.444 127.763 129.12C128.317 128.803 129.082 128.599 129.887 128.599Z" fill="#1B1B1B" stroke="black" stroke-width="0.637494"/>
<path d="M139.231 93.9307V96.9564" stroke="black" stroke-width="0.550126"/>
<path d="M143.081 91.73V94.7557" stroke="black" stroke-width="0.550126"/>
<path d="M136.206 95.5809L146.108 90.0796" stroke="black" stroke-width="0.550126"/>
<path d="M140.057 89.2544V93.3803" stroke="black" stroke-width="0.550126"/>
<path d="M143.632 86.7788V91.4549" stroke="black" stroke-width="0.550126"/>
<path d="M136.206 98.4027V91.8771C136.206 91.7852 136.252 91.6993 136.329 91.6483L145.681 85.4135C145.863 85.2916 146.108 85.4227 146.108 85.6424V92.9473C146.108 93.0451 146.056 93.1356 145.972 93.1849L136.62 98.6403C136.436 98.7472 136.206 98.615 136.206 98.4027Z" stroke="black" stroke-width="0.550126"/>
<path d="M131.53 88.4288L133.623 88.8473C133.963 88.9154 134.281 88.655 134.281 88.3079V86.8103C134.281 86.6195 134.38 86.4423 134.542 86.3422L147.209 78.5265L145.984 77.5468C145.887 77.4688 145.766 77.4263 145.641 77.4263H143.531C143.418 77.4263 143.308 77.4608 143.216 77.5252L131.766 85.514C131.618 85.6169 131.53 85.7853 131.53 85.9651V88.4288ZM131.53 88.4288V99.7064C131.53 100.618 132.269 101.357 133.181 101.357H134.281" stroke="black" stroke-width="1.10025"/>
<path d="M147.309 78.4933L146.443 78.7821C146.403 78.7954 146.365 78.8132 146.329 78.8351L134.515 86.0845C134.367 86.1753 134.271 86.3306 134.255 86.5036L134.103 88.1797C134.062 88.6273 134.546 88.9322 134.932 88.7021L146.674 81.7067C146.835 81.6107 147.034 81.6034 147.202 81.6873L148.033 82.1028V79.0152C148.033 78.6397 147.665 78.3746 147.309 78.4933Z" fill="black"/>
<path d="M113.649 79.9023V92.2802L127.678 100.257M127.678 100.257V88.1542M127.678 100.257L131.253 98.0565" stroke="black" stroke-width="1.10025"/>
<path d="M134.279 101.744V89.2984C134.279 89.1009 134.385 88.9187 134.556 88.8207L146.954 81.7364C147.316 81.5294 147.768 81.7852 147.777 82.2023L148.026 93.8915C148.03 94.086 147.931 94.2682 147.766 94.3707L135.119 102.211C134.753 102.439 134.279 102.175 134.279 101.744Z" stroke="black" stroke-width="1.10025"/>
<path d="M118.326 86.2285V94.2053L122.177 96.4059V88.429L118.326 86.2285Z" fill="black" stroke="black" stroke-width="1.10025"/>
<path d="M120.802 79.3517L113.017 79.8382C112.466 79.8727 112 79.4348 112 78.8824C112 78.3741 112.397 77.9543 112.905 77.9261L121.902 77.4263L129.777 87.5869C130.129 88.0418 130.022 88.7004 129.543 89.0196C129.112 89.3071 128.532 89.2141 128.212 88.8062L120.802 79.3517Z" stroke="black" stroke-width="1.10025"/>
<path d="M112.824 77.9768L125.1 70.884C125.167 70.8452 125.242 70.8211 125.319 70.8131L132.566 70.0634C132.947 70.024 133.321 70.1854 133.553 70.4895L140.331 79.3521M130.153 87.604L131.529 86.7789" stroke="black" stroke-width="1.10025"/>
<path d="M129.6 36.0395C125.475 29.9894 119.015 17.8442 124.1 14.5894C130.975 10.189 144.725 30.264 129.6 36.0395Z" stroke="black" stroke-width="0.550002"/>
<path d="M132.35 34.6638C149.95 28.0638 135.65 10.4625 129.6 11.0126L128.225 11.5637L127.125 12.1137L127.092 12.1355C126.016 12.8526 125.014 13.6739 124.1 14.5876C125.75 13.4887 127.565 12.7737 130.425 15.4137C132.625 16.7887 136.97 21.0787 136.75 27.2387C136.933 28.7971 136.31 32.4638 132.35 34.6638Z" fill="black" stroke="black" stroke-width="0.550002"/>
<path d="M118.325 37.4137L112 37.9637L125.75 30.2637M118.325 37.4137L122.45 43.4637L123.55 43.2987M118.325 37.4137L126.575 32.4637M127.95 42.6387L132.625 49.7887L147.2 40.9887L141.975 34.6637M127.95 42.6387L141.975 34.6637M127.95 42.6387L123.55 43.2987M141.975 34.6637L136.75 35.2137M136.75 35.2137L135.1 33.0137M136.75 35.2137L123.55 43.2987" stroke="black" stroke-width="0.550002"/>
<path d="M132.626 22.8388C133.315 25.6409 133.167 27.8673 131.25 28.3391C129.333 28.8109 127.125 27.2389 126.025 24.2138C125.2 21.7389 125.208 18.636 127.125 18.1642C129.042 17.6924 131.936 20.0367 132.626 22.8388Z" fill="black"/>
<path d="M50 91.5503C50.1833 93.017 49.615 95.5653 45.875 94.0253L50 91.5503Z" fill="black" stroke="black" stroke-width="0.550002"/>
<path d="M21.126 90.1748V96.4998" stroke="black" stroke-width="1.1"/>
<path d="M24.15 92.375L21.95 94.85M21.95 94.85L28.275 98.425M21.95 94.85L21.125 96.5M28.275 98.425L31.025 96.225M28.275 98.425L26.9 100.35M21.125 96.5L26.9 100.35M21.125 96.5L19.8696 98.425M26.9 100.35L25.9375 102.275M25.9375 102.275L19.8696 98.425M25.9375 102.275L24.6313 104.338M19.8696 98.425L18.4348 100.075M18.4348 100.075L17 101.725L23.325 106.4L24.6313 104.338M18.4348 100.075L24.6313 104.338" stroke="black" stroke-width="1.1"/>
<path d="M39.5508 93.7504V88.2504L47.8008 83.0254V88.8004L39.5508 93.7504Z" fill="black"/>
<path d="M25.5254 84.6748V92.0998L30.2004 94.8498V87.4248L25.5254 84.6748Z" fill="black"/>
<path d="M33.501 84.6753L40.651 76.9753L47.526 76.4253" stroke="black" stroke-width="1.1"/>
<path d="M23.6006 78.6251L30.4756 70.9251L38.1756 70.1001" stroke="black" stroke-width="1.1"/>
<path d="M27.1758 80.5503L34.0508 73.1253L41.2008 72.3003" stroke="black" stroke-width="1.1"/>
<path d="M30.2012 82.475L37.3512 75.05L44.5012 74.5" stroke="black" stroke-width="1.1"/>
<path d="M32.9508 97.0501L20.3008 89.6251V76.975M20.3008 76.975L27.4508 69H36.2508L51.1009 78.625M20.3008 76.975L36.2508 86.6001M51.1009 78.625H43.4009L36.2508 86.6001M51.1009 78.625V90.4501L36.2508 98.9751V86.6001" stroke="black" stroke-width="1.1"/>
<path d="M27.4502 69L43.4002 78.625" stroke="black" stroke-width="1.1"/>
<path d="M32.062 96.5922C33.3938 96.0856 34.9418 96.9056 35.519 98.4232C36.0962 99.9408 35.4846 101.582 34.1528 102.088C32.821 102.595 31.2731 101.775 30.6958 100.257C30.1188 98.7398 30.7305 97.0988 32.062 96.5922ZM33.5708 99.3803C33.3701 98.8526 32.9034 98.5405 32.5288 98.683C32.1545 98.8257 32.0138 99.3685 32.2144 99.8959C32.415 100.424 32.8818 100.736 33.2563 100.593C33.6305 100.45 33.7713 99.9076 33.5708 99.3803Z" fill="black"/>
<path d="M34.2246 144.25V140.95L36.9746 138.75V142.05L34.2246 144.25Z" fill="black" stroke="black" stroke-width="0.550002"/>
<path d="M34.2246 149.75V146.45L36.9746 144.25V147.55L34.2246 149.75Z" fill="black" stroke="black" stroke-width="0.550002"/>
<path d="M38.626 141.775V138.475L41.376 136.275V139.575L38.626 141.775Z" fill="black" stroke="black" stroke-width="0.550002"/>
<path d="M38.626 147.275V143.975L41.376 141.775V145.075L38.626 147.275Z" fill="black" stroke="black" stroke-width="0.550002"/>
<path d="M22.6758 140.4V137.1L25.1508 137.925V141.775L22.6758 140.4Z" fill="black"/>
<path d="M22.6758 146.175V142.875L25.1508 143.7V147.55L22.6758 146.175Z" fill="black"/>
<path d="M27.0752 142.325V139.025L29.5502 139.85V143.7L27.0752 142.325Z" fill="black"/>
<path d="M27.0752 148.1V144.8L29.5502 145.625V149.475L27.0752 148.1Z" fill="black"/>
<path d="M20.751 132.699L31.4775 138.599C31.6471 138.692 31.8533 138.69 32.0204 138.592L43.026 132.149" stroke="black" stroke-width="1.1" stroke-linecap="round"/>
<path d="M24.3292 131.393L31.7343 127.094C31.9127 126.99 32.1342 126.995 32.3079 127.107L38.9718 131.391C39.3168 131.612 39.3064 132.12 38.9525 132.328L32.0235 136.39C31.8542 136.489 31.6449 136.49 31.4742 136.394L24.3342 132.348C23.9646 132.138 23.9618 131.607 24.3292 131.393Z" stroke="black" stroke-width="1.1" stroke-linecap="round"/>
<path d="M31.4756 154.7V163.225" stroke="black" stroke-width="1.1" stroke-linecap="round"/>
<path d="M45.5005 148.375L31.7606 156.187C31.5849 156.287 31.3686 156.283 31.1972 156.176L18.2754 148.1" stroke="black" stroke-width="1.1" stroke-linecap="round"/>
<path d="M18.2754 150.85L31.2065 158.393C31.3734 158.491 31.579 158.493 31.7483 158.4L45.5005 150.85" stroke="black" stroke-width="1.1" stroke-linecap="round"/>
<path d="M43.3001 147L45.4485 147.954C45.6471 148.043 45.7751 148.24 45.7751 148.457V155.202C45.7751 155.401 45.6671 155.585 45.493 155.682L31.7511 163.346C31.5802 163.441 31.3715 163.438 31.2031 163.339L18.2699 155.684C18.1026 155.585 18 155.405 18 155.211V148.1C18 147.796 18.2462 147.55 18.55 147.55H20.75" stroke="black" stroke-width="1.1" stroke-linecap="round"/>
<path d="M20.4756 131.919V146.983C20.4756 147.166 20.5664 147.336 20.7179 147.439L31.1788 154.5C31.3592 154.622 31.5946 154.625 31.7789 154.51L43.0431 147.437C43.2034 147.336 43.3007 147.16 43.3007 146.971V131.915C43.3007 131.72 43.1971 131.539 43.0285 131.441L32.3002 125.161C32.1303 125.061 31.9203 125.06 31.7494 125.158L20.7527 131.442C20.5813 131.54 20.4756 131.722 20.4756 131.919Z" stroke="black" stroke-width="1.1" stroke-linecap="round"/>
</svg>
