<svg width="260" height="178" viewBox="0 0 260 178" fill="none" xmlns="http://www.w3.org/2000/svg">
<path d="M37.4072 28.946L50.1222 21.855" stroke="black" stroke-width="1.10597"/>
<path d="M20.2907 32.3701C20.1277 31.7181 20.281 30.1695 22.2469 30.1694C24.9368 30.1694 29.3379 34.5708 29.3379 38.2394C29.3379 40.7899 28.3598 42.3954 28.1153 42.8845" stroke="black" stroke-width="1.10597"/>
<path d="M20.2905 32.3698L20.1749 32.4421M16.3782 34.815L22.7357 38.7273M16.3782 34.815L20.1749 32.4421M16.3782 34.815C15.8076 35.7116 14.5687 38.0427 14.1775 40.1944M22.7357 38.7273L27.3815 36.2822M22.7357 38.7273C22.9313 39.5098 21.5131 42.3951 20.7795 43.8622M27.3815 36.2822L20.1749 32.4421M27.3815 36.2822V43.3732L53.7896 27.4795V30.4137L53.056 31.1472C50.7086 30.3648 49.6327 32.2883 49.3882 33.3479L41.5636 37.7493C39.0206 36.7712 38.0588 38.8088 37.8958 39.9499L27.626 45.8184C25.2787 44.8403 24.3658 46.878 24.2028 48.019L21.2686 49.4862H20.7795M14.1775 40.1944L20.7795 43.8622M14.1775 40.1944C14.0145 40.1129 13.6885 40.0477 13.6885 40.439C13.6885 40.8302 13.6885 43.6992 13.6885 45.0848L20.7795 49.4862M20.7795 43.8622V49.4862" stroke="black" stroke-width="1.10597"/>
<path d="M25.9153 38.9717L23.2256 40.9278V42.884L25.9153 41.4169V38.9717Z" fill="black"/>
<path d="M22.0029 30.1693L45.4696 16.7272C46.5631 16.1008 47.8954 15.9357 48.9799 16.5777C51.8143 18.2556 55.0681 21.8896 53.7904 27.4796" stroke="black" stroke-width="1.10597"/>
<path d="M31.0488 31.147V39.2161" stroke="black" stroke-width="1.10597"/>
<path d="M33.4941 29.9248V37.9939" stroke="black" stroke-width="1.10597"/>
<path d="M31.2939 32.8589L33.2501 31.8809" stroke="black" stroke-width="1.10597"/>
<path d="M31.2939 35.3042L33.2501 34.3262" stroke="black" stroke-width="1.10597"/>
<path d="M31.2939 37.7496L33.2501 36.7715" stroke="black" stroke-width="1.10597"/>
<path d="M26.6882 46.1449C27.2768 46.3891 27.614 47.1679 27.2895 47.9505C26.9648 48.7329 26.1758 49.0438 25.5872 48.7997C24.9989 48.5555 24.6622 47.7778 24.9865 46.9955C25.3109 46.213 26.0996 45.9012 26.6882 46.1449Z" stroke="black" stroke-width="1.10597"/>
<path d="M40.649 38.169C41.1635 38.4927 41.3593 39.2817 40.9253 39.9723C40.4912 40.663 39.6954 40.8289 39.1806 40.5057C38.6659 40.1823 38.4695 39.3927 38.9036 38.7019C39.3377 38.0111 40.1343 37.8456 40.649 38.169Z" stroke="black" stroke-width="1.10597"/>
<path d="M51.9122 31.5139C52.3047 31.7606 52.5111 32.5008 52.0312 33.2646C51.5512 34.0281 50.7952 34.1626 50.4027 33.916C50.0104 33.6692 49.8035 32.9297 50.2832 32.1662C50.7631 31.4025 51.5196 31.2674 51.9122 31.5139Z" stroke="black" stroke-width="1.10597"/>
<path d="M211.528 81.1351L218.443 81.5961L220.517 77.6777" stroke="black" stroke-width="1.10759"/>
<path d="M232.273 82.7485L220.748 81.8265L222.592 78.1387" stroke="black" stroke-width="1.10759"/>
<path d="M236.652 87.3584L234.116 87.1279L231.812 91.5072" stroke="black" stroke-width="1.10759"/>
<path d="M228.585 93.3513L232.042 86.8976L218.674 85.5146L217.752 87.3586" stroke="black" stroke-width="1.10759"/>
<path d="M213.373 84.8228L216.369 85.2837L215.678 86.6667" stroke="black" stroke-width="1.10759"/>
<path d="M206.919 73.7596C206.366 76.8943 208.994 81.0585 210.376 82.7487C213.373 77.6779 214.756 69.8413 213.142 68.9193C211.529 67.9974 207.611 69.8413 206.919 73.7596Z" stroke="black" stroke-width="1.10759"/>
<path d="M236.592 78.1483C237.03 80.7171 234.948 84.1296 233.852 85.5147C231.477 81.3593 230.381 74.9374 231.66 74.1818C232.938 73.4263 236.044 74.9374 236.592 78.1483Z" stroke="black" stroke-width="1.10759"/>
<path d="M211.528 68.6887C211.605 67.6899 210.145 66.5469 207.84 67.7667C203.922 69.8409 202.539 76.2949 210.145 82.5181" stroke="black" stroke-width="1.10759"/>
<path d="M232.967 74.2052C232.9 73.4217 234.174 72.5251 236.185 73.482C239.605 75.1091 240.812 80.1717 234.174 85.0533" stroke="black" stroke-width="1.10759"/>
<path d="M203 81.1351L228.354 95.1949M203 81.1351V83.44L229.737 98.6523M203 81.1351L206.457 79.0606M228.354 95.1949L241.492 86.8973M228.354 95.1949L229.737 96.3474M241.492 86.8973L244.258 88.2802M241.492 86.8973L236.191 83.6704M244.258 88.2802V90.3546L229.737 98.6523M244.258 88.2802L229.737 96.3474M229.737 98.6523V96.3474M213.603 74.9118L217.29 72.6069L232.042 81.3655" stroke="black" stroke-width="1.10759"/>
<path d="M219.135 73.9902L212.451 78.139M207.611 80.6744L205.075 82.2879" stroke="black" stroke-width="1.10759"/>
<path d="M211.02 71.7113C211.292 71.7714 211.568 72.0065 211.748 72.471C211.927 72.9311 211.981 73.5569 211.832 74.2306C211.684 74.9045 211.372 75.4502 211.016 75.7926C210.657 76.1381 210.308 76.2344 210.036 76.1744C209.764 76.1144 209.487 75.8801 209.307 75.4157C209.128 74.9555 209.075 74.3291 209.223 73.6552C209.372 72.9814 209.684 72.4365 210.04 72.0941C210.399 71.7485 210.748 71.6514 211.02 71.7113Z" stroke="black" stroke-width="1.10759"/>
<path d="M233.522 76.6595C233.353 76.6967 233.157 76.8483 233.022 77.1957C232.889 77.5388 232.847 78.0143 232.961 78.5322C233.075 79.0504 233.314 79.4646 233.579 79.72C233.847 79.9785 234.089 80.0323 234.257 79.9953C234.426 79.9582 234.623 79.8075 234.757 79.46C234.891 79.1168 234.934 78.6406 234.819 78.1223C234.705 77.6042 234.466 77.1911 234.201 76.9357C233.932 76.6771 233.69 76.6223 233.522 76.6595Z" stroke="black" stroke-width="1.10759"/>
<path d="M223.975 88.3735C224.453 88.3735 224.862 88.5044 225.135 88.686C225.411 88.8702 225.495 89.0636 225.495 89.2026C225.495 89.3417 225.411 89.536 225.135 89.7202C224.862 89.9019 224.453 90.0317 223.975 90.0317C223.496 90.0317 223.088 89.9017 222.815 89.7202C222.539 89.536 222.454 89.3418 222.454 89.2026C222.454 89.0635 222.539 88.8702 222.815 88.686C223.088 88.5044 223.496 88.3736 223.975 88.3735Z" stroke="black" stroke-width="1.10759"/>
<path d="M216.6 78.8774C217.006 78.8774 217.361 78.972 217.604 79.1108C217.854 79.2541 217.936 79.4097 217.937 79.522C217.937 79.6343 217.854 79.7898 217.604 79.9331C217.361 80.072 217.006 80.1675 216.6 80.1675C216.193 80.1675 215.84 80.0719 215.597 79.9331C215.346 79.7898 215.264 79.6343 215.264 79.522C215.264 79.4096 215.346 79.2541 215.597 79.1108C215.84 78.9721 216.193 78.8775 216.6 78.8774Z" stroke="black" stroke-width="0.553794"/>
<path d="M20.6953 72.8505L23.1589 70.1815C23.5501 69.7578 24.2047 69.715 24.6476 70.0842C25.0905 70.4532 25.1665 71.1044 24.8207 71.5656L23.857 72.8505" stroke="black" stroke-width="1.0539" stroke-linecap="round"/>
<path d="M27.2812 72.5872L29.302 70.3644C29.6651 69.9649 30.2496 69.8558 30.7324 70.0972C31.4048 70.4334 31.6086 71.2965 31.1575 71.8979L30.4429 72.8507" stroke="black" stroke-width="1.0539" stroke-linecap="round"/>
<path d="M40.4542 86.0245L42.883 83.1551C43.1684 82.818 43.2253 82.3432 43.0275 81.9482C42.6782 81.2503 41.7345 81.1257 41.216 81.709L40.1905 82.8627" stroke="black" stroke-width="1.0539" stroke-linecap="round"/>
<path d="M37.5574 93.1377H33.8687C33.5777 93.1377 33.3418 93.3736 33.3418 93.6646V96.8263C33.3418 97.1174 33.5777 97.3533 33.8687 97.3533H38.0843" stroke="black" stroke-width="1.0539" stroke-linecap="round"/>
<path d="M30.7069 77.8563L38.9717 69.3682C39.9436 68.37 41.162 67.6465 42.5036 67.2708L44.5605 66.6949C45.6966 66.3768 46.7683 67.3703 46.5369 68.5272L46.2161 70.1312C45.8965 71.7292 45.0908 73.1893 43.9094 74.3117L24.647 92.6109C24.1201 93.2257 22.3284 94.666 19.3775 95.5091M29.3895 79.1737L19.641 89.1857C18.9384 90.064 17.5332 91.9786 17.5332 93.6648" stroke="black" stroke-width="1.0539" stroke-linecap="round"/>
<path d="M15.5471 97.132L15.4723 97.4309C15.4522 97.5115 15.529 97.5827 15.6079 97.5564L16.3809 97.2987C17.3122 96.9883 18.1584 96.4653 18.8526 95.7712L22.4153 92.2085C22.9087 91.715 22.8776 90.906 22.3478 90.4519C21.8644 90.0375 21.1413 90.0737 20.7017 90.5342L17.1076 94.2995C16.3507 95.0924 15.8129 96.0685 15.5471 97.132Z" stroke="black" stroke-width="1.0539" stroke-linecap="round"/>
<path d="M22.012 86.5508H15.2333C14.406 86.5508 14.1347 87.6608 14.8687 88.0425L18.5869 89.9759" stroke="black" stroke-width="1.0539" stroke-linecap="round"/>
<path d="M27.0488 90.3405L26.8491 97.1162C26.8248 97.9432 25.7072 98.1817 25.3473 97.4368L23.5242 93.6633" stroke="black" stroke-width="1.0539" stroke-linecap="round"/>
<path d="M35.1859 72.8506L16.3625 73.0669C15.273 73.0795 14.9165 74.5352 15.877 75.0498L27.0182 81.0183" stroke="black" stroke-width="1.0539" stroke-linecap="round"/>
<path d="M32.0244 86.0239L35.9765 92.8743" stroke="black" stroke-width="1.0539" stroke-linecap="round"/>
<path d="M40.1914 77.8564V86.8146" stroke="black" stroke-width="1.0539" stroke-linecap="round"/>
<path d="M38.3473 97.3536H46.2515C46.5425 97.3536 46.7784 97.1177 46.7784 96.8267V88.9225C46.7784 88.6314 46.5425 88.3955 46.2515 88.3955H38.3473C38.0562 88.3955 37.8203 88.6314 37.8203 88.9225V96.8267C37.8203 97.1177 38.0562 97.3536 38.3473 97.3536Z" stroke="black" stroke-width="1.0539" stroke-linecap="round"/>
<path d="M40.9824 88.6592V90.24C40.9824 90.5311 41.2183 90.767 41.5094 90.767H43.0902C43.3812 90.767 43.6172 90.5311 43.6172 90.24V88.6592" stroke="black" stroke-width="1.0539" stroke-linecap="round"/>
<path d="M41.2461 69.6888C42.2122 69.601 43.8808 69.9523 43.3539 72.0601" stroke="black" stroke-width="1.0539" stroke-linecap="round"/>
<path d="M138.894 65.2562V71.4586C138.894 71.6373 138.978 71.8055 139.122 71.9119L146.508 77.3832M138.894 65.2562L146.508 70.0506M138.894 65.2562L142.258 63.186C142.442 63.0723 142.676 63.0746 142.858 63.1919L150.457 68.0764M146.508 70.0506V77.3832M146.508 70.0506L150.457 68.0764M146.508 77.3832L150.172 75.2894C150.348 75.189 150.457 75.0021 150.457 74.7997V68.0764" stroke="black" stroke-width="1.1281" stroke-linecap="round"/>
<path d="M141.997 75.9732V80.1612C141.997 80.362 141.891 80.5477 141.717 80.6487L126.486 89.5103M141.997 75.9732L134.101 80.4856M141.997 75.9732L134.406 70.8218C134.221 70.696 133.978 70.6919 133.789 70.8112L126.486 75.4092L118.025 80.4856M126.486 89.5103L121.974 87.2542M126.486 89.5103V84.998M121.974 87.2542V82.7418M121.974 87.2542L118.31 85.1604C118.134 85.0599 118.025 84.873 118.025 84.6706V80.4856M121.974 82.7418L126.486 84.998M121.974 82.7418L118.025 80.4856M126.486 84.998L134.101 80.4856M134.101 80.4856V84.7159" stroke="black" stroke-width="1.1281" stroke-linecap="round"/>
<path d="M126.486 75.6912L129.852 78.0211C130.035 78.1478 130.275 78.1551 130.465 78.0395L130.717 77.887M138.049 73.4351L130.717 77.887M129.588 77.839L122.256 82.4598M130.717 77.887L134.101 80.2036" stroke="black" stroke-width="1.1281" stroke-linecap="round"/>
<path d="M117.461 84.4341C112.782 85.3698 110.432 89.9281 109.444 93.4405C109.157 94.4621 109.981 95.4055 111.04 95.3486C114.901 95.1413 120.655 94.5877 123.101 93.4588L152.371 76.4292C153.257 75.9139 153.414 74.6998 152.69 73.9753C152.08 73.3655 151.091 73.3655 150.481 73.9753L150.458 73.9992" stroke="black" stroke-width="1.1281" stroke-linecap="round"/>
<path d="M109.563 94.5861V95.3858C109.563 95.9443 109.839 96.4669 110.3 96.7823L114.54 99.6835C114.79 99.8544 115.079 99.9564 115.381 99.9702C118.407 100.108 124.537 99.8297 128.177 97.6884C131.896 95.5006 142.635 89.2463 147.996 86.1264C148.312 85.9425 148.56 85.6615 148.703 85.3249L152.431 76.5366" stroke="black" stroke-width="1.1281" stroke-linecap="round"/>
<path d="M114.359 91.0615C114.755 91.0616 115.094 91.1696 115.321 91.3213C115.552 91.4749 115.628 91.6406 115.628 91.7666C115.628 91.8927 115.552 92.0592 115.321 92.2129C115.094 92.3646 114.755 92.4716 114.359 92.4717C113.964 92.4717 113.625 92.3645 113.397 92.2129C113.167 92.0592 113.09 91.8927 113.09 91.7666C113.09 91.6406 113.167 91.4749 113.397 91.3213C113.625 91.1695 113.964 91.0615 114.359 91.0615Z" stroke="black" stroke-width="0.846072"/>
<path d="M118.871 88.8047C119.266 88.8047 119.605 88.9127 119.833 89.0645C120.063 89.2181 120.14 89.3838 120.14 89.5098C120.14 89.6358 120.064 89.8023 119.833 89.9561C119.605 90.1078 119.266 90.2148 118.871 90.2148C118.476 90.2148 118.137 90.1077 117.909 89.9561C117.679 89.8023 117.602 89.6358 117.602 89.5098C117.602 89.3837 117.679 89.2181 117.909 89.0645C118.137 88.9127 118.476 88.8047 118.871 88.8047Z" stroke="black" stroke-width="0.846072"/>
<path d="M240.317 151.613L231.504 145.443L235.029 143.681L243.843 149.85V160.426L240.317 162.776V151.613Z" fill="black"/>
<path d="M210.938 149.85V160.426L214.169 162.776V151.612L217.988 148.968L214.757 147.5L210.938 149.85Z" fill="black"/>
<path d="M220.633 132.81L230.327 127.229L233.265 128.991L223.571 133.985V141.33L220.633 139.567V132.81Z" fill="black"/>
<path d="M217.107 131.048L226.791 125.067C226.978 124.951 227.214 124.95 227.402 125.063L237.378 131.048M217.107 131.048V142.212M217.107 131.048L227.096 136.042M217.107 142.212L208 147.794M217.107 142.212L227.096 147.5M208 147.794V158.637C208 158.836 208.101 159.022 208.269 159.131L217.107 164.833M208 147.794L217.107 153.375M217.107 164.833L227.096 158.957M217.107 164.833V153.375M227.096 158.957L237.073 164.658C237.261 164.766 237.492 164.761 237.676 164.646L246.502 159.13C246.674 159.022 246.779 158.834 246.779 158.631V147.794M227.096 158.957V147.5M246.779 147.794L237.378 142.212M246.779 147.794L237.672 153.201C237.49 153.309 237.264 153.31 237.081 153.205L227.096 147.5M237.378 142.212V131.048M237.378 142.212L227.096 147.5M237.378 131.048L227.096 136.042M227.096 136.042V147.5M227.096 147.5L217.107 153.375" stroke="black" stroke-width="1.17511"/>
<path d="M228.574 32.3679V29.4732H222.544V26.0958L221.579 25.6136V24.8899L222.061 23.4423H220.373L221.82 21.0301C219.971 20.8693 216.031 20.0172 216.996 17.8945M216.996 17.8945L223.267 15.7235C224.071 13.472 227.384 9.15775 233.399 11.8639C238.223 14.0346 238.384 19.1005 237.017 21.2715V23.4426H236.052V26.8197C234.766 27.2217 232.193 27.4469 232.193 25.1311L229.539 24.8899C230.665 24.4075 232.579 22.9602 231.228 21.0304C230.826 20.7087 229.732 20.4996 228.574 22.2364L227.609 21.0304L228.092 17.8945C227.529 17.5728 226.355 16.9778 226.162 17.1707C225.969 17.3637 225.278 18.3769 224.956 18.8593C222.624 19.4222 217.767 20.0173 216.996 17.8945Z" stroke="black" stroke-width="0.964894"/>
<path d="M232.194 11.6226C230.827 12.3462 228.093 14.6137 228.093 17.8944" stroke="black" stroke-width="0.964894"/>
<path d="M233.157 11.8633V18.8588" stroke="black" stroke-width="0.964894"/>
<path d="M228.334 17.894C229.862 18.0549 233.93 18.7142 237.018 21.0299" stroke="black" stroke-width="0.964894"/>
<path d="M223.509 36.4685V44.1876L216.995 47.806M223.509 36.4685L225.438 34.5387M223.509 36.4685L216.995 32.1265L210 36.4685M223.509 36.4685L216.995 40.0868M216.995 47.806L210 44.1876V36.4685M216.995 47.806V40.0868M210 36.4685L212.895 37.9158M216.995 40.0868L215.066 39.1219" stroke="black" stroke-width="0.964894"/>
<path d="M219.167 33.5737L212.896 37.9158V42.499L215.067 42.2578V39.1219L221.338 35.0211" stroke="black" stroke-width="0.964894"/>
<path d="M231.229 44.1876C231.309 41.3733 232.483 35.8412 236.535 36.2272C240.588 36.6132 241.279 41.6949 241.119 44.1876" stroke="black" stroke-width="0.964894" stroke-linecap="round"/>
<path d="M243.049 43.9461C243.29 41.0515 242.615 34.4419 237.983 31.1613M237.983 31.1613L227.852 36.9507M237.983 31.1613C238.755 29.0385 237.259 28.347 236.295 28.0254L225.751 33.9849C225.473 34.1419 225.421 34.5204 225.647 34.746L227.852 36.9507M227.852 36.9507C227.208 37.2723 226.067 38.8322 226.646 42.4988" stroke="black" stroke-width="0.964894" stroke-linecap="round"/>
<path d="M122.904 129.339C122.904 129.949 122.904 130.982 122.904 131.858C122.904 132.566 123.561 133.098 124.27 133.082C125.452 133.055 126.769 133.288 127.355 134.069C128.828 136.033 121.709 137.723 117.061 141.388M114.558 143.249C115.119 142.576 116.339 141.958 117.061 141.388M117.061 141.388C117.34 142.472 118.063 144.752 118.731 145.197M118.731 145.197C119.197 145.508 121.225 145.475 123.038 145.364C124.346 145.284 125.622 145.812 126.48 146.801C127.828 148.355 129.579 150.243 130.693 151.039C132.641 152.43 125.129 155.769 125.129 159.107M118.731 145.197C119.045 147.006 120.027 149.95 121.846 151.311C122.421 151.741 122.907 152.358 122.868 153.076C122.777 154.773 122.49 157.088 121.791 157.438" stroke="black" stroke-width="1.11281"/>
<path d="M126.797 127.67C126.426 129.71 126.241 133.512 128.466 132.399C131.248 131.008 135.421 127.67 137.09 128.226" stroke="black" stroke-width="1.11281"/>
<path d="M140.986 130.174C141.357 130.823 141.097 131.899 138.204 133.235C134.587 134.904 135.422 137.408 137.369 137.408C139.317 137.408 139.317 135.182 142.099 136.295C144.324 137.185 145.994 137.037 146.55 136.851" stroke="black" stroke-width="1.11281"/>
<path d="M147.384 140.467C146.735 140.745 144.769 141.135 142.098 140.467C138.76 139.633 134.587 139.633 134.031 144.084C133.585 147.645 135.792 146.959 137.647 146.309" stroke="black" stroke-width="1.11281"/>
<path d="M140.986 164.67C137.462 160.312 132.362 149.926 136.813 146.866M140.986 164.67C146.328 161.554 145.993 156.881 145.993 155.49C145.993 150.204 139.317 145.753 136.813 146.866M140.986 164.67C150.723 160.497 150.445 151.552 146.272 147.7C142.655 144.362 138.297 145.568 136.813 146.866" stroke="black" stroke-width="1.11281"/>
<path d="M139.802 151.456C140.288 151.301 140.836 151.423 141.34 151.79C141.844 152.157 142.285 152.761 142.527 153.518C142.77 154.276 142.76 155.023 142.563 155.615C142.366 156.207 141.989 156.623 141.504 156.779C141.018 156.934 140.469 156.813 139.965 156.445C139.461 156.078 139.02 155.475 138.778 154.717C138.536 153.959 138.545 153.212 138.742 152.621C138.94 152.029 139.316 151.612 139.802 151.456Z" fill="black" stroke="black" stroke-width="0.556405"/>
<path d="M131.693 126.563C141.014 126.799 148.497 134.429 148.497 143.807L148.491 144.251C148.451 145.828 148.199 147.353 147.763 148.798L146.86 147.896C147.201 146.59 147.384 145.219 147.384 143.807C147.384 134.895 140.16 127.671 131.249 127.671C122.338 127.671 115.113 134.895 115.113 143.807C115.114 152.718 122.338 159.941 131.249 159.941C133.319 159.941 135.298 159.55 137.116 158.84L137.643 159.828C135.665 160.618 133.508 161.055 131.249 161.055L130.804 161.049C121.631 160.817 114.238 153.424 114.006 144.251L114 143.807C114 134.281 121.723 126.558 131.249 126.558L131.693 126.563Z" fill="black"/>
<path d="M126.751 16.0001C124.751 21.0001 130.085 30.2502 133.001 34.2502C142.202 28.4503 138.335 20.0002 135.251 16.5001C133.251 14.2501 128.751 11.0001 126.751 16.0001Z" stroke="black" stroke-width="1.18519"/>
<path d="M128.501 13.75L131.394 12.3036C133.038 11.4816 135.012 11.4173 136.475 12.5301C142.96 17.4619 146.809 28.2369 133.001 34.2502" stroke="black" stroke-width="1.18519"/>
<path d="M116.751 21.2495C117.918 23.5829 119.501 25.4995 119.751 29.7496" stroke="black" stroke-width="1.18519"/>
<path d="M120.751 34.25C122.001 38.3334 125.751 45.1501 130.751 39.75" stroke="black" stroke-width="1.18519"/>
<path d="M135.251 37.9998C136.334 37.4998 139.251 37.2497 143.251 39.2497" stroke="black" stroke-width="1.18519"/>
<circle cx="115" cy="18.9995" r="2.40743" stroke="black" stroke-width="1.18519"/>
<circle cx="120" cy="32" r="2.40743" stroke="black" stroke-width="1.18519"/>
<circle cx="133" cy="38.5" r="2.40743" stroke="black" stroke-width="1.18519"/>
<circle cx="146.001" cy="40" r="2.40743" stroke="black" stroke-width="1.18519"/>
<path d="M131.733 19.1937C132.17 19.0558 132.723 19.1773 133.292 19.64C133.857 20.0991 134.375 20.8525 134.674 21.8019C134.974 22.7514 134.982 23.6664 134.783 24.3665C134.582 25.0719 134.199 25.4886 133.762 25.6265C133.325 25.7642 132.772 25.6428 132.203 25.1802C131.638 24.721 131.121 23.9666 130.821 23.017C130.522 22.0676 130.513 21.1536 130.712 20.4536C130.913 19.7481 131.296 19.3316 131.733 19.1937Z" stroke="black" stroke-width="1.18519"/>
<path d="M15.1259 148.096H13L16.986 143.844L20.7063 148.096L18.3147 148.361" stroke="black" stroke-width="1.14286"/>
<path d="M45.4198 147.032H43.2939L47.28 151.284L51.0003 147.032L48.6086 146.766" stroke="black" stroke-width="1.14286"/>
<path d="M36.6514 147.83L34.2598 148.893V152.081L36.6514 151.018V147.83Z" stroke="black" stroke-width="1.14286"/>
<path d="M24.6934 142.516L31.8249 137.931C32.0132 137.81 32.2547 137.81 32.4429 137.931L34.5256 139.27M24.6934 142.516V151.209C24.6934 151.419 24.8093 151.613 24.9949 151.712L27.1006 152.84M24.6934 142.516L27.1006 143.977M39.5745 142.516V151.209C39.5745 151.419 39.4586 151.613 39.2729 151.712L32.1339 155.537M39.5745 142.516L32.1339 147.033M39.5745 142.516L36.9172 140.807M32.1339 155.537V147.033M32.1339 155.537L29.5079 154.13M32.1339 147.033L29.5079 145.439M36.9172 140.807L29.5079 145.439M36.9172 140.807L34.5256 139.27M29.5079 145.439V154.13M29.5079 145.439L27.1006 143.977M29.5079 154.13L27.1006 152.84M27.1006 152.84V143.977M27.1006 143.977L34.5256 139.27" stroke="black" stroke-width="1.14286"/>
<path d="M15.2324 147.971C15.7193 156.736 22.9814 163.694 31.8682 163.694C38.0478 163.694 43.4411 160.329 46.3174 155.332L47.2412 156.014C44.1516 161.291 38.4246 164.836 31.8682 164.836L31.4082 164.831C22.0685 164.594 14.5161 157.165 14.083 147.875L15.2324 147.971ZM32.3271 129.234C41.8595 129.475 49.5281 137.21 49.668 146.767H48.5254C48.3834 137.688 40.9809 130.371 31.8682 130.371C25.2739 130.371 19.573 134.201 16.8721 139.759L15.8467 139.257C18.7335 133.32 24.8231 129.228 31.8682 129.228L32.3271 129.234Z" fill="black"/>
<path d="M19.5244 148.329C20.1725 154.573 25.4522 159.442 31.8682 159.442C36.6469 159.442 40.791 156.739 42.8643 152.78L43.7959 153.468C41.5048 157.705 37.0232 160.584 31.8682 160.584L31.5186 160.581C24.597 160.405 18.9663 155.041 18.3691 148.232L19.5244 148.329ZM32.2178 133.485C39.4525 133.668 45.2767 139.521 45.416 146.767H44.8896L44.2715 146.687C44.0884 139.993 38.6059 134.623 31.8682 134.623C26.9501 134.623 22.6998 137.484 20.6914 141.632L19.665 141.128C21.8595 136.601 26.4997 133.48 31.8682 133.48L32.2178 133.485Z" fill="black"/>
</svg>
