<svg width="260" height="178" viewBox="0 0 260 178" fill="none" xmlns="http://www.w3.org/2000/svg">
<path d="M33.541 14.58C35.7015 13.1667 37.9293 12.7118 39.7871 13.5351C43.788 15.3083 44.5541 22.3355 41.498 29.2314C38.9421 34.9983 34.5223 38.8465 30.8037 38.915C33.2951 36.2692 38.5623 29.0049 38.3369 22.6874C38.152 17.5112 35.4374 15.2759 33.541 14.58Z" fill="#FF6E0B"/>
<path d="M41.0244 34.2432V36.1244L44.5182 38.0057V36.3932L41.0244 34.2432Z" fill="black"/>
<path d="M40.7568 37.7373L41.0256 39.6186L44.2506 41.7686L43.9819 39.6186L40.7568 37.7373Z" fill="black"/>
<path d="M32.3037 37.4478C37.053 38.1107 40.4882 40.0346 40.4883 42.3062C40.4883 45.1263 35.1939 47.4126 28.6631 47.4126C22.1323 47.4126 16.8379 45.1263 16.8379 42.3062C16.8379 42.0246 16.8926 41.7491 16.9941 41.48C20.0757 43.548 26.4404 45.0224 32.3037 37.4478Z" fill="#161515"/>
<path d="M29.7381 28.5996H27.3193L28.6631 30.7496L29.7381 28.5996Z" stroke="black" stroke-width="0.537503" stroke-linecap="square"/>
<path d="M45.3245 38.543C39.552 34.9746 35.2406 32.7052 29.4682 29.1367L28.9307 30.2117L44.5182 39.8868L45.3245 38.543Z" stroke="black" stroke-width="0.537503"/>
<path d="M16.0861 22.8898C20.3851 15.0103 28.2619 11.0194 33.6799 13.9748C39.9492 16.5063 40.0052 25.715 35.7062 33.5949L35.301 34.3215C31.0819 41.7051 25.9889 45.1757 18.1115 42.5099C12.806 39.6178 11.7872 30.7695 16.0861 22.8898ZM33.4221 14.4465C30.9132 13.078 27.7837 13.2883 24.7062 14.8478C21.6311 16.4062 18.662 19.2908 16.5578 23.1476C14.4551 27.0019 13.6636 31.0752 14.0314 34.5139C14.3979 37.9392 15.902 40.6719 18.3293 42.0158C22.2594 43.3357 25.4078 43.064 28.0852 41.5695C30.7997 40.054 33.1046 37.2412 35.2346 33.3371C37.3462 29.4665 38.3715 25.2957 38.1203 21.8166C37.8694 18.3452 36.3642 15.6377 33.4797 14.4728L33.4504 14.4611L33.4221 14.4465Z" fill="black"/>
<path d="M24.465 27.2628C26.0058 24.4389 28.5836 22.8747 30.2228 23.7686C31.7497 24.602 31.9226 27.2747 30.6935 29.92L29.8117 29.2598C30.2558 28.2358 30.4511 27.2479 30.4298 26.4405C30.4026 25.4114 30.0494 24.8987 29.7072 24.712C29.3647 24.5257 28.7436 24.5065 27.8644 25.0401C27.0116 25.5577 26.1044 26.5018 25.4083 27.7774C24.7123 29.0533 24.4093 30.3279 24.4357 31.3253C24.4629 32.3539 24.8152 32.8659 25.1574 33.0528C25.4996 33.2395 26.1212 33.2587 27.0011 32.7247C27.795 32.2428 28.6348 31.3906 29.3087 30.2462L30.2208 30.8155C28.6655 33.4402 26.2202 34.8567 24.6427 33.9962L24.4933 33.9063C23.0001 32.9134 22.9724 29.9987 24.465 27.2628Z" fill="black"/>
<path d="M21.1616 25.1756C24.3179 19.3906 29.7319 16.2589 33.2544 18.1805C36.7198 20.0711 37.0609 26.1472 34.0659 31.8524L32.2329 30.7186C33.5058 28.2428 34.0363 25.7792 33.9429 23.8113C33.8423 21.697 33.0765 20.5329 32.2251 20.0682C31.3736 19.6037 29.9802 19.5894 28.1479 20.6492C26.354 21.687 24.4702 23.6015 23.0493 26.2059C21.6284 28.8103 21.0379 31.4307 21.1362 33.5008C21.2368 35.6151 22.0026 36.7793 22.854 37.244C23.7054 37.7085 25.099 37.7225 26.9311 36.6629C28.5666 35.7168 30.2751 34.0402 31.6411 31.7781L33.4604 32.9237C30.2593 38.1994 25.1834 40.9637 21.8247 39.1317L21.6616 39.0379C18.2936 37.0141 18.0547 30.8705 21.1616 25.1756Z" fill="black"/>
<path d="M19.3572 24.3942C23.571 16.6707 30.6125 12.3879 35.0847 14.8278L35.2918 14.9459C39.5036 17.4892 39.6933 25.4034 35.7195 32.9137L35.2595 32.6315C37.204 28.9454 38.1182 25.185 38.0388 22.0612C37.9565 18.8254 36.8246 16.3879 34.8279 15.2985C32.831 14.209 30.1686 14.5771 27.4031 16.2594C24.6515 17.9333 21.8986 20.8584 19.8289 24.652C17.7591 28.4458 16.789 32.3442 16.8709 35.5641C16.9532 38.8 18.0859 41.2364 20.0828 42.3258C22.0796 43.4151 24.7412 43.049 27.5066 41.3668C30.0743 39.8048 32.6413 37.1515 34.655 33.7213L35.1111 34.0065C30.8608 41.2372 24.1449 45.1542 19.825 42.7975L19.6189 42.6783C15.3478 40.0996 15.2092 31.9972 19.3572 24.3942Z" fill="black"/>
<path d="M42.6377 27.7931L46.1315 29.6743M42.6377 27.7931V31.5556L46.1315 33.1681M42.6377 27.7931L46.1315 25.6431L49.3565 27.7931M46.1315 29.6743L49.3565 27.7931M46.1315 29.6743V33.1681M49.3565 27.7931V31.5556L46.1315 33.1681" stroke="black" stroke-width="0.537503"/>
<path d="M12 44.1104L14.5155 45.4542M12 44.1104V46.7979L14.5155 47.9497M12 44.1104L14.5155 42.5747L16.8375 44.1104M14.5155 45.4542L16.8375 44.1104M14.5155 45.4542V47.9497M16.8375 44.1104V46.7979L14.5155 47.9497" stroke="black" stroke-width="0.537503"/>
<path d="M42.6377 31.287V28.062L45.8627 29.9433V32.8995L42.6377 31.287Z" fill="black" stroke="black" stroke-width="0.537503"/>
<path d="M12 46.6056V44.4556L14.15 45.7993V47.6806L12 46.6056Z" fill="black" stroke="black" stroke-width="0.537503"/>
<path d="M207.26 150.356V142.948L209.63 144.578V151.837L207.26 150.356Z" fill="black" stroke="black" stroke-width="0.592593"/>
<path d="M218.222 129.505V134.949L218.814 135.245V144.556L220.888 145.615V130.911L218.222 129.505Z" fill="black"/>
<path d="M212.593 135.542V142.06L213.482 142.552V147.69L215.556 148.814V137.023L212.593 135.542Z" fill="black"/>
<path d="M213.482 152.134L225.038 145.319" stroke="black" stroke-width="0.592593"/>
<path d="M223.556 148.282L226.815 146.208" stroke="black" stroke-width="0.592593"/>
<path d="M226.224 148.578L228.594 147.097" stroke="black" stroke-width="0.592593"/>
<path d="M228 149.467L230.37 147.986" stroke="black" stroke-width="0.592593"/>
<path d="M230.667 150.059L232.148 149.17" stroke="black" stroke-width="0.592593"/>
<path d="M230.963 151.838L233.926 150.06" stroke="black" stroke-width="0.592593"/>
<path d="M231.556 153.615L235.704 150.949" stroke="black" stroke-width="0.592593"/>
<path d="M233.038 154.801L237.483 152.134" stroke="black" stroke-width="0.592593"/>
<path d="M232.741 156.874L238.963 153.319" stroke="black" stroke-width="0.592593"/>
<path d="M236.593 156.875L240.741 154.504" stroke="black" stroke-width="0.592593"/>
<path d="M218.815 155.097V156.579" stroke="black" stroke-width="0.592593"/>
<path d="M228.594 155.393V160.134" stroke="black" stroke-width="0.592593"/>
<path d="M225.267 149.912L216.425 155.332C216.218 155.459 215.951 155.45 215.784 155.274C214.733 154.16 214.062 151.54 217.86 149.912C221.099 148.524 224.181 149.418 225.267 149.912Z" fill="#FF6E0B"/>
<path d="M227.938 150.873L225.248 152.529C224.876 152.758 224.871 153.296 225.238 153.532L228.235 155.459C228.449 155.597 228.732 155.584 228.915 155.407C230.624 153.755 229.588 151.902 228.61 150.935C228.431 150.757 228.153 150.741 227.938 150.873Z" fill="black" stroke="black" stroke-width="0.592593"/>
<path d="M227.113 150.059L218.271 155.479C218.064 155.606 217.796 155.597 217.63 155.42C216.579 154.307 215.908 151.687 219.706 150.059C222.944 148.671 226.027 149.565 227.113 150.059ZM227.113 150.059V151.245" stroke="black" stroke-width="0.592593"/>
<path d="M218.736 156.459L223.532 153.794C223.729 153.685 223.971 153.697 224.157 153.825L227.628 156.228C227.664 156.253 227.662 156.307 227.623 156.328C224.46 158.085 220.539 157.336 218.748 156.667C218.655 156.633 218.649 156.507 218.736 156.459Z" stroke="black" stroke-width="0.592593"/>
<path d="M224.741 162.208L226.202 163.085C227.129 163.641 228.284 163.649 229.217 163.106L242.262 155.516C243.042 155.062 243.049 153.937 242.273 153.474L224.148 142.653M216.444 157.468L205.53 150.711C204.806 150.263 204.776 149.22 205.474 148.732L206.963 147.69" stroke="black" stroke-width="0.592593"/>
<path d="M216.741 153.615V159.277C216.741 159.445 216.812 159.606 216.941 159.713C219.029 161.445 224.119 163.607 229.537 159.718C229.688 159.609 229.778 159.431 229.778 159.245V153.912" stroke="black" stroke-width="0.592593"/>
<path d="M218.815 160.727V156.693" stroke="black" stroke-width="0.592593"/>
<path d="M227.408 161.022V156.282" stroke="black" stroke-width="0.592593"/>
<path d="M206.964 142.356V150.653L209.927 152.43M206.964 142.356L209.927 140.579L213.186 142.653M206.964 142.356L209.927 144.43M213.186 142.653V150.356L209.927 152.43M213.186 142.653L209.927 144.43M209.927 152.43V144.43" stroke="black" stroke-width="0.592593"/>
<path d="M217.928 129.023L220.853 127.161C221.055 127.033 221.315 127.038 221.511 127.176L224.15 129.023M217.928 129.023L221.187 130.801M217.928 129.023V134.949M224.15 129.023V144.134L221.187 145.912M224.15 129.023L221.187 130.801M221.187 145.912L218.52 144.727M221.187 145.912V130.801" stroke="black" stroke-width="0.592593"/>
<path d="M212.593 135.245L215.556 133.467L218.519 135.245M212.593 135.245L215.852 137.023M212.593 135.245V142.356M218.519 135.245V147.242L215.852 149.171M218.519 135.245L215.852 137.023M215.852 149.171L213.185 147.69M215.852 149.171V137.023" stroke="black" stroke-width="0.592593"/>
<path d="M147.26 156.017L152.786 153.439C153.925 152.907 153.947 151.296 152.823 150.733L145.592 154.627L147.26 156.017Z" fill="black" stroke="black" stroke-width="0.556213"/>
<path d="M117.015 156.473L118.893 155.462L125.289 159.634L130.017 162.306C131.05 162.89 132.316 162.881 133.341 162.283L138.36 159.355H141.976L147.816 162.693L137.248 162.415L133.452 164.89C131.859 165.929 129.815 165.975 128.176 165.01L116.978 158.411C116.231 157.971 116.252 156.884 117.015 156.473Z" fill="black"/>
<path d="M153.101 147.118V149.209C153.101 149.808 152.781 150.361 152.261 150.658L145.314 154.627" stroke="black" stroke-width="0.556213"/>
<path d="M138.361 156.296V159.077" stroke="black" stroke-width="0.556213"/>
<path d="M116.678 149.484L125.568 144.337L125.846 153.237C129.183 155.684 132.984 154.256 134.467 153.237V139.053L136.692 137.941V146.562C140.697 149.232 144.294 147.675 145.592 146.562V141.834L149.842 144.466C150.559 144.91 150.541 145.959 149.809 146.377L139.751 152.124L144.479 155.184L135.024 154.905L130.587 157.652C129.722 158.188 128.633 158.208 127.748 157.705L116.685 151.414C115.939 150.989 115.934 149.915 116.678 149.484Z" fill="#FF6E0B"/>
<path d="M125.847 146.284L121.953 148.787L119.132 150.523C118.639 150.827 118.338 151.365 118.338 151.945V153.267C118.338 154.454 118.968 155.552 119.994 156.15L129.725 161.826C130.937 162.534 132.437 162.534 133.649 161.826L138.362 159.077H147.261V156.018L142.533 152.959L152.342 147.946C153.514 147.346 153.563 145.689 152.428 145.022L145.592 141M134.468 141.557L136.693 140.166" stroke="black" stroke-width="0.556213"/>
<path d="M119.171 150.456C118.893 150.92 118.726 152.069 120.284 152.959C121.452 153.626 125.507 156.004 128.793 157.933C130.573 158.978 132.785 158.953 134.541 157.867L137.527 156.018H147.26" stroke="black" stroke-width="0.556213"/>
<path d="M130.017 130.154C131.281 130.154 132.413 130.457 133.219 130.931C134.031 131.408 134.467 132.028 134.467 132.657C134.467 133.286 134.031 133.906 133.219 134.384C132.413 134.858 131.281 135.16 130.017 135.16C128.752 135.16 127.62 134.858 126.814 134.384C126.002 133.906 125.567 133.286 125.567 132.657C125.567 132.028 126.002 131.408 126.814 130.931C127.62 130.457 128.752 130.154 130.017 130.154Z" stroke="black" stroke-width="0.556213"/>
<path d="M136.692 135.717V146.563C138.268 147.675 142.255 149.066 145.592 146.563V135.438" stroke="black" stroke-width="0.556213"/>
<path d="M141.142 132.379C142.402 132.379 143.53 132.71 144.334 133.23C145.141 133.753 145.592 134.441 145.592 135.16C145.592 135.879 145.141 136.568 144.334 137.09C143.53 137.61 142.401 137.94 141.142 137.94C139.882 137.94 138.754 137.61 137.95 137.09C137.143 136.568 136.693 135.879 136.692 135.16C136.692 134.441 137.143 133.753 137.95 133.23C138.754 132.71 139.882 132.379 141.142 132.379Z" stroke="black" stroke-width="0.556213"/>
<path d="M125.568 132.935L125.846 153.237C127.052 154.257 130.463 155.684 134.468 153.237V132.935" stroke="black" stroke-width="0.556213"/>
<path d="M129.74 131.544C129.276 131.544 128.405 131.934 128.628 132.379C128.906 132.935 131.409 131.823 131.687 132.379C131.965 132.935 131.131 133.491 130.574 133.491" stroke="black" stroke-width="0.556213"/>
<path d="M140.899 134.326C140.436 134.326 139.564 134.715 139.787 135.16C140.065 135.716 142.568 134.604 142.846 135.16C143.124 135.716 142.29 136.272 141.734 136.272" stroke="black" stroke-width="0.556213"/>
<path d="M227.056 75.6324C227.509 71.3675 223.938 68.5194 222.029 67.6003C222.012 67.5923 221.995 67.5864 221.977 67.5819L221.167 67.3794C221.069 67.3548 221.052 67.2221 221.141 67.1736L223.225 66.0371C223.69 65.7832 224.245 65.7223 224.737 65.9182C228.648 67.4727 229.511 70.4747 229.732 72.5175C229.795 73.0975 229.549 73.6617 229.115 74.052L227.247 75.7337C227.169 75.8036 227.045 75.7363 227.056 75.6324Z" fill="#FF6E0B"/>
<path d="M225.625 65.6399C227.852 65.9183 231.55 68.1457 231.193 73.4358C232.586 70.6515 232.307 65.0831 225.625 65.6399Z" fill="black" stroke="black" stroke-width="0.556848"/>
<path d="M220.891 68.4243C223.211 68.5171 227.796 70.4847 226.459 76.4986" stroke="black" stroke-width="0.556848"/>
<path d="M222.283 67.3101C224.418 67.4957 228.52 69.7045 227.852 75.9412" stroke="black" stroke-width="0.556848"/>
<path d="M214.21 69.538C215.138 69.8164 218.386 70.0945 220.335 68.9808C222.564 67.7072 225.347 63.691 230.08 66.1969C231.751 67.3105 233.978 71.2084 230.08 74.5495C229.183 75.3183 228.799 75.4405 225.904 76.7769C223.008 78.1134 221.356 80.3036 220.892 81.2317" stroke="black" stroke-width="0.556848"/>
<path d="M214.766 73.9927L211.981 76.4985" stroke="black" stroke-width="0.556848"/>
<path d="M217.551 79.8394H213.932" stroke="black" stroke-width="0.556848"/>
<path d="M216.159 85.1297C207.472 81.7886 207.26 73.4359 208.641 71.2085C206.135 72.3222 207.248 78.7259 208.641 80.3965C211.425 85.1297 215.044 85.965 216.159 85.1297Z" fill="black" stroke="black" stroke-width="0.556848"/>
<path d="M209.055 68.8905L208.919 68.9814C216.715 68.4245 223.119 83.181 217.55 87.3573C220.056 86.2437 220.334 85.0371 220.613 84.2947C222.577 77.1729 216.961 70.2676 212.36 68.3555C211.261 67.8987 210.046 68.2303 209.055 68.8905Z" fill="black" stroke="black" stroke-width="0.556848"/>
<path d="M225.625 80.675V83.4593C225.625 83.613 225.75 83.7377 225.903 83.7377C226.057 83.7377 226.182 83.8623 226.182 84.0161V84.1553C226.182 84.386 226.369 84.5729 226.599 84.5729H226.739C227.046 84.5729 227.296 84.3236 227.296 84.0161V81.2319C227.296 81.0781 227.171 80.9534 227.017 80.9534C226.863 80.9534 226.739 80.8288 226.739 80.675V80.5358C226.739 80.3051 226.552 80.1182 226.321 80.1182H226.182C225.874 80.1182 225.625 80.3675 225.625 80.675Z" stroke="black" stroke-width="0.556848"/>
<path d="M225.625 82.0669H226.182C226.336 82.0669 226.46 82.1915 226.46 82.3453C226.46 82.4991 226.585 82.6237 226.739 82.6237H227.017" stroke="black" stroke-width="0.556848"/>
<path d="M224.789 77.334V87.8839C224.789 88.0759 224.886 88.2574 225.059 88.3405C225.797 88.6951 226.977 88.9036 228.131 88.3428C228.307 88.2573 228.409 88.0729 228.409 87.8773V75.9419" stroke="black" stroke-width="0.556848"/>
<path d="M224.789 89.3062C222.735 88.5362 223.676 86.8004 224.789 86.522L224.79 88.1925C224.791 88.8607 226.09 89.0278 226.739 89.0278C227.407 89.0278 228.131 88.4709 228.409 88.1925L228.408 86.522C230.357 87.3572 229.708 88.3781 229.244 88.7494C228.501 89.399 227.017 90.1415 224.789 89.3062Z" fill="black" stroke="black" stroke-width="0.556848"/>
<path d="M228.409 80.9536L239.546 87.9142" stroke="black" stroke-width="0.556848"/>
<path d="M228.687 75.9419L242.186 84.1915C242.892 84.6229 242.898 85.6462 242.197 86.0855L225.155 96.7651C223.735 97.6552 221.935 97.6727 220.498 96.8102L204.958 87.4865C204.233 87.0517 204.238 86 204.966 85.5715L208.084 83.7378" stroke="black" stroke-width="0.556848"/>
<path d="M204.807 88.5744L204.97 88.4351C205.333 88.1237 205.855 88.0792 206.265 88.3243L220.817 97.0085C222.061 97.7508 223.614 97.7421 224.849 96.9861L240.838 87.2024C241.233 86.9604 241.737 86.9886 242.103 87.2732L242.696 87.7345C243.319 88.2195 243.254 89.1816 242.57 89.5774L225.101 99.6907C223.705 100.499 221.981 100.489 220.594 99.6651L204.963 90.3774C204.308 89.9881 204.229 89.0704 204.807 88.5744Z" fill="black" stroke="black" stroke-width="0.556848"/>
<path d="M232.028 85.686L233.42 86.5213L232.028 87.3566L230.636 86.5213L232.028 85.686Z" fill="black"/>
<path d="M235.37 87.3569L236.762 88.1922L235.37 89.0275L233.978 88.1922L235.37 87.3569Z" fill="black"/>
<ellipse cx="235.37" cy="82.9016" rx="0.835272" ry="0.556848" transform="rotate(-15.3039 235.37 82.9016)" fill="black"/>
<path d="M238.227 83.9966C238.308 84.2932 238.013 84.6324 237.568 84.7541C237.123 84.8759 236.697 84.7341 236.616 84.4375C236.535 84.1409 236.829 83.8017 237.274 83.6799C237.719 83.5582 238.146 83.6999 238.227 83.9966Z" fill="black"/>
<ellipse cx="239.385" cy="85.3309" rx="0.835272" ry="0.556848" transform="rotate(-18.2425 239.385 85.3309)" fill="black"/>
<path d="M208.527 71.1206C209.59 70.5626 210.988 70.7758 212.427 71.6787C213.858 72.5775 215.279 74.1335 216.332 76.1392C217.385 78.1448 217.858 80.1973 217.785 81.8861C217.711 83.583 217.092 84.8547 216.029 85.4127C214.966 85.9706 213.568 85.7575 212.13 84.8546C210.698 83.9558 209.278 82.4005 208.225 80.3949C207.172 78.3892 206.698 76.3361 206.772 74.6472C206.846 72.9504 207.464 71.6786 208.527 71.1206Z" stroke="black" stroke-width="0.556848"/>
<path d="M207.363 69.4561C208.778 68.7136 210.611 68.9873 212.467 70.1311C214.317 71.2712 216.14 73.2516 217.482 75.8081C218.824 78.3644 219.418 80.9892 219.306 83.1591C219.193 85.336 218.377 87.0003 216.963 87.743C215.548 88.4857 213.715 88.2118 211.859 87.068C210.009 85.9279 208.186 83.9487 206.844 81.3923C205.502 78.8358 204.908 76.21 205.02 74.04C205.133 71.8631 205.948 70.1987 207.363 69.4561Z" stroke="black" stroke-width="0.556848"/>
<path d="M213.941 77.644C214.438 78.7379 214.618 79.8103 213.941 80.1182C213.264 80.426 211.988 79.8527 211.49 78.7588C210.993 77.6649 211.304 76.2497 211.981 75.9418C212.658 75.634 213.443 76.5501 213.941 77.644Z" fill="black"/>
<path d="M120.678 91.4458V94.1243" stroke="black" stroke-width="1.07142"/>
<path d="M144.518 90.9106V93.3213H145.589V90.9106" stroke="black" stroke-width="0.535708"/>
<path d="M133.682 97.6662L139.696 100.553C135.839 101.839 132.018 101.625 130.589 101.357L129.869 100.366C129.193 99.437 129.682 98.1195 130.8 97.8564L132.264 97.5121C132.74 97.4 133.24 97.4544 133.682 97.6662Z" fill="black" stroke="black" stroke-width="0.535708"/>
<path d="M123.893 99.7497L130.053 95.7319H130.857C131.66 96.5355 134.607 96.5355 135.41 95.7319H136.214L142.107 99.4819" stroke="black" stroke-width="0.535708"/>
<path d="M124.428 85.8213L130.053 89.3034H136.213L141.57 85.8213" stroke="black" stroke-width="0.535708"/>
<path d="M121.215 97.8749C121.429 97.8749 125.233 95.5535 127.108 94.3928V93.5892C126.572 93.3214 126.572 92.25 127.108 91.9821V90.9107L122.822 88.5" stroke="black" stroke-width="0.535708"/>
<path d="M142.375 89.0356L138.893 90.9106V91.7142C139.16 92.0713 139.535 92.9463 138.893 93.5892V94.3927L144.785 97.8748" stroke="black" stroke-width="0.535708"/>
<path d="M118.268 91.9817V97.0709C119.824 104.594 138.966 108.097 146.984 98.822C147.497 98.2285 147.732 97.4524 147.732 96.6678V91.7139" stroke="black" stroke-width="0.535708"/>
<path d="M138.946 68.2214C136.488 67.0897 132.66 69.1746 130.836 73.1365C129.675 75.9937 128.532 81.7079 133.246 81.7079L135.389 87.8686L136.728 80.1008C137.532 79.5651 138.41 78.6494 139.407 77.1544C141.014 74.7437 141.403 69.3531 138.946 68.2214Z" fill="#FF6E0B"/>
<path d="M137.821 68.9458C137.464 68.3208 135.118 66.6365 132.732 67.0706C130.02 67.5639 127.535 71.0063 126.53 74.0573C126.36 74.572 126.285 75.1107 126.249 75.6514L126.164 76.9224C126.08 78.1837 126.369 79.4608 127.293 80.3238C128.028 81.0107 129.05 81.7737 130.321 82.3384L131.66 87.1598L134.071 87.6955" stroke="black" stroke-width="0.535708"/>
<path d="M133 83.9463C137.07 83.9463 140.745 84.9411 143.406 86.5381C146.072 88.138 147.682 90.3151 147.73 92.6758C147.731 92.7124 147.731 92.7494 147.731 92.7861C147.731 95.1712 146.138 97.3746 143.468 98.9961C140.802 100.615 137.101 101.625 133 101.625C128.899 101.625 125.198 100.615 122.532 98.9961C119.862 97.3746 118.268 95.1713 118.268 92.7861C118.268 90.4008 119.861 88.1968 122.532 86.5752C125.198 84.9566 128.899 83.9463 133 83.9463Z" stroke="black" stroke-width="0.535708"/>
<path d="M133 90.9102C133.998 90.9102 134.887 91.1422 135.519 91.5029C136.157 91.8679 136.482 92.3311 136.482 92.7852C136.482 93.2393 136.157 93.7033 135.519 94.0684C134.887 94.429 133.997 94.6601 133 94.6602C132.003 94.6602 131.113 94.429 130.481 94.0684C129.843 93.7033 129.518 93.2393 129.518 92.7852C129.518 92.3311 129.843 91.8679 130.481 91.5029C131.113 91.1422 132.003 90.9102 133 90.9102Z" stroke="black" stroke-width="0.535708"/>
<path d="M148 88.2804C148 89.9076 146.681 91.2268 145.054 91.2268C143.427 91.2268 142.107 89.9076 142.107 88.2804C142.107 86.6531 143.427 85.334 145.054 85.334C146.681 85.334 148 86.6531 148 88.2804Z" fill="black"/>
<path d="M120.41 85.018L120.608 84.0321C120.628 83.9276 120.773 83.9144 120.812 84.0134L121.214 85.018L121.741 85.808C121.747 85.8168 121.75 85.8272 121.75 85.8378V86.592C121.75 86.6123 121.761 86.6308 121.779 86.6399L122.256 86.8782C122.274 86.8872 122.285 86.9058 122.285 86.9261V87.643C122.285 87.6725 122.309 87.6965 122.339 87.6965H122.768C122.797 87.6965 122.821 87.7205 122.821 87.7501V88.7144C122.821 88.744 122.845 88.7679 122.875 88.7679H123.303C123.333 88.7679 123.357 88.7919 123.357 88.8215V89.7524C123.357 90.4442 122.914 91.0583 122.258 91.2771L121.75 91.4465H119.875L119.366 91.2771C118.71 91.0583 118.268 90.4442 118.268 89.7524V88.8215C118.268 88.7919 118.292 88.7679 118.321 88.7679H118.75C118.779 88.7679 118.803 88.744 118.803 88.7144V87.7501C118.803 87.7205 118.827 87.6965 118.857 87.6965H119.285C119.315 87.6965 119.339 87.6725 119.339 87.643V86.9261C119.339 86.9058 119.35 86.8872 119.369 86.8782L119.845 86.6399C119.863 86.6308 119.875 86.6123 119.875 86.592V85.8378C119.875 85.8272 119.878 85.8168 119.884 85.808L120.41 85.018Z" fill="black" stroke="black" stroke-width="0.535708"/>
<path d="M136.224 71.4943C136.777 71.8412 137.076 72.5705 137.041 73.5524C137.006 74.5264 136.641 75.6934 135.938 76.8119C135.236 77.9304 134.343 78.7672 133.48 79.2214C132.611 79.6789 131.825 79.7256 131.272 79.3787C130.72 79.0317 130.421 78.3032 130.455 77.3214C130.49 76.3473 130.856 75.1797 131.559 74.0611C132.261 72.9427 133.153 72.1065 134.016 71.6525C134.885 71.1947 135.672 71.1475 136.224 71.4943Z" stroke="black" stroke-width="0.535708"/>
<path d="M137.516 68.8277C138.05 69.0736 138.448 69.5587 138.715 70.2194C138.983 70.8809 139.11 71.7004 139.115 72.5732C139.124 74.3248 138.633 76.2185 137.866 77.3686C136.88 78.848 136.025 79.7322 135.262 80.2408L135.167 80.3055L135.147 80.4189L133.984 87.1643L132.182 81.9831L132.119 81.8029L131.929 81.8033C130.808 81.8033 130.073 81.4659 129.597 80.9518C129.114 80.4307 128.864 79.6926 128.788 78.8331C128.654 77.324 129.064 75.5298 129.553 74.1594L129.766 73.6006C130.657 71.672 132.032 70.2075 133.471 69.3635C134.919 68.5143 136.395 68.3115 137.516 68.8277Z" stroke="black" stroke-width="0.535708"/>
<ellipse cx="133.648" cy="75.3626" rx="0.74778" ry="1.50731" transform="rotate(31.6194 133.648 75.3626)" fill="black"/>
<path d="M217.551 33.1159V19.2935L220.064 20.8014V34.6238L217.551 33.1159Z" fill="black" stroke="black" stroke-width="0.502635"/>
<path d="M222.827 36.1313V26.0786L225.089 27.3352V37.3879L222.827 36.1313Z" fill="black" stroke="black" stroke-width="0.502635"/>
<path d="M229.111 26.0786L226.598 27.0839V36.6339L229.111 35.6287V26.0786Z" fill="#FF6E0B"/>
<path d="M212.272 12.7593V30.6028L214.786 31.8594V14.5185L212.272 12.7593Z" fill="black"/>
<path d="M226.347 20.2983L233.132 24.0681" stroke="black" stroke-width="0.502635"/>
<path d="M223.331 20.8013L240.672 30.854" stroke="black" stroke-width="0.502635"/>
<path d="M212.272 12.7592V30.6028L215.037 32.1107M212.272 12.7592L215.037 11L218.304 12.7592M212.272 12.7592L215.037 14.5184M218.304 12.7592V18.0369M218.304 12.7592L215.037 14.5184M215.037 32.1107L217.55 30.6028M215.037 32.1107V14.5184" stroke="black" stroke-width="0.502635"/>
<path d="M217.298 18.7905V33.3669L220.314 35.1261M217.298 18.7905L220.314 17.0312L223.329 18.7905M217.298 18.7905L220.314 20.5497M223.329 18.7905V24.8221M223.329 18.7905L220.314 20.5497M220.314 35.1261L222.576 33.3669M220.314 35.1261V20.5497" stroke="black" stroke-width="0.502635"/>
<path d="M222.576 25.5761V36.3828L225.341 37.8907M222.576 25.5761L225.341 27.084M222.576 25.5761L225.341 23.8169L228.356 25.5761M225.341 37.8907V27.084M225.341 37.8907L228.356 36.3828V25.5761M225.341 27.084L228.356 25.5761" stroke="black" stroke-width="0.502635"/>
<path d="M223.33 20.5495L226.343 18.8547C226.967 18.5036 227.731 18.511 228.348 18.874L243.014 27.501C243.664 27.8834 243.677 28.8188 243.038 29.2193L227.682 38.8428C226.4 39.6462 224.775 39.6619 223.478 38.8835L209.451 30.4674C208.797 30.075 208.801 29.1257 209.458 28.739L212.272 27.0837" stroke="black" stroke-width="0.502635"/>
<path d="M209.315 31.45L209.461 31.3243C209.789 31.0432 210.26 31.003 210.631 31.2243L223.766 39.063C224.889 39.733 226.29 39.7252 227.406 39.0428L241.837 30.2116C242.194 29.9932 242.649 30.0186 242.979 30.2755L243.514 30.6919C244.077 31.1297 244.018 31.9981 243.401 32.3554L227.633 41.4841C226.373 42.2138 224.816 42.2049 223.564 41.461L209.455 33.0775C208.864 32.7261 208.792 31.8977 209.315 31.45Z" fill="black" stroke="black" stroke-width="0.502635"/>
<path d="M231.373 27.084L232.629 27.8379L231.373 28.5919L230.116 27.8379L231.373 27.084Z" fill="black"/>
<path d="M233.885 28.8433L235.142 29.5972L233.885 30.3512L232.629 29.5972L233.885 28.8433Z" fill="black"/>
<path d="M236.902 30.3511L238.159 31.105L236.902 31.859L235.646 31.105L236.902 30.3511Z" fill="black"/>
<ellipse cx="236.902" cy="26.3298" rx="0.753952" ry="0.502635" transform="rotate(-15.3039 236.902 26.3298)" fill="black"/>
<path d="M239.481 27.3178C239.554 27.5855 239.288 27.8917 238.886 28.0016C238.484 28.1115 238.099 27.9835 238.026 27.7158C237.953 27.448 238.219 27.1419 238.621 27.032C239.022 26.9221 239.407 27.05 239.481 27.3178Z" fill="black"/>
<ellipse cx="240.526" cy="28.5221" rx="0.753952" ry="0.502635" transform="rotate(-18.2425 240.526 28.5221)" fill="black"/>
<path d="M146.891 44.7244C148.355 42.2147 143.58 40.0187 140.879 39.2344C138.526 43.9401 131.293 44.2887 127.284 44.2016C127.075 44.829 125.977 45.5087 125.454 45.7702C132.251 49.6916 145.061 47.8616 146.891 44.7244Z" fill="black" stroke="black" stroke-width="0.522862" stroke-linecap="round"/>
<path d="M140.413 37.7962L140.878 35.3132C136.434 42.8947 122.84 42.1104 118.657 37.1432C118.134 36.0974 117.82 35.0517 118.657 31.9146C115.519 36.0974 118.134 40.3571 119.964 41.3261C127.706 45.425 135.184 43.1105 138.769 40.6024C139.694 39.9558 140.205 38.9049 140.413 37.7962Z" fill="#FF6E0B"/>
<path d="M121.532 42.6328C120.748 45.5086 125.712 47.0771 127.022 44.2014" stroke="black" stroke-width="0.522862" stroke-linecap="round"/>
<path d="M140.879 35.8356L140.879 37.6894C140.879 39.1832 140.315 40.6561 139.038 41.4316C135.119 43.8117 127.39 45.7797 119.965 41.8485C118.135 40.8796 115.259 36.6199 118.396 32.437" stroke="black" stroke-width="0.522862" stroke-linecap="round"/>
<path d="M137.312 32.5824L139.31 30.0845H137.219V32.5497C137.219 32.5992 137.281 32.621 137.312 32.5824Z" fill="black" stroke="black" stroke-width="0.522862" stroke-linecap="round"/>
<path d="M145.061 15.4443L141.661 13.6143C135.648 14.1371 130.16 25.9015 135.648 28.7773M135.65 28.7773L135.648 31.653L137.218 32.4373" stroke="black" stroke-width="0.522862"/>
<path d="M128.329 17.2748C125.889 17.1876 120.956 19.5231 120.747 29.562C119.004 30.8692 117.214 33.5772 118.133 36.8821C119.441 41.5878 135.648 44.2022 140.354 36.8821C140.878 36.0668 141.923 33.3266 138.786 30.6077M130.683 17.2748C131.641 17.2748 133.82 17.7453 134.866 19.6276" stroke="black" stroke-width="0.522862"/>
<path d="M128.33 16.2285V18.32C128.33 18.8975 128.798 19.3657 129.376 19.3657C129.953 19.3657 130.422 18.8975 130.422 18.32V16.2285" stroke="black" stroke-width="0.522862"/>
<path d="M120.749 29.562C119.442 31.8277 116.827 35.3135 121.01 38.1892C124.491 40.5817 136.12 41.8493 139.571 36.0978C140.356 34.7906 140.2 32.5423 138.526 30.8692" stroke="black" stroke-width="0.522862"/>
<circle cx="128.591" cy="13.6143" r="2.61431" fill="#FF6E0B"/>
<circle cx="129.376" cy="13.8757" r="2.61431" stroke="black" stroke-width="0.522862"/>
<path d="M136.321 20.0837C138.568 15.9336 142.382 13.6482 144.841 14.9792C147.3 16.3105 147.472 20.7545 145.225 24.905C142.978 29.0555 139.162 31.3408 136.703 30.0095C134.245 28.678 134.074 24.234 136.321 20.0837ZM143.487 18.1257C143.236 17.9847 142.917 18.0742 142.776 18.3259L139.379 24.3923L138.533 23.8845C138.286 23.7364 137.965 23.8169 137.817 24.0642C137.668 24.3118 137.749 24.6334 137.996 24.782L138.841 25.2888C139.347 25.5921 140.003 25.4175 140.291 24.9031L143.689 18.8376C143.83 18.5857 143.739 18.2668 143.487 18.1257Z" fill="black"/>
<path d="M36.1174 130.053L33.3232 131.73V139.553L36.1174 138.156V130.053Z" fill="#FF6E0B"/>
<path d="M16.2793 147.656V139.833L18.2352 140.95V148.774L16.2793 147.656Z" fill="black" stroke="black" stroke-width="0.558824" stroke-linecap="round"/>
<path d="M20.75 138.715V134.245L22.7059 135.362V145.98L21.5882 145.701V139.274L20.75 138.715Z" fill="black" stroke="black" stroke-width="0.558824" stroke-linecap="round"/>
<path d="M25.2207 128.377V132.848L26.0589 133.686V142.906L27.1766 143.465V129.215L25.2207 128.377Z" fill="black" stroke="black" stroke-width="0.558824" stroke-linecap="round"/>
<path d="M31.3676 131.73L30.25 131.171V140.391L31.3676 140.95V131.73Z" fill="black" stroke="black" stroke-width="0.558824" stroke-linecap="round"/>
<path d="M16 139.274L18.5147 137.877L21.0294 139.274M16 139.274V147.656L18.5147 149.333M16 139.274L18.5147 140.671M21.0294 139.274V147.656L18.5147 149.333M21.0294 139.274L18.5147 140.671M18.5147 149.333V140.671" stroke="black" stroke-width="0.558824" stroke-linecap="round"/>
<path d="M20.4707 133.686L22.9854 132.009L25.5001 133.686M20.4707 133.686L22.9854 135.083M20.4707 133.686V138.715L21.3089 139.274V145.98L22.9854 146.539M25.5001 133.686L22.9854 135.083M25.5001 133.686V145.142L22.9854 146.539M22.9854 135.083V146.539" stroke="black" stroke-width="0.558824" stroke-linecap="round"/>
<path d="M24.9414 127.818L27.4561 126.142L29.9708 127.818M24.9414 127.818V132.847L25.7796 133.686V143.186L27.4561 144.024M24.9414 127.818L27.4561 128.936M29.9708 127.818V142.627L27.4561 144.024M29.9708 127.818L27.4561 128.936M27.4561 144.024V128.936" stroke="black" stroke-width="0.558824" stroke-linecap="round"/>
<path d="M34.4403 130.053L31.6462 128.656L29.9697 129.494V130.892L31.6462 131.45M34.4403 130.053V139.833L31.6462 141.509M34.4403 130.053L31.6462 131.45M31.6462 141.509V131.45M31.6462 141.509L29.9697 140.671" stroke="black" stroke-width="0.558824" stroke-linecap="round"/>
<path d="M45.0586 142.626L47.2939 144.024" stroke="black" stroke-width="0.558824" stroke-linecap="round"/>
<path d="M43.6611 141.789L44.22 142.068" stroke="black" stroke-width="0.558824" stroke-linecap="round"/>
<path d="M37.2344 140.112L50.6461 147.936" stroke="black" stroke-width="0.558824" stroke-linecap="round"/>
<path d="M18.9968 157.106L20.801 156.655C20.9472 156.618 21.102 156.642 21.2302 156.721L30.3512 162.355C30.4663 162.426 30.6032 162.453 30.7367 162.431L32.1058 162.202C32.1722 162.191 32.236 162.168 32.2942 162.135L51.1658 151.195C51.3597 151.082 51.602 151.097 51.7813 151.231L53.0425 152.177C53.3635 152.418 53.3336 152.908 52.9857 153.108L33.3463 164.401C32.1238 165.104 30.6176 165.095 29.404 164.376L18.8477 158.129C18.4179 157.874 18.5123 157.227 18.9968 157.106Z" fill="black" stroke="black" stroke-width="0.558824" stroke-linecap="round"/>
<path d="M18.7648 150.813L38.3202 139.325C39.5473 138.604 41.0692 138.606 42.294 139.331L53.1795 145.774C53.547 145.991 53.5447 146.523 53.1754 146.738L32.7989 158.561C31.9164 159.073 30.825 159.064 29.9517 158.536L18.7588 151.774C18.3965 151.555 18.3997 151.028 18.7648 150.813Z" stroke="black" stroke-width="0.558824" stroke-linecap="round"/>
<path d="M21.5879 149.333L34.7202 157.156" stroke="black" stroke-width="0.558824" stroke-linecap="round"/>
<path d="M18.5146 151.568V153.641C18.5146 154.434 18.9347 155.167 19.6184 155.569L29.9588 161.638C30.8291 162.149 31.9072 162.151 32.7792 161.643L52.6082 150.097C53.1239 149.797 53.4411 149.245 53.4411 148.648V146.539" stroke="black" stroke-width="0.558824" stroke-linecap="round"/>
<path d="M36.1172 145.421C37.694 145.421 39.1091 145.818 40.1201 146.443C41.1351 147.072 41.7061 147.904 41.7061 148.774C41.7059 149.645 41.1349 150.476 40.1201 151.104C39.1091 151.73 37.694 152.127 36.1172 152.127C34.5406 152.127 33.1261 151.73 32.1152 151.104C31.1004 150.476 30.5295 149.645 30.5293 148.774C30.5293 147.904 31.1002 147.072 32.1152 146.443C33.1261 145.818 34.5406 145.421 36.1172 145.421Z" stroke="black" stroke-width="0.558824"/>
<path d="M31.0889 151.848L33.0447 150.451" stroke="black" stroke-width="0.558824" stroke-linecap="round"/>
<path d="M39.1913 147.08L41.3434 146.009" stroke="black" stroke-width="0.558824" stroke-linecap="round"/>
<path d="M31.3674 145.896L33.5998 146.787" stroke="black" stroke-width="0.558824" stroke-linecap="round"/>
<path d="M39.7492 150.367L41.9816 151.258" stroke="black" stroke-width="0.558824" stroke-linecap="round"/>
<ellipse cx="36.118" cy="148.774" rx="1.95588" ry="1.39706" fill="black"/>
<ellipse cx="26.3384" cy="154.362" rx="1.11765" ry="0.838235" fill="black"/>
<path d="M51.4849 149.333L50.0879 150.171" stroke="black" stroke-width="0.558824" stroke-linecap="round"/>
<path d="M49.2502 150.73C49.2502 150.884 49.1251 151.01 48.9708 151.01C48.8165 151.01 48.6914 150.884 48.6914 150.73C48.6914 150.576 48.8165 150.451 48.9708 150.451C49.1251 150.451 49.2502 150.576 49.2502 150.73Z" fill="black"/>
<path d="M34.2397 83.7707C34.4519 79.5269 36.9804 77.9355 38.2182 77.6703L36.2594 76.0677C35.6517 75.5705 34.8419 75.337 34.1077 75.6152C31.4795 76.6112 30.7361 78.9086 30.6952 80.6576C30.6765 81.4562 31.2 82.134 31.9034 82.5127L34.2397 83.7707Z" fill="#FF6E0B"/>
<path d="M44.7193 91.9831C51.2456 91.6514 51.9694 83.2039 49.8892 81.3838C50.2429 81.3838 51.0563 81.596 51.4806 82.4447C52.0111 83.5057 52.2763 86.4232 49.8892 89.606C48.1936 91.8669 45.8846 92.2039 44.7075 92.0654C44.646 92.0582 44.6575 91.9862 44.7193 91.9831Z" fill="black" stroke="black" stroke-width="0.530467"/>
<path d="M49.8884 79.527C51.6566 79.7039 54.9278 81.1184 53.0712 87.2188C51.9411 90.9321 44.4664 98.6239 41.6894 91.1973M49.8884 79.527C48.4527 79.527 44.7656 79.6535 42.3252 79.746C41.5862 79.774 40.8851 79.4075 40.3235 78.9263C39.2122 77.9741 37.4756 77.0143 36.3929 76.4859C36.2002 76.3918 35.9822 76.3605 35.7728 76.407C32.4877 77.1363 31.6215 80.2329 31.5825 82.0473C31.5768 82.3087 31.6519 82.5686 31.8352 82.755C32.5799 83.512 34.2971 84.2746 35.5055 84.7616C36.0659 84.9874 36.5692 85.3348 36.9666 85.7898L41.6894 91.1973M49.8884 79.527C42.674 81.6489 41.4009 87.8377 41.6661 90.6668C41.6661 90.8525 41.6742 91.0292 41.6894 91.1973" stroke="black" stroke-width="0.530467"/>
<path d="M40.3404 78.9966C39.0142 78.9966 36.3089 81.0654 36.0967 85.097" stroke="black" stroke-width="0.530467"/>
<path d="M35.3008 84.5662C35.3892 82.8864 36.3617 79.3146 39.5445 78.4658" stroke="black" stroke-width="0.530467"/>
<path d="M35.0367 95.7063C34.0878 94.7574 34.5953 94.1149 35.3026 93.5845C35.4794 94.1149 35.6207 95.1759 35.8329 95.1759C36.0982 95.1759 38.22 95.1759 38.7505 94.9106C39.1749 94.6985 39.0157 93.9381 39.0157 93.5845C40.2889 93.5845 40.0767 94.6454 39.8114 95.1759C38.5886 96.7673 35.5671 96.2368 35.0367 95.7063Z" fill="black" stroke="black" stroke-width="0.530467"/>
<path d="M34.2401 84.3013C33.8157 85.7866 35.1242 91.993 35.8315 94.9106C36.0281 94.9949 36.3087 95.0738 36.6272 95.1014M38.2186 87.2188C38.4258 89.7048 38.5419 91.629 38.7491 94.1149C38.8246 95.0216 37.4229 95.1758 36.6272 95.1014M36.6272 95.1014C36.8924 91.993 35.7785 85.5744 36.6272 85.3622" stroke="black" stroke-width="0.530467"/>
<path d="M31.0566 103.663L47.7664 93.5845" stroke="black" stroke-width="0.530467"/>
<path d="M22.835 76.3443L34.7705 69.4482" stroke="black" stroke-width="0.530467" stroke-linecap="round"/>
<path d="M24.4268 81.1186L35.8318 74.4878" stroke="black" stroke-width="0.530467" stroke-linecap="round"/>
<path d="M24.6914 86.6879L31.5875 82.9746" stroke="black" stroke-width="0.530467" stroke-linecap="round"/>
<path d="M33.9752 86.9536L27.6096 90.6669M26.0182 91.7278L24.4268 92.7887" stroke="black" stroke-width="0.530467" stroke-linecap="round"/>
<path d="M34.7709 92.2583L27.0791 96.7673" stroke="black" stroke-width="0.530467" stroke-linecap="round"/>
<path d="M17 77.4387V80.0574C17 80.3504 17.2375 80.5879 17.5305 80.5879H18.0609C18.3539 80.5879 18.5914 80.3504 18.5914 80.0574V78.5986C18.5914 78.0859 19.007 77.6703 19.5197 77.6703C20.0324 77.6703 20.448 78.0859 20.448 78.5986V94.7895C20.448 96.8392 21.5234 98.7385 23.281 99.7931L29.9491 103.794C30.4754 104.11 31.1534 103.787 31.2402 103.179C31.2899 102.831 31.1219 102.488 30.8164 102.313L24.445 98.6722C22.9574 97.8222 22.0394 96.2403 22.0394 94.527V78.3872C22.0394 76.7574 20.5833 75.5131 18.9734 75.7673L18.3432 75.8668C17.5697 75.989 17 76.6557 17 77.4387Z" stroke="black" stroke-width="0.530467"/>
<path d="M18.3271 75.8136L32.3479 67.3093C33.6781 66.5024 35.3907 66.4656 36.4208 67.6315C37.1184 68.421 37.6892 69.3633 37.6892 70.2437V76.8746" stroke="black" stroke-width="0.530467"/>
<path d="M20.449 79.2617C20.1838 79.7038 19.3881 80.5348 18.3271 80.3227" stroke="black" stroke-width="0.530467"/>
<path d="M50.9926 81.6279C51.7926 82.1373 52.2115 83.1614 52.179 84.479C52.1467 85.7906 51.664 87.3437 50.7254 88.8177C49.7865 90.2919 48.5829 91.3866 47.408 91.9706C46.2277 92.5573 45.1226 92.6108 44.3226 92.1013C43.5226 91.5919 43.1038 90.5678 43.1362 89.2502C43.1685 87.9385 43.6516 86.3848 44.5904 84.9107C45.5292 83.4367 46.7324 82.3425 47.9072 81.7586C49.0875 81.1719 50.1926 81.1184 50.9926 81.6279Z" stroke="black" stroke-width="0.530467"/>
<path d="M45.9111 83.5059L48.5635 85.893" stroke="black" stroke-width="0.530467"/>
<path d="M43.5234 87.4839L46.1758 88.2796" stroke="black" stroke-width="0.530467"/>
<ellipse cx="47.3606" cy="87.0136" rx="1.33149" ry="1.99905" transform="rotate(37.3666 47.3606 87.0136)" fill="black"/>
</svg>
