<svg width="260" height="178" viewBox="0 0 260 178" fill="none" xmlns="http://www.w3.org/2000/svg">
<path d="M9.00296 42.4223C8.81225 31.9538 17.8517 21.2723 28.9945 21.8622C29.0101 21.8622 29.0257 21.8622 29.0414 21.8622C39.8801 21.9958 49.5655 31.7557 48.9594 42.3979L49 42.9975L48.3588 43.0193C45.0612 42.9077 41.7635 42.778 38.4659 42.6301C36.9754 42.5632 35.4849 42.4925 33.9944 42.4182C35.4849 42.3439 36.9754 42.2732 38.4659 42.2064C41.556 42.0677 44.6462 41.9457 47.7363 41.839C47.2176 32.019 38.3812 24.2849 29.0414 24.0912C29.0271 24.0912 29.0128 24.0912 28.9986 24.0912C19.2515 23.5892 11.1392 32.2667 10.2418 41.8438C13.2842 41.9494 16.3266 42.0699 19.369 42.2064C20.8595 42.2732 22.35 42.3439 23.8405 42.4182C22.35 42.4925 20.8595 42.5632 19.369 42.6301C16.1126 42.7762 12.8562 42.9045 9.59987 43.0151L9.02812 43.0345L9.00296 42.4223Z" fill="black"/>
<path d="M27.8008 22.1099V6.63096C27.8008 6.01545 28.2998 5.51648 28.9153 5.51648C29.5308 5.51648 30.0297 6.01545 30.0297 6.63096V22.1099C30.0297 22.7254 29.5308 23.2244 28.9153 23.2244C28.2998 23.2244 27.8008 22.7254 27.8008 22.1099Z" fill="black"/>
<path d="M29.5215 6.9711C33.2024 8.11507 36.8833 9.2591 40.5642 10.4031C40.7687 10.4666 40.9733 10.5301 41.1778 10.5937C40.9654 10.5664 40.7529 10.5392 40.5405 10.5119C36.7173 10.0213 32.8941 9.53079 29.0709 9.0402C28.8585 9.01294 28.646 8.98546 28.4336 8.95821C28.5917 8.2323 28.75 7.50643 28.9081 6.78052C29.1126 6.84406 29.317 6.90756 29.5215 6.9711Z" fill="black"/>
<path d="M29.7234 15.2508C33.3013 13.7802 36.879 12.3093 40.4569 10.8386C40.6556 10.7569 40.8545 10.6753 41.0533 10.5936C40.8434 10.6399 40.6336 10.6862 40.4237 10.7325C36.646 11.565 32.8682 12.3976 29.0905 13.2301C28.8806 13.2764 28.6708 13.3227 28.4609 13.3689C28.6829 14.0779 28.905 14.7869 29.127 15.4958C29.3258 15.4141 29.5247 15.3325 29.7234 15.2508Z" fill="black"/>
<path d="M28.6687 28.5491C35.6105 28.4417 40.6001 34.5838 41.9629 40.39C42.1243 41.0596 42.2471 41.7442 42.2902 42.4182C42.1007 41.7707 41.8453 41.1391 41.5631 40.5291C39.0407 35.17 34.266 30.6448 28.6687 30.7781C28.6122 30.7781 28.5549 30.7786 28.4968 30.7795C22.7945 30.775 17.7765 34.9068 15.4413 40.532C15.1676 41.1411 14.9133 41.7686 14.6758 42.4182C14.769 41.7329 14.8889 41.0607 15.0395 40.398C16.1203 34.3735 21.6304 28.4914 28.4622 28.5508C28.5318 28.5497 28.6007 28.5491 28.6687 28.5491Z" fill="black"/>
<path d="M25.5643 29.7185L23.537 30.6453L20.6289 24.284L22.6562 23.3572L25.5643 29.7185Z" fill="black"/>
<path d="M17.4472 36.3596L16.276 38.256L11.1522 35.0913L12.3234 33.1949L17.4472 36.3596Z" fill="black"/>
<path d="M31.5174 42.0468C31.5174 40.5422 30.2977 39.3225 28.7931 39.3225C27.2885 39.3225 26.0688 40.5422 26.0688 42.0468C26.0688 43.5513 27.2885 44.771 28.7931 44.771V47C26.0575 47 23.8398 44.7824 23.8398 42.0468C23.8398 39.3112 26.0575 37.0935 28.7931 37.0935C31.5287 37.0935 33.7463 39.3112 33.7463 42.0468C33.7463 44.7824 31.5287 47 28.7931 47V44.771C30.2977 44.771 31.5174 43.5513 31.5174 42.0468Z" fill="black"/>
<path d="M40.1508 28.9441L32.4276 38.8432C32.2846 39.0265 32.1416 39.2099 31.9985 39.3932C31.7693 39.6871 31.5401 39.981 31.3109 40.2748C30.7196 39.7322 30.1284 39.1894 29.5371 38.6468C29.8102 38.3933 30.0834 38.1397 30.3565 37.8861C30.5269 37.7279 30.6973 37.5697 30.8677 37.4115C33.9347 34.564 37.0017 31.7164 40.0688 28.8689C40.2391 28.7107 40.4095 28.5524 40.5799 28.3942C40.4369 28.5775 40.2938 28.7608 40.1508 28.9441Z" fill="black"/>
<path d="M145.114 44.6478V46.591H114.886V44.6478H145.114ZM147.057 42.7046V13.341C147.057 12.2678 146.187 11.3978 145.114 11.3978H114.886C113.813 11.3978 112.943 12.2678 112.943 13.341V42.7046C112.943 43.7778 113.813 44.6478 114.886 44.6478V46.591C112.74 46.591 111 44.851 111 42.7046V13.341C111 11.1946 112.74 9.45459 114.886 9.45459H145.114C147.26 9.45459 149 11.1946 149 13.341V42.7046C149 44.851 147.26 46.591 145.114 46.591V44.6478C146.187 44.6478 147.057 43.7778 147.057 42.7046Z" fill="black"/>
<path d="M128.566 14.8923L121.431 21.6234L120.098 20.2099L127.233 13.4788L128.566 14.8923Z" fill="black"/>
<path d="M128.548 24.5648L126.978 25.7097L122.055 18.9579L123.625 17.813L128.548 24.5648Z" fill="black"/>
<path d="M119.527 13.7727H121.471V25.6477H119.527V13.7727Z" fill="black"/>
<path d="M138.527 13.8807H140.471V25.7557H138.527V13.8807Z" fill="black"/>
<path d="M135.83 17.5512C135.83 16.5972 135.057 15.8239 134.103 15.8239H131.404V19.2785H134.103C135.057 19.2785 135.83 18.5051 135.83 17.5512ZM137.773 17.5512C137.773 19.5783 136.13 21.2216 134.103 21.2216H131.404V25.7557H129.461V13.8807H134.103C136.13 13.8807 137.773 15.5241 137.773 17.5512Z" fill="black"/>
<path d="M122.227 36.2273V42.9205H115.75V36.2273H122.227ZM117.693 40.9773H120.284V38.1705H117.693V40.9773Z" fill="black"/>
<path d="M129.567 33.2046V42.9205H123.09V33.2046H129.567ZM125.033 40.9773H127.624V35.1478H125.033V40.9773Z" fill="black"/>
<path d="M136.911 30.8296V42.9205H130.434V30.8296H136.911ZM132.377 40.9773H134.968V32.7728H132.377V40.9773Z" fill="black"/>
<path d="M144.251 28.0227V42.9204H137.773V28.0227H144.251ZM139.717 40.9773H142.308V29.9659H139.717V40.9773Z" fill="black"/>
<path d="M138.097 11.2898H136.154V7.94318H123.955V11.2898H122.012V7.1875C122.012 6.53166 122.543 6 123.199 6H136.909C137.565 6 138.097 6.53166 138.097 7.1875V11.2898Z" fill="black"/>
<path d="M213.551 30.5748C213.551 29.9982 214.018 29.5308 214.595 29.5308C215.171 29.5308 215.639 29.9982 215.639 30.5748V43.7992H249.86C250.436 43.7992 250.904 44.2666 250.904 44.8432C250.904 45.4198 250.436 45.8873 249.86 45.8873H213.551V30.5748ZM213.551 27.3267V26.6307C213.551 26.0541 214.018 25.5867 214.595 25.5867C215.171 25.5867 215.639 26.0541 215.639 26.6307V27.3267C215.639 27.9033 215.171 28.3708 214.595 28.3708C214.018 28.3708 213.551 27.9033 213.551 27.3267ZM213.551 23.1506V9.46224C213.551 8.88564 214.018 8.41821 214.595 8.41821C215.171 8.41821 215.639 8.88564 215.639 9.46224V23.1506C215.639 23.7272 215.171 24.1947 214.595 24.1947C214.018 24.1947 213.551 23.7272 213.551 23.1506Z" fill="black"/>
<path d="M217.733 10.3121C218.16 10.699 218.193 11.3593 217.806 11.7868C217.419 12.2144 216.759 12.2473 216.332 11.8605L214.562 10.2591L212.705 11.7782C212.259 12.1433 211.601 12.0776 211.236 11.6314C210.871 11.1852 210.937 10.5275 211.383 10.1623L214.63 7.50537L217.733 10.3121Z" fill="black"/>
<path d="M222.252 44.3791V33.7068H220.279V44.3791C220.279 44.9557 219.812 45.4232 219.235 45.4232C218.659 45.4232 218.191 44.9557 218.191 44.3791V31.6188H224.34V44.3791C224.34 44.9557 223.872 45.4232 223.296 45.4232C222.719 45.4232 222.252 44.9557 222.252 44.3791Z" fill="black"/>
<path d="M229.909 44.4952V38.115H228.053V44.4952C228.053 45.0718 227.585 45.5392 227.009 45.5392C226.432 45.5392 225.965 45.0718 225.965 44.4952V36.027H231.997V44.4952C231.997 45.0718 231.53 45.5392 230.953 45.5392C230.376 45.5392 229.909 45.0718 229.909 44.4952Z" fill="black"/>
<path d="M237.565 44.3792V41.9432H235.709V44.3792C235.709 44.9558 235.242 45.4233 234.665 45.4233C234.089 45.4233 233.621 44.9558 233.621 44.3792V39.8551H239.653V44.3792C239.653 44.9558 239.186 45.4233 238.609 45.4233C238.033 45.4233 237.565 44.9558 237.565 44.3792Z" fill="black"/>
<path d="M245.221 44.3791V37.9989H243.365V44.3791C243.365 44.9557 242.898 45.4232 242.321 45.4232C241.745 45.4232 241.277 44.9557 241.277 44.3791V35.9109H247.31V44.3791C247.31 44.9557 246.842 45.4232 246.265 45.4232C245.689 45.4232 245.221 44.9557 245.221 44.3791Z" fill="black"/>
<path d="M222.599 27.2107C222.599 26.4419 221.975 25.8186 221.207 25.8186C220.438 25.8186 219.815 26.4419 219.815 27.2107C219.815 27.9795 220.438 28.6027 221.207 28.6027V30.6908C219.285 30.6908 217.727 29.1327 217.727 27.2107C217.727 25.2887 219.285 23.7306 221.207 23.7306C223.129 23.7306 224.687 25.2887 224.687 27.2107C224.687 29.1327 223.129 30.6908 221.207 30.6908V28.6027C221.975 28.6027 222.599 27.9795 222.599 27.2107Z" fill="black"/>
<path d="M230.255 31.1548C230.255 30.386 229.632 29.7627 228.863 29.7627C228.094 29.7627 227.471 30.386 227.471 31.1548C227.471 31.9236 228.094 32.5468 228.863 32.5468V34.6349C226.941 34.6349 225.383 33.0768 225.383 31.1548C225.383 29.2328 226.941 27.6747 228.863 27.6747C230.785 27.6747 232.343 29.2328 232.343 31.1548C232.343 33.0768 230.785 34.6349 228.863 34.6349V32.5468C229.632 32.5468 230.255 31.9236 230.255 31.1548Z" fill="black"/>
<path d="M237.911 35.0989C237.911 34.3301 237.288 33.7068 236.519 33.7068C235.75 33.7068 235.127 34.3301 235.127 35.0989C235.127 35.8677 235.75 36.4909 236.519 36.4909V38.579C234.597 38.579 233.039 37.0209 233.039 35.0989C233.039 33.1769 234.597 31.6188 236.519 31.6188C238.441 31.6188 239.999 33.1769 239.999 35.0989C239.999 37.0209 238.441 38.579 236.519 38.579V36.4909C237.288 36.4909 237.911 35.8677 237.911 35.0989Z" fill="black"/>
<path d="M245.571 31.1548C245.571 30.386 244.948 29.7627 244.179 29.7627C243.411 29.7627 242.787 30.386 242.787 31.1548C242.787 31.9236 243.411 32.5468 244.179 32.5468V34.6349C242.257 34.6349 240.699 33.0768 240.699 31.1548C240.699 29.2328 242.257 27.6747 244.179 27.6747C246.101 27.6747 247.659 29.2328 247.659 31.1548C247.659 33.0768 246.101 34.6349 244.179 34.6349V32.5468C244.948 32.5468 245.571 31.9236 245.571 31.1548Z" fill="black"/>
<path d="M222.725 28.2187C223.001 27.7126 223.636 27.5262 224.142 27.8023L226.694 29.1943C227.2 29.4704 227.386 30.1046 227.11 30.6108C226.834 31.1169 226.2 31.3033 225.694 31.0272L223.142 29.6352C222.636 29.3591 222.449 28.7248 222.725 28.2187Z" fill="black"/>
<path d="M230.268 31.8148C230.544 31.3086 231.179 31.1222 231.685 31.3983L234.237 32.7904C234.743 33.0665 234.929 33.7007 234.653 34.2069C234.377 34.713 233.743 34.8994 233.237 34.6233L230.685 33.2313C230.179 32.9551 229.992 32.3209 230.268 31.8148Z" fill="black"/>
<path d="M238.62 34.439C238.896 34.9451 239.53 35.1315 240.036 34.8555L242.588 33.4634C243.095 33.1873 243.281 32.5531 243.005 32.0469C242.729 31.5408 242.095 31.3544 241.588 31.6305L239.036 33.0225C238.53 33.2987 238.344 33.9329 238.62 34.439Z" fill="black"/>
<path d="M229.445 14.3344H231.533V21.7586H229.445V14.3344Z" fill="black"/>
<path d="M235.711 14.3344H237.799V21.7586H235.711V14.3344Z" fill="black"/>
<path d="M241.508 14.3344H243.596V21.7586H241.508V14.3344Z" fill="black"/>
<path d="M238.959 16.8864C238.959 16.6302 238.751 16.4224 238.495 16.4224H235.711V14.3344H238.495C239.904 14.3344 241.047 15.477 241.047 16.8864C241.047 18.2959 239.904 19.4385 238.495 19.4385H235.711V17.3504H238.495C238.751 17.3504 238.959 17.1427 238.959 16.8864Z" fill="black"/>
<path d="M234.595 15.785L232.632 17.9062L235.212 20.4811L233.737 21.959L229.734 17.9637L233.062 14.3669L234.595 15.785Z" fill="black"/>
<path d="M245.57 18.0464C245.57 13.1133 241.571 9.11418 236.637 9.11418C231.704 9.11418 227.705 13.1133 227.705 18.0464C227.705 22.9796 231.704 26.9787 236.637 26.9787V29.0667C230.551 29.0667 225.617 24.1328 225.617 18.0464C225.617 11.9601 230.551 7.02612 236.637 7.02612C242.724 7.02612 247.658 11.9601 247.658 18.0464C247.658 24.1328 242.724 29.0667 236.637 29.0667V26.9787C241.571 26.9787 245.57 22.9796 245.57 18.0464Z" fill="black"/>
<path d="M142.015 80.4761L145.674 76.9961L145.73 76.9448C146.02 76.695 146.39 76.5566 146.773 76.5566H157.974V61.7579H137.662V76.5566H140.419C141.3 76.5566 142.015 77.2711 142.015 78.1525V80.4761ZM160.586 77.5722C160.586 78.4536 159.871 79.1681 158.99 79.1681H147.179L139.403 86.5649V79.1681H136.647C135.765 79.1681 135.051 78.4536 135.051 77.5722V60.7423C135.051 59.8609 135.765 59.1464 136.647 59.1464H158.99C159.871 59.1464 160.586 59.8609 160.586 60.7423V77.5722Z" fill="black"/>
<path d="M135.123 82.8729L131.851 92.0754L123.753 87.6443L118.81 93.4857L116.816 91.7988L123.136 84.33L130.416 88.3136L132.662 81.9982L135.123 82.8729Z" fill="black"/>
<path d="M108.059 76.9919C108.059 74.8284 109.812 73.0746 111.976 73.0746H133.739V75.6861H111.976C111.255 75.6861 110.67 76.2707 110.67 76.9919V96.1431H142.444V84.5363H145.055V98.7547H108.059V76.9919Z" fill="black"/>
<path d="M145.494 98.7546H106.612V98.8997C106.612 99.6208 107.196 100.205 107.917 100.205H144.189C144.91 100.205 145.494 99.6208 145.494 98.8997V98.7546ZM148.106 98.8997C148.106 101.063 146.352 102.817 144.189 102.817H107.917C105.754 102.817 104 101.063 104 98.8997V96.1431H148.106V98.8997Z" fill="black"/>
<path d="M120.683 92.2257C120.683 93.5879 119.579 94.6922 118.216 94.6922C116.854 94.6922 115.75 93.5879 115.75 92.2257C115.75 90.8635 116.854 89.7593 118.216 89.7593C119.579 89.7593 120.683 90.8635 120.683 92.2257Z" fill="black"/>
<path d="M125.62 86.1322C125.62 87.4944 124.516 88.5987 123.154 88.5987C121.792 88.5987 120.688 87.4944 120.688 86.1322C120.688 84.77 121.792 83.6658 123.154 83.6658C124.516 83.6658 125.62 84.77 125.62 86.1322Z" fill="black"/>
<path d="M133.452 89.9043C133.452 91.2665 132.348 92.3708 130.986 92.3708C129.624 92.3708 128.52 91.2665 128.52 89.9043C128.52 88.5421 129.624 87.4379 130.986 87.4379C132.348 87.4379 133.452 88.5421 133.452 89.9043Z" fill="black"/>
<path d="M136.355 82.6502C136.355 84.0123 135.251 85.1166 133.888 85.1166C132.526 85.1166 131.422 84.0123 131.422 82.6502C131.422 81.288 132.526 80.1837 133.888 80.1837C135.251 80.1837 136.355 81.288 136.355 82.6502Z" fill="black"/>
<path d="M138.82 64.0793H141.432V73.3648H138.82V64.0793Z" fill="black"/>
<path d="M146.656 64.0793H149.268V73.3648H146.656V64.0793Z" fill="black"/>
<path d="M153.91 64.0793H156.522V73.3648H153.91V64.0793Z" fill="black"/>
<path d="M150.719 67.2712C150.719 66.9507 150.459 66.6909 150.138 66.6909H146.656V64.0793H150.138C151.901 64.0793 153.33 65.5084 153.33 67.2712C153.33 69.034 151.901 70.4631 150.138 70.4631H146.656V67.8516H150.138C150.459 67.8516 150.719 67.5917 150.719 67.2712Z" fill="black"/>
<path d="M145.262 65.8937L142.808 68.5466L146.034 71.7671L144.189 73.6155L139.184 68.6186L143.345 64.1201L145.262 65.8937Z" fill="black"/>
<path d="M39.918 77.6251V69.9574H11.2261V97.5362H34.7237C35.3385 97.5362 35.8368 98.0346 35.8368 98.6493C35.8368 99.264 35.3385 99.7623 34.7237 99.7623H9V67.7313H42.1441V77.6251C42.1441 78.2398 41.6457 78.7381 41.031 78.7381C40.4163 78.7381 39.918 78.2398 39.918 77.6251Z" fill="black"/>
<path d="M32.868 94.3208C33.4828 94.3208 33.9811 94.8191 33.9811 95.4338C33.9811 96.0486 33.4828 96.5469 32.868 96.5469H13.3279C12.7132 96.5469 12.2148 96.0486 12.2148 95.4338C12.2148 94.8191 12.7132 94.3208 13.3279 94.3208H32.868Z" fill="black"/>
<path d="M18.03 92.5894V84.7981H14.3198V92.5894C14.3198 93.2042 13.8215 93.7025 13.2068 93.7025C12.5921 93.7025 12.0938 93.2042 12.0938 92.5894V82.572H20.2561V92.5894C20.2561 93.2042 19.7578 93.7025 19.143 93.7025C18.5283 93.7025 18.03 93.2042 18.03 92.5894Z" fill="black"/>
<path d="M27.4284 92.5893V80.5932H23.7183V92.5893C23.7183 93.204 23.22 93.7024 22.6052 93.7024C21.9905 93.7024 21.4922 93.204 21.4922 92.5893V78.3671H29.6545V92.5893C29.6545 93.204 29.1562 93.7024 28.5415 93.7024C27.9268 93.7024 27.4284 93.204 27.4284 92.5893Z" fill="black"/>
<path d="M36.8269 80.0985V76.8831H33.1167V92.5894C33.1167 93.2041 32.6184 93.7024 32.0037 93.7024C31.389 93.7024 30.8906 93.2041 30.8906 92.5894V74.657H39.053V80.0985C39.053 80.7133 38.5546 81.2116 37.9399 81.2116C37.3252 81.2116 36.8269 80.7133 36.8269 80.0985Z" fill="black"/>
<path d="M46.1017 81.2236C40.8674 81.4814 36.7027 85.807 36.7027 91.1053C36.7027 96.5695 41.1322 100.999 46.5964 100.999C51.9407 100.999 56.2945 96.7616 56.4829 91.4633L58.7083 91.5398C58.4795 98.0322 53.1445 103.225 46.5964 103.225C39.9028 103.225 34.4766 97.7989 34.4766 91.1053C34.4766 84.5774 39.6375 79.2551 46.1017 78.9956V81.2236Z" fill="black"/>
<path d="M48.3626 76.647C57.9426 78.0308 60.757 85.5314 60.9402 89.1947L60.9986 90.3633H46.5469L47.1442 76.4712L48.3626 76.647ZM48.8708 88.1372H58.5682C57.98 85.1324 55.5999 80.4777 49.2604 79.0719L48.8708 88.1372Z" fill="black"/>
<path d="M45.7822 91.9158L50.765 100.177L48.8588 101.327L44.9665 94.8738L41.0206 99.6093L39.3104 98.1842L42.9343 93.8352L36.207 93.0772L36.4563 90.8651L45.7822 91.9158Z" fill="black"/>
<path d="M215.242 84.6038V74.1942C215.242 73.6318 215.698 73.1759 216.261 73.1759C216.823 73.1759 217.279 73.6318 217.279 74.1942V84.6038C217.279 85.1662 216.823 85.6221 216.261 85.6221C215.698 85.6221 215.242 85.1662 215.242 84.6038Z" fill="black"/>
<path d="M220.468 74.6442C220.844 74.2263 221.488 74.1927 221.906 74.569C222.324 74.9454 222.357 75.5893 221.981 76.0072L219.016 79.2993L222.869 83.2102C223.264 83.6109 223.259 84.2557 222.858 84.6504C222.458 85.0451 221.813 85.0402 221.418 84.6396L217.491 80.6527C216.777 79.9277 216.751 78.7718 217.432 78.0156L220.468 74.6442Z" fill="black"/>
<path d="M231.309 77.2543C231.309 76.2517 230.496 75.4389 229.493 75.4389H227.009V79.6479H228.915C230.237 79.6479 231.309 78.5763 231.309 77.2543ZM233.346 77.2543C233.346 79.7011 231.362 81.6845 228.915 81.6845H227.009V84.8301C227.009 85.3925 226.553 85.8485 225.991 85.8485C225.429 85.8485 224.973 85.3925 224.973 84.8301V74.6468C224.973 73.9595 225.53 73.4022 226.217 73.4022H229.493C231.621 73.4022 233.346 75.1269 233.346 77.2543Z" fill="black"/>
<path d="M234.703 84.6038V74.1942C234.703 73.6318 235.159 73.1759 235.721 73.1759C236.284 73.1759 236.74 73.6318 236.74 74.1942V84.6038C236.74 85.1662 236.284 85.6221 235.721 85.6221C235.159 85.6221 234.703 85.1662 234.703 84.6038Z" fill="black"/>
<path d="M238.251 90.9976L238.334 90.9147L238.407 90.8458C239.17 90.1558 240.352 90.1879 241.076 90.9355L250.546 100.708C251.276 101.462 251.267 102.663 250.525 103.406L248.659 105.275C247.907 106.027 246.688 106.027 245.937 105.275L236.322 95.6481C235.572 94.8971 235.572 93.6805 236.322 92.9295L236.81 92.44L235.652 91.1753L237.155 89.7998L238.251 90.9976ZM237.843 94.2888L247.297 103.756L249.005 102.046L239.694 92.4353L237.843 94.2888Z" fill="black"/>
<path d="M213.205 94.4476V105.762H208V94.4476H213.205ZM210.037 103.726H211.168V96.4843H210.037V103.726Z" fill="black"/>
<path d="M219.541 92.4109V105.762H214.336V92.4109H219.541ZM216.373 103.726H217.504V94.4475H216.373V103.726Z" fill="black"/>
<path d="M225.881 89.9218V105.762H220.676V89.9218H225.881ZM222.712 103.726H223.844V91.9584H222.712V103.726Z" fill="black"/>
<path d="M232.213 86.9799V105.762H227.008V86.9799H232.213ZM229.044 103.726H230.176V89.0165H229.044V103.726Z" fill="black"/>
<path d="M226.103 63.7847C234.789 63.7847 241.83 70.8261 241.83 79.5122C241.83 85.7222 238.231 91.0913 233.005 93.6479V91.3381C237.065 88.9629 239.793 84.5563 239.793 79.5122C239.793 71.9509 233.664 65.8213 226.103 65.8213C218.541 65.8213 212.412 71.9509 212.412 79.5122C212.412 83.2091 213.877 86.5636 216.259 89.027V91.7787C212.671 88.8962 210.375 84.4724 210.375 79.5122C210.375 70.8261 217.416 63.7847 226.103 63.7847Z" fill="black"/>
<path d="M139.156 134.783V139.631H136.974V136.965H134.43V134.783H139.156Z" fill="black"/>
<path d="M127.763 125.332V127.392H125.582V125.332H127.763Z" fill="black"/>
<path d="M127.763 157.444V166.168H125.582V157.444H127.763Z" fill="black"/>
<path d="M131.829 164.328L130.245 165.828L126.643 162.026L122.71 165.859L121.188 164.297L126.706 158.92L131.829 164.328Z" fill="black"/>
<path d="M121.935 144.212L114.786 150.392L113.359 148.742L120.509 142.562L121.935 144.212Z" fill="black"/>
<path d="M137.965 137.639L129.505 145.578L124.93 143.005L125.999 141.104L129.179 142.892L136.472 136.048L137.965 137.639Z" fill="black"/>
<path d="M140.124 152.839V155.02H113.465V152.839H140.124Z" fill="black"/>
<path d="M124.251 148.961V153.929H122.069V151.142H120.009V153.929H117.828V148.961H124.251Z" fill="black"/>
<path d="M131.583 146.538V153.929H129.401V148.719H127.22V153.929H125.039V146.538H131.583Z" fill="black"/>
<path d="M139.337 143.387V153.93H137.155V145.568H134.974V153.93H132.793V143.387H139.337Z" fill="black"/>
<path d="M108.016 155.262V131.512H110.197V155.262C110.197 155.865 110.685 156.353 111.287 156.353H142.43C143.032 156.353 143.521 155.865 143.521 155.262V131.512H145.702V155.262C145.702 157.069 144.237 158.534 142.43 158.534H111.287C109.48 158.534 108.016 157.069 108.016 155.262Z" fill="black"/>
<path d="M145.821 129.088C145.821 128.887 145.658 128.725 145.457 128.725H108.377C108.176 128.725 108.013 128.887 108.013 129.088V130.057C108.013 130.258 108.176 130.421 108.377 130.421H145.457C145.658 130.421 145.821 130.258 145.821 130.057V129.088ZM148.002 130.057C148.002 131.463 146.862 132.602 145.457 132.602H108.377C106.971 132.602 105.832 131.463 105.832 130.057V129.088C105.832 127.683 106.971 126.543 108.377 126.543H145.457C146.862 126.543 148.002 127.683 148.002 129.088V130.057Z" fill="black"/>
<path d="M124.859 142.296C124.859 141.56 124.262 140.963 123.526 140.963C122.79 140.963 122.193 141.56 122.193 142.296C122.193 143.033 122.79 143.629 123.526 143.629V145.811C121.585 145.811 120.012 144.237 120.012 142.296C120.012 140.356 121.585 138.782 123.526 138.782C125.467 138.782 127.04 140.356 127.04 142.296C127.04 144.237 125.467 145.811 123.526 145.811V143.629C124.262 143.629 124.859 143.033 124.859 142.296Z" fill="black"/>
<path d="M49.9639 144.398V149.357H48.0234V144.398H49.9639Z" fill="black"/>
<path d="M42.3113 161.323V163.263H9V161.323H42.3113Z" fill="black"/>
<path d="M17.6236 153.453V161.538H15.6831V155.393H11.6944V161.538H9.75391V153.453H17.6236Z" fill="black"/>
<path d="M37.6748 151.836V161.646H35.7344V151.836H37.6748ZM43.604 133.941V137.283H41.6636V135.881H37.6748V141.595H35.7344V133.941H43.604Z" fill="black"/>
<path d="M26.3009 147.524V161.646H24.3605V149.464H20.4795V161.646H18.5391V147.524H26.3009Z" fill="black"/>
<path d="M34.8712 140.409V161.431H32.9308V142.349H29.0498V161.431H27.1094V140.409H34.8712Z" fill="black"/>
<path d="M33.3995 127.731L14.1027 146.812L12.7383 145.432L32.0351 126.351L33.3995 127.731Z" fill="black"/>
<path d="M33.3618 136.572L31.4235 136.484L31.8052 128.082L23.2946 128.656L23.1641 126.72L33.8425 126L33.3618 136.572Z" fill="black"/>
<path d="M40.8368 137.545C42.8504 136.923 45.0047 136.923 47.0183 137.545C52.9539 139.379 55.6242 146.272 52.4733 151.626L45.3212 163.779C44.6959 164.841 43.1592 164.841 42.5339 163.779L35.3818 151.626C32.2309 146.272 34.9012 139.379 40.8368 137.545ZM46.4456 139.4C44.8051 138.893 43.05 138.893 41.4095 139.4C36.6704 140.864 34.5384 146.367 37.0542 150.641L43.9276 162.32L50.8009 150.641C53.3167 146.367 51.1847 140.864 46.4456 139.4Z" fill="black"/>
<path d="M39.8311 144.398V149.249H37.8906V144.398H39.8311Z" fill="black"/>
<path d="M42.3188 145.116C42.2693 145.167 42.2197 145.219 42.1702 145.27C41.279 146.19 40.3877 147.11 39.4965 148.03C39.447 148.081 39.3976 148.132 39.3481 148.183C38.9521 147.672 38.5561 147.16 38.1602 146.649C38.222 146.614 38.284 146.579 38.3459 146.544C39.4598 145.911 40.5736 145.279 41.6876 144.646C41.7494 144.611 41.8114 144.576 41.8733 144.541C42.0217 144.733 42.1703 144.925 42.3188 145.116Z" fill="black"/>
<path d="M45.0069 144.829V149.356H43.0664V144.829H45.0069Z" fill="black"/>
<path d="M46.4083 146.176C46.4083 145.908 46.1911 145.691 45.9232 145.691H43.0664V144.398H45.9232C46.9056 144.398 47.702 145.194 47.702 146.176C47.702 147.159 46.9056 147.955 45.9232 147.955H44.36V146.661H45.9232C46.1911 146.661 46.4083 146.444 46.4083 146.176Z" fill="black"/>
<path d="M41.1153 146.228C41.585 147.146 42.0547 148.065 42.5244 148.983C42.5505 149.034 42.5766 149.085 42.6027 149.136C42.4096 149.283 42.2164 149.43 42.0233 149.577C41.9811 149.538 41.9389 149.499 41.8967 149.46C41.1374 148.762 40.378 148.063 39.6187 147.365C39.5766 147.326 39.5344 147.287 39.4922 147.249C40.0072 146.857 40.5223 146.466 41.0372 146.074C41.0633 146.125 41.0893 146.177 41.1153 146.228Z" fill="black"/>
<path d="M239.156 158.752V149.511H244.186C244.767 149.511 245.239 149.982 245.239 150.564C245.239 151.145 244.767 151.617 244.186 151.617H241.262V153.605H243.484C244.066 153.605 244.537 154.076 244.537 154.658C244.537 155.239 244.066 155.711 243.484 155.711H241.262V158.752C241.262 159.333 240.79 159.805 240.209 159.805C239.628 159.805 239.156 159.333 239.156 158.752Z" fill="black"/>
<path d="M221.669 144.952C223.525 139.671 230.732 139.923 232.323 144.985L232.638 145.99L230.63 146.621L230.314 145.616C229.332 142.491 224.841 142.275 223.656 145.65L223.307 146.643L221.32 145.945L221.669 144.952Z" fill="black"/>
<path d="M232.342 137.876C232.76 137.472 233.426 137.483 233.83 137.901C234.235 138.319 234.223 138.986 233.805 139.39L230.296 142.782C229.878 143.186 229.212 143.175 228.808 142.757C228.403 142.339 228.415 141.672 228.833 141.268L232.342 137.876Z" fill="black"/>
<path d="M226.902 126L226.932 126.002C234.828 126.44 239.874 129.865 242.925 134.028C245.945 138.147 246.971 142.929 246.992 146.112L246.999 147.172H206.871V146.119C206.871 138.429 210.137 133.355 214.312 130.233C218.439 127.147 223.406 126 226.873 126H226.902ZM226.845 128.106C223.763 128.112 219.271 129.154 215.573 131.92C212.097 134.519 209.278 138.666 209 145.066H244.84C244.624 142.29 243.621 138.537 241.227 135.272C238.549 131.619 234.09 128.516 226.845 128.106Z" fill="black"/>
<path d="M227.036 130.153L227.067 130.154C232.875 130.495 236.848 133.096 239.356 136.24C241.834 139.347 242.883 142.981 242.9 145.468L242.908 146.521L240.802 146.536L240.795 145.483C240.781 143.476 239.899 140.297 237.71 137.553C235.555 134.851 232.132 132.569 226.976 132.258C224.494 132.265 221.258 133.123 218.569 135.203C215.902 137.267 213.736 140.56 213.392 145.548L213.319 146.599L211.219 146.454L211.291 145.403C211.678 139.806 214.147 135.963 217.281 133.538C220.382 131.138 224.098 130.153 227.005 130.153H227.036Z" fill="black"/>
<path d="M215.25 149.574L214.485 152.173L211.28 152.814L211.458 154.775H213.969L215.714 158.44L214.087 160.392L215.154 161.684L217.519 160.142L221.103 161.608L221.737 164.249H223.402L223.805 161.727L227.162 159.713L229.536 161.439L230.655 160.208L229.04 158.055L230.733 154.5L233.306 154.192V152.797L230.475 152.118L230.155 149.4L232.246 149.154L232.394 150.413L235.411 151.137V156.06L232.135 156.453L231.489 157.81L233.383 160.337L229.824 164.252L227.051 162.235L225.729 163.028L225.197 166.355H220.077L219.307 163.148L217.744 162.508L214.729 164.475L211.351 160.386L213.233 158.128L212.639 156.88H209.535L209.012 151.121L212.824 150.358L213.23 148.98L215.25 149.574Z" fill="black"/>
<path d="M225.236 153.488C225.236 152.002 224.032 150.798 222.546 150.798C221.06 150.798 219.855 152.002 219.855 153.488C219.855 154.974 221.06 156.179 222.546 156.179V158.284C219.897 158.284 217.75 156.137 217.75 153.488C217.75 150.84 219.897 148.692 222.546 148.692C225.194 148.692 227.342 150.84 227.342 153.488C227.342 156.137 225.194 158.284 222.546 158.284V156.179C224.032 156.179 225.236 154.974 225.236 153.488Z" fill="black"/>
<path d="M242.316 162.495C242.316 161.332 241.374 160.389 240.211 160.389C239.048 160.389 238.105 161.332 238.105 162.495C238.105 163.658 239.048 164.6 240.211 164.6V166.706C237.885 166.706 236 164.821 236 162.495C236 160.169 237.885 158.284 240.211 158.284C242.537 158.284 244.422 160.169 244.422 162.495C244.422 164.821 242.537 166.706 240.211 166.706V164.6C241.374 164.6 242.316 163.658 242.316 162.495Z" fill="black"/>
</svg>
