<svg width="260" height="178" viewBox="0 0 260 178" fill="none" xmlns="http://www.w3.org/2000/svg">
<path d="M46.0664 31.5209V14.8898C46.0664 12.2456 43.9228 10.102 41.2785 10.102H21.8195C19.1753 10.102 17.0317 12.2456 17.0317 14.8898V31.4406C17.0316 32.021 16.5611 32.4916 15.9807 32.4916C15.4003 32.4916 14.9297 32.021 14.9297 31.4406V14.8898C14.9297 11.0847 18.0144 8 21.8195 8H41.2785C45.0837 8 48.1684 11.0847 48.1684 14.8898V31.5209C48.1683 32.1013 47.6978 32.5719 47.1174 32.5719C46.537 32.5719 46.0664 32.1013 46.0664 31.5209Z" fill="black"/>
<path d="M47.5921 30.8711L53.1241 37.1871C55.4385 39.8293 53.5621 43.9672 50.0496 43.9672H13.0951C9.60666 43.9672 7.72159 39.8785 9.98704 37.2258L15.414 30.8711H47.5921ZM11.5854 38.5909C10.4851 39.8793 11.4007 41.8652 13.0951 41.8652H50.0496C51.7557 41.8652 52.6672 39.8553 51.5431 38.572L46.6389 32.9731H16.3831L11.5854 38.5909Z" fill="black"/>
<path d="M37.1627 36.6489C37.7431 36.6489 38.2137 37.1195 38.2137 37.6999C38.2137 38.2804 37.7431 38.7509 37.1627 38.7509H26.008C25.4276 38.7509 24.957 38.2804 24.957 37.6999C24.957 37.1195 25.4276 36.6489 26.008 36.6489H37.1627Z" fill="black"/>
<path d="M32.9905 14.0264C32.9905 14.8242 32.3438 15.4709 31.546 15.4709C30.7483 15.4709 30.1016 14.8242 30.1016 14.0264C30.1016 13.2286 30.7483 12.5819 31.546 12.5819C32.3438 12.5819 32.9905 13.2286 32.9905 14.0264Z" fill="black"/>
<path d="M225.808 42.4958V37.1947H208V9H250.028V37.1947H235.931C235.258 37.1947 234.712 36.6493 234.712 35.9765C234.712 35.3038 235.258 34.7584 235.931 34.7584H247.591V11.4363H210.436V34.7584H228.244V42.4958C228.244 43.1685 227.699 43.7139 227.026 43.7139C226.354 43.7139 225.808 43.1684 225.808 42.4958Z" fill="black"/>
<path d="M232.116 12.7214C232.788 12.7214 233.334 13.2668 233.334 13.9396C233.334 14.6123 232.788 15.1577 232.116 15.1577H226.074C225.401 15.1577 224.855 14.6123 224.855 13.9396C224.855 13.2668 225.401 12.7214 226.074 12.7214H232.116Z" fill="black"/>
<path d="M238.95 41.7545C239.623 41.7545 240.169 42.2999 240.169 42.9727C240.169 43.6454 239.623 44.1908 238.95 44.1908H218.757C218.084 44.1908 217.539 43.6454 217.539 42.9727C217.539 42.2999 218.084 41.7545 218.757 41.7545H238.95Z" fill="black"/>
<path d="M110.117 39.2749V35.6738H146.427C146.929 35.6738 147.336 35.2665 147.336 34.7642V11.725C147.336 11.2226 146.929 10.8153 146.427 10.8153H113.366C112.864 10.8153 112.456 11.2226 112.456 11.725V31.8417C112.456 32.4876 111.933 33.0113 111.287 33.0113C110.641 33.0113 110.117 32.4876 110.117 31.8417V11.725C110.117 9.93074 111.572 8.4762 113.366 8.4762H146.427C148.221 8.4762 149.676 9.93074 149.676 11.725V34.7642C149.675 36.5584 148.221 38.013 146.427 38.013H112.456V39.2749C112.456 39.7773 112.864 40.1846 113.366 40.1846H149.753C150.255 40.1846 150.662 39.7773 150.662 39.2749V33.5266C150.662 32.8806 151.186 32.357 151.832 32.357C152.478 32.357 153.001 32.8806 153.001 33.5266V39.2749C153.001 41.0692 151.547 42.5237 149.753 42.5237H113.366C111.572 42.5237 110.117 41.0692 110.117 39.2749Z" fill="black"/>
<path d="M28.2221 72.3058C28.4046 71.6238 29.1053 71.2189 29.7873 71.4014C30.4692 71.5839 30.8741 72.2846 30.6916 72.9665L30.0835 75.239C29.901 75.921 29.2004 76.3259 28.5184 76.1434C27.8364 75.9609 27.4316 75.2602 27.6141 74.5783L28.2221 72.3058Z" fill="black"/>
<path d="M32.0971 72.3058C32.2796 71.6238 32.9803 71.2189 33.6623 71.4014C34.3442 71.5839 34.7491 72.2846 34.5666 72.9665L33.9585 75.239C33.776 75.921 33.0754 76.3259 32.3934 76.1434C31.7114 75.9609 31.3066 75.2602 31.4891 74.5783L32.0971 72.3058Z" fill="black"/>
<path d="M30.237 61.1462C32.0013 61.0669 33.8673 61.4582 35.5831 62.5923C37.297 63.7251 38.7748 65.5415 39.8646 68.1698C41.2643 71.5456 40.584 76.1976 38.1122 79.5276C36.8545 81.2219 35.106 82.6142 32.8804 83.3241C30.6511 84.0351 28.0324 84.0331 25.0836 83.0853C23.4602 82.5634 21.3073 81.1004 19.9275 78.6368C18.518 76.12 17.9659 72.6532 19.4318 68.2552C19.6551 67.5855 20.3791 67.2234 21.0488 67.4466C21.7186 67.6699 22.0804 68.3939 21.8572 69.0636C20.5962 72.8465 21.1337 75.5581 22.1581 77.3874C23.2124 79.2699 24.8382 80.321 25.8659 80.6513C28.3851 81.4611 30.4535 81.4144 32.1034 80.8882C33.7569 80.3609 35.0798 79.3231 36.0591 78.0038C38.0614 75.3064 38.5175 71.5964 37.5027 69.149C36.568 66.8948 35.3823 65.5241 34.1733 64.725C32.9663 63.9272 31.65 63.6417 30.3518 63.7C29.0416 63.7589 27.7576 64.1698 26.6798 64.7547C25.587 65.3478 24.7995 66.0682 24.4137 66.6593C24.0279 67.2506 23.2359 67.4171 22.6447 67.0313C22.0535 66.6456 21.8869 65.8536 22.2727 65.2623C22.9528 64.2202 24.1097 63.2404 25.4604 62.5074C26.8261 61.7663 28.4848 61.225 30.237 61.1462Z" fill="black"/>
<path d="M17.0318 98.34C17.2693 97.6751 18.0009 97.3286 18.6657 97.566C19.2867 97.7878 19.8946 98.1289 20.4747 98.4651C21.0803 98.816 21.6969 99.1872 22.4396 99.5669C23.8942 100.311 25.8189 101.078 28.6429 101.481C29.3417 101.581 29.8273 102.229 29.7275 102.928C29.6276 103.627 28.98 104.112 28.2811 104.012C25.1399 103.564 22.9456 102.697 21.2756 101.843C20.4559 101.424 19.7587 101.005 19.1925 100.677C18.6009 100.334 18.179 100.107 17.8058 99.9739C17.141 99.7364 16.7944 99.0048 17.0318 98.34Z" fill="black"/>
<path d="M42.9366 84.1336C47.1714 84.0691 51.6446 84.2429 54.5315 84.4276C55.236 84.4727 55.7705 85.0805 55.7255 85.785C55.6803 86.4895 55.0726 87.024 54.3681 86.9789C51.5314 86.7974 47.1276 86.6266 42.9754 86.6899C40.8986 86.7215 38.903 86.8116 37.2065 86.9845C35.5158 87.1568 34.2317 87.4022 33.4624 87.701C32.6119 89.1297 31.4582 91.451 30.5854 94.0832C29.7757 96.5253 29.2373 99.149 29.3488 101.538C34.8001 101.858 45.1064 102.204 50.5888 101.48L50.6983 101.465C50.7397 101.433 50.8017 101.38 50.8839 101.294C51.1829 100.982 51.613 100.37 52.1198 99.2893C53.1295 97.1356 54.3359 93.3525 55.463 87.0408C55.5872 86.3459 56.2511 85.8831 56.946 86.0072C57.641 86.1313 58.1037 86.7952 57.9796 87.4902C56.8342 93.9044 55.5788 97.9335 54.4344 100.374C53.8642 101.591 53.2941 102.472 52.732 103.061C52.2653 103.549 51.5955 104.045 50.7999 104.03C44.7858 104.798 33.7411 104.377 28.5571 104.053C27.6855 103.998 26.938 103.327 26.8485 102.41C26.5512 99.3582 27.2234 96.1004 28.159 93.2788C29.099 90.4437 30.3395 87.9459 31.277 86.3745C31.527 85.9554 31.9169 85.5672 32.4524 85.3508L32.6679 85.2682C33.774 84.8642 35.2938 84.6095 36.9474 84.441C38.7443 84.2578 40.8199 84.1658 42.9366 84.1336Z" fill="black"/>
<path d="M15.9613 93.7989V87.6277C15.1958 89.3155 14.5015 91.0732 14.0555 92.6493C13.6482 94.0886 13.4896 95.2362 13.5814 96.0009C13.6258 96.3702 13.7184 96.5589 13.7847 96.6461C13.8301 96.7058 13.8962 96.7666 14.0702 96.8034C16.2399 97.17 22.008 97.7961 27.6508 97.3535C28.3546 97.2984 28.9698 97.8243 29.025 98.528C29.0802 99.2318 28.5543 99.8471 27.8505 99.9023C21.9252 100.367 15.9169 99.7116 13.6164 99.32L13.5983 99.317L13.5803 99.3134C12.8285 99.163 12.1983 98.7835 11.7497 98.1935C11.3211 97.6298 11.1215 96.9584 11.0432 96.3058C10.8895 95.0267 11.1629 93.4819 11.5955 91.9533C12.4728 88.8529 14.18 85.2382 15.5945 82.6264L15.6325 82.559C16.4554 81.1786 18.5177 81.8288 18.5178 83.3707V93.7989C18.5178 94.5048 17.9455 95.0771 17.2395 95.0771C16.5336 95.0771 15.9613 94.5048 15.9613 93.7989Z" fill="black"/>
<path d="M143.569 61.9823C145.194 61.9823 146.561 63.1987 146.75 64.8123L148.913 83.2669C149.136 85.1704 147.649 86.8423 145.732 86.8423H114.352C112.415 86.8423 110.922 85.1375 111.177 83.2182L113.628 64.7633C113.839 63.1715 115.197 61.9823 116.803 61.9823H143.569ZM116.803 64.1174C116.267 64.1174 115.815 64.5139 115.744 65.0445L113.293 83.4991C113.208 84.1389 113.706 84.7072 114.352 84.7072H145.732C146.371 84.7072 146.867 84.15 146.792 83.5155L144.63 65.0606C144.567 64.5228 144.111 64.1174 143.569 64.1174H116.803Z" fill="black"/>
<path d="M117.41 87.195V85.9523C117.41 85.3627 117.888 84.8848 118.478 84.8848C119.067 84.8848 119.545 85.3627 119.545 85.9523V87.195C119.545 87.7846 119.067 88.2626 118.478 88.2626C117.888 88.2626 117.41 87.7846 117.41 87.195Z" fill="black"/>
<path d="M139.781 87.5503V85.9523C139.781 85.3627 140.259 84.8848 140.849 84.8848C141.438 84.8848 141.916 85.3627 141.916 85.9523V87.5503C141.916 88.1398 141.438 88.6178 140.849 88.6178C140.259 88.6178 139.781 88.1398 139.781 87.5503Z" fill="black"/>
<path d="M146.863 87.1927C148.424 87.1928 149.757 88.3183 150.02 89.8572L151.955 101.21C152.288 103.166 150.782 104.951 148.798 104.951H111.52C109.579 104.951 108.084 103.239 108.346 101.316L109.894 89.9628C110.111 88.3759 111.466 87.1927 113.068 87.1927H146.863ZM113.068 89.3279C112.534 89.3279 112.082 89.7223 112.01 90.2513L110.462 101.604C110.374 102.245 110.873 102.816 111.52 102.816H148.798C149.459 102.816 149.961 102.221 149.85 101.569L147.915 90.2161C147.828 89.7031 147.383 89.3279 146.863 89.3279H113.068Z" fill="black"/>
<path d="M136.057 101.398H123.984L125.582 96.4271H134.282L136.057 101.398ZM126.913 99.2631H133.027L132.777 98.5622H127.139L126.913 99.2631Z" fill="black"/>
<path d="M132.507 65.0005C133.097 65.0005 133.575 65.4784 133.575 66.068C133.575 66.6576 133.097 67.1356 132.507 67.1356H127.536C126.947 67.1356 126.469 66.6576 126.469 66.068C126.469 65.4784 126.947 65.0005 127.536 65.0005H132.507Z" fill="black"/>
<path d="M247.759 94.2012V70.686H212.608V94.2012C212.608 94.8037 212.119 95.2921 211.517 95.2921C210.914 95.2921 210.426 94.8037 210.426 94.2012V68.5042H249.941V94.2012C249.941 94.8037 249.453 95.2921 248.85 95.2921C248.248 95.2921 247.759 94.8037 247.759 94.2012Z" fill="black"/>
<path d="M249.818 95.6557H210.182V97.5951C210.182 98.5993 210.996 99.4133 212 99.4133H248C249.004 99.4133 249.818 98.5993 249.818 97.5951V95.6557ZM252 97.5951C252 99.8042 250.209 101.595 248 101.595H212C209.791 101.595 208 99.8042 208 97.5951V93.4739H252V97.5951Z" fill="black"/>
<path d="M214.422 91.4133V77.9587C214.422 77.3562 214.91 76.8678 215.513 76.8678C216.115 76.8678 216.604 77.3562 216.604 77.9587V91.4133C216.604 92.0158 216.115 92.5042 215.513 92.5042C214.91 92.5042 214.422 92.0158 214.422 91.4133Z" fill="black"/>
<path d="M214.422 75.0496V73.3526C214.422 72.7501 214.91 72.2617 215.513 72.2617C216.115 72.2617 216.604 72.7501 216.604 73.3526V75.0496C216.604 75.6521 216.115 76.1405 215.513 76.1405C214.91 76.1405 214.422 75.6521 214.422 75.0496Z" fill="black"/>
<path d="M226.062 96.7466C226.664 96.7466 227.152 97.235 227.152 97.8375C227.152 98.44 226.664 98.9284 226.062 98.9284H216.122C215.52 98.9284 215.031 98.44 215.031 97.8375C215.031 97.235 215.52 96.7466 216.122 96.7466H226.062Z" fill="black"/>
<path d="M213.577 96.6255C214.179 96.6255 214.668 97.1139 214.668 97.7164C214.668 98.3189 214.179 98.8073 213.577 98.8073H212.243C211.641 98.8073 211.152 98.3189 211.152 97.7164C211.152 97.1139 211.641 96.6255 212.243 96.6255H213.577Z" fill="black"/>
<path d="M39.0142 129.478H19.2644C18.0505 129.478 17.0664 130.462 17.0664 131.676V152.713C17.0664 153.927 18.0505 154.911 19.2644 154.911H54.7455C55.9594 154.911 56.9434 153.927 56.9434 152.713V146.697" stroke="black" stroke-width="2.51194" stroke-linecap="round"/>
<path d="M17.8498 154.597L10.4474 163.184C10.272 163.387 10.4166 163.703 10.6852 163.703H63.5153C63.7777 163.703 63.9243 163.4 63.7616 163.194L56.4708 153.969" stroke="black" stroke-width="2.51194" stroke-linecap="round"/>
<path d="M43.439 158.993H30.7223L29.1523 161.034H45.0089L43.439 158.993Z" stroke="black" stroke-width="1.56996" stroke-linecap="round"/>
<path d="M33.5508 147.689V143.607H37.6327V147.689H33.5508Z" stroke="black" stroke-width="2.19795" stroke-linecap="round"/>
<path d="M36.6875 140.468V136.386H40.7694V140.468H36.6875Z" stroke="black" stroke-width="2.19795" stroke-linecap="round"/>
<path d="M42.3438 133.246V129.164H46.4256V133.246H42.3438Z" stroke="black" stroke-width="1.88395" stroke-linecap="round"/>
<path d="M41.082 146.747V143.293H44.5359V146.747H41.082Z" stroke="black" stroke-width="1.88395" stroke-linecap="round"/>
<path d="M44.2227 139.84V136.386H47.6766V139.84H44.2227Z" stroke="black" stroke-width="1.88395" stroke-linecap="round"/>
<path d="M48.3125 146.747V142.665H52.3944V146.747H48.3125Z" stroke="black" stroke-width="2.19795" stroke-linecap="round"/>
<path d="M55.8438 143.293V136.7H62.1236V143.293H55.8438Z" stroke="black" stroke-width="2.51194" stroke-linecap="round"/>
<path d="M49.5625 133.874V128.536H54.9004V133.874H49.5625Z" stroke="black" stroke-width="2.19795" stroke-linecap="round"/>
<path d="M49.875 125.71V121.314H54.2709V125.71H49.875Z" stroke="black" stroke-width="1.88395" stroke-linecap="round"/>
<path d="M58.3555 130.106V121H67.1472V130.106H58.3555Z" stroke="black" stroke-width="2.51194" stroke-linecap="round"/>
<path d="M228.679 142.547C230.698 142.547 232.48 143.863 233.074 145.793L238.008 161.83H244.587C245.325 161.83 245.922 162.428 245.922 163.165C245.922 163.902 245.325 164.5 244.587 164.5H209.76L205.178 148.404C204.343 145.467 206.548 142.547 209.601 142.547H228.679ZM209.601 145.217C208.321 145.217 207.396 146.442 207.746 147.673L211.775 161.83H235.215L230.522 146.578C230.273 145.769 229.525 145.217 228.679 145.217H209.601Z" fill="black"/>
<path d="M247.259 147.59V144.873C247.259 139.902 242.871 136.075 237.947 136.749L233.039 137.422C229.634 137.888 226.579 139.756 224.613 142.575L223.582 144.052C223.16 144.657 222.328 144.805 221.723 144.383C221.119 143.961 220.971 143.129 221.393 142.524L222.423 141.047C224.816 137.618 228.534 135.344 232.677 134.776L237.585 134.104C244.113 133.21 249.929 138.284 249.929 144.873V147.59C249.929 153.57 245.081 158.418 239.101 158.418H235.689C234.952 158.418 234.354 157.821 234.354 157.083C234.354 156.346 234.952 155.748 235.689 155.748H239.101C243.606 155.748 247.259 152.096 247.259 147.59Z" fill="black"/>
<path d="M240.436 147.145V144.772C240.436 144.035 241.033 143.437 241.771 143.437C242.508 143.437 243.105 144.035 243.105 144.772V147.145C243.105 149.521 241.18 151.447 238.804 151.447H233.464C232.727 151.447 232.129 150.849 232.129 150.112C232.129 149.375 232.727 148.777 233.464 148.777H238.804C239.705 148.777 240.436 148.046 240.436 147.145Z" fill="black"/>
<path d="M241.618 125.044C241.618 121.685 238.896 118.962 235.537 118.962C232.178 118.962 229.455 121.685 229.455 125.044C229.455 128.403 232.178 131.125 235.537 131.125V133.795C230.703 133.795 226.785 129.877 226.785 125.044C226.785 120.21 230.703 116.292 235.537 116.292C240.37 116.292 244.288 120.21 244.288 125.044C244.288 129.877 240.37 133.795 235.537 133.795V131.125C238.896 131.125 241.618 128.403 241.618 125.044Z" fill="black"/>
<path d="M121.942 151.618C122.618 151.618 123.166 152.166 123.166 152.842C123.166 153.519 122.618 154.067 121.942 154.067H119.002C118.326 154.067 117.777 153.519 117.777 152.842C117.777 152.166 118.326 151.618 119.002 151.618H121.942Z" fill="black"/>
<path d="M129.047 151.618C129.723 151.618 130.272 152.166 130.272 152.842C130.272 153.519 129.723 154.067 129.047 154.067H126.108C125.431 154.067 124.883 153.519 124.883 152.842C124.883 152.166 125.431 151.618 126.108 151.618H129.047Z" fill="black"/>
<path d="M135.902 151.618C136.579 151.618 137.127 152.166 137.127 152.842C137.127 153.519 136.579 154.067 135.902 154.067H132.963C132.287 154.067 131.738 153.519 131.738 152.842C131.738 152.166 132.287 151.618 132.963 151.618H135.902Z" fill="black"/>
<path d="M142.762 151.618C143.438 151.618 143.987 152.166 143.987 152.842C143.987 153.519 143.438 154.067 142.762 154.067H139.822C139.146 154.067 138.598 153.519 138.598 152.842C138.598 152.166 139.146 151.618 139.822 151.618H142.762Z" fill="black"/>
<path d="M119.985 156.027C120.661 156.027 121.21 156.575 121.21 157.252C121.21 157.928 120.661 158.476 119.985 158.476H116.678C116.001 158.476 115.453 157.928 115.453 157.252C115.453 156.575 116.001 156.027 116.678 156.027H119.985Z" fill="black"/>
<path d="M140.192 156.027C140.868 156.027 141.417 156.575 141.417 157.252C141.417 157.928 140.868 158.476 140.192 158.476H136.885C136.209 158.476 135.66 157.928 135.66 157.252C135.66 156.575 136.209 156.027 136.885 156.027H140.192Z" fill="black"/>
<path d="M147.051 156.027C147.728 156.027 148.276 156.575 148.276 157.252C148.276 157.928 147.728 158.476 147.051 158.476H143.744C143.068 158.476 142.52 157.928 142.52 157.252C142.52 156.575 143.068 156.027 143.744 156.027H147.051Z" fill="black"/>
<path d="M133.579 156.149C134.256 156.149 134.804 156.698 134.804 157.374C134.804 158.051 134.256 158.599 133.579 158.599H123.291C122.615 158.599 122.066 158.051 122.066 157.374C122.066 156.698 122.615 156.149 123.291 156.149H133.579Z" fill="black"/>
<path d="M147.417 133.369C147.417 131.204 145.662 129.45 143.498 129.45H119.982C117.818 129.45 116.063 131.204 116.063 133.369V147.086H147.417V133.369ZM149.866 149.536H113.613V133.369C113.613 129.851 116.465 127 119.982 127H143.498C147.015 127 149.866 129.851 149.866 133.369V149.536Z" fill="black"/>
<path d="M113.954 147.836C114.216 147.212 114.935 146.919 115.558 147.182C116.182 147.444 116.474 148.163 116.212 148.786L111.049 161.048H152.54L147.393 149.038C147.127 148.417 147.415 147.697 148.036 147.43C148.658 147.164 149.378 147.452 149.645 148.073L156.255 163.498H107.359L113.954 147.836Z" fill="black"/>
</svg>
