<svg width="296" height="220" viewBox="0 0 296 220" fill="none" xmlns="http://www.w3.org/2000/svg">
<path d="M58.1889 36.0199C58.1889 31.4512 55.3828 28.856 53.1321 28.856C50.8814 28.856 48.0753 31.4512 48.0753 36.0199C48.0753 40.5885 50.8814 43.1837 53.1321 43.1837V45.7121C48.9429 45.7121 45.5469 41.3727 45.5469 36.0199C45.5469 30.667 48.9429 26.3276 53.1321 26.3276C57.3213 26.3276 60.7173 30.667 60.7173 36.0199C60.7173 41.3727 57.3213 45.7121 53.1321 45.7121V43.1837C55.3828 43.1837 58.1889 40.5885 58.1889 36.0199Z" fill="black"/>
<path d="M68.7228 52.2859C68.7228 53.0772 68.0811 53.7188 67.2898 53.7188H38.972C38.1807 53.7188 37.5391 53.0772 37.5391 52.2859V48.7426C37.5392 48.3076 37.7368 47.8959 38.0765 47.6241L46.4412 40.9327C46.9862 40.4967 47.7819 40.5846 48.2181 41.1294C48.6542 41.6745 48.5663 42.4702 48.0214 42.9064L40.0675 49.2694V51.1904H66.1944V49.2694L58.2404 42.9064C57.6956 42.4702 57.6076 41.6745 58.0437 41.1294C58.4799 40.5846 59.2756 40.4967 59.8207 40.9327L68.1853 47.6241C68.525 47.8959 68.7227 48.3076 68.7228 48.7426V52.2859Z" fill="black"/>
<path d="M51.8633 19.1639V23.3779C51.8633 24.0761 52.4293 24.6421 53.1275 24.6421C53.8257 24.6421 54.3917 24.0761 54.3917 23.3779V19.1639C54.3917 18.4657 53.8257 17.8997 53.1275 17.8997C52.4293 17.8997 51.8633 18.4657 51.8633 19.1639Z" fill="black"/>
<path d="M51.8633 60.0397V55.8257C51.8633 55.1275 52.4293 54.5615 53.1275 54.5615C53.8257 54.5615 54.3917 55.1275 54.3917 55.8257V60.0397C54.3917 60.7379 53.8257 61.3039 53.1275 61.3039C52.4293 61.3039 51.8633 60.7379 51.8633 60.0397Z" fill="black"/>
<path d="M51.8633 60.0397V55.8257C51.8633 55.1275 52.4293 54.5615 53.1275 54.5615C53.8257 54.5615 54.3917 55.1275 54.3917 55.8257V60.0397C54.3917 60.7379 53.8257 61.3039 53.1275 61.3039C52.4293 61.3039 51.8633 60.7379 51.8633 60.0397Z" fill="black"/>
<path d="M54.8176 16.214C54.8176 17.1449 54.0629 17.8996 53.132 17.8996C52.201 17.8996 51.4464 17.1449 51.4464 16.214C51.4464 15.283 52.201 14.5284 53.132 14.5284V12C50.8046 12 48.918 13.8866 48.918 16.214C48.918 18.5413 50.8046 20.428 53.132 20.428C55.4593 20.428 57.346 18.5413 57.346 16.214C57.346 13.8866 55.4593 12 53.132 12V14.5284C54.0629 14.5284 54.8176 15.283 54.8176 16.214Z" fill="black"/>
<path d="M54.8176 62.9895C54.8176 62.0586 54.0629 61.3039 53.132 61.3039C52.201 61.3039 51.4464 62.0586 51.4464 62.9895C51.4464 63.9205 52.201 64.6751 53.132 64.6751V67.2035C50.8046 67.2035 48.918 65.3169 48.918 62.9895C48.918 60.6622 50.8046 58.7755 53.132 58.7755C55.4593 58.7755 57.346 60.6622 57.346 62.9895C57.346 65.3169 55.4593 67.2035 53.132 67.2035V64.6751C54.0629 64.6751 54.8176 63.9205 54.8176 62.9895Z" fill="black"/>
<path d="M54.8176 62.9895C54.8176 62.0586 54.0629 61.3039 53.132 61.3039C52.201 61.3039 51.4464 62.0586 51.4464 62.9895C51.4464 63.9205 52.201 64.6751 53.132 64.6751V67.2035C50.8046 67.2035 48.918 65.3169 48.918 62.9895C48.918 60.6622 50.8046 58.7755 53.132 58.7755C55.4593 58.7755 57.346 60.6622 57.346 62.9895C57.346 65.3169 55.4593 67.2035 53.132 67.2035V64.6751C54.0629 64.6751 54.8176 63.9205 54.8176 62.9895Z" fill="black"/>
<path d="M68.3889 23.68L65.5146 26.7617C65.0384 27.2722 65.0663 28.0722 65.5768 28.5484C66.0874 29.0247 66.8874 28.9968 67.3636 28.4862L70.2379 25.4046C70.7141 24.894 70.6862 24.094 70.1757 23.6178C69.6651 23.1416 68.8651 23.1694 68.3889 23.68Z" fill="black"/>
<path d="M33.4978 59.6977L36.3721 56.616C36.8483 56.1054 37.6483 56.0776 38.1589 56.5538C38.6695 57.03 38.6973 57.83 38.2211 58.3406L35.3468 61.4222C34.8706 61.9328 34.0706 61.9607 33.5601 61.4844C33.0495 61.0082 33.0216 60.2083 33.4978 59.6977Z" fill="black"/>
<path d="M72.5558 23.5346C71.9208 24.2154 70.8542 24.2525 70.1734 23.6176C69.4926 22.9826 69.4555 21.916 70.0904 21.2352C70.7254 20.5544 71.792 20.5173 72.4728 21.1522L74.1974 19.3032C72.4954 17.7158 69.8289 17.8087 68.2414 19.5106C66.654 21.2126 66.7469 23.8791 68.4488 25.4665C70.1508 27.054 72.8173 26.9611 74.4047 25.2592C75.9921 23.5572 75.8993 20.8907 74.1974 19.3032L72.4728 21.1522C73.1536 21.7872 73.1907 22.8538 72.5558 23.5346Z" fill="black"/>
<path d="M33.6471 63.8671C34.282 63.1863 34.2449 62.1197 33.5641 61.4847C32.8833 60.8498 31.8167 60.8869 31.1818 61.5677C30.5468 62.2485 30.5839 63.3151 31.2647 63.95L29.5402 65.799C27.8382 64.2116 27.7454 61.5451 29.3328 59.8431C30.9202 58.1412 33.5867 58.0483 35.2887 59.6357C36.9906 61.2231 37.0835 63.8897 35.4961 65.5916C33.9087 67.2936 31.2421 67.3864 29.5402 65.799L31.2647 63.95C31.9455 64.585 33.0121 64.5479 33.6471 63.8671Z" fill="black"/>
<path d="M73.0492 59.2684L70.0396 56.3188C69.541 55.8301 68.7405 55.8382 68.2518 56.3369C67.7631 56.8355 67.7712 57.6359 68.2699 58.1246L71.2795 61.0742C71.7782 61.5629 72.5786 61.5548 73.0673 61.0562C73.556 60.5575 73.5479 59.7571 73.0492 59.2684Z" fill="black"/>
<path d="M37.0601 23.4766L40.0698 26.4262C40.5684 26.9149 40.5765 27.7153 40.0878 28.2139C39.5991 28.7126 38.7987 28.7206 38.3 28.2319L35.2904 25.2824C34.7917 24.7937 34.7837 23.9933 35.2724 23.4946C35.7611 22.9959 36.5615 22.9879 37.0601 23.4766Z" fill="black"/>
<path d="M73.0873 63.4397C72.4224 62.7881 72.4116 61.7209 73.0632 61.056C73.7148 60.3911 74.782 60.3804 75.4469 61.032C76.1118 61.6836 76.1225 62.7508 75.4709 63.4157L77.2767 65.1854C78.9057 63.5232 78.8788 60.8552 77.2167 59.2262C75.5545 57.5972 72.8865 57.6241 71.2575 59.2862C69.6284 60.9484 69.6553 63.6165 71.3175 65.2455C72.9797 66.8745 75.6477 66.8476 77.2767 65.1854L75.4709 63.4157C74.8193 64.0805 73.7521 64.0913 73.0873 63.4397Z" fill="black"/>
<path d="M32.8844 23.5193C33.5493 24.1709 34.6165 24.1601 35.2681 23.4953C35.9197 22.8304 35.9089 21.7632 35.2441 21.1116C34.5792 20.46 33.512 20.4707 32.8604 21.1356L31.0546 19.3659C32.6836 17.7037 35.3516 17.6768 37.0138 19.3058C38.676 20.9348 38.7029 23.6028 37.0739 25.265C35.4449 26.9272 32.7768 26.9541 31.1146 25.3251C29.4525 23.6961 29.4256 21.028 31.0546 19.3659L32.8604 21.1356C32.2088 21.8005 32.2195 22.8677 32.8844 23.5193Z" fill="black"/>
<path d="M131.43 162.748C131.43 161.054 132.803 159.68 134.498 159.68H140.634V161.725H134.498C133.933 161.726 133.475 162.183 133.475 162.748V195.477H131.43V162.748ZM167.908 159.68V161.725H146.43V159.68H167.908Z" fill="#0C0966"/>
<path d="M184.955 197.863C184.955 196.922 184.192 196.159 183.25 196.159H169.72C169.268 196.159 168.835 196.339 168.515 196.658L168.067 197.106C167.364 197.809 166.41 198.205 165.415 198.205H149.024C147.914 198.205 146.877 197.649 146.261 196.726C146.025 196.372 145.627 196.159 145.201 196.159H131.43C130.488 196.159 129.725 196.922 129.725 197.863V200.25C129.725 201.191 130.488 201.955 131.43 201.955H183.25C184.192 201.955 184.955 201.191 184.955 200.25V197.863ZM187 200.25C187 202.321 185.321 204 183.25 204H131.43C129.358 204 127.68 202.321 127.68 200.25V197.863C127.68 195.792 129.359 194.114 131.43 194.114H145.201C146.311 194.114 147.347 194.668 147.963 195.592C148.199 195.946 148.598 196.159 149.024 196.159H165.415C165.867 196.159 166.301 195.979 166.62 195.659L167.068 195.211C167.772 194.508 168.726 194.114 169.72 194.114H183.25C185.321 194.114 187 195.792 187 197.863V200.25Z" fill="#0C0966"/>
<path d="M182.906 162.748C182.906 161.054 181.533 159.68 179.838 159.68H173.702V161.725H179.838C180.403 161.726 180.861 162.183 180.861 162.748V195.477H182.906V162.748Z" fill="#0C0966"/>
<path d="M146.428 164.112C146.428 161.488 144.721 160.021 143.36 160.021C141.999 160.021 140.291 161.488 140.291 164.112C140.291 166.737 141.999 168.203 143.36 168.203V170.249L143.097 170.241C140.395 170.077 138.246 167.396 138.246 164.112C138.246 160.723 140.536 157.975 143.36 157.975L143.623 157.983C146.325 158.147 148.474 160.829 148.474 164.112L148.467 164.428C148.33 167.671 146.096 170.249 143.36 170.249V168.203C144.721 168.203 146.428 166.737 146.428 164.112Z" fill="#0C0966"/>
<path d="M173.701 164.112C173.701 161.488 171.995 160.021 170.633 160.021C169.272 160.021 167.565 161.488 167.565 164.112C167.565 166.737 169.272 168.203 170.633 168.203V170.249L170.371 170.241C167.668 170.077 165.52 167.396 165.52 164.112C165.52 160.723 167.809 157.975 170.633 157.975L170.896 157.983C173.598 158.147 175.747 160.829 175.747 164.112L175.74 164.428C175.603 167.671 173.369 170.249 170.633 170.249V168.203C171.995 168.203 173.701 166.737 173.701 164.112Z" fill="#0C0966"/>
<path d="M160.749 168.203C160.749 165.243 158.771 163.43 156.999 163.43C155.227 163.43 153.248 165.243 153.248 168.203C153.248 171.164 155.227 172.976 156.999 172.976V175.022L156.701 175.013C153.737 174.836 151.361 172.041 151.211 168.554L151.203 168.203C151.203 164.438 153.798 161.385 156.999 161.385L157.297 161.393C160.36 161.576 162.794 164.555 162.794 168.203L162.787 168.554C162.631 172.157 160.1 175.022 156.999 175.022V172.976C158.771 172.976 160.749 171.163 160.749 168.203Z" fill="#0C0966"/>
<path d="M146.77 185.249V182.606C146.77 178.959 149.633 175.956 153.275 175.782C153.719 175.761 154.084 175.424 154.139 174.983L154.405 172.857L156.435 173.111L156.168 175.237C155.99 176.664 154.81 177.757 153.373 177.826C150.822 177.947 148.815 180.051 148.815 182.606V185.249C148.815 186.191 149.578 186.954 150.519 186.954H164.157C165.098 186.954 165.861 186.191 165.861 185.249V182.869C165.861 180.17 163.738 177.948 161.041 177.826C159.559 177.758 158.341 176.632 158.157 175.16L157.901 173.111L159.931 172.857L160.187 174.907C160.248 175.39 160.648 175.76 161.134 175.782C164.923 175.954 167.906 179.076 167.906 182.869V185.249C167.906 187.32 166.228 188.999 164.157 188.999H150.519C148.448 188.999 146.77 187.32 146.77 185.249Z" fill="#0C0966"/>
<path d="M177.453 178.275V176.521C177.453 174.517 175.877 172.868 173.876 172.778C172.605 172.72 171.56 171.756 171.401 170.494L171.173 168.679L173.202 168.424L173.431 170.239C173.465 170.513 173.692 170.722 173.968 170.734C177.062 170.874 179.499 173.423 179.5 176.521V178.275C179.499 180.056 178.055 181.499 176.275 181.499H166.203V179.453H176.275C176.925 179.453 177.453 178.926 177.453 178.275ZM162.453 176.314C162.453 173.332 164.796 170.875 167.775 170.734C168.017 170.723 168.215 170.539 168.246 170.299L168.482 168.424L170.512 168.679L170.276 170.554C170.121 171.781 169.106 172.719 167.871 172.778C165.983 172.867 164.498 174.424 164.498 176.314V178.09H162.453V176.314Z" fill="#0C0966"/>
<path d="M135.18 178.271V176.314C135.18 173.332 137.522 170.875 140.502 170.734C140.743 170.723 140.942 170.539 140.972 170.299L141.208 168.424L143.238 168.679L143.002 170.554C142.848 171.781 141.833 172.719 140.598 172.778C138.71 172.867 137.225 174.424 137.225 176.314V178.271C137.225 178.924 137.754 179.453 138.407 179.453H148.817V181.499H138.407C136.625 181.499 135.18 180.054 135.18 178.271ZM150.18 176.521C150.18 174.517 148.604 172.868 146.603 172.778C145.332 172.72 144.287 171.756 144.128 170.494L143.9 168.679L145.929 168.424L146.157 170.239C146.192 170.513 146.419 170.722 146.695 170.734C149.789 170.874 152.226 173.423 152.226 176.521V177.749H150.18V176.521Z" fill="#0C0966"/>
<path d="M159.043 179.449C159.043 180.39 158.28 181.158 157.338 181.158C156.397 181.158 155.422 180.39 155.422 179.449C155.422 178.507 156.185 178.431 157.126 178.431C158.068 178.431 159.043 178.507 159.043 179.449Z" fill="black"/>
<path d="M158.361 179.448C158.361 179.342 158.337 179.31 158.333 179.306C158.326 179.296 158.296 179.262 158.196 179.224C157.968 179.138 157.609 179.113 157.127 179.113C156.896 179.113 156.702 179.118 156.536 179.136C156.367 179.154 156.262 179.182 156.198 179.21C156.147 179.233 156.137 179.248 156.136 179.251C156.133 179.256 156.104 179.304 156.104 179.448C156.104 179.675 156.222 179.926 156.471 180.139C156.72 180.353 157.045 180.476 157.339 180.476V181.158L157.161 181.15C156.278 181.062 155.422 180.331 155.422 179.448C155.422 178.507 156.185 178.431 157.127 178.431L157.479 178.436C158.296 178.463 159.042 178.625 159.042 179.448C159.042 180.39 158.28 181.158 157.339 181.158V180.476C157.901 180.476 158.361 180.016 158.361 179.448Z" fill="#0C0966"/>
<path d="M172.498 173.647C172.498 174.471 171.851 175.143 171.054 175.143C170.256 175.143 169.43 174.471 169.43 173.647C169.43 172.823 170.076 172.756 170.874 172.756C171.672 172.756 172.498 172.823 172.498 173.647Z" fill="black"/>
<path d="M171.816 173.647C171.816 173.561 171.797 173.55 171.807 173.564C171.801 173.559 171.781 173.545 171.737 173.528C171.567 173.461 171.285 173.438 170.874 173.438C170.68 173.438 170.521 173.442 170.387 173.457C170.251 173.472 170.175 173.495 170.136 173.513C170.132 173.515 170.128 173.516 170.125 173.518C170.12 173.534 170.112 173.573 170.112 173.647C170.112 173.823 170.201 174.022 170.394 174.193C170.589 174.366 170.838 174.461 171.053 174.461V175.143L170.904 175.135C170.205 175.064 169.526 174.502 169.439 173.799L169.43 173.647C169.43 172.823 170.076 172.756 170.874 172.756C171.672 172.756 172.498 172.823 172.498 173.647L172.491 173.799C172.417 174.552 171.801 175.143 171.053 175.143V174.461C171.451 174.461 171.816 174.118 171.816 173.647Z" fill="#0C0966"/>
<path d="M145.225 173.647C145.225 174.471 144.578 175.143 143.78 175.143C142.982 175.143 142.156 174.471 142.156 173.647C142.156 172.823 142.803 172.756 143.601 172.756C144.398 172.756 145.225 172.823 145.225 173.647Z" fill="black"/>
<path d="M144.543 173.647C144.543 173.561 144.523 173.55 144.534 173.564C144.527 173.559 144.508 173.545 144.463 173.528C144.293 173.461 144.012 173.438 143.601 173.438C143.407 173.438 143.248 173.442 143.114 173.457C142.978 173.472 142.901 173.495 142.863 173.513C142.858 173.515 142.855 173.516 142.852 173.518C142.847 173.534 142.838 173.573 142.838 173.647C142.838 173.823 142.927 174.022 143.121 174.193C143.316 174.366 143.565 174.461 143.78 174.461V175.143L143.63 175.135C142.932 175.064 142.253 174.502 142.166 173.799L142.156 173.647C142.156 172.823 142.803 172.756 143.601 172.756C144.398 172.756 145.225 172.823 145.225 173.647L145.217 173.799C145.143 174.552 144.528 175.143 143.78 175.143V174.461C144.178 174.461 144.543 174.118 144.543 173.647Z" fill="#0C0966"/>
<path d="M156.312 178.772H158.358V187.976H156.312V178.772Z" fill="#0C0966"/>
<path d="M169.953 173.317H171.998V180.817H169.953V173.317Z" fill="#0C0966"/>
<path d="M142.676 173.317H144.721V180.817H142.676V173.317Z" fill="#0C0966"/>
<path d="M233.959 36.8347C234.658 36.8347 235.225 37.4015 235.225 38.1008C235.225 38.8 234.658 39.3668 233.959 39.3668C232.398 39.3668 231.4 40.2478 231.174 40.5488C230.754 41.108 229.96 41.2213 229.401 40.8018C228.842 40.3823 228.728 39.5882 229.148 39.0289C229.766 38.2044 231.469 36.8347 233.959 36.8347Z" fill="black"/>
<path d="M238.164 45.5179C238.286 46.3687 238.662 47.7223 239.37 48.9105C240.079 50.1 241.019 50.9669 242.223 51.2077C243.086 51.3804 243.761 51.8565 244.2 52.5306C244.619 53.1733 244.781 53.9262 244.802 54.6407C244.844 56.0584 244.34 57.6518 243.514 58.9367C242.696 60.2093 241.406 61.4097 239.723 61.6542C237.953 61.9114 236.204 61.0541 234.662 59.1559L234.624 59.109L234.591 59.0595C233.382 57.2467 230.873 52.3364 230.168 46.6983L232.68 46.3834C233.319 51.4923 235.606 55.992 236.664 57.6022C237.847 59.0397 238.775 59.2333 239.359 59.1485C240.037 59.0501 240.778 58.5096 241.384 57.5668C241.982 56.6362 242.296 55.539 242.272 54.7149C242.26 54.3085 242.169 54.0525 242.078 53.9137C242.008 53.8065 241.918 53.7288 241.726 53.6904C239.554 53.2559 238.103 51.7315 237.194 50.2063C236.284 48.6797 235.816 46.9942 235.657 45.8757L238.164 45.5179Z" fill="black"/>
<path d="M271.082 24.8049L270.996 25.3159L274.524 24.2304L275.27 26.6504L267.825 28.9409L268.162 26.9199L268.308 26.0396L266.175 26.277L265.895 23.7597L271.357 23.1531L271.082 24.8049Z" fill="black"/>
<path d="M271.503 32.4008L271.418 32.9118L274.946 31.8263L275.691 34.2463L268.247 36.5369L268.584 34.5158L268.73 33.6355L266.597 33.8729L266.316 31.3557L271.779 30.749L271.503 32.4008Z" fill="black"/>
<path d="M273.088 39.9448L273.05 40.4616L276.462 39.0522L277.429 41.3923L270.23 44.3662L270.378 42.3225L270.441 41.4324L268.339 41.8674L267.826 39.3872L273.208 38.2746L273.088 39.9448Z" fill="black"/>
<path d="M255.559 26.3327C259.447 25.2216 263.451 27.6884 264.208 31.6614L265.304 37.4139C266.061 41.3895 263.505 45.2427 259.548 46.0907L259.017 43.6147C261.629 43.055 263.316 40.5119 262.816 37.8878L261.721 32.1354C261.242 29.6244 258.712 28.0653 256.254 28.7675L255.559 26.3327Z" fill="black"/>
<path d="M251.522 21.4161C250.516 23.2119 248.602 25.8532 246.208 28.4147C243.818 30.9722 240.869 33.5372 237.773 35.0953C237.161 35.4031 236.521 35.5789 235.903 35.6739L231.161 36.4034C228.834 36.7613 227.234 38.9308 227.579 41.259C227.945 43.7293 230.34 45.3623 232.774 44.8008L237.973 43.6007L238.053 43.5933C239.708 43.4278 242.645 43.7982 246.033 44.9755C249.454 46.1649 253.437 48.2115 257.163 51.4995L255.488 53.3985C252.041 50.3565 248.356 48.464 245.202 47.3675C242.074 46.2803 239.562 46.008 238.374 46.1072L233.342 47.2678C229.469 48.1615 225.657 45.5621 225.074 41.6299C224.525 37.9239 227.073 34.4706 230.776 33.9009L235.518 33.1707C235.937 33.1063 236.311 32.9965 236.634 32.8335C239.357 31.4639 242.069 29.1352 244.358 26.6863C246.643 24.2413 248.426 21.763 249.313 20.1797L251.522 21.4161Z" fill="black"/>
<path d="M239.843 44.6047L237.36 45.1009L235.25 34.5505L237.733 34.0543L239.843 44.6047Z" fill="black"/>
<path d="M258.233 51.5222L252.576 20.3589C252.534 20.1296 252.315 19.9774 252.085 20.019C251.856 20.0607 251.704 20.2803 251.746 20.5097L257.403 51.673C257.444 51.9023 257.664 52.0545 257.893 52.0129L258.345 54.5042C256.74 54.7956 255.203 53.7305 254.911 52.1253L249.254 20.9619C248.963 19.3566 250.028 17.8191 251.633 17.5277C253.238 17.2363 254.776 18.3014 255.067 19.9066L260.724 51.07C261.016 52.6753 259.951 54.2128 258.345 54.5042L257.893 52.0129C258.123 51.9712 258.275 51.7516 258.233 51.5222Z" fill="black"/>
<path d="M174.142 98.3763L155.221 109.188L153.434 106.059L172.354 95.2474L174.142 98.3763Z" fill="#0C0966"/>
<path d="M157.029 108.975C157.029 111.463 155.012 113.48 152.524 113.48C150.036 113.48 148.02 111.463 148.02 108.975C148.02 106.487 150.036 104.47 152.524 104.47C155.012 104.47 157.029 106.487 157.029 108.975Z" fill="#0C0966"/>
<path d="M156.128 108.975C156.128 106.985 154.515 105.371 152.524 105.371C150.534 105.371 148.921 106.985 148.921 108.975C148.921 110.966 150.534 112.579 152.524 112.579V113.48C150.036 113.48 148.02 111.463 148.02 108.975C148.02 106.487 150.036 104.47 152.524 104.47C155.012 104.47 157.029 106.487 157.029 108.975C157.029 111.463 155.012 113.48 152.524 113.48V112.579C154.515 112.579 156.128 110.966 156.128 108.975Z" fill="#0C0966"/>
<path d="M171.444 92.3069L165.137 101.317L176.85 100.866L186.31 95.4604L180.003 93.2079L181.805 86L171.444 92.3069Z" fill="#0C0966"/>
<path d="M152.525 86.4504C158.231 86.4504 163.44 88.5737 167.409 92.0711L164.769 94.5514C161.469 91.7472 157.195 90.0544 152.525 90.0544C142.075 90.0544 133.604 98.5255 133.604 108.975C133.604 119.425 142.075 127.896 152.525 127.896C162.974 127.896 171.446 119.425 171.446 108.975C171.446 107.775 171.332 106.602 171.118 105.464L174.598 104.47C174.894 105.926 175.05 107.432 175.05 108.975C175.05 121.415 164.965 131.5 152.525 131.5C140.085 131.5 130 121.415 130 108.975C130 96.5351 140.085 86.4504 152.525 86.4504Z" fill="#0C0966"/>
<path d="M152.527 95.4603C155.641 95.4603 158.51 96.5142 160.796 98.2847L158.123 100.796C156.53 99.7042 154.603 99.0643 152.527 99.0643C147.053 99.0643 142.616 103.502 142.616 108.975C142.616 114.449 147.053 118.886 152.527 118.886C158 118.886 162.437 114.449 162.437 108.975C162.437 108.632 162.42 108.294 162.386 107.96L165.891 106.959C165.989 107.616 166.041 108.29 166.041 108.975C166.041 116.439 159.991 122.49 152.527 122.49C145.063 122.49 139.012 116.439 139.012 108.975C139.012 101.511 145.063 95.4603 152.527 95.4603Z" fill="#0C0966"/>
<path d="M57.4096 87.0626C57.4094 84.6271 55.4344 82.6528 52.9989 82.6528C50.5635 82.653 48.5893 84.6273 48.5891 87.0626C48.5891 89.4982 50.5634 91.4731 52.9989 91.4733V94.3711L52.6235 94.3616C48.7621 94.166 45.6914 90.9726 45.6914 87.0626C45.6916 83.0269 48.9632 79.7553 52.9989 79.7551C57.0348 79.7551 60.3071 83.0268 60.3073 87.0626L60.2979 87.439C60.1022 91.3003 56.9088 94.3711 52.9989 94.3711V91.4733C55.4346 91.4733 57.4096 89.4983 57.4096 87.0626Z" fill="black"/>
<path d="M62.9931 98.569C62.993 98.3679 62.8682 98.1879 62.6799 98.1171L59.7624 97.0229C59.6189 96.9692 59.4579 96.9866 59.3294 97.0701L54.8733 99.9669C53.7286 100.711 52.2487 100.694 51.1219 99.9226L46.9771 97.0871C46.8473 96.9982 46.6821 96.9781 46.5347 97.0333L43.6445 98.1171C43.4562 98.1879 43.3315 98.3679 43.3314 98.569V102.632H40.4336V98.569C40.4337 97.1599 41.3083 95.899 42.6277 95.4043L45.5169 94.3204C46.5485 93.9336 47.7045 94.0738 48.6137 94.6959L52.7585 97.5314C52.9194 97.6413 53.1309 97.6442 53.2943 97.538L57.7504 94.6412C58.6504 94.0561 59.7751 93.9331 60.7802 94.3101L63.6968 95.4043C65.0162 95.899 65.8907 97.1599 65.8909 98.569V102.632H62.9931V98.569Z" fill="black"/>
<path d="M72.8386 105.199C72.8386 104.933 72.6224 104.716 72.3556 104.716H54.4475V108.669H51.5497V104.716H33.6424C33.3757 104.716 33.1595 104.933 33.1595 105.199V109.304H30.2617V105.199C30.2617 103.332 31.7753 101.819 33.6424 101.819H72.3556C74.2228 101.819 75.7364 103.332 75.7364 105.199V109.304H72.8386V105.199Z" fill="black"/>
<path d="M35.1685 114.389C35.1684 112.655 33.763 111.249 32.0292 111.249C30.2954 111.249 28.89 112.655 28.89 114.389C28.89 116.122 30.2954 117.528 32.0292 117.528V120.426C28.6951 120.426 25.9922 117.723 25.9922 114.389C25.9922 111.054 28.6951 108.352 32.0292 108.352C35.3634 108.352 38.0662 111.054 38.0662 114.389C38.0662 117.723 35.3634 120.426 32.0292 120.426V117.528C33.763 117.528 35.1685 116.122 35.1685 114.389Z" fill="black"/>
<path d="M56.1411 114.389C56.1411 112.655 54.7356 111.249 53.0019 111.249C51.2681 111.249 49.8626 112.655 49.8626 114.389C49.8626 116.122 51.2681 117.528 53.0019 117.528V120.426C49.6677 120.426 46.9648 117.723 46.9648 114.389C46.9649 111.054 49.6677 108.352 53.0019 108.352C56.336 108.352 59.0389 111.054 59.0389 114.389C59.0389 117.723 56.336 120.426 53.0019 120.426V117.528C54.7356 117.528 56.1411 116.122 56.1411 114.389Z" fill="black"/>
<path d="M77.1099 114.389C77.1098 112.655 75.7044 111.249 73.9706 111.249C72.2369 111.249 70.8314 112.655 70.8314 114.389C70.8314 116.122 72.2368 117.528 73.9706 117.528V120.426C70.6365 120.426 67.9336 117.723 67.9336 114.389C67.9336 111.054 70.6365 108.352 73.9706 108.352C77.3048 108.352 80.0076 111.054 80.0076 114.389C80.0076 117.723 77.3048 120.426 73.9706 120.426V117.528C75.7044 117.528 77.1099 116.122 77.1099 114.389Z" fill="black"/>
<path d="M38.5225 123.441C38.5224 123.229 38.3836 123.042 38.181 122.979L31.8516 121.031C31.7592 121.003 31.6601 121.003 31.5677 121.031L25.2383 122.979C25.0359 123.042 24.8979 123.229 24.8978 123.441V125.802C24.8978 126.068 25.114 126.285 25.3807 126.285H38.0396C38.3062 126.284 38.5225 126.068 38.5225 125.802V123.441ZM41.4203 125.802C41.4202 127.669 39.9066 129.182 38.0396 129.182H25.3807C23.5136 129.182 22 127.669 22 125.802V123.441C22.0001 121.957 22.9681 120.646 24.3865 120.21L30.7159 118.262C31.3637 118.063 32.0566 118.063 32.7044 118.262L39.0338 120.21C40.4521 120.646 41.4201 121.957 41.4203 123.441V125.802Z" fill="black"/>
<path d="M60.1319 123.758C60.1317 123.547 59.993 123.359 59.7904 123.297L53.461 121.349C53.3686 121.321 53.2694 121.321 53.1771 121.349L46.8477 123.297C46.6453 123.36 46.5073 123.547 46.5071 123.758V126.119C46.5072 126.386 46.7234 126.602 46.9901 126.602H59.6489C59.9156 126.602 60.1318 126.386 60.1319 126.119V123.758ZM63.0297 126.119C63.0296 127.986 61.5159 129.5 59.6489 129.5H46.9901C45.123 129.5 43.6094 127.987 43.6094 126.119V123.758C43.6095 122.274 44.5775 120.964 45.9959 120.528L52.3253 118.58C52.9731 118.38 53.6659 118.38 54.3137 118.58L60.6431 120.528C62.0615 120.964 63.0295 122.274 63.0297 123.758V126.119Z" fill="black"/>
<path d="M81.1006 123.758C81.1005 123.547 80.9617 123.359 80.7592 123.297L74.4298 121.349C74.3374 121.321 74.2382 121.321 74.1458 121.349L67.8164 123.297C67.6141 123.36 67.476 123.547 67.4759 123.758V126.119C67.4759 126.386 67.6921 126.602 67.9588 126.602H80.6177C80.8843 126.602 81.1006 126.386 81.1006 126.119V123.758ZM83.9984 126.119C83.9984 127.986 82.4847 129.5 80.6177 129.5H67.9588C66.0918 129.5 64.5782 127.987 64.5781 126.119V123.758C64.5783 122.274 65.5462 120.964 66.9646 120.528L73.294 118.58C73.9418 118.38 74.6347 118.38 75.2825 118.58L81.6119 120.528C83.0302 120.964 83.9983 122.274 83.9984 123.758V126.119Z" fill="black"/>
<path d="M242.493 188.682V174.098H245.03L239.725 165.673L234.109 174.098H237.024V198.252C237.024 199.007 236.412 199.62 235.656 199.62C234.901 199.62 234.289 199.007 234.289 198.252V176.832H229L239.791 160.646L249.982 176.832H245.227V188.682C245.227 189.437 244.615 190.049 243.86 190.049C243.105 190.049 242.493 189.437 242.493 188.682Z" fill="black"/>
<path d="M258.445 182.757V170.452H255.908L261.212 162.027L266.828 170.452H263.914V194.606C263.914 195.361 264.526 195.974 265.281 195.974C266.036 195.974 266.648 195.361 266.648 194.606V173.186H271.938L261.146 157L250.955 173.186H255.71V182.757C255.71 183.512 256.323 184.124 257.078 184.124C257.833 184.124 258.445 183.512 258.445 182.757Z" fill="black"/>
<path d="M263.33 190.505H257.985V206H247.047V190.505H241.703L252.516 174.886L263.33 190.505ZM246.922 187.77H249.782V203.266H255.251V187.77H258.111L252.516 179.69L246.922 187.77Z" fill="black"/>
<path d="M179.607 33.7166L184.613 34.875C184.699 34.8948 184.775 34.9436 184.829 35.0132L186.006 36.5387C186.053 36.5987 186.08 36.6711 186.085 36.7467L186.41 41.7885C186.43 42.0979 186.792 42.2548 187.031 42.058L191.673 38.2454C191.745 38.1858 191.793 38.1016 191.808 38.0089L192.995 30.2502C193.029 30.0282 192.864 29.8252 192.64 29.8127L184.876 29.3823C184.792 29.3776 184.708 29.4013 184.638 29.4497L179.476 33.0332C179.205 33.2215 179.286 33.6422 179.607 33.7166Z" fill="#0C0966"/>
<path d="M180.373 50.901C180.372 46.9079 177.135 43.6709 173.142 43.6709C169.149 43.6711 165.912 46.908 165.912 50.901C165.912 54.8941 169.149 58.1318 173.142 58.1319V61.1763L172.613 61.1628C167.184 60.8876 162.867 56.3982 162.867 50.901C162.867 45.2267 167.467 40.6267 173.142 40.6266C178.816 40.6266 183.417 45.2266 183.417 50.901L183.403 51.4303C183.128 56.859 178.639 61.1763 173.142 61.1763V58.1319C177.135 58.1319 180.373 54.8942 180.373 50.901Z" fill="#0C0966"/>
<path d="M167.435 19.6967C169.326 19.6967 170.86 21.2302 170.86 23.1218V39.6009C169.481 40.0128 168.197 40.6683 167.054 41.521V23.5025H132.806V53.9458H161.794C161.937 55.2846 162.269 56.5626 162.759 57.7508H132.425C130.534 57.7508 129 56.2178 129 54.3266V23.1218C129 21.2302 130.534 19.6967 132.425 19.6967H167.435Z" fill="#0C0966"/>
<path d="M179.418 56.3313C179.604 56.3028 179.8 56.3254 179.949 56.4105C180.037 56.4609 180.124 56.5112 180.212 56.5617C181.789 57.4706 183.367 58.3803 184.944 59.2892C185.032 59.3396 185.119 59.3899 185.207 59.4404C185.701 59.7229 186.018 60.1644 186.042 60.7204C186.069 61.2734 185.8 61.8958 185.342 62.3974C184.884 62.8991 184.288 63.2235 183.735 63.2472C183.179 63.2738 182.711 62.9975 182.385 62.5315C182.327 62.4488 182.269 62.3658 182.21 62.2831C181.162 60.7947 180.113 59.3067 179.065 57.8183C179.007 57.7356 178.949 57.6526 178.891 57.5699C178.792 57.4295 178.752 57.2357 178.764 57.0478C178.776 56.859 178.839 56.6913 178.954 56.5653C179.07 56.4392 179.231 56.3607 179.418 56.3313Z" fill="#0C0966"/>
<path d="M186.552 33.4522C187.677 33.1875 188.804 33.8846 189.069 35.0095C189.334 36.1347 188.636 37.2616 187.511 37.5264C184.827 38.158 182.673 40.0207 181.3 41.1198C180.397 41.8419 179.079 41.6948 178.357 40.7921C177.635 39.8896 177.781 38.5724 178.684 37.8504C179.847 36.92 182.767 34.343 186.552 33.4522Z" fill="#0C0966"/>
<path d="M176.344 47.4613C175.391 49.3685 174.928 51.3363 174.829 51.981L170.691 51.3446C170.846 50.3402 171.423 47.9439 172.601 45.589L176.344 47.4613Z" fill="#0C0966"/>
<path d="M141.556 45.7639C141.556 47.13 140.449 48.2375 139.083 48.2375C137.717 48.2375 136.609 47.13 136.609 45.7639C136.609 44.3978 137.717 43.2904 139.083 43.2904C140.449 43.2904 141.556 44.3978 141.556 45.7639Z" fill="#0C0966"/>
<path d="M141.176 45.7639C141.176 44.6081 140.239 43.6712 139.083 43.6712C137.927 43.6712 136.99 44.6081 136.99 45.7639C136.99 46.9198 137.927 47.8567 139.083 47.8567V48.2375L138.83 48.2249C137.666 48.1067 136.74 47.1809 136.622 46.0169L136.609 45.7639C136.609 44.3979 137.717 43.2904 139.083 43.2904L139.336 43.303C140.583 43.4297 141.556 44.4833 141.556 45.7639L141.544 46.0169C141.417 47.264 140.363 48.2374 139.083 48.2375V47.8567C140.239 47.8567 141.176 46.9197 141.176 45.7639Z" fill="#0C0966"/>
<path d="M149.166 37.392C149.166 38.7581 148.058 39.8655 146.692 39.8655C145.326 39.8655 144.219 38.7581 144.219 37.392C144.219 36.0259 145.326 34.9185 146.692 34.9185C148.058 34.9185 149.166 36.0259 149.166 37.392Z" fill="#0C0966"/>
<path d="M148.785 37.392C148.785 36.2361 147.848 35.2993 146.692 35.2992C145.536 35.2992 144.6 36.2361 144.6 37.392C144.6 38.5478 145.536 39.4848 146.692 39.4848V39.8655L146.439 39.8529C145.275 39.7347 144.35 38.809 144.231 37.6449L144.219 37.392C144.219 36.026 145.326 34.9185 146.692 34.9185L146.945 34.9311C148.192 35.0578 149.166 36.1114 149.166 37.392L149.153 37.6449C149.027 38.8921 147.973 39.8655 146.692 39.8655V39.4848C147.848 39.4847 148.785 38.5478 148.785 37.392Z" fill="#0C0966"/>
<path d="M164.01 32.4451C164.01 33.8112 162.902 34.9186 161.536 34.9186C160.17 34.9186 159.062 33.8112 159.062 32.4451C159.062 31.079 160.17 29.9716 161.536 29.9716C162.902 29.9716 164.01 31.079 164.01 32.4451Z" fill="#0C0966"/>
<path d="M163.629 32.4451C163.629 31.2892 162.692 30.3524 161.536 30.3523C160.38 30.3523 159.443 31.2892 159.443 32.4451C159.443 33.6009 160.38 34.5379 161.536 34.5379V34.9186L161.283 34.906C160.119 34.7878 159.193 33.8621 159.075 32.698L159.062 32.4451C159.062 31.0791 160.17 29.9716 161.536 29.9716L161.789 29.9842C163.036 30.1109 164.01 31.1645 164.01 32.4451L163.997 32.698C163.87 33.9452 162.817 34.9186 161.536 34.9186V34.5379C162.692 34.5378 163.629 33.6009 163.629 32.4451Z" fill="#0C0966"/>
<path d="M155.256 41.5778C155.256 42.9439 154.148 44.0513 152.782 44.0513C151.416 44.0513 150.309 42.9439 150.309 41.5778C150.309 40.2117 151.416 39.1042 152.782 39.1042C154.148 39.1042 155.256 40.2117 155.256 41.5778Z" fill="#0C0966"/>
<path d="M154.875 41.5778C154.875 40.4219 153.938 39.4851 152.782 39.485C151.626 39.485 150.689 40.4219 150.689 41.5778C150.689 42.7336 151.626 43.6706 152.782 43.6706V44.0513L152.529 44.0387C151.365 43.9205 150.439 42.9948 150.321 41.8307L150.309 41.5778C150.309 40.2117 151.416 39.1042 152.782 39.1042L153.035 39.1168C154.282 39.2436 155.256 40.2972 155.256 41.5778L155.243 41.8307C155.116 43.0779 154.063 44.0513 152.782 44.0513V43.6706C153.938 43.6705 154.875 42.7336 154.875 41.5778Z" fill="#0C0966"/>
<path d="M146.943 38.9481L140.853 45.2267L139.215 43.6379L145.304 37.3584L146.943 38.9481Z" fill="#0C0966"/>
<path d="M161.414 34.3706L154.945 41.2199L153.285 39.6527L159.755 32.8025L161.414 34.3706Z" fill="#0C0966"/>
<path d="M152.591 40.3464L151.068 42.0486L147.453 38.8135L148.976 37.1122L152.591 40.3464Z" fill="#0C0966"/>
<path d="M239.345 104.303L229.368 114.663C228.861 115.19 227.924 115.171 227.488 114.462C225.507 111.239 224.068 105.949 225.146 100.896C226.247 95.7291 229.953 90.9547 237.946 88.9174L239.345 88.5601V104.303ZM237.1 91.4959C230.894 93.49 228.194 97.363 227.341 101.365C226.526 105.187 227.377 109.236 228.744 112.075L237.1 103.398V91.4959Z" fill="black"/>
<path d="M276.341 87.3403C276.78 86.9019 277.49 86.9019 277.929 87.3403C278.367 87.7787 278.367 88.4893 277.929 88.9277L265.161 101.696L255.449 91.9842L252.599 94.9646C253.137 95.68 253.6 96.4319 253.99 97.2127C255.99 101.219 255.996 105.856 254.482 109.876C252.967 113.898 249.902 117.378 245.669 119.022C241.412 120.676 236.123 120.416 230.285 117.233C229.659 116.892 229.394 115.975 229.99 115.353L249.557 94.8952C247.657 93.0294 244.969 91.5321 241.343 90.7263C240.737 90.5919 240.356 89.9926 240.49 89.3874C240.625 88.7822 241.224 88.4008 241.829 88.5352C245.821 89.4223 248.893 91.1044 251.11 93.2727L255.414 88.7735L265.161 98.521L276.341 87.3403ZM232.585 115.886C237.423 118.193 241.59 118.199 244.857 116.93C248.42 115.546 251.061 112.589 252.381 109.085C253.701 105.579 253.67 101.598 251.982 98.2155C251.708 97.6671 251.388 97.1318 251.021 96.6134L232.585 115.886Z" fill="black"/>
<path d="M276.761 91.5017V88.5081H273.767C273.147 88.5081 272.645 88.0055 272.645 87.3855C272.645 86.7655 273.147 86.2629 273.767 86.2629H279.006V91.5017C279.006 92.1217 278.503 92.6243 277.883 92.6243C277.263 92.6243 276.761 92.1217 276.761 91.5017Z" fill="black"/>
<path d="M240.836 103.102V92.6244C248.32 93.2231 251.314 100.108 250.939 103.476L240.836 103.102Z" fill="black"/>
<path d="M269.32 128.5L269.273 129.023C269.194 129.889 268.831 131.145 267.991 132.249C267.125 133.387 265.757 134.349 263.766 134.53L263.242 134.578L248.605 119.941L254.683 113.863L269.32 128.5ZM251.78 119.941L264.06 132.221C265.077 132.013 265.75 131.486 266.204 130.889C266.602 130.366 266.835 129.78 266.951 129.305L254.683 117.038L251.78 119.941Z" fill="black"/>
<path d="M253.188 121.812L256.555 118.818L265.536 127.425L262.168 130.793L253.188 121.812Z" fill="black"/>
<path d="M267.14 127.408L262.167 132.38L251.551 121.764L256.583 117.291L267.14 127.408ZM254.821 121.859L262.167 129.205L263.93 127.442L256.525 120.345L254.821 121.859Z" fill="black"/>
<path d="M253.982 115.031L252.394 116.618L250.523 114.747L252.111 113.16L253.982 115.031Z" fill="black"/>
<path d="M251.361 117.65L249.773 119.238L247.902 117.367L249.49 115.779L251.361 117.65Z" fill="black"/>
<path d="M224 129.67V127.799C224 127.179 224.503 126.677 225.123 126.677C225.743 126.677 226.245 127.179 226.245 127.799V129.67C226.245 130.29 225.743 130.793 225.123 130.793C224.503 130.793 224 130.29 224 129.67Z" fill="black"/>
<path d="M227.367 129.67V124.806C227.367 124.186 227.87 123.683 228.49 123.683C229.11 123.683 229.612 124.186 229.612 124.806V129.67C229.612 130.29 229.11 130.793 228.49 130.793C227.87 130.793 227.367 130.29 227.367 129.67Z" fill="black"/>
<path d="M231.109 129.67V120.689C231.109 120.069 231.612 119.567 232.232 119.567C232.852 119.567 233.355 120.069 233.355 120.689V129.67C233.355 130.29 232.852 130.793 232.232 130.793C231.612 130.793 231.109 130.29 231.109 129.67Z" fill="black"/>
<path d="M234.852 129.67V123.683C234.852 123.063 235.354 122.56 235.974 122.56C236.594 122.56 237.097 123.063 237.097 123.683V129.67C237.097 130.29 236.594 130.793 235.974 130.793C235.354 130.793 234.852 130.29 234.852 129.67Z" fill="black"/>
<path d="M238.594 129.67V125.554C238.594 124.934 239.096 124.431 239.716 124.431C240.336 124.431 240.839 124.934 240.839 125.554V129.67C240.839 130.29 240.336 130.793 239.716 130.793C239.096 130.793 238.594 130.29 238.594 129.67Z" fill="black"/>
<path d="M242.336 129.67V123.309C242.336 122.689 242.839 122.186 243.459 122.186C244.079 122.186 244.581 122.689 244.581 123.309V129.67C244.581 130.29 244.079 130.793 243.459 130.793C242.839 130.793 242.336 130.29 242.336 129.67Z" fill="black"/>
<path d="M246.078 129.67V127.051C246.078 126.431 246.581 125.928 247.201 125.928C247.821 125.928 248.323 126.431 248.323 127.051V129.67C248.323 130.29 247.821 130.793 247.201 130.793C246.581 130.793 246.078 130.29 246.078 129.67Z" fill="black"/>
<path d="M228.116 119.941C228.736 119.941 229.239 120.444 229.239 121.064C229.239 121.684 228.736 122.186 228.116 122.186H225.123C224.503 122.186 224 121.684 224 121.064C224 120.444 224.503 119.941 225.123 119.941H228.116Z" fill="black"/>
<path d="M68.0701 179.684C68.0701 171.642 61.5505 165.122 53.5081 165.122C45.4658 165.122 38.9462 171.642 38.9462 179.684C38.9462 187.727 45.4658 194.246 53.5081 194.246V196.934C43.981 196.934 36.2578 189.211 36.2578 179.684C36.2578 170.157 43.981 162.434 53.5081 162.434C63.0352 162.434 70.7585 170.157 70.7585 179.684C70.7585 189.211 63.0352 196.934 53.5081 196.934V194.246C61.5505 194.246 68.0701 187.727 68.0701 179.684Z" fill="black"/>
<path d="M63.1385 179.684C63.1385 174.364 58.8256 170.051 53.5052 170.051C48.1849 170.051 43.872 174.364 43.872 179.684C43.872 185.004 48.1849 189.317 53.5052 189.317V192.006C46.7002 192.006 41.1836 186.489 41.1836 179.684C41.1836 172.879 46.7002 167.362 53.5052 167.362C60.3103 167.362 65.8269 172.879 65.8269 179.684C65.8269 186.489 60.3103 192.006 53.5052 192.006V189.317C58.8256 189.317 63.1385 185.004 63.1385 179.684Z" fill="black"/>
<path d="M39.0119 188.579C39.5435 188.061 40.3945 188.072 40.9127 188.603C41.4308 189.135 41.4205 189.986 40.8891 190.504L26.7857 204.254C26.0422 204.979 26.0348 206.172 26.769 206.906C27.4859 207.623 28.6448 207.636 29.3769 206.934L36.9668 199.66C37.5028 199.147 38.3539 199.165 38.8675 199.701C39.3811 200.237 39.3624 201.088 38.8264 201.602L31.2365 208.875C29.4486 210.589 26.6192 210.558 24.8683 208.807C23.0748 207.014 23.0933 204.1 24.9094 202.33L39.0119 188.579ZM40.2318 196.395C40.7567 195.87 41.6076 195.87 42.1326 196.395C42.6575 196.919 42.6575 197.77 42.1326 198.295L41.3117 199.117C40.7868 199.642 39.9359 199.642 39.411 199.117C38.886 198.592 38.886 197.741 39.411 197.216L40.2318 196.395Z" fill="black"/>
<path d="M37.4876 181.215C38.2298 181.215 38.8318 181.817 38.8318 182.559C38.8318 183.301 38.2298 183.903 37.4876 183.903H32.1065C28.7239 183.904 25.9549 186.52 25.7085 189.84H30.9154C31.6578 189.84 32.2596 190.442 32.2596 191.184C32.2596 191.927 31.6578 192.528 30.9154 192.528H25.207C23.9883 192.528 23 191.54 23 190.321C23.0002 185.292 27.0772 181.215 32.1065 181.215H37.4876Z" fill="black"/>
<path d="M69.5202 181.215C68.778 181.215 68.1761 181.817 68.1761 182.559C68.1761 183.301 68.778 183.903 69.5202 183.903H74.9013C78.2839 183.904 81.0529 186.52 81.2993 189.84H69.9315C69.1892 189.84 68.5874 190.442 68.5874 191.184C68.5874 191.927 69.1892 192.528 69.9315 192.528H81.8008C83.0195 192.528 84.0078 191.54 84.0078 190.321C84.0076 185.292 79.9306 181.215 74.9013 181.215H69.5202Z" fill="black"/>
<path d="M35.2119 177.63C35.2118 175.96 34.0103 174.979 32.9716 174.979C31.933 174.979 30.7315 175.96 30.7313 177.63C30.7313 179.301 31.9329 180.282 32.9716 180.282V182.97L32.7178 182.963C30.1138 182.82 28.043 180.487 28.043 177.63C28.0431 174.682 30.2497 172.291 32.9716 172.291C35.6936 172.291 37.9001 174.682 37.9003 177.63C37.9003 180.579 35.6937 182.97 32.9716 182.97V180.282C34.0104 180.282 35.2119 179.301 35.2119 177.63Z" fill="black"/>
<path d="M71.7998 177.63C71.7999 175.96 73.0014 174.979 74.0401 174.979C75.0788 174.979 76.2802 175.96 76.2804 177.63C76.2804 179.301 75.0788 180.282 74.0401 180.282V182.97L74.2939 182.963C76.898 182.82 78.9688 180.487 78.9688 177.63C78.9686 174.682 76.762 172.291 74.0401 172.291C71.3182 172.291 69.1116 174.682 69.1114 177.63C69.1114 180.579 71.3181 182.97 74.0401 182.97V180.282C73.0014 180.282 71.7998 179.301 71.7998 177.63Z" fill="black"/>
<path d="M51.2685 178.452C51.2687 176.781 52.4702 175.801 53.5088 175.801C54.5475 175.801 55.749 176.781 55.7491 178.452C55.7491 180.123 54.5476 181.103 53.5088 181.103V183.792L53.7626 183.785C56.3667 183.642 58.4375 181.308 58.4375 178.452C58.4374 175.503 56.2308 173.113 53.5088 173.113C50.7869 173.113 48.5803 175.503 48.5802 178.452C48.5802 181.401 50.7868 183.792 53.5088 183.792V181.103C52.4701 181.103 51.2685 180.123 51.2685 178.452Z" fill="black"/>
<path d="M51.4575 181.752C54.7178 181.136 58.391 182.194 61.5467 186.251C62.0025 186.837 61.8973 187.682 61.3113 188.138C60.7253 188.594 59.8812 188.488 59.4254 187.902C56.8311 184.566 54.138 183.982 51.9563 184.393C49.6359 184.831 47.6861 186.436 46.8404 187.789C46.4469 188.418 45.6172 188.61 44.9877 188.217C44.3582 187.823 44.1664 186.994 44.5598 186.364C45.7678 184.432 48.3361 182.34 51.4575 181.752Z" fill="black"/>
<path d="M51.75 159.559V158.737C51.75 157.995 52.3518 157.393 53.0942 157.393C53.8366 157.393 54.4384 157.995 54.4384 158.737V159.559C54.4382 160.301 53.8365 160.903 53.0942 160.903C52.3519 160.903 51.7502 160.301 51.75 159.559ZM51.75 155.863V151.344C51.75 150.602 52.3518 150 53.0942 150C53.8366 150 54.4384 150.602 54.4384 151.344V155.863C54.4382 156.605 53.8365 157.207 53.0942 157.207C52.3519 157.207 51.7502 156.605 51.75 155.863Z" fill="black"/>
<path d="M62.0039 154.09C62.5289 153.566 63.3798 153.566 63.9047 154.09C64.4294 154.615 64.4294 155.466 63.9047 155.991L60.6186 159.277C60.0937 159.802 59.2427 159.802 58.7178 159.277C58.193 158.752 58.1931 157.901 58.7178 157.376L62.0039 154.09Z" fill="black"/>
<path d="M44.1875 154.09C43.6625 153.566 42.8116 153.566 42.2867 154.09C41.762 154.615 41.762 155.466 42.2867 155.991L45.5728 159.277C46.0977 159.802 46.9487 159.802 47.4736 159.277C47.9984 158.752 47.9983 157.901 47.4736 157.376L44.1875 154.09Z" fill="black"/>
</svg>
