<svg width="296" height="220" viewBox="0 0 296 220" fill="none" xmlns="http://www.w3.org/2000/svg">
<path d="M51.363 52.8976L40.9328 40.4393C33.5425 31.2206 38.5752 16.8395 54.2101 16.8395C66.9943 16.8395 76.6866 27.1644 67.485 39.7018L56.9764 52.8353C55.5449 54.6243 52.8338 54.6544 51.363 52.8976Z" stroke="black" stroke-width="2.07663"/>
<circle cx="54.189" cy="32.8401" r="6.70538" stroke="black" stroke-width="2.07663"/>
<path d="M33.1212 23.006C31.7164 25.4159 29.535 34.073 35.0838 42.6515" stroke="black" stroke-width="2.07663" stroke-linecap="round"/>
<path d="M75.8919 23.0221C77.1349 25.5193 78.7415 34.3012 72.6398 42.4957" stroke="black" stroke-width="2.07663" stroke-linecap="round"/>
<path d="M229.52 162.946C246.93 150.865 267.538 168.631 254.747 187.818" stroke="black" stroke-width="2.1319" stroke-linecap="round"/>
<path d="M219.926 159.785L260.076 200.254" stroke="black" stroke-width="2.1319" stroke-linecap="round"/>
<path d="M225.969 166.536C222.771 170.326 219.001 180.535 226.676 188.21L236.871 198.404C239.091 200.623 242.69 200.623 244.91 198.403L251.55 191.763" stroke="black" stroke-width="2.1319"/>
<path d="M234.13 174.353C230.229 179.683 235.912 187.855 243.723 183.946" stroke="black" stroke-width="2.1319"/>
<path d="M237.691 171.155C242.311 170.089 248.635 172.221 246.93 180.749" stroke="black" stroke-width="2.1319" stroke-linecap="round"/>
<path d="M237.131 54.0876L226.113 40.9282C218.307 31.1906 223.623 16 240.138 16C253.642 16 263.88 26.9061 254.16 40.1492L243.06 54.0218C241.548 55.9116 238.684 55.9434 237.131 54.0876Z" stroke="black" stroke-width="2.20181"/>
<circle cx="240.125" cy="32.9012" r="7.07865" stroke="black" stroke-width="2.20181"/>
<path d="M226.98 61.553H253.769" stroke="black" stroke-width="2.20181" stroke-linecap="round"/>
<path d="M239.992 126.486C222.438 110.466 218.31 83.5936 239.992 81.0097C256.033 80.4929 267.919 100.647 239.992 126.486Z" stroke="black" stroke-width="2.27549" stroke-linecap="round"/>
<circle cx="241.162" cy="96.513" r="6.61391" stroke="black" stroke-width="2.27549"/>
<path d="M225.234 126.939C230.058 130.901 242.908 136.448 255.724 126.939" stroke="black" stroke-width="2.27549" stroke-linecap="round"/>
<path d="M150.134 156.01C125.358 157.62 131.475 187.873 150.134 203V189.804C175.875 186.715 170.778 155.345 150.134 156.01Z" stroke="black" stroke-width="2.043"/>
<circle cx="150.463" cy="171.781" r="9.27758" stroke="black" stroke-width="2.043"/>
<path d="M63.155 118.342C59.1832 121.368 55.8261 124.962 54.6441 126.38C53.5408 124.962 50.294 121.368 46.1332 118.342C29.8267 108.413 36.1092 85.008 54.6441 85.008C69.072 84.5352 81.8383 104.867 63.155 118.342Z" stroke="black" stroke-width="1.98421"/>
<circle cx="54.4739" cy="102.503" r="7.7552" stroke="black" stroke-width="1.98421"/>
<circle cx="54.7038" cy="131.109" r="1.89131" fill="black"/>
<path d="M149.451 105C149.043 97.2448 147.145 97.2446 144.628 93.163C132.492 71.9382 171.692 73.9789 157.726 93.1629C156.538 94.7955 153.941 96.8366 153.533 105" stroke="black" stroke-width="1.77632" stroke-linecap="round"/>
<circle cx="151.603" cy="86.6324" r="1.96901" stroke="black" stroke-width="1.77632"/>
<path d="M140.891 93.4285H124.691V127.371M162.877 93.4285H172.134C174.063 93.4285 177.149 92.4256 177.149 88.4142V117.956C177.149 120.043 176.454 123.128 172.134 123.128C167.814 123.128 171.234 123.128 172.906 123.128H130.657C122.758 123.128 123.535 132 129.323 132H133.569V126.214" stroke="black" stroke-width="1.77632" stroke-linecap="round"/>
<path d="M134.346 97.6715V123.129M162.889 97.6715V123.129M124.703 103.072L133.96 111.557H141.675M177.16 111.557H141.675M141.675 111.557V123.129" stroke="black" stroke-width="1.77632" stroke-linecap="round"/>
<path d="M166.117 47.004C163.731 48.8222 161.714 50.9812 161.004 51.8335C160.341 50.9812 158.39 48.8222 155.89 47.004C146.093 41.0382 149.867 26.9758 161.004 26.9758C169.672 26.6917 177.343 38.9075 166.117 47.004Z" stroke="black" stroke-width="1.59375"/>
<circle cx="160.904" cy="37.487" r="4.45876" stroke="black" stroke-width="1.59375"/>
<path d="M162.13 23.2793C147.72 2.01065 114.444 26.0236 138.46 46.9492C140.889 49.0663 146.622 53.3983 147.719 58.6125C148.177 56.5543 149.778 52.0947 154.238 49.6934" stroke="black" stroke-width="1.71521" stroke-linecap="round"/>
<path d="M154.692 25.9925C155.107 25.7063 155.214 25.1351 154.893 24.7463C153.886 23.5247 152.616 22.5404 151.173 21.8695C149.454 21.07 147.552 20.7447 145.665 20.9274C143.777 21.11 141.973 21.7939 140.439 22.9082C138.905 24.0225 137.697 25.5266 136.94 27.2649C136.182 29.0031 135.904 30.9122 136.132 32.7945C136.361 34.6767 137.089 36.4635 138.24 37.97C139.391 39.4764 140.925 40.6476 142.681 41.3622C144.155 41.9619 145.74 42.2218 147.321 42.1277C147.824 42.0978 148.169 41.6302 148.096 41.1315V41.1315C148.023 40.6329 147.56 40.2927 147.056 40.3137C145.799 40.3662 144.541 40.1487 143.369 39.6717C141.914 39.0797 140.644 38.1095 139.69 36.8616C138.736 35.6138 138.133 34.1336 137.944 32.5744C137.755 31.0152 137.986 29.4338 138.613 27.9938C139.24 26.5539 140.241 25.3079 141.512 24.3848C142.783 23.4618 144.277 22.8953 145.84 22.744C147.404 22.5927 148.979 22.8622 150.403 23.5244C151.551 24.058 152.567 24.831 153.384 25.7875C153.712 26.1706 154.277 26.2786 154.692 25.9925V25.9925Z" fill="black"/>
<path d="M63.6301 179.547C56.9449 184.414 53.6939 190.108 52.9842 192.93C52.1731 190.193 49.0954 183.934 43.2508 179.547C32.3094 171.335 38.632 153.452 52.9841 153.084C65.4638 152.765 75.8034 169.51 63.6301 179.547Z" stroke="black" stroke-width="1.91076"/>
<circle cx="53.5326" cy="167.989" r="5.12801" stroke="black" stroke-width="1.91076"/>
<path d="M49.9158 186.842H33.2852L45.4617 204H76.4565L66.5504 186.842H56.5313" stroke="black" stroke-width="1.91076" stroke-linecap="round"/>
</svg>
