<svg width="260" height="178" viewBox="0 0 260 178" fill="none" xmlns="http://www.w3.org/2000/svg">
<path d="M44.3511 37.5856V27.0081C44.3511 24.6252 42.4195 22.6936 40.0366 22.6936H15.8197C13.4369 22.6936 11.5052 24.6252 11.5052 27.0081V37.5856C11.5052 39.9684 13.4369 41.9001 15.8197 41.9001H27.2323C27.9241 41.9001 28.4849 42.4609 28.4849 43.1527C28.4849 43.8445 27.9241 44.4053 27.2323 44.4053H15.8197C12.0533 44.4053 9 41.352 9 37.5856V27.0081C9 23.2416 12.0533 20.1884 15.8197 20.1884H40.0366C43.8031 20.1884 46.8563 23.2416 46.8563 27.0081V37.5856C46.8563 41.352 43.8031 44.4053 40.0366 44.4053H33.4953C32.8035 44.4053 32.2427 43.8445 32.2427 43.1527C32.2427 42.4609 32.8035 41.9001 33.4953 41.9001H40.0366C42.4195 41.9001 44.3511 39.9684 44.3511 37.5856Z" fill="black"/>
<path d="M16.572 14.679C16.7708 14.0164 17.4689 13.6403 18.1315 13.839C18.7941 14.0378 19.1702 14.7362 18.9715 15.3988C18.3725 17.3954 18.4708 19.7045 18.5941 20.5679C18.692 21.2528 18.2161 21.8874 17.5313 21.9852C16.8465 22.0831 16.2121 21.6072 16.1142 20.9224C15.9592 19.8372 15.8349 17.136 16.572 14.679Z" fill="black"/>
<path d="M18.3726 10.7167C22.8944 5.7427 28.6405 4.95023 33.1472 7.18374C37.6116 9.3964 40.6343 14.4697 40.0313 20.7261C39.9649 21.4147 39.3528 21.9189 38.6642 21.8526C37.9757 21.7862 37.4712 21.1744 37.5375 20.4858C38.0479 15.1905 35.5035 11.1474 32.0348 9.42826C28.6083 7.73004 24.0552 8.19022 20.2265 12.4018C19.7611 12.9137 18.9687 12.9514 18.4568 12.4861C17.945 12.0207 17.9073 11.2286 18.3726 10.7167Z" fill="black"/>
<path d="M30.5732 32.1577C30.5732 30.851 29.5139 29.7917 28.2072 29.7917C26.9004 29.7917 25.8411 30.851 25.8411 32.1577C25.8411 33.4644 26.9004 34.5237 28.2072 34.5237V37.0289C25.5169 37.0289 23.3359 34.848 23.3359 32.1577C23.3359 29.4674 25.5169 27.2865 28.2072 27.2865C30.8975 27.2865 33.0784 29.4674 33.0784 32.1577C33.0784 34.848 30.8975 37.0289 28.2072 37.0289V34.5237C29.5139 34.5237 30.5732 33.4644 30.5732 32.1577Z" fill="black"/>
<path d="M141.434 33.649L144.68 39.1159L142.693 40.2957L139.88 35.5581L132.948 33.1718C131.956 33.6655 130.877 33.7394 129.972 33.6586C129.133 33.5837 128.355 33.3692 127.768 33.142L120.549 35.5486L118.192 40.2624L116.125 39.229L118.91 33.6588L127.895 30.6637L128.317 30.8651C128.699 31.048 129.406 31.2881 130.177 31.3568C130.953 31.4261 131.653 31.3109 132.17 30.9554L132.651 30.6254L141.434 33.649Z" fill="black"/>
<path d="M135.65 21.7649C135.65 18.2546 133.066 15.7306 130.258 15.7306C127.451 15.7306 124.866 18.2546 124.866 21.7649C124.866 25.2752 127.451 27.7992 130.258 27.7992V30.1102C126.004 30.1102 122.555 26.3739 122.555 21.7649C122.555 17.1559 126.004 13.4196 130.258 13.4196C134.513 13.4196 137.961 17.1559 137.961 21.7649C137.961 26.3739 134.513 30.1102 130.258 30.1102V27.7992C133.066 27.7992 135.65 25.2752 135.65 21.7649Z" fill="black"/>
<path d="M149.263 14.3182C149.263 11.5528 147.021 9.31101 144.256 9.31101C141.49 9.31101 139.249 11.5528 139.249 14.3182C139.249 17.0836 141.49 19.3254 144.256 19.3254V21.6364C140.214 21.6364 136.938 18.3599 136.938 14.3182C136.938 10.2765 140.214 7 144.256 7C148.297 7 151.574 10.2765 151.574 14.3182C151.574 18.3599 148.297 21.6364 144.256 21.6364V19.3254C147.021 19.3254 149.263 17.0836 149.263 14.3182Z" fill="black"/>
<path d="M130.13 7.51355C133.215 7.51355 136.129 8.24387 138.709 9.5407C138.204 10.1259 137.791 10.792 137.49 11.5167C135.267 10.4329 132.77 9.82456 130.13 9.82456C120.841 9.82456 113.311 17.3547 113.311 26.6436C113.311 35.9325 120.841 43.4627 130.13 43.4627C139.419 43.4627 146.949 35.9325 146.949 26.6436C146.949 24.8115 146.656 23.0479 146.114 21.3969C146.878 21.1967 147.593 20.8762 148.237 20.4568C148.9 22.3975 149.26 24.4785 149.26 26.6436C149.26 37.2089 140.695 45.7737 130.13 45.7737C119.565 45.7737 111 37.2089 111 26.6436C111 16.0784 119.565 7.51355 130.13 7.51355Z" fill="black"/>
<path d="M142.713 14.575V16.5008H145.666V14.575H142.713ZM147.206 16.5008C147.206 17.3517 146.516 18.0415 145.666 18.0415H142.713C141.862 18.0415 141.172 17.3517 141.172 16.5008V14.575C141.172 13.7241 141.862 13.0343 142.713 13.0343H145.666C146.516 13.0343 147.206 13.7241 147.206 14.575V16.5008Z" fill="black"/>
<path d="M144.766 12.2639H143.611V14.1898H142.07V12.2639C142.07 11.4131 142.76 10.7233 143.611 10.7233H144.766C145.617 10.7233 146.307 11.4131 146.307 12.2639V14.1898H144.766V12.2639Z" fill="black"/>
<path d="M248.379 25.9592H224.198V36.4619C224.198 42.5996 229.174 47.5752 235.312 47.5752H237.266C243.403 47.5752 248.379 42.5996 248.379 36.4619V25.9592ZM250.577 36.4619C250.577 43.8136 244.617 49.7734 237.266 49.7734H235.312C227.96 49.7734 222 43.8136 222 36.4619V23.761H250.577V36.4619Z" fill="black"/>
<path d="M242.88 11.7929C242.88 8.15078 239.927 5.19823 236.285 5.19823C232.643 5.19823 229.69 8.15078 229.69 11.7929V25.4708H227.492V11.7929C227.492 6.93673 231.429 3 236.285 3C241.141 3 245.078 6.93673 245.078 11.7929V19.1204H242.88V11.7929Z" fill="black"/>
<path d="M243.619 18.2655H245.085V21.1965H242.887V19.731H243.619V18.2655Z" fill="black"/>
<path d="M235.975 31.5168C237.598 31.4653 238.704 32.3371 239.01 33.4842C239.28 34.4966 238.875 35.6422 237.805 36.1635L238.033 39.1424C238.113 40.2 237.277 41.1026 236.216 41.1026C235.174 41.1026 234.344 40.2299 234.397 39.1892L234.548 36.1955C233.531 35.7356 233.105 34.6362 233.262 33.6707C233.448 32.5332 234.403 31.5667 235.975 31.5168ZM236.021 32.9816C235.113 33.0104 234.776 33.4966 234.709 33.9068C234.631 34.3857 234.876 34.7955 235.283 34.9072C235.676 35.0152 236.056 35.3907 236.029 35.9192L235.861 39.2631C235.85 39.4665 236.013 39.6371 236.216 39.6371C236.424 39.6371 236.587 39.4608 236.571 39.254L236.317 35.9278C236.279 35.4216 236.621 35.0332 237.013 34.9065C237.521 34.7424 237.71 34.2986 237.594 33.862C237.486 33.4586 237.056 32.9488 236.021 32.9816Z" fill="black"/>
<path d="M26.6507 85.3271C28.5843 85.2669 29.9543 86.2789 30.3755 87.6499C30.7494 88.8673 30.3005 90.2622 29.0204 90.9138L29.2147 94.2514C29.2911 95.5634 28.2477 96.6694 26.9334 96.6694C25.6492 96.6694 24.6171 95.6115 24.6489 94.3277L24.7325 90.9552C23.5065 90.3733 23.0449 89.0269 23.29 87.8677C23.5776 86.5078 24.7779 85.3855 26.6507 85.3271ZM26.7112 87.271C25.6707 87.3035 25.282 87.8479 25.1927 88.27C25.0883 88.7638 25.3234 89.1413 25.7052 89.2507C26.2021 89.3929 26.7049 89.8661 26.6878 90.5592L26.5931 94.3758C26.5884 94.567 26.7421 94.7246 26.9334 94.7246C27.1291 94.7246 27.2844 94.5598 27.273 94.3644L27.0527 90.5808C27.0138 89.9117 27.472 89.4154 27.9723 89.2494C28.4815 89.0804 28.6511 88.6594 28.5164 88.221C28.3892 87.807 27.8998 87.234 26.7112 87.271Z" fill="black"/>
<path d="M35.9305 71.5879C35.9305 66.7992 32.0485 62.9172 27.2598 62.9172C22.4711 62.9172 18.5891 66.7992 18.5891 71.5879V79.2862H15.6719V71.5879C15.6719 65.1881 20.86 60 27.2598 60C33.6596 60 38.8477 65.1881 38.8477 71.5879V78.8H35.9305V71.5879Z" fill="black"/>
<path d="M40.9552 81.7172C40.9552 80.7326 40.157 79.9345 39.1724 79.9345H14.7C13.7154 79.9345 12.9172 80.7326 12.9172 81.7172V98.9589C12.9173 99.795 13.4728 100.429 14.1745 100.544C18.2354 101.209 24.8054 101.742 30.9718 101.331L31.1661 104.242C24.7452 104.67 17.9497 104.118 13.7032 103.423C11.4694 103.057 10 101.097 10 98.9589V81.7172C10 79.1215 12.1043 77.0172 14.7 77.0172H39.1724C41.7681 77.0172 43.8724 79.1215 43.8724 81.7172V87.0655H40.9552V81.7172Z" fill="black"/>
<path d="M50.025 87.7734C50.5292 87.1452 51.4473 87.0445 52.0755 87.5487C52.7037 88.0529 52.8044 88.971 52.3003 89.5992L42.982 101.209C42.0773 102.336 40.3322 102.238 39.5589 101.017L36.9648 96.9221C36.5338 96.2415 36.736 95.3402 37.4165 94.9092C38.0971 94.4782 38.9984 94.6804 39.4294 95.3609L41.4163 98.4984L50.025 87.7734Z" fill="black"/>
<path d="M40.9567 88.5242C42.7777 88.5242 44.4754 89.0513 45.9061 89.9609L44.1677 91.9434C43.2159 91.4171 42.1213 91.1173 40.9567 91.1173C37.2868 91.1173 34.3119 94.0923 34.3119 97.7621C34.3119 101.432 37.2868 104.407 40.9567 104.407C44.6265 104.407 47.6015 101.432 47.6015 97.7621C47.6015 97.72 47.6004 97.678 47.5996 97.6361L49.8094 95.1165C50.0595 95.9547 50.1946 96.8426 50.1946 97.7621C50.1946 102.864 46.0586 107 40.9567 107C35.8547 107 31.7188 102.864 31.7188 97.7621C31.7188 92.6601 35.8547 88.5242 40.9567 88.5242Z" fill="black"/>
<path d="M117.738 97.5208H141.898V80.9275H117.738V97.5208ZM145.085 99.6458L145.084 99.7005C145.056 100.244 144.621 100.679 144.077 100.707L144.023 100.708H115.613L115.559 100.707C114.997 100.679 114.551 100.214 114.551 99.6458V78.8025C114.551 78.2157 115.026 77.74 115.613 77.74H144.023L144.077 77.7414C144.639 77.7698 145.085 78.234 145.085 78.8025V99.6458Z" fill="black"/>
<path d="M137.614 78.2803V73.5516C137.614 69.2832 134.153 65.8229 129.885 65.8229C125.617 65.8229 122.156 69.2832 122.156 73.5516V78.2803C122.156 79.1605 121.443 79.8741 120.563 79.8741C119.682 79.8741 118.969 79.1605 118.969 78.2803V73.5516C118.969 67.5228 123.856 62.6354 129.885 62.6354C135.914 62.6354 140.801 67.5228 140.801 73.5516V78.2803C140.801 79.1605 140.088 79.8741 139.208 79.8741C138.327 79.8741 137.614 79.1605 137.614 78.2803Z" fill="black"/>
<path d="M131.363 86.6573C131.363 85.8807 130.734 85.2511 129.957 85.251C129.18 85.251 128.551 85.8807 128.551 86.6573C128.551 87.4338 129.181 88.0632 129.957 88.0632V91.2507L129.838 91.2494C127.396 91.1875 125.426 89.2185 125.365 86.7756L125.363 86.6573C125.363 84.1203 127.42 82.0635 129.957 82.0635L130.075 82.0649C132.558 82.1277 134.551 84.1598 134.551 86.6573L134.549 86.7756C134.486 89.2578 132.454 91.2507 129.957 91.2507V88.0632C130.734 88.0632 131.363 87.4338 131.363 86.6573Z" fill="black"/>
<path d="M128.359 95.304V90.5753C128.359 89.6951 129.073 88.9816 129.953 88.9816C130.833 88.9816 131.547 89.6951 131.547 90.5753V95.304C131.547 96.1842 130.833 96.8978 129.953 96.8978C129.073 96.8978 128.359 96.1842 128.359 95.304Z" fill="black"/>
<path d="M158.326 88.1354V90.6146H143.273V88.1354H158.326Z" fill="black"/>
<path d="M101.659 88.1354V90.6146H116.711V88.1354H101.659Z" fill="black"/>
<path d="M153.189 76.9791H155.668V86.3646H143.449V83.8854H153.189V76.9791Z" fill="black"/>
<path d="M106.796 76.9791H104.316V86.3646H116.535V83.8854H106.796V76.9791Z" fill="black"/>
<path d="M153.013 101.771H155.492V92.3855H143.273V94.8647H153.013V101.771Z" fill="black"/>
<path d="M106.971 101.771H104.492V92.3855H116.711V94.8647H106.971V101.771Z" fill="black"/>
<path d="M155.848 103.542C155.848 102.759 155.213 102.125 154.431 102.125C153.649 102.125 153.014 102.759 153.014 103.542C153.014 104.324 153.649 104.958 154.431 104.958V107.438C152.279 107.438 150.535 105.693 150.535 103.542C150.535 101.39 152.279 99.6459 154.431 99.6459C156.583 99.6459 158.327 101.39 158.327 103.542C158.327 105.693 156.583 107.438 154.431 107.438V104.958C155.213 104.958 155.848 104.324 155.848 103.542Z" fill="black"/>
<path d="M104.137 103.542C104.137 102.759 104.771 102.125 105.553 102.125C106.336 102.125 106.97 102.759 106.97 103.542C106.97 104.324 106.336 104.958 105.553 104.958V107.438C107.705 107.438 109.449 105.693 109.449 103.542C109.449 101.39 107.705 99.6459 105.553 99.6459C103.402 99.6459 101.658 101.39 101.658 103.542C101.658 105.693 103.402 107.438 105.553 107.438V104.958C104.771 104.958 104.137 104.324 104.137 103.542Z" fill="black"/>
<path d="M155.848 75.5625C155.848 74.7801 155.213 74.1458 154.431 74.1458C153.649 74.1458 153.014 74.7801 153.014 75.5625C153.014 76.3449 153.649 76.9791 154.431 76.9791V79.4583C152.279 79.4583 150.535 77.7141 150.535 75.5625C150.535 73.4109 152.279 71.6666 154.431 71.6666C156.583 71.6666 158.327 73.4109 158.327 75.5625C158.327 77.7141 156.583 79.4583 154.431 79.4583V76.9791C155.213 76.9791 155.848 76.3449 155.848 75.5625Z" fill="black"/>
<path d="M104.137 75.5625C104.137 74.7801 104.771 74.1458 105.553 74.1458C106.336 74.1458 106.97 74.7801 106.97 75.5625C106.97 76.3449 106.336 76.9791 105.553 76.9791V79.4583C107.705 79.4583 109.449 77.7141 109.449 75.5625C109.449 73.4109 107.705 71.6666 105.553 71.6666C103.402 71.6666 101.658 73.4109 101.658 75.5625C101.658 77.7141 103.402 79.4583 105.553 79.4583V76.9791C104.771 76.9791 104.137 76.3449 104.137 75.5625Z" fill="black"/>
<path d="M161.512 89.021C161.512 88.2386 160.877 87.6043 160.095 87.6043C159.313 87.6043 158.678 88.2386 158.678 89.021C158.678 89.8034 159.313 90.4376 160.095 90.4376V92.9168C157.943 92.9168 156.199 91.1726 156.199 89.021C156.199 86.8694 157.943 85.1251 160.095 85.1251C162.247 85.1251 163.991 86.8694 163.991 89.021C163.991 91.1726 162.247 92.9168 160.095 92.9168V90.4376C160.877 90.4376 161.512 89.8034 161.512 89.021Z" fill="black"/>
<path d="M98.4726 89.021C98.4726 88.2386 99.1069 87.6043 99.8893 87.6043C100.672 87.6043 101.306 88.2386 101.306 89.021C101.306 89.8034 100.672 90.4376 99.8893 90.4376V92.9168C102.041 92.9168 103.785 91.1726 103.785 89.021C103.785 86.8694 102.041 85.1251 99.8893 85.1251C97.7377 85.1251 95.9935 86.8694 95.9935 89.021C95.9935 91.1726 97.7377 92.9168 99.8893 92.9168V90.4376C99.1069 90.4376 98.4726 89.8034 98.4726 89.021Z" fill="black"/>
<path d="M251.159 80.4442L251.247 81.551C251.735 87.6142 249.185 101.09 235.051 106.743L234.41 107L233.766 106.747C228.006 104.484 216.528 96.3056 217.364 81.5923L217.429 80.4492L234.408 74.2166L251.159 80.4442ZM220.808 82.9222C220.728 94.2846 229.349 100.993 234.406 103.236C245.268 98.5417 247.854 88.3809 247.818 82.9211L234.4 77.9326L220.808 82.9222Z" fill="black"/>
<path d="M243.314 75.2999V72.4917C243.314 67.518 239.282 63.486 234.308 63.486C229.334 63.486 225.302 67.518 225.302 72.4917V79.7543C225.302 80.7169 224.522 81.4973 223.559 81.4973C222.597 81.4973 221.816 80.7169 221.816 79.7543V72.4917C221.816 65.5927 227.409 60 234.308 60C241.207 60 246.8 65.5927 246.8 72.4917V75.2999C246.8 76.2625 246.019 77.0429 245.057 77.0429C244.094 77.0429 243.314 76.2625 243.314 75.2999Z" fill="black"/>
<path d="M237.585 86.1469C237.585 87.9652 236.111 89.4393 234.292 89.4393C232.474 89.4393 231 87.9652 231 86.1469C231 84.3285 232.474 82.8545 234.292 82.8545C236.111 82.8545 237.585 84.3285 237.585 86.1469Z" fill="black"/>
<path d="M232.469 93.8921V87.6947C232.469 86.732 233.249 85.9517 234.212 85.9517C235.174 85.9517 235.955 86.732 235.955 87.6947V93.8921C235.955 94.8547 235.174 95.6351 234.212 95.6351C233.249 95.6351 232.469 94.8547 232.469 93.8921Z" fill="black"/>
<path d="M11.5547 156.385V147.451C11.5547 142.958 15.1974 139.315 19.6909 139.315H23.9983C24.7912 139.315 25.434 139.958 25.434 140.751C25.434 141.544 24.7912 142.187 23.9983 142.187H19.6909C16.7833 142.187 14.4263 144.544 14.4263 147.451V156.385C14.4263 159.293 16.7833 161.65 19.6909 161.65H41.3873C42.2684 161.65 42.9827 160.935 42.9827 160.054C42.9827 159.261 43.6255 158.619 44.4185 158.619C45.2114 158.619 45.8543 159.261 45.8543 160.054C45.8543 162.521 43.8543 164.521 41.3873 164.521H19.6909C15.1974 164.521 11.5547 160.879 11.5547 156.385Z" fill="black"/>
<path d="M43.7737 150.004V147.292C43.7737 144.384 41.4167 142.027 38.5091 142.027H36.2756C35.4827 142.027 34.8398 141.384 34.8398 140.591C34.8398 139.798 35.4827 139.156 36.2756 139.156H38.5091C43.0026 139.156 46.6453 142.798 46.6453 147.292V150.004C46.6453 150.797 46.0024 151.44 45.2095 151.44C44.4165 151.44 43.7737 150.797 43.7737 150.004Z" fill="black"/>
<path d="M9.41631 124.744C9.97466 124.181 10.8839 124.177 11.4469 124.735L49.5753 162.545C50.1383 163.103 50.142 164.012 49.5837 164.575C49.0253 165.138 48.1161 165.142 47.5531 164.584L9.42472 126.774C8.86172 126.216 8.85797 125.307 9.41631 124.744Z" fill="black"/>
<path d="M17.7773 140.113V134.529C17.7773 133.736 18.4202 133.093 19.2131 133.093C20.0061 133.093 20.6489 133.736 20.6489 134.529V140.113C20.6489 140.906 20.0061 141.549 19.2131 141.549C18.4202 141.549 17.7773 140.906 17.7773 140.113Z" fill="black"/>
<path d="M37.8753 139.953V135.702C37.8753 130.958 33.9784 127.14 29.2356 127.237L28.24 127.257C25.6584 127.31 23.3247 128.437 22.624 130.258C22.3393 130.999 21.5086 131.368 20.7685 131.083C20.0284 130.799 19.6591 129.968 19.9437 129.228C21.2664 125.789 25.1277 124.449 28.1815 124.386L29.177 124.366C35.5283 124.236 40.7469 129.35 40.7469 135.702V139.953C40.7469 140.746 40.104 141.389 39.3111 141.389C38.5181 141.389 37.8753 140.746 37.8753 139.953Z" fill="black"/>
<path d="M148.984 162.346V165.219H113.873V162.346H148.984ZM148.984 147.025H113.873V165.219C112.286 165.219 111 163.933 111 162.346V147.025C111 145.438 112.286 144.152 113.873 144.152H148.984C150.571 144.152 151.857 145.438 151.857 147.025V162.346C151.857 163.933 150.571 165.219 148.984 165.219V147.025Z" fill="black"/>
<path d="M142.122 144.95V129.628C142.122 128.659 141.336 127.873 140.367 127.873H122.492C121.522 127.873 120.736 128.659 120.736 129.628V144.95C120.736 145.743 120.093 146.386 119.3 146.386C118.506 146.386 117.863 145.743 117.863 144.95V129.628C117.863 127.072 119.935 125 122.492 125H140.367C142.923 125 144.995 127.072 144.995 129.628V144.95C144.995 145.743 144.352 146.386 143.559 146.386C142.765 146.386 142.122 145.743 142.122 144.95Z" fill="black"/>
<path d="M117.225 149.419V152.291H113.395V149.419H117.225Z" fill="black"/>
<path d="M149.143 149.419V152.291H145.312V149.419H149.143Z" fill="black"/>
<path d="M117.065 153.568V156.441H113.234V153.568H117.065Z" fill="black"/>
<path d="M148.983 153.568V156.441H145.152V153.568H148.983Z" fill="black"/>
<path d="M117.065 157.718V160.59H113.234V157.718H117.065Z" fill="black"/>
<path d="M148.983 157.718V160.59H145.152V157.718H148.983Z" fill="black"/>
<path d="M131.274 156.92C131.274 157.545 130.874 158.076 130.316 158.274V158.675C130.316 158.851 130.459 158.994 130.636 158.994H132.551C132.727 158.994 132.87 158.851 132.87 158.675V158.274C132.312 158.076 131.912 157.545 131.912 156.92V156.441C131.912 155.669 132.461 155.024 133.189 154.877V153.807C133.189 153.234 132.725 152.77 132.152 152.77H131.035C130.462 152.77 129.997 153.234 129.997 153.807V154.877C130.726 155.024 131.274 155.669 131.274 156.441V156.92ZM135.104 155.164C135.104 155.839 134.685 156.415 134.093 156.649C134.508 156.901 134.785 157.357 134.785 157.877V158.675C134.785 159.909 133.785 160.91 132.551 160.91H130.636C129.402 160.91 128.401 159.909 128.401 158.675V157.877C128.401 157.357 128.678 156.901 129.093 156.649C128.501 156.415 128.082 155.839 128.082 155.164V153.807C128.082 152.177 129.404 150.855 131.035 150.855H132.152C133.782 150.855 135.104 152.177 135.104 153.807V155.164Z" fill="black"/>
<path d="M218.925 137.395C230.29 140.753 243.695 138.792 248.945 137.384L250.833 136.878V165H217V136.826L218.925 137.395ZM247.833 140.735C241.803 142.04 230.41 143.331 220 140.789V162H247.833V140.735Z" fill="black"/>
<path d="M242.165 132.167C242.165 127.656 238.509 124 233.999 124H233.499C228.988 124 225.332 127.656 225.332 132.167V137.167H222.332V132.167C222.332 125.999 227.332 121 233.499 121H233.999C240.166 121 245.165 125.999 245.165 132.167V137.167H242.165V132.167Z" fill="black"/>
<path d="M230.5 157.334H237.5L236 151.334C238.933 146.534 236.033 144.824 233.833 145C229.667 145.334 230.944 149.556 232.167 151.334L230.5 157.334Z" stroke="black" stroke-width="3"/>
</svg>
