<svg width="260" height="178" viewBox="0 0 260 178" fill="none" xmlns="http://www.w3.org/2000/svg">
<path d="M44.5267 34.6213V37.5214H27.8516V34.6213H44.5267Z" fill="black"/>
<path d="M37.7102 35.0565V13.3063H10.305C9.58427 13.3063 9 12.722 9 12.0013C9 11.2806 9.58427 10.6963 10.305 10.6963H40.3203V35.0565C40.3203 35.7772 39.736 36.3615 39.0153 36.3615C38.2945 36.3615 37.7102 35.7772 37.7102 35.0565Z" fill="black"/>
<path d="M26.8359 35.7817C26.8359 34.18 25.5375 32.8816 23.9358 32.8816C22.3342 32.8816 21.0358 34.18 21.0358 35.7817C21.0358 37.3833 22.3342 38.6817 23.9358 38.6817V41.2917C20.8927 41.2917 18.4258 38.8248 18.4258 35.7817C18.4258 32.7385 20.8927 30.2716 23.9358 30.2716C26.9789 30.2716 29.4459 32.7385 29.4459 35.7817C29.4459 38.8248 26.9789 41.2917 23.9358 41.2917V38.6817C25.5375 38.6817 26.8359 37.3833 26.8359 35.7817Z" fill="black"/>
<path d="M51.1913 35.7817C51.1913 34.18 49.8929 32.8816 48.2913 32.8816C46.6897 32.8816 45.3913 34.18 45.3913 35.7817C45.3913 37.3833 46.6897 38.6817 48.2913 38.6817V41.2917C45.2482 41.2917 42.7812 38.8248 42.7812 35.7817C42.7812 32.7385 45.2482 30.2716 48.2913 30.2716C51.3344 30.2716 53.8013 32.7385 53.8013 35.7817C53.8013 38.8248 51.3344 41.2917 48.2913 41.2917V38.6817C49.8929 38.6817 51.1913 37.3833 51.1913 35.7817Z" fill="black"/>
<path d="M48.8901 15.9164L57.4327 24.2979V37.5216H51.7776V34.6215H54.5326V25.5151L47.7048 18.8164H38.4375V15.9164H48.8901Z" fill="black"/>
<path d="M18.2787 16.6414C19.0795 16.6414 19.7287 17.2906 19.7287 18.0914C19.7287 18.8922 19.0795 19.5414 18.2787 19.5414H10.8836C10.0828 19.5414 9.43359 18.8922 9.43359 18.0914C9.43359 17.2906 10.0828 16.6414 10.8836 16.6414H18.2787Z" fill="black"/>
<path d="M15.3786 22.1514C16.1795 22.1514 16.8287 22.8006 16.8287 23.6014C16.8287 24.4022 16.1795 25.0514 15.3786 25.0514H10.8836C10.0828 25.0514 9.43359 24.4022 9.43359 23.6014C9.43359 22.8006 10.0828 22.1514 10.8836 22.1514H15.3786Z" fill="black"/>
<path d="M12.0469 32.8815V28.8215C12.0469 28.0207 12.6961 27.3715 13.4969 27.3715C14.2977 27.3715 14.9469 28.0207 14.9469 28.8215V32.8815C14.9469 34.0027 15.8558 34.9115 16.9769 34.9115H18.2819C19.0827 34.9115 19.7319 35.5607 19.7319 36.3615C19.7319 37.1624 19.0827 37.8116 18.2819 37.8116H16.9769C14.2541 37.8116 12.0469 35.6043 12.0469 32.8815Z" fill="black"/>
<path d="M152.402 27.3348V45.8974H116V27.3348H152.402ZM118.411 43.4866H149.991V29.7456H118.411V43.4866Z" fill="black"/>
<path d="M121.301 39.0268V33.6027C121.301 32.937 121.84 32.3973 122.506 32.3973C123.172 32.3973 123.711 32.937 123.711 33.6027V39.0268C123.711 39.6925 123.172 40.2322 122.506 40.2322C121.84 40.2322 121.301 39.6925 121.301 39.0268Z" fill="black"/>
<path d="M126.004 39.1474V33.7233C126.004 33.0576 126.544 32.5179 127.209 32.5179C127.875 32.5179 128.415 33.0576 128.415 33.7233V39.1474C128.415 39.8131 127.875 40.3528 127.209 40.3528C126.544 40.3528 126.004 39.8131 126.004 39.1474Z" fill="black"/>
<path d="M130.703 39.2679V33.8438C130.703 33.1781 131.243 32.6384 131.908 32.6384C132.574 32.6384 133.114 33.1781 133.114 33.8438V39.2679C133.114 39.9336 132.574 40.4733 131.908 40.4733C131.243 40.4733 130.703 39.9336 130.703 39.2679Z" fill="black"/>
<path d="M135.402 39.3885V33.9644C135.402 33.2987 135.942 32.759 136.608 32.759C137.273 32.759 137.813 33.2987 137.813 33.9644V39.3885C137.813 40.0542 137.273 40.5939 136.608 40.5939C135.942 40.5939 135.402 40.0542 135.402 39.3885Z" fill="black"/>
<path d="M140.105 39.509V34.0849C140.105 33.4192 140.645 32.8795 141.311 32.8795C141.977 32.8795 142.516 33.4192 142.516 34.0849V39.509C142.516 40.1747 141.977 40.7143 141.311 40.7143C140.645 40.7143 140.105 40.1747 140.105 39.509Z" fill="black"/>
<path d="M144.805 39.6296V34.2055C144.805 33.5398 145.344 33.0001 146.01 33.0001C146.676 33.0001 147.215 33.5398 147.215 34.2055V39.6296C147.215 40.2953 146.676 40.8349 146.01 40.8349C145.344 40.8349 144.805 40.2953 144.805 39.6296Z" fill="black"/>
<path d="M129.294 21.8858C129.84 21.5054 130.592 21.64 130.972 22.1862C131.352 22.7325 131.218 23.4839 130.672 23.8643L123.922 28.5652C123.375 28.9456 122.624 28.8111 122.244 28.2648C121.863 27.7185 121.998 26.9671 122.544 26.5867L129.294 21.8858Z" fill="black"/>
<path d="M139.347 21.8858C138.8 21.5054 138.049 21.64 137.669 22.1862C137.288 22.7325 137.423 23.4839 137.969 23.8643L144.719 28.5652C145.265 28.9456 146.017 28.8111 146.397 28.2648C146.777 27.7185 146.643 26.9671 146.097 26.5867L139.347 21.8858Z" fill="black"/>
<path d="M142.757 6V11.0896L137.702 16.0045H130.826L125.641 11.0995V6H142.757ZM128.051 10.0613L131.786 13.5938H136.723L140.346 10.0709V8.41072H128.051V10.0613Z" fill="black"/>
<path d="M132.993 15.0403C132.993 14.3746 133.533 13.835 134.199 13.835C134.864 13.835 135.404 14.3746 135.404 15.0403V18.7769H134.199C133.649 18.7769 133.352 18.9678 133.18 19.1677C132.986 19.393 132.863 19.7364 132.872 20.1351C132.891 20.9573 133.394 21.5493 134.199 21.5493C134.618 21.5492 134.95 21.4428 135.169 21.2642C135.357 21.11 135.603 20.7878 135.648 20.032C135.687 19.3674 136.258 18.8605 136.922 18.8996C137.587 18.9387 138.093 19.5092 138.054 20.1737C137.978 21.4669 137.501 22.4707 136.695 23.1301C135.919 23.7651 134.984 23.96 134.199 23.96C131.749 23.96 130.503 21.9604 130.462 20.1911C130.441 19.2941 130.71 18.3416 131.352 17.5951C131.777 17.101 132.334 16.7362 132.993 16.5374V15.0403Z" fill="black"/>
<path d="M250.817 15.5969V34.4432L234.677 44.3306L218.537 34.4432V30.3613C218.537 29.6246 219.134 29.0274 219.871 29.0274C220.608 29.0274 221.205 29.6246 221.205 30.3613V32.9486L234.677 41.202L248.149 32.9486V17.1142L234.677 9.10388L221.205 17.1142V21.6911H214.002C213.265 21.6911 212.668 21.0939 212.668 20.3572C212.668 19.6205 213.265 19.0233 214.002 19.0233H218.537V15.5969L234.677 6L250.817 15.5969Z" fill="black"/>
<path d="M250.638 17.5058L234.819 26.6963L218.586 17.5279L219.898 15.2051L234.8 23.6218L249.298 15.1991L250.638 17.5058Z" fill="black"/>
<path d="M233.477 23.8253H236.144V42.4997H233.477V23.8253Z" fill="black"/>
<path d="M240.948 27.9603V21.516L227.461 13.5005C226.828 13.1241 226.62 12.3056 226.996 11.6724C227.372 11.0392 228.191 10.831 228.824 11.2074L243.616 19.9985V27.9603C243.616 28.697 243.018 29.2942 242.282 29.2942C241.545 29.2942 240.948 28.697 240.948 27.9603Z" fill="black"/>
<path d="M223.739 23.9586C224.476 23.9586 225.073 24.5558 225.073 25.2925C225.073 26.0292 224.476 26.6264 223.739 26.6264H211.334C210.597 26.6264 210 26.0292 210 25.2925C210 24.5558 210.597 23.9586 211.334 23.9586H223.739Z" fill="black"/>
<path d="M214.137 28.2272C214.874 28.2272 215.471 28.8244 215.471 29.5611C215.471 30.2977 214.874 30.8949 214.137 30.8949H213.603C212.867 30.8949 212.27 30.2977 212.27 29.5611C212.27 28.8244 212.867 28.2272 213.603 28.2272H214.137ZM224.408 28.2272C225.145 28.2272 225.742 28.8244 225.742 29.5611C225.742 30.2977 225.145 30.8949 224.408 30.8949H218.005C217.269 30.8949 216.671 30.2977 216.671 29.5611C216.671 28.8244 217.269 28.2272 218.005 28.2272H224.408Z" fill="black"/>
<path d="M134.032 58.3475V58.3472C137.324 58.3472 139.631 59.9454 141.129 61.8789C142.599 63.7766 143.322 66.0249 143.548 67.5477L143.753 68.935H124.539L124.659 67.6154C124.992 63.9548 126.586 61.5798 128.533 60.151C130.424 58.7633 132.571 58.3231 134.032 58.3475ZM134.007 60.767C132.998 60.7464 131.377 61.0649 129.964 62.102C128.811 62.9482 127.739 64.3134 127.267 66.515H140.827C140.512 65.5069 139.991 64.3612 139.216 63.3614C138.077 61.8917 136.427 60.7673 134.032 60.7673H134.019L134.007 60.767Z" fill="black"/>
<path d="M129.585 69.9939H138.608L140.515 67.7067L141.444 68.4813H143.108V70.9673C143.253 71.0519 143.389 71.1511 143.514 71.2662C143.908 71.6285 144.113 72.0733 144.197 72.4984C144.351 73.2854 144.103 74.0378 143.888 74.4677C143.723 74.7974 143.479 75.0401 143.283 75.2036C143.077 75.3757 142.852 75.5194 142.647 75.6349C142.513 75.7105 142.376 75.7794 142.243 75.842C141.963 77.5677 141.477 78.782 141.148 79.3418C140.163 81.3434 138.413 82.3728 136.748 82.8555C135.087 83.3372 133.405 83.3122 132.326 83.1374L132.316 83.1359L132.306 83.1341C129.578 82.6443 127.862 81.1701 126.873 79.5004C126.104 78.2017 125.786 76.8083 125.721 75.6978C125.196 75.3365 124.796 74.9054 124.618 74.6822L124.538 74.5823L124.48 74.4677C124.009 73.525 124.059 72.6163 124.474 71.8893C124.65 71.5822 124.875 71.3355 125.109 71.1419V68.4813H126.621L127.526 67.6775L129.585 69.9939ZM139.742 72.4139H128.498L127.529 71.3233V72.6281L126.768 72.9324C126.751 72.9394 126.706 72.9616 126.659 72.9995C126.613 73.0362 126.587 73.0694 126.575 73.0899C126.567 73.1039 126.565 73.1125 126.565 73.1294C126.564 73.1431 126.566 73.1884 126.595 73.2701C126.663 73.3431 126.759 73.4389 126.874 73.5365C127.06 73.6941 127.237 73.8074 127.373 73.8618L128.177 74.1832L128.132 75.0473C128.092 75.8317 128.274 77.1156 128.956 78.2674C129.61 79.3719 130.741 80.392 132.727 80.7504C133.516 80.8762 134.821 80.8945 136.074 80.5312C137.317 80.1709 138.4 79.4738 138.993 78.2417L139.021 78.1817L139.057 78.1256C139.19 77.9128 139.713 76.7755 139.94 74.8438L140.03 74.0804L140.759 73.8373C140.927 73.7813 141.21 73.6672 141.459 73.5265C141.583 73.4567 141.674 73.3941 141.732 73.346C141.738 73.3406 141.743 73.3351 141.748 73.3309C141.772 73.2733 141.795 73.2036 141.81 73.1321C141.818 73.0913 141.822 73.0577 141.823 73.0317C141.794 73.0225 141.754 73.0115 141.699 73.0024L140.688 72.834V71.2789L139.742 72.4139Z" fill="black"/>
<path d="M144.884 82.6991L148.1 88.8474V107.807H120.27V88.4193L123.171 82.6991H144.884ZM122.69 88.9977V105.387H145.68V89.442L143.419 85.1192H124.657L122.69 88.9977Z" fill="black"/>
<path d="M146.594 87.6906V90.1106H128.746V87.6906H146.594Z" fill="black"/>
<path d="M135.252 83.9091V88.7492H132.832V83.9091H135.252Z" fill="black"/>
<path d="M131.916 89.203V92.0768H136.454V89.203H138.874V94.4969H129.496V89.203H131.916Z" fill="black"/>
<path d="M125.116 87.8418V90.2619H121.637V87.8418H125.116Z" fill="black"/>
<path d="M126.322 93.892V101.606H123.902V93.892H126.322Z" fill="black"/>
<path d="M126.322 91.1693V92.8331H123.902V91.1693H126.322Z" fill="black"/>
<path d="M138.571 107.051H136.151V104.575L136.027 104.683L135.232 103.755L135.175 103.688L134.116 104.747L133.277 103.768L132.492 104.683L132.369 104.575V107.051H129.949V99.2416L132.246 101.252L133.277 100.049L134.196 101.121L134.253 101.188L135.311 100.129L136.162 101.121L136.274 101.252L138.571 99.2416V107.051Z" fill="black"/>
<path d="M123.157 86.8918C122.211 87.15 120.619 87.861 119.285 89.1242C117.976 90.3636 116.94 92.1039 116.94 94.4973V107.24L116.938 107.278C116.922 107.521 116.973 107.875 117.111 108.118C117.172 108.224 117.235 108.287 117.299 108.326C117.358 108.362 117.473 108.412 117.696 108.412H150.367C150.577 108.412 150.919 108.34 151.173 108.157C151.365 108.018 151.577 107.776 151.577 107.202V94.4834L151.578 94.4701C151.619 92.6007 150.436 88.2902 145.071 86.8953L145.68 84.5532C152.393 86.2986 154.045 91.8186 153.997 94.497V107.202C153.997 108.565 153.403 109.533 152.587 110.121C151.833 110.663 150.964 110.833 150.367 110.833H117.696C116.373 110.833 115.487 110.159 115.007 109.312C114.585 108.57 114.493 107.741 114.52 107.178V94.4967C114.521 91.3122 115.93 88.9684 117.621 87.3671C119.287 85.7897 121.249 84.9036 122.521 84.5568L123.157 86.8918Z" fill="black"/>
<path d="M124.057 107.505V109.471H121.637V107.505H124.057Z" fill="black"/>
<path d="M146.74 107.354V109.471H144.32V107.354H146.74Z" fill="black"/>
<path d="M118.027 103.193C119.399 102.829 120.829 102.941 121.746 103.148L121.213 105.509C120.568 105.363 119.547 105.293 118.647 105.532C117.791 105.759 117.158 106.221 116.89 107.101L114.574 106.396C115.153 104.493 116.613 103.568 118.027 103.193Z" fill="black"/>
<path d="M146.926 102.822C151.269 102.401 153.425 104.904 153.943 106.533L151.637 107.267C151.45 106.678 150.318 104.925 147.159 105.23L146.926 102.822Z" fill="black"/>
<path d="M121.633 99.3372V101.757H116.188V99.3372H121.633Z" fill="black"/>
<path d="M152.344 99.3372V101.757H146.898V99.3372H152.344Z" fill="black"/>
<path d="M130.709 80.7327V83.6065H128.289V80.7327H130.709Z" fill="black"/>
<path d="M139.631 80.5817V83.6068H137.211V80.5817H139.631Z" fill="black"/>
<path d="M19.2476 65.1426V84.6813H9V82.2219H16.7882V65.1426H19.2476Z" fill="black"/>
<path d="M19.2476 86.5942V106.406H16.7882V89.0537H9V86.5942H19.2476Z" fill="black"/>
<path d="M23.893 65.2792V89.4635H49.3071V91.9229H21.4336V65.2792H23.893Z" fill="black"/>
<path d="M23.893 106.406V95.8854H49.3071V93.426H21.4336V106.406H23.893Z" fill="black"/>
<path d="M32.5025 79.626V82.0854H23.8945V79.626H32.5025Z" fill="black"/>
<path d="M33.3227 95.7488V101.078H37.8316V103.537H30.8633V95.7488H33.3227Z" fill="black"/>
<path d="M14.1899 88.917V94.2457H11.7305V88.917H14.1899Z" fill="black"/>
<path d="M16.7899 71.9744V74.4338H11.8711V71.9744H16.7899Z" fill="black"/>
<path d="M40.6853 62.0314C43.7513 61.7882 47.059 62.9416 49.2949 65.9938C50.092 67.0821 51.332 69.8998 50.8296 73.6678C50.3205 77.4853 48.0463 82.1285 42.0442 86.8755L41.3031 87.4618L40.5457 86.8965C38.0764 85.0533 35.3501 81.783 33.6828 78.129C32.0235 74.4928 31.295 70.1947 33.3182 66.5022C34.753 63.8839 37.6611 62.2713 40.6853 62.0314ZM47.3107 67.4472C45.6308 65.1539 43.1871 64.3004 40.8798 64.4834C38.5307 64.6697 36.4436 65.9165 35.475 67.6842C33.9894 70.3955 34.4078 73.793 35.9204 77.108C37.2527 80.0277 39.3427 82.6643 41.2769 84.3296C46.2979 80.1296 48.0028 76.2599 48.3918 73.3428C48.8063 70.234 47.7511 68.0484 47.3107 67.4472Z" fill="black"/>
<path d="M42.8873 71.8378C42.8873 71.0077 42.2144 70.3348 41.3843 70.3348C40.5542 70.3348 39.8813 71.0077 39.8813 71.8378C39.8813 72.6678 40.5542 73.3408 41.3843 73.3408V75.8002C39.1959 75.8002 37.4219 74.0261 37.4219 71.8378C37.4219 69.6494 39.1959 67.8754 41.3843 67.8754C43.5727 67.8754 45.3467 69.6494 45.3467 71.8378C45.3467 74.0261 43.5727 75.8002 41.3843 75.8002V73.3408C42.2144 73.3408 42.8873 72.6678 42.8873 71.8378Z" fill="black"/>
<path d="M234.69 67.3345C239.451 66.2075 244.901 67.6477 248.857 72.9219C250.122 74.6085 251.462 77.8869 250.847 82.1909C250.231 86.5053 247.667 91.7462 241.307 97.4041C240.698 97.9992 239.14 99.041 237.095 99.1546C236.549 99.185 236.081 98.7667 236.051 98.2203C236.02 97.6739 236.439 97.2063 236.985 97.176C238.479 97.093 239.614 96.296 239.931 95.9782L239.952 95.9576L239.974 95.9383C246.087 90.5039 248.35 85.6556 248.885 81.9105C249.422 78.151 248.236 75.397 247.271 74.1109C243.795 69.476 239.15 68.3151 235.147 69.2628C231.089 70.2235 227.689 73.3439 226.732 77.3391C226.605 77.8713 226.07 78.1996 225.538 78.0721C225.005 77.9447 224.677 77.41 224.805 76.8778C225.954 72.0787 229.985 68.4485 234.69 67.3345Z" fill="black"/>
<path d="M241.868 80.5766C241.868 78.456 240.149 76.7368 238.029 76.7368C235.908 76.7368 234.189 78.456 234.189 80.5766C234.189 82.6973 235.908 84.4164 238.029 84.4164V86.3982C234.813 86.3982 232.207 83.7918 232.207 80.5766C232.207 77.3614 234.813 74.755 238.029 74.755C241.244 74.755 243.85 77.3614 243.85 80.5766C243.85 83.7918 241.244 86.3982 238.029 86.3982V84.4164C240.149 84.4164 241.868 82.6973 241.868 80.5766Z" fill="black"/>
<path d="M234.066 99.28C234.066 99.9641 233.511 100.519 232.827 100.519H227.873C227.325 100.519 226.882 100.075 226.882 99.5278C226.882 98.9805 227.325 98.5369 227.873 98.5369H232.084V91.8881C232.084 89.4986 230.435 87.4252 228.106 86.8878C227.821 86.8221 227.569 86.6564 227.395 86.4209L215.982 70.9539V98.5369H218.707C219.254 98.5369 219.698 98.9805 219.698 99.5278C219.698 100.075 219.254 100.519 218.707 100.519H215.239C214.555 100.519 214 99.9641 214 99.28V68.6953C214 67.5188 215.478 67.014 216.201 67.9159L216.235 67.9599L228.83 85.0267C231.91 85.8682 234.066 88.6715 234.066 91.8881V99.28Z" fill="black"/>
<path d="M225.768 98.7847C225.768 97.2797 224.548 96.0597 223.043 96.0597C221.538 96.0597 220.318 97.2797 220.318 98.7847C220.318 100.29 221.538 101.51 223.043 101.51V103.492C220.443 103.492 218.336 101.384 218.336 98.7847C218.336 96.1852 220.443 94.0779 223.043 94.0779C225.642 94.0779 227.75 96.1852 227.75 98.7847C227.75 101.384 225.642 103.492 223.043 103.492V101.51C224.548 101.51 225.768 100.29 225.768 98.7847Z" fill="black"/>
<path d="M241.498 101.881C242.045 101.881 242.489 102.325 242.489 102.872C242.489 103.419 242.045 103.863 241.498 103.863H214.991C214.444 103.863 214 103.419 214 102.872C214 102.325 214.444 101.881 214.991 101.881H241.498ZM249.301 101.881C249.848 101.881 250.292 102.325 250.292 102.872C250.292 103.419 249.848 103.863 249.301 103.863H246.576C246.029 103.863 245.585 103.419 245.585 102.872C245.585 102.325 246.029 101.881 246.576 101.881H249.301Z" fill="black"/>
<path d="M216.602 80.4528C216.602 79.9056 217.045 79.4619 217.592 79.4619C218.14 79.4619 218.583 79.9056 218.583 80.4528V85.779H224.777C225.324 85.779 225.767 86.2226 225.767 86.7699C225.767 87.3171 225.324 87.7608 224.777 87.7608H217.84C217.156 87.7608 216.602 87.2062 216.602 86.5222V80.4528Z" fill="black"/>
<path d="M17.4141 148.295V138.753H48.1625V151.874C48.1625 152.533 47.6285 153.067 46.9697 153.067C46.3109 153.067 45.7769 152.533 45.7769 151.874V141.138H19.7997V148.295C19.7997 148.954 19.2657 149.488 18.6069 149.488C17.9481 149.488 17.4141 148.954 17.4141 148.295Z" fill="black"/>
<path d="M40.9999 139.415V133.716H24.5653V139.415C24.5653 140.074 24.0313 140.608 23.3725 140.608C22.7137 140.608 22.1797 140.074 22.1797 139.415V131.331H43.3855V139.415C43.3855 140.074 42.8515 140.608 42.1927 140.608C41.5339 140.608 40.9999 140.074 40.9999 139.415Z" fill="black"/>
<path d="M34.7714 131.728V124.571H30.5302V131.728C30.5302 132.387 29.9961 132.921 29.3374 132.921C28.6786 132.921 28.1445 132.387 28.1445 131.728V122.186H37.157V131.728C37.157 132.387 36.623 132.921 35.9642 132.921C35.3054 132.921 34.7714 132.387 34.7714 131.728Z" fill="black"/>
<path d="M50.9987 152.91L46.874 164.332H32.1868L32.121 164.325C31.5494 164.261 30.8891 164.042 30.2756 163.757C29.9642 163.613 29.6444 163.441 29.3323 163.246C28.6634 163.796 27.7811 164.263 26.7468 164.429C25.4104 164.645 23.9399 164.342 22.4938 163.281C21.8131 163.799 20.9465 164.2 19.9396 164.323C18.6555 164.481 17.2441 164.177 15.8097 163.25C14.8298 164.036 13.3282 164.628 11.6027 163.823C11.0058 163.544 10.7477 162.834 11.0262 162.237C11.3049 161.64 12.0148 161.382 12.6118 161.661C13.4517 162.053 14.2611 161.604 14.7254 160.974L15.4735 159.959L16.4455 160.762C17.7599 161.847 18.8548 162.053 19.6491 161.955C20.4773 161.854 21.1358 161.405 21.5166 160.933L22.3348 159.918L23.2732 160.823C24.5223 162.027 25.5914 162.199 26.3671 162.074C27.2123 161.938 27.9047 161.416 28.2578 160.956L29.0243 159.956L29.9808 160.776C30.289 161.04 30.6687 161.284 31.06 161.485V148.612L17.2329 154.254L19.1788 159.118C19.4234 159.73 19.126 160.424 18.5143 160.668C17.9026 160.913 17.2086 160.615 16.964 160.004L14.1383 152.94L32.244 145.553L50.9987 152.91ZM33.4456 161.947H45.1992L47.9664 154.283L33.4456 148.587V161.947Z" fill="black"/>
<path d="M8.20046 160.49C8.56589 159.942 9.30644 159.793 9.85458 160.159L10.2522 160.424C10.8003 160.789 10.9484 161.53 10.583 162.078C10.2176 162.626 9.47704 162.774 8.9289 162.409L8.53129 162.144C7.98315 161.778 7.83504 161.038 8.20046 160.49Z" fill="black"/>
<path d="M24.8359 153.729V153.332C24.8359 152.673 25.37 152.139 26.0288 152.139C26.6875 152.139 27.2216 152.673 27.2216 153.332V153.729C27.2216 154.388 26.6875 154.922 26.0288 154.922C25.37 154.922 24.8359 154.388 24.8359 153.729Z" fill="black"/>
<path d="M135.215 157.101V138.463H147.006L154.001 148.548V158.432H148.676C147.94 158.432 147.344 157.836 147.344 157.101C147.344 156.365 147.94 155.769 148.676 155.769H151.338V149.381L145.612 141.125H137.877V157.101C137.877 157.836 137.281 158.432 136.546 158.432C135.811 158.432 135.215 157.836 135.215 157.101Z" fill="black"/>
<path d="M116.724 156.065C117.459 156.065 118.055 156.661 118.055 157.397C118.055 158.132 117.459 158.728 116.724 158.728H111.695C110.959 158.728 110.363 158.132 110.363 157.397C110.363 156.661 110.959 156.065 111.695 156.065H116.724ZM137.877 156.065C138.612 156.065 139.208 156.661 139.208 157.397C139.208 158.132 138.612 158.728 137.877 158.728H127.522C126.787 158.728 126.191 158.132 126.191 157.397C126.191 156.661 126.787 156.065 127.522 156.065H137.877Z" fill="black"/>
<path d="M127.928 136.741L132.634 142.288L116.754 156.497L107.25 148.484L127.116 127.399L127.928 136.741ZM111.117 148.262L116.702 152.971L128.926 142.033L125.349 137.817L124.978 133.551L111.117 148.262Z" fill="black"/>
<path d="M125.6 158.728C125.6 156.849 124.077 155.326 122.198 155.326C120.319 155.326 118.795 156.849 118.795 158.728C118.795 160.607 120.319 162.13 122.198 162.13V164.793C118.848 164.793 116.133 162.077 116.133 158.728C116.133 155.379 118.848 152.663 122.198 152.663C125.547 152.663 128.262 155.379 128.262 158.728C128.262 162.077 125.547 164.793 122.198 164.793V162.13C124.077 162.13 125.6 160.607 125.6 158.728Z" fill="black"/>
<path d="M147.194 158.728C147.194 156.849 145.67 155.326 143.791 155.326C141.912 155.326 140.389 156.849 140.389 158.728C140.389 160.607 141.912 162.13 143.791 162.13V164.793C140.442 164.793 137.727 162.077 137.727 158.728C137.727 155.379 140.442 152.663 143.791 152.663C147.141 152.663 149.856 155.379 149.856 158.728C149.856 162.077 147.141 164.793 143.791 164.793V162.13C145.67 162.13 147.194 160.607 147.194 158.728Z" fill="black"/>
<path d="M233.279 129.969V160.62H221.625V158.029H230.688V132.561H200V129.969H233.279Z" fill="black"/>
<path d="M217.086 141.688V144.28H207.115V159.655H204.523V141.688H217.086Z" fill="black"/>
<path d="M213.995 136.076V138.667H203.273V136.076H213.995Z" fill="black"/>
<path d="M249.998 140.203V160.48H247.407V142.794H232.348V140.203H249.998Z" fill="black"/>
<path d="M241.458 141.664V149.281H248.522V151.872H238.867V141.664H241.458Z" fill="black"/>
<path d="M211.086 157.509H217.265V162.791H211.086V157.509Z" fill="black"/>
<path d="M237.254 157.509H243.433V162.791H237.254V157.509Z" fill="black"/>
</svg>
