<svg width="165" height="41" viewBox="0 0 165 41" fill="none" xmlns="http://www.w3.org/2000/svg">
<path d="M150.135 31.8451H149.995V40.0351H145.48V11.6851H149.995V27.6801H154.685C156.389 27.6801 157.462 27.4117 157.905 26.8751C158.372 26.3384 158.605 25.3001 158.605 23.7601V21.1001H163.12V24.4251C163.12 26.9684 162.537 28.8467 161.37 30.0601C160.227 31.2501 158.43 31.8451 155.98 31.8451H154.965C155.689 33.1751 156.26 34.1084 156.68 34.6451C157.124 35.1817 157.66 35.5784 158.29 35.8351C158.944 36.0684 159.889 36.1851 161.125 36.1851H164.065C163.995 37.3517 163.669 38.2851 163.085 38.9851C162.502 39.6617 161.674 40.0001 160.6 40.0001H158.395C156.949 40.0234 155.7 39.4984 154.65 38.4251C153.6 37.3284 152.095 35.1351 150.135 31.8451Z" fill="#070707"/>
<path d="M127.551 29.0801H137.631C137.444 27.7035 136.896 26.6185 135.986 25.8251C135.099 25.0318 133.956 24.6351 132.556 24.6351C131.156 24.6351 130.012 25.0318 129.126 25.8251C128.262 26.6185 127.737 27.7035 127.551 29.0801ZM132.906 40.0001C130.222 40.0001 127.924 39.1601 126.011 37.4801C124.097 35.7768 123.141 33.4318 123.141 30.4451C123.141 27.4818 124.016 25.1135 125.766 23.3401C127.539 21.5435 129.802 20.6568 132.556 20.6801C135.286 20.6801 137.526 21.5201 139.276 23.2001C141.026 24.8801 141.901 27.0618 141.901 29.7451V32.5451H127.761C128.017 33.4785 128.472 34.2018 129.126 34.7151C129.779 35.2285 130.432 35.5551 131.086 35.6951C131.762 35.8351 132.567 35.9051 133.501 35.9051L141.516 35.8701C141.352 37.2935 140.886 38.3435 140.116 39.0201C139.369 39.6735 138.121 40.0001 136.371 40.0001H132.906Z" fill="#070707"/>
<path d="M106.086 29.0801H116.166C115.979 27.7035 115.431 26.6185 114.521 25.8251C113.634 25.0318 112.491 24.6351 111.091 24.6351C109.691 24.6351 108.547 25.0318 107.661 25.8251C106.797 26.6185 106.272 27.7035 106.086 29.0801ZM111.441 40.0001C108.757 40.0001 106.459 39.1601 104.546 37.4801C102.632 35.7768 101.676 33.4318 101.676 30.4451C101.676 27.4818 102.551 25.1135 104.301 23.3401C106.074 21.5435 108.337 20.6568 111.091 20.6801C113.821 20.6801 116.061 21.5201 117.811 23.2001C119.561 24.8801 120.436 27.0618 120.436 29.7451V32.5451H106.296C106.552 33.4785 107.007 34.2018 107.661 34.7151C108.314 35.2285 108.967 35.5551 109.621 35.6951C110.297 35.8351 111.102 35.9051 112.036 35.9051L120.051 35.8701C119.887 37.2935 119.421 38.3435 118.651 39.0201C117.904 39.6735 116.656 40.0001 114.906 40.0001H111.441Z" fill="#070707"/>
<path d="M78.7494 27.8201C78.7494 29.5468 79.0878 31.0518 79.7644 32.3351C80.4644 33.6185 81.3394 34.5751 82.3894 35.2051C83.4628 35.8118 84.6411 36.1851 85.9244 36.3251C87.2077 36.4651 88.4211 36.3485 89.5644 35.9751C90.7311 35.5785 91.7694 34.9251 92.6794 34.0151C93.6127 33.1051 94.2428 32.0085 94.5694 30.7251H93.5544C92.6444 30.7251 91.9561 30.7251 91.4894 30.7251C91.0461 30.7018 90.4511 30.6551 89.7044 30.5851C88.9577 30.5151 88.3744 30.3985 87.9544 30.2351C87.5577 30.0485 87.1261 29.8151 86.6594 29.5351C86.1927 29.2551 85.8311 28.8818 85.5744 28.4151C85.3411 27.9485 85.1661 27.3885 85.0494 26.7351H99.1194V28.7301C99.1194 31.6701 98.2561 34.1668 96.5294 36.2201C94.8028 38.2735 92.7144 39.5335 90.2644 40.0001C87.8144 40.4668 85.3528 40.4551 82.8794 39.9651C80.4294 39.4518 78.3411 38.1101 76.6144 35.9401C74.8878 33.7468 74.0244 31.0401 74.0244 27.8201C74.0244 25.9768 74.3278 24.2968 74.9344 22.7801C75.5644 21.2401 76.3928 19.9568 77.4194 18.9301C78.4461 17.9035 79.6361 17.0635 80.9894 16.4101C82.3428 15.7568 83.7427 15.3368 85.1894 15.1501C86.6361 14.9635 88.0944 14.9985 89.5644 15.2551C91.0344 15.5118 92.3878 15.9785 93.6244 16.6551C94.8844 17.3318 96.0044 18.2651 96.9844 19.4551C97.9644 20.6218 98.6761 21.9868 99.1194 23.5501H94.3594C93.8461 22.4301 93.0878 21.5085 92.0844 20.7851C91.1044 20.0618 90.0427 19.5835 88.8994 19.3501C87.7561 19.0935 86.5778 19.0935 85.3644 19.3501C84.1511 19.5835 83.0544 20.0385 82.0744 20.7151C81.1178 21.3685 80.3244 22.3135 79.6944 23.5501C79.0644 24.7868 78.7494 26.2101 78.7494 27.8201Z" fill="#070707"/>
<path d="M57.2591 40H52.7441V28.87C52.7908 26.21 53.6541 24.18 55.3341 22.78C57.0375 21.3567 59.2191 20.645 61.8791 20.645C64.5625 20.645 66.7441 21.3684 68.4241 22.815C70.1275 24.2617 70.9791 26.3384 70.9791 29.045V40H66.4641V29.395C66.4641 27.925 66.0558 26.8167 65.2391 26.07C64.4458 25.3 63.3258 24.915 61.8791 24.915C60.4325 24.915 59.3008 25.3 58.4841 26.07C57.6675 26.8167 57.2591 27.925 57.2591 29.395V40Z" fill="#070707"/>
<path d="M45.0685 30.515C45.0685 26.6417 43.2135 24.705 39.5035 24.705C35.7935 24.705 33.9385 26.6417 33.9385 30.515C33.9385 34.365 35.7935 36.29 39.5035 36.29C43.2135 36.29 45.0685 34.365 45.0685 30.515ZM46.9235 37.76C45.1269 39.4867 42.6535 40.35 39.5035 40.35C36.3535 40.35 33.8685 39.4867 32.0485 37.76C30.2519 36.0334 29.3535 33.6184 29.3535 30.515C29.3535 27.4117 30.2635 24.9967 32.0835 23.27C33.9035 21.52 36.3768 20.645 39.5035 20.645C42.6302 20.645 45.1035 21.52 46.9235 23.27C48.7435 24.9967 49.6535 27.4117 49.6535 30.515C49.6535 33.6184 48.7435 36.0334 46.9235 37.76Z" fill="#070707"/>
<path d="M17.8936 40.0001C15.0469 40.0001 12.6903 39.1951 10.8236 37.5851C8.98026 35.9518 8.05859 33.5718 8.05859 30.4451C8.05859 27.4818 8.93359 25.1135 10.6836 23.3401C12.4569 21.5435 14.7203 20.6568 17.4736 20.6801C20.2736 20.6801 22.5253 21.4851 24.2286 23.0951C25.9553 24.7051 26.8186 26.9801 26.8186 29.9201H22.4086C22.4086 28.3568 21.9653 27.0851 21.0786 26.1051C20.2153 25.1251 19.0136 24.6351 17.4736 24.6351C15.9336 24.6351 14.7203 25.1835 13.8336 26.2801C12.9703 27.3768 12.5386 28.7651 12.5386 30.4451C12.5386 32.3118 13.0986 33.7118 14.2186 34.6451C15.3386 35.5785 16.8086 36.0451 18.6286 36.0451H26.2586C26.0486 37.4218 25.5119 38.4251 24.6486 39.0551C23.8086 39.6851 22.5253 40.0001 20.7986 40.0001H17.8936Z" fill="#070707"/>
<path d="M5.565 14.3451C5.565 15.2084 5.30833 15.8967 4.795 16.4101C4.305 16.9001 3.62833 17.1451 2.765 17.1451C1.925 17.1451 1.24833 16.9001 0.735 16.4101C0.245 15.8967 0 15.2084 0 14.3451C0 13.5051 0.245 12.8401 0.735 12.3501C1.24833 11.8367 1.925 11.5801 2.765 11.5801C3.62833 11.5801 4.305 11.8367 4.795 12.3501C5.30833 12.8401 5.565 13.5051 5.565 14.3451ZM0.525 40.0001V21.1001H5.04V40.0001H0.525Z" fill="#070707"/>
<path d="M5.565 14.3451C5.565 15.2084 5.30833 15.8967 4.795 16.4101C4.305 16.9001 3.62833 17.1451 2.765 17.1451C1.925 17.1451 1.24833 16.9001 0.735 16.4101C0.245 15.8967 0 15.2084 0 14.3451C0 13.5051 0.245 12.8401 0.735 12.3501C1.24833 11.8367 1.925 11.5801 2.765 11.5801C3.62833 11.5801 4.305 11.8367 4.795 12.3501C5.30833 12.8401 5.565 13.5051 5.565 14.3451Z" fill="#028231"/>
<path d="M74.4722 4.11063L77.1377 16C77.1377 16 80.9188 12.5 87.4248 12.5C93.9308 12.5 97.4248 17 97.4248 17C98.1864 13.9752 100.061 5.63532 100.365 4.47379C100.67 3.31226 99.7307 3.26374 99.223 3.38467C97.5729 4.59466 94.1206 7.15982 93.5113 7.74059C92.7498 8.46655 93.1305 8.10358 93.5113 9.1925C93.8921 10.2814 92.7498 11.0074 91.6074 10.6444C89.7035 9.91845 90.4651 8.10358 91.2266 8.10358C91.8359 8.10358 91.7343 7.61961 91.6074 7.37762C90.7189 5.44173 88.7897 1.35216 88.1804 0.481007C87.5712 -0.390143 86.9112 0.118028 86.6573 0.481007L83.2303 7.01463C82.8495 7.74059 83.2303 7.37761 83.9919 8.46655C84.7534 9.55548 83.6111 10.6444 82.8495 10.6444C82.088 10.6444 80.9456 10.2814 81.3264 9.1925C81.631 8.32135 81.4533 7.86158 81.3264 7.74059C79.9302 6.5306 76.8331 3.96544 75.6146 3.38467C74.3961 2.8039 74.3453 3.62666 74.4722 4.11063Z" fill="#028231"/>
</svg>
