<svg width="260" height="178" viewBox="0 0 260 178" fill="none" xmlns="http://www.w3.org/2000/svg">
<path d="M41.5156 36.5161L47.6447 40.7097" stroke="black" stroke-width="1.29033" stroke-linecap="round"/>
<path d="M25.707 25.8711L22.4225 22.6267" stroke="black" stroke-width="1.29033" stroke-linecap="round"/>
<path d="M26.4336 36.2002L23.1892 39.4847" stroke="black" stroke-width="1.29033" stroke-linecap="round"/>
<path d="M33.4531 37.1616L35.066 43.6133" stroke="black" stroke-width="1.29033" stroke-linecap="round"/>
<path d="M39.6719 25.3628L44.6811 20.9887" stroke="black" stroke-width="1.29033" stroke-linecap="round"/>
<path d="M27.0022 37.1616H32.1602H38.9637C42.1793 37.1616 44.8102 34.6009 44.897 31.3864L44.9146 30.7363C44.9858 28.1036 42.3682 26.2368 39.9022 27.1615C39.016 23.026 34.6133 24.0299 33.3821 25.9625C33.2859 26.1134 33.0036 26.1017 32.9521 25.9303C32.5012 24.4271 30.9928 23.5028 29.4487 23.7835L28.1519 24.0193C26.3634 24.3445 25.0634 25.9022 25.0634 27.72V28.7053C25.0634 28.7435 25.0325 28.7744 24.9943 28.7744C23.429 28.7744 22.1602 30.0433 22.1602 31.6086V32.3195C22.1602 34.9937 24.328 37.1616 27.0022 37.1616Z" fill="black" stroke="black" stroke-width="1.29033" stroke-linecap="round"/>
<circle cx="36.3521" cy="47.4839" r="3.871" stroke="black" stroke-width="1.29033"/>
<circle cx="36.3521" cy="47.4839" r="3.871" stroke="black" stroke-width="1.29033"/>
<path d="M49.5811 40.1992C50.6497 40.1994 51.5164 41.0662 51.5166 42.1348C51.5166 43.2036 50.6498 44.0701 49.5811 44.0703C48.5121 44.0703 47.6455 43.2037 47.6455 42.1348C47.6457 41.066 48.5123 40.1992 49.5811 40.1992Z" fill="black" stroke="black" stroke-width="1.29033"/>
<path d="M19.5791 21.5957C18.5105 21.5955 17.6438 20.7297 17.6436 19.6611C17.6436 18.5923 18.5103 17.7258 19.5791 17.7256C20.648 17.7256 21.5146 18.5922 21.5146 19.6611C21.5144 20.7299 20.6479 21.5957 19.5791 21.5957Z" fill="black" stroke="black" stroke-width="1.29033"/>
<path d="M22.1592 42.3296C22.159 43.3982 21.2932 44.2649 20.2246 44.2651C19.1558 44.2651 18.2893 43.3984 18.2891 42.3296C18.2891 41.2606 19.1557 40.394 20.2246 40.394C21.2933 40.3943 22.1592 41.2608 22.1592 42.3296Z" fill="black" stroke="black" stroke-width="1.29033"/>
<circle cx="47.5342" cy="18.0774" r="3.871" transform="rotate(-117.092 47.5342 18.0774)" stroke="black" stroke-width="1.29033"/>
<path d="M117.16 29.7793H123.756" stroke="black" stroke-width="1.14706" stroke-linecap="round"/>
<path d="M121.775 17.9007L126.053 25.7647" stroke="black" stroke-width="1.14706" stroke-linecap="round"/>
<path d="M141.455 33.3235L132.073 30.0659" stroke="black" stroke-width="1.14706" stroke-linecap="round"/>
<path d="M140.066 19.397L131.212 26.6252" stroke="black" stroke-width="1.14706" stroke-linecap="round"/>
<path d="M129.492 36.0884L130.924 36.9831C131.46 37.3185 131.786 37.9066 131.786 38.5394V40.9634" stroke="black" stroke-width="1.14706" stroke-linecap="round"/>
<path d="M131.785 38.3823L133.457 39.4972C134.017 39.8705 134.328 40.5202 134.267 41.1904L134.079 43.2573" stroke="black" stroke-width="1.14706" stroke-linecap="round"/>
<path d="M134.367 41.25C135.953 41.4086 137.133 42.8201 136.984 44.4069C136.763 46.7551 136.414 49.6203 135.801 51" stroke="black" stroke-width="1.14706" stroke-linecap="round"/>
<path d="M123.182 51.0002C122.226 49.8531 120.551 46.4804 120.888 42.1105C121.109 39.2471 121.16 38.5831 121.041 37.7793C120.982 37.3786 121.32 37.0273 121.719 37.0998L121.905 37.1337C123.12 37.3545 123.971 38.4576 123.876 39.6884L123.758 41.2332C123.757 41.2445 123.757 41.2558 123.76 41.2669L124.33 43.8311" stroke="black" stroke-width="1.14706" stroke-linecap="round"/>
<path d="M123.758 47.272C123.88 46.3567 124.103 44.7169 124.607 42.9941C125.183 41.0221 125.826 39.0389 125.943 36.9877L126.338 30.0788C126.338 30.0704 126.34 30.0623 126.342 30.0542C126.535 29.3951 127.293 28.1669 128.826 28.3338C128.88 28.3397 128.922 28.3848 128.926 28.4389C129.119 31.3556 129.487 33.5768 128.92 40.1029" stroke="black" stroke-width="1.14706" stroke-linecap="round"/>
<path d="M128.061 24.6177C130.594 24.6177 132.649 26.6717 132.649 29.2056C132.649 30.7072 131.927 32.0394 130.812 32.8765C130.886 32.6215 130.929 32.3527 130.929 32.0737V29.7798C130.929 28.196 129.644 26.9116 128.061 26.9116C126.477 26.9117 125.193 28.1961 125.193 29.7798V32.0737C125.193 32.353 125.235 32.6223 125.31 32.8774C124.194 32.0404 123.473 30.7073 123.473 29.2056C123.473 26.6718 125.527 24.6178 128.061 24.6177Z" fill="black"/>
<path d="M117.735 29.7793C117.735 31.363 116.451 32.6469 114.868 32.6469C113.284 32.6469 112 31.363 112 29.7793C112 28.1955 113.284 26.9116 114.868 26.9116C116.451 26.9116 117.735 28.1955 117.735 29.7793Z" fill="black"/>
<path d="M122.035 18.4121C120.624 19.1314 118.897 18.5708 118.177 17.1598C117.458 15.7488 118.019 14.0219 119.43 13.3025C120.841 12.5832 122.568 13.1438 123.287 14.5548C124.006 15.9657 123.446 17.6927 122.035 18.4121Z" fill="black"/>
<path d="M140.913 33.134C141.439 31.64 143.076 30.8553 144.57 31.3811C146.064 31.9069 146.849 33.5443 146.323 35.0382C145.797 36.5321 144.16 37.3169 142.666 36.791C141.172 36.2652 140.387 34.6279 140.913 33.134Z" fill="black"/>
<path d="M139.645 19.7864C140.718 20.9515 142.532 21.0264 143.697 19.9536C144.862 18.8808 144.937 17.0667 143.864 15.9016C142.792 14.7365 140.977 14.6616 139.812 15.7344C138.647 16.8072 138.572 18.6213 139.645 19.7864Z" fill="black"/>
<path d="M132.04 85.3078H129.596C129.416 85.3078 129.243 85.2362 129.115 85.1089L126.859 82.8589" stroke="black" stroke-width="1.36266" stroke-linecap="round"/>
<path d="M132.04 95.1869H129.61C129.422 95.1869 129.242 95.2651 129.113 95.4027L126.859 97.811" stroke="black" stroke-width="1.36266" stroke-linecap="round"/>
<path d="M132.376 90.0771H126.926" stroke="black" stroke-width="1.36266" stroke-linecap="round"/>
<path d="M136.129 74.7471V77.8131" stroke="black" stroke-width="1.36266" stroke-linecap="round"/>
<path d="M136.129 102V105.066" stroke="black" stroke-width="1.36266" stroke-linecap="round"/>
<path d="M148.051 82.9233H144.985" stroke="black" stroke-width="1.36266" stroke-linecap="round"/>
<path d="M148.051 90.418H144.985" stroke="black" stroke-width="1.36266" stroke-linecap="round"/>
<path d="M139.875 74.7471V77.8131" stroke="black" stroke-width="1.36266" stroke-linecap="round"/>
<path d="M139.875 102V105.066" stroke="black" stroke-width="1.36266" stroke-linecap="round"/>
<path d="M148.051 86.6704H144.985" stroke="black" stroke-width="1.36266" stroke-linecap="round"/>
<path d="M148.051 94.165H144.985" stroke="black" stroke-width="1.36266" stroke-linecap="round"/>
<path d="M148.051 97.9126H144.985" stroke="black" stroke-width="1.36266" stroke-linecap="round"/>
<path d="M133.062 78.4946H141.297C141.478 78.4946 141.651 78.5664 141.779 78.6942L144.105 81.0204C144.233 81.1482 144.304 81.3215 144.304 81.5022V98.966C144.304 99.1625 144.22 99.3494 144.072 99.4787L141.772 101.491C141.648 101.6 141.488 101.66 141.323 101.66H133.062" stroke="black" stroke-width="1.36266" stroke-linecap="round"/>
<path d="M133.402 82.5825H139.534C139.911 82.5825 140.216 82.8876 140.216 83.2638V87.0112M140.216 93.1431V97.2311C140.216 97.6074 139.911 97.9124 139.534 97.9124H133.402M140.216 89.7365V90.7585" stroke="black" stroke-width="1.36266" stroke-linecap="round"/>
<path d="M124.543 105.473L124.605 105.81C124.964 107.748 126.657 109.154 128.628 109.154C130.886 109.154 132.719 107.324 132.719 105.066V75.0574C132.719 72.8166 130.902 71 128.661 71C126.678 71 124.985 72.434 124.659 74.3904L124.543 75.088" stroke="black" stroke-width="1.36266"/>
<path d="M128.973 76.4499C125.225 72.0215 116.368 76.1097 119.434 83.6039C115.345 84.2856 111.939 93.1429 119.434 96.549C116.368 100.978 122.159 109.495 128.973 103.703" stroke="black" stroke-width="1.36266" stroke-linecap="round"/>
<circle cx="124.886" cy="81.2198" r="2.38465" stroke="black" stroke-width="1.36266"/>
<circle cx="3.06598" cy="3.06598" r="2.38465" transform="matrix(1 0 0 -1 121.82 102.341)" stroke="black" stroke-width="1.36266"/>
<circle cx="124.207" cy="90.0772" r="2.38465" stroke="black" stroke-width="1.36266"/>
<path d="M117.137 151.635H114.74C113.227 151.635 112 152.861 112 154.375V163.279C112 163.658 112.307 163.964 112.685 163.964H149.331C149.71 163.964 150.016 163.658 150.016 163.279V154.375C150.016 152.861 148.79 151.635 147.276 151.635H145.221" stroke="black" stroke-width="1.36995" stroke-linecap="round"/>
<path d="M122.961 163.622V158.827C122.961 158.449 123.268 158.142 123.646 158.142H128.441M139.058 163.622V158.827C139.058 158.449 138.751 158.142 138.373 158.142H133.749M128.441 158.142V163.622M128.441 158.142H133.749M133.749 158.142V163.622" stroke="black" stroke-width="1.36995" stroke-linecap="round"/>
<path d="M118.852 145.127V148.895" stroke="black" stroke-width="1.36995" stroke-linecap="round"/>
<path d="M127.755 149.237H117.823C117.634 149.237 117.48 149.391 117.48 149.58V163.622M130.495 149.237H131.523" stroke="black" stroke-width="1.36995" stroke-linecap="round"/>
<path d="M134.604 149.237H144.536C144.726 149.237 144.879 149.391 144.879 149.58V163.622" stroke="black" stroke-width="1.36995" stroke-linecap="round"/>
<path d="M143.168 145.127V148.895" stroke="black" stroke-width="1.36995" stroke-linecap="round"/>
<path d="M129.12 129.373C119.588 130.359 114.79 139.865 115.326 144.261C115.364 144.574 115.642 144.785 115.956 144.785H146C146.338 144.785 146.628 144.541 146.646 144.204C146.898 139.524 142.44 130.358 133.573 129.373" stroke="black" stroke-width="1.36995" stroke-linecap="round"/>
<path d="M125.355 144.443V142.388C125.355 142.009 125.662 141.703 126.04 141.703H135.973C136.351 141.703 136.658 142.009 136.658 142.388V144.443" stroke="black" stroke-width="1.36995" stroke-linecap="round"/>
<path d="M129.125 142.045V144.442" stroke="black" stroke-width="1.36995" stroke-linecap="round"/>
<path d="M133.234 142.045V144.442" stroke="black" stroke-width="1.36995" stroke-linecap="round"/>
<path d="M129.125 131.086V128.346C129.125 127.967 129.432 127.661 129.81 127.661H132.207C132.586 127.661 132.892 127.967 132.892 128.346V131.086C132.892 131.464 132.586 131.771 132.207 131.771H129.81C129.432 131.771 129.125 131.464 129.125 131.086Z" stroke="black" stroke-width="1.36995" stroke-linecap="round"/>
<path d="M125.698 134.51C126.644 134.51 127.411 135.277 127.411 136.223C127.411 137.168 126.644 137.936 125.698 137.936C124.752 137.936 123.985 137.168 123.985 136.223C123.985 135.277 124.752 134.51 125.698 134.51Z" stroke="black" stroke-width="1.36995"/>
<path d="M115.425 127.685C116.371 127.685 117.138 128.452 117.138 129.397C117.138 130.343 116.371 131.11 115.425 131.11C114.479 131.11 113.712 130.343 113.712 129.397C113.712 128.452 114.479 127.685 115.425 127.685Z" stroke="black" stroke-width="1.36995"/>
<path d="M146.591 127.685C145.645 127.685 144.878 128.452 144.878 129.397C144.878 130.343 145.645 131.11 146.591 131.11C147.537 131.11 148.304 130.343 148.304 129.397C148.304 128.452 147.537 127.685 146.591 127.685Z" stroke="black" stroke-width="1.36995"/>
<path d="M136.315 134.486C137.261 134.486 138.028 135.253 138.028 136.198C138.028 137.144 137.261 137.911 136.315 137.911C135.37 137.911 134.603 137.144 134.603 136.198C134.603 135.253 135.37 134.486 136.315 134.486Z" stroke="black" stroke-width="1.36995"/>
<path d="M119.534 133.483L117.137 131.085" stroke="black" stroke-width="1.36995" stroke-linecap="round"/>
<path d="M142.481 133.483L144.879 131.085" stroke="black" stroke-width="1.36995" stroke-linecap="round"/>
<path d="M121.932 153.096C121.932 153.475 121.626 153.781 121.247 153.781C120.869 153.781 120.562 153.475 120.562 153.096C120.562 152.718 120.869 152.411 121.247 152.411C121.626 152.411 121.932 152.718 121.932 153.096Z" fill="black"/>
<path d="M141.797 153.005C141.797 153.383 141.49 153.69 141.112 153.69C140.734 153.69 140.427 153.383 140.427 153.005C140.427 152.626 140.734 152.32 141.112 152.32C141.49 152.32 141.797 152.626 141.797 153.005Z" fill="black"/>
<path d="M234.5 145.787L236.679 147.965" stroke="black" stroke-width="1.45244" stroke-linecap="round"/>
<path d="M228.692 124.363H220.848C215.153 124.363 210.536 128.98 210.536 134.675V138.018C210.536 138.586 210.377 139.143 210.077 139.626L206.892 144.759C205.63 146.791 207.092 149.417 209.483 149.417H210.767C210.842 149.417 210.905 149.474 210.912 149.549L211.425 154.939C211.539 156.132 212.538 157.107 213.734 157.169C215.913 157.281 218.932 157.153 221.429 154.864C225.787 150.87 226.876 148.691 231.233 146.513" stroke="black" stroke-width="1.45244" stroke-linecap="round"/>
<path d="M221.793 154.864V163.216" stroke="black" stroke-width="1.45244" stroke-linecap="round"/>
<path d="M224.699 151.959V163.216" stroke="black" stroke-width="1.45244" stroke-linecap="round"/>
<path d="M227.602 149.055V163.216" stroke="black" stroke-width="1.45244" stroke-linecap="round"/>
<path d="M233.41 146.149V163.216" stroke="black" stroke-width="1.45244" stroke-linecap="round"/>
<path d="M237.77 151.596V163.216" stroke="black" stroke-width="1.45244" stroke-linecap="round"/>
<path d="M227.965 150.144H232.685" stroke="black" stroke-width="1.45244" stroke-linecap="round"/>
<path d="M227.965 153.049H232.685" stroke="black" stroke-width="1.45244" stroke-linecap="round"/>
<path d="M227.965 155.954H232.685" stroke="black" stroke-width="1.45244" stroke-linecap="round"/>
<path d="M227.965 158.858H232.685" stroke="black" stroke-width="1.45244" stroke-linecap="round"/>
<path d="M229.059 127.995C233.27 127.995 236.684 131.408 236.684 135.62C236.684 139.831 233.27 143.245 229.059 143.245C224.847 143.245 221.434 139.831 221.434 135.62C221.434 131.408 224.847 127.995 229.059 127.995Z" stroke="black" stroke-width="1.45244"/>
<path d="M229.061 124.727C235.298 124.727 240.317 129.624 240.317 135.619C240.317 141.614 235.299 146.513 229.061 146.513C222.823 146.513 217.805 141.614 217.805 135.619C217.805 129.624 222.823 124.727 229.061 124.727Z" stroke="black" stroke-width="1.45244"/>
<path d="M229.055 143.608V146.15" stroke="black" stroke-width="1.45244" stroke-linecap="round"/>
<path d="M229.055 125.452V127.994" stroke="black" stroke-width="1.45244" stroke-linecap="round"/>
<path d="M221.254 135.784L218.712 135.78" stroke="black" stroke-width="1.45244" stroke-linecap="round"/>
<path d="M239.41 135.815L236.868 135.811" stroke="black" stroke-width="1.45244" stroke-linecap="round"/>
<path d="M234.758 130.461L236.611 128.721" stroke="black" stroke-width="1.45244" stroke-linecap="round"/>
<path d="M221.52 142.888L223.373 141.148" stroke="black" stroke-width="1.45244" stroke-linecap="round"/>
<path d="M234.699 141.202L236.536 142.959" stroke="black" stroke-width="1.45244" stroke-linecap="round"/>
<path d="M221.582 128.65L223.419 130.407" stroke="black" stroke-width="1.45244" stroke-linecap="round"/>
<circle cx="237.768" cy="149.781" r="1.81555" stroke="black" stroke-width="1.45244"/>
<path d="M25.9102 149.364H30.2738" stroke="black" stroke-width="1.45455" stroke-linecap="round"/>
<path d="M36.8164 149.364H41.18" stroke="black" stroke-width="1.45455" stroke-linecap="round"/>
<path d="M22.4531 143.545V137.145C22.4531 133.45 25.4487 130.455 29.144 130.455H38.3077C42.003 130.455 44.9986 133.45 44.9986 137.145V143.545" stroke="black" stroke-width="1.45455" stroke-linecap="round"/>
<path d="M29.1815 143.546V141.434C29.1815 141.389 29.1614 141.348 29.1269 141.32L27.3633 139.909" stroke="black" stroke-width="1.45455" stroke-linecap="round"/>
<path d="M38.2717 143.546V141.434C38.2717 141.389 38.2917 141.348 38.3263 141.32L40.0898 139.909" stroke="black" stroke-width="1.45455" stroke-linecap="round"/>
<path d="M44.092 125H38.0556C37.9753 125 37.9102 125.065 37.9102 125.145V130.818" stroke="black" stroke-width="1.45455" stroke-linecap="round"/>
<path d="M45.1836 138.091H51.0018" stroke="black" stroke-width="1.45455" stroke-linecap="round"/>
<path d="M41.9102 127.182H44.092" stroke="black" stroke-width="1.45455" stroke-linecap="round"/>
<path d="M48.8164 139.909H50.9982" stroke="black" stroke-width="1.45455" stroke-linecap="round"/>
<path d="M38.2727 165V162.546C38.2727 162.495 38.3134 162.455 38.3636 162.455C41.9284 162.455 44.8182 159.565 44.8182 156V152.414C44.8182 152.336 44.8815 152.273 44.9596 152.273H45.7636C47.049 152.273 48.0909 151.231 48.0909 149.946V146.236C48.0909 144.951 47.049 143.909 45.7636 143.909H21.3273C20.042 143.909 19 144.951 19 146.236V149.946C19 151.231 20.042 152.273 21.3273 152.273H22.1313C22.2094 152.273 22.2727 152.336 22.2727 152.414V155.642C22.2727 159.404 25.3231 162.455 29.0859 162.455C29.1389 162.455 29.1818 162.498 29.1818 162.551V165" stroke="black" stroke-width="1.45455" stroke-linecap="round"/>
<path d="M30.2734 157C31.2431 158.212 34.2734 160.273 37.1825 157" stroke="black" stroke-width="1.45455" stroke-linecap="round"/>
<path d="M26.2715 137.364C27.0747 137.364 27.7265 138.015 27.7266 138.818C27.7266 139.621 27.0748 140.273 26.2715 140.273C25.4682 140.273 24.8174 139.621 24.8174 138.818C24.8175 138.015 25.4683 137.364 26.2715 137.364Z" stroke="black" stroke-width="1.45455"/>
<path d="M41.1816 137.364C40.3784 137.364 39.7267 138.015 39.7266 138.818C39.7266 139.621 40.3783 140.273 41.1816 140.273C41.9849 140.273 42.6357 139.621 42.6357 138.818C42.6356 138.015 41.9848 137.364 41.1816 137.364Z" stroke="black" stroke-width="1.45455"/>
<path d="M29.1816 133.364C29.9849 133.364 30.6366 134.015 30.6367 134.818C30.6367 135.621 29.985 136.273 29.1816 136.273C28.3784 136.273 27.7275 135.621 27.7275 134.818C27.7276 134.015 28.3785 133.364 29.1816 133.364Z" stroke="black" stroke-width="1.45455"/>
<path d="M38.2715 133.364C37.4682 133.364 36.8165 134.015 36.8164 134.818C36.8164 135.621 37.4682 136.273 38.2715 136.273C39.0747 136.273 39.7256 135.621 39.7256 134.818C39.7255 134.015 39.0747 133.364 38.2715 133.364Z" stroke="black" stroke-width="1.45455"/>
<path d="M30.6367 135.909L32.4003 137.32C32.4348 137.348 32.4549 137.389 32.4549 137.434V143.546" stroke="black" stroke-width="1.45455" stroke-linecap="round"/>
<path d="M36.8164 135.909L35.0528 137.32C35.0183 137.348 34.9982 137.389 34.9982 137.434V143.546" stroke="black" stroke-width="1.45455" stroke-linecap="round"/>
<path d="M213.219 108.175H238.002" stroke="black" stroke-width="1.3044" stroke-linecap="round"/>
<path d="M210.609 76.2178H211.261" stroke="black" stroke-width="1.3044" stroke-linecap="round"/>
<path d="M236.695 76.2178H237.347" stroke="black" stroke-width="1.3044" stroke-linecap="round"/>
<path d="M211.258 89.2617H211.91" stroke="black" stroke-width="1.3044" stroke-linecap="round"/>
<path d="M235.391 89.2617H236.043" stroke="black" stroke-width="1.3044" stroke-linecap="round"/>
<path d="M212.566 74.2612V74.9133" stroke="black" stroke-width="1.3044" stroke-linecap="round"/>
<path d="M238.652 74.2612V74.9133" stroke="black" stroke-width="1.3044" stroke-linecap="round"/>
<path d="M213.219 87.3052V87.9572" stroke="black" stroke-width="1.3044" stroke-linecap="round"/>
<path d="M237.348 87.3052V87.9572" stroke="black" stroke-width="1.3044" stroke-linecap="round"/>
<path d="M212.566 77.522V78.174" stroke="black" stroke-width="1.3044" stroke-linecap="round"/>
<path d="M238.652 77.522V78.174" stroke="black" stroke-width="1.3044" stroke-linecap="round"/>
<path d="M213.219 90.5659V91.218" stroke="black" stroke-width="1.3044" stroke-linecap="round"/>
<path d="M237.348 90.5659V91.218" stroke="black" stroke-width="1.3044" stroke-linecap="round"/>
<path d="M213.871 76.2178H214.523" stroke="black" stroke-width="1.3044" stroke-linecap="round"/>
<path d="M239.961 76.2178H240.613" stroke="black" stroke-width="1.3044" stroke-linecap="round"/>
<path d="M214.523 89.2617H215.175" stroke="black" stroke-width="1.3044" stroke-linecap="round"/>
<path d="M238.652 89.2617H239.304" stroke="black" stroke-width="1.3044" stroke-linecap="round"/>
<path d="M225.817 76.6595V72.1373C225.817 72.0511 225.811 71.9639 225.782 71.8829C225.338 70.663 222.184 70.4624 221.995 72.8709C221.985 72.9915 221.878 73.0838 221.757 73.0751C220.127 72.9571 217.943 74.3462 219.25 77.4804M225.817 81.5849V88.9731C225.817 90.5824 222.662 91.6658 222.022 89.1317C221.999 89.0412 221.919 88.9739 221.826 88.9681C220.214 88.8687 217.867 87.2949 219.161 84.2466C219.206 84.1402 219.151 84.0133 219.044 83.9691C214.713 82.1767 218.494 74.802 222.807 78.5749M225.817 78.5749V79.122" stroke="black" stroke-width="1.3044" stroke-linecap="round"/>
<path d="M225.89 76.6595V72.1373C225.89 72.0511 225.896 71.9639 225.925 71.8829C226.369 70.663 229.523 70.4624 229.712 72.8709C229.722 72.9915 229.829 73.0838 229.95 73.0751C231.58 72.9571 233.764 74.3462 232.457 77.4804M225.89 81.5849V88.9731C225.89 90.5824 229.045 91.6658 229.685 89.1317C229.708 89.0412 229.788 88.9739 229.881 88.9681C231.493 88.8687 233.84 87.2949 232.546 84.2466C232.501 84.1402 232.556 84.0133 232.663 83.9691C236.994 82.1767 233.213 74.802 228.9 78.5749M225.89 78.5749V79.122" stroke="black" stroke-width="1.3044" stroke-linecap="round"/>
<path d="M220.617 81.311C221.62 81.4022 223.572 82.2959 223.353 85.1411" stroke="black" stroke-width="1.3044" stroke-linecap="round"/>
<path d="M231.086 81.311C230.083 81.4022 228.131 82.2959 228.35 85.1411" stroke="black" stroke-width="1.3044" stroke-linecap="round"/>
<path d="M222.023 97.4141V100.022" stroke="black" stroke-width="1.3044" stroke-linecap="round"/>
<path d="M229.195 97.4141V100.022" stroke="black" stroke-width="1.3044" stroke-linecap="round"/>
<path d="M220.391 105.241V101.001C220.391 100.641 220.683 100.349 221.043 100.349H230.174C230.534 100.349 230.826 100.641 230.826 101.001V105.241" stroke="black" stroke-width="1.3044" stroke-linecap="round"/>
<path d="M217.457 107.849V105.371C217.457 105.299 217.515 105.24 217.587 105.24H233.305C233.378 105.24 233.436 105.299 233.436 105.371V107.849" stroke="black" stroke-width="1.3044" stroke-linecap="round"/>
<path d="M218.109 71H208.652C208.292 71 208 71.292 208 71.6522V96.4358C208 96.796 208.292 97.088 208.652 97.088H242.567C242.927 97.088 243.219 96.796 243.219 96.4358V71.6522C243.219 71.292 242.927 71 242.567 71H233.436" stroke="black" stroke-width="1.3044" stroke-linecap="round"/>
<path d="M208 93.501H242.893" stroke="black" stroke-width="1.3044" stroke-linecap="round"/>
<path d="M21.7604 92.161C21.0448 92.9365 20.7292 93.8691 20.5872 94.533C20.5746 94.5918 20.5237 94.6347 20.4635 94.6361L18.1253 94.6914C18.0556 94.693 18 94.75 18 94.8197V98.936C18 99.0069 18.0575 99.0643 18.1283 99.0643H20.7818C20.8431 99.0643 20.8959 99.1086 20.9082 99.1687C21.2034 100.613 21.5253 100.975 21.7825 101.288C21.8219 101.335 21.8199 101.404 21.7788 101.451L19.919 103.553C19.8743 103.603 19.8763 103.68 19.9236 103.728L22.8068 106.663C22.8599 106.717 22.948 106.714 22.9967 106.655L24.6542 104.678C24.6999 104.623 24.7812 104.617 24.837 104.661C25.7226 105.362 26.6659 105.462 27.2704 105.527L27.2891 105.529C27.354 105.536 27.4029 105.591 27.4029 105.656V108.3C27.4029 108.371 27.4604 108.429 27.5313 108.429H31.5673C31.6381 108.429 31.6956 108.371 31.6956 108.3V105.978C31.6956 105.912 31.746 105.857 31.8114 105.849C33.1937 105.678 33.6761 105.064 33.9527 104.695C33.9991 104.633 34.0887 104.628 34.1429 104.683L35.8998 106.466C35.9489 106.516 36.0289 106.517 36.0796 106.469L38.954 103.738C39.0082 103.686 39.0071 103.6 38.9516 103.55L37.3481 102.102C37.294 102.053 37.2917 101.969 37.3405 101.915C38.17 100.994 38.2096 99.8341 38.2112 99.1926C38.2114 99.1217 38.2687 99.0643 38.3395 99.0643H40.9702C41.0411 99.0643 41.0985 99.0069 41.0985 98.936V94.8227C41.0985 94.7518 41.0411 94.6944 40.9702 94.6944H38.3395C38.2687 94.6944 38.2114 94.6369 38.2096 94.566C38.1863 93.6484 37.9184 92.7403 37.6085 92.1405C37.5853 92.0955 37.5893 92.0412 37.62 92.001L38.9895 90.2016C39.0271 90.1522 39.0239 90.083 38.9819 90.0372L36.284 87.0945C36.2344 87.0403 36.1494 87.0389 36.0979 87.0913L34.4365 88.7826C34.393 88.8269 34.3236 88.8332 34.2719 88.799C32.9961 87.9534 32.2514 87.8991 31.8238 87.8965C31.753 87.8961 31.6956 87.8391 31.6956 87.7683V85.4584C31.6956 85.3875 31.6381 85.3301 31.5673 85.3301H27.3322C27.2593 85.3301 27.201 85.3908 27.204 85.4637L27.299 87.7837C27.3016 87.8482 27.2555 87.9043 27.1925 87.9185C26.3374 88.1115 25.9437 88.7739 25.4579 89.1259C25.4118 89.1593 25.3493 89.1542 25.3064 89.1168L23.2014 87.2824C23.1502 87.2377 23.0732 87.2407 23.0256 87.2892L20.1348 90.232C20.0849 90.2829 20.086 90.3647 20.1373 90.4143L21.7566 91.9772C21.8079 92.0268 21.8088 92.1086 21.7604 92.161Z" stroke="black" stroke-width="1.28325" stroke-linecap="round"/>
<path d="M29.5479 91.7466C32.3827 91.7466 34.6805 94.0446 34.6807 96.8794C34.6807 99.7143 32.3827 102.012 29.5479 102.012C26.7131 102.012 24.415 99.7142 24.415 96.8794C24.4152 94.0447 26.7131 91.7467 29.5479 91.7466Z" stroke="black" stroke-width="1.28325"/>
<path d="M17.999 92.0673C17.999 92.4216 18.2863 92.7089 18.6406 92.7089C18.995 92.7089 19.2823 92.4216 19.2823 92.0673H18.6406H17.999ZM18.6406 81.8013V81.1596H17.999V81.8013H18.6406ZM18.6406 92.0673H19.2823V81.8013H18.6406H17.999V92.0673H18.6406ZM18.6406 81.8013V82.4429H31.1523V81.8013V81.1596H18.6406V81.8013Z" fill="black"/>
<path d="M44.6277 94.48V93.8384H43.3444V94.48H43.9861H44.6277ZM43.9861 107.787V108.429H44.6277V107.787H43.9861ZM37.8906 107.146C37.5363 107.146 37.249 107.433 37.249 107.787C37.249 108.142 37.5363 108.429 37.8906 108.429V107.787V107.146ZM43.9861 94.48H43.3444V107.787H43.9861H44.6277V94.48H43.9861ZM43.9861 107.787V107.146H37.8906V107.787V108.429H43.9861V107.787Z" fill="black"/>
<path d="M39.8135 74.4224C45.8374 74.4224 50.7214 79.3057 50.7217 85.3296L50.707 85.8911C50.4889 90.1952 47.7759 93.8403 43.9854 95.4106V94.0054C47.2118 92.451 49.4385 89.1504 49.4385 85.3296C49.4382 80.0145 45.1287 75.7056 39.8135 75.7056C35.9925 75.7059 32.6915 77.9329 31.1377 81.1597H29.7344C31.3723 77.2054 35.2671 74.4227 39.8135 74.4224Z" fill="black"/>
<path d="M39.8135 78.2725C43.7112 78.2727 46.8719 81.4324 46.8721 85.3301L46.8623 85.6934C46.7126 88.6469 44.7458 91.1188 42.0586 92.0205V90.6514C44.1324 89.775 45.5888 87.7227 45.5889 85.3301C45.5887 82.1411 43.0024 79.5559 39.8135 79.5557C37.2994 79.5558 35.161 81.1626 34.3682 83.4053H33.0234C33.8615 80.4433 36.5832 78.2726 39.8135 78.2725Z" fill="black"/>
<path d="M39.8145 81.4805C41.9404 81.4806 43.664 83.2041 43.6641 85.3301C43.664 86.9517 42.6604 88.3372 41.2412 88.9043L40.874 87.665C41.762 87.2614 42.3808 86.3691 42.3809 85.3301C42.3808 83.9128 41.2317 82.7638 39.8145 82.7637C39.684 82.7637 39.5559 82.7761 39.4307 82.7949L39.0625 81.5537C39.3056 81.5056 39.5572 81.4805 39.8145 81.4805Z" fill="black"/>
<path d="M30.8326 79.8762L28.4354 77.7454C28.1665 77.5063 28.1467 77.0929 28.3915 76.8292L31.6628 73.3063C31.9103 73.0398 32.3295 73.032 32.5867 73.2892L35.324 76.0265" stroke="black" stroke-width="1.28325"/>
<path d="M44.9499 76.0265L47.0808 73.6293C47.3198 73.3603 47.7333 73.3405 47.9969 73.5853L51.5199 76.8567C51.7864 77.1041 51.7942 77.5234 51.537 77.7805L49.1205 80.197" stroke="black" stroke-width="1.28325"/>
<path d="M36.8354 75.385L36.8354 71.7293C36.8354 71.3749 37.1227 71.0877 37.477 71.0877L42.3796 71.0875C42.734 71.0875 43.0212 71.3748 43.0212 71.7292L43.0212 75.7055" stroke="black" stroke-width="1.28325"/>
<path d="M49.9749 82.2971L53.1452 82.2971C53.4996 82.2971 53.7869 82.5844 53.7869 82.9388L53.7866 87.5766C53.7866 87.9309 53.4994 88.2182 53.1451 88.2182L49.762 88.2187" stroke="black" stroke-width="1.28325"/>
<path d="M19.6055 76.3472H20.8887" stroke="black" stroke-width="1.28325" stroke-linecap="round"/>
<path d="M47.5156 101.371H48.7989" stroke="black" stroke-width="1.28325" stroke-linecap="round"/>
<path d="M24.0938 76.3472H25.377" stroke="black" stroke-width="1.28325" stroke-linecap="round"/>
<path d="M52.0078 101.371H53.2911" stroke="black" stroke-width="1.28325" stroke-linecap="round"/>
<path d="M22.4922 73.7808V75.064" stroke="black" stroke-width="1.28325" stroke-linecap="round"/>
<path d="M50.4023 98.8042V100.087" stroke="black" stroke-width="1.28325" stroke-linecap="round"/>
<path d="M22.4922 77.6309V78.9141" stroke="black" stroke-width="1.28325" stroke-linecap="round"/>
<path d="M50.4023 102.654V103.938" stroke="black" stroke-width="1.28325" stroke-linecap="round"/>
<path d="M48.7963 90.1423L51.1935 92.2732C51.4624 92.5122 51.4822 92.9257 51.2374 93.1893L47.9661 96.7123C47.7186 96.9788 47.2994 96.9865 47.0422 96.7294L44.6257 94.3129" stroke="black" stroke-width="1.28325"/>
<path d="M225.035 34.4136H233.328" stroke="black" stroke-width="3.18962" stroke-linecap="round"/>
<path d="M229.184 29.6294V38.8793" stroke="black" stroke-width="3.18962" stroke-linecap="round"/>
<path d="M219.298 27.396H217.703V29.6287" stroke="black" stroke-width="1.27585" stroke-linecap="square"/>
<path d="M219.298 41.1118H217.703V38.8791" stroke="black" stroke-width="1.27585" stroke-linecap="square"/>
<path d="M212.131 49.5328C211.497 50.1442 211.479 51.1538 212.09 51.7878C212.702 52.4219 213.711 52.4402 214.345 51.8288L213.238 50.6808L212.131 49.5328ZM213.238 50.6808L214.345 51.8288L223.276 43.2169L222.169 42.0688L221.062 40.9208L212.131 49.5328L213.238 50.6808Z" fill="black"/>
<path d="M215.466 21.0171V24.8452H211.638V21.0171H215.466Z" stroke="black" stroke-width="1.27585"/>
<path d="M231.098 14.6377V18.4658H234.926V14.6377H231.098ZM237.796 14.6377V18.4658H241.624V14.6377H237.796Z" stroke="black" stroke-width="1.27585"/>
<path d="M224.077 45.9834C225.162 46.5355 226.951 47.0811 229.181 47.1299V51H224.077V45.9834ZM235.561 51H230.457V47.1025C232.016 47.0034 233.741 46.6523 235.561 45.9111V51ZM241.939 51H236.836V45.8965H241.939V51ZM225.354 49.7236H227.905V47.1729H225.354V49.7236ZM231.732 49.7236H234.284V47.1729H231.732V49.7236ZM238.111 49.7236H240.663V47.1729H238.111V49.7236ZM216.104 44.3018H211V39.1982H216.104V44.3018ZM212.275 43.0254H214.827V40.4746H212.275V43.0254ZM216.104 38.2412H211V33.1377H216.104V38.2412ZM212.275 36.9658H214.827V34.4141H212.275V36.9658ZM216.104 31.8623H211V26.7588H216.104V31.8623ZM212.275 30.5859H214.827V28.0342H212.275V30.5859Z" fill="black"/>
<path d="M242.266 31.543H241.688C241.525 30.7651 241.29 30.014 240.99 29.2969V27.7158H240.19C239.924 27.2711 239.629 26.8459 239.312 26.4395H242.266V31.543ZM222.49 23.8262C221.908 24.2253 221.362 24.6741 220.856 25.1641H217.387V20.0605H222.49V23.8262ZM242.266 25.1641H238.165C237.847 24.8554 237.512 24.5635 237.162 24.29V20.0605H242.266V25.1641ZM218.662 23.8877H221.214V21.3359H218.662V23.8877ZM238.438 23.8877H240.99V21.3359H238.438V23.8877ZM235.567 23.2295C235.156 22.9996 234.731 22.7912 234.292 22.6084V21.3359H231.74V21.8545C231.322 21.7788 230.896 21.7232 230.464 21.6904V20.0605H235.567V23.2295ZM229.188 21.6592C228.757 21.6701 228.331 21.703 227.912 21.7568V21.3359H225.36V22.3652C224.923 22.5198 224.498 22.698 224.085 22.8984V20.0605H229.188V21.6592ZM222.49 19.1035H217.387V14H222.49V19.1035ZM229.188 19.1035H224.085V14H229.188V19.1035ZM218.662 17.8271H221.214V15.2754H218.662V17.8271ZM225.36 17.8271H227.912V15.2754H225.36V17.8271Z" fill="black"/>
<circle cx="229.5" cy="34.0948" r="9.88783" stroke="black" stroke-width="2.5517"/>
</svg>
