<svg width="260" height="178" viewBox="0 0 260 178" fill="none" xmlns="http://www.w3.org/2000/svg">
<path d="M28.8281 19.5179C28.8281 16.6549 26.5071 14.3339 23.6441 14.3339C20.7811 14.3339 18.4601 16.6548 18.4601 19.5179C18.4601 22.3809 20.7811 24.7018 23.6441 24.7018V26.7987L23.4561 26.7963C19.5844 26.6982 16.4638 23.5776 16.3656 19.7058L16.3633 19.5179C16.3633 15.4968 19.623 12.2371 23.6441 12.2371L23.8321 12.2394C27.7662 12.3391 30.9249 15.5597 30.9249 19.5179L30.9225 19.7058C30.8228 23.64 27.6023 26.7987 23.6441 26.7987V24.7018C26.5071 24.7018 28.828 22.3809 28.8281 19.5179Z" fill="black"/>
<path d="M23.2693 6.00251C27.5781 5.92114 32.4215 7.9197 35.3582 11.4361C36.84 13.2104 37.8473 15.3869 38.0269 17.8787C38.2066 20.3714 37.5522 23.1006 35.8427 25.9725L35.8259 26.0011L35.807 26.0282L23.5809 43.896L22.6727 45.2239L21.8249 43.8565L14.9731 32.8065L16.707 31.6242L22.7588 41.3843L34.0551 24.8753C35.5712 22.3192 36.0789 20.0208 35.9354 18.0294C35.7913 16.0307 34.9861 14.2617 33.7488 12.7802C31.2476 9.78516 27.0276 8.02883 23.3089 8.09907C17.2521 8.21349 13.7712 11.0994 12.1745 14.5425C10.565 18.0136 10.8422 22.0953 12.446 24.7517L12.5233 24.8771L12.5275 24.8836L13.2359 26.0265L11.502 27.2088L10.7455 25.9887V25.9884C8.66672 22.6848 8.36484 17.7739 10.2724 13.6602C12.22 9.46049 16.4429 6.13146 23.2693 6.00251Z" fill="black"/>
<path d="M18.0362 23.9946C18.4457 23.5851 19.1096 23.5851 19.519 23.9946C19.9284 24.404 19.9284 25.0676 19.519 25.4771L14.4224 30.5737C14.013 30.9831 13.3493 30.9831 12.9399 30.5737C12.5305 30.1643 12.5305 29.5004 12.9399 29.0909L18.0362 23.9946Z" fill="black"/>
<path d="M118.969 25.2667C118.969 24.396 118.263 23.6901 117.392 23.6901C116.522 23.6902 115.816 24.396 115.816 25.2667C115.816 26.1375 116.522 26.8433 117.392 26.8433V28.9795C115.342 28.9795 113.68 27.3173 113.68 25.2667C113.68 23.2162 115.342 21.554 117.392 21.554C119.443 21.554 121.105 23.2162 121.105 25.2667C121.105 27.3173 119.443 28.9795 117.392 28.9795V26.8433C118.263 26.8433 118.969 26.1375 118.969 25.2667Z" fill="black"/>
<path d="M117.423 17.0093C121.304 16.9324 124.936 19.114 125.723 23.3316C126.488 27.4306 124.464 33.0288 118.226 39.7194L117.557 40.4365L116.786 39.8315C112.972 36.842 109.783 31.4283 109.125 26.6514C108.794 24.251 109.083 21.8543 110.443 20.0167C111.829 18.1445 114.16 17.074 117.423 17.0093ZM117.466 19.145C114.65 19.2008 113.04 20.0985 112.16 21.2874C111.255 22.511 110.953 24.2682 111.241 26.3598C111.777 30.2507 114.289 34.7535 117.348 37.5131C122.854 31.3614 124.177 26.6929 123.623 23.7232C123.069 20.7526 120.542 19.0839 117.466 19.145Z" fill="black"/>
<path d="M151.942 24.7551L150.431 26.2657L132.186 8.02097L123.874 16.3339L122.363 14.8233L132.187 5L151.942 24.7551Z" fill="black"/>
<path d="M146.644 5.9259V16.494H144.508V8.0621H138.656V8.93723H136.52V5.9259H146.644Z" fill="black"/>
<path d="M146.858 26.5901V44.7149H119.449V42.5787H144.722V26.5901H146.858Z" fill="black"/>
<path d="M137.458 28.7604V39.3284H135.322V30.8966H127.754V28.7604H137.458Z" fill="black"/>
<path d="M236.854 5.61971C241.459 5.50551 244.917 7.37156 247.112 10.2113C249.277 13.0122 250.155 16.6787 249.831 20.1428C249.508 23.608 247.967 27.0069 245.119 29.191C242.236 31.4026 238.197 32.228 233.195 30.8668L233.878 28.3598C238.246 29.5487 241.412 28.7601 243.538 27.1295C245.7 25.4713 246.974 22.7996 247.244 19.9015C247.515 17.0023 246.766 14.0126 245.056 11.8003C243.376 9.62699 240.712 8.12313 236.919 8.21719C232.03 8.33845 229.107 9.84725 227.477 11.9557C225.824 14.094 225.288 17.121 225.764 20.7022C226.662 27.4489 231.083 35.5121 236.661 41.175L243.413 30.8164L245.59 32.2353L237.131 45.2117L236.001 44.1582C229.565 38.158 224.241 28.9524 223.189 21.045C222.661 17.0779 223.189 13.2548 225.422 10.3664C227.678 7.4481 231.462 5.75347 236.854 5.61971Z" fill="black"/>
<path d="M239.687 19.3295C239.687 17.5608 238.253 16.127 236.484 16.127C234.716 16.1271 233.282 17.5608 233.282 19.3295C233.282 21.0982 234.716 22.5323 236.484 22.5323V25.1306L236.335 25.1287C233.2 25.0492 230.684 22.4832 230.684 19.3295C230.684 16.1258 233.281 13.5287 236.484 13.5287C239.688 13.5287 242.286 16.1258 242.286 19.3295L242.284 19.4792C242.204 22.6138 239.638 25.1306 236.484 25.1306V22.5323C238.253 22.5323 239.687 21.0983 239.687 19.3295Z" fill="black"/>
<path d="M123.311 70.1998L136.446 64.7505L150.879 70.6754L150.125 104.297L136.446 98.5218L130.863 100.859L129.999 98.794L136.45 96.0933L147.96 100.953L148.606 72.1625L136.451 67.1726L123.277 72.6384L112.239 67.6902V96.5749L123.302 101.407L125.519 100.474L126.387 102.538L123.286 103.844L110 98.0404V64.2328L123.311 70.1998Z" fill="black"/>
<path d="M124.555 74.078V98.7071H122.316V74.078H124.555Z" fill="black"/>
<path d="M119.094 72.5387V90.7307H116.855V72.5387H119.094Z" fill="black"/>
<path d="M141.906 82.6143C143.813 82.6143 146.531 83.3792 147.332 85.9752C147.721 87.2389 147.573 88.7462 146.857 90.4787C146.141 92.21 144.826 94.2455 142.752 96.6412L141.992 97.5188L141.143 96.7275C138.999 94.7314 136.841 91.4878 136.293 88.6138C136.017 87.1644 136.117 85.6041 137.103 84.3968C138.094 83.1834 139.743 82.6143 141.906 82.6143ZM141.906 84.8533C140.08 84.8533 139.228 85.3337 138.837 85.8126C138.441 86.2977 138.279 87.0727 138.493 88.1946C138.862 90.1318 140.25 92.4879 141.84 94.2447C143.353 92.3811 144.278 90.854 144.788 89.6226C145.379 88.1935 145.38 87.243 145.192 86.635C144.838 85.4878 143.497 84.8533 141.906 84.8533Z" fill="black"/>
<path d="M142.885 88.3516C142.885 88.8926 142.446 89.3312 141.905 89.3312C141.364 89.3312 140.926 88.8926 140.926 88.3516C140.926 87.8106 141.364 87.3721 141.905 87.3721C142.446 87.3721 142.885 87.8106 142.885 88.3516Z" fill="black"/>
<path d="M137.43 70.2997V82.0545H135.191V70.2997H137.43Z" fill="black"/>
<path d="M145.298 81.6206L136.483 83.0197L136.483 83.0199C135.118 83.2384 134.066 84.0782 133.25 85.1723C132.433 86.2691 131.919 87.5375 131.635 88.4125L131.635 88.4128C130.669 91.4313 129.117 93.128 127.401 93.9023C125.725 94.6591 124.064 94.4547 123.001 94.0026V94.0029L112.926 89.8048L113.787 87.7379L123.862 91.9361L123.873 91.9405C124.443 92.185 125.45 92.3269 126.48 91.8617C127.477 91.4116 128.677 90.3094 129.502 87.7306L129.504 87.7256C129.826 86.735 130.432 85.2074 131.455 83.8341C132.482 82.4561 133.996 81.1501 136.129 80.8088H136.131L144.947 79.4094L145.298 81.6206Z" fill="black"/>
<path d="M21.1369 65.918C25.7337 65.918 30.5827 67.2466 33.3852 70.6716C36.2671 74.1938 36.6699 79.5151 33.2376 86.7354L31.1858 85.7598C34.421 78.954 33.7283 74.6785 31.627 72.1103C29.4461 69.445 25.4238 68.1897 21.1369 68.1897C15.0195 68.1897 11.1935 70.9441 9.43417 74.3978C7.6528 77.8948 7.91425 82.2379 10.2489 85.5834L21.1907 99.9442L24.7059 95.8433L26.4308 97.3219L21.0867 103.556L8.42365 86.9359L8.40978 86.9178L8.39675 86.899C5.57241 82.864 5.24515 77.6167 7.41008 73.3668C9.59927 69.0693 14.2619 65.918 21.1369 65.918Z" fill="black"/>
<path d="M47.001 82.8971V85.1688H42.6833L38.9923 97.7185H27.6273L24.9258 85.1117H36.666V87.3834H27.736L29.4637 95.4468H37.2927L40.9837 82.8971H47.001Z" fill="black"/>
<path d="M32.2302 101.012C32.2302 101.827 31.5692 102.488 30.7538 102.488C29.9384 102.488 29.2773 101.827 29.2773 101.012C29.2773 100.197 29.9384 99.5355 30.7538 99.5355C31.5692 99.5355 32.2302 100.197 32.2302 101.012Z" fill="black"/>
<path d="M38.1404 101.012C38.1404 101.827 37.4794 102.488 36.6639 102.488C35.8485 102.488 35.1875 101.827 35.1875 101.012C35.1875 100.197 35.8485 99.5355 36.6639 99.5355C37.4794 99.5355 38.1404 100.197 38.1404 101.012Z" fill="black"/>
<path d="M24.0595 78.1273C24.0595 76.528 22.763 75.2314 21.1638 75.2313C19.5645 75.2313 18.2678 76.528 18.2678 78.1273C18.2679 79.7265 19.5645 81.023 21.1638 81.023V83.2947L21.0304 83.293C18.2824 83.2235 16.0675 81.0086 15.9978 78.2607L15.9961 78.1273C15.9961 75.2733 18.3098 72.9596 21.1638 72.9596L21.2972 72.9613C24.0894 73.0321 26.3312 75.318 26.3312 78.1273L26.3295 78.2607C26.2587 81.0529 23.973 83.2946 21.1638 83.2947V81.023C22.763 81.0229 24.0594 79.7265 24.0595 78.1273Z" fill="black"/>
<path d="M247.71 95.58V73.2623C247.71 72.8712 247.639 72.643 247.576 72.5158C247.516 72.3954 247.444 72.3242 247.364 72.2721C247.168 72.145 246.868 72.0959 246.543 72.0959H228.988V69.8115H246.543C246.988 69.8115 247.842 69.8586 248.609 70.3567C249.466 70.9141 249.994 71.8846 249.994 73.2623V95.58C249.994 96.1374 250.06 97.3138 249.712 98.2948C249.523 98.8286 249.192 99.3779 248.621 99.7842C248.051 100.19 247.346 100.378 246.543 100.378H239.617V98.0932H246.543C246.991 98.0932 247.2 97.992 247.297 97.9231C247.394 97.8544 247.484 97.7425 247.559 97.5308C247.74 97.0208 247.71 96.3693 247.71 95.58Z" fill="black"/>
<path d="M210 96.3496V75.7078H212.284V96.3496C212.284 96.716 212.363 97.1558 212.551 97.4633C212.636 97.6033 212.734 97.7018 212.85 97.7689C212.964 97.8346 213.147 97.9011 213.451 97.9011H220.377V100.185H213.451C212.069 100.185 211.132 99.526 210.6 98.6512C210.113 97.8524 210 96.9451 210 96.3496Z" fill="black"/>
<path d="M219.196 65.0022C222.22 64.9285 225.144 66.7329 225.808 69.7987C226.475 72.8735 224.74 76.5767 219.902 80.1459L219.316 80.5781L218.677 80.2296C215.186 78.3257 212.966 74.769 212.745 71.5367C212.633 69.9004 213.034 68.2667 214.153 67.0196C215.279 65.7645 216.993 65.0559 219.196 65.0022ZM219.252 67.2859C217.51 67.3284 216.458 67.8705 215.853 68.5452C215.24 69.228 214.943 70.2036 215.024 71.3808C215.175 73.5961 216.662 76.2334 219.146 77.8507C223.173 74.688 223.941 71.9685 223.576 70.2825C223.191 68.5068 221.42 67.2331 219.252 67.2859Z" fill="black"/>
<path d="M230.134 89.2455C233.157 89.1718 236.081 90.9762 236.746 94.0419C237.412 97.1168 235.678 100.82 230.839 104.389L230.253 104.821L229.614 104.473C226.124 102.569 223.903 99.0123 223.682 95.78C223.57 94.1436 223.971 92.51 225.09 91.2629C226.216 90.0077 227.931 89.2992 230.134 89.2455ZM230.189 91.5292C228.447 91.5717 227.396 92.1138 226.79 92.7885C226.178 93.4713 225.881 94.4469 225.961 95.6241C226.113 97.8394 227.599 100.477 230.083 102.094C234.11 98.9313 234.879 96.2118 234.513 94.5257C234.128 92.7501 232.357 91.4764 230.189 91.5292Z" fill="black"/>
<path d="M219.442 71.1461C219.442 71.1415 219.442 71.1393 219.442 71.1389C219.442 71.1383 219.442 71.1379 219.441 71.1375C219.441 71.1362 219.439 71.1329 219.435 71.1291C219.431 71.1253 219.428 71.1235 219.427 71.123C219.426 71.1228 219.426 71.1225 219.425 71.1224C219.425 71.1223 219.423 71.1218 219.418 71.1218C219.413 71.1219 219.411 71.1223 219.411 71.1224C219.41 71.1225 219.41 71.1228 219.409 71.123C219.408 71.1235 219.405 71.1253 219.401 71.1291C219.397 71.1329 219.395 71.1362 219.395 71.1375C219.395 71.1379 219.394 71.1383 219.394 71.1389C219.394 71.1393 219.394 71.1415 219.394 71.1461C219.394 71.1508 219.394 71.1532 219.394 71.1536C219.394 71.1542 219.395 71.1546 219.395 71.155C219.395 71.1563 219.397 71.1596 219.401 71.1634C219.405 71.1672 219.408 71.169 219.409 71.1695C219.41 71.1697 219.41 71.17 219.411 71.1701C219.411 71.1702 219.413 71.1706 219.418 71.1706V73.455L219.299 73.4519C218.079 73.39 217.109 72.3813 217.109 71.1461C217.109 69.8711 218.143 68.8376 219.418 68.8375C220.693 68.8375 221.727 69.8711 221.727 71.1461L221.724 71.2652C221.662 72.485 220.653 73.455 219.418 73.455V71.1706C219.423 71.1706 219.425 71.1702 219.425 71.1701C219.426 71.17 219.426 71.1697 219.427 71.1695C219.428 71.169 219.431 71.1672 219.435 71.1634C219.439 71.1596 219.441 71.1563 219.441 71.155C219.442 71.1546 219.442 71.1542 219.442 71.1536C219.442 71.1532 219.442 71.1508 219.442 71.1461Z" fill="black"/>
<path d="M230.376 95.3895C230.376 95.3849 230.376 95.3827 230.376 95.3823C230.375 95.3817 230.375 95.3813 230.375 95.3809C230.374 95.3796 230.373 95.3763 230.369 95.3725C230.365 95.3687 230.362 95.3669 230.36 95.3664C230.36 95.3662 230.36 95.3659 230.359 95.3658C230.359 95.3657 230.356 95.3653 230.352 95.3653C230.347 95.3653 230.345 95.3657 230.344 95.3658C230.344 95.3659 230.343 95.3662 230.343 95.3664C230.342 95.3669 230.338 95.3687 230.335 95.3725C230.331 95.3763 230.329 95.3796 230.328 95.3809C230.328 95.3813 230.328 95.3817 230.328 95.3823C230.328 95.3827 230.327 95.3849 230.327 95.3895C230.327 95.3942 230.328 95.3966 230.328 95.397C230.328 95.3976 230.328 95.398 230.328 95.3984C230.329 95.3997 230.331 95.403 230.335 95.4068C230.338 95.4106 230.342 95.4124 230.343 95.4129C230.343 95.4131 230.344 95.4134 230.344 95.4135C230.345 95.4136 230.347 95.414 230.352 95.414V97.6984L230.233 97.6953C229.013 97.6334 228.043 96.6247 228.043 95.3895C228.043 94.1145 229.077 93.081 230.352 93.0809C231.627 93.0809 232.66 94.1145 232.66 95.3895L232.657 95.5086C232.595 96.7284 231.587 97.6984 230.352 97.6984V95.414C230.356 95.414 230.359 95.4136 230.359 95.4135C230.36 95.4134 230.36 95.4131 230.36 95.4129C230.362 95.4124 230.365 95.4106 230.369 95.4068C230.373 95.403 230.374 95.3997 230.375 95.3984C230.375 95.398 230.375 95.3976 230.376 95.397C230.376 95.3966 230.376 95.3942 230.376 95.3895Z" fill="black"/>
<path d="M220.37 79.2266V81.1219C220.38 81.3052 220.382 81.3952 220.397 81.4953C220.398 81.501 220.399 81.5064 220.4 81.5115C220.462 81.5274 220.577 81.5474 220.767 81.5474H237.121C238.372 81.5474 239.422 81.9396 240.171 82.6344C240.914 83.3245 241.293 84.2555 241.293 85.1909C241.293 86.1263 240.914 87.0573 240.171 87.7474C239.422 88.4421 238.372 88.834 237.121 88.834H231.105C231.099 88.8899 231.094 88.9567 231.091 89.0359C231.08 89.3281 231.094 89.7316 231.14 90.2905L228.864 90.4801C228.814 89.8848 228.791 89.3745 228.809 88.9453C228.825 88.5288 228.881 88.101 229.046 87.7195C229.231 87.291 229.544 86.9483 229.983 86.7485C230.367 86.574 230.762 86.5497 231.053 86.5497H237.121C237.889 86.5497 238.354 86.3165 238.616 86.0734C238.883 85.8256 239.009 85.506 239.009 85.1909C239.009 84.8758 238.883 84.5561 238.616 84.3083C238.354 84.0652 237.889 83.8318 237.121 83.8318H220.767C219.779 83.8318 218.936 83.5295 218.462 82.7607C218.084 82.1487 218.098 81.4018 218.088 81.2117L218.086 81.181V79.2266H220.37Z" fill="black"/>
<path d="M129.182 126.005C134.026 126.005 137.563 127.424 139.797 129.914C142.022 132.396 142.78 135.749 142.472 139.267C141.859 146.262 137.019 154.367 129.853 159.377L129.126 159.886L128.44 159.323C125.998 157.318 121.425 152.701 117.743 145.387C117.452 144.81 117.685 144.107 118.262 143.816C118.839 143.525 119.543 143.757 119.833 144.335C123.018 150.66 126.888 154.84 129.242 156.93C135.517 152.231 139.617 145.039 140.14 139.063C140.41 135.982 139.725 133.34 138.054 131.477C136.391 129.623 133.577 128.346 129.182 128.346C126.527 128.346 123.204 129.2 120.882 131.143C119.738 132.101 118.843 133.316 118.364 134.831C117.884 136.346 117.797 138.235 118.383 140.576C118.54 141.203 118.159 141.838 117.532 141.995C116.905 142.152 116.269 141.771 116.112 141.144C115.439 138.455 115.501 136.118 116.132 134.125C116.763 132.131 117.94 130.553 119.38 129.348C122.229 126.964 126.133 126.005 129.182 126.005Z" fill="black"/>
<path d="M116.966 151.085C117.289 150.525 118.005 150.333 118.565 150.656C119.125 150.98 119.316 151.695 118.993 152.255L114.054 160.81H144.946L140.007 152.255C139.684 151.695 139.876 150.98 140.435 150.656C140.995 150.333 141.711 150.525 142.034 151.085L149 163.151H110L116.966 151.085Z" fill="black"/>
<path d="M132.383 139.173C132.383 137.567 131.081 136.265 129.475 136.265C127.869 136.265 126.567 137.567 126.567 139.173C126.567 140.779 127.869 142.081 129.475 142.081V144.422L129.34 144.42C126.504 144.348 124.227 142.026 124.227 139.173C124.227 136.274 126.576 133.924 129.475 133.924C132.374 133.924 134.724 136.274 134.724 139.173L134.722 139.308C134.651 142.145 132.329 144.422 129.475 144.422V142.081C131.081 142.081 132.383 140.779 132.383 139.173Z" fill="black"/>
<path d="M23.0483 130.629C23.6651 130.61 24.1808 131.095 24.2001 131.711C24.2194 132.328 23.7349 132.844 23.1181 132.863C19.8305 132.966 17.9421 135.488 17.837 138.373C17.733 141.228 19.4172 144.271 23.3274 145.147C23.9296 145.282 24.3083 145.879 24.1734 146.482C24.0386 147.084 23.4412 147.463 22.839 147.328C17.7783 146.194 15.4642 142.117 15.6036 138.291C15.742 134.495 18.339 130.776 23.0483 130.629Z" fill="black"/>
<path d="M23.5174 126.013C28.6142 125.785 34.6376 128.481 36.3504 134.246C38.0624 140.009 35.2485 148.133 24.33 158.325L23.6683 158.943L22.9267 158.424C16.9184 154.219 11.8789 146.584 10.8516 139.773C10.3345 136.345 10.8171 132.982 12.8897 130.403C14.9696 127.816 18.4719 126.239 23.5174 126.013ZM34.2082 134.882C32.8806 130.414 28.0557 128.047 23.6173 128.246C18.9694 128.454 16.178 129.88 14.6316 131.803C13.078 133.736 12.6021 136.395 13.0614 139.44C13.9461 145.305 18.2369 152.069 23.4755 156.057C33.6632 146.324 35.5083 139.258 34.2082 134.882Z" fill="black"/>
<path d="M26.5538 132.8C26.7999 132.234 27.4582 131.975 28.0241 132.221C29.5543 132.886 30.9954 134.717 31.5258 136.91C32.0779 139.192 31.6747 141.947 29.4117 144.483C29.0008 144.943 28.2944 144.984 27.834 144.573C27.3736 144.162 27.3334 143.455 27.7443 142.995C29.5042 141.023 29.7382 139.026 29.3535 137.435C28.9469 135.755 27.8769 134.594 27.1332 134.27C26.5672 134.024 26.3078 133.366 26.5538 132.8Z" fill="black"/>
<path d="M15.5605 151.825C16.1776 151.825 16.6779 152.325 16.6779 152.942C16.6779 153.559 16.1776 154.06 15.5605 154.06H13.9694L9.94689 160.764H38.0271L33.9818 154.06H32.149C31.5319 154.06 31.0315 153.559 31.0315 152.942C31.0315 152.325 31.5319 151.825 32.149 151.825H35.2435L41.9856 162.999H6L12.7041 151.825H15.5605Z" fill="black"/>
<path d="M248.119 147.993V150.394H227.164V147.993H248.119Z" fill="black"/>
<path d="M216.459 153.493C216.459 152.889 215.969 152.4 215.366 152.4C214.762 152.4 214.272 152.889 214.272 153.493C214.272 154.097 214.762 154.586 215.366 154.586V156.987L215.275 156.986C213.417 156.939 211.919 155.441 211.872 153.583L211.871 153.493C211.871 151.563 213.436 149.999 215.366 149.999L215.456 150C217.344 150.048 218.86 151.593 218.86 153.493L218.858 153.583C218.811 155.471 217.265 156.987 215.366 156.987V154.586C215.969 154.586 216.458 154.097 216.459 153.493Z" fill="black"/>
<path d="M215.614 144.638C219.185 144.638 222.944 146.798 223.9 151.108C224.837 155.335 222.964 161.168 216.511 168.41L215.705 169.315L214.808 168.5C211.338 165.351 208.008 159.669 207.191 154.682C206.782 152.185 206.971 149.651 208.338 147.71C209.745 145.715 212.184 144.638 215.614 144.638ZM215.614 147.039C212.68 147.039 211.115 147.938 210.301 149.093C209.449 150.303 209.201 152.094 209.561 154.294C210.215 158.285 212.765 162.929 215.545 165.862C221.104 159.313 222.209 154.575 221.555 151.628C220.889 148.623 218.283 147.039 215.614 147.039Z" fill="black"/>
<path d="M232.414 126C242.082 126 249.919 133.837 249.919 143.505L249.918 143.731C249.796 153.294 242.006 161.009 232.414 161.009L232.188 161.008C229.119 160.969 226.24 160.14 223.746 158.715H230.369V158.471C231.038 158.561 231.72 158.608 232.414 158.608C240.756 158.608 247.518 151.846 247.518 143.505C247.518 135.163 240.756 128.401 232.414 128.401C224.105 128.401 217.363 135.111 217.311 143.408H214.91C214.962 133.785 222.779 126 232.414 126Z" fill="black"/>
<path d="M234.058 126.164C238.135 131.407 243.289 144.617 233.85 160.966L231.771 159.766C240.658 144.373 235.722 132.216 232.162 127.637L234.058 126.164ZM231.145 127.505C228.402 132.214 224.677 144.477 231.505 159.725L229.313 160.707C222.137 144.68 225.979 131.603 229.071 126.296L231.145 127.505Z" fill="black"/>
<path d="M248.568 137.199V139.6H216.152V137.199H248.568Z" fill="black"/>
</svg>
