<svg width="260" height="178" viewBox="0 0 260 178" fill="none" xmlns="http://www.w3.org/2000/svg">
<path d="M16.551 28.296C16.551 25.4243 18.8791 23.0963 21.7508 23.0963C24.6226 23.0963 26.9506 25.4243 26.9506 28.296C26.9506 31.1678 24.6226 33.4958 21.7508 33.4958V34.5022C25.1784 34.5022 27.957 31.7236 27.957 28.296C27.957 24.8685 25.1784 22.0898 21.7508 22.0898C18.3232 22.0898 15.5446 24.8685 15.5446 28.296C15.5446 31.7236 18.3232 34.5022 21.7508 34.5022V33.4958C18.8791 33.4958 16.551 31.1678 16.551 28.296Z" fill="black"/>
<path d="M30.301 42.0503C30.301 39.1786 32.6291 36.8505 35.5008 36.8505C38.3726 36.8505 40.7006 39.1786 40.7006 42.0503C40.7006 44.9221 38.3726 47.2501 35.5008 47.2501V48.2565C38.9284 48.2565 41.707 45.4779 41.707 42.0503C41.707 38.6227 38.9284 35.8441 35.5008 35.8441C32.0732 35.8441 29.2946 38.6227 29.2946 42.0503C29.2946 45.4779 32.0732 48.2565 35.5008 48.2565V47.2501C32.6291 47.2501 30.301 44.9221 30.301 42.0503Z" fill="black"/>
<path d="M35.002 8C34.7241 8 34.4988 8.2253 34.4988 8.50321C34.4988 8.78111 34.7241 9.00641 35.002 9.00641C38.8265 9.00641 40.7947 11.6278 40.8518 14.2173C40.8805 15.5198 40.4258 16.8103 39.4784 17.7742C38.5356 18.7335 37.0681 19.406 35.002 19.406C34.7241 19.406 34.4988 19.6313 34.4988 19.9092C34.4988 20.1871 34.7241 20.4124 35.002 20.4124C37.2969 20.4124 39.0372 19.6591 40.1962 18.4798C41.3508 17.3051 41.892 15.7441 41.8579 14.1951C41.7892 11.0816 39.3965 8 35.002 8Z" fill="black"/>
<path d="M41.3726 13.8707C41.0947 13.8707 40.8694 14.096 40.8694 14.3739C40.8694 14.6518 41.0947 14.8771 41.3726 14.8771H47.5788C47.8567 14.8771 48.082 14.6518 48.082 14.3739C48.082 14.096 47.8567 13.8707 47.5788 13.8707H41.3726Z" fill="black"/>
<path d="M9.67007 13.5353C9.39216 13.5353 9.16687 13.7606 9.16687 14.0385C9.16687 14.3164 9.39216 14.5417 9.67007 14.5417H30.3015C30.5794 14.5417 30.8047 14.3164 30.8047 14.0385C30.8047 13.7606 30.5794 13.5353 30.3015 13.5353H9.67007Z" fill="black"/>
<path d="M27.7861 27.625C27.5082 27.625 27.2829 27.8503 27.2829 28.1282C27.2829 28.4061 27.5082 28.6314 27.7861 28.6314H47.5788C47.8567 28.6314 48.082 28.4061 48.082 28.1282C48.082 27.8503 47.8567 27.625 47.5788 27.625H27.7861Z" fill="black"/>
<path d="M9.5013 27.625C9.22339 27.625 8.9981 27.8503 8.9981 28.1282C8.9981 28.4061 9.22339 28.6314 9.5013 28.6314H15.5398C15.8177 28.6314 16.043 28.4061 16.043 28.1282C16.043 27.8503 15.8177 27.625 15.5398 27.625H9.5013Z" fill="black"/>
<path d="M9.50064 41.7148C9.22272 41.7148 8.99743 41.9401 8.99743 42.2181C8.99743 42.496 9.22272 42.7213 9.50064 42.7213L26.2741 42.7213C26.5521 42.7213 26.7773 42.496 26.7773 42.218C26.7773 41.9401 26.5521 41.7148 26.2741 41.7148L9.50064 41.7148Z" fill="black"/>
<path d="M41.3729 41.7148C41.095 41.7148 40.8697 41.9401 40.8697 42.218C40.8697 42.496 41.095 42.7213 41.3729 42.7213L47.7468 42.7213C48.0247 42.7213 48.25 42.496 48.25 42.218C48.25 41.9401 48.0247 41.7148 47.7468 41.7148L41.3729 41.7148Z" fill="black"/>
<path d="M136.676 7.84045C137.053 7.84045 137.359 8.14605 137.359 8.52282C137.359 8.8996 137.053 9.20519 136.676 9.20519H107.682C107.306 9.20519 107 8.8996 107 8.52282C107 8.14605 107.306 7.84045 107.682 7.84045H136.676Z" fill="black"/>
<path d="M131.902 20.4613C132.279 20.4613 132.584 20.7669 132.584 21.1437C132.584 21.5204 132.279 21.826 131.902 21.826L109.389 21.826C109.013 21.826 108.707 21.5204 108.707 21.1437C108.707 20.7669 109.013 20.4613 109.389 20.4613L131.902 20.4613Z" fill="black"/>
<path d="M127.126 32.3999C127.503 32.3999 127.808 32.7055 127.808 33.0823C127.808 33.459 127.503 33.7646 127.126 33.7646H114.846C114.47 33.7646 114.164 33.459 114.164 33.0823C114.164 32.7055 114.47 32.3999 114.846 32.3999H127.126Z" fill="black"/>
<path d="M149.271 16.8804C149.648 16.8663 149.965 17.1601 149.979 17.5366C150.328 26.9031 146.461 33.8465 141.502 38.699C136.559 43.5363 130.522 46.3087 126.446 47.3859C126.082 47.4821 125.709 47.2651 125.613 46.9009C125.516 46.5366 125.734 46.1633 126.098 46.067C129.981 45.0408 135.798 42.3724 140.548 37.7241C145.282 33.0911 148.948 26.504 148.615 17.5874C148.601 17.2109 148.895 16.8944 149.271 16.8804Z" fill="black"/>
<path d="M223.512 40.9695L224.565 40.9695L224.565 46.0105L223.512 46.0105L223.512 40.9695ZM221.128 38.5864C219.812 38.5865 218.745 39.6533 218.745 40.9695L218.745 46.0105C218.745 47.3266 219.812 48.3935 221.128 48.3936C222.444 48.3936 223.512 47.3266 223.512 46.0105L224.565 46.0105L224.561 46.1871C224.469 48.0031 222.967 49.4473 221.128 49.4473C219.23 49.4472 217.691 47.9085 217.691 46.0105L217.691 40.9695L217.696 40.7925C217.788 38.9767 219.289 37.5328 221.128 37.5327C222.967 37.5327 224.469 38.9766 224.561 40.7925L224.565 40.9695L223.512 40.9695C223.512 39.6533 222.444 38.5864 221.128 38.5864Z" fill="black"/>
<path d="M234.781 24.014L233.728 24.014L233.728 29.0549L234.781 29.0549L234.781 24.014ZM237.165 21.6308C238.481 21.6309 239.548 22.6978 239.548 24.014L239.548 29.0549C239.548 30.371 238.481 31.438 237.165 31.438C235.849 31.438 234.781 30.3711 234.781 29.0549L233.728 29.0549L233.732 29.2316C233.824 31.0476 235.326 32.4917 237.165 32.4917C239.063 32.4916 240.601 30.953 240.602 29.0549L240.602 24.014L240.597 23.837C240.505 22.0211 239.004 20.5772 237.165 20.5772C235.326 20.5772 233.824 22.0211 233.732 23.837L233.728 24.014L234.781 24.014C234.781 22.6977 235.849 21.6308 237.165 21.6308Z" fill="black"/>
<path d="M217.921 43.7876L208.527 43.7876C208.236 43.7876 208 43.5517 208 43.2608C208 42.9698 208.236 42.7339 208.527 42.7339L217.921 42.7339C218.212 42.7339 218.448 42.9698 218.448 43.2608C218.448 43.5517 218.212 43.7876 217.921 43.7876Z" fill="black"/>
<path d="M240.376 26.8322L249.77 26.8322C250.061 26.8322 250.297 26.5963 250.297 26.3053C250.297 26.0144 250.061 25.7785 249.77 25.7785L240.376 25.7785C240.085 25.7785 239.849 26.0144 239.849 26.3053C239.849 26.5963 240.085 26.8322 240.376 26.8322Z" fill="black"/>
<path d="M217.921 8.823L208.527 8.823C208.236 8.823 208 9.05887 208 9.34983C208 9.6408 208.236 9.87667 208.527 9.87667L217.921 9.87667C218.212 9.87667 218.448 9.6408 218.448 9.34984C218.448 9.05887 218.212 8.823 217.921 8.823Z" fill="black"/>
<path d="M250.471 43.7876H227.558C227.267 43.7876 227.031 43.5517 227.031 43.2608C227.031 42.9698 227.267 42.7339 227.558 42.7339H250.471C250.762 42.734 250.998 42.9698 250.998 43.2608C250.998 43.5517 250.762 43.7875 250.471 43.7876Z" fill="black"/>
<path d="M208.529 25.7784L212.653 25.7784C212.944 25.7784 213.18 26.0143 213.18 26.3053C213.18 26.5962 212.944 26.8321 212.653 26.8321L208.529 26.8321C208.238 26.8321 208.002 26.5962 208.002 26.3053C208.002 26.0143 208.238 25.7784 208.529 25.7784Z" fill="black"/>
<path d="M249.768 9.87671L245.644 9.87671C245.353 9.87671 245.117 9.64084 245.117 9.34987C245.117 9.05891 245.353 8.82304 245.644 8.82304L249.768 8.82304C250.059 8.82304 250.295 9.05891 250.295 9.34987C250.295 9.64084 250.059 9.87671 249.768 9.87671Z" fill="black"/>
<path d="M220.442 25.7784L229.149 25.7784C229.44 25.7784 229.676 26.0143 229.676 26.3053C229.676 26.5962 229.44 26.8321 229.149 26.8321L220.442 26.8321C220.151 26.8321 219.915 26.5962 219.915 26.3053C219.915 26.0143 220.151 25.7784 220.442 25.7784Z" fill="black"/>
<path d="M237.855 9.87671L229.148 9.87671C228.857 9.87671 228.621 9.64084 228.621 9.34987C228.621 9.05891 228.857 8.82304 229.148 8.82304L237.855 8.82304C238.146 8.82304 238.382 9.05891 238.382 9.34987C238.382 9.64084 238.146 9.87671 237.855 9.87671Z" fill="black"/>
<path d="M223.512 6.79593L224.565 6.79593L224.565 11.8369L223.512 11.8369L223.512 6.79593ZM221.128 4.41282C219.812 4.4129 218.745 5.47975 218.745 6.79593L218.745 11.8369C218.745 13.153 219.812 14.2199 221.128 14.22C222.444 14.22 223.512 13.1531 223.512 11.8369L224.565 11.8369L224.561 12.0135C224.469 13.8295 222.967 15.2737 221.128 15.2737C219.23 15.2736 217.691 13.7349 217.691 11.8369L217.691 6.79593L217.696 6.61895C217.788 4.80309 219.289 3.35922 221.128 3.35915C222.967 3.35915 224.469 4.80304 224.561 6.61895L224.565 6.79593L223.512 6.79593C223.512 5.4797 222.444 4.41282 221.128 4.41282Z" fill="black"/>
<path d="M8.00001 105.669C7.99989 104.651 7.99087 103.442 9.16346 102.269V102.269L18.2525 93.1796C18.457 92.9751 18.7886 92.9751 18.9931 93.1796C19.1977 93.3842 19.1977 93.7157 18.9931 93.9202L9.90409 103.01C9.05712 103.857 9.04741 104.667 9.04753 105.669C9.04749 105.958 8.81299 106.193 8.52377 106.193C8.23453 106.193 8.00005 105.958 8.00001 105.669Z" fill="black"/>
<path d="M26.1597 71.8367C26.1596 68.7898 23.6894 66.3199 20.6425 66.3199C17.5956 66.3199 15.1257 68.7899 15.1256 71.8367C15.1256 74.8836 17.5956 77.3539 20.6425 77.3539V78.4014L20.473 78.399C16.9259 78.3091 14.0781 75.4055 14.0781 71.8367C14.0782 68.2113 17.0171 65.2724 20.6425 65.2723C24.2679 65.2723 27.2072 68.2113 27.2072 71.8367L27.2048 72.0062C27.115 75.5534 24.2113 78.4014 20.6425 78.4014V77.3539C23.6894 77.3539 26.1597 74.8836 26.1597 71.8367Z" fill="black"/>
<path d="M34.7649 105.669C34.7648 104.831 34.3422 103.935 33.6175 103.03C32.8985 102.131 31.9269 101.277 30.9349 100.534L30.923 100.525L30.9117 100.515L11.7335 84.3649L11.4975 84.1705C10.967 83.7206 10.5803 83.2958 10.346 82.8942C10.076 82.4312 9.96863 81.9194 10.2038 81.4491C10.4245 81.0079 10.8741 80.7576 11.3386 80.6147C11.8172 80.4674 12.4109 80.4022 13.0705 80.4022H30.2393C30.6055 80.4022 31.0284 80.4011 31.384 80.4558C31.6992 80.5042 32.1901 80.6266 32.4121 81.0706C32.6395 81.5256 32.4485 82.0337 32.1775 82.4771C31.8856 82.9547 31.3799 83.5542 30.6191 84.3158L25.0709 90.3693C24.8755 90.5825 24.5439 90.5968 24.3306 90.4014C24.1175 90.2059 24.1032 89.8746 24.2986 89.6614L29.8608 83.5935L29.869 83.5854C30.6176 82.8368 31.0561 82.3034 31.2837 81.9309C31.4111 81.7225 31.448 81.6048 31.459 81.5497C31.423 81.5343 31.3528 81.5107 31.2247 81.491C30.9649 81.451 30.6305 81.4497 30.2393 81.4497H13.0705C12.4681 81.4498 11.9888 81.5106 11.6469 81.6158C11.2909 81.7253 11.1724 81.8539 11.1405 81.9176C11.1232 81.9522 11.0792 82.0718 11.251 82.3663C11.4033 82.6274 11.6931 82.962 12.1713 83.3681L12.3878 83.5468L12.3981 83.555L31.578 99.7066C32.6011 100.475 33.6431 101.385 34.4352 102.375C35.2252 103.363 35.8124 104.487 35.8124 105.669C35.8124 105.958 35.5779 106.193 35.2886 106.193C34.9994 106.193 34.7649 105.958 34.7649 105.669Z" fill="black"/>
<path d="M46.3952 75.8575C46.6844 75.8575 46.9189 76.092 46.9189 76.3813C46.9189 76.6706 46.6844 76.9051 46.3952 76.9051H31.2464C30.9572 76.9051 30.7227 76.6706 30.7227 76.3813C30.7227 76.092 30.9572 75.8575 31.2464 75.8575H46.3952Z" fill="black"/>
<path d="M54.4756 81.2565C54.7649 81.2565 54.9994 81.491 54.9994 81.7802C54.9994 82.0695 54.7649 82.304 54.4756 82.304L36.2972 82.304C36.0079 82.304 35.7734 82.0695 35.7734 81.7802C35.7734 81.491 36.0079 81.2565 36.2972 81.2565L54.4756 81.2565Z" fill="black"/>
<path d="M49.4263 86.9668C49.7155 86.9669 49.95 87.2013 49.95 87.4906C49.95 87.7798 49.7155 88.0142 49.4263 88.0143L36.2972 88.0143C36.0079 88.0143 35.7734 87.7798 35.7734 87.4906C35.7734 87.2013 36.0079 86.9668 36.2972 86.9668L49.4263 86.9668Z" fill="black"/>
<path d="M147 73C147 75.9685 144.594 78.375 141.625 78.375V77.3C143.629 77.3 145.312 75.9296 145.79 74.075H109.375C107.371 74.075 105.688 75.4454 105.21 77.3H141.625V78.375H104C104 75.4065 106.406 73 109.375 73H147Z" fill="black"/>
<path d="M147 83.75C147 86.7185 144.594 89.125 141.625 89.125V88.05C143.629 88.05 145.312 86.6796 145.79 84.825H109.375C107.371 84.825 105.688 86.1954 105.21 88.05H141.625V89.125H104C104 86.1565 106.406 83.75 109.375 83.75H147Z" fill="black"/>
<path d="M147 94.5C147 97.4685 144.594 99.875 141.625 99.875V98.8C143.629 98.8 145.312 97.4296 145.79 95.575H109.375C107.371 95.575 105.688 96.9454 105.21 98.8H141.625V99.875H104C104 96.9065 106.406 94.5 109.375 94.5H147Z" fill="black"/>
<path d="M210.778 102.33C210.433 102.33 210.155 102.051 210.155 101.707C210.155 101.363 210.433 101.085 210.778 101.085H245.041C245.385 101.085 245.664 101.363 245.664 101.707C245.664 102.051 245.385 102.33 245.041 102.33H210.778Z" fill="black"/>
<path d="M210.621 85.6659C210.277 85.6659 209.998 85.9447 209.998 86.2887C209.998 86.6328 210.277 86.9116 210.621 86.9116L230.244 86.9116C230.588 86.9116 230.867 86.6328 230.867 86.2887C230.867 85.9447 230.588 85.6659 230.244 85.6659L210.621 85.6659Z" fill="black"/>
<path d="M210.621 70.0916C210.277 70.0916 209.998 70.3703 209.998 70.7144C209.998 71.0584 210.277 71.3372 210.621 71.3372L230.244 71.3372C230.588 71.3372 230.867 71.0584 230.867 70.7144C230.867 70.3703 230.588 70.0916 230.244 70.0916L210.621 70.0916Z" fill="black"/>
<path d="M248.961 69.4951C249.204 69.2518 249.598 69.2518 249.842 69.4951C250.085 69.7384 250.085 70.1329 249.842 70.3762L242.028 78.1901L249.842 86.0039C250.085 86.2472 250.085 86.6418 249.842 86.885C249.598 87.1283 249.204 87.1283 248.961 86.885L240.266 78.1901L248.961 69.4951Z" fill="black"/>
<path d="M250.648 101.707C250.648 102.395 250.09 102.953 249.402 102.953C248.714 102.953 248.156 102.395 248.156 101.707C248.156 101.019 248.714 100.461 249.402 100.461C250.09 100.461 250.648 101.019 250.648 101.707Z" fill="black"/>
<path d="M107.138 163.022V162.123H135.215V163.022H107.138Z" fill="black"/>
<path d="M107.002 148.63L107.002 149.529L124.176 149.529L124.176 148.63L107.002 148.63Z" fill="black"/>
<path d="M107 135.899V135H135.176V135.899H107Z" fill="black"/>
<path d="M144.765 148.039C144.765 144.231 141.679 141.145 137.871 141.145C134.064 141.145 130.977 144.231 130.977 148.039C130.977 151.846 134.064 154.933 137.871 154.933V155.832C133.567 155.832 130.078 152.343 130.078 148.039C130.078 143.735 133.567 140.245 137.871 140.245C142.176 140.245 145.665 143.735 145.665 148.039C145.665 152.343 142.176 155.832 137.871 155.832V154.933C141.679 154.933 144.765 151.846 144.765 148.039Z" fill="black"/>
<path d="M149 158.793L148.364 159.429L143.868 154.933L144.504 154.297L149 158.793Z" fill="black"/>
<path d="M41.9996 134.161L41.9996 135.04L17.5 135.04L17.5 134.161L41.9996 134.161Z" fill="black"/>
<path d="M41.9996 161.978L41.9996 162.857L17.5 162.857L17.5 161.978L41.9996 161.978Z" fill="black"/>
<path d="M34.3434 147.942L34.3434 148.821L17.5 148.821L17.5 147.942L34.3434 147.942Z" fill="black"/>
<path d="M41.9985 147.942L41.9985 148.821L36.1289 148.821L36.1289 147.942L41.9985 147.942Z" fill="black"/>
<path d="M15.2568 131.118V137.866H12.7756V136.987H14.3776V131.997H9.00428V136.987H11.4996V137.866H8.125V131.118H15.2568Z" fill="black"/>
<path d="M15.2568 158.807V165.556H12.7756V164.677H14.3776V159.686H9.00428V164.677H11.4996V165.556H8.125V158.807H15.2568Z" fill="black"/>
<path d="M15.1318 144.643V151.463H14.2526V145.523H8.87928V151.023H12.0126V151.903H8V144.643H15.1318Z" fill="black"/>
<path d="M216 135.123C216 134.906 216.176 134.73 216.394 134.73C216.611 134.73 216.788 134.906 216.788 135.123C216.788 136.338 216.923 137.058 217.166 137.469C217.281 137.662 217.418 137.785 217.584 137.864C217.756 137.946 217.983 137.992 218.288 137.992H221.971C222.582 137.992 222.936 137.72 223.155 137.382C223.388 137.023 223.471 136.576 223.471 136.281V132.809C223.471 132.225 223.275 131.902 223.031 131.712C222.77 131.509 222.395 131.414 221.971 131.414H217.972C217.755 131.414 217.578 131.237 217.578 131.02C217.578 130.802 217.755 130.626 217.972 130.626H221.971C222.494 130.626 223.065 130.741 223.515 131.09C223.981 131.453 224.258 132.024 224.258 132.809V136.281C224.258 136.687 224.152 137.293 223.816 137.81C223.467 138.349 222.875 138.779 221.971 138.779H218.288C217.909 138.779 217.556 138.723 217.245 138.575C216.928 138.423 216.677 138.188 216.489 137.871C216.128 137.261 216 136.35 216 135.123Z" fill="black"/>
<path d="M216 148.803C216 148.585 216.176 148.409 216.394 148.409C216.611 148.409 216.788 148.585 216.788 148.803C216.788 150.017 216.923 150.737 217.166 151.148C217.281 151.341 217.418 151.464 217.584 151.543C217.756 151.625 217.983 151.671 218.288 151.671H221.971C222.582 151.671 222.936 151.399 223.155 151.061C223.388 150.702 223.471 150.256 223.471 149.96V146.488C223.471 145.904 223.275 145.581 223.031 145.391C222.77 145.188 222.395 145.093 221.971 145.093H217.972C217.755 145.093 217.578 144.916 217.578 144.699C217.578 144.481 217.755 144.305 217.972 144.305H221.971C222.494 144.305 223.065 144.42 223.515 144.769C223.981 145.132 224.258 145.703 224.258 146.488V149.96C224.258 150.366 224.152 150.972 223.816 151.49C223.467 152.028 222.875 152.459 221.971 152.459H218.288C217.909 152.459 217.556 152.402 217.245 152.254C216.928 152.103 216.677 151.867 216.489 151.55C216.128 150.94 216 150.029 216 148.803Z" fill="black"/>
<path d="M216 162.482C216 162.265 216.176 162.088 216.394 162.088C216.611 162.088 216.788 162.265 216.788 162.482C216.788 163.697 216.923 164.417 217.166 164.828C217.281 165.02 217.418 165.143 217.584 165.222C217.756 165.304 217.983 165.35 218.288 165.35H221.971C222.582 165.35 222.936 165.079 223.155 164.741C223.388 164.382 223.471 163.935 223.471 163.639V160.167C223.471 159.584 223.275 159.26 223.031 159.07C222.77 158.868 222.395 158.772 221.971 158.772H217.972C217.755 158.772 217.578 158.596 217.578 158.378C217.578 158.161 217.755 157.984 217.972 157.984H221.971C222.494 157.985 223.065 158.099 223.515 158.449C223.981 158.812 224.258 159.383 224.258 160.167V163.639C224.258 164.045 224.152 164.651 223.816 165.169C223.467 165.708 222.875 166.138 221.971 166.138H218.288C217.909 166.138 217.556 166.081 217.245 165.933C216.928 165.782 216.677 165.547 216.489 165.229C216.128 164.62 216 163.708 216 162.482Z" fill="black"/>
<path d="M248.173 130.181C249.285 130.237 250.169 131.156 250.169 132.282V133.545H249.382V132.282C249.381 131.555 248.792 130.965 248.065 130.965H230.808C230.08 130.965 229.491 131.555 229.491 132.282V136.912C229.491 137.64 230.08 138.229 230.808 138.229H248.065C248.792 138.229 249.381 137.64 249.382 136.912V136.281H250.169V136.912L250.166 137.02C250.112 138.097 249.249 138.959 248.173 139.014L248.065 139.017H230.808C229.682 139.017 228.762 138.132 228.706 137.02L228.703 136.912V132.282C228.703 131.12 229.645 130.178 230.808 130.178H248.065L248.173 130.181Z" fill="black"/>
<path d="M248.173 143.86C249.285 143.916 250.169 144.836 250.169 145.962V150.342L249.382 149.394V145.962C249.381 145.234 248.792 144.645 248.065 144.645H230.808C230.08 144.645 229.491 145.234 229.491 145.962V150.592C229.491 151.319 230.08 151.908 230.808 151.909H247.913L248.525 152.645C248.411 152.67 248.293 152.687 248.173 152.693L248.065 152.696H230.808C229.682 152.696 228.762 151.812 228.706 150.7L228.703 150.592V145.962C228.703 144.799 229.645 143.857 230.808 143.857H248.065L248.173 143.86Z" fill="black"/>
<path d="M239.334 157.539C240.446 157.596 241.33 158.515 241.33 159.641V160.956H240.543V159.641C240.543 158.914 239.953 158.324 239.226 158.324H230.808C230.08 158.324 229.491 158.914 229.491 159.641V164.271C229.491 164.998 230.08 165.588 230.808 165.588H239.226C239.953 165.588 240.543 164.998 240.543 164.271V163.691H241.33V164.271L241.327 164.379C241.273 165.455 240.41 166.318 239.334 166.372L239.226 166.375H230.808C229.682 166.375 228.762 165.491 228.706 164.379L228.703 164.271V159.641C228.703 158.479 229.645 157.536 230.808 157.536H239.226L239.334 157.539Z" fill="black"/>
</svg>
