<svg width="260" height="178" viewBox="0 0 260 178" fill="none" xmlns="http://www.w3.org/2000/svg">
<path d="M28.5286 4.73935C33.2651 4.18212 37.0633 5.05854 39.9273 6.83358C42.79 8.60786 44.6892 11.2616 45.659 14.2062C47.5693 20.0063 45.8868 26.9994 40.7842 30.7195V41.3834L31.463 33.9855C31.2783 33.8388 31.2474 33.5701 31.3941 33.3853C31.5407 33.2006 31.8095 33.1697 31.9942 33.3163L39.9298 39.6143V30.279L40.1114 30.1513C45.0019 26.7148 46.6811 20.041 44.8475 14.4735C43.9341 11.7002 42.1525 9.21799 39.477 7.55975C36.8046 5.90347 33.2102 5.05068 28.6382 5.58678C25.5806 6.05903 21.9012 8.05216 19.5526 11.3906C17.3472 14.5254 16.2989 18.8695 18.0883 24.3133C21.0027 23.9074 23.2584 24.5687 24.7462 25.6706C25.7177 26.3901 26.3622 27.3003 26.624 28.2148C26.8863 29.131 26.7655 30.0737 26.1643 30.7782C25.4656 31.597 24.6043 31.8803 23.7069 31.7575C22.8415 31.639 21.9776 31.1497 21.1971 30.507C19.6343 29.2202 18.2438 27.1833 17.6339 25.5857C17.594 25.4815 17.5552 25.3776 17.5173 25.274C16.8595 25.4017 16.1642 25.5867 15.4323 25.8377L15.432 25.8374C11.7277 27.139 9.22386 31.2649 9.43714 35.2028C9.54294 37.1558 10.3177 39.0498 11.941 40.5252C13.5673 42.0031 16.0789 43.0909 19.7078 43.3597L19.8516 43.3706L24.0425 47.0824V41.879L24.2778 41.7608C24.8876 41.4542 25.74 40.729 26.4174 39.7842C27.095 38.8391 27.5493 37.7416 27.4679 36.6974C27.4495 36.4622 27.6253 36.2566 27.8606 36.2382C28.0957 36.2199 28.3014 36.3957 28.3197 36.6309C28.4231 37.9554 27.8499 39.2526 27.1119 40.2821C26.448 41.208 25.6112 41.9712 24.8969 42.3938V48.9805L19.4998 44.1999C15.8085 43.9027 13.145 42.774 11.3662 41.1573C9.56127 39.5169 8.70092 37.4047 8.58415 35.249C8.35244 30.9705 11.0515 26.4692 15.1522 25.0303L15.1553 25.0295C15.8793 24.7813 16.5736 24.5934 17.237 24.4591C15.4212 18.823 16.5041 14.2386 18.8537 10.8988C21.3424 7.36129 25.234 5.24633 28.5136 4.74158L28.5211 4.74018L28.5286 4.73935ZM24.2375 26.3572C22.9867 25.4308 21.0186 24.8053 18.3775 25.136C18.3956 25.1842 18.4136 25.2328 18.4321 25.2812C18.9912 26.7455 20.2958 28.6581 21.74 29.8473C22.4629 30.4426 23.1807 30.823 23.8228 30.9109C24.4329 30.9943 25.0054 30.8204 25.5146 30.2236C25.8906 29.783 26.0044 29.1547 25.8028 28.4501C25.6006 27.7437 25.0825 26.9831 24.2375 26.3572Z" fill="black"/>
<path d="M28.1723 18.8596C28.1723 19.5403 27.6204 20.0922 26.9397 20.0922C26.2589 20.0922 25.707 19.5403 25.707 18.8596C25.707 18.1788 26.2589 17.627 26.9397 17.627C27.6204 17.627 28.1723 18.1788 28.1723 18.8596Z" fill="black"/>
<path d="M15.5707 35.0207C15.5707 35.7015 15.0189 36.2533 14.3381 36.2533C13.6573 36.2533 13.1055 35.7015 13.1055 35.0207C13.1055 34.34 13.6573 33.7881 14.3381 33.7881C15.0189 33.7881 15.5707 34.34 15.5707 35.0207Z" fill="black"/>
<path d="M32.8246 18.8596C32.8246 19.5403 32.2728 20.0922 31.592 20.0922C30.9112 20.0922 30.3594 19.5403 30.3594 18.8596C30.3594 18.1788 30.9112 17.627 31.592 17.627C32.2728 17.627 32.8246 18.1788 32.8246 18.8596Z" fill="black"/>
<path d="M20.2231 35.0207C20.2231 35.7015 19.6712 36.2533 18.9904 36.2533C18.3097 36.2533 17.7578 35.7015 17.7578 35.0207C17.7578 34.34 18.3097 33.7881 18.9904 33.7881C19.6712 33.7881 20.2231 34.34 20.2231 35.0207Z" fill="black"/>
<path d="M37.4887 18.8596C37.4887 19.5403 36.9368 20.0922 36.2561 20.0922C35.5753 20.0922 35.0234 19.5403 35.0234 18.8596C35.0234 18.1788 35.5753 17.627 36.2561 17.627C36.9368 17.627 37.4887 18.1788 37.4887 18.8596Z" fill="black"/>
<path d="M24.8832 35.0207C24.8832 35.7015 24.3314 36.2533 23.6506 36.2533C22.9698 36.2533 22.418 35.7015 22.418 35.0207C22.418 34.34 22.9698 33.7881 23.6506 33.7881C24.3314 33.7881 24.8832 34.34 24.8832 35.0207Z" fill="black"/>
<path d="M145 9.45178V10.5482H110V9.45178H145Z" fill="black"/>
<path d="M110.624 16.9847V35.9289L130.482 42.9029V35.0209H144.202V16.9847H145.298V36.1173H131.578V44.4501L109.527 36.706V16.9847H110.624Z" fill="black"/>
<path d="M123.624 23.3706C123.624 24.3422 122.836 25.1297 121.865 25.1297C120.893 25.1297 120.105 24.3422 120.105 23.3706C120.105 22.3991 120.893 21.6116 121.865 21.6116C122.836 21.6116 123.624 22.3991 123.624 23.3706Z" fill="black"/>
<path d="M129.417 23.3706C129.417 24.3422 128.629 25.1297 127.658 25.1297C126.686 25.1297 125.898 24.3422 125.898 23.3706C125.898 22.3991 126.686 21.6116 127.658 21.6116C128.629 21.6116 129.417 22.3991 129.417 23.3706Z" fill="black"/>
<path d="M135.217 23.3706C135.217 24.3422 134.43 25.1297 133.458 25.1297C132.487 25.1297 131.699 24.3422 131.699 23.3706C131.699 22.3991 132.487 21.6116 133.458 21.6116C134.43 21.6116 135.217 22.3991 135.217 23.3706Z" fill="black"/>
<path d="M240.17 6.07169C241.197 5.78977 242.888 5.59744 244.826 6.08085C245.49 6.2467 245.869 6.89004 245.79 7.52615L244.872 14.8699C244.787 15.5523 244.207 16.0645 243.519 16.0646H241.572C240.884 16.0646 240.304 15.5523 240.219 14.8699L239.292 7.45031C239.219 6.87127 239.531 6.24688 240.17 6.07169ZM244.606 6.96276C242.839 6.5222 241.309 6.70207 240.41 6.94854C240.281 6.98397 240.167 7.12698 240.194 7.33751L241.121 14.7571C241.149 14.9845 241.343 15.1552 241.572 15.1552H243.519C243.748 15.1551 243.941 14.9845 243.97 14.7571L244.888 7.41334C244.916 7.18941 244.782 7.00675 244.606 6.96276Z" fill="black"/>
<path d="M244.08 19.8277C244.08 18.9812 243.394 18.2948 242.547 18.2948C241.701 18.2948 241.015 18.9812 241.015 19.8277C241.015 20.6742 241.701 21.3605 242.547 21.3605V22.2696C241.199 22.2696 240.105 21.1763 240.105 19.8277C240.105 18.479 241.199 17.3858 242.547 17.3857C243.896 17.3857 244.989 18.479 244.989 19.8277C244.989 21.1763 243.896 22.2696 242.547 22.2696V21.3605C243.394 21.3605 244.08 20.6742 244.08 19.8277Z" fill="black"/>
<path d="M215.839 19.5463C218.667 14.1641 224.854 10.0065 235.211 10.7617C235.757 10.8015 236.342 10.8859 236.951 11.016V11.9475C236.313 11.8021 235.706 11.7091 235.145 11.6682C225.091 10.9352 219.278 14.955 216.644 19.9694C213.985 25.0306 214.53 31.1436 217.275 34.6795C217.543 35.0239 217.654 35.4825 217.531 35.9254L215.696 42.5133C215.604 42.847 215.903 43.1579 216.24 43.0773L224.407 41.1246C224.686 41.0578 224.979 41.0844 225.236 41.1856C232.932 44.2075 239.085 42.781 243.34 39.7968C247.626 36.7909 249.982 32.2118 250.082 28.9388C250.206 24.8678 249.083 21.5821 247.334 19.0113V17.4801C249.604 20.3309 251.138 24.133 250.991 28.9666C250.881 32.5754 248.339 37.4013 243.862 40.5413C239.354 43.7031 232.879 45.1636 224.904 42.0318C224.81 41.9948 224.706 41.9875 224.618 42.0087L216.452 43.9615C215.441 44.2031 214.542 43.2706 214.821 42.2694L216.655 35.6815C216.695 35.5381 216.663 35.3735 216.557 35.2372C213.565 31.3843 213.036 24.8814 215.839 19.5463Z" fill="black"/>
<path d="M228.791 27.5535C228.791 28.2779 228.204 28.8652 227.48 28.8652C226.755 28.8652 226.168 28.2779 226.168 27.5535C226.168 26.8291 226.755 26.2418 227.48 26.2418C228.204 26.2418 228.791 26.8291 228.791 27.5535Z" fill="black"/>
<path d="M233.744 27.5535C233.744 28.2779 233.157 28.8652 232.433 28.8652C231.708 28.8652 231.121 28.2779 231.121 27.5535C231.121 26.8291 231.708 26.2418 232.433 26.2418C233.157 26.2418 233.744 26.8291 233.744 27.5535Z" fill="black"/>
<path d="M238.698 27.5535C238.698 28.2779 238.11 28.8652 237.386 28.8652C236.661 28.8652 236.074 28.2779 236.074 27.5535C236.074 26.8291 236.661 26.2418 237.386 26.2418C238.11 26.2418 238.698 26.8291 238.698 27.5535Z" fill="black"/>
<path d="M46.2068 80.3396L46.2058 80.522C46.1088 88.1805 39.9186 94.3704 32.2601 94.4674L32.0777 94.4688H30.3821V93.6374H32.0777C39.4218 93.6374 45.3755 87.6837 45.3755 80.3396V68.8313H23.1291C15.7849 68.8313 9.83133 74.785 9.8313 82.1291V93.6374H17.1008V94.4688H9V82.1291C9.00003 74.3258 15.3258 68 23.1291 68H46.2068V80.3396Z" fill="black"/>
<path d="M31.3221 100.666L30.2047 93.8374L31.0252 93.7032L32.4018 102.115L16.5781 94.4211L16.9418 93.6737L31.3221 100.666Z" fill="black"/>
<path d="M21.2616 81.2342C21.2615 80.3667 20.5584 79.6636 19.691 79.6636C18.8236 79.6636 18.1204 80.3668 18.1204 81.2342C18.1204 82.1016 18.8235 82.8047 19.691 82.8048V83.6361C18.3644 83.636 17.2891 82.5607 17.2891 81.2342C17.2891 79.9077 18.3644 78.8323 19.691 78.8323C21.0175 78.8323 22.0928 79.9076 22.0929 81.2342C22.0929 82.5607 21.0175 83.6361 19.691 83.6361V82.8048C20.5584 82.8048 21.2616 82.1016 21.2616 81.2342Z" fill="black"/>
<path d="M29.1756 81.2342C29.1756 80.3667 28.4724 79.6636 27.605 79.6636C26.7376 79.6636 26.0345 80.3668 26.0344 81.2342C26.0344 82.1016 26.7376 82.8047 27.605 82.8048V83.6361C26.2785 83.636 25.2031 82.5607 25.2031 81.2342C25.2032 79.9077 26.2785 78.8323 27.605 78.8323C28.9316 78.8323 30.0069 79.9076 30.0069 81.2342C30.0069 82.5607 28.9316 83.6361 27.605 83.6361V82.8048C28.4725 82.8048 29.1756 82.1016 29.1756 81.2342Z" fill="black"/>
<path d="M37.0858 81.2342C37.0857 80.3667 36.3826 79.6636 35.5152 79.6636C34.6478 79.6636 33.9446 80.3668 33.9446 81.2342C33.9446 82.1016 34.6478 82.8047 35.5152 82.8048V83.6361C34.1886 83.636 33.1133 82.5607 33.1133 81.2342C33.1133 79.9077 34.1887 78.8323 35.5152 78.8323C36.8417 78.8323 37.917 79.9076 37.9171 81.2342C37.9171 82.5607 36.8417 83.6361 35.5152 83.6361V82.8048C36.3826 82.8048 37.0858 82.1016 37.0858 81.2342Z" fill="black"/>
<path d="M145.534 73.7561V93.6391L139.773 96.9647C140.392 99.1815 142.253 100.908 144.456 102.181C146.75 103.508 149.333 104.293 151.002 104.606L150.988 105.481C141.09 107.014 134.942 103.35 132.804 100.988L128.308 103.584L111.082 93.6391V73.7561L128.308 63.8107L145.534 73.7561ZM111.969 74.2681V93.1268L128.308 102.56L133.008 99.8462L133.247 100.143C134.768 102.034 139.878 105.524 148.476 104.878C147.07 104.438 145.487 103.802 144.011 102.949C141.623 101.569 139.433 99.572 138.827 96.8446L138.757 96.5272L144.647 93.1268V74.2681L128.308 64.835L111.969 74.2681Z" fill="black"/>
<path d="M123.093 83.8434C123.093 83.0651 122.461 82.4341 121.683 82.4341C120.905 82.4342 120.274 83.0651 120.274 83.8434C120.274 84.6217 120.905 85.2529 121.683 85.2529V86.1401L121.565 86.1372C120.352 86.0756 119.387 85.0721 119.387 83.8434C119.387 82.5752 120.415 81.5471 121.683 81.547C122.951 81.547 123.98 82.5751 123.98 83.8434L123.977 83.9618C123.915 85.1751 122.912 86.1401 121.683 86.1401V85.2529C122.461 85.2529 123.093 84.6218 123.093 83.8434Z" fill="black"/>
<path d="M129.804 83.8434C129.804 83.0651 129.172 82.4341 128.394 82.4341C127.616 82.4342 126.985 83.0651 126.985 83.8434C126.985 84.6217 127.616 85.2529 128.394 85.2529V86.1401L128.276 86.1372C127.063 86.0756 126.098 85.0721 126.098 83.8434C126.098 82.5752 127.126 81.5471 128.394 81.547C129.662 81.547 130.691 82.5751 130.691 83.8434L130.688 83.9618C130.626 85.1751 129.623 86.1401 128.394 86.1401V85.2529C129.172 85.2529 129.804 84.6218 129.804 83.8434Z" fill="black"/>
<path d="M136.515 83.8434C136.514 83.0651 135.883 82.4341 135.105 82.4341C134.327 82.4342 133.696 83.0651 133.696 83.8434C133.696 84.6217 134.327 85.2529 135.105 85.2529V86.1401L134.987 86.1372C133.773 86.0756 132.809 85.0721 132.809 83.8434C132.809 82.5752 133.837 81.5471 135.105 81.547C136.373 81.547 137.402 82.5751 137.402 83.8434L137.399 83.9618C137.337 85.1751 136.334 86.1401 135.105 86.1401V85.2529C135.883 85.2529 136.515 84.6218 136.515 83.8434Z" fill="black"/>
<path d="M210.555 95.7059V74.8279C210.555 72.6729 211.094 71.3233 211.952 70.5218C212.807 69.7241 213.89 69.5535 214.785 69.5535H228.747C228.994 69.5535 229.194 69.7534 229.194 70C229.194 70.2466 228.994 70.4465 228.747 70.4465H214.785C213.984 70.4465 213.175 70.6023 212.562 71.1747C211.953 71.7433 211.448 72.8076 211.448 74.8279V95.7059C211.448 96.5702 211.629 97.548 212.129 98.2957C212.611 99.0163 213.416 99.5655 214.785 99.5655H236.707C236.954 99.5655 237.154 99.7654 237.154 100.012C237.154 100.259 236.954 100.459 236.707 100.459H214.785C213.127 100.458 212.04 99.768 211.387 98.7922C210.752 97.8436 210.555 96.6684 210.555 95.7059ZM248.526 95.7059V77.9596C248.526 77.7131 248.726 77.5131 248.973 77.5131C249.219 77.5131 249.419 77.713 249.419 77.9596V95.7059C249.419 96.659 249.252 97.8479 248.55 98.8073C247.83 99.7931 246.606 100.459 244.667 100.459C244.42 100.458 244.22 100.259 244.22 100.012C244.22 99.7654 244.42 99.5656 244.667 99.5655C246.382 99.5655 247.31 98.9911 247.83 98.2806C248.368 97.5438 248.526 96.5795 248.526 95.7059Z" fill="black"/>
<path d="M242.17 79.7915C242.383 79.6682 242.656 79.7413 242.78 79.9548C242.903 80.1684 242.83 80.4414 242.616 80.5647L230.202 87.7322L216.154 80.5761C215.934 80.4641 215.847 80.1952 215.959 79.9755C216.071 79.7558 216.34 79.6683 216.559 79.7801L230.175 86.7165L242.17 79.7915Z" fill="black"/>
<path d="M248.404 73.5232C248.404 72.8851 248.335 72.123 247.927 71.5238C247.542 70.9591 246.787 70.4465 245.197 70.4465C244.95 70.4465 244.75 70.2466 244.75 70C244.75 69.7534 244.95 69.5535 245.197 69.5535C246.999 69.5535 248.071 70.15 248.665 71.0206C249.235 71.8568 249.297 72.8565 249.297 73.5232C249.296 73.7698 249.097 73.9698 248.85 73.9698C248.604 73.9697 248.404 73.7698 248.404 73.5232Z" fill="black"/>
<path d="M9.41586 153.066V133.774C9.41586 132.955 9.52204 132.117 9.93955 131.491C10.3342 130.899 11.0605 130.419 12.4914 130.419H41.5688C42.2655 130.419 42.9937 130.616 43.5428 131.109C44.0824 131.593 44.5045 132.413 44.5045 133.774V153.066C44.5045 154.354 44.2308 155.12 43.6288 155.558C42.9958 156.018 41.8788 156.212 39.936 156.004L39.4718 155.955V156.421C39.4718 157.925 40.34 161.269 43.5458 164.103C41.5611 163.778 39.1868 162.909 37.3241 161.188C35.0734 159.108 33.5176 155.74 34.3723 150.423C37.1141 150.497 38.7556 149.888 39.5016 148.96C39.9015 148.463 40.0264 147.891 39.9155 147.351C39.8065 146.819 39.4763 146.349 39.0194 146.017L39.0008 146.003L38.9809 145.992C37.8385 145.339 36.6422 145.513 35.6676 146.269C34.7785 146.959 34.0778 148.122 33.6916 149.571H13.7495V142.302H39.7514V134.473H13.3301V135.312H38.9127V141.463H12.9107V150.41H33.5251C32.6739 155.904 34.2918 159.528 36.7548 161.804C39.2655 164.123 42.5999 164.992 44.9064 165.088L46.3008 165.146L45.1693 164.329C41.6294 161.773 40.5179 158.522 40.3382 156.883C42.0529 157.018 43.2943 156.838 44.1219 156.236C45.0577 155.556 45.3432 154.435 45.3432 153.066V133.774C45.3432 132.228 44.8566 131.161 44.1031 130.485C43.3592 129.817 42.4098 129.581 41.5688 129.581H12.4914C10.8467 129.581 9.82557 130.15 9.24166 131.025C8.68062 131.867 8.5771 132.917 8.5771 133.774V153.066C8.5771 154.711 9.14638 155.7 9.99115 156.249C10.7992 156.774 11.7805 156.841 12.4914 156.841H30.8045V156.002H12.4914C11.8043 156.002 11.0381 155.929 10.4482 155.545C9.89506 155.186 9.41586 154.497 9.41586 153.066ZM36.1815 146.932C36.9134 146.364 37.7368 146.257 38.5451 146.709C38.8461 146.934 39.0336 147.227 39.0937 147.519C39.1532 147.809 39.0946 148.128 38.8479 148.435C38.3656 149.034 37.1121 149.632 34.558 149.588C34.918 148.365 35.5114 147.452 36.1815 146.932Z" fill="black"/>
<path d="M151.435 131.759V155.716H142.274C141.835 157.518 142.424 159.097 143.316 160.385C144.263 161.754 145.522 162.748 146.16 163.263L147.33 164.208L145.835 164.039C142.126 163.621 138.868 162.114 136.416 160.407C135.189 159.552 134.158 158.644 133.368 157.788C132.687 157.05 132.171 156.335 131.869 155.716H117.252C113.191 155.716 110.286 153.904 108.393 151.652C106.513 149.415 105.618 146.729 105.566 144.918C105.429 140.117 107.197 136.813 109.596 134.716C111.98 132.632 114.964 131.759 117.252 131.759H151.435ZM117.252 132.635C115.159 132.635 112.384 133.442 110.173 135.375C107.977 137.295 106.312 140.345 106.442 144.893C106.488 146.491 107.301 148.991 109.064 151.088C110.813 153.17 113.484 154.839 117.252 154.839H132.449L132.56 155.115C132.775 155.653 133.263 156.382 134.012 157.193C134.756 157.999 135.738 158.867 136.917 159.687C138.931 161.09 141.501 162.343 144.41 162.929C143.823 162.389 143.16 161.7 142.595 160.884C141.56 159.39 140.826 157.425 141.521 155.149L141.616 154.839H150.559V132.635H117.252Z" fill="black"/>
<path d="M123.822 143.737C123.822 143.011 123.234 142.423 122.508 142.423C121.782 142.423 121.193 143.011 121.193 143.737C121.193 144.463 121.782 145.052 122.508 145.052V145.928C121.297 145.928 120.316 144.947 120.316 143.737C120.316 142.527 121.297 141.546 122.508 141.546C123.718 141.546 124.699 142.527 124.699 143.737C124.699 144.947 123.718 145.928 122.508 145.928V145.052C123.234 145.052 123.822 144.463 123.822 143.737Z" fill="black"/>
<path d="M131.123 143.737C131.123 143.011 130.534 142.423 129.808 142.423C129.082 142.423 128.494 143.011 128.494 143.737C128.494 144.463 129.082 145.052 129.808 145.052V145.928C128.598 145.928 127.617 144.947 127.617 143.737C127.617 142.527 128.598 141.546 129.808 141.546C131.019 141.546 132 142.527 132 143.737C132 144.947 131.019 145.928 129.808 145.928V145.052C130.534 145.052 131.123 144.463 131.123 143.737Z" fill="black"/>
<path d="M138.432 143.737C138.432 143.011 137.843 142.423 137.117 142.423C136.391 142.423 135.802 143.011 135.802 143.737C135.802 144.463 136.391 145.052 137.117 145.052V145.928C135.907 145.928 134.926 144.947 134.926 143.737C134.926 142.527 135.907 141.546 137.117 141.546C138.327 141.546 139.308 142.527 139.308 143.737C139.308 144.947 138.327 145.928 137.117 145.928V145.052C137.843 145.052 138.432 144.463 138.432 143.737Z" fill="black"/>
<path d="M241.022 146.518C242.449 146.518 243.953 146.965 245.105 148.249C246.25 149.525 246.99 151.563 247.037 154.628C247.039 154.774 247.067 154.917 247.118 155.043L248.849 159.272C249.383 160.577 248.423 162.007 247.013 162.007H234.732C233.322 162.007 232.362 160.577 232.896 159.272L234.597 155.113C234.662 154.955 234.689 154.777 234.68 154.587C234.614 153.155 234.873 151.165 235.804 149.516C236.751 147.838 238.395 146.518 241.022 146.518ZM241.022 147.434C238.771 147.434 237.409 148.535 236.602 149.966C235.778 151.424 235.534 153.229 235.594 154.545C235.608 154.847 235.567 155.16 235.445 155.459L233.743 159.619C233.456 160.321 233.972 161.091 234.732 161.091H247.013C247.772 161.091 248.289 160.321 248.002 159.619L246.271 155.39C246.173 155.149 246.125 154.893 246.121 154.642C246.077 151.705 245.369 149.914 244.423 148.861C243.485 147.815 242.256 147.434 241.022 147.434Z" fill="black"/>
<path d="M243.621 163.757C243.737 163.533 244.013 163.444 244.238 163.56C244.463 163.676 244.551 163.952 244.435 164.177C243.812 165.384 243.133 166.169 242.413 166.599C241.678 167.039 240.934 167.088 240.253 166.884C239.589 166.685 239.007 166.252 238.541 165.761C238.073 165.267 237.697 164.69 237.452 164.159C237.346 163.929 237.447 163.657 237.676 163.551C237.906 163.445 238.178 163.546 238.284 163.775C238.489 164.221 238.809 164.714 239.205 165.131C239.603 165.55 240.054 165.869 240.516 166.008C240.962 166.141 241.439 166.116 241.943 165.814C242.463 165.503 243.042 164.879 243.621 163.757Z" fill="black"/>
<path d="M247.78 143.671V132.45C247.78 131.017 246.619 129.856 245.186 129.856H213.279C211.846 129.856 210.685 131.017 210.685 132.45V157.682C210.685 158.887 211.553 159.902 212.802 160.451C214.05 161 215.544 161.019 216.621 160.358C219.098 158.839 222.046 157.61 225.218 157.376C225.47 157.358 225.689 157.547 225.708 157.799C225.726 158.051 225.537 158.271 225.285 158.29C222.303 158.509 219.495 159.669 217.1 161.138C215.706 161.993 213.884 161.927 212.433 161.289C210.983 160.651 209.77 159.374 209.77 157.682V132.45C209.77 130.511 211.341 128.94 213.279 128.94H245.186C247.124 128.94 248.695 130.511 248.695 132.45V143.671C248.695 143.923 248.49 144.128 248.238 144.128C247.985 144.128 247.78 143.923 247.78 143.671Z" fill="black"/>
<path d="M232.009 140.509C232.261 140.509 232.466 140.714 232.466 140.966C232.466 141.219 232.261 141.424 232.009 141.424H220.29C220.037 141.424 219.832 141.219 219.832 140.966C219.832 140.714 220.037 140.509 220.29 140.509H232.009Z" fill="black"/>
<path d="M227.802 146.368C228.054 146.368 228.259 146.573 228.259 146.826C228.259 147.078 228.054 147.283 227.802 147.283H220.29C220.037 147.283 219.832 147.078 219.832 146.826C219.832 146.573 220.037 146.368 220.29 146.368H227.802Z" fill="black"/>
</svg>
