<svg width="296" height="220" viewBox="0 0 296 220" fill="none" xmlns="http://www.w3.org/2000/svg">
<path d="M61.8867 19.9698C61.8867 21.2878 62.4103 22.5519 63.3423 23.4839C64.2743 24.4159 65.5384 24.9395 66.8565 24.9395C68.1745 24.9395 69.4386 24.4159 70.3706 23.4839C71.3026 22.5519 71.8262 21.2878 71.8262 19.9698C71.8262 18.6517 71.3026 17.3876 70.3706 16.4556C69.4386 15.5236 68.1745 15 66.8565 15C65.5384 15 64.2743 15.5236 63.3423 16.4556C62.4103 17.3876 61.8867 18.6517 61.8867 19.9698Z" stroke="#1A255C" stroke-width="0.991" stroke-linecap="round" stroke-linejoin="round"/>
<path d="M73.803 18.9758H65.8514L63.5156 23.6573" stroke="#1A255C" stroke-width="0.991" stroke-linecap="round" stroke-linejoin="round"/>
<path d="M80.767 48.7944C82.3487 48.7944 83.8656 49.4227 84.984 50.5412C86.1024 51.6596 86.7307 53.1765 86.7307 54.7581H67.8456C67.0548 54.7581 66.2964 54.444 65.7372 53.8848C65.1779 53.3256 64.8638 52.5671 64.8638 51.7763C64.8638 51.1236 64.7352 50.4774 64.4855 49.8744C64.2357 49.2715 63.8697 48.7236 63.4082 48.2621C62.9467 47.8006 62.3988 47.4346 61.7959 47.1848C61.1929 46.9351 60.5467 46.8065 59.894 46.8065H52.4394C50.9895 46.8065 49.599 47.3825 48.5738 48.4077C47.5486 49.4329 46.9727 50.8234 46.9727 52.2733V54.7581" stroke="#1A255C" stroke-width="0.991" stroke-linecap="round" stroke-linejoin="round"/>
<path d="M76.7891 37.8608H78.777C79.3042 37.8608 79.8098 38.0703 80.1826 38.4431C80.5554 38.8159 80.7649 39.3215 80.7649 39.8487V54.758" stroke="#1A255C" stroke-width="0.991" stroke-linecap="round" stroke-linejoin="round"/>
<path d="M50.9492 55.7519C50.9492 56.8064 51.3681 57.8176 52.1137 58.5632C52.8593 59.3089 53.8706 59.7277 54.925 59.7277C55.9795 59.7277 56.9907 59.3089 57.7363 58.5632C58.482 57.8176 58.9008 56.8064 58.9008 55.7519C58.9008 54.6975 58.482 53.6862 57.7363 52.9406C56.9907 52.195 55.9795 51.7761 54.925 51.7761C53.8706 51.7761 52.8593 52.195 52.1137 52.9406C51.3681 53.6862 50.9492 54.6975 50.9492 55.7519Z" stroke="#1A255C" stroke-width="0.991" stroke-linecap="round" stroke-linejoin="round"/>
<path d="M76.7891 54.7582V55.7521C76.7891 56.8066 77.2079 57.8178 77.9536 58.5635C78.6992 59.3091 79.7104 59.7279 80.7649 59.7279C81.8193 59.7279 82.8306 59.3091 83.5762 58.5635C84.3218 57.8178 84.7407 56.8066 84.7407 55.7521V54.7582" stroke="#1A255C" stroke-width="0.991" stroke-linecap="round" stroke-linejoin="round"/>
<path d="M43.994 28.9154H55.9214C55.9214 28.9154 56.9153 28.9154 56.9153 29.9094V41.8368C56.9153 41.8368 56.9153 42.8307 55.9214 42.8307H43.994C43.994 42.8307 43 42.8307 43 41.8368V29.9094C43 29.9094 43 28.9154 43.994 28.9154Z" stroke="#1A255C" stroke-width="0.991" stroke-linecap="round" stroke-linejoin="round"/>
<path d="M46.9727 38.8549V37.2785C46.9727 37.0154 47.0771 36.7631 47.2629 36.5768L50.6582 33.1894C50.8445 33.0036 51.0969 32.8992 51.36 32.8992H52.9364" stroke="#1A255C" stroke-width="0.991" stroke-linecap="round" stroke-linejoin="round"/>
<path d="M80.7578 39.8488L83.2944 38.5805C83.4459 38.5046 83.6144 38.4687 83.7837 38.4762C83.953 38.4837 84.1176 38.5344 84.2618 38.6234C84.4061 38.7125 84.5251 38.8369 84.6077 38.9849C84.6903 39.133 84.7336 39.2996 84.7336 39.4691V43.2104C84.7336 43.3799 84.6903 43.5465 84.6077 43.6946C84.5251 43.8426 84.4061 43.967 84.2618 44.0561C84.1176 44.1451 83.953 44.1958 83.7837 44.2033C83.6144 44.2108 83.4459 44.1749 83.2944 44.099L80.7578 42.8307" stroke="#1A255C" stroke-width="0.991" stroke-linecap="round" stroke-linejoin="round"/>
<path d="M68.8422 35.5868V37.861H69.3392C71.8082 37.861 74.8059 39.8648 74.8059 42.3338V49.7983C74.8059 50.3256 74.5965 50.8312 74.2237 51.204C73.8509 51.5768 73.3453 51.7862 72.818 51.7862C72.2908 51.7862 71.7852 51.5768 71.4124 51.204C71.0396 50.8312 70.8301 50.3256 70.8301 49.7983C70.8657 47.9182 70.5578 46.0475 69.9217 44.2779C69.5756 43.7959 69.1123 43.41 68.5756 43.1568C68.0389 42.9035 67.4465 42.7913 66.8543 42.8307H63.8725C63.0816 42.8307 62.3232 42.5166 61.764 41.9574C61.2048 41.3982 60.8906 40.6397 60.8906 39.8489V32.8912C60.8906 31.8368 61.3095 30.8255 62.0551 30.0799C62.8007 29.3343 63.812 28.9154 64.8664 28.9154C65.8927 28.9306 66.91 29.1091 67.8801 29.4442L77.7878 33.8852" stroke="#1A255C" stroke-width="0.991" stroke-linecap="round" stroke-linejoin="round"/>
<path d="M177.421 166H172.008C171.755 166 171.51 166.092 171.318 166.258C171.127 166.424 171.002 166.654 170.966 166.905L167.015 194.568C166.979 194.82 166.854 195.049 166.663 195.216C166.471 195.382 166.226 195.474 165.973 195.474H135.316C134.757 195.474 134.222 195.252 133.827 194.857C133.432 194.462 133.211 193.927 133.211 193.368C133.211 192.81 133.432 192.275 133.827 191.88C134.222 191.485 134.757 191.263 135.316 191.263H160.579C161.137 191.263 161.673 191.041 162.068 190.647C162.462 190.252 162.684 189.716 162.684 189.158C162.684 188.6 162.462 188.064 162.068 187.669C161.673 187.274 161.137 187.053 160.579 187.053H133.211C132.652 187.053 132.117 186.831 131.722 186.436C131.327 186.041 131.105 185.506 131.105 184.947C131.105 184.389 131.327 183.854 131.722 183.459C132.117 183.064 132.652 182.842 133.211 182.842H161.632C162.19 182.842 162.725 182.62 163.12 182.225C163.515 181.831 163.737 181.295 163.737 180.737C163.737 180.178 163.515 179.643 163.12 179.248C162.725 178.853 162.19 178.632 161.632 178.632H131.105C130.547 178.632 130.011 178.41 129.617 178.015C129.222 177.62 129 177.085 129 176.526C129 175.968 129.222 175.432 129.617 175.038C130.011 174.643 130.547 174.421 131.105 174.421H164.789" stroke="#1A255C" stroke-width="1.10922" stroke-linecap="round" stroke-linejoin="round"/>
<path d="M137.41 202.842C137.41 203.68 137.743 204.483 138.335 205.075C138.927 205.667 139.731 206 140.568 206C141.406 206 142.209 205.667 142.801 205.075C143.393 204.483 143.726 203.68 143.726 202.842C143.726 202.005 143.393 201.201 142.801 200.609C142.209 200.017 141.406 199.684 140.568 199.684C139.731 199.684 138.927 200.017 138.335 200.609C137.743 201.201 137.41 202.005 137.41 202.842Z" stroke="#1A255C" stroke-width="1.10922" stroke-linecap="round" stroke-linejoin="round"/>
<path d="M160.566 202.842C160.566 203.68 160.899 204.483 161.491 205.075C162.084 205.667 162.887 206 163.724 206C164.562 206 165.365 205.667 165.957 205.075C166.549 204.483 166.882 203.68 166.882 202.842C166.882 202.005 166.549 201.201 165.957 200.609C165.365 200.017 164.562 199.684 163.724 199.684C162.887 199.684 162.084 200.017 161.491 200.609C160.899 201.201 160.566 202.005 160.566 202.842Z" stroke="#1A255C" stroke-width="1.10922" stroke-linecap="round" stroke-linejoin="round"/>
<path d="M232.857 31.6709L223.616 34.8852M223.616 34.8852L241.897 40.5102M223.616 34.8852L220 40.5102L223.117 41.5146M241.897 40.5102L261.384 34.8852M241.897 40.5102V58.5905M241.897 40.5102L238.08 46.3361L223.117 41.5146M241.897 40.5102L245.714 46.3361L261.384 41.6025M261.384 34.8852L251.942 31.6709M261.384 34.8852L265 40.5102L261.384 41.6025M223.117 41.5146V52.7646M261.384 41.6025V52.7646" stroke="#1A255C" stroke-width="1.05021" stroke-linecap="round"/>
<mask id="path-15-inside-1_2074_4349" fill="white">
<path d="M241.778 16.1349C241.751 15.8599 241.506 15.6573 241.233 15.7018C239.985 15.9054 238.802 16.4087 237.787 17.1716C236.639 18.0348 235.75 19.1972 235.218 20.5317C234.685 21.8661 234.53 23.3213 234.769 24.7379C235.008 26.1546 235.632 27.4782 236.573 28.5642C237.514 29.6501 238.735 30.4564 240.103 30.8951C241.471 31.3337 242.933 31.3877 244.33 31.0512C245.727 30.7147 247.004 30.0006 248.022 28.987C248.922 28.0913 249.589 26.9923 249.969 25.786C250.051 25.5224 249.886 25.2508 249.617 25.1848V25.1848C249.349 25.1189 249.08 25.2837 248.995 25.5465C248.66 26.5748 248.086 27.5116 247.316 28.2778C246.428 29.1619 245.314 29.7848 244.096 30.0783C242.877 30.3719 241.602 30.3248 240.408 29.9422C239.215 29.5595 238.15 28.8562 237.329 27.909C236.509 26.9617 235.965 25.8071 235.756 24.5714C235.548 23.3357 235.683 22.0664 236.147 20.9024C236.611 19.7384 237.387 18.7245 238.389 17.9715C239.257 17.3189 240.266 16.8841 241.331 16.7C241.604 16.6529 241.805 16.41 241.778 16.1349V16.1349Z"/>
</mask>
<path d="M241.778 16.1349C241.751 15.8599 241.506 15.6573 241.233 15.7018C239.985 15.9054 238.802 16.4087 237.787 17.1716C236.639 18.0348 235.75 19.1972 235.218 20.5317C234.685 21.8661 234.53 23.3213 234.769 24.7379C235.008 26.1546 235.632 27.4782 236.573 28.5642C237.514 29.6501 238.735 30.4564 240.103 30.8951C241.471 31.3337 242.933 31.3877 244.33 31.0512C245.727 30.7147 247.004 30.0006 248.022 28.987C248.922 28.0913 249.589 26.9923 249.969 25.786C250.051 25.5224 249.886 25.2508 249.617 25.1848V25.1848C249.349 25.1189 249.08 25.2837 248.995 25.5465C248.66 26.5748 248.086 27.5116 247.316 28.2778C246.428 29.1619 245.314 29.7848 244.096 30.0783C242.877 30.3719 241.602 30.3248 240.408 29.9422C239.215 29.5595 238.15 28.8562 237.329 27.909C236.509 26.9617 235.965 25.8071 235.756 24.5714C235.548 23.3357 235.683 22.0664 236.147 20.9024C236.611 19.7384 237.387 18.7245 238.389 17.9715C239.257 17.3189 240.266 16.8841 241.331 16.7C241.604 16.6529 241.805 16.41 241.778 16.1349V16.1349Z" fill="#2A272D" stroke="#1A255C" stroke-width="2.10042" stroke-linecap="round" mask="url(#path-15-inside-1_2074_4349)"/>
<path d="M240.09 21.6262L242.902 24.4387L248.929 18.4119" stroke="#1A255C" stroke-width="1.05021" stroke-linecap="round"/>
<path d="M236.711 152.554C236.118 150.11 236.414 144 244.718 144C247.518 144 252.429 146.75 251.362 152.682M251.362 152.682C244.491 148.283 238.768 150.925 236.387 152.86C234.905 154.082 235.798 156.221 237.602 155.304C240.27 153.776 245.311 152.249 250.161 155.432C251.765 156.485 253.427 153.904 251.362 152.682Z" stroke="#1A255C" stroke-width="1.09499" stroke-linecap="round"/>
<path d="M241.484 148.171L243.431 147.337L244.265 148.171L246.49 147.615" stroke="#1A255C" stroke-width="1.09499" stroke-linecap="round"/>
<path d="M250.66 154.845C250.255 158.794 248.112 166.278 242.773 164.619C240.866 164.027 237.798 161.006 237.312 154.845" stroke="#1A255C" stroke-width="1.09499" stroke-linecap="round"/>
<path d="M240.417 163.068C240.549 164.127 240.496 166.484 239.225 167.437M239.225 167.437L243.198 170.615C243.529 170.88 244.389 171.251 245.184 170.615L249.156 167.437M239.225 167.437C238.033 167.967 235.253 169.106 233.664 169.424C230.477 170.218 225.56 173.714 226.513 181.341L226.902 181.492M247.965 163.068C247.7 164.127 247.567 166.484 249.156 167.437M249.156 167.437C250.348 167.967 253.367 169.185 255.91 169.821C258.178 170.388 262.583 173.396 262.265 181.341L261.46 181.638M254.718 184.122V181.341M254.718 184.122V186.902M254.718 184.122L261.46 181.638M254.718 186.902H233.664M254.718 186.902H255.901V202.792M233.664 184.122V181.341M233.664 184.122V186.902M233.664 184.122L226.902 181.492M233.664 186.902H232.066V202.792M226.902 181.492C226.637 182.898 225.948 186.346 225.313 188.889C224.913 190.875 224.757 195.086 225.71 199.217C226.107 202.13 228.016 208.076 232.066 208.751C234.451 209.148 239.884 209.148 240.837 205.97M231.269 203.189C231.666 203.189 232.62 203.03 233.255 202.395C235.639 200.409 236.76 203.428 233.255 205.97H247.953M257.487 203.189C256.958 203.189 255.501 203.03 253.912 202.395C252.521 201.838 251.449 203.11 254.309 205.97H247.953M261.46 181.638C261.725 183.26 262.651 185.711 263.446 190.08C264.313 194.847 263.049 205.573 256.693 208.751C254.309 209.943 247 209.784 247.953 205.97" stroke="#1A255C" stroke-width="1.09499" stroke-linecap="round"/>
<path d="M243.98 205.97V198.025" stroke="#1A255C" stroke-width="1.09499" stroke-linecap="round"/>
<path d="M241.996 186.902V194.847H246.366V186.902" stroke="#1A255C" stroke-width="1.09499" stroke-linecap="round"/>
<path d="M229.688 189.286C230.35 189.815 231.753 191.192 232.071 192.464" stroke="#1A255C" stroke-width="1.09499" stroke-linecap="round"/>
<path d="M258.68 189.286C258.018 189.815 256.614 191.192 256.296 192.464" stroke="#1A255C" stroke-width="1.09499" stroke-linecap="round"/>
<rect x="244.934" y="177.122" width="6.8499" height="2.87746" stroke="#1A255C" stroke-width="1.09499" stroke-linecap="round"/>
<path d="M150.657 126.079L141.828 132.192L144.884 136.266L153.373 130.154L150.657 126.079Z" stroke="#1A255C" stroke-width="0.97107"/>
<path d="M137.754 116.231L133 123.023H154.393L158.808 116.231M137.754 116.231L133 107.402H143.866L148.964 116.231M137.754 116.231H148.964M158.808 116.231H148.964M158.808 116.231L164.241 107.402H174.768L169.334 116.231M158.808 116.231H169.334M158.808 116.231V140.002M169.334 116.231L174.088 123.023H169.334M169.334 116.231V123.023M158.808 140.002H169.334V123.023M158.808 140.002H137.754V122.344" stroke="#1A255C" stroke-width="0.97107"/>
<path d="M136.057 107.403C136.329 104.958 135.039 103.441 134.359 102.988H139.113C139.679 103.441 140.811 104.958 140.811 107.403" stroke="#1A255C" stroke-width="0.97107"/>
<path d="M171.708 107.402C171.437 104.958 172.727 103.441 173.406 102.988H168.652C168.086 103.441 166.954 104.958 166.954 107.402" stroke="#1A255C" stroke-width="0.97107"/>
<path d="M165.262 121.325V128.117" stroke="#1A255C" stroke-width="0.97107"/>
<path d="M158.47 101.29L162.205 106.384M158.47 101.29C158.47 101.018 160.168 97.5549 161.186 95.8571M158.47 101.29L150.32 105.705M161.186 95.8571L153.376 99.5923L150.32 105.705M161.186 95.8571C162.205 97.1021 164.65 100.204 166.28 102.648M150.32 105.705C150.886 107.176 152.901 110.866 156.433 113.854L158.47 112.678" stroke="#1A255C" stroke-width="0.97107"/>
<path d="M142.164 84.651L149.294 90.7632M142.164 84.651H148.615C151.06 86.0093 154.388 89.2918 155.746 90.7632M142.164 84.651C140.534 85.7376 137.862 90.7632 136.73 93.1402C138.36 95.0418 142.164 97.5546 143.861 98.5733M149.294 90.7632H155.746M149.294 90.7632C148.276 92.461 145.763 96.4 143.861 98.5733M155.746 90.7632C154.841 92.461 152.486 96.4679 150.313 98.9128L143.861 98.5733" stroke="#1A255C" stroke-width="0.97107"/>
<path d="M147.493 18.764C146.149 11.4891 159.796 10.8392 159.362 18.7915M147.493 22.5365C145.969 21.8433 145.673 20.3703 145.716 19.7205C148.171 18.0597 154.683 15.7347 161.095 19.7205C161.024 20.4425 160.578 22.0166 159.362 22.5365M147.493 22.5365C152.211 19.7638 157.372 21.3812 159.362 22.5365M147.493 22.5365C147.642 25.0011 148.443 26.7898 149.565 27.9519M159.362 22.5365C159.362 24.9284 158.545 26.7547 157.339 27.9519M149.565 27.9519C151.758 30.2226 155.174 30.1003 157.339 27.9519M149.565 27.9519V29.2516M157.339 27.9519V29.2516M149.565 29.2516V30.5512C152.821 34.0171 156.104 31.9953 157.339 30.5512V29.2516M149.565 29.2516C148.095 29.6848 144.845 30.7679 142.896 32.0676C139.863 31.8509 136.961 34.3204 135.747 42.4651M135.747 42.4651L140.662 43.0445M135.747 42.4651C135.242 44.4868 134.188 49.1802 134.015 51.7795C133.797 53.9457 136.001 55.6353 142.029 53.7291M157.339 29.2516C159.095 29.8292 162.911 31.2011 164.124 32.0676C166.723 32.0676 170.926 33.6272 171.272 42.4651M171.272 42.4651L165.857 43.3315M171.272 42.4651C171.705 43.9814 172.614 47.7938 172.788 50.0466M142.029 53.7291C142.824 54.0179 144.845 54.5522 146.578 54.3789M142.029 53.7291V58.9279M138.779 48.5303H142.029C142.462 48.1693 143.718 47.4906 145.278 47.6639M165.857 38.566V46.1475M165.423 51.9962V58.9279" stroke="#1A255C" stroke-width="0.832758" stroke-linecap="round"/>
<path d="M140.074 48.5304L141.591 34.667L145.273 35.1002M152.205 35.9667L155.887 36.3999L155.454 40.9488" stroke="#1A255C" stroke-width="0.832758" stroke-linecap="round"/>
<rect x="145.601" y="34.685" width="6.53216" height="3.49955" transform="rotate(5.01569 145.601 34.685)" stroke="#1A255C" stroke-width="0.832758" stroke-linecap="round"/>
<path d="M173.001 51.3465C172.828 47.1875 168.597 46.7253 166.503 47.0142C160.783 40.2558 161.376 43.6205 162.387 46.1477C155.282 48.0539 158.056 55.4622 165.203 51.9963C170.402 54.769 172.568 52.7184 173.001 51.3465Z" stroke="#1A255C" stroke-width="0.832758" stroke-linecap="round"/>
<path d="M158.277 40.5156L144.414 43.5482L148.097 59.1445L162.177 56.7618M158.277 40.5156L160.01 47.2307M158.277 40.5156H163.043L163.909 44.1981M162.177 56.7618L161.093 52.8627M162.177 56.7618L165.426 55.4621" stroke="#1A255C" stroke-width="0.832758" stroke-linecap="round"/>
<path d="M148.312 46.3641L151.995 45.4977" stroke="#1A255C" stroke-width="0.832758" stroke-linecap="round"/>
<path d="M55.6328 170.479V175.763H59.698" stroke="#1A255C" stroke-width="0.961581" stroke-linecap="round"/>
<path d="M67.83 174.544H76.3668L78.7689 179.829M82.4645 187.959H73.5212V179.829H78.7689M82.4645 187.959L78.7689 179.829M82.4645 187.959L88.1558 191.211V198.528H84.0906M74.3342 198.528H60.5127M50.7563 198.528H47.0977V187.959" stroke="#1A255C" stroke-width="0.961581" stroke-linecap="round"/>
<path d="M44.6641 185.113H57.2661C68.242 184.707 69.8681 166.414 56.453 166.007C53.6074 165.872 46.2901 167.633 46.2901 174.95V179.016" stroke="#1A255C" stroke-width="0.961581" stroke-linecap="round"/>
<path d="M49.9434 181.861H41" stroke="#1A255C" stroke-width="0.961581" stroke-linecap="round"/>
<path d="M48.2145 169.666L41.8125 169.666" stroke="#1A255C" stroke-width="0.961581" stroke-linecap="round"/>
<path d="M53.1949 166.413L41.8125 166.413" stroke="#1A255C" stroke-width="0.961581" stroke-linecap="round"/>
<circle cx="55.636" cy="198.122" r="4.3974" stroke="#1A255C" stroke-width="0.961581" stroke-linecap="round"/>
<circle cx="79.2141" cy="198.122" r="4.3974" stroke="#1A255C" stroke-width="0.961581" stroke-linecap="round"/>
<path d="M219 120.329L223.224 117.161L233.079 130.536L229.559 133" stroke="#1A255C" stroke-width="1.02121"/>
<path d="M224.625 118.921L232.721 112.937C233.776 112.233 235.184 111.529 238.352 112.233L250.319 116.105C251.221 116.305 251.894 116.848 252.299 117.513M238.352 120.329L249.615 121.385C252.637 121.637 253.317 119.186 252.299 117.513M252.299 117.513L260.879 112.233C264.047 110.121 267.214 112.937 264.751 116.105L251.375 128.776C249.967 129.832 248.912 129.832 246.448 129.128L235.536 126.664C234.48 126.664 232.721 126.664 231.665 128.424" stroke="#1A255C" stroke-width="1.02121"/>
<path d="M233.781 112.233V94.4529C233.781 93.97 234.173 93.5785 234.656 93.5785H242.229M260.18 112.585V94.4529C260.18 93.97 259.788 93.5785 259.305 93.5785H251.732M242.229 93.5785V99.7436C242.229 100.227 242.62 100.618 243.103 100.618H250.858C251.341 100.618 251.732 100.227 251.732 99.7436V93.5785M242.229 93.5785H251.732" stroke="#1A255C" stroke-width="1.02121"/>
<path d="M64.3711 101.089L67.5949 98.067M90.9676 101.089L87.5423 98.067M67.5949 98.067L76.5723 90.1289C77.2962 89.4889 78.388 89.5041 79.0936 90.1642L87.5423 98.067M67.5949 98.067V108.87C67.5949 109.912 68.4441 110.753 69.4854 110.744L74.0425 110.703M87.5423 98.067V108.726C87.5423 109.754 86.7135 110.59 85.6851 110.6L81.2961 110.639M74.0425 110.703V103.769C74.0425 102.734 74.8815 101.895 75.9164 101.895H79.4223C80.4572 101.895 81.2961 102.734 81.2961 103.769V110.639M74.0425 110.703L81.2961 110.639" stroke="#1A255C" stroke-width="1.06184" stroke-linecap="round"/>
<path d="M63.5625 105.925H57.1196C49.8857 105.925 49.8783 115.596 57.1196 115.596H75.6559C83.7218 115.596 83.7218 125.268 75.6559 125.268H67.5901" stroke="#1A255C" stroke-width="1.06184" stroke-dasharray="3.12 3.12"/>
<path d="M64.3727 129.298L68.0098 130.753C68.2469 130.847 68.4024 131.077 68.4024 131.333V135.927C68.4024 136.272 68.1228 136.551 67.7778 136.551H65.9846M64.3727 129.298H56.9377C56.5928 129.298 56.3131 129.018 56.3131 128.673V124.281C56.3131 123.936 56.5928 123.656 56.9377 123.656H62.3211M64.3727 129.298L62.3211 123.656M43.4179 136.551H41.6246C41.2796 136.551 41 136.272 41 135.927V121.057C41 120.712 41.2796 120.432 41.6246 120.432H60.7113C60.974 120.432 61.2086 120.597 61.2983 120.843L62.3211 123.656M51.4774 136.551H57.925" stroke="#1A255C" stroke-width="1.06184"/>
<circle cx="47.4438" cy="136.551" r="3.49885" stroke="#1A255C" stroke-width="1.06184"/>
<circle cx="61.9516" cy="136.551" r="3.49885" stroke="#1A255C" stroke-width="1.06184"/>
</svg>
