<svg width="296" height="220" viewBox="0 0 296 220" fill="none" xmlns="http://www.w3.org/2000/svg">
<rect x="47.0786" y="24.2031" width="13.3929" height="3.94707" stroke="#03045E" stroke-width="1.0244"/>
<rect x="47.0786" y="32.158" width="13.3929" height="3.94707" stroke="#03045E" stroke-width="1.0244"/>
<path d="M69.9312 33.883H67.4453C67.9425 22.6966 83.1062 22.1995 83.6034 33.883H81.1175" stroke="#03045E" stroke-width="1.0244" stroke-linecap="round"/>
<circle cx="75.4026" cy="33.137" r="1.47639" stroke="#03045E" stroke-width="1.0244"/>
<path d="M76.6445 31.8942L78.136 30.4027" stroke="#03045E" stroke-width="1.0244" stroke-linecap="round"/>
<path d="M69.9336 27.6683L71.6736 29.4083" stroke="#03045E" stroke-width="1.0244" stroke-linecap="round"/>
<path d="M81.1211 27.6683L79.3811 29.4083" stroke="#03045E" stroke-width="1.0244" stroke-linecap="round"/>
<path d="M75.6406 25.3259V27.6431" stroke="#03045E" stroke-width="1.0244" stroke-linecap="round"/>
<circle cx="81.62" cy="40.8432" r="1.72496" stroke="#03045E" stroke-width="1.0244"/>
<circle cx="81.62" cy="46.8093" r="1.72496" stroke="#03045E" stroke-width="1.0244"/>
<path d="M77.6333 41.0919H68.1875" stroke="#03045E" stroke-width="1.0244" stroke-linecap="round"/>
<path d="M77.6333 47.058H68.1875" stroke="#03045E" stroke-width="1.0244" stroke-linecap="round"/>
<path d="M57.5039 39.1033V48.7976" stroke="#03045E" stroke-width="1.0244" stroke-linecap="round"/>
<path d="M60.9883 42.832L60.9883 48.7978" stroke="#03045E" stroke-width="1.0244" stroke-linecap="round"/>
<path d="M54.0234 44.3236L54.0234 48.7979" stroke="#03045E" stroke-width="1.0244" stroke-linecap="round"/>
<path d="M50.543 42.3348L50.543 48.7977" stroke="#03045E" stroke-width="1.0244" stroke-linecap="round"/>
<path d="M47.0625 45.0695L47.0625 49.0466" stroke="#03045E" stroke-width="1.0244" stroke-linecap="round"/>
<path d="M83.607 60.1701V57.4357H77.641M46.8164 60.1701V57.4357H53.031M53.031 57.4357L53.0215 55.2262M53.031 57.4357H77.641M77.641 57.4357V55.2262" stroke="#03045E" stroke-width="1.0244" stroke-linecap="round"/>
<path d="M88.3311 53.5212H73.5088V52.4968H87.3066V20.738H43.1182V52.4968H68.0459V53.5212H42.0938V19.7136H88.3311V53.5212Z" fill="#03045E"/>
<path d="M41.0713 12.2014V14.2502M40.0469 13.2258H42.0957" stroke="#03045E" stroke-width="0.512202" stroke-linecap="round"/>
<path d="M85.7995 14.9331V17.6648M84.4336 16.299H87.1653" stroke="#03045E" stroke-width="0.512202" stroke-linecap="round"/>
<circle cx="37.3144" cy="21.7624" r="1.70734" stroke="#03045E" stroke-width="0.682936"/>
<circle cx="80.3379" cy="13.5672" r="1.70734" stroke="#03045E" stroke-width="0.682936"/>
<circle cx="38.333" cy="28.9333" r="1.0244" fill="#03045E"/>
<circle cx="92.9775" cy="22.1039" r="1.0244" fill="#03045E"/>
<circle cx="40.7298" cy="17.6649" r="0.682936" fill="#03045E"/>
<circle cx="91.9447" cy="15.616" r="0.682936" fill="#03045E"/>
<rect x="221.005" y="98.2664" width="44.4745" height="37.5493" rx="2.45082" stroke="#1A255C" stroke-width="1.03429"/>
<path d="M220.984 104.674H265.504" stroke="#1A255C" stroke-width="1.03429" stroke-linecap="round"/>
<circle cx="243.242" cy="90.824" r="3.44014" stroke="#1A255C" stroke-width="1.03429"/>
<path d="M243.242 94.2866V98.2435" stroke="#1A255C" stroke-width="1.03429" stroke-linecap="round"/>
<path d="M230.378 108.137V130.892H259.068M230.378 108.137L227.41 114.073M230.378 108.137L233.346 114.073M259.068 130.892L253.133 128.418M259.068 130.892L253.133 133.859" stroke="#1A255C" stroke-width="1.03429" stroke-linecap="round"/>
<rect x="233.873" y="122.01" width="3.91232" height="5.89097" rx="0.966838" stroke="#1A255C" stroke-width="1.03429"/>
<rect x="240.794" y="119.042" width="3.91232" height="8.85893" rx="0.966838" stroke="#1A255C" stroke-width="1.03429"/>
<rect x="247.72" y="116.074" width="3.91232" height="11.8269" rx="0.966838" stroke="#1A255C" stroke-width="1.03429"/>
<path d="M235.828 120.504V116.441C235.828 115.68 236.446 115.062 237.207 115.062H240.385C241.147 115.062 241.764 114.445 241.764 113.683V111C241.764 110.239 242.381 109.621 243.143 109.621H249.184M249.184 109.621L246.349 107.388M249.184 109.621L246.349 112.214" stroke="#1A255C" stroke-width="1.03429" stroke-linecap="round"/>
<path d="M224.146 88.6096L223.337 91.6287M222.232 89.7145L225.251 90.5238" stroke="#03045E" stroke-width="0.501878" stroke-linecap="round"/>
<circle cx="215.766" cy="96.8714" r="1.88407" transform="rotate(15.0039 215.766 96.8714)" stroke="#03045E" stroke-width="0.753629"/>
<circle cx="216.077" cy="103.608" r="1.00376" transform="rotate(15.0039 216.077 103.608)" fill="#03045E"/>
<circle cx="220.528" cy="93.5491" r="0.669171" transform="rotate(15.0039 220.528 93.5491)" fill="#03045E"/>
<rect x="222.314" y="165.177" width="37.5635" height="38.3652" rx="3.55021" stroke="#03045E" stroke-width="0.916183"/>
<path d="M229.066 199.19H253.116" stroke="#03045E" stroke-width="0.916183" stroke-linecap="round"/>
<path d="M229.27 187.366V196.785" stroke="#03045E" stroke-width="0.916183" stroke-linecap="round"/>
<path d="M245.508 185.562L245.508 196.785" stroke="#03045E" stroke-width="0.916183" stroke-linecap="round"/>
<path d="M237.488 179.549L237.488 196.785" stroke="#03045E" stroke-width="0.916183" stroke-linecap="round"/>
<path d="M253.125 177.145L253.125 196.785" stroke="#03045E" stroke-width="0.916183" stroke-linecap="round"/>
<circle cx="229.073" cy="183.558" r="1.94689" stroke="#03045E" stroke-width="0.916183"/>
<circle cx="237.483" cy="175.541" r="1.94689" stroke="#03045E" stroke-width="0.916183"/>
<circle cx="245.503" cy="181.554" r="1.94689" stroke="#03045E" stroke-width="0.916183"/>
<circle cx="253.116" cy="172.735" r="1.94689" stroke="#03045E" stroke-width="0.916183"/>
<path d="M230.668 181.954L235.678 176.944M239.286 176.944L243.695 180.351M247.302 180.351L252.112 174.739" stroke="#03045E" stroke-width="0.916183" stroke-linecap="round"/>
<path d="M221.85 158V160.443M220.629 159.221H223.072" stroke="#03045E" stroke-width="0.610789" stroke-linecap="round"/>
<path d="M259.724 158V160.443M260.945 159.222H258.502" stroke="#03045E" stroke-width="0.610789" stroke-linecap="round"/>
<circle cx="216.052" cy="166.856" r="1.78147" stroke="#03045E" stroke-width="0.712587"/>
<circle cx="2.13776" cy="2.13776" r="1.78147" transform="matrix(-1 0 0 1 267.664 164.719)" stroke="#03045E" stroke-width="0.712587"/>
<circle cx="217.577" cy="173.881" r="1.22158" fill="#03045E"/>
<circle cx="1.22158" cy="1.22158" r="1.22158" transform="matrix(-1 0 0 1 265.223 172.659)" fill="#03045E"/>
<circle cx="219.412" cy="163.497" r="0.610789" fill="#03045E"/>
<circle cx="0.610789" cy="0.610789" r="0.610789" transform="matrix(-1 0 0 1 262.781 162.886)" fill="#03045E"/>
<rect x="217.238" y="17.2348" width="44.3545" height="39.8222" rx="0.751687" stroke="#03045E" stroke-width="0.968805"/>
<path d="M217.395 25.4032H261.463" stroke="#03045E" stroke-width="0.968805" stroke-linecap="round"/>
<path d="M232.414 21.2828H257.136" stroke="#03045E" stroke-width="0.968805" stroke-linecap="round"/>
<circle cx="221.903" cy="21.0768" r="0.618045" fill="#03045E"/>
<circle cx="225.196" cy="21.0768" r="0.618045" fill="#03045E"/>
<circle cx="228.493" cy="21.0768" r="0.618045" fill="#03045E"/>
<path d="M220.664 51.361H242.09" stroke="#03045E" stroke-width="0.968805" stroke-linecap="round"/>
<path d="M222.926 51.361V44.3977C222.926 44.0336 223.221 43.7384 223.585 43.7384H226.593C226.957 43.7384 227.252 44.0336 227.252 44.3977V51.361" stroke="#03045E" stroke-width="0.968805" stroke-linecap="round"/>
<path d="M229.422 51.3609V40.4833C229.422 40.1193 229.717 39.8241 230.081 39.8241H233.295C233.659 39.8241 233.954 40.1193 233.954 40.4833V51.3609" stroke="#03045E" stroke-width="0.968805" stroke-linecap="round"/>
<path d="M235.703 51.361V42.5435C235.703 42.1794 235.998 41.8843 236.362 41.8843H239.576C239.94 41.8843 240.235 42.1794 240.235 42.5435V51.361" stroke="#03045E" stroke-width="0.968805" stroke-linecap="round"/>
<circle cx="225.194" cy="39.6182" r="1.36973" stroke="#03045E" stroke-width="0.968805"/>
<circle cx="231.381" cy="34.2617" r="1.36973" stroke="#03045E" stroke-width="0.968805"/>
<circle cx="237.971" cy="38.3821" r="1.36973" stroke="#03045E" stroke-width="0.968805"/>
<path d="M220.664 37.558L223.548 39.0001M226.638 38.5881L230.347 35.4979M232.613 35.2919L236.321 37.558M239.411 37.352L241.06 35.7039" stroke="#03045E" stroke-width="0.968805" stroke-linecap="round"/>
<circle cx="254.862" cy="51.567" r="9.1983" fill="white" stroke="#1A255C" stroke-width="0.968805"/>
<path d="M254.453 47.2407V51.9379C254.453 52.302 254.748 52.5971 255.112 52.5971H259.191" stroke="#03045E" stroke-width="0.968805" stroke-linecap="round"/>
<path d="M217.088 9V11.4888M215.844 10.2444H218.333" stroke="#03045E" stroke-width="0.622203" stroke-linecap="round"/>
<path d="M261.912 9V11.4888M263.156 10.2444H260.667" stroke="#03045E" stroke-width="0.622203" stroke-linecap="round"/>
<circle cx="211.178" cy="18.0221" r="1.81476" stroke="#03045E" stroke-width="0.725903"/>
<circle cx="2.17771" cy="2.17771" r="1.81476" transform="matrix(-1 0 0 1 270 15.8444)" stroke="#03045E" stroke-width="0.725903"/>
<circle cx="212.729" cy="25.1774" r="1.24441" fill="#03045E"/>
<circle cx="1.24441" cy="1.24441" r="1.24441" transform="matrix(-1 0 0 1 267.512 23.933)" fill="#03045E"/>
<circle cx="214.599" cy="14.5999" r="0.622203" fill="#03045E"/>
<circle cx="0.622203" cy="0.622203" r="0.622203" transform="matrix(-1 0 0 1 265.023 13.9777)" fill="#03045E"/>
<rect x="45.0655" y="166.452" width="37.0853" height="36.1098" rx="1.47142" stroke="#1A255C" stroke-width="0.959102"/>
<rect x="50.9171" y="188.888" width="25.3793" height="9.77137" rx="0.747003" stroke="#1A255C" stroke-width="0.959102"/>
<path d="M76.7754 176.703C68.4837 166.948 55.3145 170.362 49.9492 176.703L57.2654 184.019C63.1184 178.166 68.1585 181.581 69.9469 184.019L76.7754 176.703Z" stroke="#1A255C" stroke-width="0.959102"/>
<path d="M63.6094 175.728V180.605" stroke="#1A255C" stroke-width="0.959102" stroke-linecap="round"/>
<path d="M43.2716 158V160.239M42.1523 159.119H44.3909" stroke="#03045E" stroke-width="0.559646" stroke-linecap="round"/>
<path d="M83.7284 158V160.239M84.8477 159.119H82.6091" stroke="#03045E" stroke-width="0.559646" stroke-linecap="round"/>
<circle cx="37.9588" cy="166.115" r="1.63232" stroke="#03045E" stroke-width="0.65292"/>
<circle cx="1.95878" cy="1.95878" r="1.63232" transform="matrix(-1 0 0 1 91 164.156)" stroke="#03045E" stroke-width="0.65292"/>
<circle cx="39.3537" cy="172.551" r="1.1193" fill="#03045E"/>
<circle cx="1.1193" cy="1.1193" r="1.1193" transform="matrix(-1 0 0 1 88.7617 171.432)" fill="#03045E"/>
<circle cx="41.0362" cy="163.037" r="0.559651" fill="#03045E"/>
<circle cx="0.559651" cy="0.559651" r="0.559651" transform="matrix(-1 0 0 1 86.5234 162.477)" fill="#03045E"/>
<rect x="129.988" y="22.4444" width="47.0438" height="34.1302" rx="1.3818" stroke="#1A255C" stroke-width="0.9212"/>
<path d="M132.297 53.576H154.204" stroke="#1A255C" stroke-width="0.9212" stroke-linecap="round"/>
<path d="M133.215 51.8089V48.3499L136.98 48.3914V51.8504" stroke="#1A255C" stroke-width="0.9212" stroke-linecap="round"/>
<path d="M138.633 51.8089V44.4297H142.116V51.8089" stroke="#1A255C" stroke-width="0.9212" stroke-linecap="round"/>
<path d="M143.961 51.809V45.8134H147.516V51.809" stroke="#1A255C" stroke-width="0.9212" stroke-linecap="round"/>
<path d="M149.355 51.8089V41.6625H153.045V51.8089" stroke="#1A255C" stroke-width="0.9212" stroke-linecap="round"/>
<path d="M159.273 49.8864C160.657 46.0431 163.052 40.5399 165.961 47.811C167.344 51.27 170.342 54.9596 172.187 46.1968" stroke="#1A255C" stroke-width="0.9212" stroke-linecap="round"/>
<path d="M157.203 47.811H174.268" stroke="#1A255C" stroke-width="0.9212" stroke-linecap="round"/>
<path d="M166.65 29.1323C163.195 27.7486 156.735 29.1323 156.734 35.8197" stroke="#1A255C" stroke-width="0.9212" stroke-linecap="round"/>
<path d="M169.422 31.4384C170.037 31.9764 171.221 33.606 171.036 35.8198" stroke="#1A255C" stroke-width="0.9212" stroke-linecap="round"/>
<circle cx="163.657" cy="35.8196" r="0.923007" stroke="#1A255C" stroke-width="0.9212"/>
<path d="M164.344 34.8973L168.495 30.0547" stroke="#1A255C" stroke-width="0.9212" stroke-linecap="round"/>
<path d="M135.297 28.21H141.754" stroke="#1A255C" stroke-width="0.9212" stroke-linecap="round"/>
<path d="M135.297 32.5913H140.139" stroke="#1A255C" stroke-width="0.9212" stroke-linecap="round"/>
<path d="M135.297 37.2034H137.142" stroke="#1A255C" stroke-width="0.9212" stroke-linecap="round"/>
<path d="M138.754 37.2034H141.521" stroke="#1A255C" stroke-width="0.9212" stroke-linecap="round"/>
<path d="M142.902 37.2034H147.976" stroke="#1A255C" stroke-width="0.9212" stroke-linecap="round"/>
<path d="M145.898 28.21H147.743" stroke="#1A255C" stroke-width="0.9212" stroke-linecap="round"/>
<path d="M142.672 32.5913H147.745" stroke="#1A255C" stroke-width="0.9212" stroke-linecap="round"/>
<path d="M131.489 14V16.3052M130.336 15.1526H132.641" stroke="#03045E" stroke-width="0.576302" stroke-linecap="round"/>
<path d="M175.511 14V16.3052M176.664 15.1526H174.359" stroke="#03045E" stroke-width="0.576302" stroke-linecap="round"/>
<circle cx="126.017" cy="22.3564" r="1.68088" stroke="#03045E" stroke-width="0.672353"/>
<circle cx="2.01706" cy="2.01706" r="1.68088" transform="matrix(-1 0 0 1 183 20.3394)" stroke="#03045E" stroke-width="0.672353"/>
<circle cx="126.844" cy="28.9838" r="1.1526" fill="#03045E"/>
<circle cx="1.1526" cy="1.1526" r="1.1526" transform="matrix(-1 0 0 1 181.309 27.8312)" fill="#03045E"/>
<circle cx="129.181" cy="19.1862" r="0.575832" fill="#03045E"/>
<circle cx="0.575832" cy="0.575832" r="0.575832" transform="matrix(-1 0 0 1 178.395 18.6104)" fill="#03045E"/>
<path d="M155.168 177.605C151.493 176.937 149.822 179.61 149.488 180.946C148.82 182.951 147.817 182.616 146.815 182.616H133.117C133.117 156.891 172.875 153.55 175.213 182.616H160.847C159.845 182.616 158.938 182.55 158.509 180.946C158.399 180.536 158.174 179.944 157.84 179.61" stroke="#1A255C" stroke-width="0.915136" stroke-linecap="round"/>
<path d="M133.117 185.957C137.795 208.676 168.866 209.678 174.879 185.957" stroke="#1A255C" stroke-width="0.915136" stroke-linecap="round"/>
<circle cx="153.831" cy="182.617" r="2.54931" stroke="#1A255C" stroke-width="0.915136"/>
<path d="M155.832 180.612L163.516 172.928" stroke="#1A255C" stroke-width="0.915136" stroke-linecap="round"/>
<path d="M134.789 174.598L136.794 175.6" stroke="#1A255C" stroke-width="0.915136" stroke-linecap="round"/>
<path d="M139.086 168.25L140.714 169.791" stroke="#1A255C" stroke-width="0.915136" stroke-linecap="round"/>
<path d="M145.934 164.098L147.231 165.925" stroke="#1A255C" stroke-width="0.915136" stroke-linecap="round"/>
<path d="M153.695 162.237L153.83 164.474" stroke="#1A255C" stroke-width="0.915136" stroke-linecap="round"/>
<path d="M161.844 163.573L160.841 165.577" stroke="#1A255C" stroke-width="0.915136" stroke-linecap="round"/>
<path d="M168.348 167.841L166.861 169.518" stroke="#1A255C" stroke-width="0.915136" stroke-linecap="round"/>
<path d="M172.926 174.91L170.868 175.797" stroke="#1A255C" stroke-width="0.915136" stroke-linecap="round"/>
<path d="M141.469 192.305C146.146 198.319 158.842 200.992 165.858 192.305" stroke="#1A255C" stroke-width="0.915136" stroke-linecap="round"/>
<path d="M133.373 159V161.145M132.301 160.073H134.446" stroke="#03045E" stroke-width="0.536334" stroke-linecap="round"/>
<path d="M172.627 159V161.145M173.699 160.073H171.554" stroke="#03045E" stroke-width="0.536334" stroke-linecap="round"/>
<circle cx="128.28" cy="166.777" r="1.56431" stroke="#03045E" stroke-width="0.625723"/>
<circle cx="1.87717" cy="1.87717" r="1.56431" transform="matrix(-1 0 0 1 179.598 164.9)" stroke="#03045E" stroke-width="0.625723"/>
<circle cx="129.049" cy="172.945" r="1.07267" fill="#03045E"/>
<circle cx="1.07267" cy="1.07267" r="1.07267" transform="matrix(-1 0 0 1 178.023 171.872)" fill="#03045E"/>
<circle cx="131.228" cy="163.827" r="0.536334" fill="#03045E"/>
<circle cx="0.536334" cy="0.536334" r="0.536334" transform="matrix(-1 0 0 1 175.309 163.291)" fill="#03045E"/>
<path d="M174.365 113.411H133.727" stroke="#1A255C" stroke-width="0.948877" stroke-linecap="round"/>
<rect x="133.646" y="93.2958" width="40.8017" height="40.2298" rx="2.68848" stroke="#1A255C" stroke-width="0.948877"/>
<rect x="139.361" y="97.2993" width="3.62653" height="12.7773" rx="0.474438" stroke="#1A255C" stroke-width="0.948877"/>
<rect x="168.151" y="129.522" width="3.62653" height="12.7773" rx="0.474438" transform="rotate(180 168.151 129.522)" stroke="#1A255C" stroke-width="0.948877"/>
<rect x="145.092" y="99.5871" width="3.62653" height="10.4896" rx="0.474438" stroke="#1A255C" stroke-width="0.948877"/>
<rect x="162.44" y="127.234" width="3.62653" height="10.4896" rx="0.474438" transform="rotate(180 162.44 127.234)" stroke="#1A255C" stroke-width="0.948877"/>
<rect x="150.803" y="103.018" width="3.62653" height="7.05808" rx="0.474438" stroke="#1A255C" stroke-width="0.948877"/>
<rect x="156.717" y="123.803" width="3.62653" height="7.05808" rx="0.474438" transform="rotate(180 156.717 123.803)" stroke="#1A255C" stroke-width="0.948877"/>
<path d="M157.48 110.161H169.777" stroke="#1A255C" stroke-width="0.948877" stroke-linecap="round"/>
<path d="M157.48 106.729H169.777" stroke="#1A255C" stroke-width="0.948877" stroke-linecap="round"/>
<path d="M157.48 103.298H169.777" stroke="#1A255C" stroke-width="0.948877" stroke-linecap="round"/>
<path d="M157.48 99.8665H169.777" stroke="#1A255C" stroke-width="0.948877" stroke-linecap="round"/>
<path d="M150.612 116.842H142.891" stroke="#1A255C" stroke-width="0.948877" stroke-linecap="round"/>
<path d="M150.612 119.702H142.891" stroke="#1A255C" stroke-width="0.948877" stroke-linecap="round"/>
<path d="M150.612 122.562H142.891" stroke="#1A255C" stroke-width="0.948877" stroke-linecap="round"/>
<path d="M141.174 122.562H138.887" stroke="#1A255C" stroke-width="0.948877" stroke-linecap="round"/>
<path d="M141.174 119.702H138.887" stroke="#1A255C" stroke-width="0.948877" stroke-linecap="round"/>
<path d="M141.174 116.842H138.887" stroke="#1A255C" stroke-width="0.948877" stroke-linecap="round"/>
<path d="M133.444 85.8629V88.0873M132.332 86.9751H134.556" stroke="#03045E" stroke-width="0.556108" stroke-linecap="round"/>
<path d="M174.771 85.8629V88.0873M175.883 86.9751H173.658" stroke="#03045E" stroke-width="0.556108" stroke-linecap="round"/>
<circle cx="128.161" cy="93.9265" r="1.62198" stroke="#03045E" stroke-width="0.648793"/>
<circle cx="1.94638" cy="1.94638" r="1.62198" transform="matrix(-1 0 0 1 182 91.9801)" stroke="#03045E" stroke-width="0.648793"/>
<circle cx="128.96" cy="100.322" r="1.11222" fill="#03045E"/>
<circle cx="1.11222" cy="1.11222" r="1.11222" transform="matrix(-1 0 0 1 180.367 99.2096)" fill="#03045E"/>
<circle cx="131.216" cy="90.8679" r="0.556108" fill="#03045E"/>
<circle cx="0.556108" cy="0.556108" r="0.556108" transform="matrix(-1 0 0 1 177.555 90.3118)" fill="#03045E"/>
<rect x="42.5882" y="94.5898" width="40.9743" height="40.9743" rx="3.05128" stroke="#1A255C" stroke-width="0.871794"/>
<circle cx="56.3927" cy="108.393" r="10.3162" stroke="#1A255C" stroke-width="0.871794"/>
<circle cx="56.393" cy="108.393" r="7.41025" stroke="#1A255C" stroke-width="0.871794"/>
<circle cx="56.3936" cy="108.393" r="1.59829" stroke="#1A255C" stroke-width="0.871794"/>
<path d="M57.8438 109.846L58.7155 110.718" stroke="#1A255C" stroke-width="0.871794" stroke-linecap="round"/>
<path d="M52.6133 104.615L54.9381 106.94" stroke="#1A255C" stroke-width="0.871794" stroke-linecap="round"/>
<rect x="69.9046" y="98.077" width="10.7521" height="20.6325" rx="1.30769" stroke="#1A255C" stroke-width="0.871794"/>
<path d="M72.668 101.419V115.949" stroke="#1A255C" stroke-width="0.871794" stroke-linecap="round"/>
<path d="M77.6055 104.906L77.6055 115.949" stroke="#1A255C" stroke-width="0.871794" stroke-linecap="round"/>
<path d="M75.2812 109.556L75.2813 115.949" stroke="#1A255C" stroke-width="0.871794" stroke-linecap="round"/>
<path d="M45.9336 121.761H80.5148" stroke="#1A255C" stroke-width="0.871794" stroke-linecap="round"/>
<path d="M45.9336 124.957H80.5148" stroke="#1A255C" stroke-width="0.871794" stroke-linecap="round"/>
<path d="M45.9336 128.444H80.5148" stroke="#1A255C" stroke-width="0.871794" stroke-linecap="round"/>
<path d="M45.9336 131.932H80.5148" stroke="#1A255C" stroke-width="0.871794" stroke-linecap="round"/>
<path d="M50.8711 113.333L52.3241 112.171" stroke="#1A255C" stroke-width="0.871794" stroke-linecap="round"/>
<path d="M61.9141 113.333L60.4611 112.171" stroke="#1A255C" stroke-width="0.871794" stroke-linecap="round"/>
<path d="M63.5887 108.008L61.6259 108.008" stroke="#1A255C" stroke-width="0.871794" stroke-linecap="round"/>
<path d="M50.9641 108.002L49.1251 108.002" stroke="#1A255C" stroke-width="0.871794" stroke-linecap="round"/>
<path d="M61.5564 103.218L60.1709 104.615" stroke="#1A255C" stroke-width="0.871794" stroke-linecap="round"/>
<path d="M56.3735 115.603L56.394 113.624" stroke="#1A255C" stroke-width="0.871794" stroke-linecap="round"/>
<path d="M56.4184 103.162L56.4168 101.128" stroke="#1A255C" stroke-width="0.871794" stroke-linecap="round"/>
<path d="M42.6885 88V90.0566M41.6602 89.0283H43.7168" stroke="#03045E" stroke-width="0.514149" stroke-linecap="round"/>
<path d="M83.7998 88V90.0566M84.8281 89.0283H82.7715" stroke="#03045E" stroke-width="0.514149" stroke-linecap="round"/>
<circle cx="37.7995" cy="95.4552" r="1.4996" stroke="#03045E" stroke-width="0.59984"/>
<circle cx="1.79952" cy="1.79952" r="1.4996" transform="matrix(-1 0 0 1 90.4844 93.6556)" stroke="#03045E" stroke-width="0.59984"/>
<circle cx="38.54" cy="101.368" r="1.0283" fill="#03045E"/>
<circle cx="1.0283" cy="1.0283" r="1.0283" transform="matrix(-1 0 0 1 88.9727 100.34)" fill="#03045E"/>
<circle cx="40.6196" cy="92.6273" r="0.514149" fill="#03045E"/>
<circle cx="0.514149" cy="0.514149" r="0.514149" transform="matrix(-1 0 0 1 86.3789 92.1132)" fill="#03045E"/>
</svg>
