<svg width="58" height="43" viewBox="0 0 58 43" fill="none" xmlns="http://www.w3.org/2000/svg">
<g filter="url(#filter0_i_576_410)">
<path d="M14.3555 4.34501C14.3555 2.19332 16.092 0.444961 18.2437 0.430391L39.2996 0.2878C41.479 0.273041 43.2508 2.04104 43.2407 4.22048L43.0813 38.7736C43.0713 40.9286 41.3216 42.6703 39.1666 42.6703H18.2702C16.1081 42.6703 14.3555 40.9176 14.3555 38.7556V4.34501Z" fill="#DD98EA"/>
</g>
<path d="M14.4844 17.2899V39.2123C14.4844 41.3001 15.9198 42.4745 17.6161 42.4745H40.1257C42.4745 42.4745 43.0617 40.6477 43.0617 39.2123V3.52324C43.0617 1.27881 41.4306 0.521973 40.1909 0.521973H17.6161C15.985 0.521973 14.4844 1.27881 14.4844 3.52324V14.0929" stroke="black" stroke-width="1.04392" stroke-linecap="round"/>
<g filter="url(#filter1_i_576_410)">
<circle cx="28.8354" cy="28.2511" r="11.2221" fill="#084063"/>
</g>
<g filter="url(#filter2_i_576_410)">
<circle cx="28.8357" cy="8.8737" r="6.39433" fill="#084063"/>
</g>
<path d="M34.9166 19.3902C35.0651 19.1738 35.0106 18.877 34.7881 18.7378C32.532 17.326 29.8421 16.7593 27.1989 17.1489C24.3988 17.5616 21.858 19.0173 20.0857 21.2241C18.3133 23.431 17.4404 26.226 17.6417 29.0493C17.843 31.8725 19.1037 34.5154 21.1713 36.4485C23.2388 38.3815 25.9604 39.4619 28.7908 39.4731C31.6212 39.4844 34.3513 38.4257 36.4342 36.5091C38.517 34.5926 39.7987 31.9598 40.0224 29.1382C40.2337 26.4749 39.4875 23.8291 37.9274 21.6729C37.7736 21.4603 37.4738 21.4258 37.2679 21.5885V21.5885C37.062 21.7512 37.0279 22.0495 37.1809 22.2627C38.5929 24.2303 39.2672 26.6388 39.075 29.0631C38.8702 31.6457 37.697 34.0555 35.7906 35.8097C33.8842 37.564 31.3853 38.533 28.7946 38.5227C26.2039 38.5124 23.7128 37.5235 21.8204 35.7542C19.928 33.9849 18.774 31.5658 18.5897 28.9817C18.4055 26.3975 19.2045 23.8392 20.8267 21.8193C22.4489 19.7993 24.7745 18.467 27.3375 18.0892C29.7435 17.7345 32.1918 18.2456 34.2498 19.5222C34.4728 19.6606 34.7681 19.6066 34.9166 19.3902V19.3902Z" fill="black"/>
<path d="M25.4282 3.90804C25.3121 3.73877 25.3546 3.50633 25.5304 3.40018C26.7979 2.63458 28.296 2.33066 29.7686 2.54773C31.3641 2.78291 32.8119 3.61232 33.8217 4.86977C34.8316 6.12722 35.329 7.71983 35.2143 9.32851C35.0996 10.9372 34.3812 12.4431 33.2031 13.5445C32.0251 14.646 30.4743 15.2616 28.8616 15.268C27.2488 15.2744 25.6932 14.6712 24.5064 13.5791C23.3196 12.4871 22.5893 10.9869 22.4618 9.3792C22.3441 7.89536 22.748 6.42106 23.597 5.20778C23.7147 5.03957 23.9495 5.01271 24.1106 5.13999L24.1718 5.18839C24.3329 5.31567 24.3592 5.54881 24.2429 5.71803C23.5216 6.76788 23.1795 8.03701 23.2808 9.31426C23.3919 10.7154 24.0284 12.0228 25.0627 12.9746C26.097 13.9263 27.4527 14.452 28.8583 14.4464C30.2638 14.4408 31.6153 13.9043 32.6421 12.9444C33.6688 11.9845 34.2948 10.6721 34.3948 9.27008C34.4948 7.86808 34.0613 6.48009 33.1812 5.3842C32.301 4.28831 31.0393 3.56547 29.6488 3.3605C28.3812 3.17366 27.092 3.42973 25.9961 4.07892C25.8194 4.18356 25.5886 4.14169 25.4724 3.97241L25.4282 3.90804Z" fill="black"/>
<circle cx="28.8387" cy="28.251" r="7.30744" fill="#FFC857"/>
<circle cx="28.8395" cy="8.87347" r="4.16375" fill="#FFC857"/>
<circle cx="28.8377" cy="28.2512" r="1.89223" stroke="black" stroke-width="1.3049"/>
<circle cx="28.8366" cy="8.87334" r="0.993163" stroke="black" stroke-width="0.91343"/>
<path d="M22.2338 29.8764C21.9627 29.9431 21.7953 30.2176 21.8806 30.4835C22.377 32.0307 23.377 33.3736 24.7285 34.293C26.2197 35.3074 28.0334 35.7346 29.8206 35.4922C31.6078 35.2499 33.2422 34.3552 34.4094 32.9803C35.5766 31.6054 36.1942 29.8474 36.1432 28.0445C36.0923 26.2417 35.3764 24.5214 34.1334 23.2146C32.8903 21.9079 31.2079 21.1069 29.4099 20.966C27.6119 20.825 25.8252 21.3539 24.3937 22.451C23.0964 23.4452 22.1738 24.8424 21.7656 26.4153C21.6955 26.6855 21.8781 26.9502 22.1526 27.0015V27.0015C22.427 27.0528 22.6891 26.8711 22.7622 26.6016C23.1225 25.274 23.9095 24.0959 25.0087 23.2535C26.2422 22.3082 27.7816 21.8525 29.3309 21.9739C30.8801 22.0954 32.3297 22.7855 33.4008 23.9115C34.4718 25.0375 35.0886 26.5197 35.1325 28.0731C35.1765 29.6265 34.6444 31.1413 33.6386 32.3259C32.6329 33.5106 31.2246 34.2815 29.6847 34.4903C28.1448 34.6991 26.5821 34.3311 25.2972 33.457C24.1521 32.678 23.2998 31.5462 22.8651 30.2411C22.7769 29.9762 22.5049 29.8096 22.2338 29.8764V29.8764Z" fill="black"/>
<path d="M32.5184 9.77957C32.7178 9.82863 32.8412 10.0308 32.7746 10.225C32.4836 11.0731 31.9251 11.8081 31.1782 12.3161C30.3285 12.8942 29.2951 13.1375 28.2768 12.9995C27.2584 12.8614 26.3271 12.3516 25.6621 11.5682C24.997 10.7847 24.6451 9.78305 24.6742 8.75581C24.7032 7.72856 25.1111 6.74834 25.8194 6.00375C26.5276 5.25915 27.4863 4.80279 28.5108 4.72246C29.5353 4.64213 30.5533 4.94351 31.369 5.56861C32.0859 6.11804 32.602 6.88345 32.8446 7.74664C32.9002 7.94429 32.7655 8.13912 32.5637 8.17684L32.4586 8.19648C32.2568 8.2342 32.0646 8.10026 32.0046 7.90393C31.8035 7.24687 31.4019 6.6653 30.8517 6.24361C30.2026 5.74618 29.3925 5.50635 28.5772 5.57027C27.762 5.6342 26.9992 5.99735 26.4355 6.58987C25.8719 7.18239 25.5473 7.9624 25.5242 8.77984C25.5011 9.59728 25.7811 10.3944 26.3104 11.0178C26.8396 11.6412 27.5807 12.0469 28.391 12.1568C29.2014 12.2666 30.0238 12.073 30.6999 11.613C31.2731 11.2231 31.7069 10.6651 31.9447 10.0204C32.0158 9.82783 32.2152 9.70496 32.4146 9.75402L32.5184 9.77957Z" fill="black"/>
<path d="M54.6094 18.921C56.1162 21.0307 58.2258 26.8161 54.6094 33.0799" stroke="black" stroke-width="1.3049" stroke-linecap="round"/>
<path d="M2.64844 18.921C1.14159 21.0307 -0.96799 26.8161 2.64844 33.0799" stroke="black" stroke-width="1.3049" stroke-linecap="round"/>
<path d="M50.7578 20.6827C51.7121 22.5532 53.0482 27.2859 50.7578 31.253" stroke="black" stroke-width="1.3049" stroke-linecap="round"/>
<path d="M6.5 20.6827C5.54566 22.5532 4.2096 27.2859 6.5 31.253" stroke="black" stroke-width="1.3049" stroke-linecap="round"/>
<path d="M46.8477 22.5748C47.4784 23.8363 48.3614 26.9595 46.8477 29.3607" stroke="black" stroke-width="1.3049" stroke-linecap="round"/>
<path d="M10.4141 22.5748C9.78333 23.8363 8.9003 26.9595 10.4141 29.3607" stroke="black" stroke-width="1.3049" stroke-linecap="round"/>
<defs>
<filter id="filter0_i_576_410" x="13.0506" y="-1.01718" width="30.1916" height="43.6875" filterUnits="userSpaceOnUse" color-interpolation-filters="sRGB">
<feFlood flood-opacity="0" result="BackgroundImageFix"/>
<feBlend mode="normal" in="SourceGraphic" in2="BackgroundImageFix" result="shape"/>
<feColorMatrix in="SourceAlpha" type="matrix" values="0 0 0 0 0 0 0 0 0 0 0 0 0 0 0 0 0 0 127 0" result="hardAlpha"/>
<feOffset dx="-1.95735" dy="-1.56588"/>
<feGaussianBlur stdDeviation="0.65245"/>
<feComposite in2="hardAlpha" operator="arithmetic" k2="-1" k3="1"/>
<feColorMatrix type="matrix" values="0 0 0 0 0 0 0 0 0 0 0 0 0 0 0 0 0 0 0.25 0"/>
<feBlend mode="normal" in2="shape" result="effect1_innerShadow_576_410"/>
</filter>
<filter id="filter1_i_576_410" x="17.6133" y="16.8984" width="23.4892" height="22.5748" filterUnits="userSpaceOnUse" color-interpolation-filters="sRGB">
<feFlood flood-opacity="0" result="BackgroundImageFix"/>
<feBlend mode="normal" in="SourceGraphic" in2="BackgroundImageFix" result="shape"/>
<feColorMatrix in="SourceAlpha" type="matrix" values="0 0 0 0 0 0 0 0 0 0 0 0 0 0 0 0 0 0 127 0" result="hardAlpha"/>
<feOffset dx="1.82686" dy="-0.13049"/>
<feGaussianBlur stdDeviation="0.52196"/>
<feComposite in2="hardAlpha" operator="arithmetic" k2="-1" k3="1"/>
<feColorMatrix type="matrix" values="0 0 0 0 0 0 0 0 0 0 0 0 0 0 0 0 0 0 0.25 0"/>
<feBlend mode="normal" in2="shape" result="effect1_innerShadow_576_410"/>
</filter>
<filter id="filter2_i_576_410" x="21.528" y="1.43545" width="13.7025" height="13.8326" filterUnits="userSpaceOnUse" color-interpolation-filters="sRGB">
<feFlood flood-opacity="0" result="BackgroundImageFix"/>
<feBlend mode="normal" in="SourceGraphic" in2="BackgroundImageFix" result="shape"/>
<feColorMatrix in="SourceAlpha" type="matrix" values="0 0 0 0 0 0 0 0 0 0 0 0 0 0 0 0 0 0 127 0" result="hardAlpha"/>
<feOffset dx="-0.91343" dy="-1.43539"/>
<feGaussianBlur stdDeviation="0.52196"/>
<feComposite in2="hardAlpha" operator="arithmetic" k2="-1" k3="1"/>
<feColorMatrix type="matrix" values="0 0 0 0 0 0 0 0 0 0 0 0 0 0 0 0 0 0 0.25 0"/>
<feBlend mode="normal" in2="shape" result="effect1_innerShadow_576_410"/>
</filter>
</defs>
</svg>
