<svg width="260" height="178" viewBox="0 0 260 178" fill="none" xmlns="http://www.w3.org/2000/svg">
<path d="M24.2354 18.6406L23.7246 40.3497" stroke="black" stroke-width="1.1189"/>
<path d="M38.793 20.4287V41.3716" stroke="black" stroke-width="1.1189"/>
<path d="M21.1719 29.8784H44.1579" stroke="black" stroke-width="0.559449"/>
<path d="M25.7695 18.3857L37.7734 41.6272" stroke="black" stroke-width="1.1189"/>
<path d="M27.3008 17.3638C27.7094 17.3638 38.5384 25.0258 43.9018 28.8568" stroke="black" stroke-width="1.1189"/>
<path d="M21.1719 32.4326L35.7297 41.8824" stroke="black" stroke-width="1.1189"/>
<path d="M43.9006 31.1553L25.5117 41.3713" stroke="black" stroke-width="1.1189"/>
<path d="M37.2627 20.1733L24.748 40.35" stroke="black" stroke-width="1.1189"/>
<path d="M36.4959 19.918L21.1719 27.58" stroke="black" stroke-width="1.1189"/>
<path d="M19.3843 25.5367L23.2153 18.1301M27.5571 16.3423L36.4961 17.6193M40.3271 20.4287L45.1798 28.3461M45.4352 31.9217L40.3271 41.3715M35.7299 43.4147L25.2585 42.9039M19.1289 32.9433L22.7045 40.3499" stroke="black" stroke-width="1.1189"/>
<rect x="13.5594" y="25.8407" width="7.56472" height="7.05392" stroke="black" stroke-width="1.1189"/>
<path d="M27.2529 12.5596V18.0811H20.9658V12.5596H27.2529Z" stroke="black" stroke-width="1.1189"/>
<path d="M41.8086 41.6758V46.6865H36.0322V41.6758H41.8086Z" stroke="black" stroke-width="1.1189"/>
<path d="M41.2998 16.1357V20.125H36.7998V16.1357H41.2998Z" stroke="black" stroke-width="1.1189"/>
<path d="M25.209 40.6543V44.6436H21.2197V40.6543H25.209Z" stroke="black" stroke-width="1.1189"/>
<path d="M47.6865 28.6504V31.874H44.208V28.6504H47.6865Z" stroke="black" stroke-width="1.1189"/>
<path d="M118.984 21.9927H120.235" stroke="black" stroke-width="1.21382"/>
<path d="M138.486 21.9927H139.737" stroke="black" stroke-width="1.21382"/>
<path d="M120.984 21.9927H122.235" stroke="black" stroke-width="1.21382"/>
<path d="M140.49 21.9927H141.741" stroke="black" stroke-width="1.21382"/>
<path d="M122.984 21.9927H124.235" stroke="black" stroke-width="1.21382"/>
<path d="M142.492 21.9927H143.743" stroke="black" stroke-width="1.21382"/>
<path d="M120.732 28.2449C116.982 29.7454 113.982 22.4931 118.482 19.9922C118.148 18.4917 118.983 15.9909 121.983 16.241C121.734 13.9903 124.735 9.98899 129.485 12.7399C131.237 10.4891 137.489 9.73894 139.239 14.7405C141.741 13.9902 146.492 15.4907 145.491 20.9926C146.992 21.9928 147.743 28.2449 142.49 28.2449" stroke="black" stroke-width="1.21382"/>
<path d="M131.487 20.3481C132.395 20.3483 133.131 21.0849 133.131 21.9927C133.131 22.9003 132.395 23.6361 131.487 23.6362C130.58 23.6362 129.843 22.9004 129.843 21.9927C129.843 21.0848 130.579 20.3481 131.487 20.3481Z" stroke="black" stroke-width="1.21382"/>
<path d="M127.735 23.4921H125.734V20.241H127.735L127.985 19.2407L127.235 17.7402L129.986 16.2397L130.736 17.4902H131.986L132.82 16.2402L135.821 18.2409L134.987 19.2407L135.237 20.241H136.988V23.4921H135.237" stroke="black" stroke-width="1.21382"/>
<path d="M129.237 25.4932V39.2477H127.736V42.2487" stroke="black" stroke-width="1.21382"/>
<path d="M126.984 25.4932V36.7468L123.232 36.9971V40.4982" stroke="black" stroke-width="1.21382"/>
<path d="M124.982 25.4932V34.246H121.231V38.9976H119.48" stroke="black" stroke-width="1.21382"/>
<path d="M122.984 25.4932V31.4951H118.983V35.4964H116.982" stroke="black" stroke-width="1.21382"/>
<path d="M115.751 34.3525C116.382 34.3528 116.895 34.8656 116.895 35.4971C116.894 36.1284 116.382 36.6404 115.751 36.6406C115.119 36.6406 114.607 36.1285 114.606 35.4971C114.606 34.8654 115.119 34.3525 115.751 34.3525Z" stroke="black" stroke-width="1.21382"/>
<path d="M118.218 37.854C118.849 37.8542 119.361 38.367 119.361 38.9985C119.361 39.6298 118.849 40.1419 118.218 40.1421C117.586 40.1421 117.073 39.63 117.073 38.9985C117.073 38.3669 117.586 37.854 118.218 37.854Z" stroke="black" stroke-width="1.21382"/>
<path d="M123.235 40.604C123.867 40.6042 124.379 41.117 124.379 41.7485C124.379 42.3798 123.867 42.8919 123.235 42.8921C122.604 42.8921 122.091 42.38 122.091 41.7485C122.091 41.1169 122.604 40.604 123.235 40.604Z" stroke="black" stroke-width="1.21382"/>
<path d="M127.737 42.1055C128.369 42.1057 128.881 42.6185 128.881 43.25C128.881 43.8813 128.369 44.3933 127.737 44.3936C127.106 44.3936 126.593 43.8814 126.593 43.25C126.593 42.6184 127.106 42.1055 127.737 42.1055Z" stroke="black" stroke-width="1.21382"/>
<path d="M133.755 25.4932V39.2477H135.256V42.2487" stroke="black" stroke-width="1.21382"/>
<path d="M136.005 25.4932V36.7468L139.756 36.9971V40.4982" stroke="black" stroke-width="1.21382"/>
<path d="M138.008 25.4932V34.246H141.759V38.9976H143.51" stroke="black" stroke-width="1.21382"/>
<path d="M140.008 25.4932V31.4951H144.009V35.4964H146.01" stroke="black" stroke-width="1.21382"/>
<path d="M147.241 34.3525C146.61 34.3528 146.098 34.8656 146.098 35.4971C146.098 36.1284 146.61 36.6404 147.241 36.6406C147.873 36.6406 148.386 36.1285 148.386 35.4971C148.386 34.8654 147.873 34.3525 147.241 34.3525Z" stroke="black" stroke-width="1.21382"/>
<path d="M144.774 37.854C144.143 37.8542 143.631 38.367 143.631 38.9985C143.631 39.6298 144.143 40.1419 144.774 40.1421C145.406 40.1421 145.919 39.63 145.919 38.9985C145.919 38.3669 145.406 37.854 144.774 37.854Z" stroke="black" stroke-width="1.21382"/>
<path d="M139.755 40.604C139.123 40.6042 138.611 41.117 138.611 41.7485C138.612 42.3798 139.124 42.8919 139.755 42.8921C140.386 42.8921 140.899 42.38 140.899 41.7485C140.899 41.1169 140.387 40.604 139.755 40.604Z" stroke="black" stroke-width="1.21382"/>
<path d="M135.257 42.1055C134.625 42.1057 134.113 42.6185 134.113 43.25C134.114 43.8813 134.626 44.3933 135.257 44.3936C135.888 44.3936 136.401 43.8814 136.401 43.25C136.401 42.6184 135.888 42.1055 135.257 42.1055Z" stroke="black" stroke-width="1.21382"/>
<path d="M131.487 40.855C132.119 40.8552 132.631 41.368 132.631 41.9995C132.631 42.6308 132.119 43.1428 131.487 43.1431C130.856 43.1431 130.343 42.631 130.343 41.9995C130.343 41.3679 130.856 40.855 131.487 40.855Z" stroke="black" stroke-width="1.21382"/>
<path d="M131.486 25.4932V40.498" stroke="black" stroke-width="1.21382"/>
<path d="M231.172 40.9778V38.458L230.135 38.7543C229.705 38.8772 229.408 39.2705 229.408 39.7179C229.408 40.1654 229.705 40.5586 230.135 40.6815L231.172 40.9778Z" fill="black"/>
<path d="M234.953 40.9778V38.458L235.99 38.7543C236.42 38.8772 236.717 39.2705 236.717 39.7179C236.717 40.1654 236.42 40.5586 235.99 40.6815L234.953 40.9778Z" fill="black"/>
<path d="M227.678 37.9048L228.607 36.5108C228.634 36.4703 228.632 36.4169 228.602 36.3789L227.724 35.2817C227.682 35.2292 227.695 35.1518 227.753 35.1165L230.816 33.231C230.872 33.1966 230.946 33.2175 230.975 33.2763L231.646 34.617C231.664 34.6549 231.703 34.6789 231.746 34.6789H233.623C233.666 34.6789 233.704 34.6549 233.723 34.617L234.398 33.2671C234.426 33.2118 234.493 33.1894 234.548 33.217L237.378 34.6317C237.431 34.6582 237.454 34.7214 237.431 34.7759L236.738 36.3916C236.724 36.4238 236.726 36.4607 236.744 36.4911L237.692 38.1503C237.712 38.1851 237.749 38.2067 237.789 38.2067H239.376C239.438 38.2067 239.488 38.2567 239.488 38.3185V41.6225C239.488 41.6843 239.438 41.7344 239.376 41.7344H237.784C237.747 41.7344 237.712 41.7531 237.691 41.7842L236.762 43.1782C236.734 43.2188 236.737 43.2722 236.767 43.3102L237.648 44.4109C237.689 44.4622 237.677 44.5375 237.623 44.5739L234.793 46.46C234.742 46.4943 234.672 46.4804 234.638 46.429L233.726 45.06C233.705 45.0289 233.67 45.0102 233.632 45.0102H231.988C231.951 45.0102 231.916 45.0289 231.895 45.06L230.983 46.429C230.948 46.4804 230.879 46.4943 230.827 46.46L227.995 44.5718C227.942 44.5362 227.929 44.463 227.968 44.4116L228.611 43.5536C228.637 43.5197 228.641 43.4744 228.622 43.4364L227.676 41.5443C227.657 41.5064 227.618 41.4824 227.576 41.4824H225.993C225.931 41.4824 225.881 41.4323 225.881 41.3705V38.0666C225.881 38.0048 225.931 37.9547 225.993 37.9547H227.585C227.622 37.9547 227.657 37.936 227.678 37.9048Z" stroke="black" stroke-width="1.1189"/>
<path d="M231.93 42.7418L233.946 37.4502" stroke="black" stroke-width="1.1189" stroke-linecap="round"/>
<path d="M232.18 24.5991V28.1269" stroke="black" stroke-width="1.1189"/>
<path d="M234.449 24.8511V28.3788" stroke="black" stroke-width="1.1189"/>
<path d="M229.408 19.0557L233.188 22.8354" stroke="black" stroke-width="1.1189"/>
<path d="M217.314 21.575L220.842 18.8032" stroke="black" stroke-width="1.1189"/>
<path d="M218.826 23.3391L220.842 21.5752" stroke="black" stroke-width="1.1189"/>
<path d="M215.299 42.9942V40.2224C215.299 39.1091 216.201 38.2065 217.315 38.2065C218.428 38.2065 219.331 39.1091 219.331 40.2224V42.9942" stroke="black" stroke-width="1.1189"/>
<path d="M211.518 46.662V43.358C211.518 43.2962 211.568 43.2461 211.629 43.2461H223.249C223.311 43.2461 223.361 43.2962 223.361 43.358V46.662C223.361 46.7238 223.311 46.7739 223.249 46.7739H211.629C211.568 46.7739 211.518 46.7238 211.518 46.662Z" stroke="black" stroke-width="1.1189"/>
<path d="M212.474 43.291C212.499 43.5989 212.768 43.8285 213.076 43.8036C213.384 43.7788 213.614 43.509 213.589 43.201L213.031 43.246L212.474 43.291ZM212.329 27.5781L212.284 27.0204L211.169 27.1104L211.214 27.668L211.771 27.623L212.329 27.5781ZM213.031 43.246L213.589 43.201L212.329 27.5781L211.771 27.623L211.214 27.668L212.474 43.291L213.031 43.246Z" fill="black"/>
<path d="M221.852 42.9936L219.584 26.8667" stroke="black" stroke-width="1.1189"/>
<path d="M215.047 31.1509V36.6945" stroke="black" stroke-width="1.1189"/>
<path d="M217.816 30.8994V36.443" stroke="black" stroke-width="1.1189"/>
<path d="M222.859 15.2757C222.607 15.1077 221.851 14.9229 220.843 15.5277C220.095 15.9767 215.874 19.0461 212.306 21.8694C210.505 23.2944 210.458 25.9563 212.139 27.5212C214.374 29.6025 217.916 29.3069 219.775 26.8839L224.623 20.5674C224.875 20.3154 225.429 19.5594 225.631 18.5515" stroke="black" stroke-width="1.1189"/>
<path d="M225.629 12.5596C227.268 12.5596 228.597 13.8882 228.598 15.5273C228.598 17.1667 227.268 18.4961 225.629 18.4961C223.99 18.4959 222.661 17.1666 222.661 15.5273C222.661 13.8883 223.99 12.5598 225.629 12.5596Z" stroke="black" stroke-width="1.1189"/>
<path d="M215.047 23.647C215.851 23.647 216.504 24.2988 216.504 25.103C216.504 25.9074 215.851 26.5601 215.047 26.5601C214.243 26.5599 213.591 25.9073 213.591 25.103C213.591 24.2989 214.243 23.6471 215.047 23.647Z" stroke="black" stroke-width="1.1189"/>
<path d="M226.637 16.0319C226.637 16.5885 226.186 17.0398 225.629 17.0398C225.072 17.0398 224.621 16.5885 224.621 16.0319C224.621 15.4752 225.072 15.0239 225.629 15.0239C226.186 15.0239 226.637 15.4752 226.637 16.0319Z" fill="black"/>
<path d="M227.645 13.2598L234.907 21.3767C235.648 22.2045 235.64 23.4589 234.89 24.2777C234.088 25.1529 232.73 25.2169 231.849 24.4211L225.629 18.8034" stroke="black" stroke-width="1.1189"/>
<path d="M233.188 27.3711C234.44 27.3712 235.456 28.3864 235.456 29.6387L235.444 29.8711C235.383 30.4729 235.084 31.0028 234.646 31.3721L234.073 30.3701C234.238 30.1713 234.337 29.9166 234.337 29.6387C234.337 29.0043 233.822 28.4904 233.188 28.4902C232.553 28.4904 232.039 29.0043 232.039 29.6387C232.039 29.9978 232.204 30.3185 232.462 30.5293L231.904 31.5059C231.311 31.0968 230.92 30.4141 230.92 29.6387C230.92 28.3864 231.935 27.3712 233.188 27.3711Z" fill="black"/>
<path d="M34.2603 83.559H34.8536V83.4052L34.7789 83.2709L34.2603 83.559ZM36.4269 81.7148C36.7545 81.7148 37.0201 81.4492 37.0201 81.1216C37.0201 80.794 36.7545 80.5284 36.4269 80.5284V81.1216V81.7148ZM34.2603 86.2671H34.8536V83.559H34.2603H33.6671V86.2671H34.2603ZM34.2603 83.559L34.7789 83.2709L33.9144 81.7148L33.3959 82.0029L32.8773 82.291L33.7418 83.847L34.2603 83.559ZM33.9144 81.1216V81.7148H36.4269V81.1216V80.5284H33.9144V81.1216ZM33.3959 82.0029L33.9144 81.7148L33.9144 81.7148V81.1216V80.5284C33.0098 80.5284 32.438 81.5002 32.8773 82.291L33.3959 82.0029Z" fill="black"/>
<path d="M32.0925 86.5368V85.6389C32.0925 85.0191 31.757 84.4576 31.2827 84.0586C27.3398 80.742 28.4498 73.6898 34.8031 73.2663C38.7281 73.0048 43.6637 78.8105 38.3753 84.0876C38.0106 84.4516 37.7801 84.937 37.7801 85.4523V86.5368" stroke="black" stroke-width="1.18644"/>
<path d="M38.0504 88.9759V86.5386H31.5508V88.9759H38.0504Z" stroke="black" stroke-width="1.18644"/>
<path d="M31.8223 89.2461V91.1418H37.7803V89.2461" stroke="black" stroke-width="1.18644"/>
<path d="M32.6328 91.4126V93.3083H36.8068V91.4126" stroke="black" stroke-width="1.18644"/>
<path d="M33.4496 71.3714C30.4706 68.3924 24.7832 64.6009 24.5126 70.8297C24.1952 78.135 28.0318 84.9123 31.2845 88.7038" stroke="black" stroke-width="1.18644" stroke-linecap="round"/>
<path d="M26.1334 86.2671C24.5085 89.5169 22.6135 98.4539 26.1334 99.2664C27.2166 99.7178 30.4119 99.3747 34.5284 94.3917" stroke="black" stroke-width="1.18644" stroke-linecap="round"/>
<path d="M45.0908 68.6641C45.5421 72.6361 44.82 82.2592 38.3203 88.9755" stroke="black" stroke-width="1.18644"/>
<path d="M42.6534 77.6006C45.813 77.8714 52.9445 79.7671 52.9445 83.2878C52.9445 87.3501 43.6464 89.2458 38.3203 89.5166" stroke="black" stroke-width="1.18644" stroke-linecap="round"/>
<path d="M36.6953 71.6428C37.5078 70.4693 39.241 68.2305 41.8409 67.5806" stroke="black" stroke-width="1.18644" stroke-linecap="round"/>
<path d="M19.6348 85.1841C20.9889 86.7187 26.1344 89.6797 31.5508 89.2464" stroke="black" stroke-width="1.18644" stroke-linecap="round"/>
<path d="M19.3652 81.6632C20.4485 80.4897 23.5358 78.1426 27.219 78.1426" stroke="black" stroke-width="1.18644" stroke-linecap="round"/>
<path d="M43.4668 86.2671C44.3695 87.2601 46.0125 90.9793 45.3625 97.9123" stroke="black" stroke-width="1.18644" stroke-linecap="round"/>
<path d="M36.1562 95.4746C37.1493 96.6482 39.5686 98.8328 42.3851 99.2661" stroke="black" stroke-width="1.18644" stroke-linecap="round"/>
<path d="M18.4375 81.7441C19.4559 81.7442 20.2812 82.5704 20.2812 83.5889C20.2812 84.6073 19.4559 85.4325 18.4375 85.4326C17.419 85.4326 16.5928 84.6073 16.5928 83.5889C16.5928 82.5704 17.419 81.7441 18.4375 81.7441Z" stroke="black" stroke-width="1.18644"/>
<path d="M43.7402 65.4648C44.7587 65.4649 45.584 66.2911 45.584 67.3096C45.5839 68.328 44.7586 69.1532 43.7402 69.1533C42.7218 69.1533 41.8956 68.328 41.8955 67.3096C41.8955 66.2911 42.7217 65.4648 43.7402 65.4648Z" stroke="black" stroke-width="1.18644"/>
<path d="M44.2793 97.9644C45.2977 97.9644 46.123 98.7906 46.123 99.8091C46.123 100.827 45.2977 101.653 44.2793 101.653C43.2608 101.653 42.4346 100.828 42.4346 99.8091C42.4346 98.7906 43.2608 97.9644 44.2793 97.9644Z" stroke="black" stroke-width="1.18644"/>
<path d="M36.0168 94.3282C36.0168 95.0761 35.4105 95.6823 34.6627 95.6823C33.9148 95.6823 33.3086 95.0761 33.3086 94.3282C33.3086 93.5804 33.9148 92.9741 34.6627 92.9741C35.4105 92.9741 36.0168 93.5804 36.0168 94.3282Z" fill="black"/>
<path d="M16.3848 72.9971H17.1972V73.8095H16.3848V72.9971Z" fill="black"/>
<path d="M18.5508 72.9971H19.3632V73.8095H18.5508V72.9971Z" fill="black"/>
<path d="M21.2598 70.8306H22.0722V71.643H21.2598V70.8306Z" fill="black"/>
<path d="M18.5508 70.8306H19.3632V71.643H18.5508V70.8306Z" fill="black"/>
<path d="M21.2598 68.6641H22.0722V69.4765H21.2598V68.6641Z" fill="black"/>
<path d="M18.5508 75.1636H19.3632V75.976H18.5508V75.1636Z" fill="black"/>
<path d="M21.2598 72.9971H22.0722V73.8095H21.2598V72.9971Z" fill="black"/>
<path d="M16.3848 75.1636H17.1972V75.976H16.3848V75.1636Z" fill="black"/>
<path d="M16.3848 77.3301H17.1972V78.1425H16.3848V77.3301Z" fill="black"/>
<path d="M16.3848 93.8501H17.1972V93.0376H16.3848V93.8501Z" fill="black"/>
<path d="M18.5508 93.8501H19.3632V93.0376H18.5508V93.8501Z" fill="black"/>
<path d="M21.2598 96.0166H22.0722V95.2041H21.2598V96.0166Z" fill="black"/>
<path d="M18.5508 96.0166H19.3632V95.2041H18.5508V96.0166Z" fill="black"/>
<path d="M21.2598 98.1831H22.0722V97.3706H21.2598V98.1831Z" fill="black"/>
<path d="M18.5508 91.6836H19.3632V90.8711H18.5508V91.6836Z" fill="black"/>
<path d="M21.2598 93.8501H22.0722V93.0376H21.2598V93.8501Z" fill="black"/>
<path d="M16.3848 91.6836H17.1972V90.8711H16.3848V91.6836Z" fill="black"/>
<path d="M16.3848 89.5171H17.1972V88.7046H16.3848V89.5171Z" fill="black"/>
<path d="M47.8008 73.8096H48.6132V72.9971H47.8008V73.8096Z" fill="black"/>
<path d="M49.9668 73.8096H50.7793V72.9971H49.9668V73.8096Z" fill="black"/>
<path d="M52.6738 75.9761H53.4863V75.1636H52.6738V75.9761Z" fill="black"/>
<path d="M49.9668 75.9761H50.7793V75.1636H49.9668V75.9761Z" fill="black"/>
<path d="M52.6738 78.1426H53.4863V77.3301H52.6738V78.1426Z" fill="black"/>
<path d="M49.9668 71.6431H50.7793V70.8306H49.9668V71.6431Z" fill="black"/>
<path d="M52.6738 73.8096H53.4863V72.9971H52.6738V73.8096Z" fill="black"/>
<path d="M47.8008 71.6431H48.6132V70.8306H47.8008V71.6431Z" fill="black"/>
<path d="M47.8008 69.4761H48.6132V68.6636H47.8008V69.4761Z" fill="black"/>
<path d="M47.8008 93.0371H48.6132V93.8496H47.8008V93.0371Z" fill="black"/>
<path d="M49.9668 93.0371H50.7793V93.8496H49.9668V93.0371Z" fill="black"/>
<path d="M52.6738 90.8711H53.4863V91.6836H52.6738V90.8711Z" fill="black"/>
<path d="M49.9668 90.8711H50.7793V91.6836H49.9668V90.8711Z" fill="black"/>
<path d="M52.6738 88.7046H53.4863V89.517H52.6738V88.7046Z" fill="black"/>
<path d="M49.9668 95.2041H50.7793V96.0166H49.9668V95.2041Z" fill="black"/>
<path d="M52.6738 93.0371H53.4863V93.8496H52.6738V93.0371Z" fill="black"/>
<path d="M47.8008 95.2041H48.6132V96.0166H47.8008V95.2041Z" fill="black"/>
<path d="M47.8008 97.3716H48.6132V98.184H47.8008V97.3716Z" fill="black"/>
<path d="M223.35 73.9999H230.654C230.99 73.9999 231.263 73.7274 231.263 73.3912V70.9564C231.263 70.6202 231.535 70.3477 231.872 70.3477H234.915" stroke="black" stroke-width="1.21742"/>
<path d="M222.129 78.5655H230.651C230.987 78.5655 231.26 78.838 231.26 79.1742V81.6091C231.26 81.9452 231.532 82.2178 231.868 82.2178H234.912" stroke="black" stroke-width="1.21742"/>
<path d="M216.65 93.1752V88.9142C216.65 87.5695 217.741 86.4794 219.085 86.4794C220.43 86.4794 221.52 85.3893 221.52 84.0445V81.001" stroke="black" stroke-width="1.21742" stroke-linecap="round"/>
<path d="M221.521 93.1749V91.0444C221.521 89.6997 222.612 88.6096 223.956 88.6096C225.301 88.6096 226.391 87.5194 226.391 86.1747V81.6094" stroke="black" stroke-width="1.21742" stroke-linecap="round"/>
<path d="M212.087 93.4791L207.555 88.4932C206.684 87.536 206.719 86.0639 207.634 85.1491C208.581 84.2026 210.115 84.2026 211.062 85.1491L213.401 87.4885C213.478 87.5652 213.609 87.5109 213.609 87.4024V75.5221C213.609 73.8412 214.972 72.4785 216.652 72.4785C218.333 72.4785 219.696 73.8412 219.696 75.5221V80.3918C219.696 80.728 219.969 81.0005 220.305 81.0005H224.87C227.223 81.0005 229.131 82.9082 229.131 85.2615V89.9975C229.131 91.2414 228.588 92.4232 227.643 93.2327L227.001 93.7834" stroke="black" stroke-width="1.21742" stroke-linecap="round"/>
<path d="M215.131 94.3916V99.5657" stroke="black" stroke-width="1.21742" stroke-linecap="round"/>
<path d="M219.086 94.3916V99.5657" stroke="black" stroke-width="1.21742" stroke-linecap="round"/>
<path d="M209.348 97.1316V96.8273C209.348 95.1463 210.71 93.7837 212.391 93.7837H226.087C227.768 93.7837 229.131 95.1463 229.131 96.8272V97.1316C229.131 98.8125 227.768 100.175 226.087 100.175H212.391C210.71 100.175 209.348 98.8125 209.348 97.1316Z" stroke="black" stroke-width="1.21742" stroke-linecap="round"/>
<path d="M216.738 67.0098C220.759 67.2133 223.956 70.5383 223.956 74.6094L223.946 75C223.809 77.7068 222.256 80.0384 220.015 81.2744L219.92 80.7969C219.869 80.5387 219.777 80.2978 219.655 80.0781C221.503 78.9581 222.738 76.9281 222.738 74.6094C222.738 71.0797 219.877 68.218 216.348 68.2178C212.818 68.2178 209.956 71.0796 209.956 74.6094C209.956 77.0297 211.302 79.1351 213.286 80.2197C213.104 80.5509 212.999 80.9294 212.999 81.3311V81.4414C210.586 80.2568 208.892 77.8337 208.748 75L208.738 74.6094C208.738 70.4072 212.145 67 216.348 67L216.738 67.0098Z" fill="black"/>
<circle cx="237.653" cy="70.3479" r="2.7392" stroke="black" stroke-width="1.21742"/>
<circle cx="3.34792" cy="3.34792" r="2.7392" transform="matrix(1 0 0 -1 234.305 85.5664)" stroke="black" stroke-width="1.21742"/>
<path d="M141.511 64.7596C131.442 61.6126 126.833 68.9746 126.166 73.4875C126.142 73.6489 126.093 73.8034 126.015 73.9467L122.806 79.8303C122.573 80.2573 122.882 80.7779 123.368 80.7779H125.493C125.847 80.7779 126.133 81.0647 126.133 81.4186V83.6611C126.133 84.3689 126.707 84.9426 127.415 84.9426H128.137C128.239 84.9426 128.3 85.0567 128.243 85.1418L127.429 86.3632C127.217 86.6809 127.158 87.0765 127.268 87.4422L127.71 88.9179C127.905 89.565 128.568 89.9503 129.226 89.7983L132.22 89.1073C137.667 87.5055 133.181 96.1553 135.104 98.0775C136.93 99.9039 150.802 99.9997 147.278 95.835C144.605 92.6769 144.408 87.926 144.668 85.6204C144.694 85.3851 144.796 85.1686 144.943 84.9829C149.829 78.8178 149.399 67.225 141.511 64.7596Z" stroke="black" stroke-width="1.28146"/>
<path d="M126.778 84.6226H119.409C118.701 84.6226 118.128 85.1963 118.128 85.904V90.0688C118.128 90.7765 117.554 91.3502 116.846 91.3502H113.322" stroke="black" stroke-width="1.28146"/>
<path d="M135.105 96.1553H125.174" stroke="black" stroke-width="1.28146"/>
<path d="M125.494 73.7301H119.407C118.7 73.7301 118.126 73.1564 118.126 72.4486V68.2839C118.126 67.5762 117.552 67.0024 116.844 67.0024H113" stroke="black" stroke-width="1.28146"/>
<circle cx="122.292" cy="96.4762" r="2.88328" stroke="black" stroke-width="1.28146"/>
<path d="M129.02 67.6436C128.699 73.3033 131.839 83.9181 146.96 81.0989" stroke="black" stroke-width="1.28146"/>
<path d="M146.959 70.206H142.345C141.839 70.206 141.38 69.9078 141.174 69.445L140.569 68.0838C140.364 67.621 139.905 67.3228 139.398 67.3228H136.066" stroke="black" stroke-width="1.28146"/>
<path d="M147.598 74.6909H142.664C142.157 74.6909 141.699 74.9892 141.493 75.4519L140.888 76.8132C140.682 77.276 140.223 77.5742 139.717 77.5742H135.744" stroke="black" stroke-width="1.28146"/>
<path d="M129.977 72.4487H133.18" stroke="black" stroke-width="1.28146"/>
<path d="M135.763 69.5649C137.355 69.5652 138.646 70.8565 138.646 72.4487C138.645 74.0408 137.355 75.3313 135.763 75.3315C134.17 75.3315 132.879 74.0409 132.879 72.4487C132.879 70.8563 134.17 69.5649 135.763 69.5649Z" stroke="black" stroke-width="1.28146"/>
<path d="M214.666 132.991V134.883C214.666 135.58 215.231 136.144 215.927 136.144H217.189C217.885 136.144 218.45 136.709 218.45 137.406V144.973" stroke="black" stroke-width="1.26128"/>
<path d="M226.336 132.991V134.883C226.336 135.58 225.771 136.144 225.075 136.144H223.813C223.117 136.144 222.552 136.709 222.552 137.406V144.973" stroke="black" stroke-width="1.26128"/>
<path d="M208.99 138.982H213.405C214.101 138.982 214.666 139.547 214.666 140.244V144.974" stroke="black" stroke-width="1.26128"/>
<path d="M232.012 138.982H227.597C226.901 138.982 226.336 139.547 226.336 140.244V144.974" stroke="black" stroke-width="1.26128"/>
<path d="M212.143 145.604V146.865C212.143 147.562 212.707 148.127 213.404 148.127H215.611C216.308 148.127 216.872 148.691 216.872 149.388V152.226" stroke="black" stroke-width="1.26128"/>
<path d="M228.541 145.919V147.181C228.541 147.877 227.976 148.442 227.28 148.442H225.072C224.376 148.442 223.811 149.007 223.811 149.703V152.541" stroke="black" stroke-width="1.26128"/>
<path d="M220.342 157.902V145.289M220.342 145.289H204.576C203.879 145.289 203.314 145.854 203.314 146.55V147.812C203.314 148.508 203.879 149.073 204.576 149.073H208.985C209.375 149.073 209.731 149.293 209.905 149.642C210.11 150.052 210.02 150.548 209.683 150.859L207.117 153.228C206.591 153.714 206.574 154.54 207.081 155.046L210.621 158.587C211.114 159.079 211.912 159.079 212.405 158.587L215.441 155.55C215.724 155.268 216.167 155.224 216.5 155.446C216.733 155.601 216.873 155.863 216.873 156.144V160.74C216.873 161.436 217.438 162.001 218.135 162.001H223.115C223.836 162.001 224.411 161.397 224.375 160.677L224.149 156.159C224.134 155.871 224.273 155.597 224.513 155.437C224.838 155.22 225.27 155.263 225.547 155.539L228.594 158.587C229.087 159.079 229.885 159.079 230.378 158.587L233.921 155.044C234.427 154.538 234.411 153.714 233.887 153.227L230.777 150.339C230.567 150.144 230.49 149.844 230.581 149.573C230.68 149.274 230.96 149.073 231.274 149.073H235.793C236.489 149.073 237.054 148.508 237.054 147.812V146.55C237.054 145.854 236.489 145.289 235.793 145.289H220.342Z" stroke="black" stroke-width="1.26128"/>
<circle cx="206.153" cy="138.982" r="2.52257" stroke="black" stroke-width="1.26128"/>
<circle cx="3.15321" cy="3.15321" r="2.52257" transform="matrix(-1 0 0 1 238 135.829)" stroke="black" stroke-width="1.26128"/>
<circle cx="214.35" cy="130.153" r="2.52257" stroke="black" stroke-width="1.26128"/>
<circle cx="3.15321" cy="3.15321" r="2.52257" transform="matrix(-1 0 0 1 229.803 127)" stroke="black" stroke-width="1.26128"/>
<path d="M127.826 137.757H130.344" stroke="black" stroke-width="1.1189"/>
<path d="M127.545 140.275V135.939C127.545 135.089 128.234 134.4 129.083 134.4C129.933 134.4 130.622 135.089 130.622 135.939V140.275" stroke="black" stroke-width="1.1189"/>
<path d="M133.141 140.276V133.891" stroke="black" stroke-width="1.1189"/>
<path d="M118.035 153.142H121.951V139.715H125.028" stroke="black" stroke-width="1.1189"/>
<path d="M135.658 139.715C135.882 139.715 138.176 139.715 139.295 139.715V145.869H143.49" stroke="black" stroke-width="1.1189"/>
<path d="M125.027 137.198H119.712V140.834H117.754" stroke="black" stroke-width="1.1189"/>
<path d="M135.658 137.478H143.49" stroke="black" stroke-width="1.1189"/>
<path d="M119.434 132.722H121.671V135.24H125.028" stroke="black" stroke-width="1.1189"/>
<path d="M142.09 132.722H139.293V135.24H135.936" stroke="black" stroke-width="1.1189"/>
<path d="M129.502 164.051V155.38H125.586V153.142" stroke="black" stroke-width="1.1189"/>
<path d="M131.74 164.051V148.387" stroke="black" stroke-width="1.1189"/>
<path d="M134.258 164.051V153.422H137.894V150.904" stroke="black" stroke-width="1.1189"/>
<path d="M116.356 139.715C116.17 138.783 116.021 136.191 116.916 133.281M118.314 131.044C122.23 124.89 137.335 123.771 142.37 131.044M144.328 133.841C144.515 134.307 144.888 135.407 144.888 136.079" stroke="black" stroke-width="1.1189"/>
<path d="M145.168 138.876C145.261 140.182 145.391 143.128 145.168 144.471M144.608 147.268C144.338 148.8 142.917 152.65 139.387 156.139C139.153 156.37 139.022 156.688 139.047 157.016C139.194 158.947 139.672 162.344 140.692 163.772" stroke="black" stroke-width="1.1189"/>
<path d="M116.357 141.953L113.35 148.719C113.185 149.089 113.456 149.506 113.861 149.506H116.077C116.386 149.506 116.636 149.756 116.636 150.065V151.464" stroke="black" stroke-width="1.1189"/>
<path d="M116.914 154.261V155.1C116.914 157.263 118.667 159.017 120.83 159.017H124.467C125.085 159.017 125.586 159.517 125.586 160.135V164.052" stroke="black" stroke-width="1.1189"/>
<circle cx="117.755" cy="132.442" r="1.39862" stroke="black" stroke-width="1.1189"/>
<circle cx="143.489" cy="132.442" r="1.39862" stroke="black" stroke-width="1.1189"/>
<circle cx="145.167" cy="137.477" r="1.39862" stroke="black" stroke-width="1.1189"/>
<circle cx="145.167" cy="145.869" r="1.39862" stroke="black" stroke-width="1.1189"/>
<circle cx="116.636" cy="153.142" r="1.39862" stroke="black" stroke-width="1.1189"/>
<circle cx="116.075" cy="140.835" r="1.39862" stroke="black" stroke-width="1.1189"/>
<rect x="125.307" y="132.163" width="10.0701" height="9.51063" stroke="black" stroke-width="1.1189"/>
<circle cx="125.587" cy="151.464" r="1.39862" stroke="black" stroke-width="1.1189"/>
<circle cx="131.741" cy="146.988" r="1.39862" stroke="black" stroke-width="1.1189"/>
<circle cx="137.896" cy="149.786" r="1.39862" stroke="black" stroke-width="1.1189"/>
<path d="M30.8691 148.979V141.147C30.8691 140.992 30.9944 140.867 31.1489 140.867H38.7014C38.8559 140.867 38.9811 140.992 38.9811 141.147V146.346C38.9811 146.42 38.9517 146.491 38.8992 146.544L36.2658 149.177C36.2134 149.229 36.1422 149.259 36.068 149.259H31.1489C30.9944 149.259 30.8691 149.134 30.8691 148.979Z" stroke="black" stroke-width="1.1189" stroke-linecap="round"/>
<path d="M33.6641 152.616V155.413" stroke="black" stroke-width="1.1189" stroke-linecap="round"/>
<path d="M30.5879 135.273V138.07" stroke="black" stroke-width="1.1189" stroke-linecap="round"/>
<path d="M45.1348 140.867H42.3375" stroke="black" stroke-width="1.1189" stroke-linecap="round"/>
<path d="M27.791 140.867H24.9938" stroke="black" stroke-width="1.1189" stroke-linecap="round"/>
<path d="M36.7422 135.273V138.07" stroke="black" stroke-width="1.1189" stroke-linecap="round"/>
<path d="M45.1348 147.021H42.3375" stroke="black" stroke-width="1.1189" stroke-linecap="round"/>
<path d="M27.791 147.021H24.9938" stroke="black" stroke-width="1.1189" stroke-linecap="round"/>
<path d="M36.4629 152.616V155.413" stroke="black" stroke-width="1.1189" stroke-linecap="round"/>
<path d="M33.3848 135.273V138.07" stroke="black" stroke-width="1.1189" stroke-linecap="round"/>
<path d="M45.1348 143.665H42.3375" stroke="black" stroke-width="1.1189" stroke-linecap="round"/>
<path d="M27.791 143.665H24.9938" stroke="black" stroke-width="1.1189" stroke-linecap="round"/>
<path d="M39.5391 135.273V138.07" stroke="black" stroke-width="1.1189" stroke-linecap="round"/>
<path d="M45.1348 149.819H42.3375" stroke="black" stroke-width="1.1189" stroke-linecap="round"/>
<path d="M27.791 149.819H24.9938" stroke="black" stroke-width="1.1189" stroke-linecap="round"/>
<path d="M18.2797 128H28.3498V128.839C28.3498 130.23 29.4769 131.357 30.8673 131.357H41.7766C41.9311 131.357 42.0563 131.231 42.0563 131.077V128H51.8466C52.0011 128 52.1264 128.125 52.1264 128.28V138.07C52.1264 138.225 52.0011 138.35 51.8466 138.35H51.5669C50.1765 138.35 49.0494 139.477 49.0494 140.867V152.336H52.1264V161.847C52.1264 162.001 52.0011 162.126 51.8466 162.126H18.2797C18.1252 162.126 18 162.001 18 161.847V128.28C18 128.125 18.1252 128 18.2797 128Z" stroke="black" stroke-width="1.1189"/>
<path d="M28.3516 151.777V138.91C28.3516 138.755 28.4768 138.63 28.6313 138.63H41.4986C41.6531 138.63 41.7783 138.755 41.7783 138.91V151.777C41.7783 151.931 41.6531 152.057 41.4986 152.057H28.6313C28.4768 152.057 28.3516 151.931 28.3516 151.777Z" stroke="black" stroke-width="1.1189"/>
<path d="M30.8679 152.336V156.812C30.8679 156.966 30.7427 157.091 30.5882 157.091H25.2734" stroke="black" stroke-width="1.1189"/>
<path d="M38.9805 152.616V157.091C38.9805 157.246 39.1057 157.371 39.2602 157.371H44.8547" stroke="black" stroke-width="1.1189"/>
<circle cx="23.314" cy="157.091" r="1.67835" stroke="black" stroke-width="1.1189"/>
<path d="M23.0352 132.493C23.9619 132.493 24.7129 133.245 24.7129 134.171C24.7126 135.098 23.9617 135.849 23.0352 135.849C22.1084 135.849 21.3567 135.098 21.3564 134.171C21.3564 133.244 22.1082 132.493 23.0352 132.493Z" stroke="black" stroke-width="1.1189"/>
<circle cx="46.2515" cy="157.091" r="1.67835" stroke="black" stroke-width="1.1189"/>
<path d="M23.0352 135.833V140.588C23.0352 140.742 23.1604 140.868 23.3149 140.868H28.0702" stroke="black" stroke-width="1.1189"/>
</svg>
