<svg width="260" height="178" viewBox="0 0 260 178" fill="none" xmlns="http://www.w3.org/2000/svg">
<path d="M42.7061 17.7119L50.6338 22.416L50.7441 31.6592L50.6338 40.876L42.7061 45.5811L34.6465 50.1074L26.5869 45.5811L18.6582 40.876L18.5488 31.6592L18.6582 22.416L26.5869 17.7119L34.6465 13.1846L42.7061 17.7119Z" stroke="black" stroke-width="2.06805"/>
<path d="M30.0615 27.2223V37.3745H28.2075L23.7907 30.9847H23.7163V37.3745H21.5699V27.2223H23.4536L27.8357 33.6071H27.9249V27.2223H30.0615ZM31.8349 37.3745V27.2223H38.5568V28.992H33.9813V31.4111H38.1107V33.1808H33.9813V37.3745H31.8349ZM39.6139 28.992V27.2223H47.9518V28.992H44.8437V37.3745H42.722V28.992H39.6139Z" fill="black"/>
<path d="M27.9258 40.9521L34.6469 45.0883L41.6266 40.9521" stroke="black" stroke-width="1.55104" stroke-linecap="round"/>
<path d="M27.9258 22.3408L34.6469 18.2047L41.6266 22.3408" stroke="black" stroke-width="1.55104" stroke-linecap="round"/>
<path d="M213.178 136.701L211.462 135.671L209.402 135.328" stroke="black" stroke-width="1.37301"/>
<path d="M238.236 136.701L239.952 135.671L242.012 135.328" stroke="black" stroke-width="1.37301"/>
<path d="M213.178 151.804L211.462 152.834L209.402 153.177" stroke="black" stroke-width="1.37301"/>
<path d="M238.236 151.804L239.952 152.834L242.012 153.177" stroke="black" stroke-width="1.37301"/>
<path d="M215.924 129.835H219.013V133.611" stroke="black" stroke-width="1.37301"/>
<path d="M235.49 129.835H232.401V133.611" stroke="black" stroke-width="1.37301"/>
<path d="M215.924 158.668H219.013V154.893" stroke="black" stroke-width="1.37301"/>
<path d="M235.49 158.668H232.401V154.893" stroke="black" stroke-width="1.37301"/>
<path d="M225.879 129.492V126.746" stroke="black" stroke-width="1.37301"/>
<path d="M225.879 129.492V126.746M225.879 157.982V161.758" stroke="black" stroke-width="1.37301"/>
<path d="M238.58 143.565H242.355M213.522 143.565H209.403" stroke="black" stroke-width="1.37301"/>
<path d="M232.014 133.608L232.021 133.613L232.027 133.617L238.22 137.126L238.163 144.244V144.261L238.22 151.377L232.027 154.887L232.021 154.892L232.014 154.896L225.878 158.503L219.742 154.896L219.735 154.892L219.729 154.887L213.535 151.377L213.593 144.261V144.244L213.535 137.126L219.729 133.617L219.735 133.613L219.742 133.608L225.878 130L232.014 133.608Z" stroke="black" stroke-width="2.05952"/>
<circle cx="225.878" cy="125.716" r="1.71626" fill="black"/>
<circle cx="225.878" cy="162.788" r="1.71626" fill="black"/>
<circle cx="243.042" cy="143.565" r="1.71626" fill="black"/>
<circle cx="208.716" cy="143.565" r="1.71626" fill="black"/>
<circle cx="214.894" cy="129.835" r="1.71626" fill="black"/>
<circle cx="1.71626" cy="1.71626" r="1.71626" transform="matrix(-1 0 0 1 238.236 128.119)" fill="black"/>
<circle cx="1.71626" cy="1.71626" r="1.71626" transform="matrix(1 0 0 -1 213.178 160.385)" fill="black"/>
<circle cx="236.52" cy="158.669" r="1.71626" transform="rotate(180 236.52 158.669)" fill="black"/>
<circle cx="208.716" cy="135.328" r="1.71626" fill="black"/>
<circle cx="1.71626" cy="1.71626" r="1.71626" transform="matrix(-1 0 0 1 244.414 133.611)" fill="black"/>
<circle cx="1.71626" cy="1.71626" r="1.71626" transform="matrix(1 0 0 -1 207 154.893)" fill="black"/>
<circle cx="242.698" cy="153.177" r="1.71626" transform="rotate(180 242.698 153.177)" fill="black"/>
<path d="M230.76 135.796L235.688 138.588L235.643 144.252L235.688 149.916L230.76 152.708L225.878 155.579L220.996 152.708L216.068 149.916L216.113 144.252L216.068 138.588L220.996 135.796L225.878 132.925L230.76 135.796ZM219.085 141.298V146.79H220.413V143.62H220.447L222.633 146.79H223.76V141.298H222.435V144.462H222.389L220.228 141.298H219.085ZM224.594 141.298V146.79H225.922V144.583H228.104V143.502H225.922V142.376H228.343V141.298H224.594ZM228.832 141.298V142.376H230.5V146.79H231.809V142.376H233.474V141.298H228.832Z" fill="black"/>
<path d="M128.273 148.412H126.561L123.798 143.606H123.758C123.813 144.432 123.841 145.037 123.841 145.422V148.412H122.637V142.059H124.336L127.095 146.817H127.126C127.082 145.991 127.061 145.408 127.061 145.066V142.059H128.273V148.412ZM133.517 143.163H131.202V144.801H133.352V145.9H131.202V148.412H129.876V142.059H133.517V143.163ZM138.936 143.18H137.211V148.412H135.864V143.18H134.139V142.059H138.936V143.18Z" fill="black"/>
<path d="M119.023 134.729C119.023 141.862 119.023 144.69 119.023 151.823" stroke="black" stroke-width="1.40506" stroke-linecap="square"/>
<path d="M115.512 150.417C121.548 153.984 123.995 155.515 130.031 159.082" stroke="black" stroke-width="1.40506" stroke-linecap="square"/>
<path d="M127.223 160.955C133.076 157.48 136.123 155.766 141.976 152.291" stroke="black" stroke-width="1.40506" stroke-linecap="square"/>
<path d="M142.209 156.272C142.209 149.413 142.209 146.036 142.209 139.177" stroke="black" stroke-width="1.40506" stroke-linecap="square"/>
<path d="M119.262 138.943C125.115 135.468 128.162 133.519 134.015 130.044" stroke="black" stroke-width="1.40506" stroke-linecap="square"/>
<path d="M130.969 132.386C136.822 135.77 139.869 137.433 145.722 140.817" stroke="black" stroke-width="1.40506" stroke-linecap="square"/>
<path d="M130.386 127.87C130.457 127.83 130.543 127.83 130.614 127.87L138.207 132.133V132.134L145.711 136.586C145.781 136.628 145.824 136.703 145.825 136.784L145.93 145.509L145.825 154.216C145.824 154.297 145.781 154.372 145.711 154.414L138.207 158.866L130.614 163.13C130.543 163.17 130.457 163.17 130.386 163.13L122.792 158.866H122.793L115.289 154.414C115.219 154.372 115.176 154.297 115.175 154.216L115.07 145.509L115.175 136.784C115.176 136.703 115.219 136.628 115.289 136.586L122.792 132.133L130.386 127.87Z" stroke="black" stroke-width="1.40506"/>
<path d="M23.752 142.5H26.252L27.002 141.25" stroke="black" stroke-width="1.8" stroke-linecap="square"/>
<path d="M41.498 142.5H38.998L38.248 141.25" stroke="black" stroke-width="1.8" stroke-linecap="square"/>
<path d="M23.752 147.75H26.252L27.002 149" stroke="black" stroke-width="1.8" stroke-linecap="square"/>
<path d="M41.498 147.75H38.998L38.248 149" stroke="black" stroke-width="1.8" stroke-linecap="square"/>
<rect x="15.9" y="127.9" width="5.7" height="5.7" stroke="black" stroke-width="1.8"/>
<path d="M21.75 130.25H44" stroke="black" stroke-width="1.8" stroke-linecap="square"/>
<path d="M21.75 160.25H44" stroke="black" stroke-width="1.8" stroke-linecap="square"/>
<path d="M47.498 134V156.25" stroke="black" stroke-width="1.8" stroke-linecap="square"/>
<path d="M18 156.25V134" stroke="black" stroke-width="1.8" stroke-linecap="square"/>
<rect x="15.9" y="156.4" width="5.7" height="5.7" stroke="black" stroke-width="1.8"/>
<rect x="44.4" y="127.9" width="5.7" height="5.7" stroke="black" stroke-width="1.8"/>
<rect x="44.4" y="156.4" width="5.7" height="5.7" stroke="black" stroke-width="1.8"/>
<path d="M23.25 139.75L32.75 133.75L42.25 139.75V150.5L32.75 155.75L23.25 150.5V139.75Z" stroke="black" stroke-width="1.8" stroke-linecap="square"/>
<path d="M32.752 134V139" stroke="black" stroke-width="1.8" stroke-linecap="square"/>
<path d="M32.752 155V150" stroke="black" stroke-width="1.8" stroke-linecap="square"/>
<circle cx="32.75" cy="141.25" r="1.85" stroke="black" stroke-width="1.8"/>
<circle cx="2.75" cy="2.75" r="1.85" transform="matrix(1 0 0 -1 30 150.5)" stroke="black" stroke-width="1.8"/>
<path d="M219.447 71H237.106V99.0303H213V78.2879M219.447 71L213 78.2879M219.447 71V78.2879H213" stroke="black" stroke-width="1.68182" stroke-linecap="round"/>
<path d="M237.106 74.3638H240.75V102.674H216.363V99.0304" stroke="black" stroke-width="1.68182" stroke-linecap="round"/>
<path d="M223.371 79.1289V74.3638H233.742V79.1289H223.371Z" stroke="black" stroke-width="1.68182" stroke-linecap="round"/>
<path d="M233.742 82.2124H216.363" stroke="black" stroke-width="1.68182" stroke-linecap="square"/>
<path d="M233.742 85.0151H224.492" stroke="black" stroke-width="1.68182" stroke-linecap="square"/>
<path d="M224.773 98.4698V95.6668V92.8638" stroke="black" stroke-width="1.68182" stroke-linecap="square"/>
<path d="M224.771 88.1128C225.855 88.1128 226.734 88.9911 226.734 90.0747C226.734 91.1584 225.855 92.0366 224.771 92.0366C223.688 92.0365 222.81 91.1583 222.81 90.0747C222.81 88.9912 223.688 88.113 224.771 88.1128Z" stroke="black" stroke-width="1.68182"/>
<path d="M231.08 90.3999C232.164 90.3999 233.043 91.2783 233.043 92.3618C233.043 93.4455 232.164 94.3247 231.08 94.3247C229.997 94.3245 229.118 93.4454 229.118 92.3618C229.118 91.2784 229.997 90.4001 231.08 90.3999Z" stroke="black" stroke-width="1.68182"/>
<path d="M218.186 90.3999C217.102 90.3999 216.223 91.2783 216.223 92.3618C216.223 93.4455 217.102 94.3247 218.186 94.3247C219.269 94.3245 220.147 93.4454 220.147 92.3618C220.147 91.2784 219.269 90.4001 218.186 90.3999Z" stroke="black" stroke-width="1.68182"/>
<path d="M229.258 98.4696L230.533 96.9819C230.799 96.6715 230.975 96.2944 231.042 95.8912L231.22 94.8257" stroke="black" stroke-width="1.68182" stroke-linecap="square"/>
<path d="M220.006 98.4696L218.731 96.9819C218.465 96.6715 218.289 96.2944 218.221 95.8912L218.044 94.8257" stroke="black" stroke-width="1.68182" stroke-linecap="square"/>
<path d="M130.102 92.2129H128.212L125.638 86.1819H125.564C125.658 86.6413 125.706 87.1348 125.706 87.6626V92.2129H124.271V83.8868H126.173L128.724 89.8552H128.787C128.715 89.4565 128.679 88.9819 128.679 88.4314V83.8868H130.102V92.2129ZM133.109 92.2129H131.572V83.8868H135.302V85.2251H133.109V87.5373H135.154V88.8756H133.109V92.2129ZM138.901 92.2129H137.358V85.2479H135.763V83.8868H140.496V85.2479H138.901V92.2129Z" fill="black"/>
<path d="M131.54 75.0684L120.951 81.5139V93.6377L131.54 99.9297L142.283 93.6377V81.5139L131.54 75.0684Z" stroke="black" stroke-width="0.920793"/>
<path d="M109.746 80.4406L114.043 84.7376H118.187V79.8267L131.692 72L145.043 79.8267V84.7376H149.033L153.33 80.4406" stroke="black" stroke-width="0.920793"/>
<path d="M104.992 84.8911H110.21L112.972 87.6535H120.646" stroke="black" stroke-width="0.920793"/>
<path d="M110.209 90.2622H118.036V95.48L131.541 103L145.046 95.48V90.2622H152.719" stroke="black" stroke-width="0.920793"/>
<path d="M142.281 87.6531H150.108L153.177 84.7373H158.702" stroke="black" stroke-width="0.920793"/>
<circle cx="102.995" cy="84.891" r="1.53465" stroke="black" stroke-width="0.920793"/>
<circle cx="1.99505" cy="1.99505" r="1.53465" transform="matrix(-1 0 0 1 162.08 82.896)" stroke="black" stroke-width="0.920793"/>
<circle cx="108.827" cy="79.3661" r="1.53465" stroke="black" stroke-width="0.920793"/>
<circle cx="1.99505" cy="1.99505" r="1.53465" transform="matrix(-1 0 0 1 156.248 77.3711)" stroke="black" stroke-width="0.920793"/>
<circle cx="108.518" cy="90.1083" r="1.53465" stroke="black" stroke-width="0.920793"/>
<circle cx="1.99505" cy="1.99505" r="1.53465" transform="matrix(-1 0 0 1 156.555 88.1133)" stroke="black" stroke-width="0.920793"/>
<path d="M25.3574 79.1097C27.4122 77.1371 33.0013 74.1781 38.9191 78.1234" stroke="black" stroke-width="1.04348" stroke-linecap="square"/>
<path d="M43.3588 84.7806C43.9277 87.5716 43.4411 93.8768 36.9437 96.7697" stroke="black" stroke-width="1.04348" stroke-linecap="square"/>
<path d="M29.4191 97.1648C26.6977 96.3237 21.4005 92.8694 21.9827 85.7809" stroke="black" stroke-width="1.04348" stroke-linecap="square"/>
<circle cx="40.644" cy="79.6025" r="2.19059" fill="black" stroke="black" stroke-width="1.04348"/>
<circle cx="34.7696" cy="97.4379" r="2.19059" transform="rotate(122.31 34.7696 97.4379)" fill="black" stroke="black" stroke-width="1.04348"/>
<circle cx="22.4405" cy="83.5521" r="2.19059" transform="rotate(-118.994 22.4405 83.5521)" fill="black" stroke="black" stroke-width="1.04348"/>
<path d="M19.2124 79.5938L17.9359 82.3292C17.7953 82.6303 17.5198 82.8465 17.1939 82.9114L15.8399 83.1807C15.3516 83.2779 15 83.7064 15 84.2042V89.665C15 90.1308 15.3088 90.5403 15.7568 90.6683L17.9078 91.2829C18.2473 91.3799 18.5147 91.6419 18.6185 91.9793L19.3038 94.2065C19.3896 94.4852 19.3547 94.7872 19.2078 95.0391L18.1176 96.9079C17.8788 97.3174 17.9459 97.8364 18.2811 98.1715L21.8483 101.739C22.1741 102.065 22.6751 102.138 23.0808 101.92L25.1941 100.782C25.4542 100.642 25.7616 100.618 26.0398 100.718L28.469 101.585C28.8299 101.714 29.0911 102.031 29.1494 102.409L29.4118 104.115C29.4901 104.624 29.9281 105 30.4432 105H35.3754C35.8613 105 36.2829 104.665 36.3921 104.191L36.8247 102.317C36.9003 101.989 37.1295 101.718 37.4401 101.588L39.5435 100.712C39.776 100.615 40.0358 100.606 40.2748 100.685L43.0283 101.603C43.3835 101.721 43.775 101.64 44.054 101.391L47.6937 98.1342C48.0444 97.8204 48.1417 97.3108 47.9312 96.8899L47.0325 95.0924C46.8907 94.8089 46.8855 94.4763 47.0184 94.1885L48.143 91.7518C48.2369 91.5483 48.3939 91.3804 48.5908 91.273L50.4562 90.2555C50.7914 90.0727 51 89.7213 51 89.3395V84.713C51 84.3038 50.7608 83.9324 50.3883 83.7631L48.6408 82.9687C48.413 82.8652 48.23 82.6832 48.1251 82.456L47.0281 80.0791C46.8898 79.7794 46.9014 79.4319 47.0594 79.1421L47.9237 77.5577C48.1406 77.16 48.0762 76.6678 47.7641 76.3393L44.09 72.4718C43.7958 72.1621 43.3425 72.063 42.9459 72.2216L40.3847 73.2461C40.0819 73.3672 39.7399 73.3398 39.4603 73.1721L37.8013 72.1767C37.5685 72.037 37.3994 71.8122 37.3297 71.5498L36.8582 69.7755C36.7367 69.3183 36.3228 69 35.8497 69H30.2931C29.7566 69 29.3075 69.4068 29.2547 69.9406L29.1115 71.3859C29.0762 71.7426 28.8603 72.0561 28.5398 72.2164L26.59 73.1913C26.2809 73.3458 25.9154 73.3373 25.6138 73.1686L23.496 71.9836C23.0975 71.7606 22.6003 71.8226 22.2688 72.1366L18.4589 75.746C18.1123 76.0744 18.0328 76.5962 18.2658 77.0129L19.1775 78.6432C19.3413 78.936 19.3543 79.2898 19.2124 79.5938Z" stroke="black" stroke-width="1.04348" stroke-linecap="square"/>
<path d="M30.6828 84.5336V89.0869H29.8513L27.8703 86.2211H27.837V89.0869H26.8743V84.5336H27.7191L29.6845 87.3972H29.7246V84.5336H30.6828ZM31.4782 89.0869V84.5336H34.493V85.3273H32.4409V86.4123H34.2929V87.206H32.4409V89.0869H31.4782ZM34.9672 85.3273V84.5336H38.7068V85.3273H37.3128V89.0869H36.3612V85.3273H34.9672Z" fill="black"/>
<path d="M228.74 26.8047H225.304C224.476 26.8047 223.805 27.4759 223.805 28.3039C223.805 29.0836 224.402 29.7332 225.179 29.7979L227.267 29.9719C228.099 30.0413 228.74 30.7372 228.74 31.5726C228.74 32.4598 228.02 33.1789 227.133 33.1789H223.805" stroke="black" stroke-width="1.5"/>
<path d="M226.273 24.9541V26.8047" stroke="black" stroke-width="1.5"/>
<path d="M226.273 33.3848V35.0297" stroke="black" stroke-width="1.5"/>
<path d="M221.543 18.169L219.149 14.5791C219.103 14.5095 219.025 14.4678 218.941 14.4678H213.523" stroke="black" stroke-width="1.5"/>
<path d="M231.207 18.169L233.601 14.5791C233.647 14.5095 233.725 14.4678 233.809 14.4678H239.227" stroke="black" stroke-width="1.5"/>
<path d="M221.543 41.1982L219.149 44.7881C219.103 44.8576 219.025 44.8994 218.941 44.8994H213.523" stroke="black" stroke-width="1.5"/>
<path d="M231.207 41.1982L233.601 44.7881C233.647 44.8576 233.725 44.8994 233.809 44.8994H239.227" stroke="black" stroke-width="1.5"/>
<circle cx="226.272" cy="29.478" r="11.9985" stroke="black" stroke-width="1.5"/>
<circle cx="226.272" cy="29.478" r="8.29734" stroke="black" stroke-width="1.5"/>
<path d="M214.346 29.478H217.636" stroke="black" stroke-width="1.5"/>
<path d="M226.066 17.3467V20.6366" stroke="black" stroke-width="1.5"/>
<path d="M216.52 36.0063L219.153 34.0348" stroke="black" stroke-width="1.5"/>
<path d="M235.17 37.6924L232.817 35.3926" stroke="black" stroke-width="1.5"/>
<path d="M234.908 29.478H238.198" stroke="black" stroke-width="1.5"/>
<path d="M226.066 37.9082V41.1981" stroke="black" stroke-width="1.5"/>
<path d="M232.98 23.6846L235.614 21.7131" stroke="black" stroke-width="1.5"/>
<path d="M220.467 23.3184L218.114 21.0186" stroke="black" stroke-width="1.5"/>
<circle cx="211.673" cy="14.6731" r="1.92308" stroke="black" stroke-width="1.5"/>
<circle cx="2.67308" cy="2.67308" r="1.92308" transform="matrix(-1 0 0 1 243.75 12)" stroke="black" stroke-width="1.5"/>
<circle cx="2.67308" cy="2.67308" r="1.92308" transform="matrix(1 0 0 -1 209 47.3672)" stroke="black" stroke-width="1.5"/>
<circle cx="241.077" cy="44.6941" r="1.92308" transform="rotate(180 241.077 44.6941)" stroke="black" stroke-width="1.5"/>
<path d="M131.783 35.1406H130.506L128.219 29.7035H128.18C128.196 29.905 128.209 30.0968 128.219 30.2789C128.229 30.4609 128.235 30.6316 128.238 30.7909C128.245 30.9502 128.248 31.0997 128.248 31.2395V35.1406H127.239V28.0114H128.506L130.793 33.3461H130.828C130.815 33.1381 130.803 32.9446 130.793 32.7658C130.787 32.5838 130.78 32.4147 130.774 32.2587C130.771 32.0994 130.769 31.9547 130.769 31.8247V28.0114H131.783V35.1406ZM134.222 35.1406H133.149V28.0114H136.143V28.9379H134.222V31.2395H136.026V32.1758H134.222V35.1406ZM138.952 35.1406H137.889V28.9525H136.528V28.0114H140.307V28.9525H138.952V35.1406Z" fill="black"/>
<path d="M133.645 22.1972V15.4385" stroke="black" stroke-width="1.05124"/>
<path d="M133.645 40.8316V47.5903" stroke="black" stroke-width="1.05124"/>
<path d="M124.088 31.52H119.66" stroke="black" stroke-width="1.05124"/>
<path d="M142.968 31.52H147.396" stroke="black" stroke-width="1.05124"/>
<path d="M138.771 22.1972L140.636 19.1675" stroke="black" stroke-width="1.05124"/>
<path d="M138.771 40.8321L140.636 43.8618" stroke="black" stroke-width="1.05124"/>
<path d="M124.087 36.8799L119.426 39.4435" stroke="black" stroke-width="1.05124"/>
<path d="M142.968 36.8799L147.629 39.4435" stroke="black" stroke-width="1.05124"/>
<path d="M128.518 22.1972L126.653 19.1675" stroke="black" stroke-width="1.05124"/>
<path d="M128.518 40.8321L126.653 43.8618" stroke="black" stroke-width="1.05124"/>
<path d="M124.09 25.9263L119.195 23.3626" stroke="black" stroke-width="1.05124"/>
<path d="M142.967 25.9263L147.861 23.3626" stroke="black" stroke-width="1.05124"/>
<rect x="124.383" y="22.2566" width="18.5257" height="18.5257" stroke="black" stroke-width="1.05124"/>
<path d="M133.644 11.5254C134.769 11.5254 135.682 12.438 135.682 13.5635C135.682 14.689 134.769 15.6016 133.644 15.6016C132.518 15.6015 131.605 14.689 131.605 13.5635C131.606 12.4381 132.518 11.5255 133.644 11.5254Z" stroke="black" stroke-width="1.05124"/>
<path d="M133.644 51.5034C134.769 51.5034 135.682 50.5908 135.682 49.4653C135.682 48.3398 134.769 47.4272 133.644 47.4272C132.518 47.4273 131.605 48.3398 131.605 49.4653C131.606 50.5908 132.518 51.5033 133.644 51.5034Z" stroke="black" stroke-width="1.05124"/>
<path d="M115.525 31.2861C115.525 32.4116 116.438 33.3241 117.563 33.3242C118.689 33.3242 119.602 32.4117 119.602 31.2861C119.601 30.1606 118.689 29.248 117.563 29.248C116.438 29.2481 115.525 30.1607 115.525 31.2861Z" stroke="black" stroke-width="1.05124"/>
<path d="M151.531 31.2861C151.531 32.4116 150.619 33.3241 149.493 33.3242C148.368 33.3242 147.455 32.4117 147.455 31.2861C147.455 30.1606 148.368 29.248 149.493 29.248C150.619 29.2481 151.531 30.1607 151.531 31.2861Z" stroke="black" stroke-width="1.05124"/>
<path d="M141.802 15.2646C142.927 15.2646 143.84 16.1773 143.84 17.3027C143.84 18.4283 142.927 19.3408 141.802 19.3408C140.676 19.3407 139.764 18.4282 139.764 17.3027C139.764 16.1773 140.676 15.2647 141.802 15.2646Z" stroke="black" stroke-width="1.05124"/>
<path d="M141.802 47.7642C142.927 47.7642 143.84 46.8516 143.84 45.7261C143.84 44.6005 142.927 43.688 141.802 43.688C140.676 43.6881 139.764 44.6006 139.764 45.7261C139.764 46.8515 140.676 47.7641 141.802 47.7642Z" stroke="black" stroke-width="1.05124"/>
<path d="M115.525 40.6089C115.525 41.7344 116.438 42.6469 117.563 42.647C118.689 42.647 119.602 41.7345 119.602 40.6089C119.601 39.4834 118.689 38.5708 117.563 38.5708C116.438 38.5709 115.525 39.4835 115.525 40.6089Z" stroke="black" stroke-width="1.05124"/>
<path d="M151.531 40.6089C151.531 41.7344 150.619 42.6469 149.493 42.647C148.368 42.647 147.455 41.7345 147.455 40.6089C147.455 39.4834 148.368 38.5708 149.493 38.5708C150.619 38.5709 151.531 39.4835 151.531 40.6089Z" stroke="black" stroke-width="1.05124"/>
<path d="M125.489 15.2646C126.615 15.2646 127.527 16.1773 127.527 17.3027C127.527 18.4283 126.615 19.3408 125.489 19.3408C124.364 19.3407 123.451 18.4282 123.451 17.3027C123.451 16.1773 124.364 15.2647 125.489 15.2646Z" stroke="black" stroke-width="1.05124"/>
<path d="M125.489 47.7642C126.615 47.7642 127.527 46.8516 127.527 45.7261C127.527 44.6005 126.615 43.688 125.489 43.688C124.364 43.6881 123.451 44.6006 123.451 45.7261C123.451 46.8515 124.364 47.7641 125.489 47.7642Z" stroke="black" stroke-width="1.05124"/>
<path d="M115.525 22.4302C115.525 23.5557 116.438 24.4682 117.563 24.4683C118.689 24.4683 119.602 23.5557 119.602 22.4302C119.601 21.3047 118.689 20.3921 117.563 20.3921C116.438 20.3922 115.525 21.3047 115.525 22.4302Z" stroke="black" stroke-width="1.05124"/>
<path d="M151.531 22.4302C151.531 23.5557 150.619 24.4682 149.493 24.4683C148.368 24.4683 147.455 23.5557 147.455 22.4302C147.455 21.3047 148.368 20.3921 149.493 20.3921C150.619 20.3922 151.531 21.3047 151.531 22.4302Z" stroke="black" stroke-width="1.05124"/>
</svg>
