<svg width="296" height="220" viewBox="0 0 296 220" fill="none" xmlns="http://www.w3.org/2000/svg">
<path d="M49.0598 42.788C48.6345 45.4942 50.536 47.3724 52.8641 48.3084C61.7896 51.8972 74.2104 51.8972 83.1358 48.3084C85.464 47.3724 87.3654 45.4942 86.9402 42.788C86.6788 41.125 85.3864 39.7402 84.4288 38.388C83.1746 36.595 83.05 34.6394 83.0498 32.5588C83.0498 24.5182 76.3118 18 68 18C59.6883 18 52.9503 24.5182 52.9503 32.5588C52.9501 34.6394 52.8254 36.595 51.5712 38.388C50.6137 39.7402 49.3212 41.125 49.0598 42.788Z" stroke="black" stroke-width="3.05958" stroke-linecap="round" stroke-linejoin="round"/>
<path d="M62 56C63.5923 57.2438 65.695 58 68 58C70.305 58 72.4078 57.2438 74 56" stroke="black" stroke-width="3.05958" stroke-linecap="round" stroke-linejoin="round"/>
<path d="M157.149 89.8901C155.507 89.3136 153.74 89 151.899 89C143.172 89 136.097 96.0515 136.097 104.75C136.097 107.001 135.966 109.117 134.649 111.056C133.644 112.519 132.287 114.017 132.012 115.816C131.565 118.744 133.562 120.775 136.007 121.788C145.378 125.671 158.42 125.671 167.792 121.788C170.236 120.775 172.233 118.744 171.786 115.816C171.577 114.441 170.734 113.242 169.9 112.1" stroke="black" stroke-width="3.325" stroke-linecap="round" stroke-linejoin="round"/>
<path d="M159.357 95.4051L169.647 105.695M171.852 100.55C171.852 96.4908 168.562 93.2001 164.502 93.2001C160.443 93.2001 157.152 96.4908 157.152 100.55C157.152 104.609 160.443 107.9 164.502 107.9C168.562 107.9 171.852 104.609 171.852 100.55Z" stroke="black" stroke-width="3.325" stroke-linecap="round"/>
<path d="M143.5 124.7C144.463 128.323 147.859 131 151.9 131C155.941 131 159.337 128.323 160.3 124.7" stroke="black" stroke-width="3.325" stroke-linecap="round" stroke-linejoin="round"/>
<path d="M43 197.351C44.5423 197.811 46.5047 198.29 48.7902 198.729M88.6127 197.351C86.8891 197.89 85.1392 198.347 83.3771 198.729M48.7902 198.729V183.462C48.7902 156.402 83.3771 158.647 83.3771 183.462V198.729M48.7902 198.729C57.4415 200.39 70.7231 201.473 83.3771 198.729" stroke="black" stroke-width="3.49748" stroke-linecap="round"/>
<path d="M72.8012 206.686C68.2798 208.741 64.0954 208.741 59.0938 206.686" stroke="black" stroke-width="3.49748" stroke-linecap="round"/>
<path d="M71.9354 133.052H63.0734M46.0004 99.4208C45.9686 96.2054 47.7022 93.2027 50.5028 91.6225M88.9996 99.4209C89.0314 96.2054 87.2978 93.2027 84.4972 91.6225M80.7973 104.251C80.7973 100.725 79.3968 97.3442 76.9039 94.8513C74.411 92.3584 71.0299 90.9579 67.5044 90.9579C63.9789 90.9579 60.5977 92.3584 58.1048 94.8513C55.6119 97.3442 54.2114 100.725 54.2114 104.251C54.2114 111.097 52.4844 115.785 50.5551 118.885C48.9277 121.5 48.114 122.808 48.1439 123.173C48.1769 123.577 48.2625 123.731 48.588 123.972C48.8819 124.19 50.2071 124.19 52.8574 124.19H82.1513C84.8016 124.19 86.1268 124.19 86.4208 123.972C86.7463 123.731 86.8318 123.577 86.8649 123.173C86.8947 122.808 86.081 121.5 84.4536 118.885C82.5244 115.785 80.7973 111.097 80.7973 104.251Z" stroke="black" stroke-width="3.18897" stroke-linecap="round" stroke-linejoin="round"/>
<path d="M161.048 198.636C162.111 202.604 159.757 206.682 155.79 207.745C151.822 208.808 147.744 206.453 146.681 202.486M127.361 182.767C126.396 179.301 127.4 175.554 129.969 173.035M152.373 168.209C153.127 166.853 153.375 165.213 152.942 163.595C152.056 160.289 148.658 158.327 145.352 159.213C142.046 160.099 140.083 163.497 140.969 166.803C141.403 168.421 142.438 169.717 143.769 170.515M172.633 170.637C171.736 167.152 168.993 164.409 165.508 163.512M165.621 177.393C164.737 174.09 162.374 171.329 159.054 169.716C155.734 168.102 151.728 167.77 147.918 168.791C144.108 169.812 140.805 172.103 138.736 175.16C136.667 178.217 136.002 181.79 136.887 185.092C138.351 190.556 138.067 194.915 137.142 198.227C136.089 202.002 135.562 203.89 135.704 204.269C135.867 204.702 135.985 204.821 136.417 204.989C136.794 205.135 138.38 204.71 141.552 203.86L170.966 195.979C174.138 195.129 175.724 194.704 175.977 194.389C176.268 194.028 176.31 193.866 176.234 193.409C176.168 193.009 174.768 191.638 171.968 188.896C169.511 186.489 167.085 182.856 165.621 177.393Z" stroke="black" stroke-width="3.60294" stroke-linecap="round" stroke-linejoin="round"/>
<path d="M239.403 205.854C240.293 205.069 241.651 205.154 242.437 206.044C243.222 206.934 243.138 208.292 242.248 209.077C240.189 210.895 237.478 212 234.515 212C231.552 212 228.842 210.895 226.782 209.077C225.893 208.292 225.809 206.934 226.594 206.044C227.379 205.154 228.737 205.069 229.627 205.854C230.931 207.005 232.639 207.702 234.515 207.702C236.391 207.702 238.099 207.006 239.403 205.854ZM234.515 160C235.44 160 236.357 160.078 237.258 160.23C238.428 160.428 239.217 161.538 239.02 162.708C238.822 163.878 237.712 164.666 236.542 164.469C235.877 164.356 235.199 164.299 234.515 164.299C231.29 164.299 228.197 165.58 225.916 167.86C223.635 170.141 222.354 173.235 222.354 176.46C222.354 184.212 220.392 189.655 218.093 193.35C217.476 194.341 216.981 195.136 216.599 195.769C217.179 195.774 217.888 195.776 218.747 195.776H250.283C251.142 195.776 251.85 195.774 252.43 195.769C252.048 195.136 251.554 194.34 250.937 193.349C249.643 191.269 248.448 188.623 247.655 185.308C247.379 184.153 248.092 182.994 249.246 182.718C250.4 182.442 251.559 183.154 251.835 184.308C252.519 187.168 253.533 189.386 254.586 191.078C255.453 192.471 256.133 193.565 256.59 194.357C256.816 194.75 257.019 195.123 257.168 195.45C257.242 195.614 257.324 195.81 257.387 196.021C257.439 196.197 257.535 196.563 257.499 197.005C257.473 197.32 257.411 197.838 257.115 198.37C256.82 198.902 256.413 199.228 256.159 199.417C255.605 199.828 254.961 199.92 254.743 199.952C254.405 200.002 254.016 200.028 253.616 200.044C252.811 200.075 251.689 200.074 250.283 200.074H218.747C217.341 200.074 216.219 200.075 215.414 200.044C215.014 200.028 214.625 200.002 214.286 199.952C214.068 199.92 213.424 199.828 212.87 199.417C212.616 199.228 212.21 198.901 211.915 198.369C211.62 197.838 211.557 197.32 211.531 197.005C211.495 196.563 211.591 196.197 211.644 196.021C211.706 195.81 211.787 195.614 211.861 195.45C212.01 195.123 212.213 194.75 212.44 194.357C212.896 193.565 213.578 192.472 214.444 191.079C216.299 188.099 218.056 183.449 218.056 176.46C218.056 172.095 219.79 167.908 222.877 164.821C225.964 161.735 230.15 160 234.515 160Z" fill="black"/>
<circle cx="247.977" cy="171.384" r="6.96333" stroke="black" stroke-width="3.5817"/>
<path d="M250.592 104.085C248.758 78.0985 222.694 81.9201 221.93 104.085C221.547 109.436 220.864 112.219 218.113 116.805C215.937 120.438 217.424 124.722 222.316 124.722H250.978C256.786 124.722 257.096 119.517 255.181 116.805C251.513 111.608 250.808 107.143 250.592 104.085Z" stroke="black" stroke-width="3.54445" stroke-linecap="round"/>
<path d="M241.428 130.837C241.428 138.862 231.874 139.244 231.109 130.837" stroke="black" stroke-width="3.54445" stroke-linecap="round"/>
<path d="M231.512 61.7996C233.495 64.4438 237.461 66.427 240.767 61.7996" stroke="black" stroke-width="3.25183" stroke-linecap="round"/>
<path d="M219.05 42.6152C222.749 13.6912 250.984 19.0379 251.976 42.207C252.011 43.0273 252.194 43.8504 252.561 44.5848L254.787 49.0359C256.545 52.5523 253.988 56.6895 250.056 56.6895H221.179C217.341 56.6895 214.782 52.7304 216.356 49.2308L218.605 44.233C218.833 43.7262 218.98 43.1664 219.05 42.6152Z" stroke="black" stroke-width="3.25183"/>
<circle cx="234.669" cy="16.3053" r="3.30531" fill="black"/>
<path d="M158.444 57.7101H148.824C148.339 57.7101 147.937 58.1068 148.009 58.5867C148.464 61.6275 151.273 63 153.476 63C157.841 63 159.091 60.3643 159.246 58.5107C159.284 58.0579 158.899 57.7101 158.444 57.7101Z" stroke="black" stroke-width="2.92866" stroke-linecap="round"/>
<path d="M140.49 31.6675C140.49 24.7148 146 21.7085 149.053 20.7107C149.267 20.6409 149.449 20.4983 149.561 20.3036L151.215 17.4393C151.372 17.1675 151.662 17 151.976 17H154.839C155.18 17 155.491 17.1979 155.635 17.5075L156.906 20.2352C157.016 20.4707 157.227 20.645 157.476 20.7181C164.281 22.7133 166.457 27.8927 166.457 31.6675V40.0832C166.457 44.1228 168.704 46.5754 169.826 47.2967C174.394 50.9035 171.749 52.8271 169.104 52.8271H137.75C133.42 52.8271 132.771 49.2153 136.162 47.2967C139.624 44.9884 140.49 41.5259 140.49 40.0832V31.6675Z" stroke="black" stroke-width="2.92866" stroke-linecap="round"/>
</svg>
