<svg width="260" height="178" viewBox="0 0 260 178" fill="none" xmlns="http://www.w3.org/2000/svg">
<path d="M36.0604 17.0572V13.8115C36.0604 10.692 33.5315 8.16321 30.412 8.16318H16.3924C16.216 8.16324 16.0655 8.29113 16.0368 8.46527L11.1849 37.9492H16.9208C17.5181 37.9492 18.0023 38.4335 18.0024 39.0308C18.0024 39.6281 17.5181 40.1124 16.9208 40.1124H11.0434C9.78265 40.1124 8.8229 38.9817 9.02761 37.7377L13.9023 8.11389C14.1029 6.89469 15.1568 6.00006 16.3924 6H30.412C34.7262 6.00003 38.2235 9.49734 38.2235 13.8115V17.0572C38.2235 17.6545 37.7393 18.1388 37.1419 18.1388C36.5446 18.1388 36.0604 17.6546 36.0604 17.0572Z" fill="black"/>
<path d="M39.8355 22.7965C39.8355 20.0753 37.6295 17.8693 34.9083 17.8692H22.5538L18.2013 43.611H23.4215L24.8864 34.9339L24.904 34.8426C25.1058 33.9065 25.9351 33.231 26.901 33.231H31.303C36.0154 33.231 39.8355 29.4108 39.8355 24.6984V22.7965ZM41.9987 24.6984C41.9987 30.6055 37.21 35.3941 31.303 35.3942H27.0027L25.5375 44.0713C25.3715 45.0545 24.5202 45.7742 23.5232 45.7742H18.0591C16.7947 45.7742 15.8339 44.6373 16.0447 43.3906L20.4378 17.4085L20.4554 17.3172C20.6573 16.3813 21.4864 15.7061 22.4521 15.7061H34.9083C38.8242 15.7061 41.9987 18.8806 41.9987 22.7965V24.6984Z" fill="black"/>
<path d="M32.1203 23.1186C32.4953 22.6537 33.1761 22.5808 33.6411 22.9557C34.106 23.3307 34.1792 24.0117 33.8042 24.4767C32.2257 26.4341 29.6974 27.4393 27.3606 27.9452C24.9956 28.4572 22.6298 28.5004 21.1471 28.3808C20.5517 28.3328 20.1079 27.8111 20.1559 27.2157C20.2039 26.6203 20.7255 26.1767 21.3208 26.2247C22.6241 26.3298 24.7744 26.2919 26.9029 25.8311C29.0597 25.3641 31.0027 24.5045 32.1203 23.1186Z" fill="black"/>
<path d="M144.455 26.5C144.455 16.5836 136.416 8.54483 126.5 8.54483C116.584 8.54483 108.545 16.5836 108.545 26.5C108.545 36.4164 116.584 44.4552 126.5 44.4552V47C115.178 47 106 37.8218 106 26.5C106 15.1782 115.178 6 126.5 6C137.822 6 147 15.1782 147 26.5C147 37.8218 137.822 47 126.5 47V44.4552C136.416 44.4552 144.455 36.4164 144.455 26.5Z" fill="black"/>
<path d="M130.475 15.7552C133.879 15.7553 136.57 18.6416 136.331 22.0375C136.097 25.3572 133.508 28.0271 130.197 28.362L123.111 29.0786L122.192 32.9397C122.025 33.6402 121.399 34.1345 120.679 34.1346H116.54C115.532 34.1345 114.79 33.1891 115.03 32.2094L118.084 19.7415C118.657 17.4012 120.755 15.7553 123.165 15.7552H130.475ZM123.165 18.3001C121.928 18.3001 120.85 19.1453 120.556 20.347L117.802 31.5897H119.897L120.799 27.8048L120.814 27.7449C120.986 27.1313 121.517 26.6823 122.155 26.6177L129.941 25.8302C132.02 25.6199 133.646 23.9435 133.792 21.8591C133.928 19.9353 132.403 18.3001 130.475 18.3001H123.165Z" fill="black"/>
<path d="M137.119 24.175C137.232 23.4815 137.885 23.0107 138.579 23.1235C139.273 23.2364 139.743 23.8901 139.631 24.5837C138.956 28.7287 135.52 31.8659 131.331 32.1616L126.323 32.515L125.282 35.8488C125.059 36.5603 124.429 37.0671 123.686 37.1317L120.812 37.3816C120.112 37.4424 119.495 36.9241 119.435 36.224C119.374 35.524 119.892 34.907 120.592 34.8461L122.994 34.6371L123.923 31.664L123.952 31.5762C124.271 30.6788 125.092 30.0509 126.048 29.9835L131.151 29.6231C134.163 29.4105 136.634 27.1551 137.119 24.175Z" fill="black"/>
<path d="M136.318 74.0065C136.318 69.8428 132.943 66.4675 128.779 66.4675H118.72C116.91 66.4675 115.371 67.7853 115.091 69.5728L110.708 97.59H116.465L118.015 87.6702C118.235 86.2588 119.451 85.2184 120.88 85.2183H126.846C132.077 85.2183 136.318 80.9775 136.318 75.7462V74.0065ZM139.798 75.7462C139.798 82.8992 133.999 88.6979 126.846 88.6979H121.376L119.724 99.2713C119.562 100.306 118.671 101.069 117.623 101.07H109.127C107.822 101.07 106.824 99.9043 107.026 98.6147L111.653 69.0348C112.197 65.5538 115.196 62.9879 118.72 62.9879H128.779C134.865 62.9879 139.798 67.9211 139.798 74.0065V75.7462Z" fill="black"/>
<path d="M138.058 69.5604C142.096 69.5604 145.282 72.9934 144.981 77.0201L144.628 81.7381C144.123 88.4975 138.491 93.7239 131.712 93.7239H126.542C126.448 93.7239 126.367 93.7916 126.351 93.8844L124.253 106.096H114.748C113.414 106.096 112.41 104.882 112.659 103.571L113.345 99.9709C113.525 99.0271 114.436 98.4075 115.38 98.5872C116.323 98.767 116.943 99.678 116.763 100.622L116.384 102.616H121.32L122.922 93.295C123.225 91.5325 124.754 90.2444 126.542 90.2444H131.712C136.669 90.2444 140.789 86.4221 141.158 81.4787L141.511 76.7608C141.661 74.7523 140.072 73.04 138.058 73.04C137.097 73.04 136.318 72.261 136.318 71.3002C136.318 70.3393 137.097 69.5604 138.058 69.5604Z" fill="black"/>
<path d="M242.85 16.1558C242.85 12.0538 239.524 8.72842 235.422 8.72842H220.37L215.189 41.7726H220.949L223.375 28.7368H233.3C238.574 28.7368 242.85 24.4614 242.85 19.1874V16.1558ZM245.578 19.1874C245.578 25.9682 240.081 31.4652 233.3 31.4652H225.642L223.217 44.501H212L217.815 7.40921L217.829 7.33372C217.986 6.5611 218.667 6 219.463 6H235.422C241.031 6 245.578 10.5469 245.578 16.1558V19.1874Z" fill="black"/>
<path d="M239.917 15.3979C245.857 15.398 250.595 20.3628 250.367 26.2868C250.12 32.7114 244.84 37.8316 238.4 37.8316H232.618L230.496 49.3516H219.531L221.904 36.6942L224.586 37.1969L222.819 46.6232H228.224L230.346 35.1032H238.4C243.364 35.1032 247.45 31.1516 247.641 26.182C247.81 21.7937 244.298 18.1264 239.917 18.1264H227.866L227.096 25.8344L224.381 25.5629L225.397 15.3979H239.917Z" fill="black"/>
<path d="M32.5893 77.3666C33.2197 77.3666 33.7307 77.8776 33.7307 78.508C33.7307 79.1384 33.2197 79.6494 32.5893 79.6494H28.7545L28.3916 82.0995C28.2993 82.7231 27.719 83.1537 27.0954 83.0613C26.4718 82.969 26.0412 82.3887 26.1336 81.7651L26.5767 78.7738L26.5896 78.6985C26.74 77.9284 27.4159 77.3666 28.2076 77.3666H32.5893Z" fill="black"/>
<path d="M47.4281 65.4451V64.811C47.4281 64.1806 47.9391 63.6695 48.5695 63.6695C49.1999 63.6695 49.7109 64.1806 49.7109 64.811V65.4451C49.7109 66.0755 49.1999 66.5865 48.5695 66.5865C47.9391 66.5865 47.4281 66.0755 47.4281 65.4451ZM49.7109 102.351C49.7109 103.262 48.9728 104 48.0622 104H10.6487C9.73816 104 9 103.262 9 102.351V64.811C9 63.9004 9.73816 63.1622 10.6487 63.1622H44.0038C44.6342 63.1622 45.1452 63.6733 45.1452 64.3037C45.1452 64.9341 44.6342 65.4451 44.0038 65.4451H11.2829V101.717H47.4281V68.8694C47.4281 68.239 47.9391 67.7279 48.5695 67.7279C49.1999 67.7279 49.7109 68.239 49.7109 68.8694V102.351Z" fill="black"/>
<path d="M37.1507 79.0155C38.9143 79.0155 40.2818 80.5561 40.0727 82.3073L39.7259 85.2124C39.4137 87.8271 37.196 89.7956 34.5627 89.7957H31.9712L31.483 94.7758C31.4002 95.62 30.6904 96.2637 29.8422 96.2638H27.0047C26.3743 96.2638 25.8633 95.7527 25.8633 95.1223C25.8633 94.4919 26.3743 93.9809 27.0047 93.9809H29.2673L29.7555 89.0008L29.7649 88.922C29.8826 88.1168 30.5746 87.5128 31.3963 87.5128H34.5627C36.0399 87.5128 37.284 86.4084 37.4591 84.9416L37.8059 82.0365C37.8528 81.6438 37.5462 81.2984 37.1507 81.2984C36.5203 81.2984 36.0093 80.7873 36.0093 80.1569C36.0093 79.5265 36.5203 79.0155 37.1507 79.0155Z" fill="black"/>
<path d="M31.3922 71.5327C35.0258 71.5327 37.8845 74.6366 37.5859 78.2579L37.3887 80.6468C37.1337 83.7384 34.5502 86.1176 31.4482 86.1176H27.7428L26.8062 92.5689C26.6885 93.3794 25.9936 93.9808 25.1746 93.9808H20.9888C19.9966 93.9808 19.2291 93.1107 19.353 92.1262L21.7619 72.9756L21.7733 72.8991C21.9095 72.1132 22.5927 71.5327 23.3978 71.5327H31.3922ZM21.7077 91.6979H24.6256L25.5622 85.2467L25.5751 85.1714C25.7236 84.3992 26.4004 83.8348 27.1939 83.8348H31.4482C33.3622 83.8347 34.9562 82.3666 35.1135 80.459L35.3107 78.0704C35.4996 75.7794 33.691 73.8156 31.3922 73.8156H23.9571L21.7077 91.6979Z" fill="black"/>
<path d="M243.51 80.7964C243.51 76.97 240.408 73.868 236.582 73.868H234.408V71.5586C234.408 68.1823 231.671 65.4453 228.295 65.4453H211.072L204.463 95.1851C204.369 95.6093 204.691 96.0116 205.126 96.0116H215.288L213.574 103.605C213.478 104.03 213.801 104.434 214.236 104.434H221.072C221.777 104.434 222.385 103.942 222.533 103.253L224.725 93.0229H232.778C238.705 93.0229 243.51 88.218 243.51 82.2907V80.7964ZM245.955 82.2907C245.955 89.5685 240.056 95.4682 232.778 95.4682H226.702L224.924 103.765C224.535 105.582 222.93 106.88 221.072 106.88H214.236C212.233 106.88 210.747 105.021 211.188 103.067L212.229 98.4569H205.126C203.127 98.4569 201.642 96.6058 202.076 94.6544L209.11 63H228.295C232.977 63 236.781 66.7607 236.851 71.4267C241.904 71.5695 245.955 75.7097 245.955 80.7964V82.2907Z" fill="black"/>
<path d="M213.542 92.3068C213.7 91.6503 214.361 91.246 215.017 91.4039C215.674 91.5618 216.078 92.2221 215.92 92.8786L215.49 94.6675C215.332 95.3239 214.671 95.728 214.015 95.5701C213.359 95.4122 212.954 94.7519 213.112 94.0954L213.542 92.3068ZM215.263 85.1521C215.421 84.4956 216.081 84.0913 216.738 84.2492C216.91 84.2906 217.064 84.3668 217.196 84.4681C217.227 84.4658 217.258 84.4644 217.29 84.4644H219.417C220.092 84.4644 220.64 85.0118 220.64 85.687C220.64 86.3623 220.092 86.9097 219.417 86.9097H217.356L216.78 89.3014C216.622 89.9578 215.962 90.3619 215.306 90.2041C214.649 90.0461 214.245 89.3858 214.403 88.7293L215.263 85.1521ZM227.075 84.3556C227.741 84.2408 228.373 84.6871 228.488 85.3525C228.603 86.0178 228.156 86.6502 227.491 86.7651C226.939 86.8603 226.374 86.9097 225.8 86.9097H223.672C222.997 86.9096 222.449 86.3622 222.449 85.687C222.449 85.0118 222.997 84.4645 223.672 84.4644H225.8C226.234 84.4644 226.66 84.4272 227.075 84.3556ZM231.449 81.8838C231.891 81.3735 232.663 81.3184 233.173 81.7606C233.684 82.2029 233.739 82.9751 233.296 83.4853C232.553 84.3432 231.667 85.0682 230.678 85.6271C230.091 85.9595 229.345 85.7525 229.012 85.1649C228.68 84.5771 228.887 83.831 229.475 83.4986C230.22 83.0772 230.888 82.5305 231.449 81.8838ZM216.984 77.9972C217.142 77.3407 217.802 76.9366 218.459 77.0945C219.115 77.2525 219.519 77.9127 219.361 78.5692L218.501 82.1464C218.343 82.803 217.683 83.2072 217.026 83.0494C216.37 82.8915 215.966 82.2312 216.124 81.5746L216.984 77.9972ZM233.416 77.0234C233.55 76.3616 234.195 75.9334 234.857 76.0671C235.519 76.2009 235.947 76.846 235.813 77.5079L235.52 78.9574C235.406 79.5204 235.246 80.0648 235.043 80.5865C234.799 81.216 234.091 81.5282 233.461 81.2838C232.832 81.0395 232.52 80.3309 232.764 79.7014C232.916 79.3088 233.037 78.8984 233.123 78.4729L233.416 77.0234ZM221.467 71.6945C222.142 71.6945 222.69 72.2419 222.69 72.9171C222.69 73.5924 222.142 74.1398 221.467 74.1398H220.427L220.222 74.9917C220.064 75.6483 219.404 76.0526 218.747 75.8947C218.091 75.7368 217.686 75.0765 217.844 74.42L218.5 71.6945H221.467ZM236.988 71.6945L236.399 74.6089C236.265 75.2707 235.62 75.6989 234.958 75.5651C234.302 75.4324 233.875 74.7962 234 74.1398H233.49C232.815 74.1398 232.267 73.5924 232.267 72.9171C232.267 72.2419 232.815 71.6945 233.49 71.6945H236.988ZM229.482 71.6945C230.158 71.6945 230.705 72.2419 230.705 72.9171C230.705 73.5924 230.158 74.1398 229.482 74.1398H225.475C224.799 74.1398 224.252 73.5924 224.252 72.9171C224.252 72.2419 224.799 71.6945 225.475 71.6945H229.482Z" fill="black"/>
<path d="M140.557 145.303C140.557 134.116 131.489 125.048 120.303 125.048C109.116 125.048 100.048 134.116 100.048 145.303C100.048 156.489 109.116 165.557 120.303 165.557V167.605C107.985 167.605 98 157.62 98 145.303C98 132.985 107.985 123 120.303 123C132.62 123 142.605 132.985 142.605 145.303C142.605 157.62 132.62 167.605 120.303 167.605V165.557C131.489 165.557 140.557 156.489 140.557 145.303Z" fill="black"/>
<path d="M121.573 132.786C125.838 132.786 129.196 136.427 128.85 140.679C128.476 145.284 124.629 148.83 120.009 148.83H118.404L117.153 154.861H108.727L112.615 132.786H121.573ZM111.167 152.813H115.486L116.737 146.782H120.009C123.562 146.782 126.52 144.055 126.808 140.513C127.057 137.454 124.642 134.834 121.573 134.834H114.334L111.167 152.813Z" fill="black"/>
<path d="M130.103 137.314C130.313 137.83 130.486 138.358 130.629 138.897C131.406 141.846 131.309 145.336 129.267 147.949C127.276 150.498 124.069 151.493 121.079 151.824C120.792 153.49 120.506 155.156 120.22 156.822C120.116 157.439 119.532 157.93 118.9 157.924C117.365 157.955 115.831 157.985 114.296 158.015L112.676 158.047C112.335 158.054 111.994 158.061 111.652 158.067V155.979C111.994 155.986 112.335 155.992 112.676 155.999L114.296 156.031C115.715 156.059 117.134 156.087 118.553 156.115C118.895 154.511 119.236 152.908 119.578 151.304C119.692 150.736 120.18 150.347 120.711 150.311C123.583 150.142 126.534 149.349 128.343 147.202C130.167 145.075 130.451 141.913 129.82 139.094C129.706 138.583 129.563 138.079 129.386 137.589C129.344 137.471 129.301 137.353 129.258 137.235C129.493 137.145 129.727 137.055 129.962 136.965C130.009 137.081 130.056 137.197 130.103 137.314ZM118.483 156.445C118.48 156.459 118.477 156.472 118.475 156.486C118.477 156.473 118.48 156.459 118.483 156.445Z" fill="black"/>
<path d="M120.2 137.793C122.192 137.793 123.657 139.658 123.185 141.593L123.131 141.815C122.746 143.395 121.33 144.506 119.704 144.506H116.156L117.794 137.793H120.2ZM118.764 142.458H119.704C120.386 142.458 120.98 141.992 121.141 141.329L121.195 141.108C121.353 140.463 120.864 139.841 120.2 139.841H119.402L118.764 142.458Z" fill="black"/>
<path d="M40.2534 132.517C40.2534 128.973 37.3571 126.1 33.7843 126.1H17.3016L11.2962 147.8H19.6809L21.9157 139.517H39.3124C44.5741 139.517 48.8395 143.748 48.8395 148.967C48.8395 154.186 44.5741 158.417 39.3124 158.417H25.9687L23.4987 166H15.5534V163.9H21.9577L24.4277 156.317H39.3124C43.4048 156.317 46.7224 153.026 46.7224 148.967C46.7224 144.907 43.4048 141.617 39.3124 141.617H23.5407L21.306 149.9H8.51953L15.6871 124H33.7843C38.5263 124 42.3705 127.813 42.3705 132.517V133.1H40.2534V132.517Z" fill="black"/>
<path d="M34.1419 133.275C34.1419 132.599 33.589 132.05 32.9069 132.05H24.6336L24.0635 134.5H32.9069C33.589 134.5 34.1419 133.952 34.1419 133.275ZM36.2591 133.275C36.2591 135.111 34.7583 136.6 32.9069 136.6H21.4023L22.9493 129.95H32.9069C34.7583 129.95 36.2591 131.439 36.2591 133.275Z" fill="black"/>
<path d="M39.7786 149.258C39.7786 148.582 39.2257 148.033 38.5436 148.033H30.2704L29.7002 150.483H38.5436C39.2257 150.483 39.7786 149.935 39.7786 149.258ZM41.8958 149.258C41.8958 151.095 40.395 152.583 38.5436 152.583H27.0391L28.586 145.933H38.5436C40.395 145.933 41.8958 147.422 41.8958 149.258Z" fill="black"/>
<path d="M239.826 144.733V142.534C239.826 140.091 238.815 137.884 237.189 136.309C236.203 142.38 231.234 147.259 224.926 147.833C224.285 147.891 223.719 147.419 223.661 146.779C223.603 146.138 224.075 145.572 224.715 145.514C230.324 145.004 234.69 140.359 235.019 134.772C233.857 134.193 232.546 133.867 231.159 133.867H218.701L214.621 159.831C214.512 160.523 213.916 161.033 213.215 161.033H204.423C203.552 161.033 202.885 160.257 203.016 159.396L208.371 124.209L208.382 124.144C208.514 123.482 209.096 123 209.778 123H226.373C232.242 123 237.013 127.681 237.349 133.445C240.25 135.425 242.155 138.757 242.155 142.534V144.733C242.155 151.235 236.884 156.505 230.383 156.505H224.393L222.383 169.275C222.274 169.967 221.677 170.476 220.977 170.476H212.401C211.758 170.476 211.237 169.955 211.237 169.312C211.237 168.669 211.758 168.148 212.401 168.148H220.203L222.213 155.378L222.224 155.314C222.359 154.655 222.94 154.177 223.618 154.177H230.383C235.598 154.177 239.826 149.949 239.826 144.733ZM205.477 158.704H212.441L216.521 132.74L216.532 132.676C216.667 132.017 217.248 131.538 217.927 131.538H231.159C232.445 131.538 233.679 131.76 234.826 132.165C233.95 128.275 230.487 125.329 226.373 125.329H210.556L205.477 158.704Z" fill="black"/>
</svg>
