<svg width="230" height="155" viewBox="0 0 230 155" fill="none" xmlns="http://www.w3.org/2000/svg">
<path d="M208.958 138.065C209.528 136.867 208.72 136.211 208.245 136.033C208.34 134.323 207.968 133.467 207.77 133.254C206.439 131.543 203.967 131.401 202.898 131.543C199.761 131.971 199.294 134.643 199.452 135.926C198.692 136.268 198.581 137.067 198.62 137.423C198.81 138.278 199.492 138.563 199.808 138.599C201.329 141.849 203.215 142.448 203.967 142.341C206.249 141.913 207.453 139.811 207.77 138.813C208.245 138.727 208.754 138.492 208.958 138.065Z" stroke="black" stroke-width="0.63042"/>
<path d="M219.205 135.426C219.734 134.314 218.985 133.705 218.545 133.539C218.633 131.951 218.288 131.157 218.104 130.958C216.871 129.37 214.581 129.238 213.591 129.37C210.684 129.767 210.251 132.249 210.398 133.44C209.694 133.758 209.591 134.499 209.628 134.83C209.804 135.624 210.435 135.889 210.728 135.922C212.138 138.94 213.884 139.496 214.581 139.396C216.695 138.999 217.811 137.047 218.104 136.12C218.545 136.041 219.016 135.823 219.205 135.426Z" stroke="black" stroke-width="0.63042"/>
<path d="M188.502 135.426C187.973 134.314 188.722 133.705 189.162 133.539C189.074 131.951 189.419 131.157 189.603 130.958C190.836 129.37 193.126 129.238 194.116 129.37C197.023 129.767 197.456 132.249 197.309 133.44C198.013 133.758 198.116 134.499 198.08 134.83C197.903 135.624 197.272 135.889 196.979 135.922C195.569 138.94 193.823 139.496 193.126 139.396C191.012 138.999 189.896 137.047 189.603 136.12C189.162 136.041 188.691 135.823 188.502 135.426Z" stroke="black" stroke-width="0.63042"/>
<path d="M203.808 143.133C208.556 143.133 212.406 146.982 212.406 151.73V154.283H195.21V151.73C195.21 146.982 199.059 143.133 203.808 143.133Z" stroke="black" stroke-width="0.63042"/>
<path d="M199.312 149.018V154.288" stroke="black" stroke-width="0.63042" stroke-linecap="round"/>
<path d="M208.225 149.018V154.288" stroke="black" stroke-width="0.63042" stroke-linecap="round"/>
<path d="M212.798 151.886L223.029 151.886C225.432 142.43 213.884 136.307 207.605 143.98" stroke="black" stroke-width="0.63042"/>
<path d="M194.909 151.886L184.678 151.886C182.275 142.43 193.824 136.307 200.102 143.98" stroke="black" stroke-width="0.63042"/>
<path d="M218.998 147.003V151.808" stroke="black" stroke-width="0.63042" stroke-linecap="round"/>
<path d="M188.707 147.003V151.808" stroke="black" stroke-width="0.63042" stroke-linecap="round"/>
<path d="M198.227 129.874C200.087 128.375 204.892 126.277 209.233 129.874" stroke="black" stroke-width="0.63042" stroke-linecap="round"/>
<rect x="199.55" y="116.315" width="8.36035" height="9.75547" rx="4.18018" stroke="black" stroke-width="0.63042"/>
<path d="M8.22656 137.517V133.856C8.22656 133.71 8.34511 133.592 8.49134 133.592H31.7125C31.8587 133.592 31.9773 133.71 31.9773 133.856V137.517" stroke="black" stroke-width="0.79432" stroke-linecap="round"/>
<path d="M20.002 128.881V133.297" stroke="black" stroke-width="0.79432" stroke-linecap="round"/>
<path d="M13.918 127.703V123.157C13.918 121.548 15.2219 120.244 16.8305 120.244H23.666C25.2745 120.244 26.5785 121.548 26.5785 123.157V127.703" stroke="black" stroke-width="0.79432" stroke-linecap="round"/>
<path d="M23.7324 124.955V127.801" stroke="black" stroke-width="0.79432" stroke-linecap="round"/>
<path d="M16.666 124.955V127.801" stroke="black" stroke-width="0.79432" stroke-linecap="round"/>
<circle cx="20.3945" cy="115.533" r="3.136" stroke="black" stroke-width="0.79432"/>
<path d="M1.35547 154.398V149.852C1.35547 148.243 2.65944 146.939 4.26797 146.939H11.1035C12.712 146.939 14.016 148.243 14.016 149.852V154.398" stroke="black" stroke-width="0.79432" stroke-linecap="round"/>
<path d="M11.1699 151.65V154.496" stroke="black" stroke-width="0.79432" stroke-linecap="round"/>
<path d="M4.10352 151.65V154.496" stroke="black" stroke-width="0.79432" stroke-linecap="round"/>
<circle cx="7.83199" cy="142.228" r="3.136" stroke="black" stroke-width="0.79432"/>
<path d="M25.6953 154.398V149.852C25.6953 148.243 26.9993 146.939 28.6078 146.939H35.4433C37.0518 146.939 38.3558 148.243 38.3558 149.852V154.398" stroke="black" stroke-width="0.79432" stroke-linecap="round"/>
<path d="M35.5098 151.65V154.496" stroke="black" stroke-width="0.79432" stroke-linecap="round"/>
<path d="M28.4434 151.65V154.496" stroke="black" stroke-width="0.79432" stroke-linecap="round"/>
<circle cx="32.1718" cy="142.228" r="3.136" stroke="black" stroke-width="0.79432"/>
<path d="M193.941 71.9776C194.017 72.3304 194.321 72.9349 194.993 73.4584C195.966 74.2175 196.917 75.1568 197.379 76.3019C198.054 77.9789 199.461 79.8667 202.063 80.4297C203.361 80.6796 206.113 80.0331 207.702 75.8776C208.067 74.9234 208.865 74.1838 209.654 73.535C210.111 73.159 210.513 72.6452 210.656 71.9776" stroke="black" stroke-width="0.849882" stroke-linecap="round"/>
<path d="M212.355 75.0939C212.389 75.2575 212.485 75.495 212.67 75.7446C213.4 76.7312 214.421 77.6605 214.96 78.7634C215.489 79.8473 216.432 80.9344 217.999 81.2921C218.859 81.4667 220.635 81.0445 221.756 78.3681C222.151 77.4268 222.991 76.694 223.609 75.8818C223.776 75.6612 223.909 75.3995 223.971 75.0939" stroke="black" stroke-width="0.849882" stroke-linecap="round"/>
<path d="M192.525 75.0939C192.492 75.2575 192.395 75.495 192.211 75.7446C191.481 76.7312 190.459 77.6605 189.921 78.7634C189.392 79.8473 188.448 80.9344 186.882 81.2921C186.022 81.4667 184.246 81.0445 183.124 78.3681C182.73 77.4268 181.89 76.694 181.272 75.8818C181.104 75.6612 180.972 75.3995 180.91 75.0939" stroke="black" stroke-width="0.849882" stroke-linecap="round"/>
<path d="M199.147 61.2779C194.361 62.2141 194.656 66.8471 195.733 70.0827C195.835 70.3874 196.365 70.2794 196.415 69.9622C196.758 67.7814 198.137 65.9417 199.041 65.0635C199.14 64.9672 199.294 64.965 199.405 65.0473C202.094 67.0402 204.736 66.0682 206.14 65.5021C206.184 65.4842 206.233 65.4779 206.28 65.4853C208.106 65.772 208.515 68.304 208.574 70.3106C208.583 70.6187 208.997 70.6986 209.102 70.4089C212.35 61.4563 203.533 58.0927 199.268 61.2253C199.233 61.2512 199.19 61.2695 199.147 61.2779Z" stroke="black" stroke-width="0.849882" stroke-linecap="round"/>
<path d="M216.003 67.9841C212.955 68.5842 212.904 71.3332 213.504 73.4877C213.59 73.7965 214.159 73.7013 214.244 73.3923C214.58 72.1717 215.349 71.158 215.898 70.6154C215.995 70.5193 216.147 70.5166 216.259 70.5956C218.087 71.8928 219.877 71.2567 220.844 70.8731C220.888 70.8556 220.936 70.8491 220.983 70.857C222.102 71.0475 222.442 72.4545 222.529 73.7267C222.55 74.0335 222.957 74.1148 223.05 73.8217C224.895 68.0149 219.017 65.8596 216.123 67.9326C216.088 67.9578 216.046 67.9757 216.003 67.9841Z" stroke="black" stroke-width="0.849882" stroke-linecap="round"/>
<path d="M188.876 67.9841C191.924 68.5842 191.975 71.3332 191.375 73.4877C191.289 73.7965 190.72 73.7013 190.635 73.3923C190.299 72.1717 189.53 71.158 188.981 70.6154C188.884 70.5193 188.732 70.5166 188.62 70.5956C186.792 71.8928 185.002 71.2567 184.035 70.8731C183.991 70.8556 183.943 70.8491 183.896 70.857C182.777 71.0475 182.437 72.4545 182.35 73.7267C182.329 74.0335 181.922 74.1148 181.829 73.8217C179.983 68.0149 185.862 65.8596 188.756 67.9326C188.791 67.9578 188.833 67.9757 188.876 67.9841Z" stroke="black" stroke-width="0.849882" stroke-linecap="round"/>
<path d="M189.813 84.7785L195.678 81.4493C195.802 81.379 195.962 81.4165 196.049 81.5293C201.676 88.8235 206.66 84.7518 208.611 81.5712C208.694 81.437 208.867 81.3913 209.003 81.4709L214.666 84.7889C214.694 84.8051 214.719 84.8264 214.739 84.8509C218.001 88.7369 217.669 92.8696 217.059 94.5828C217.03 94.6638 216.964 94.7242 216.882 94.7494C205.867 98.1341 193.171 96.181 188.052 94.7443C187.97 94.7215 187.908 94.6647 187.876 94.5867C186.533 91.3115 188.51 86.7988 189.715 84.8718C189.739 84.8324 189.772 84.8014 189.813 84.7785Z" stroke="black" stroke-width="0.849882" stroke-linecap="round"/>
<path d="M214.057 80.7597C215.424 82.6337 218.971 85.2476 222.334 80.9333C222.412 80.8333 222.547 80.7905 222.665 80.8372C223.184 81.0431 223.843 81.3285 224.506 81.657C226.772 82.7804 228.291 84.9905 228.997 87.4193C229.286 88.4112 229.444 89.4342 229.302 90.2997C229.284 90.4051 229.206 90.4875 229.102 90.5116C227.727 90.8302 223.778 91.3607 217.553 91.2176" stroke="black" stroke-width="0.849882" stroke-linecap="round"/>
<path d="M190.824 80.7597C189.431 82.6343 185.817 85.2492 182.391 80.9295C182.313 80.8314 182.18 80.7894 182.063 80.8348C181.534 81.0404 180.862 81.3262 180.186 81.6551C177.882 82.7756 176.316 84.9965 175.597 87.4546C175.309 88.4354 175.154 89.4445 175.297 90.2997C175.315 90.4051 175.394 90.4872 175.498 90.511C176.895 90.8295 180.919 91.3608 187.263 91.2176" stroke="black" stroke-width="0.849882" stroke-linecap="round"/>
<circle cx="21.9755" cy="63.2763" r="3.91989" stroke="black" stroke-width="0.712706"/>
<path d="M17.6992 73.4917V97.2486" stroke="black" stroke-width="0.712706" stroke-linecap="round"/>
<path d="M26.1328 73.4917V97.2486" stroke="black" stroke-width="0.712706" stroke-linecap="round"/>
<path d="M21.8555 83.826V97.2486" stroke="black" stroke-width="0.712706" stroke-linecap="round"/>
<path d="M26.1315 82.6381H26.8442C28.1562 82.6381 29.2199 81.5745 29.2199 80.2624V69.8094C29.2199 68.4973 28.1562 67.4337 26.8442 67.4337H16.9851C15.673 67.4337 14.6094 68.4973 14.6094 69.8094V80.2624C14.6094 81.5745 15.673 82.6381 16.9851 82.6381H17.579" stroke="black" stroke-width="0.712706" stroke-linecap="round"/>
<path d="M12.5903 69.9282H2.73116C1.4191 69.9282 0.355469 70.9918 0.355469 72.3039V81.0939C0.355469 82.406 1.4191 83.4696 2.73115 83.4696H3.08751" stroke="black" stroke-width="0.712706" stroke-linecap="round"/>
<path d="M31.1207 69.9282H40.9798C42.2918 69.9282 43.3555 70.9918 43.3555 72.3039V81.0939C43.3555 82.406 42.2918 83.4696 40.9798 83.4696H40.6234" stroke="black" stroke-width="0.712706" stroke-linecap="round"/>
<path d="M3.5625 74.7983V96.7735" stroke="black" stroke-width="0.712706" stroke-linecap="round"/>
<path d="M40.1484 74.7983V96.7735" stroke="black" stroke-width="0.712706" stroke-linecap="round"/>
<path d="M11.0469 74.6796V96.6547" stroke="black" stroke-width="0.712706" stroke-linecap="round"/>
<path d="M32.6641 74.6796V96.6547" stroke="black" stroke-width="0.712706" stroke-linecap="round"/>
<path d="M7.36328 84.3011V96.7735" stroke="black" stroke-width="0.712706" stroke-linecap="round"/>
<path d="M36.3477 84.3011V96.7735" stroke="black" stroke-width="0.712706" stroke-linecap="round"/>
<path d="M11.2832 83.2321C11.8375 83.2716 13.0887 83.2083 13.6589 82.6381" stroke="black" stroke-width="0.712706" stroke-linecap="round"/>
<path d="M32.4277 83.2321C31.8734 83.2716 30.6222 83.2083 30.052 82.6381" stroke="black" stroke-width="0.712706" stroke-linecap="round"/>
<circle cx="7.24518" cy="66.1271" r="3.20718" stroke="black" stroke-width="0.712706"/>
<circle cx="3.56354" cy="3.56354" r="3.20718" transform="matrix(-1 0 0 1 40.0293 62.5635)" stroke="black" stroke-width="0.712706"/>
<path d="M206.015 15.7256C209.293 15.7256 211.947 18.3487 211.947 21.5791C211.947 24.8096 209.293 27.4326 206.015 27.4326C202.736 27.4324 200.082 24.8095 200.082 21.5791C200.082 18.3489 202.736 15.7258 206.015 15.7256Z" stroke="black" stroke-width="0.35246"/>
<path d="M222.2 16.8363C224.953 16.8365 227.18 19.0336 227.181 21.7377C227.181 24.4419 224.953 26.6388 222.2 26.639C219.447 26.639 217.219 24.442 217.219 21.7377C217.219 19.0335 219.447 16.8363 222.2 16.8363Z" stroke="black" stroke-width="0.35246"/>
<path d="M217.438 28.102C220.191 28.1022 222.419 30.2993 222.419 33.0033C222.419 35.7075 220.192 37.9045 217.438 37.9047C214.685 37.9047 212.457 35.7077 212.457 33.0033C212.457 30.2992 214.685 28.102 217.438 28.102Z" stroke="black" stroke-width="0.35246"/>
<path d="M217.28 5.25328C220.033 5.2535 222.261 7.45061 222.261 10.1547C222.261 12.8588 220.033 15.0558 217.28 15.056C214.527 15.056 212.299 12.859 212.299 10.1547C212.299 7.45048 214.527 5.25328 217.28 5.25328Z" stroke="black" stroke-width="0.35246"/>
<path d="M206.015 0.175781C208.768 0.175994 210.995 2.37311 210.995 5.07715C210.995 7.78134 208.768 9.9783 206.015 9.97852C203.261 9.97852 201.033 7.78147 201.033 5.07715C201.033 2.37298 203.261 0.175781 206.015 0.175781Z" stroke="black" stroke-width="0.35246"/>
<path d="M206.015 33.0208C208.768 33.021 210.995 35.2181 210.995 37.9222C210.995 40.6264 208.768 42.8233 206.015 42.8235C203.261 42.8235 201.033 40.6265 201.033 37.9222C201.033 35.218 203.261 33.0208 206.015 33.0208Z" stroke="black" stroke-width="0.35246"/>
<path d="M194.433 27.9433C197.186 27.9435 199.413 30.1406 199.413 32.8447C199.413 35.5489 197.186 37.7458 194.433 37.746C191.679 37.746 189.451 35.549 189.451 32.8447C189.451 30.1405 191.679 27.9433 194.433 27.9433Z" stroke="black" stroke-width="0.35246"/>
<path d="M189.513 16.8363C192.266 16.8365 194.493 19.0336 194.493 21.7377C194.493 24.4419 192.266 26.6388 189.513 26.639C186.759 26.639 184.531 24.442 184.531 21.7377C184.531 19.0335 186.76 16.8363 189.513 16.8363Z" stroke="black" stroke-width="0.35246"/>
<path d="M194.433 5.0946C197.186 5.09481 199.413 7.29193 199.413 9.99597C199.413 12.7002 197.186 14.8971 194.433 14.8973C191.679 14.8973 189.451 12.7003 189.451 9.99597C189.451 7.2918 191.679 5.0946 194.433 5.0946Z" stroke="black" stroke-width="0.35246"/>
<path d="M207.45 21.4505C209.021 21.579 209.743 22.7359 209.743 23.5514V24.612C209.743 24.6959 209.697 24.7741 209.624 24.8149C206.551 26.5266 203.598 25.5719 202.39 24.8154C202.323 24.7739 202.285 24.7006 202.285 24.6225V23.3605C202.285 23.3471 202.286 23.3334 202.289 23.3202C202.557 21.8298 203.929 21.5093 204.708 21.4505C204.814 21.4425 204.91 21.5122 204.94 21.6147L205.255 22.6775C205.319 22.8927 205.619 22.9045 205.699 22.6951L205.768 22.5177C205.79 22.4589 205.788 22.3934 205.762 22.3361L205.602 21.984C205.531 21.8285 205.645 21.6518 205.816 21.6518H206.212C206.383 21.6518 206.497 21.8285 206.426 21.984L206.266 22.3361C206.24 22.3934 206.238 22.4589 206.26 22.5177L206.353 22.7594C206.431 22.9616 206.718 22.9598 206.793 22.7566L207.222 21.5996C207.257 21.5048 207.349 21.4422 207.45 21.4505Z" stroke="black" stroke-width="0.35246"/>
<circle cx="206.015" cy="19.2597" r="1.72339" stroke="black" stroke-width="0.35246"/>
<path d="M223.435 21.6318C224.739 21.751 225.339 22.7166 225.339 23.3987V24.2705C225.339 24.3543 225.293 24.4325 225.22 24.4731C222.653 25.8924 220.189 25.1073 219.163 24.4735C219.097 24.4324 219.059 24.3591 219.059 24.2809V23.2411C219.059 23.2277 219.06 23.214 219.062 23.2008C219.287 21.9666 220.41 21.687 221.07 21.6318C221.176 21.6229 221.272 21.6928 221.302 21.7952L221.528 22.5581C221.592 22.7733 221.892 22.7851 221.973 22.5757L221.986 22.5427C222.008 22.4839 222.006 22.4185 221.98 22.3611L221.876 22.1312C221.805 21.9757 221.919 21.799 222.09 21.799H222.308C222.479 21.799 222.592 21.9757 222.522 22.1312L222.417 22.3611C222.391 22.4185 222.389 22.4839 222.412 22.5427L222.449 22.64C222.527 22.8422 222.814 22.8404 222.889 22.6372L223.206 21.7802C223.241 21.6853 223.334 21.6226 223.435 21.6318Z" stroke="black" stroke-width="0.35246"/>
<circle cx="222.199" cy="19.7846" r="1.42345" stroke="black" stroke-width="0.35246"/>
<path d="M218.675 32.8975C219.979 33.0167 220.579 33.9823 220.579 34.6644V35.5361C220.579 35.62 220.534 35.6982 220.46 35.7388C217.893 37.1581 215.429 36.373 214.404 35.7392C214.337 35.6981 214.299 35.6247 214.299 35.5466V34.5068C214.299 34.4934 214.3 34.4797 214.302 34.4665C214.527 33.2323 215.65 32.9526 216.31 32.8975C216.417 32.8886 216.512 32.9585 216.543 33.0609L216.769 33.8238C216.832 34.0389 217.133 34.0508 217.213 33.8414L217.226 33.8084C217.248 33.7496 217.247 33.6841 217.22 33.6268L217.116 33.3969C217.045 33.2414 217.159 33.0647 217.33 33.0647H217.548C217.719 33.0647 217.833 33.2414 217.762 33.3969L217.657 33.6268C217.631 33.6841 217.629 33.7496 217.652 33.8084L217.689 33.9057C217.767 34.1078 218.054 34.1061 218.129 33.9029L218.447 33.0459C218.482 32.951 218.574 32.8883 218.675 32.8975Z" stroke="black" stroke-width="0.35246"/>
<circle cx="217.44" cy="31.0503" r="1.42345" stroke="black" stroke-width="0.35246"/>
<path d="M207.251 4.97128C208.555 5.09047 209.155 6.05611 209.155 6.73819V7.60993C209.155 7.69377 209.11 7.77201 209.036 7.81258C206.47 9.2319 204.005 8.44677 202.98 7.81296C202.913 7.77186 202.875 7.69853 202.875 7.62035V6.58056C202.875 6.56718 202.876 6.55346 202.879 6.5403C203.103 5.30607 204.227 5.02643 204.886 4.97127C204.993 4.96236 205.088 5.03225 205.119 5.13472L205.345 5.89756C205.408 6.11273 205.709 6.12462 205.789 5.91516L205.802 5.88216C205.825 5.82336 205.823 5.75793 205.797 5.70058L205.692 5.47072C205.621 5.31515 205.735 5.13852 205.906 5.13852H206.124C206.295 5.13852 206.409 5.31515 206.338 5.47072L206.234 5.70058C206.208 5.75793 206.206 5.82336 206.228 5.88216L206.266 5.97946C206.343 6.18163 206.63 6.17985 206.705 5.97672L207.023 5.11965C207.058 5.02478 207.15 4.96207 207.251 4.97128Z" stroke="black" stroke-width="0.35246"/>
<circle cx="206.014" cy="3.1241" r="1.42345" stroke="black" stroke-width="0.35246"/>
<path d="M218.515 10.0488C219.819 10.168 220.419 11.1336 220.419 11.8157V12.6874C220.419 12.7713 220.374 12.8495 220.3 12.8901C217.733 14.3094 215.269 13.5243 214.243 12.8905C214.177 12.8494 214.139 12.7761 214.139 12.6979V11.6581C214.139 11.6447 214.14 11.631 214.142 11.6178C214.367 10.3836 215.49 10.104 216.15 10.0488C216.256 10.0399 216.352 10.1098 216.382 10.2122L216.608 10.9751C216.672 11.1903 216.972 11.2021 217.053 10.9927L217.066 10.9597C217.088 10.9009 217.086 10.8355 217.06 10.7781L216.956 10.5482C216.885 10.3927 216.999 10.216 217.17 10.216H217.388C217.559 10.216 217.672 10.3927 217.602 10.5482L217.497 10.7781C217.471 10.8355 217.469 10.9009 217.492 10.9597L217.529 11.057C217.607 11.2592 217.894 11.2574 217.969 11.0542L218.286 10.1972C218.322 10.1023 218.414 10.0396 218.515 10.0488Z" stroke="black" stroke-width="0.35246"/>
<circle cx="217.279" cy="8.20162" r="1.42345" stroke="black" stroke-width="0.35246"/>
<path d="M207.251 37.8163C208.555 37.9355 209.155 38.9011 209.155 39.5832V40.455C209.155 40.5388 209.11 40.617 209.036 40.6576C206.47 42.0769 204.005 41.2918 202.98 40.658C202.913 40.6169 202.875 40.5436 202.875 40.4654V39.4256C202.875 39.4122 202.876 39.3985 202.879 39.3853C203.103 38.1511 204.227 37.8715 204.886 37.8163C204.993 37.8074 205.088 37.8773 205.119 37.9798L205.345 38.7426C205.408 38.9578 205.709 38.9696 205.789 38.7602L205.802 38.7272C205.825 38.6684 205.823 38.603 205.797 38.5456L205.692 38.3158C205.621 38.1602 205.735 37.9835 205.906 37.9835H206.124C206.295 37.9835 206.409 38.1602 206.338 38.3158L206.234 38.5456C206.208 38.603 206.206 38.6684 206.228 38.7272L206.266 38.8245C206.343 39.0267 206.63 39.0249 206.705 38.8217L207.023 37.9647C207.058 37.8698 207.15 37.8071 207.251 37.8163Z" stroke="black" stroke-width="0.35246"/>
<circle cx="206.014" cy="35.9691" r="1.42345" stroke="black" stroke-width="0.35246"/>
<path d="M195.667 32.7388C196.971 32.858 197.571 33.8237 197.571 34.5057V35.3775C197.571 35.4613 197.526 35.5396 197.453 35.5801C194.886 36.9994 192.421 36.2143 191.396 35.5805C191.329 35.5394 191.291 35.4661 191.291 35.3879V34.3481C191.291 34.3347 191.292 34.321 191.295 34.3078C191.519 33.0736 192.643 32.794 193.302 32.7388C193.409 32.7299 193.504 32.7998 193.535 32.9023L193.761 33.6651C193.824 33.8803 194.125 33.8922 194.205 33.6827L194.218 33.6497C194.241 33.5909 194.239 33.5255 194.213 33.4681L194.108 33.2383C194.037 33.0827 194.151 32.9061 194.322 32.9061H194.54C194.711 32.9061 194.825 33.0827 194.754 33.2383L194.65 33.4681C194.624 33.5255 194.622 33.5909 194.644 33.6497L194.682 33.747C194.759 33.9492 195.046 33.9474 195.121 33.7443L195.439 32.8872C195.474 32.7923 195.566 32.7296 195.667 32.7388Z" stroke="black" stroke-width="0.35246"/>
<circle cx="194.432" cy="30.8916" r="1.42345" stroke="black" stroke-width="0.35246"/>
<path d="M190.749 21.6318C192.053 21.751 192.653 22.7166 192.653 23.3987V24.2705C192.653 24.3543 192.608 24.4325 192.535 24.4731C189.968 25.8924 187.503 25.1073 186.478 24.4735C186.411 24.4324 186.373 24.3591 186.373 24.2809V23.2411C186.373 23.2277 186.374 23.214 186.377 23.2008C186.601 21.9666 187.725 21.687 188.384 21.6318C188.491 21.6229 188.586 21.6928 188.617 21.7952L188.843 22.5581C188.907 22.7733 189.207 22.7851 189.287 22.5757L189.3 22.5427C189.323 22.4839 189.321 22.4185 189.295 22.3611L189.19 22.1312C189.119 21.9757 189.233 21.799 189.404 21.799H189.622C189.793 21.799 189.907 21.9757 189.836 22.1312L189.732 22.3611C189.706 22.4185 189.704 22.4839 189.726 22.5427L189.764 22.64C189.841 22.8422 190.128 22.8404 190.203 22.6372L190.521 21.7802C190.556 21.6853 190.648 21.6226 190.749 21.6318Z" stroke="black" stroke-width="0.35246"/>
<circle cx="189.512" cy="19.7846" r="1.42345" stroke="black" stroke-width="0.35246"/>
<path d="M195.667 9.8901C196.971 10.0093 197.571 10.9749 197.571 11.657V12.5288C197.571 12.6126 197.526 12.6908 197.453 12.7314C194.886 14.1507 192.421 13.3656 191.396 12.7318C191.329 12.6907 191.291 12.6174 191.291 12.5392V11.4994C191.291 11.486 191.292 11.4723 191.295 11.4591C191.519 10.2249 192.643 9.94526 193.302 9.89009C193.409 9.88118 193.504 9.95108 193.535 10.0535L193.761 10.8164C193.824 11.0316 194.125 11.0434 194.205 10.834L194.218 10.801C194.241 10.7422 194.239 10.6768 194.213 10.6194L194.108 10.3895C194.037 10.234 194.151 10.0573 194.322 10.0573H194.54C194.711 10.0573 194.825 10.234 194.754 10.3895L194.65 10.6194C194.624 10.6768 194.622 10.7422 194.644 10.801L194.682 10.8983C194.759 11.1005 195.046 11.0987 195.121 10.8955L195.439 10.0385C195.474 9.9436 195.566 9.8809 195.667 9.8901Z" stroke="black" stroke-width="0.35246"/>
<circle cx="194.432" cy="8.04293" r="1.42345" stroke="black" stroke-width="0.35246"/>
<path d="M205.936 10.2343V15.4705" stroke="black" stroke-width="0.35246" stroke-linecap="round"/>
<path d="M205.936 27.6089V32.845" stroke="black" stroke-width="0.35246" stroke-linecap="round"/>
<path d="M217.201 21.5793H211.965" stroke="black" stroke-width="0.35246" stroke-linecap="round"/>
<path d="M199.826 21.5793H194.59" stroke="black" stroke-width="0.35246" stroke-linecap="round"/>
<path d="M213.869 29.5129L210.275 25.942" stroke="black" stroke-width="0.35246" stroke-linecap="round"/>
<path d="M201.59 17.4623L197.843 13.8044" stroke="black" stroke-width="0.35246" stroke-linecap="round"/>
<path d="M213.631 13.5664L209.982 17.1365" stroke="black" stroke-width="0.35246" stroke-linecap="round"/>
<path d="M201.432 25.4629L197.684 29.1198" stroke="black" stroke-width="0.35246" stroke-linecap="round"/>
<path d="M102.964 29.4143C102.796 27.2985 103.367 23.0306 108.203 22.8694C113.039 22.7082 113.98 27.1681 113.745 29.4182" stroke="black" stroke-width="0.743015" stroke-linecap="round"/>
<circle cx="108.506" cy="19.1376" r="3.25556" stroke="black" stroke-width="0.743015"/>
<circle cx="117.373" cy="14.906" r="3.25556" stroke="black" stroke-width="0.743015"/>
<circle cx="3.62707" cy="3.62707" r="3.25556" transform="matrix(-1 0 0 1 103.268 11.2789)" stroke="black" stroke-width="0.743015"/>
<circle cx="3.62707" cy="3.62707" r="3.25556" transform="matrix(-1 0 0 1 111.932 1.60675)" stroke="black" stroke-width="0.743015"/>
<path d="M112.436 21.4549C113.477 19.6413 116.647 16.8001 120.999 19.9436" stroke="black" stroke-width="0.743015" stroke-linecap="round"/>
<path d="M104.576 21.4549C103.535 19.6413 100.365 16.8001 96.0123 19.9436" stroke="black" stroke-width="0.743015" stroke-linecap="round"/>
<path d="M108.002 40.3962L112.343 33.2845C112.602 32.8605 112.963 32.5081 113.393 32.2596L116.568 30.4249C117.028 30.159 117.409 29.7746 117.67 29.3117L120.759 23.8358C121.288 22.8971 122.461 22.5386 123.425 23.0205C124.461 23.5387 124.851 24.8197 124.28 25.8275L119.387 34.4519" stroke="black" stroke-width="0.743015" stroke-linecap="round"/>
<path d="M107.197 37.8774L104.367 33.2782C104.109 32.8582 103.75 32.5092 103.323 32.2625L100.142 30.4249C99.6821 30.159 99.3016 29.7746 99.0405 29.3117L95.9515 23.8358C95.422 22.8971 94.2495 22.5386 93.2855 23.0205C92.2492 23.5387 91.8592 24.8197 92.4309 25.8275L97.3236 34.4519" stroke="black" stroke-width="0.743015" stroke-linecap="round"/>
<path d="M120.395 40.3962L127.51 33.1011C128.051 32.546 128.354 31.8013 128.354 31.026V14.4022C128.354 13.2337 127.407 12.2864 126.238 12.2864C125.07 12.2864 124.122 13.2337 124.122 14.4022V20.5481" stroke="black" stroke-width="0.743015" stroke-linecap="round"/>
<path d="M96.3145 40.3962L89.1994 33.1011C88.6581 32.546 88.3551 31.8013 88.3551 31.026V14.4022C88.3551 13.2337 89.3023 12.2864 90.4708 12.2864C91.6394 12.2864 92.5866 13.2337 92.5866 14.4022V20.5481" stroke="black" stroke-width="0.743015" stroke-linecap="round"/>
<path d="M104.074 10.7752C105.418 9.39824 109.031 7.47052 112.739 10.7752" stroke="black" stroke-width="0.743015" stroke-linecap="round"/>
<circle cx="20.8555" cy="21.5" r="19.1389" stroke="black" stroke-width="0.722222"/>
<path d="M17.0312 40.175V22.175C17.0312 20.1039 18.7102 18.425 20.7813 18.425C22.8523 18.425 24.5313 20.1039 24.5313 22.175V40.175" stroke="black" stroke-width="0.481481" stroke-linecap="round"/>
<circle cx="20.7816" cy="14.825" r="2.98426" stroke="black" stroke-width="0.481481"/>
<path d="M34.5805 30.875V27.5375C34.5805 25.1972 32.6833 23.3 30.343 23.3C28.0027 23.3 26.1055 25.1972 26.1055 27.5375V37.175" stroke="black" stroke-width="0.481481" stroke-linecap="round"/>
<path d="M7.0543 31.025V27.6875C7.0543 25.3472 8.95149 23.45 11.2918 23.45C13.6321 23.45 15.5293 25.3472 15.5293 27.6875V37.325" stroke="black" stroke-width="0.481481" stroke-linecap="round"/>
<circle cx="11.4805" cy="20.375" r="2.38426" stroke="black" stroke-width="0.481481"/>
<circle cx="30.2324" cy="20.375" r="2.38426" stroke="black" stroke-width="0.481481"/>
<path d="M20.7803 4.70001C30.2657 4.70001 37.955 12.2215 37.9551 21.4998C37.9551 29.5295 32.1962 36.2414 24.498 37.9031C24.4979 37.899 24.4992 37.8946 24.499 37.8904L24.4805 37.4549C24.4764 37.3601 24.4648 37.2671 24.4502 37.1756C31.7792 35.5448 37.2334 29.1354 37.2334 21.4998C37.2333 12.6353 29.8819 5.42266 20.7803 5.42266C11.6789 5.42294 4.32824 12.6355 4.32812 21.4998C4.32812 29.1442 9.795 35.5598 17.1367 37.1815C17.1175 37.304 17.1055 37.4294 17.1055 37.5574V37.9119C9.38625 36.2656 3.60547 29.5441 3.60547 21.4998C3.60558 12.2217 11.2951 4.70029 20.7803 4.70001Z" fill="black"/>
<path d="M110.109 98.257L108.759 88.9995C108.722 88.7457 108.353 88.7532 108.326 89.0084L107.364 98.2481C107.352 98.3591 107.259 98.4435 107.147 98.4435H105.459C105.342 98.4435 105.246 98.3507 105.241 98.2336L104.786 85.9352C104.785 85.8973 104.773 85.8605 104.753 85.8283L102.722 82.556C102.701 82.5215 102.689 82.4817 102.689 82.4411V75.8897C102.689 75.8773 102.691 75.8646 102.693 75.8524C103.146 73.2885 105.567 72.8082 106.827 72.737C106.926 72.7314 107.014 72.7959 107.042 72.8909L107.743 75.2563C107.802 75.4559 108.081 75.4669 108.155 75.2726L108.474 74.4438C108.495 74.3892 108.493 74.3286 108.469 74.2754L108.065 73.3867C108 73.2425 108.105 73.0786 108.264 73.0786H109.449C109.607 73.0786 109.712 73.2425 109.647 73.3867L109.243 74.2754C109.219 74.3286 109.217 74.3892 109.238 74.4438L109.58 75.3323C109.652 75.5198 109.918 75.5181 109.987 75.3297L110.896 72.8769C110.928 72.7889 111.015 72.7313 111.108 72.737C113.791 72.8987 115.023 74.8505 115.023 76.2202V82.4353C115.023 82.4795 115.009 82.5227 114.984 82.559L112.732 85.8252C112.708 85.8593 112.695 85.8994 112.693 85.9408L112.238 98.2336C112.234 98.3507 112.138 98.4435 112.02 98.4435H110.324C110.216 98.4435 110.124 98.3641 110.109 98.257Z" stroke="black" stroke-width="0.544799"/>
<path d="M112.099 68.7643C112.477 67.9169 111.942 67.4529 111.627 67.3268C111.69 66.1162 111.443 65.5109 111.312 65.3596C110.431 64.1491 108.794 64.0482 108.086 64.1491C106.008 64.4517 105.699 66.3432 105.804 67.2511C105.3 67.4932 105.226 68.0582 105.253 68.3104C105.379 68.9156 105.83 69.1174 106.04 69.1426C107.047 71.4427 108.296 71.8663 108.794 71.7907C110.305 71.4881 111.102 70.0001 111.312 69.2939C111.627 69.2334 111.964 69.0669 112.099 68.7643Z" stroke="black" stroke-width="0.544799"/>
<path d="M97.7748 98.257L96.4248 88.9995C96.3878 88.7457 96.019 88.7532 95.9924 89.0084L95.0299 98.2481C95.0184 98.3591 94.9248 98.4435 94.8132 98.4435H93.1252C93.008 98.4435 92.9118 98.3507 92.9074 98.2336L92.452 85.9352C92.4505 85.8973 92.4393 85.8605 92.4193 85.8283L90.3882 82.556C90.3668 82.5215 90.3555 82.4817 90.3555 82.4411V75.8897C90.3555 75.8773 90.3566 75.8646 90.3587 75.8524C90.8121 73.2885 93.2328 72.8082 94.4933 72.737C94.5923 72.7314 94.6802 72.7959 94.7083 72.8909L95.4092 75.2563C95.4683 75.4559 95.7468 75.4669 95.8215 75.2726L96.1403 74.4438C96.1613 74.3892 96.1595 74.3286 96.1353 74.2754L95.7314 73.3867C95.6658 73.2425 95.7713 73.0786 95.9298 73.0786H97.1145C97.273 73.0786 97.3785 73.2425 97.3129 73.3867L96.909 74.2754C96.8848 74.3286 96.883 74.3892 96.904 74.4438L97.2457 75.3323C97.3178 75.5198 97.5837 75.5181 97.6535 75.3297L98.5619 72.8769C98.5945 72.7889 98.6808 72.7313 98.7744 72.737C101.457 72.8987 102.689 74.8505 102.689 76.2202V82.4353C102.689 82.4795 102.675 82.5227 102.65 82.559L100.398 85.8252C100.374 85.8593 100.361 85.8994 100.359 85.9408L99.9041 98.2336C99.8998 98.3507 99.8036 98.4435 99.6864 98.4435H97.9905C97.8823 98.4435 97.7904 98.3641 97.7748 98.257Z" stroke="black" stroke-width="0.544799"/>
<path d="M99.7672 68.7643C100.145 67.9169 99.6098 67.4529 99.2951 67.3268C99.358 66.1162 99.1114 65.5109 98.9803 65.3596C98.0989 64.1491 96.462 64.0482 95.7537 64.1491C93.6761 64.4517 93.3666 66.3432 93.4715 67.2511C92.9678 67.4932 92.8944 68.0582 92.9206 68.3104C93.0465 68.9156 93.4977 69.1174 93.7076 69.1426C94.7149 71.4427 95.9636 71.8663 96.462 71.7907C97.973 71.4881 98.7704 70.0001 98.9803 69.2939C99.2951 69.2334 99.6323 69.0669 99.7672 68.7643Z" stroke="black" stroke-width="0.544799"/>
<path d="M105.131 63.2226C105.471 62.4522 104.989 62.0303 104.706 61.9157C104.763 60.8152 104.541 60.265 104.423 60.1274C103.629 59.0269 102.156 58.9352 101.519 59.0269C99.6489 59.302 99.3703 61.0216 99.4648 61.8469C99.0115 62.067 98.9454 62.5806 98.969 62.8099C99.0823 63.3601 99.4884 63.5435 99.6773 63.5665C100.584 65.6574 101.708 66.0426 102.156 65.9738C103.516 65.6987 104.234 64.346 104.423 63.704C104.706 63.649 105.01 63.4977 105.131 63.2226Z" stroke="black" stroke-width="0.544799"/>
<path d="M117.465 63.2226C117.805 62.4522 117.323 62.0303 117.04 61.9157C117.097 60.8152 116.875 60.265 116.757 60.1274C115.963 59.0269 114.49 58.9352 113.853 59.0269C111.983 59.302 111.704 61.0216 111.799 61.8469C111.345 62.067 111.279 62.5806 111.303 62.8099C111.416 63.3601 111.822 63.5435 112.011 63.5665C112.918 65.6574 114.042 66.0426 114.49 65.9738C115.85 65.6987 116.568 64.346 116.757 63.704C117.04 63.649 117.344 63.4977 117.465 63.2226Z" stroke="black" stroke-width="0.544799"/>
<path d="M122.441 98.257L121.091 88.9995C121.054 88.7457 120.685 88.7532 120.658 89.0084L119.696 98.2481C119.684 98.3591 119.591 98.4435 119.479 98.4435H117.791C117.674 98.4435 117.578 98.3507 117.573 98.2336L117.118 85.9352C117.117 85.8973 117.105 85.8605 117.085 85.8283L115.054 82.556C115.033 82.5215 115.021 82.4817 115.021 82.4411V75.8897C115.021 75.8773 115.023 75.8646 115.025 75.8524C115.478 73.2885 117.899 72.8082 119.159 72.737C119.258 72.7314 119.346 72.7959 119.374 72.8909L120.075 75.2563C120.134 75.4559 120.413 75.4669 120.488 75.2726L120.806 74.4438C120.827 74.3892 120.825 74.3286 120.801 74.2754L120.397 73.3867C120.332 73.2425 120.437 73.0786 120.596 73.0786H121.781C121.939 73.0786 122.045 73.2425 121.979 73.3867L121.575 74.2754C121.551 74.3286 121.549 74.3892 121.57 74.4438L121.912 75.3323C121.984 75.5198 122.25 75.5181 122.319 75.3297L123.228 72.8769C123.261 72.7889 123.347 72.7313 123.44 72.737C126.123 72.8987 127.355 74.8505 127.355 76.2202V82.4353C127.355 82.4795 127.341 82.5227 127.316 82.559L125.064 85.8252C125.04 85.8593 125.027 85.8994 125.025 85.9408L124.57 98.2336C124.566 98.3507 124.47 98.4435 124.352 98.4435H122.656C122.548 98.4435 122.456 98.3641 122.441 98.257Z" stroke="black" stroke-width="0.544799"/>
<path d="M124.433 68.7643C124.811 67.9169 124.276 67.4529 123.961 67.3268C124.024 66.1162 123.777 65.5109 123.646 65.3596C122.765 64.1491 121.128 64.0482 120.42 64.1491C118.342 64.4517 118.033 66.3432 118.138 67.2511C117.634 67.4932 117.56 68.0582 117.587 68.3104C117.713 68.9156 118.164 69.1174 118.374 69.1426C119.381 71.4427 120.63 71.8663 121.128 71.7907C122.639 71.4881 123.436 70.0001 123.646 69.2939C123.961 69.2334 124.298 69.0669 124.433 68.7643Z" stroke="black" stroke-width="0.544799"/>
<path d="M96.8535 151.076V140.052C96.8535 138.456 98.1475 137.162 99.7437 137.162H117.843C119.439 137.162 120.733 138.456 120.733 140.052V151.076" stroke="black" stroke-width="0.867044" stroke-linecap="round"/>
<path d="M101.93 146.187V150.888" stroke="black" stroke-width="0.867044" stroke-linecap="round"/>
<path d="M115.469 146.187V150.888" stroke="black" stroke-width="0.867044" stroke-linecap="round"/>
<path d="M82.9707 146.734V150.307" stroke="black" stroke-width="0.867044" stroke-linecap="round"/>
<path d="M125.455 146.734V150.307" stroke="black" stroke-width="0.867044" stroke-linecap="round"/>
<path d="M92.9824 146.734V150.307" stroke="black" stroke-width="0.867044" stroke-linecap="round"/>
<path d="M135.467 146.734V150.307" stroke="black" stroke-width="0.867044" stroke-linecap="round"/>
<circle cx="108.89" cy="130.581" r="6.1475" stroke="black" stroke-width="0.867044"/>
<circle cx="5.64088" cy="5.64088" r="5.20736" transform="matrix(-1 0 0 1 93.7598 127.179)" stroke="black" stroke-width="0.867044"/>
<circle cx="5.64088" cy="5.64088" r="5.20736" transform="matrix(-1 0 0 1 135.592 127.179)" stroke="black" stroke-width="0.867044"/>
<path d="M78.3566 150.307V144.984C78.3566 141.485 81.1927 138.649 84.6911 138.649H90.9824C94.2249 138.649 96.8535 141.278 96.8535 144.52V150.307" stroke="black" stroke-width="0.867044" stroke-linecap="round"/>
<path d="M139.339 150.445L139.27 144.847C139.228 141.412 136.431 138.649 132.996 138.649H126.568C123.326 138.649 120.697 141.278 120.697 144.52V150.307" stroke="black" stroke-width="0.867044" stroke-linecap="round"/>
</svg>
