<svg width="260" height="178" viewBox="0 0 260 178" fill="none" xmlns="http://www.w3.org/2000/svg">
<path d="M199.399 36.1381C188.965 32.4651 198.627 14.6803 212.351 18.5466C205.078 21.1756 202.751 25.3125 202.497 27.0524C204.975 23.6501 208.942 22.4129 210.616 22.2195C207.33 24.5393 205.977 28.0189 205.589 30.532C204.704 36.2764 201.53 36.718 199.399 36.1381Z" fill="black"/>
<path d="M234.781 36.1381C245.214 32.4651 235.552 14.6803 221.829 18.5466C229.102 21.1756 231.428 25.3125 231.683 27.0524C229.204 23.6501 225.237 22.4129 223.564 22.2195C226.85 24.5393 228.203 28.0189 228.591 30.532C229.476 36.2764 232.65 36.718 234.781 36.1381Z" fill="black"/>
<path d="M221.711 34.2931C218.178 32.9435 214.836 33.4529 212.63 34.2773C211.593 34.6651 211.342 35.9438 212.118 36.7337C216.03 40.7127 219.968 38.9899 222.259 36.747C223.054 35.9688 222.751 34.6899 221.711 34.2931Z" fill="black"/>
<path d="M203.442 35.59C203.353 37.1483 203.91 39.3362 205.836 40.7663C207.711 42.1587 211.02 42.9314 216.638 41.5042V39.0376H217.758V41.5441C219.919 42.2981 222.993 42.8595 225.648 42.2888C227.041 41.9894 228.295 41.3842 229.254 40.3554C230.212 39.3292 230.917 37.8382 231.138 35.6937L232.253 35.8091C232.011 38.1494 231.227 39.8836 230.074 41.1199C228.923 42.3536 227.444 43.0485 225.884 43.3839C222.862 44.0335 219.449 43.3543 217.17 42.5241C211.232 44.0821 207.454 43.3625 205.168 41.6658C202.865 39.9564 202.219 37.3593 202.323 35.5261L203.442 35.59Z" fill="black"/>
<path d="M213.422 42.436C213.944 43.3646 215.087 44.4512 216.403 44.7766C217.044 44.9353 217.726 44.9139 218.416 44.6088C219.111 44.3015 219.857 43.6879 220.587 42.5933L221.519 43.2149C220.702 44.44 219.805 45.2199 218.869 45.6336C217.928 46.0494 216.99 46.0761 216.134 45.8643C214.453 45.4486 213.083 44.119 212.445 42.9855L213.422 42.436Z" fill="black"/>
<path d="M214.48 29.1786C214.48 29.926 213.874 30.5318 213.127 30.5318C212.379 30.5318 211.773 29.926 211.773 29.1786C211.773 28.4313 212.379 27.8254 213.127 27.8254C213.874 27.8254 214.48 28.4313 214.48 29.1786Z" fill="black"/>
<path d="M222.214 29.1786C222.214 29.926 221.608 30.5318 220.861 30.5318C220.114 30.5318 219.508 29.926 219.508 29.1786C219.508 28.4313 220.114 27.8254 220.861 27.8254C221.608 27.8254 222.214 28.4313 222.214 29.1786Z" fill="black"/>
<path d="M132.499 67.568C133.154 67.0861 134.137 66.8019 135.293 67.1635C136.618 67.5775 138.051 68.7999 139.491 71.2523C139.896 71.6021 140.246 72.0267 140.473 72.4902C140.719 72.9913 140.847 73.5953 140.658 74.1949C140.464 74.8116 139.981 75.2768 139.303 75.5739C138.638 75.8652 137.749 76.0147 136.62 76.0147H135.887V72.9793C135.887 72.5748 136.215 72.2468 136.62 72.2468C137.024 72.2468 137.352 72.5748 137.352 72.9793V74.5223C137.972 74.4737 138.413 74.3642 138.715 74.2319C139.112 74.0582 139.225 73.8697 139.261 73.7548C139.302 73.6227 139.296 73.417 139.158 73.1355C139.021 72.8564 138.779 72.5585 138.461 72.3005L138.356 72.2154L138.289 72.0984C136.91 69.7137 135.696 68.8242 134.856 68.5616C134.051 68.3099 133.485 68.6002 133.213 68.8822L132.905 69.2006L132.481 69.0766C130.815 68.5908 128.969 68.8772 128.286 69.0766L127.824 69.2117L127.517 68.8406C127.316 68.5985 126.858 68.3141 126.099 68.5595C125.286 68.8226 124.06 69.721 122.561 72.12L122.472 72.2619L122.331 72.3511C121.971 72.5783 121.683 72.8863 121.511 73.1952C121.336 73.5102 121.316 73.7604 121.361 73.9189C121.397 74.0471 121.513 74.2466 121.939 74.4052C122.293 74.5368 122.83 74.6241 123.606 74.598V72.9793C123.606 72.5748 123.934 72.2468 124.339 72.2468C124.743 72.2468 125.071 72.5748 125.071 72.9793V75.9451L124.412 76.0111C123.155 76.1368 122.166 76.0529 121.428 75.7783C120.669 75.4961 120.143 74.9939 119.951 74.3184C119.769 73.6734 119.934 73.018 120.23 72.4845C120.503 71.9927 120.915 71.5476 121.404 71.2087C122.943 68.7853 124.374 67.5778 125.648 67.1656C126.762 66.8055 127.688 67.0761 128.297 67.5653C129.239 67.3624 130.88 67.1904 132.499 67.568Z" fill="black"/>
<path d="M131.679 75.802C130.717 75.5529 129.741 75.6464 129.058 75.8041C128.715 75.8831 128.577 76.2752 128.787 76.557C130.074 78.2816 131.276 77.4755 131.946 76.5222C132.136 76.2509 132 75.8851 131.679 75.802Z" fill="black"/>
<path d="M125.785 76.7466C126.176 76.6419 126.578 76.8737 126.682 77.2645C126.82 77.7774 127.037 78.0892 127.263 78.2851C127.492 78.4832 127.775 78.6008 128.103 78.6517C128.615 78.7313 129.186 78.6385 129.656 78.4875V77.454C129.656 77.0495 129.984 76.7216 130.389 76.7215C130.793 76.7215 131.121 77.0495 131.121 77.454V78.4341C131.731 78.5796 132.447 78.6636 133.032 78.5705C133.403 78.5115 133.654 78.3923 133.807 78.2422C133.943 78.1089 134.07 77.8859 134.07 77.454C134.07 77.0495 134.398 76.7215 134.803 76.7215C135.207 76.7216 135.535 77.0495 135.535 77.454C135.535 78.212 135.294 78.8357 134.832 79.2883C134.388 79.7242 133.811 79.93 133.262 80.0173C132.296 80.171 131.212 79.9904 130.429 79.7669C129.756 80.0297 128.808 80.2437 127.878 80.0994C127.336 80.0151 126.781 79.8053 126.304 79.3931C125.825 78.9787 125.469 78.3973 125.267 77.6436C125.163 77.2528 125.394 76.8513 125.785 76.7466Z" fill="black"/>
<path d="M131.599 79.1835C131.704 78.7927 132.105 78.5609 132.496 78.6656C132.887 78.7703 133.119 79.1719 133.014 79.5626C132.645 80.9404 132.245 81.8934 131.783 82.4542C131.545 82.743 131.242 82.9872 130.861 83.0763C130.461 83.1701 130.097 83.0644 129.811 82.8853C129.3 82.5647 128.936 81.9488 128.684 81.4028C128.414 80.8187 128.197 80.1496 128.046 79.5533C127.947 79.1612 128.184 78.7626 128.576 78.6631C128.968 78.5635 129.367 78.8007 129.466 79.1928C129.603 79.7305 129.792 80.3088 130.013 80.7878C130.233 81.2624 130.432 81.5226 130.557 81.6212C130.581 81.6013 130.612 81.5704 130.652 81.5225C130.902 81.2185 131.239 80.5273 131.599 79.1835Z" fill="black"/>
<path d="M124.069 77.0138C124.471 76.9679 124.835 77.2566 124.881 77.6585C124.953 78.2955 124.945 79.3178 124.705 80.4024C124.464 81.486 123.977 82.6953 123.039 83.633C122.753 83.9191 122.29 83.9191 122.004 83.633C121.718 83.347 121.718 82.8833 122.004 82.5972C122.678 81.9229 123.07 81.0051 123.274 80.085C123.478 79.1658 123.48 78.3073 123.425 77.8248C123.379 77.4229 123.668 77.0598 124.069 77.0138Z" fill="black"/>
<path d="M136.837 77.0138C136.435 76.9679 136.072 77.2566 136.026 77.6585C135.953 78.2955 135.961 79.3178 136.202 80.4024C136.442 81.486 136.929 82.6953 137.867 83.633C138.153 83.9191 138.617 83.9191 138.903 83.633C139.189 83.347 139.189 82.8833 138.903 82.5972C138.228 81.9229 137.836 81.0051 137.632 80.085C137.428 79.1658 137.426 78.3073 137.481 77.8248C137.527 77.4229 137.239 77.0598 136.837 77.0138Z" fill="black"/>
<path d="M127.494 71.8735C128.184 71.7553 128.924 71.9837 129.516 72.7074C129.772 73.0205 129.726 73.4821 129.413 73.7382C129.1 73.9944 128.639 73.9481 128.382 73.635C128.235 73.4548 128.107 73.3772 128.017 73.3423C127.926 73.3076 127.836 73.3013 127.742 73.3174C127.528 73.3541 127.319 73.5037 127.218 73.6288C126.966 73.9447 126.505 73.996 126.189 73.7432C125.873 73.4905 125.822 73.0296 126.075 72.7137C126.358 72.359 126.868 71.9808 127.494 71.8735Z" fill="black"/>
<path d="M132.58 71.8735C133.27 71.7553 134.01 71.9837 134.602 72.7074C134.858 73.0205 134.812 73.4821 134.499 73.7382C134.186 73.9944 133.725 73.9481 133.468 73.635C133.321 73.4548 133.193 73.3772 133.103 73.3423C133.012 73.3076 132.922 73.3013 132.828 73.3174C132.614 73.3541 132.404 73.5037 132.304 73.6288C132.052 73.9447 131.591 73.996 131.275 73.7432C130.959 73.4905 130.908 73.0296 131.161 72.7137C131.444 72.359 131.954 71.9808 132.58 71.8735Z" fill="black"/>
<path d="M120.81 84.2515C121.203 84.1562 121.599 84.3977 121.694 84.7908C121.79 85.184 121.548 85.58 121.155 85.6754L120.779 85.7666L130.009 88.2398L140.031 85.7503L139.717 85.6764C139.324 85.5838 139.08 85.1895 139.172 84.7957C139.265 84.4019 139.659 84.1578 140.053 84.2504L143.573 85.0786L147.633 90.4524L133.784 94.5317L130.038 90.1636L126.729 94.5428L113 90.4348L117.406 85.0768L120.81 84.2515ZM131.331 89.4209L134.279 92.8586L145.187 89.6455L142.855 86.5584L131.331 89.4209ZM115.531 89.663L126.174 92.8475L128.762 89.4225L118.082 86.5606L115.531 89.663Z" fill="black"/>
<path d="M129.27 88.9935C129.27 88.589 129.598 88.261 130.002 88.261C130.407 88.261 130.735 88.5889 130.735 88.9935V103.041L142.128 100.405V91.1044C142.128 90.6999 142.456 90.372 142.86 90.3719C143.265 90.3719 143.593 90.6999 143.593 91.1044V101.57L130.003 104.714L117.18 101.763V91.1044C117.18 90.6999 117.508 90.3719 117.912 90.3719C118.317 90.3719 118.645 90.6999 118.645 91.1044V100.596L129.27 103.042V88.9935Z" fill="black"/>
<path d="M30.483 34.7317L31.5039 31.729C32.9151 27.5784 38.7854 27.5784 40.1966 31.729L41.2118 34.7147C41.3523 35.128 41.5746 35.5088 41.8653 35.8344L45.6775 40.1041C47.6245 42.2847 46.8767 45.7305 44.2009 46.9079C42.468 47.6704 40.4678 47.5102 38.8783 46.4817L37.213 45.4042C36.3926 44.8733 35.3294 44.9044 34.5413 45.4823L33.5551 46.2056C31.9249 47.401 29.791 47.6647 27.9189 46.902C25.0711 45.7418 24.2306 42.1117 26.2786 39.8179L29.8473 35.821C30.1301 35.5042 30.3463 35.1338 30.483 34.7317Z" fill="black" stroke="black" stroke-width="0.655817"/>
<path d="M35.0777 20.5803C35.2108 23.6623 33.5626 26.2366 31.3964 26.3301C29.2302 26.4237 27.3663 24.001 27.2332 20.9191C27.1001 17.8371 28.7482 15.2628 30.9144 15.1692C33.0807 15.0757 34.9446 17.4983 35.0777 20.5803Z" fill="black"/>
<path d="M37.3989 20.5803C37.2658 23.6623 38.9139 26.2366 41.0801 26.3301C43.2463 26.4237 45.1103 24.001 45.2434 20.9191C45.3765 17.8371 43.7283 15.2628 41.5621 15.1692C39.3959 15.0757 37.532 17.4983 37.3989 20.5803Z" fill="black"/>
<path d="M44.0178 29.4055C43.2305 32.1949 44.2839 34.9337 46.3706 35.5226C48.4573 36.1116 50.7872 34.3277 51.5745 31.5383C52.3618 28.7488 51.3084 26.0101 49.2217 25.4211C47.135 24.8322 44.8052 26.616 44.0178 29.4055Z" fill="black"/>
<path d="M27.9822 29.4055C28.7695 32.1949 27.7161 34.9337 25.6294 35.5226C23.5427 36.1116 21.2128 34.3277 20.4255 31.5383C19.6382 28.7488 20.6916 26.0101 22.7783 25.4211C24.865 24.8322 27.1948 26.616 27.9822 29.4055Z" fill="black"/>
<path d="M216.968 73.4055C217.208 76.9431 215.196 79.9603 212.475 80.1447C209.754 80.3292 207.354 77.6109 207.114 74.0734C206.874 70.5358 208.886 67.5186 211.607 67.3341C214.328 67.1497 216.728 69.868 216.968 73.4055Z" fill="black"/>
<path d="M217.985 73.4055C217.745 76.9431 219.757 79.9603 222.478 80.1447C225.199 80.3292 227.6 77.6109 227.839 74.0734C228.079 70.5358 226.067 67.5186 223.346 67.3341C220.625 67.1497 218.225 69.868 217.985 73.4055Z" fill="black"/>
<path d="M226.516 80.1653C225.494 83.1434 226.475 86.178 228.706 86.9434C230.937 87.7088 233.574 85.9151 234.596 82.9371C235.617 79.9591 234.637 76.9245 232.405 76.1591C230.174 75.3937 227.537 77.1873 226.516 80.1653Z" fill="black"/>
<path d="M207.93 80.1653C208.951 83.1434 207.971 86.178 205.739 86.9434C203.508 87.7088 200.871 85.9151 199.85 82.9371C198.828 79.9591 199.809 76.9245 202.04 76.1591C204.271 75.3937 206.908 77.1873 207.93 80.1653Z" fill="black"/>
<path d="M228.588 93.8329C228.588 100.073 223.53 105.131 217.29 105.131C211.05 105.131 205.992 100.073 205.992 93.8329C205.992 87.5932 211.05 82.5349 217.29 82.5349C223.53 82.5349 228.588 87.5932 228.588 93.8329Z" fill="black"/>
<path d="M27.0941 152.13L34.9231 143.961C36.2889 142.535 38.567 142.535 39.9328 143.961L47.7619 152.13C49.8759 154.336 48.3124 158 45.257 158H29.5989C26.5435 158 24.98 154.336 27.0941 152.13Z" stroke="black" stroke-width="2.08164"/>
<path d="M47.2103 131.115L47.0834 130.353C46.519 126.967 43.1323 124.826 39.8312 125.77C39.3022 125.921 38.9375 126.404 38.9375 126.954V132.099L39.1346 137.422C39.1983 139.142 41.0688 140.176 42.5596 139.316L43.6286 138.7C46.2874 137.166 47.715 134.143 47.2103 131.115Z" stroke="black" stroke-width="2.08164"/>
<path d="M27.2975 131.115L27.4244 130.353C27.9888 126.967 31.3755 124.826 34.6766 125.77C35.2056 125.921 35.5703 126.404 35.5703 126.954V132.099L35.3732 137.422C35.3095 139.142 33.439 140.176 31.9482 139.316L30.8792 138.7C28.2204 137.166 26.7928 134.143 27.2975 131.115Z" stroke="black" stroke-width="2.08164"/>
<path d="M48.2534 138.843L49.9572 136.615C50.6052 135.767 51.8037 135.576 52.6828 136.181C54.8428 137.666 55.4919 140.565 54.1711 142.83L53.4195 144.118C52.3906 145.882 50.6047 147.072 48.5807 147.341L48.2549 147.385C47.4456 147.493 46.7266 146.863 46.7266 146.047V143.353C46.7266 141.722 47.2631 140.138 48.2534 138.843Z" stroke="black" stroke-width="2.08164"/>
<path d="M26.2545 138.843L24.5506 136.615C23.9026 135.767 22.7041 135.576 21.825 136.181C19.665 137.666 19.0159 140.565 20.3367 142.83L21.0883 144.118C22.1172 145.882 23.9031 147.072 25.9271 147.341L26.2529 147.385C27.0622 147.493 27.7812 146.863 27.7812 146.047V143.353C27.7812 141.722 27.2447 140.138 26.2545 138.843Z" stroke="black" stroke-width="2.08164"/>
<path d="M143.462 34.3571L143.083 18.8787L135.716 26.6153L135.271 26.423C133.475 25.6467 131.479 25.4298 129.692 25.4867C127.904 25.5437 126.37 25.8731 125.529 26.1482L125.075 26.2962L118.77 18.564L118.022 35.028C118.004 35.4114 117.679 35.7082 117.296 35.6907C116.912 35.6732 116.616 35.3482 116.633 34.9649L117.547 14.8643L125.558 24.6889C126.552 24.4149 128.007 24.1496 129.647 24.0974C131.423 24.0408 133.455 24.2326 135.369 24.9634L144.391 15.4898L144.851 34.3232C144.861 34.7069 144.557 35.0256 144.173 35.035C143.79 35.0443 143.471 34.7409 143.462 34.3571Z" fill="black"/>
<path d="M120.09 27.076L119.969 22.113L123.137 26.0297C123.378 26.3281 123.332 26.7658 123.034 27.0072C122.735 27.2485 122.298 27.2023 122.056 26.9039L121.458 26.1647L121.48 27.042C121.489 27.4257 121.186 27.7444 120.802 27.7538C120.418 27.7632 120.1 27.4597 120.09 27.076Z" fill="black"/>
<path d="M142.098 26.5377L141.977 21.5747L139.004 25.6416C138.777 25.9514 138.845 26.3863 139.155 26.6128C139.464 26.8393 139.899 26.7717 140.126 26.4619L140.687 25.6943L140.708 26.5716C140.718 26.9554 141.036 27.2588 141.42 27.2495C141.804 27.2401 142.107 26.9214 142.098 26.5377Z" fill="black"/>
<path d="M128.607 40.3999C129.979 39.7888 132.313 39.2887 134.156 40.8631C134.703 41.3298 134.753 42.1359 134.305 42.6731C133.699 43.4005 132.728 44.1882 131.557 44.3516C130.303 44.5265 129.033 43.9614 127.962 42.4018C127.51 41.7449 127.722 40.8154 128.478 40.4595L128.607 40.3999ZM133.175 41.8554C131.951 40.8795 130.321 41.1505 129.152 41.6788C129.987 42.8612 130.768 43.0581 131.365 42.9747C132.028 42.8823 132.686 42.4165 133.175 41.8554Z" fill="black"/>
<path d="M115.826 38.4591C115.916 38.086 116.291 37.8568 116.664 37.947L124.38 39.8135C124.753 39.9037 124.982 40.2793 124.892 40.6523C124.802 41.0254 124.426 41.2549 124.053 41.1646L116.338 39.298C115.964 39.2077 115.735 38.8322 115.826 38.4591Z" fill="black"/>
<path d="M117.97 44.0447C117.862 43.6765 118.072 43.2902 118.441 43.1818L123.964 41.5563C124.332 41.4479 124.718 41.6585 124.826 42.0267C124.935 42.3949 124.724 42.7812 124.356 42.8896L118.833 44.5153C118.465 44.6236 118.078 44.4129 117.97 44.0447Z" fill="black"/>
<path d="M144.784 44.1194C144.874 43.7463 144.644 43.3708 144.271 43.2805L138.675 41.9269C138.302 41.8367 137.927 42.0659 137.837 42.439C137.746 42.812 137.976 43.1876 138.349 43.2779L143.945 44.6316C144.318 44.7218 144.693 44.4924 144.784 44.1194Z" fill="black"/>
<path d="M146.364 37.712C146.255 37.3437 145.869 37.1332 145.501 37.2415L137.886 39.4829C137.517 39.5913 137.307 39.9776 137.415 40.3458C137.524 40.714 137.91 40.9248 138.278 40.8164L145.893 38.5749C146.262 38.4665 146.472 38.0802 146.364 37.712Z" fill="black"/>
<path d="M131.204 43.0085C131.588 43.0085 131.899 43.3196 131.899 43.7035L131.899 45.1835C132.133 45.3781 132.424 45.5418 132.728 45.5856C133.062 45.6338 133.543 45.5576 134.125 44.8856C134.376 44.5954 134.815 44.5637 135.105 44.8148C135.395 45.066 135.427 45.505 135.176 45.7952C134.337 46.765 133.407 47.0879 132.529 46.9614C132.011 46.8866 131.564 46.6615 131.212 46.4082C130.411 47.0137 129.576 47.1199 128.829 46.8883C128.002 46.632 127.392 45.9968 127.102 45.4894C126.912 45.156 127.028 44.7315 127.362 44.5413C127.695 44.3512 128.12 44.4672 128.31 44.8006C128.466 45.0736 128.821 45.4309 129.24 45.5607C129.547 45.6557 129.976 45.6589 130.509 45.1899L130.509 43.7035C130.509 43.3197 130.82 43.0085 131.204 43.0085Z" fill="black"/>
<path d="M127.452 34.5794C127.74 34.3265 128.18 34.3556 128.432 34.6444C128.685 34.9331 128.656 35.3723 128.367 35.6252C127.354 36.5122 126.278 36.7396 125.342 36.6295C124.436 36.5229 123.689 36.1045 123.257 35.7305C122.967 35.4793 122.935 35.0405 123.186 34.7503C123.437 34.46 123.876 34.4283 124.166 34.6794C124.418 34.8975 124.912 35.1792 125.505 35.2489C126.068 35.3152 126.748 35.1952 127.452 34.5794Z" fill="black"/>
<path d="M138.405 34.3118C138.693 34.059 139.133 34.088 139.386 34.3768C139.638 34.6656 139.609 35.1048 139.32 35.3576C138.307 36.2447 137.231 36.472 136.295 36.362C135.389 36.2553 134.642 35.8369 134.21 35.4629C133.92 35.2117 133.888 34.7729 134.139 34.4827C134.39 34.1924 134.829 34.1607 135.12 34.4119C135.371 34.6299 135.865 34.9116 136.458 34.9813C137.021 35.0477 137.701 34.9277 138.405 34.3118Z" fill="black"/>
<path d="M227.432 134.235C227.494 133.899 227.816 133.676 228.152 133.737C228.488 133.798 228.711 134.12 228.65 134.456C228.512 135.214 228.041 137.253 227.237 139.504C226.961 140.277 226.638 141.443 227.208 142.584C228.074 144.316 228.703 147.015 227.528 149.329C226.325 151.696 223.387 153.38 217.744 153.38C212.389 153.38 209.406 151.682 207.953 149.378C206.529 147.119 206.69 144.45 207.248 142.69C207.765 140.753 207.456 139.904 207.29 139.572C206.432 137.857 206.234 135.43 206.234 134.345C206.234 134.004 206.511 133.727 206.853 133.727C207.194 133.727 207.471 134.004 207.471 134.345C207.471 135.373 207.67 137.566 208.396 139.019C208.724 139.674 209.023 140.845 208.44 143.02L208.437 143.035L208.432 143.049C207.939 144.589 207.828 146.86 209 148.718C210.148 150.54 212.643 152.142 217.744 152.143C223.19 152.143 225.532 150.526 226.425 148.768C227.346 146.956 226.886 144.705 226.102 143.137C225.286 141.505 225.783 139.898 226.072 139.088C226.853 136.903 227.306 134.929 227.432 134.235Z" fill="black"/>
<path d="M216.472 125.488C218.648 125.252 221.229 125.619 223.649 127.303C223.93 127.498 223.999 127.883 223.804 128.164C223.609 128.444 223.223 128.514 222.943 128.318C220.809 126.834 218.539 126.508 216.606 126.718C214.649 126.93 213.094 127.683 212.416 128.276C212.159 128.501 211.769 128.475 211.544 128.218C211.319 127.961 211.345 127.57 211.602 127.345C212.509 126.552 214.319 125.721 216.472 125.488Z" fill="black"/>
<path d="M210.025 123.065C210.339 122.961 210.694 122.995 211.019 123.093C211.358 123.195 211.722 123.382 212.086 123.661C212.816 124.218 213.57 125.156 214.159 126.585C214.289 126.901 214.138 127.262 213.822 127.392C213.506 127.522 213.145 127.372 213.015 127.056C212.494 125.792 211.862 125.046 211.335 124.643C211.07 124.441 210.838 124.33 210.663 124.277C210.474 124.22 210.399 124.244 210.416 124.239C210.092 124.347 209.741 124.172 209.633 123.847C209.525 123.523 209.701 123.173 210.025 123.065Z" fill="black"/>
<path d="M224.882 123.065C224.568 122.961 224.212 122.995 223.887 123.093C223.548 123.195 223.185 123.382 222.821 123.661C222.09 124.218 221.336 125.156 220.748 126.585C220.618 126.901 220.768 127.262 221.084 127.392C221.4 127.522 221.761 127.372 221.891 127.056C222.412 125.792 223.044 125.046 223.571 124.643C223.836 124.441 224.069 124.33 224.244 124.277C224.432 124.22 224.507 124.244 224.49 124.239C224.814 124.347 225.165 124.172 225.273 123.847C225.381 123.523 225.206 123.173 224.882 123.065Z" fill="black"/>
<path d="M207.845 134.147C211.409 131.969 210.815 126.226 210.419 123.454C209.468 123.199 208.901 124.246 208.637 124.84C207.82 126.679 206.987 126.754 206.657 126.82C206.34 126.028 206.789 125.434 207.053 125.236H203.092C201.825 125.236 202.118 126.256 202.498 126.82C203.448 128.246 203.737 129.87 203.884 130.583C204.835 135.177 206.892 134.729 207.845 134.147Z" fill="black"/>
<path d="M227.155 134.147C223.591 131.969 224.185 126.226 224.581 123.454C225.532 123.199 226.099 124.246 226.363 124.84C227.18 126.679 228.013 126.754 228.343 126.82C228.66 126.028 228.211 125.434 227.947 125.236H231.908C233.175 125.236 232.882 126.256 232.502 126.82C231.552 128.246 231.263 129.87 231.116 130.583C230.165 135.177 228.108 134.729 227.155 134.147Z" fill="black"/>
<path d="M222.296 146.623C222.296 147.826 220.257 148.801 217.742 148.801C215.227 148.801 213.188 147.826 213.188 146.623C213.188 145.42 215.227 144.444 217.742 144.444C220.257 144.444 222.296 145.42 222.296 146.623Z" fill="black"/>
<path d="M217.944 137.712C217.944 140.774 216.171 143.256 213.984 143.256C211.797 143.256 210.023 140.774 210.023 137.712C210.023 134.65 211.797 132.167 213.984 132.167C216.171 132.167 217.944 134.65 217.944 137.712Z" fill="black"/>
<path d="M222.694 138.702C222.694 139.905 222.074 140.88 221.308 140.88C220.542 140.88 219.922 139.905 219.922 138.702C219.922 137.499 220.542 136.524 221.308 136.524C222.074 136.524 222.694 137.499 222.694 138.702Z" fill="black"/>
<path d="M215.173 138.504C215.173 139.598 214.641 140.484 213.985 140.484C213.329 140.484 212.797 139.598 212.797 138.504C212.797 137.41 213.329 136.524 213.985 136.524C214.641 136.524 215.173 137.41 215.173 138.504Z" fill="white"/>
<path d="M220.075 132.59C220.611 132.357 221.513 132.132 222.478 132.246C223.468 132.363 224.529 132.842 225.277 134.012C225.461 134.3 225.376 134.683 225.089 134.867C224.801 135.051 224.418 134.966 224.234 134.678C223.717 133.869 223.016 133.555 222.332 133.474C221.624 133.391 220.943 133.562 220.569 133.724C220.255 133.861 219.891 133.717 219.755 133.404C219.618 133.091 219.762 132.726 220.075 132.59Z" fill="black"/>
<path d="M216.922 152.761V148.603C216.922 148.261 217.199 147.984 217.54 147.984C217.882 147.984 218.159 148.261 218.159 148.603V152.761C218.159 153.103 217.882 153.38 217.54 153.38C217.199 153.38 216.922 153.103 216.922 152.761Z" fill="black"/>
<path d="M231.69 144.954C232.935 144.202 234.304 144.249 235.438 144.835C237.629 145.965 238.898 149.04 237.245 152.199C238.064 154.163 238.078 155.824 237.513 157.104C236.921 158.445 235.74 159.259 234.458 159.529C233.181 159.799 231.77 159.54 230.669 158.702C229.677 157.946 228.981 156.754 228.838 155.162H205.826C205.582 156.95 204.86 158.177 203.832 158.85C202.703 159.59 201.34 159.57 200.178 159.081C199.018 158.591 197.999 157.613 197.508 156.332C197.041 155.115 197.066 153.663 197.834 152.163C196.927 150.388 196.806 148.791 197.249 147.498C197.717 146.137 198.782 145.199 200.002 144.797C201.22 144.396 202.619 144.52 203.761 145.308C204.802 146.027 205.566 147.25 205.821 148.974H208.833C209.175 148.974 209.452 149.251 209.452 149.592C209.452 149.934 209.175 150.211 208.833 150.211H204.697L204.652 149.641C204.515 147.904 203.843 146.868 203.059 146.327C202.265 145.779 201.275 145.68 200.389 145.972C199.505 146.263 198.751 146.934 198.419 147.9C198.09 148.859 198.151 150.198 199.077 151.866L199.247 152.172L199.072 152.476C198.318 153.781 198.306 154.959 198.663 155.889C199.026 156.837 199.79 157.574 200.659 157.941C201.527 158.307 202.441 158.283 203.155 157.815C203.865 157.351 204.513 156.356 204.652 154.497L204.695 153.924H230.047V154.543C230.047 156.103 230.641 157.126 231.419 157.717C232.212 158.321 233.251 158.52 234.202 158.319C235.148 158.119 235.971 157.534 236.382 156.604C236.792 155.674 236.836 154.292 235.993 152.42L235.863 152.132L236.022 151.857C237.573 149.171 236.454 146.751 234.871 145.934C234.086 145.529 233.176 145.502 232.329 146.013C231.467 146.533 230.585 147.667 230.026 149.752L229.903 150.211H226.657C226.315 150.211 226.038 149.934 226.038 149.592C226.038 149.251 226.315 148.974 226.657 148.974H228.963C229.582 146.962 230.546 145.644 231.69 144.954Z" fill="black"/>
<path d="M221.75 154.267C221.903 153.961 222.274 153.837 222.58 153.99C222.886 154.143 223.009 154.514 222.856 154.82C222.489 155.556 221.95 156.398 221.274 157.134C220.601 157.866 219.759 158.528 218.781 158.845C217.779 159.169 216.671 159.117 215.539 158.48C214.43 157.855 213.334 156.689 212.264 154.855C212.092 154.56 212.192 154.181 212.487 154.009C212.782 153.837 213.16 153.937 213.333 154.232C214.342 155.962 215.3 156.925 216.146 157.402C216.97 157.866 217.719 157.888 218.4 157.668C219.104 157.44 219.773 156.938 220.363 156.297C220.949 155.659 221.425 154.917 221.75 154.267Z" fill="black"/>
<path d="M122.623 127.475C123.035 124.231 127.258 118.978 134.519 124.231C135.587 125.003 137.609 125.838 139.463 125.467C139.43 125.968 138.972 126.793 137.609 127.312M122.623 127.475C122.674 128.351 123.025 130.411 124.013 131.647C122.902 132.512 121.318 132.515 120.614 132.574C119.633 132.655 119.012 133.256 118.615 133.964M122.623 127.475C118.605 127.784 115.269 131.108 117.988 135.818C118.085 135.309 118.262 134.594 118.615 133.964M134.519 127.784C135.866 127.784 136.871 127.593 137.609 127.312M137.609 127.312C137.661 128.345 136.899 130.38 133.438 130.256C133.18 130.411 132.665 130.905 132.665 131.647M118.615 133.964C119.069 133.81 119.794 133.434 120.614 134.582C121.497 135.818 123.642 135.694 125.249 134.582L125.349 133.81M125.403 132.883C125.403 133.132 125.387 133.447 125.349 133.81M141.008 150.186C145.457 152.535 143.479 158.375 141.935 161.001C143.458 155.316 135.891 151.4 131.892 150.186C130.726 149.832 129.7 149.425 128.802 148.977M133.438 132.883C135.807 134.17 139.926 137.827 139.463 142.925C139.304 144.678 140.081 147.813 143.17 148.641C137.763 149.568 128.555 147.629 128.802 138.599M125.349 133.81C125.217 135.095 124.827 136.973 124.013 138.599C122.542 141.54 123.038 146.1 128.802 148.977M125.349 133.81C126.552 134.016 129.358 134.119 130.965 132.883M124.013 151.268C123.807 150.493 124.322 149.193 128.03 150.186L128.802 148.977" stroke="black" stroke-width="1.66416" stroke-linecap="round"/>
<path d="M36.8948 70.094C38.4817 70.0659 40.6772 70.8217 42.3448 73.0427C44.0165 75.269 45.1075 78.8943 44.6544 84.5342L44.6521 84.5634L44.6474 84.5923C43.9409 88.951 40.2803 91.0506 36.7226 91.0275C33.1721 91.0044 29.5066 88.8663 28.7734 84.5991L28.7695 84.5769L28.7671 84.5544C28.1611 78.967 29.2848 75.3418 31.0684 73.0993C32.8416 70.8699 35.1972 70.0988 36.8795 70.0942V70.094C36.8812 70.094 36.8828 70.094 36.8845 70.094C36.8879 70.094 36.8914 70.0938 36.8948 70.0938V70.094ZM36.9098 71.5461L36.9022 71.5463H36.8948C35.6159 71.5463 33.6851 72.1426 32.2051 74.0033C30.7325 75.8549 29.6355 79.051 30.2087 84.3744C30.8037 87.7748 33.7164 89.5555 36.7322 89.575C39.7397 89.5945 42.633 87.8617 43.2092 84.3852C43.6378 78.9835 42.5702 75.7617 41.1835 73.9149C39.7953 72.0661 38.0373 71.5225 36.9098 71.5461Z" fill="black"/>
<path d="M35.4328 78.6236C35.4328 79.125 35.0263 79.5314 34.525 79.5314C34.0236 79.5314 33.6172 79.125 33.6172 78.6236C33.6172 78.1222 34.0236 77.7158 34.525 77.7158C35.0263 77.7158 35.4328 78.1222 35.4328 78.6236Z" fill="black"/>
<path d="M39.7921 78.6236C39.7921 79.125 39.3857 79.5314 38.8843 79.5314C38.383 79.5314 37.9766 79.125 37.9766 78.6236C37.9766 78.1222 38.383 77.7158 38.8843 77.7158C39.3857 77.7158 39.7921 78.1222 39.7921 78.6236Z" fill="black"/>
<path d="M36.8878 81.5286C37.9907 81.5286 38.8849 82.1789 38.8849 82.981C38.8849 83.7832 37.9907 84.4335 36.8878 84.4335C35.7848 84.4335 34.8906 83.7832 34.8906 82.981C34.8906 82.1789 35.7848 81.5286 36.8878 81.5286Z" fill="black"/>
<path d="M37.6264 84.0972C37.687 84.406 37.9302 84.91 38.3836 85.2619C38.8022 85.5868 39.4401 85.8149 40.4017 85.5572C40.7891 85.4534 41.1874 85.6835 41.2912 86.0709C41.395 86.4583 41.1649 86.8564 40.7776 86.9602C39.3866 87.3329 38.2784 87.0186 37.4932 86.4092C37.2958 86.256 37.1216 86.0861 36.9695 85.9076C36.8468 86.0697 36.7038 86.226 36.5365 86.3695C35.798 87.0029 34.7237 87.2805 33.2695 86.9689C32.8774 86.8849 32.6276 86.4989 32.7116 86.1067C32.7956 85.7145 33.1816 85.4647 33.5738 85.5487C34.6927 85.7885 35.2727 85.54 35.5909 85.267C35.9435 84.9646 36.1236 84.5053 36.2002 84.1018L37.6264 84.0972Z" fill="black"/>
<path d="M28.2537 69.0134C29.087 68.9449 29.7899 69.1754 30.2843 69.4501L30.415 69.5237C31.7594 70.2942 32.9386 71.3296 33.3858 71.7768C33.6694 72.0604 33.6694 72.5203 33.3858 72.8039C33.1022 73.0876 32.6423 73.0876 32.3587 72.8039C31.9627 72.4079 30.8273 71.4133 29.579 70.7198C29.2864 70.5572 28.868 70.4202 28.3726 70.4609C27.8866 70.5009 27.2653 70.7167 26.5604 71.3575L26.5411 71.3751L26.5205 71.3912C25.73 72.0124 24.5668 73.2647 23.9193 74.5667C23.5964 75.216 23.4317 75.8183 23.4546 76.3269C23.4761 76.8021 23.66 77.2306 24.1312 77.6008C24.4942 77.886 25.1601 78.092 26.0243 77.6354C26.9291 77.1574 28.1119 75.9152 29.2597 73.1176C29.4119 72.7465 29.8361 72.5691 30.2072 72.7213C30.5782 72.8736 30.7557 73.2978 30.6034 73.6688C29.3987 76.6054 28.0419 78.2122 26.7028 78.9196C25.3231 79.6485 24.0406 79.3766 23.2339 78.7428C22.4185 78.1022 22.0434 77.2748 22.0036 76.3925C21.9653 75.5438 22.2372 74.6873 22.6188 73.9199C23.3748 72.3997 24.6791 70.9965 25.6028 70.2652C26.5089 69.448 27.4169 69.0823 28.2537 69.0134Z" fill="black"/>
<path d="M45.3948 69.0134C44.5615 68.9449 43.8585 69.1754 43.3641 69.4501L43.2335 69.5237C41.889 70.2942 40.7099 71.3296 40.2626 71.7768C39.979 72.0604 39.979 72.5203 40.2626 72.8039C40.5462 73.0876 41.0061 73.0876 41.2897 72.8039C41.6858 72.4079 42.8211 71.4133 44.0694 70.7198C44.3621 70.5572 44.7804 70.4202 45.2758 70.4609C45.7618 70.5009 46.3831 70.7167 47.088 71.3575L47.1073 71.3751L47.1279 71.3912C47.9184 72.0124 49.0816 73.2647 49.7291 74.5667C50.052 75.216 50.2168 75.8183 50.1938 76.3269C50.1724 76.8021 49.9884 77.2306 49.5172 77.6008C49.1543 77.886 48.4884 78.092 47.6242 77.6354C46.7193 77.1574 45.5365 75.9152 44.3888 73.1176C44.2365 72.7465 43.8123 72.5691 43.4413 72.7213C43.0702 72.8736 42.8928 73.2978 43.045 73.6688C44.2498 76.6054 45.6066 78.2122 46.9456 78.9196C48.3254 79.6485 49.6079 79.3766 50.4145 78.7428C51.2299 78.1022 51.605 77.2748 51.6448 76.3925C51.6831 75.5438 51.4112 74.6873 51.0296 73.9199C50.2736 72.3997 48.9694 70.9965 48.0456 70.2652C47.1396 69.448 46.2316 69.0823 45.3948 69.0134Z" fill="black"/>
<path d="M42.6214 89.6737C42.6641 89.2749 43.0221 88.9862 43.4208 89.0288C44.5377 89.1485 45.8935 89.9383 46.6013 91.5712C47.2238 93.0074 47.3154 95.0169 46.449 97.7033C46.9442 97.7376 47.3927 97.8949 47.766 98.156C48.4366 98.625 48.8172 99.4047 48.7292 100.214C48.6388 101.045 48.0734 101.773 47.1291 102.185C46.2031 102.59 44.9085 102.703 43.2208 102.413C42.8255 102.346 42.56 101.97 42.6278 101.575C42.6955 101.18 43.0709 100.914 43.4662 100.982C44.9948 101.244 45.9746 101.104 46.5477 100.854C47.1025 100.612 47.2608 100.282 47.2853 100.057C47.3122 99.8093 47.199 99.5321 46.9335 99.3464C46.6804 99.1693 46.2367 99.0482 45.5949 99.2622L44.1173 99.7547L44.69 98.3062C45.899 95.2481 45.7682 93.3013 45.2687 92.1488C44.7695 90.9973 43.8647 90.5373 43.2662 90.4731C42.8674 90.4304 42.5787 90.0725 42.6214 89.6737Z" fill="black"/>
<path d="M31.0974 89.6737C31.0547 89.2749 30.6967 88.9862 30.2979 89.0288C29.181 89.1485 27.8253 89.9383 27.1175 91.5712C26.495 93.0074 26.4033 95.0169 27.2698 97.7033C26.7746 97.7376 26.326 97.8949 25.9528 98.156C25.2821 98.625 24.9016 99.4047 24.9895 100.214C25.0799 101.045 25.6454 101.773 26.5897 102.185C27.5157 102.59 28.8103 102.703 30.4979 102.413C30.8932 102.346 31.1588 101.97 31.091 101.575C31.0232 101.18 30.6478 100.914 30.2525 100.982C28.7239 101.244 27.7441 101.104 27.171 100.854C26.6162 100.612 26.4579 100.282 26.4335 100.057C26.4066 99.8093 26.5198 99.5321 26.7852 99.3464C27.0384 99.1693 27.482 99.0482 28.1239 99.2622L29.6015 99.7547L29.0288 98.3062C27.8198 95.2481 27.9505 93.3013 28.4501 92.1488C28.9492 90.9973 29.854 90.5373 30.4525 90.4731C30.8513 90.4304 31.1401 90.0725 31.0974 89.6737Z" fill="black"/>
<path d="M32.7844 92.0678C33.1806 92.0057 33.5522 92.2764 33.6144 92.6726L34.4153 97.7734C34.6631 97.7852 34.9225 97.8125 35.1934 97.8562C35.5894 97.9201 35.8586 98.2929 35.7947 98.6888C35.7307 99.0848 35.358 99.354 34.962 99.29C34.5297 99.2203 34.1607 99.206 33.8502 99.2296C33.0124 99.2932 32.6217 99.6239 32.4625 99.9042C32.2958 100.198 32.3011 100.569 32.4956 100.894C32.6835 101.207 33.0695 101.5 33.7048 101.543C34.2932 101.583 35.1275 101.405 36.1895 100.751V92.7852C36.1895 92.3841 36.5147 92.059 36.9157 92.059C37.3168 92.059 37.642 92.3841 37.642 92.7852V100.672C39.1216 101.288 40.0725 101.317 40.6114 101.159C41.1385 101.004 41.324 100.664 41.3362 100.317C41.35 99.9239 41.1374 99.4698 40.7134 99.2005C40.3162 98.9482 39.6476 98.8114 38.6786 99.2377C38.3115 99.3993 37.8829 99.2327 37.7214 98.8656C37.5599 98.4985 37.7265 98.0699 38.0936 97.9083C38.4794 97.7386 38.8538 97.6263 39.2123 97.5656L39.8939 92.6849C39.9493 92.2876 40.3163 92.0105 40.7135 92.0659C41.1107 92.1213 41.3879 92.4884 41.3325 92.8856L40.6719 97.6167C40.9679 97.6952 41.2428 97.8161 41.4922 97.9745C42.3432 98.515 42.8199 99.4507 42.7878 100.368C42.754 101.329 42.1584 102.219 41.0199 102.552C40.015 102.847 38.6679 102.689 36.9806 101.969C35.7242 102.749 34.5833 103.059 33.6069 102.993C32.5318 102.92 31.6997 102.391 31.2499 101.641C30.8068 100.902 30.7547 99.9699 31.1995 99.1869C31.5481 98.5732 32.1566 98.1247 32.9663 97.9096L32.1797 92.8978C32.1175 92.5016 32.3882 92.1301 32.7844 92.0678Z" fill="black"/>
<path d="M25.6905 83.6095C25.9557 86.1286 27.5744 87.6203 28.2692 88.0174C28.6174 88.2164 28.7384 88.6601 28.5394 89.0083C28.3404 89.3565 27.8968 89.4775 27.5486 89.2785C26.8647 88.8877 25.7594 87.921 25.0074 86.4025C25.0073 86.4838 25.0091 86.5659 25.0134 86.6486C25.0682 87.71 25.4922 88.8944 26.7226 89.9305C27.0293 90.1888 27.0686 90.6469 26.8103 90.9537C26.552 91.2605 26.0937 91.2998 25.787 91.0415C24.2237 89.725 23.6367 88.1525 23.5629 86.7235C23.4905 85.322 23.9103 84.0733 24.3377 83.3253L25.4547 81.3704L25.6905 83.6095Z" fill="black"/>
</svg>
