<svg width="260" height="178" viewBox="0 0 260 178" fill="none" xmlns="http://www.w3.org/2000/svg">
<path d="M244.086 145.183C244.056 145.339 244.021 145.496 243.977 145.652L239.792 160.298C238.99 163.105 236.044 164.71 233.251 163.864L212.18 157.479C212.021 157.431 211.867 157.375 211.717 157.314L212.448 155.73C212.526 155.76 212.605 155.787 212.686 155.812L233.756 162.197C235.618 162.761 237.581 161.691 238.116 159.82L242.302 145.172C242.352 144.998 242.386 144.822 242.408 144.647L244.086 145.183ZM213.697 136.516C214.612 133.879 217.436 132.425 220.113 133.214L238.375 138.597L238.016 140.307L219.621 134.885C217.837 134.359 215.953 135.329 215.344 137.086L210.403 151.335C210.219 151.868 210.17 152.415 210.24 152.937H208.489C208.426 152.224 208.508 151.486 208.758 150.765L213.697 136.516Z" fill="black"/>
<path d="M212.589 150.67L210.793 151.868L214.985 152.467L213.787 156.06L215.584 155.162L217.081 151.269L212.589 150.67Z" fill="black"/>
<path d="M207.796 153.835L206 155.033L210.192 155.631L208.994 159.224L210.791 158.326L212.288 154.434L207.796 153.835Z" fill="black"/>
<path d="M243.213 138.903L242.455 137.168L241.532 140.258L239.011 138.982L239.471 140.745L242.227 141.559L243.213 138.903Z" fill="black"/>
<path d="M244.382 141.68L243.605 139.954L242.716 143.054L240.182 141.806L240.661 143.563L243.463 144.483L244.382 141.68Z" fill="black"/>
<path d="M227.857 166.71L229.654 161.919L232.049 162.817L227.857 166.71Z" fill="black"/>
<path d="M18.9658 133H31.8169H43.5186C46.2612 133 48.4844 135.223 48.4844 137.966V153.035C48.4844 155.778 46.2611 158.001 43.5186 158.001H36.7197C36.3451 158.001 35.9905 158.17 35.7548 158.462L32.2071 162.844C31.7102 163.458 30.7742 163.458 30.2773 162.844L26.7296 158.462C26.4938 158.17 26.1393 158.001 25.7647 158.001H18.9658C16.2232 158.001 14 155.778 14 153.035V137.966C14 135.223 16.2232 133 18.9658 133Z" stroke="black" stroke-width="1.86216"/>
<path d="M24.3438 140.758L29.5177 145.156C29.815 145.409 29.8081 145.87 29.5034 146.114L24.3438 150.242" stroke="black" stroke-width="1.86216" stroke-linecap="round"/>
<path d="M31.8164 150.242C32.0463 150.242 36.127 150.242 38.1385 150.242" stroke="black" stroke-width="1.86216" stroke-linecap="round"/>
<path d="M14 38.7205V15.7059C14 12.8416 16.322 10.5195 19.1864 10.5195H42.8136C45.678 10.5195 48 12.8416 48 15.7059V38.7205C48 41.5849 45.678 43.9069 42.8136 43.9069H19.1864C16.322 43.9069 14 41.5849 14 38.7205Z" stroke="black" stroke-width="1.9449" stroke-linecap="round"/>
<path d="M14.6133 18.1772H47.0817" stroke="black" stroke-width="1.9449" stroke-linecap="round"/>
<path d="M20.5059 23.9966L26.7754 30.2661C27.0327 30.5235 27.0279 30.9422 26.7646 31.1935L20.5059 37.1678" stroke="black" stroke-width="1.9449" stroke-linecap="round"/>
<path d="M28.1641 37.168H36.4343" stroke="black" stroke-width="1.9449" stroke-linecap="round"/>
<path d="M116.914 148.478L121.117 152.434C121.393 152.694 121.393 153.132 121.117 153.392L116.914 157.348" stroke="black" stroke-width="1.97224" stroke-linecap="round"/>
<path d="M124.674 156.517H129.94" stroke="black" stroke-width="1.97224" stroke-linecap="round"/>
<path d="M135.606 129.059C136.009 126.329 139.947 126.329 140.35 129.059C140.721 131.569 142.692 133.54 145.202 133.911C147.932 134.314 147.932 138.252 145.202 138.655C142.692 139.026 140.721 140.997 140.35 143.507C139.947 146.236 136.009 146.236 135.606 143.507C135.235 140.997 133.264 139.026 130.754 138.655C128.025 138.252 128.025 134.314 130.754 133.911C133.264 133.54 135.235 131.569 135.606 129.059Z" fill="black"/>
<path d="M127.028 132.524C126.444 133.085 126.022 133.764 125.766 134.497H115.246C112.886 134.497 110.973 136.411 110.973 138.771V158.187C110.973 160.547 112.886 162.46 115.246 162.46H137.988C140.348 162.46 142.262 160.546 142.262 158.187V146.582C142.578 146.115 142.831 145.574 142.998 144.959C143.226 144.12 143.657 143.37 144.233 142.758V158.187C144.233 161.636 141.437 164.432 137.988 164.432H115.246C111.797 164.432 109 161.636 109 158.187V138.771C109 135.321 111.797 132.524 115.246 132.524H127.028Z" fill="black"/>
<path d="M126.233 133.511C124.575 136.215 125.597 140.297 129.302 141.303C130.324 141.58 131.216 142.157 131.884 142.935H110.121V138.771C110.121 135.866 112.475 133.511 115.38 133.511H126.233Z" fill="black"/>
<path d="M211.221 25.8125L209.444 24.035H205.593C205.265 24.035 205 23.7697 205 23.4425V19.295C205 14.7138 208.714 11 213.295 11H224.256C228.837 11 232.551 14.7138 232.551 19.295V23.1463C232.551 27.7275 228.837 31.4413 224.256 31.4413H220.109M205 26.9975V31.145C205 31.3086 205.133 31.4413 205.296 31.4413H211.814" stroke="black" stroke-width="1.7775" stroke-linecap="round"/>
<path d="M205 21.3687H219.22" stroke="black" stroke-width="1.7775" stroke-linecap="round"/>
<path d="M205.295 18.7023H213.59L215.664 16.9248" stroke="black" stroke-width="1.7775" stroke-linecap="round"/>
<path d="M216.999 14.5557C217.735 14.5557 218.332 15.1525 218.332 15.8887C218.332 16.6249 217.735 17.2217 216.999 17.2217C216.263 17.2216 215.666 16.6249 215.666 15.8887C215.666 15.1526 216.263 14.5558 216.999 14.5557Z" stroke="black" stroke-width="1.7775"/>
<path d="M221.147 20.1626C221.884 20.1626 222.48 20.7595 222.48 21.4956C222.48 22.2319 221.884 22.8286 221.147 22.8286C220.411 22.8285 219.814 22.2318 219.814 21.4956C219.815 20.7596 220.411 20.1627 221.147 20.1626Z" stroke="black" stroke-width="1.7775"/>
<path d="M212.259 25.8125C212.995 25.8125 213.592 26.4093 213.592 27.1455C213.592 27.8818 212.995 28.4785 212.259 28.4785C211.523 28.4784 210.926 27.8817 210.926 27.1455C210.926 26.4094 211.523 25.8126 212.259 25.8125Z" stroke="black" stroke-width="1.7775"/>
<path d="M220.849 37.3662C221.585 37.3662 222.182 37.963 222.182 38.6992C222.182 39.4355 221.585 40.0322 220.849 40.0322C220.112 40.0321 219.516 39.4354 219.516 38.6992C219.516 37.9631 220.113 37.3663 220.849 37.3662Z" stroke="black" stroke-width="1.7775"/>
<path d="M227.366 34.4043C228.102 34.4043 228.699 35.0012 228.699 35.7373C228.699 36.4736 228.102 37.0703 227.366 37.0703C226.63 37.0702 226.033 36.4735 226.033 35.7373C226.033 35.0013 226.63 34.4044 227.366 34.4043Z" stroke="black" stroke-width="1.7775"/>
<path d="M233.294 37.3662C234.03 37.3662 234.627 37.9631 234.627 38.6992C234.627 39.4355 234.03 40.0322 233.294 40.0322C232.558 40.0321 231.961 39.4354 231.961 38.6992C231.961 37.9632 232.558 37.3663 233.294 37.3662Z" stroke="black" stroke-width="1.7775"/>
<path d="M233.439 45.9578H239.957C240.121 45.9578 240.253 45.8252 240.253 45.6616V35.2928C240.154 33.4166 238.831 29.2493 234.328 27.5903" stroke="black" stroke-width="1.7775" stroke-linecap="round"/>
<path d="M225.44 27.2935H222.182C217.601 27.2935 213.887 31.0073 213.887 35.5885V37.6622C213.887 42.2434 217.601 45.9572 222.182 45.9572H230.477" stroke="black" stroke-width="1.7775" stroke-linecap="round"/>
<path d="M223.662 45.3657V42.4032L221.885 40.0332" stroke="black" stroke-width="1.7775" stroke-linecap="round"/>
<path d="M230.48 45.9582V42.4032L232.258 40.0332" stroke="black" stroke-width="1.7775" stroke-linecap="round"/>
<path d="M226.924 45.3653V37.0703" stroke="black" stroke-width="1.7775" stroke-linecap="round"/>
<path d="M229.196 76.1948H209.763C207.3 76.1948 205.303 78.1917 205.303 80.655V92.761C205.303 95.2243 207.3 97.2211 209.763 97.2211H217.727L222.273 101.767C222.4 101.894 222.608 101.891 222.731 101.759L226.966 97.2211H235.249C237.713 97.2211 239.709 95.2243 239.709 92.761V86.0708" stroke="black" stroke-width="1.91148" stroke-linecap="round"/>
<path d="M211.357 84.7969L214.752 87.8833C214.81 87.9357 214.808 88.0269 214.747 88.0762L211.357 90.8499" stroke="black" stroke-width="1.91148" stroke-linecap="round"/>
<path d="M217.408 90.8501H224.417" stroke="black" stroke-width="1.91148" stroke-linecap="round"/>
<path d="M239.16 69.94C239.406 69.5194 240.014 69.5194 240.26 69.94L242.331 73.4788C242.386 73.5731 242.464 73.6517 242.559 73.707L246.098 75.7774C246.518 76.0234 246.518 76.6312 246.098 76.8773L242.559 78.9477C242.464 79.0029 242.386 79.0815 242.331 79.1759L240.26 82.7147C240.014 83.1352 239.406 83.1352 239.16 82.7147L237.09 79.1759C237.035 79.0815 236.956 79.0029 236.862 78.9477L233.323 76.8773C232.902 76.6312 232.902 76.0234 233.323 75.7774L236.862 73.707C236.956 73.6517 237.035 73.5731 237.09 73.4788L239.16 69.94Z" fill="black"/>
<path d="M110.707 86.8595V77.3097C110.707 73.6723 113.656 70.7236 117.293 70.7236H129.148M142.649 86.8595V95.7506C142.649 99.388 139.701 102.337 136.063 102.337H126.514M142.649 83.2371V82.8812C142.649 80.6402 141.51 78.553 139.625 77.3411L138.039 76.3218M110.707 91.4697V91.5993C110.707 93.9628 111.973 96.145 114.025 97.3176L115.317 98.0558" stroke="black" stroke-width="1.97582" stroke-linecap="round"/>
<circle cx="117.949" cy="99.3723" r="2.63442" stroke="black" stroke-width="1.97582"/>
<circle cx="135.075" cy="75.0037" r="2.63442" stroke="black" stroke-width="1.97582"/>
<path d="M119.598 80.9316L123.12 84.7476C123.36 85.0074 123.352 85.4101 123.102 85.66L119.598 89.1642" stroke="black" stroke-width="1.97582" stroke-linecap="round"/>
<path d="M125.852 91.1401H133.426" stroke="black" stroke-width="1.97582" stroke-linecap="round"/>
<path d="M30.8192 96.8718H16.9036C15.3 96.8718 14 95.5718 14 93.9682V71.9036C14 70.3 15.3 69 16.9036 69H42.8126C44.4162 69 45.7162 70.3 45.7162 71.9036V85.3386" stroke="black" stroke-width="1.74216" stroke-linecap="round"/>
<path d="M20.4902 80.5327L25.3095 85.1225C25.4318 85.2389 25.4293 85.4348 25.304 85.548L20.4902 89.9034" stroke="black" stroke-width="1.74216" stroke-linecap="round"/>
<path d="M28.416 90.3843H29.6174" stroke="black" stroke-width="1.74216" stroke-linecap="square"/>
<path d="M39.2295 84.8579C43.4758 84.8579 46.9189 88.3001 46.9189 92.5464C46.9189 96.7928 43.4759 100.235 39.2295 100.235C34.9833 100.235 31.541 96.7926 31.541 92.5464C31.5411 88.3002 34.9834 84.8581 39.2295 84.8579ZM39.4717 87.2612C36.5872 87.5015 37.0677 90.8636 38.9902 92.7866H38.6279C36.7036 92.7866 35.1436 94.3467 35.1436 96.271V96.7046C35.1436 96.9488 35.2951 97.1688 35.5293 97.2378C37.9722 97.9573 41.6774 97.6404 43.1807 97.2319C43.4097 97.1696 43.5527 96.9557 43.5527 96.7183V96.271C43.5527 94.3467 41.9927 92.7866 40.0684 92.7866H39.9531C43.0739 89.9039 41.3925 87.1009 39.4717 87.2612Z" fill="black"/>
<path d="M140.356 29.3265C140.356 28.7694 139.905 28.3179 139.348 28.3179C138.791 28.3179 138.339 28.7694 138.339 29.3265H139.348H140.356ZM139.348 29.3265H138.339V41.6383H139.348H140.356V29.3265H139.348ZM135.986 45.0003V43.9917H111.362V45.0003V46.009H135.986V45.0003ZM108 41.6383H109.009V19.426H108H106.991V41.6383H108ZM111.362 16.064V17.0726H127.894V16.064V15.0554H111.362V16.064ZM108 19.426H109.009C109.009 18.1262 110.062 17.0726 111.362 17.0726V16.064V15.0554C108.948 15.0554 106.991 17.0121 106.991 19.426H108ZM111.362 45.0003V43.9917C110.062 43.9917 109.009 42.9381 109.009 41.6383H108H106.991C106.991 44.0522 108.948 46.009 111.362 46.009V45.0003ZM139.348 41.6383H138.339C138.339 42.9381 137.285 43.9917 135.986 43.9917V45.0003V46.009C138.4 46.009 140.356 44.0522 140.356 41.6383H139.348Z" fill="black"/>
<path d="M127.894 22.9966H108.603L108.223 19.7681C108.085 18.5946 108.582 17.4362 109.527 16.7273C110.101 16.2967 110.799 16.064 111.517 16.064H127.894V22.9966Z" fill="black"/>
<path d="M114.332 29.0249L119.016 33.7093C119.093 33.7863 119.095 33.9107 119.021 33.9901L114.332 38.9718" stroke="black" stroke-width="2.01721" stroke-linecap="round"/>
<path d="M120.963 38.3687H126.388" stroke="black" stroke-width="2.01721" stroke-linecap="round"/>
<path d="M139.973 14.8237C141.644 14.8237 142.998 16.1782 142.998 17.8491V22.4165C142.998 24.0876 141.644 25.4429 139.973 25.4429H132.391C130.72 25.4425 129.365 24.0874 129.365 22.4165V17.8491C129.365 16.1784 130.72 14.8241 132.391 14.8237H139.973ZM133.619 17.8726C132.953 17.8726 132.413 18.4119 132.413 19.0776V20.8862C132.413 21.5521 132.953 22.0923 133.619 22.0923C134.285 22.0923 134.825 21.5521 134.825 20.8862V19.0776C134.825 18.4119 134.285 17.8726 133.619 17.8726ZM138.743 17.8726C138.077 17.8726 137.537 18.4119 137.537 19.0776V20.8862C137.537 21.5521 138.077 22.0922 138.743 22.0923C139.409 22.0923 139.949 21.5521 139.949 20.8862V19.0776C139.949 18.4119 139.409 17.8726 138.743 17.8726Z" fill="black"/>
<path d="M134.824 12.1453V14.8581H137.838V12.1453C137.838 11.3129 137.164 10.6382 136.331 10.6382C135.499 10.6382 134.824 11.3129 134.824 12.1453Z" fill="black"/>
</svg>
