<svg width="260" height="178" viewBox="0 0 260 178" fill="none" xmlns="http://www.w3.org/2000/svg">
<path d="M151.894 13.859C152.434 13.859 152.872 14.2969 152.872 14.8369C152.871 15.3769 152.434 15.8146 151.894 15.8146H142.05C141.51 15.8146 141.072 15.3769 141.072 14.8369C141.072 14.2969 141.51 13.859 142.05 13.859H151.894ZM151.894 10.1183C152.434 10.1183 152.872 10.5563 152.872 11.0963C152.871 11.6364 152.434 12.074 151.894 12.074H140.081C139.541 12.074 139.104 11.6364 139.104 11.0963C139.104 10.5563 139.541 10.1183 140.081 10.1183H151.894ZM134.379 9.91504V5H157.399V20.9333H146.983L143.529 24.3873C143.147 24.7691 142.528 24.7692 142.146 24.3873C141.764 24.0054 141.764 23.3863 142.146 23.0045L144.217 20.9333H142.05C141.51 20.9333 141.072 20.4953 141.072 19.9553C141.072 19.4153 141.51 18.9776 142.05 18.9776H155.444V6.95539H136.334V9.91504C136.334 10.4551 135.897 10.893 135.357 10.893C134.817 10.893 134.379 10.4551 134.379 9.91504Z" fill="black"/>
<path d="M151.898 38.0674V22.9085C151.898 22.3684 152.336 21.9308 152.876 21.9308C153.416 21.9308 153.854 22.3684 153.854 22.9085V38.0674C153.854 38.6074 153.416 39.0454 152.876 39.0454C152.336 39.0454 151.898 38.6074 151.898 38.0674Z" fill="black"/>
<path d="M137.339 18.0566C137.339 16.1872 136.843 15.3468 136.408 14.9435C135.946 14.5146 135.181 14.2333 133.979 14.2333C132.778 14.2333 132.013 14.5145 131.551 14.9435C131.116 15.3468 130.62 16.1872 130.62 18.0566C130.62 19.9354 131.129 21.5478 131.85 22.6328C132.58 23.732 133.372 24.1027 133.979 24.1028V26.0584L133.842 26.0558C130.97 25.9463 128.664 22.4068 128.664 18.0566C128.664 13.6374 131.044 12.2776 133.979 12.2776C136.915 12.2776 139.295 13.6374 139.295 18.0566L139.293 18.2632C139.221 22.587 136.869 26.0584 133.979 26.0584V24.1028C134.587 24.1028 135.379 23.7321 136.109 22.6328C136.83 21.5478 137.339 19.9354 137.339 18.0566Z" fill="black"/>
<path d="M135.417 16.893C135.526 17.1118 135.679 17.3626 135.954 17.5563C136.217 17.7416 136.67 17.9289 137.476 17.8752C137.914 17.846 138.293 18.1776 138.322 18.6158C138.351 19.0541 138.02 19.433 137.581 19.4622C136.466 19.5366 135.64 19.2805 135.039 18.857C134.88 18.7452 134.742 18.6253 134.622 18.5039C134.296 18.7534 133.938 18.937 133.608 19.0705C132.965 19.3306 132.311 19.4507 131.882 19.4828C131.444 19.5155 131.062 19.187 131.03 18.749C130.997 18.311 131.325 17.9295 131.763 17.8967C132.049 17.8753 132.54 17.7869 133.012 17.596C133.496 17.3999 133.848 17.1416 134.016 16.8509L134.755 15.5708L135.417 16.893Z" fill="black"/>
<path d="M142.646 37.8706V31.9005C141.461 30.4252 139.611 29.7133 138.487 29.4735L133.763 34.8423L129.233 29.4487C128.726 29.5287 128.053 29.7034 127.365 30.0219C126.513 30.4164 125.69 31.0069 125.112 31.8564V37.8706C125.112 38.4106 124.674 38.8483 124.134 38.8483C123.594 38.8483 123.156 38.4106 123.156 37.8706V31.2999L123.295 31.0676C124.132 29.6726 125.376 28.7876 126.543 28.2471C127.705 27.7092 128.851 27.4835 129.595 27.4443L130.082 27.4187L133.797 31.8426L137.714 27.3927L138.22 27.4491C139.547 27.5966 142.62 28.4834 144.42 31.0023L144.602 31.2575V37.8706C144.602 38.4106 144.164 38.8483 143.624 38.8483C143.084 38.8483 142.646 38.4106 142.646 37.8706Z" fill="black"/>
<path d="M159.414 39.4523L159.366 40.4765C159.327 41.2825 159.093 42.5152 158.517 43.7132C157.939 44.9163 156.975 46.1643 155.434 46.8383L155.247 46.9201H112.724L112.549 46.8502C111.254 46.332 108.9 44.4023 108.21 40.6049L108 39.4523H159.414ZM110.424 41.4077C111.126 43.5518 112.462 44.6269 113.123 44.9644H154.825C155.711 44.5183 156.333 43.7421 156.755 42.8657C156.994 42.3677 157.156 41.8599 157.261 41.4077H110.424Z" fill="black"/>
<path d="M113.512 37.2799V17.7899C113.512 17.1002 113.548 16.0637 114.069 15.195C114.655 14.2184 115.709 13.6624 117.245 13.6624H125.515C126.054 13.6624 126.492 14.1001 126.492 14.64C126.492 15.18 126.054 15.6177 125.515 15.6177H117.245C116.223 15.6178 115.898 15.9477 115.746 16.2014C115.529 16.5631 115.467 17.1016 115.467 17.7899V37.2799C115.467 37.8199 115.029 38.2579 114.489 38.2579C113.949 38.2579 113.512 37.8199 113.512 37.2799Z" fill="black"/>
<path d="M47.0533 38.75C47.0533 35.2013 44.1765 32.3246 40.6278 32.3246C37.0792 32.3246 34.2024 35.2014 34.2024 38.75C34.2024 42.2987 37.0792 45.1755 40.6278 45.1755V47.124C36.003 47.1239 32.2539 43.3748 32.2539 38.75C32.2539 34.1252 36.0031 30.3761 40.6278 30.3761C45.2526 30.3761 49.0018 34.1252 49.0018 38.75C49.0018 43.3748 45.2527 47.124 40.6278 47.124V45.1755C44.1765 45.1755 47.0533 42.2987 47.0533 38.75Z" fill="black"/>
<path d="M41.1477 34.5629V38.8312L44.0073 40.4828L43.0327 42.1703L39.1992 39.9563V34.5629H41.1477Z" fill="black"/>
<path d="M24.4545 3.80355C26.0106 3.40466 27.6688 4.02239 29.2505 5.90677C30.8626 6.00076 32.0598 6.57279 32.8947 7.42743H42.0234V26.0488H40.0749V9.37589H34.0668C34.4371 10.4717 34.4531 11.5897 34.3408 12.3757L34.2213 13.2123H16.6727V12.238C16.6727 11.5085 16.7641 10.4369 17.1519 9.37589H10.9485V43.1058H28.3889V45.0543H9V7.42743H18.331C19.1155 6.60427 20.2161 6.02981 21.6904 5.91407C22.2607 5.06398 23.1941 4.12664 24.4545 3.80355ZM28.0004 7.46104C26.6005 5.64122 25.5555 5.53299 24.9385 5.69112C24.1797 5.88562 23.4952 6.6109 23.1086 7.3288L22.8327 7.84128H22.2508C20.8394 7.84128 20.041 8.3617 19.545 8.99945C19.0428 9.64527 18.7938 10.4895 18.6878 11.2638H32.4488C32.416 10.5087 32.2058 9.65429 31.6928 9.00643C31.2 8.38412 30.3446 7.84128 28.7726 7.84128H28.2928L28.0004 7.46104Z" fill="black"/>
<path d="M34.1443 18.9365V20.885H23.4023V18.9365H34.1443Z" fill="black"/>
<path d="M34.1443 25.0747V27.0232H23.4023V25.0747H34.1443Z" fill="black"/>
<path d="M29.5405 31.9802V33.9287H23.4023V31.9802H29.5405Z" fill="black"/>
<path d="M22.1689 32.1088L18.4109 35.8669L16.1875 33.6434L17.5651 32.2658L18.4106 33.1113L20.791 30.7312L22.1689 32.1088Z" fill="black"/>
<path d="M22.1689 25.2032L18.4109 28.9612L16.1875 26.7378L17.5651 25.3602L18.4106 26.2056L20.791 23.8256L22.1689 25.2032Z" fill="black"/>
<path d="M22.1689 19.065L18.4109 22.823L16.1875 20.5996L17.5651 19.222L18.4106 20.0675L20.791 17.6874L22.1689 19.065Z" fill="black"/>
<path d="M236.319 13.5639C233.847 15.6329 230.361 16.7472 227.442 17.3082C227.353 20.4706 228.117 22.5507 229.12 23.8175C230.187 25.1631 231.556 25.6427 232.653 25.5625C233.983 25.4651 234.898 24.9111 235.544 24.0841C236.21 23.2309 236.622 22.0414 236.817 20.6522C237.14 18.3404 236.835 15.6598 236.319 13.5639ZM241.044 18.5006C241.044 14.7238 239.978 11.9701 238.436 10.1518C236.895 8.33389 234.843 7.40666 232.769 7.32471C228.841 7.16956 224.629 10.0723 223.794 16.2324C224.586 16.1798 225.537 16.0744 226.568 15.8979C229.92 15.3243 233.899 14.0395 236.149 11.602L237.046 10.6297L237.451 11.8892C238.205 14.234 238.776 17.7927 238.346 20.866C238.13 22.4051 237.655 23.8892 236.761 25.034C235.847 26.2048 234.531 26.9732 232.766 27.1024C231.13 27.2221 229.276 26.4998 227.91 24.7762C226.663 23.2014 225.851 20.8338 225.893 17.5647C225.071 17.6794 224.313 17.7508 223.659 17.7874C223.65 18.021 223.646 18.2588 223.646 18.5006V25.0576H222.102V18.5006C222.102 17.9795 222.122 17.4732 222.161 16.982C222.757 9.51582 227.779 5.58257 232.83 5.78201C235.334 5.88095 237.792 7.00414 239.614 9.15313C241.436 11.3018 242.588 14.4315 242.588 18.5006V25.0576H241.044V18.5006Z" fill="black"/>
<path d="M232.512 37.0375L237.023 25.7586L238.768 27.8391C239.931 27.8978 241.586 28.1598 243.216 28.7782C245.016 29.461 246.88 30.6153 247.951 32.5097L248.051 32.6866V43.818H246.507V33.101C245.666 31.7371 244.229 30.8142 242.668 30.2219C241.826 29.9025 240.974 29.6895 240.209 29.5562L243.652 33.6616H238.172V32.1176H240.342L237.498 28.7277L232.539 41.1273L227.393 28.739L224.668 32.1176H226.515V33.6616H221.44L224.801 29.4931C222.917 29.8125 220.338 30.7905 218.544 33.1449V43.818H217V32.6406L217.145 32.4385C219.796 28.7577 224.003 27.8421 226.15 27.8202L227.822 25.7476L232.512 37.0375Z" fill="black"/>
<path d="M17.4193 88.1389C20.0096 98.5003 24.5618 101.965 28.4845 102.415C32.5331 102.879 36.3888 100.229 37.7862 97.4341L39.4083 98.2452C37.7099 101.642 33.1683 104.777 28.2779 104.216C23.2614 103.641 18.3326 99.2687 15.6602 88.5787L17.4193 88.1389Z" fill="black"/>
<path d="M30.2222 65.0014L30.6841 65.0079L30.6989 65.0082L30.7136 65.009C34.5261 65.2097 39.8927 66.6282 43.7531 70.2129C47.6854 73.8642 49.9224 79.642 47.6004 88.2091C47.2558 89.4807 47.2166 91.1753 47.64 92.7551C48.0621 94.3302 48.9154 95.6973 50.271 96.4719L51 96.8887L50.6405 97.6475C50.2382 98.4967 49.2986 99.4592 47.8 99.9205C46.2878 100.386 44.2758 100.324 41.7311 99.2564L42.4323 97.584C44.686 98.5291 46.2535 98.499 47.2663 98.1873C47.8306 98.0136 48.2447 97.7462 48.5331 97.4787C47.149 96.3783 46.3148 94.8162 45.8883 93.2246C45.3829 91.3391 45.4209 89.3188 45.8502 87.7348C48.0172 79.7395 45.9007 74.6817 42.5191 71.5416C39.0709 68.3398 34.1728 67.0101 30.634 66.8207C21.2146 66.6357 16.3059 69.9642 13.8832 73.9772C11.491 77.9399 11.4012 82.7657 12.1262 86.0885L12.1988 86.4052L12.2006 86.4131L12.2023 86.4208C13.5418 92.4486 11.7564 95.9291 9.88215 97.4273C10.9224 98.1644 12.8463 98.7704 15.5556 97.4158L16.3663 99.0377C11.9093 101.266 8.75498 99.2784 7.68003 97.79L7 96.8488L8.07819 96.4173C9.15479 95.9866 11.9154 93.4897 10.432 86.8143C9.5599 83.1758 9.5478 77.6499 12.3307 73.0401C15.119 68.4215 20.5896 64.9204 30.2222 65.0014Z" fill="black"/>
<path d="M31.5619 73.4692C33.2175 75.5068 36.5279 78.9389 41.3067 78.9389H42.2134V84.9426C42.2137 84.9425 42.2142 84.9427 42.2145 84.9426C42.6862 84.8601 43.3234 84.8584 43.8659 85.2466C44.4422 85.6591 44.6698 86.332 44.6802 87.0647C44.6905 87.7878 44.498 88.6969 44.0952 89.8247L44.0941 89.828C43.1788 92.3624 39.6956 97.3921 32.9866 97.3921V95.5787C38.6595 95.5787 41.6257 91.3229 42.3881 89.2131C42.7587 88.175 42.8726 87.5014 42.8668 87.0907C42.8636 86.8615 42.8256 86.7596 42.8051 86.7224C42.7776 86.7148 42.6964 86.6992 42.5271 86.7289C42.291 86.7702 42.0078 86.8795 41.7435 87.0249L40.3999 87.764V80.7166C36.1448 80.388 33.04 77.802 31.1794 75.7953C29.6037 79.534 27.0326 81.6362 24.3399 82.6921C21.3541 83.8628 18.2744 83.729 16.3203 83.2405L16.7601 81.4811C18.4177 81.8955 21.1041 82.0133 23.6778 81.0041C26.2076 80.0121 28.6845 77.913 29.9935 73.7679L30.5006 72.1628L31.5619 73.4692Z" fill="black"/>
<path d="M31.0503 96.9938V98.8073H27.5678V96.9938H31.0503ZM31.1719 96.8725V96.0986C31.1719 96.0315 31.1174 95.977 31.0503 95.977H27.5678C27.5007 95.977 27.4462 96.0315 27.4462 96.0986V96.8725C27.4463 96.9396 27.5008 96.9938 27.5678 96.9938V98.8073L27.4681 98.8049C26.4787 98.7547 25.6856 97.9613 25.6355 96.972L25.6328 96.8725V96.0986C25.6328 95.0634 26.4458 94.2181 27.4681 94.1662L27.5678 94.1636H31.0503C32.1189 94.1636 32.9853 95.03 32.9853 96.0986V96.8725L32.9827 96.972C32.9308 97.9943 32.0855 98.8073 31.0503 98.8073V96.9938C31.1174 96.9938 31.1719 96.9396 31.1719 96.8725Z" fill="black"/>
<path d="M25.6346 86.6175C25.6346 87.3655 25.0282 87.9719 24.2802 87.9719C23.5322 87.9719 22.9258 87.3655 22.9258 86.6175C22.9258 85.8695 23.5322 85.2631 24.2802 85.2631C25.0282 85.2631 25.6346 85.8695 25.6346 86.6175Z" fill="black"/>
<path d="M36.0838 86.6175C36.0838 87.3655 35.4774 87.9719 34.7294 87.9719C33.9814 87.9719 33.375 87.3655 33.375 86.6175C33.375 85.8695 33.9814 85.2631 34.7294 85.2631C35.4774 85.2631 36.0838 85.8695 36.0838 86.6175Z" fill="black"/>
<path d="M130.457 77.6544C131.525 76.926 132.989 77.0613 134.154 78.2266L134.549 78.6215C134.641 78.4937 134.745 78.3769 134.857 78.2728C135.637 77.5462 137.032 77.274 138.07 78.3125L149.476 89.7189L149.582 89.8249L151.262 93.1931L151.818 92.6285L156.99 97.6432L155.705 98.9679L151.848 95.2273L151.67 95.4084L143.841 103.351L147.413 106.808L146.13 108.134L141.22 103.383L142.638 101.944C142.532 101.938 142.395 101.941 142.213 101.96C140.284 102.158 138.355 101.7 136.737 101.1C135.111 100.498 133.734 99.7267 132.898 99.2394C131.73 98.5582 130.234 98.256 129.499 98.1183L128.513 97.9333L128.78 96.9659C129.049 95.9928 129.552 95.2679 130.248 94.8008C130.929 94.343 131.709 94.1903 132.441 94.1923C132.49 94.1925 132.539 94.1933 132.587 94.1947L126.539 88.1436C125.957 87.5617 125.641 86.8794 125.649 86.174C125.656 85.4756 125.98 84.8757 126.442 84.4645C126.589 84.3341 126.751 84.2207 126.926 84.1272C126.374 83.4943 126.117 82.7708 126.146 82.0462C126.176 81.2678 126.529 80.578 127.022 80.0787C127.512 79.5815 128.184 79.2278 128.921 79.1699C129.079 79.1575 129.237 79.1595 129.395 79.1753C129.554 78.5546 129.931 78.0135 130.457 77.6544ZM132.85 79.5315C132.218 78.9003 131.728 79.0207 131.497 79.1786C131.216 79.3707 131.032 79.7834 131.255 80.2776C131.324 80.4283 131.436 80.5991 131.613 80.7788L138.91 88.0772L137.605 89.3819L130.303 82.0784L130.3 82.076L130.298 82.0732C130.033 81.8042 129.82 81.5154 129.66 81.2128C129.458 81.0395 129.255 80.9947 129.066 81.0095C128.824 81.0284 128.554 81.1533 128.336 81.3744C128.12 81.5934 128 81.8618 127.99 82.118C127.981 82.3525 128.06 82.6638 128.406 83.0118L130.044 84.6312L130.045 84.6315L136.151 90.673L134.853 91.9849L128.747 85.9437L128.745 85.9416C128.352 85.5508 127.912 85.6267 127.668 85.8433C127.548 85.9504 127.495 86.0745 127.494 86.1929C127.493 86.2974 127.531 86.5037 127.789 86.7822L127.844 86.839L136.466 95.4648L135.357 96.9188C134.588 96.4815 133.432 96.0404 132.436 96.0376C131.952 96.0362 131.566 96.1379 131.277 96.3325C131.188 96.3917 131.101 96.4654 131.016 96.5581C131.849 96.7676 132.901 97.1048 133.828 97.6456C134.634 98.116 135.903 98.823 137.378 99.3698C138.862 99.9196 140.489 100.282 142.024 100.124C142.513 100.073 143.048 100.072 143.559 100.272C143.731 100.339 143.889 100.425 144.034 100.527L149.892 94.5825L148.065 90.9169L136.765 79.6174C136.641 79.493 136.533 79.4704 136.447 79.4742C136.341 79.4788 136.216 79.5287 136.114 79.6231C136.014 79.7169 135.977 79.8152 135.973 79.8829C135.97 79.9295 135.976 80.0487 136.155 80.2277L141.268 85.3415L139.963 86.6461L134.85 81.5326C134.848 81.5305 134.846 81.5282 134.844 81.526L132.85 79.5315Z" fill="black"/>
<path d="M146.466 63.5268L143.014 66.9786L151.422 75.3864L155.694 71.1142L156.999 72.4188L151.422 77.996L150.362 76.9358C150.346 76.9915 150.33 77.0499 150.314 77.1106C150.122 77.8555 149.947 78.909 149.881 80.2921L149.88 80.3119L149.878 80.3317C149.801 81.1779 149.546 82.3048 149.108 83.399C148.673 84.4836 148.022 85.6283 147.097 86.4207L145.897 85.0196C146.504 84.4987 147.016 83.6596 147.395 82.7128C147.768 81.7812 147.978 80.8345 148.039 80.1764C148.111 78.6999 148.3 77.5282 148.528 76.6484C148.642 76.2077 148.772 75.8159 148.913 75.4873L142.68 69.2539C142.114 69.7585 141.275 70.33 140.086 70.7264L140.072 70.7309L140.059 70.7351C139.52 70.8969 138.621 71.3681 137.694 72.0782C136.774 72.783 135.915 73.6546 135.394 74.5545L133.797 73.6298C134.48 72.4503 135.536 71.4064 136.572 70.6132C137.59 69.834 138.676 69.2297 139.502 68.9761L139.634 68.9304C140.422 68.6493 140.985 68.2761 141.372 67.9462L140.404 66.9786L145.161 62.2222L146.466 63.5268Z" fill="black"/>
<path d="M112.344 72.3555L115.732 75.8695L124.292 67.6162L120.098 63.2665L121.426 61.9856L126.901 67.6635L125.822 68.7045C125.877 68.7211 125.935 68.738 125.995 68.7548C126.737 68.961 127.787 69.155 129.169 69.246L129.188 69.2473L129.208 69.2495C130.053 69.3418 131.175 69.6173 132.261 70.0756C133.337 70.5298 134.47 71.202 135.245 72.1407L133.823 73.3157C133.313 72.6987 132.483 72.1722 131.544 71.7756C130.619 71.3854 129.676 71.1589 129.019 71.0856C127.544 70.9867 126.376 70.7761 125.501 70.5324C125.062 70.4104 124.673 70.2734 124.347 70.126L118.001 76.2449C118.495 76.8201 119.051 77.6694 119.426 78.8656L119.43 78.8789L119.434 78.8924C119.586 79.4344 120.041 80.3411 120.734 81.2814C121.422 82.2144 122.278 83.0887 123.168 83.626L122.214 85.2061C121.047 84.5019 120.023 83.4264 119.249 82.3762C118.488 81.3446 117.904 80.2472 117.665 79.4171L117.622 79.2842C117.355 78.4918 116.992 77.922 116.67 77.5285L115.685 78.4787L111.016 73.6364L112.344 72.3555Z" fill="black"/>
<path d="M121.643 106.482L125.169 103.107L116.947 94.5174L112.582 98.6954L111.306 97.3625L117.004 91.9084L118.041 92.9918C118.058 92.9363 118.075 92.8782 118.092 92.8177C118.301 92.0772 118.498 91.0278 118.594 89.6465L118.596 89.6267L118.598 89.6069C118.771 88.0786 119.015 86.2611 120.878 84.7334L122.048 86.16C120.796 87.1862 120.6 88.3284 120.434 89.7927C120.33 91.2718 120.115 92.4423 119.867 93.3188C119.744 93.7569 119.605 94.1458 119.457 94.4712L125.466 100.749C125.852 100.34 126.438 99.8855 127.353 99.6108L127.373 99.6052C127.755 99.4997 128.08 99.4374 128.335 99.3865C128.602 99.3333 128.77 99.2963 128.92 99.2431C129.155 99.1595 129.432 99.0081 129.907 98.4136L131.348 99.5661C130.729 100.34 130.19 100.75 129.538 100.982C129.244 101.086 128.951 101.145 128.696 101.196C128.431 101.249 128.176 101.299 127.873 101.382C127.272 101.564 126.985 101.803 126.749 102.089L127.778 103.164L122.919 107.815L121.643 106.482Z" fill="black"/>
<path d="M216.488 68.1866C216.488 66.8453 215.4 65.758 214.059 65.758C212.718 65.7581 211.631 66.8453 211.631 68.1866C211.631 69.5278 212.718 70.615 214.059 70.6151V72.4215C211.72 72.4214 209.824 70.5254 209.824 68.1866C209.824 65.8477 211.72 63.9517 214.059 63.9517C216.398 63.9517 218.294 65.8477 218.294 68.1866C218.294 70.5255 216.398 72.4215 214.059 72.4215V70.6151C215.4 70.6151 216.488 69.5278 216.488 68.1866Z" fill="black"/>
<path d="M243.054 68.1866C243.054 66.8453 241.967 65.758 240.626 65.758C239.284 65.7581 238.197 66.8453 238.197 68.1866C238.197 69.5278 239.284 70.615 240.626 70.6151V72.4215C238.287 72.4214 236.391 70.5254 236.391 68.1866C236.391 65.8477 238.287 63.9517 240.626 63.9517C242.964 63.9517 244.86 65.8477 244.86 68.1866C244.86 70.5255 242.964 72.4215 240.626 72.4215V70.6151C241.967 70.6151 243.054 69.5278 243.054 68.1866Z" fill="black"/>
<path d="M229.968 90.5164C229.968 89.1752 228.881 88.0879 227.54 88.0879C226.198 88.0879 225.111 89.1752 225.111 90.5164C225.111 91.8576 226.198 92.9449 227.54 92.9449V94.7513C225.201 94.7513 223.305 92.8553 223.305 90.5164C223.305 88.1775 225.201 86.2815 227.54 86.2815C229.878 86.2815 231.774 88.1775 231.774 90.5164C231.774 92.8553 229.878 94.7513 227.54 94.7513V92.9449C228.881 92.9449 229.968 91.8577 229.968 90.5164Z" fill="black"/>
<path d="M221.627 82.4315V78.1966C221.627 77.19 221.44 76.6913 221.222 76.439C221.031 76.2189 220.669 76.0198 219.836 76.0198H208.286C207.655 76.0198 207.251 76.1769 206.999 76.429C206.747 76.6812 206.494 77.1809 206.494 78.1966V82.4315C206.494 82.9303 206.09 83.3347 205.591 83.3347C205.092 83.3347 204.688 82.9303 204.688 82.4315V78.1966C204.688 76.9024 205.012 75.8619 205.722 75.1516C206.432 74.4413 207.376 74.2134 208.286 74.2134H219.836C220.928 74.2134 221.912 74.4763 222.588 75.2571C223.236 76.0058 223.434 77.0473 223.434 78.1966V82.4315C223.434 82.9303 223.029 83.3347 222.531 83.3347C222.032 83.3347 221.627 82.9303 221.627 82.4315Z" fill="black"/>
<path d="M248.194 82.4315V78.1966C248.194 77.19 248.007 76.6913 247.788 76.439C247.598 76.2189 247.235 76.0198 246.402 76.0198H234.852C234.221 76.0198 233.818 76.1769 233.566 76.429C233.314 76.6812 233.06 77.1809 233.06 78.1966V82.4315C233.06 82.9303 232.656 83.3347 232.157 83.3347C231.658 83.3347 231.254 82.9303 231.254 82.4315V78.1966C231.254 76.9024 231.578 75.8619 232.289 75.1516C232.999 74.4413 233.943 74.2134 234.852 74.2134H246.402C247.494 74.2134 248.479 74.4763 249.154 75.2571C249.802 76.0058 250 77.0473 250 78.1966V82.4315C250 82.9303 249.596 83.3347 249.097 83.3347C248.598 83.3347 248.194 82.9303 248.194 82.4315Z" fill="black"/>
<path d="M235.1 104.761V100.526C235.1 99.5198 234.913 99.0211 234.695 98.7689C234.504 98.5488 234.141 98.3496 233.308 98.3496H221.758C221.128 98.3496 220.724 98.5067 220.472 98.7589C220.22 99.011 219.967 99.5107 219.967 100.526V104.761C219.967 105.26 219.562 105.665 219.063 105.665C218.565 105.665 218.16 105.26 218.16 104.761V100.526C218.16 99.2322 218.484 98.1918 219.195 97.4814C219.905 96.7711 220.849 96.5432 221.758 96.5432H233.308C234.4 96.5432 235.385 96.8061 236.061 97.5869C236.708 98.3357 236.906 99.3771 236.906 100.526V104.761C236.906 105.26 236.502 105.665 236.003 105.665C235.504 105.665 235.1 105.26 235.1 104.761Z" fill="black"/>
<path d="M225.74 66.0081C226.093 65.6554 226.665 65.6554 227.018 66.0081C227.37 66.3608 227.37 66.9325 227.018 67.2852L225.095 69.2084H232.154C232.652 69.2084 233.057 69.6128 233.057 70.1115C233.057 70.6104 232.653 71.0147 232.154 71.0147H225.094L227.018 72.9379C227.37 73.2906 227.37 73.8626 227.018 74.2153C226.665 74.568 226.093 74.568 225.74 74.2153L221.637 70.1115L225.74 66.0081Z" fill="black"/>
<path d="M210.975 94.4598C210.48 94.4001 210.127 93.9501 210.186 93.4549C210.246 92.9598 210.696 92.6067 211.191 92.6663L213.891 92.9916L209.533 87.4388C209.225 87.0465 209.293 86.4787 209.685 86.1707C210.078 85.8627 210.645 85.9311 210.953 86.3235L215.312 91.8765L215.637 89.1761C215.697 88.6809 216.147 88.3277 216.642 88.3873C217.138 88.447 217.491 88.897 217.431 89.3922L216.737 95.1539L210.975 94.4598Z" fill="black"/>
<path d="M238.694 87.3404C238.199 87.4001 237.845 87.85 237.905 88.3453C237.965 88.8404 238.415 89.1934 238.91 89.1339L241.61 88.8085L237.251 94.3613C236.943 94.7537 237.012 95.3215 237.404 95.6295C237.796 95.9375 238.364 95.8691 238.672 95.4767L243.031 89.9237L243.356 92.6241C243.416 93.1193 243.866 93.4725 244.361 93.4128C244.856 93.3532 245.209 92.9032 245.15 92.408L244.455 86.6462L238.694 87.3404Z" fill="black"/>
<path d="M55.2595 138.917L40.3857 153.979L32.8086 155.316L34.1327 147.37L49.2053 132.863L55.2595 138.917ZM34.9968 153.107L38.1629 152.548L35.5556 149.755L34.9968 153.107ZM36.2289 147.845L39.966 151.849L52.7282 138.925L49.1813 135.378L36.2289 147.845Z" fill="black"/>
<path d="M16.2073 141.998C18.3335 140.774 23.8333 139.088 29.1738 141.987L29.4587 142.142L29.5791 142.443C29.7946 142.982 29.9846 143.816 30.1206 144.655C30.2589 145.508 30.3544 146.448 30.3544 147.222L28.5589 147.221C28.5589 146.573 28.4769 145.735 28.3485 144.943C28.2484 144.325 28.1273 143.784 28.0133 143.407C23.7092 141.234 19.2967 142.421 17.3757 143.407C17.1043 144.184 16.7271 145.697 16.8391 147.153L15.0489 147.29C14.8924 145.256 15.4955 143.226 15.8265 142.431L15.9437 142.15L16.2073 141.998Z" fill="black"/>
<path d="M9 132.165C9 130.783 9.17057 129.453 9.91703 128.474C10.7106 127.433 11.9759 127 13.6316 127H45.6352C46.8991 127 48.1502 127.27 49.0777 128.155C50.0121 129.047 50.4445 130.397 50.4445 132.165H48.649C48.649 130.661 48.2813 129.877 47.8377 129.454C47.3872 129.024 46.6824 128.795 45.6352 128.795H13.6316C12.2649 128.795 11.6629 129.145 11.3452 129.562C10.9805 130.041 10.7955 130.845 10.7955 132.165V159.368C10.7956 160.3 10.9413 160.862 11.2365 161.206C11.5071 161.52 12.0806 161.848 13.4537 161.848H45.6352C46.7054 161.848 47.4332 161.746 47.8985 161.44C48.2693 161.197 48.649 160.699 48.649 159.368V147.456H50.4445V159.368C50.4445 161.059 49.9352 162.251 48.8836 162.941C47.9265 163.569 46.6982 163.644 45.6352 163.644H13.4537C11.8398 163.644 10.6352 163.261 9.87466 162.376C9.13875 161.519 9.00013 160.392 9 159.368V132.165Z" fill="black"/>
<path d="M24.4611 136.432C24.4611 135.362 23.5934 134.494 22.523 134.494C21.4525 134.494 20.5846 135.362 20.5846 136.432C20.5846 137.503 21.4525 138.37 22.523 138.37V140.166L22.4265 140.165C20.4409 140.114 18.8405 138.514 18.7902 136.528L18.7891 136.432C18.7891 134.37 20.4609 132.698 22.523 132.698L22.6191 132.7C24.6367 132.751 26.2566 134.402 26.2566 136.432L26.2554 136.528C26.2044 138.546 24.5529 140.166 22.523 140.166V138.37C23.5934 138.37 24.461 137.503 24.4611 136.432Z" fill="black"/>
<path d="M29.8118 150.114V151.909H15.4102V150.114H29.8118Z" fill="black"/>
<path d="M36.3903 156.337V158.132H15.4102V156.337H36.3903Z" fill="black"/>
<path d="M128.794 143.034L131.535 149.472C133.609 146.604 136.382 145.489 138.677 145.361L138.707 145.36H147.071C151.925 145.36 157.461 151.014 156.426 161.834H158.893V164H107.728V161.834H120.461C120.465 160.973 120.7 160.208 121.13 159.587C121.765 158.67 122.773 158.151 123.814 158.151H128.629C128.877 155.622 129.426 153.537 130.187 151.834L127.362 145.2H107.831L113.476 158.151H119.162V160.317H112.057L104.523 143.034H128.794ZM138.772 147.526C136.774 147.645 134.076 148.786 132.346 152.329C131.519 154.023 130.9 156.292 130.709 159.303L130.644 160.317H123.814C123.498 160.317 123.149 160.477 122.912 160.82C122.76 161.038 122.632 161.369 122.627 161.834H134.383L135.549 156.67L137.662 157.147L136.604 161.834H154.25C155.333 151.513 150.087 147.526 147.071 147.526H138.772Z" fill="black"/>
<path d="M145.872 135.783C145.872 132.908 143.938 131.166 142.224 131.166C140.511 131.167 138.577 132.908 138.577 135.783C138.577 138.659 140.511 140.4 142.224 140.4V142.567C139.063 142.567 136.491 139.624 136.412 135.958L136.41 135.783C136.41 132.037 139.013 129 142.224 129C145.435 129 148.039 132.037 148.039 135.783L148.037 135.958C147.957 139.624 145.385 142.567 142.224 142.567V140.4C143.938 140.4 145.872 138.659 145.872 135.783Z" fill="black"/>
<path d="M240.181 137.385C241.573 136.466 243.181 135.974 244.837 136.406C246.482 136.836 247.927 138.113 249.14 140.194C250.683 142.838 251.528 147.12 250.638 150.722C250.187 152.548 249.272 154.267 247.701 155.48C246.349 156.524 244.593 157.127 242.416 157.169V163.76H240.291V154.949L241.422 155.022C243.725 155.171 245.313 154.638 246.403 153.797C247.501 152.949 248.208 151.699 248.575 150.212C249.322 147.187 248.59 143.469 247.305 141.265C246.253 139.462 245.202 138.698 244.301 138.462C243.411 138.23 242.423 138.451 241.352 139.159C239.159 140.607 237.064 143.819 235.891 147.143L233.887 146.436C235.138 142.892 237.445 139.191 240.181 137.385Z" fill="black"/>
<path d="M229.404 135.926L226.778 145.727H240.949V147.852H236.759V162.697H248.626V164.823H202.16V162.697H208.775V156.639C207.187 156.925 205.577 156.814 204.229 156.256C202.422 155.508 201.098 153.942 201.098 151.638V141.94C201.098 139.741 201.918 138.024 203.219 136.895C204.502 135.783 206.178 135.307 207.795 135.426C209.415 135.546 211.026 136.268 212.174 137.615C213.136 138.744 213.724 140.255 213.767 142.09H220.342V144.215H211.497L211.608 143.052C211.786 141.176 211.292 139.857 210.556 138.994C209.81 138.118 208.745 137.628 207.638 137.546C206.527 137.464 205.425 137.795 204.612 138.501C203.817 139.19 203.223 140.301 203.223 141.94V151.638C203.223 152.97 203.919 153.828 205.041 154.292C206.223 154.781 207.872 154.809 209.501 154.266L210.9 153.8V162.697H214.027V147.852H209.837V145.727H224.578L226.635 138.051H218.322V135.926H229.404ZM216.153 162.697H234.634V147.852H216.153V162.697Z" fill="black"/>
<path d="M245.287 129.416C245.287 127.912 244.068 126.693 242.564 126.693C241.06 126.693 239.84 127.912 239.84 129.416C239.84 130.92 241.06 132.139 242.564 132.139V134.264L242.438 134.263C239.86 134.198 237.782 132.119 237.717 129.541L237.715 129.416C237.715 126.738 239.886 124.567 242.564 124.567L242.688 124.569C245.309 124.635 247.412 126.78 247.412 129.416L247.411 129.541C247.344 132.161 245.2 134.264 242.564 134.264V132.139C244.068 132.139 245.287 130.92 245.287 129.416Z" fill="black"/>
<path d="M212.158 129.416C212.158 127.912 210.939 126.693 209.435 126.693C207.931 126.693 206.711 127.912 206.711 129.416C206.711 130.92 207.931 132.139 209.435 132.139V134.264L209.309 134.263C206.731 134.198 204.653 132.119 204.588 129.541L204.586 129.416C204.586 126.738 206.757 124.567 209.435 124.567L209.56 124.569C212.18 124.635 214.283 126.78 214.283 129.416L214.282 129.541C214.215 132.161 212.071 134.264 209.435 134.264V132.139C210.939 132.139 212.158 130.92 212.158 129.416Z" fill="black"/>
</svg>
