<svg width="260" height="178" viewBox="0 0 260 178" fill="none" xmlns="http://www.w3.org/2000/svg">
<circle cx="16.9836" cy="10.9914" r="3.14018" stroke="black" stroke-width="1.70251" stroke-linecap="round"/>
<circle cx="42.0227" cy="10.9914" r="3.14018" stroke="black" stroke-width="1.70251" stroke-linecap="round"/>
<circle cx="29.6828" cy="32.0371" r="3.14018" stroke="black" stroke-width="1.70251" stroke-linecap="round"/>
<path d="M24.9657 24.4172V20.4258C24.9657 18.3938 24.24 17.5229 22.4257 17.5229H11.54C10.0886 17.5229 9 18.2487 9 20.4258V24.4172" stroke="black" stroke-width="1.70251" stroke-linecap="round"/>
<path d="M50.0009 24.4172V20.4258C50.0009 18.3938 49.2752 17.5229 47.4609 17.5229H36.5752C35.1237 17.5229 34.0352 18.2487 34.0352 20.4258V24.4172" stroke="black" stroke-width="1.70251" stroke-linecap="round"/>
<path d="M37.6649 45.4629V41.4715C37.6649 39.4395 36.9392 38.5686 35.1249 38.5686H24.2392C22.7878 38.5686 21.6992 39.2943 21.6992 41.4715V45.4629" stroke="black" stroke-width="1.70251" stroke-linecap="round"/>
<path d="M34.0367 12.8056H25.3281M25.3281 12.8056L28.5938 16.0714M25.3281 12.8056L28.5938 9.53992" stroke="black" stroke-width="1.70251" stroke-linecap="round"/>
<path d="M13.3832 28.6107L18.7603 35.461M18.7603 35.461L19.3127 30.8757M18.7603 35.461L14.175 34.9086" stroke="black" stroke-width="1.70251" stroke-linecap="round"/>
<path d="M39.5082 36.1866L44.8853 29.3364M44.8853 29.3364L45.4377 33.9216M44.8853 29.3364L40.3 29.8888" stroke="black" stroke-width="1.70251" stroke-linecap="round"/>
<path d="M149 37.2649L145.187 33.5676L144.494 34.2711M140.912 45.006L137.331 41.5398L138.583 40.2691M144.494 34.2711L142.646 30.5636L133.012 20.9302C131.972 19.8904 130.24 21.3924 131.395 22.5478M144.494 34.2711L138.583 40.2691M131.395 22.5478L135.713 26.8666M131.395 22.5478L129.705 20.8577C128.187 19.3403 126.405 20.8321 127.098 22.3606M133.722 29.1772L127.554 23.0088C127.346 22.7977 127.197 22.5788 127.098 22.3606M127.098 22.3606C125.661 20.8577 123.12 23.1695 124.853 24.9024L126.237 26.27M131.395 31.3726L126.237 26.27M126.237 26.27C124.95 24.9896 122.873 26.6293 124.376 28.1315L131.657 35.4165C130.236 34.6077 127.208 33.6603 126.468 36.3408C127.085 36.4563 128.472 36.7297 129.588 37.3806C130.974 38.1894 134.057 39.8772 136.982 39.5759C137.719 39.5 138.2 39.6221 138.583 40.2691" stroke="black" stroke-width="1.55847"/>
<path d="M140.103 7.34058L136.637 10.8067L137.446 11.6155M149 14.8506L144.84 19.01L143.685 17.8546M137.446 11.6155C137.138 12.0006 136.406 12.7709 135.019 13.2331C133.864 13.5797 131.646 15.0586 130.629 16.8148M137.446 11.6155L143.685 17.8546M143.685 17.8546C143.377 18.2397 142.876 19.5877 142.76 22.014C142.645 23.2849 141.975 25.5264 140.681 26.6356" stroke="black" stroke-width="1.55847"/>
<path d="M111.274 15.8887L114.677 19.4174L115.5 18.6235M118.945 7.13051L123.028 11.365L121.852 12.4991M115.5 18.6235C115.879 18.9386 116.636 19.6843 117.073 21.0789C117.399 22.2404 118.837 24.4854 120.574 25.5339M115.5 18.6235L121.852 12.4991M121.852 12.4991C122.231 12.8142 123.57 13.3393 125.994 13.4991C127.262 13.6377 129.491 14.3486 130.576 15.6626" stroke="black" stroke-width="1.55847"/>
<path d="M120.221 44.7336L123.762 41.3439L122.972 40.5177M111.491 37.0312L115.74 32.9636L116.87 34.1439M122.972 40.5177C123.288 40.1394 123.574 39.4603 124.729 39.1136C125.892 38.7923 126.347 38.9981 127.271 37.8427M122.972 40.5177L116.87 34.1439M116.87 34.1439C117.187 33.7656 117.717 32.4289 117.885 30.0057C118.028 28.7376 118.213 27.4851 119.531 26.4044" stroke="black" stroke-width="1.55847"/>
<path d="M234.603 27.7443L246.863 15.9443L251 20.082L238.894 32.3417M234.603 27.7443L233.684 33.2612L238.894 32.3417M234.603 27.7443L238.894 32.3417" stroke="black" stroke-width="1.54756"/>
<path d="M229.858 27.2361C229.858 26.0101 229.551 24.1712 229.245 23.4049C224.954 21.0756 220.51 22.4344 218.824 23.4049C218.569 24.0179 218.088 25.6423 218.211 27.2361" stroke="black" stroke-width="1.54756"/>
<path d="M247.174 14.2586C247.174 11.4389 245.795 10.5807 243.803 10.5807H216.218C213.613 10.5807 213 11.9293 213 14.2586V37.7054C213 39.3911 213.49 40.6171 216.065 40.6171H243.803C245.641 40.6171 247.174 40.3106 247.174 37.7054V27.4378" stroke="black" stroke-width="1.54756"/>
<circle cx="223.882" cy="17.9364" r="2.4444" stroke="black" stroke-width="1.54756"/>
<path d="M217.746 30.5027H230.159" stroke="black" stroke-width="1.54756"/>
<path d="M217.746 35.8663H235.829" stroke="black" stroke-width="1.54756"/>
<path d="M136.59 95.2474C133.949 100.53 122.26 105.12 117.77 87.1577" stroke="black" stroke-width="1.54731"/>
<path d="M139.562 95.7426C143.657 97.4596 145.671 95.7977 146.166 94.752C143.393 93.1671 142.864 89.2641 143.525 86.8275C147.355 72.6953 136.095 68.3368 129.822 68.0066C113.312 67.6765 111.882 79.7284 113.312 85.6718C114.633 91.6152 112.212 94.2017 110.836 94.752C111.551 95.7426 113.841 97.2945 117.275 95.5775" stroke="black" stroke-width="1.54731"/>
<path d="M117.77 82.0396C120.851 82.8101 127.609 82.4689 129.987 74.9406C131.417 76.7016 134.444 79.8934 138.902 79.8934V85.3415C140.002 84.7362 141.873 84.45 140.553 88.1482C139.837 90.1293 137.086 94.0916 131.803 94.0916" stroke="black" stroke-width="1.54731"/>
<rect x="126.301" y="92.8843" width="4.7263" height="2.41497" rx="0.877294" stroke="black" stroke-width="1.54731"/>
<circle cx="124.371" cy="85.6719" r="1.15567" fill="black"/>
<circle cx="133.288" cy="85.6719" r="1.15567" fill="black"/>
<path d="M50.8563 98.5257C52.1798 88.8639 47.3821 84.4632 43.9078 84.4632H36.7938C34.7677 84.5758 32.1442 85.7299 30.5074 89.0824M50.8563 98.5257H54M50.8563 98.5257H33.8162M22.235 98.5257C21.739 96.5404 22.8968 95.3823 24.0548 95.3823H29.0181C29.1873 92.7173 29.7385 90.6573 30.5074 89.0824M22.235 98.5257H10.3235M22.235 98.5257H33.8162M34.9743 93.397L33.8162 98.5257M30.5074 89.0824L27.6949 82.4779H9L14.625 95.3823H20.0846" stroke="black" stroke-width="1.84932"/>
<path d="M39.7715 70.4983C41.8732 70.4983 43.8104 72.5376 43.8105 75.3635C43.8105 78.1897 41.8733 80.2297 39.7715 80.2297C37.6698 80.2295 35.7334 78.1895 35.7334 75.3635C35.7336 72.5377 37.6699 70.4985 39.7715 70.4983Z" stroke="black" stroke-width="1.84932"/>
<circle cx="227.734" cy="76.4567" r="3.71364" stroke="black" stroke-width="2.16662" stroke-linecap="round"/>
<circle cx="215.949" cy="71.797" r="3.71364" stroke="black" stroke-width="2.16662" stroke-linecap="round"/>
<circle cx="239.524" cy="71.797" r="3.71364" stroke="black" stroke-width="2.16662" stroke-linecap="round"/>
<path d="M230.753 84.4059C227.461 83.7206 221.018 83.9947 218.006 91.1216C217.31 92.7663 218.006 94.2739 219.926 94.2739H227.601" stroke="black" stroke-width="2.16662" stroke-linecap="round"/>
<path d="M222.802 82.3502C219.239 79.6547 210.624 77.5235 206.218 87.1471C205.752 88.1654 205.862 89.6141 208.274 89.6141H215.675" stroke="black" stroke-width="2.16662" stroke-linecap="round"/>
<path d="M232.535 82.4872C235.779 79.7461 243.664 76.7035 249.256 86.4619" stroke="black" stroke-width="2.16662" stroke-linecap="round"/>
<circle cx="238.837" cy="92.4923" r="7.14003" stroke="black" stroke-width="2.16662" stroke-linecap="round"/>
<path d="M244.457 98.2488L247.472 101.264" stroke="black" stroke-width="2.16662" stroke-linecap="round"/>
<circle cx="141.65" cy="156.932" r="6.71503" stroke="black" stroke-width="1.76818"/>
<path d="M144.279 159.27L141.242 157.517V153.133" stroke="black" stroke-width="1.76818"/>
<path d="M121.827 129.392C120.986 130.473 120.803 131.941 120.803 132.873H135.077C135.21 131.941 135.098 130.473 134.242 129.392M121.827 129.392C122.451 128.589 123.438 127.999 124.98 127.999C125.793 126.491 128.114 124.378 130.899 127.999C132.56 127.999 133.606 128.589 134.242 129.392M121.827 129.392H113.84V161.769H130.551M134.242 129.392H142.039V145.406" stroke="black" stroke-width="1.76818"/>
<path d="M126.023 139.836H135.771" stroke="black" stroke-width="1.76818"/>
<path d="M126.023 145.406H135.771" stroke="black" stroke-width="1.76818"/>
<path d="M126.023 151.673H131.594" stroke="black" stroke-width="1.76818"/>
<path d="M120.109 151.673L121.502 153.065L124.287 150.28" stroke="black" stroke-width="1.76818"/>
<path d="M120.109 145.406L121.502 146.799L124.287 144.014" stroke="black" stroke-width="1.76818"/>
<path d="M120.109 139.836L121.502 141.229L124.287 138.443" stroke="black" stroke-width="1.76818"/>
<path d="M37.3887 137.875L36.7649 130.597C36.5569 128.725 35.7251 127.893 34.2694 127.893H25.7432C24.7034 127.893 23.2061 128.434 23.0398 130.597L22 144.53L25.2417 146.401V163.87" stroke="black" stroke-width="1.75717"/>
<path d="M38.3242 150.353L41.0735 153.102L45.44 148.735" stroke="black" stroke-width="1.75717"/>
<circle cx="41.2361" cy="151.808" r="8.98641" stroke="black" stroke-width="1.75717"/>
<path d="M41.332 161.565L41.332 158.051" stroke="black" stroke-width="1.75717"/>
<path d="M41.332 146.043L41.332 142.236" stroke="black" stroke-width="1.75717"/>
<path d="M35.1784 151.901H31.6641" stroke="black" stroke-width="1.75717"/>
<path d="M50.9948 151.901L47.4805 151.901" stroke="black" stroke-width="1.75717"/>
<circle cx="29.695" cy="120.199" r="4.32032" stroke="black" stroke-width="1.75717"/>
<path d="M234.594 146.273C236.934 139.642 243.093 132.926 247.466 140.422C250.196 145.103 250.508 155.869 240.835 155.245V162.656" stroke="black" stroke-width="2.05171"/>
<path d="M220.552 142.762L213.141 142.762C213.922 134.572 203 134.181 203 141.592V150.953C203 154.464 206.901 155.634 210.411 154.464V162.656M210.411 162.656H203M210.411 162.656H215.482M247.856 162.656H235.375M215.482 162.656V146.273M215.482 162.656H235.375M215.482 146.273H210.411M215.482 146.273H225.428M240.445 146.273H235.375M235.375 162.656V146.273M235.375 146.273H225.428M225.428 146.273L227.964 136.811H218.602" stroke="black" stroke-width="2.05171"/>
<circle cx="242.001" cy="129.501" r="3.6548" stroke="black" stroke-width="2.05171"/>
<circle cx="210.021" cy="129.501" r="3.6548" stroke="black" stroke-width="2.05171"/>
</svg>
