<svg width="296" height="220" viewBox="0 0 296 220" fill="none" xmlns="http://www.w3.org/2000/svg">
<path d="M52.7915 25.0538C59.3327 22.6554 63.3421 23.8304 65.534 26.4718C67.6753 29.0525 68.0119 32.959 67.3875 36.0094L67.593 36.2149C69.2445 34.7211 70.9435 33.8782 72.3521 33.4599C73.0779 33.2444 73.7292 33.1402 74.2589 33.1191C74.6377 33.1041 74.9689 33.1309 75.2237 33.1978C75.8885 30.3788 77.0213 28.5185 78.4049 27.4341C79.8313 26.3162 81.4987 26.0417 83.1242 26.3619C86.3561 26.9986 89.4483 29.9873 90.3093 33.4303C91.183 36.9251 91.3071 41.4961 90.2197 45.3187C89.1323 49.1411 86.8119 52.272 82.7648 52.7482C80.881 52.9698 79.5243 52.578 78.5419 51.7749C77.5667 50.9774 76.9902 49.7981 76.6114 48.5024C76.2325 47.2064 76.0433 45.7655 75.8639 44.4274C75.6829 43.078 75.5122 41.8431 75.1755 40.9173C74.839 39.9918 74.4197 39.4655 73.9849 39.1974C73.555 38.9325 73.0797 38.9014 72.5871 39.0291C71.6348 39.276 70.6659 40.1069 70.0224 40.859C71.8781 43.555 73.5755 47.6213 73.6475 51.1652C73.6842 52.9709 73.2995 54.6625 72.2751 55.9632C71.2471 57.2684 69.5991 58.1491 67.1736 58.3765C61.5347 58.9052 56.9979 55.9281 53.6329 52.0362C50.2681 48.1445 48.0481 43.3096 47.0313 40.0413L47 39.9432L48.7893 37.2592L49.0607 36.8525L49.1791 37.3269C50.5588 42.8455 52.4969 46.717 54.3517 49.3116C56.0944 51.7494 57.7565 53.0505 58.8063 53.543L59.0076 53.631L59.0177 53.6352C59.9371 54.0595 61.5215 54.5851 63.2373 54.4276C64.9403 54.2711 66.7913 53.4407 68.2695 51.1179C69.6147 49.0039 69.4497 46.6278 68.6458 44.4705C67.8731 42.3972 66.5185 40.5543 65.4046 39.4037L60.796 43.1751L60.6159 43.3231L60.4815 43.132L57.4508 38.8025L57.242 38.504L57.6047 38.4634C59.5251 38.2499 61.7516 37.5028 63.2238 36.2411C63.9572 35.6125 64.496 34.8633 64.7256 33.996C64.9544 33.1314 64.8823 32.1269 64.3586 30.9747C63.9499 30.0758 63.3178 29.5401 62.5591 29.2573C61.7931 28.9717 60.8853 28.9395 59.9318 29.0755C58.0231 29.3476 55.9947 30.2853 54.7102 31.0702L54.4726 31.2157L54.3906 30.9493L52.6588 25.321L52.5987 25.1248L52.7915 25.0538ZM86.636 34.3495C84.9042 28.7211 78.41 31.7518 77.977 33.9165V34.2895C77.9769 34.3275 77.9616 34.364 77.9347 34.3909C77.7364 34.5895 77.7663 34.9457 77.9145 35.1841C78.5064 36.1365 78.9849 38.5513 78.41 42.5755C77.7173 47.4245 80.1418 48.3482 81.4406 48.2039C87.5018 48.6366 88.2233 38.102 86.636 34.3495Z" fill="black"/>
<path d="M79.7067 21.7931L75.3772 18.7625C72.7795 24.3908 65.8523 22.659 61.0898 19.6284C68.45 29.5862 75.8101 25.6896 79.7067 21.7931Z" fill="black"/>
<path d="M70.183 14L71.7088 15.5048L73.2136 17.0306L71.7088 18.5565L70.183 20.0613L68.6572 18.5565L67.1523 17.0306L68.6572 15.5048L70.183 14Z" fill="black"/>
<path d="M153.723 88C160.238 88 166.015 91.1593 169.606 96.0289C166.63 93.4001 162.649 91.7929 158.275 91.7929C149.058 91.7929 141.586 98.9252 141.586 107.723C141.586 116.521 149.058 123.654 158.275 123.654C162.65 123.654 166.63 122.046 169.606 119.417C166.015 124.287 160.238 127.447 153.723 127.447C142.83 127.447 134 118.616 134 107.723C134 96.8304 142.83 88 153.723 88Z" fill="black"/>
<path d="M164.341 98.6202L166.3 104.648C166.351 104.804 166.496 104.91 166.66 104.91H172.999L167.871 108.636C167.738 108.732 167.682 108.904 167.733 109.06L169.692 115.088L164.564 111.362C164.431 111.266 164.251 111.266 164.118 111.362L158.99 115.088L160.949 109.06C161 108.904 160.944 108.732 160.811 108.636L155.684 104.91H162.022C162.186 104.91 162.332 104.804 162.383 104.648L164.341 98.6202Z" fill="black"/>
<path d="M174.436 49.75H132L153.218 13L174.436 49.75ZM138.657 45.9069H167.779L153.218 20.6853L138.657 45.9069Z" fill="black"/>
<path d="M174.436 25.25H132L153.218 62L174.436 25.25ZM138.657 29.0931H167.779L153.218 54.3147L138.657 29.0931Z" fill="black"/>
<path d="M66.1656 80C76.1954 89.5 77.8444 93.0686 78.6363 96.5C80.1362 103 74.7727 108.167 72.106 109.5V111L73.106 111.5L67.606 115.5V117H69.606C86.8058 107 82.6237 95.5 78.6363 89.5C92.6358 96.3001 85.0934 112.5 78.106 119.5L77.0933 124L72.106 118.5L69.606 119.5C76.406 123.5 75.106 126.167 73.606 127C71.1358 128 69.803 125.5 70.1363 124C70.1661 122.5 68.6363 122.333 67.6363 122.5L67.606 127H64.606V122.5C62.6061 122 62.106 123.5 62.106 124C62.6358 127 60.6358 128 59.106 127C55.6359 124 60.7727 120.833 63.106 119.5L60.606 118.5L55.0933 124L54.605 119.5C52.605 117.333 48.224 111.086 47.1431 103C46.1406 95.5 50.5935 90.5 54.605 89.5C45.6446 100.5 55.6054 112.667 62.606 117H64.606V115.5L59.6363 111.5L60.606 111V109.5C54.1359 105 53.4696 99 54.1363 96.5C55.7363 90.5001 61.6656 85 66.1656 80ZM61.5904 89.5C52.3906 96.2999 58.0934 106 62.0904 106.5C65.2904 98.1 63.0904 91.6667 61.5904 89.5ZM71.2369 89.5C69.7369 91.6668 67.537 98.1002 70.7369 106.5C74.7339 106 80.4369 96.3 71.2369 89.5Z" fill="black"/>
<path d="M69.0938 128.5C69.0938 130.157 67.7506 131.5 66.0938 131.5C64.4369 131.5 63.0938 130.157 63.0938 128.5C63.0938 126.843 64.4369 124 66.0938 124C67.7506 124 69.0938 126.843 69.0938 128.5Z" fill="black"/>
<path d="M236.99 160.792C236.99 162.334 235.74 163.584 234.198 163.584C232.656 163.584 231.406 162.334 231.406 160.792C231.406 159.25 232.656 158 234.198 158C235.74 158 236.99 159.25 236.99 160.792Z" fill="black"/>
<path d="M235.596 168.005C236.239 168.005 236.759 168.526 236.759 169.168C236.759 169.811 236.239 170.332 235.596 170.332H232.804C232.161 170.332 231.641 169.811 231.641 169.168C231.641 168.526 232.161 168.005 232.804 168.005H235.596Z" fill="black"/>
<path d="M235.596 172.658C236.239 172.658 236.759 173.179 236.759 173.822C236.759 174.464 236.239 174.985 235.596 174.985H232.804C232.161 174.985 231.641 174.464 231.641 173.822C231.641 173.179 232.161 172.658 232.804 172.658H235.596Z" fill="black"/>
<path d="M235.828 161.723V178.01H232.57V161.723H235.828Z" fill="black"/>
<path d="M255.136 185.031C253.594 185.028 252.347 183.775 252.351 182.233C252.354 180.691 253.607 179.444 255.149 179.447C256.691 179.451 257.938 180.704 257.935 182.246C257.931 183.788 256.678 185.035 255.136 185.031Z" fill="black"/>
<path d="M247.928 183.618C247.926 184.261 247.404 184.78 246.762 184.779C246.119 184.777 245.6 184.255 245.601 183.612L245.608 180.82C245.61 180.178 246.132 179.658 246.774 179.66C247.417 179.661 247.936 180.183 247.935 180.826L247.928 183.618Z" fill="black"/>
<path d="M243.276 183.607C243.274 184.249 242.752 184.769 242.11 184.767C241.467 184.766 240.947 184.244 240.949 183.601L240.956 180.809C240.957 180.167 241.479 179.647 242.122 179.649C242.764 179.65 243.284 180.172 243.282 180.815L243.276 183.607Z" fill="black"/>
<path d="M254.207 183.866L237.92 183.827L237.928 180.569L254.215 180.608L254.207 183.866Z" fill="black"/>
<path d="M236.975 203.794C236.975 202.252 235.725 201.002 234.183 201.002C232.641 201.002 231.391 202.252 231.391 203.794C231.391 205.336 232.641 206.586 234.183 206.586C235.725 206.586 236.975 205.336 236.975 203.794Z" fill="black"/>
<path d="M235.596 196.857C236.239 196.857 236.759 196.336 236.759 195.693C236.759 195.051 236.239 194.53 235.596 194.53H232.804C232.161 194.53 231.641 195.051 231.641 195.693C231.641 196.336 232.161 196.857 232.804 196.857H235.596Z" fill="black"/>
<path d="M235.596 192.203C236.239 192.203 236.759 191.682 236.759 191.04C236.759 190.397 236.239 189.876 235.596 189.876H232.804C232.161 189.876 231.641 190.397 231.641 191.04C231.641 191.682 232.161 192.203 232.804 192.203H235.596Z" fill="black"/>
<path d="M235.828 203.139V186.852H232.57V203.139H235.828Z" fill="black"/>
<path d="M212.79 184.997C214.332 185.001 215.585 183.754 215.589 182.211C215.593 180.669 214.346 179.416 212.804 179.413C211.262 179.409 210.009 180.656 210.005 182.198C210.001 183.74 211.248 184.993 212.79 184.997Z" fill="black"/>
<path d="M220.006 183.618C220.005 184.261 220.524 184.783 221.167 184.784C221.809 184.786 222.331 184.266 222.333 183.624L222.34 180.832C222.341 180.189 221.822 179.667 221.179 179.665C220.536 179.664 220.014 180.183 220.013 180.826L220.006 183.618Z" fill="black"/>
<path d="M224.662 183.629C224.661 184.272 225.18 184.794 225.823 184.796C226.465 184.797 226.988 184.277 226.989 183.635L226.996 180.843C226.997 180.2 226.478 179.678 225.835 179.677C225.193 179.675 224.671 180.195 224.669 180.837L224.662 183.629Z" fill="black"/>
<path d="M213.723 183.836L230.01 183.875L230.018 180.617L213.73 180.578L213.723 183.836Z" fill="black"/>
<path d="M221.178 165.232C222.207 166.381 222.111 168.146 220.963 169.175C219.815 170.204 218.049 170.108 217.02 168.96C215.991 167.812 216.087 166.046 217.235 165.017C218.383 163.988 220.149 164.084 221.178 165.232Z" fill="black"/>
<path d="M225.391 171.966C225.869 171.537 226.604 171.577 227.033 172.055C227.462 172.534 227.422 173.269 226.944 173.698L224.865 175.562C224.386 175.991 223.651 175.95 223.222 175.472C222.793 174.994 222.833 174.258 223.312 173.829L225.391 171.966Z" fill="black"/>
<path d="M228.5 175.431C228.978 175.002 229.714 175.042 230.143 175.52C230.572 175.999 230.531 176.734 230.053 177.163L227.974 179.027C227.496 179.456 226.76 179.416 226.331 178.937C225.902 178.459 225.943 177.723 226.421 177.294L228.5 175.431Z" fill="black"/>
<path d="M221.371 167.133L232.243 179.26L229.817 181.434L218.945 169.307L221.371 167.133Z" fill="black"/>
<path d="M221.604 199.678C222.633 198.53 222.537 196.764 221.389 195.735C220.24 194.706 218.475 194.802 217.446 195.95C216.416 197.099 216.513 198.864 217.661 199.893C218.809 200.922 220.574 200.826 221.604 199.678Z" fill="black"/>
<path d="M225.379 193.375C225.857 193.804 226.593 193.764 227.022 193.286C227.451 192.807 227.41 192.072 226.932 191.643L224.853 189.779C224.375 189.35 223.639 189.39 223.21 189.869C222.781 190.347 222.821 191.083 223.3 191.512L225.379 193.375Z" fill="black"/>
<path d="M228.484 189.91C228.963 190.339 229.698 190.299 230.127 189.821C230.556 189.342 230.516 188.607 230.037 188.178L227.958 186.314C227.48 185.885 226.745 185.925 226.316 186.404C225.887 186.882 225.927 187.618 226.405 188.046L228.484 189.91Z" fill="black"/>
<path d="M221.359 198.208L232.231 186.081L229.805 183.906L218.934 196.034L221.359 198.208Z" fill="black"/>
<path d="M247.217 165.336C246.162 166.461 246.217 168.228 247.342 169.283C248.466 170.338 250.233 170.283 251.288 169.158C252.344 168.034 252.288 166.267 251.164 165.212C250.039 164.156 248.272 164.212 247.217 165.336Z" fill="black"/>
<path d="M242.89 171.886C242.421 171.446 241.685 171.469 241.245 171.938C240.805 172.406 240.829 173.142 241.297 173.582L243.333 175.493C243.801 175.933 244.537 175.91 244.977 175.441C245.417 174.973 245.394 174.237 244.925 173.797L242.89 171.886Z" fill="black"/>
<path d="M239.702 175.278C239.234 174.839 238.497 174.862 238.058 175.33C237.618 175.799 237.641 176.535 238.11 176.975L240.145 178.886C240.614 179.326 241.35 179.302 241.79 178.834C242.229 178.365 242.206 177.629 241.738 177.189L239.702 175.278Z" fill="black"/>
<path d="M247.016 167.146L235.868 179.021L238.243 181.25L249.391 169.376L247.016 167.146Z" fill="black"/>
<path d="M246.85 199.669C245.794 198.545 245.85 196.778 246.974 195.723C248.099 194.667 249.866 194.723 250.921 195.847C251.976 196.972 251.921 198.739 250.796 199.794C249.672 200.849 247.905 200.794 246.85 199.669Z" fill="black"/>
<path d="M242.933 193.455C242.464 193.895 241.728 193.872 241.288 193.403C240.848 192.935 240.872 192.199 241.34 191.759L243.376 189.848C243.844 189.408 244.58 189.431 245.02 189.9C245.46 190.368 245.437 191.104 244.968 191.544L242.933 193.455Z" fill="black"/>
<path d="M239.749 190.062C239.281 190.502 238.544 190.479 238.105 190.011C237.665 189.542 237.688 188.806 238.156 188.366L240.192 186.455C240.661 186.015 241.397 186.039 241.837 186.507C242.276 186.975 242.253 187.712 241.785 188.151L239.749 190.062Z" fill="black"/>
<path d="M247.063 198.195L235.915 186.32L238.29 184.091L249.438 195.965L247.063 198.195Z" fill="black"/>
<path d="M249.897 182.198C249.897 173.138 242.748 165.911 234.075 165.911C225.401 165.911 218.253 173.138 218.253 182.198C218.253 191.259 225.401 198.485 234.075 198.485V201.277C223.795 201.277 215.461 192.735 215.461 182.198C215.461 171.661 223.795 163.119 234.075 163.119C244.355 163.119 252.689 171.661 252.689 182.198C252.689 192.735 244.355 201.277 234.075 201.277V198.485C242.748 198.485 249.897 191.259 249.897 182.198Z" fill="black"/>
<path d="M236.987 182.664C236.987 180.865 235.528 179.406 233.729 179.406C231.93 179.406 230.472 180.865 230.472 182.664C230.472 184.463 231.93 185.921 233.729 185.921V188.713C230.388 188.713 227.68 186.005 227.68 182.664C227.68 179.322 230.388 176.614 233.729 176.614C237.07 176.614 239.779 179.322 239.779 182.664C239.779 186.005 237.07 188.713 233.729 188.713V185.921C235.528 185.921 236.987 184.463 236.987 182.664Z" fill="black"/>
<path d="M233.618 16.2919C233.74 15.9027 234.291 15.9027 234.413 16.2919L237.94 27.5637L247.888 21.1968C248.232 20.9771 248.654 21.3311 248.497 21.7077L243.954 32.6102L255.667 34.1267C256.072 34.1791 256.167 34.7216 255.805 34.9093L245.318 40.3414L253.315 49.0318C253.574 49.3133 253.348 49.7503 252.991 49.7307L252.918 49.7209L241.392 47.1395L241.919 58.6497L241.516 58.9572L241.01 58.98L234.015 49.825L226.845 59.2102L226.795 59.2647C226.534 59.5096 226.081 59.3205 226.098 58.9385L226.638 47.1395L215.113 49.7209L215.039 49.7307C214.682 49.7504 214.457 49.3133 214.716 49.0318L222.713 40.3414L212.225 34.9093C211.863 34.7217 211.958 34.1793 212.363 34.1267L224.076 32.6102L219.534 21.7077C219.377 21.331 219.798 20.977 220.142 21.1968L230.09 27.5637L233.618 16.2919ZM241.932 58.9385C241.95 59.3206 241.495 59.5101 241.234 59.2647L241.186 59.2102L241.01 58.98L241.516 58.9572L241.919 58.6497L241.932 58.9385ZM231.967 32.7216L226.192 29.0257L228.83 35.3543L222.031 36.2346L228.119 39.3879L223.476 44.4328L230.167 42.935L229.853 49.7827L234.015 44.336L238.177 49.7827L237.864 42.935L244.554 44.4328L239.911 39.3879L245.999 36.2346L239.2 35.3543L241.837 29.0257L236.063 32.7216L234.015 26.179L231.967 32.7216Z" fill="black"/>
<path d="M221.541 90.1352C222.226 94.6641 226.924 96.3673 230.17 96.7508C230.514 96.7914 230.641 97.2542 230.356 97.4496C220.288 104.351 217.46 103.681 213.613 104.03C210.447 104.318 209.895 105.35 210.015 105.829C210.46 107.61 214.947 107.784 218.624 107.55C220.533 107.429 222.327 106.645 223.989 105.699C227.593 103.648 233.296 101.019 236.282 99.7124L236.424 98.7184C236.748 96.4498 235.236 94.327 233.074 93.5652C229.511 92.3091 225.945 90.4683 223.493 89.0409C222.574 88.5058 221.382 89.0836 221.541 90.1352Z" fill="black"/>
<path d="M224.962 114.386L242.747 89.2772L243.862 84.5397C243.997 83.9664 244.715 83.7992 245.046 84.2859C246.479 86.3886 247.265 88.8097 247.403 90.5462C247.428 90.8612 247.217 91.1356 246.938 91.2828C242.116 93.8218 230.801 112.867 222.823 122.683C222.443 123.15 221.704 122.955 221.586 122.365L219.25 110.686C219.1 109.937 220.066 109.501 220.528 110.109L223.802 114.406C224.097 114.792 224.681 114.782 224.962 114.386Z" fill="black"/>
<path d="M250.111 96.6152C244.907 101.318 239.497 102.098 237.343 101.871L234.824 105.829L235.149 119.783C235.172 120.766 235.516 121.727 236.212 122.422C239.899 126.104 244.172 127.024 246.783 127.1C247.36 127.117 247.641 126.458 247.284 126.004C240.683 117.618 237.674 108.188 236.983 104.39H253.075C253.761 104.39 254.366 103.905 254.408 103.221C254.589 100.272 253.18 97.9304 251.936 96.5952C251.448 96.071 250.642 96.135 250.111 96.6152Z" fill="black"/>
<path d="M122.279 177.262C130.404 175.011 136.64 182.486 141.613 186.75C143.893 188.825 146.409 190.474 149.139 191.552C157.701 195.001 168.353 192.352 176.44 185.965C177.339 185.235 178.198 184.448 178.998 183.59C178.492 184.649 177.877 185.674 177.181 186.656C171.031 195.329 158.495 201.024 147.177 196.512C143.685 195.136 140.616 192.888 138.153 190.21C133.163 185.122 129.598 178.244 122.427 178.264C121.298 178.269 120.138 178.434 118.992 178.701C120.006 178.104 121.1 177.598 122.279 177.262Z" fill="black"/>
<path d="M122.279 188.835C130.404 191.086 136.64 183.611 141.613 179.347C143.893 177.272 146.409 175.622 149.139 174.544C157.701 171.096 168.353 173.745 176.44 180.132C177.339 180.862 178.198 181.649 178.998 182.506C178.492 181.448 177.877 180.422 177.181 179.441C171.031 170.768 158.495 165.073 147.177 169.585C143.685 170.961 140.616 173.208 138.153 175.887C133.163 180.975 129.598 187.852 122.427 187.832C121.298 187.828 120.138 187.663 118.992 187.396C120.006 187.992 121.1 188.499 122.279 188.835Z" fill="black"/>
</svg>
