<svg width="260" height="178" viewBox="0 0 260 178" fill="none" xmlns="http://www.w3.org/2000/svg">
<path d="M40.416 21.6318V22.3964H33.9994V21.6318H40.416ZM40.7212 21.3267V14.91C40.7212 14.7416 40.5845 14.6049 40.416 14.6049H33.9994C33.831 14.6049 33.6943 14.7416 33.6943 14.91V21.3267C33.6943 21.4951 33.831 21.6318 33.9994 21.6318V22.3964L33.8899 22.3909C33.3506 22.3361 32.9297 21.8805 32.9297 21.3267V14.91C32.9297 14.3563 33.3506 13.9006 33.8899 13.8458L33.9994 13.8403H40.416C41.0067 13.8403 41.4857 14.3194 41.4857 14.91V21.3267L41.4803 21.4362C41.4292 21.9396 41.0289 22.3398 40.5255 22.3909L40.416 22.3964V21.6318C40.5845 21.6318 40.7212 21.4951 40.7212 21.3267Z" fill="black"/>
<path d="M39.1641 20.1598V16.167H39.9056V20.1598H39.1641Z" fill="black"/>
<path d="M34.3281 20.1598L36.1249 16.167H36.855L38.6575 20.1598H37.8817L36.3359 16.5606H36.6326L35.0925 20.1598H34.3281ZM35.1552 19.2358L35.3549 18.6539H37.511L37.7106 19.2358H35.1552Z" fill="black"/>
<path d="M36.8235 24.7135V22.2182C36.8235 22.0071 36.9947 21.8359 37.2058 21.8359C37.4169 21.8359 37.5881 22.0071 37.5881 22.2182V24.7135C37.5881 24.9246 37.4169 25.0958 37.2058 25.0958C36.9947 25.0958 36.8235 24.9246 36.8235 24.7135ZM35.041 23.8225V22.2182C35.041 22.0071 35.2122 21.8359 35.4233 21.8359C35.6344 21.8359 35.8056 22.0071 35.8056 22.2182V23.8225C35.8056 24.0336 35.6344 24.2048 35.4233 24.2048C35.2122 24.2048 35.041 24.0336 35.041 23.8225ZM38.606 23.8225V22.2182C38.606 22.0071 38.7772 21.836 38.9883 21.8359C39.1994 21.8359 39.3706 22.0071 39.3706 22.2182V23.8225C39.3705 24.0336 39.1994 24.2048 38.9883 24.2048C38.7772 24.2048 38.606 24.0336 38.606 23.8225Z" fill="black"/>
<path d="M36.8235 11.3446V13.8399C36.8235 14.051 36.9947 14.2222 37.2058 14.2222C37.4169 14.2222 37.5881 14.051 37.5881 13.8399V11.3446C37.5881 11.1335 37.4169 10.9623 37.2058 10.9623C36.9947 10.9623 36.8235 11.1335 36.8235 11.3446ZM35.041 12.2356V13.8399C35.041 14.051 35.2122 14.2222 35.4233 14.2222C35.6344 14.2222 35.8056 14.051 35.8056 13.8399V12.2356C35.8056 12.0245 35.6344 11.8533 35.4233 11.8533C35.2122 11.8533 35.041 12.0245 35.041 12.2356ZM38.606 12.2356V13.8399C38.606 14.051 38.7772 14.2221 38.9883 14.2222C39.1994 14.2222 39.3706 14.051 39.3706 13.8399V12.2356C39.3705 12.0245 39.1994 11.8533 38.9883 11.8533C38.7772 11.8533 38.606 12.0245 38.606 12.2356Z" fill="black"/>
<path d="M43.9791 17.7356L41.4838 17.7356C41.2727 17.7356 41.1016 17.9068 41.1016 18.1179C41.1016 18.329 41.2727 18.5002 41.4838 18.5002L43.9791 18.5002C44.1903 18.5002 44.3614 18.329 44.3614 18.1179C44.3614 17.9068 44.1903 17.7356 43.9791 17.7356ZM43.0881 15.9531L41.4838 15.9531C41.2727 15.9531 41.1016 16.1243 41.1016 16.3354C41.1016 16.5465 41.2727 16.7177 41.4838 16.7177L43.0881 16.7177C43.2992 16.7177 43.4704 16.5465 43.4704 16.3354C43.4704 16.1243 43.2992 15.9531 43.0881 15.9531ZM43.0881 19.5181L41.4838 19.5181C41.2727 19.5181 41.1016 19.6893 41.1016 19.9004C41.1016 20.1115 41.2727 20.2827 41.4838 20.2827L43.0881 20.2827C43.2992 20.2827 43.4704 20.1115 43.4704 19.9004C43.4704 19.6893 43.2992 19.5181 43.0881 19.5181Z" fill="black"/>
<path d="M30.433 17.7356L32.9283 17.7356C33.1394 17.7356 33.3105 17.9068 33.3105 18.1179C33.3105 18.329 33.1394 18.5002 32.9283 18.5002L30.433 18.5002C30.2219 18.5002 30.0507 18.329 30.0507 18.1179C30.0507 17.9068 30.2219 17.7356 30.433 17.7356ZM31.324 15.9531L32.9283 15.9531C33.1394 15.9531 33.3105 16.1243 33.3105 16.3354C33.3105 16.5465 33.1394 16.7177 32.9283 16.7177L31.324 16.7177C31.1129 16.7177 30.9417 16.5465 30.9417 16.3354C30.9417 16.1243 31.1129 15.9531 31.324 15.9531ZM31.324 19.5181L32.9283 19.5181C33.1394 19.5181 33.3105 19.6893 33.3105 19.9004C33.3105 20.1115 33.1394 20.2827 32.9283 20.2827L31.324 20.2827C31.1129 20.2827 30.9417 20.1115 30.9417 19.9004C30.9417 19.6893 31.1129 19.5181 31.324 19.5181Z" fill="black"/>
<path d="M12.6348 47.7077V16.6921C12.6348 15.4262 13.661 14.3999 14.927 14.3999H29.1869C29.4684 14.3999 29.6966 14.6281 29.6966 14.9096C29.6966 15.1911 29.4684 15.4193 29.1869 15.4193H14.927C14.224 15.4193 13.6542 15.9892 13.6542 16.6921V47.7077C13.6542 48.4106 14.224 48.9805 14.927 48.9805H37.9211C38.6241 48.9805 39.1944 48.4107 39.1944 47.7077V27.387C39.1945 27.1056 39.4227 26.8773 39.7041 26.8773C39.9855 26.8775 40.2137 27.1057 40.2138 27.387V47.7077C40.2138 48.9737 39.1871 49.9999 37.9211 49.9999H14.927C13.661 49.9999 12.6348 48.9737 12.6348 47.7077Z" fill="black"/>
<path d="M28.6523 20.8174C28.9337 20.8175 29.162 21.0456 29.162 21.3271C29.162 21.6085 28.9337 21.8367 28.6523 21.8368H17.2441C16.9626 21.8368 16.7344 21.6086 16.7344 21.3271C16.7344 21.0456 16.9626 20.8174 17.2441 20.8174H28.6523Z" fill="black"/>
<path d="M32.9301 25.4521C33.2116 25.4521 33.4398 25.6804 33.4398 25.9619C33.4398 26.2434 33.2116 26.4716 32.9301 26.4716H17.2441C16.9626 26.4716 16.7344 26.2434 16.7344 25.9619C16.7344 25.6804 16.9626 25.4521 17.2441 25.4521H32.9301Z" fill="black"/>
<path d="M35.4259 30.0864C35.7073 30.0865 35.9356 30.3147 35.9356 30.5961C35.9356 30.8776 35.7073 31.1057 35.4259 31.1058H17.2441C16.9626 31.1058 16.7344 30.8776 16.7344 30.5961C16.7344 30.3146 16.9626 30.0864 17.2441 30.0864H35.4259Z" fill="black"/>
<path d="M35.4259 34.7202C35.7073 34.7203 35.9356 34.9485 35.9356 35.2299C35.9356 35.5114 35.7073 35.7395 35.4259 35.7396H17.2441C16.9626 35.7396 16.7344 35.5114 16.7344 35.2299C16.7344 34.9484 16.9626 34.7202 17.2441 34.7202H35.4259Z" fill="black"/>
<path d="M25.5589 38.5266C25.8715 38.5522 26.1946 38.7133 26.3314 39.0826C26.4437 39.3857 26.3854 39.725 26.2851 40.0258L26.2771 40.0477C26.0513 40.6349 25.7379 41.351 25.4514 42.0413C25.1592 42.7452 24.8902 43.4329 24.7276 44.0094C24.6463 44.2977 24.5968 44.5412 24.5808 44.7342C24.5673 44.8965 24.5812 44.987 24.5932 45.0294C24.6565 45.0344 24.7986 45.0221 25.0546 44.9253C25.171 44.8636 25.3511 44.7341 25.5922 44.5266C25.8368 44.3161 26.1175 44.0501 26.42 43.7511C27.0329 43.1451 27.687 42.4525 28.3035 41.8292C28.6061 41.5234 28.8961 41.2382 29.1532 41.0044C29.4025 40.7778 29.6488 40.573 29.8595 40.4514C29.9556 40.396 30.1086 40.3188 30.2841 40.3091C30.3824 40.3036 30.5116 40.3186 30.638 40.3937C30.7683 40.4711 30.8479 40.5842 30.8914 40.6918C30.9662 40.877 30.9454 41.0703 30.9243 41.1931C30.8996 41.3365 30.8523 41.5002 30.7889 41.6799C30.7663 41.7438 30.74 41.8035 30.7202 41.8481C30.6977 41.8988 30.6833 41.93 30.6709 41.9611C30.6221 42.0836 30.6225 42.2088 30.646 42.2792C30.6602 42.3216 30.663 42.3148 30.6858 42.317C30.7619 42.3247 30.9905 42.2976 31.419 42.0064C31.8354 41.7235 32.3841 41.2293 33.0801 40.4231C33.264 40.21 33.5862 40.1863 33.7993 40.3703C34.0122 40.5542 34.0359 40.876 33.8521 41.0891C33.1242 41.9324 32.5092 42.4977 31.992 42.8492C31.487 43.1923 31.0118 43.3745 30.5838 43.3315C30.1027 43.283 29.8008 42.9655 29.6794 42.6023C29.6098 42.394 29.5967 42.1702 29.6261 41.9567C29.4424 42.1313 29.2414 42.3306 29.0283 42.546C28.4424 43.1383 27.7475 43.872 27.1368 44.4758C26.8276 44.7815 26.5278 45.0663 26.2572 45.2991C25.9948 45.525 25.7298 45.7286 25.4947 45.8462L25.4733 45.8571L25.4514 45.8656C25.0992 46.0025 24.758 46.0806 24.4499 46.0403C24.1017 45.9947 23.8299 45.8006 23.6828 45.4953C23.5547 45.2294 23.5421 44.9228 23.5648 44.6496C23.5885 44.3657 23.6563 44.0526 23.7465 43.7327C23.9271 43.0926 24.2173 42.3559 24.5101 41.6505C24.8067 40.9357 25.102 40.2607 25.3214 39.6913C25.3398 39.6351 25.3511 39.5891 25.3588 39.5525C25.2832 39.5652 25.1768 39.592 25.0367 39.6455C24.8067 39.7334 24.5236 39.8758 24.196 40.0766C22.8788 40.8839 21.0071 42.5305 19.2537 44.8098C19.0821 45.0329 18.762 45.0749 18.5389 44.9034C18.3159 44.7318 18.2739 44.4117 18.4453 44.1886C20.2569 41.8336 22.2177 40.0936 23.6634 39.2075C24.0264 38.985 24.3673 38.8097 24.6734 38.6928C24.969 38.58 25.2773 38.5035 25.5589 38.5266Z" fill="black"/>
<path d="M130.944 131.684C130.944 131.224 130.571 130.852 130.111 130.852H128.29C127.353 130.852 126.582 130.267 126.191 129.518C125.22 127.658 123.976 127.139 122.942 127.222C121.849 127.311 120.779 128.086 120.226 129.217C119.832 130.022 119.021 130.852 117.897 130.852H116.334C115.875 130.852 115.502 131.224 115.502 131.684V133.789C115.502 134.249 115.875 134.622 116.334 134.622H130.111C130.571 134.622 130.943 134.249 130.944 133.789V131.684ZM132.34 133.789C132.34 135.02 131.342 136.018 130.111 136.018H116.334C115.103 136.018 114.106 135.02 114.105 133.789V131.684C114.105 130.453 115.103 129.455 116.334 129.455H117.897C118.279 129.455 118.703 129.152 118.971 128.604C119.708 127.097 121.174 125.964 122.829 125.83C124.544 125.691 126.26 126.633 127.429 128.873C127.623 129.245 127.963 129.455 128.29 129.455H130.111C131.342 129.455 132.34 130.453 132.34 131.684V133.789Z" fill="black"/>
<path d="M124.179 130.153C124.179 130.682 123.751 131.11 123.222 131.11C122.694 131.11 122.266 130.682 122.266 130.153C122.266 129.625 122.694 129.197 123.222 129.197C123.751 129.197 124.179 129.625 124.179 130.153Z" fill="black"/>
<path d="M108.557 165.744V134.555C108.557 133.112 109.726 131.943 111.169 131.943H114.804C115.189 131.943 115.502 132.255 115.502 132.641C115.502 133.027 115.189 133.339 114.804 133.339H111.169C110.497 133.339 109.953 133.884 109.953 134.555V165.744C109.953 166.415 110.497 166.959 111.169 166.959H125.902C126.288 166.959 126.6 167.272 126.6 167.657C126.6 168.043 126.288 168.355 125.902 168.355H111.169C109.726 168.355 108.557 167.186 108.557 165.744ZM136.302 150.436V134.555C136.302 133.884 135.757 133.339 135.086 133.339H131.642C131.256 133.339 130.944 133.027 130.944 132.641C130.944 132.256 131.256 131.943 131.642 131.943H135.086C136.529 131.943 137.698 133.112 137.698 134.555V150.436C137.698 150.822 137.385 151.134 137 151.134C136.614 151.134 136.302 150.822 136.302 150.436Z" fill="black"/>
<path d="M134.404 156.581C134.262 157.46 133.21 157.844 132.535 157.261L131.097 156.019L129.803 157.314L130.978 158.881C131.541 159.631 131.006 160.702 130.067 160.702H128.316V162.52H130.003C130.97 162.52 131.497 163.651 130.875 164.391L129.504 166.022L131.004 167.38L132.626 166.253L132.69 166.211C133.344 165.816 134.198 166.171 134.381 166.911L134.397 166.987L134.747 168.95H136.449L136.793 167.021L136.809 166.943C136.998 166.184 137.887 165.838 138.539 166.269L138.604 166.315L139.955 167.345L141.271 166.029L140.179 164.616C139.633 163.91 140.075 162.879 140.962 162.787L142.879 162.588V160.702H141.099C140.175 160.702 139.636 159.66 140.17 158.906L141.279 157.34L140.182 156.307L138.581 157.422C137.892 157.901 136.94 157.496 136.806 156.669L136.438 154.387H134.757L134.404 156.581ZM144.276 162.822C144.276 163.405 143.835 163.894 143.255 163.954L141.567 164.128L142.515 165.356C142.866 165.809 142.824 166.452 142.419 166.857L140.784 168.492C140.381 168.895 139.742 168.938 139.289 168.593L138.093 167.682L137.785 169.408C137.688 169.951 137.216 170.347 136.664 170.347H134.531C133.98 170.347 133.507 169.951 133.41 169.408L133.092 167.629L131.634 168.644C131.199 168.946 130.613 168.909 130.22 168.553L128.383 166.891C127.929 166.48 127.881 165.784 128.275 165.315L129.449 163.917H128.058C127.43 163.917 126.92 163.407 126.92 162.778V160.444C126.92 159.815 127.43 159.306 128.058 159.305H129.551L128.552 157.973C128.212 157.52 128.257 156.885 128.657 156.485L130.28 154.862L130.362 154.788C130.757 154.462 131.324 154.442 131.742 154.737L131.829 154.806L133.098 155.902L133.414 153.948L133.435 153.846C133.563 153.347 134.014 152.991 134.537 152.991H136.658C137.182 152.991 137.633 153.347 137.761 153.846L137.782 153.948L138.12 156.041L139.556 155.042L139.641 154.988C140.043 154.758 140.546 154.795 140.911 155.082L140.986 155.148L142.399 156.477C142.813 156.866 142.876 157.501 142.548 157.965L141.598 159.305H143.137C143.766 159.306 144.276 159.815 144.276 160.444V162.822Z" fill="black"/>
<path d="M137.092 161.839C137.092 160.985 136.4 160.292 135.547 160.292C134.692 160.292 134 160.984 134 161.839C134 162.692 134.693 163.384 135.547 163.384V164.781L135.395 164.777C133.89 164.701 132.684 163.494 132.607 161.99L132.604 161.839C132.604 160.213 133.921 158.896 135.547 158.896L135.698 158.899C137.253 158.978 138.489 160.264 138.489 161.839L138.485 161.99C138.406 163.545 137.121 164.781 135.547 164.781V163.384C136.4 163.384 137.092 162.692 137.092 161.839Z" fill="black"/>
<path d="M131.26 141.126C131.645 141.126 131.958 141.439 131.958 141.825C131.958 142.21 131.645 142.523 131.26 142.523H122.267C121.881 142.523 121.568 142.21 121.568 141.825C121.568 141.439 121.881 141.126 122.267 141.126H131.26Z" fill="black"/>
<path d="M131.26 150.312C131.645 150.313 131.958 150.625 131.958 151.011C131.958 151.396 131.645 151.709 131.26 151.709H122.267C121.881 151.709 121.568 151.396 121.568 151.011C121.568 150.625 121.881 150.312 122.267 150.312H131.26Z" fill="black"/>
<path d="M125.328 159.497C125.714 159.497 126.026 159.81 126.026 160.195C126.026 160.581 125.714 160.894 125.328 160.894H122.267C121.881 160.894 121.568 160.581 121.568 160.195C121.568 159.81 121.881 159.497 122.267 159.497H125.328Z" fill="black"/>
<path d="M119.412 157.292C119.641 156.982 120.078 156.916 120.388 157.146C120.699 157.375 120.764 157.812 120.535 158.122L116.8 163.175L113.357 159.731C113.084 159.459 113.084 159.017 113.357 158.744C113.63 158.471 114.072 158.471 114.344 158.744L116.641 161.041L119.412 157.292Z" fill="black"/>
<path d="M119.412 148.299C119.641 147.989 120.078 147.923 120.388 148.152C120.699 148.382 120.764 148.819 120.535 149.129L116.8 154.182L113.357 150.738C113.084 150.466 113.084 150.023 113.357 149.751C113.63 149.478 114.072 149.478 114.344 149.751L116.641 152.047L119.412 148.299Z" fill="black"/>
<path d="M119.412 139.114C119.641 138.804 120.078 138.739 120.388 138.968C120.699 139.197 120.764 139.634 120.535 139.944L116.8 144.997L113.357 141.554C113.084 141.281 113.084 140.839 113.357 140.566C113.63 140.294 114.072 140.294 114.344 140.566L116.641 142.863L119.412 139.114Z" fill="black"/>
<path d="M231.068 72.7389C231.068 72.3029 230.714 71.9496 230.278 71.9496C229.842 71.9497 229.489 72.3029 229.489 72.7389C229.489 73.1749 229.842 73.5286 230.278 73.5286V74.4778C229.318 74.4777 228.539 73.6993 228.539 72.7389C228.539 71.7786 229.318 71.0001 230.278 71C231.238 71 232.017 71.7785 232.017 72.7389C232.017 73.6993 231.238 74.4778 230.278 74.4778V73.5286C230.714 73.5286 231.068 73.1749 231.068 72.7389Z" fill="black"/>
<path d="M235.969 79.5868C235.969 80.0891 235.562 80.4962 235.06 80.4962H225.495C224.993 80.4961 224.586 80.089 224.586 79.5868V74.261C224.586 73.7588 224.993 73.3516 225.495 73.3516H227.669V74.3012H225.536V79.547H235.02V74.3012H232.886V73.3516H235.06C235.562 73.3516 235.969 73.7587 235.969 74.261V79.5868Z" fill="black"/>
<path d="M216 106.215V78.3909C216 76.9282 217.186 75.7422 218.649 75.7422H222.344V76.6918H218.649C217.71 76.6918 216.95 77.4526 216.95 78.3909V106.215C216.95 107.153 217.71 107.914 218.649 107.914H242.342C243.281 107.914 244.041 107.153 244.041 106.215V78.3909C244.041 77.4526 243.281 76.6918 242.342 76.6918H238.213V75.7422H242.342C243.805 75.7422 244.991 76.9282 244.991 78.3909V106.215C244.991 107.677 243.805 108.863 242.342 108.863H218.649C217.186 108.863 216 107.677 216 106.215Z" fill="black"/>
<path d="M219.693 103.389V80.8909C219.693 80.0284 220.393 79.3291 221.255 79.3291H222.451V80.2787H221.255C220.917 80.2787 220.643 80.5528 220.643 80.8909V103.389C220.643 103.727 220.917 104.001 221.255 104.001H239.297C239.635 104.001 239.909 103.727 239.91 103.389V80.8909C239.91 80.5529 239.635 80.2788 239.297 80.2787H238.102V79.3291H239.297C240.16 79.3292 240.859 80.0285 240.859 80.8909V103.389C240.859 104.252 240.16 104.95 239.297 104.951H221.255C220.393 104.951 219.693 104.252 219.693 103.389Z" fill="black"/>
<path d="M237.562 84.6548V85.6044H229.084V84.6548H237.562Z" fill="black"/>
<path d="M237.562 89.2197V90.1693H229.084V89.2197H237.562Z" fill="black"/>
<path d="M237.562 93.7842V94.7338H229.084V93.7842H237.562Z" fill="black"/>
<path d="M237.562 98.3491V99.2987H229.084V98.3491H237.562Z" fill="black"/>
<path d="M227.506 83.893L225.192 86.9781L223.611 85.1103L224.337 84.4972L225.147 85.4552L226.746 83.3232L227.506 83.893Z" fill="black"/>
<path d="M227.506 88.2402L225.192 91.3253L223.611 89.4574L224.337 88.8444L225.147 89.8024L226.746 87.6704L227.506 88.2402Z" fill="black"/>
<path d="M227.506 92.5873L225.192 95.6725L223.611 93.8046L224.337 93.1916L225.147 94.1496L226.746 92.0176L227.506 92.5873Z" fill="black"/>
<path d="M227.506 97.3701L225.192 100.455L223.611 98.5873L224.337 97.9743L225.147 98.9323L226.746 96.8003L227.506 97.3701Z" fill="black"/>
<path d="M117.689 73.2819C119.077 70.0595 121.343 68.7558 123.548 69.0372C125.645 69.305 127.456 70.9928 128.09 73.3029C129.932 73.8215 131.098 75.1275 131.722 76.5444C132.376 78.0288 132.466 79.7021 132.085 80.8455L131.949 81.2534H113.722L113.619 80.7863C113.06 78.2727 113.634 76.4472 114.655 75.2054C115.548 74.1187 116.745 73.5265 117.689 73.2819ZM123.397 70.2197C121.828 70.0194 119.915 70.9163 118.675 74.0164L118.554 74.3205L118.232 74.3806C117.47 74.5235 116.364 75.0047 115.576 75.9627C114.866 76.8262 114.372 78.1288 114.693 80.0612H131.055C131.202 79.2395 131.102 78.0944 130.631 77.025C130.087 75.7891 129.078 74.7218 127.473 74.3778L127.096 74.2968L127.015 73.92C126.57 71.8423 125.03 70.4282 123.397 70.2197Z" fill="black"/>
<path d="M107.398 103.858V78.6967C107.399 76.5629 109.128 74.8331 111.262 74.833H115.148C115.477 74.833 115.744 75.0999 115.744 75.4291C115.744 75.7584 115.477 76.0253 115.148 76.0253H111.262C109.787 76.0254 108.591 77.2214 108.591 78.6967V103.858C108.591 105.334 109.787 106.53 111.262 106.53H134.136C135.612 106.53 136.808 105.334 136.808 103.858V88.5032C136.808 88.174 137.075 87.9071 137.404 87.9071C137.733 87.9072 138 88.174 138 88.5032V103.858C138 105.992 136.27 107.722 134.136 107.722H111.262C109.128 107.722 107.398 105.992 107.398 103.858ZM136.808 84.9054V78.6967C136.808 77.2213 135.612 76.0253 134.136 76.0253H130.542C130.213 76.0252 129.946 75.7583 129.946 75.4291C129.946 75.1 130.213 74.8331 130.542 74.833H134.136C136.27 74.833 138 76.5628 138 78.6967V84.9054C138 85.2346 137.733 85.5015 137.404 85.5016C137.075 85.5016 136.808 85.2347 136.808 84.9054Z" fill="black"/>
<path d="M123.677 73.1415C123.677 73.6829 123.239 74.1218 122.697 74.1218C122.156 74.1218 121.717 73.6829 121.717 73.1415C121.717 72.6 122.156 72.1611 122.697 72.1611C123.239 72.1611 123.677 72.6 123.677 73.1415Z" fill="black"/>
<path d="M127.007 86.404L123.401 90.0107V97.2919H113.07V85.7017H120.914V86.894H114.263V96.0997H122.208V91.2025L119.338 94.0728L116.711 91.4456L117.554 90.6026L119.338 92.3868L126.164 85.561L127.007 86.404Z" fill="black"/>
<path d="M131.627 91.0586V92.2509H125.955V91.0586H131.627Z" fill="black"/>
<path d="M131.627 95.4697V96.662H125.955V95.4697H131.627Z" fill="black"/>
<path d="M238.564 133.594C238.564 133.096 238.16 132.691 237.661 132.691H237.252C236.631 132.691 236.073 132.39 235.695 131.952C234.244 130.275 232.829 129.9 231.6 130.091C230.327 130.289 229.148 131.112 228.261 132.034C227.882 132.427 227.355 132.691 226.771 132.691H225.952C225.454 132.691 225.049 133.096 225.049 133.594V134.747C225.049 135.245 225.454 135.649 225.952 135.649H237.661C238.16 135.649 238.564 135.245 238.564 134.747V133.594ZM239.61 134.747C239.61 135.823 238.737 136.695 237.661 136.695H225.952C224.876 136.695 224.004 135.823 224.004 134.747V133.594C224.004 132.518 224.876 131.645 225.952 131.645H226.771C227.033 131.645 227.298 131.526 227.507 131.309C228.475 130.304 229.849 129.305 231.44 129.058C233.076 128.804 234.836 129.361 236.486 131.268C236.694 131.509 236.976 131.645 237.252 131.645H237.661C238.737 131.645 239.61 132.518 239.61 133.594V134.747Z" fill="black"/>
<path d="M218.797 165.687V163.981C218.797 163.692 219.031 163.458 219.319 163.458C219.608 163.458 219.842 163.692 219.842 163.981V165.687C219.842 166.186 220.247 166.591 220.745 166.591H242.646C243.145 166.591 243.549 166.186 243.549 165.687V135.414C243.549 134.916 243.145 134.511 242.646 134.511H240.844C240.556 134.511 240.322 134.277 240.322 133.988C240.322 133.7 240.556 133.466 240.844 133.466H242.646C243.722 133.466 244.595 134.338 244.595 135.414V165.687C244.595 166.764 243.722 167.636 242.646 167.636H220.745C219.669 167.636 218.797 166.764 218.797 165.687ZM218.797 149.641V135.414C218.797 134.338 219.669 133.466 220.745 133.466H222.595C222.884 133.466 223.118 133.7 223.118 133.988C223.118 134.277 222.884 134.511 222.595 134.511H220.745C220.247 134.511 219.842 134.916 219.842 135.414V149.641C219.842 149.929 219.608 150.164 219.319 150.164C219.031 150.164 218.797 149.929 218.797 149.641Z" fill="black"/>
<path d="M218.739 149.493C219.102 149.206 219.546 149.015 220.006 149.125C220.476 149.237 220.776 149.616 220.946 150.044C221.116 150.476 221.192 151.037 221.181 151.696C221.159 153.021 220.782 154.876 219.905 157.215C219.865 157.322 219.842 157.444 219.839 157.563C219.744 160.969 217.884 166.48 212.172 167.983C211.893 168.056 211.607 167.889 211.534 167.61C211.46 167.331 211.627 167.045 211.906 166.972C216.969 165.639 218.705 160.723 218.793 157.534C218.8 157.304 218.844 157.068 218.926 156.848C219.779 154.573 220.116 152.842 220.136 151.679C220.146 151.094 220.075 150.686 219.974 150.43C219.871 150.171 219.773 150.145 219.764 150.142C219.744 150.138 219.626 150.124 219.388 150.313C219.156 150.496 218.875 150.825 218.576 151.334C217.979 152.348 217.365 153.983 216.921 156.291C216.866 156.575 216.592 156.761 216.309 156.706C216.025 156.652 215.839 156.378 215.894 156.094C216.352 153.713 216.997 151.954 217.674 150.804C218.011 150.231 218.371 149.785 218.739 149.493ZM219.035 146.654C219.277 146.497 219.6 146.566 219.758 146.808C219.915 147.05 219.847 147.373 219.605 147.531L212.867 151.91C212.649 152.052 212.502 152.282 212.465 152.54L211.465 159.543L211.463 159.555C211.392 159.982 211.187 160.629 210.8 161.254C210.412 161.882 209.819 162.522 208.957 162.866C208.689 162.973 208.385 162.843 208.278 162.575C208.17 162.307 208.301 162.003 208.569 161.895C209.164 161.658 209.602 161.205 209.911 160.704C210.222 160.201 210.382 159.684 210.432 159.383L211.43 152.392C211.51 151.835 211.826 151.34 212.297 151.034L219.035 146.654Z" fill="black"/>
<path d="M239.704 140.746C239.993 140.746 240.226 140.979 240.226 141.268C240.226 141.557 239.993 141.791 239.704 141.791H223.323C223.035 141.791 222.801 141.557 222.801 141.268C222.801 140.979 223.035 140.746 223.323 140.746H239.704Z" fill="black"/>
<path d="M239.704 146.57C239.993 146.57 240.226 146.804 240.226 147.092C240.226 147.381 239.993 147.615 239.704 147.615H223.323C223.035 147.615 222.801 147.381 222.801 147.092C222.801 146.804 223.035 146.57 223.323 146.57H239.704Z" fill="black"/>
<path d="M239.704 153.123C239.993 153.123 240.226 153.356 240.226 153.645C240.226 153.934 239.993 154.168 239.704 154.168H223.323C223.035 154.168 222.801 153.934 222.801 153.645C222.801 153.356 223.035 153.123 223.323 153.123H239.704Z" fill="black"/>
<path d="M239.704 158.946C239.993 158.946 240.226 159.18 240.226 159.469C240.226 159.758 239.993 159.992 239.704 159.992H223.323C223.035 159.992 222.801 159.758 222.801 159.469C222.801 159.18 223.035 158.946 223.323 158.946H239.704Z" fill="black"/>
<path d="M232.743 17.5366C232.743 14.0703 229.933 11.2604 226.466 11.2604C223 11.2605 220.19 14.0704 220.19 17.5366C220.19 21.003 223 23.8133 226.466 23.8134V25.0738L226.272 25.0713C222.199 24.9681 218.93 21.634 218.93 17.5366C218.93 13.3743 222.304 10.0001 226.466 10C230.629 10 234.003 13.3743 234.003 17.5366L234.001 17.7311C233.898 21.8038 230.564 25.0738 226.466 25.0738V23.8134C229.933 23.8134 232.743 21.003 232.743 17.5366Z" fill="black"/>
<path d="M208.252 44.2299V20.3631C208.252 18.2808 209.94 16.5929 212.022 16.5928H219.245C219.593 16.5928 219.875 16.8749 219.875 17.223C219.875 17.571 219.593 17.8531 219.245 17.8531H212.022C210.636 17.8533 209.512 18.9769 209.512 20.3631V44.2299C209.512 45.6161 210.636 46.7397 212.022 46.7398H240.914C242.3 46.7397 243.424 45.6161 243.424 44.2299V20.3631C243.424 18.9769 242.3 17.8533 240.914 17.8531H233.691C233.343 17.8531 233.061 17.571 233.061 17.223C233.061 16.8749 233.343 16.5928 233.691 16.5928H240.914C242.996 16.5929 244.684 18.2808 244.684 20.3631V44.2299C244.684 46.3122 242.996 48.0001 240.914 48.0002H212.022C209.94 48.0001 208.252 46.3122 208.252 44.2299Z" fill="black"/>
<path d="M238.402 29.0298C238.75 29.0299 239.032 29.312 239.032 29.66C239.032 30.008 238.75 30.2901 238.402 30.2902H214.849C214.501 30.2902 214.219 30.008 214.219 29.66C214.219 29.3119 214.501 29.0298 214.849 29.0298H238.402Z" fill="black"/>
<path d="M238.402 33.5688C238.75 33.5689 239.032 33.851 239.032 34.199C239.032 34.547 238.75 34.8291 238.402 34.8292H214.849C214.501 34.8292 214.219 34.5471 214.219 34.199C214.219 33.851 214.501 33.5688 214.849 33.5688H238.402Z" fill="black"/>
<path d="M238.402 38.106C238.75 38.106 239.032 38.3882 239.032 38.7361C239.032 39.0841 238.75 39.3662 238.402 39.3663H214.849C214.501 39.3663 214.219 39.0842 214.219 38.7361C214.219 38.3881 214.501 38.106 214.849 38.106H238.402Z" fill="black"/>
<path d="M225.336 14.5374C225.336 14.1894 225.618 13.9072 225.966 13.9072C226.314 13.9072 226.596 14.1894 226.596 14.5374V18.4446H229.679C230.027 18.4446 230.309 18.7267 230.309 19.0748C230.309 19.4228 230.027 19.7049 229.679 19.7049H225.336V14.5374Z" fill="black"/>
<path d="M31.8359 134.508C31.8358 134 31.424 133.588 30.9162 133.588C30.0165 133.588 29.3198 132.975 28.9559 132.297C28.2433 130.969 26.8924 130.122 25.4914 130.042C24.1175 129.964 22.6392 130.622 21.6361 132.43C21.2755 133.081 20.5971 133.588 19.7778 133.588H19.6808C19.1638 133.588 18.7446 134.008 18.7446 134.525V135.601C18.7446 136.118 19.1638 136.537 19.6808 136.537H30.8997C31.4166 136.537 31.8359 136.118 31.8359 135.601V134.508ZM32.8715 135.601C32.8714 136.69 31.9888 137.573 30.8997 137.573H19.6808C18.5917 137.573 17.709 136.69 17.709 135.601V134.525C17.709 133.435 18.5917 132.552 19.6808 132.552H19.7778C20.1478 132.552 20.5139 132.318 20.7302 131.928C21.9138 129.794 23.7544 128.906 25.5503 129.008C27.319 129.108 28.9892 130.168 29.8687 131.807C30.1179 132.271 30.5194 132.552 30.9162 132.552C31.9961 132.552 32.8714 133.428 32.8715 134.508V135.601Z" fill="black"/>
<path d="M13 166.028V135.973C13.0001 134.884 13.8828 134.002 14.9718 134.001H16.4263C16.7123 134.002 16.9441 134.233 16.9441 134.519C16.9441 134.805 16.7123 135.037 16.4263 135.037H14.9718C14.4549 135.037 14.0357 135.456 14.0356 135.973V166.028C14.0356 166.545 14.4548 166.964 14.9718 166.964H35.9707C36.4878 166.964 36.9069 166.545 36.9069 166.028V163.86C36.907 163.574 37.1392 163.342 37.4252 163.342C37.7111 163.342 37.9429 163.574 37.943 163.86V166.028C37.943 167.117 37.0599 168 35.9707 168H14.9718C13.8827 168 13 167.117 13 166.028ZM36.9069 139.228V135.973C36.9068 135.456 36.4877 135.037 35.9707 135.037H34.1189C33.8328 135.037 33.6011 134.805 33.6011 134.519C33.6011 134.233 33.8328 134.001 34.1189 134.001H35.9707C37.0598 134.001 37.9429 134.884 37.943 135.973V139.228C37.943 139.514 37.7111 139.746 37.4252 139.746C37.1391 139.746 36.9069 139.514 36.9069 139.228Z" fill="black"/>
<path d="M41.2172 143.155C41.3829 142.932 41.3372 142.616 41.1065 142.461C39.1992 141.18 36.9199 140.557 34.6175 140.696C32.1474 140.846 29.8092 141.862 28.0152 143.567C26.2211 145.271 25.0865 147.554 24.8113 150.014C24.5547 152.306 25.0602 154.614 26.2417 156.584C26.3846 156.823 26.6981 156.884 26.9293 156.73C27.1605 156.576 27.2217 156.264 27.08 156.025C26.0293 154.253 25.5811 152.182 25.8113 150.126C26.0601 147.902 27.0861 145.837 28.7082 144.296C30.3304 142.755 32.4446 141.836 34.6782 141.701C36.7439 141.576 38.7891 142.129 40.5055 143.269C40.7369 143.423 41.0514 143.378 41.2172 143.155Z" fill="black"/>
<path d="M30.0181 159.195C29.8464 159.425 29.8938 159.753 30.133 159.913C32.0372 161.187 34.3107 161.806 36.6071 161.667C39.0773 161.518 41.4154 160.502 43.2095 158.797C45.0035 157.093 46.1381 154.809 46.4133 152.35C46.6692 150.064 46.167 147.762 44.9921 145.795C44.8445 145.548 44.5198 145.484 44.2804 145.643C44.041 145.803 43.9777 146.126 44.1239 146.374C45.1634 148.136 45.6064 150.192 45.3778 152.234C45.1299 154.45 44.1078 156.506 42.4917 158.042C40.8757 159.577 38.7694 160.493 36.5443 160.627C34.4929 160.751 32.4619 160.204 30.7554 159.076C30.5154 158.917 30.1897 158.964 30.0181 159.195Z" fill="black"/>
<path d="M40.8912 139.953C40.8912 139.667 41.1234 139.435 41.4094 139.435C41.6954 139.435 41.9272 139.667 41.9272 139.953V143.61L38.8398 144.438C38.5635 144.512 38.2793 144.348 38.2052 144.071C38.1313 143.795 38.2951 143.511 38.5713 143.437L40.8912 142.815V139.953Z" fill="black"/>
<path d="M30.3354 162.411C30.3354 162.697 30.1032 162.929 29.8171 162.929C29.5311 162.929 29.2993 162.697 29.2993 162.411V158.753L32.3867 157.926C32.6631 157.852 32.9473 158.016 33.0213 158.293C33.0952 158.569 32.9314 158.853 32.6553 158.927L30.3354 159.549V162.411Z" fill="black"/>
<path d="M39.2176 147.93C39.4128 147.721 39.7405 147.71 39.9497 147.906C40.1588 148.101 40.1701 148.429 39.975 148.638L35.3825 153.558C34.9249 154.048 34.1609 154.087 33.6562 153.645L31.2862 151.571C31.0711 151.383 31.0492 151.056 31.2374 150.841C31.4258 150.626 31.7533 150.604 31.9686 150.792L34.3382 152.866C34.422 152.939 34.5491 152.933 34.6251 152.851L39.2176 147.93Z" fill="black"/>
<path d="M26.1976 141.246C26.4836 141.246 26.7154 141.478 26.7154 141.764C26.7154 142.05 26.4836 142.282 26.1976 142.282H16.7795C16.4934 142.282 16.2617 142.05 16.2617 141.764C16.2617 141.478 16.4934 141.246 16.7795 141.246H26.1976Z" fill="black"/>
<path d="M22.5754 147.404C22.8614 147.404 23.0932 147.636 23.0932 147.922C23.0932 148.208 22.8614 148.439 22.5754 148.439H16.7795C16.4934 148.439 16.2617 148.208 16.2617 147.922C16.2617 147.636 16.4934 147.404 16.7795 147.404H22.5754Z" fill="black"/>
<path d="M22.5754 153.2C22.8614 153.2 23.0932 153.432 23.0932 153.717C23.0932 154.003 22.8614 154.235 22.5754 154.235H16.7795C16.4934 154.235 16.2617 154.004 16.2617 153.717C16.2617 153.431 16.4934 153.2 16.7795 153.2H22.5754Z" fill="black"/>
<path d="M25.4729 159.72C25.759 159.72 25.9911 159.951 25.9911 160.238C25.9911 160.524 25.759 160.755 25.4729 160.755H16.7795C16.4934 160.755 16.2617 160.524 16.2617 160.238C16.2617 159.951 16.4934 159.72 16.7795 159.72H25.4729Z" fill="black"/>
<path d="M118.909 25.5792C119.114 25.374 119.447 25.374 119.652 25.5792C119.857 25.7843 119.857 26.1166 119.652 26.3217L117.113 28.8609L115.658 27.4057C115.453 27.2005 115.453 26.8678 115.658 26.6627C115.863 26.4577 116.195 26.4577 116.4 26.6627L117.113 27.3749L118.909 25.5792Z" fill="black"/>
<path d="M118.909 30.9981C119.114 30.7929 119.447 30.7929 119.652 30.9981C119.857 31.2032 119.857 31.5355 119.652 31.7407L117.113 34.2799L115.658 32.8246C115.453 32.6195 115.453 32.2868 115.658 32.0816C115.863 31.8767 116.195 31.8767 116.4 32.0816L117.113 32.7938L118.909 30.9981Z" fill="black"/>
<path d="M118.909 37.501C119.114 37.2959 119.447 37.2959 119.652 37.501C119.857 37.7062 119.857 38.0385 119.652 38.2436L117.113 40.7828L115.658 39.3276C115.453 39.1224 115.453 38.7897 115.658 38.5845C115.863 38.3796 116.195 38.3796 116.4 38.5845L117.113 39.2968L118.909 37.501Z" fill="black"/>
<path d="M120.51 14.0142C120.801 14.0142 121.036 14.2492 121.036 14.5394C121.036 14.8295 120.801 15.0645 120.51 15.0645H110.05V49.2691H137.179V15.0645H129.107C128.817 15.0645 128.582 14.8295 128.582 14.5394C128.582 14.2492 128.817 14.0142 129.107 14.0142H138.23V50.32H109V14.0142H120.51Z" fill="black"/>
<path d="M128.209 19.4804V20.5312H121.192V19.4804H128.209ZM129.069 18.6208V15.9388C129.069 15.464 128.684 15.0792 128.209 15.0792H121.192C120.717 15.0792 120.332 15.464 120.332 15.9388V18.6208C120.332 19.0956 120.717 19.4804 121.192 19.4804V20.5312L121.093 20.5289C120.084 20.4777 119.281 19.6429 119.281 18.6208V15.9388C119.281 14.9167 120.084 14.0819 121.093 14.0307L121.192 14.0283H128.209L128.307 14.0307C129.317 14.0819 130.119 14.9167 130.119 15.9388V18.6208L130.117 18.7192C130.068 19.696 129.284 20.4793 128.307 20.5289L128.209 20.5312V19.4804C128.684 19.4804 129.069 19.0956 129.069 18.6208Z" fill="black"/>
<path d="M119.28 17.8384C119.57 17.8384 119.806 18.0734 119.806 18.3636C119.806 18.6537 119.57 18.8888 119.28 18.8888H113.302V46.0177H133.928V18.8888H130.118C129.828 18.8887 129.593 18.6537 129.593 18.3636C129.593 18.0734 129.828 17.8384 130.118 17.8384H134.979V47.0681H112.252V17.8384H119.28Z" fill="black"/>
<path d="M132.285 26.5088C132.575 26.5088 132.811 26.7438 132.811 27.034C132.811 27.3241 132.575 27.5592 132.285 27.5592H122.531C122.241 27.5592 122.006 27.3241 122.006 27.034C122.006 26.7438 122.241 26.5088 122.531 26.5088H132.285Z" fill="black"/>
<path d="M132.285 33.0117C132.575 33.0117 132.811 33.2468 132.811 33.5369C132.811 33.8271 132.575 34.0621 132.285 34.0621H122.531C122.241 34.0621 122.006 33.8271 122.006 33.5369C122.006 33.2468 122.241 33.0117 122.531 33.0117H132.285Z" fill="black"/>
<path d="M132.285 39.5151C132.575 39.5151 132.811 39.7502 132.811 40.0403C132.811 40.3305 132.575 40.5655 132.285 40.5655H122.531C122.241 40.5655 122.006 40.3305 122.006 40.0403C122.006 39.7502 122.241 39.5151 122.531 39.5151H132.285Z" fill="black"/>
<path d="M123.799 11.0716C125.634 10.7659 127.72 11.4012 129.454 13.713C129.628 13.9451 129.581 14.2744 129.349 14.4485C129.117 14.6226 128.787 14.5757 128.613 14.3436C127.096 12.3203 125.389 11.8718 123.972 12.108C122.504 12.3527 121.296 13.3373 120.833 14.2633C120.703 14.5228 120.388 14.6282 120.128 14.4984C119.869 14.3686 119.764 14.0531 119.894 13.7936C120.514 12.5521 122.016 11.3688 123.799 11.0716Z" fill="black"/>
<path d="M43.6438 86.3639C44.1604 85.7611 45.062 85.6764 45.682 86.1723L47.4479 87.5851C48.0724 88.0848 48.184 88.9913 47.6994 89.6276L46.487 91.2195C46.3121 91.449 45.984 91.4932 45.7544 91.3183C45.5249 91.1434 45.4807 90.8152 45.6556 90.5857L46.868 88.9942C47.0086 88.8096 46.9763 88.5463 46.7951 88.4013L45.0292 86.9884C44.8492 86.8446 44.5876 86.8692 44.4376 87.0441L43.1106 88.592C42.9228 88.8111 42.593 88.8364 42.3738 88.6486C42.1548 88.4607 42.1294 88.1309 42.3172 87.9118L43.6438 86.3639Z" fill="black"/>
<path d="M39.1329 86.6003C39.337 86.3962 39.6679 86.3962 39.872 86.6003C40.0759 86.8044 40.0759 87.1349 39.872 87.339C38.492 88.7189 35.3008 92.231 33.5387 95.2517C33.3932 95.501 33.073 95.5855 32.8237 95.4401C32.5744 95.2946 32.4903 94.9744 32.6357 94.7251C34.4661 91.5874 37.7329 88.0003 39.1329 86.6003Z" fill="black"/>
<path d="M40.7515 87.9906C41.2674 87.367 42.1826 87.2886 42.8028 87.7925L46.5448 90.8325C47.1297 91.3077 47.2674 92.1537 46.8385 92.7868C44.7595 95.8552 41.1103 100.743 37.3139 104.641C35.3683 106.638 33.3621 108.398 31.4919 109.516C31.4743 109.526 31.4542 109.54 31.4362 109.554C30.4924 110.306 29.7667 110.75 29.2147 110.913C28.9358 110.996 28.6361 111.027 28.3591 110.923C28.0574 110.811 27.8775 110.576 27.7893 110.326C27.7072 110.093 27.6988 109.838 27.7169 109.605C27.7355 109.366 27.7859 109.111 27.8529 108.859C27.9869 108.353 28.1993 107.811 28.4171 107.34C28.4265 107.319 28.4342 107.299 28.4407 107.278C29.0474 105.32 30.2415 102.984 31.6803 100.595C34.4886 95.9318 38.2968 90.9579 40.7515 87.9906ZM32.2876 101.618C30.9975 103.806 29.9694 105.877 29.4392 107.587C29.4189 107.653 29.3946 107.716 29.3659 107.778C29.1643 108.214 28.9766 108.698 28.863 109.126C28.8061 109.341 28.7712 109.53 28.759 109.686C28.7494 109.81 28.7558 109.892 28.7655 109.941C28.7971 109.939 28.8465 109.932 28.9177 109.911C29.2638 109.808 29.8566 109.477 30.7848 108.737C30.8374 108.695 30.8956 108.654 30.9555 108.618C32.5809 107.647 34.357 106.13 36.1354 104.346L32.2876 101.618ZM42.144 88.6035C41.961 88.4549 41.7007 88.4832 41.557 88.6569C39.193 91.5146 35.5717 96.2383 32.8272 100.719L36.8754 103.589C40.5021 99.8062 43.9711 95.1553 45.9732 92.2003C46.0918 92.0253 46.0586 91.7844 45.886 91.644L42.144 88.6035Z" fill="black"/>
<path d="M36.6172 83.2393C36.9058 83.2393 37.1401 83.4731 37.1401 83.7617C37.1401 84.0503 36.9058 84.2841 36.6172 84.2841H23.1455C22.8568 84.2841 22.623 84.0503 22.623 83.7617C22.623 83.4731 22.8568 83.2393 23.1455 83.2393H36.6172Z" fill="black"/>
<path d="M32.768 90.6167C33.0566 90.6167 33.2909 90.8505 33.2909 91.1391C33.2909 91.4278 33.0566 91.6616 32.768 91.6616H23.1455C22.8568 91.6616 22.623 91.4278 22.623 91.1391C22.623 90.8505 22.8568 90.6167 23.1455 90.6167H32.768Z" fill="black"/>
<path d="M30.2022 97.6733C30.4908 97.6734 30.7246 97.9072 30.7246 98.1958C30.7246 98.4844 30.4908 98.7182 30.2022 98.7182H23.1455C22.8568 98.7182 22.623 98.4844 22.623 98.1958C22.623 97.9071 22.8568 97.6733 23.1455 97.6733H30.2022Z" fill="black"/>
<path d="M13 103.981V76.0513C13 75.2379 13.6592 74.5786 14.4727 74.5786H16.0887C16.3773 74.5787 16.6112 74.8125 16.6112 75.1011C16.6112 75.3896 16.3773 75.6234 16.0887 75.6235H14.4727C14.2365 75.6235 14.0449 75.8151 14.0449 76.0513V103.981C14.0449 104.217 14.2365 104.409 14.4727 104.409H26.0318C26.3204 104.409 26.5546 104.643 26.5547 104.931C26.5547 105.22 26.3205 105.454 26.0318 105.454H14.4727C13.6592 105.454 13 104.795 13 103.981ZM40.5851 85.0446V76.0513C40.5851 75.8151 40.3934 75.6235 40.1573 75.6235H38.8623C38.5737 75.6235 38.3398 75.3897 38.3398 75.1011C38.3398 74.8124 38.5737 74.5786 38.8623 74.5786H40.1573C40.9707 74.5786 41.6304 75.2379 41.6304 76.0513V85.0446C41.6304 85.3332 41.3961 85.5671 41.1075 85.5671C40.8189 85.567 40.5851 85.3332 40.5851 85.0446Z" fill="black"/>
<path d="M36.4154 73.806C36.4153 73.5699 36.2237 73.3787 35.9876 73.3787H31.9264C31.221 73.3787 30.686 72.888 30.4463 72.3449C29.9519 71.225 28.8767 70.2649 27.7232 70.0784C27.1603 69.9874 26.5649 70.0763 25.9749 70.4347C25.3784 70.7971 24.7598 71.4526 24.1978 72.538C23.9443 73.0278 23.4379 73.3786 22.8486 73.3787H18.6426C18.4065 73.3787 18.2149 73.5699 18.2148 73.806V77.6793C18.2148 77.9155 18.4064 78.1071 18.6426 78.1071H35.9876C36.2237 78.1071 36.4154 77.9155 36.4154 77.6793V73.806ZM37.4603 77.6793C37.4603 78.4928 36.801 79.152 35.9876 79.152H18.6426C17.8292 79.152 17.1699 78.4928 17.1699 77.6793V73.806C17.17 72.9927 17.8292 72.3333 18.6426 72.3333H22.8486C23.0102 72.3333 23.1777 72.2347 23.2694 72.0577C23.8938 70.8516 24.6297 70.0291 25.432 69.5416C26.2409 69.0501 27.089 68.9171 27.8897 69.0465C29.4632 69.3008 30.7967 70.5502 31.4025 71.9227C31.5225 72.1945 31.741 72.3333 31.9264 72.3333H35.9876C36.801 72.3334 37.4602 72.9927 37.4603 73.806V77.6793Z" fill="black"/>
<path d="M28.2791 73.1767C28.2791 73.531 27.9919 73.8182 27.6376 73.8182C27.2833 73.8182 26.9961 73.531 26.9961 73.1767C26.9961 72.8224 27.2833 72.5352 27.6376 72.5352C27.9919 72.5352 28.2791 72.8224 28.2791 73.1767Z" fill="black"/>
<path d="M18.4184 84.9621H20.8186V82.562H18.4184V84.9621ZM21.8635 85.0568C21.8635 85.5816 21.438 86.007 20.9132 86.007H18.3233L18.2263 86.0024C17.7471 85.9538 17.373 85.5488 17.373 85.0568V82.4668C17.373 81.9748 17.7471 81.5703 18.2263 81.5217L18.3233 81.5166H20.9132C21.438 81.5166 21.8635 81.942 21.8635 82.4668V85.0568Z" fill="black"/>
<path d="M18.4184 92.0183H20.8186V89.6181H18.4184V92.0183ZM21.8635 92.1129C21.8635 92.6377 21.438 93.0632 20.9132 93.0632H18.3233L18.2263 93.0585C17.7471 93.0099 17.373 92.605 17.373 92.1129V89.523C17.373 89.0309 17.7471 88.6264 18.2263 88.5779L18.3233 88.5728H20.9132C21.438 88.5728 21.8635 88.9982 21.8635 89.523V92.1129Z" fill="black"/>
<path d="M18.4184 99.0754H20.8186V96.6752H18.4184V99.0754ZM21.8635 99.1701C21.8635 99.6949 21.438 100.12 20.9132 100.12H18.3233L18.2263 100.116C17.7471 100.067 17.373 99.6621 17.373 99.1701V96.5801C17.373 96.0881 17.7471 95.6836 18.2263 95.635L18.3233 95.6299H20.9132C21.438 95.6299 21.8635 96.0553 21.8635 96.5801V99.1701Z" fill="black"/>
</svg>
