<svg width="260" height="178" viewBox="0 0 260 178" fill="none" xmlns="http://www.w3.org/2000/svg">
<path d="M36.2699 24.0598V8.68014C36.2699 7.43942 35.7529 7 34.8482 7H10.8094C9.36188 7 9 7.38772 9 8.29241L9 11.9112M9 17.3393V42.6706C9 43.446 9.25848 44.3507 10.5509 44.3507H34.0728C34.8482 44.3507 36.2699 44.3249 36.2699 43.1875V33.236" stroke="black" stroke-width="0.775447" stroke-linecap="round"/>
<circle cx="23.2132" cy="13.3327" r="3.48951" stroke="black" stroke-width="0.775447" stroke-linecap="round"/>
<path d="M27.6106 17.3394C23.6817 20.7513 19.6838 18.761 18.176 17.3394C14.8675 19.7174 14.8158 23.4999 15.2035 25.0938H31.1002C31.3069 20.5445 28.86 18.0286 27.6106 17.3394Z" stroke="black" stroke-width="0.775447" stroke-linecap="round"/>
<path d="M21.6641 28.4541H27.6092" stroke="black" stroke-width="0.775447" stroke-linecap="round"/>
<path d="M21.6641 37.1133H27.6092" stroke="black" stroke-width="0.775447" stroke-linecap="round"/>
<path d="M21.6641 31.6852H27.6092" stroke="black" stroke-width="0.775447" stroke-linecap="round"/>
<path d="M21.6641 40.3442H27.6092" stroke="black" stroke-width="0.775447" stroke-linecap="round"/>
<path d="M15.1992 30.2633L16.6209 31.685L19.5934 28.7124" stroke="black" stroke-width="0.775447" stroke-linecap="round"/>
<path d="M15.1992 38.9225L16.6209 40.3441L19.5934 37.3716" stroke="black" stroke-width="0.775447" stroke-linecap="round"/>
<path d="M135.103 8H115.728C113.129 8 112.84 10.0458 112.84 11.2492V39.7696C112.84 42.6577 114.404 43.5001 116.33 43.5001H140.759C143.406 43.5001 143.286 41.0933 143.286 39.7696V16.1831L135.103 8Z" stroke="black" stroke-width="0.92208" stroke-linecap="round"/>
<path d="M132.695 11.1288V16.3034C132.695 17.8437 133.778 17.9881 134.5 17.9881H139.795" stroke="black" stroke-width="0.92208" stroke-linecap="round"/>
<path d="M140.033 24.6068H132.211" stroke="black" stroke-width="0.92208" stroke-linecap="round"/>
<path d="M140.032 33.9932L116.445 33.9932" stroke="black" stroke-width="0.92208" stroke-linecap="round"/>
<path d="M119.215 25.7144C118.711 25.7144 118.245 25.6325 117.817 25.4687C117.395 25.2986 117.026 25.0624 116.711 24.7601C116.403 24.4514 116.16 24.0924 115.984 23.6829C115.807 23.2735 115.719 22.8231 115.719 22.3318C115.719 21.8404 115.807 21.39 115.984 20.9806C116.16 20.5711 116.406 20.2152 116.721 19.9129C117.036 19.6042 117.404 19.368 117.826 19.2042C118.255 19.0342 118.721 18.9491 119.225 18.9491C119.735 18.9491 120.204 19.0373 120.632 19.2137C121.067 19.3838 121.436 19.6389 121.738 19.979L121.124 20.5743C120.872 20.3097 120.588 20.1145 120.273 19.9885C119.958 19.8562 119.621 19.7901 119.262 19.7901C118.891 19.7901 118.544 19.853 118.223 19.979C117.908 20.105 117.634 20.2814 117.401 20.5082C117.168 20.7349 116.985 21.0058 116.853 21.3207C116.727 21.6294 116.664 21.9664 116.664 22.3318C116.664 22.6971 116.727 23.0373 116.853 23.3522C116.985 23.6609 117.168 23.9286 117.401 24.1553C117.634 24.3821 117.908 24.5585 118.223 24.6845C118.544 24.8105 118.891 24.8735 119.262 24.8735C119.621 24.8735 119.958 24.8105 120.273 24.6845C120.588 24.5522 120.872 24.3506 121.124 24.0798L121.738 24.675C121.436 25.0152 121.067 25.2734 120.632 25.4498C120.204 25.6262 119.732 25.7144 119.215 25.7144ZM124.838 25.6388L121.927 19.0247H122.948L125.622 25.1286H125.036L127.729 19.0247H128.674L125.773 25.6388H124.838Z" fill="black"/>
<rect x="227.131" y="6.43164" width="15.2403" height="8.99603" rx="1.00716" stroke="black" stroke-width="0.86328"/>
<path d="M226.867 9.12207H221.24C220.445 9.12207 219.801 9.76624 219.801 10.5609V43.0125C219.801 43.8071 220.445 44.4513 221.24 44.4513H248.433C249.228 44.4513 249.872 43.8071 249.872 43.0125V10.5609C249.872 9.76624 249.228 9.12207 248.433 9.12207H242.642" stroke="black" stroke-width="0.86328"/>
<rect x="232.061" y="21.5493" width="5.38095" height="5.38095" rx="1.00716" stroke="black" stroke-width="0.86328"/>
<path d="M228.016 35.5779V32.087C228.016 31.2924 228.66 30.6482 229.454 30.6482H240.133C240.927 30.6482 241.572 31.2924 241.572 32.087V35.5779" stroke="black" stroke-width="0.86328"/>
<path d="M137.254 95.905L141.905 95.905" stroke="black" stroke-width="0.996727"/>
<circle cx="139.68" cy="80.5223" r="9.36924" stroke="black" stroke-width="0.996727"/>
<path d="M139.68 90.2072V93.1309" stroke="black" stroke-width="0.996727"/>
<path d="M142.106 93.4462V99.8925C142.106 101.232 141.021 102.317 139.682 102.317C138.342 102.317 137.256 101.232 137.256 99.8925V93.4462H142.106Z" stroke="black" stroke-width="0.996727"/>
<path d="M139.68 74.1266C141.69 74.3093 145.71 75.9539 146.075 80.5223" stroke="black" stroke-width="0.996727"/>
<path d="M140.045 69.0101C140.045 67.3655 138.948 67 138.034 67H118.299L113 72.2993M113 72.2993V100.806C113 102.706 114.279 102.998 115.01 102.998H129.081M113 72.2993H118.847V69.0101" stroke="black" stroke-width="0.996727"/>
<rect x="117.885" y="76.635" width="4.85074" height="4.85074" stroke="black" stroke-width="0.996727"/>
<rect x="117.885" y="85.0407" width="4.85074" height="4.85074" stroke="black" stroke-width="0.996727"/>
<rect x="117.885" y="93.4465" width="4.85074" height="4.85074" stroke="black" stroke-width="0.996727"/>
<path d="M124.879 94.41H134.381" stroke="black" stroke-width="0.996727"/>
<path d="M124.879 88.928H130.726" stroke="black" stroke-width="0.996727"/>
<path d="M124.879 77.233H128.168" stroke="black" stroke-width="0.996727"/>
<path d="M130.727 97.6992L134.381 97.6992" stroke="black" stroke-width="0.996727"/>
<path d="M17.6318 66.9111H9V103.522H39.8065V95.1876M30.8771 66.9111H39.8065V73.6082M39.8065 78.6682V89.9788" stroke="black" stroke-width="1.12643"/>
<rect x="21.614" y="62.5632" width="5.42181" height="7.80299" stroke="black" stroke-width="1.12643"/>
<rect x="12.9851" y="76.5526" width="7.20769" height="7.20769" stroke="black" stroke-width="1.12643"/>
<rect x="12.9851" y="87.5655" width="7.20769" height="7.20769" stroke="black" stroke-width="1.12643"/>
<path d="M22.9883 79.71H29.6853" stroke="black" stroke-width="1.12643"/>
<path d="M22.9883 83.7283H29.6853" stroke="black" stroke-width="1.12643"/>
<path d="M22.9883 87.5975H29.6853" stroke="black" stroke-width="1.12643"/>
<path d="M22.9883 91.7646H29.6853" stroke="black" stroke-width="1.12643"/>
<path d="M222.156 69.5882V65H243.53L249 70.4804V104H222.156V101.833" stroke="black" stroke-width="1.2994"/>
<path d="M241.973 67.4059V72.2176H246.404" stroke="black" stroke-width="1.2994"/>
<rect x="220.083" y="71.9809" width="8.57722" height="11.6162" stroke="black" stroke-width="1.2994"/>
<path d="M232.348 78.4221H240.198" stroke="black" stroke-width="1.2994"/>
<path d="M232.348 83.9935H240.198" stroke="black" stroke-width="1.2994"/>
<path d="M235.645 89.0583L240.203 89.0583" stroke="black" stroke-width="1.2994"/>
<path d="M232.859 89.0583L234.379 89.0583" stroke="black" stroke-width="1.2994"/>
<path d="M219.434 89.0583L231.083 89.0583" stroke="black" stroke-width="1.2994"/>
<path d="M219.434 94.3766L240.2 94.3766" stroke="black" stroke-width="1.2994"/>
<path d="M219.434 99.6948L240.2 99.6948" stroke="black" stroke-width="1.2994"/>
<path d="M40.9402 159.183C40.9402 160.935 40.3487 164 36.9969 164H17.4779M40.9402 159.183V152.396M40.9402 159.183H12.7461M9 155.243V131.379C9 127.876 11.3659 127 12.7461 127H36.9969C38.9686 127 40.9402 128.314 40.9402 131.379V152.396M40.9402 152.396H30.0963" stroke="black" stroke-width="0.948718" stroke-linecap="round"/>
<circle cx="23.9862" cy="142.107" r="3.4689" stroke="black" stroke-width="0.948718" stroke-linecap="round"/>
<path d="M17.6758 152.401C19.7789 148.786 25.1411 143.624 30.0307 152.299" stroke="black" stroke-width="0.948718" stroke-linecap="round"/>
<path d="M30.4883 132.915H36.9947" stroke="black" stroke-width="0.948718" stroke-linecap="round"/>
<path d="M30.4883 138.633H36.9947" stroke="black" stroke-width="0.948718" stroke-linecap="round"/>
<path d="M30.4883 144.153H36.9947" stroke="black" stroke-width="0.948718" stroke-linecap="round"/>
<path d="M246.445 146.395V134.705M246.445 162.542C246.445 164.121 245.714 164.588 244.618 164.588H218.9C217.146 164.588 217 163.273 217 162.542V128.933C217 127.588 217.877 127.179 218.68 127.179H238.919M238.919 127.179H244.765C245.495 127.179 246.445 127.413 246.445 128.933V134.705M238.919 127.179L246.445 134.705M238.919 127.179V134.705H246.445" stroke="black" stroke-width="0.826046" stroke-linecap="round"/>
<circle cx="229.641" cy="133.609" r="3.02101" stroke="black" stroke-width="0.826046" stroke-linecap="round"/>
<path d="M222.379 143.692L223.573 139.235H235.337L236.531 143.692" stroke="black" stroke-width="0.826046" stroke-linecap="round"/>
<path d="M220.504 147.418H240.524" stroke="black" stroke-width="0.826046" stroke-linecap="round"/>
<path d="M220.504 152.386H235.409" stroke="black" stroke-width="0.826046" stroke-linecap="round"/>
<path d="M220.504 157.062H235.409" stroke="black" stroke-width="0.826046" stroke-linecap="round"/>
<circle cx="245.184" cy="154.258" r="5.57896" transform="rotate(-1.7145 245.184 154.258)" stroke="black" stroke-width="0.794322" stroke-linecap="round"/>
<path d="M250.019 156.976L251.828 158.64C254.099 160.78 251.683 163.014 249.553 161.008L247.768 159.359" stroke="black" stroke-width="0.794322" stroke-linecap="round"/>
<path d="M142.958 153.5V127.953C142.958 126.926 142.65 125 140.39 125H116.383C114.124 125 113.688 127.311 113.688 128.338V160.818C113.688 162.872 115.356 164.027 116.897 164.027H132.302" stroke="black" stroke-width="0.896022"/>
<path d="M134.228 164.156C132.559 159.919 134.1 153.757 142.701 155.683L134.228 164.156Z" stroke="black" stroke-width="0.896022"/>
<path d="M128.321 129.3C129.92 129.3 131.34 130.864 131.34 132.96C131.34 135.055 129.92 136.62 128.321 136.62C126.723 136.62 125.304 135.055 125.304 132.96C125.304 130.864 126.723 129.3 128.321 129.3Z" stroke="black" stroke-width="0.896022"/>
<path d="M121.391 141.176C122.024 138.814 124.308 138.223 125.37 138.223L128.323 141.176L130.891 138.223C133.587 138.223 134.999 139.764 135.256 141.176V146.696H121.391V141.176Z" stroke="black" stroke-width="0.896022"/>
<path d="M117.535 150.631H138.975" stroke="black" stroke-width="0.896022"/>
<path d="M117.535 155.125H130.63" stroke="black" stroke-width="0.896022"/>
<path d="M117.535 158.976H130.63" stroke="black" stroke-width="0.896022"/>
</svg>
