<svg width="296" height="220" viewBox="0 0 296 220" fill="none" xmlns="http://www.w3.org/2000/svg">
<path d="M64.2027 14L59.7852 18.4176L64.2027 23.5714" stroke="#03045E" stroke-width="1.2103" stroke-linecap="round"/>
<path d="M50.1406 32.7831L60.9391 26.6476L71.2468 32.7831L60.9391 38.6732L50.1406 32.7831Z" fill="#CDFF71" stroke="#03045E" stroke-width="1.2103"/>
<path d="M56.0312 29.5927L66.0935 35.7282V39.9003" stroke="#03045E" stroke-width="1.2103" stroke-linecap="round"/>
<path d="M49.4961 32.7595V47.1239L60.9372 52.6621M60.9372 52.6621L71.8866 46.6212V32.7595M60.9372 52.6621V38.6732" stroke="#03045E" stroke-width="1.2103"/>
<mask id="path-5-inside-1_2076_3797" fill="white">
<path d="M56.991 17.7852C54.0451 18.2024 51.2138 19.2104 48.6671 20.7488C46.1204 22.2872 43.9108 24.3243 42.1708 26.7377C40.4308 29.1512 39.1964 31.8914 38.5416 34.7937C37.8868 37.6961 37.8251 40.7008 38.3602 43.6276C38.8953 46.5544 40.0162 49.3429 41.6557 51.8257C43.2951 54.3086 45.4193 56.4347 47.9007 58.0763C50.3821 59.7179 53.1696 60.8413 56.0959 61.3791C59.0223 61.9168 62.027 61.8578 64.93 61.2055L64.6765 60.0773C61.9255 60.6954 59.078 60.7513 56.3049 60.2417C53.5318 59.7322 50.8903 58.6676 48.5388 57.1119C46.1872 55.5562 44.1743 53.5414 42.6207 51.1886C41.0671 48.8357 40.0048 46.1932 39.4977 43.4196C38.9906 40.646 39.0491 37.7986 39.6696 35.0482C40.2901 32.2978 41.4599 29.7011 43.1088 27.414C44.7577 25.1269 46.8517 23.1964 49.265 21.7386C51.6784 20.2807 54.3615 19.3255 57.1532 18.9301L56.991 17.7852Z"/>
</mask>
<path d="M56.991 17.7852C54.0451 18.2024 51.2138 19.2104 48.6671 20.7488C46.1204 22.2872 43.9108 24.3243 42.1708 26.7377C40.4308 29.1512 39.1964 31.8914 38.5416 34.7937C37.8868 37.6961 37.8251 40.7008 38.3602 43.6276C38.8953 46.5544 40.0162 49.3429 41.6557 51.8257C43.2951 54.3086 45.4193 56.4347 47.9007 58.0763C50.3821 59.7179 53.1696 60.8413 56.0959 61.3791C59.0223 61.9168 62.027 61.8578 64.93 61.2055L64.6765 60.0773C61.9255 60.6954 59.078 60.7513 56.3049 60.2417C53.5318 59.7322 50.8903 58.6676 48.5388 57.1119C46.1872 55.5562 44.1743 53.5414 42.6207 51.1886C41.0671 48.8357 40.0048 46.1932 39.4977 43.4196C38.9906 40.646 39.0491 37.7986 39.6696 35.0482C40.2901 32.2978 41.4599 29.7011 43.1088 27.414C44.7577 25.1269 46.8517 23.1964 49.265 21.7386C51.6784 20.2807 54.3615 19.3255 57.1532 18.9301L56.991 17.7852Z" fill="black" stroke="#03045E" stroke-width="2.42059" mask="url(#path-5-inside-1_2076_3797)"/>
<mask id="path-6-inside-2_2076_3797" fill="white">
<path d="M60.0879 17.567C65.1898 17.567 70.1343 19.3332 74.0817 22.5655C78.029 25.7977 80.7357 30.2968 81.7419 35.2985C82.7482 40.3002 81.9919 45.4959 79.6017 50.0032C77.2114 54.5105 73.3345 58.0514 68.6296 60.0244L68.1776 58.9466C72.6337 57.0781 76.3054 53.7245 78.5692 49.4557C80.833 45.1869 81.5492 40.266 80.5962 35.529C79.6432 30.792 77.0798 26.5309 73.3413 23.4696C69.6028 20.4084 64.9198 18.7356 60.0879 18.7356L60.0879 17.567Z"/>
</mask>
<path d="M60.0879 17.567C65.1898 17.567 70.1343 19.3332 74.0817 22.5655C78.029 25.7977 80.7357 30.2968 81.7419 35.2985C82.7482 40.3002 81.9919 45.4959 79.6017 50.0032C77.2114 54.5105 73.3345 58.0514 68.6296 60.0244L68.1776 58.9466C72.6337 57.0781 76.3054 53.7245 78.5692 49.4557C80.833 45.1869 81.5492 40.266 80.5962 35.529C79.6432 30.792 77.0798 26.5309 73.3413 23.4696C69.6028 20.4084 64.9198 18.7356 60.0879 18.7356L60.0879 17.567Z" fill="black" stroke="#03045E" stroke-width="2.42059" mask="url(#path-6-inside-2_2076_3797)"/>
<path d="M59.7852 55.7552L64.939 60.9091L59.7852 66.0629" stroke="#03045E" stroke-width="1.2103" stroke-linecap="round"/>
<path d="M257.374 110.414V106.242L247.641 113.195L257.374 120.703V116.532C264.048 117.644 269.165 127.433 251.812 133.218C273.226 133.218 272.948 110.414 257.374 110.414Z" fill="#CDFF71" stroke="#03045E" stroke-width="1.32973"/>
<path d="M240.416 104.295L259.049 96.2305L239.304 89L220.949 96.2305L240.416 104.295Z" fill="#CDFF71" stroke="#03045E" stroke-width="1.32973"/>
<path d="M248.747 92.3373L231.227 100.402V108.467" stroke="#03045E" stroke-width="1.32973" stroke-linecap="round"/>
<path d="M240.411 104.295V127.934M240.411 127.934L220 118.756L220.001 96.2305M240.411 127.934L252.091 123.206M259.321 96.2305V102.627" stroke="#03045E" stroke-width="1.32973"/>
<path d="M60.9135 164L44.082 167.091L60.9135 170.183L78.0885 167.091L60.9135 164Z" stroke="#03045E" stroke-width="1.25581"/>
<path d="M41.7812 175.679L44.0838 167.092L60.9152 170.183L58.8543 178.427L41.7812 175.679Z" fill="#CDFF71" stroke="#03045E" stroke-width="1.25581"/>
<path d="M80.3906 175.679L78.0881 167.092L61.2566 170.183L63.3176 178.427L80.3906 175.679Z" fill="#CDFF71" stroke="#03045E" stroke-width="1.25581"/>
<path d="M43.7305 176.022V185.64L61.2489 188.388M61.2489 188.388L78.0804 185.64V176.022M61.2489 188.388V170.183" stroke="#03045E" stroke-width="1.25581"/>
<path d="M35.2036 178.413C37.7904 211.072 82.4132 210.102 85 178.09M35.2036 178.413L31 183.263M35.2036 178.413L40.3772 182.293" stroke="#03045E" stroke-width="1.25581" stroke-linecap="round"/>
<circle cx="228.81" cy="48.7451" r="10.6162" fill="#CDFF71" stroke="#03045E" stroke-width="1.27747"/>
<path d="M223.184 50.6593L231.352 50.6593C236.402 50.3623 235.437 43.2331 229.867 43.9757M223.184 50.6593L226.897 46.9462M223.184 50.6593L226.897 54.3725" stroke="#03045E" stroke-width="1.27747" stroke-linecap="round"/>
<path d="M245.69 19L228.004 27.0392L245.69 35.8824L263.778 27.0392L245.69 19Z" fill="#CDFF71" stroke="#03045E" stroke-width="1.27747"/>
<path d="M245.69 35.8824V57.1863M245.69 57.1863L264.499 48.6598V26.9843M245.69 57.1863L240.063 54.7746M227.133 26.9843V35.8824" stroke="#03045E" stroke-width="1.27747"/>
<path d="M237.652 22.6176L254.535 31.4985V35.4803" stroke="#03045E" stroke-width="1.27747" stroke-linecap="round"/>
<path d="M137.402 200.214L131.696 188.801C131.074 187.558 129.57 187.042 128.316 187.641L125.624 188.929C124.324 189.551 123.797 191.126 124.462 192.405L130.374 203.774C131.016 205.009 132.531 205.5 133.776 204.878L136.262 203.635C137.522 203.005 138.032 201.473 137.402 200.214Z" fill="#CDFF71" stroke="#03045E" stroke-width="1.38654"/>
<path d="M131.535 188.473C135.678 184.861 145.557 178.594 155.754 186.88C157.678 188.443 157.001 191.574 152.249 191.033M147.788 189.748C149.72 190.521 150.982 190.889 152.249 191.033M152.249 191.033C154.373 191.759 161.172 190.981 169.457 183.652C172.963 180.551 176.787 185.156 172.644 189.11C170.307 191.341 164.04 196.121 156.392 199.945C154.798 200.901 152.568 200.965 148.744 199.945C145.876 198.989 140.586 197.141 137.271 199.945" stroke="#03045E" stroke-width="1.38654"/>
<path d="M169.139 161.385L157.986 167.825L146.832 161.385L157.986 154.946L169.139 161.385Z" fill="#CDFF71" stroke="#03045E" stroke-width="1.38654"/>
<path d="M157.989 167.759V180.506M157.989 180.506L169.809 174.133V161.386M157.989 180.506L146.125 174.132V161.385" stroke="#03045E" stroke-width="1.38654"/>
<path d="M163.108 158.16L152.855 164.891" stroke="#03045E" stroke-width="1.38654"/>
<path d="M173.508 168.078H176.255" stroke="#03045E" stroke-width="1.38654" stroke-linecap="round"/>
<path d="M166.586 156.508L169.035 154" stroke="#03045E" stroke-width="1.38654" stroke-linecap="round"/>
<path d="M149.316 156.479L146.838 154" stroke="#03045E" stroke-width="1.38654" stroke-linecap="round"/>
<path d="M141.961 167.44L139.008 167.44" stroke="#03045E" stroke-width="1.38654" stroke-linecap="round"/>
<path d="M149.316 178.275L147.166 180.344" stroke="#03045E" stroke-width="1.38654" stroke-linecap="round"/>
<path d="M166.586 178.275L168.655 180.344" stroke="#03045E" stroke-width="1.38654" stroke-linecap="round"/>
<path d="M172.888 99.259L154.958 88.9072L137.406 99.259L154.958 109.611L172.888 99.259Z" stroke="#03045E" stroke-width="1.46384"/>
<path d="M154.958 109.668V129.674M154.958 109.668L172.888 99.2876V119.86L154.958 129.674M154.958 109.668L137.406 99.2876L137.595 119.86L154.958 129.674" stroke="#03045E" stroke-width="1.46384"/>
<path d="M143.254 102.685L160.617 92.3046L166.846 95.8905L149.482 106.46V114.575L143.254 110.989V102.685Z" fill="#CDFF71" stroke="#03045E" stroke-width="1.46384"/>
<circle cx="169.862" cy="122.313" r="10.4034" fill="#CDFF71" stroke="#03045E" stroke-width="1.46384"/>
<path d="M163.254 121.369L168.916 127.031L177.031 118.916" stroke="#03045E" stroke-width="1.46384" stroke-linecap="round"/>
<path d="M154.953 88.9072H144.762" stroke="#03045E" stroke-width="1.46384" stroke-linecap="round"/>
<path d="M140.233 88.9072L128.531 88.9072" stroke="#03045E" stroke-width="1.46384" stroke-linecap="round"/>
<path d="M137.589 99.4764L124 99.4764" stroke="#03045E" stroke-width="1.46384" stroke-linecap="round"/>
<path d="M137.179 109.29L128.91 109.29" stroke="#03045E" stroke-width="1.46384" stroke-linecap="round"/>
<path d="M137.589 119.86L124 119.86" stroke="#03045E" stroke-width="1.46384" stroke-linecap="round"/>
<path d="M143.395 102.814L149.982 106.617" stroke="#03045E" stroke-width="1.46384"/>
<path d="M174.138 99.1541L172.691 98.3403L173.039 96.9584V96.5924H175.235L175.6 98.4222L174.138 99.1541Z" fill="white"/>
<path d="M137.916 98.0737L136.803 98.7881L135.468 97.8744L135.155 97.6845L136.295 95.8074L138.049 96.4438L137.916 98.0737Z" fill="white"/>
<path d="M60.1391 127.304L53.2081 121.709C50.9731 120.142 49.4033 123.052 51.1858 124.395L58.5795 130.662C60.3701 132.005 62.3399 131.915 67.5328 131.557C68.652 131.48 70.9798 132.05 74.024 135.81M60.1391 127.304H65.5111M60.1391 127.304C58.342 125.514 59.545 124.171 60.3711 123.723H68.8767C72.2343 123.723 74.3383 126.006 79.1731 131.557" stroke="#03045E" stroke-width="1.07851" stroke-linecap="round"/>
<path d="M57.0117 124.618V112.979H73.5754V125.29" stroke="#03045E" stroke-width="1.07851"/>
<path d="M61.9375 119.694V112.979H68.4287V119.694L65.295 117.456L61.9375 119.694Z" fill="#CDFF71" stroke="#03045E" stroke-width="1.07851"/>
<path d="M38.4337 92.3864L45.1487 93.0579L52.9828 92.3864L63.0553 96.863H52.9828C60.3693 99.549 60.9961 105.324 52.759 100.668C50.7445 101.489 45.9993 102.459 43.1342 99.7728H33.957" stroke="#03045E" stroke-width="1.07851" stroke-linecap="round"/>
<path d="M62.389 96.6393H69.104V108.95H45.6016V101.116" stroke="#03045E" stroke-width="1.07851"/>
<mask id="path-51-inside-3_2076_3797" fill="white">
<path d="M54.4583 101.643C54.1759 102.274 54.0991 102.978 54.2388 103.655C54.3784 104.333 54.7274 104.949 55.2365 105.417C55.7455 105.885 56.3889 106.182 57.0755 106.264C57.7621 106.347 58.4573 106.211 59.0627 105.877C59.6682 105.543 60.1532 105.027 60.4494 104.402C60.7455 103.777 60.8376 103.074 60.7128 102.394C60.588 101.714 60.2525 101.09 59.7538 100.611C59.2551 100.132 58.6184 99.8218 57.9338 99.7244L57.7829 100.784C58.2454 100.85 58.6755 101.059 59.0124 101.383C59.3493 101.707 59.5759 102.128 59.6602 102.587C59.7445 103.047 59.6823 103.521 59.4823 103.943C59.2822 104.366 58.9546 104.714 58.5456 104.94C58.1366 105.166 57.667 105.257 57.2031 105.202C56.7393 105.146 56.3047 104.946 55.9609 104.629C55.617 104.313 55.3812 103.897 55.2869 103.439C55.1926 102.982 55.2444 102.506 55.4352 102.08L54.4583 101.643Z"/>
</mask>
<path d="M54.4583 101.643C54.1759 102.274 54.0991 102.978 54.2388 103.655C54.3784 104.333 54.7274 104.949 55.2365 105.417C55.7455 105.885 56.3889 106.182 57.0755 106.264C57.7621 106.347 58.4573 106.211 59.0627 105.877C59.6682 105.543 60.1532 105.027 60.4494 104.402C60.7455 103.777 60.8376 103.074 60.7128 102.394C60.588 101.714 60.2525 101.09 59.7538 100.611C59.2551 100.132 58.6184 99.8218 57.9338 99.7244L57.7829 100.784C58.2454 100.85 58.6755 101.059 59.0124 101.383C59.3493 101.707 59.5759 102.128 59.6602 102.587C59.7445 103.047 59.6823 103.521 59.4823 103.943C59.2822 104.366 58.9546 104.714 58.5456 104.94C58.1366 105.166 57.667 105.257 57.2031 105.202C56.7393 105.146 56.3047 104.946 55.9609 104.629C55.617 104.313 55.3812 103.897 55.2869 103.439C55.1926 102.982 55.2444 102.506 55.4352 102.08L54.4583 101.643Z" fill="black" stroke="#03045E" stroke-width="2.15703" mask="url(#path-51-inside-3_2076_3797)"/>
<path d="M69.0978 100.668C65.8746 100.668 64.7703 97.9823 64.6211 96.6393H69.0978V100.668Z" fill="#CDFF71"/>
<path d="M64.6211 108.95C64.8002 105.906 67.6801 104.846 69.0978 104.697V108.95H64.6211Z" fill="#CDFF71"/>
<path d="M69.0978 100.668C65.8746 100.668 64.7703 97.9823 64.6211 96.6393H69.0978V100.668Z" stroke="#03045E" stroke-width="1.07851"/>
<path d="M64.6211 108.95C64.8002 105.906 67.6801 104.846 69.0978 104.697V108.95H64.6211Z" stroke="#03045E" stroke-width="1.07851"/>
<path d="M50.3021 108.95C49.5858 105.011 46.87 104.324 45.6016 104.473V108.95H50.3021Z" fill="#CDFF71" stroke="#03045E" stroke-width="1.07851"/>
<mask id="path-54-inside-4_2076_3797" fill="white">
<path d="M36.5695 105.213C36.2653 105.139 35.9573 105.324 35.8895 105.63C35.0422 109.448 35.116 113.416 36.1084 117.204C37.1488 121.175 39.1657 124.824 41.9756 127.817C44.7855 130.81 48.2993 133.053 52.1972 134.342C55.9154 135.571 59.8705 135.895 63.7342 135.29C64.0437 135.241 64.2485 134.946 64.193 134.638V134.638C64.1374 134.329 63.8425 134.125 63.533 134.173C59.8555 134.745 56.0919 134.435 52.5532 133.265C48.835 132.035 45.4831 129.896 42.8026 127.04C40.1222 124.185 38.1982 120.705 37.2057 116.917C36.2613 113.311 36.189 109.536 36.9913 105.901C37.0588 105.596 36.8736 105.288 36.5695 105.213V105.213Z"/>
</mask>
<path d="M36.5695 105.213C36.2653 105.139 35.9573 105.324 35.8895 105.63C35.0422 109.448 35.116 113.416 36.1084 117.204C37.1488 121.175 39.1657 124.824 41.9756 127.817C44.7855 130.81 48.2993 133.053 52.1972 134.342C55.9154 135.571 59.8705 135.895 63.7342 135.29C64.0437 135.241 64.2485 134.946 64.193 134.638V134.638C64.1374 134.329 63.8425 134.125 63.533 134.173C59.8555 134.745 56.0919 134.435 52.5532 133.265C48.835 132.035 45.4831 129.896 42.8026 127.04C40.1222 124.185 38.1982 120.705 37.2057 116.917C36.2613 113.311 36.189 109.536 36.9913 105.901C37.0588 105.596 36.8736 105.288 36.5695 105.213V105.213Z" fill="black" stroke="#03045E" stroke-width="2.15703" mask="url(#path-54-inside-4_2076_3797)"/>
<mask id="path-55-inside-5_2076_3797" fill="white">
<path d="M54.0045 87.9123C53.9289 87.626 54.0996 87.3321 54.3874 87.2628C59.0775 86.1328 64.0006 86.4048 68.5435 88.0513C73.2547 89.7587 77.3326 92.8629 80.2329 96.9493C83.1331 101.036 84.7174 105.91 84.7742 110.92C84.829 115.752 83.4609 120.489 80.8464 124.543C80.6859 124.792 80.3521 124.856 80.1069 124.691V124.691C79.8616 124.525 79.7978 124.192 79.958 123.943C82.4505 120.069 83.7545 115.546 83.7022 110.932C83.6478 106.14 82.1325 101.478 79.3586 97.5698C76.5847 93.6613 72.6842 90.6923 68.1783 89.0592C63.8404 87.4871 59.1402 87.2252 54.6612 88.2996C54.3733 88.3686 54.0801 88.1985 54.0045 87.9123V87.9123Z"/>
</mask>
<path d="M54.0045 87.9123C53.9289 87.626 54.0996 87.3321 54.3874 87.2628C59.0775 86.1328 64.0006 86.4048 68.5435 88.0513C73.2547 89.7587 77.3326 92.8629 80.2329 96.9493C83.1331 101.036 84.7174 105.91 84.7742 110.92C84.829 115.752 83.4609 120.489 80.8464 124.543C80.6859 124.792 80.3521 124.856 80.1069 124.691V124.691C79.8616 124.525 79.7978 124.192 79.958 123.943C82.4505 120.069 83.7545 115.546 83.7022 110.932C83.6478 106.14 82.1325 101.478 79.3586 97.5698C76.5847 93.6613 72.6842 90.6923 68.1783 89.0592C63.8404 87.4871 59.1402 87.2252 54.6612 88.2996C54.3733 88.3686 54.0801 88.1985 54.0045 87.9123V87.9123Z" fill="black" stroke="#03045E" stroke-width="2.15703" mask="url(#path-55-inside-5_2076_3797)"/>
<path d="M33 107.633L36.4893 105.619L38.7098 108.791" stroke="#03045E" stroke-width="0.951631"/>
<path d="M83.6791 125.019L79.65 125.019L79.3131 121.162" stroke="#03045E" stroke-width="0.951631"/>
<path d="M128.617 34.3678L144.101 24.7678L159.895 34.3678L144.101 43.0388L128.617 34.3678Z" fill="#CDFF71" stroke="#03045E" stroke-width="1.1493"/>
<path d="M136.668 34.0581L144.1 38.3491L151.533 34.0581" stroke="#03045E" stroke-width="1.1493" stroke-linecap="round"/>
<path d="M128 34.3678V51.8535L144.174 61.0001M144.174 61.0001V43.0388M144.174 61.0001L160.516 52.0195V34.3678" stroke="#03045E" stroke-width="1.1493"/>
<path d="M169.494 30.6517C163.299 26.0065 159.894 13.6194 169.494 13C177.856 13 179.157 22.9716 169.494 30.6517Z" stroke="#03045E" stroke-width="1.1493"/>
<circle cx="169.803" cy="18.2645" r="2.21245" fill="#CDFF71" stroke="#03045E" stroke-width="1.1493"/>
<path d="M169.493 30.6516V59.4517H154.629" stroke="#03045E" stroke-width="1.1493" stroke-dasharray="4.06 4.06"/>
<path d="M154.013 18.8839H136.98M154.013 18.8839L150.297 15.1677M154.013 18.8839L150.297 22.6" stroke="#03045E" stroke-width="1.1493"/>
<path d="M160.513 46.1356L147.816 52.6389" stroke="#03045E" stroke-width="1.1493" stroke-linecap="round"/>
<path d="M219.086 172.809L238.257 164.49C244.526 167.263 257.21 172.809 257.789 172.809C258.368 172.809 245.009 177.873 238.257 180.405L219.086 172.809Z" stroke="#03045E" stroke-width="1.40693" stroke-linecap="round"/>
<path d="M218 172.809V195.597L238.256 204.278M238.256 204.278V180.405M238.256 204.278L257.788 195.597V173.171" stroke="#03045E" stroke-width="1.40693"/>
<path d="M225.594 175.341L242.956 166.66L248.382 169.192L230.606 177.511V181.49L228.1 182.937L225.594 181.49V175.341Z" fill="#CDFF71" stroke="#03045E" stroke-width="1.40693" stroke-linecap="round"/>
<mask id="path-69-inside-6_2076_3797" fill="white">
<path d="M262.651 178.399C262.895 178.751 263.381 178.84 263.719 178.576C265.18 177.435 266.397 176.008 267.294 174.38C268.317 172.525 268.897 170.458 268.989 168.342C269.081 166.225 268.682 164.116 267.824 162.179C266.967 160.242 265.673 158.53 264.044 157.176C262.415 155.821 260.495 154.862 258.434 154.372C256.373 153.883 254.226 153.876 252.162 154.353C250.098 154.83 248.172 155.777 246.535 157.122C245.098 158.301 243.918 159.758 243.062 161.403C242.864 161.784 243.041 162.245 243.432 162.421V162.421C243.823 162.597 244.28 162.421 244.481 162.042C245.236 160.615 246.269 159.35 247.521 158.322C248.973 157.13 250.681 156.289 252.512 155.866C254.343 155.443 256.247 155.449 258.075 155.883C259.903 156.318 261.606 157.169 263.051 158.37C264.496 159.571 265.643 161.09 266.404 162.808C267.165 164.526 267.519 166.397 267.437 168.274C267.355 170.152 266.841 171.985 265.934 173.63C265.152 175.049 264.097 176.295 262.832 177.298C262.495 177.565 262.406 178.047 262.651 178.399V178.399Z"/>
</mask>
<path d="M262.651 178.399C262.895 178.751 263.381 178.84 263.719 178.576C265.18 177.435 266.397 176.008 267.294 174.38C268.317 172.525 268.897 170.458 268.989 168.342C269.081 166.225 268.682 164.116 267.824 162.179C266.967 160.242 265.673 158.53 264.044 157.176C262.415 155.821 260.495 154.862 258.434 154.372C256.373 153.883 254.226 153.876 252.162 154.353C250.098 154.83 248.172 155.777 246.535 157.122C245.098 158.301 243.918 159.758 243.062 161.403C242.864 161.784 243.041 162.245 243.432 162.421V162.421C243.823 162.597 244.28 162.421 244.481 162.042C245.236 160.615 246.269 159.35 247.521 158.322C248.973 157.13 250.681 156.289 252.512 155.866C254.343 155.443 256.247 155.449 258.075 155.883C259.903 156.318 261.606 157.169 263.051 158.37C264.496 159.571 265.643 161.09 266.404 162.808C267.165 164.526 267.519 166.397 267.437 168.274C267.355 170.152 266.841 171.985 265.934 173.63C265.152 175.049 264.097 176.295 262.832 177.298C262.495 177.565 262.406 178.047 262.651 178.399V178.399Z" fill="black" stroke="#03045E" stroke-width="2.81386" mask="url(#path-69-inside-6_2076_3797)"/>
<path d="M255.258 159.787V166.338C255.258 167.115 255.888 167.745 256.665 167.745H261.407" stroke="#03045E" stroke-width="1.40693" stroke-linecap="round"/>
<path d="M225.387 175.104L231.014 177.566" stroke="#03045E" stroke-width="1.19589" stroke-linecap="round"/>
</svg>
