<svg width="296" height="220" viewBox="0 0 296 220" fill="none" xmlns="http://www.w3.org/2000/svg">
<path d="M137.545 33.835C137.545 32.345 136.669 31.2757 135.494 30.4799C134.312 29.68 132.93 29.231 132.139 28.9779L131 28.613L131.917 27.8445C135.502 24.8408 140.022 23.2859 143.432 24.1901C145.173 24.6516 146.605 25.7543 147.413 27.5777C148.209 29.3757 148.37 31.8093 147.739 34.9121L147.734 34.9359C147.072 37.679 146.568 40.0696 146.877 42.7008C147.185 45.319 148.309 48.2405 151.031 51.984C151.796 53.0353 152.876 54.7316 152.972 56.6174C153.021 57.5811 152.812 58.5879 152.192 59.5614C151.654 60.4066 150.824 61.1981 149.641 61.915C150.091 61.8778 150.778 61.7091 151.717 61.2396L152.276 60.9597L152.585 61.5039C153.11 62.4313 153.945 63.7304 154.743 64.6373C155.151 65.1013 155.498 65.4018 155.747 65.5282C155.779 65.544 155.804 65.5549 155.825 65.5626C156.486 63.9462 157.541 59.721 155.575 55.4865C154.371 52.8927 152.052 48.6174 151.015 44.219C149.982 39.8354 150.171 35.1115 154.145 31.7051C154.741 30.6918 155.534 29.2698 156.573 27.9457C157.648 26.5778 159.03 25.2551 160.824 24.545C164.502 23.09 169.461 24.3429 176.319 31.487L178 33.2383L175.665 32.5779C174.024 32.1143 172.035 31.3566 170.191 31.304C169.294 31.2783 168.501 31.4274 167.851 31.8244C167.212 32.2148 166.641 32.8873 166.255 34.0437C165.932 35.013 165.463 36.4084 164.359 37.4051C163.208 38.444 161.488 38.9552 158.885 38.4547C158.528 38.3859 158.294 38.0404 158.363 37.6831C158.432 37.3256 158.777 37.0914 159.134 37.1601C161.449 37.6053 162.711 37.1168 163.476 36.4266C164.288 35.6941 164.67 34.6306 165.004 33.6269C165.47 32.2299 166.214 31.2794 167.164 30.6992C168.103 30.1257 169.174 29.9562 170.229 29.9863C171.311 30.0172 172.45 30.2676 173.501 30.5573C167.783 25.2366 163.929 24.7343 161.309 25.7708C159.818 26.361 158.61 27.4856 157.61 28.7598C156.607 30.0372 155.855 31.4054 155.227 32.4679L155.169 32.5654L155.083 32.6379C151.58 35.5811 151.306 39.7084 152.299 43.9166C153.295 48.1432 155.516 52.2289 156.77 54.9311C159.024 59.7857 157.701 64.5823 156.965 66.2555L156.935 66.3248L156.889 66.3854C156.679 66.6649 156.386 66.8522 156.03 66.8915C155.702 66.9277 155.398 66.8293 155.152 66.7047C154.668 66.4598 154.185 65.9993 153.753 65.5082C153.021 64.6755 152.287 63.5784 151.746 62.6785C150.444 63.2392 149.412 63.3551 148.722 63.1452C148.341 63.0291 147.889 62.7428 147.82 62.2049C147.751 61.666 148.119 61.2776 148.457 61.0747L148.469 61.0672L148.482 61.0597C149.811 60.3414 150.616 59.5835 151.081 58.8536C151.541 58.1307 151.692 57.3992 151.656 56.6843C151.581 55.213 150.713 53.7886 149.965 52.7593C147.15 48.8883 145.909 45.7566 145.568 42.8545C145.23 39.9737 145.788 37.3831 146.447 34.6497C147.047 31.6999 146.853 29.5701 146.207 28.1113C145.573 26.678 144.475 25.8301 143.095 25.464C140.519 24.781 136.904 25.7808 133.703 28.12C134.467 28.4074 135.387 28.816 136.233 29.3883C137.595 30.3106 138.863 31.7315 138.863 33.835C138.863 34.6203 139.105 35.7009 139.758 36.4454C140.362 37.1327 141.417 37.6483 143.34 37.1676C143.693 37.0793 144.051 37.2943 144.139 37.6475C144.228 38.0006 144.013 38.3583 143.66 38.4466C141.346 39.025 139.753 38.4372 138.767 37.3151C137.832 36.2501 137.545 34.8149 137.545 33.835Z" fill="black"/>
<path d="M153.464 11.0409C153.805 10.9149 154.184 11.0898 154.31 11.4313C154.436 11.7729 154.261 12.152 153.92 12.2779C152.787 12.6956 152.608 13.2756 152.623 13.4694C152.631 13.5646 152.675 13.6504 152.784 13.7181C152.901 13.791 153.13 13.8616 153.505 13.8037C155.687 13.4662 157.36 14.1846 157.968 15.3026C158.283 15.8833 158.296 16.596 157.821 17.1532C157.379 17.6725 156.634 17.9104 155.748 17.9104H150.836C150.363 17.9104 150.075 18.0221 149.924 18.1272C149.777 18.23 149.769 18.3144 149.769 18.3322C149.768 18.348 149.773 18.4269 149.915 18.5265C150.062 18.63 150.352 18.7427 150.836 18.7427H156.726C157.517 18.7427 158.197 18.9165 158.706 19.2475C159.222 19.5828 159.571 20.0919 159.603 20.697C159.669 21.9129 158.52 22.8722 156.881 23.2687L156.852 23.2755L156.824 23.2799L148.257 24.5701C147.897 24.6243 147.562 24.3765 147.507 24.0165C147.453 23.6567 147.701 23.321 148.061 23.2668L156.588 21.9822C158.048 21.6245 158.299 20.9762 158.288 20.7682C158.282 20.661 158.221 20.5046 157.988 20.3528C157.747 20.1966 157.337 20.061 156.726 20.061H150.836C150.161 20.061 149.584 19.9052 149.157 19.6055C148.725 19.3019 148.446 18.8429 148.45 18.3209C148.459 17.2291 149.561 16.5921 150.836 16.5921H155.748C156.443 16.5921 156.73 16.4018 156.818 16.2985C156.874 16.2332 156.916 16.1291 156.809 15.9324C156.572 15.4952 155.592 14.8155 153.707 15.107C153.098 15.2012 152.532 15.1146 152.087 14.8371C151.633 14.5542 151.35 14.0957 151.309 13.57C151.229 12.522 152.077 11.5519 153.464 11.0409Z" fill="black"/>
<path d="M153.434 26.8512C153.706 26.8513 153.928 27.0725 153.928 27.3454C153.928 27.6183 153.706 27.8395 153.434 27.8396L149.479 27.8396C149.206 27.8396 148.984 27.6184 148.984 27.3454C148.984 27.0724 149.206 26.8512 149.479 26.8512L153.434 26.8512Z" fill="black"/>
<path d="M152.771 28.1694C153.044 28.1695 153.266 28.3907 153.266 28.6636C153.266 28.9366 153.044 29.1578 152.771 29.1579H150.135C149.862 29.1579 149.641 28.9367 149.641 28.6636C149.641 28.3906 149.862 28.1694 150.135 28.1694H152.771Z" fill="black"/>
<path d="M90.6071 163.837C90.6071 163.11 90.416 162.625 90.1701 162.293C89.9196 161.954 89.5769 161.725 89.2046 161.571C88.89 161.442 88.5678 161.374 88.2963 161.337V166.336C88.5678 166.3 88.89 166.232 89.2046 166.102C89.5769 165.949 89.9196 165.721 90.1701 165.382C90.4161 165.049 90.6071 164.565 90.6071 163.837ZM56.6623 166.372H86.9972V161.302H56.6623V166.372ZM53.053 163.837C53.053 164.984 53.7181 165.596 54.4846 165.956C54.7885 166.099 55.0975 166.194 55.3632 166.258V161.416C55.0974 161.48 54.7885 161.575 54.4846 161.718C53.7181 162.079 53.053 162.69 53.053 163.837ZM91.9062 163.837C91.9062 164.808 91.6454 165.571 91.2148 166.154C90.7886 166.73 90.2287 167.085 89.6988 167.304C89.1709 167.521 88.6528 167.611 88.2741 167.648C88.0832 167.667 87.9228 167.673 87.8079 167.673C87.7502 167.674 87.7032 167.673 87.6696 167.672C87.6528 167.672 87.6392 167.671 87.629 167.671H55.9937L55.9747 167.67L55.9734 167.67H55.9677C55.9645 167.669 55.9605 167.669 55.9556 167.669C55.9459 167.668 55.9326 167.667 55.9163 167.666C55.8836 167.663 55.8382 167.659 55.7818 167.652C55.6691 167.639 55.5115 167.616 55.3238 167.58C54.9515 167.507 54.4454 167.374 53.9315 167.132C52.8935 166.643 51.754 165.663 51.7539 163.837C51.7539 162.012 52.8934 161.031 53.9315 160.542C54.4454 160.301 54.9515 160.168 55.3238 160.095C55.5115 160.058 55.6691 160.036 55.7818 160.022C55.8382 160.016 55.8836 160.011 55.9163 160.008C55.9326 160.007 55.9459 160.006 55.9556 160.005C55.9605 160.005 55.9645 160.005 55.9677 160.005C55.9693 160.004 55.971 160.004 55.9721 160.004H55.974L55.9937 160.003H87.629C87.6392 160.002 87.6528 160.002 87.6696 160.001C87.7032 160 87.7502 160 87.8079 160C87.9228 160.001 88.0832 160.007 88.2741 160.026C88.6527 160.063 89.1709 160.153 89.6988 160.37C90.2287 160.588 90.7886 160.943 91.2148 161.52C91.6455 162.103 91.9062 162.866 91.9062 163.837Z" fill="black"/>
<path d="M90.6071 201.206C90.6071 200.479 90.416 199.995 90.1701 199.662C89.9196 199.323 89.5769 199.094 89.2046 198.941C88.89 198.811 88.5678 198.743 88.2963 198.707V203.706C88.5678 203.669 88.89 203.601 89.2046 203.472C89.5769 203.318 89.9196 203.09 90.1701 202.751C90.4161 202.418 90.6071 201.934 90.6071 201.206ZM56.6623 203.741H86.9972V198.671H56.6623V203.741ZM53.053 201.206C53.053 202.353 53.7181 202.965 54.4846 203.326C54.7885 203.469 55.0975 203.563 55.3632 203.627V198.785C55.0974 198.849 54.7885 198.944 54.4846 199.087C53.7181 199.448 53.053 200.06 53.053 201.206ZM91.9062 201.206C91.9062 202.177 91.6454 202.94 91.2148 203.523C90.7886 204.1 90.2287 204.455 89.6988 204.673C89.1709 204.89 88.6528 204.98 88.2741 205.017C88.0832 205.036 87.9228 205.042 87.8079 205.043C87.7502 205.043 87.7032 205.042 87.6696 205.041C87.6528 205.041 87.6392 205.041 87.629 205.04H55.9937L55.9747 205.04L55.9734 205.039H55.9677C55.9645 205.039 55.9605 205.039 55.9556 205.038C55.9459 205.038 55.9326 205.037 55.9163 205.035C55.8836 205.032 55.8382 205.028 55.7818 205.021C55.6691 205.008 55.5115 204.986 55.3238 204.949C54.9515 204.876 54.4454 204.743 53.9315 204.501C52.8935 204.013 51.754 203.032 51.7539 201.206C51.7539 199.381 52.8934 198.4 53.9315 197.912C54.4454 197.67 54.9515 197.537 55.3238 197.464C55.5115 197.427 55.6691 197.405 55.7818 197.392C55.8382 197.385 55.8836 197.38 55.9163 197.378C55.9326 197.376 55.9459 197.375 55.9556 197.374C55.9605 197.374 55.9645 197.374 55.9677 197.374C55.9693 197.374 55.971 197.373 55.9721 197.373H55.974L55.9937 197.372H87.629C87.6392 197.371 87.6528 197.371 87.6696 197.371C87.7032 197.37 87.7502 197.369 87.8079 197.369C87.9228 197.37 88.0832 197.376 88.2741 197.395C88.6527 197.432 89.1709 197.522 89.6988 197.739C90.2287 197.957 90.7886 198.313 91.2148 198.889C91.6455 199.472 91.9062 200.235 91.9062 201.206Z" fill="black"/>
<path d="M59.4041 166.932C59.9077 170.529 60.5997 181.731 59.4086 198.066L58.1133 197.972C59.3 181.697 58.6049 170.592 58.1177 167.112L59.4041 166.932Z" fill="black"/>
<path d="M84.7053 166.932C84.2016 170.529 83.5097 181.731 84.7008 198.066L85.9961 197.972C84.8094 181.697 85.5045 170.592 85.9917 167.112L84.7053 166.932Z" fill="black"/>
<path d="M75.6058 171.003H80.8573C81.2158 171.003 81.5067 171.294 81.5068 171.653C81.5068 172.012 81.2159 172.302 80.8573 172.302H75.0679L73.4263 170.661L71.7847 172.302H63.8722C63.5135 172.302 63.2227 172.012 63.2227 171.653C63.2228 171.294 63.5135 171.003 63.8722 171.003H71.2461L73.4263 168.824L75.6058 171.003Z" fill="black"/>
<path d="M75.6058 193.021H80.8573C81.2158 193.021 81.5067 193.312 81.5068 193.67C81.5068 194.029 81.2159 194.32 80.8573 194.32H75.0679L73.4263 192.678L71.7847 194.32H63.8722C63.5135 194.32 63.2227 194.029 63.2227 193.67C63.2228 193.312 63.5135 193.021 63.8722 193.021H71.2461L73.4263 190.841L75.6058 193.021Z" fill="black"/>
<path d="M69.1208 180.171H63.8693C63.5107 180.171 63.2198 180.462 63.2197 180.82C63.2197 181.179 63.5106 181.47 63.8693 181.47H69.6587L71.3003 179.828L72.9419 181.47H80.8544C81.2131 181.47 81.5039 181.179 81.5039 180.82C81.5038 180.462 81.213 180.171 80.8544 180.171H73.4804L71.3003 177.991L69.1208 180.171Z" fill="black"/>
<path d="M78.6899 175.061H80.8504C81.2092 175.061 81.5 175.352 81.5 175.71C81.4999 176.069 81.2091 176.36 80.8504 176.36H78.3411L77.0293 175.602L75.8679 176.273L75.7169 176.36H70.2732L68.9614 175.602L67.8 176.273L67.649 176.36H63.6534C63.2948 176.36 63.004 176.069 63.0039 175.71C63.0039 175.352 63.2947 175.061 63.6534 175.061H67.3008L68.9614 174.102L70.6221 175.061H75.3687L77.0293 174.102L78.6899 175.061Z" fill="black"/>
<path d="M78.6899 183.853H80.8504C81.2092 183.853 81.5 184.144 81.5 184.502C81.4999 184.861 81.2091 185.152 80.8504 185.152H78.3411L77.0293 184.394L75.8679 185.065L75.7169 185.152H70.2732L68.9614 184.394L67.8 185.065L67.649 185.152H63.6534C63.2948 185.152 63.004 184.861 63.0039 184.502C63.0039 184.144 63.2947 183.853 63.6534 183.853H67.3008L68.9614 182.894L70.6221 183.853H75.3687L77.0293 182.894L78.6899 183.853Z" fill="black"/>
<path d="M78.6899 187.911H80.8504C81.2092 187.911 81.5 188.201 81.5 188.56C81.4999 188.919 81.2091 189.21 80.8504 189.21H78.3411L77.0293 188.452L75.8679 189.123L75.7169 189.21H70.2732L68.9614 188.452L67.8 189.123L67.649 189.21H63.6534C63.2948 189.21 63.004 188.919 63.0039 188.56C63.0039 188.201 63.2947 187.911 63.6534 187.911H67.3008L68.9614 186.952L70.6221 187.911H75.3687L77.0293 186.952L78.6899 187.911Z" fill="black"/>
<path d="M48.3438 191.225C48.3438 189.832 47.2148 188.703 45.8218 188.703C44.4286 188.703 43.2991 189.832 43.2991 191.225C43.2992 192.618 44.4287 193.747 45.8218 193.747V195.046L45.6251 195.042C43.671 194.943 42.1042 193.376 42.0051 191.422L42 191.225C42 189.115 43.7112 187.403 45.8218 187.403L46.0184 187.409C48.0375 187.511 49.6429 189.181 49.6429 191.225L49.6384 191.422C49.536 193.441 47.8663 195.046 45.8218 195.046V193.747C47.2148 193.747 48.3437 192.618 48.3438 191.225Z" fill="black"/>
<path d="M55.5626 184.007C55.5626 182.614 54.4336 181.484 53.0405 181.484C51.6474 181.484 50.5178 182.614 50.5178 184.007C50.5179 185.4 51.6474 186.529 53.0405 186.529V187.828L52.8439 187.823C50.8898 187.724 49.323 186.157 49.2238 184.203L49.2188 184.007C49.2188 181.896 50.9299 180.185 53.0405 180.185L53.2371 180.19C55.2563 180.292 56.8616 181.962 56.8616 184.007L56.8572 184.203C56.7548 186.222 55.085 187.828 53.0405 187.828V186.529C54.4335 186.529 55.5625 185.4 55.5626 184.007Z" fill="black"/>
<path d="M46.6463 191.225C46.6463 190.77 46.2774 190.401 45.8223 190.401C45.3673 190.401 44.9984 190.77 44.9983 191.225C44.9983 191.68 45.3672 192.049 45.8223 192.049V193.348C44.6498 193.348 43.6992 192.398 43.6992 191.225C43.6992 190.052 44.6498 189.102 45.8223 189.102C46.9949 189.102 47.9454 190.052 47.9454 191.225C47.9454 192.398 46.9949 193.348 45.8223 193.348V192.049C46.2774 192.049 46.6463 191.68 46.6463 191.225Z" fill="black"/>
<path d="M53.8651 184.006C53.865 183.551 53.4962 183.182 53.0411 183.182C52.586 183.182 52.2171 183.551 52.2171 184.006C52.2171 184.462 52.586 184.83 53.0411 184.83V186.13C51.8685 186.129 50.918 185.179 50.918 184.006C50.918 182.834 51.8685 181.883 53.0411 181.883C54.2136 181.883 55.1642 182.834 55.1642 184.006C55.1642 185.179 54.2137 186.13 53.0411 186.13V184.83C53.4962 184.83 53.8651 184.462 53.8651 184.006Z" fill="black"/>
<path d="M54.4134 166.445C54.6148 166.148 55.0186 166.071 55.3154 166.272C55.6122 166.473 55.69 166.877 55.4886 167.174C54.1605 169.131 52.1067 172.522 50.2815 176.306C48.4507 180.101 46.8785 184.234 46.4667 187.692C46.4243 188.049 46.101 188.303 45.7448 188.261C45.3886 188.218 45.1341 187.895 45.1765 187.539C45.6141 183.864 47.2619 179.575 49.1112 175.741C50.9659 171.896 53.0523 168.451 54.4134 166.445Z" fill="black"/>
<path d="M57.334 166.744C57.4871 166.42 57.8748 166.281 58.1992 166.434C58.5234 166.587 58.6619 166.975 58.5087 167.299C57.3117 169.834 54.8658 175.985 54.5354 180.445C54.5089 180.803 54.1973 181.072 53.8395 181.045C53.4819 181.019 53.2136 180.707 53.2401 180.349C53.5891 175.638 56.1247 169.305 57.334 166.744Z" fill="black"/>
<path d="M233.723 159.985C234.755 161.803 236.125 165.013 236.937 168.807C237.597 171.893 237.895 175.403 237.316 178.885C238.99 177.567 241.072 176.483 243.424 176.212C246.774 175.825 250.501 177.106 254.181 181.312L256 183.39L253.38 182.517C252.143 182.104 249.811 180.603 246.533 182.458C245.977 182.773 244.835 183.366 243.669 183.836C245.141 184.943 246.277 186.322 247.054 187.848C248.863 191.401 248.724 195.731 246.411 199.176C244.088 202.636 239.652 205.095 233.071 205.095H233.064C226.5 205.037 221.982 202.538 219.526 199.094C217.08 195.665 216.734 191.363 218.402 187.865C219.211 186.169 220.489 184.672 222.212 183.562C220.401 182.535 216.751 181.383 211.796 182.535L210 182.953L210.995 181.401C212.235 179.465 214.603 177.186 217.821 176.43C220.676 175.759 224.072 176.316 227.771 179.135C227.141 174.461 227.481 166.427 232.476 159.9L233.164 159L233.723 159.985ZM245.991 189.111C233.673 193.148 223.704 191.086 219.462 189.203C218.383 192.062 218.77 195.451 220.747 198.223C222.874 201.206 226.9 203.54 233.076 203.595C239.27 203.594 243.182 201.297 245.167 198.341C247.039 195.551 247.268 192.08 245.991 189.111ZM223.694 184.43C222.109 185.282 220.912 186.473 220.107 187.848C223.978 189.555 233.442 191.574 245.282 187.763C244.47 186.466 243.335 185.317 241.886 184.437C238.597 185.411 230.96 186.613 223.694 184.43ZM232.971 161.778C228.317 168.654 228.707 177.03 229.572 180.67C230.071 181.14 230.576 181.652 231.085 182.209C231.364 182.514 231.343 182.989 231.037 183.268C230.731 183.547 230.256 183.525 229.977 183.22C229.438 182.629 228.908 182.095 228.386 181.613C224.335 177.866 220.848 177.259 218.164 177.889C216.21 178.349 214.593 179.484 213.43 180.718C218.707 180.026 222.472 181.722 223.983 182.95C231.163 185.156 238.836 183.842 241.755 182.909L241.773 182.903L241.792 182.898C243.149 182.539 245.019 181.592 245.795 181.153C247.731 180.057 249.462 179.937 250.839 180.139C248.226 178.01 245.756 177.452 243.596 177.701C240.781 178.026 238.319 179.739 236.602 181.574C236.105 182.105 235.677 182.64 235.327 183.142C235.091 183.482 234.624 183.566 234.284 183.33C233.944 183.093 233.86 182.626 234.097 182.286C234.457 181.767 234.888 181.225 235.381 180.687C236.474 176.815 236.239 172.714 235.47 169.121C234.833 166.14 233.836 163.546 232.971 161.778Z" fill="black"/>
<path d="M51.5193 96.2933C51.5193 95.1698 51.3064 94.3865 51.0067 93.843C50.7111 93.3072 50.3113 92.9676 49.8654 92.7539C48.9393 92.3101 47.7607 92.3907 46.9261 92.6209C46.5366 92.7283 46.1339 92.4997 46.0265 92.1102C45.9192 91.7208 46.1477 91.318 46.5372 91.2106C47.5424 90.9333 49.1237 90.7761 50.4973 91.4343C51.201 91.7715 51.836 92.3175 52.2878 93.1366C52.7355 93.9483 52.983 94.9895 52.983 96.2933C52.983 99.0142 52.8955 102.343 53.6192 104.804C53.9774 106.022 54.5049 106.915 55.2389 107.427C55.9469 107.921 56.9742 108.146 58.541 107.765L76.2253 102.821C80.123 101.722 82.724 102.626 84.1038 104.523C85.4235 106.337 85.4552 108.851 84.7121 110.656C84.363 111.504 84.0056 112.581 83.9728 113.673C83.9406 114.744 84.2183 115.806 85.124 116.712C85.8524 117.44 87.0366 118.421 88.2093 119.012C88.7968 119.308 89.3325 119.481 89.7774 119.507C90.2011 119.532 90.5105 119.426 90.7504 119.186C91.0361 118.9 91.4997 118.9 91.7854 119.186C92.0711 119.472 92.0711 119.935 91.7854 120.221C91.1879 120.818 90.4361 121.012 89.6917 120.968C88.9685 120.925 88.2288 120.661 87.5507 120.319C86.1921 119.635 84.8831 118.54 84.0889 117.746C82.8369 116.494 82.4688 115.007 82.5102 113.629C82.5511 112.273 82.9868 111.003 83.3589 110.099C83.9481 108.668 83.8846 106.709 82.9203 105.383C82.0164 104.141 80.1451 103.236 76.6211 104.23L76.6192 104.23L58.9194 109.179L58.8958 109.185C57.041 109.638 55.5485 109.427 54.402 108.627C53.2804 107.845 52.6182 106.587 52.2151 105.217C51.4163 102.501 51.5193 98.9015 51.5193 96.2933Z" fill="black"/>
<path d="M83.2543 83.031C83.6413 82.915 84.049 83.1348 84.1651 83.5218C84.4705 84.54 84.7111 86.1653 84.1154 87.5838C83.8088 88.3139 83.2835 88.978 82.4653 89.4507C81.6562 89.9181 80.605 90.1732 79.2775 90.1733H70.9038C69.4631 90.1733 68.2856 90.702 67.596 91.688C66.9036 92.6782 66.5936 94.2863 67.2301 96.6676L71.6008 111.488L71.7288 111.906C72.0235 112.908 72.285 114.09 72.4023 115.284C72.5353 116.638 72.4896 118.072 72.0432 119.289C71.5847 120.54 70.6957 121.569 69.2052 121.995C67.7645 122.407 65.8672 122.223 63.4241 121.343C62.7218 121.09 62.0268 120.727 61.1906 120.627C60.4468 120.538 59.6619 120.68 58.8962 121.515L54.9255 126.43C54.7185 126.709 54.682 126.962 54.7199 127.091C54.7378 127.152 54.8404 127.418 55.6083 127.546C56.0069 127.613 56.2762 127.99 56.2097 128.389C56.1432 128.787 55.7663 129.056 55.3679 128.99C54.3088 128.813 53.5548 128.318 53.3158 127.503C53.0971 126.758 53.4013 126.024 53.7606 125.545L53.7687 125.534L53.7768 125.524L57.7735 120.576L57.7872 120.559L57.8015 120.544C58.9353 119.296 60.2193 119.037 61.3645 119.174C62.4209 119.301 63.4387 119.793 63.9199 119.966C66.2349 120.8 67.7875 120.878 68.8032 120.588C69.7689 120.312 70.3431 119.676 70.6695 118.785C71.0081 117.862 71.0689 116.678 70.946 115.427C70.8241 114.187 70.5282 112.941 70.2067 111.931L70.2017 111.916L65.8235 97.0714L65.821 97.0627L65.8185 97.0534C65.1114 94.4142 65.3732 92.3132 66.397 90.8492C67.4244 89.3802 69.1094 88.7102 70.9038 88.7102H79.2775C80.4239 88.7101 81.2043 88.489 81.7334 88.1833C82.2534 87.8829 82.5731 87.4765 82.766 87.0171C83.1693 86.0567 83.029 84.8269 82.7635 83.9418C82.6475 83.5548 82.8674 83.1471 83.2543 83.031Z" fill="black"/>
<path d="M60.8742 101.052C60.8741 100.598 60.5067 100.231 60.0534 100.231C59.6002 100.231 59.2327 100.598 59.2327 101.052C59.2327 101.505 59.6002 101.872 60.0534 101.872V103.336C58.7921 103.335 57.7695 102.313 57.7695 101.052C57.7696 99.7903 58.7921 98.7677 60.0534 98.7677C61.3148 98.7677 62.3373 99.7902 62.3374 101.052C62.3374 102.313 61.3148 103.336 60.0534 103.336V101.872C60.5067 101.872 60.8742 101.505 60.8742 101.052Z" fill="black"/>
<path d="M62.7765 114.755C62.7765 114.302 62.409 113.934 61.9558 113.934C61.5026 113.934 61.1351 114.302 61.135 114.755C61.135 115.208 61.5026 115.576 61.9558 115.576V117.039C60.6944 117.039 59.6719 116.016 59.6719 114.755C59.6719 113.494 60.6944 112.471 61.9558 112.471C63.2172 112.471 64.2397 113.494 64.2397 114.755C64.2397 116.017 63.2172 117.039 61.9558 117.039V115.576C62.409 115.576 62.7765 115.208 62.7765 114.755Z" fill="black"/>
<path d="M77.6203 111.329C77.6202 110.876 77.2528 110.509 76.7995 110.509C76.3463 110.509 75.9788 110.876 75.9788 111.329C75.9788 111.783 76.3463 112.15 76.7995 112.15V113.613C75.5382 113.613 74.5156 112.591 74.5156 111.329C74.5157 110.068 75.5382 109.045 76.7995 109.045C78.0609 109.045 79.0834 110.068 79.0834 111.329C79.0834 112.591 78.0609 113.613 76.7995 113.613V112.15C77.2528 112.15 77.6203 111.783 77.6203 111.329Z" fill="black"/>
<path d="M73.8156 98.7677C73.8156 98.3145 73.4481 97.9469 72.9948 97.9469C72.5416 97.947 72.1741 98.3145 72.1741 98.7677C72.1741 99.2209 72.5416 99.5884 72.9948 99.5884V101.052C71.7335 101.052 70.7109 100.029 70.7109 98.7677C70.711 97.5063 71.7335 96.4838 72.9948 96.4838C74.2562 96.4838 75.2787 97.5063 75.2788 98.7677C75.2788 100.029 74.2563 101.052 72.9948 101.052V99.5884C73.4481 99.5884 73.8156 99.2209 73.8156 98.7677Z" fill="black"/>
<path d="M246.709 16.6284C246.631 17.915 246.283 19.9609 245.492 21.9698C244.704 23.9708 243.446 26.0107 241.498 27.1793C241.233 27.3384 240.888 27.252 240.729 26.9867C240.57 26.7215 240.656 26.3778 240.921 26.2187C242.566 25.2317 243.703 23.4541 244.449 21.5595C245.071 19.9817 245.4 18.3744 245.533 17.1984C241.912 17.5345 239.463 19.2933 238.702 20.118C238.492 20.3452 238.138 20.3595 237.91 20.1497C237.683 19.9399 237.669 19.5855 237.879 19.3582C238.87 18.2846 241.836 16.2214 246.125 16.0349L246.746 16.0081L246.709 16.6284Z" fill="black"/>
<path d="M221.949 15.8119C222.891 15.8904 224.42 16.1575 225.994 16.7052C227.561 17.2505 229.231 18.0938 230.398 19.3579C230.608 19.5852 230.593 19.9396 230.366 20.1494C230.139 20.3593 229.784 20.345 229.574 20.1177C228.586 19.0468 227.112 18.2807 225.625 17.7632C224.479 17.3643 223.359 17.1257 222.516 17.005C222.652 18.3186 223.007 20.0897 223.689 21.7539C224.501 23.7319 225.732 25.4553 227.504 26.1801C227.79 26.2972 227.927 26.6246 227.81 26.9109C227.693 27.1972 227.366 27.3344 227.079 27.2173C224.899 26.3253 223.511 24.2688 222.653 22.179C221.791 20.0768 221.421 17.8352 221.343 16.4L221.309 15.7583L221.949 15.8119Z" fill="black"/>
<path d="M242.754 26.1385L242.876 26.5346C243.066 27.1557 243.053 28.1936 242.652 29.0904C242.446 29.5506 242.128 29.9958 241.659 30.3256C241.186 30.6584 240.59 30.8513 239.87 30.8513H228.186C227.26 30.8513 226.274 30.4855 225.602 29.748C224.91 28.9883 224.601 27.8889 224.959 26.5538L225.07 26.1385H242.754ZM225.957 27.2589C225.848 28.0403 226.077 28.6062 226.43 28.9936C226.863 29.4686 227.533 29.731 228.186 29.731H239.87C240.381 29.731 240.747 29.5975 241.015 29.4093C241.287 29.2182 241.489 28.9482 241.63 28.6325C241.838 28.1662 241.892 27.6475 241.867 27.2589H225.957Z" fill="black"/>
<path d="M227.637 30.1912C227.692 29.8868 227.984 29.6851 228.288 29.7404C228.592 29.7958 228.794 30.0871 228.739 30.3914L228.229 33.1956L227.905 33.2962C220.16 35.6954 216.664 41.9934 217.625 47.5374C218.578 53.0433 223.999 58.113 234.738 57.8717C239.642 57.7615 243.245 56.4499 245.696 54.5172C248.143 52.5872 249.474 50.0124 249.8 47.2978C250.454 41.859 247.073 35.7857 240.331 33.2864L240.059 33.1857L239.323 30.4363C239.243 30.1374 239.42 29.8303 239.719 29.7503C240.018 29.6703 240.325 29.8475 240.405 30.1463L240.992 32.3394C248.003 35.0671 251.624 41.5145 250.912 47.4313C250.551 50.4325 249.075 53.2791 246.389 55.3974C243.707 57.513 239.851 58.8771 234.763 58.9915C223.655 59.2411 217.597 53.9454 216.521 47.7284C215.465 41.632 219.268 34.9477 227.247 32.3301L227.637 30.1912Z" fill="black"/>
<path d="M246.229 35.7938C246.538 35.7938 246.789 36.0446 246.789 36.354C246.789 36.6634 246.538 36.9142 246.229 36.9142H221.423C221.114 36.9142 220.863 36.6634 220.863 36.354C220.863 36.0446 221.114 35.7938 221.423 35.7938H246.229Z" fill="black"/>
<path d="M234.448 12.413C235.822 14.0165 237.65 16.6554 238.657 19.3752C239.652 22.0637 239.921 25.0632 237.777 27.1044C237.553 27.3177 237.199 27.3091 236.985 27.0853C236.772 26.8613 236.781 26.5065 237.004 26.2931C238.633 24.7417 238.564 22.3522 237.606 19.7642C236.764 17.4892 235.291 15.2397 234.047 13.6865C232.777 15.423 231.288 17.6843 230.51 19.9223C230.078 21.1655 229.879 22.3618 230.03 23.4348C230.179 24.49 230.67 25.4548 231.678 26.2614C231.919 26.4547 231.959 26.807 231.765 27.0486C231.572 27.2901 231.22 27.3293 230.978 27.1361C229.741 26.1464 229.109 24.9218 228.921 23.5913C228.736 22.2787 228.986 20.8929 229.451 19.5541C230.38 16.8828 232.225 14.2408 233.575 12.4414L233.994 11.8823L234.448 12.413Z" fill="black"/>
<path d="M217.525 41.0957C217.634 40.8063 217.957 40.6604 218.247 40.7697C222.709 42.4554 234.111 44.9125 249.44 40.8053C249.739 40.7252 250.046 40.9025 250.126 41.2013C250.206 41.5001 250.029 41.8072 249.73 41.8873C234.162 46.0588 222.519 43.5815 217.851 41.8178C217.561 41.7085 217.415 41.3851 217.525 41.0957Z" fill="black"/>
<path d="M217.142 43.6689C217.251 43.3795 217.574 43.2335 217.864 43.3428C222.323 45.0272 234.679 47.434 250.011 43.3259C250.31 43.2458 250.617 43.4231 250.697 43.7219C250.777 44.0207 250.6 44.3278 250.301 44.4079C234.736 48.5784 222.14 46.156 217.468 44.391C217.178 44.2816 217.032 43.9582 217.142 43.6689Z" fill="black"/>
<path d="M232.481 45.5477C232.79 45.5345 233.052 45.7743 233.065 46.0833C233.08 46.4423 233.176 47.1394 233.448 47.8431C233.678 48.4385 234.016 48.992 234.495 49.3705C234.529 49.336 234.566 49.2962 234.604 49.2501C234.763 49.0585 234.939 48.7888 235.102 48.4564C235.429 47.7901 235.684 46.9199 235.684 46.0089C235.684 45.6995 235.935 45.4487 236.244 45.4487C236.553 45.4488 236.804 45.6996 236.804 46.0089C236.804 47.1187 236.497 48.1572 236.108 48.9504C235.913 49.3476 235.691 49.6953 235.466 49.9668C235.254 50.2209 234.989 50.4695 234.691 50.5773L234.446 50.6659L234.22 50.5357C233.279 49.9922 232.725 49.0789 232.403 48.2469C232.08 47.4111 231.966 46.5911 231.946 46.1314C231.933 45.8224 232.172 45.561 232.481 45.5477Z" fill="black"/>
<path d="M228.556 45.4148C228.865 45.4016 229.126 45.6413 229.139 45.9504C229.147 46.1242 229.203 46.5046 229.354 46.8908C229.454 47.1448 229.583 47.368 229.739 47.5396C229.801 47.4668 229.867 47.3775 229.93 47.2726C230.115 46.9646 230.26 46.558 230.26 46.1074C230.26 45.7981 230.511 45.5472 230.82 45.5472C231.13 45.5472 231.38 45.7981 231.381 46.1074C231.381 46.7967 231.16 47.4004 230.89 47.8492C230.755 48.0741 230.604 48.2688 230.451 48.4219C230.308 48.5644 230.128 48.709 229.928 48.7813L229.683 48.87L229.457 48.7398C228.857 48.3932 228.509 47.8046 228.311 47.2999C228.111 46.7899 228.032 46.2866 228.02 45.9985C228.007 45.6895 228.247 45.4281 228.556 45.4148Z" fill="black"/>
<path d="M222.681 44.7077C222.99 44.6944 223.251 44.9342 223.264 45.2432C223.273 45.4514 223.359 45.9881 223.568 46.5403C223.729 46.9656 223.936 47.3295 224.178 47.5709C224.286 47.4737 224.408 47.3408 224.522 47.1743C224.757 46.8296 224.945 46.3682 224.945 45.8275C224.945 45.5181 225.196 45.2673 225.506 45.2673C225.815 45.2673 226.066 45.5181 226.066 45.8275C226.066 46.6339 225.785 47.3112 225.447 47.8056C225.126 48.2763 224.704 48.6506 224.343 48.781L224.098 48.8696L223.873 48.7394C223.176 48.3374 222.761 47.5747 222.52 46.9363C222.273 46.283 222.16 45.6291 222.145 45.2914C222.132 44.9823 222.372 44.721 222.681 44.7077Z" fill="black"/>
<path d="M245.702 44.6624C245.393 44.6491 245.132 44.8889 245.119 45.1979C245.109 45.4225 245.034 46.006 244.84 46.5962C244.695 47.0358 244.508 47.4027 244.291 47.6476C244.19 47.5317 244.077 47.3776 243.971 47.1908C243.73 46.7662 243.544 46.2248 243.544 45.6711C243.544 45.3619 243.293 45.1111 242.984 45.111C242.675 45.111 242.424 45.3618 242.424 45.6711C242.424 46.4646 242.686 47.1955 242.998 47.7439C243.154 48.0197 243.329 48.2613 243.504 48.4507C243.664 48.6239 243.873 48.808 244.105 48.8921L244.35 48.9808L244.576 48.8506C245.29 48.4384 245.684 47.6139 245.904 46.9463C246.132 46.2528 246.224 45.5674 246.238 45.2461C246.251 44.937 246.011 44.6757 245.702 44.6624Z" fill="black"/>
<path d="M240.312 45.225C240.003 45.2118 239.741 45.4515 239.728 45.7606C239.72 45.9376 239.66 46.3707 239.501 46.8103C239.398 47.0961 239.27 47.3399 239.121 47.5204C239.056 47.4372 238.985 47.336 238.918 47.2179C238.72 46.8681 238.568 46.4245 238.568 45.9745C238.568 45.6652 238.317 45.4143 238.007 45.4143C237.698 45.4144 237.447 45.6652 237.447 45.9745C237.447 46.6643 237.676 47.2974 237.945 47.771C238.08 48.0094 238.232 48.2196 238.385 48.3853C238.523 48.5348 238.711 48.703 238.928 48.7814L239.172 48.87L239.398 48.7398C240.015 48.3835 240.361 47.7274 240.555 47.1905C240.754 46.6389 240.835 46.0936 240.847 45.8087C240.86 45.4996 240.621 45.2383 240.312 45.225Z" fill="black"/>
<path d="M232.111 20.4793C232.188 20.3449 232.359 20.298 232.493 20.3746C232.627 20.4511 232.674 20.6221 232.598 20.7566C232.382 21.1346 232.228 21.8169 232.283 22.5955C232.337 23.3673 232.595 24.201 233.164 24.89C233.263 25.0092 233.246 25.1862 233.127 25.2847C233.008 25.3832 232.831 25.3665 232.732 25.2473C232.074 24.4503 231.785 23.4975 231.724 22.6349C231.664 21.779 231.827 20.9787 232.111 20.4793Z" fill="black"/>
<path d="M232.24 19.4269C232.277 19.2131 232.404 18.5089 233.151 17.7215C233.258 17.6093 233.435 17.6047 233.547 17.7112C233.659 17.8177 233.664 17.995 233.558 18.1072C232.914 18.7845 232.818 19.3683 232.792 19.5225C232.765 19.6749 232.62 19.777 232.468 19.7507C232.316 19.7243 232.213 19.5793 232.24 19.4269Z" fill="black"/>
<path d="M235.042 18.9133C235.17 18.8259 235.344 18.8586 235.431 18.9863C235.654 19.312 236.154 20.034 236.123 20.984C236.118 21.1386 235.988 21.2598 235.834 21.2548C235.679 21.2497 235.558 21.1203 235.563 20.9658C235.588 20.2165 235.193 19.6307 234.969 19.3025C234.882 19.1749 234.914 19.0006 235.042 18.9133Z" fill="black"/>
<path d="M145.518 158.528C148.328 158.652 151.002 160.49 151.19 163.879C151.296 165.794 150.636 170.336 147.18 173.642C146.68 176.221 146.081 181.319 148.373 185.63C150.17 188.452 150.693 190.999 150.359 193.108C150.024 195.222 148.833 196.841 147.315 197.798C145.804 198.751 143.951 199.054 142.291 198.513C140.612 197.965 139.196 196.577 138.542 194.287L138.459 193.976C138.031 192.266 137.445 188.271 137.91 183.402C138.074 181.691 137.576 178.957 135.882 176.755C134.338 174.748 132.747 171.973 132.551 169.486C132.452 168.222 132.711 166.991 133.563 165.991C134.41 164.999 135.779 164.31 137.747 163.992L137.754 163.992L137.76 163.991C137.845 163.98 138.019 163.931 138.19 163.827C138.354 163.727 138.486 163.592 138.554 163.417C139.665 159.969 142.713 158.405 145.518 158.528ZM145.471 159.595C143.078 159.49 140.503 160.818 139.564 163.766C138.553 166.941 139.584 169.121 141.034 170.11C142.503 171.111 144.457 170.968 145.642 169.402C147.065 167.259 146.687 165.654 145.93 164.897C145.165 164.134 143.847 164.027 142.822 165.168C142.37 165.756 142.281 166.254 142.339 166.622C142.399 167 142.625 167.311 142.929 167.505C143.236 167.7 143.591 167.755 143.889 167.664C144.168 167.579 144.472 167.341 144.653 166.794C144.746 166.514 145.049 166.363 145.329 166.456C145.609 166.549 145.76 166.852 145.667 167.131C145.392 167.958 144.857 168.485 144.201 168.686C143.564 168.881 142.888 168.745 142.356 168.406C141.82 168.065 141.397 167.498 141.284 166.789C141.171 166.072 141.384 165.277 141.99 164.497L142.001 164.484L142.012 164.471C143.431 162.876 145.467 162.924 146.685 164.142C147.912 165.369 148.143 167.576 146.523 170.007L146.515 170.019L146.506 170.032C144.939 172.119 142.318 172.278 140.432 170.992C138.811 169.887 137.77 167.768 138.184 164.984C138.086 165.013 137.996 165.035 137.917 165.047L137.917 165.047C136.099 165.341 135.002 165.95 134.376 166.685C133.755 167.413 133.532 168.338 133.616 169.402C133.787 171.572 135.219 174.141 136.729 176.103C138.604 178.54 139.16 181.55 138.974 183.503C138.747 185.874 138.779 188.025 138.915 189.782C139.381 188.77 140.102 188.025 140.936 187.579C141.815 187.108 142.811 186.98 143.707 187.242C144.557 187.491 145.289 188.082 145.72 188.997L145.802 189.184L145.808 189.201L145.814 189.218C146.052 189.935 146.227 191.05 145.873 192.023C145.69 192.524 145.365 192.991 144.843 193.326C144.325 193.658 143.652 193.837 142.815 193.837H142.785L142.756 193.834C141.841 193.732 141.177 193.364 140.784 192.821C140.395 192.285 140.319 191.642 140.453 191.088C140.585 190.542 140.937 190.025 141.475 189.773C142.043 189.508 142.71 189.589 143.337 190.044C143.575 190.217 143.628 190.551 143.455 190.79C143.281 191.028 142.947 191.081 142.709 190.908C142.341 190.641 142.085 190.668 141.927 190.741C141.739 190.829 141.562 191.043 141.49 191.339C141.421 191.628 141.466 191.942 141.649 192.194C141.825 192.437 142.177 192.687 142.846 192.767C143.517 192.763 143.966 192.62 144.266 192.427C144.565 192.235 144.755 191.97 144.869 191.658C145.105 191.01 145.003 190.175 144.805 189.571C144.509 188.857 143.993 188.438 143.408 188.267C142.808 188.091 142.099 188.168 141.44 188.52C140.155 189.209 139.009 191.002 139.575 194.013C140.144 195.986 141.319 197.073 142.622 197.497C143.947 197.929 145.472 197.698 146.746 196.894C148.014 196.095 149.019 194.738 149.304 192.94C149.589 191.141 149.161 188.848 147.459 186.183L147.447 186.165L147.437 186.147C144.901 181.392 145.65 175.835 146.163 173.271L146.197 173.101L146.323 172.984C149.593 169.948 150.219 165.665 150.123 163.939C149.972 161.221 147.866 159.701 145.471 159.595Z" fill="black"/>
<path d="M142.112 172.765C142.112 173.102 141.839 173.375 141.501 173.375C141.164 173.375 140.891 173.102 140.891 172.765C140.891 172.427 141.164 172.154 141.501 172.154C141.839 172.154 142.112 172.427 142.112 172.765Z" fill="black"/>
<path d="M142.112 175.818C142.112 176.156 141.839 176.429 141.501 176.429C141.164 176.429 140.891 176.156 140.891 175.818C140.891 175.481 141.164 175.208 141.501 175.208C141.839 175.208 142.112 175.481 142.112 175.818Z" fill="black"/>
<path d="M142.112 178.872C142.112 179.209 141.839 179.483 141.501 179.483C141.164 179.483 140.891 179.209 140.891 178.872C140.891 178.535 141.164 178.261 141.501 178.261C141.839 178.261 142.112 178.535 142.112 178.872Z" fill="black"/>
<path d="M142.112 181.925C142.112 182.263 141.839 182.536 141.501 182.536C141.164 182.536 140.891 182.263 140.891 181.925C140.891 181.588 141.164 181.315 141.501 181.315C141.839 181.315 142.112 181.588 142.112 181.925Z" fill="black"/>
<path d="M142.112 184.979C142.112 185.316 141.839 185.59 141.501 185.59C141.164 185.59 140.891 185.316 140.891 184.979C140.891 184.642 141.164 184.368 141.501 184.368C141.839 184.368 142.112 184.642 142.112 184.979Z" fill="black"/>
<path d="M148.828 155.054C148.828 156.74 148.008 158.107 146.996 158.107C145.984 158.107 145.164 156.74 145.164 155.054C145.164 153.367 145.984 152 146.996 152C148.008 152 148.828 153.367 148.828 155.054Z" fill="black"/>
<path d="M143.324 155.237C143.441 156.412 142.993 157.418 142.322 157.486C141.65 157.553 141.011 156.655 140.893 155.481C140.775 154.306 141.224 153.299 141.895 153.232C142.566 153.165 143.206 154.062 143.324 155.237Z" fill="black"/>
<path d="M139.014 157.477C139.328 158.615 139.055 159.683 138.405 159.862C137.755 160.042 136.973 159.265 136.659 158.127C136.345 156.989 136.617 155.921 137.267 155.741C137.917 155.562 138.699 156.339 139.014 157.477Z" fill="black"/>
<path d="M134.725 160.229C135.079 161.177 134.982 162.089 134.508 162.266C134.034 162.443 133.363 161.819 133.009 160.871C132.654 159.923 132.751 159.011 133.225 158.834C133.699 158.657 134.371 159.282 134.725 160.229Z" fill="black"/>
<path d="M132.298 163.329C132.601 164.294 132.456 165.2 131.973 165.351C131.491 165.503 130.853 164.844 130.55 163.879C130.246 162.913 130.391 162.008 130.874 161.856C131.356 161.704 131.994 162.364 132.298 163.329Z" fill="black"/>
<path d="M160.841 170.668C158.034 170.475 155.172 172.002 154.604 175.349C154.284 177.239 154.43 181.827 157.494 185.5C157.701 188.119 157.725 193.252 154.964 197.279C152.861 199.881 152.056 202.353 152.152 204.486C152.248 206.624 153.249 208.368 154.65 209.488C156.045 210.604 157.852 211.113 159.563 210.762C161.293 210.406 162.855 209.186 163.762 206.984L163.879 206.684C164.496 205.033 165.527 201.128 165.61 196.238C165.64 194.519 166.441 191.858 168.371 189.86C170.131 188.039 172.023 185.46 172.496 183.011C172.737 181.766 172.618 180.513 171.883 179.425C171.153 178.344 169.87 177.506 167.949 176.969L167.943 176.968L167.936 176.966C167.854 176.945 167.686 176.878 167.528 176.756C167.376 176.637 167.26 176.489 167.212 176.307C166.495 172.756 163.642 170.86 160.841 170.668ZM160.767 171.733C163.157 171.897 165.567 173.506 166.169 176.54C166.818 179.809 165.549 181.859 163.997 182.679C162.425 183.51 160.499 183.148 159.498 181.459C158.324 179.17 158.88 177.618 159.717 176.951C160.562 176.278 161.885 176.32 162.775 177.568C163.158 178.203 163.191 178.708 163.091 179.067C162.989 179.436 162.73 179.72 162.406 179.878C162.079 180.038 161.72 180.053 161.435 179.929C161.167 179.813 160.892 179.543 160.773 178.979C160.711 178.69 160.428 178.506 160.139 178.567C159.851 178.628 159.667 178.912 159.728 179.2C159.908 180.053 160.381 180.636 161.01 180.909C161.621 181.174 162.308 181.115 162.875 180.838C163.446 180.559 163.93 180.044 164.121 179.351C164.314 178.651 164.191 177.838 163.677 176.995L163.667 176.98L163.657 176.966C162.426 175.223 160.399 175.042 159.051 176.116C157.694 177.197 157.217 179.364 158.555 181.962L158.561 181.975L158.569 181.988C159.892 184.238 162.478 184.69 164.496 183.624C166.231 182.707 167.504 180.719 167.404 177.906C167.498 177.945 167.585 177.978 167.663 177.998L167.662 177.998C169.436 178.494 170.457 179.222 170.998 180.023C171.533 180.816 171.65 181.76 171.448 182.808C171.035 184.945 169.324 187.337 167.603 189.118C165.467 191.329 164.576 194.257 164.542 196.219C164.502 198.589 164.231 200.714 163.901 202.441C163.561 201.436 162.956 200.662 162.204 200.159C160.581 199.073 158.343 199.347 157.251 201.281C156.857 201.979 156.675 203.093 156.961 204.098C157.108 204.612 157.381 205.113 157.828 205.513C158.277 205.915 158.875 206.191 159.627 206.292L159.653 206.295L159.679 206.296C160.767 206.333 161.578 206.01 162.086 205.441C162.587 204.878 162.725 204.15 162.617 203.512C162.51 202.883 162.148 202.264 161.551 201.957C160.917 201.63 160.154 201.721 159.419 202.264C159.182 202.439 159.132 202.774 159.307 203.011C159.482 203.248 159.817 203.298 160.054 203.123C160.539 202.765 160.867 202.806 161.062 202.907C161.293 203.026 161.499 203.311 161.564 203.691C161.627 204.062 161.541 204.447 161.29 204.729C161.048 205.001 160.585 205.251 159.748 205.229C159.193 205.151 158.808 204.957 158.54 204.718C158.267 204.473 158.089 204.158 157.988 203.805C157.781 203.077 157.926 202.258 158.181 201.806C158.927 200.485 160.432 200.259 161.609 201.046C162.76 201.816 163.67 203.656 162.766 206.595C161.979 208.492 160.69 209.44 159.348 209.716C157.983 209.997 156.493 209.595 155.317 208.654C154.146 207.718 153.3 206.256 153.219 204.438C153.137 202.619 153.819 200.388 155.81 197.931L155.824 197.914L155.836 197.897C158.889 193.456 158.768 187.851 158.546 185.245L158.531 185.073L158.419 184.942C155.51 181.559 155.368 177.233 155.657 175.528C156.112 172.844 158.376 171.569 160.767 171.733Z" fill="black"/>
<path d="M162.632 185.197C162.594 185.532 162.835 185.835 163.17 185.873C163.505 185.91 163.808 185.669 163.846 185.334C163.883 184.999 163.642 184.697 163.307 184.659C162.972 184.621 162.67 184.862 162.632 185.197Z" fill="black"/>
<path d="M162.288 188.232C162.25 188.567 162.491 188.869 162.826 188.907C163.162 188.945 163.464 188.704 163.502 188.369C163.54 188.033 163.299 187.731 162.963 187.693C162.628 187.655 162.326 187.896 162.288 188.232Z" fill="black"/>
<path d="M161.952 191.266C161.914 191.601 162.155 191.904 162.491 191.941C162.826 191.979 163.128 191.738 163.166 191.403C163.204 191.068 162.963 190.765 162.628 190.728C162.292 190.69 161.99 190.931 161.952 191.266Z" fill="black"/>
<path d="M161.604 194.3C161.567 194.635 161.808 194.938 162.143 194.976C162.478 195.014 162.78 194.772 162.818 194.437C162.856 194.102 162.615 193.8 162.28 193.762C161.945 193.724 161.642 193.965 161.604 194.3Z" fill="black"/>
<path d="M161.265 197.335C161.227 197.67 161.468 197.972 161.803 198.01C162.138 198.048 162.441 197.807 162.478 197.472C162.516 197.137 162.275 196.834 161.94 196.796C161.605 196.759 161.302 197 161.265 197.335Z" fill="black"/>
<path d="M157.946 166.845C157.757 168.52 158.419 169.971 159.424 170.085C160.43 170.198 161.398 168.931 161.587 167.256C161.776 165.58 161.115 164.129 160.109 164.016C159.104 163.902 158.135 165.169 157.946 166.845Z" fill="black"/>
<path d="M163.388 167.644C163.139 168.798 163.472 169.849 164.132 169.991C164.791 170.133 165.527 169.313 165.776 168.159C166.025 167.005 165.692 165.954 165.033 165.812C164.373 165.67 163.637 166.49 163.388 167.644Z" fill="black"/>
<path d="M167.429 170.353C166.989 171.449 167.14 172.541 167.766 172.792C168.392 173.043 169.256 172.359 169.696 171.264C170.136 170.168 169.985 169.076 169.359 168.825C168.733 168.573 167.869 169.258 167.429 170.353Z" fill="black"/>
<path d="M171.38 173.57C170.922 174.472 170.916 175.389 171.367 175.618C171.819 175.847 172.556 175.302 173.014 174.4C173.472 173.497 173.478 172.58 173.027 172.351C172.576 172.122 171.839 172.668 171.38 173.57Z" fill="black"/>
<path d="M173.446 176.922C173.036 177.847 173.079 178.763 173.541 178.968C174.004 179.173 174.711 178.589 175.121 177.664C175.531 176.739 175.488 175.823 175.026 175.618C174.563 175.413 173.856 175.997 173.446 176.922Z" fill="black"/>
<path d="M71.1558 47.1728C71.3784 47.0697 71.6427 47.1667 71.7458 47.3893C72.2503 48.4796 72.1265 49.4389 71.5792 50.1399C71.0538 50.813 70.1926 51.1778 69.3416 51.24C68.488 51.3025 67.5659 51.0666 66.9127 50.4364C66.2427 49.7898 65.9241 48.7952 66.1671 47.4945C66.2121 47.2534 66.4441 47.0945 66.6852 47.1394C66.9264 47.1845 67.0859 47.4165 67.0408 47.6576C66.8412 48.7262 67.116 49.3977 67.5297 49.797C67.9603 50.2124 68.6124 50.4022 69.2767 50.3536C69.9437 50.3048 70.5445 50.0213 70.8789 49.593C71.1913 49.1927 71.3253 48.5973 70.9392 47.7627C70.8362 47.5401 70.9332 47.2758 71.1558 47.1728Z" fill="black"/>
<path d="M56.3395 40.9591C56.5589 40.8494 56.8261 40.9384 56.9358 41.1579C57.3152 41.9166 57.5498 42.2227 57.8825 42.351C58.0858 42.4294 58.3768 42.4599 58.8488 42.397C62.4656 41.9148 64.8428 42.5862 65.6437 43.0439L66.1487 43.3328L65.7374 43.7441C64.9251 44.5564 63.5638 45.2746 62.0377 45.3452C60.5122 45.4158 58.8528 44.8362 57.4477 43.13C56.8299 42.8406 56.4859 42.2458 56.1407 41.5554C56.031 41.3359 56.1201 41.0688 56.3395 40.9591ZM64.5763 43.5592C63.585 43.2411 61.6751 42.9165 58.966 43.2777C58.9211 43.2837 58.8765 43.2879 58.8327 43.2926C59.875 44.2103 60.9861 44.5044 61.9969 44.4576C62.9894 44.4117 63.9032 44.0351 64.5763 43.5592Z" fill="black"/>
<path d="M82.2113 40.9591C81.9918 40.8494 81.7247 40.9384 81.615 41.1579C81.2356 41.9166 81.001 42.2227 80.6682 42.351C80.4649 42.4294 80.174 42.4599 79.702 42.397C76.0851 41.9148 73.708 42.5862 72.9071 43.0439L72.4021 43.3328L72.8134 43.7441C73.6257 44.5564 74.987 45.2746 76.5131 45.3452C78.0386 45.4158 79.698 44.8362 81.1031 43.13C81.7209 42.8406 82.0648 42.2458 82.4101 41.5554C82.5198 41.3359 82.4307 41.0688 82.2113 40.9591ZM73.9744 43.5592C74.9658 43.2411 76.8757 42.9165 79.5848 43.2777C79.6297 43.2837 79.6742 43.2879 79.7181 43.2926C78.6758 44.2103 77.5647 44.5044 76.5538 44.4576C75.5613 44.4117 74.6476 44.0351 73.9744 43.5592Z" fill="black"/>
<path d="M55.7113 38.9077C58.9978 36.8385 61.7231 36.6273 63.8097 37.2751C65.8771 37.917 67.2503 39.3818 67.8885 40.5519C68.0058 40.7672 67.9263 41.0371 67.711 41.1545C67.4956 41.272 67.2259 41.1924 67.1084 40.977C66.562 39.9753 65.3582 38.6861 63.5461 38.1236C61.753 37.5669 59.2953 37.7012 56.1847 39.6597C55.9771 39.7904 55.703 39.7277 55.5723 39.5201C55.4416 39.3125 55.5038 39.0385 55.7113 38.9077Z" fill="black"/>
<path d="M82.5426 38.9077C79.2561 36.8385 76.5308 36.6273 74.4442 37.2751C72.3768 37.917 71.0036 39.3818 70.3654 40.5519C70.2481 40.7672 70.3276 41.0371 70.5429 41.1545C70.7583 41.272 71.028 41.1924 71.1455 40.977C71.6919 39.9753 72.8957 38.6861 74.7078 38.1236C76.5009 37.5669 78.9586 37.7012 82.0692 39.6597C82.2768 39.7904 82.5509 39.7277 82.6816 39.5201C82.8123 39.3125 82.7501 39.0385 82.5426 38.9077Z" fill="black"/>
<path d="M53.5813 38.5433C53.8265 38.5435 54.0253 38.7422 54.0253 38.9874C54.0253 39.2327 53.8265 39.4313 53.5813 39.4315C52.4614 39.4315 51.1366 40.2221 50.9197 42.089C50.6968 44.0083 51.6372 47.1445 55.4052 51.7368C55.5607 51.9264 55.5333 52.2062 55.3438 52.3618C55.1541 52.5174 54.8738 52.49 54.7182 52.3003C50.9046 47.6525 49.7713 44.2729 50.0367 41.9867C50.3083 39.6482 52.0345 38.5433 53.5813 38.5433Z" fill="black"/>
<path d="M84.6765 39.4315C85.7964 39.4315 87.1213 40.2221 87.3381 42.089C87.561 44.0083 86.6206 47.1445 82.8526 51.7368L83.5397 52.3003C87.3533 47.6525 88.4865 44.2729 88.2211 41.9867C87.9495 39.6482 86.2233 38.5433 84.6765 38.5433V39.4315Z" fill="black"/>
<path d="M69.5994 12.316C70.2518 12.9724 72.0915 14.4028 73.9413 15.5049C78.0585 17.9576 85.359 24.7752 85.5153 34.2414C85.5378 35.6052 85.4118 37.022 85.1069 38.4857L84.9196 39.3841L84.3313 38.6798C78.3821 31.5641 72.0202 29.9325 66.5564 30.8589C61.0548 31.7918 56.3998 35.3297 53.9455 38.6586L53.2964 39.5387L53.1476 38.4552C52.9453 36.9814 52.882 35.573 52.9367 34.2305C53.3391 24.359 60.1052 18.1511 64.617 15.5037C66.7574 14.2478 68.4082 12.877 68.9704 12.3148L69.2852 12L69.5994 12.316ZM84.6272 34.4408C77.7521 27.9671 71.3956 26.5005 66.1106 27.3575C60.8336 28.2132 56.5454 31.3984 53.8197 34.4247C53.7891 35.3414 53.8145 36.2915 53.9059 37.2752C56.5973 34.0642 61.1148 30.8803 66.4076 29.9828C72.0173 29.0317 78.4378 30.6589 84.4014 37.3993C84.562 36.3859 84.633 35.3993 84.6272 34.4408ZM69.284 13.2386C68.4995 13.9482 66.964 15.1569 65.0668 16.2701C60.8874 18.7224 54.7798 24.2928 53.9111 33.0322C56.7368 30.1599 60.9003 27.3021 65.9687 26.4803C71.3939 25.6006 77.7799 27.066 84.5755 33.1855C83.9218 24.7131 77.3218 18.553 73.4869 16.2684C71.8268 15.2794 70.1553 14.0217 69.284 13.2386Z" fill="black"/>
<path d="M72.2372 21.8102C72.2372 20.1746 70.9115 18.8488 69.2759 18.8488C67.6402 18.8488 66.3145 20.1745 66.3145 21.8102C66.3145 23.4458 67.6403 24.7715 69.2759 24.7715V25.6602L69.0777 25.6551C67.1091 25.5553 65.5308 23.9769 65.431 22.0084L65.4258 21.8102C65.4258 19.6839 67.1496 17.9601 69.2759 17.9601L69.4741 17.9653C71.5082 18.0684 73.1259 19.7504 73.1259 21.8102L73.1208 22.0084C73.0176 24.0425 71.3356 25.6602 69.2759 25.6602V24.7715C70.9114 24.7715 72.2372 23.4457 72.2372 21.8102Z" fill="black"/>
<path d="M70.4649 21.8102C70.4649 21.156 69.9345 20.6257 69.2803 20.6257C68.6261 20.6257 68.0957 21.156 68.0957 21.8102C68.0958 22.4644 68.6261 22.9948 69.2803 22.9948V23.8829L69.1735 23.8806C68.1133 23.8269 67.2635 22.9766 67.2099 21.9165L67.207 21.8102C67.207 20.6653 68.1354 19.7369 69.2803 19.7369L69.3866 19.7398C70.4821 19.7952 71.353 20.701 71.353 21.8102L71.3507 21.9165C71.2953 23.0119 70.3895 23.8828 69.2803 23.8829V22.9948C69.9344 22.9947 70.4648 22.4644 70.4649 21.8102Z" fill="black"/>
<path d="M53.605 37.9516C53.8498 37.9654 54.0374 38.1749 54.0238 38.4198C53.3257 50.9859 61.5753 58.7446 66.7323 60.4751C72.0857 61.8802 76.4305 58.8816 79.4909 54.1823C82.5521 49.4817 84.2326 43.1991 84.2326 38.3951C84.2326 38.1498 84.4314 37.9511 84.6767 37.951C84.922 37.951 85.1213 38.1498 85.1213 38.3951C85.1213 43.3644 83.3942 49.8167 80.2354 54.6672C77.1266 59.4409 72.5383 62.7784 66.7737 61.4018L66.4842 61.3294L66.4709 61.3248C60.9589 59.4885 52.4142 51.3768 53.1368 38.3704C53.1504 38.1255 53.36 37.938 53.605 37.9516Z" fill="black"/>
<path d="M57.4272 55.8684C57.4271 54.0693 55.9685 52.6111 54.1694 52.6111C52.3704 52.6112 50.9123 54.0694 50.9121 55.8684C50.9121 57.6675 52.3703 59.1261 54.1694 59.1262V60.0149L53.9563 60.0091C51.7655 59.8981 50.0234 58.0867 50.0234 55.8684C50.0236 53.5787 51.8797 51.7225 54.1694 51.7224C56.4592 51.7224 58.3158 53.5786 58.3159 55.8684L58.3102 56.0821C58.1991 58.2727 56.3877 60.0149 54.1694 60.0149V59.1262C55.9686 59.1262 57.4272 57.6676 57.4272 55.8684Z" fill="black"/>
<path d="M80.5298 55.8684C80.53 54.0693 81.9885 52.6111 83.7876 52.6111C85.5866 52.6112 87.0448 54.0694 87.0449 55.8684C87.0449 57.6675 85.5867 59.1261 83.7876 59.1262V60.0149L84.0008 60.0091C86.1915 59.8981 87.9336 58.0867 87.9336 55.8684C87.9335 53.5787 86.0773 51.7225 83.7876 51.7224C81.4978 51.7224 79.6412 53.5786 79.6411 55.8684L79.6469 56.0821C79.758 58.2727 81.5694 60.0149 83.7876 60.0149V59.1262C81.9885 59.1262 80.5298 57.6676 80.5298 55.8684Z" fill="black"/>
<path d="M56.2405 54.8056C55.8721 54.1843 54.8883 53.8862 53.9571 54.4382C53.0258 54.9902 52.8153 55.9964 53.1835 56.6177C53.5519 57.2391 54.5359 57.5377 55.4672 56.9856L55.9201 57.7496L55.8005 57.8172C54.5567 58.4807 53.0655 58.1613 52.4191 57.0709C51.7519 55.9453 52.2376 54.4243 53.5039 53.6737L53.6235 53.6061C54.8672 52.9427 56.3586 53.2621 57.005 54.3524L57.0641 54.4589C57.6412 55.5722 57.1469 57.0223 55.9201 57.7496L55.4672 56.9856C56.3984 56.4335 56.6088 55.4269 56.2405 54.8056Z" fill="black"/>
<path d="M81.7205 54.8056C82.0888 54.1843 83.0726 53.8862 84.0039 54.4382C84.9351 54.9902 85.1457 55.9964 84.7774 56.6177C84.4091 57.2391 83.425 57.5377 82.4937 56.9856L82.0408 57.7496L82.1604 57.8172C83.4042 58.4807 84.8955 58.1613 85.5419 57.0709C86.209 55.9453 85.7233 54.4243 84.457 53.6737L84.3375 53.6061C83.0937 52.9427 81.6024 53.2621 80.956 54.3524L80.8968 54.4589C80.3197 55.5722 80.8141 57.0223 82.0408 57.7496L82.4937 56.9856C81.5625 56.4335 81.3521 55.4269 81.7205 54.8056Z" fill="black"/>
<path d="M55.9503 55.2762C55.9503 55.6033 55.6851 55.8685 55.3579 55.8685C55.0308 55.8685 54.7656 55.6033 54.7656 55.2762C54.7656 54.949 55.0308 54.6838 55.3579 54.6838C55.6851 54.6838 55.9503 54.949 55.9503 55.2762Z" fill="black"/>
<path d="M83.1925 55.2762C83.1925 55.6033 82.9273 55.8685 82.6001 55.8685C82.273 55.8685 82.0078 55.6033 82.0078 55.2762C82.0078 54.949 82.273 54.6838 82.6001 54.6838C82.9273 54.6838 83.1925 54.949 83.1925 55.2762Z" fill="black"/>
<path d="M73.8638 53.6271C72.9404 55.1105 71.9752 56.0558 70.9967 56.5738C70.0089 57.0968 69.0349 57.1692 68.1382 56.9538C66.3806 56.5316 64.97 55.0213 64.2076 53.8093L63.5772 52.8076L64.7116 53.1472C66.4102 53.6563 68.1666 52.9411 68.8211 52.5181L69.0618 52.3625L69.3025 52.5168C70.9926 53.5999 72.7022 53.2643 73.3011 52.9891L74.6455 52.3705L73.8638 53.6271ZM69.0593 53.4079C68.3432 53.8031 67.0322 54.2939 65.5927 54.2002C66.3096 55.0507 67.2766 55.833 68.3456 56.0898C69.042 56.2571 69.7935 56.2055 70.5811 55.7885C71.1755 55.4738 71.805 54.9426 72.4479 54.113C71.5187 54.2229 70.2905 54.1176 69.0593 53.4079Z" fill="black"/>
<path d="M69.2663 32.4308C70.4197 33.4193 70.6798 34.5173 70.4865 35.4836C70.3016 36.4078 69.7151 37.155 69.2698 37.5448L68.9567 37.8182L68.6631 37.5247C67.518 36.3795 67.2175 35.2726 67.4091 34.3237C67.5941 33.4077 68.2187 32.7401 68.7309 32.3986L69.0107 32.2119L69.2663 32.4308ZM68.951 33.3534C68.6563 33.626 68.3762 34.023 68.28 34.4995C68.1743 35.0229 68.275 35.7243 68.9848 36.5636C69.2529 36.2424 69.5166 35.8011 69.615 35.3095C69.7293 34.7385 69.6324 34.0559 68.951 33.3534Z" fill="black"/>
<path d="M223.036 96.1215C227.095 94.517 231.914 95.2381 235.877 97.2445C237.525 98.079 239.04 99.1437 240.308 100.374C243.692 100.585 246.849 102.011 248.742 104.777C250.684 107.614 251.21 111.73 249.482 117.079C248.712 119.459 247.495 122.092 245.75 124.982L244.647 124.488C245.187 122.734 244.837 121.407 244.13 120.505C243.406 119.582 242.261 119.043 241.122 118.98C237.676 118.789 235.408 117.73 233.946 116.419C232.796 115.388 232.174 114.226 231.861 113.275C230.155 114.184 228.161 115.089 225.84 115.972C224.617 116.497 222.956 117.549 221.74 119.156C220.535 120.748 219.759 122.891 220.279 125.666L220.63 127.54L219.258 126.216C217.487 124.509 215.149 121.586 213.892 118.342C212.652 115.142 212.431 111.51 215.024 108.488C215.811 101.617 218.967 97.7303 223.036 96.1215ZM236.205 98.807C236.125 100.68 235.65 102.22 234.887 103.47C233.988 104.941 232.715 105.971 231.31 106.671C228.52 108.061 225.163 108.175 222.929 107.868C221.151 107.623 219.95 107.455 218.914 107.595C217.938 107.725 217.081 108.136 216.051 109.162C213.756 111.737 213.858 114.884 215.027 117.902C215.936 120.249 217.47 122.443 218.898 124.069C218.87 121.766 219.66 119.886 220.768 118.421C222.143 116.605 223.996 115.436 225.365 114.85L225.389 114.84C234.308 111.451 238.027 107.855 239.305 105.152C240.106 103.456 239.947 102.12 239.547 101.334C238.581 100.38 237.446 99.5248 236.205 98.807ZM239.798 106.756C238.599 108.618 236.464 110.65 232.95 112.673C233.175 113.476 233.692 114.555 234.759 115.512C235.982 116.608 237.972 117.585 241.19 117.764C242.643 117.845 244.127 118.528 245.088 119.753C245.575 120.374 245.916 121.118 246.056 121.968C247.046 120.092 247.786 118.352 248.308 116.748C248.531 115.384 247.951 114.124 247.008 113.058C246.055 111.981 244.794 111.179 243.878 110.786C241.759 109.878 240.489 108.081 239.798 106.756ZM240.957 101.655C241.213 102.689 241.141 103.987 240.517 105.425C241.005 106.586 242.162 108.725 244.358 109.666C245.416 110.12 246.832 111.021 247.92 112.251C248.354 112.741 248.744 113.297 249.037 113.906C249.712 110.215 249.082 107.429 247.737 105.465C246.232 103.267 243.764 101.993 240.957 101.655ZM234.999 98.1694C231.32 96.3986 227.024 95.8553 223.484 97.2546C220.177 98.562 217.407 101.617 216.429 107.269C217.172 106.773 217.921 106.499 218.752 106.388C219.99 106.222 221.381 106.425 223.096 106.661C225.181 106.948 228.268 106.826 230.767 105.581C232.006 104.964 233.089 104.076 233.847 102.834C234.562 101.664 235.01 100.144 234.999 98.1694Z" fill="black"/>
<path d="M234.993 98.0069C234.993 95.076 232.917 92.0859 230.726 89.8653C229.672 88.7978 228.626 87.9427 227.848 87.398L227.211 86.9519L227.796 86.4404C228.845 85.5229 230.65 84.419 232.693 84.0939C234.666 83.7801 236.852 84.1998 238.72 86.1626C240.07 85.592 241.977 85.1096 243.742 85.39C244.734 85.5476 245.702 85.9501 246.483 86.7319C247.172 87.4212 247.681 88.3705 247.955 89.6166C249.06 89.6486 250.478 89.9647 251.672 90.8419C253.11 91.8985 254.142 93.7096 253.984 96.5597L253.957 97.0367L253.488 97.1248C252.746 97.264 251.579 97.5868 250.278 98.1294C248.311 98.9499 246.105 100.245 244.59 102.095C244.377 102.356 243.994 102.394 243.733 102.181C243.473 101.968 243.435 101.584 243.648 101.324C245.242 99.3759 247.473 98.0269 249.452 97.1581C249.479 95.6212 248.894 94.7287 248.192 94.1996C247.504 93.6818 246.648 93.4706 245.98 93.4358L240.547 101.315C240.357 101.592 239.977 101.661 239.7 101.47C239.423 101.279 239.354 100.9 239.545 100.623L245.017 92.6888C244.812 91.7306 244.451 91.0827 244.028 90.6462C243.571 90.1751 243.004 89.9102 242.378 89.7933C241.231 89.5793 239.93 89.872 238.971 90.2679L238.432 99.1548C238.412 99.4904 238.123 99.746 237.788 99.7258C237.452 99.7055 237.196 99.4168 237.216 99.0811L237.758 90.1282C236.106 88.7471 234.761 88.4576 233.784 88.5757C233 88.6705 232.388 89.0333 231.984 89.4162C234.096 91.6576 236.211 94.7664 236.211 98.0069C236.211 98.3432 235.939 98.6159 235.602 98.6159C235.266 98.6158 234.993 98.3432 234.993 98.0069ZM247.777 90.8318L246.761 92.3051C247.466 92.4348 248.244 92.7141 248.925 93.2265C249.865 93.9348 250.565 95.0489 250.66 96.6727C251.459 96.3799 252.188 96.1683 252.781 96.0303C252.792 93.8347 251.956 92.5623 250.951 91.8239C249.947 91.0864 248.706 90.8332 247.777 90.8318ZM243.551 86.5933C242.069 86.3578 240.376 86.7775 239.15 87.3029L239.051 88.938C240.085 88.5904 241.376 88.3674 242.601 88.596C243.43 88.7507 244.241 89.1152 244.903 89.798C245.314 90.2222 245.652 90.7537 245.904 91.4022L246.809 90.0895C246.586 88.9128 246.15 88.1216 245.622 87.5931C245.059 87.0297 244.346 86.7195 243.551 86.5933ZM237.941 87.1131C236.356 85.3784 234.547 85.0327 232.884 85.2972C231.461 85.5236 230.141 86.2013 229.199 86.8812C229.786 87.3347 230.449 87.8995 231.127 88.5514C231.701 87.9998 232.553 87.4976 233.638 87.3665C234.851 87.2199 236.277 87.5462 237.848 88.6578L237.941 87.1131Z" fill="black"/>
<path d="M136.141 111.268V91.4816C136.141 91.1274 136.428 90.8403 136.782 90.8403C137.136 90.8403 137.423 91.1274 137.423 91.4816V111.268C137.423 112.846 137.928 114.224 138.888 115.112C139.834 115.986 141.322 116.477 143.493 116.094L144.628 115.894L144.2 116.964C143.935 117.626 143.833 118.765 144.73 120.073C145.643 121.404 147.627 122.962 151.653 124.304C152.152 124.471 152.77 124.773 153.269 125.309C153.378 125.425 153.478 125.552 153.571 125.688C153.693 125.54 153.825 125.405 153.96 125.283C154.542 124.762 155.226 124.452 155.689 124.303C159.853 122.959 161.887 121.372 162.79 120.034C163.679 118.718 163.502 117.616 163.175 117.044L162.549 115.949L163.802 116.088C164.728 116.191 166.11 116.061 167.236 115.376C168.315 114.719 169.23 113.511 169.23 111.268V91.4816C169.23 91.1275 169.518 90.8405 169.872 90.8403C170.226 90.8403 170.513 91.1274 170.513 91.4816V111.268C170.513 113.936 169.382 115.57 167.903 116.471C166.848 117.114 165.654 117.36 164.65 117.396C164.841 118.344 164.679 119.529 163.854 120.751C162.722 122.427 160.378 124.137 156.082 125.523C155.737 125.634 155.228 125.87 154.817 126.238C154.415 126.599 154.139 127.054 154.139 127.642H152.856L152.853 127.516C152.827 126.897 152.606 126.479 152.33 126.183C152.023 125.854 151.618 125.645 151.248 125.521C147.087 124.134 144.807 122.452 143.673 120.798C142.844 119.589 142.65 118.426 142.761 117.48C140.747 117.639 139.15 117.1 138.018 116.054C136.728 114.861 136.141 113.101 136.141 111.268Z" fill="black"/>
<path d="M139.895 109.562V91.4816C139.895 91.1274 140.182 90.8403 140.536 90.8403C140.89 90.8403 141.177 91.1274 141.177 91.4816V109.562C141.177 110.696 141.649 111.684 142.482 112.327C143.315 112.97 144.573 113.315 146.224 113.024L147.358 112.824L146.931 113.893C146.723 114.412 146.54 115.556 147.117 116.803C147.684 118.031 149.036 119.46 152.08 120.475C152.48 120.608 152.982 120.853 153.39 121.291C153.437 121.342 153.483 121.395 153.528 121.451C153.59 121.384 153.655 121.32 153.721 121.261C154.19 120.841 154.739 120.592 155.11 120.473C161.435 118.432 161.209 114.71 160.788 113.973L160.163 112.879L161.416 113.018C162.125 113.097 163.169 113.023 164.008 112.543C164.794 112.092 165.48 111.243 165.48 109.562V91.4816C165.48 91.1274 165.767 90.8403 166.121 90.8403C166.475 90.8405 166.762 91.1275 166.762 91.4816V109.562C166.762 111.678 165.851 112.964 164.645 113.655C163.858 114.106 162.982 114.283 162.227 114.32C162.545 116.391 161.211 119.852 155.503 121.693C155.25 121.775 154.876 121.948 154.578 122.216C154.288 122.476 154.101 122.791 154.101 123.193H152.819L152.811 123.016C152.777 122.62 152.629 122.354 152.452 122.164C152.236 121.933 151.947 121.782 151.675 121.691C148.389 120.596 146.706 118.97 145.952 117.341C145.449 116.252 145.383 115.207 145.492 114.397C143.969 114.482 142.671 114.093 141.699 113.343C140.529 112.44 139.895 111.065 139.895 109.562Z" fill="black"/>
<path d="M172.941 85V91.8225H134.734V85H172.941ZM136.017 90.54H171.659V86.2825H136.017V90.54Z" fill="black"/>
<path d="M132.008 87.0469H134.737V89.0937H132.008V87.0469Z" fill="black"/>
<path d="M172.266 87.0469H174.995V89.0937H172.266V87.0469Z" fill="black"/>
<path d="M129.965 86.7057C129.965 86.1404 130.423 85.6823 130.988 85.6823C131.553 85.6823 132.012 86.1404 132.012 86.7057V89.4347C132.012 89.9999 131.553 90.4581 130.988 90.4581C130.423 90.4581 129.965 89.9999 129.965 89.4347V86.7057Z" fill="black"/>
<path d="M174.992 86.7057C174.992 86.1404 175.45 85.6823 176.016 85.6823C176.581 85.6823 177.039 86.1404 177.039 86.7057V89.4347C177.039 89.9999 176.581 90.4581 176.016 90.4581C175.45 90.4581 174.992 89.9999 174.992 89.4347V86.7057Z" fill="black"/>
<path d="M130.642 88.0702C130.642 89.0122 129.878 89.7758 128.936 89.7758C127.994 89.7758 127.23 89.0122 127.23 88.0702C127.23 87.1282 127.994 86.3645 128.936 86.3645C129.878 86.3645 130.642 87.1282 130.642 88.0702Z" fill="black"/>
<path d="M179.771 88.0702C179.771 89.0122 179.007 89.7758 178.065 89.7758C177.123 89.7758 176.359 89.0122 176.359 88.0702C176.359 87.1282 177.123 86.3645 178.065 86.3645C179.007 86.3645 179.771 87.1282 179.771 88.0702Z" fill="black"/>
<path d="M163.73 94.2515C164.084 94.2515 164.371 94.5386 164.371 94.8927C164.371 95.2468 164.084 95.5339 163.73 95.5339H145.309C144.955 95.5339 144.668 95.2468 144.668 94.8927C144.668 94.5386 144.955 94.2515 145.309 94.2515H163.73Z" fill="black"/>
<path d="M163.053 100.051C163.407 100.051 163.694 100.338 163.694 100.692C163.694 101.046 163.407 101.333 163.053 101.333H145.997C145.643 101.333 145.355 101.046 145.355 100.692C145.355 100.338 145.643 100.051 145.997 100.051H163.053Z" fill="black"/>
<path d="M161.002 103.462C161.356 103.462 161.643 103.749 161.643 104.103C161.643 104.457 161.356 104.745 161.002 104.745H147.356C147.002 104.745 146.715 104.458 146.715 104.103C146.715 103.749 147.002 103.462 147.356 103.462H161.002Z" fill="black"/>
<path d="M163.053 106.874C163.407 106.874 163.694 107.161 163.694 107.515C163.694 107.869 163.407 108.156 163.053 108.156H145.997C145.643 108.156 145.355 107.869 145.355 107.515C145.355 107.161 145.643 106.874 145.997 106.874H163.053Z" fill="black"/>
<path d="M161.685 109.603C162.039 109.603 162.326 109.89 162.326 110.244C162.326 110.598 162.039 110.885 161.685 110.885H148.04C147.686 110.885 147.398 110.598 147.398 110.244C147.398 109.89 147.686 109.603 148.04 109.603H161.685Z" fill="black"/>
<path d="M158.277 113.014C158.632 113.014 158.919 113.301 158.919 113.655C158.919 114.009 158.632 114.296 158.277 114.296H150.09C149.736 114.296 149.449 114.009 149.449 113.655C149.449 113.301 149.736 113.014 150.09 113.014H158.277Z" fill="black"/>
<path d="M161.685 97.3218C162.039 97.3219 162.326 97.6089 162.326 97.963C162.326 98.3171 162.039 98.6041 161.685 98.6042L148.04 98.6042C147.686 98.6042 147.398 98.3171 147.398 97.963C147.398 97.6089 147.686 97.3218 148.04 97.3218L161.685 97.3218Z" fill="black"/>
</svg>
