<svg width="296" height="220" viewBox="0 0 296 220" fill="none" xmlns="http://www.w3.org/2000/svg">
<path d="M59.806 29.6475H43.1612C40.4574 29.6475 38.2656 31.8393 38.2656 34.543V49.2296C38.2656 51.9334 40.4574 54.1252 43.1612 54.1252H64.212C66.9158 54.1252 69.1076 51.9334 69.1076 49.2296V33.0743" stroke="#232077" stroke-width="1.10752" stroke-linecap="round"/>
<path d="M69.1094 35.5222H70.578C72.741 35.5222 74.4945 37.2757 74.4945 39.4387V43.3551C74.4945 45.5181 72.741 47.2715 70.578 47.2715H69.1094" stroke="#232077" stroke-width="1.10752" stroke-linecap="round"/>
<path d="M38.2656 35.5222H36.797C34.634 35.5222 32.8805 37.2757 32.8805 39.4387V43.3551C32.8805 45.5181 34.634 47.2715 36.797 47.2715H38.2656" stroke="#232077" stroke-width="1.10752" stroke-linecap="round"/>
<path d="M72.0435 47.2715V54.1252C72.0435 56.2882 70.29 58.0417 68.127 58.0417H58.3359" stroke="#232077" stroke-width="1.10752" stroke-linecap="round"/>
<mask id="path-5-inside-1_2081_4466" fill="white">
<rect x="51.1523" y="56.0836" width="5.87466" height="3.91644" rx="0.979109"/>
</mask>
<rect x="51.1523" y="56.0836" width="5.87466" height="3.91644" rx="0.979109" stroke="#4179C6" stroke-width="2.21504" mask="url(#path-5-inside-1_2081_4466)"/>
<circle cx="48.0519" cy="38.9491" r="2.87312" stroke="#232077" stroke-width="1.10752"/>
<circle cx="58.8253" cy="38.9491" r="2.87312" stroke="#232077" stroke-width="1.10752"/>
<path d="M46.5898 45.3132C49.0376 48.7401 56.0872 50.4046 60.7869 45.3132" stroke="#232077" stroke-width="1.10752" stroke-linecap="round"/>
<path d="M45.1172 25.7312V29.6476" stroke="#232077" stroke-width="1.10752" stroke-linecap="round"/>
<circle cx="45.1196" cy="22.3041" r="1.89401" stroke="#4179C6" stroke-width="1.10752"/>
<path d="M61.5724 34.0535L62.7504 29.6475C54.4219 23.7728 60.2996 13.4922 69.6041 13.9817C85.2667 14.8058 80.8639 34.0535 67.6459 30.5469L61.5724 34.0535Z" stroke="#4179C6" stroke-width="1.10752" stroke-linecap="round"/>
<path d="M63.7227 20.8356H74.4929" stroke="#4179C6" stroke-width="1.10752" stroke-linecap="round"/>
<path d="M63.7227 24.7521H74.4929" stroke="#4179C6" stroke-width="1.10752" stroke-linecap="round"/>
<path d="M37.8807 12.9173L37.3699 14.8038M36.6821 13.6051L38.5686 14.116" stroke="#03045E" stroke-width="0.488613" stroke-linecap="round"/>
<circle cx="32.0397" cy="20.7843" r="1.62871" transform="rotate(15.1529 32.0397 20.7843)" stroke="#03045E" stroke-width="0.651484"/>
<circle cx="31.1956" cy="27.6425" r="0.977225" transform="rotate(15.1529 31.1956 27.6425)" fill="#03045E"/>
<circle cx="36.2085" cy="17.8628" r="0.651484" transform="rotate(15.1529 36.2085 17.8628)" fill="#03045E"/>
<rect x="223.467" y="172.123" width="35.8629" height="21.8622" rx="4.66763" stroke="#232077" stroke-width="0.981052"/>
<path d="M223.344 189.686V191.16C223.344 195.23 226.643 198.529 230.713 198.529H234.397" stroke="#232077" stroke-width="0.981052" stroke-linecap="round"/>
<rect x="235.994" y="196.44" width="7.8615" height="4.1771" rx="2.08855" stroke="#4078C2" stroke-width="0.981052"/>
<path d="M233.293 172.001V169.422C233.293 168.201 234.283 167.211 235.504 167.211H248.031C249.251 167.211 250.241 168.201 250.241 169.422V172.001" stroke="#232077" stroke-width="0.981052" stroke-linecap="round"/>
<path d="M241.77 167.211V165.001" stroke="#232077" stroke-width="0.981052" stroke-linecap="round"/>
<circle cx="241.772" cy="160.948" r="3.56231" stroke="#4078C2" stroke-width="0.981052"/>
<path d="M238.821 180.475C238.084 178.265 234.768 176.791 232.926 180.475" stroke="#4078C2" stroke-width="0.981052" stroke-linecap="round"/>
<path d="M250.243 180.475C249.506 178.265 246.19 176.791 244.348 180.475" stroke="#4078C2" stroke-width="0.981052" stroke-linecap="round"/>
<path d="M236.246 187.844C237.843 188.704 242.215 189.907 246.931 187.844" stroke="#4078C2" stroke-width="0.981052" stroke-linecap="round"/>
<path d="M223.845 162.59L223.227 164.453M222.605 163.213L224.467 163.83" stroke="#03045E" stroke-width="0.490526" stroke-linecap="round"/>
<path d="M259.225 162.59L259.843 164.453M260.465 163.213L258.603 163.83" stroke="#03045E" stroke-width="0.490526" stroke-linecap="round"/>
<circle cx="217.549" cy="170.148" r="1.63509" transform="rotate(18.3554 217.549 170.148)" stroke="#03045E" stroke-width="0.654035"/>
<circle cx="1.9621" cy="1.9621" r="1.63509" transform="matrix(-0.949121 0.314911 0.314911 0.949121 266.762 167.667)" stroke="#03045E" stroke-width="0.654035"/>
<circle cx="216.321" cy="176.975" r="0.981052" transform="rotate(18.3554 216.321 176.975)" fill="#03045E"/>
<circle cx="0.981052" cy="0.981052" r="0.981052" transform="matrix(-0.949121 0.314911 0.314911 0.949121 267.371 175.735)" fill="#03045E"/>
<circle cx="221.887" cy="167.453" r="0.654035" transform="rotate(18.3554 221.887 167.453)" fill="#03045E"/>
<circle cx="0.654035" cy="0.654035" r="0.654035" transform="matrix(-0.949121 0.314911 0.314911 0.949121 261.598 166.626)" fill="#03045E"/>
<rect x="37.0198" y="100.967" width="34.8191" height="23.9323" rx="2.98938" transform="rotate(-3.96475 37.0198 100.967)" stroke="#232077" stroke-width="1.31148"/>
<path d="M49.4414 106.608L44.3384 113.169M43.6094 106.973L50.1704 112.44" stroke="#4078C2" stroke-width="1.31148" stroke-linecap="round"/>
<path d="M65.4765 105.15L60.3735 111.711M59.6445 105.514L66.2055 110.982" stroke="#4078C2" stroke-width="1.31148" stroke-linecap="round"/>
<path d="M36.9339 106.851H34.6459C33.394 106.851 32.3975 107.9 32.4617 109.15L32.8931 117.563C32.9527 118.726 33.9129 119.638 35.0773 119.638H37.9176" stroke="#232077" stroke-width="1.31148" stroke-linecap="round"/>
<path d="M72.6719 103.572L75.3876 103.435C76.5725 103.375 77.589 104.271 77.6788 105.454L78.2613 113.127C78.3537 114.345 77.4302 115.403 76.2106 115.476L73.6854 115.626" stroke="#232077" stroke-width="1.31148" stroke-linecap="round"/>
<path d="M50.8984 119.366C52.2349 118.394 56.293 116.814 61.8334 118.272" stroke="#4078C2" stroke-width="1.31148" stroke-linecap="round"/>
<path d="M53.4492 93.1211L53.8137 99.3176" stroke="#232077" stroke-width="1.31148" stroke-linecap="round"/>
<circle cx="53.0825" cy="89.8403" r="2.98926" stroke="#4078C2" stroke-width="1.31148"/>
<path d="M40.319 85.6128C38.0105 86.8278 34.5599 90.1326 39.2255 93.6318C42.1441 95.8208 40.6852 98.0058 38.4991 98.0058" stroke="#4078C2" stroke-width="1.31148" stroke-linecap="round"/>
<path d="M44.5507 87.8C42.9212 88.6577 40.4855 90.9905 43.7789 93.4605C45.8391 95.0057 44.8093 96.548 43.2662 96.548" stroke="#4078C2" stroke-width="1.31148" stroke-linecap="round"/>
<path d="M34.52 81.4556L33.9183 83.269M33.3125 82.0615L35.1258 82.6631" stroke="#03045E" stroke-width="0.477642" stroke-linecap="round"/>
<path d="M71.4605 81.4556L72.0622 83.269M72.668 82.0615L70.8547 82.6631" stroke="#03045E" stroke-width="0.477642" stroke-linecap="round"/>
<circle cx="28.3875" cy="88.8146" r="1.59214" transform="rotate(18.3554 28.3875 88.8146)" stroke="#03045E" stroke-width="0.636856"/>
<circle cx="1.91057" cy="1.91057" r="1.59214" transform="matrix(-0.949121 0.314911 0.314911 0.949121 78.8008 86.3995)" stroke="#03045E" stroke-width="0.636856"/>
<circle cx="27.1957" cy="95.4624" r="0.955284" transform="rotate(18.3554 27.1957 95.4624)" fill="#03045E"/>
<circle cx="0.955284" cy="0.955284" r="0.955284" transform="matrix(-0.949121 0.314911 0.314911 0.949121 79.3906 94.2549)" fill="#03045E"/>
<circle cx="32.6109" cy="86.1908" r="0.636856" transform="rotate(18.3554 32.6109 86.1908)" fill="#03045E"/>
<circle cx="0.636856" cy="0.636856" r="0.636856" transform="matrix(-0.949121 0.314911 0.314911 0.949121 73.7695 85.3857)" fill="#03045E"/>
<path d="M243.267 81.0071H236.935C234.824 81.4292 230.412 83.3501 229.652 87.6561L231.235 94.3051C237.251 103.804 247.066 99.0544 248.333 94.3051L249.916 87.6561C249.599 83.2234 245.483 81.3237 243.267 81.0071Z" stroke="#232077" stroke-width="0.892903"/>
<path d="M249.915 87.656C250.654 87.3904 253.081 86.7062 253.081 88.9225C252.976 91.7004 251.878 96.3314 248.332 94.3051" stroke="#232077" stroke-width="0.892903"/>
<path d="M229.651 87.656C228.912 87.3904 226.485 86.7062 226.485 88.9225C226.591 91.7004 227.688 96.3314 231.234 94.3051" stroke="#232077" stroke-width="0.892903"/>
<path d="M251.816 87.3394L253.083 83.2234" stroke="#232077" stroke-width="0.892903"/>
<path d="M227.75 87.3394L226.484 83.2234" stroke="#232077" stroke-width="0.892903"/>
<circle cx="253.4" cy="81.3236" r="1.76989" stroke="#232077" stroke-width="0.892903"/>
<circle cx="2.21634" cy="2.21634" r="1.76989" transform="matrix(-1 0 0 1 228.379 79.1073)" stroke="#232077" stroke-width="0.892903"/>
<path d="M236.617 83.54L239.275 84.7481C239.797 84.9853 240.398 84.9742 240.911 84.7178L243.266 83.54" stroke="#4078C2" stroke-width="0.892903" stroke-linecap="round"/>
<path d="M244.219 87.3395C241.433 88.0994 237.57 87.6561 235.987 87.3395C232.188 87.3395 231.49 93.0386 236.303 95.5716C239.849 96.0782 242.635 95.8884 243.586 95.5716C248.651 93.8834 248.335 87.3395 244.219 87.3395Z" stroke="#4078C2" stroke-width="0.892903" stroke-linecap="round"/>
<path d="M237.568 89.5559C236.618 89.3448 235.035 89.2393 234.719 91.4556" stroke="#4078C2" stroke-width="0.892903" stroke-linecap="round"/>
<path d="M221.105 99.6877C226.488 96.5215 236.62 99.6877 233.77 104.754M221.105 99.6877C229.654 105.704 233.137 104.754 233.77 104.754M221.105 99.6877C220.366 100.427 220.219 102.664 225.538 105.704M233.77 104.754C233.665 105.387 233.073 106.717 231.554 106.97C231.132 107.076 229.591 107.033 226.804 106.02" stroke="#4078C2" stroke-width="0.892903" stroke-linecap="round"/>
<path d="M259.916 99.6877C254.533 96.5215 244.401 99.6877 247.251 104.754M259.916 99.6877C251.367 105.704 247.884 104.754 247.251 104.754M259.916 99.6877C260.654 100.427 261.256 102.031 255.937 105.07M247.251 104.754C247.356 105.387 247.947 106.717 249.467 106.97C249.889 107.076 251.884 106.717 254.671 105.704" stroke="#4078C2" stroke-width="0.892903" stroke-linecap="round"/>
<path d="M237.887 101.587V103.487C237.887 104.187 238.454 104.754 239.153 104.754H241.053C241.752 104.754 242.319 104.187 242.319 103.487V101.587" stroke="#232077" stroke-width="0.892903" stroke-linecap="round"/>
<path d="M223.001 116.469L227.462 109.329C227.726 108.908 227.42 108.353 226.927 108.29C225.054 108.048 223.848 107.227 223.139 106.407C222.768 105.977 221.902 105.94 221.633 106.44L215.542 117.791C215.454 117.956 215.44 118.154 215.533 118.316C215.599 118.43 215.683 118.556 215.785 118.685M217.936 119.951C216.897 119.778 216.194 119.201 215.785 118.685M215.785 118.685L215.17 120.356C215.116 120.503 215.115 120.667 215.192 120.803C215.508 121.359 216.288 122.168 217.619 122.168" stroke="#232077" stroke-width="0.892903" stroke-linecap="round"/>
<path d="M219.207 123.751C220.727 121.471 219.84 119.424 219.207 118.685L229.339 117.418C236.305 118.368 235.038 127.867 227.123 126.284L219.207 123.751Z" stroke="#4078C2" stroke-width="0.892903" stroke-linecap="round"/>
<path d="M228.699 110.769L230.916 116.469" stroke="#4078C2" stroke-width="0.892903" stroke-linecap="round"/>
<path d="M260.994 109.503L259.138 106.286C258.865 105.814 258.048 105.84 257.672 106.235C256.946 106.995 255.692 107.814 253.721 108.201C253.272 108.289 253.018 108.79 253.247 109.186L253.612 109.819" stroke="#232077" stroke-width="0.892903" stroke-linecap="round"/>
<path d="M237.572 114.885C234.086 107.603 242.634 104.437 243.908 111.403" stroke="#232077" stroke-width="0.892903" stroke-linecap="round"/>
<path d="M250.863 109.819L249.582 112.036" stroke="#4078C2" stroke-width="0.892903" stroke-linecap="round"/>
<path d="M267.813 124.384L269.883 113.74C269.959 113.349 269.659 112.986 269.261 112.986H240.605C240.304 112.986 240.045 113.197 239.985 113.492L237.025 127.993C236.965 128.288 236.706 128.5 236.405 128.5H225.85C223.324 128.5 223.01 131.666 225.85 131.983H265.512C265.81 131.983 266.067 131.775 266.131 131.484L267.327 125.967" stroke="#232077" stroke-width="0.892903" stroke-linecap="round"/>
<path d="M258.09 115.889L264.106 121.905" stroke="#4078C2" stroke-width="0.892903" stroke-linecap="round"/>
<path d="M255.562 116.522L263.795 125.071" stroke="#4078C2" stroke-width="0.892903" stroke-linecap="round"/>
<path d="M261.953 115.835L264.803 118.685" stroke="#4078C2" stroke-width="0.892903" stroke-linecap="round"/>
<path d="M221.777 75.2645L221.221 77.2484M220.507 75.9782L222.491 76.5347" stroke="#03045E" stroke-width="0.515136" stroke-linecap="round"/>
<path d="M258.641 75.2645L259.197 77.2484M259.911 75.9782L257.927 76.5347" stroke="#03045E" stroke-width="0.515136" stroke-linecap="round"/>
<circle cx="215.541" cy="83.5028" r="1.71712" transform="rotate(15.6692 215.541 83.5028)" stroke="#03045E" stroke-width="0.686848"/>
<circle cx="2.06055" cy="2.06055" r="1.71712" transform="matrix(-0.962837 0.270082 0.270082 0.962837 266.305 80.9623)" stroke="#03045E" stroke-width="0.686848"/>
<circle cx="214.585" cy="90.725" r="1.03027" transform="rotate(15.6692 214.585 90.725)" fill="#03045E"/>
<circle cx="1.03027" cy="1.03027" r="1.03027" transform="matrix(-0.962837 0.270082 0.270082 0.962837 266.543 89.4547)" fill="#03045E"/>
<circle cx="219.96" cy="80.4623" r="0.686848" transform="rotate(15.6692 219.96 80.4623)" fill="#03045E"/>
<circle cx="0.686848" cy="0.686848" r="0.686848" transform="matrix(-0.962837 0.270082 0.270082 0.962837 260.934 79.6155)" fill="#03045E"/>
<rect x="228.382" y="19.5981" width="27.1544" height="20.4108" rx="2.89983" stroke="#232077" stroke-width="0.943958"/>
<rect x="231.757" y="22.9699" width="20.4108" height="13.6672" rx="1.21392" stroke="#232077" stroke-width="0.943958"/>
<rect x="235.691" y="26.3417" width="4.11375" height="4.11375" rx="0.651956" stroke="#4078C2" stroke-width="0.943958"/>
<rect x="243.562" y="26.3417" width="4.11375" height="4.11375" rx="0.651956" stroke="#4078C2" stroke-width="0.943958"/>
<path d="M238.309 33.1753C239.245 33.9246 241.961 35.1422 244.49 33.1753" stroke="#4078C2" stroke-width="0.943958" stroke-linecap="round"/>
<path d="M226.786 25.5887H224.819C224.199 25.5887 223.695 26.0919 223.695 26.7127V32.0514C223.695 32.6721 224.199 33.1753 224.819 33.1753H226.786" stroke="#4078C2" stroke-width="0.943958" stroke-linecap="round"/>
<path d="M257.136 25.5887H259.103C259.723 25.5887 260.227 26.0919 260.227 26.7127V32.0514C260.227 32.6721 259.723 33.1753 259.103 33.1753H257.136" stroke="#4078C2" stroke-width="0.943958" stroke-linecap="round"/>
<path d="M258.258 35.4869V39.9152C258.258 40.0943 258.172 40.2626 258.028 40.3684L254.043 43.2908" stroke="#232077" stroke-width="0.943958" stroke-linecap="round"/>
<circle cx="252.917" cy="44.1337" r="1.40492" fill="#232077"/>
<path d="M249.175 43.0099H232.83C232.681 43.0099 232.538 43.0691 232.433 43.1745L228.295 47.3119C228.173 47.4342 228.114 47.6059 228.135 47.7776L229.787 61.2738M254.129 46.8145L255.262 48.7476C255.323 48.8533 255.349 48.9764 255.335 49.0981L253.952 60.7119" stroke="#4078C2" stroke-width="0.943958" stroke-linecap="round"/>
<path d="M250.063 48.0675H233.766" stroke="#232077" stroke-width="0.943958" stroke-linecap="round"/>
<path d="M258.824 49.1914V58.1829" stroke="#232077" stroke-width="0.943958" stroke-linecap="round"/>
<path d="M225.105 49.1914V58.1829" stroke="#232077" stroke-width="0.943958" stroke-linecap="round"/>
<path d="M225.945 15.1924V23.5301" stroke="#232077" stroke-width="0.943958"/>
<circle cx="225.943" cy="13.2256" r="1.96689" fill="#232077"/>
<path d="M220.409 10.2549L219.899 12.0727M219.245 10.9089L221.063 11.4188" stroke="#03045E" stroke-width="0.471979" stroke-linecap="round"/>
<path d="M257.962 10.2549L258.472 12.0727M259.126 10.9089L257.308 11.4188" stroke="#03045E" stroke-width="0.471979" stroke-linecap="round"/>
<circle cx="214.695" cy="17.803" r="1.57326" transform="rotate(15.6692 214.695 17.803)" stroke="#03045E" stroke-width="0.629306"/>
<circle cx="1.88792" cy="1.88792" r="1.57326" transform="matrix(-0.962837 0.270082 0.270082 0.962837 264.98 15.4753)" stroke="#03045E" stroke-width="0.629306"/>
<circle cx="213.822" cy="24.42" r="0.943958" transform="rotate(15.6692 213.822 24.42)" fill="#03045E"/>
<circle cx="0.943958" cy="0.943958" r="0.943958" transform="matrix(-0.962837 0.270082 0.270082 0.962837 265.199 23.2562)" fill="#03045E"/>
<circle cx="218.745" cy="15.0173" r="0.629305" transform="rotate(15.6692 218.745 15.0173)" fill="#03045E"/>
<circle cx="0.629305" cy="0.629305" r="0.629305" transform="matrix(-0.962837 0.270082 0.270082 0.962837 260.059 14.2415)" fill="#03045E"/>
<path d="M43.2657 189.536C39.5362 189.536 38.6046 186.946 38.5924 185.133V171.406C38.3496 166.744 42.3859 161.564 48.1874 161.564H58.5512C62.1668 161.564 67.6161 165.397 67.6161 171.406V185.133C67.7024 186.6 66.5801 189.536 63.4721 189.536H46.0858" stroke="#4078C2" stroke-width="1.04652" stroke-linecap="round"/>
<path d="M38.597 171.406C32.1194 172.183 28.2347 185.392 49.9928 185.91" stroke="#4078C2" stroke-width="1.04652" stroke-linecap="round"/>
<path d="M40.1523 165.708V162.535" stroke="#4078C2" stroke-width="1.04652" stroke-linecap="round"/>
<circle cx="40.1509" cy="158.339" r="2.63159" stroke="#232077" stroke-width="0.952704"/>
<path d="M67.5977 171.406C75.6265 170.888 75.3675 183.838 67.5977 183.579" stroke="#4078C2" stroke-width="1.04652"/>
<circle cx="44.8119" cy="173.996" r="3.62066" stroke="#232077" stroke-width="1.04652"/>
<circle cx="61.9056" cy="173.996" r="3.62066" stroke="#232077" stroke-width="1.04652"/>
<path d="M46.6181 173.737H42.9922" stroke="#232077" stroke-width="1.04652" stroke-linecap="round"/>
<path d="M63.458 173.737H59.832" stroke="#232077" stroke-width="1.04652" stroke-linecap="round"/>
<path d="M55.4248 179.694C55.1037 183.495 51.0219 183.32 50.5039 179.694" stroke="#232077" stroke-width="1.04652" stroke-linecap="round"/>
<path d="M50.2578 191.434V194.054C50.2578 194.148 50.2833 194.242 50.3346 194.32C51.9071 196.73 55.3545 196.001 55.9342 194.267C55.9495 194.221 55.9557 194.173 55.9557 194.125V190.054" stroke="#232077" stroke-width="1.04652" stroke-linecap="round"/>
<path d="M56.1814 194.198H62.1781C63.4321 194.198 64.5523 195.118 64.3347 196.353C63.8203 199.273 61.1667 202.793 53.2847 203.003C45.5185 203.003 42.8609 199.392 42.2877 196.417C42.045 195.158 43.1737 194.198 44.4562 194.198H50.3881" stroke="#232077" stroke-width="1.04652"/>
<path d="M35.8344 154.249L35.3356 156.028M34.6959 154.889L36.4741 155.388" stroke="#03045E" stroke-width="0.461702" stroke-linecap="round"/>
<path d="M68.2594 154.249L68.7581 156.028M69.3978 154.889L67.6197 155.388" stroke="#03045E" stroke-width="0.461702" stroke-linecap="round"/>
<circle cx="30.2481" cy="161.633" r="1.53901" transform="rotate(15.6692 30.2481 161.633)" stroke="#03045E" stroke-width="0.615602"/>
<circle cx="1.84681" cy="1.84681" r="1.53901" transform="matrix(-0.962837 0.270082 0.270082 0.962837 75.1289 159.356)" stroke="#03045E" stroke-width="0.615602"/>
<circle cx="29.3897" cy="168.106" r="0.923403" transform="rotate(15.6692 29.3897 168.106)" fill="#03045E"/>
<circle cx="0.923403" cy="0.923403" r="0.923403" transform="matrix(-0.962837 0.270082 0.270082 0.962837 75.3438 166.968)" fill="#03045E"/>
<circle cx="34.2077" cy="158.908" r="0.615602" transform="rotate(15.6692 34.2077 158.908)" fill="#03045E"/>
<circle cx="0.615602" cy="0.615602" r="0.615602" transform="matrix(-0.962837 0.270082 0.270082 0.962837 70.3125 158.149)" fill="#03045E"/>
<path d="M148.465 11.7454C155.271 11.7454 160.922 18.3204 160.922 26.6096C160.922 34.8987 155.271 41.4729 148.465 41.4729C141.659 41.4728 136.008 34.8987 136.008 26.6096C136.008 18.3205 141.659 11.7454 148.465 11.7454Z" stroke="#232077" stroke-width="0.961794"/>
<path d="M136.435 22.3974C135.833 20.5922 132.523 20.8931 132.523 23.9018V29.6184C132.523 31.7246 134.509 33.1688 136.435 31.7246" stroke="#232077" stroke-width="0.961794"/>
<path d="M160.307 22.486C160.908 20.6807 164.715 20.8931 164.715 23.9018V29.6185C164.715 31.7246 162.428 33.1688 160.503 31.7246" stroke="#232077" stroke-width="0.961794"/>
<path d="M162.609 21.1939V15.7782" stroke="#232077" stroke-width="0.961794"/>
<circle cx="162.606" cy="13.6719" r="1.9261" stroke="#4078C2" stroke-width="0.961794"/>
<path d="M144.553 41.9542L144.277 43.6453M152.075 41.9542L152.613 43.6453" stroke="#4078C2" stroke-width="0.961794" stroke-linecap="round"/>
<path d="M158.097 43.7595C156.292 43.4587 152.982 44.6622 150.274 47.9718C149.136 49.3632 147.807 49.416 146.363 47.9718C144.558 46.1665 142.753 42.5561 137.939 43.7596C135.832 44.6622 134.629 46.2869 134.629 50.3788V61.8121" stroke="#232077" stroke-width="0.961794" stroke-linecap="round"/>
<path d="M148.465 43.0043V46.8514" stroke="#4078C2" stroke-width="0.961794" stroke-linecap="round"/>
<path d="M130.814 46.5308C130.212 46.8316 129.211 47.6709 129.211 49.777V57.7517C129.211 59.5569 129.529 61.9195 132.417 61.9195" stroke="#4078C2" stroke-width="0.961794" stroke-linecap="round"/>
<path d="M137.337 44.0604C130.717 40.1491 128.31 50.3788 134.629 50.6797" stroke="#232077" stroke-width="0.961794"/>
<path d="M156.287 56.9981C155.084 57.3993 151.774 57.8406 148.164 56.3964C146.559 57.1987 142.146 58.322 137.332 56.3964" stroke="#4078C2" stroke-width="0.961794" stroke-linecap="round"/>
<circle cx="166.824" cy="51.5823" r="9.74886" stroke="#4078C2" stroke-width="0.961794"/>
<path d="M140.043 15.4773L140.785 17.5179C141.031 18.1939 141.813 18.5082 142.493 18.274C145.091 17.3796 149.766 16.6459 154.854 18.3642C155.486 18.5779 156.191 18.2823 156.439 17.6624L157.193 15.7782" stroke="#232077" stroke-width="0.961794"/>
<rect x="138.418" y="21.9756" width="20.0995" height="8.06446" rx="2.52785" stroke="#232077" stroke-width="0.961794"/>
<rect x="143.227" y="32.2055" width="10.4715" height="3.85221" rx="1.9261" stroke="#232077" stroke-width="0.961794"/>
<path d="M140.945 24.5035L144.255 27.8132" stroke="#4078C2" stroke-width="0.961794" stroke-linecap="round"/>
<path d="M152.379 24.5035L155.689 27.8132" stroke="#4078C2" stroke-width="0.961794" stroke-linecap="round"/>
<path d="M144.25 24.5035L140.94 27.8132" stroke="#4078C2" stroke-width="0.961794" stroke-linecap="round"/>
<path d="M155.688 24.5035L152.378 27.8132" stroke="#4078C2" stroke-width="0.961794" stroke-linecap="round"/>
<rect x="165.243" y="46.8008" width="3.59049" height="6.62535" rx="1.79525" stroke="#232077" stroke-width="0.961794"/>
<path d="M163.251 50.1134C162.858 57.3212 171.584 56.9418 170.838 50.1134" stroke="#232077" stroke-width="0.961794" stroke-linecap="round"/>
<path d="M167.037 55.4246V57.3213M167.037 57.3213H164.156M167.037 57.3213H169.929" stroke="#232077" stroke-width="0.961794" stroke-linecap="round"/>
<path d="M134.196 10.2424L133.676 12.0945M133.01 10.9087L134.862 11.4282" stroke="#03045E" stroke-width="0.480897" stroke-linecap="round"/>
<path d="M168.609 10.2424L169.129 12.0945M169.795 10.9087L167.943 11.4282" stroke="#03045E" stroke-width="0.480897" stroke-linecap="round"/>
<circle cx="128.372" cy="17.933" r="1.60299" transform="rotate(15.6692 128.372 17.933)" stroke="#03045E" stroke-width="0.641196"/>
<circle cx="1.92359" cy="1.92359" r="1.60299" transform="matrix(-0.962837 0.270082 0.270082 0.962837 175.758 15.5614)" stroke="#03045E" stroke-width="0.641196"/>
<circle cx="127.479" cy="24.6752" r="0.961794" transform="rotate(15.6692 127.479 24.6752)" fill="#03045E"/>
<circle cx="0.961794" cy="0.961794" r="0.961794" transform="matrix(-0.962837 0.270082 0.270082 0.962837 175.984 23.4894)" fill="#03045E"/>
<circle cx="132.499" cy="15.0947" r="0.641196" transform="rotate(15.6692 132.499 15.0947)" fill="#03045E"/>
<circle cx="0.641196" cy="0.641196" r="0.641196" transform="matrix(-0.962837 0.270082 0.270082 0.962837 170.746 14.3042)" fill="#03045E"/>
<path d="M140.896 184.07C142.845 184.07 146 184.708 143.022 187.26C140.364 189.387 142.652 194.542 147.807 189.387C148.339 188.855 149.402 187.26 147.276 185.665C149.934 183.538 152.273 187.26 150.997 191.514C154.187 191.514 155.144 194.597 146.212 194.172C145.149 194.704 142.81 196.724 141.959 200.552C141.604 199.843 140.345 197.641 137.678 198.957C136.356 199.609 135.579 201.615 136.11 203.21" stroke="#4078C2" stroke-width="1.16394" stroke-linecap="round"/>
<path d="M128.113 198.957C128.645 199.311 130.24 199.808 132.367 198.957C132.189 200.02 132.26 202.36 133.962 203.21" stroke="#4078C2" stroke-width="1.16394" stroke-linecap="round"/>
<path d="M173.723 199.263L165.332 200.552L163.205 197.362L158.952 198.425L158.42 202.147L155.762 202.859" stroke="#4078C2" stroke-width="1.16394" stroke-linecap="round"/>
<path d="M137.684 185.665C142.469 182.652 153.634 178.753 164.267 185.665" stroke="#232077" stroke-width="1.16394" stroke-linecap="round"/>
<path d="M171.703 194.172C172.412 195.058 173.936 198.106 174.361 203.21" stroke="#232077" stroke-width="1.16394" stroke-linecap="round"/>
<path d="M130.156 193.766C129.269 195.361 127.582 197.362 127.582 203.21" stroke="#232077" stroke-width="1.16394" stroke-linecap="round"/>
<path d="M136.09 172.905V170.247C136.092 164.93 142.47 161.208 145.66 161.208H156.293C161.079 161.208 165.864 165.993 165.864 170.247V172.905" stroke="#232077" stroke-width="1.16394" stroke-linecap="round"/>
<path d="M136.107 169.183C131.306 166.525 130.897 178.434 135.575 177.158C135.747 178.222 136.622 180.561 138.749 181.412" stroke="#232077" stroke-width="1.16394" stroke-linecap="round"/>
<path d="M165.85 169.183C171.167 166.525 171.567 178.435 166.888 177.159C166.717 178.222 165.841 180.561 163.715 181.412" stroke="#232077" stroke-width="1.16394" stroke-linecap="round"/>
<path d="M141.418 169.827L144.226 167.331C144.81 166.812 145.564 166.525 146.346 166.525H155.711C156.435 166.525 157.138 166.772 157.703 167.224L160.949 169.821C161.706 170.426 162.146 171.343 162.146 172.312V175.032C162.146 176.794 160.718 178.222 158.956 178.222H143.538C141.776 178.222 140.348 176.794 140.348 175.032V172.211C140.348 171.3 140.737 170.432 141.418 169.827Z" stroke="#4078C2" stroke-width="1.16394"/>
<circle cx="145.653" cy="172.373" r="1.06335" fill="#4078C2"/>
<circle cx="156.29" cy="172.373" r="1.06335" fill="#4078C2"/>
<path d="M150.969 161.208L150.969 158.018" stroke="#232077" stroke-width="1.16394"/>
<circle cx="150.975" cy="154.296" r="2.60808" stroke="#4078C2" stroke-width="1.16394"/>
<path d="M166.922 146.372H174.365C176.98 146.372 179.1 148.491 179.101 151.106V155.36C179.1 157.975 176.98 160.094 174.365 160.094H162.188V151.106C162.188 148.491 164.307 146.372 166.922 146.372Z" stroke="#4078C2" stroke-width="1.16394"/>
<circle cx="166.915" cy="153.233" r="1.06335" fill="#232077"/>
<circle cx="171.177" cy="153.233" r="1.06335" fill="#232077"/>
<circle cx="175.434" cy="153.233" r="1.06335" fill="#232077"/>
<rect x="169.994" y="185.926" width="7.74222" height="6.27951" rx="1.54473" transform="rotate(60.5483 169.994 185.926)" stroke="#4078C2" stroke-width="1.16394"/>
<rect x="0.220613" y="0.792909" width="7.74222" height="6.27951" rx="1.54473" transform="matrix(-0.49169 0.870771 0.870771 0.49169 131.596 185.344)" stroke="#4078C2" stroke-width="1.16394"/>
<path d="M135.559 147.597L134.966 149.785M134.169 148.394L136.356 148.987" stroke="#03045E" stroke-width="0.566654" stroke-linecap="round"/>
<circle cx="128.779" cy="156.72" r="1.88885" transform="rotate(15.1529 128.779 156.72)" stroke="#03045E" stroke-width="0.755538"/>
<circle cx="127.798" cy="164.674" r="1.13331" transform="rotate(15.1529 127.798 164.674)" fill="#03045E"/>
<circle cx="133.61" cy="153.332" r="0.755538" transform="rotate(15.1529 133.61 153.332)" fill="#03045E"/>
<rect x="137.28" y="84.8001" width="26.7752" height="20.1862" rx="4.96832" stroke="#232077" stroke-width="1.04507"/>
<rect x="140.206" y="89.1929" width="21.2844" height="7.37424" rx="1.30775" stroke="#4078C2" stroke-width="1.04507"/>
<circle cx="144.262" cy="92.88" r="1.85683" stroke="#4078C2" stroke-width="1.04507"/>
<circle cx="157.434" cy="92.88" r="1.85683" stroke="#4078C2" stroke-width="1.04507"/>
<path d="M135.473 91.965L134.056 92.7279C133.463 93.0471 133.094 93.6661 133.094 94.3394V94.9349C133.094 95.5888 133.443 96.193 134.009 96.5199L135.473 97.3653" stroke="#232077" stroke-width="1.04507" stroke-linecap="round"/>
<path d="M166.406 91.965L167.823 92.7279C168.415 93.0471 168.785 93.6661 168.785 94.3394V94.9349C168.785 95.5888 168.436 96.193 167.87 96.5199L166.406 97.3653" stroke="#232077" stroke-width="1.04507" stroke-linecap="round"/>
<path d="M134.918 89.9344V85.376" stroke="#232077" stroke-width="1.04507" stroke-linecap="round"/>
<path d="M166.766 89.9344V85.376" stroke="#232077" stroke-width="1.04507" stroke-linecap="round"/>
<circle cx="134.742" cy="81.5322" r="2.22289" stroke="#4078C2" stroke-width="1.04507"/>
<circle cx="166.589" cy="81.5322" r="2.22289" stroke="#4078C2" stroke-width="1.04507"/>
<path d="M159.999 107.522H141.513C135.07 107.522 131.812 113.013 131.629 117.04L130.531 131.133H171.164L169.882 116.125C168.967 108.987 162.927 107.583 159.999 107.522Z" stroke="#4078C2" stroke-width="1.04507" stroke-linecap="round"/>
<path d="M144.258 109.353L151.03 128.571L157.619 109.353" stroke="#232077" stroke-width="1.04507" stroke-linecap="round"/>
<path d="M136.758 110.268L139.869 114.477L143.347 113.379L141.15 116.491L148.838 128.571" stroke="#232077" stroke-width="1.04507" stroke-linecap="round"/>
<path d="M165.305 110.268L162.193 114.477L158.716 113.379L160.912 116.491L153.225 128.571" stroke="#232077" stroke-width="1.04507" stroke-linecap="round"/>
<path d="M146.82 109.17V110.085C146.82 111.702 148.131 113.013 149.749 113.013H151.762C153.379 113.013 154.691 111.702 154.691 110.085V109.17" stroke="#232077" stroke-width="1.04507" stroke-linecap="round"/>
<path d="M149.34 114.667L148.648 117.04" stroke="#232077" stroke-width="1.04507" stroke-linecap="round"/>
<path d="M152.828 114.667L153.52 117.04" stroke="#232077" stroke-width="1.04507" stroke-linecap="round"/>
<path d="M129.359 76.2876L128.784 78.4112M128.009 77.0618L130.133 77.6369" stroke="#03045E" stroke-width="0.550037" stroke-linecap="round"/>
<path d="M171.305 76.2876L171.88 78.4112M172.655 77.0618L170.531 77.6369" stroke="#03045E" stroke-width="0.550037" stroke-linecap="round"/>
<circle cx="122.771" cy="85.1435" r="1.83346" transform="rotate(15.1529 122.771 85.1435)" stroke="#03045E" stroke-width="0.733383"/>
<circle cx="2.20015" cy="2.20015" r="1.83346" transform="matrix(-0.965232 0.261396 0.261396 0.965232 179.43 82.4447)" stroke="#03045E" stroke-width="0.733383"/>
<circle cx="121.825" cy="92.8639" r="1.10007" transform="rotate(15.1529 121.825 92.8639)" fill="#03045E"/>
<circle cx="1.10007" cy="1.10007" r="1.10007" transform="matrix(-0.965232 0.261396 0.261396 0.965232 179.609 91.5145)" fill="#03045E"/>
<circle cx="127.469" cy="81.8547" r="0.733383" transform="rotate(15.1529 127.469 81.8547)" fill="#03045E"/>
<circle cx="0.733383" cy="0.733383" r="0.733383" transform="matrix(-0.965232 0.261396 0.261396 0.965232 173.707 80.9551)" fill="#03045E"/>
</svg>
