<svg width="260" height="178" viewBox="0 0 260 178" fill="none" xmlns="http://www.w3.org/2000/svg">
<path d="M45.5929 36.582H47.2102C48.6718 36.582 49.8566 37.7669 49.8566 39.2285V44.8154C49.8566 44.9778 49.725 45.1094 49.5626 45.1094H18.7999C18.6375 45.1094 18.5059 44.9778 18.5059 44.8154V39.2285C18.5059 37.7669 19.6907 36.582 21.1523 36.582H22.7696" stroke="black" stroke-width="1.17619" stroke-linecap="round"/>
<path d="M29.2891 31.0645V33.3217" stroke="black" stroke-width="1.17619" stroke-linecap="round"/>
<path d="M38.8203 31.0645V33.3217" stroke="black" stroke-width="1.17619" stroke-linecap="round"/>
<path d="M26.5312 12.7556C26.5312 11.786 27.3173 11 28.2869 11H39.5732C40.5428 11 41.3288 11.786 41.3288 12.7556" stroke="black" stroke-width="1.17619" stroke-linecap="round"/>
<path d="M22.7695 44.6082V37.3954C22.7695 35.2842 24.481 33.5728 26.5922 33.5728H41.5195C43.6306 33.5728 45.3421 35.2842 45.3421 37.3954V44.6082" stroke="black" stroke-width="1.17619" stroke-linecap="round"/>
<path d="M20.5117 22.0356H22.0166" stroke="black" stroke-width="1.17619" stroke-linecap="round"/>
<path d="M46.0938 22.0356H47.5986" stroke="black" stroke-width="1.17619" stroke-linecap="round"/>
<rect x="22.1018" y="13.093" width="23.9044" height="17.8851" rx="4.11668" stroke="black" stroke-width="1.17619"/>
<path d="M28.7812 17.3564C30.8112 17.3564 32.457 19.0023 32.457 21.0322C32.457 23.0622 30.8112 24.708 28.7812 24.708C26.7513 24.708 25.1055 23.0622 25.1055 21.0322C25.1055 19.0023 26.7513 17.3565 28.7812 17.3564ZM39.3223 17.3564C41.3521 17.3566 42.998 19.0023 42.998 21.0322C42.998 23.0621 41.3521 24.7079 39.3223 24.708C37.2923 24.708 35.6465 23.0622 35.6465 21.0322C35.6465 19.0023 37.2923 17.3564 39.3223 17.3564Z" stroke="black" stroke-width="1.17619"/>
<path d="M31.2969 26.2993V28.8074" stroke="black" stroke-width="1.17619" stroke-linecap="round"/>
<path d="M33.3027 26.2993V28.8074" stroke="black" stroke-width="1.17619" stroke-linecap="round"/>
<path d="M35.3086 26.2993V28.8074" stroke="black" stroke-width="1.17619" stroke-linecap="round"/>
<path d="M37.3164 26.2993V28.8074" stroke="black" stroke-width="1.17619" stroke-linecap="round"/>
<circle cx="19.0064" cy="22.0357" r="1.41835" stroke="black" stroke-width="1.17619"/>
<circle cx="49.1041" cy="22.0357" r="1.41835" stroke="black" stroke-width="1.17619"/>
<path d="M48.4046 125H40.184C37.8862 125 36.0234 126.863 36.0234 129.161V134.629C36.0234 136.401 37.4604 137.838 39.233 137.838C39.5057 137.838 39.7268 138.059 39.7268 138.332V139.791C39.7268 140.596 40.6581 141.044 41.2867 140.541L44.577 137.908C44.6337 137.863 44.7042 137.838 44.7769 137.838H48.4046C50.7024 137.838 52.5652 135.976 52.5652 133.678V129.161C52.5652 126.863 50.7024 125 48.4046 125Z" stroke="black" stroke-width="1.28018" stroke-linecap="round"/>
<path d="M21.9503 146.479C19.7686 146.479 18 148.248 18 150.43V152.688C18 154.986 19.8628 156.849 22.1606 156.849H22.444" stroke="black" stroke-width="1.28018" stroke-linecap="round"/>
<path d="M32.4267 149.442H29.9926C29.9146 149.442 29.8516 149.379 29.8516 149.301V148.825C29.8516 148.075 30.4595 147.467 31.2095 147.467C31.9594 147.467 32.5674 148.075 32.5674 148.825V149.301C32.5674 149.379 32.5046 149.442 32.4267 149.442Z" fill="black" stroke="black" stroke-width="1.28018" stroke-linecap="round"/>
<path d="M38.5986 149.442H36.1644C36.0865 149.442 36.0234 149.379 36.0234 149.301V148.825C36.0234 148.075 36.6314 147.467 37.3813 147.467C38.1313 147.467 38.7392 148.075 38.7392 148.825V149.301C38.7392 149.379 38.6765 149.442 38.5986 149.442Z" fill="black" stroke="black" stroke-width="1.28018" stroke-linecap="round"/>
<path d="M40.4668 129.444H44.4171" stroke="black" stroke-width="1.28018" stroke-linecap="round"/>
<path d="M40.4668 133.394H47.8735" stroke="black" stroke-width="1.28018" stroke-linecap="round"/>
<rect x="25.8002" y="144.157" width="16.496" height="9.58305" rx="3.20045" stroke="black" stroke-width="1.28018"/>
<path d="M46.146 146.727H46.4295C48.7273 146.727 50.59 148.589 50.59 150.887V152.935C50.59 155.233 48.7273 157.096 46.4295 157.096H36.0234" stroke="black" stroke-width="1.28018" stroke-linecap="round"/>
<path d="M35.0381 137.984H31.3037C27.0027 137.984 23.3764 141.186 22.8398 145.451V154.445C22.8398 156.329 23.6969 158.112 25.168 159.291C26.2689 160.172 27.6376 160.653 29.0479 160.653H39.0547C40.4648 160.653 41.8328 160.172 42.9336 159.291C44.405 158.112 45.2617 156.33 45.2617 154.445V145.624C45.2617 145.52 45.2503 145.416 45.2285 145.315C44.9141 143.85 44.2642 142.528 43.3691 141.423L44.5371 140.84C45.4659 142.051 46.1435 143.476 46.4805 145.046C46.5211 145.236 46.542 145.43 46.542 145.624V154.445C46.542 156.718 45.5092 158.87 43.7344 160.291C42.4065 161.354 40.7557 161.933 39.0547 161.933H29.0479C27.3469 161.933 25.6961 161.354 24.3682 160.291C22.5936 158.87 21.5605 156.718 21.5605 154.445V145.361L21.5645 145.322C22.1677 140.402 26.3469 136.705 31.3037 136.705H34.7598L35.0381 137.984Z" fill="black"/>
<path d="M136.281 128.675L137.814 124.587C137.936 124.262 138.297 124.097 138.622 124.217L143.21 125.907C143.402 125.977 143.477 126.208 143.364 126.378L143.113 126.754C143.045 126.856 142.924 126.91 142.802 126.891L139.326 126.356C139.258 126.346 139.194 126.392 139.182 126.46L138.911 128.09" stroke="black" stroke-width="1.26106" stroke-linecap="round"/>
<path d="M138.328 134.226L142.152 136.265C142.46 136.429 142.843 136.312 143.006 136.004L145.207 131.848C145.282 131.705 145.237 131.528 145.103 131.438L144.704 131.172C144.568 131.081 144.385 131.11 144.283 131.237L142.195 133.847C142.155 133.897 142.086 133.909 142.031 133.877L140.665 133.057" stroke="black" stroke-width="1.26106" stroke-linecap="round"/>
<path d="M121.09 141.238L125.765 151.464" stroke="black" stroke-width="1.26106" stroke-linecap="round"/>
<path d="M124.012 139.776L130.439 149.126" stroke="black" stroke-width="1.26106" stroke-linecap="round"/>
<path d="M122.842 134.518L134.236 130.72" stroke="black" stroke-width="1.26106" stroke-linecap="round"/>
<path d="M124.596 138.608L135.406 133.934" stroke="black" stroke-width="1.26106" stroke-linecap="round"/>
<path d="M136.044 134.233L134.479 130.432C134.345 130.108 134.502 129.737 134.828 129.607L138.039 128.322C138.36 128.194 138.725 128.348 138.856 128.668L140.421 132.468C140.555 132.793 140.398 133.163 140.073 133.294L136.861 134.578C136.54 134.707 136.175 134.553 136.044 134.233Z" stroke="black" stroke-width="1.26106" stroke-linecap="round"/>
<path d="M129.854 149.172C132.411 149.172 134.483 151.244 134.483 153.8C134.483 156.357 132.411 158.429 129.854 158.429C127.298 158.429 125.227 156.356 125.227 153.8C125.227 151.244 127.298 149.172 129.854 149.172Z" stroke="black" stroke-width="1.26106"/>
<path d="M129.854 152.094C130.797 152.094 131.561 152.858 131.562 153.8C131.562 154.743 130.797 155.507 129.854 155.507C128.912 155.507 128.148 154.743 128.148 153.8C128.149 152.858 128.912 152.094 129.854 152.094Z" stroke="black" stroke-width="1.26106"/>
<path d="M121.091 134.272C123.001 134.273 124.55 135.822 124.55 137.732C124.55 139.643 123.001 141.191 121.091 141.191C119.18 141.191 117.631 139.643 117.631 137.732C117.631 135.822 119.18 134.272 121.091 134.272Z" stroke="black" stroke-width="1.26106"/>
<path d="M121.091 136.61C121.711 136.61 122.213 137.112 122.213 137.732C122.213 138.352 121.711 138.854 121.091 138.854C120.471 138.854 119.969 138.352 119.969 137.732C119.969 137.112 120.471 136.61 121.091 136.61Z" stroke="black" stroke-width="1.26106"/>
<path d="M121.09 163.734H138.62V162.412C138.62 161.367 137.773 160.521 136.728 160.521H122.981C121.937 160.521 121.09 161.367 121.09 162.412V163.734Z" stroke="black" stroke-width="1.26106" stroke-linecap="round"/>
<path d="M125.765 156.431L124.889 160.229" stroke="black" stroke-width="1.26106" stroke-linecap="round"/>
<path d="M134.236 155.846L135.405 160.228" stroke="black" stroke-width="1.26106" stroke-linecap="round"/>
<path d="M221.238 141.122C219.249 142.017 216.465 145.777 218.852 153.654C221.239 161.532 226.212 164.297 228.4 164.695C230.489 165.192 235.681 163.68 239.739 153.654C240.833 150.372 242.007 143.27 236.755 141.122" stroke="black" stroke-width="1.19358" stroke-linecap="round"/>
<path d="M218.85 153.653C219.844 153.852 223.027 152.759 224.817 150.67C227.349 147.716 229.293 145.896 232.874 150.073C233.968 151.465 236.813 154.131 239.439 153.653" stroke="black" stroke-width="1.19358" stroke-linecap="round"/>
<path d="M219.744 142.316C218.451 141.52 215.677 141.48 213.768 147.687C211.858 153.893 212.517 158.236 213.171 159.026C213.668 159.622 215.558 159.563 219.139 154.55" stroke="black" stroke-width="1.19358" stroke-linecap="round"/>
<path d="M238.767 142.316C240.06 141.52 243.123 141.48 245.033 147.687C246.943 153.893 246.284 158.236 245.63 159.026C245.133 159.622 243.243 159.563 239.662 154.55" stroke="black" stroke-width="1.19358" stroke-linecap="round"/>
<path d="M213.777 147.985C214.474 148.98 216.344 151.088 218.253 151.566" stroke="black" stroke-width="1.19358" stroke-linecap="round"/>
<path d="M245.025 147.985C244.329 148.98 242.459 151.088 240.549 151.566" stroke="black" stroke-width="1.19358" stroke-linecap="round"/>
<path d="M223.622 125.009H234.364C238.814 125.009 242.421 128.616 242.421 133.065C242.421 137.515 238.814 141.122 234.364 141.122H223.622C219.173 141.122 215.565 137.515 215.565 133.065C215.565 128.616 219.173 125.009 223.622 125.009Z" stroke="black" stroke-width="1.19358"/>
<path fill-rule="evenodd" clip-rule="evenodd" d="M228.994 129.186C235.092 129.186 240.035 130.38 240.035 133.96C240.035 137.84 235.092 138.735 228.994 138.735C222.897 138.735 217.953 137.84 217.953 133.96C217.953 130.081 222.897 129.186 228.994 129.186ZM225.425 133.41C224.511 132.801 223.332 132.761 222.379 133.305L222.257 133.375C221.825 133.621 221.5 134.019 221.343 134.491C221.23 134.831 221.537 135.163 221.885 135.076L223.22 134.743C223.677 134.628 224.156 134.636 224.608 134.765L225.626 135.056C225.985 135.158 226.312 134.817 226.194 134.462L226.168 134.383C226.035 133.985 225.774 133.642 225.425 133.41ZM235.568 133.41C234.655 132.801 233.476 132.761 232.522 133.305L232.4 133.375C231.969 133.621 231.644 134.019 231.486 134.491C231.373 134.831 231.68 135.163 232.028 135.076L233.363 134.743C233.82 134.628 234.299 134.636 234.752 134.765L235.77 135.056C236.129 135.159 236.456 134.817 236.338 134.462L236.312 134.383C236.179 133.985 235.917 133.642 235.568 133.41Z" fill="black"/>
<path d="M215.714 135.977C211.012 133.655 213.677 130.979 215.73 129.852C215.777 129.826 215.83 129.873 215.813 129.924C214.969 132.585 215.42 134.916 215.802 135.901C215.822 135.952 215.764 136.001 215.714 135.977Z" fill="black" stroke="black" stroke-width="0.596789" stroke-linecap="round"/>
<path d="M242.273 135.977C246.976 133.655 244.312 130.979 242.259 129.852C242.212 129.826 242.159 129.873 242.176 129.924C243.02 132.585 242.568 134.916 242.186 135.901C242.166 135.952 242.224 136.001 242.273 135.977Z" fill="black" stroke="black" stroke-width="0.596789" stroke-linecap="round"/>
<path d="M228.996 149.79C230.479 149.79 231.681 150.992 231.682 152.475C231.682 153.958 230.479 155.16 228.996 155.161C227.513 155.161 226.311 153.958 226.311 152.475C226.311 150.992 227.513 149.79 228.996 149.79Z" stroke="black" stroke-width="0.596789"/>
<path d="M228.995 150.685C229.984 150.685 230.785 151.487 230.785 152.476C230.785 153.465 229.984 154.266 228.995 154.266C228.006 154.266 227.205 153.465 227.205 152.476C227.205 151.487 228.006 150.685 228.995 150.685Z" fill="black" stroke="black" stroke-width="0.596789"/>
<path d="M223.326 125.009L223.495 125.178C224.151 125.834 224.52 126.724 224.52 127.651C224.52 127.675 224.539 127.694 224.563 127.694H233.428C233.452 127.694 233.472 127.675 233.472 127.651C233.472 126.724 233.84 125.834 234.496 125.178L234.665 125.009" stroke="black" stroke-width="1.19358"/>
<path d="M45.2962 101.769H25.7451C24.6584 101.769 23.7773 100.888 23.7773 99.8012V85.3283C23.7773 79.3334 28.6371 74.4736 34.632 74.4736H36.4094C42.4042 74.4736 47.264 79.3334 47.264 85.3283V99.8012C47.264 100.888 46.383 101.769 45.2962 101.769Z" stroke="black" stroke-width="1.90433" stroke-linecap="round"/>
<path d="M47.7402 87.8042H52.755C52.79 87.8042 52.8184 87.8326 52.8184 87.8677V96.6911" stroke="black" stroke-width="1.90433" stroke-linecap="round"/>
<path d="M23.3008 87.8042H18.2861C18.251 87.8042 18.2226 87.8326 18.2226 87.8677V96.6911" stroke="black" stroke-width="1.90433" stroke-linecap="round"/>
<path d="M50.5977 99.196C50.915 96.9529 54.0889 95.6833 55.0411 99.1748" stroke="black" stroke-width="1.90433" stroke-linecap="round"/>
<path d="M20.4434 99.196C20.126 96.9529 16.9521 95.6833 15.9999 99.1748" stroke="black" stroke-width="1.90433" stroke-linecap="round"/>
<path d="M35.3613 74.1563V70.3477" stroke="black" stroke-width="1.90433" stroke-linecap="round"/>
<path d="M35.3613 64.9521C36.5883 64.9521 37.583 65.9468 37.583 67.1738C37.583 68.4008 36.5883 69.3955 35.3613 69.3955C34.1343 69.3955 33.1396 68.4008 33.1396 67.1738C33.1397 65.9468 34.1343 64.9522 35.3613 64.9521Z" stroke="black" stroke-width="1.90433"/>
<path d="M29.6484 90.0254H41.0744" stroke="black" stroke-width="1.90433" stroke-linecap="round"/>
<path d="M30.2832 81.1387V85.5821" stroke="black" stroke-width="1.90433" stroke-linecap="round"/>
<path d="M40.4395 81.1387V85.5821" stroke="black" stroke-width="1.90433" stroke-linecap="round"/>
<path d="M30.2832 94.1519V97.3257" stroke="black" stroke-width="1.90433" stroke-linecap="round"/>
<path d="M35.3613 94.1519V97.3257" stroke="black" stroke-width="1.90433" stroke-linecap="round"/>
<path d="M40.4395 94.1519V97.3257" stroke="black" stroke-width="1.90433" stroke-linecap="round"/>
<path d="M29.6484 106.53H40.757" stroke="black" stroke-width="1.90433" stroke-linecap="round"/>
<path d="M119.557 104.591V104.064C119.557 101.108 121.953 98.7119 124.908 98.7119H133.8C136.756 98.7119 139.152 101.108 139.152 104.064V104.591" stroke="black" stroke-width="1.76429" stroke-linecap="round"/>
<path d="M115.079 80.7959L114.85 80.9001C113.114 81.689 112 83.4197 112 85.3262V85.4591C112 87.6453 113.509 89.5421 115.639 90.0337" stroke="black" stroke-width="1.76429" stroke-linecap="round"/>
<path d="M143.631 80.7959L144.093 80.9884C145.847 81.7194 146.99 83.4336 146.99 85.3343C146.99 87.5785 145.406 89.5107 143.206 89.9509L142.791 90.0337" stroke="black" stroke-width="1.76429" stroke-linecap="round"/>
<rect x="119.04" y="77.7596" width="20.6304" height="14.4719" rx="5.58692" stroke="black" stroke-width="1.76429"/>
<rect x="115.681" y="72.7205" width="27.3489" height="22.8699" rx="9.1155" stroke="black" stroke-width="1.76429"/>
<path d="M126.019 83.8754C126.019 84.803 125.267 85.555 124.34 85.555C123.412 85.555 122.66 84.803 122.66 83.8754C122.66 82.9478 123.412 82.1958 124.34 82.1958C125.267 82.1958 126.019 82.9478 126.019 83.8754Z" fill="black"/>
<path d="M136.074 83.8754C136.074 84.803 135.322 85.555 134.394 85.555C133.467 85.555 132.715 84.803 132.715 83.8754C132.715 82.9478 133.467 82.1958 134.394 82.1958C135.322 82.1958 136.074 82.9478 136.074 83.8754Z" fill="black"/>
<path d="M126.836 87.2349C127.676 88.2613 129.859 89.6983 131.875 87.2349" stroke="black" stroke-width="1.76429" stroke-linecap="round"/>
<path d="M129.355 72.1183V69.0391" stroke="black" stroke-width="1.76429" stroke-linecap="round"/>
<circle cx="129.356" cy="66.7993" r="1.9172" stroke="black" stroke-width="1.76429"/>
<path fill-rule="evenodd" clip-rule="evenodd" d="M113.021 88.0659C113.472 88.545 114.001 88.9313 114.581 89.2134C114.413 90.1144 114.323 91.0437 114.323 91.9937C114.323 100.295 121.053 107.026 129.354 107.026C137.656 107.026 144.387 100.295 144.387 91.9937C144.387 91.1586 144.317 90.3395 144.187 89.5415C144.483 89.4216 144.761 89.2546 145.006 89.0405C145.303 88.7803 145.537 88.467 145.702 88.1245C145.995 89.3667 146.15 90.662 146.15 91.9937C146.15 101.27 138.631 108.79 129.354 108.79C120.078 108.789 112.559 101.27 112.559 91.9937C112.559 90.6411 112.72 89.326 113.021 88.0659Z" fill="black"/>
<path d="M234.64 96.6595H217.36C212.662 96.6595 208.854 92.8508 208.854 88.1527V82.0385C208.854 77.0467 212.9 73 217.892 73H235.299C239.947 73 243.735 76.7306 243.805 81.378L243.874 85.9381" stroke="black" stroke-width="1.17619" stroke-linecap="round"/>
<path d="M244.266 78.0508V85.6441" stroke="black" stroke-width="2.12669" stroke-linecap="round"/>
<path d="M208 78.0508V85.6441" stroke="black" stroke-width="2.12669" stroke-linecap="round"/>
<path d="M213.639 88.4188V81.2412C213.639 79.1858 215.305 77.5195 217.36 77.5195H234.64C236.695 77.5195 238.361 79.1858 238.361 81.2412V88.4188C238.361 90.4743 236.695 92.1405 234.64 92.1405H217.36C215.305 92.1405 213.639 90.4743 213.639 88.4188Z" stroke="black" stroke-width="1.17619" stroke-linecap="round"/>
<rect x="218.158" y="80.7095" width="4.25339" height="4.25339" rx="1.06335" fill="black"/>
<rect x="229.322" y="80.7095" width="4.25339" height="4.25339" rx="1.06335" fill="black"/>
<path d="M222.943 88.4189H228.526" stroke="black" stroke-width="1.59502" stroke-linecap="round"/>
<path d="M242.881 90.2192C242.912 90.2192 242.937 90.2283 242.954 90.2397C242.968 90.2488 242.985 90.2645 242.998 90.3022L244.313 94.1304C244.429 94.4661 244.685 94.7353 245.015 94.8667L247.607 95.8999C248.11 96.1 248.11 96.8102 247.607 97.0103L245.015 98.0444C244.685 98.1759 244.429 98.4442 244.313 98.7798L242.998 102.608C242.985 102.646 242.968 102.661 242.954 102.67C242.937 102.682 242.912 102.691 242.881 102.691C242.85 102.691 242.825 102.682 242.808 102.67C242.794 102.661 242.778 102.645 242.765 102.608L241.449 98.7808C241.334 98.445 241.078 98.176 240.748 98.0444L238.154 97.0103C237.652 96.8101 237.652 96.1001 238.154 95.8999L240.748 94.8667C241.078 94.7352 241.334 94.4661 241.449 94.1304L242.765 90.3022C242.778 90.265 242.794 90.2488 242.808 90.2397C242.825 90.2284 242.85 90.2193 242.881 90.2192Z" stroke="black" stroke-width="1.17619"/>
<path d="M118.617 30.7627L114.148 37.1469" stroke="black" stroke-width="1.27684" stroke-linecap="round"/>
<path d="M140.324 30.7627L144.793 37.1469" stroke="black" stroke-width="1.27684" stroke-linecap="round"/>
<path d="M129.152 34.2739V42.8926" stroke="black" stroke-width="1.27684" stroke-linecap="round"/>
<path d="M124.047 33.6357V38.1047C124.047 38.4573 123.761 38.7431 123.409 38.7431H120.217C119.864 38.7431 119.578 39.0289 119.578 39.3815V41.2968" stroke="black" stroke-width="1.27684" stroke-linecap="round"/>
<path d="M134.898 33.6357V38.1047C134.898 38.4573 135.184 38.7431 135.537 38.7431H138.729C139.081 38.7431 139.367 39.0289 139.367 39.3815V41.2968" stroke="black" stroke-width="1.27684" stroke-linecap="round"/>
<path d="M147.676 23.0317C131.691 3.19062 116.698 14.5061 110.897 23.0345C110.739 23.2659 110.767 23.577 110.947 23.7908C126.422 42.1292 141.674 31.6979 147.699 23.8057C147.873 23.5774 147.856 23.2553 147.676 23.0317Z" stroke="black" stroke-width="1.27684" stroke-linecap="round"/>
<circle cx="119.575" cy="43.5312" r="1.91526" stroke="black" stroke-width="1.27684"/>
<circle cx="2.55368" cy="2.55368" r="1.91526" transform="matrix(-1 0 0 1 141.92 40.9775)" stroke="black" stroke-width="1.27684"/>
<circle cx="129.153" cy="45.4463" r="1.91526" stroke="black" stroke-width="1.27684"/>
<circle cx="112.554" cy="39.0625" r="1.91526" stroke="black" stroke-width="1.27684"/>
<circle cx="2.55368" cy="2.55368" r="1.91526" transform="matrix(-1 0 0 1 148.943 36.5088)" stroke="black" stroke-width="1.27684"/>
<circle cx="129.153" cy="23.1017" r="7.66105" stroke="black" stroke-width="1.27684"/>
<circle cx="129.153" cy="23.1015" r="3.1921" stroke="black" stroke-width="1.27684"/>
<path d="M129.152 15.7598V19.5903" stroke="black" stroke-width="1.27684" stroke-linecap="round"/>
<path d="M136.494 23.1016H132.664" stroke="black" stroke-width="1.27684" stroke-linecap="round"/>
<path d="M123.867 18.0093L126.626 20.6666" stroke="black" stroke-width="1.27684" stroke-linecap="round"/>
<path d="M123.887 28.2207L126.633 25.5499" stroke="black" stroke-width="1.27684" stroke-linecap="round"/>
<path d="M129.152 26.6128V30.4433" stroke="black" stroke-width="1.27684" stroke-linecap="round"/>
<path d="M125.641 23.1016H121.81" stroke="black" stroke-width="1.27684" stroke-linecap="round"/>
<path d="M131.684 25.5386L134.443 28.1959" stroke="black" stroke-width="1.27684" stroke-linecap="round"/>
<path d="M131.666 20.6538L134.412 17.983" stroke="black" stroke-width="1.27684" stroke-linecap="round"/>
<path d="M214.941 15.8225V12.2939" stroke="black" stroke-width="1.17619" stroke-linecap="round"/>
<path d="M241.406 15.8225V12.2939" stroke="black" stroke-width="1.17619" stroke-linecap="round"/>
<path d="M212 12H217.881" stroke="black" stroke-width="1.17619" stroke-linecap="round"/>
<path d="M238.465 12H244.346" stroke="black" stroke-width="1.17619" stroke-linecap="round"/>
<path d="M230.885 24.938H225.167C224.879 24.938 224.645 25.172 224.645 25.4607V26.2612C224.645 28.1288 226.159 29.6428 228.026 29.6428C229.894 29.6428 231.408 28.1288 231.408 26.2612V25.4607C231.408 25.172 231.174 24.938 230.885 24.938Z" stroke="black" stroke-width="1.17619" stroke-linecap="round"/>
<path d="M222.586 20.2334V21.1155" stroke="black" stroke-width="1.17619" stroke-linecap="round"/>
<path d="M228.467 20.2334V21.1155" stroke="black" stroke-width="1.17619" stroke-linecap="round"/>
<path d="M234.348 20.2334V21.1155" stroke="black" stroke-width="1.17619" stroke-linecap="round"/>
<path d="M218.469 17.293H238.464" stroke="black" stroke-width="1.17619" stroke-linecap="round"/>
<path d="M217.44 16.1167H212.735C212.329 16.1167 212 16.4458 212 16.8518V18.9102C212 20.6153 213.382 21.9977 215.088 21.9977C216.793 21.9977 218.175 20.6153 218.175 18.9102V16.8518C218.175 16.4458 217.846 16.1167 217.44 16.1167Z" stroke="black" stroke-width="1.17619" stroke-linecap="round"/>
<path d="M243.905 16.1167H239.2C238.794 16.1167 238.465 16.4458 238.465 16.8518V18.9102C238.465 20.6153 239.847 21.9977 241.552 21.9977C243.258 21.9977 244.64 20.6153 244.64 18.9102V16.8518C244.64 16.4458 244.311 16.1167 243.905 16.1167Z" stroke="black" stroke-width="1.17619" stroke-linecap="round"/>
<path d="M214.941 21.9976V24.3499C214.941 24.9995 215.468 25.5261 216.118 25.5261H220.822C221.472 25.5261 221.999 26.0527 221.999 26.7023V32.8774C221.999 33.5269 222.525 34.0536 223.175 34.0536H233.172C233.822 34.0536 234.349 33.527 234.349 32.8774V26.7023C234.349 26.0527 234.875 25.5261 235.525 25.5261H240.524C241.173 25.5261 241.7 24.9995 241.7 24.3499V22.2916" stroke="black" stroke-width="1.17619" stroke-linecap="round"/>
<path d="M219.647 25.5264L213.504 31.9484C213.295 32.1673 213.178 32.4585 213.178 32.7614V41.405C213.178 42.0546 213.704 42.5812 214.354 42.5812H215.53C216.18 42.5812 216.706 42.0546 216.706 41.405V33.9333C216.706 33.633 216.821 33.344 217.027 33.1257L221.705 28.1728" stroke="black" stroke-width="1.17619" stroke-linecap="round"/>
<path d="M236.406 25.5264L242.549 31.9484C242.758 32.1673 242.875 32.4585 242.875 32.7614V41.405C242.875 42.0546 242.348 42.5812 241.699 42.5812H240.523C239.873 42.5812 239.346 42.0546 239.346 41.405V33.9333C239.346 33.633 239.232 33.344 239.025 33.1257L234.348 28.1728" stroke="black" stroke-width="1.17619" stroke-linecap="round"/>
<path d="M224.057 36.7002C225.429 38.2685 228.997 40.464 232.29 36.7002" stroke="black" stroke-width="1.17619" stroke-linecap="round"/>
<path d="M222.881 39.9346C224.645 41.6989 229.291 44.1689 233.761 39.9346" stroke="black" stroke-width="1.17619" stroke-linecap="round"/>
<path d="M221.41 43.4634C223.567 45.4237 229.408 48.1682 235.524 43.4634" stroke="black" stroke-width="1.17619" stroke-linecap="round"/>
</svg>
