<svg width="226" height="155" viewBox="0 0 226 155" fill="none" xmlns="http://www.w3.org/2000/svg">
<path d="M24.9235 23.6133C27.7421 23.7937 31.2274 21.8693 32.8437 20.7265C32.9598 20.6445 33.1152 20.6473 33.2291 20.7322C36.0729 22.8505 39.3603 23.4926 40.9461 23.5697C41.1215 23.5782 41.2633 23.7203 41.2633 23.8959V30.682C41.2633 36.1986 35.9173 39.7457 33.1724 41.2047C33.086 41.2506 32.9847 41.252 32.8959 41.211C27.7513 38.8288 24.933 34.5106 24.5625 30.682V23.9411C24.5625 23.7488 24.7316 23.601 24.9235 23.6133Z" stroke="black" stroke-linecap="round"/>
<path d="M23.0527 21.8078C26.5409 22.0741 30.8946 19.647 32.8689 18.2358C32.9849 18.1529 33.1419 18.1552 33.2558 18.241C36.7893 20.9024 40.895 21.6843 42.8147 21.7632C42.9902 21.7704 43.1312 21.9124 43.1312 22.088V30.5003C43.1312 37.3002 36.549 41.6651 33.1987 43.4479C33.1121 43.494 33.0107 43.4952 32.9217 43.454C26.6054 40.5296 23.1456 35.2131 22.6914 30.5003V22.1334C22.6914 21.941 22.8609 21.7932 23.0527 21.8078Z" stroke="black" stroke-linecap="round"/>
<path d="M27.2118 31.1571L28.399 29.9699C28.5215 29.8474 28.7196 29.8455 28.8444 29.9657L30.9368 31.9806C31.0637 32.1028 31.2657 32.0985 31.3874 31.9711L37.1814 25.8997C37.3058 25.7694 37.5135 25.7683 37.6392 25.8974L38.9251 27.2176C39.0462 27.3419 39.0453 27.5403 38.923 27.6635L31.3891 35.2488C31.2661 35.3727 31.0662 35.3742 30.9413 35.2521L27.2144 31.6093C27.0878 31.4856 27.0866 31.2823 27.2118 31.1571Z" stroke="black" stroke-linecap="round"/>
<path d="M27.3934 39.7651H4.81795C4.64235 39.7651 4.5 39.6227 4.5 39.4471V0.837116C4.5 0.661516 4.64235 0.519165 4.81795 0.519165H23.9892C24.0747 0.519165 24.1567 0.55363 24.2165 0.614775L33.2305 9.82914C33.2887 9.88856 33.3212 9.96837 33.3212 10.0515V18.0981" stroke="black" stroke-linecap="round"/>
<path d="M23.7129 0.519226V9.80834C23.7129 9.98394 23.8552 10.1263 24.0308 10.1263H33.32" stroke="black" stroke-linecap="round"/>
<path d="M7.56641 22.595H14.1074" stroke="black" stroke-linecap="round"/>
<path d="M7.56641 26.8875H20.6484" stroke="black" stroke-linecap="round"/>
<path d="M7.56641 30.9756H20.6484" stroke="black" stroke-linecap="round"/>
<path d="M7.56641 35.0638H22.0792" stroke="black" stroke-linecap="round"/>
<circle cx="14.1057" cy="7.67338" r="3.58811" stroke="black"/>
<path d="M21.0952 16.1724C15.4043 20.1632 9.92177 17.9202 7.71929 16.1785C7.62386 16.103 7.58451 15.9784 7.61811 15.8615C8.30059 13.4866 10.2821 12.4552 11.3223 12.199C11.4042 12.1788 11.4902 12.1976 11.5614 12.2428C13.8775 13.7149 16.1133 12.9128 17.0609 12.2526C17.1342 12.2016 17.2246 12.1789 17.3121 12.1966C19.8359 12.7067 20.932 14.7293 21.2181 15.8577C21.2483 15.9771 21.1961 16.1018 21.0952 16.1724Z" stroke="black" stroke-linecap="round"/>
<path d="M100.838 38.142V20.031C100.838 12.1989 107.187 5.84967 115.019 5.84967H115.977C123.809 5.84967 130.159 12.1988 130.159 20.0309V38.142" stroke="black" stroke-linecap="round"/>
<path d="M94.5 36.359V42.6992H100.444" stroke="black" stroke-linecap="round"/>
<path d="M94.5 6.84021V0.499977H100.444" stroke="black" stroke-linecap="round"/>
<path d="M136.5 36.1609V42.5011H130.556" stroke="black" stroke-linecap="round"/>
<path d="M136.5 7.03833V0.698097H130.556" stroke="black" stroke-linecap="round"/>
<path d="M106.189 17.1428C108.171 11.1988 120.653 5.84921 125.408 19.1241" stroke="black" stroke-linecap="round"/>
<path d="M105.198 21.6987C104.868 25.4632 105.792 33.1903 115.897 33.1903C119.661 33.1903 125.803 30.2184 125.803 21.6987" stroke="black" stroke-linecap="round"/>
<path d="M112.527 15.5572C108.763 16.9441 105.99 26.0582 113.914 29.2283" stroke="black" stroke-linecap="round"/>
<path d="M114.855 14.8557C119.263 13.7743 125.802 20.9071 120.055 27.6435" stroke="black" stroke-linecap="round"/>
<circle cx="115.302" cy="22.0952" r="2.47198" stroke="black"/>
<circle cx="195.274" cy="5.29322" r="3.27399" stroke="black"/>
<circle cx="206.001" cy="5.29322" r="3.27399" stroke="black"/>
<circle cx="216.725" cy="5.29322" r="3.27399" stroke="black"/>
<circle cx="216.725" cy="15.622" r="3.27399" stroke="black"/>
<circle cx="195.274" cy="15.622" r="3.27399" stroke="black"/>
<path d="M203.816 15.9177V29.3276C202.16 27.4075 198.333 24.481 196.268 28.1358C196.93 28.4006 198.055 29.3276 198.453 30.1221C198.651 31.3139 200.637 31.7112 201.432 34.8893C201.564 36.9418 203.299 41.3249 209.179 42.4372C211.632 42.6889 216.812 41.8884 218.821 36.8999C219.036 36.3671 219.11 35.7891 219.11 35.2147V24.1632C219.11 23.3687 216.727 21.7796 215.535 24.3618C215.733 22.1769 212.953 20.7864 211.562 23.3687C211.761 20.3892 208.384 19.9919 207.788 21.9782" stroke="black" stroke-linecap="round"/>
<path d="M211.562 23.17V29.7248" stroke="black" stroke-linecap="round"/>
<path d="M215.535 24.1631V30.5193" stroke="black" stroke-linecap="round"/>
<path d="M207.59 29.9235V15.8207C207.392 13.8344 204.611 13.0398 203.816 15.8207V16.4166" stroke="black" stroke-linecap="round"/>
<path d="M205.999 11.848C208.083 11.848 209.773 13.5381 209.773 15.6224C209.773 17.1384 208.878 18.4443 207.589 19.0443V16.0316C207.39 14.0331 204.41 13.2385 203.814 16.0316V18.6976C202.853 18.0137 202.225 16.892 202.225 15.6224C202.225 13.5381 203.915 11.848 205.999 11.848Z" fill="black"/>
<path d="M195.468 22.1817C197.462 22.2826 199.048 23.9319 199.048 25.9512L199.043 26.1446C199.038 26.252 199.026 26.3581 199.012 26.463L198.848 26.3477C198.646 26.4149 198.395 26.5115 198.137 26.6319C198.189 26.4131 198.22 26.1858 198.22 25.9512C198.22 24.3247 196.901 23.0052 195.274 23.0049C193.648 23.0049 192.328 24.3245 192.328 25.9512C192.328 27.5777 193.648 28.8965 195.274 28.8965C195.904 28.8965 196.485 28.6967 196.964 28.3604L197.653 28.878C197.004 29.4064 196.177 29.7246 195.274 29.7247L195.08 29.7198C193.15 29.6221 191.603 28.0746 191.505 26.1446L191.5 25.9512C191.5 23.8669 193.19 22.1768 195.274 22.1768L195.468 22.1817Z" fill="black"/>
<path d="M14.1837 85.7078V80.9796C14.1837 80.8117 14.0475 80.6755 13.8796 80.6755H9.94283C9.77485 80.6755 9.63867 80.8117 9.63867 80.9796V98.5515C9.63867 98.7195 9.77485 98.8556 9.94283 98.8556H31.4669C31.6349 98.8556 31.771 98.7195 31.771 98.5515V80.9796C31.771 80.8117 31.6349 80.6755 31.4669 80.6755H27.5302C27.3622 80.6755 27.226 80.8117 27.226 80.9796V85.7248C27.226 85.7826 27.2105 85.8382 27.1784 85.8863C26.0471 87.5776 22.5802 89.9809 20.8402 91.065C20.7551 91.118 20.6502 91.1249 20.5592 91.0827C17.828 89.8161 15.2674 87.1609 14.2486 85.8948C14.2058 85.8415 14.1837 85.7761 14.1837 85.7078Z" stroke="black" stroke-linecap="round"/>
<path d="M9.44026 81.8611C7.99406 82.4528 5.14397 84.8157 4.50388 88.7534C4.5013 88.7693 4.5 88.7856 4.5 88.8017V98.5515C4.5 98.7195 4.63618 98.8556 4.80416 98.8556H11.614" stroke="black" stroke-linecap="round"/>
<path d="M32.1645 81.6635C33.6107 82.2552 36.8544 84.6181 37.4961 88.5558C37.4987 88.5717 37.5 88.588 37.5 88.6041V98.5515C37.5 98.7195 37.3638 98.8556 37.1958 98.8556H30.386" stroke="black" stroke-linecap="round"/>
<path d="M20.7031 91.1488V98.658" stroke="black" stroke-linecap="round"/>
<path d="M12.9319 67.4356H28.674C28.7583 67.4356 28.8389 67.4006 28.8964 67.339L31.441 64.6126C31.5214 64.5264 31.5448 64.4016 31.501 64.2921L30.0683 60.7104C30.0221 60.5949 29.9103 60.5192 29.7859 60.5192H11.6323C11.503 60.5192 11.3879 60.6009 11.3452 60.7229L10.094 64.2979C10.0566 64.4046 10.0815 64.5232 10.1587 64.6059L12.7096 67.339C12.7671 67.4006 12.8476 67.4356 12.9319 67.4356Z" stroke="black" stroke-linecap="round"/>
<path d="M22.8374 61.7049H18.7357C18.6114 61.7049 18.4977 61.7803 18.4608 61.8991C17.9121 63.6679 19.7276 64.8793 20.571 65.3816C20.6545 65.4313 20.7575 65.4364 20.8455 65.3953C23.0196 64.3824 23.2435 62.7986 23.1201 61.9376C23.1003 61.7994 22.977 61.7049 22.8374 61.7049Z" stroke="black" stroke-linecap="round"/>
<path d="M12.8008 67.4356C12.8008 69.6183 14.5702 71.3878 16.753 71.3878H25.0526C27.2354 71.3878 29.0048 69.6183 29.0048 67.4356" stroke="black" stroke-linecap="round"/>
<path d="M12.8008 67.4356V73.893C12.8008 77.4206 15.6605 80.2803 19.1881 80.2803H22.6176C26.1451 80.2803 29.0048 77.4206 29.0048 73.893V67.6332" stroke="black" stroke-linecap="round"/>
<path d="M16.9492 80.0192V83.2444C16.9492 85.4272 18.7187 87.1966 20.9014 87.1966C23.0842 87.1966 24.8536 85.4272 24.8536 83.2444V80.0192" stroke="black" stroke-linecap="round"/>
<path d="M14.1816 81.0707H16.7506" stroke="black" stroke-linecap="round"/>
<path d="M25.25 81.0707H27.2261" stroke="black" stroke-linecap="round"/>
<path d="M16.4553 93.7178H13.8864C13.0678 93.7178 12.4043 94.3813 12.4043 95.1999C12.4043 96.0184 13.0678 96.6819 13.8864 96.6819H16.4553C17.2738 96.6819 17.9374 96.0184 17.9374 95.1999C17.9374 94.3813 17.2738 93.7178 16.4553 93.7178Z" stroke="black" stroke-linecap="round"/>
<path d="M108.049 73.6699C110.722 73.865 114.051 72.0273 115.568 70.9542C115.662 70.8882 115.787 70.8902 115.878 70.9585C118.583 72.9748 121.723 73.5715 123.201 73.6343C123.343 73.6404 123.457 73.7549 123.457 73.8965V80.286C123.457 85.4594 118.407 88.7813 115.833 90.14C115.763 90.1766 115.682 90.1777 115.611 90.1449C110.762 87.9182 108.107 83.8725 107.758 80.286V73.9328C107.758 73.7778 107.894 73.6586 108.049 73.6699Z" stroke="black" stroke-linecap="round"/>
<path d="M113.135 80.6267L115.07 82.5622L119.264 78.1536" stroke="black" stroke-linecap="round"/>
<path d="M103.825 68.338C103.935 68.5752 104.16 68.739 104.42 68.7706L105.794 68.9366L104.78 69.8799C104.589 70.0581 104.503 70.3225 104.554 70.5792L104.819 71.9376L103.609 71.2647C103.381 71.1377 103.103 71.1376 102.874 71.2647L101.664 71.9366L101.931 70.5792C101.981 70.3224 101.895 70.0581 101.703 69.8799L100.688 68.9366L102.063 68.7706C102.323 68.7391 102.549 68.5753 102.659 68.338L103.242 67.0811L103.825 68.338Z" stroke="black"/>
<path d="M116.083 62.9616C116.193 63.1988 116.418 63.3627 116.678 63.3942L118.052 63.5602L117.038 64.5036C116.847 64.6818 116.761 64.9462 116.812 65.2028L117.077 66.5612L115.867 65.8884C115.639 65.7613 115.36 65.7612 115.132 65.8884L113.922 66.5602L114.188 65.2028C114.239 64.9461 114.153 64.6817 113.961 64.5036L112.946 63.5602L114.321 63.3942C114.581 63.3627 114.807 63.1989 114.917 62.9616L115.5 61.7048L116.083 62.9616Z" stroke="black"/>
<path d="M128.556 68.338C128.666 68.5752 128.891 68.739 129.15 68.7706L130.524 68.9366L129.511 69.8799C129.319 70.0581 129.234 70.3225 129.284 70.5792L129.55 71.9376L128.34 71.2647C128.111 71.1377 127.833 71.1376 127.604 71.2647L126.395 71.9366L126.661 70.5792C126.711 70.3224 126.625 70.0581 126.434 69.8799L125.419 68.9366L126.794 68.7706C127.054 68.7391 127.279 68.5753 127.39 68.338L127.973 67.0811L128.556 68.338Z" stroke="black"/>
<path d="M132.856 78.2304C132.967 78.4677 133.192 78.6315 133.451 78.6631L134.825 78.8291L133.812 79.7724C133.62 79.9506 133.535 80.215 133.585 80.4716L133.851 81.83L132.641 81.1572C132.412 81.0302 132.134 81.03 131.905 81.1572L130.695 81.8291L130.962 80.4716C131.012 80.2149 130.926 79.9506 130.734 79.7724L129.72 78.8291L131.095 78.6631C131.354 78.6316 131.58 78.4678 131.69 78.2304L132.273 76.9736L132.856 78.2304Z" stroke="black"/>
<path d="M99.9541 78.2304C100.064 78.4677 100.289 78.6315 100.549 78.6631L101.923 78.8291L100.909 79.7724C100.718 79.9506 100.632 80.215 100.683 80.4716L100.948 81.83L99.7383 81.1572C99.5097 81.0302 99.2315 81.03 99.0029 81.1572L97.793 81.8291L98.0596 80.4716C98.1099 80.2149 98.0237 79.9506 97.832 79.7724L96.8174 78.8291L98.1924 78.6631C98.4522 78.6316 98.6779 78.4678 98.7881 78.2304L99.3711 76.9736L99.9541 78.2304Z" stroke="black"/>
<path d="M103.825 89.8433C103.935 90.0806 104.16 90.2444 104.42 90.2759L105.794 90.442L104.78 91.3853C104.589 91.5635 104.503 91.8279 104.554 92.0845L104.819 93.4429L103.609 92.7701C103.381 92.6431 103.103 92.6429 102.874 92.7701L101.664 93.442L101.931 92.0845C101.981 91.8278 101.895 91.5635 101.703 91.3853L100.688 90.442L102.063 90.2759C102.323 90.2445 102.549 90.0806 102.659 89.8433L103.242 88.5865L103.825 89.8433Z" stroke="black"/>
<path d="M116.083 95.2197C116.193 95.4569 116.418 95.6207 116.678 95.6523L118.052 95.8183L117.038 96.7617C116.847 96.9398 116.761 97.2042 116.812 97.4609L117.077 98.8193L115.867 98.1464C115.639 98.0194 115.36 98.0193 115.132 98.1464L113.922 98.8183L114.188 97.4609C114.239 97.2041 114.153 96.9398 113.961 96.7617L112.946 95.8183L114.321 95.6523C114.581 95.6208 114.807 95.457 114.917 95.2197L115.5 93.9628L116.083 95.2197Z" stroke="black"/>
<path d="M128.985 89.8433C129.096 90.0806 129.32 90.2444 129.58 90.2759L130.954 90.442L129.94 91.3853C129.749 91.5635 129.664 91.8279 129.714 92.0845L129.979 93.4429L128.77 92.7701C128.541 92.6431 128.263 92.6429 128.034 92.7701L126.824 93.442L127.091 92.0845C127.141 91.8278 127.055 91.5635 126.863 91.3853L125.849 90.442L127.224 90.2759C127.483 90.2445 127.709 90.0806 127.819 89.8433L128.402 88.5865L128.985 89.8433Z" stroke="black"/>
<rect x="190.432" y="91.7899" width="32.633" height="7.22936" stroke="black"/>
<path d="M194.762 91.6477V81.5399C194.762 74.8706 200.168 69.4642 206.837 69.4642C213.507 69.4642 218.913 74.8706 218.913 81.5399V91.6477" stroke="black" stroke-linecap="round"/>
<path d="M195.297 63.0238L197.98 69.1064" stroke="black" stroke-linecap="round"/>
<path d="M218.893 63.9445L214.462 68.9013" stroke="black" stroke-linecap="round"/>
<path d="M225.111 70.1798L219.293 73.3962" stroke="black" stroke-linecap="round"/>
<path d="M188.5 70.1798L194.318 73.3962" stroke="black" stroke-linecap="round"/>
<path d="M206.738 60.5192L206.691 67.1673" stroke="black" stroke-linecap="round"/>
<path d="M199.055 81.0926C199.293 78.4688 201.309 73.3642 207.463 73.9366" stroke="black" stroke-linecap="round"/>
<path d="M207.106 88.0697C210.683 86.9963 213.545 85.5651 213.545 81.4504" stroke="black" stroke-linecap="round"/>
<path d="M18.0486 124.342H3.28821C1.74833 124.342 0.5 125.59 0.5 127.13V150.731C0.5 152.271 1.74833 153.519 3.28821 153.519H42.3232C43.8631 153.519 45.1114 152.271 45.1114 150.731V127.13C45.1114 125.59 43.8631 124.342 42.3232 124.342H27.14" stroke="black" stroke-linecap="round"/>
<path d="M3.88281 133.645H16.3571" stroke="black" stroke-linecap="round"/>
<path d="M4.09375 137.239H16.568" stroke="black" stroke-linecap="round"/>
<path d="M4.09375 141.045H16.568" stroke="black" stroke-linecap="round"/>
<circle cx="33.0611" cy="134.491" r="4.78571" stroke="black"/>
<path d="M26.0947 149.925C25.9537 147.106 27.1518 141.426 33.0718 141.256C35.468 141.186 40.2181 142.821 40.049 149.925" stroke="black" stroke-linecap="round"/>
<path d="M26.6858 116.519H18.5028C18.3103 116.519 18.1543 116.675 18.1543 116.868V124.765C18.1543 127.217 20.1422 129.205 22.5943 129.205C25.0464 129.205 27.0343 127.217 27.0343 124.765V116.868C27.0343 116.675 26.8783 116.519 26.6858 116.519Z" stroke="black" stroke-linecap="round"/>
<circle cx="22.7002" cy="124.554" r="2.11429" fill="black"/>
<path d="M114.911 134.481C113.032 135.841 108.248 137.588 104.039 133.795C103.972 133.735 103.88 133.709 103.793 133.733C100.963 134.504 95.5828 137.395 95.5009 143.17C95.4998 143.253 95.536 143.331 95.6032 143.38C98.1295 145.221 105.693 148.297 116.676 146.441" stroke="black" stroke-linecap="round"/>
<path d="M117.461 142.288V132.462C117.461 132.375 117.504 132.293 117.576 132.244C124.826 127.239 132.391 130.108 135.393 132.247C135.462 132.296 135.499 132.374 135.499 132.459V142.295C135.499 142.314 135.498 142.333 135.494 142.351C134.552 146.659 129.272 150.811 126.615 152.438C126.531 152.489 126.426 152.487 126.342 152.435C120.515 148.86 118.009 144.258 117.47 142.357C117.464 142.334 117.461 142.311 117.461 142.288Z" stroke="black" stroke-linecap="round"/>
<path d="M119.619 141.912V134.6C119.619 134.514 119.662 134.432 119.733 134.383C125.061 130.68 130.613 132.79 132.846 134.386C132.914 134.435 132.952 134.513 132.952 134.597V141.919C132.952 141.938 132.95 141.956 132.946 141.974C132.251 145.176 128.396 148.262 126.422 149.494C126.338 149.547 126.231 149.545 126.147 149.492C121.874 146.825 120.03 143.404 119.628 141.98C119.622 141.957 119.619 141.935 119.619 141.912Z" stroke="black" stroke-linecap="round"/>
<path d="M122.754 139.579L125.108 142.114C125.213 142.227 125.392 142.227 125.497 142.113L130.205 137.03" stroke="black" stroke-linecap="round"/>
<circle cx="110.009" cy="123.893" r="7.93105" stroke="black"/>
<path d="M206.961 136.144C209.819 136.333 213.359 134.387 214.993 133.237C215.106 133.157 215.256 133.16 215.367 133.242C218.252 135.382 221.59 136.027 223.191 136.102C223.362 136.11 223.501 136.248 223.501 136.419V143.253C223.501 148.805 218.086 152.373 215.312 153.838C215.228 153.882 215.13 153.884 215.044 153.844C209.837 151.449 206.984 147.105 206.609 143.253V136.463C206.609 136.276 206.774 136.132 206.961 136.144Z" stroke="black" stroke-linecap="round"/>
<path d="M212.584 144.328L214.232 146.285L218.558 141.856" stroke="black" stroke-linecap="round"/>
<path d="M211.451 133.616V118.999C211.451 117.63 210.341 116.519 208.971 116.519H194.98C193.61 116.519 192.5 117.63 192.5 118.999V148.646C192.5 150.015 193.61 151.126 194.98 151.126H206.919" stroke="black" stroke-linecap="round"/>
<path d="M192.602 145.667H205.476" stroke="black" stroke-linecap="round"/>
<path d="M200.223 148.448H203.416" stroke="black" stroke-linecap="round"/>
<path d="M200.93 118.474H203.129" stroke="black" stroke-linecap="round"/>
</svg>
