<svg width="1300" height="364" viewBox="0 0 1300 364" fill="none" xmlns="http://www.w3.org/2000/svg">
<g clip-path="url(#clip0_1789_3635)">
<path d="M109.723 0H14.3794C10.2003 0 6.8125 2.23858 6.8125 5V68C6.8125 70.7614 10.2003 73 14.3794 73H109.723C113.902 73 117.29 70.7614 117.29 68V5C117.29 2.23858 113.902 0 109.723 0Z" fill="#F2F2F2"/>
<path d="M280.863 0H185.52C181.341 0 177.953 2.23858 177.953 5V68C177.953 70.7614 181.341 73 185.52 73H280.863C285.043 73 288.43 70.7614 288.43 68V5C288.43 2.23858 285.043 0 280.863 0Z" fill="#F2F2F2"/>
<path d="M452.008 0H356.665C352.485 0 349.098 2.23858 349.098 5V68C349.098 70.7614 352.485 73 356.665 73H452.008C456.187 73 459.575 70.7614 459.575 68V5C459.575 2.23858 456.187 0 452.008 0Z" fill="#F2F2F2"/>
<path d="M623.153 0H527.809C523.63 0 520.242 2.23858 520.242 5V68C520.242 70.7614 523.63 73 527.809 73H623.153C627.332 73 630.719 70.7614 630.719 68V5C630.719 2.23858 627.332 0 623.153 0Z" fill="#F2F2F2"/>
<path d="M794.293 0H698.95C694.771 0 691.383 2.23858 691.383 5V68C691.383 70.7614 694.771 73 698.95 73H794.293C798.472 73 801.86 70.7614 801.86 68V5C801.86 2.23858 798.472 0 794.293 0Z" fill="#F2F2F2"/>
<path d="M965.438 0H870.094C865.915 0 862.527 2.23858 862.527 5V68C862.527 70.7614 865.915 73 870.094 73H965.438C969.617 73 973.005 70.7614 973.005 68V5C973.005 2.23858 969.617 0 965.438 0Z" fill="#F2F2F2"/>
<path d="M1136.58 0H1041.23C1037.06 0 1033.67 2.23858 1033.67 5V68C1033.67 70.7614 1037.06 73 1041.23 73H1136.58C1140.76 73 1144.15 70.7614 1144.15 68V5C1144.15 2.23858 1140.76 0 1136.58 0Z" fill="#F2F2F2"/>
<path d="M1307.72 0H1212.38C1208.2 0 1204.81 2.23858 1204.81 5V68C1204.81 70.7614 1208.2 73 1212.38 73H1307.72C1311.9 73 1315.29 70.7614 1315.29 68V5C1315.29 2.23858 1311.9 0 1307.72 0Z" fill="#F2F2F2"/>
<path d="M109.723 103H14.3794C10.2003 103 6.8125 105.239 6.8125 108V171C6.8125 173.761 10.2003 176 14.3794 176H109.723C113.902 176 117.29 173.761 117.29 171V108C117.29 105.239 113.902 103 109.723 103Z" fill="#F2F2F2"/>
<path d="M280.863 103H185.52C181.341 103 177.953 105.239 177.953 108V171C177.953 173.761 181.341 176 185.52 176H280.863C285.043 176 288.43 173.761 288.43 171V108C288.43 105.239 285.043 103 280.863 103Z" fill="#F2F2F2"/>
<path d="M452.008 103H356.665C352.485 103 349.098 105.239 349.098 108V171C349.098 173.761 352.485 176 356.665 176H452.008C456.187 176 459.575 173.761 459.575 171V108C459.575 105.239 456.187 103 452.008 103Z" fill="#F2F2F2"/>
<path d="M623.153 103H527.809C523.63 103 520.242 105.239 520.242 108V171C520.242 173.761 523.63 176 527.809 176H623.153C627.332 176 630.719 173.761 630.719 171V108C630.719 105.239 627.332 103 623.153 103Z" fill="#F2F2F2"/>
<path d="M794.293 103H698.95C694.771 103 691.383 105.239 691.383 108V171C691.383 173.761 694.771 176 698.95 176H794.293C798.472 176 801.86 173.761 801.86 171V108C801.86 105.239 798.472 103 794.293 103Z" fill="#F2F2F2"/>
<path d="M965.438 103H870.094C865.915 103 862.527 105.239 862.527 108V171C862.527 173.761 865.915 176 870.094 176H965.438C969.617 176 973.005 173.761 973.005 171V108C973.005 105.239 969.617 103 965.438 103Z" fill="#F2F2F2"/>
<path d="M1136.58 103H1041.23C1037.06 103 1033.67 105.239 1033.67 108V171C1033.67 173.761 1037.06 176 1041.23 176H1136.58C1140.76 176 1144.15 173.761 1144.15 171V108C1144.15 105.239 1140.76 103 1136.58 103Z" fill="#F2F2F2"/>
<path d="M1307.72 103H1212.38C1208.2 103 1204.81 105.239 1204.81 108V171C1204.81 173.761 1208.2 176 1212.38 176H1307.72C1311.9 176 1315.29 173.761 1315.29 171V108C1315.29 105.239 1311.9 103 1307.72 103Z" fill="#F2F2F2"/>
<path d="M109.723 206H14.3794C10.2003 206 6.8125 208.239 6.8125 211V274C6.8125 276.761 10.2003 279 14.3794 279H109.723C113.902 279 117.29 276.761 117.29 274V211C117.29 208.239 113.902 206 109.723 206Z" fill="#F2F2F2"/>
<path d="M280.863 206H185.52C181.341 206 177.953 208.239 177.953 211V274C177.953 276.761 181.341 279 185.52 279H280.863C285.043 279 288.43 276.761 288.43 274V211C288.43 208.239 285.043 206 280.863 206Z" fill="#F2F2F2"/>
<path d="M452.008 206H356.665C352.485 206 349.098 208.239 349.098 211V274C349.098 276.761 352.485 279 356.665 279H452.008C456.187 279 459.575 276.761 459.575 274V211C459.575 208.239 456.187 206 452.008 206Z" fill="#F2F2F2"/>
<path d="M623.153 206H527.809C523.63 206 520.242 208.239 520.242 211V274C520.242 276.761 523.63 279 527.809 279H623.153C627.332 279 630.719 276.761 630.719 274V211C630.719 208.239 627.332 206 623.153 206Z" fill="#F2F2F2"/>
<path d="M794.293 206H698.95C694.771 206 691.383 208.239 691.383 211V274C691.383 276.761 694.771 279 698.95 279H794.293C798.472 279 801.86 276.761 801.86 274V211C801.86 208.239 798.472 206 794.293 206Z" fill="#F2F2F2"/>
<path d="M965.438 206H870.094C865.915 206 862.527 208.239 862.527 211V274C862.527 276.761 865.915 279 870.094 279H965.438C969.617 279 973.005 276.761 973.005 274V211C973.005 208.239 969.617 206 965.438 206Z" fill="#F2F2F2"/>
<path d="M1136.58 206H1041.23C1037.06 206 1033.67 208.239 1033.67 211V274C1033.67 276.761 1037.06 279 1041.23 279H1136.58C1140.76 279 1144.15 276.761 1144.15 274V211C1144.15 208.239 1140.76 206 1136.58 206Z" fill="#F2F2F2"/>
<path d="M1307.72 206H1212.38C1208.2 206 1204.81 208.239 1204.81 211V274C1204.81 276.761 1208.2 279 1212.38 279H1307.72C1311.9 279 1315.29 276.761 1315.29 274V211C1315.29 208.239 1311.9 206 1307.72 206Z" fill="#F2F2F2"/>
<path d="M109.723 309H14.3794C10.2003 309 6.8125 311.239 6.8125 314V377C6.8125 379.761 10.2003 382 14.3794 382H109.723C113.902 382 117.29 379.761 117.29 377V314C117.29 311.239 113.902 309 109.723 309Z" fill="#F2F2F2"/>
<path d="M280.863 309H185.52C181.341 309 177.953 311.239 177.953 314V377C177.953 379.761 181.341 382 185.52 382H280.863C285.043 382 288.43 379.761 288.43 377V314C288.43 311.239 285.043 309 280.863 309Z" fill="#F2F2F2"/>
<path d="M452.008 309H356.665C352.485 309 349.098 311.239 349.098 314V377C349.098 379.761 352.485 382 356.665 382H452.008C456.187 382 459.575 379.761 459.575 377V314C459.575 311.239 456.187 309 452.008 309Z" fill="#F2F2F2"/>
<path d="M623.153 309H527.809C523.63 309 520.242 311.239 520.242 314V377C520.242 379.761 523.63 382 527.809 382H623.153C627.332 382 630.719 379.761 630.719 377V314C630.719 311.239 627.332 309 623.153 309Z" fill="#F2F2F2"/>
<path d="M794.293 309H698.95C694.771 309 691.383 311.239 691.383 314V377C691.383 379.761 694.771 382 698.95 382H794.293C798.472 382 801.86 379.761 801.86 377V314C801.86 311.239 798.472 309 794.293 309Z" fill="#F2F2F2"/>
<path d="M965.438 309H870.094C865.915 309 862.527 311.239 862.527 314V377C862.527 379.761 865.915 382 870.094 382H965.438C969.617 382 973.005 379.761 973.005 377V314C973.005 311.239 969.617 309 965.438 309Z" fill="#F2F2F2"/>
<path d="M1136.58 309H1041.23C1037.06 309 1033.67 311.239 1033.67 314V377C1033.67 379.761 1037.06 382 1041.23 382H1136.58C1140.76 382 1144.15 379.761 1144.15 377V314C1144.15 311.239 1140.76 309 1136.58 309Z" fill="#F2F2F2"/>
<path d="M1307.72 309H1212.38C1208.2 309 1204.81 311.239 1204.81 314V377C1204.81 379.761 1208.2 382 1212.38 382H1307.72C1311.9 382 1315.29 379.761 1315.29 377V314C1315.29 311.239 1311.9 309 1307.72 309Z" fill="#F2F2F2"/>
</g>
<defs>
<clipPath id="clip0_1789_3635">
<rect width="1300" height="364" fill="white"/>
</clipPath>
</defs>
</svg>
