<svg width="1500" height="364" viewBox="0 0 1500 364" fill="none" xmlns="http://www.w3.org/2000/svg">
<g clip-path="url(#clip0_1789_3635)">
<path d="M126.602 0H16.5905C11.7684 0 7.85938 2.23858 7.85938 5V68C7.85938 70.7614 11.7684 73 16.5905 73H126.602C131.424 73 135.333 70.7614 135.333 68V5C135.333 2.23858 131.424 0 126.602 0Z" fill="#F2F2F2"/>
<path d="M324.075 0H214.063C209.241 0 205.332 2.23858 205.332 5V68C205.332 70.7614 209.241 73 214.063 73H324.075C328.897 73 332.806 70.7614 332.806 68V5C332.806 2.23858 328.897 0 324.075 0Z" fill="#F2F2F2"/>
<path d="M521.547 0H411.536C406.714 0 402.805 2.23858 402.805 5V68C402.805 70.7614 406.714 73 411.536 73H521.547C526.369 73 530.278 70.7614 530.278 68V5C530.278 2.23858 526.369 0 521.547 0Z" fill="#F2F2F2"/>
<path d="M719.02 0H609.008C604.186 0 600.277 2.23858 600.277 5V68C600.277 70.7614 604.186 73 609.008 73H719.02C723.842 73 727.751 70.7614 727.751 68V5C727.751 2.23858 723.842 0 719.02 0Z" fill="#F2F2F2"/>
<path d="M916.493 0H806.481C801.659 0 797.75 2.23858 797.75 5V68C797.75 70.7614 801.659 73 806.481 73H916.493C921.315 73 925.224 70.7614 925.224 68V5C925.224 2.23858 921.315 0 916.493 0Z" fill="#F2F2F2"/>
<path d="M1113.97 0H1003.95C999.132 0 995.223 2.23858 995.223 5V68C995.223 70.7614 999.132 73 1003.95 73H1113.97C1118.79 73 1122.7 70.7614 1122.7 68V5C1122.7 2.23858 1118.79 0 1113.97 0Z" fill="#F2F2F2"/>
<path d="M1311.44 0H1201.43C1196.6 0 1192.7 2.23858 1192.7 5V68C1192.7 70.7614 1196.6 73 1201.43 73H1311.44C1316.26 73 1320.17 70.7614 1320.17 68V5C1320.17 2.23858 1316.26 0 1311.44 0Z" fill="#F2F2F2"/>
<path d="M1508.91 0H1398.9C1394.08 0 1390.17 2.23858 1390.17 5V68C1390.17 70.7614 1394.08 73 1398.9 73H1508.91C1513.73 73 1517.64 70.7614 1517.64 68V5C1517.64 2.23858 1513.73 0 1508.91 0Z" fill="#F2F2F2"/>
<path d="M126.602 103H16.5905C11.7684 103 7.85938 105.239 7.85938 108V171C7.85938 173.761 11.7684 176 16.5905 176H126.602C131.424 176 135.333 173.761 135.333 171V108C135.333 105.239 131.424 103 126.602 103Z" fill="#F2F2F2"/>
<path d="M324.075 103H214.063C209.241 103 205.332 105.239 205.332 108V171C205.332 173.761 209.241 176 214.063 176H324.075C328.897 176 332.806 173.761 332.806 171V108C332.806 105.239 328.897 103 324.075 103Z" fill="#F2F2F2"/>
<path d="M521.547 103H411.536C406.714 103 402.805 105.239 402.805 108V171C402.805 173.761 406.714 176 411.536 176H521.547C526.369 176 530.278 173.761 530.278 171V108C530.278 105.239 526.369 103 521.547 103Z" fill="#F2F2F2"/>
<path d="M719.02 103H609.008C604.186 103 600.277 105.239 600.277 108V171C600.277 173.761 604.186 176 609.008 176H719.02C723.842 176 727.751 173.761 727.751 171V108C727.751 105.239 723.842 103 719.02 103Z" fill="#F2F2F2"/>
<path d="M916.493 103H806.481C801.659 103 797.75 105.239 797.75 108V171C797.75 173.761 801.659 176 806.481 176H916.493C921.315 176 925.224 173.761 925.224 171V108C925.224 105.239 921.315 103 916.493 103Z" fill="#F2F2F2"/>
<path d="M1113.97 103H1003.95C999.132 103 995.223 105.239 995.223 108V171C995.223 173.761 999.132 176 1003.95 176H1113.97C1118.79 176 1122.7 173.761 1122.7 171V108C1122.7 105.239 1118.79 103 1113.97 103Z" fill="#F2F2F2"/>
<path d="M1311.44 103H1201.43C1196.6 103 1192.7 105.239 1192.7 108V171C1192.7 173.761 1196.6 176 1201.43 176H1311.44C1316.26 176 1320.17 173.761 1320.17 171V108C1320.17 105.239 1316.26 103 1311.44 103Z" fill="#F2F2F2"/>
<path d="M1508.91 103H1398.9C1394.08 103 1390.17 105.239 1390.17 108V171C1390.17 173.761 1394.08 176 1398.9 176H1508.91C1513.73 176 1517.64 173.761 1517.64 171V108C1517.64 105.239 1513.73 103 1508.91 103Z" fill="#F2F2F2"/>
<path d="M126.602 206H16.5905C11.7684 206 7.85938 208.239 7.85938 211V274C7.85938 276.761 11.7684 279 16.5905 279H126.602C131.424 279 135.333 276.761 135.333 274V211C135.333 208.239 131.424 206 126.602 206Z" fill="#F2F2F2"/>
<path d="M324.075 206H214.063C209.241 206 205.332 208.239 205.332 211V274C205.332 276.761 209.241 279 214.063 279H324.075C328.897 279 332.806 276.761 332.806 274V211C332.806 208.239 328.897 206 324.075 206Z" fill="#F2F2F2"/>
<path d="M521.547 206H411.536C406.714 206 402.805 208.239 402.805 211V274C402.805 276.761 406.714 279 411.536 279H521.547C526.369 279 530.278 276.761 530.278 274V211C530.278 208.239 526.369 206 521.547 206Z" fill="#F2F2F2"/>
<path d="M719.02 206H609.008C604.186 206 600.277 208.239 600.277 211V274C600.277 276.761 604.186 279 609.008 279H719.02C723.842 279 727.751 276.761 727.751 274V211C727.751 208.239 723.842 206 719.02 206Z" fill="#F2F2F2"/>
<path d="M916.493 206H806.481C801.659 206 797.75 208.239 797.75 211V274C797.75 276.761 801.659 279 806.481 279H916.493C921.315 279 925.224 276.761 925.224 274V211C925.224 208.239 921.315 206 916.493 206Z" fill="#F2F2F2"/>
<path d="M1113.97 206H1003.95C999.132 206 995.223 208.239 995.223 211V274C995.223 276.761 999.132 279 1003.95 279H1113.97C1118.79 279 1122.7 276.761 1122.7 274V211C1122.7 208.239 1118.79 206 1113.97 206Z" fill="#F2F2F2"/>
<path d="M1311.44 206H1201.43C1196.6 206 1192.7 208.239 1192.7 211V274C1192.7 276.761 1196.6 279 1201.43 279H1311.44C1316.26 279 1320.17 276.761 1320.17 274V211C1320.17 208.239 1316.26 206 1311.44 206Z" fill="#F2F2F2"/>
<path d="M1508.91 206H1398.9C1394.08 206 1390.17 208.239 1390.17 211V274C1390.17 276.761 1394.08 279 1398.9 279H1508.91C1513.73 279 1517.64 276.761 1517.64 274V211C1517.64 208.239 1513.73 206 1508.91 206Z" fill="#F2F2F2"/>
<path d="M126.602 309H16.5905C11.7684 309 7.85938 311.239 7.85938 314V377C7.85938 379.761 11.7684 382 16.5905 382H126.602C131.424 382 135.333 379.761 135.333 377V314C135.333 311.239 131.424 309 126.602 309Z" fill="#F2F2F2"/>
<path d="M324.075 309H214.063C209.241 309 205.332 311.239 205.332 314V377C205.332 379.761 209.241 382 214.063 382H324.075C328.897 382 332.806 379.761 332.806 377V314C332.806 311.239 328.897 309 324.075 309Z" fill="#F2F2F2"/>
<path d="M521.547 309H411.536C406.714 309 402.805 311.239 402.805 314V377C402.805 379.761 406.714 382 411.536 382H521.547C526.369 382 530.278 379.761 530.278 377V314C530.278 311.239 526.369 309 521.547 309Z" fill="#F2F2F2"/>
<path d="M719.02 309H609.008C604.186 309 600.277 311.239 600.277 314V377C600.277 379.761 604.186 382 609.008 382H719.02C723.842 382 727.751 379.761 727.751 377V314C727.751 311.239 723.842 309 719.02 309Z" fill="#F2F2F2"/>
<path d="M916.493 309H806.481C801.659 309 797.75 311.239 797.75 314V377C797.75 379.761 801.659 382 806.481 382H916.493C921.315 382 925.224 379.761 925.224 377V314C925.224 311.239 921.315 309 916.493 309Z" fill="#F2F2F2"/>
<path d="M1113.97 309H1003.95C999.132 309 995.223 311.239 995.223 314V377C995.223 379.761 999.132 382 1003.95 382H1113.97C1118.79 382 1122.7 379.761 1122.7 377V314C1122.7 311.239 1118.79 309 1113.97 309Z" fill="#F2F2F2"/>
<path d="M1311.44 309H1201.43C1196.6 309 1192.7 311.239 1192.7 314V377C1192.7 379.761 1196.6 382 1201.43 382H1311.44C1316.26 382 1320.17 379.761 1320.17 377V314C1320.17 311.239 1316.26 309 1311.44 309Z" fill="#F2F2F2"/>
<path d="M1508.91 309H1398.9C1394.08 309 1390.17 311.239 1390.17 314V377C1390.17 379.761 1394.08 382 1398.9 382H1508.91C1513.73 382 1517.64 379.761 1517.64 377V314C1517.64 311.239 1513.73 309 1508.91 309Z" fill="#F2F2F2"/>
</g>
<defs>
<clipPath id="clip0_1789_3635">
<rect width="1500" height="364" fill="white"/>
</clipPath>
</defs>
</svg>
