<svg width="260" height="178" viewBox="0 0 260 178" fill="none" xmlns="http://www.w3.org/2000/svg">
<path d="M15.5729 29.6168C16.2013 29.6168 16.7106 30.1262 16.7106 30.7545C16.7106 31.3829 16.2013 31.8923 15.5729 31.8923H12.2862C11.6578 31.8923 11.1484 31.3829 11.1484 30.7545C11.1484 30.1262 11.6578 29.6168 12.2862 29.6168H15.5729Z" fill="black"/>
<path d="M17.8458 34.5469H42.6229V29.996H17.8458V34.5469ZM44.8983 34.7998C44.8983 35.9168 43.9928 36.8224 42.8757 36.8224H17.5929L17.4887 36.8197C16.4201 36.7654 15.5703 35.8819 15.5703 34.7998V29.7432C15.5703 28.6261 16.4759 27.7206 17.5929 27.7206H42.8757C43.9928 27.7206 44.8983 28.6261 44.8983 29.7432V34.7998Z" fill="black"/>
<path d="M17.8458 41.3732H42.6229V36.8223H17.8458V41.3732ZM44.8983 41.626C44.8983 42.7431 43.9928 43.6487 42.8757 43.6487H17.5929L17.4887 43.646C16.4201 43.5917 15.5703 42.7082 15.5703 41.626V36.5695C15.5703 35.4524 16.4759 34.5469 17.5929 34.5469H42.8757C43.9928 34.5469 44.8983 35.4524 44.8983 36.5695V41.626Z" fill="black"/>
<path d="M25.3074 8C34.3137 8 41.6148 15.3011 41.6148 24.3074C41.6148 25.478 41.4912 26.6198 41.2568 27.7206H38.9211C39.1941 26.6279 39.3393 25.4846 39.3393 24.3074C39.3393 16.5578 33.057 10.2754 25.3074 10.2754C17.5578 10.2754 11.2754 16.5578 11.2754 24.3074C11.2754 28.2769 12.924 31.8611 15.5735 34.4136V34.7997C15.5735 35.1171 15.6467 35.4173 15.777 35.6846C15.6467 35.9519 15.5735 36.2522 15.5735 36.5695V37.3922C11.5839 34.4195 9 29.6652 9 24.3074C9 15.3011 16.3011 8 25.3074 8Z" fill="black"/>
<path d="M21.6986 9.40312C22.0407 8.87609 22.7453 8.72624 23.2723 9.06832C23.7994 9.41043 23.9493 10.115 23.6071 10.6421C22.1823 12.8371 19.4189 19.573 20.4949 28.0835C20.5738 28.7069 20.1322 29.2762 19.5088 29.355C18.8855 29.4338 18.3163 28.9922 18.2375 28.3689C17.0887 19.2827 20.0052 12.0119 21.6986 9.40312Z" fill="black"/>
<path d="M29.1686 9.40312C28.8265 8.87609 28.1219 8.72624 27.5948 9.06832C27.0678 9.41043 26.9179 10.115 27.2601 10.6421C28.6848 12.8371 31.4483 19.573 30.3723 28.0835C30.2934 28.7069 30.735 29.2762 31.3584 29.355C31.9817 29.4338 32.5509 28.9922 32.6297 28.3689C33.7785 19.2827 30.862 12.0119 29.1686 9.40312Z" fill="black"/>
<path d="M38.3274 16.8489C38.9558 16.8489 39.4651 17.3583 39.4651 17.9866C39.4651 18.6149 38.9558 19.1243 38.3274 19.1243H12.2862C11.6578 19.1243 11.1484 18.6149 11.1484 17.9866C11.1484 17.3583 11.6578 16.8489 12.2862 16.8489H38.3274Z" fill="black"/>
<path d="M18.9883 32.7771V31.7658C18.9883 31.1374 19.4977 30.6281 20.126 30.6281C20.7544 30.6281 21.2637 31.1374 21.2637 31.7658V32.7771C21.2637 33.4054 20.7544 33.9148 20.126 33.9148C19.4977 33.9148 18.9883 33.4054 18.9883 32.7771Z" fill="black"/>
<path d="M18.9883 39.6034V38.5921C18.9883 37.9637 19.4977 37.4543 20.126 37.4543C20.7544 37.4543 21.2637 37.9637 21.2637 38.5921V39.6034C21.2637 40.2317 20.7544 40.7411 20.126 40.7411C19.4977 40.7411 18.9883 40.2317 18.9883 39.6034Z" fill="black"/>
<path d="M22.0195 32.7771V31.7658C22.0195 31.1374 22.5289 30.6281 23.1573 30.6281C23.7856 30.6281 24.295 31.1374 24.295 31.7658V32.7771C24.295 33.4054 23.7856 33.9148 23.1573 33.9148C22.5289 33.9148 22.0195 33.4054 22.0195 32.7771Z" fill="black"/>
<path d="M22.0195 39.6034V38.5921C22.0195 37.9637 22.5289 37.4543 23.1573 37.4543C23.7856 37.4543 24.295 37.9637 24.295 38.5921V39.6034C24.295 40.2317 23.7856 40.7411 23.1573 40.7411C22.5289 40.7411 22.0195 40.2317 22.0195 39.6034Z" fill="black"/>
<path d="M25.0547 32.7771V31.7658C25.0547 31.1374 25.5641 30.6281 26.1924 30.6281C26.8208 30.6281 27.3301 31.1374 27.3301 31.7658V32.7771C27.3301 33.4054 26.8208 33.9148 26.1924 33.9148C25.5641 33.9148 25.0547 33.4054 25.0547 32.7771Z" fill="black"/>
<path d="M25.0547 39.6034V38.5921C25.0547 37.9637 25.5641 37.4543 26.1924 37.4543C26.8208 37.4543 27.3301 37.9637 27.3301 38.5921V39.6034C27.3301 40.2317 26.8208 40.7411 26.1924 40.7411C25.5641 40.7411 25.0547 40.2317 25.0547 39.6034Z" fill="black"/>
<path d="M126.962 5.80735C127.23 12.3196 123.561 15.428 121.496 16.1715L121.254 16.2586L121.01 16.1773C118.563 15.3614 117.157 13.3801 116.39 11.3583C115.625 9.3403 115.453 7.18473 115.528 5.79783L115.592 4.60715L116.631 5.19163C119.088 6.57369 120.415 5.67601 120.675 5.3633L121.168 4.77157L121.741 5.28677C122.387 5.86871 123.159 6.00485 123.922 5.912C124.701 5.81716 125.413 5.48608 125.811 5.221L126.908 4.48926L126.962 5.80735ZM121.278 6.79224C120.405 7.38926 118.922 7.73972 117.009 7.00651C117.064 8.13778 117.281 9.52652 117.776 10.8323C118.422 12.5352 119.504 14.0072 121.23 14.6801C122.668 14.0342 125.289 11.7892 125.482 7.03609C125.066 7.19397 124.597 7.32336 124.101 7.38376C123.211 7.49207 122.198 7.3824 121.278 6.79224Z" fill="black"/>
<path d="M144.65 17.0625C144.65 17.8228 144.034 18.4391 143.274 18.4391H116.377C115.616 18.4391 115 17.8228 115 17.0625V10.9207C115 10.3943 115.427 9.96763 115.953 9.96763C116.479 9.96763 116.906 10.3943 116.906 10.9207V16.5331H142.744V11.0266H126.437C125.91 11.0266 125.483 10.5999 125.483 10.0735C125.483 9.54718 125.91 9.12048 126.437 9.12048H143.274C144.034 9.12048 144.65 9.73682 144.65 10.4971V17.0625Z" fill="black"/>
<path d="M116.906 26.6989H142.744V21.1925H116.906V26.6989ZM144.65 27.2284C144.65 27.9887 144.034 28.605 143.274 28.605H116.377C115.616 28.605 115 27.9887 115 27.2284V20.663C115 19.9027 115.616 19.2864 116.377 19.2864H143.274C144.034 19.2864 144.65 19.9027 144.65 20.663V27.2284Z" fill="black"/>
<path d="M116.906 37.0765H142.744V31.57H116.906V37.0765ZM144.65 37.606C144.65 38.3663 144.034 38.9826 143.274 38.9826H116.377C115.616 38.9826 115 38.3663 115 37.606V31.0406C115 30.2803 115.616 29.6639 116.377 29.6639H143.274C144.034 29.6639 144.65 30.2803 144.65 31.0406V37.606Z" fill="black"/>
<path d="M123.195 8.80265C123.546 8.59203 124.001 8.70582 124.212 9.05684C124.422 9.40788 124.309 9.86316 123.958 10.0738L120.643 12.0622C120.062 12.4113 119.306 12.1913 119.002 11.5844L118.36 10.2992C118.177 9.93307 118.325 9.4877 118.691 9.30462C119.057 9.12153 119.503 9.26999 119.686 9.63616L120.175 10.6144L123.195 8.80265Z" fill="black"/>
<path d="M127.385 42.2654C127.911 42.2654 128.338 42.6921 128.338 43.2184C128.338 43.7448 127.911 44.1715 127.385 44.1715H117.113C116.587 44.1715 116.16 43.7448 116.16 43.2184C116.16 42.6921 116.587 42.2654 117.113 42.2654H127.385Z" fill="black"/>
<path d="M142.002 42.2654C142.528 42.2654 142.955 42.6921 142.955 43.2184C142.955 43.7448 142.528 44.1715 142.002 44.1715H131.73C131.204 44.1715 130.777 43.7448 130.777 43.2184C130.777 42.6921 131.204 42.2654 131.73 42.2654H142.002Z" fill="black"/>
<path d="M128.766 40.571V37.9236C128.766 37.3973 129.192 36.9706 129.719 36.9706C130.245 36.9706 130.672 37.3973 130.672 37.9236V40.571C130.672 41.0973 130.245 41.524 129.719 41.524C129.192 41.524 128.766 41.0973 128.766 40.571Z" fill="black"/>
<path d="M128.766 19.3923V17.698C128.766 17.1717 129.192 16.745 129.719 16.745C130.245 16.745 130.672 17.1717 130.672 17.698V19.3923C130.672 19.9187 130.245 20.3454 129.719 20.3454C129.192 20.3454 128.766 19.9187 128.766 19.3923Z" fill="black"/>
<path d="M128.766 29.558V27.8637C128.766 27.3373 129.192 26.9106 129.719 26.9106C130.245 26.9106 130.672 27.3373 130.672 27.8637V29.558C130.672 30.0843 130.245 30.511 129.719 30.511C129.192 30.511 128.766 30.0843 128.766 29.558Z" fill="black"/>
<path d="M139.144 12.7208C139.67 12.7208 140.097 13.1475 140.097 13.6739C140.097 14.2002 139.67 14.6269 139.144 14.6269H131.519C130.993 14.6269 130.566 14.2002 130.566 13.6739C130.566 13.1475 130.993 12.7208 131.519 12.7208H139.144Z" fill="black"/>
<path d="M139.144 22.9926C139.67 22.9926 140.097 23.4192 140.097 23.9456C140.097 24.472 139.67 24.8986 139.144 24.8986H131.519C130.993 24.8986 130.566 24.472 130.566 23.9456C130.566 23.4192 130.993 22.9926 131.519 22.9926H139.144Z" fill="black"/>
<path d="M139.144 33.3702C139.67 33.3702 140.097 33.7969 140.097 34.3233C140.097 34.8496 139.67 35.2763 139.144 35.2763H131.519C130.993 35.2763 130.566 34.8496 130.566 34.3233C130.566 33.7969 130.993 33.3702 131.519 33.3702H139.144Z" fill="black"/>
<path d="M130.46 43.2183C130.46 42.7505 130.08 42.3712 129.613 42.3712C129.145 42.3712 128.765 42.7505 128.765 43.2183C128.765 43.6862 129.145 44.0655 129.613 44.0655V45.9716C128.092 45.9716 126.859 44.7389 126.859 43.2183C126.859 41.6978 128.092 40.4651 129.613 40.4651C131.133 40.4651 132.366 41.6978 132.366 43.2183C132.366 44.7389 131.133 45.9716 129.613 45.9716V44.0655C130.08 44.0655 130.46 43.6862 130.46 43.2183Z" fill="black"/>
<path d="M227.989 10.3018C231.739 10.3018 235.075 10.8689 237.428 11.7441C238.609 12.1836 239.474 12.6758 240.021 13.1562C240.568 13.6383 240.678 13.9962 240.678 14.2051C240.678 14.4139 240.569 14.7725 240.021 15.2549C239.474 15.7353 238.609 16.2266 237.428 16.666C235.075 17.5413 231.739 18.1094 227.989 18.1094C224.24 18.1094 220.903 17.5413 218.551 16.666C217.37 16.2267 216.505 15.7352 215.959 15.2549C215.411 14.7725 215.302 14.4139 215.302 14.2051C215.302 13.9962 215.411 13.6384 215.959 13.1562C216.505 12.6758 217.37 12.1836 218.551 11.7441C220.903 10.8689 224.24 10.3018 227.989 10.3018Z" stroke="black" stroke-width="2.60269"/>
<path d="M215.289 14.5306V35.5209C215.289 35.7939 215.4 36.0577 215.618 36.222C217.575 37.6973 222.571 39.2313 231.891 38.2802" stroke="black" stroke-width="2.60269" stroke-linecap="round"/>
<path d="M216.098 22.8197C218.118 23.8297 226.803 26.2536 239.529 23.4257" stroke="black" stroke-width="2.60269" stroke-linecap="round"/>
<path d="M215.691 29.8894C217.711 30.8994 223.933 32.6769 232.659 31.7074" stroke="black" stroke-width="2.60269" stroke-linecap="round"/>
<path d="M240.738 14.538V28.2736" stroke="black" stroke-width="2.60269" stroke-linecap="round"/>
<circle cx="240.538" cy="36.9593" r="8.59639" stroke="black" stroke-width="2.60269"/>
<path d="M237.508 37.5653L239.73 39.3832L243.972 35.1414" stroke="black" stroke-width="2.60269" stroke-linecap="round"/>
<path d="M26.9297 95.0374V92.6198C26.9297 91.9873 27.4424 91.4746 28.0749 91.4746C28.7074 91.4746 29.2201 91.9873 29.2201 92.6198V95.0374C29.2201 95.6699 28.7074 96.1826 28.0749 96.1826C27.4424 96.1826 26.9297 95.6699 26.9297 95.0374Z" fill="black"/>
<path d="M14.0091 77.4479C16.4458 76.3364 19.6334 76.3014 23.5206 77.81C24.1101 78.0388 24.4025 78.7023 24.1737 79.2919C23.9448 79.8815 23.2814 80.1738 22.6918 79.945C19.2018 78.5907 16.6812 78.7465 14.9597 79.5317C13.2351 80.3184 12.1228 81.8223 11.6104 83.5461C11.0927 85.2876 11.2198 87.1538 11.8698 88.5357C12.5012 89.8781 13.5804 90.7113 15.0899 90.7113H40.1567C42.6692 90.7113 44.5533 88.7894 44.78 86.6614C44.8904 85.6251 44.6093 84.5194 43.7625 83.528C42.9064 82.5255 41.4129 81.5751 39.0046 81.0104C38.3889 80.866 38.0068 80.2499 38.1511 79.6341C38.2955 79.0184 38.9117 78.6361 39.5275 78.7805C42.2753 79.4247 44.2514 80.5737 45.5042 82.0406C46.7663 83.5185 47.2334 85.2522 47.0574 86.9039C46.7115 90.1518 43.8846 93.0017 40.1567 93.0017H15.0899C12.5294 93.0017 10.7312 91.4965 9.79715 89.5107C8.88172 87.5644 8.75532 85.1125 9.41492 82.8935C10.0798 80.6569 11.5755 78.5579 14.0091 77.4479Z" fill="black"/>
<path d="M22.9216 69.4884C25.4422 68.0994 28.4579 67.7426 31.2954 68.1699C34.132 68.5971 36.8869 69.8219 38.894 71.7188C40.9186 73.6324 42.1922 76.2497 41.9366 79.3532C41.8847 79.9836 41.3318 80.4524 40.7015 80.4005C40.0712 80.3486 39.6023 79.7957 39.6542 79.1653C39.844 76.861 38.9226 74.8975 37.3208 73.3835C35.7014 71.8529 33.3983 70.8031 30.9544 70.435C28.5112 70.067 26.0236 70.3942 24.0271 71.4944C22.0619 72.5774 20.5037 74.443 19.9036 77.3293C19.7748 77.9485 19.1684 78.346 18.5491 78.2172C17.9299 78.0885 17.5322 77.4822 17.6609 76.863C18.3969 73.3235 20.3697 70.8946 22.9216 69.4884Z" fill="black"/>
<path d="M27.3138 97.7096H28.8407V96.6916H27.3138V97.7096ZM31.1311 98.473C31.1311 99.3163 30.4475 100 29.6042 100H26.5504C25.7071 100 25.0234 99.3163 25.0234 98.473V95.9282C25.0234 95.0849 25.7071 94.4012 26.5504 94.4012H29.6042C30.4475 94.4012 31.1311 95.0849 31.1311 95.9282V98.473Z" fill="black"/>
<path d="M41.1763 95.9281C41.8087 95.9281 42.3214 96.4408 42.3214 97.0733C42.3214 97.7058 41.8087 98.2185 41.1763 98.2185H30.9968C30.3643 98.2185 29.8516 97.7058 29.8516 97.0733C29.8516 96.4408 30.3643 95.9281 30.9968 95.9281H41.1763Z" fill="black"/>
<path d="M25.7817 96.0554C26.4142 96.0554 26.9269 96.5681 26.9269 97.2006C26.9269 97.8331 26.4142 98.3458 25.7817 98.3458H15.6022C14.9698 98.3458 14.457 97.8331 14.457 97.2006C14.457 96.5681 14.9698 96.0554 15.6022 96.0554H25.7817Z" fill="black"/>
<path d="M128.848 76.8998C134.796 76.8998 139.617 78.6655 139.617 80.8436C139.617 83.0217 134.796 84.7874 128.848 84.7874V82.3605C131.613 82.3605 134.01 81.9461 135.629 81.3535C136.108 81.1777 136.476 81.0011 136.747 80.8436C136.476 80.6861 136.108 80.5095 135.629 80.3337C134.01 79.7411 131.613 79.3267 128.848 79.3267C126.082 79.3267 123.685 79.7411 122.067 80.3337C121.587 80.5095 121.22 80.686 120.949 80.8436C121.22 81.0012 121.587 81.1777 122.067 81.3535C123.685 81.9461 126.082 82.3605 128.848 82.3605V84.7874C122.9 84.7874 118.078 83.0217 118.078 80.8436C118.078 78.6655 122.9 76.8998 128.848 76.8998Z" fill="black"/>
<path d="M139.769 96.6438C139.769 97.4669 139.289 98.2392 138.504 98.5778C130.561 102.003 122.773 100.165 119.283 98.5698C118.509 98.2158 118.078 97.4493 118.078 96.6713V81.4504C118.078 80.7802 118.621 80.2369 119.292 80.2369C119.962 80.2369 120.505 80.7802 120.505 81.4504V96.4565C123.642 97.8207 130.433 99.3287 137.342 96.4337V80.8436C137.342 80.1734 137.885 79.6301 138.556 79.6301C139.226 79.6301 139.769 80.1734 139.769 80.8436V96.6438Z" fill="black"/>
<path d="M137.27 86.2735C137.873 85.9819 138.598 86.2348 138.89 86.8381C139.182 87.4415 138.929 88.1671 138.325 88.4587C130.597 92.1938 122.698 90.0254 119.644 88.4436C119.049 88.1353 118.816 87.403 119.124 86.8079C119.433 86.2129 120.165 85.9804 120.76 86.2886C123.369 87.6393 130.436 89.5764 137.27 86.2735Z" fill="black"/>
<path d="M137.27 91.2791C137.873 90.9875 138.598 91.2404 138.89 91.8437C139.182 92.4471 138.929 93.1727 138.325 93.4643C130.597 97.1994 122.698 95.031 119.644 93.4492C119.049 93.141 118.816 92.4086 119.124 91.8135C119.433 91.2185 120.165 90.986 120.76 91.2942C123.369 92.6449 130.436 94.582 137.27 91.2791Z" fill="black"/>
<path d="M112.77 68.4054C118.718 68.4054 123.539 70.1711 123.539 72.3492C123.539 74.5273 118.718 76.293 112.77 76.293V73.8661C115.535 73.8661 117.932 73.4517 119.55 72.8591C120.03 72.6834 120.397 72.5068 120.669 72.3492C120.397 72.1917 120.03 72.0151 119.55 71.8394C117.932 71.2467 115.535 70.8324 112.77 70.8324C110.004 70.8324 107.607 71.2467 105.989 71.8394C105.509 72.0151 105.142 72.1916 104.87 72.3492C105.142 72.5068 105.509 72.6833 105.989 72.8591C107.607 73.4517 110.004 73.8661 112.77 73.8661V76.293C106.822 76.293 102 74.5273 102 72.3492C102 70.1711 106.822 68.4054 112.77 68.4054Z" fill="black"/>
<path d="M102 72.9559C102 72.2857 102.543 71.7424 103.213 71.7424C103.884 71.7424 104.427 72.2857 104.427 72.9559V88.1345C105.867 89.0812 109.835 90.5496 116.526 89.5041C117.188 89.4007 117.809 89.8537 117.912 90.5159C118.016 91.178 117.563 91.7986 116.901 91.9021C109.442 93.0675 104.716 91.3756 102.8 89.9589C102.233 89.5401 102 88.9011 102 88.3318V72.9559Z" fill="black"/>
<path d="M102.738 78.3289C103.037 77.7295 103.767 77.4865 104.366 77.7862C105.641 78.4236 110.071 79.7374 116.431 79.0308C117.097 78.9568 117.697 79.4369 117.771 80.103C117.845 80.769 117.365 81.3689 116.699 81.4429C109.953 82.1925 105.039 80.8367 103.28 79.9572C102.681 79.6575 102.438 78.9284 102.738 78.3289Z" fill="black"/>
<path d="M102.433 83.6379C102.733 83.0385 103.462 82.7954 104.061 83.0952C105.336 83.7325 109.766 85.0464 116.126 84.3398C116.792 84.2658 117.392 84.7459 117.466 85.4119C117.54 86.078 117.06 86.6779 116.394 86.7519C109.648 87.5014 104.735 86.1456 102.976 85.2662C102.376 84.9664 102.133 84.2373 102.433 83.6379Z" fill="black"/>
<path d="M121.113 75.6863V72.6526C121.113 71.9824 121.657 71.4391 122.327 71.4391C122.997 71.4391 123.54 71.9824 123.54 72.6526V75.6863C123.54 76.3565 122.997 76.8998 122.327 76.8998C121.657 76.8998 121.113 76.3565 121.113 75.6863Z" fill="black"/>
<path d="M145.23 68.4054C139.282 68.4054 134.461 70.1711 134.461 72.3492C134.461 74.5273 139.282 76.293 145.23 76.293V73.8661C142.465 73.8661 140.068 73.4517 138.45 72.8591C137.97 72.6834 137.603 72.5068 137.331 72.3492C137.603 72.1917 137.97 72.0151 138.45 71.8394C140.068 71.2467 142.465 70.8324 145.23 70.8324C147.996 70.8324 150.393 71.2467 152.011 71.8394C152.491 72.0151 152.858 72.1916 153.13 72.3492C152.858 72.5068 152.491 72.6833 152.011 72.8591C150.393 73.4517 147.996 73.8661 145.23 73.8661V76.293C151.178 76.293 156 74.5273 156 72.3492C156 70.1711 151.178 68.4054 145.23 68.4054Z" fill="black"/>
<path d="M156 72.9559C156 72.2857 155.457 71.7424 154.787 71.7424C154.116 71.7424 153.573 72.2857 153.573 72.9559V88.1345C152.133 89.0812 148.165 90.5496 141.474 89.5041C140.812 89.4007 140.191 89.8537 140.088 90.5159C139.984 91.178 140.437 91.7986 141.099 91.9021C148.558 93.0675 153.284 91.3756 155.2 89.9589C155.767 89.5401 156 88.9011 156 88.3318V72.9559Z" fill="black"/>
<path d="M155.262 78.3289C154.963 77.7295 154.233 77.4865 153.634 77.7862C152.359 78.4236 147.929 79.7374 141.569 79.0308C140.903 78.9568 140.303 79.4369 140.229 80.103C140.155 80.769 140.635 81.3689 141.301 81.4429C148.047 82.1925 152.961 80.8367 154.72 79.9572C155.319 79.6575 155.562 78.9284 155.262 78.3289Z" fill="black"/>
<path d="M155.567 83.6379C155.267 83.0385 154.538 82.7954 153.939 83.0952C152.664 83.7325 148.234 85.0464 141.874 84.3398C141.208 84.2658 140.608 84.7459 140.534 85.4119C140.46 86.078 140.94 86.6779 141.606 86.7519C148.352 87.5014 153.265 86.1456 155.024 85.2662C155.624 84.9664 155.867 84.2373 155.567 83.6379Z" fill="black"/>
<path d="M136.887 75.6863V72.6526C136.887 71.9824 136.343 71.4391 135.673 71.4391C135.003 71.4391 134.46 71.9824 134.46 72.6526V75.6863C134.46 76.3565 135.003 76.8998 135.673 76.8998C136.343 76.8998 136.887 76.3565 136.887 75.6863Z" fill="black"/>
<path d="M213.547 71.1778V65.4417C213.547 63.5409 215.088 62 216.989 62H232.412C233.046 62 233.56 62.5136 233.56 63.1472C233.56 63.7808 233.046 64.2945 232.412 64.2945H216.989C216.355 64.2945 215.841 64.8081 215.841 65.4417V71.1778C215.841 71.8114 216.355 72.325 216.989 72.325H240.57C241.204 72.325 241.718 71.8114 241.718 71.1778V65.4417C241.718 64.8081 241.204 64.2945 240.57 64.2945H238.786C238.152 64.2945 237.639 63.7808 237.639 63.1472C237.639 62.5136 238.152 62 238.786 62H240.57C242.471 62 244.012 63.5409 244.012 65.4417V71.1778C244.012 73.0786 242.471 74.6195 240.57 74.6195H216.989C215.088 74.6195 213.547 73.0786 213.547 71.1778Z" fill="black"/>
<path d="M241.718 75.8942C241.718 75.2606 241.204 74.747 240.57 74.747H216.989C216.355 74.747 215.841 75.2606 215.841 75.8942V81.6303C215.841 82.2639 216.355 82.7775 216.989 82.7775H240.57C241.204 82.7775 241.718 82.2639 241.718 81.6303V75.8942ZM244.012 81.6303C244.012 83.5311 242.471 85.072 240.57 85.072H216.989C215.088 85.072 213.547 83.5311 213.547 81.6303V75.8942C213.547 73.9934 215.088 72.4525 216.989 72.4525H240.57C242.471 72.4525 244.012 73.9934 244.012 75.8942V81.6303Z" fill="black"/>
<path d="M241.718 86.0917C241.718 85.4581 241.204 84.9445 240.57 84.9445H216.989C216.355 84.9445 215.841 85.4581 215.841 86.0917V91.8278C215.841 92.4614 216.355 92.9751 216.989 92.9751H240.57C241.204 92.9751 241.718 92.4614 241.718 91.8278V86.0917ZM244.012 91.8278C244.012 93.7286 242.471 95.2695 240.57 95.2695H216.989C215.088 95.2695 213.547 93.7286 213.547 91.8278V86.0917C213.547 84.1909 215.088 82.65 216.989 82.65H240.57C242.471 82.65 244.012 84.1909 244.012 86.0917V91.8278Z" fill="black"/>
<path d="M238.784 65.5691C239.418 65.5691 239.932 66.0827 239.932 66.7163C239.932 67.3499 239.418 67.8635 238.784 67.8635H231.901C231.268 67.8635 230.754 67.3499 230.754 66.7163C230.754 66.0827 231.268 65.5691 231.901 65.5691H238.784Z" fill="black"/>
<path d="M238.784 75.8942C239.418 75.8942 239.932 76.4078 239.932 77.0414C239.932 77.675 239.418 78.1886 238.784 78.1886H231.901C231.268 78.1886 230.754 77.675 230.754 77.0414C230.754 76.4078 231.268 75.8942 231.901 75.8942H238.784Z" fill="black"/>
<path d="M238.784 86.6017C239.418 86.6017 239.932 87.1153 239.932 87.7489C239.932 88.3825 239.418 88.8961 238.784 88.8961H231.901C231.268 88.8961 230.754 88.3825 230.754 87.7489C230.754 87.1153 231.268 86.6017 231.901 86.6017H238.784Z" fill="black"/>
<path d="M220.685 68.3734C220.685 68.0918 220.457 67.8635 220.175 67.8635C219.894 67.8635 219.666 68.0918 219.666 68.3734C219.666 68.655 219.894 68.8833 220.175 68.8833V71.1778C218.627 71.1778 217.371 69.9222 217.371 68.3734C217.371 66.8246 218.627 65.5691 220.175 65.5691C221.724 65.5691 222.98 66.8246 222.98 68.3734C222.98 69.9222 221.724 71.1778 220.175 71.1778V68.8833C220.457 68.8833 220.685 68.655 220.685 68.3734Z" fill="black"/>
<path d="M220.685 78.8259C220.685 78.5443 220.457 78.3161 220.175 78.3161C219.894 78.3161 219.666 78.5443 219.666 78.8259C219.666 79.1075 219.894 79.3358 220.175 79.3358V81.6303C218.627 81.6303 217.371 80.3747 217.371 78.8259C217.371 77.2771 218.627 76.0216 220.175 76.0216C221.724 76.0216 222.98 77.2771 222.98 78.8259C222.98 80.3747 221.724 81.6303 220.175 81.6303V79.3358C220.457 79.3358 220.685 79.1075 220.685 78.8259Z" fill="black"/>
<path d="M220.685 88.5137C220.685 88.2321 220.457 88.0038 220.175 88.0038C219.894 88.0038 219.666 88.2321 219.666 88.5137C219.666 88.7953 219.894 89.0236 220.175 89.0236V91.318C218.627 91.318 217.371 90.0625 217.371 88.5137C217.371 86.9649 218.627 85.7094 220.175 85.7094C221.724 85.7094 222.98 86.9649 222.98 88.5137C222.98 90.0625 221.724 91.318 220.175 91.318V89.0236C220.457 89.0236 220.685 88.7953 220.685 88.5137Z" fill="black"/>
<path d="M220.684 95.397C220.684 94.7634 221.197 94.2498 221.831 94.2498C222.465 94.2498 222.978 94.7634 222.978 95.397V100.878H218.389C217.756 100.878 217.242 100.365 217.242 99.7309C217.242 99.0974 217.756 98.5837 218.389 98.5837H220.684V95.397Z" fill="black"/>
<path d="M236.871 95.397C236.871 94.7634 236.357 94.2498 235.724 94.2498C235.09 94.2498 234.576 94.7634 234.576 95.397V100.878H239.165C239.799 100.878 240.312 100.365 240.312 99.7309C240.312 99.0974 239.799 98.5837 239.165 98.5837H236.871V95.397Z" fill="black"/>
<path d="M224.256 95.397C224.256 94.7634 224.769 94.2498 225.403 94.2498C226.037 94.2498 226.55 94.7634 226.55 95.397V104.575H221.069C220.436 104.575 219.922 104.061 219.922 103.428C219.922 102.794 220.436 102.28 221.069 102.28H224.256V95.397Z" fill="black"/>
<path d="M233.432 95.397C233.432 94.7634 232.918 94.2498 232.284 94.2498C231.651 94.2498 231.137 94.7634 231.137 95.397V104.575H236.618C237.252 104.575 237.766 104.061 237.766 103.428C237.766 102.794 237.252 102.28 236.618 102.28H233.432V95.397Z" fill="black"/>
<path d="M227.566 100.368V95.2695C227.566 94.6359 228.08 94.1223 228.714 94.1223C229.347 94.1223 229.861 94.6359 229.861 95.2695V100.368C229.861 101.002 229.347 101.516 228.714 101.516C228.08 101.516 227.566 101.002 227.566 100.368Z" fill="black"/>
<path d="M213.92 139.449C216.334 138.499 219.406 138.584 223.048 140.069L222.14 142.298C218.896 140.975 216.486 141.026 214.801 141.689C213.121 142.35 211.987 143.687 211.409 145.3C210.201 148.671 211.523 152.626 214.685 153.68L213.924 155.963C209.063 154.342 207.644 148.671 209.143 144.488C209.919 142.323 211.501 140.401 213.92 139.449Z" fill="black"/>
<path d="M238.37 160.437V162.843H216.711V160.437H238.37ZM239.44 159.367V156.693C239.44 156.102 238.961 155.623 238.37 155.623H216.711C216.12 155.623 215.641 156.102 215.641 156.693V159.367C215.641 159.958 216.12 160.437 216.711 160.437V162.843L216.621 162.842C214.742 162.795 213.234 161.257 213.234 159.367V156.693C213.234 154.773 214.791 153.217 216.711 153.217H238.37C240.29 153.217 241.847 154.773 241.847 156.693V159.367C241.847 161.287 240.29 162.843 238.37 162.843V160.437C238.961 160.437 239.44 159.958 239.44 159.367Z" fill="black"/>
<path d="M230.622 144.66C232.511 144.66 234.291 145.547 235.428 147.056L241.337 154.899L239.415 156.348L233.505 148.504C232.823 147.599 231.756 147.066 230.622 147.066H224.558C223.439 147.066 222.384 147.585 221.7 148.471L215.925 155.957L214.02 154.487L219.794 147.001C220.934 145.525 222.693 144.66 224.558 144.66H230.622Z" fill="black"/>
<path d="M224.736 131.303C227.626 130.158 230.652 130.291 233.293 131.186C235.924 132.078 238.237 133.749 239.725 135.781C240.976 137.489 241.694 139.537 241.396 141.603C243.287 142.343 244.693 143.412 245.638 144.691C246.755 146.202 247.172 147.935 247.042 149.584C246.788 152.816 244.39 155.871 240.921 156.284L240.636 153.894C242.782 153.638 244.463 151.679 244.643 149.395C244.73 148.287 244.454 147.137 243.703 146.121C242.951 145.104 241.67 144.148 239.632 143.54L238.436 143.183L238.837 142.001C239.343 140.507 238.958 138.807 237.783 137.202C236.61 135.599 234.719 134.211 232.52 133.465C230.331 132.723 227.901 132.638 225.622 133.541C223.357 134.438 221.123 136.359 219.395 139.846L217.238 138.777C219.187 134.844 221.833 132.453 224.736 131.303Z" fill="black"/>
<path d="M233.024 157.896C233.024 157.527 232.725 157.228 232.355 157.228C231.986 157.228 231.687 157.527 231.687 157.896C231.687 158.266 231.986 158.565 232.355 158.565V159.634C231.395 159.634 230.617 158.856 230.617 157.896C230.617 156.936 231.395 156.158 232.355 156.158C233.315 156.158 234.093 156.936 234.093 157.896C234.093 158.856 233.315 159.634 232.355 159.634V158.565C232.725 158.565 233.024 158.266 233.024 157.896Z" fill="black"/>
<path d="M237.567 157.896C237.567 157.527 237.268 157.228 236.898 157.228C236.529 157.228 236.23 157.527 236.23 157.896C236.23 158.266 236.529 158.565 236.898 158.565V159.634C235.938 159.634 235.16 158.856 235.16 157.896C235.16 156.936 235.938 156.158 236.898 156.158C237.858 156.158 238.636 156.936 238.636 157.896C238.636 158.856 237.858 159.634 236.898 159.634V158.565C237.268 158.565 237.567 158.266 237.567 157.896Z" fill="black"/>
<path d="M222.727 158.565V157.495C222.727 156.831 223.265 156.292 223.93 156.292C224.594 156.292 225.133 156.831 225.133 157.495V158.565C225.133 159.23 224.594 159.768 223.93 159.768C223.265 159.768 222.727 159.23 222.727 158.565Z" fill="black"/>
<path d="M219.52 158.565V157.495C219.52 156.831 220.058 156.292 220.723 156.292C221.387 156.292 221.926 156.831 221.926 157.495V158.565C221.926 159.23 221.387 159.768 220.723 159.768C220.058 159.768 219.52 159.23 219.52 158.565Z" fill="black"/>
<path d="M216.309 158.565V157.495C216.309 156.831 216.847 156.292 217.512 156.292C218.176 156.292 218.715 156.831 218.715 157.495V158.565C218.715 159.23 218.176 159.768 217.512 159.768C216.847 159.768 216.309 159.23 216.309 158.565Z" fill="black"/>
<path d="M41.8541 140.385V142.721H13.1527V140.385H41.8541ZM43.6709 138.568V134.153C43.6709 133.149 42.8575 132.336 41.8541 132.336H13.1527C12.1493 132.336 11.3359 133.149 11.3359 134.153V138.568C11.3359 139.572 12.1493 140.385 13.1527 140.385V142.721L13.0455 142.72C10.8372 142.664 9.05724 140.884 9.00127 138.676L9 138.568V134.153C9 131.859 10.8592 130 13.1527 130H41.8541C44.1476 130 46.0068 131.859 46.0068 134.153V138.568L46.0055 138.676C45.9495 140.884 44.1696 142.664 41.9613 142.72L41.8541 142.721V140.385C42.8575 140.385 43.6709 139.572 43.6709 138.568Z" fill="black"/>
<path d="M41.8541 151.025V153.361H13.1527V151.025H41.8541ZM43.6709 149.208V144.792C43.6709 143.789 42.8575 142.975 41.8541 142.975H13.1527C12.1493 142.975 11.3359 143.789 11.3359 144.792V149.208C11.3359 150.211 12.1493 151.025 13.1527 151.025V153.361L13.0455 153.359C10.8372 153.303 9.05724 151.523 9.00127 149.315L9 149.208V144.792C9 142.499 10.8592 140.64 13.1527 140.64H41.8541C44.1476 140.64 46.0068 142.499 46.0068 144.792V149.208L46.0055 149.315C45.9495 151.523 44.1696 153.303 41.9613 153.359L41.8541 153.361V151.025C42.8575 151.025 43.6709 150.211 43.6709 149.208Z" fill="black"/>
<path d="M41.8541 161.664V164H13.1527V161.664H41.8541ZM43.6709 159.847V155.432C43.6709 154.428 42.8575 153.615 41.8541 153.615H13.1527C12.1493 153.615 11.3359 154.428 11.3359 155.432V159.847C11.3359 160.851 12.1493 161.664 13.1527 161.664V164L13.0455 163.999C10.8372 163.943 9.05724 162.163 9.00127 159.955L9 159.847V155.432C9 153.138 10.8592 151.279 13.1527 151.279H41.8541C44.1476 151.279 46.0068 153.138 46.0068 155.432V159.847L46.0055 159.955C45.9495 162.163 44.1696 163.943 41.9613 163.999L41.8541 164V161.664C42.8575 161.664 43.6709 160.851 43.6709 159.847Z" fill="black"/>
<path d="M38.4906 135.193C39.1357 135.193 39.6586 135.716 39.6586 136.361C39.6586 137.006 39.1357 137.529 38.4906 137.529H25.1914C24.5463 137.529 24.0234 137.006 24.0234 136.361C24.0234 135.716 24.5463 135.193 25.1914 135.193H38.4906Z" fill="black"/>
<path d="M38.4906 146.179C39.1357 146.179 39.6586 146.702 39.6586 147.347C39.6586 147.992 39.1357 148.515 38.4906 148.515H25.1914C24.5463 148.515 24.0234 147.992 24.0234 147.347C24.0234 146.702 24.5463 146.179 25.1914 146.179H38.4906Z" fill="black"/>
<path d="M38.4906 156.587C39.1357 156.587 39.6586 157.11 39.6586 157.755C39.6586 158.4 39.1357 158.923 38.4906 158.923H25.1914C24.5463 158.923 24.0234 158.4 24.0234 157.755C24.0234 157.11 24.5463 156.587 25.1914 156.587H38.4906Z" fill="black"/>
<path d="M16.3762 136.361C16.3762 136.054 16.1275 135.805 15.8209 135.805C15.5142 135.805 15.2656 136.054 15.2656 136.361C15.2656 136.667 15.5142 136.916 15.8209 136.916V139.252L15.6721 139.248C14.1938 139.173 13.0085 137.988 12.9335 136.509L12.9297 136.361C12.9297 134.764 14.2242 133.469 15.8209 133.469L15.9697 133.473C17.4972 133.551 18.7121 134.814 18.7121 136.361L18.7083 136.509C18.6308 138.037 17.3677 139.252 15.8209 139.252V136.916C16.1275 136.916 16.3762 136.667 16.3762 136.361Z" fill="black"/>
<path d="M16.3762 147.231C16.3762 146.925 16.1275 146.676 15.8209 146.676C15.5142 146.676 15.2656 146.925 15.2656 147.231C15.2656 147.538 15.5142 147.787 15.8209 147.787V150.123L15.6721 150.119C14.1938 150.044 13.0085 148.859 12.9335 147.38L12.9297 147.231C12.9297 145.635 14.2242 144.34 15.8209 144.34L15.9697 144.344C17.4972 144.421 18.7121 145.685 18.7121 147.231L18.7083 147.38C18.6308 148.908 17.3677 150.123 15.8209 150.123V147.787C16.1275 147.787 16.3762 147.538 16.3762 147.231Z" fill="black"/>
<path d="M16.3762 157.639C16.3762 157.333 16.1275 157.084 15.8209 157.084C15.5142 157.084 15.2656 157.333 15.2656 157.639C15.2656 157.946 15.5142 158.195 15.8209 158.195V160.531L15.6721 160.527C14.1938 160.452 13.0085 159.267 12.9335 157.788L12.9297 157.639C12.9297 156.043 14.2242 154.748 15.8209 154.748L15.9697 154.752C17.4972 154.83 18.7121 156.093 18.7121 157.639L18.7083 157.788C18.6308 159.316 17.3677 160.531 15.8209 160.531V158.195C16.1275 158.195 16.3762 157.946 16.3762 157.639Z" fill="black"/>
<path d="M111.574 146.652C112.112 146.239 112.883 146.341 113.295 146.879L115.642 149.941L118.476 147.512C118.991 147.071 119.766 147.131 120.207 147.645C120.648 148.16 120.588 148.935 120.074 149.376L115.272 153.491L111.347 148.372C110.935 147.835 111.036 147.064 111.574 146.652Z" fill="black"/>
<path d="M147.699 146.652C147.161 146.239 146.391 146.341 145.979 146.879L143.631 149.941L140.797 147.512C140.283 147.071 139.508 147.131 139.067 147.645C138.626 148.16 138.685 148.935 139.2 149.376L144.002 153.491L147.926 148.372C148.339 147.835 148.237 147.064 147.699 146.652Z" fill="black"/>
<path d="M143.003 133.854V136.309H116.823V133.854H143.003ZM143.821 133.036V129.218C143.821 128.767 143.454 128.4 143.003 128.4H116.823C116.371 128.4 116.005 128.767 116.005 129.218V133.036C116.005 133.488 116.371 133.854 116.823 133.854V136.309C115.016 136.309 113.551 134.843 113.551 133.036V129.218C113.551 127.411 115.016 125.946 116.823 125.946H143.003C144.81 125.946 146.275 127.411 146.275 129.218V133.036C146.275 134.843 144.81 136.309 143.003 136.309V133.854C143.454 133.854 143.821 133.488 143.821 133.036Z" fill="black"/>
<path d="M128.41 148.716V136.036C128.41 135.358 128.96 134.809 129.637 134.809C130.315 134.809 130.864 135.358 130.864 136.036V148.716C130.864 149.394 130.315 149.944 129.637 149.944C128.96 149.944 128.41 149.394 128.41 148.716Z" fill="black"/>
<path d="M132.618 146.317C133.115 145.856 133.891 145.885 134.353 146.381C134.814 146.878 134.785 147.655 134.288 148.116L129.604 152.466L125.223 148.084C124.743 147.605 124.743 146.828 125.223 146.349C125.702 145.87 126.479 145.87 126.958 146.349L129.667 149.058L132.618 146.317Z" fill="black"/>
<path d="M128.774 135.564C129.035 134.938 129.754 134.642 130.379 134.903C131.005 135.164 131.301 135.882 131.04 136.508C130.373 138.109 127.783 140.648 122.57 141.343C120.629 141.602 119.262 142.87 118.313 144.554C117.356 146.25 116.916 148.223 116.814 149.497C116.759 150.172 116.167 150.676 115.492 150.621C114.816 150.567 114.313 149.975 114.367 149.3C114.492 147.755 115.007 145.42 116.175 143.348C117.35 141.264 119.278 139.306 122.246 138.91C126.85 138.296 128.532 136.144 128.774 135.564Z" fill="black"/>
<path d="M130.495 135.564C130.234 134.938 129.516 134.642 128.89 134.903C128.265 135.164 127.969 135.882 128.229 136.508C128.897 138.109 131.487 140.648 136.699 141.343C138.64 141.602 140.007 142.87 140.957 144.554C141.913 146.25 142.353 148.223 142.456 149.497C142.51 150.172 143.102 150.676 143.778 150.621C144.453 150.567 144.957 149.975 144.902 149.3C144.778 147.755 144.263 145.42 143.095 143.348C141.919 141.264 139.991 139.306 137.024 138.91C132.419 138.296 130.737 136.144 130.495 135.564Z" fill="black"/>
<path d="M112.458 162.215H118.458V156.488H112.458V162.215ZM120.912 162.761C120.912 163.815 120.057 164.67 119.003 164.67H111.913C110.859 164.67 110.004 163.815 110.004 162.761V155.943C110.004 154.889 110.859 154.034 111.913 154.034H119.003C120.057 154.034 120.912 154.889 120.912 155.943V162.761Z" fill="black"/>
<path d="M126.638 162.215H132.637V156.488H126.638V162.215ZM135.092 162.761C135.092 163.815 134.237 164.67 133.183 164.67H126.093C125.038 164.67 124.184 163.815 124.184 162.761V155.943C124.184 154.889 125.038 154.034 126.093 154.034H133.183C134.237 154.034 135.092 154.889 135.092 155.943V162.761Z" fill="black"/>
<path d="M140.548 162.215H146.547V156.488H140.548V162.215ZM149.002 162.761C149.002 163.815 148.147 164.67 147.093 164.67H140.003C138.948 164.67 138.094 163.815 138.094 162.761V155.943C138.094 154.889 138.948 154.034 140.003 154.034H147.093C148.147 154.034 149.002 154.889 149.002 155.943V162.761Z" fill="black"/>
<path d="M136.724 131.127C136.724 132.182 135.869 133.036 134.815 133.036C133.761 133.036 132.906 132.182 132.906 131.127C132.906 130.073 133.761 129.218 134.815 129.218C135.869 129.218 136.724 130.073 136.724 131.127Z" fill="black"/>
<path d="M141.912 131.127C141.912 132.182 141.057 133.036 140.003 133.036C138.948 133.036 138.094 132.182 138.094 131.127C138.094 130.073 138.948 129.218 140.003 129.218C141.057 129.218 141.912 130.073 141.912 131.127Z" fill="black"/>
</svg>
