<svg width="260" height="178" viewBox="0 0 260 178" fill="none" xmlns="http://www.w3.org/2000/svg">
<path d="M15.2427 17.4754C18.0625 16.3659 21.6498 16.465 25.9033 18.1993L24.842 20.8016C21.054 19.2571 18.2391 19.3168 16.272 20.0907C14.3102 20.8626 12.9855 22.4243 12.3105 24.3074C10.8996 28.2442 12.4441 32.8631 16.1363 34.0937L15.2476 36.7599C9.57045 34.8677 7.91382 28.2445 9.66468 23.3593C10.5707 20.8314 12.4176 18.5869 15.2427 17.4754Z" fill="black"/>
<path d="M43.7958 41.9847V44.7952H18.5011V41.9847H43.7958ZM45.045 40.7356V37.6128C45.045 36.9229 44.4857 36.3636 43.7958 36.3636H18.5011C17.8112 36.3636 17.2519 36.9229 17.2519 37.6128V40.7356C17.2519 41.4254 17.8112 41.9847 18.5011 41.9847V44.7952L18.3962 44.794C16.2026 44.7384 14.4414 42.9426 14.4414 40.7356V37.6128C14.4414 35.3707 16.259 33.5531 18.5011 33.5531H43.7958C46.0379 33.5531 47.8555 35.3707 47.8555 37.6128V40.7356C47.8555 42.9777 46.0379 44.7952 43.7958 44.7952V41.9847C44.4857 41.9847 45.045 41.4254 45.045 40.7356Z" fill="black"/>
<path d="M34.7483 23.5601C36.9544 23.5601 39.0326 24.5963 40.3602 26.3584L47.2612 35.5179L45.0166 37.2092L38.1153 28.0494C37.3188 26.9923 36.0719 26.3706 34.7483 26.3706H27.6667C26.36 26.3706 25.1271 26.9766 24.3289 28.0113L17.585 36.7536L15.3594 35.0367L22.1033 26.2947C23.4337 24.5701 25.4887 23.5601 27.6667 23.5601H34.7483Z" fill="black"/>
<path d="M27.8733 7.96185C31.2481 6.62502 34.7822 6.77932 37.8666 7.82523C40.9392 8.86717 43.6403 10.8177 45.3778 13.1907C46.8383 15.1855 47.6772 17.5779 47.3295 19.9905C49.5371 20.8546 51.1798 22.1025 52.2833 23.596C53.5875 25.3611 54.0746 27.3848 53.9228 29.311C53.6254 33.0854 50.8258 36.6522 46.7742 37.1345L46.4418 34.3435C48.9481 34.0451 50.9107 31.7567 51.1208 29.0902C51.2228 27.796 50.8999 26.4529 50.023 25.266C49.1454 24.0783 47.6492 22.9625 45.2692 22.2521L43.8722 21.8352L44.3403 20.4546C44.9318 18.7098 44.4819 16.7246 43.1101 14.8509C41.7394 12.9789 39.5318 11.3577 36.9639 10.4869C34.4077 9.62015 31.5693 9.52071 28.9083 10.5748C26.2629 11.6227 23.6535 13.8658 21.6356 17.9384L19.1172 16.6905C21.3931 12.0973 24.4829 9.30485 27.8733 7.96185Z" fill="black"/>
<path d="M37.5527 39.018C37.5527 38.5868 37.2032 38.2373 36.772 38.2373C36.3408 38.2373 35.9913 38.5868 35.9913 39.018C35.9913 39.4492 36.3408 39.7987 36.772 39.7987V41.0478C35.651 41.0478 34.7422 40.139 34.7422 39.018C34.7422 37.8969 35.651 36.9882 36.772 36.9882C37.8931 36.9882 38.8018 37.8969 38.8018 39.018C38.8018 40.139 37.8931 41.0478 36.772 41.0478V39.7987C37.2032 39.7987 37.5527 39.4492 37.5527 39.018Z" fill="black"/>
<path d="M42.8574 39.018C42.8574 38.5868 42.5079 38.2373 42.0767 38.2373C41.6455 38.2373 41.296 38.5868 41.296 39.018C41.296 39.4492 41.6455 39.7987 42.0767 39.7987V41.0478C40.9557 41.0478 40.0469 40.139 40.0469 39.018C40.0469 37.8969 40.9557 36.9882 42.0767 36.9882C43.1977 36.9882 44.1065 37.8969 44.1065 39.018C44.1065 40.139 43.1977 41.0478 42.0767 41.0478V39.7987C42.5079 39.7987 42.8574 39.4492 42.8574 39.018Z" fill="black"/>
<path d="M25.5273 39.7987V38.5496C25.5273 37.7734 26.1565 37.1443 26.9326 37.1443C27.7087 37.1443 28.3379 37.7734 28.3379 38.5496V39.7987C28.3379 40.5748 27.7087 41.2039 26.9326 41.2039C26.1565 41.2039 25.5273 40.5748 25.5273 39.7987Z" fill="black"/>
<path d="M21.7812 39.7987V38.5496C21.7812 37.7734 22.4104 37.1443 23.1865 37.1443C23.9626 37.1443 24.5918 37.7734 24.5918 38.5496V39.7987C24.5918 40.5748 23.9626 41.2039 23.1865 41.2039C22.4104 41.2039 21.7812 40.5748 21.7812 39.7987Z" fill="black"/>
<path d="M18.0312 39.7987V38.5496C18.0312 37.7734 18.6604 37.1443 19.4365 37.1443C20.2126 37.1443 20.8418 37.7734 20.8418 38.5496V39.7987C20.8418 40.5748 20.2126 41.2039 19.4365 41.2039C18.6604 41.2039 18.0312 40.5748 18.0312 39.7987Z" fill="black"/>
<path d="M146.764 17.9373V20.6223H113.773V17.9373H146.764ZM148.853 15.849V10.7733C148.853 9.61994 147.918 8.68497 146.764 8.68497H113.773C112.62 8.68497 111.685 9.61994 111.685 10.7733V15.849C111.685 17.0023 112.62 17.9373 113.773 17.9373V20.6223L113.65 20.6208C111.112 20.5565 109.066 18.5105 109.001 15.9722L109 15.849V10.7733C109 8.13707 111.137 6 113.773 6H146.764C149.4 6 151.537 8.13707 151.537 10.7733V15.849L151.536 15.9722C151.472 18.5105 149.426 20.5565 146.887 20.6208L146.764 20.6223V17.9373C147.918 17.9373 148.853 17.0023 148.853 15.849Z" fill="black"/>
<path d="M146.764 30.1668V32.8518H113.773V30.1668H146.764ZM148.853 28.0785V23.0028C148.853 21.8494 147.918 20.9145 146.764 20.9145H113.773C112.62 20.9145 111.685 21.8494 111.685 23.0028V28.0785C111.685 29.2318 112.62 30.1668 113.773 30.1668V32.8518L113.65 32.8503C111.112 32.786 109.066 30.74 109.001 28.2017L109 28.0785V23.0028C109 20.3666 111.137 18.2295 113.773 18.2295H146.764C149.4 18.2295 151.537 20.3666 151.537 23.0028V28.0785L151.536 28.2017C151.472 30.74 149.426 32.786 146.887 32.8503L146.764 32.8518V30.1668C147.918 30.1668 148.853 29.2318 148.853 28.0785Z" fill="black"/>
<path d="M146.764 42.3963V45.0812H113.773V42.3963H146.764ZM148.853 40.308V35.2323C148.853 34.0789 147.918 33.144 146.764 33.144H113.773C112.62 33.144 111.685 34.0789 111.685 35.2323V40.308C111.685 41.4613 112.62 42.3963 113.773 42.3963V45.0812L113.65 45.0798C111.112 45.0155 109.066 42.9695 109.001 40.4312L109 40.308V35.2323C109 32.5961 111.137 30.459 113.773 30.459H146.764C149.4 30.459 151.537 32.5961 151.537 35.2323V40.308L151.536 40.4312C151.472 42.9695 149.426 45.0155 146.887 45.0798L146.764 45.0812V42.3963C147.918 42.3963 148.853 41.4613 148.853 40.308Z" fill="black"/>
<path d="M142.899 11.9686C143.64 11.9686 144.241 12.5697 144.241 13.3111C144.241 14.0526 143.64 14.6536 142.899 14.6536H127.612C126.871 14.6536 126.27 14.0526 126.27 13.3111C126.27 12.5697 126.871 11.9686 127.612 11.9686H142.899Z" fill="black"/>
<path d="M142.899 24.597C143.64 24.597 144.241 25.1981 144.241 25.9395C144.241 26.681 143.64 27.282 142.899 27.282H127.612C126.871 27.282 126.27 26.681 126.27 25.9395C126.27 25.1981 126.871 24.597 127.612 24.597H142.899Z" fill="black"/>
<path d="M142.899 36.5607C143.64 36.5607 144.241 37.1617 144.241 37.9032C144.241 38.6446 143.64 39.2456 142.899 39.2456H127.612C126.871 39.2456 126.27 38.6446 126.27 37.9032C126.27 37.1617 126.871 36.5607 127.612 36.5607H142.899Z" fill="black"/>
<path d="M117.477 13.3112C117.477 12.9587 117.191 12.6729 116.839 12.6729C116.486 12.6729 116.201 12.9587 116.201 13.3112C116.201 13.6637 116.486 13.9495 116.839 13.9495V16.6345L116.668 16.6301C114.969 16.544 113.606 15.1815 113.52 13.4822L113.516 13.3112C113.516 11.4758 115.004 9.98792 116.839 9.98792L117.01 9.99229C118.766 10.0813 120.162 11.5332 120.162 13.3112L120.158 13.4822C120.069 15.2381 118.617 16.6345 116.839 16.6345V13.9495C117.191 13.9495 117.477 13.6637 117.477 13.3112Z" fill="black"/>
<path d="M117.477 25.8066C117.477 25.4541 117.191 25.1683 116.839 25.1683C116.486 25.1683 116.201 25.4541 116.201 25.8066C116.201 26.1591 116.486 26.4449 116.839 26.4449V29.1299L116.668 29.1255C114.969 29.0394 113.606 27.6768 113.52 25.9776L113.516 25.8066C113.516 23.9712 115.004 22.4833 116.839 22.4833L117.01 22.4876C118.766 22.5767 120.162 24.0286 120.162 25.8066L120.158 25.9776C120.069 27.7334 118.617 29.1298 116.839 29.1299V26.4449C117.191 26.4449 117.477 26.159 117.477 25.8066Z" fill="black"/>
<path d="M117.477 37.7702C117.477 37.4177 117.191 37.1319 116.839 37.1319C116.486 37.1319 116.201 37.4177 116.201 37.7702C116.201 38.1227 116.486 38.4085 116.839 38.4085V41.0935L116.668 41.0891C114.969 41.003 113.606 39.6405 113.52 37.9412L113.516 37.7702C113.516 35.9348 115.004 34.4469 116.839 34.4469L117.01 34.4513C118.766 34.5403 120.162 35.9922 120.162 37.7702L120.158 37.9412C120.069 39.6971 118.617 41.0935 116.839 41.0935V38.4085C117.191 38.4085 117.477 38.1227 117.477 37.7702Z" fill="black"/>
<path d="M223.276 7.10059C227.907 7.10059 232.028 7.80095 234.933 8.88184C236.391 9.4245 237.459 10.0326 238.134 10.626C238.811 11.2217 238.946 11.6639 238.946 11.9219C238.946 12.1798 238.811 12.6222 238.134 13.2178C237.459 13.8111 236.391 14.4183 234.933 14.9609C232.028 16.0419 227.907 16.7432 223.276 16.7432C218.646 16.7431 214.526 16.0418 211.621 14.9609C210.163 14.4182 209.093 13.8111 208.419 13.2178C207.742 12.6222 207.607 12.1798 207.607 11.9219C207.607 11.664 207.742 11.2217 208.419 10.626C209.093 10.0326 210.163 9.42457 211.621 8.88184C214.526 7.80104 218.646 7.10062 223.276 7.10059Z" stroke="black" stroke-width="3.21427"/>
<path d="M207.598 12.3236V38.2461C207.598 38.5832 207.735 38.909 208.004 39.112C210.42 40.934 216.59 42.8283 228.101 41.6538" stroke="black" stroke-width="3.21427" stroke-linecap="round"/>
<path d="M208.59 22.5601C211.084 23.8074 221.811 26.8009 237.527 23.3084" stroke="black" stroke-width="3.21427" stroke-linecap="round"/>
<path d="M208.094 31.291C210.588 32.5383 218.272 34.7335 229.048 33.5361" stroke="black" stroke-width="3.21427" stroke-linecap="round"/>
<path d="M239.023 12.3324V29.2956" stroke="black" stroke-width="3.21427" stroke-linecap="round"/>
<circle cx="238.774" cy="40.0223" r="10.6163" stroke="black" stroke-width="3.21427"/>
<path d="M235.035 40.7706L237.779 43.0157L243.018 37.7771" stroke="black" stroke-width="3.21427" stroke-linecap="round"/>
<path d="M14 71.1317V64.7994C14 62.7011 15.701 61 17.7994 61H34.8263C35.5258 61 36.0928 61.567 36.0928 62.2665C36.0928 62.9659 35.5258 63.5329 34.8263 63.5329H17.7994C17.1 63.5329 16.5329 64.1 16.5329 64.7994V71.1317C16.5329 71.8312 17.1 72.3982 17.7994 72.3982H43.8323C44.5318 72.3982 45.0988 71.8312 45.0988 71.1317V64.7994C45.0988 64.1 44.5318 63.5329 43.8323 63.5329H41.8623C41.1628 63.5329 40.5958 62.9659 40.5958 62.2665C40.5958 61.567 41.1628 61 41.8623 61H43.8323C45.9307 61 47.6317 62.7011 47.6317 64.7994V71.1317C47.6317 73.2301 45.9307 74.9311 43.8323 74.9311H17.7994C15.7011 74.9311 14 73.2301 14 71.1317Z" fill="black"/>
<path d="M45.0988 76.3383C45.0988 75.6389 44.5318 75.0719 43.8323 75.0719H17.7994C17.1 75.0719 16.5329 75.6389 16.5329 76.3383V82.6707C16.5329 83.3701 17.1 83.9371 17.7994 83.9371H43.8323C44.5318 83.9371 45.0988 83.3701 45.0988 82.6707V76.3383ZM47.6317 82.6707C47.6317 84.769 45.9307 86.4701 43.8323 86.4701H17.7994C15.7011 86.4701 14 84.769 14 82.6707V76.3383C14 74.24 15.701 72.5389 17.7994 72.5389H43.8323C45.9307 72.5389 47.6317 74.24 47.6317 76.3383V82.6707Z" fill="black"/>
<path d="M45.0988 87.5958C45.0988 86.8963 44.5318 86.3293 43.8323 86.3293H17.7994C17.1 86.3293 16.5329 86.8963 16.5329 87.5958V93.9281C16.5329 94.6276 17.1 95.1946 17.7994 95.1946H43.8323C44.5318 95.1946 45.0988 94.6276 45.0988 93.9281V87.5958ZM47.6317 93.9281C47.6317 96.0265 45.9307 97.7275 43.8323 97.7275H17.7994C15.7011 97.7275 14 96.0265 14 93.9281V87.5958C14 85.4974 15.701 83.7964 17.7994 83.7964H43.8323C45.9307 83.7964 47.6317 85.4974 47.6317 87.5958V93.9281Z" fill="black"/>
<path d="M41.8614 64.9401C42.5608 64.9401 43.1278 65.5071 43.1278 66.2065C43.1278 66.906 42.5608 67.473 41.8614 67.473H34.2626C33.5631 67.473 32.9961 66.906 32.9961 66.2065C32.9961 65.5071 33.5631 64.9401 34.2626 64.9401H41.8614Z" fill="black"/>
<path d="M41.8614 76.3384C42.5608 76.3384 43.1278 76.9054 43.1278 77.6048C43.1278 78.3043 42.5608 78.8713 41.8614 78.8713H34.2626C33.5631 78.8713 32.9961 78.3043 32.9961 77.6048C32.9961 76.9054 33.5631 76.3384 34.2626 76.3384H41.8614Z" fill="black"/>
<path d="M41.8614 88.1587C42.5608 88.1587 43.1278 88.7257 43.1278 89.4252C43.1278 90.1246 42.5608 90.6916 41.8614 90.6916H34.2626C33.5631 90.6916 32.9961 90.1246 32.9961 89.4252C32.9961 88.7257 33.5631 88.1587 34.2626 88.1587H41.8614Z" fill="black"/>
<path d="M21.8774 68.0359C21.8774 67.725 21.6254 67.473 21.3146 67.473C21.0037 67.473 20.7517 67.725 20.7517 68.0359C20.7517 68.3467 21.0037 68.5987 21.3146 68.5987V71.1317C19.6048 71.1317 18.2188 69.7456 18.2188 68.0359C18.2188 66.3261 19.6048 64.9401 21.3146 64.9401C23.0243 64.9401 24.4104 66.3261 24.4104 68.0359C24.4104 69.7456 23.0243 71.1317 21.3146 71.1317V68.5987C21.6254 68.5987 21.8774 68.3467 21.8774 68.0359Z" fill="black"/>
<path d="M21.8774 79.5748C21.8774 79.2639 21.6254 79.0119 21.3146 79.0119C21.0037 79.0119 20.7517 79.2639 20.7517 79.5748C20.7517 79.8857 21.0037 80.1377 21.3146 80.1377V82.6706C19.6048 82.6706 18.2188 81.2846 18.2188 79.5748C18.2188 77.865 19.6048 76.479 21.3146 76.479C23.0243 76.479 24.4104 77.865 24.4104 79.5748C24.4104 81.2846 23.0243 82.6706 21.3146 82.6706V80.1377C21.6254 80.1377 21.8774 79.8857 21.8774 79.5748Z" fill="black"/>
<path d="M21.8774 90.2695C21.8774 89.9586 21.6254 89.7066 21.3146 89.7066C21.0037 89.7066 20.7517 89.9586 20.7517 90.2695C20.7517 90.5804 21.0037 90.8324 21.3146 90.8324V93.3653C19.6048 93.3653 18.2188 91.9793 18.2188 90.2695C18.2188 88.5597 19.6048 87.1737 21.3146 87.1737C23.0243 87.1737 24.4104 88.5597 24.4104 90.2695C24.4104 91.9793 23.0243 93.3653 21.3146 93.3653V90.8324C21.6254 90.8324 21.8774 90.5804 21.8774 90.2695Z" fill="black"/>
<path d="M21.8853 97.8683C21.8853 97.1688 22.4524 96.6018 23.1518 96.6018C23.8513 96.6018 24.4183 97.1688 24.4183 97.8683V103.919H19.3524C18.653 103.919 18.0859 103.352 18.0859 102.653C18.0859 101.953 18.653 101.386 19.3524 101.386H21.8853V97.8683Z" fill="black"/>
<path d="M39.7475 97.8683C39.7475 97.1688 39.1805 96.6018 38.481 96.6018C37.7816 96.6018 37.2145 97.1688 37.2145 97.8683V103.919H42.2804C42.9799 103.919 43.5469 103.352 43.5469 102.653C43.5469 101.953 42.9799 101.386 42.2804 101.386H39.7475V97.8683Z" fill="black"/>
<path d="M25.8235 97.8683C25.8235 97.1688 26.3905 96.6018 27.09 96.6018C27.7894 96.6018 28.3564 97.1688 28.3564 97.8683V108H22.3055C21.6061 108 21.0391 107.433 21.0391 106.734C21.0391 106.034 21.6061 105.467 22.3055 105.467H25.8235V97.8683Z" fill="black"/>
<path d="M35.9539 97.8683C35.9539 97.1688 35.3868 96.6018 34.6874 96.6018C33.9879 96.6018 33.4209 97.1688 33.4209 97.8683V108H39.4718C40.1713 108 40.7383 107.433 40.7383 106.734C40.7383 106.034 40.1713 105.467 39.4718 105.467H35.9539V97.8683Z" fill="black"/>
<path d="M29.4805 103.356V97.7276C29.4805 97.0282 30.0475 96.4612 30.7469 96.4612C31.4464 96.4612 32.0134 97.0282 32.0134 97.7276V103.356C32.0134 104.056 31.4464 104.623 30.7469 104.623C30.0475 104.623 29.4805 104.056 29.4805 103.356Z" fill="black"/>
<path d="M120.202 101.008H138.548V67.6163H120.202V101.008ZM142.164 103.017L142.162 103.1C142.12 103.922 141.461 104.581 140.639 104.622L140.557 104.624H118.193L118.11 104.622C117.289 104.58 116.629 103.921 116.588 103.1L116.586 103.017V65.6073C116.586 64.7196 117.306 64 118.193 64H140.557L140.639 64.002C141.489 64.0449 142.164 64.7473 142.164 65.6073V103.017Z" fill="black"/>
<path d="M116.836 73.2256C117.834 73.2256 118.644 74.0351 118.644 75.0338C118.644 76.0324 117.834 76.8419 116.836 76.8419H109.616V97.5499H116.836C117.834 97.5499 118.644 98.3595 118.644 99.358C118.644 100.357 117.834 101.166 116.836 101.166H109.415C107.529 101.166 106 99.6371 106 97.7508V76.641C106 74.7547 107.529 73.2256 109.415 73.2256H116.836Z" fill="black"/>
<path d="M142.164 73.2256C141.166 73.2256 140.356 74.0351 140.356 75.0338C140.356 76.0324 141.166 76.8419 142.164 76.8419H149.384V97.5499H142.164C141.166 97.5499 140.356 98.3595 140.356 99.358C140.356 100.357 141.166 101.166 142.164 101.166H149.585C151.471 101.166 153 99.6371 153 97.7508V76.641C153 74.7547 151.471 73.2256 149.585 73.2256H142.164Z" fill="black"/>
<path d="M133.638 72.9749C134.637 72.9749 135.446 73.7844 135.446 74.783C135.446 75.7816 134.637 76.5912 133.638 76.5912H124.109C123.11 76.5912 122.301 75.7816 122.301 74.783C122.301 73.7844 123.11 72.9749 124.109 72.9749H133.638Z" fill="black"/>
<path d="M133.638 80.7487C134.637 80.7487 135.446 81.5582 135.446 82.5568C135.446 83.5554 134.637 84.365 133.638 84.365H124.109C123.11 84.365 122.301 83.5554 122.301 82.5568C122.301 81.5582 123.11 80.7487 124.109 80.7487H133.638Z" fill="black"/>
<path d="M133.638 87.7701C134.637 87.7701 135.446 88.5797 135.446 89.5783C135.446 90.5769 134.637 91.3865 133.638 91.3865H124.109C123.11 91.3865 122.301 90.5769 122.301 89.5783C122.301 88.5797 123.11 87.7701 124.109 87.7701H133.638Z" fill="black"/>
<path d="M224.952 64.0021C234.441 64.0915 242.059 66.9819 242.059 70.5343C242.059 74.1431 234.197 77.0685 224.499 77.0685V74.2538C229.102 74.2537 233.144 73.555 235.934 72.5168C237.34 71.9938 238.281 71.4385 238.82 70.9645C239.05 70.7626 239.16 70.618 239.212 70.5343C239.16 70.4505 239.05 70.3062 238.82 70.1044C238.281 69.6304 237.34 69.0751 235.934 68.552C233.144 67.5139 229.102 66.8148 224.499 66.8148C219.895 66.8148 215.853 67.5139 213.063 68.552C211.657 69.0751 210.715 69.6304 210.177 70.1044C209.947 70.3063 209.837 70.4506 209.785 70.5343C209.837 70.618 209.947 70.7625 210.177 70.9645C210.715 71.4385 211.657 71.9938 213.063 72.5168C215.853 73.555 219.895 74.2538 224.499 74.2538V77.0685L224.045 77.0665C214.556 76.977 206.938 74.0867 206.938 70.5343C206.938 66.9255 214.8 64 224.499 64L224.952 64.0021Z" fill="black"/>
<path d="M207.148 70.9427C207.148 70.1654 207.779 69.5353 208.556 69.5353C209.333 69.5353 209.963 70.1654 209.963 70.9427V97.1265C211.062 97.809 213.25 98.5589 216.21 99.029C219.33 99.5245 223.121 99.6795 226.992 99.1956C227.763 99.0992 228.467 99.6463 228.563 100.417C228.659 101.189 228.112 101.892 227.341 101.989C223.187 102.508 219.129 102.343 215.768 101.809C212.469 101.285 209.645 100.375 208.093 99.2616C207.414 98.7739 207.148 98.0192 207.148 97.3663V70.9427Z" fill="black"/>
<path d="M208.313 80.7184C208.661 80.0232 209.506 79.7413 210.201 80.0889C212.399 81.1879 222.964 84.2271 238.68 80.7346C239.439 80.566 240.191 81.0445 240.359 81.8032C240.528 82.5619 240.049 83.3137 239.291 83.4823C223.058 87.0896 211.816 84.0435 208.942 82.6068C208.247 82.2592 207.965 81.4136 208.313 80.7184Z" fill="black"/>
<path d="M207.809 89.5931C208.157 88.8978 209.002 88.616 209.697 88.9636C210.76 89.4947 213.259 90.2147 216.606 90.6847C219.911 91.1487 223.906 91.3495 227.904 90.9242C228.677 90.842 229.37 91.402 229.452 92.1749C229.534 92.9478 228.974 93.6409 228.201 93.7231C223.931 94.1774 219.701 93.9614 216.215 93.472C212.771 92.9884 209.912 92.2181 208.439 91.4815C207.743 91.1339 207.461 90.2883 207.809 89.5931Z" fill="black"/>
<path d="M239.102 84.5831V70.9517C239.102 70.1744 239.732 69.5443 240.509 69.5443C241.286 69.5443 241.916 70.1744 241.916 70.9517V84.5831C241.916 85.3603 241.286 85.9904 240.509 85.9904C239.732 85.9904 239.102 85.3603 239.102 84.5831Z" fill="black"/>
<path d="M240.226 97.5676C240.226 97.2727 239.987 97.0337 239.692 97.0336C239.398 97.0336 239.159 97.2727 239.159 97.5676C239.159 97.8625 239.398 98.1016 239.692 98.1016V100.916L239.52 100.912C237.808 100.825 236.435 99.4521 236.348 97.7397L236.344 97.5676C236.344 95.7182 237.843 94.2189 239.692 94.2189L239.865 94.2233C241.634 94.3129 243.041 95.7759 243.041 97.5676L243.037 97.7397C242.947 99.5092 241.484 100.916 239.692 100.916V98.1016C239.987 98.1015 240.226 97.8625 240.226 97.5676Z" fill="black"/>
<path d="M238.723 91.2127C238.723 91.8255 238.404 92.3943 237.881 92.7138L236.284 93.6897C235.732 94.027 235.039 94.0339 234.48 93.7079L233.337 93.0413L232.556 94.5215L233.42 95.1125C233.899 95.4404 234.186 95.9839 234.186 96.5646V98.5595C234.186 99.1688 233.87 99.7345 233.352 100.055L232.43 100.626L233.251 101.993L234.121 101.454L234.229 101.393C234.741 101.124 235.353 101.124 235.865 101.393L235.973 101.454L237.889 102.641C238.407 102.961 238.722 103.527 238.723 104.137V105.342H240.337V104.141C240.337 103.519 240.665 102.943 241.201 102.627L243.23 101.428L243.333 101.372C243.855 101.109 244.477 101.121 244.99 101.411L246.104 102.041L246.953 100.626L246.031 100.055C245.513 99.7345 245.198 99.1688 245.198 98.5595V96.5601C245.198 95.992 245.472 95.4589 245.935 95.1287L246.985 94.3783L246.105 92.9537L244.66 93.7319C244.062 94.0537 243.333 94.0031 242.785 93.6017L241.488 92.6503C241.036 92.3189 240.769 91.7919 240.769 91.2315V89.6847H238.723V91.2127ZM243.584 90.6969L243.912 90.9374L245.646 90.0039L245.723 89.9647C246.503 89.5925 247.44 89.8436 247.929 90.5557L247.977 90.6285L249.898 93.7392C250.385 94.5269 250.177 95.5571 249.424 96.0952L248.013 97.103V97.9716L249.32 98.7805C250.138 99.2869 250.397 100.357 249.902 101.182L247.988 104.371C247.498 105.189 246.444 105.467 245.614 104.997L244.136 104.162L243.152 104.744V106.397C243.152 107.369 242.364 108.157 241.392 108.157H237.667C236.695 108.157 235.908 107.369 235.908 106.397V104.724L235.047 104.192L233.822 104.949C232.988 105.466 231.893 105.2 231.388 104.359L229.481 101.182C228.986 100.357 229.246 99.2869 230.064 98.7805L231.371 97.9713V97.1212L230.19 96.3134C229.452 95.8086 229.211 94.831 229.628 94.0405L231.362 90.7536L231.408 90.6722C231.883 89.8759 232.899 89.5855 233.723 90.0104L233.805 90.0551L235.354 90.9587L235.908 90.6206V88.6291C235.908 87.6575 236.695 86.8699 237.667 86.8699H241.825C242.796 86.8699 243.584 87.6575 243.584 88.6291V90.6969Z" fill="black"/>
<path d="M12.6214 147.388C13.1769 146.962 13.9727 147.068 14.3987 147.623L16.8236 150.786L19.7508 148.277C20.2823 147.821 21.0827 147.883 21.5383 148.414C21.9939 148.946 21.9323 149.746 21.4008 150.202L16.4407 154.453L12.3867 149.166C11.9608 148.61 12.0658 147.814 12.6214 147.388Z" fill="black"/>
<path d="M49.9411 147.388C49.3856 146.962 48.5898 147.068 48.1638 147.623L45.7389 150.786L42.8117 148.277C42.2802 147.821 41.4798 147.883 41.0242 148.414C40.5686 148.946 40.6302 149.746 41.1617 150.202L46.1218 154.453L50.1758 149.166C50.6017 148.61 50.4967 147.814 49.9411 147.388Z" fill="black"/>
<path d="M45.0827 134.169V136.704H18.0404V134.169H45.0827ZM45.9278 133.324V129.38C45.9278 128.914 45.5494 128.535 45.0827 128.535H18.0404C17.5737 128.535 17.1954 128.914 17.1954 129.38V133.324C17.1954 133.791 17.5737 134.169 18.0404 134.169V136.704C16.1736 136.704 14.6602 135.191 14.6602 133.324V129.38C14.6602 127.513 16.1736 126 18.0404 126H45.0827C46.9496 126 48.463 127.513 48.463 129.38V133.324C48.463 135.191 46.9496 136.704 45.0827 136.704V134.169C45.5494 134.169 45.9278 133.791 45.9278 133.324Z" fill="black"/>
<path d="M30.0156 149.521V136.423C30.0156 135.722 30.5832 135.155 31.2832 135.155C31.9833 135.155 32.5508 135.722 32.5508 136.423V149.521C32.5508 150.221 31.9833 150.789 31.2832 150.789C30.5832 150.789 30.0156 150.221 30.0156 149.521Z" fill="black"/>
<path d="M34.362 147.043C34.875 146.566 35.6773 146.596 36.1537 147.109C36.63 147.622 36.6004 148.424 36.0874 148.901L31.2486 153.394L26.7228 148.868C26.2278 148.373 26.2278 147.571 26.7228 147.076C27.2179 146.581 28.0203 146.581 28.5153 147.076L31.3132 149.873L34.362 147.043Z" fill="black"/>
<path d="M30.394 135.935C30.6632 135.289 31.4054 134.983 32.0516 135.252C32.6978 135.522 33.0036 136.264 32.7344 136.91C32.0452 138.564 29.3694 141.187 23.9852 141.904C21.9801 142.172 20.5682 143.482 19.5874 145.221C18.5993 146.973 18.145 149.012 18.0389 150.327C17.9827 151.025 17.3714 151.545 16.6737 151.489C15.9759 151.433 15.4558 150.821 15.512 150.124C15.6406 148.528 16.1723 146.116 17.379 143.976C18.5931 141.823 20.5849 139.8 23.6502 139.391C28.4065 138.757 30.144 136.535 30.394 135.935Z" fill="black"/>
<path d="M32.1685 135.935C31.8993 135.289 31.1571 134.983 30.5109 135.252C29.8647 135.522 29.5589 136.264 29.8281 136.91C30.5173 138.564 33.1931 141.187 38.5773 141.904C40.5824 142.172 41.9943 143.482 42.9751 145.221C43.9632 146.973 44.4175 149.012 44.5236 150.327C44.5798 151.025 45.1911 151.545 45.8888 151.489C46.5866 151.433 47.1067 150.821 47.0505 150.124C46.9219 148.528 46.3902 146.116 45.1835 143.976C43.9694 141.823 41.9776 139.8 38.9123 139.391C34.156 138.757 32.4185 136.535 32.1685 135.935Z" fill="black"/>
<path d="M13.5352 163.465H19.7324V157.549H13.5352V163.465ZM22.2676 164.028C22.2676 165.117 21.3848 166 20.2958 166H12.9718C11.8828 166 11 165.117 11 164.028V156.986C11 155.897 11.8828 155.014 12.9718 155.014H20.2958C21.3848 155.014 22.2676 155.897 22.2676 156.986V164.028Z" fill="black"/>
<path d="M28.1836 163.465H34.3808V157.549H28.1836V163.465ZM36.916 164.028C36.916 165.117 36.0332 166 34.9442 166H27.6203C26.5313 166 25.6484 165.117 25.6484 164.028V156.986C25.6484 155.897 26.5313 155.014 27.6203 155.014H34.9442C36.0332 155.014 36.916 155.897 36.916 156.986V164.028Z" fill="black"/>
<path d="M42.5508 163.465H48.748V157.549H42.5508V163.465ZM51.2832 164.028C51.2832 165.117 50.4004 166 49.3114 166H41.9875C40.8984 166 40.0156 165.117 40.0156 164.028V156.986C40.0156 155.897 40.8984 155.014 41.9875 155.014H49.3114C50.4004 155.014 51.2832 155.897 51.2832 156.986V164.028Z" fill="black"/>
<path d="M38.6038 131.352C38.6038 132.441 37.721 133.324 36.632 133.324C35.543 133.324 34.6602 132.441 34.6602 131.352C34.6602 130.263 35.543 129.38 36.632 129.38C37.721 129.38 38.6038 130.263 38.6038 131.352Z" fill="black"/>
<path d="M43.9593 131.352C43.9593 132.441 43.0765 133.324 41.9875 133.324C40.8984 133.324 40.0156 132.441 40.0156 131.352C40.0156 130.263 40.8984 129.38 41.9875 129.38C43.0765 129.38 43.9593 130.263 43.9593 131.352Z" fill="black"/>
<path d="M129.18 161.138V158.282C129.18 157.535 129.785 156.929 130.533 156.929C131.28 156.929 131.885 157.535 131.885 158.282V161.138C131.885 161.885 131.28 162.49 130.533 162.49C129.785 162.49 129.18 161.885 129.18 161.138Z" fill="black"/>
<path d="M113.917 140.359C116.796 139.046 120.561 139.005 125.153 140.787C125.85 141.057 126.195 141.841 125.925 142.537C125.655 143.234 124.871 143.579 124.174 143.309C120.052 141.709 117.074 141.893 115.04 142.821C113.003 143.75 111.689 145.526 111.084 147.563C110.472 149.62 110.622 151.825 111.39 153.457C112.136 155.043 113.411 156.027 115.194 156.027H144.806C147.774 156.027 150 153.757 150.267 151.243C150.398 150.019 150.066 148.713 149.065 147.541C148.054 146.357 146.29 145.234 143.445 144.567C142.717 144.397 142.266 143.669 142.437 142.942C142.607 142.214 143.335 141.763 144.063 141.933C147.309 142.694 149.643 144.051 151.123 145.784C152.614 147.53 153.166 149.578 152.958 151.529C152.549 155.366 149.21 158.733 144.806 158.733H115.194C112.169 158.733 110.045 156.955 108.942 154.609C107.86 152.31 107.711 149.413 108.49 146.792C109.276 144.15 111.043 141.67 113.917 140.359Z" fill="black"/>
<path d="M124.454 130.956C127.432 129.315 130.994 128.894 134.346 129.399C137.697 129.903 140.951 131.35 143.322 133.591C145.714 135.852 147.219 138.943 146.917 142.61C146.855 143.354 146.202 143.908 145.458 143.847C144.713 143.786 144.159 143.132 144.22 142.388C144.445 139.666 143.356 137.346 141.464 135.558C139.551 133.749 136.83 132.509 133.943 132.074C131.057 131.64 128.118 132.026 125.76 133.326C123.438 134.605 121.598 136.809 120.889 140.219C120.737 140.95 120.02 141.42 119.289 141.268C118.557 141.116 118.087 140.399 118.24 139.668C119.109 135.487 121.439 132.617 124.454 130.956Z" fill="black"/>
<path d="M129.631 164.294H131.435V163.092H129.631V164.294ZM134.141 165.196C134.141 166.192 133.333 167 132.337 167H128.73C127.733 167 126.926 166.192 126.926 165.196V162.19C126.926 161.194 127.733 160.386 128.73 160.386H132.337C133.333 160.386 134.141 161.194 134.141 162.19V165.196Z" fill="black"/>
<path d="M146.015 162.19C146.762 162.19 147.368 162.796 147.368 163.543C147.368 164.29 146.762 164.896 146.015 164.896H133.99C133.242 164.896 132.637 164.29 132.637 163.543C132.637 162.796 133.242 162.19 133.99 162.19H146.015Z" fill="black"/>
<path d="M127.827 162.34C128.574 162.34 129.18 162.946 129.18 163.693C129.18 164.44 128.574 165.046 127.827 165.046H115.802C115.055 165.046 114.449 164.44 114.449 163.693C114.449 162.946 115.055 162.34 115.802 162.34H127.827Z" fill="black"/>
<path d="M212.688 150.291C213.423 150.291 214.019 150.887 214.019 151.622C214.019 152.357 213.423 152.953 212.688 152.953H208.843C208.108 152.953 207.512 152.357 207.512 151.622C207.512 150.887 208.108 150.291 208.843 150.291H212.688Z" fill="black"/>
<path d="M215.35 156.059H244.338V150.734H215.35V156.059ZM247 156.355C247 157.662 245.941 158.721 244.634 158.721H215.054L214.932 158.718C213.682 158.654 212.688 157.621 212.688 156.355V150.439C212.688 149.132 213.747 148.072 215.054 148.072H244.634C245.941 148.072 247 149.132 247 150.439V156.355Z" fill="black"/>
<path d="M215.35 164.045H244.338V158.721H215.35V164.045ZM247 164.341C247 165.648 245.941 166.708 244.634 166.708H215.054L214.932 166.704C213.682 166.641 212.688 165.607 212.688 164.341V158.425C212.688 157.118 213.747 156.059 215.054 156.059H244.634C245.941 156.059 247 157.118 247 158.425V164.341Z" fill="black"/>
<path d="M224.079 125C234.616 125 243.158 133.542 243.158 144.079C243.158 145.449 243.014 146.785 242.739 148.072H240.007C240.326 146.794 240.496 145.456 240.496 144.079C240.496 135.012 233.146 127.662 224.079 127.662C215.012 127.662 207.662 135.012 207.662 144.079C207.662 148.723 209.591 152.917 212.691 155.903V156.355C212.691 156.726 212.776 157.077 212.929 157.39C212.776 157.703 212.691 158.054 212.691 158.425V159.388C208.023 155.91 205 150.348 205 144.079C205 133.542 213.542 125 224.079 125Z" fill="black"/>
<path d="M219.855 126.642C220.255 126.025 221.079 125.85 221.696 126.25C222.312 126.65 222.488 127.475 222.088 128.091C220.421 130.659 217.187 138.54 218.446 148.497C218.539 149.226 218.022 149.892 217.293 149.985C216.563 150.077 215.898 149.56 215.805 148.831C214.461 138.2 217.873 129.694 219.855 126.642Z" fill="black"/>
<path d="M228.598 126.642C228.198 126.025 227.374 125.85 226.757 126.25C226.141 126.65 225.965 127.475 226.366 128.091C228.033 130.659 231.266 138.54 230.007 148.497C229.915 149.226 230.431 149.892 231.16 149.985C231.89 150.077 232.556 149.56 232.648 148.831C233.992 138.2 230.58 129.694 228.598 126.642Z" fill="black"/>
<path d="M239.31 135.353C240.045 135.353 240.641 135.949 240.641 136.684C240.641 137.419 240.045 138.015 239.31 138.015H208.843C208.108 138.015 207.512 137.419 207.512 136.684C207.512 135.949 208.108 135.353 208.843 135.353H239.31Z" fill="black"/>
<path d="M216.684 153.988V152.805C216.684 152.07 217.28 151.474 218.015 151.474C218.75 151.474 219.346 152.07 219.346 152.805V153.988C219.346 154.723 218.75 155.319 218.015 155.319C217.28 155.319 216.684 154.723 216.684 153.988Z" fill="black"/>
<path d="M216.684 161.975V160.792C216.684 160.057 217.28 159.461 218.015 159.461C218.75 159.461 219.346 160.057 219.346 160.792V161.975C219.346 162.71 218.75 163.306 218.015 163.306C217.28 163.306 216.684 162.71 216.684 161.975Z" fill="black"/>
<path d="M220.234 153.988V152.805C220.234 152.07 220.83 151.474 221.565 151.474C222.301 151.474 222.897 152.07 222.897 152.805V153.988C222.897 154.723 222.301 155.319 221.565 155.319C220.83 155.319 220.234 154.723 220.234 153.988Z" fill="black"/>
<path d="M220.234 161.975V160.792C220.234 160.057 220.83 159.461 221.565 159.461C222.301 159.461 222.897 160.057 222.897 160.792V161.975C222.897 162.71 222.301 163.306 221.565 163.306C220.83 163.306 220.234 162.71 220.234 161.975Z" fill="black"/>
<path d="M223.785 153.988V152.805C223.785 152.07 224.381 151.474 225.116 151.474C225.851 151.474 226.447 152.07 226.447 152.805V153.988C226.447 154.723 225.851 155.319 225.116 155.319C224.381 155.319 223.785 154.723 223.785 153.988Z" fill="black"/>
<path d="M223.785 161.975V160.792C223.785 160.057 224.381 159.461 225.116 159.461C225.851 159.461 226.447 160.057 226.447 160.792V161.975C226.447 162.71 225.851 163.306 225.116 163.306C224.381 163.306 223.785 162.71 223.785 161.975Z" fill="black"/>
</svg>
