<svg width="296" height="233" viewBox="0 0 296 233" fill="none" xmlns="http://www.w3.org/2000/svg">
<path d="M61.542 30.6826C61.5874 29.8527 60.9478 29.1305 60.1214 29.2191C58.3581 29.408 56.6739 30.0977 55.2753 31.2216C53.4832 32.6619 52.2865 34.7136 51.9153 36.9825C51.5441 39.2515 52.0244 41.5776 53.2641 43.5139C54.5037 45.4501 56.4152 46.86 58.6313 47.4725C60.8473 48.085 63.2115 47.857 65.2696 46.8322C67.3277 45.8074 68.9345 44.0582 69.7812 41.9206C70.6279 39.7831 70.6548 37.4081 69.8567 35.2519C69.2339 33.5693 68.1429 32.1125 66.7269 31.0448C66.0633 30.5444 65.1436 30.8356 64.7564 31.5711V31.5711C64.3692 32.3065 64.668 33.2052 65.2912 33.7552C66.0675 34.4403 66.6693 35.3113 67.0341 36.2967C67.5745 37.7567 67.5562 39.3649 66.9829 40.8122C66.4096 42.2596 65.3216 43.444 63.928 44.1379C62.5345 44.8318 60.9336 44.9862 59.4331 44.5715C57.9326 44.1567 56.6383 43.2021 55.7989 41.891C54.9595 40.5799 54.6342 39.0049 54.8856 37.4685C55.137 35.9322 55.9472 34.5429 57.1607 33.5677C57.9798 32.9095 58.9435 32.4712 59.9614 32.282C60.7786 32.1302 61.4965 31.5125 61.542 30.6826V30.6826Z" fill="black"/>
<path d="M50.046 56.0697L48.6354 57.0446C47.8835 57.5641 46.8678 57.4721 46.2216 56.8259L42.4798 53.0842C41.7878 52.3921 41.7377 51.2866 42.3642 50.5348L44.2111 48.3185C44.8349 47.5699 44.7409 46.4951 44.2428 45.6575C44.1865 45.5628 44.1362 45.4688 44.095 45.3776C44.0925 45.3722 44.0901 45.3668 44.0877 45.3613C43.7037 44.4937 42.9809 43.7565 42.0321 43.7565H39.9079C38.8628 43.7565 38.0156 42.9093 38.0156 41.8642V35.9217C38.0156 34.8767 38.8628 34.0295 39.9079 34.0295H41.9718C42.9463 34.0295 43.7275 33.2783 43.9875 32.3393C44.0204 32.2206 44.0562 32.1069 44.095 32.003C44.1709 31.7997 44.2783 31.58 44.3983 31.3628C44.8576 30.531 44.8083 29.4741 44.1364 28.8022L42.596 27.2617C41.857 26.5227 41.857 25.3246 42.596 24.5857L47.2152 19.9665C47.9541 19.2275 49.1522 19.2275 49.8912 19.9665L51.2742 21.3494C52.0107 22.086 53.1696 22.017 54.0915 21.5319C54.1372 21.5078 54.1826 21.4856 54.2272 21.4655C54.3109 21.4279 54.4016 21.3936 54.4968 21.3623C55.4497 21.0496 56.2537 20.2765 56.2537 19.2737V16.8731C56.2537 15.828 57.1009 14.9808 58.1459 14.9808H64.4937C65.5388 14.9808 66.386 15.828 66.386 16.8731V19.2737C66.386 20.2765 67.19 21.0496 68.1428 21.3623C68.238 21.3936 68.3288 21.4279 68.4124 21.4655C68.482 21.4968 68.5532 21.5333 68.6251 21.5738C69.5021 22.068 70.6176 22.1504 71.3625 21.4732L73.0759 19.9156C73.8553 19.2071 75.0632 19.2714 75.763 20.0586L79.7911 24.5902C80.4567 25.339 80.4232 26.4769 79.7148 27.1853L78.0979 28.8022C77.426 29.4741 77.3768 30.531 77.8361 31.3628C77.9561 31.58 78.0635 31.7997 78.1394 32.003C78.1782 32.1069 78.214 32.2206 78.2468 32.3393C78.5069 33.2783 79.2881 34.0295 80.2625 34.0295H82.3265C83.3716 34.0295 84.2187 34.8767 84.2187 35.9217V41.8642C84.2187 42.9093 83.3716 43.7565 82.3265 43.7565H80.3312C79.3283 43.7565 78.5552 44.5605 78.2425 45.5133C78.2113 45.6085 78.177 45.6993 78.1394 45.7829C78.085 45.9039 78.0147 46.0298 77.9353 46.1556C77.4404 46.9405 77.3244 47.9553 77.8701 48.7057L79.1531 50.4697C79.7272 51.2591 79.6066 52.3557 78.8747 53.0015L74.6089 56.7655C73.8596 57.4266 72.7255 57.3912 72.0189 56.6846L70.9193 55.585C70.1989 54.8647 69.0625 54.8899 68.1866 55.4101C68.1258 55.4462 68.0657 55.4798 68.0071 55.5099C67.9405 55.5442 67.8685 55.5778 67.7931 55.6104C66.9948 55.9565 66.386 56.681 66.386 57.5511V60.1023C66.386 61.1474 65.5388 61.9945 64.4937 61.9945H58.1459C57.1009 61.9945 56.2537 61.1474 56.2537 60.1023V57.1397C56.2537 56.4758 55.9057 55.8604 55.3367 55.5182L54.0562 54.748" stroke="black" stroke-width="2.67342" stroke-linecap="round"/>
<path d="M74.0984 103.992L73.3998 102.759C72.8715 101.826 72.6073 101.36 72.1578 101.174C71.7085 100.988 71.1999 101.134 70.1833 101.428L68.4563 101.923C67.8071 102.075 67.1262 101.989 66.5334 101.679L66.0565 101.399C65.5484 101.068 65.1575 100.579 64.941 100.005L64.4684 98.5692C64.1576 97.6188 64.0021 97.1436 63.6323 96.8718C63.2624 96.6 62.7709 96.6 61.7881 96.6H60.2103C59.2275 96.6 58.736 96.6 58.3662 96.8718C57.9963 97.1436 57.8408 97.6188 57.53 98.5692L57.0575 100.005C56.841 100.579 56.45 101.068 55.9418 101.399L55.465 101.679C54.8723 101.989 54.1913 102.075 53.5422 101.923L51.8151 101.428C50.7984 101.134 50.2901 100.988 49.8406 101.174C49.3911 101.36 49.1269 101.826 48.5985 102.759L47.8999 103.992C47.4047 104.867 47.1571 105.304 47.2051 105.769C47.2532 106.235 47.5847 106.61 48.2477 107.36L49.707 109.02C50.0637 109.479 50.3169 110.28 50.3169 111C50.3169 111.72 50.0637 112.52 49.707 112.98L48.2477 114.64C47.5847 115.39 47.2532 115.765 47.2051 116.23C47.1571 116.696 47.4047 117.133 47.8999 118.007L48.5985 119.241C49.1269 120.174 49.3911 120.64 49.8406 120.826C50.2901 121.012 50.7984 120.865 51.8152 120.572L53.5422 120.077C54.1914 119.925 54.8725 120.011 55.4653 120.321L55.942 120.601C56.4503 120.932 56.841 121.421 57.0575 121.994L57.53 123.431C57.8408 124.381 57.9963 124.856 58.3662 125.128C58.736 125.4 59.2275 125.4 60.2103 125.4H61.7881C62.7709 125.4 63.2624 125.4 63.6323 125.128C64.0021 124.856 64.1576 124.381 64.4684 123.431L64.941 121.994C65.1575 121.421 65.5482 120.932 66.0565 120.601L66.5331 120.321C67.1259 120.011 67.8071 119.925 68.4563 120.077L70.1833 120.572C71.1999 120.865 71.7083 121.012 72.1578 120.826C72.6073 120.64 72.8715 120.174 73.4 119.241L74.0984 118.007C74.5938 117.133 74.8415 116.696 74.7932 116.23C74.7452 115.765 74.4138 115.39 73.7507 114.64L72.2915 112.98C71.9346 112.52 71.6816 111.72 71.6816 111C71.6816 110.28 71.9348 109.479 72.2915 109.02L73.7507 107.36C74.4138 106.61 74.7452 106.235 74.7932 105.769C74.8415 105.304 74.5938 104.867 74.0984 103.992Z" stroke="black" stroke-width="2.91464" stroke-linecap="round"/>
<path d="M61.0008 115.2C63.3204 115.2 65.2008 113.32 65.2008 111C65.2008 108.68 63.3204 106.8 61.0008 106.8C58.6812 106.8 56.8008 108.68 56.8008 111C56.8008 113.32 58.6812 115.2 61.0008 115.2Z" stroke="black" stroke-width="2.91464"/>
<path d="M77.8 87V93.8606C73.4709 89.6168 67.5412 87 61 87C47.7452 87 37 97.7452 37 111C37 114.413 37.7125 117.66 38.997 120.6M44.2 135V128.139C48.529 132.383 54.4589 135 61 135C74.2547 135 85 124.255 85 111C85 107.587 84.2874 104.34 83.003 101.4" stroke="black" stroke-width="2.91464" stroke-linecap="round" stroke-linejoin="round"/>
<circle cx="61" cy="182" r="10.2346" stroke="black" stroke-width="3.53077"/>
<path d="M57.0742 156.394C58.0194 152.209 63.9806 152.209 64.9258 156.394C66.0757 161.484 71.9174 163.903 76.3301 161.117C79.9571 158.827 84.1732 163.043 81.8828 166.67C79.0966 171.083 81.516 176.924 86.6064 178.074C90.7907 179.019 90.7907 184.981 86.6064 185.926C81.516 187.076 79.0966 192.917 81.8828 197.33C84.1732 200.957 79.9571 205.173 76.3301 202.883C71.9174 200.097 66.0757 202.516 64.9258 207.606C63.9806 211.791 58.0194 211.791 57.0742 207.606C55.9243 202.516 50.0826 200.097 45.6699 202.883C42.0429 205.173 37.8268 200.957 40.1172 197.33C42.9034 192.917 40.484 187.076 35.3936 185.926C31.2093 184.981 31.2093 179.019 35.3936 178.074C40.484 176.924 42.9034 171.083 40.1172 166.67C37.8268 163.043 42.0429 158.827 45.6699 161.117C50.0826 163.903 55.9243 161.484 57.0742 156.394Z" stroke="black" stroke-width="3.53077"/>
<path d="M143.609 194.295C145.441 191.129 148.863 188.999 152.783 188.999C156.703 188.999 160.126 191.129 161.957 194.295M158.025 177.258C158.025 180.153 155.678 182.5 152.783 182.5C149.888 182.5 147.541 180.153 147.541 177.258C147.541 174.363 149.888 172.016 152.783 172.016C155.678 172.016 158.025 174.363 158.025 177.258Z" stroke="black" stroke-width="3.16909" stroke-linecap="round"/>
<path d="M178.999 187.655V177.345C171.512 177.345 166.643 169.212 170.434 162.755L161.354 157.6C157.516 164.137 148.065 164.137 144.227 157.6L135.148 162.755C138.939 169.212 134.066 177.345 126.578 177.345V187.655C134.066 187.655 138.934 195.788 135.144 202.245L144.223 207.4C148.063 200.86 157.519 200.86 161.358 207.4L170.438 202.245C166.647 195.788 171.512 187.655 178.999 187.655Z" stroke="black" stroke-width="3.16909" stroke-linecap="round" stroke-linejoin="round"/>
<path d="M210.659 120.557C210.747 119.723 211.352 119.05 212.561 117.705L215.224 114.729C215.874 113.905 216.336 112.47 216.336 111.178C216.336 109.888 215.874 108.452 215.223 107.628L212.561 104.652C211.352 103.307 210.747 102.634 210.659 101.8C210.571 100.965 211.023 100.181 211.927 98.613L213.201 96.4011C214.165 94.7283 214.647 93.8919 215.467 93.5584C216.287 93.2249 217.215 93.4881 219.069 94.0144L222.22 94.9019C223.404 95.175 224.647 95.0201 225.728 94.4645L226.598 93.9626C227.525 93.3688 228.238 92.4932 228.633 91.464L229.495 88.8886C230.062 87.1844 230.346 86.3322 231.021 85.8448C231.696 85.3574 232.592 85.3574 234.385 85.3574H237.263C239.056 85.3574 239.953 85.3574 240.628 85.8448C241.303 86.3322 241.586 87.1844 242.153 88.8886L243.015 91.464C243.41 92.4932 244.123 93.3688 245.051 93.9626L245.921 94.4645C247.002 95.0201 248.244 95.175 249.428 94.9019L252.579 94.0144C254.434 93.4881 255.361 93.2249 256.181 93.5584C257.001 93.8919 257.483 94.7283 258.447 96.4011L259.722 98.613C260.625 100.181 261.077 100.965 260.989 101.8C260.902 102.634 260.297 103.307 259.087 104.652L256.425 107.628C255.774 108.452 255.312 109.888 255.312 111.178C255.312 112.47 255.774 113.905 256.425 114.729L259.087 117.705C260.297 119.05 260.902 119.723 260.989 120.557C261.077 121.392 260.625 122.176 259.722 123.744L258.447 125.956C257.483 127.629 257.001 128.465 256.181 128.799C255.361 129.132 254.434 128.869 252.579 128.343L249.428 127.455C248.244 127.182 247.001 127.337 245.92 127.893L245.05 128.395C244.123 128.989 243.41 129.864 243.016 130.893L242.153 133.469C241.586 135.173 241.303 136.025 240.628 136.512C239.953 137 239.056 137 237.263 137H234.385C232.592 137 231.696 137 231.021 136.512C230.346 136.025 230.062 135.173 229.495 133.469" stroke="black" stroke-width="3.0895" stroke-linecap="round"/>
<path d="M211.911 128.685C214.7 125.896 224.181 116.508 225.111 115.423C226.093 114.277 225.297 112.728 225.771 107.925C226 105.601 226.5 103.86 227.93 102.564C229.635 100.953 231.029 100.953 235.832 100.845C240.015 100.953 240.51 100.488 240.944 101.573C241.254 102.347 240.325 102.812 239.209 104.052C236.73 106.531 235.274 107.77 235.135 108.545C234.127 111.953 238.094 113.967 240.263 111.798C241.083 110.978 244.879 107.15 245.251 106.84C245.53 106.592 246.198 106.604 246.522 106.995C246.801 107.269 246.832 107.305 246.801 108.545C246.772 109.692 246.785 111.339 246.788 113.037C246.793 115.238 246.677 117.685 245.747 118.925C243.888 121.713 240.789 121.868 238.001 121.992C235.367 122.147 233.198 121.868 232.516 122.364C231.958 122.643 229.015 125.742 225.452 129.305L219.1 135.657C213.832 139.84 208.038 133.333 211.911 128.685Z" stroke="black" stroke-width="3.0895" stroke-linecap="round"/>
<path d="M258.304 175.345C259.576 173.914 261.77 171.752 261.653 170.872C261.743 170.015 261.279 169.211 260.352 167.602L259.045 165.332C258.055 163.616 257.561 162.757 256.72 162.415C255.878 162.073 254.926 162.343 253.023 162.883L249.79 163.794C248.575 164.074 247.3 163.915 246.191 163.345L245.298 162.83C244.347 162.221 243.615 161.322 243.21 160.266L242.325 157.623C241.743 155.875 241.452 155 240.76 154.5C240.067 154 239.147 154 237.308 154H234.354C232.514 154 231.594 154 230.902 154.5C230.209 155 229.918 155.875 229.336 157.623L228.452 160.266C228.047 161.322 227.315 162.221 226.363 162.83L225.471 163.345C224.361 163.915 223.086 164.074 221.871 163.794L218.638 162.883C216.735 162.343 215.783 162.073 214.942 162.415C214.1 162.757 213.606 163.616 212.617 165.332L211.309 167.602C210.382 169.211 209.918 170.015 210.008 170.872C210.098 171.728 210.719 172.418 211.96 173.798L214.692 176.853C215.359 177.698 215.834 179.171 215.834 180.495C215.834 181.821 215.36 183.293 214.692 184.139L211.96 187.193C210.719 188.573 210.098 189.263 210.008 190.12C209.918 190.976 210.382 191.781 211.309 193.389L212.617 195.659C213.606 197.375 214.1 198.234 214.942 198.576C215.783 198.918 216.735 198.648 218.638 198.108L221.871 197.197C223.087 196.917 224.362 197.076 225.471 197.646L226.364 198.162C227.315 198.771 228.047 199.669 228.451 200.725L229.336 203.368C229.918 205.117 230.24 206.026 230.77 206.409C230.929 206.523 231.565 207.045 233.123 206.997" stroke="black" stroke-width="3.17935" stroke-linecap="round"/>
<path d="M244.445 194.326C244.445 194.326 247.095 195.079 248.42 197.728C248.42 197.728 251.324 191.104 255.065 189.78" stroke="black" stroke-width="3.17935" stroke-linecap="round" stroke-linejoin="round"/>
<path d="M262.992 193.744C262.992 201.06 257.061 206.992 249.744 206.992C242.427 206.992 236.496 201.06 236.496 193.744C236.496 186.427 242.427 180.496 249.744 180.496C257.061 180.496 262.992 186.427 262.992 193.744Z" stroke="black" stroke-width="3.17935" stroke-linecap="round"/>
<path d="M242.221 173.724C239.996 171.911 238.247 171.212 235.703 171.212C230.934 171.276 226.578 175.215 226.578 180.337C226.578 183.161 227.437 184.947 229.058 186.823" stroke="black" stroke-width="3.17935" stroke-linecap="round"/>
<path d="M176.68 98.7152L175.364 96.4309C174.368 94.7033 173.87 93.8396 173.024 93.4951C172.177 93.1507 171.219 93.4225 169.303 93.9661L166.049 94.8826C164.826 95.1646 163.543 95.0046 162.427 94.4309L161.528 93.9126C160.571 93.2993 159.834 92.395 159.427 91.3321L158.536 88.6724C157.951 86.9124 157.658 86.0323 156.961 85.529C156.264 85.0256 155.338 85.0256 153.486 85.0256H150.514C148.662 85.0256 147.736 85.0256 147.039 85.529C146.342 86.0323 146.049 86.9124 145.464 88.6724L144.573 91.3321C144.166 92.395 143.429 93.2993 142.472 93.9126L141.573 94.4309C140.457 95.0046 139.174 95.1646 137.951 94.8826L134.697 93.9661C132.781 93.4225 131.823 93.1507 130.976 93.4951C130.13 93.8396 129.632 94.7033 128.636 96.4309L127.32 98.7152C126.387 100.334 125.921 101.144 126.011 102.006C126.102 102.868 126.726 103.563 127.975 104.952L130.725 108.026C131.397 108.876 131.874 110.359 131.874 111.692C131.874 113.026 131.397 114.508 130.725 115.359L127.975 118.433C126.726 119.822 126.102 120.516 126.011 121.378C125.921 122.24 126.387 123.05 127.32 124.669L128.636 126.953C129.632 128.681 130.13 129.545 130.976 129.889C131.823 130.234 132.781 129.962 134.697 129.418L137.95 128.502C139.174 128.219 140.457 128.38 141.574 128.953L142.472 129.472C143.429 130.085 144.166 130.989 144.573 132.052L145.464 134.712C146.049 136.472 146.342 137.352 147.039 137.855C147.736 138.359 148.662 138.359 150.514 138.359H153.486C155.338 138.359 156.264 138.359 156.961 137.855C157.658 137.352 157.951 136.472 158.536 134.712L159.427 132.052C159.834 130.989 160.571 130.085 161.528 129.472L162.426 128.953C163.543 128.38 164.826 128.219 166.05 128.502L169.303 129.418C171.219 129.962 172.177 130.234 173.024 129.889C173.87 129.545 174.368 128.681 175.364 126.953L176.68 124.669C177.613 123.05 178.079 122.24 177.989 121.378C177.898 120.516 177.274 119.822 176.025 118.433L173.275 115.359C172.603 114.508 172.126 113.026 172.126 111.692C172.126 110.359 172.603 108.876 173.275 108.026L176.025 104.952C177.274 103.563 177.898 102.868 177.989 102.006C178.079 101.144 177.613 100.334 176.68 98.7152Z" stroke="black" stroke-width="3.16064" stroke-linecap="round"/>
<path d="M157.501 110.359L158.835 109.025C160.011 107.849 160.599 107.261 161.371 107.505C162.144 107.749 162.266 108.447 162.51 109.843C162.615 110.444 162.669 111.062 162.669 111.692C162.669 117.583 157.894 122.359 152.003 122.359C150.588 122.359 149.238 122.083 148.003 121.583M146.669 113.119L145.218 114.57C144.06 115.728 143.481 116.307 142.717 116.076C141.952 115.844 141.816 115.16 141.542 113.791C141.407 113.113 141.336 112.411 141.336 111.692C141.336 105.801 146.112 101.026 152.003 101.026C153.417 101.026 154.767 101.301 156.003 101.801" stroke="black" stroke-width="3.16064" stroke-linecap="round" stroke-linejoin="round"/>
<path d="M228.136 28.9576C227.741 28.354 226.927 28.1806 226.361 28.6283C223.834 30.6279 222.031 33.4191 221.256 36.5724C220.377 40.1504 220.887 43.9286 222.684 47.1454C224.48 50.3621 227.429 52.7784 230.936 53.9069C234.444 55.0355 238.248 54.7925 241.583 53.2269C244.919 51.6613 247.536 48.8896 248.909 45.4704C250.281 42.0513 250.306 38.2389 248.979 34.8019C247.652 31.3648 245.072 28.5587 241.757 26.9491C238.836 25.5305 235.537 25.1343 232.384 25.801C231.679 25.9502 231.292 26.6872 231.504 27.3768V27.3768C231.716 28.0665 232.446 28.4462 233.155 28.3108C235.672 27.83 238.29 28.1695 240.616 29.2992C243.335 30.6199 245.453 32.9226 246.542 35.7429C247.631 38.5632 247.61 41.6915 246.484 44.4972C245.358 47.3029 243.21 49.5773 240.473 50.8619C237.736 52.1466 234.614 52.346 231.737 51.4199C228.859 50.4938 226.439 48.5112 224.965 45.8716C223.491 43.232 223.072 40.1317 223.794 37.1958C224.411 34.6848 225.822 32.4536 227.8 30.8243C228.357 30.3657 228.531 29.5612 228.136 28.9576V28.9576Z" fill="black"/>
<path d="M254.965 51.5594L257.236 54.3967L249.061 60.7555L245.427 56.6677C242.52 58.4845 240.583 58.9387 239.977 58.9387V65.2974H230.893V58.9387C228.35 58.5753 225.897 57.2733 224.988 56.6677L220.901 60.7555L214.542 54.3967L218.63 50.3089C217.176 48.8555 216.207 46.0698 215.905 44.8586H210V34.8663H215.905C216.359 32.1411 217.721 30.0215 218.63 28.9617L214.088 24.4198L220.901 17.6068L224.988 21.6946C225.594 21.2404 227.435 20.1178 229.978 19.3911L229.985 13.9733H240.431V19.4236C241.34 19.7264 243.792 20.6954 246.336 22.1488L250.423 18.061L257.236 24.4198L252.694 28.9617C253.3 29.7187 254.602 31.6869 254.965 33.5037H260.87V44.8586H254.965C254.965 45.3128 254.697 46.4802 254.057 47.5838" stroke="black" stroke-width="2.37029" stroke-linecap="round"/>
<circle cx="235.434" cy="39.8624" r="3.81101" stroke="black" stroke-width="2.37029"/>
<circle cx="152" cy="38.3053" r="8.73641" stroke="black" stroke-width="2.97934"/>
<path d="M147.187 16.1519C148.346 11.0228 155.655 11.0227 156.814 16.1519C157.565 19.4763 161.379 21.0566 164.261 19.2368C168.707 16.4295 173.875 21.5981 171.068 26.0445L170.907 26.3169C170.52 27.0233 170.328 27.7763 170.305 28.5206C170.287 29.1323 170.075 29.7456 169.593 30.1226C168.713 30.811 167.415 30.4363 167.321 29.3228C167.183 27.6861 167.55 25.9794 168.524 24.438C169.619 22.7029 167.602 20.6864 165.867 21.7818C161.228 24.7109 155.087 22.1665 153.878 16.815C153.426 14.8137 150.575 14.8138 150.122 16.815C148.913 22.1664 142.772 24.7105 138.133 21.7818C136.398 20.686 134.381 22.7028 135.477 24.438C138.406 29.0769 135.861 35.2183 130.51 36.4273C128.509 36.8797 128.509 39.7308 130.51 40.1831C135.861 41.3921 138.406 47.5335 135.477 52.1724C134.381 53.9076 136.398 55.9244 138.133 54.8286C142.772 51.8999 148.913 54.4432 150.122 59.7945C150.574 61.7961 153.426 61.7962 153.878 59.7945C155.087 54.4432 161.229 51.8995 165.867 54.8286C167.602 55.924 169.619 53.9075 168.524 52.1724C165.595 47.5335 168.138 41.3922 173.489 40.1831C175.491 39.7308 175.491 36.8796 173.489 36.4273C173.218 36.3659 172.953 36.2915 172.696 36.2052C171.635 35.8483 171.583 34.4964 172.465 33.8063L172.497 33.7814C172.96 33.4195 173.58 33.3623 174.153 33.4917C179.282 34.6506 179.282 41.9598 174.153 43.1187L173.846 43.1978C170.733 44.1072 169.305 47.7744 171.068 50.5659C173.875 55.0124 168.707 60.1801 164.261 57.3726C161.379 55.5531 157.565 57.1335 156.814 60.4575L156.754 60.6949C155.427 65.5861 148.327 65.5068 147.187 60.4575C146.436 57.1335 142.621 55.5534 139.739 57.3726L139.53 57.4986C135.133 60.0196 130.168 54.943 132.932 50.5659C134.695 47.7742 133.267 44.107 130.153 43.1978L129.847 43.1187C124.718 41.9598 124.718 34.6507 129.847 33.4917C133.067 32.7641 134.651 29.1613 133.093 26.3169L132.932 26.0445C130.124 21.598 135.293 16.429 139.739 19.2368C142.621 21.0564 146.436 19.4763 147.187 16.1519Z" fill="black"/>
</svg>
