<svg width="33" height="45" viewBox="0 0 33 45" fill="none" xmlns="http://www.w3.org/2000/svg">
<path d="M19.28 18.254C19.28 13.6529 14.553 14.5254 11.7313 16.0684C11.4632 16.215 11.531 16.6062 11.8182 16.7106C13.2908 17.2461 13.686 18.2007 13.686 19.726V32.7879C13.686 33.0878 14.0408 33.2464 14.2642 33.0465L19.1644 28.6621C19.238 28.5963 19.28 28.5023 19.28 28.4036V18.254Z" fill="#1FB141"/>
<path d="M31.8477 13.5135C3.05406 59.3282 -3.37694 26.5254 9.26851 15.6044C-13.196 30.2926 9.3709 68.9275 32.4563 13.8346C32.6205 13.4428 32.0737 13.1539 31.8477 13.5135Z" fill="#1FB141"/>
<path d="M13.7427 44.159C19.9375 44.0048 19.6124 39.7372 19.576 35.3033C19.5739 35.0454 19.3021 34.8786 19.0763 35.0031C16.1247 36.631 14.1357 39.1013 13.4378 40.2563C13.406 40.3089 13.3906 40.3682 13.3906 40.4296V43.8164C13.3906 44.008 13.5512 44.1638 13.7427 44.159Z" fill="#1FB141"/>
<path d="M16.6306 11.7769C19.8827 11.7769 22.5191 9.14055 22.5191 5.88845C22.5191 2.63635 19.8827 0 16.6306 0C13.3785 0 10.7422 2.63635 10.7422 5.88845C10.7422 9.14055 13.3785 11.7769 16.6306 11.7769Z" fill="#1FB141"/>
</svg>
