<svg width="260" height="178" viewBox="0 0 260 178" fill="none" xmlns="http://www.w3.org/2000/svg">
<path d="M39.1792 13.2537L37.4763 14.3485L43.1055 17.7475L43.1548 18.3243C44.5257 34.3534 32.4114 44.5208 26.2347 47.6092L25.6923 47.8801L25.1653 47.5811C11.1111 39.6101 8.57095 24.7942 9.05419 18.3364L9.09737 17.7573L14.5161 14.4227L12.5437 13.3134L25.9823 4.55566L39.1792 13.2537ZM16.9277 13.1703L18.9978 14.3349L11.2888 19.0786C11.0396 25.1882 13.5866 38.0697 25.7562 45.2949C31.5827 42.1494 41.8268 33.018 40.9315 19.0912L33.1772 14.4092L35.0112 13.2298L25.9753 7.27416L16.9277 13.1703Z" fill="black"/>
<path d="M35.3174 18.6184L34.2377 19.3105L37.5037 21.2772L37.5533 21.8551C38.4616 32.4475 30.4425 39.1379 26.3736 41.167L25.8325 41.4367L25.3065 41.1392C16.0235 35.888 14.3487 26.135 14.6689 21.8672L14.7125 21.2873L17.8117 19.3848L16.5519 18.6779L26.0333 12.5153L35.3174 18.6184ZM20.9442 18.5348L22.3023 19.2969L16.9092 22.6069C16.8192 26.5018 18.4842 34.3417 25.8949 38.848C29.5941 36.7774 35.768 31.1234 35.3265 22.6204L29.9305 19.3712L31.1417 18.5945L26.0262 15.2318L20.9442 18.5348Z" fill="black"/>
<path d="M147.179 27C147.179 16.96 139.04 8.8209 129 8.8209C118.96 8.8209 110.821 16.96 110.821 27C110.821 37.04 118.96 45.1791 129 45.1791V48C117.402 48 108 38.598 108 27C108 15.402 117.402 6 129 6C140.598 6 150 15.402 150 27C150 38.598 140.598 48 129 48V45.1791C139.04 45.1791 147.179 37.04 147.179 27Z" fill="black"/>
<path d="M141.54 27.0001C141.54 20.0759 135.927 14.4627 129.003 14.4627C122.079 14.4627 116.465 20.0759 116.465 27.0001C116.465 33.9242 122.079 39.5374 129.003 39.5374V42.3583C120.521 42.3583 113.645 35.4822 113.645 27.0001C113.645 18.518 120.521 11.6418 129.003 11.6418C137.485 11.6418 144.361 18.518 144.361 27.0001C144.361 35.4822 137.485 42.3583 129.003 42.3583V39.5374C135.927 39.5374 141.54 33.9242 141.54 27.0001Z" fill="black"/>
<path d="M130.716 23.6879L130.974 24.2816L131.618 24.3431L135.915 24.7523L132.68 27.6097L132.194 28.0385L132.335 28.6703L133.272 32.8822L129.557 30.6888L128.999 30.3597L128.44 30.6888L124.724 32.8832L125.662 28.6703L125.803 28.0385L125.317 27.6097L122.081 24.7523L126.379 24.3431L127.023 24.2816L127.281 23.6879L128.998 19.7269L130.716 23.6879Z" stroke="black" stroke-width="2.19403"/>
<path d="M217.797 9.73202L219.235 9.89267C225.721 10.6171 230.836 7.23861 233.219 6.23929L233.789 6L234.333 6.29321C236.451 7.43409 239.336 8.4485 242.079 9.12144C244.871 9.80632 247.288 10.0809 248.525 9.89857L250.008 9.68006V29.306C250.008 35.52 246.614 38.6474 244.553 39.4539L242.787 40.1449V23.3583L241.474 23.9684V42.476L234.376 46.8503V27.0659L233.692 27.6597L233.185 27.1909V47L226.574 42.4321V23.9891L225.018 23.3083V40.3344L223.149 39.4082C221.387 38.535 220.194 36.5969 219.411 34.8347C218.599 33.0072 218.089 31.0451 217.85 29.7242C217.812 29.5143 217.797 29.3101 217.797 29.1139V9.73202ZM220.385 29.1139C220.385 29.1733 220.39 29.2221 220.397 29.2636C220.608 30.4301 221.067 32.1856 221.777 33.7837C221.984 34.25 222.202 34.6796 222.429 35.0661V19.3514L229.162 22.2961V41.0742L230.597 42.0651V21.2699L233.747 24.1849L236.964 21.3946V42.2148L238.886 41.0307V22.3169L245.375 19.3016V35.6638C246.405 34.4642 247.419 32.4414 247.419 29.306V12.5386C245.738 12.5097 243.599 12.1591 241.463 11.6351C238.812 10.9848 235.969 10.0176 233.687 8.87316C231.544 9.92097 226.505 12.7685 220.385 12.5678V29.1139Z" fill="black"/>
<path d="M26.5514 63.1334C29.7846 65.5954 32.0902 67.1349 33.8155 68.1092C34.6991 68.6082 35.496 69.3456 36.1115 70.0129C36.7347 70.6885 37.234 71.3605 37.5166 71.797L38.065 72.6438L37.3696 73.3751C35.9345 74.8845 35.8107 76.4315 35.872 77.0212C36.0096 77.2471 36.1197 77.3459 36.1768 77.3857C36.2319 77.424 36.2676 77.4313 36.3144 77.4315C36.3813 77.4319 36.4955 77.4135 36.668 77.3426C36.8204 77.2801 36.9813 77.1913 37.1554 77.0845C38.2121 76.2233 39.5713 75.9295 40.2019 75.8451L43 75.4705L41.4383 77.8224C41.2773 78.0649 41.0957 78.5071 40.9334 79.0519C40.7787 79.5715 40.6723 80.0772 40.6242 80.3672C39.95 84.4278 37.2737 89.1655 36.0487 91.0101L35.6014 91.6838L34.8954 91.5827C34.8866 91.5908 34.876 91.6008 34.864 91.613C34.7279 91.7522 34.5541 92.0231 34.3784 92.4368C34.0306 93.2554 33.8317 94.2528 33.786 94.7117L33.7838 94.7356L33.7805 94.7592C33.758 94.9224 33.7431 95.0672 33.7332 95.1952L36.4322 93.3889L34.9391 97.1942C34.2494 98.9516 32.6063 100.87 30.9985 102.47C29.3509 104.109 27.575 105.574 26.4305 106.43L25.6695 107L24.9041 106.437C22.1356 104.398 20.151 102.47 18.8027 100.867C17.4894 99.3051 16.6985 97.9544 16.4561 97.062L15.6448 94.0763L17.7403 95.2785C17.7225 95.1227 17.6988 94.9717 17.6722 94.8412C17.3403 93.2171 16.8651 92.3557 16.5105 91.9322C16.3011 91.6821 16.1572 91.6058 16.1099 91.5847L15.4461 91.6241L15.0413 90.992C12.581 87.1498 11.26 82.5976 10.8554 80.5797L10.819 80.3925C10.575 79.1778 10.105 78.0536 9.92131 77.6846L9 75.834H11.0674C11.2937 75.834 11.6967 75.8374 12.2713 76.0223C12.8167 76.1979 13.4657 76.5191 14.2684 77.0773C14.6186 77.3208 14.8602 77.3927 14.9972 77.4115C15.1251 77.4291 15.2059 77.4074 15.2653 77.3801C15.3354 77.3479 15.4095 77.2906 15.4764 77.2104C15.5088 77.1715 15.5346 77.133 15.5534 77.0998C15.5572 77.0931 15.5597 77.0864 15.5626 77.0809C15.5806 76.9565 15.5807 76.7529 15.5242 76.4555C15.4594 76.1139 15.3351 75.7219 15.1669 75.308C14.8293 74.4772 14.364 73.6764 14.0486 73.2098L13.8291 72.885V72.4929C13.8291 71.9345 14.0808 71.4309 14.2867 71.0935C14.5183 70.7139 14.8258 70.3321 15.1641 69.9763C15.8367 69.269 16.7386 68.5517 17.6789 68.0797C18.2125 67.8119 19.5163 66.9595 21.0188 65.9304C22.4841 64.9267 24.042 63.8225 25.028 63.1128L25.7973 62.5591L26.5514 63.1334ZM25.7551 65.7409C24.8091 66.415 23.6111 67.2585 22.4657 68.0431C21.0172 69.0353 19.5514 70.0049 18.8274 70.3683C18.1959 70.6853 17.5262 71.2081 17.0198 71.7406C16.8066 71.9648 16.6416 72.1705 16.528 72.3401C16.8622 72.8958 17.2376 73.6022 17.5391 74.3442C17.748 74.8582 17.9336 75.4188 18.0398 75.9779C18.1437 76.5252 18.1874 77.1533 18.0359 77.7616L18.0242 77.8091L18.0087 77.8558C17.806 78.466 17.26 79.2817 16.3341 79.707C15.4117 80.1307 14.3346 80.0709 13.2318 79.447C13.2463 79.5079 13.2611 79.569 13.2748 79.6306L13.3332 79.9074L13.336 79.9224C13.6393 81.5467 14.7848 85.6363 16.9106 89.1488C17.4748 89.3417 18.0163 89.7422 18.4738 90.2885C19.184 91.1368 19.7941 92.436 20.1808 94.3286C20.2906 94.8657 20.4327 95.8763 20.2139 96.7022C20.138 96.9885 19.9764 97.4013 19.636 97.7291C19.9137 98.1481 20.2827 98.6485 20.7626 99.2191C21.847 100.509 23.4387 102.086 25.6537 103.794C26.6711 102.985 27.9726 101.868 29.1922 100.654C30.244 99.6079 31.1664 98.5556 31.8089 97.6107C31.4505 97.227 31.2822 96.7376 31.2096 96.2732C31.1289 95.7564 31.1444 95.1425 31.2413 94.4289C31.3121 93.7538 31.5622 92.5172 32.0217 91.4355C32.253 90.8912 32.5774 90.2885 33.0342 89.8218C33.3375 89.5119 33.744 89.2223 34.24 89.0883C35.4862 87.0927 37.5644 83.1621 38.0981 79.9476C38.1216 79.8063 38.1539 79.635 38.1945 79.4436C37.7174 79.7074 37.0491 79.9957 36.3019 79.9921C35.77 79.9895 35.2213 79.8404 34.7132 79.4864C34.2192 79.1423 33.8253 78.6479 33.5104 78.0444L33.4334 77.8972L33.3968 77.7349C33.1516 76.6519 33.2805 74.5095 34.8179 72.4371C34.6458 72.221 34.4476 71.9859 34.2292 71.7492C33.6976 71.1729 33.1098 70.6514 32.5563 70.3389C30.835 69.3668 28.654 67.9173 25.7551 65.7409Z" fill="black"/>
<path d="M27.5671 82.2181C27.5671 81.2728 26.7527 80.3688 25.5756 80.3688C24.3984 80.3688 23.584 81.2728 23.584 82.2181C23.584 83.1634 24.3984 84.0674 25.5756 84.0674V86.628C23.0615 86.628 21.0234 84.6536 21.0234 82.2181C21.0234 79.7826 23.0615 77.8082 25.5756 77.8082C28.0896 77.8082 30.1277 79.7826 30.1277 82.2181C30.1277 84.6536 28.0896 86.628 25.5756 86.628V84.0674C26.7527 84.0674 27.5671 83.1634 27.5671 82.2181Z" fill="black"/>
<path d="M133.289 67.5052L145 73.1328V94.2863L128.98 103.578L112.5 94.2977V73.1282L124.384 67.4905L129.018 60.2628L133.289 67.5052ZM126.204 69.5574L115.147 74.8021V92.7502L128.961 100.529L142.353 92.7614V74.7972L131.417 69.5427L128.923 65.3142L126.204 69.5574Z" fill="black"/>
<path d="M135.146 99.5165C135.283 104.443 131.654 107.752 129.575 108.819L128.967 109.131L128.36 108.816C126.2 107.692 124.747 105.8 123.844 104.06C122.955 102.349 122.5 100.592 122.5 99.5532H125.147C125.147 100.034 125.427 101.366 126.193 102.841C126.839 104.084 127.759 105.288 128.968 106.102C130.521 105.043 132.587 102.707 132.501 99.59L135.146 99.5165Z" fill="black"/>
<path d="M131.549 77.3652L135.632 76.7365L135.722 80.8662L139.253 83.0089L136.667 86.2301L137.995 90.1415L133.944 90.9469L132.447 94.7971L128.826 92.8098L125.205 94.7971L123.708 90.9469L119.656 90.1415L120.984 86.2301L118.398 83.0089L121.93 80.8662L122.02 76.7365L126.103 77.3652L128.826 74.2592L131.549 77.3652ZM127.135 80.2027L124.6 79.8121L124.545 82.3758L122.353 83.706L123.958 85.7056L123.133 88.1338L125.649 88.6339L126.578 91.0236L128.826 89.7902L131.074 91.0236L132.003 88.6339L134.518 88.1338L133.694 85.7056L135.299 83.706L133.107 82.3758L133.051 79.8121L130.516 80.2027L128.826 78.2743L127.135 80.2027Z" fill="black"/>
<path d="M223.744 66.8043C228.29 63.2285 234.643 63.0562 239.376 66.3803L240.518 67.1821C240.552 67.2062 240.589 67.2267 240.628 67.2431L247.413 70.1164C248.825 70.7148 249.826 72.0649 249.923 73.6417C251.146 93.5862 239.718 101.982 232.635 103.873C231.746 104.11 230.834 104.003 230.055 103.654C215.242 97.0363 213.524 81.3188 214.507 73.3273C214.684 71.8859 215.626 70.7375 216.845 70.1749L223.107 67.285C223.149 67.2655 223.189 67.2411 223.226 67.2123L223.744 66.8043ZM237.322 69.3047C233.88 66.8872 229.26 67.0124 225.954 69.613L225.435 70.021C225.179 70.2224 224.9 70.3932 224.604 70.5297L218.343 73.4195C218.145 73.5106 218.067 73.6569 218.054 73.7639C217.14 81.1937 218.876 94.7461 231.512 100.392C231.606 100.434 231.679 100.429 231.713 100.42C237.242 98.9441 247.469 92.0177 246.356 73.8601C246.345 73.6817 246.225 73.4947 246.019 73.4073L239.234 70.534C238.963 70.4192 238.705 70.2758 238.464 70.1065L237.322 69.3047Z" fill="black"/>
<path d="M235.223 78.4277L242.06 79.44L237.123 84.2778L238.274 91.0931L232.147 87.8933L226.021 91.0931L227.171 84.2778L222.234 79.44L229.072 78.4277L232.147 72.2379L235.223 78.4277ZM230.849 80.8741L227.963 81.3013L230.047 83.3434L229.561 86.2199L232.147 84.8693L234.733 86.2199L234.248 83.3434L236.331 81.3013L233.445 80.8741L232.147 78.2611L230.849 80.8741Z" fill="black"/>
<path d="M140.251 134.375H141.249C138.385 133.217 133.55 130.442 127.988 125.178C126.58 126.486 124.616 128.182 122.443 129.818C120.143 131.55 117.539 133.27 115.072 134.375H116.335V147.711L116.333 147.742C116.215 150.224 118.162 157.385 128.051 163.339C130.211 162.23 133.121 160.313 135.562 157.771C138.255 154.964 140.251 151.532 140.251 147.678V134.375ZM142.941 147.678C142.941 152.495 140.452 156.561 137.503 159.634C134.548 162.712 131.005 164.931 128.569 166.084L127.932 166.386L127.321 166.033C116.263 159.644 113.489 151.423 113.644 147.657V137.066H112V132.685L112.885 132.363C115.325 131.476 118.186 129.655 120.824 127.669C123.442 125.698 125.745 123.636 127.051 122.354L127.995 121.428L128.937 122.355C136.004 129.304 141.775 131.896 143.552 132.319L144.585 132.565V137.066H142.941V147.678Z" fill="black"/>
<path d="M129.636 139.009V143.493H126.945V139.009H129.636Z" fill="black"/>
<path d="M135.028 147.045L130.544 147.066L130.531 144.375L135.016 144.354L135.028 147.045Z" fill="black"/>
<path d="M129.636 147.977V152.462H126.945V147.977H129.636Z" fill="black"/>
<path d="M126.06 147.092L121.575 147.113L121.563 144.423L126.047 144.402L126.06 147.092Z" fill="black"/>
<path d="M129.488 145.586C129.488 144.925 128.953 144.39 128.293 144.39C127.632 144.39 127.097 144.925 127.097 145.586C127.097 146.246 127.632 146.782 128.293 146.782V149.472C126.146 149.472 124.406 147.732 124.406 145.586C124.406 143.439 126.146 141.699 128.293 141.699C130.439 141.699 132.179 143.439 132.179 145.586C132.179 147.732 130.439 149.472 128.293 149.472V146.782C128.953 146.782 129.488 146.246 129.488 145.586Z" fill="black"/>
<path d="M236.946 128.159C238.414 128.17 240.445 128.27 242.558 128.535C245.061 128.85 247.807 129.411 249.862 130.408L250.88 130.902L250.509 131.97C249.42 135.1 247.728 143.017 247.183 148.905C246.793 153.121 244.605 156.42 241.939 159.067C239.292 161.696 236.066 163.782 233.49 165.523L232.829 165.97L232.14 165.569C226.116 162.067 218.88 157.121 217.953 148.931C217.368 143.763 215.393 135.355 214.329 131.93L214 130.871L215.003 130.401C217.004 129.463 219.834 128.915 222.448 128.595C224.702 128.318 226.901 128.199 228.479 128.169L232.801 120.042L236.946 128.159ZM230.01 130.705H229.247C227.762 130.705 225.292 130.808 222.758 131.119C220.676 131.374 218.645 131.759 217.09 132.299C218.225 136.3 219.93 143.79 220.48 148.645C221.219 155.176 226.848 159.478 232.732 162.967C235.21 161.299 237.911 159.484 240.147 157.263C242.567 154.859 244.335 152.084 244.651 148.67C245.155 143.229 246.605 136.096 247.744 132.272C246.179 131.697 244.215 131.306 242.241 131.058C239.84 130.757 237.548 130.682 236.19 130.704L235.397 130.717L232.755 125.544L230.01 130.705Z" fill="black"/>
<path d="M231.036 135.523C234.527 135.299 238.586 135.613 242.382 137.192L243.243 137.55L242.319 148.033L242.316 148.065L242.311 148.097C242.104 149.574 241.339 151.888 239.847 153.98C238.341 156.091 236.027 158.063 232.717 158.611L232.492 158.649L232.267 158.605C229.787 158.122 224.523 155.195 223.083 148.176L223.072 148.121L223.065 148.064L221.871 137.528L222.794 137.177C224.54 136.514 227.546 135.747 231.036 135.523ZM240.543 139.208C237.458 138.109 234.161 137.871 231.199 138.061C228.539 138.232 226.206 138.743 224.624 139.237L225.585 147.716C226.756 153.318 230.793 155.604 232.54 156.059C234.882 155.599 236.585 154.174 237.777 152.503C239.015 150.767 239.633 148.854 239.789 147.765L240.543 139.208Z" fill="black"/>
<path d="M39.8065 132.655C36.8641 132.424 31.4186 131.182 26.5995 127.483C25.1532 128.538 23.0149 129.875 20.6348 130.941C18.2506 132.009 15.5353 132.845 12.9943 132.781V144.662C13.6097 151.239 18.166 158.755 26.583 162.987C28.9204 161.647 32.2307 159.425 34.956 156.361C37.7022 153.272 39.8065 149.385 39.8065 144.712V132.655ZM41.8008 144.712C41.8008 150.025 39.4001 154.364 36.4463 157.686C33.4967 161.003 29.9475 163.364 27.5077 164.756C26.9669 165.065 26.3101 165.08 25.7566 164.804C16.6994 160.279 11.6723 152.134 11.0041 144.802L11 144.757V132.722C11 131.551 12.0135 130.761 13.0395 130.787C15.1522 130.842 17.5521 130.137 19.8196 129.121C22.0722 128.112 24.1067 126.837 25.4595 125.847L25.5253 125.8C26.1907 125.354 27.064 125.367 27.7161 125.828L27.7806 125.876L27.9902 126.035C32.4065 129.354 37.3805 130.471 39.9958 130.67C40.9629 130.744 41.8008 131.536 41.8008 132.587V144.712Z" fill="black"/>
<path d="M14.7656 140.958V135.046L19.1978 133.481C19.7171 133.298 20.2867 133.57 20.47 134.089C20.6533 134.609 20.381 135.178 19.8617 135.362L16.7599 136.456V140.958C16.7599 141.509 16.3135 141.955 15.7628 141.955C15.2121 141.955 14.7656 141.509 14.7656 140.958Z" fill="black"/>
<path d="M21.7457 132.2C22.2383 131.954 22.8374 132.153 23.0837 132.646C23.33 133.138 23.1303 133.738 22.6377 133.984L22.4161 134.095C21.9235 134.341 21.3244 134.141 21.0781 133.649C20.8319 133.156 21.0316 132.557 21.5241 132.311L21.7457 132.2Z" fill="black"/>
<path d="M29.618 156.369C29.979 155.954 30.6089 155.909 31.0248 156.27C31.4407 156.631 31.4851 157.261 31.1241 157.677L30.9617 157.864C30.6006 158.28 29.9707 158.324 29.5548 157.963C29.139 157.602 29.0945 156.972 29.4555 156.557L29.618 156.369Z" fill="black"/>
<path d="M35.2356 148.96C35.4434 148.45 36.0254 148.205 36.5354 148.412C37.0454 148.62 37.2905 149.202 37.0827 149.712C36.5654 150.982 35.0421 154.009 33.0462 155.812C32.6376 156.181 32.007 156.149 31.6378 155.74C31.2687 155.332 31.3006 154.701 31.7092 154.332C33.3706 152.831 34.7558 150.137 35.2356 148.96Z" fill="black"/>
<path d="M29.8326 144.06C30.3834 144.06 30.8298 144.507 30.8298 145.058C30.8298 145.608 30.3834 146.055 29.8326 146.055H22.8526C22.3019 146.055 21.8555 145.608 21.8555 145.058C21.8555 144.507 22.3019 144.06 22.8526 144.06H29.8326Z" fill="black"/>
<path d="M25.4023 148.714V141.291C25.4023 140.74 25.8488 140.293 26.3995 140.293C26.9502 140.293 27.3966 140.74 27.3966 141.291V148.714C27.3966 149.265 26.9502 149.711 26.3995 149.711C25.8488 149.711 25.4023 149.265 25.4023 148.714Z" fill="black"/>
</svg>
