<svg width="260" height="178" viewBox="0 0 260 178" fill="none" xmlns="http://www.w3.org/2000/svg">
<path d="M20.7435 16.7266C20.963 16.1335 21.8019 16.1335 22.0214 16.7266L22.4507 17.8866C23.2098 19.9378 24.8271 21.5551 26.8783 22.3142L28.0383 22.7435C28.6314 22.963 28.6314 23.8019 28.0383 24.0214L26.8783 24.4507C24.8271 25.2098 23.2098 26.8271 22.4507 28.8783L22.0214 30.0383C21.8019 30.6314 20.963 30.6314 20.7435 30.0383L20.3142 28.8783C19.5551 26.8271 17.9378 25.2098 15.8866 24.4507L14.7266 24.0214C14.1335 23.8019 14.1335 22.963 14.7266 22.7435L15.8866 22.3142C17.9378 21.5551 19.5551 19.9378 20.3142 17.8866L20.7435 16.7266Z" fill="black"/>
<path d="M21.082 35.3574V42.2636C21.082 44.8976 23.2173 47.0329 25.8514 47.0329H44.7531C47.3872 47.0329 49.5224 44.8976 49.5224 42.2636V33.094C49.5224 31.6823 50.1478 30.3432 51.2302 29.4371L55.2064 26.1081C57.6465 24.0652 56.2019 20.0894 53.0196 20.0894H33.9551" stroke="black" stroke-width="2.72533" stroke-linecap="round"/>
<path d="M32.7578 22.4019V20.4609C32.7578 20.0887 33.0557 19.7852 33.428 19.7818C40.2372 19.7199 53.2221 20.1572 54.612 20.3889C55.1991 20.4867 55.7229 20.921 56.1507 21.4753C57.2009 22.8359 56.4901 24.6614 55.1698 25.7617L51.2239 29.05C50.5049 29.6493 49.978 30.4469 49.7091 31.3434L49.4245 32.2921C49.2911 32.7367 49.2233 33.1983 49.2233 33.6625V41.9643C49.2233 44.5984 47.088 46.7337 44.454 46.7337H36.6497V40.8286C36.6497 40.4523 36.9547 40.1473 37.331 40.1473H43.0862C43.9955 40.1473 44.7327 39.4101 44.7327 38.5007C44.7327 37.5913 43.9955 36.8542 43.0862 36.8542H37.331C36.9547 36.8542 36.6497 36.5491 36.6497 36.1728V31.8474C36.6497 31.4711 36.9547 31.1661 37.331 31.1661H43.2359C44.0626 31.1661 44.7327 30.4959 44.7327 29.6692C44.7327 28.8425 44.0626 28.1724 43.2359 28.1724H37.331C36.9547 28.1724 36.6497 27.8673 36.6497 27.491V23.7646C36.6497 23.3883 36.3446 23.0832 35.9683 23.0832L33.4392 23.0833C33.0629 23.0833 32.7578 22.7782 32.7578 22.4019Z" fill="black"/>
<rect x="27.3711" y="36.5547" width="9.57993" height="3.59247" rx="1.79624" fill="black"/>
<path d="M32.1602 29.6698C32.1602 28.6777 32.9644 27.8735 33.9564 27.8735H35.1539C36.1459 27.8735 36.9501 28.6777 36.9501 29.6698C36.9501 30.6618 36.1459 31.466 35.1539 31.466H33.9564C32.9644 31.466 32.1602 30.6618 32.1602 29.6698Z" fill="black"/>
<circle cx="37.1566" cy="146.89" r="10.0529" stroke="black" stroke-width="1.94573"/>
<path d="M26.1306 137.161C23.3201 140.188 19.3854 148.252 26.1306 156.294" stroke="black" stroke-width="1.94573" stroke-linecap="round"/>
<path d="M48.428 137.161C51.2385 140.188 55.1732 148.252 48.428 156.294" stroke="black" stroke-width="1.94573" stroke-linecap="round"/>
<path d="M33.2637 146.241L33.3144 146.9C33.4688 148.907 35.1423 150.457 37.1551 150.457C39.168 150.457 40.8415 148.907 40.9959 146.9L41.0466 146.241" stroke="black" stroke-width="1.29715" stroke-linecap="round"/>
<path d="M37.1562 150.781V152.727" stroke="black" stroke-width="1.29715" stroke-linecap="round"/>
<path d="M35.8594 152.727H38.2675" stroke="black" stroke-width="1.29715" stroke-linecap="round"/>
<path d="M34.5625 143.323C34.5625 141.89 35.724 140.729 37.1568 140.729C38.5896 140.729 39.7511 141.89 39.7511 143.323V146.704C39.7511 148.137 38.5896 149.298 37.1568 149.298C35.724 149.298 34.5625 148.137 34.5625 146.704V143.323Z" fill="black"/>
<path d="M24.5084 134.243C20.6169 138.134 15.1689 148.576 24.5084 159.213" stroke="black" stroke-width="1.94573" stroke-linecap="round"/>
<path d="M50.0502 134.243C53.9417 138.134 59.3897 148.576 50.0502 159.213" stroke="black" stroke-width="1.94573" stroke-linecap="round"/>
<path d="M22.8873 131C17.6988 135.216 10.5659 148.836 22.5636 162.78" stroke="black" stroke-width="1.94573" stroke-linecap="round"/>
<path d="M51.6713 131C56.8598 135.216 63.9927 148.836 51.995 162.78" stroke="black" stroke-width="1.94573" stroke-linecap="round"/>
<path d="M118.068 135.774V157.747C118.068 160.971 120.682 163.585 123.906 163.585H133.98C137.204 163.585 139.817 160.971 139.817 157.747V135.774" stroke="black" stroke-width="1.94573" stroke-linecap="round"/>
<path d="M129.122 129.973C132.343 129.973 135.115 130.666 137.046 131.731C139.004 132.812 139.915 134.154 139.915 135.418C139.915 136.681 139.004 138.023 137.046 139.104C135.115 140.169 132.343 140.862 129.122 140.862C125.901 140.862 123.033 140.169 121.006 139.096C118.935 137.999 117.973 136.652 117.973 135.418C117.973 134.184 118.935 132.836 121.006 131.739C123.033 130.666 125.901 129.973 129.122 129.973Z" stroke="black" stroke-width="1.94573"/>
<path d="M139.43 157.436C139.43 160.668 136.932 163.351 133.708 163.582L129.146 163.908L129.129 163.909L129.112 163.908L124.222 163.745C120.833 163.632 118.171 160.801 118.268 157.411L118.459 150.74L118.467 150.424H139.43V157.436ZM123.06 155.741C122.47 155.741 121.991 156.219 121.991 156.81C121.991 157.401 122.47 157.879 123.06 157.879H124.843C125.434 157.879 125.913 157.401 125.913 156.81C125.913 156.219 125.434 155.741 124.843 155.741H123.06ZM129.122 155.741C128.531 155.741 128.052 156.219 128.052 156.81C128.052 157.401 128.531 157.879 129.122 157.879H130.904C131.495 157.879 131.974 157.401 131.974 156.81C131.974 156.219 131.495 155.741 130.904 155.741H129.122Z" fill="black"/>
<path d="M144.096 141.835C145.641 143.975 148.018 148.253 144.096 152.888" stroke="black" stroke-width="1.94573" stroke-linecap="round"/>
<path d="M148.375 138.27C150.633 141.003 154.436 148.253 148.375 156.454" stroke="black" stroke-width="1.94573" stroke-linecap="round"/>
<path d="M132.934 135.77C132.934 136.755 131.178 137.553 129.012 137.553C126.846 137.553 125.09 136.755 125.09 135.77C125.09 134.786 126.846 133.988 129.012 133.988C131.178 133.988 132.934 134.786 132.934 135.77Z" fill="black"/>
<path d="M228.563 75.0405H228.446C223.602 75.0405 219.676 78.9672 219.676 83.811V92.3476C219.676 96.3518 222.922 99.5979 226.926 99.5979C230.93 99.5979 234.176 96.3518 234.176 92.3476V86.7345" stroke="black" stroke-width="1.94573" stroke-linecap="round"/>
<path d="M234.972 73.6436C235.181 73.079 235.979 73.079 236.188 73.6436L236.21 73.7035C236.933 75.6561 238.472 77.1956 240.425 77.9182L240.485 77.9404C241.05 78.1493 241.05 78.9479 240.485 79.1569L240.425 79.1791C238.472 79.9017 236.933 81.4412 236.21 83.3938L236.188 83.4537C235.979 84.0183 235.181 84.0183 234.972 83.4537L234.949 83.3938C234.227 81.4412 232.687 79.9017 230.735 79.1791L230.675 79.1569C230.11 78.9479 230.11 78.1493 230.675 77.9404L230.735 77.9182C232.687 77.1956 234.227 75.6561 234.949 73.7035L234.972 73.6436Z" fill="black"/>
<path d="M215 89.541V92.3476C215 98.9351 220.34 104.275 226.928 104.275C233.515 104.275 238.856 98.9351 238.856 92.3476V89.541" stroke="black" stroke-width="1.94573" stroke-linecap="round"/>
<path d="M226.693 104.509V110.59" stroke="black" stroke-width="2.5943" stroke-linecap="round"/>
<path d="M227.065 130.066C235.901 130.066 243.065 137.229 243.065 146.065C243.065 154.902 235.902 162.065 227.065 162.065C218.229 162.065 211.066 154.901 211.066 146.065C211.067 137.23 218.23 130.067 227.065 130.066Z" stroke="black" stroke-width="2.13323"/>
<path d="M223.865 148.199C223.865 150.359 222.114 152.11 219.954 152.11C217.794 152.11 216.043 150.359 216.043 148.199C216.043 146.039 217.794 144.288 219.954 144.288C222.114 144.288 223.865 146.039 223.865 148.199Z" fill="black"/>
<path d="M238.798 148.199C238.798 150.359 237.047 152.11 234.887 152.11C232.728 152.11 230.977 150.359 230.977 148.199C230.977 146.039 232.728 144.288 234.887 144.288C237.047 144.288 238.798 146.039 238.798 148.199Z" fill="black"/>
<path d="M222.911 139.033C222.911 139.622 222.433 140.099 221.844 140.099C221.255 140.099 220.777 139.622 220.777 139.033C220.777 138.444 221.255 137.966 221.844 137.966C222.433 137.966 222.911 138.444 222.911 139.033Z" fill="black"/>
<path d="M226.71 139.072C226.71 139.662 226.233 140.139 225.644 140.139C225.055 140.139 224.577 139.662 224.577 139.072C224.577 138.483 225.055 138.006 225.644 138.006C226.233 138.006 226.71 138.483 226.71 139.072Z" fill="black"/>
<path d="M230.615 139.073C230.615 139.662 230.137 140.14 229.548 140.14C228.959 140.14 228.481 139.662 228.481 139.073C228.481 138.484 228.959 138.007 229.548 138.007C230.137 138.007 230.615 138.484 230.615 139.073Z" fill="black"/>
<path d="M234.174 139.074C234.174 139.663 233.696 140.141 233.107 140.141C232.518 140.141 232.04 139.663 232.04 139.074C232.04 138.485 232.518 138.008 233.107 138.008C233.696 138.008 234.174 138.485 234.174 139.074Z" fill="black"/>
<path d="M228.481 142.035C228.481 142.624 228.004 143.102 227.415 143.102C226.826 143.102 226.348 142.624 226.348 142.035C226.348 141.446 226.826 140.969 227.415 140.969C228.004 140.969 228.481 141.446 228.481 142.035Z" fill="black"/>
<path d="M224.653 142.035C224.653 142.624 224.175 143.102 223.586 143.102C222.997 143.102 222.52 142.624 222.52 142.035C222.52 141.446 222.997 140.969 223.586 140.969C224.175 140.969 224.653 141.446 224.653 142.035Z" fill="black"/>
<path d="M232.114 142.035C232.114 142.624 231.637 143.102 231.048 143.102C230.459 143.102 229.981 142.624 229.981 142.035C229.981 141.446 230.459 140.969 231.048 140.969C231.637 140.969 232.114 141.446 232.114 142.035Z" fill="black"/>
<path d="M228.481 136.111C228.481 136.7 228.004 137.177 227.415 137.177C226.826 137.177 226.348 136.7 226.348 136.111C226.348 135.521 226.826 135.044 227.415 135.044C228.004 135.044 228.481 135.521 228.481 136.111Z" fill="black"/>
<path d="M224.653 136.111C224.653 136.7 224.175 137.177 223.586 137.177C222.997 137.177 222.52 136.7 222.52 136.111C222.52 135.521 222.997 135.044 223.586 135.044C224.175 135.044 224.653 135.521 224.653 136.111Z" fill="black"/>
<path d="M232.114 136.111C232.114 136.7 231.637 137.177 231.048 137.177C230.459 137.177 229.981 136.7 229.981 136.111C229.981 135.521 230.459 135.044 231.048 135.044C231.637 135.044 232.114 135.521 232.114 136.111Z" fill="black"/>
<path d="M240.573 154.599H213.477C218.027 160.856 224.574 161.946 227.418 161.709C233.96 161.709 238.914 156.969 240.573 154.599Z" fill="black" stroke="black" stroke-width="1.42215" stroke-linecap="round"/>
<path d="M126.444 76.7852L126.193 106.376C128.746 107.42 135.662 108.882 142.903 106.376L142.805 77.1333" stroke="black" stroke-width="2.08874" stroke-linecap="round"/>
<path d="M134.199 75.0439C136.525 75.0439 138.841 75.3478 140.547 75.8223C141.407 76.0614 142.054 76.3284 142.461 76.585C142.592 76.6676 142.676 76.7358 142.729 76.7852C142.676 76.8345 142.592 76.9028 142.461 76.9854C142.054 77.2419 141.407 77.5089 140.547 77.748C138.841 78.2225 136.525 78.5254 134.199 78.5254C131.874 78.5254 129.784 78.2221 128.311 77.7578C127.568 77.5238 127.04 77.2672 126.72 77.0303C126.563 76.9144 126.493 76.8308 126.462 76.7852C126.493 76.7396 126.563 76.6561 126.72 76.54C127.04 76.3031 127.568 76.0456 128.311 75.8115C129.784 75.3472 131.874 75.044 134.199 75.0439Z" stroke="black" stroke-width="2.08874"/>
<mask id="path-34-inside-1_515_2137" fill="white">
<path d="M136.888 76.7851C136.888 76.9774 135.909 77.1333 134.8 77.1333C133.69 77.1333 132.711 76.9774 132.711 76.7851C132.711 76.5929 133.69 76.437 134.8 76.437C135.909 76.437 136.888 76.5929 136.888 76.7851Z"/>
</mask>
<path d="M136.888 76.7851H134.8C134.8 75.8575 135.388 75.3428 135.557 75.2105C135.765 75.0476 135.943 74.9808 135.973 74.9691C136.057 74.9371 136.06 74.9474 135.921 74.9702C135.677 75.0104 135.272 75.0445 134.8 75.0445V77.1333V79.222C135.437 79.222 136.076 79.1782 136.599 79.0924C136.843 79.0522 137.16 78.9875 137.463 78.8722C137.602 78.8189 137.866 78.7083 138.132 78.5C138.359 78.3224 138.977 77.7609 138.977 76.7851H136.888ZM134.8 77.1333V75.0445C134.327 75.0445 133.923 75.0104 133.678 74.9702C133.539 74.9474 133.542 74.9371 133.626 74.9691C133.656 74.9808 133.835 75.0476 134.043 75.2105C134.212 75.3428 134.8 75.8575 134.8 76.7851H132.711H130.622C130.622 77.7609 131.241 78.3224 131.468 78.5C131.734 78.7083 131.997 78.8189 132.137 78.8722C132.439 78.9875 132.756 79.0522 133.001 79.0924C133.523 79.1782 134.163 79.222 134.8 79.222V77.1333ZM132.711 76.7851H134.8C134.8 77.7128 134.212 78.2274 134.043 78.3597C133.835 78.5226 133.656 78.5895 133.626 78.6012C133.542 78.6332 133.539 78.6229 133.678 78.6001C133.923 78.5599 134.327 78.5258 134.8 78.5258V76.437V74.3483C134.163 74.3483 133.523 74.392 133.001 74.4779C132.756 74.5181 132.439 74.5828 132.137 74.6981C131.997 74.7514 131.734 74.862 131.468 75.0702C131.241 75.2478 130.622 75.8094 130.622 76.7851H132.711ZM134.8 76.437V78.5258C135.272 78.5258 135.677 78.5599 135.921 78.6001C136.06 78.6229 136.057 78.6332 135.973 78.6012C135.943 78.5895 135.765 78.5226 135.557 78.3597C135.388 78.2274 134.8 77.7128 134.8 76.7851H136.888H138.977C138.977 75.8094 138.359 75.2478 138.132 75.0702C137.866 74.862 137.602 74.7514 137.463 74.6981C137.16 74.5828 136.843 74.5181 136.599 74.4779C136.076 74.392 135.437 74.3483 134.8 74.3483V76.437Z" fill="black" mask="url(#path-34-inside-1_515_2137)"/>
<path d="M126.543 100.806C128.98 101.734 135.594 103.034 142.557 100.806" stroke="black" stroke-width="2.08874" stroke-linecap="round"/>
<path d="M126.543 103.59C129.328 104.519 135.246 106.027 142.557 103.59" stroke="black" stroke-width="2.08874" stroke-linecap="round"/>
<path d="M123.062 92.7985C122.598 91.8702 121.948 89.5261 123.062 87.5767" stroke="black" stroke-width="2.08874" stroke-linecap="round"/>
<path d="M145.94 92.7985C146.404 91.8702 147.054 89.5261 145.94 87.5767" stroke="black" stroke-width="2.08874" stroke-linecap="round"/>
<path d="M120.971 85.1396C119.579 86.5321 118.186 91.5451 120.971 94.8871" stroke="black" stroke-width="2.08874" stroke-linecap="round"/>
<path d="M148.029 85.1396C149.421 86.5321 150.814 91.5451 148.029 94.8871" stroke="black" stroke-width="2.08874" stroke-linecap="round"/>
<path d="M118.886 82.7031C116.448 85.14 114.008 92.1024 118.535 96.9761" stroke="black" stroke-width="2.08874" stroke-linecap="round"/>
<path d="M150.114 82.7031C152.552 85.14 154.992 92.1024 150.465 96.9761" stroke="black" stroke-width="2.08874" stroke-linecap="round"/>
<path d="M134.55 86.8638C135.896 86.8639 136.986 87.9555 136.986 89.3013C136.986 90.6469 135.895 91.7377 134.55 91.7378C133.204 91.7378 132.112 90.647 132.112 89.3013C132.112 87.9554 133.204 86.8638 134.55 86.8638Z" stroke="black" stroke-width="2.08874"/>
<path d="M48.2902 74.7363H22.7118C20.1095 74.7363 18 76.8459 18 79.4481V105.363C18 107.594 19.8082 109.402 22.0387 109.402H23.3849C23.3849 106.799 25.4945 104.69 28.0967 104.69H43.2418C45.844 104.69 47.9536 106.799 47.9536 109.402H48.9633C51.1938 109.402 53.002 107.594 53.002 105.363V79.4481C53.002 76.8459 50.8924 74.7363 48.2902 74.7363Z" stroke="black" stroke-width="2.01934" stroke-linecap="round"/>
<path d="M35.502 79.7847C42.8428 79.7847 48.291 85.9876 48.291 93.6772C48.291 101.367 43.3457 100.315 36.0049 100.315C28.664 100.315 22.7129 101.367 22.7129 93.6772C22.7129 85.9876 28.1611 79.7847 35.502 79.7847ZM30.791 89.8813C29.676 89.8813 28.7717 90.7849 28.7715 91.8999C28.7715 93.0151 29.6758 93.9194 30.791 93.9194C31.9061 93.9193 32.8105 93.015 32.8105 91.8999C32.8103 90.785 31.906 89.8814 30.791 89.8813ZM40.5508 89.8813C39.4357 89.8813 38.5315 90.7849 38.5312 91.8999C38.5312 93.0151 39.4356 93.9194 40.5508 93.9194C41.6658 93.9193 42.5693 93.015 42.5693 91.8999C42.5691 90.785 41.6657 89.8815 40.5508 89.8813Z" fill="black"/>
<path d="M225.135 27.9078C227.016 25.4895 232.121 24.146 235.345 27.9078" stroke="black" stroke-width="1.94573" stroke-linecap="round"/>
<path d="M220.568 23.8772C223.703 20.9215 231.907 16.7836 239.646 23.8772" stroke="black" stroke-width="1.94573" stroke-linecap="round"/>
<path d="M216 19.5784C220.21 15.3688 231.746 9.47541 244.213 19.5784" stroke="black" stroke-width="1.94573" stroke-linecap="round"/>
<path d="M238.172 31.6694C240.321 31.6697 242.062 33.412 242.062 35.561V49.811C242.062 51.9601 240.321 53.7024 238.172 53.7026H222.31C220.16 53.7026 218.418 51.9602 218.418 49.811V35.561C218.418 33.4118 220.16 31.6694 222.31 31.6694H238.172ZM225.627 33.2817C224.911 33.2818 224.33 33.8623 224.33 34.5786V35.7466C224.33 36.4628 224.911 37.0434 225.627 37.0435H234.855C235.572 37.0434 236.152 36.4627 236.152 35.7466V34.5786C236.152 33.8623 235.572 33.2818 234.855 33.2817H225.627Z" fill="black"/>
<path d="M217.611 35.6997V42.1484" stroke="black" stroke-width="1.29715" stroke-linecap="round"/>
<path d="M242.869 35.6997V38.3867" stroke="black" stroke-width="1.29715" stroke-linecap="round"/>
<path d="M140.859 39.5254L153.001 51.6666" stroke="black" stroke-width="2.80206" stroke-linecap="round"/>
<path d="M141.359 13.8387C141.585 13.2288 142.447 13.2288 142.673 13.8387L142.817 14.2267C143.597 16.3356 145.26 17.9984 147.369 18.7789L147.757 18.9225C148.367 19.1482 148.367 20.0107 147.757 20.2364L147.369 20.38C145.26 21.1605 143.597 22.8233 142.817 24.9322L142.673 25.3202C142.447 25.9301 141.585 25.9301 141.359 25.3202L141.215 24.9322C140.435 22.8233 138.772 21.1605 136.663 20.38L136.275 20.2364C135.665 20.0107 135.665 19.1482 136.275 18.9225L136.663 18.7789C138.772 17.9984 140.435 16.3356 141.215 14.2267L141.359 13.8387Z" fill="black"/>
<path d="M130.742 21.3135C135.691 21.3135 139.704 25.3253 139.704 30.2744C139.704 35.2236 135.691 39.2363 130.742 39.2363C125.793 39.2362 121.781 35.2235 121.781 30.2744C121.781 25.3254 125.793 21.3136 130.742 21.3135ZM128.58 24.2549C126.965 24.4166 125.824 25.2721 125.089 26.208C124.375 27.1169 124.003 28.1458 123.872 28.8682C123.734 29.6291 124.239 30.3584 125 30.4971C125.761 30.6355 126.491 30.1304 126.63 29.3691C126.691 29.0316 126.898 28.4411 127.293 27.9385C127.666 27.463 128.163 27.1137 128.859 27.0439C129.629 26.9669 130.191 26.2797 130.114 25.5098C130.037 24.74 129.35 24.1779 128.58 24.2549Z" fill="black"/>
<path d="M131.123 15.5371C131.489 15.5464 131.853 15.5689 132.212 15.6045L131.864 18.3867C131.495 18.3523 131.121 18.334 130.743 18.334C124.148 18.334 118.802 23.6807 118.802 30.2754C118.802 36.87 124.149 42.2158 130.743 42.2158C137.338 42.2157 142.683 36.8699 142.684 30.2754C142.684 30.1006 142.678 29.9268 142.671 29.7539L145.458 29.3906C145.475 29.6834 145.485 29.9783 145.485 30.2754L145.48 30.6553C145.279 38.6217 138.758 45.0174 130.743 45.0176L130.362 45.0127C122.522 44.814 116.203 38.4954 116.005 30.6553L116 30.2754C116 22.1332 122.601 15.5322 130.743 15.5322L131.123 15.5371Z" fill="black"/>
</svg>
