<svg width="260" height="178" viewBox="0 0 260 178" fill="none" xmlns="http://www.w3.org/2000/svg">
<path d="M33.2544 9.95645C33.2544 7.66945 31.4004 5.81546 29.1134 5.81546H14.3241C12.0371 5.81546 10.1831 7.66945 10.1831 9.95645V43.6759C10.1831 45.9629 12.0371 47.8169 14.3241 47.8169H29.1134C31.4004 47.8169 33.2544 45.9629 33.2544 43.6759V9.95645ZM34.4375 43.6759C34.4375 46.6164 32.0538 49.0001 29.1134 49.0001H14.3241C11.3837 49.0001 9 46.6164 9 43.6759V9.95645C9 7.01602 11.3837 4.63232 14.3241 4.63232H29.1134C32.0538 4.63232 34.4375 7.01602 34.4375 9.95645V43.6759Z" fill="black"/>
<path d="M23.4926 7.73804C23.8193 7.73804 24.0841 8.00289 24.0841 8.32961C24.0841 8.65632 23.8193 8.92118 23.4926 8.92118H19.9431C19.6164 8.92118 19.3516 8.65632 19.3516 8.32961C19.3516 8.00289 19.6164 7.73804 19.9431 7.73804H23.4926Z" fill="black"/>
<path d="M31.7741 10.8438V42.4927H11.8086V10.8438H31.7741ZM12.9917 41.3096H30.5909V12.0269H12.9917V41.3096Z" fill="black"/>
<path d="M24.5279 29.774V22.2826L20.6735 23.4161L20.5348 30.0822C20.528 30.4088 20.2575 30.6681 19.9308 30.6613C19.6042 30.6545 19.3449 30.384 19.3517 30.0573L19.5088 22.5255L25.7111 20.7014V29.774C25.7111 30.1007 25.4462 30.3656 25.1195 30.3656C24.7928 30.3656 24.5279 30.1007 24.5279 29.774Z" fill="black"/>
<path d="M20.4924 29.7084C20.7188 30.4903 20.1144 31.3523 19.1424 31.6338C18.1704 31.9153 17.1989 31.5096 16.9725 30.7277C16.7461 29.9459 17.3505 29.0838 18.3225 28.8023C19.2944 28.5209 20.266 28.9265 20.4924 29.7084Z" fill="black"/>
<path d="M25.6486 29.5629C25.8751 30.3448 25.2707 31.2068 24.2987 31.4883C23.3267 31.7698 22.3552 31.3641 22.1287 30.5822C21.9023 29.8003 22.5067 28.9383 23.4787 28.6568C24.4507 28.3753 25.4222 28.781 25.6486 29.5629Z" fill="black"/>
<path d="M23.4947 45.0069C23.4947 45.987 22.7002 46.7816 21.72 46.7816C20.7399 46.7816 19.9453 45.987 19.9453 45.0069C19.9453 44.0267 20.7399 43.2322 21.72 43.2322C22.7002 43.2322 23.4947 44.0267 23.4947 45.0069Z" fill="black"/>
<path d="M131.546 7.65734L151.833 9.87611C152.699 9.97084 153.233 10.869 152.903 11.6752L139.409 44.6066C139.18 45.1639 138.601 45.4937 138.006 45.4059L117.554 42.3936C116.705 42.2685 116.203 41.3749 116.539 40.5852L130.198 8.44736C130.424 7.91559 130.971 7.59454 131.546 7.65734ZM118.679 40.573L137.785 43.387L150.754 11.7351L131.816 9.66341L118.679 40.573Z" fill="black"/>
<path d="M129.733 38.9124C130.038 39.46 129.708 40.2249 128.997 40.6207C128.286 41.0165 127.462 40.8934 127.157 40.3458C126.853 39.7981 127.182 39.0332 127.893 38.6374C128.605 38.2416 129.428 38.3647 129.733 38.9124Z" fill="black"/>
<path d="M121.111 16.7835C120.149 17.453 118.102 19.9561 119.051 24.1095L117.136 24.5477C115.989 19.5307 118.44 16.2475 119.989 15.1702L121.111 16.7835Z" fill="black"/>
<path d="M115.947 12.6287C114.234 14.0965 111.033 18.6567 112.496 24.7544L110.585 25.2131C108.905 18.2101 112.559 12.9445 114.668 11.137L115.947 12.6287Z" fill="black"/>
<path d="M110.874 8.36903C108.262 10.6226 103.589 17.2535 105.937 25.5345L104.047 26.0706C101.417 16.7965 106.635 9.43125 109.591 6.8811L110.874 8.36903Z" fill="black"/>
<path d="M140.967 37.601L140.744 39.2232L120.438 36.4393L120.66 34.817L140.967 37.601Z" fill="black"/>
<path d="M234.616 10.2798C234.616 9.14804 233.698 8.23061 232.567 8.23061C231.435 8.23061 230.517 9.14804 230.517 10.2798V20.3272C230.517 21.4589 231.435 22.3764 232.567 22.3764C233.698 22.3764 234.616 21.4589 234.616 20.3272V10.2798ZM235.938 20.3272C235.938 22.1891 234.428 23.6984 232.567 23.6984C230.705 23.6984 229.195 22.1891 229.195 20.3272V10.2798C229.195 8.4179 230.705 6.90857 232.567 6.90857C234.428 6.90857 235.938 8.4179 235.938 10.2798V20.3272Z" fill="black"/>
<path d="M249.16 41.2815C249.525 41.2815 249.821 41.5774 249.821 41.9425C249.821 42.3076 249.525 42.6035 249.16 42.6035H227.743C227.378 42.6035 227.082 42.3076 227.082 41.9425C227.082 41.5774 227.378 41.2815 227.743 41.2815H249.16Z" fill="black"/>
<path d="M249.025 7.8339C249.025 6.44664 247.9 5.32204 246.513 5.32204H230.252C228.865 5.32204 227.74 6.44664 227.74 7.8339V42.0746C227.74 43.4619 228.865 44.5865 230.252 44.5865H246.513C247.9 44.5865 249.025 43.4619 249.025 42.0746V7.8339ZM250.347 42.0746C250.347 44.192 248.63 45.9085 246.513 45.9085H230.252C228.134 45.9085 226.418 44.192 226.418 42.0746V7.8339C226.418 5.7165 228.134 4 230.252 4H246.513C248.63 4 250.347 5.7165 250.347 7.8339V42.0746Z" fill="black"/>
<path d="M231.574 11.4035V10.3458C231.574 9.83474 231.989 9.42041 232.5 9.42041C233.011 9.42041 233.425 9.83474 233.425 10.3458V11.4035C233.425 11.9146 233.011 12.3289 232.5 12.3289C231.989 12.3289 231.574 11.9146 231.574 11.4035Z" fill="black"/>
<path d="M231.574 15.3695V14.3119C231.574 13.8008 231.989 13.3865 232.5 13.3865C233.011 13.3865 233.425 13.8008 233.425 14.3119V15.3695C233.425 15.8806 233.011 16.295 232.5 16.295C231.989 16.295 231.574 15.8806 231.574 15.3695Z" fill="black"/>
<path d="M231.707 19.6V18.5424C231.707 18.0313 232.121 17.6169 232.632 17.6169C233.144 17.6169 233.558 18.0313 233.558 18.5424V19.6C233.558 20.1111 233.144 20.5254 232.632 20.5254C232.121 20.5254 231.707 20.1111 231.707 19.6Z" fill="black"/>
<path d="M139.699 99.0035C139.699 99.6167 139.202 100.114 138.589 100.114H121.618C121.005 100.114 120.508 99.6167 120.508 99.0035V79.1778H122.094V98.5277H138.113V95.99H139.699V99.0035ZM139.699 91.3904H138.113V68.7098H122.094V74.1024H120.508V68.234C120.508 67.6209 121.005 67.1238 121.618 67.1238H138.589C139.202 67.1238 139.699 67.6209 139.699 68.234V91.3904Z" fill="black"/>
<path d="M116.383 101.065V75.054H117.969V101.065C117.969 102.905 119.46 104.396 121.3 104.396H138.905C140.744 104.396 142.236 102.905 142.236 101.065V100.748H143.822V101.065C143.822 103.781 141.62 105.982 138.905 105.982H121.3C118.584 105.982 116.383 103.781 116.383 101.065ZM142.236 67.9168C142.236 66.0773 140.744 64.5861 138.905 64.5861H121.3C119.46 64.5861 117.969 66.0773 117.969 67.9168V70.1373H116.383V67.9168C116.383 65.2013 118.584 63 121.3 63H138.905C141.62 63 143.822 65.2013 143.822 67.9168V96.3072H142.236V67.9168Z" fill="black"/>
<path d="M151.045 102.882L149.926 104.006L109.957 64.1963L111.077 63.0724L151.045 102.882Z" fill="black"/>
<path d="M131.293 101.383V102.969H128.914V101.383H131.293Z" fill="black"/>
<path d="M15.8602 79.2032C15.8602 78.4678 15.6824 77.9902 15.4506 77.6683C15.2166 77.3433 14.8825 77.1144 14.4661 76.9563C13.8386 76.7181 13.1064 76.6674 12.4492 76.6672V82.4639C12.4492 83.3203 12.3315 84.1728 12.0993 84.9972L10.6912 89.9955C9.97136 92.5512 10.4538 95.2956 12.0022 97.4525C13.0816 98.9559 13.2323 100.936 12.3927 102.585L9.40227 108.459C9.21645 108.824 8.77015 108.969 8.40527 108.784C8.04032 108.598 7.89507 108.151 8.08085 107.786L11.071 101.912C11.6591 100.757 11.5536 99.3704 10.7975 98.3174C8.98596 95.7941 8.42162 92.5834 9.26381 89.5935L10.6715 84.5952C10.8669 83.9016 10.9661 83.1844 10.9661 82.4639V75.2224L11.6836 75.1996C12.4222 75.1757 13.7986 75.1164 14.9926 75.5697C15.6082 75.8034 16.2102 76.1846 16.6544 76.8017C17.1008 77.4217 17.3432 78.2184 17.3432 79.2032V86.8015C19.1736 87.9717 20.7176 89.3233 21.8277 91.1759C23.009 93.1474 23.6593 95.6194 23.7203 98.9141C23.7278 99.3235 23.4018 99.6616 22.9924 99.6692C22.583 99.6767 22.2449 99.3509 22.2373 98.9416C22.1796 95.8295 21.5691 93.6299 20.5555 91.9383C19.5413 90.2456 18.0838 88.9944 16.213 87.8431L15.8602 87.6261V79.2032Z" fill="black"/>
<path d="M32.3133 101.513C32.4719 101.135 32.9066 100.958 33.2842 101.116C33.6617 101.275 33.8393 101.709 33.6808 102.087C32.303 105.369 29.1427 106.384 27.3402 106.542L25.9566 109.977C25.8036 110.357 25.3717 110.541 24.9918 110.387C24.612 110.234 24.4282 109.803 24.5812 109.423L26.3307 105.08L26.8331 105.082C28.172 105.086 31.1214 104.352 32.3133 101.513Z" fill="black"/>
<path d="M38.3734 65.6442C39.4178 64.4432 41.2053 64.2357 42.497 65.1657C43.9173 66.1883 44.2011 68.1875 43.1215 69.565L40.3231 73.1353C40.0705 73.4576 39.6044 73.5142 39.2821 73.2616C38.9598 73.009 38.9032 72.5429 39.1558 72.2206L41.9542 68.6502C42.5139 67.9361 42.3667 66.8994 41.6303 66.3692C40.9607 65.8872 40.0341 65.9948 39.4927 66.6174L37.9262 68.4188C37.6575 68.7278 37.189 68.7605 36.88 68.4918C36.5709 68.2231 36.5382 67.7546 36.807 67.4456L38.3734 65.6442Z" fill="black"/>
<path d="M36.0904 87.5992C37.2819 86.4265 39.2002 86.4474 40.3659 87.6457C41.553 88.8661 41.4947 90.8267 40.2372 91.9744L38.5262 93.5358C37.222 94.7259 35.1736 94.523 34.1286 93.0999C33.255 91.9101 33.3874 90.2593 34.4394 89.2239L36.0904 87.5992ZM39.3028 88.6797C38.7106 88.0709 37.7359 88.0604 37.1306 88.6562L35.4796 90.281C34.9528 90.7995 34.8867 91.6263 35.3242 92.2221C35.8475 92.9348 36.8733 93.0365 37.5264 92.4405L39.2374 90.879C39.8764 90.296 39.906 89.2998 39.3028 88.6797Z" fill="black"/>
<path d="M36.3952 81.2542C37.6413 79.9793 39.7193 80.0717 40.8473 81.4522C41.8091 82.6294 41.7339 84.341 40.6728 85.4295L38.9559 87.1912C37.7483 88.43 35.7444 88.3887 34.5889 87.1013C33.5364 85.9286 33.5745 84.1404 34.6758 83.0135L36.3952 81.2542ZM39.6987 82.3907C39.1305 81.6952 38.0837 81.6486 37.4559 82.2909L35.7365 84.0502C35.1813 84.6182 35.1621 85.5196 35.6927 86.1107C36.2751 86.7596 37.285 86.7803 37.8937 86.1559L39.6109 84.3942C40.1454 83.8458 40.1832 82.9837 39.6987 82.3907Z" fill="black"/>
<path d="M35.8662 75.7706C37.218 74.6589 39.2276 74.9191 40.2518 76.3384C41.1655 77.6046 40.9685 79.3574 39.7967 80.3893L39.1403 80.9675C37.4767 82.4324 34.8553 81.6877 34.2103 79.5669C33.8517 78.3879 34.2385 77.1088 35.1904 76.326L35.8662 75.7706ZM39.0491 77.2061C38.5257 76.4809 37.4988 76.348 36.808 76.916L36.1324 77.4715C35.6437 77.8734 35.4452 78.5301 35.6293 79.1354C35.9605 80.2241 37.306 80.6064 38.1601 79.8543L38.8167 79.2762C39.4155 78.7488 39.516 77.8531 39.0491 77.2061Z" fill="black"/>
<path d="M36.0288 66.3008C36.0288 64.7446 34.7672 63.483 33.211 63.483H20.1602C18.604 63.483 17.3424 64.7446 17.3424 66.3008V78.8592H15.8594V66.3008C15.8594 63.9255 17.7849 62 20.1602 62H33.211C35.5863 62 37.5118 63.9255 37.5118 66.3008V75.7923H36.0288V66.3008Z" fill="black"/>
<path d="M36.0291 94.9236V93.8854C36.0291 93.4759 36.3611 93.1439 36.7706 93.1439C37.1801 93.1439 37.5121 93.4759 37.5121 93.8854V94.9236C37.5121 97.2989 35.5866 99.2244 33.2113 99.2244H25.6478C25.2382 99.2244 24.9062 98.8924 24.9062 98.4829C24.9062 98.0733 25.2382 97.7414 25.6478 97.7414H33.2113C34.7675 97.7414 36.0291 96.4798 36.0291 94.9236Z" fill="black"/>
<path d="M28.3171 94.627C28.7266 94.627 29.0586 94.9589 29.0586 95.3685C29.0586 95.778 28.7266 96.11 28.3171 96.11H25.4993C25.0898 96.11 24.7578 95.778 24.7578 95.3685C24.7578 94.9589 25.0898 94.627 25.4993 94.627H28.3171Z" fill="black"/>
<path d="M29.354 65.2627C29.7636 65.2627 30.0956 65.5947 30.0956 66.0042C30.0956 66.4137 29.7636 66.7457 29.354 66.7457H24.1634C23.7539 66.7457 23.4219 66.4137 23.4219 66.0042C23.4219 65.5947 23.7539 65.2627 24.1634 65.2627H29.354Z" fill="black"/>
<path d="M238.732 82.2695C239.993 82.082 241.485 82.3606 242.991 83.5881C243.212 83.7684 243.246 84.0939 243.065 84.3152C242.885 84.5365 242.559 84.5697 242.338 84.3894C241.054 83.3428 239.853 83.1477 238.884 83.2918C237.892 83.4393 237.105 83.9483 236.699 84.3543C236.497 84.556 236.17 84.556 235.968 84.3543C235.766 84.1524 235.766 83.825 235.968 83.6232C236.509 83.0816 237.493 82.4536 238.732 82.2695Z" fill="black"/>
<path d="M249.966 64.0899C249.966 62.3772 248.578 60.9888 246.865 60.9888H232.135C230.422 60.9888 229.034 62.3772 229.034 64.0899V101.303C229.034 103.016 230.422 104.405 232.135 104.405H246.865C248.578 104.405 249.966 103.016 249.966 101.303V64.0899ZM251 101.303C251 103.587 249.149 105.438 246.865 105.438H232.135C229.851 105.438 228 103.587 228 101.303V64.0899C228 61.8063 229.851 59.9551 232.135 59.9551H246.865C249.149 59.9551 251 61.8063 251 64.0899V101.303Z" fill="black"/>
<path d="M234.137 60.6012C234.137 60.3158 234.368 60.0844 234.654 60.0844C234.939 60.0844 235.17 60.3158 235.17 60.6012C235.17 61.3862 235.807 62.0226 236.592 62.0226H241.89C242.675 62.0226 243.311 61.3862 243.311 60.6012C243.311 60.3158 243.542 60.0844 243.828 60.0844C244.113 60.0844 244.345 60.3158 244.345 60.6012C244.345 61.9571 243.245 63.0563 241.89 63.0563H236.592C235.236 63.0563 234.137 61.9571 234.137 60.6012Z" fill="black"/>
<path d="M238.315 79.2843C240.238 79.0079 242.515 79.4118 244.8 81.2613C245.021 81.4409 245.056 81.7663 244.876 81.9881C244.697 82.21 244.371 82.2442 244.149 82.0646C242.092 80.3996 240.105 80.0712 238.462 80.3074C236.797 80.5466 235.458 81.3701 234.751 82.0386C234.543 82.2346 234.216 82.2254 234.02 82.0179C233.824 81.8104 233.833 81.4833 234.041 81.2873C234.884 80.4914 236.413 79.5576 238.315 79.2843Z" fill="black"/>
<path d="M240.603 86.0562C240.603 86.6271 240.14 87.0899 239.569 87.0899C238.998 87.0899 238.535 86.6271 238.535 86.0562C238.535 85.4853 238.998 85.0225 239.569 85.0225C240.14 85.0225 240.603 85.4853 240.603 86.0562Z" fill="black"/>
<path d="M233.477 78.2378C233.656 78.0154 233.982 77.9801 234.204 78.1591L245.446 87.204C245.668 87.383 245.703 87.7084 245.525 87.9308C245.346 88.1532 245.02 88.1885 244.798 88.0096L233.556 78.9646C233.334 78.7857 233.299 78.4602 233.477 78.2378Z" fill="black"/>
<path d="M33.0537 128.143C33.0537 126.703 31.8862 125.535 30.4463 125.535H12.9798C11.5397 125.535 10.3723 126.703 10.3723 128.143V163.736C10.3723 165.176 11.5397 166.344 12.9798 166.344H30.4463C31.8862 166.344 33.0537 165.176 33.0537 163.736V128.143ZM34.426 163.736C34.426 165.934 32.6442 167.716 30.4463 167.716H12.9798C10.7818 167.716 9 165.934 9 163.736V128.143C9 125.945 10.7818 124.163 12.9798 124.163H30.4463C32.6442 124.163 34.426 125.945 34.426 128.143V163.736Z" fill="black"/>
<path d="M23.9767 127.529C24.3557 127.529 24.6629 127.836 24.6629 128.215C24.6629 128.594 24.3557 128.901 23.9767 128.901H19.0963C18.7174 128.901 18.4102 128.594 18.4102 128.215C18.4102 127.836 18.7174 127.529 19.0963 127.529H23.9767Z" fill="black"/>
<path d="M23.9767 162.924C24.3557 162.924 24.6629 163.231 24.6629 163.61C24.6629 163.989 24.3557 164.296 23.9767 164.296H19.0963C18.7174 164.296 18.4102 163.989 18.4102 163.61C18.4102 163.231 18.7174 162.924 19.0963 162.924H23.9767Z" fill="black"/>
<path d="M30.4234 160.908C30.4234 161.287 30.1162 161.594 29.7372 161.594H13.2448C12.8658 161.594 12.5586 161.287 12.5586 160.908V137.694H13.382V160.771H29.6V154.62H30.4234V160.908ZM30.4234 149.093H29.6V131.37H13.382V134.067H12.5586V131.233C12.5586 130.854 12.8658 130.547 13.2448 130.547H29.7372C30.1162 130.547 30.4234 130.854 30.4234 131.233V149.093Z" fill="black"/>
<path d="M142.313 131.876V127.797C142.313 126.87 141.562 126.119 140.635 126.119H120.762C119.835 126.119 119.084 126.87 119.084 127.797V164.439C119.084 165.365 119.835 166.117 120.762 166.117H140.635C141.562 166.117 142.313 165.365 142.313 164.439V156.225C142.313 155.916 142.564 155.665 142.873 155.665C143.182 155.665 143.432 155.916 143.432 156.225V164.439C143.432 165.983 142.18 167.236 140.635 167.236H120.762C119.217 167.236 117.965 165.983 117.965 164.439V127.797C117.965 126.252 119.217 125 120.762 125H140.635C142.18 125 143.432 126.252 143.432 127.797V131.876C143.432 132.185 143.182 132.436 142.873 132.436C142.564 132.436 142.313 132.185 142.313 131.876Z" fill="black"/>
<path d="M151.916 144.28C151.916 139.38 147.943 135.407 143.043 135.407C138.142 135.407 134.17 139.38 134.17 144.28C134.17 149.181 138.142 153.154 143.043 153.154V154.272L142.785 154.269C137.471 154.135 133.189 149.852 133.054 144.538L133.051 144.28C133.051 138.762 137.524 134.288 143.043 134.288L143.301 134.291C148.7 134.428 153.035 138.848 153.035 144.28L153.032 144.538C152.895 149.937 148.475 154.272 143.043 154.272V153.154C147.943 153.153 151.916 149.181 151.916 144.28Z" fill="black"/>
<path d="M142.367 137.504C142.367 137.195 142.618 136.945 142.927 136.945C143.236 136.945 143.486 137.195 143.486 137.504V144.41H149.473C149.782 144.41 150.033 144.661 150.033 144.969C150.033 145.278 149.782 145.529 149.473 145.529H143.206C142.743 145.529 142.367 145.153 142.367 144.69V137.504Z" fill="black"/>
<path d="M142.47 160.834C142.779 160.834 143.03 161.084 143.03 161.393C143.03 161.702 142.779 161.953 142.47 161.953H118.696C118.387 161.953 118.137 161.702 118.137 161.393C118.137 161.084 118.387 160.834 118.696 160.834H142.47Z" fill="black"/>
<path d="M142.471 127.412C142.78 127.412 143.031 127.662 143.031 127.971C143.031 128.28 142.78 128.531 142.471 128.531H118.927C118.618 128.531 118.367 128.28 118.367 127.971C118.367 127.662 118.618 127.412 118.927 127.412H142.471Z" fill="black"/>
<path d="M132.364 163.92C132.364 164.808 131.644 165.528 130.756 165.528C129.868 165.528 129.148 164.808 129.148 163.92C129.148 163.032 129.868 162.312 130.756 162.312C131.644 162.312 132.364 163.032 132.364 163.92Z" fill="black"/>
<path d="M227.331 131.654L228.706 126.795C229.096 125.415 230.531 124.613 231.912 125.004L247.459 129.403C248.839 129.793 249.641 131.229 249.251 132.609L239.667 166.481C239.276 167.861 237.841 168.663 236.461 168.272L220.913 163.873C219.533 163.483 218.731 162.047 219.122 160.667L223.285 145.953C223.372 145.646 223.194 145.327 222.887 145.24C222.58 145.153 222.261 145.332 222.175 145.638L218.011 160.353C217.447 162.347 218.606 164.42 220.599 164.984L236.147 169.383C238.14 169.947 240.213 168.788 240.777 166.795L250.362 132.923C250.926 130.93 249.767 128.856 247.774 128.292L232.226 123.893C230.232 123.329 228.159 124.488 227.595 126.481L226.22 131.34C226.134 131.647 226.312 131.966 226.619 132.052C226.925 132.139 227.244 131.961 227.331 131.654Z" fill="black"/>
<path d="M237.403 125.923C237.305 125.62 236.98 125.454 236.677 125.552C236.373 125.65 236.207 125.975 236.305 126.278C236.986 128.387 238.147 129.403 239.52 129.525C240.812 129.639 242.07 128.932 242.936 128.136C243.171 127.92 243.186 127.555 242.97 127.321C242.754 127.086 242.389 127.071 242.155 127.286C241.4 127.981 240.451 128.448 239.622 128.375C238.875 128.309 238 127.774 237.403 125.923Z" fill="black"/>
<path d="M228.012 164.231C227.86 164.768 228.172 165.326 228.709 165.478C229.245 165.63 229.804 165.318 229.956 164.781C230.107 164.245 229.795 163.686 229.259 163.535C228.722 163.383 228.164 163.695 228.012 164.231Z" fill="black"/>
<path d="M229.499 134.611C229.326 132.656 227.676 131.165 225.714 131.191L212.611 131.359C210.52 131.386 208.855 133.117 208.909 135.207L209.096 142.406C209.149 144.48 210.877 146.117 212.951 146.058L227.119 145.66C227.383 145.653 227.646 145.685 227.899 145.757L233.147 147.242L230.316 141.705C230.165 141.408 230.071 141.085 230.042 140.752L229.499 134.611ZM225.729 132.345C227.087 132.327 228.229 133.36 228.349 134.713L228.892 140.854C228.935 141.334 229.07 141.802 229.289 142.231L230.915 145.411L228.214 144.647C227.847 144.543 227.467 144.496 227.087 144.506L212.918 144.905C211.482 144.945 210.287 143.812 210.249 142.376L210.063 135.177C210.026 133.73 211.178 132.532 212.626 132.513L225.729 132.345Z" fill="black"/>
<path d="M214.48 134.674L214.733 142.479L224.769 142.275L224.725 134.357L214.48 134.674ZM223.608 141.144L215.85 141.302L215.672 135.791L223.578 135.547L223.608 141.144Z" fill="black"/>
<path d="M224.07 134.89C223.871 134.641 223.508 134.601 223.259 134.8L215.507 141.003C215.258 141.202 215.218 141.565 215.417 141.814C215.616 142.063 215.979 142.103 216.228 141.904L223.98 135.701C224.229 135.502 224.269 135.139 224.07 134.89Z" fill="black"/>
<path d="M215.691 135.281C215.422 135.109 215.065 135.187 214.893 135.456C214.721 135.724 214.8 136.081 215.068 136.253L223.444 141.622C223.713 141.794 224.07 141.716 224.242 141.447C224.414 141.179 224.335 140.822 224.067 140.65L215.691 135.281Z" fill="black"/>
</svg>
