<svg width="260" height="178" viewBox="0 0 260 178" fill="none" xmlns="http://www.w3.org/2000/svg">
<path d="M28.818 34.2993V37.1441C28.818 37.7206 29.3455 38.1531 29.9109 38.04L30.3134 37.9595C30.3316 37.9559 30.3495 37.9505 30.3668 37.9436L31.8636 37.3449C32.5644 36.9444 33.8971 36.0306 34.8686 34.3696C34.8953 34.3238 34.9092 34.2714 34.9092 34.2184V30.6445M28.818 34.2993L28.1125 34.0641C27.9882 34.0227 27.9043 33.9063 27.9043 33.7752V33.4887C27.9043 33.4218 27.9263 33.3568 27.9669 33.3037L31.7644 28.3378C31.8264 28.2567 31.9248 28.2121 32.0266 28.2189L35.8548 28.4741C36.0994 28.4904 36.2254 28.7743 36.0735 28.9667L31.9551 34.1834C31.8973 34.2566 31.8092 34.2993 31.716 34.2993H30.0362M28.818 34.2993H30.0362M30.0362 34.2993V35.8221M30.0362 34.2993L32.4727 30.9491" stroke="#0C0966" stroke-width="0.609126" stroke-linecap="round"/>
<path d="M21.8131 48.0048L18.6039 45.9626C18.5161 45.9067 18.4629 45.8098 18.4629 45.7057V26.2989C18.4629 24.4629 19.4352 22.7642 21.0184 21.8344L35.5664 13.2903C36.8107 12.5595 38.3832 12.7076 39.4691 13.6579L40.0869 14.1983" stroke="#0C0966" stroke-width="0.609126" stroke-linecap="round"/>
<path d="M25.1632 43.436L23.1376 41.6997C23.0701 41.6419 23.0312 41.5574 23.0312 41.4685V29.962C23.0312 28.1213 24.0086 26.4189 25.5982 25.4908L34.2234 20.4547C35.3225 19.8129 36.7115 19.9613 37.6503 20.8209" stroke="#0C0966" stroke-width="0.609126" stroke-linecap="round"/>
<path d="M21.2043 25.1626L19.377 23.9443" stroke="#0C0966" stroke-width="0.609126" stroke-linecap="round"/>
<path d="M25.1636 28.208L23.9453 27.2945M25.4681 25.1623C24.859 23.9444 26.5273 22.5666 28.2092 24.2487C30.0366 26.0763 28.8183 28.2082 27.6001 27.5991" stroke="#0C0966" stroke-width="0.609126" stroke-linecap="round"/>
<path d="M29.4271 22.8982C28.8179 21.6802 30.4863 20.3024 32.1681 21.9845C33.9955 23.8121 32.7772 25.9441 31.559 25.3349" stroke="#0C0966" stroke-width="0.609126" stroke-linecap="round"/>
<path d="M33.3805 20.6061C32.8973 19.3329 34.696 18.1303 36.1997 19.9734C37.8336 21.9759 36.4066 23.9742 35.256 23.2453" stroke="#0C0966" stroke-width="0.609126" stroke-linecap="round"/>
<path d="M22.8649 23.5365L38.7115 14.3123C39.7267 13.7214 41.0004 14.4537 41.0004 15.6284V35.4021C41.0004 36.796 40.2675 38.0871 39.0707 38.8017L23.8195 47.9068C22.3985 48.7552 20.5947 47.7314 20.5947 46.0763V27.4847C20.5947 25.8584 21.4594 24.3546 22.8649 23.5365Z" stroke="#0C0966" stroke-width="0.609126" stroke-linecap="round"/>
<path d="M27.0871 26.7048L36.5656 21.0528C37.5806 20.4475 38.8683 21.1789 38.8683 22.3607V33.8591C38.8683 35.2635 38.1243 36.5627 36.9132 37.2736L26.2346 43.5415C25.6255 43.899 24.8584 43.4598 24.8584 42.7535V30.6286C24.8584 29.0194 25.705 27.529 27.0871 26.7048Z" stroke="#0C0966" stroke-width="0.609126" stroke-linecap="round"/>
<path d="M113.377 97.9816C111.371 97.5039 107.932 94.2555 111.657 88.5231M111.657 88.5231C109.365 85.6569 112.804 72.759 121.403 73.6189M111.657 88.5231L114.238 89.9562M121.403 73.6189C122.316 72.1582 124.938 69.8253 128.37 71.621C128.645 71.7648 128.989 71.6919 129.192 71.4571C130.346 70.1186 132.765 68.8043 135.447 71.8991M121.403 73.6189C122.072 74.001 123.467 74.88 123.696 75.3386" stroke="#0C0966" stroke-width="0.573241" stroke-linecap="round"/>
<path d="M133.155 80.4976V82.5039" stroke="#0C0966" stroke-width="0.573241" stroke-linecap="round"/>
<path d="M121.404 95.6891C119.875 97.6955 116.245 101.078 113.952 98.5553C111.659 96.0331 113.378 91.772 114.524 89.9567C112.461 78.9505 119.97 75.6257 123.983 75.3391C125.607 73.5238 129.315 70.6958 131.149 73.906C133.156 72.0907 137.283 69.8359 137.742 75.3391C138.697 75.0524 140.665 75.1671 140.894 77.9186C141.181 81.358 138.888 84.2243 136.308 85.944" stroke="#0C0966" stroke-width="0.573241"/>
<path d="M121.403 85.9429V85.083L131.722 79.6372L133.183 80.1243C133.279 80.1564 133.289 80.2886 133.199 80.335L123.501 85.3225C123.461 85.343 123.459 85.3995 123.498 85.4226L126.245 87.0708C126.264 87.0821 126.288 87.0817 126.306 87.0696L133.872 82.1123C134.339 81.8065 134.885 81.6435 135.443 81.6435H136.193C136.256 81.6435 136.308 81.6949 136.308 81.7582V82.2168M121.403 85.9429V101.134L124.146 102.848C125.272 103.552 126.702 103.545 127.821 102.83L136.308 97.4077V82.2168M121.403 85.9429L125.046 88.0858C125.799 88.5286 126.738 88.5053 127.468 88.0256L136.308 82.2168" stroke="#0C0966" stroke-width="0.573241"/>
<path d="M125.989 88.5239V103.142" stroke="#0C0966" stroke-width="0.573241"/>
<path d="M128.282 92.3909V90.2707C128.282 90.0747 128.382 89.8923 128.548 89.7871L133.707 86.504C134.088 86.2611 134.588 86.5353 134.588 86.9876V89.3423C134.588 89.545 134.481 89.7327 134.306 89.8358L129.147 92.8844C128.765 93.1102 128.282 92.8348 128.282 92.3909Z" stroke="#0C0966" stroke-width="0.573241"/>
<path d="M129.143 94.8291L134.015 91.9629" stroke="#0C0966" stroke-width="0.573241" stroke-linecap="round"/>
<path d="M129.143 96.8354L132.009 95.1157" stroke="#0C0966" stroke-width="0.573241" stroke-linecap="round"/>
<path d="M122.582 156.663L120.879 157.798C120.792 157.856 120.676 157.794 120.676 157.689V154.075C120.676 154.031 120.698 153.99 120.734 153.966L122.437 152.831C122.524 152.773 122.64 152.835 122.64 152.94V156.554C122.64 156.598 122.618 156.639 122.582 156.663Z" fill="#0C0966"/>
<path d="M126.511 154.371L124.808 155.506C124.721 155.564 124.604 155.502 124.604 155.397V147.854C124.604 147.811 124.626 147.77 124.663 147.745L126.365 146.61C126.452 146.552 126.569 146.615 126.569 146.719V154.262C126.569 154.306 126.547 154.347 126.511 154.371Z" fill="#0C0966"/>
<path d="M131.106 151.425L129.403 152.844C129.318 152.915 129.188 152.854 129.188 152.743V144.58C129.188 144.537 129.21 144.496 129.247 144.471L130.949 143.336C131.036 143.278 131.153 143.341 131.153 143.445V151.325C131.153 151.363 131.136 151.4 131.106 151.425Z" fill="#0C0966"/>
<path d="M112.818 149.094V161.202C112.818 161.412 112.918 161.608 113.087 161.732L114.311 162.622C115.588 163.551 117.298 163.624 118.651 162.809L134.829 153.05C136.205 152.221 137.046 150.731 137.046 149.125V136.653M115.109 162.845V149.795C115.109 149.563 115.231 149.349 115.431 149.231L139.686 134.87C139.877 134.756 139.999 134.556 139.999 134.334C140.004 131.54 138.832 126.371 134.017 125.246C133.861 125.21 133.695 125.238 133.557 125.319L110.198 138.944" stroke="#0C0966" stroke-width="0.654815" stroke-linecap="round"/>
<path d="M109.307 139.28C110.039 138.837 111.039 138.894 112.108 139.446C113.172 139.995 114.252 141.012 115.077 142.378C115.901 143.744 116.299 145.174 116.29 146.371C116.28 147.574 115.865 148.485 115.132 148.928C114.4 149.37 113.399 149.313 112.33 148.761C111.267 148.212 110.187 147.195 109.362 145.829C108.537 144.463 108.14 143.033 108.149 141.837C108.159 140.634 108.574 139.722 109.307 139.28Z" stroke="#0C0966" stroke-width="0.654815"/>
<ellipse cx="112.219" cy="144.104" rx="1.71744" ry="2.79398" transform="rotate(-31.1239 112.219 144.104)" fill="#0C0966"/>
<path d="M213.124 152.598V151.412C213.124 151.148 213.263 150.904 213.49 150.768L231.181 140.211C231.992 139.727 233 139.716 233.821 140.182L242.723 145.234C243.544 145.7 244.052 146.572 244.052 147.516V148.239C244.052 149.167 243.561 150.027 242.761 150.499L226.316 160.204C225.5 160.685 224.488 160.69 223.668 160.215L214.433 154.869C213.623 154.4 213.124 153.534 213.124 152.598Z" stroke="#0C0966" stroke-width="0.624804" stroke-linecap="round"/>
<path d="M213.124 151.3L224.995 158.172M224.995 158.172L244.052 147.238M224.995 158.172V160.359" stroke="#0C0966" stroke-width="0.624804" stroke-linecap="round"/>
<path d="M231.493 146.65L223.922 151.193C223.842 151.241 223.841 151.357 223.921 151.407L227.744 153.759C227.783 153.783 227.832 153.784 227.872 153.761L235.741 149.221C235.825 149.173 235.825 149.052 235.741 149.004L231.62 146.649C231.58 146.627 231.532 146.627 231.493 146.65Z" stroke="#0C0966" stroke-width="0.624804" stroke-linecap="round"/>
<path d="M224.059 148.8L228.745 145.988" stroke="#0C0966" stroke-width="0.624804" stroke-linecap="round"/>
<path d="M217.81 138.803L216.005 139.706C215.962 139.727 215.936 139.77 215.936 139.818V142.662C215.936 142.755 216.033 142.816 216.116 142.774L217.81 141.927" stroke="#0C0966" stroke-width="0.624804" stroke-linecap="round"/>
<path d="M215.936 141.303L217.81 140.366" stroke="#0C0966" stroke-width="0.624804" stroke-linecap="round"/>
<path d="M219.061 139.115L220.935 138.178" stroke="#0C0966" stroke-width="0.624804" stroke-linecap="round"/>
<path d="M219.061 140.053L220.935 139.116" stroke="#0C0966" stroke-width="0.624804" stroke-linecap="round"/>
<path d="M221.872 139.428V136.694C221.872 136.572 222.028 136.522 222.099 136.621L223.291 138.291C223.351 138.374 223.479 138.355 223.512 138.258L224.44 135.472C224.485 135.338 224.684 135.37 224.684 135.512V137.866" stroke="#0C0966" stroke-width="0.624804" stroke-linecap="round"/>
<path d="M228.118 133.18C225.307 133.493 224.993 138.491 228.125 135.679" stroke="#0C0966" stroke-width="0.624804" stroke-linecap="round"/>
<path d="M210.667 149.201L211.778 149.867C212.607 150.364 213.642 150.365 214.472 149.87L231.179 139.9C231.991 139.415 232.48 138.532 232.458 137.587L232.19 125.783C232.184 125.526 232.047 125.29 231.826 125.157L230.414 124.31C229.579 123.809 228.535 123.812 227.703 124.317L211.263 134.288C210.479 134.764 210 135.615 210 136.532V148.022C210 148.505 210.253 148.952 210.667 149.201Z" stroke="#0C0966" stroke-width="0.624804" stroke-linecap="round"/>
<path d="M210.312 135.367L212.187 136.616" stroke="#0C0966" stroke-width="0.624804" stroke-linecap="round"/>
<path d="M231.092 125.325L231.36 125.164L231.039 124.629L230.771 124.789L230.932 125.057L231.092 125.325ZM211.875 149.737C211.875 149.909 212.015 150.049 212.188 150.049C212.36 150.049 212.5 149.909 212.5 149.737H212.188H211.875ZM230.932 125.057L230.771 124.789L213.301 135.271L213.462 135.539L213.622 135.807L231.092 125.325L230.932 125.057ZM212.188 137.789H211.875V149.737H212.188H212.5V137.789H212.188ZM213.462 135.539L213.301 135.271C212.416 135.802 211.875 136.758 211.875 137.789H212.188H212.5C212.5 136.977 212.926 136.225 213.622 135.807L213.462 135.539Z" fill="#0C0966"/>
<mask id="path-37-inside-1_515_4910" fill="white">
<path d="M214.191 136.488C214.358 136.533 214.42 136.84 214.33 137.173C214.24 137.506 214.032 137.74 213.866 137.695C213.699 137.65 213.637 137.344 213.727 137.01C213.817 136.677 214.024 136.444 214.191 136.488Z"/>
</mask>
<path d="M214.191 136.488C214.358 136.533 214.42 136.84 214.33 137.173C214.24 137.506 214.032 137.74 213.866 137.695C213.699 137.65 213.637 137.344 213.727 137.01C213.817 136.677 214.024 136.444 214.191 136.488Z" fill="black"/>
<path d="M214.191 136.488L214.028 137.092C213.897 137.056 213.818 136.976 213.782 136.923C213.764 136.898 213.755 136.877 213.75 136.865C213.748 136.859 213.746 136.854 213.745 136.851C213.745 136.848 213.744 136.847 213.744 136.847C213.744 136.847 213.745 136.848 213.745 136.85C213.745 136.853 213.746 136.856 213.746 136.861C213.746 136.87 213.747 136.882 213.746 136.897C213.744 136.929 213.738 136.967 213.727 137.01L214.33 137.173L214.933 137.336C214.998 137.096 215.017 136.836 214.969 136.598C214.929 136.402 214.789 136.002 214.354 135.885L214.191 136.488ZM214.33 137.173L213.727 137.01C213.715 137.054 213.701 137.09 213.686 137.117C213.679 137.131 213.673 137.142 213.668 137.149C213.666 137.153 213.663 137.156 213.662 137.158C213.661 137.16 213.66 137.16 213.66 137.16C213.66 137.16 213.661 137.159 213.663 137.157C213.665 137.155 213.669 137.152 213.674 137.148C213.684 137.14 213.702 137.127 213.73 137.114C213.788 137.086 213.897 137.056 214.028 137.092L213.866 137.695L213.703 138.298C214.138 138.415 214.46 138.141 214.593 137.991C214.755 137.81 214.868 137.576 214.933 137.336L214.33 137.173ZM213.866 137.695L214.028 137.092C214.16 137.127 214.238 137.208 214.275 137.26C214.292 137.286 214.302 137.307 214.306 137.318C214.309 137.324 214.31 137.329 214.311 137.332C214.312 137.335 214.312 137.336 214.312 137.336C214.312 137.337 214.312 137.335 214.312 137.333C214.311 137.331 214.311 137.327 214.311 137.323C214.31 137.314 214.31 137.301 214.311 137.286C214.313 137.255 214.318 137.216 214.33 137.173L213.727 137.01L213.123 136.848C213.059 137.088 213.039 137.347 213.088 137.585C213.128 137.782 213.268 138.181 213.703 138.298L213.866 137.695ZM213.727 137.01L214.33 137.173C214.342 137.13 214.356 137.094 214.37 137.066C214.377 137.052 214.384 137.042 214.389 137.034C214.391 137.03 214.393 137.028 214.395 137.026C214.396 137.024 214.397 137.023 214.397 137.023C214.397 137.023 214.396 137.024 214.394 137.026C214.391 137.028 214.388 137.032 214.383 137.036C214.373 137.043 214.354 137.057 214.326 137.07C214.268 137.097 214.16 137.127 214.028 137.092L214.191 136.488L214.354 135.885C213.919 135.768 213.597 136.042 213.463 136.192C213.302 136.373 213.188 136.608 213.123 136.848L213.727 137.01Z" fill="#0C0966" mask="url(#path-37-inside-1_515_4910)"/>
<mask id="path-39-inside-2_515_4910" fill="white">
<path d="M215.677 135.69C215.844 135.735 215.906 136.042 215.816 136.375C215.726 136.708 215.519 136.942 215.352 136.897C215.185 136.852 215.123 136.545 215.213 136.212C215.303 135.879 215.511 135.645 215.677 135.69Z"/>
</mask>
<path d="M215.677 135.69C215.844 135.735 215.906 136.042 215.816 136.375C215.726 136.708 215.519 136.942 215.352 136.897C215.185 136.852 215.123 136.545 215.213 136.212C215.303 135.879 215.511 135.645 215.677 135.69Z" fill="black"/>
<path d="M215.677 135.69L215.515 136.293C215.383 136.258 215.305 136.177 215.268 136.125C215.251 136.099 215.241 136.078 215.237 136.067C215.234 136.061 215.233 136.056 215.232 136.053C215.231 136.05 215.231 136.049 215.231 136.049C215.231 136.049 215.231 136.05 215.231 136.052C215.232 136.055 215.232 136.058 215.232 136.062C215.233 136.072 215.233 136.084 215.232 136.099C215.23 136.13 215.225 136.169 215.213 136.212L215.816 136.375L216.42 136.537C216.484 136.297 216.504 136.038 216.455 135.8C216.415 135.603 216.275 135.204 215.84 135.087L215.677 135.69ZM215.816 136.375L215.213 136.212C215.201 136.255 215.187 136.291 215.173 136.319C215.166 136.333 215.159 136.343 215.154 136.351C215.152 136.355 215.15 136.357 215.148 136.359C215.147 136.361 215.146 136.362 215.146 136.362C215.146 136.362 215.147 136.361 215.149 136.359C215.152 136.357 215.155 136.354 215.16 136.349C215.17 136.342 215.189 136.328 215.217 136.315C215.275 136.288 215.383 136.258 215.515 136.293L215.352 136.897L215.189 137.5C215.624 137.617 215.946 137.343 216.08 137.193C216.241 137.012 216.355 136.777 216.42 136.537L215.816 136.375ZM215.352 136.897L215.515 136.293C215.646 136.329 215.725 136.409 215.761 136.462C215.779 136.488 215.788 136.508 215.793 136.52C215.795 136.526 215.797 136.531 215.797 136.534C215.798 136.537 215.799 136.538 215.799 136.538C215.799 136.538 215.798 136.537 215.798 136.535C215.798 136.532 215.797 136.529 215.797 136.524C215.797 136.515 215.796 136.503 215.797 136.488C215.799 136.457 215.805 136.418 215.816 136.375L215.213 136.212L214.61 136.049C214.545 136.289 214.526 136.549 214.574 136.787C214.614 136.983 214.754 137.383 215.189 137.5L215.352 136.897ZM215.213 136.212L215.816 136.375C215.828 136.332 215.842 136.295 215.857 136.268C215.864 136.254 215.87 136.243 215.875 136.236C215.877 136.232 215.879 136.229 215.881 136.227C215.882 136.225 215.883 136.225 215.883 136.225C215.883 136.225 215.882 136.226 215.88 136.228C215.878 136.23 215.874 136.233 215.869 136.237C215.859 136.245 215.841 136.258 215.813 136.271C215.755 136.299 215.646 136.329 215.515 136.293L215.677 135.69L215.84 135.087C215.405 134.97 215.083 135.244 214.95 135.394C214.788 135.575 214.674 135.809 214.61 136.049L215.213 136.212Z" fill="#0C0966" mask="url(#path-39-inside-2_515_4910)"/>
<mask id="path-41-inside-3_515_4910" fill="white">
<path d="M217.172 134.785C217.339 134.83 217.401 135.136 217.311 135.469C217.222 135.803 217.014 136.036 216.847 135.991C216.68 135.946 216.618 135.64 216.708 135.307C216.798 134.974 217.006 134.74 217.172 134.785Z"/>
</mask>
<path d="M217.172 134.785C217.339 134.83 217.401 135.136 217.311 135.469C217.222 135.803 217.014 136.036 216.847 135.991C216.68 135.946 216.618 135.64 216.708 135.307C216.798 134.974 217.006 134.74 217.172 134.785Z" fill="black"/>
<path d="M217.172 134.785L217.01 135.388C216.878 135.353 216.8 135.272 216.763 135.219C216.746 135.194 216.736 135.173 216.732 135.161C216.729 135.155 216.728 135.151 216.727 135.148C216.726 135.145 216.726 135.143 216.726 135.143C216.726 135.143 216.726 135.144 216.726 135.147C216.727 135.149 216.727 135.153 216.727 135.157C216.728 135.166 216.728 135.179 216.727 135.194C216.725 135.225 216.72 135.264 216.708 135.307L217.311 135.469L217.915 135.632C217.979 135.392 217.999 135.132 217.95 134.895C217.911 134.698 217.77 134.299 217.335 134.182L217.172 134.785ZM217.311 135.469L216.708 135.307C216.696 135.35 216.682 135.386 216.668 135.414C216.661 135.428 216.655 135.438 216.649 135.446C216.647 135.449 216.645 135.452 216.643 135.454C216.642 135.456 216.641 135.457 216.641 135.457C216.641 135.457 216.642 135.456 216.644 135.454C216.647 135.451 216.65 135.448 216.655 135.444C216.665 135.436 216.684 135.423 216.712 135.41C216.77 135.383 216.878 135.353 217.01 135.388L216.847 135.991L216.684 136.595C217.119 136.712 217.441 136.437 217.575 136.287C217.736 136.106 217.85 135.872 217.915 135.632L217.311 135.469ZM216.847 135.991L217.01 135.388C217.141 135.424 217.22 135.504 217.256 135.557C217.274 135.582 217.283 135.603 217.288 135.615C217.29 135.621 217.292 135.626 217.293 135.628C217.293 135.631 217.294 135.633 217.294 135.633C217.294 135.633 217.294 135.632 217.293 135.629C217.293 135.627 217.293 135.623 217.292 135.619C217.292 135.61 217.292 135.598 217.292 135.582C217.294 135.551 217.3 135.513 217.311 135.469L216.708 135.307L216.105 135.144C216.04 135.384 216.021 135.644 216.069 135.881C216.109 136.078 216.249 136.477 216.684 136.595L216.847 135.991ZM216.708 135.307L217.311 135.469C217.323 135.426 217.338 135.39 217.352 135.362C217.359 135.349 217.365 135.338 217.37 135.331C217.373 135.327 217.375 135.324 217.376 135.322C217.378 135.32 217.378 135.319 217.378 135.319C217.378 135.319 217.377 135.32 217.375 135.323C217.373 135.325 217.369 135.328 217.364 135.332C217.354 135.34 217.336 135.353 217.308 135.366C217.25 135.393 217.141 135.424 217.01 135.388L217.172 134.785L217.335 134.182C216.9 134.064 216.578 134.339 216.445 134.489C216.284 134.67 216.17 134.904 216.105 135.144L216.708 135.307Z" fill="#0C0966" mask="url(#path-41-inside-3_515_4910)"/>
<path d="M224.013 26.9007L227.519 24.8555" stroke="#0C0966" stroke-width="0.584342" stroke-linecap="round"/>
<path d="M223.72 39.1717L227.226 37.1265" stroke="#0C0966" stroke-width="0.584342" stroke-linecap="round"/>
<path d="M224.304 29.2381L227.81 27.1929" stroke="#0C0966" stroke-width="0.584342" stroke-linecap="round"/>
<path d="M224.013 41.5096L227.519 39.4644" stroke="#0C0966" stroke-width="0.584342" stroke-linecap="round"/>
<path d="M228.103 31.8677V34.205" stroke="#0C0966" stroke-width="0.584342" stroke-linecap="round"/>
<path d="M237.705 25.23L232.086 28.6008C231.619 28.8813 231.024 28.5446 231.024 27.9996V24.7094V20.9342C231.024 20.4689 231.276 20.0399 231.682 19.8126L237.285 16.6749C237.752 16.4131 238.329 16.751 238.329 17.2867V24.1276C238.329 24.5792 238.092 24.9976 237.705 25.23Z" stroke="#0C0966" stroke-width="0.584342" stroke-linecap="round"/>
<path d="M237.997 35.7485L231.493 39.6504C231.416 39.6971 231.316 39.641 231.316 39.5502V35.2279V31.4528C231.316 30.9875 231.568 30.5585 231.974 30.3311L238.447 26.7063C238.525 26.6627 238.621 26.719 238.621 26.8083V34.6462C238.621 35.0977 238.384 35.5162 237.997 35.7485Z" stroke="#0C0966" stroke-width="0.584342" stroke-linecap="round"/>
<path d="M234.822 18.1357V22.8105M234.822 22.8105L238.036 24.5635M234.822 22.8105L231.316 24.8557" stroke="#0C0966" stroke-width="0.584342" stroke-linecap="round"/>
<path d="M235.115 28.6538V33.3285M235.115 33.3285L238.329 35.0816M235.115 33.3285L231.609 35.3737" stroke="#0C0966" stroke-width="0.584342" stroke-linecap="round"/>
<path d="M221.967 43.531V27.0865C221.967 26.2432 222.4 25.459 223.113 25.0096L227.885 22.0053C228.741 21.4663 229.855 22.0816 229.855 23.0932V39.5837C229.855 40.0506 229.602 40.4807 229.194 40.7075L223.009 44.1439C222.541 44.4036 221.967 44.0656 221.967 43.531Z" stroke="#0C0966" stroke-width="0.584342" stroke-linecap="round"/>
<path d="M221.383 46.184L218.18 44.6896C217.46 44.3536 217 43.6309 217 42.8363V24.9488C217 23.6211 217.693 22.3898 218.828 21.7013L233.074 13.0604C234.141 12.4134 235.486 12.4422 236.524 13.1342L236.575 13.1687L238.913 14.3374" stroke="#0C0966" stroke-width="0.584342" stroke-linecap="round"/>
<path d="M220.799 24.8561L217.585 23.103" stroke="#0C0966" stroke-width="0.584342" stroke-linecap="round"/>
<path d="M222.702 23.0072L237.599 14.4297C238.573 13.869 239.789 14.5719 239.789 15.6957V33.8733C239.789 35.1719 239.126 36.3805 238.03 37.0777L223.649 46.2293C222.288 47.0957 220.506 46.1177 220.506 44.5038V26.8052C220.506 25.2376 221.343 23.7894 222.702 23.0072Z" stroke="#0C0966" stroke-width="0.584342" stroke-linecap="round"/>
<path d="M217.789 72.2721C217.679 72.1736 217.511 72.1825 217.412 72.2919C217.314 72.4013 217.323 72.5699 217.432 72.6683L217.61 72.4702L217.789 72.2721ZM217.61 72.4702L217.432 72.6683L220.097 75.0671L220.276 74.869L220.454 74.6709L217.789 72.2721L217.61 72.4702Z" fill="#0C0966"/>
<path d="M219.21 78.0675L220.01 74.8692C220.556 74.5567 221.832 74.0518 223.001 74.2246C223.318 74.2714 223.594 74.452 223.824 74.675L232.316 82.9179C232.453 83.0503 232.508 83.2453 232.462 83.4297L231.737 86.3301L231.47 86.4634M219.21 78.0675L220.107 78.965C220.363 79.2208 220.76 79.2697 221.07 79.0836C221.542 78.8008 222.146 78.88 222.528 79.2748L229.322 86.2879C229.808 86.789 230.562 86.9176 231.186 86.6056L231.47 86.4634M219.21 78.0675C219.773 77.8564 220.95 77.5448 221.945 77.6368C222.438 77.6824 222.857 77.9803 223.21 78.3282L231.47 86.4634" stroke="#0C0966" stroke-width="0.53306"/>
<path d="M223.209 74.3364L222.409 77.5348" stroke="#0C0966" stroke-width="0.53306"/>
<path d="M232.803 99.9229L238.063 101.482C238.885 101.725 239.643 100.949 239.381 100.133L237.6 94.5923" stroke="#0C0966" stroke-width="0.53306"/>
<path d="M209.882 79.4004L225.341 95.1257C227.926 95.3842 232.517 93.135 233.034 88.1349C233.065 87.8352 232.948 87.5413 232.735 87.3283L231.737 86.3302" stroke="#0C0966" stroke-width="0.53306"/>
<path d="M226.939 95.1258L231.47 99.9233C233.495 100.43 237.683 97.5712 237.644 94.315C237.64 93.9749 237.471 93.6635 237.23 93.423L232.803 88.9956" stroke="#0C0966" stroke-width="0.53306"/>
<path d="M212.715 70.5377C213.081 70.828 213.257 71.3504 213.186 72.0173C213.115 72.6803 212.801 73.4458 212.248 74.1448C211.694 74.8437 211.02 75.324 210.391 75.5444C209.758 75.7661 209.209 75.7145 208.843 75.4242C208.477 75.1339 208.301 74.6114 208.372 73.9446C208.443 73.2817 208.757 72.5166 209.311 71.8178C209.864 71.1189 210.537 70.6379 211.166 70.4175C211.799 70.1958 212.348 70.2476 212.715 70.5377Z" stroke="#0C0966" stroke-width="0.53306"/>
<path d="M208.815 75.4025L210.532 77.119C211.489 78.076 213.047 78.0523 213.975 77.0669L214.95 76.0311C215.838 75.0869 215.816 73.6076 214.899 72.6908L212.813 70.605" stroke="#0C0966" stroke-width="0.53306" stroke-linecap="round"/>
<mask id="path-64-inside-4_515_4910" fill="white">
<path d="M213.565 71.4632C214.995 70.8335 216.402 70.8522 217.275 71.6556C218.686 72.9539 218.173 75.8084 216.128 78.0316L215.933 78.2357C213.908 80.2996 211.235 80.964 209.868 79.7064L209.741 79.5804C208.973 78.7511 208.883 77.395 209.386 75.973L209.766 76.3528C209.78 76.3664 209.795 76.3784 209.809 76.3909C209.751 76.5841 209.704 76.7745 209.671 76.9603C209.482 78.0074 209.705 78.8323 210.229 79.3148C210.754 79.797 211.594 79.9501 212.622 79.6751C213.642 79.402 214.77 78.7198 215.735 77.6712C216.7 76.6226 217.286 75.4424 217.473 74.4027C217.662 73.3551 217.438 72.5297 216.914 72.0472C216.389 71.5652 215.549 71.4118 214.521 71.6868C214.329 71.7384 214.132 71.8037 213.933 71.8841L213.565 71.4632Z"/>
</mask>
<path d="M213.565 71.4632L213.35 70.9753L212.686 71.2678L213.164 71.8142L213.565 71.4632ZM217.275 71.6556L217.636 71.2633L217.636 71.2632L217.275 71.6556ZM216.128 78.0316L216.514 78.3992L216.52 78.3924L216.128 78.0316ZM215.933 78.2357L216.314 78.609L216.319 78.6032L215.933 78.2357ZM209.868 79.7064L209.492 80.0847L209.5 80.0918L209.507 80.0987L209.868 79.7064ZM209.741 79.5804L209.35 79.9426L209.358 79.9508L209.366 79.9588L209.741 79.5804ZM209.386 75.973L209.763 75.596L209.166 74.9986L208.884 75.795L209.386 75.973ZM209.766 76.3528L209.389 76.7298L209.39 76.73L209.766 76.3528ZM209.809 76.3909L210.319 76.5462L210.42 76.2145L210.158 75.9877L209.809 76.3909ZM209.671 76.9603L209.146 76.8658L209.146 76.8658L209.671 76.9603ZM210.229 79.3148L209.868 79.707L209.868 79.7072L210.229 79.3148ZM212.622 79.6751L212.76 80.1901L212.76 80.1901L212.622 79.6751ZM215.735 77.6712L216.127 78.0321L216.127 78.0321L215.735 77.6712ZM217.473 74.4027L217.998 74.4971L217.998 74.4971L217.473 74.4027ZM216.914 72.0472L217.275 71.6549L217.275 71.6547L216.914 72.0472ZM214.521 71.6868L214.383 71.1719L214.383 71.1719L214.521 71.6868ZM213.933 71.8841L213.532 72.2351L213.782 72.5207L214.134 72.3781L213.933 71.8841ZM213.565 71.4632L213.78 71.9511C215.121 71.3607 216.266 71.4518 216.914 72.048L217.275 71.6556L217.636 71.2632C216.537 70.2525 214.87 70.3063 213.35 70.9753L213.565 71.4632ZM217.275 71.6556L216.914 72.0478C217.439 72.5304 217.661 73.3549 217.473 74.4023C217.286 75.4422 216.7 76.622 215.735 77.6707L216.128 78.0316L216.52 78.3924C217.6 77.2179 218.294 75.8589 218.522 74.5911C218.749 73.3309 218.523 72.0791 217.636 71.2633L217.275 71.6556ZM216.128 78.0316L215.742 77.664L215.547 77.8681L215.933 78.2357L216.319 78.6032L216.514 78.3991L216.128 78.0316ZM215.933 78.2357L215.553 77.8623C214.598 78.8352 213.508 79.4591 212.527 79.6988C211.541 79.9398 210.737 79.7817 210.229 79.3141L209.868 79.7064L209.507 80.0987C210.366 80.8887 211.582 81.0272 212.78 80.7344C213.984 80.4403 215.243 79.7 216.314 78.609L215.933 78.2357ZM209.868 79.7064L210.243 79.328L210.116 79.202L209.741 79.5804L209.366 79.9588L209.492 80.0847L209.868 79.7064ZM209.741 79.5804L210.132 79.2182C209.557 78.597 209.417 77.4837 209.889 76.1509L209.386 75.973L208.884 75.795C208.349 77.3064 208.389 78.9051 209.35 79.9426L209.741 79.5804ZM209.386 75.973L209.01 76.3499L209.389 76.7298L209.766 76.3528L210.143 75.9759L209.763 75.596L209.386 75.973ZM209.766 76.3528L209.39 76.73C209.409 76.7496 209.427 76.7654 209.439 76.7753C209.444 76.7803 209.45 76.785 209.453 76.7878C209.457 76.7912 209.459 76.7928 209.461 76.7942L209.809 76.3909L210.158 75.9877C210.152 75.9828 210.147 75.9782 210.144 75.9754C210.14 75.9721 210.138 75.9705 210.136 75.9692C210.133 75.9666 210.137 75.9696 210.143 75.9756L209.766 76.3528ZM209.809 76.3909L209.299 76.2356C209.235 76.4474 209.183 76.6581 209.146 76.8658L209.671 76.9603L210.195 77.0547C210.225 76.8909 210.266 76.7209 210.319 76.5462L209.809 76.3909ZM209.671 76.9603L209.146 76.8658C208.938 78.021 209.164 79.0587 209.868 79.707L210.229 79.3148L210.59 78.9226C210.246 78.6058 210.026 77.9938 210.195 77.0547L209.671 76.9603ZM210.229 79.3148L209.868 79.7072C210.573 80.3551 211.626 80.4933 212.76 80.1901L212.622 79.6751L212.484 79.1602C211.562 79.4068 210.934 79.2388 210.59 78.9224L210.229 79.3148ZM212.622 79.6751L212.76 80.1901C213.892 79.887 215.105 79.1437 216.127 78.0321L215.735 77.6712L215.343 77.3103C214.436 78.2959 213.393 78.9169 212.484 79.1602L212.622 79.6751ZM215.735 77.6712L216.127 78.0321C217.15 76.9206 217.79 75.6509 217.998 74.4971L217.473 74.4027L216.949 74.3082C216.782 75.2339 216.25 76.3245 215.343 77.3103L215.735 77.6712ZM217.473 74.4027L217.998 74.4971C218.206 73.3412 217.979 72.303 217.275 71.6549L216.914 72.0472L216.553 72.4395C216.897 72.7564 217.118 73.3691 216.949 74.3082L217.473 74.4027ZM216.914 72.0472L217.275 71.6547C216.57 71.0071 215.517 70.8685 214.383 71.1719L214.521 71.6868L214.659 72.2018C215.581 71.9551 216.209 72.1233 216.553 72.4397L216.914 72.0472ZM214.521 71.6868L214.383 71.1719C214.17 71.2291 213.952 71.3013 213.733 71.3901L213.933 71.8841L214.134 72.3781C214.311 72.3061 214.487 72.2477 214.659 72.2018L214.521 71.6868ZM213.933 71.8841L214.335 71.5331L213.966 71.1122L213.565 71.4632L213.164 71.8142L213.532 72.2351L213.933 71.8841Z" fill="#0C0966" mask="url(#path-64-inside-4_515_4910)"/>
<path d="M128.13 30V33.6667" stroke="#0C0966" stroke-width="0.610335" stroke-linecap="round"/>
<path d="M125.13 33.3335V35.3335" stroke="#0C0966" stroke-width="0.610335" stroke-linecap="round"/>
<path d="M131.79 33.0005C129.462 35.0005 131.462 36.3339 132.463 34.6672" stroke="#0C0966" stroke-width="0.610335" stroke-linecap="round"/>
<path d="M118.797 42.5102V40.4086C118.797 40.3624 118.823 40.3201 118.864 40.2994L119.954 39.7548C120.035 39.7143 120.13 39.7733 120.13 39.864V40.6012C120.13 40.642 120.11 40.6801 120.076 40.7028L119.298 41.2214C119.248 41.2549 119.271 41.3332 119.332 41.3332H120.294C120.378 41.3332 120.436 41.4148 120.41 41.4939L120.151 42.2696C120.138 42.3092 120.106 42.3393 120.065 42.3495L118.949 42.6286C118.872 42.6479 118.797 42.5896 118.797 42.5102Z" stroke="#0C0966" stroke-width="0.610335" stroke-linecap="round"/>
<path d="M118.552 37.6997L128.494 22.7872C128.626 22.5887 128.925 22.612 129.025 22.8286L132.564 30.4967C132.695 30.7823 132.589 31.1212 132.317 31.2797L119.53 38.7386C118.86 39.1298 118.121 38.3457 118.552 37.6997Z" stroke="#0C0966" stroke-width="0.610335" stroke-linecap="round"/>
<path d="M118.797 23.6664L123.13 21.333" stroke="#0C0966" stroke-width="0.610335" stroke-linecap="round"/>
<path d="M118.797 25.6669L123.13 23.3335" stroke="#0C0966" stroke-width="0.610335" stroke-linecap="round"/>
<path d="M127.129 22.0005L127.721 19.3361C127.746 19.2239 127.898 19.2052 127.949 19.308L128.796 21.0005" stroke="#0C0966" stroke-width="0.610335" stroke-linecap="round"/>
<path d="M127.463 20.9998L128.463 20.6665" stroke="#0C0966" stroke-width="0.610335" stroke-linecap="round"/>
<path d="M130.463 14L128.502 12.5294C128.073 12.208 127.495 12.172 127.03 12.4377L115.395 19.0863C114.406 19.6514 113.796 20.703 113.796 21.8419V44.8372C113.796 45.3458 114.083 45.8107 114.538 46.0381L115.796 46.667" stroke="#0C0966" stroke-width="0.610335" stroke-linecap="round"/>
<path d="M114.464 20.6665L116.464 21.6665" stroke="#0C0966" stroke-width="0.610335" stroke-linecap="round"/>
<path d="M129.797 13.6665L117.7 20.7473C116.728 21.3167 116.13 22.3592 116.13 23.4863V47.7934C116.13 47.8863 116.23 47.9452 116.311 47.9003L135.4 37.3682C135.439 37.3468 135.463 37.3058 135.463 37.2613V15.9999M129.797 13.6665L135.463 15.9999M129.797 13.6665V17.7834C129.797 18.3354 130.384 18.689 130.872 18.4307L135.463 15.9999" stroke="#0C0966" stroke-width="0.610335" stroke-linecap="round"/>
<path d="M24.8036 133.286C23.0757 127.757 30.4628 122.503 35.1675 129.117C35.1758 129.128 35.186 129.139 35.1978 129.147C36.0152 129.713 37.9475 129.815 37.9475 128.098C37.9475 125.309 31.3755 123.601 27.8334 126.518" stroke="#0C0966" stroke-width="0.6399" stroke-linecap="round"/>
<path d="M27.918 156.807V158.661C27.918 159.032 28.0082 159.41 28.2984 159.642C30.0311 161.023 35.7972 161.691 38.8343 159.616C39.1663 159.389 39.3324 158.998 39.3324 158.596V156.115" stroke="#0C0966" stroke-width="0.6399" stroke-linecap="round"/>
<path d="M29.3014 154.04C27.2258 154.732 26.8115 158.675 32.0691 159.228C38.641 159.92 40.7157 156.461 38.2954 154.04" stroke="#0C0966" stroke-width="0.6399" stroke-linecap="round"/>
<path d="M36.2201 130.519C36.2201 131.326 35.8742 132.871 34.4907 132.594C33.5963 132.416 33.2319 131.842 33.1171 131.302C33.0869 131.16 32.7766 131.071 32.6988 131.193C32.1462 132.063 31.3267 133.205 30.6858 133.632C29.6546 134.32 28.6233 132.616 27.2525 136.329C27.237 136.371 27.2002 136.405 27.1563 136.413L25.6335 136.718C25.5602 136.733 25.515 136.806 25.5331 136.879C25.7372 137.698 25.8475 139.154 24.9015 139.484C24.8461 139.503 24.8045 139.554 24.8113 139.612C24.861 140.035 25.2514 140.361 26.5351 138.82C28.2295 136.787 27.5999 140.398 30.5011 139.244C30.5871 139.21 30.6858 139.271 30.6858 139.363V140.439C30.6858 140.503 30.7322 140.557 30.7953 140.565C31.6301 140.672 33.1071 140.733 33.1071 140.204C33.1071 139.709 33.4757 139.362 33.7186 139.211C33.7655 139.182 33.8246 139.193 33.8651 139.23C34.3512 139.68 35.3848 140.28 36.1721 139.558C36.2026 139.53 36.2442 139.516 36.2849 139.524C37.0068 139.659 38.5279 140.168 39.3331 141.242C39.7936 141.932 40.6449 142.761 40.3721 140.56C40.3713 140.554 40.3699 140.547 40.3682 140.541C40.1408 139.736 40.0316 138.218 41.3828 138.47C41.3992 138.473 41.4153 138.479 41.4294 138.488C41.7895 138.717 42.6699 139.017 43.4838 138.475C44.5215 137.783 43.1379 137.437 42.4461 135.362C41.7544 133.286 40.0249 133.978 39.3331 131.211" stroke="#0C0966" stroke-width="0.6399" stroke-linecap="round"/>
<path d="M31.7227 154.732V156.679C31.7227 156.75 31.78 156.807 31.8506 156.807H35.3995C35.4702 156.807 35.5275 156.75 35.5275 156.679V154.732" stroke="#0C0966" stroke-width="0.6399" stroke-linecap="round"/>
<circle cx="33.798" cy="142.279" r="12.478" stroke="#0C0966" stroke-width="0.6399"/>
<path d="M31.7214 143.663C33.4529 144.9 34.2078 144.571 34.4308 144.158C34.4697 144.085 34.5613 144.046 34.6325 144.086C37.1193 145.493 33.4639 148.166 34.1431 148.506C34.8349 148.852 35.1808 154.732 31.7214 153.002C28.262 151.273 29.3006 148.852 28.2629 147.814C27.4459 146.997 25.4445 147.006 24.502 147.117C24.4728 147.12 24.4431 147.113 24.4184 147.097C22.2746 145.717 23.5228 143.117 24.4381 141.959C24.4512 141.942 24.4688 141.929 24.4882 141.921C29.3001 139.867 29.3052 141.938 31.7214 143.663Z" stroke="#0C0966" stroke-width="0.6399" stroke-linecap="round"/>
<path d="M32.9056 84.4255C31.8301 84.3277 29.9724 84.7191 28.5059 85.8923" stroke="#0C0966" stroke-width="0.586631" stroke-linecap="round"/>
<path d="M39.9441 79.1465C38.898 79.4149 36.8279 80.7757 35.8395 82.3726" stroke="#0C0966" stroke-width="0.586631" stroke-linecap="round"/>
<path d="M32.9056 86.7725C31.7323 86.4792 29.6791 87.0658 28.5059 88.2391" stroke="#0C0966" stroke-width="0.586631" stroke-linecap="round"/>
<path d="M39.9457 81.4926C38.8996 81.761 36.8279 83.1222 35.8394 84.7192" stroke="#0C0966" stroke-width="0.586631" stroke-linecap="round"/>
<path d="M32.9056 88.8257C31.8301 88.728 30.2658 88.8256 28.5059 90.5857" stroke="#0C0966" stroke-width="0.586631" stroke-linecap="round"/>
<path d="M39.9449 83.546C38.8989 83.8144 36.8279 85.4692 35.8395 87.0662" stroke="#0C0966" stroke-width="0.586631" stroke-linecap="round"/>
<path d="M27.04 84.4256C27.273 82.3286 31.7668 81.4077 34.0317 81.2034C34.0631 81.2005 34.0913 81.1849 34.1114 81.1607C37.2737 77.3371 40.3216 76.1008 41.5795 75.9332C41.6476 75.9242 41.7058 75.9783 41.7058 76.0469V84.9328C41.7058 84.9808 41.6778 85.0233 41.6335 85.0417C39.3034 86.0111 35.6894 89.2746 34.1191 90.8391C34.0935 90.8646 34.0595 90.8758 34.0235 90.8722C32.2014 90.6883 28.8482 92.4152 27.2195 93.4077C27.1408 93.4556 27.04 93.3988 27.04 93.3067V84.4256Z" stroke="#0C0966" stroke-width="0.586631" stroke-linecap="round"/>
<path d="M34.0801 81.1992V90.5853" stroke="#0C0966" stroke-width="0.586631" stroke-linecap="round"/>
<path d="M34.666 80.9058V90.2919" stroke="#0C0966" stroke-width="0.586631" stroke-linecap="round"/>
<path d="M33.7852 94.3984V95.7925C33.7852 95.8369 33.8103 95.8776 33.85 95.8974L36.1317 97.0383" stroke="#0C0966" stroke-width="0.586631" stroke-linecap="round"/>
<path d="M24.4647 81.9104L44.172 70.5788C45.0324 70.0841 46.1059 70.7051 46.1059 71.6976V84.7377C46.1059 86.187 45.3629 87.535 44.1376 88.3089L40.8952 90.3567C40.6567 90.5073 40.4552 90.7097 40.3058 90.9489L36.35 97.2782C36.2875 97.3781 36.1331 97.3339 36.1331 97.216V93.8913C36.1331 93.3422 35.5323 93.0045 35.0632 93.29L24.6023 99.6575C23.7422 100.181 22.6406 99.562 22.6406 98.5551V85.0635C22.6406 83.7618 23.3363 82.5593 24.4647 81.9104Z" stroke="#0C0966" stroke-width="0.586631" stroke-linecap="round"/>
<path d="M22.9332 99.3848L21.0377 98.437C20.4017 98.1191 20 97.469 20 96.758V82.909C20 82.032 20.4662 81.2211 21.2241 80.7798L41.7281 68.8407C42.5512 68.3614 43.6029 68.5746 44.1744 69.3367L44.9318 70.3465" stroke="#0C0966" stroke-width="0.586631" stroke-linecap="round"/>
<path d="M20.293 82.0791L22.6395 83.5457" stroke="#0C0966" stroke-width="0.586631" stroke-linecap="round"/>
<path d="M41.7054 76.2129C41.7054 76.0509 41.5741 75.9196 41.4121 75.9196C41.2501 75.9196 41.1188 76.0509 41.1188 76.2129H41.4121H41.7054ZM41.1188 84.719V85.0124H41.7054V84.719H41.4121H41.1188ZM41.4121 76.2129H41.1188V84.719H41.4121H41.7054V76.2129H41.4121Z" fill="#0C0966"/>
</svg>
