<svg width="260" height="178" viewBox="0 0 260 178" fill="none" xmlns="http://www.w3.org/2000/svg">
<path d="M37.9595 73C39.4109 73 40.803 73.5766 41.8293 74.6029L54.9879 87.7614C57.1249 89.8986 57.1248 93.3634 54.9879 95.5006L44.5006 105.988C42.3634 108.125 38.8986 108.125 36.7614 105.988L23.6029 92.8293C22.5766 91.803 22 90.4109 22 88.9595V78.4727C22 75.4502 24.4502 73 27.4727 73H37.9595ZM25.3312 88.9595C25.3312 89.5274 25.557 90.0724 25.9586 90.4741L39.1167 103.632C39.953 104.468 41.309 104.468 42.1454 103.632L52.6321 93.1454C53.4684 92.309 53.4684 90.953 52.6321 90.1167L39.4741 76.9586C39.0724 76.557 38.5274 76.3312 37.9595 76.3312H27.4727C26.29 76.3312 25.3312 77.29 25.3312 78.4727V88.9595Z" fill="black"/>
<path d="M35.5634 82.2798C35.5634 84.3824 33.8589 86.0869 31.7563 86.0869C29.6537 86.0869 27.9492 84.3824 27.9492 82.2798C27.9492 80.1772 29.6537 78.4727 31.7563 78.4727C33.8589 78.4727 35.5634 80.1772 35.5634 82.2798Z" fill="black"/>
<path d="M25.6641 33.057V55.0026C25.6641 55.6882 26.439 56.087 26.9969 55.6885L35.0792 49.9155C35.3723 49.7061 35.766 49.7061 36.0591 49.9155L44.1414 55.6885C44.6993 56.087 45.4742 55.6925 45.4742 55.0069V33.057C45.4742 30.0383 44.2102 28.4316 42.1725 28.3403H29.9091C26.5086 28.3403 25.6641 31.1711 25.6641 33.057Z" fill="black"/>
<path d="M43.8103 33.057C43.8103 31.7515 43.5328 30.9832 43.2387 30.5758C42.992 30.2342 42.6602 30.0359 42.1265 30.006H29.9105C28.7587 30.0061 28.2176 30.4432 27.894 30.923C27.5054 31.4992 27.3312 32.3142 27.3312 33.057V53.4036L34.1126 48.5601C34.9576 47.9566 36.0836 47.9377 36.9461 48.5034L37.0289 48.5601L43.8103 53.4036V33.057ZM47.1415 55.0069C47.1415 57.063 44.8225 58.2206 43.175 57.0439L35.5705 51.612L27.9665 57.0439C26.3062 58.2298 24 57.0431 24 55.0028V33.057C24 31.9139 24.2484 30.3708 25.1321 29.0603C26.0809 27.6533 27.6621 26.6748 29.9105 26.6748H42.2116L42.2488 26.6767C43.7366 26.7433 45.0487 27.3925 45.9392 28.6258C46.7865 29.7992 47.1415 31.344 47.1415 33.057V55.0069Z" fill="black"/>
<path d="M50.9267 47.5007V27.1286C50.9267 24.1512 48.9959 23.1337 47.7372 23.1337H47.7098L47.6824 23.1328L36.3642 22.8061C35.3134 22.7757 34.4861 21.8994 34.5164 20.8486C34.5468 19.7978 35.4231 18.9705 36.4739 19.0008L47.7758 19.3275C51.035 19.3482 54.7338 21.9774 54.7338 27.1286V47.5007C54.7338 48.552 53.8816 49.4043 52.8303 49.4043C51.779 49.4043 50.9267 48.552 50.9267 47.5007Z" fill="black"/>
<path d="M128.888 132C130.193 132 131.445 132.518 132.368 133.441L143.619 144.693C145.541 146.615 145.541 149.73 143.619 151.652L134.652 160.619C132.73 162.541 129.615 162.541 127.693 160.619L116.441 149.368C115.518 148.445 115 147.193 115 145.888V136.921C115 134.203 117.203 132 119.921 132H128.888ZM123.742 137.417C121.956 137.417 120.508 138.865 120.508 140.651C120.508 142.436 121.956 143.884 123.742 143.884C125.527 143.884 126.975 142.436 126.975 140.651C126.975 138.865 125.527 137.418 123.742 137.417Z" fill="black"/>
<path d="M137.226 132.488C137.877 131.837 138.931 131.837 139.581 132.488L149.998 142.903C150.964 143.87 152.189 145.317 152.502 147.271C152.831 149.326 152.095 151.508 150.064 153.792L150.054 153.804L150.044 153.815L144.609 159.703C143.985 160.379 142.931 160.421 142.255 159.797C141.58 159.173 141.537 158.119 142.161 157.443L147.584 151.568C149.167 149.783 149.336 148.572 149.213 147.798C149.072 146.921 148.487 146.104 147.642 145.259L137.226 134.843C136.576 134.193 136.576 133.138 137.226 132.488Z" fill="black"/>
<path d="M235.055 72.4878C235.705 71.8374 236.76 71.8374 237.41 72.4878C238.061 73.1383 238.061 74.1927 237.41 74.8431L233.511 78.7418C233.879 79.364 234.127 80.0687 234.22 80.8261L235.215 88.9446C235.427 90.6732 234.79 92.3977 233.505 93.5734L219.226 106.638C217.682 108.05 215.313 108.541 213.318 107.393C208.189 104.44 204.618 99.9658 202.683 96.7605C201.436 94.6954 201.999 92.2199 203.542 90.6771L216.632 77.5865C217.656 76.5629 219.049 75.9947 220.496 76.0096L228.93 76.0965C229.664 76.1041 230.367 76.2601 231.006 76.5362L235.055 72.4878ZM220.462 79.3404C219.91 79.3347 219.379 79.5518 218.988 79.9422L205.898 93.0324C205.271 93.6592 205.196 94.4777 205.535 95.0391C207.283 97.9352 210.49 101.92 214.98 104.506C215.54 104.828 216.345 104.757 216.977 104.18L231.256 91.1154C231.746 90.6669 231.99 90.0092 231.909 89.3498L230.925 81.328L226.035 86.218C225.385 86.8685 224.331 86.8685 223.68 86.218C223.03 85.5675 223.03 84.5132 223.68 83.8627L228.123 79.4189L220.462 79.3404Z" fill="black"/>
<path d="M221.17 126C221.78 125.997 222.359 126.255 222.787 126.689L237.048 141.156C237.897 142.018 237.966 143.376 237.193 144.307C235.465 146.388 232.399 149.998 229.974 152.424C227.516 154.882 223.843 157.996 221.777 159.711C220.881 160.454 219.582 160.423 218.713 159.651L203.796 146.392C203.34 145.987 203.053 145.424 203.025 144.815C202.771 139.126 204.487 133.005 205.564 129.901C205.794 129.24 206.317 128.732 206.984 128.52C210.175 127.508 216.076 126.029 221.17 126ZM229.623 140.984C228.99 140.316 227.936 140.287 227.268 140.919L217.607 150.063C216.939 150.695 216.91 151.749 217.542 152.417C218.174 153.085 219.229 153.115 219.897 152.483L229.558 143.339C230.226 142.707 230.255 141.653 229.623 140.984ZM213.707 133.138C211.736 133.138 210.138 134.842 210.138 136.945C210.138 139.048 211.736 140.752 213.707 140.752C215.679 140.752 217.277 139.048 217.277 136.945C217.277 134.842 215.679 133.138 213.707 133.138Z" fill="black"/>
<path d="M22.736 143.819L32.4099 153.493L46.8985 139.005V129.331H37.2241L22.736 143.819ZM50.2297 139.41C50.2297 140.034 49.9817 140.633 49.5405 141.074L34.0741 156.541C33.1552 157.459 31.6651 157.459 30.7462 156.541L19.6892 145.483C18.7703 144.564 18.7703 143.075 19.6892 142.156L35.1556 126.689L35.2402 126.609C35.6718 126.218 36.2343 126 36.8193 126H47.8763C49.1758 126 50.2297 127.053 50.2297 128.353V139.41Z" fill="black"/>
<path d="M45.4717 136.946L45.468 137.016C45.4352 137.339 45.1781 137.596 44.8545 137.629L44.7844 137.633H39.9725C39.6166 137.633 39.3241 137.362 39.2889 137.016L39.2852 136.946V132.134C39.2852 131.754 39.5929 131.446 39.9725 131.446H44.7844L44.8545 131.45C45.2012 131.485 45.4717 131.778 45.4717 132.134V136.946Z" fill="black"/>
<path d="M57.9764 143.799C57.9763 144.423 57.7284 145.022 57.2872 145.463L40.79 161.96C39.8711 162.879 38.381 162.879 37.462 161.96L35.1988 159.697C34.5483 159.047 34.5483 157.992 35.1988 157.341C35.8492 156.691 36.9036 156.691 37.5541 157.341L39.1258 158.913L54.6452 143.394V135.095H53.2175C52.2977 135.095 51.5519 134.349 51.5519 133.429C51.5519 132.509 52.2977 131.764 53.2175 131.764H55.6234C56.923 131.764 57.9764 132.817 57.9764 134.117V143.799Z" fill="black"/>
<path d="M142.795 29.9345C142.795 29.7646 142.728 29.6016 142.608 29.4815L134.723 21.596L134.65 21.526C134.578 21.4595 134.509 21.4037 134.442 21.3599C134.354 21.3018 134.3 21.2853 134.28 21.2811C134.273 21.2798 134.264 21.2757 134.225 21.2895C134.175 21.307 134.033 21.3712 133.812 21.5923L125.924 29.4815C125.804 29.6016 125.736 29.7646 125.736 29.9345V52.121C125.736 52.4301 125.794 52.6044 125.839 52.6799C125.85 52.6978 125.88 52.7747 126.129 52.8242C126.44 52.886 127.056 52.8877 128.134 52.5719C129.198 52.2601 130.616 51.6679 132.479 50.6594C133.712 49.9915 135.193 50.0785 136.342 50.7979C138.03 51.8542 139.965 52.7288 141.349 52.8472C142.022 52.9046 142.317 52.7639 142.437 52.6603C142.536 52.5751 142.795 52.275 142.795 51.2951V29.9345ZM145.785 51.2951C145.785 52.7704 145.386 54.0665 144.388 54.9256C143.412 55.7663 142.173 55.9184 141.094 55.8261C138.976 55.645 136.54 54.449 134.756 53.3323C134.479 53.159 134.147 53.1559 133.902 53.2889C131.928 54.357 130.309 55.0499 128.975 55.4407C127.656 55.8273 126.514 55.9488 125.546 55.7565C124.517 55.5518 123.748 55.0007 123.28 54.2253C122.846 53.5074 122.745 52.7233 122.746 52.1176V29.9345C122.746 28.9716 123.129 28.048 123.809 27.3672L131.698 19.4788C132.663 18.5129 133.766 18.1295 134.866 18.3493C135.708 18.5176 136.33 19.0045 136.692 19.342L136.831 19.4759L144.722 27.3672C145.403 28.048 145.785 28.9716 145.785 29.9345V51.2951Z" fill="black"/>
<path d="M134.95 29.05C134.95 28.7471 134.704 28.5015 134.401 28.5015C134.098 28.5015 133.853 28.7472 133.853 29.05C133.853 29.3529 134.098 29.5985 134.401 29.5985V32.3457C132.581 32.3456 131.105 30.8702 131.105 29.05C131.105 27.2299 132.581 25.7544 134.401 25.7544C136.221 25.7544 137.697 27.2299 137.697 29.05C137.697 30.8702 136.221 32.3457 134.401 32.3457V29.5985C134.704 29.5985 134.95 29.3529 134.95 29.05Z" fill="black"/>
<path d="M134.066 71C134.424 71 134.754 71.1908 134.933 71.5005L140.387 80.9463C140.474 81.0984 140.521 81.2711 140.521 81.4468V105.317C140.521 107.353 139.939 107.643 139.067 107.643H120.745C119.291 107.643 119 106.189 119 105.317V81.4784C119 81.2831 119.057 81.0919 119.165 80.9286L125.392 71.4513C125.578 71.1696 125.892 71 126.229 71H134.066ZM129.708 78.1383C127.999 78.1383 126.614 79.6298 126.614 81.4696C126.614 83.3093 127.999 84.8008 129.708 84.8008C131.416 84.8008 132.801 83.3093 132.801 81.4696C132.801 79.6298 131.416 78.1383 129.708 78.1383Z" fill="black"/>
<path d="M218.297 18.8208C219.794 17.3213 220.994 18.221 221.598 18.8208L230.212 27.4351C230.649 27.8723 230.894 28.4652 230.895 29.0835V52.4106C230.894 57.7735 225.14 55.6246 221.349 53.2515C220.57 52.7641 219.58 52.7145 218.772 53.1519C210.394 57.6875 208.998 55.3085 209 53.3101V29.0835C209 28.4652 209.246 27.8723 209.683 27.4351L218.297 18.8208ZM214.101 44.9751C213.444 44.9752 212.911 45.5077 212.911 46.1646C212.911 46.8216 213.444 47.3539 214.101 47.354H225.786C226.443 47.3539 226.976 46.8215 226.976 46.1646C226.975 45.5077 226.443 44.9752 225.786 44.9751H214.101ZM214.101 39.5825C213.444 39.5826 212.911 40.115 212.911 40.772C212.911 41.4288 213.444 41.9613 214.101 41.9614H225.786C226.443 41.9613 226.975 41.4288 226.976 40.772C226.976 40.115 226.443 39.5827 225.786 39.5825H214.101ZM220.179 25.6147C218.47 25.6147 217.085 26.9992 217.085 28.7075C217.085 30.4159 218.47 31.8013 220.179 31.8013C221.887 31.8011 223.271 30.4158 223.271 28.7075C223.271 26.9993 221.887 25.6149 220.179 25.6147Z" fill="black"/>
</svg>
