<svg width="260" height="178" viewBox="0 0 260 178" fill="none" xmlns="http://www.w3.org/2000/svg">
<path d="M133.735 15.9524C133.734 14.6188 132.653 13.5378 131.32 13.5378C129.986 13.5379 128.905 14.6189 128.905 15.9524C128.905 17.2859 129.986 18.3671 131.32 18.3672V20.1356L131.212 20.1342C128.951 20.0769 127.137 18.2265 127.137 15.9524C127.137 13.6422 129.01 11.7695 131.32 11.7694C133.63 11.7694 135.503 13.6422 135.503 15.9524L135.501 16.0603C135.444 18.3207 133.594 20.1356 131.32 20.1356V18.3672C132.653 18.3672 133.735 17.2859 133.735 15.9524Z" fill="black"/>
<path d="M118.82 17.7712C118.82 16.4377 117.739 15.3566 116.406 15.3566C115.072 15.3567 113.991 16.4377 113.991 17.7712C113.991 19.1048 115.072 20.186 116.406 20.1861V21.9544L116.298 21.953C114.037 21.8957 112.223 20.0453 112.223 17.7712C112.223 15.4611 114.095 13.5883 116.406 13.5883C118.716 13.5883 120.589 15.461 120.589 17.7712L120.587 17.8791C120.53 20.1395 118.68 21.9544 116.406 21.9544V20.1861C117.739 20.1861 118.82 19.1048 118.82 17.7712Z" fill="black"/>
<path d="M149.008 17.7712C149.008 16.4377 147.927 15.3566 146.593 15.3566C145.26 15.3567 144.179 16.4377 144.179 17.7712C144.179 19.1048 145.26 20.186 146.593 20.1861V21.9544L146.485 21.953C144.225 21.8957 142.41 20.0453 142.41 17.7712C142.41 15.4611 144.283 13.5883 146.593 13.5883C148.903 13.5883 150.776 15.461 150.776 17.7712L150.775 17.8791C150.718 20.1395 148.867 21.9544 146.593 21.9544V20.1861C147.927 20.1861 149.008 19.1048 149.008 17.7712Z" fill="black"/>
<path d="M132.043 22.3434C134.409 22.3434 137.046 23.2012 139.922 25.7705C142.176 24.1451 144.883 23.6164 146.957 23.6164H146.992L147.028 23.6193C151.884 24.0079 155.047 26.6547 156.342 29.7272C157.617 32.7511 157.081 36.2981 154.365 38.1446L154.335 38.1654L154.303 38.1832C151.795 39.6011 149.395 38.8172 147.549 37.4683C145.733 36.1405 144.301 34.1766 143.481 32.7934C142.211 30.8703 141.001 29.3533 139.856 28.1629C138.473 29.614 137.474 31.7921 137.474 35.0494H135.706C135.706 31.3604 136.865 28.7366 138.578 26.9411C136.029 24.7227 133.837 24.1118 132.043 24.1118C128.087 24.1118 125.642 25.4189 123.899 27.079C126.092 29.1535 127.477 31.9956 127.106 35.1527L125.35 34.9461C125.639 32.482 124.546 30.1374 122.708 28.3802C122.281 28.9092 121.893 29.4582 121.526 30.0096C120.897 30.9526 120.263 32.011 119.666 32.8389C118.606 34.3501 117.108 35.9611 116.487 36.5832L116.476 36.5941L116.464 36.6051C113.536 39.3386 110.362 39.7137 108.102 38.246C105.882 36.8037 104.917 33.8074 105.919 30.6022L105.927 30.5775L105.936 30.553C107.149 27.3512 109.162 25.3358 111.532 24.3366C113.884 23.3452 116.497 23.391 118.874 24.1342C120.159 24.5361 121.404 25.1557 122.523 25.9501C122.535 25.9381 122.547 25.9261 122.559 25.9141C124.629 23.8935 127.532 22.3434 132.043 22.3434ZM118.346 25.822C116.288 25.1785 114.114 25.1673 112.219 25.9662C110.349 26.7549 108.661 28.3695 107.6 31.1534C106.795 33.7572 107.65 35.8437 109.065 36.7631C110.443 37.6584 112.724 37.6707 115.247 35.3217C115.842 34.724 117.254 33.2004 118.224 31.8142L118.228 31.8088L118.232 31.8036C118.816 30.9946 119.342 30.0976 120.054 29.0287C120.438 28.4528 120.859 27.8565 121.333 27.2686C120.428 26.6509 119.416 26.1567 118.346 25.822ZM146.923 25.3848C145.19 25.3905 143.024 25.8228 141.215 27.0263C142.427 28.2985 143.678 29.8813 144.967 31.8341L144.979 31.8525L144.99 31.8712C145.748 33.1544 147.039 34.9049 148.593 36.0404C150.118 37.1552 151.739 37.5849 153.403 36.66C155.209 35.4068 155.751 32.877 154.713 30.414C153.692 27.9918 151.138 25.7337 146.923 25.3848Z" fill="black"/>
<path d="M26.9734 37.0123C27.7439 37.4864 29.1441 38.1144 30.6567 38.4333C32.1891 38.7563 33.6785 38.7296 34.7551 38.0964L35.5362 39.4239C33.9674 40.3467 32.0118 40.2929 30.3391 39.9403C29.4903 39.7614 28.6735 39.4969 27.9547 39.2069C29.1372 41.6309 31.1039 42.6929 33.0656 42.9471C34.2794 43.1043 35.5049 42.9524 36.5559 42.5951C37.6164 42.2346 38.4415 41.6856 38.9079 41.1027L40.1106 42.0647C39.4099 42.9406 38.3016 43.6283 37.0515 44.0533C35.7918 44.4815 34.3293 44.6638 32.8676 44.4744C29.8955 44.0892 26.98 42.1688 25.8261 37.8678L25.3242 35.9976L26.9734 37.0123ZM46.9288 27.6528C49.1086 33.0187 46.433 36.7045 44.8339 37.8467L43.9385 36.5934C45.0626 35.7905 47.3679 32.8254 45.502 28.2324L46.9288 27.6528ZM42.7063 28.5262C42.7063 29.6916 42.3439 30.7791 41.9287 31.6204C41.5208 32.4469 41.0198 33.1195 40.6581 33.436L39.6439 32.2769C39.8009 32.1395 40.1925 31.6583 40.5475 30.9388C40.8952 30.2342 41.1662 29.3836 41.1662 28.5262H42.7063Z" fill="black"/>
<path d="M42.9775 39.0129C43.8397 37.4858 43.263 35.2814 41.3192 34.1838C39.3754 33.0862 37.1897 33.7308 36.3273 35.2579C35.465 36.7851 36.0418 38.9899 37.9857 40.0875L37.2285 41.4285L37.1089 41.359C34.6206 39.8765 33.6684 36.8346 34.9862 34.5007C36.325 32.1299 39.4994 31.3876 42.0764 32.8427L42.196 32.9119C44.6842 34.3943 45.6363 37.4363 44.3186 39.7702C42.9799 42.1411 39.8056 42.8836 37.2285 41.4285L37.9857 40.0875C39.9296 41.185 42.1152 40.5401 42.9775 39.0129Z" fill="black"/>
<path d="M42.9775 11.9857C43.8397 13.5129 43.263 15.7173 41.3192 16.8149C39.3754 17.9125 37.1897 17.2678 36.3273 15.7407C35.465 14.2135 36.0418 12.0088 37.9857 10.9112L37.2285 9.57011L37.1089 9.63967C34.6206 11.1221 33.6684 14.1641 34.9862 16.4979C36.325 18.8688 39.4994 19.6111 42.0764 18.156L42.196 18.0868C44.6842 16.6043 45.6363 13.5624 44.3186 11.2285C42.9799 8.85758 39.8056 8.11503 37.2285 9.57011L37.9857 10.9112C39.9296 9.81364 42.1152 10.4586 42.9775 11.9857Z" fill="black"/>
<path d="M13.417 39.0129C12.5548 37.4858 13.1315 35.2814 15.0753 34.1838C17.0192 33.0862 19.2049 33.7308 20.0672 35.2579C20.9295 36.7851 20.3527 38.9899 18.4088 40.0875L19.166 41.4285L19.2857 41.359C21.7739 39.8765 22.7261 36.8346 21.4083 34.5007C20.0695 32.1299 16.8951 31.3876 14.3181 32.8427L14.1986 32.9119C11.7103 34.3943 10.7582 37.4363 12.0759 39.7702C13.4146 42.1411 16.589 42.8836 19.166 41.4285L18.4088 40.0875C16.4649 41.185 14.2793 40.5401 13.417 39.0129Z" fill="black"/>
<path d="M13.417 11.5966C12.5548 13.1237 13.1315 15.3281 15.0753 16.4257C17.0192 17.5233 19.2049 16.8787 20.0672 15.3516C20.9295 13.8244 20.3527 11.6196 18.4088 10.522L19.166 9.18095L19.2857 9.25051C21.7739 10.733 22.7261 13.7749 21.4083 16.1088C20.0695 18.4796 16.8951 19.2219 14.3181 17.7668L14.1986 17.6976C11.7103 16.2152 10.7582 13.1732 12.0759 10.8393C13.4146 8.46842 16.589 7.72587 19.166 9.18095L18.4088 10.522C16.4649 9.42448 14.2793 10.0694 13.417 11.5966Z" fill="black"/>
<path d="M11.3374 24.9727C12.6025 23.8235 14.3759 23.178 16.6856 23.283L18.6085 23.3704L17.1559 24.6333C16.5001 25.2035 15.6431 26.2885 15.2556 27.631C14.8783 28.938 14.9367 30.5069 16.1116 32.1656L14.8548 33.056C13.3843 30.9801 13.281 28.9181 13.7759 27.2036C14.025 26.3408 14.4233 25.5708 14.865 24.9276C13.8017 25.1231 12.9887 25.5531 12.3729 26.1125C11.4422 26.958 10.8848 28.1692 10.6576 29.5316C10.4303 30.894 10.5431 32.3602 10.9065 33.6405C11.2741 34.9356 11.8718 35.9517 12.5341 36.4971L11.5552 37.6861C10.564 36.8699 9.84088 35.5267 9.4248 34.0609C9.00453 32.5803 8.87075 30.8838 9.13854 29.2782C9.40635 27.6725 10.0854 26.1101 11.3374 24.9727Z" fill="black"/>
<path d="M17.335 40.9107C17.8503 41.426 18.9617 42.2845 20.433 42.8614C21.8949 43.4347 23.6734 43.716 25.5704 43.154L26.0081 44.6306C23.7037 45.3134 21.566 44.96 19.8707 44.2953C18.1849 43.6342 16.8978 42.6514 16.2461 41.9996L17.335 40.9107ZM21.5703 37.5739C21.6803 37.6838 22.1152 37.9621 22.7848 38.2201C23.4275 38.4677 24.1644 38.6485 24.8167 38.6485V40.1886C23.9128 40.1886 22.9812 39.9462 22.231 39.6572C21.5077 39.3785 20.8252 39.0066 20.4814 38.6628L21.5703 37.5739Z" fill="black"/>
<path d="M12.7023 14.805C11.5443 15.9051 9.48904 19.3462 11.3131 23.1347L9.92542 23.8027C7.70381 19.1884 10.206 15.0523 11.6415 13.6885L12.7023 14.805ZM17.3367 18.3848C17.0324 18.689 16.5223 19.3302 16.1307 20.0189C15.9362 20.361 15.7859 20.6894 15.7011 20.9734C15.6119 21.272 15.6201 21.439 15.6394 21.5066L14.1584 21.9297C14.0222 21.4527 14.1002 20.9519 14.2254 20.5327C14.3549 20.0991 14.5633 19.6596 14.7919 19.2576C15.2465 18.458 15.8388 17.7048 16.2478 17.2959L17.3367 18.3848ZM16.4428 8.55535C18.2121 7.65403 21.0958 6.57014 23.9448 6.76082C25.385 6.85723 26.8366 7.28124 28.1189 8.2375C29.4027 9.19497 30.4642 10.6468 31.1865 12.7107L31.8042 14.4756L30.123 13.6577C28.9966 13.1097 27.075 12.4822 25.2888 12.2946C24.3959 12.2007 23.5862 12.2225 22.9461 12.3868C22.3125 12.5494 21.9132 12.8309 21.6985 13.2125L20.3564 12.4575C20.842 11.5943 21.672 11.1238 22.5633 10.8951C23.4482 10.668 24.4596 10.6589 25.4498 10.763C26.6562 10.8898 27.9049 11.1932 28.9844 11.5506C28.4613 10.6316 27.8509 9.95885 27.1982 9.47204C26.1994 8.72722 25.0487 8.37819 23.842 8.29741C21.3971 8.13376 18.8087 9.07824 17.1416 9.9275L16.4428 8.55535Z" fill="black"/>
<path d="M44.8086 13.5055C46.7838 17.2913 46.5416 20.521 45.313 22.982C44.1061 25.3993 41.9817 27.0086 40.2703 27.686L38.1576 28.5223L39.3268 26.5738C41.5178 22.922 40.7603 19.6567 40.2442 18.7277L41.5903 17.9797C42.2199 19.113 42.8313 21.8379 41.7452 25.0157C42.5812 24.3254 43.3774 23.411 43.935 22.2942C44.9313 20.2986 45.2024 17.5901 43.443 14.2179L44.8086 13.5055ZM31.7584 10.8357C32.2838 10.7952 33.1632 10.8768 33.9607 11.1119C34.3638 11.2307 34.7874 11.4006 35.1479 11.6436C35.5055 11.8846 35.8645 12.242 36.0102 12.7518L34.5292 13.1749C34.5193 13.14 34.4743 13.0469 34.2871 12.9207C34.1029 12.7965 33.8409 12.6824 33.5253 12.5893C32.8854 12.4007 32.1941 12.3469 31.8767 12.3713L31.7584 10.8357ZM30.875 6.18302C36.1756 5.02357 39.5744 7.58644 40.5197 8.92557L39.2613 9.81394C38.6505 8.94861 35.8622 6.66852 31.2039 7.68753L30.875 6.18302Z" fill="black"/>
<path d="M221.276 25.8182C222.636 26.9844 226.208 28.5903 229.697 25.7987L230.032 25.5315L230.449 25.6243C232.643 26.1116 237.156 28.4519 237.738 33.9862L237.8 34.5704L237.288 34.8583C233.584 36.9415 223.796 39.7902 213.709 34.883L213.082 34.578L213.226 33.8957C214.365 28.4817 218.46 26.1341 220.477 25.6298L220.925 25.5178L221.276 25.8182ZM230.45 27.4715C226.448 30.3947 222.402 28.8654 220.509 27.486C218.955 28.0355 216.193 29.8163 215.141 33.5814C223.877 37.5318 232.269 35.3768 235.878 33.5822C235.214 29.8064 232.223 28.0094 230.45 27.4715Z" fill="black"/>
<path d="M207.333 24.4262C210.616 26.537 214.443 25.3169 215.952 24.4116L216.871 25.9436C215.143 26.9802 210.779 28.4611 206.787 26.1832C206.083 26.5259 205.151 27.1231 204.332 27.9618C203.457 28.856 202.747 29.9843 202.524 31.3378C203.995 32.2559 207.321 33.6413 211.367 33.1917L211.564 34.9677C206.557 35.5241 202.51 33.59 201.038 32.4865L200.648 32.1943L200.683 31.708C200.835 29.5921 201.874 27.9203 203.054 26.7128C204.228 25.5115 205.589 24.7199 206.518 24.3482L206.945 24.1772L207.333 24.4262Z" fill="black"/>
<path d="M244.285 24.4262C241.001 26.537 237.174 25.3169 235.666 24.4116L234.746 25.9436C236.474 26.9802 240.838 28.4611 244.831 26.1832C245.535 26.5259 246.466 27.1231 247.286 27.9618C248.16 28.856 248.87 29.9843 249.093 31.3378C247.622 32.2559 244.296 33.6413 240.25 33.1917L240.053 34.9677C245.061 35.5241 249.107 33.59 250.579 32.4865L250.969 32.1943L250.934 31.708C250.783 29.5921 249.744 27.9203 248.563 26.7128C247.389 25.5115 246.028 24.7199 245.099 24.3482L244.672 24.1772L244.285 24.4262Z" fill="black"/>
<path d="M225.805 12.9804C226.644 13.0017 227.443 13.1884 228.169 13.5085L226.886 14.8477L227.028 14.9835C226.592 14.8419 226.127 14.7651 225.644 14.7651C223.171 14.7651 221.166 16.77 221.166 19.243C221.166 21.7159 223.171 23.7206 225.644 23.7206C228.116 23.7205 230.121 21.7159 230.121 19.243C230.121 18.6073 229.988 18.0026 229.749 17.4548L231.057 16.0895C231.598 17.0157 231.908 18.0931 231.908 19.243L231.906 19.4047C231.82 22.7896 229.049 25.5072 225.644 25.5073L225.482 25.5053C222.15 25.421 219.465 22.736 219.381 19.4047L219.379 19.243C219.379 15.7832 222.184 12.9784 225.644 12.9784L225.805 12.9804Z" fill="black"/>
<path d="M211.801 13.6379C212.368 13.6379 212.913 13.7335 213.42 13.9093L211.965 15.4287C211.911 15.426 211.856 15.4247 211.801 15.4247C210.056 15.4247 208.642 16.8389 208.642 18.5834C208.642 20.3279 210.056 21.7424 211.801 21.7425C213.546 21.7425 214.96 20.328 214.96 18.5834C214.96 18.371 214.939 18.1635 214.899 17.9629L216.291 16.5088C216.583 17.1397 216.747 17.8425 216.747 18.5834L216.745 18.7111C216.677 21.3835 214.49 23.5292 211.801 23.5292L211.674 23.5275C209.001 23.4598 206.856 21.2721 206.855 18.5834C206.856 15.8521 209.07 13.638 211.801 13.6379Z" fill="black"/>
<path d="M239.492 13.6379C240.462 13.6379 241.367 13.9173 242.131 14.3999L240.854 15.7326C240.442 15.5354 239.98 15.4247 239.492 15.4247C237.748 15.4247 236.334 16.8389 236.334 18.5834C236.334 20.3279 237.748 21.7424 239.492 21.7425C241.048 21.7425 242.341 20.6168 242.602 19.1357L242.786 19.3122L244.354 17.6747C244.409 17.9692 244.438 18.273 244.438 18.5834L244.436 18.7111C244.369 21.3835 242.181 23.5292 239.492 23.5292L239.365 23.5275C236.693 23.4598 234.547 21.2721 234.547 18.5834C234.547 15.8521 236.761 13.638 239.492 13.6379Z" fill="black"/>
<path d="M134.36 67.7259C135.368 67.9631 136.859 68.5405 138.119 69.5306C139.388 70.5275 140.504 72.0158 140.504 74.0455V74.468L140.171 74.7286C137.463 76.8478 130.087 79.6331 121.497 74.8015L120.91 74.4714L121.085 73.821C122.16 69.8065 125.58 68.0923 127.206 67.7242L127.619 67.6307L127.947 67.8987C129.167 68.8972 130.344 69.08 131.319 68.943C132.328 68.801 133.155 68.3086 133.581 67.9255L133.918 67.6219L134.36 67.7259ZM127.214 69.5219C125.98 69.9291 123.894 71.1556 122.968 73.6239C130.211 77.3959 136.29 75.2998 138.743 73.6233C138.61 72.5026 137.949 71.6039 137.047 70.8949C136.18 70.2137 135.152 69.7613 134.361 69.5224C133.69 70.0146 132.714 70.4992 131.561 70.6613C130.238 70.8473 128.712 70.6038 127.214 69.5219Z" fill="black"/>
<path d="M119.868 95.424C120.876 95.6612 122.367 96.2386 123.627 97.2288C124.896 98.2256 126.012 99.7139 126.012 101.744V102.166L125.679 102.427C122.971 104.546 115.595 107.331 107.005 102.5L106.418 102.169L106.592 101.519C107.668 97.5047 111.088 95.7905 112.714 95.4223L113.127 95.3288L113.455 95.5968C114.675 96.5953 115.852 96.7782 116.827 96.6411C117.836 96.4991 118.663 96.0067 119.089 95.6236L119.426 95.3201L119.868 95.424ZM112.722 97.22C111.488 97.6272 109.402 98.8537 108.475 101.322C115.718 105.094 121.798 102.998 124.251 101.321C124.118 100.201 123.457 99.3021 122.555 98.593C121.688 97.9118 120.659 97.4595 119.869 97.2206C119.198 97.7127 118.221 98.1973 117.068 98.3594C115.746 98.5454 114.22 98.3019 112.722 97.22Z" fill="black"/>
<path d="M148.856 95.424C149.864 95.6612 151.356 96.2386 152.615 97.2288C153.884 98.2256 155 99.7139 155 101.744V102.166L154.667 102.427C151.959 104.546 144.583 107.331 135.993 102.5L135.406 102.169L135.581 101.519C136.656 97.5047 140.076 95.7905 141.702 95.4223L142.115 95.3288L142.443 95.5968C143.664 96.5953 144.84 96.7782 145.815 96.6411C146.824 96.4991 147.651 96.0067 148.077 95.6236L148.414 95.3201L148.856 95.424ZM141.71 97.22C140.476 97.6272 138.39 98.8537 137.464 101.322C144.707 105.094 150.786 102.998 153.24 101.321C153.106 100.201 152.445 99.3021 151.543 98.593C150.676 97.9118 149.648 97.4595 148.857 97.2206C148.187 97.7127 147.21 98.1973 146.057 98.3594C144.734 98.5454 143.208 98.3019 141.71 97.22Z" fill="black"/>
<path d="M133.393 62.4511C133.393 61.0969 132.295 59.9991 130.941 59.9991C129.587 59.9991 128.489 61.0969 128.489 62.4511C128.489 63.8052 129.587 64.9028 130.941 64.9028V66.6378L130.833 66.6364C128.606 66.58 126.812 64.7855 126.755 62.5589L126.754 62.4511C126.754 60.1387 128.629 58.264 130.941 58.264L131.049 58.2655C133.311 58.3227 135.128 60.1748 135.128 62.4511L135.126 62.5589C135.069 64.8214 133.217 66.6377 130.941 66.6378V64.9028C132.295 64.9027 133.393 63.8051 133.393 62.4511Z" fill="black"/>
<path d="M118.897 90.1491C118.897 88.7949 117.799 87.6971 116.445 87.697C115.091 87.697 113.993 88.7949 113.993 90.1491C113.993 91.5032 115.091 92.6008 116.445 92.6008V94.3358L116.337 94.3344C114.11 94.278 112.316 92.4835 112.259 90.2569L112.258 90.1491C112.258 87.8367 114.132 85.962 116.445 85.962L116.553 85.9634C118.815 86.0207 120.632 87.8728 120.632 90.1491L120.63 90.2569C120.573 92.5194 118.721 94.3357 116.445 94.3358V92.6008C117.799 92.6007 118.897 91.5031 118.897 90.1491Z" fill="black"/>
<path d="M147.889 90.1491C147.889 88.7949 146.791 87.6971 145.437 87.697C144.083 87.697 142.985 88.7949 142.985 90.1491C142.985 91.5032 144.083 92.6008 145.437 92.6008V94.3358L145.329 94.3344C143.102 94.278 141.308 92.4835 141.251 90.2569L141.25 90.1491C141.25 87.8367 143.125 85.962 145.437 85.962L145.545 85.9634C147.807 86.0207 149.624 87.8728 149.624 90.1491L149.622 90.2569C149.565 92.5194 147.713 94.3357 145.437 94.3358V92.6008C146.791 92.6007 147.889 91.5031 147.889 90.1491Z" fill="black"/>
<path d="M123.638 78.6661L121.061 83.1287L119.559 82.2612L122.135 77.7986L123.638 78.6661Z" fill="black"/>
<path d="M138.237 78.6661L140.814 83.1287L142.316 82.2612L139.74 77.7986L138.237 78.6661Z" fill="black"/>
<path d="M122.562 94.8583L138.987 94.8582L138.987 93.1236L122.562 93.1232L122.562 94.8583Z" fill="black"/>
<path d="M35.4689 77.4996C35.4689 75.0335 33.4697 73.0341 31.0036 73.034C28.5373 73.034 26.5379 75.0334 26.5379 77.4996C26.538 79.9658 28.5374 81.965 31.0036 81.965V83.7842L30.8413 83.7821C27.4992 83.6975 24.8054 81.0037 24.7208 77.6616L24.7188 77.4996C24.7188 74.0287 27.5326 71.2148 31.0036 71.2148L31.1655 71.2169C34.5615 71.3029 37.2881 74.0829 37.2881 77.4996L37.286 77.6616C37.2 81.0576 34.4202 83.7841 31.0036 83.7842V81.965C33.4697 81.9649 35.4688 79.9658 35.4689 77.4996Z" fill="black"/>
<path d="M20.6795 77.4994C20.6794 75.8499 19.342 74.5128 17.6925 74.5128C16.0431 74.5128 14.7059 75.85 14.7059 77.4994C14.7059 79.1489 16.0431 80.4863 17.6925 80.4864V82.3056L17.5685 82.3038C14.9716 82.2379 12.8867 80.1122 12.8867 77.4994C12.8868 74.8453 15.0384 72.6937 17.6925 72.6936C20.3467 72.6936 22.4986 74.8452 22.4987 77.4994L22.4969 77.6235C22.4311 80.2204 20.3053 82.3056 17.6925 82.3056V80.4864C19.3421 80.4864 20.6795 79.149 20.6795 77.4994Z" fill="black"/>
<path d="M47.2967 77.4994C47.2966 75.8499 45.9592 74.5128 44.3097 74.5128C42.6603 74.5128 41.3231 75.85 41.3231 77.4994C41.3231 79.1489 42.6602 80.4863 44.3097 80.4864V82.3056L44.1857 82.3038C41.5888 82.2379 39.5039 80.1122 39.5039 77.4994C39.504 74.8453 41.6556 72.6937 44.3097 72.6936C46.9639 72.6936 49.1158 74.8452 49.1159 77.4994L49.1141 77.6235C49.0483 80.2204 46.9225 82.3056 44.3097 82.3056V80.4864C45.9593 80.4864 47.2967 79.149 47.2967 77.4994Z" fill="black"/>
<path d="M30.3283 85.1463C32.9489 84.8124 35.6671 85.5771 37.9115 87.6504C40.1451 89.7136 41.8545 93.0176 42.6166 97.6857L42.709 98.2527L42.2368 98.5799C38.9442 100.861 30.1824 103.961 20.9314 98.6199L20.4766 98.3576V97.8323C20.4766 90.7766 25.1068 85.8119 30.3283 85.1463ZM36.6771 88.9869C34.8319 87.2824 32.6514 86.684 30.5584 86.9507C26.4723 87.4715 22.5265 91.35 22.3058 97.3053C30.19 101.606 37.5708 99.3094 40.7187 97.3965C39.9621 93.3327 38.4497 90.6244 36.6771 88.9869Z" fill="black"/>
<path d="M18.0609 85.9731C16.7497 85.9731 15.0337 86.3676 13.6163 87.6883C12.2783 88.9352 11.0979 91.1095 10.8654 94.867C11.8908 95.3291 13.8871 95.9839 16.2127 95.9839V97.8031C13.0787 97.8031 10.46 96.7663 9.4767 96.2045L9 95.9321L9.01895 95.3834C9.17278 90.9224 10.5284 88.0793 12.3763 86.3574C14.2121 84.6468 16.4147 84.154 18.0609 84.1539V85.9731Z" fill="black"/>
<path d="M43.8263 85.966C45.2373 86.1424 46.9733 86.5529 48.394 87.8364C49.725 89.0388 50.9024 91.1225 51.1346 94.8673C50.1092 95.3294 48.1128 95.9839 45.7873 95.9839V97.803C48.9213 97.803 51.54 96.7663 52.5233 96.2044L53 95.932L52.9811 95.3834C52.8271 90.9181 51.4685 88.1625 49.6133 86.4865C47.7809 84.8311 45.5983 84.3543 44.0519 84.161L43.8263 85.966Z" fill="black"/>
<path d="M228.327 66.0395C228.327 64.5543 227.123 63.3503 225.638 63.3503C224.153 63.3503 222.949 64.5543 222.949 66.0395C222.949 67.5247 224.153 68.7288 225.638 68.7288V70.6152L225.52 70.6137C223.087 70.552 221.126 68.5907 221.064 66.1574L221.062 66.0395C221.062 63.5125 223.111 61.4639 225.638 61.4639L225.756 61.4654C228.229 61.528 230.214 63.5519 230.214 66.0395L230.212 66.1574C230.15 68.6299 228.126 70.6152 225.638 70.6152V68.7288C227.123 68.7288 228.327 67.5247 228.327 66.0395Z" fill="black"/>
<path d="M210.026 64.9835C210.026 63.6927 208.979 62.6464 207.688 62.6464C206.398 62.6465 205.351 63.6928 205.351 64.9835C205.351 66.2743 206.398 67.3208 207.688 67.3209V69.2073L207.579 69.2057C205.297 69.1479 203.465 67.2796 203.465 64.9835C203.465 62.651 205.356 60.7601 207.688 60.76C210.021 60.76 211.912 62.6509 211.912 64.9835L211.911 65.0925C211.853 67.3748 209.985 69.2073 207.688 69.2073V67.3209C208.979 67.3209 210.026 66.2743 210.026 64.9835Z" fill="black"/>
<path d="M245.221 64.9835C245.221 63.6927 244.174 62.6464 242.884 62.6464C241.593 62.6465 240.547 63.6928 240.547 64.9835C240.547 66.2743 241.593 67.3208 242.884 67.3209V69.2073L242.775 69.2057C240.492 69.1479 238.66 67.2796 238.66 64.9835C238.66 62.651 240.551 60.7601 242.884 60.76C245.216 60.76 247.107 62.6509 247.107 64.9835L247.106 65.0925C247.048 67.3748 245.18 69.2073 242.884 69.2073V67.3209C244.174 67.3209 245.221 66.2743 245.221 64.9835Z" fill="black"/>
<path d="M231.736 74.8388C231.736 73.4754 231.296 72.9755 230.98 72.7719C230.676 72.576 230.287 72.5245 229.951 72.5554C228.22 74.1552 226.275 74.5021 224.561 74.2496C223.003 74.0202 221.643 73.3018 220.752 72.6282C220.368 72.6606 219.946 72.7583 219.607 72.9838C219.242 73.2274 218.84 73.7057 218.84 74.8388V87.3168L222.007 89.1461V99.2038C222.074 99.2247 222.148 99.247 222.231 99.2692C222.8 99.421 223.773 99.5894 225.288 99.5894C226.802 99.5894 227.775 99.421 228.344 99.2692C228.427 99.2471 228.502 99.225 228.568 99.2041V89.1461L231.736 87.3168V74.8388ZM233.622 88.4062L230.454 90.2352V100.333L230.034 100.613L229.511 99.8286C230.032 100.61 230.034 100.614 230.034 100.614C230.033 100.614 230.033 100.615 230.032 100.615C230.032 100.615 230.031 100.616 230.03 100.616C230.029 100.617 230.027 100.618 230.025 100.62C230.022 100.622 230.018 100.624 230.014 100.627C230.006 100.632 229.997 100.637 229.987 100.643C229.967 100.655 229.943 100.67 229.914 100.686C229.855 100.718 229.778 100.757 229.68 100.801C229.484 100.888 229.206 100.992 228.83 101.092C228.08 101.292 226.941 101.476 225.288 101.476C223.635 101.476 222.496 101.292 221.745 101.092C221.369 100.992 221.091 100.888 220.895 100.801C220.797 100.757 220.72 100.718 220.662 100.686C220.632 100.67 220.608 100.655 220.588 100.643C220.578 100.637 220.569 100.632 220.561 100.627C220.557 100.624 220.554 100.622 220.55 100.62L220.543 100.615C220.543 100.615 220.542 100.614 220.542 100.614C220.541 100.614 220.541 100.613 221.064 99.8286L220.541 100.613L220.121 100.333V90.2352L216.953 88.4062V74.8388C216.953 73.1562 217.607 72.0505 218.561 71.4142C219.448 70.823 220.461 70.728 221.064 70.728H221.41L221.673 70.9512C222.332 71.5083 223.511 72.1885 224.836 72.3835C226.114 72.5717 227.533 72.3154 228.844 71.0043L229.038 70.81L229.307 70.7504C229.986 70.5996 231.061 70.5796 232.002 71.1864C233.006 71.8334 233.622 73.0347 233.622 74.8388V88.4062Z" fill="black"/>
<path d="M213.083 73.4489C213.083 72.2819 212.709 71.8874 212.474 71.7366C212.247 71.5897 211.951 71.5438 211.685 71.5619C210.147 72.9664 208.42 73.2726 206.897 73.0485C205.53 72.8472 204.335 72.2242 203.542 71.6322C203.231 71.6632 202.902 71.7465 202.64 71.9211C202.356 72.1102 202.019 72.4903 202.019 73.4489V84.3122L204.794 85.9149V94.7061C204.828 94.7161 204.865 94.7271 204.903 94.7374C205.391 94.8674 206.233 95.014 207.551 95.014C208.869 95.014 209.711 94.8674 210.198 94.7374C210.237 94.7271 210.273 94.7161 210.308 94.7061V85.9149L213.083 84.3122V73.4489ZM214.969 85.4019L212.194 87.0039V95.8452L211.774 96.1252L211.251 95.3404L211.773 96.1258C211.773 96.1259 211.772 96.1265 211.772 96.1267C211.771 96.1272 211.771 96.1278 211.77 96.1283C211.768 96.1293 211.767 96.1302 211.765 96.1313C211.762 96.1335 211.758 96.1357 211.754 96.1381C211.747 96.1429 211.738 96.1483 211.729 96.154C211.71 96.1656 211.687 96.1788 211.66 96.1936C211.605 96.2234 211.535 96.2592 211.446 96.2987C211.269 96.3776 211.019 96.471 210.685 96.5602C210.016 96.7386 209.008 96.9004 207.551 96.9004C206.094 96.9004 205.086 96.7386 204.417 96.5602C204.083 96.471 203.833 96.3776 203.656 96.2987C203.567 96.2592 203.496 96.2234 203.442 96.1936C203.415 96.1788 203.392 96.1656 203.373 96.154C203.364 96.1483 203.355 96.1429 203.348 96.1381C203.344 96.1357 203.34 96.1335 203.337 96.1313C203.335 96.1303 203.334 96.1292 203.332 96.1283C203.332 96.1277 203.331 96.1272 203.33 96.1267C203.33 96.1265 203.329 96.1259 203.329 96.1258C203.33 96.1233 203.356 96.0824 203.851 95.3404L203.328 96.1252L202.908 95.8452V87.0039L200.133 85.4019V73.4489C200.133 71.9408 200.721 70.9333 201.593 70.3516C202.398 69.8148 203.313 69.7307 203.851 69.7307H204.196L204.46 69.9539C205.024 70.431 206.038 71.015 207.172 71.1821C208.26 71.3422 209.465 71.1262 210.584 70.0071L210.778 69.8127L211.047 69.7531C211.66 69.6168 212.637 69.5967 213.496 70.1508C214.418 70.745 214.969 71.841 214.969 73.4489V85.4019Z" fill="black"/>
<path d="M248.555 73.4489C248.555 72.2819 248.181 71.8874 247.947 71.7366C247.719 71.5897 247.424 71.5438 247.158 71.5619C245.62 72.9664 243.892 73.2726 242.37 73.0485C241.003 72.8472 239.808 72.2242 239.015 71.6322C238.704 71.6632 238.374 71.7465 238.112 71.9211C237.829 72.1102 237.492 72.4903 237.492 73.4489V84.3122L240.267 85.9149V94.7061C240.301 94.7161 240.337 94.7271 240.376 94.7374C240.864 94.8674 241.705 95.014 243.024 95.014C244.342 95.014 245.184 94.8674 245.671 94.7374C245.71 94.7271 245.746 94.7161 245.78 94.7061V85.9149L248.555 84.3122V73.4489ZM250.442 85.4019L247.667 87.0039V95.8452L247.247 96.1252L246.724 95.3404L247.246 96.1258C247.246 96.1259 247.245 96.1265 247.245 96.1267C247.244 96.1272 247.243 96.1278 247.243 96.1283C247.241 96.1293 247.239 96.1302 247.238 96.1313C247.234 96.1335 247.231 96.1357 247.227 96.1381C247.219 96.1429 247.211 96.1483 247.201 96.154C247.182 96.1656 247.159 96.1788 247.132 96.1936C247.078 96.2234 247.008 96.2592 246.919 96.2987C246.741 96.3776 246.492 96.471 246.157 96.5602C245.488 96.7386 244.48 96.9004 243.024 96.9004C241.567 96.9004 240.559 96.7386 239.89 96.5602C239.556 96.471 239.306 96.3776 239.128 96.2987C239.04 96.2592 238.969 96.2234 238.915 96.1936C238.888 96.1788 238.865 96.1656 238.846 96.154C238.836 96.1483 238.828 96.1429 238.82 96.1381C238.817 96.1357 238.813 96.1335 238.81 96.1313C238.808 96.1303 238.807 96.1292 238.805 96.1283C238.804 96.1277 238.803 96.1272 238.803 96.1267C238.802 96.1265 238.802 96.1259 238.802 96.1258C238.803 96.1233 238.829 96.0824 239.324 95.3404L238.8 96.1252L238.38 95.8452V87.0039L235.605 85.4019V73.4489C235.605 71.9408 236.193 70.9333 237.066 70.3516C237.871 69.8148 238.786 69.7307 239.324 69.7307H239.669L239.933 69.9539C240.497 70.431 241.51 71.015 242.644 71.1821C243.732 71.3422 244.938 71.1262 246.057 70.0071L246.251 69.8127L246.519 69.7531C247.133 69.6168 248.109 69.5967 248.969 70.1508C249.891 70.745 250.442 71.841 250.442 73.4489V85.4019Z" fill="black"/>
<path d="M218.33 98.9443C217.757 99.8042 217.488 101.13 218.219 102.201C218.966 103.296 221.01 104.517 225.993 104.517C227.995 104.517 230.611 104.166 232.258 103.232C233.064 102.775 233.522 102.246 233.675 101.659C233.826 101.076 233.736 100.203 232.935 98.9207L234.535 97.921C235.494 99.4548 235.829 100.869 235.501 102.134C235.173 103.395 234.245 104.274 233.189 104.873C231.112 106.051 228.097 106.403 225.993 106.403C220.839 106.403 217.955 105.161 216.661 103.264C215.35 101.343 215.926 99.1492 216.761 97.8973L218.33 98.9443Z" fill="black"/>
<path d="M201.321 93.6648C200.868 94.3433 200.672 95.3667 201.227 96.1806C201.8 97.019 203.42 98.0283 207.533 98.0283C209.182 98.0283 211.315 97.7376 212.642 96.985C213.288 96.6187 213.627 96.2107 213.738 95.7827C213.848 95.3583 213.795 94.6811 213.145 93.6411L214.745 92.6414C215.552 93.9334 215.851 95.151 215.564 96.257C215.277 97.3594 214.469 98.1178 213.572 98.6261C211.815 99.6225 209.284 99.9147 207.533 99.9147C203.25 99.9147 200.788 98.8835 199.669 97.2441C198.534 95.5802 199.037 93.6883 199.752 92.6178L201.321 93.6648Z" fill="black"/>
<path d="M236.516 93.6648C236.063 94.3433 235.867 95.3667 236.423 96.1806C236.995 97.019 238.615 98.0283 242.728 98.0283C244.377 98.0283 246.51 97.7376 247.837 96.985C248.483 96.6187 248.822 96.2107 248.934 95.7827C249.044 95.3583 248.99 94.6811 248.34 93.6411L249.94 92.6414C250.747 93.9334 251.047 95.151 250.759 96.257C250.473 97.3594 249.664 98.1178 248.768 98.6261C247.01 99.6225 244.479 99.9147 242.728 99.9147C238.445 99.9147 235.983 98.8835 234.865 97.2441C233.729 95.5802 234.233 93.6883 234.947 92.6178L236.516 93.6648Z" fill="black"/>
<path d="M32.7615 121.89C32.7615 121.161 32.17 120.569 31.4404 120.569C30.7108 120.569 30.1193 121.161 30.1193 121.89C30.1193 122.62 30.7108 123.211 31.4404 123.211V124.764L31.2925 124.76C29.823 124.686 28.6447 123.508 28.5702 122.038L28.5664 121.89C28.5664 120.303 29.8532 119.016 31.4404 119.016L31.5883 119.02C33.1067 119.097 34.3144 120.352 34.3144 121.89L34.3106 122.038C34.2336 123.556 32.978 124.764 31.4404 124.764V123.211C32.17 123.211 32.7615 122.62 32.7615 121.89Z" fill="black"/>
<path d="M16.8435 150.629C16.8435 149.9 16.252 149.308 15.5224 149.308C14.7928 149.308 14.2013 149.9 14.2013 150.629C14.2014 151.359 14.7929 151.951 15.5224 151.951V153.503L15.3746 153.5C13.905 153.425 12.7267 152.247 12.6522 150.777L12.6484 150.629C12.6484 149.042 13.9352 147.755 15.5224 147.755L15.6703 147.759C17.1888 147.836 18.3964 149.092 18.3964 150.629L18.3926 150.777C18.3157 152.296 17.06 153.503 15.5224 153.503V151.951C16.252 151.951 16.8435 151.359 16.8435 150.629Z" fill="black"/>
<path d="M47.3553 150.629C47.3553 149.9 46.7637 149.308 46.0342 149.308C45.3046 149.308 44.713 149.9 44.713 150.629C44.7131 151.359 45.3046 151.951 46.0342 151.951V153.503L45.8863 153.5C44.4167 153.425 43.2385 152.247 43.1639 150.777L43.1602 150.629C43.1602 149.042 44.4469 147.755 46.0342 147.755L46.182 147.759C47.7005 147.836 48.9081 149.092 48.9081 150.629L48.9044 150.777C48.8274 152.296 47.5717 153.503 46.0342 153.503V151.951C46.7637 151.951 47.3552 151.359 47.3553 150.629Z" fill="black"/>
<path d="M20.7169 157.704C20.7169 157.285 20.5986 156.927 20.3941 156.688C20.2073 156.469 19.8827 156.269 19.2825 156.269H11.9872C11.3246 156.269 11.0116 156.503 10.8398 156.733C10.6397 156.999 10.5529 157.37 10.5529 157.704V161.241H9V157.704C9 157.153 9.13437 156.418 9.5975 155.801C10.0888 155.146 10.8813 154.716 11.9872 154.716H19.2825C20.274 154.716 21.0548 155.07 21.5755 155.68C22.0784 156.269 22.2698 157.017 22.2698 157.704V161.241H20.7169V157.704Z" fill="black"/>
<path d="M51.4474 157.704C51.4474 157.285 51.3291 156.927 51.1246 156.688C50.9378 156.469 50.6132 156.269 50.013 156.269H42.7177C42.0551 156.269 41.7421 156.503 41.5702 156.733C41.3702 156.999 41.2834 157.37 41.2834 157.704V161.241H39.7305V157.704C39.7305 157.153 39.8648 156.418 40.328 155.801C40.8193 155.146 41.6117 154.716 42.7177 154.716H50.013C51.0044 154.716 51.7853 155.07 52.3059 155.68C52.8089 156.269 53.0002 157.017 53.0002 157.704V161.241H51.4474V157.704Z" fill="black"/>
<path d="M36.4161 128.743C36.4161 128.324 36.2978 127.967 36.0933 127.727C35.9065 127.508 35.582 127.309 34.9818 127.309H27.6864C27.0239 127.309 26.7108 127.543 26.539 127.772C26.3389 128.039 26.2521 128.409 26.2521 128.743V132.28H24.6992V128.743C24.6992 128.193 24.8336 127.458 25.2967 126.84C25.7881 126.185 26.5805 125.756 27.6864 125.756H34.9818C35.9732 125.756 36.7541 126.109 37.2747 126.719C37.7777 127.309 37.969 128.057 37.969 128.743V132.28H36.4161V128.743Z" fill="black"/>
<path d="M23.9823 128.584C20.132 130.054 12.8348 135.613 14.5237 146.084L12.9905 146.332C11.1423 134.872 19.1728 128.758 23.4285 127.134L23.9823 128.584Z" fill="black"/>
<path d="M38.463 128.584C42.1888 130.007 49.142 135.258 48.0576 145.084C47.5223 144.776 46.9344 144.308 46.4476 143.655C45.693 142.644 45.1534 141.153 45.4763 139.029L43.9411 138.796C43.5567 141.324 44.1961 143.234 45.2028 144.584C46.1917 145.91 47.5085 146.661 48.462 146.951L49.313 147.21L49.4548 146.332C51.303 134.872 43.2725 128.758 39.0168 127.134L38.463 128.584Z" fill="black"/>
<path d="M24.0466 159.658C25.331 160.283 27.6046 161.051 30.1686 161.274C32.7321 161.497 35.5129 161.171 37.8881 159.697L38.7072 161.016C35.9535 162.725 32.802 163.062 30.0339 162.821C27.2666 162.58 24.8093 161.756 23.3672 161.055L24.0466 159.658Z" fill="black"/>
<path d="M29.4729 132.609L29.8288 133.938C32.5536 133.962 34.3952 134.149 35.5388 134.436C36.1299 134.584 36.6498 134.785 36.9886 135.096C37.1712 135.263 37.3443 135.502 37.3925 135.816C37.4418 136.138 37.3421 136.42 37.2052 136.629C36.9605 137.004 36.5319 137.255 36.1457 137.428C35.7266 137.616 35.2133 137.774 34.6507 137.896C33.6294 138.117 32.3803 138.232 31.1087 138.165C30.3838 138.962 29.7161 139.489 29.0854 139.747C28.3258 140.058 27.6058 139.98 27.0361 139.536C26.5301 139.142 26.2439 138.535 26.0767 137.991C25.992 137.715 25.9299 137.428 25.8859 137.145C22.8241 137.679 21.3059 139.084 20.583 140.554C19.8866 141.97 19.8704 143.565 20.1124 144.768H27.4261L29.6534 147.953V154.912C30.5396 155.121 31.725 155.164 32.8529 154.734C34.1531 154.239 35.4851 153.075 36.1935 150.523V146.928L36.7816 146.781C37.4356 146.618 38.4346 146.217 39.252 145.571C40.0644 144.929 40.615 144.118 40.615 143.113H42.1679C42.1679 144.761 41.2444 145.976 40.2147 146.789C39.414 147.422 38.4991 147.855 37.7463 148.112V150.732L37.7201 150.83C36.905 153.872 35.2408 155.486 33.4062 156.185C31.62 156.866 29.7806 156.64 28.6161 156.224L28.1005 156.04V148.442L26.6171 146.321H18.9257L18.7607 145.766C18.3167 144.273 18.1607 141.961 19.1893 139.869C20.2459 137.72 22.4757 135.955 26.4895 135.488L27.3228 135.392L27.3551 136.23C27.3717 136.66 27.4373 137.131 27.5614 137.535C27.6913 137.958 27.8538 138.204 27.9908 138.311C28.0642 138.368 28.1816 138.439 28.4965 138.31C28.8656 138.159 29.4249 137.753 30.1904 136.86L30.4487 136.558L30.8446 136.591C32.0921 136.695 33.3414 136.59 34.3221 136.378C34.7902 136.277 35.1789 136.154 35.4683 136.029C35.3809 136.001 35.2791 135.972 35.161 135.942C34.1271 135.683 32.2569 135.489 29.2325 135.489H28.6365L28.2812 134.162H26.1374V132.609H29.4729Z" fill="black"/>
<path d="M116.317 126.546C116.317 125.085 115.132 123.9 113.671 123.9C112.21 123.9 111.026 125.085 111.026 126.546C111.026 128.007 112.21 129.191 113.671 129.191V130.951L113.558 130.95C111.215 130.891 109.326 129.002 109.267 126.66L109.266 126.546C109.266 124.113 111.238 122.14 113.671 122.14L113.785 122.141C116.166 122.202 118.077 124.151 118.077 126.546L118.075 126.66C118.015 129.04 116.067 130.951 113.671 130.951V129.191C115.132 129.191 116.317 128.007 116.317 126.546Z" fill="black"/>
<path d="M147.949 162.09C147.949 163.551 149.133 164.735 150.594 164.735C152.055 164.735 153.24 163.551 153.24 162.09C153.24 160.629 152.055 159.444 150.594 159.444L150.594 157.684L150.708 157.686C153.051 157.745 154.939 159.633 154.999 161.976L155 162.09C155 164.523 153.027 166.495 150.594 166.495L150.48 166.494C148.1 166.434 146.189 164.485 146.189 162.09L146.19 161.976C146.251 159.595 148.199 157.684 150.594 157.684L150.594 159.444C149.133 159.444 147.949 160.629 147.949 162.09Z" fill="black"/>
<path d="M150.008 128.311C151.469 128.311 152.654 127.127 152.654 125.666C152.654 124.205 151.469 123.02 150.008 123.02C148.547 123.02 147.363 124.205 147.363 125.666L145.603 125.666L145.604 125.552C145.664 123.209 147.552 121.321 149.895 121.261L150.008 121.26C152.441 121.26 154.414 123.232 154.414 125.666L154.413 125.779C154.352 128.16 152.403 130.071 150.008 130.071L149.895 130.07C147.514 130.009 145.603 128.061 145.603 125.666L147.363 125.666C147.363 127.127 148.547 128.311 150.008 128.311Z" fill="black"/>
<path d="M115.551 162.383C115.551 163.844 114.367 165.028 112.906 165.028C111.445 165.028 110.26 163.844 110.26 162.383C110.26 160.922 111.445 159.738 112.906 159.738L112.906 157.977L112.792 157.979C110.449 158.038 108.561 159.926 108.501 162.269L108.5 162.383C108.5 164.816 110.473 166.789 112.906 166.789L113.02 166.787C115.4 166.727 117.311 164.778 117.311 162.383L117.31 162.269C117.249 159.889 115.301 157.977 112.906 157.977L112.906 159.738C114.367 159.738 115.551 160.922 115.551 162.383Z" fill="black"/>
<path d="M129.154 130.281L128.014 131.622L122.509 126.943C121.639 132.36 117.994 135.49 114.543 136.339L119.039 140.835L117.795 142.079L110.531 134.816H112.656C115.895 134.816 120.61 131.815 120.927 125.148L121.012 123.36L129.154 130.281Z" fill="black"/>
<path d="M135.111 158.354L136.251 157.013L141.756 161.692C142.627 156.275 146.271 153.146 149.723 152.297L145.226 147.8L146.471 146.556L153.734 153.819L151.61 153.819C148.371 153.819 143.656 156.82 143.338 163.487L143.253 165.275L135.111 158.354Z" fill="black"/>
<path d="M146.271 141.147L144.93 140.007L149.609 134.502C144.191 133.632 141.062 129.987 140.213 126.536L135.717 131.032L134.472 129.788L141.736 122.524L141.736 124.649C141.736 127.888 144.737 132.603 151.403 132.92L153.191 133.005L146.271 141.147Z" fill="black"/>
<path d="M128.389 158.648L127.249 157.307L121.744 161.986C120.873 156.568 117.229 153.439 113.777 152.59L118.274 148.094L117.029 146.849L109.766 154.113L111.89 154.113C115.129 154.113 119.844 157.114 120.162 163.78L120.247 165.568L128.389 158.648Z" fill="black"/>
<path d="M211.857 131.7C211.857 130.589 210.956 129.688 209.845 129.688C208.734 129.688 207.833 130.589 207.833 131.7C207.833 132.812 208.734 133.713 209.845 133.713V136.401L209.724 136.399C207.224 136.336 205.21 134.321 205.146 131.822L205.145 131.7C205.145 129.105 207.249 127 209.845 127L209.966 127.002C212.506 127.066 214.546 129.145 214.546 131.7L214.544 131.822C214.479 134.362 212.4 136.401 209.845 136.401V133.713C210.956 133.713 211.857 132.812 211.857 131.7Z" fill="black"/>
<path d="M236.299 131.7C236.299 130.589 235.398 129.688 234.286 129.688C233.175 129.688 232.274 130.589 232.274 131.7C232.274 132.812 233.175 133.713 234.286 133.713V136.401L234.165 136.399C231.665 136.336 229.651 134.321 229.588 131.822L229.586 131.7C229.586 129.105 231.69 127 234.286 127L234.408 127.002C236.948 127.066 238.987 129.145 238.987 131.7L238.985 131.822C238.921 134.362 236.842 136.401 234.286 136.401V133.713C235.398 133.713 236.299 132.812 236.299 131.7Z" fill="black"/>
<path d="M217.305 145.846C224.317 137.68 233.828 134.881 240.57 137.638C243.983 139.035 246.576 141.833 247.624 145.864C248.661 149.855 248.162 154.941 245.685 160.977L243.198 159.957C245.535 154.261 245.867 149.791 245.022 146.541C244.188 143.331 242.183 141.203 239.552 140.127C234.21 137.942 225.851 140.006 219.328 147.617L219.311 147.636L219.293 147.655C214.578 152.748 206.759 160.446 203.179 163.386L201.473 161.309C204.909 158.486 212.618 150.906 217.305 145.846Z" fill="black"/>
<path d="M201.125 139.941C206.357 135.83 214.391 135.33 220.621 140.028L219.002 142.174C213.764 138.224 207.076 138.683 202.785 142.055C200.653 143.73 199.111 146.125 198.616 149.086C198.121 152.049 198.66 155.681 200.879 159.833L198.508 161.101C196.065 156.529 195.354 152.298 195.965 148.643C196.576 144.985 198.495 142.007 201.125 139.941Z" fill="black"/>
<path d="M227.815 147.717C228.82 150.062 233.487 156.778 241.846 160.957L240.644 163.361C231.705 158.892 226.595 151.694 225.344 148.775L227.815 147.717Z" fill="black"/>
</svg>
