<svg width="260" height="178" viewBox="0 0 260 178" fill="none" xmlns="http://www.w3.org/2000/svg">
<path d="M114.528 66.9381C114.957 68.0112 114.97 69.0194 114.52 69.8361C114.077 70.6406 113.292 71.0643 112.529 71.1914C111.773 71.3174 110.936 71.1732 110.263 70.7224C109.558 70.2498 109.07 69.4599 109.07 68.4407H111.055C111.055 68.7681 111.187 68.9528 111.368 69.0739C111.581 69.2166 111.896 69.285 112.203 69.2339C112.504 69.1838 112.693 69.0404 112.781 68.8792C112.864 68.7302 112.965 68.3739 112.685 67.6751L114.528 66.9381Z" fill="black"/>
<path d="M113.449 71.7712L114.745 72.1702L114.162 74.0673L112.779 73.6418L111.333 74.6435L110.203 73.0116L111.493 72.1187L111.219 70.932L113.152 70.4857L113.449 71.7712Z" fill="black"/>
<path d="M118.001 71.8429C118.001 70.0954 116.219 68.1572 113.323 68.1572C110.427 68.1572 108.645 70.0954 108.645 71.8429C108.645 73.5904 110.427 75.5286 113.323 75.5286V77.5132C109.643 77.5132 106.66 74.9745 106.66 71.8429C106.66 68.7113 109.643 66.1726 113.323 66.1726C117.002 66.1726 119.985 68.7113 119.985 71.8429C119.985 74.9745 117.002 77.5132 113.323 77.5132V75.5286C116.219 75.5286 118.001 73.5904 118.001 71.8429Z" fill="black"/>
<path d="M111.944 66.0193C113.376 64.0248 117.646 60.2935 123.218 61.8131C123.746 61.9573 124.058 62.5029 123.914 63.0316C123.77 63.5603 123.224 63.8721 122.696 63.7279C118.288 62.5258 114.77 65.4854 113.556 67.1766C113.236 67.6217 112.617 67.7235 112.171 67.4039C111.726 67.0843 111.625 66.4645 111.944 66.0193Z" fill="black"/>
<path d="M111.673 75.67C112.143 75.3881 112.753 75.5404 113.035 76.0103C113.116 76.1463 113.534 76.6901 114.143 77.3033C114.75 77.9152 115.429 78.4742 116.002 78.7386L116.903 79.1544L116.071 80.9563L115.17 80.5404C114.269 80.1244 113.388 79.3603 112.734 78.7012C112.081 78.0433 111.535 77.3679 111.333 77.0314C111.051 76.5615 111.203 75.952 111.673 75.67Z" fill="black"/>
<path d="M131.023 71.7899C131.298 73.1661 131.216 76.4257 128.519 78.4486L127.328 76.8611C129.167 75.4819 129.274 73.1656 129.077 72.1792L131.023 71.7899Z" fill="black"/>
<path d="M132.546 70.4627C132.798 70.2087 133.07 69.595 132.791 68.4174C132.52 67.2729 131.769 65.8954 130.515 64.6529C129.262 63.4103 127.878 62.6708 126.731 62.4092C125.551 62.1401 124.94 62.4178 124.688 62.6717C124.436 62.9257 124.164 63.5394 124.443 64.7171C124.715 65.8616 125.466 67.2392 126.719 68.4818L125.322 69.8911L125.185 69.7534C122.346 66.8479 121.487 63.0814 123.279 61.2744C125.099 59.4388 128.964 60.3205 131.913 63.2436L132.049 63.3812C134.889 66.2867 135.747 70.053 133.956 71.86C132.136 73.6957 128.27 72.8141 125.322 69.8911L126.719 68.4818C127.972 69.7243 129.356 70.4637 130.503 70.7252C131.683 70.9943 132.294 70.7167 132.546 70.4627Z" fill="black"/>
<path d="M119.133 82.0493H126.504V80.6317H119.133V82.0493ZM128.489 82.8998C128.489 83.5261 127.981 84.0339 127.355 84.0339H118.282C117.656 84.0339 117.148 83.5261 117.148 82.8998V79.7812C117.148 79.1548 117.656 78.6471 118.282 78.6471H127.355C127.981 78.6471 128.489 79.1548 128.489 79.7812V82.8998Z" fill="black"/>
<path d="M137.134 95.8V97.7846H128.629V95.8H137.134ZM147.073 80.0649L150.176 85.6187V97.7846H145.356V95.8H148.191V86.1353L145.908 82.0495H130.33V80.0649H147.073Z" fill="black"/>
<path d="M119.226 86.321C118.88 87.4017 118.594 89.1057 118.836 90.6651C119.073 92.1937 119.78 93.4473 121.32 94.0191L120.629 95.8796C118.199 94.9771 117.181 92.9466 116.875 90.9691C116.573 89.0224 116.925 86.9982 117.336 85.7163L119.226 86.321Z" fill="black"/>
<path d="M118.274 89.4136L112.044 95.6439L109.227 92.8265L107.894 94.23L113.074 99.5234L117.328 95.6345L118.667 97.0992L112.998 102.283L105.137 94.2507L109.19 89.9839L112.044 92.8373L116.871 88.0104L118.274 89.4136Z" fill="black"/>
<path d="M144.226 90.9427C144.226 89.6853 143.155 88.6953 141.803 88.5558C141.156 88.4892 140.519 88.6364 140.004 89.0135C139.511 89.3745 139.055 90.0024 138.839 91.0452V100.44H136.004V102.85H144.226V90.9427ZM146.211 104.835H134.02V98.4559H136.855V90.8492L136.872 90.7572C137.16 89.2465 137.862 88.1223 138.831 87.4124C139.791 86.7091 140.934 86.4712 142.007 86.5818C144.092 86.7968 146.211 88.4103 146.211 90.9427V104.835Z" fill="black"/>
<path d="M127.781 90.8309C127.781 89.5735 126.71 88.5834 125.358 88.444C124.711 88.3774 124.073 88.5246 123.558 88.9017C123.066 89.2627 122.61 89.8906 122.394 90.9334V100.329H119.559V102.739H127.781V90.8309ZM129.765 104.723H117.574V98.344H120.409V90.7373L120.427 90.6454C120.715 89.1347 121.416 88.0104 122.386 87.3006C123.346 86.5973 124.489 86.3594 125.561 86.4699C127.647 86.685 129.765 88.2984 129.765 90.8309V104.723Z" fill="black"/>
<path d="M116.692 59.2951C118.41 59.0109 120.21 59.4396 121.9 60.8988L122.063 61.0433L122.115 61.0898L122.868 61.9935L121.343 63.2638L120.682 62.4708C119.388 61.3182 118.147 61.066 117.016 61.2532C115.816 61.4516 114.627 62.165 113.581 63.1281C112.542 64.0856 111.722 65.2202 111.254 66.1225C111.015 66.5821 110.898 66.9248 110.864 67.12C110.846 67.2232 110.866 67.209 110.845 67.1267C110.816 67.0131 110.704 66.7807 110.425 66.669L109.688 68.5116C109.231 68.329 109.005 67.9458 108.921 67.6148C108.845 67.315 108.868 67.0167 108.909 66.782C108.992 66.3011 109.21 65.7522 109.492 65.2085C110.065 64.104 111.026 62.7842 112.237 61.6685C113.442 60.5584 114.972 59.5796 116.692 59.2951Z" fill="black"/>
<path d="M148.179 82.2842L146.231 82.6652L143.68 69.6235L145.627 69.2426L148.179 82.2842Z" fill="black"/>
<path d="M153.622 86.8652L149.733 89.4013L148.649 87.739L151.281 86.0224L146.117 69.4445L148.012 68.8542L153.622 86.8652Z" fill="black"/>
<path d="M146.637 68.2991C146.637 67.9076 146.319 67.5903 145.928 67.5903C145.536 67.5903 145.219 67.9076 145.219 68.2991C145.219 68.6906 145.536 69.0079 145.928 69.0079V70.9925C144.44 70.9925 143.234 69.7866 143.234 68.2991C143.234 66.8116 144.44 65.6057 145.928 65.6057C147.415 65.6057 148.621 66.8116 148.621 68.2991C148.621 69.7866 147.415 70.9925 145.928 70.9925V69.0079C146.319 69.0079 146.637 68.6906 146.637 68.2991Z" fill="black"/>
<path d="M145.95 62.5757C148.58 62.6373 151.455 64.409 151.456 67.8736H149.471C149.471 65.8098 147.81 64.6044 145.904 64.5598C144.967 64.5378 144.08 64.8147 143.445 65.3458C142.833 65.8574 142.383 66.6618 142.383 67.8736H140.398C140.398 66.1087 141.083 64.7337 142.172 63.8233C143.237 62.9324 144.619 62.5445 145.95 62.5757Z" fill="black"/>
<path d="M145.951 59.5128C150.351 59.6157 155 62.5424 155 68.1572H153.016C153.016 63.9469 149.585 61.5829 145.905 61.4968C144.082 61.4542 142.308 61.9898 141.009 63.0739C139.732 64.1383 138.84 65.7894 138.84 68.1572H136.855C136.855 65.2346 137.983 63.0124 139.737 61.5497C141.467 60.1067 143.734 59.4609 145.951 59.5128Z" fill="black"/>
<path d="M120.268 66.5978C120.268 66.363 120.078 66.1726 119.843 66.1726C119.608 66.1726 119.418 66.363 119.418 66.5978C119.418 66.8327 119.608 67.0231 119.843 67.0231V68.4407C118.825 68.4407 118 67.6156 118 66.5978C118 65.5801 118.825 64.755 119.843 64.755C120.861 64.755 121.686 65.5801 121.686 66.5978C121.686 67.6156 120.861 68.4407 119.843 68.4407V67.0231C120.078 67.0231 120.268 66.8327 120.268 66.5978Z" fill="black"/>
<path d="M125.655 91.8306C125.655 91.4391 125.338 91.1218 124.947 91.1218C124.555 91.1218 124.238 91.4391 124.238 91.8306C124.238 92.222 124.555 92.5394 124.947 92.5394V93.9569C123.772 93.9569 122.82 93.0049 122.82 91.8306C122.82 90.6562 123.772 89.7042 124.947 89.7042C126.121 89.7042 127.073 90.6562 127.073 91.8306C127.073 93.0049 126.121 93.9569 124.947 93.9569V92.5394C125.338 92.5394 125.655 92.222 125.655 91.8306Z" fill="black"/>
<path d="M142.382 91.8306C142.382 91.4391 142.065 91.1218 141.673 91.1218C141.282 91.1218 140.964 91.4391 140.964 91.8306C140.964 92.222 141.282 92.5394 141.673 92.5394V93.9569C140.499 93.9569 139.547 93.0049 139.547 91.8306C139.547 90.6562 140.499 89.7042 141.673 89.7042C142.848 89.7042 143.8 90.6562 143.8 91.8306C143.8 93.0049 142.848 93.9569 141.673 93.9569V92.5394C142.065 92.5394 142.382 92.222 142.382 91.8306Z" fill="black"/>
<path d="M9.93733 27.9293C10.8484 27.3883 11.7024 26.5448 11.918 25.7754C12.0067 25.459 11.9945 25.1433 11.7901 24.7765C11.5643 24.3714 11.0531 23.8187 9.9644 23.2063L9.00816 22.6683L10.891 17.0209L12.1016 17.348C13.1571 17.6333 14.4245 17.6709 15.1887 17.2723C15.5106 17.1044 15.7482 16.8602 15.8828 16.4488C16.0302 15.998 16.0865 15.2384 15.7812 14.0172L15.5087 12.9279L21.0159 10.5186L21.397 12.044C21.5286 12.57 21.9023 13.2529 22.5083 13.6294C23.0269 13.9516 23.9643 14.2045 25.6258 13.4377C26.2921 13.1302 27.0816 13.421 27.3892 14.0873C27.6968 14.7537 27.4059 15.5432 26.7396 15.8508C24.4524 16.9064 22.5423 16.7795 21.1056 15.8867C20.3431 15.4129 19.7913 14.7703 19.4108 14.1218L18.5791 14.4859C18.7262 15.5342 18.6738 16.465 18.4089 17.2749C18.0408 18.4004 17.3029 19.1669 16.4178 19.6286C15.2299 20.2483 13.8224 20.3025 12.6474 20.1551L12.2058 21.4796C13.0636 22.0842 13.7027 22.7492 14.1116 23.4829C14.6792 24.5015 14.7428 25.5453 14.4772 26.4929C14.1094 27.8046 13.1392 28.8621 12.2076 29.5893L12.6262 30.7758C13.5812 30.65 14.4485 30.6955 15.2228 30.913C16.3307 31.224 17.1679 31.8641 17.7348 32.6805C18.5707 33.8842 18.7718 35.3837 18.5936 36.7008L19.479 37.1435C20.3811 35.5332 21.5834 34.65 22.9895 34.4995C24.5948 34.3278 25.9689 35.1819 26.717 35.8907C27.2498 36.3954 27.2725 37.2366 26.7678 37.7694C26.263 38.3022 25.4218 38.325 24.889 37.8202C24.4349 37.39 23.7966 37.086 23.2724 37.1421C22.8972 37.1822 22.0886 37.4685 21.3503 39.4149L20.8286 40.7898L15.4453 38.0983L15.8097 37.0049C16.1271 36.0529 16.0419 34.9021 15.5517 34.1962C15.3276 33.8736 15.002 33.6118 14.5042 33.4721C13.9868 33.3268 13.2101 33.2947 12.0882 33.5855L10.9077 33.8918L9 28.4862L9.93733 27.9293Z" fill="black"/>
<path d="M15.9547 25.8134C15.9127 23.6947 16.6897 21.4915 18.403 19.9696C20.1459 18.4214 22.6865 17.7274 25.8575 18.3222C26.5789 18.4575 27.054 19.1522 26.9187 19.8736C26.7834 20.5948 26.089 21.07 25.3677 20.9347C22.8438 20.4613 21.1839 21.0545 20.1683 21.9566C19.1231 22.885 18.5831 24.2957 18.6121 25.7604C18.6413 27.2271 19.2387 28.6175 20.2973 29.5009C21.3204 30.3545 22.9351 30.8676 25.3006 30.2966C26.014 30.1243 26.732 30.5631 26.9043 31.2765C27.0765 31.9899 26.638 32.7079 25.9247 32.8801C22.8799 33.6153 20.3658 33.0193 18.5947 31.5416C16.8592 30.0936 15.9968 27.9304 15.9547 25.8134Z" fill="black"/>
<path d="M44.5995 41.4117H33.6078L28.6627 36.4663C28.1437 35.9473 28.1437 35.1061 28.6627 34.5872C29.1816 34.0682 30.0228 34.0682 30.5418 34.5872L34.7086 38.754H44.5995C45.3334 38.754 45.9284 39.3489 45.9284 40.0829C45.9284 40.8168 45.3334 41.4117 44.5995 41.4117Z" fill="black"/>
<path d="M44.5995 10.0883H33.6078L28.6627 15.0337C28.1437 15.5527 28.1437 16.3939 28.6627 16.9128C29.1816 17.4318 30.0228 17.4318 30.5418 16.9128L34.7086 12.746H44.5995C45.3334 12.746 45.9284 12.1511 45.9284 11.4171C45.9284 10.6832 45.3334 10.0883 44.5995 10.0883Z" fill="black"/>
<path d="M40.041 35.1471H32.826L28.8264 30.9365C28.3209 30.4044 28.3425 29.5636 28.8746 29.0581C29.4067 28.5527 30.2475 28.5743 30.7529 29.1063L33.9665 32.4893H40.041C40.7749 32.4893 41.3698 33.0843 41.3698 33.8182C41.3698 34.5521 40.7749 35.1471 40.041 35.1471Z" fill="black"/>
<path d="M40.041 16.3529H32.826L28.8264 20.5635C28.3209 21.0956 28.3425 21.9364 28.8746 22.4419C29.4067 22.9473 30.2475 22.9257 30.7529 22.3937L33.9665 19.0107H40.041C40.7749 19.0107 41.3698 18.4157 41.3698 17.6818C41.3698 16.9479 40.7749 16.3529 40.041 16.3529Z" fill="black"/>
<path d="M36.4342 26.7942H29.7898C29.0559 26.7942 28.4609 26.1992 28.4609 25.4653C28.4609 24.7314 29.0559 24.1364 29.7898 24.1364H36.4342C37.1681 24.1364 37.7631 24.7314 37.7631 25.4653C37.7631 26.1992 37.1681 26.7942 36.4342 26.7942Z" fill="black"/>
<path d="M46.8757 39.7032C46.5612 39.7032 46.3062 39.9582 46.3062 40.2727C46.3062 40.5873 46.5612 40.8422 46.8757 40.8422C47.1902 40.8422 47.4452 40.5873 47.4452 40.2727H50.103C50.103 42.0551 48.6581 43.5 46.8757 43.5C45.0933 43.5 43.6484 42.0551 43.6484 40.2727C43.6484 38.4904 45.0933 37.0455 46.8757 37.0455C48.6581 37.0455 50.103 38.4904 50.103 40.2727H47.4452C47.4452 39.9582 47.1902 39.7032 46.8757 39.7032Z" fill="black"/>
<path d="M46.8757 11.7968C46.5612 11.7968 46.3062 11.5418 46.3062 11.2273C46.3062 10.9127 46.5612 10.6578 46.8757 10.6578C47.1902 10.6578 47.4452 10.9127 47.4452 11.2273H50.103C50.103 9.4449 48.6581 8 46.8757 8C45.0933 8 43.6484 9.4449 43.6484 11.2273C43.6484 13.0096 45.0933 14.4545 46.8757 14.4545C48.6581 14.4545 50.103 13.0096 50.103 11.2273H47.4452C47.4452 11.5418 47.1902 11.7968 46.8757 11.7968Z" fill="black"/>
<path d="M42.321 33.2486C42.0065 33.2486 41.7515 33.5036 41.7515 33.8181C41.7515 34.1327 42.0065 34.3877 42.321 34.3877C42.6356 34.3877 42.8905 34.1327 42.8905 33.8181H45.5483C45.5483 35.6005 44.1034 37.0454 42.321 37.0454C40.5386 37.0454 39.0938 35.6005 39.0938 33.8181C39.0938 32.0358 40.5386 30.5909 42.321 30.5909C44.1034 30.5909 45.5483 32.0358 45.5483 33.8181H42.8905C42.8905 33.5036 42.6356 33.2486 42.321 33.2486Z" fill="black"/>
<path d="M42.321 18.2515C42.0065 18.2515 41.7515 17.9965 41.7515 17.682C41.7515 17.3674 42.0065 17.1125 42.321 17.1125C42.6356 17.1125 42.8905 17.3674 42.8905 17.682H45.5483C45.5483 15.8996 44.1034 14.4547 42.321 14.4547C40.5386 14.4547 39.0938 15.8996 39.0938 17.682C39.0938 19.4644 40.5386 20.9093 42.321 20.9093C44.1034 20.9093 45.5483 19.4644 45.5483 17.682H42.8905C42.8905 17.9965 42.6356 18.2515 42.321 18.2515Z" fill="black"/>
<path d="M38.9031 24.8958C38.5885 24.8958 38.3335 25.1508 38.3335 25.4654C38.3335 25.7799 38.5885 26.0349 38.9031 26.0349C39.2176 26.0349 39.4726 25.7799 39.4726 25.4654H42.1303C42.1303 27.2477 40.6854 28.6926 38.9031 28.6926C37.1207 28.6926 35.6758 27.2477 35.6758 25.4654C35.6758 23.683 37.1207 22.2381 38.9031 22.2381C40.6854 22.2381 42.1303 23.683 42.1303 25.4654H39.4726C39.4726 25.1508 39.2176 24.8958 38.9031 24.8958Z" fill="black"/>
<path d="M225.26 31.1687H227.298V38.1572H220.164V36.1189H225.26V31.1687Z" fill="black"/>
<path d="M240.545 31.1687H238.507V38.1572H245.641V36.1189H240.545V31.1687Z" fill="black"/>
<path d="M230.067 31.1687H232.105V43.3985H227.301V41.3602H230.067V31.1687Z" fill="black"/>
<path d="M235.745 31.1687H233.707V43.3985H238.512V41.3602H235.745V31.1687Z" fill="black"/>
<path d="M233.126 7.14587C236.928 7.14587 242.148 9.24269 245.823 13.3532C249.553 17.5258 251.674 23.7533 249.243 31.897C249.082 32.4363 248.515 32.743 247.975 32.582C247.436 32.421 247.129 31.8533 247.29 31.314C249.518 23.8502 247.562 18.3573 244.303 14.7116C240.989 11.0037 236.309 9.18417 233.126 9.18417C225.635 9.18419 221.123 13.1681 218.848 17.9229C217.702 20.3188 217.128 22.9098 217.048 25.2747C216.968 27.6549 217.391 29.7241 218.151 31.1172C218.421 31.6113 218.239 32.2304 217.745 32.5001C217.251 32.7697 216.631 32.5878 216.362 32.0937C215.374 30.2838 214.923 27.8214 215.011 25.2059C215.099 22.5753 215.735 19.7064 217.01 17.0431C219.576 11.6791 224.747 7.14589 233.126 7.14587Z" fill="black"/>
<path d="M248.407 30.5863V32.6246H217.25V30.5863H248.407Z" fill="black"/>
<path d="M234.105 8.84316L233.274 9.43293C230.611 11.3231 225.276 18.4219 227.428 30.9966L227.6 32.0012L225.591 32.345L225.419 31.3407C223.146 18.0583 228.74 10.1512 232.094 7.77055L232.926 7.18079L234.105 8.84316Z" fill="black"/>
<path d="M231.852 8.84316L232.683 9.43293C235.346 11.3231 240.681 18.4219 238.529 30.9966L238.357 32.0012L240.366 32.345L240.538 31.3407C242.811 18.0583 237.217 10.1512 233.863 7.77055L233.031 7.18079L231.852 8.84316Z" fill="black"/>
<path d="M248.265 17.4829V19.5212H217.836V17.4829H248.265Z" fill="black"/>
<path d="M219.873 36.9923C219.873 36.4294 219.417 35.9731 218.854 35.9731C218.291 35.9731 217.835 36.4294 217.835 36.9923C217.835 37.5551 218.291 38.0114 218.854 38.0114V40.0497C217.166 40.0497 215.797 38.6808 215.797 36.9923C215.797 35.3037 217.166 33.9348 218.854 33.9348C220.543 33.9348 221.912 35.3037 221.912 36.9923C221.912 38.6808 220.543 40.0497 218.854 40.0497V38.0114C219.417 38.0114 219.873 37.5551 219.873 36.9923Z" fill="black"/>
<path d="M245.935 36.9923C245.935 36.4294 246.391 35.9731 246.954 35.9731C247.517 35.9731 247.973 36.4294 247.973 36.9923C247.973 37.5551 247.517 38.0114 246.954 38.0114V40.0497C248.643 40.0497 250.012 38.6808 250.012 36.9923C250.012 35.3037 248.643 33.9348 246.954 33.9348C245.266 33.9348 243.897 35.3037 243.897 36.9923C243.897 38.6808 245.266 40.0497 246.954 40.0497V38.0114C246.391 38.0114 245.935 37.5551 245.935 36.9923Z" fill="black"/>
<path d="M226.862 41.9426C226.862 41.3797 226.405 40.9234 225.843 40.9234C225.28 40.9234 224.823 41.3797 224.823 41.9426C224.823 42.5054 225.28 42.9617 225.843 42.9617V45C224.154 45 222.785 43.6312 222.785 41.9426C222.785 40.254 224.154 38.8851 225.843 38.8851C227.531 38.8851 228.9 40.254 228.9 41.9426C228.9 43.6312 227.531 45 225.843 45V42.9617C226.405 42.9617 226.862 42.5054 226.862 41.9426Z" fill="black"/>
<path d="M238.947 41.9426C238.947 41.3797 239.403 40.9234 239.966 40.9234C240.529 40.9234 240.985 41.3797 240.985 41.9426C240.985 42.5054 240.529 42.9617 239.966 42.9617V45C241.655 45 243.023 43.6312 243.023 41.9426C243.023 40.254 241.655 38.8851 239.966 38.8851C238.277 38.8851 236.909 40.254 236.909 41.9426C236.909 43.6312 238.277 45 239.966 45V42.9617C239.403 42.9617 238.947 42.5054 238.947 41.9426Z" fill="black"/>
<path d="M136.038 17.6536C136.038 17.4646 135.885 17.3114 135.696 17.3114H131.248C131.059 17.3114 130.905 17.4646 130.905 17.6536V22.2161C130.905 22.4051 131.059 22.5583 131.248 22.5583H135.696C135.885 22.5583 136.038 22.4051 136.038 22.2161V17.6536ZM137.635 22.2161C137.635 23.287 136.767 24.1552 135.696 24.1552H131.248C130.177 24.1552 129.309 23.287 129.309 22.2161V17.6536C129.309 16.5826 130.177 15.7145 131.248 15.7145H135.696C136.767 15.7145 137.635 16.5826 137.635 17.6536V22.2161Z" fill="black"/>
<path d="M138.774 16.2849C138.774 15.466 138.11 14.8021 137.291 14.8021H129.763C128.944 14.8021 128.28 15.466 128.28 16.2849V23.8131C128.28 24.632 128.944 25.2959 129.763 25.2959H137.291C138.11 25.2959 138.774 24.632 138.774 23.8131V16.2849ZM140.371 23.8131C140.371 25.5139 138.992 26.8928 137.291 26.8928H129.763C128.062 26.8928 126.684 25.5139 126.684 23.8131V16.2849C126.684 14.584 128.062 13.2052 129.763 13.2052H137.291C138.992 13.2052 140.371 14.584 140.371 16.2849V23.8131Z" fill="black"/>
<path d="M130.103 36.5882V29.9814L128.734 28.7269V26.3225C128.734 25.8815 129.092 25.524 129.533 25.524C129.974 25.524 130.331 25.8815 130.331 26.3225V28.0243L131.7 29.279V36.5882C131.7 37.0291 131.343 37.3866 130.902 37.3866C130.461 37.3866 130.103 37.0291 130.103 36.5882Z" fill="black"/>
<path d="M136.721 36.8161V30.2093L138.09 28.9549V26.5504C138.09 26.1094 137.732 25.752 137.291 25.752C136.85 25.752 136.493 26.1094 136.493 26.5504V28.2522L135.124 29.5069V36.8161C135.124 37.257 135.482 37.6145 135.923 37.6145C136.364 37.6145 136.721 37.257 136.721 36.8161Z" fill="black"/>
<path d="M132.5 13.5473V10.5816C132.5 10.1407 132.857 9.7832 133.298 9.7832C133.739 9.7832 134.097 10.1407 134.097 10.5816V13.5473C134.097 13.9883 133.739 14.3457 133.298 14.3457C132.857 14.3457 132.5 13.9883 132.5 13.5473Z" fill="black"/>
<path d="M137.637 14.0037V12.749C137.637 12.308 137.994 11.9506 138.435 11.9506C138.876 11.9506 139.234 12.308 139.234 12.749V14.0037C139.234 14.4447 138.876 14.8021 138.435 14.8021C137.994 14.8021 137.637 14.4447 137.637 14.0037Z" fill="black"/>
<path d="M128.055 13.8896V12.6349C128.055 12.1939 128.412 11.8364 128.853 11.8364C129.294 11.8364 129.652 12.1939 129.652 12.6349V13.8896C129.652 14.3305 129.294 14.688 128.853 14.688C128.412 14.688 128.055 14.3305 128.055 13.8896Z" fill="black"/>
<path d="M132.613 36.9303V26.7787C132.613 26.3377 132.971 25.9802 133.412 25.9802C133.853 25.9802 134.21 26.3377 134.21 26.7787V36.9303C134.21 37.3713 133.853 37.7287 133.412 37.7287C132.971 37.7287 132.613 37.3713 132.613 36.9303Z" fill="black"/>
<path d="M140.602 39.6678C140.602 40.4868 139.938 41.1507 139.119 41.1507H134.67C134.229 41.1507 133.872 40.7932 133.872 40.3522C133.872 39.9113 134.229 39.5538 134.67 39.5538H139.005V38.185H127.941V39.5538H132.161C132.602 39.5538 132.959 39.9113 132.959 40.3522C132.959 40.7932 132.602 41.1507 132.161 41.1507H127.827C127.008 41.1507 126.344 40.4868 126.344 39.6678V38.071C126.344 37.252 127.008 36.5881 127.827 36.5881H139.119C139.938 36.5881 140.602 37.252 140.602 38.071V39.6678Z" fill="black"/>
<path d="M138.202 42.1771C138.202 42.9961 137.538 43.66 136.719 43.66H130.217C129.398 43.66 128.734 42.9961 128.734 42.1771V40.6943C128.734 40.2533 129.092 39.8959 129.533 39.8959C129.974 39.8959 130.331 40.2533 130.331 40.6943V42.0631H136.605V40.6943C136.605 40.2533 136.962 39.8959 137.403 39.8959C137.844 39.8959 138.202 40.2533 138.202 40.6943V42.1771Z" fill="black"/>
<path d="M129.996 45.1429V43.2038C129.996 42.7629 130.354 42.4054 130.795 42.4054C131.236 42.4054 131.593 42.7629 131.593 43.2038V45.1429C131.593 45.9619 132.257 46.6257 133.076 46.6257H133.76C134.579 46.6257 135.243 45.9619 135.243 45.1429V43.2038C135.243 42.7629 135.6 42.4054 136.041 42.4054C136.482 42.4054 136.84 42.7629 136.84 43.2038V45.1429C136.84 46.8438 135.461 48.2226 133.76 48.2226H133.076C131.375 48.2226 129.996 46.8438 129.996 45.1429Z" fill="black"/>
<path d="M120.682 26.5531C121.058 26.3238 121.549 26.4433 121.779 26.8199C122.558 28.1002 123.122 28.8301 123.667 29.3935C124.225 29.9708 124.77 30.3844 125.597 31.0679C126.644 31.9324 127.46 32.6462 128.092 33.52C128.735 34.4109 129.156 35.4224 129.514 36.8508C129.621 37.2786 129.36 37.7121 128.933 37.819C128.505 37.9259 128.071 37.666 127.964 37.2382C127.637 35.9293 127.283 35.127 126.797 34.4553C126.299 33.7664 125.633 33.1685 124.58 32.2992C123.811 31.6636 123.158 31.1647 122.519 30.5034C121.866 29.8282 121.232 28.9934 120.415 27.6502C120.186 27.2736 120.305 26.7823 120.682 26.5531ZM128.974 4.98732C132.096 4.158 135.841 4.31111 140.182 5.83634C140.598 5.98251 140.816 6.43821 140.67 6.85422C140.524 7.27023 140.068 7.48913 139.652 7.34299C135.553 5.90259 132.14 5.79885 129.384 6.53074C126.631 7.26208 124.477 8.84267 122.912 10.87C119.758 14.9589 119.037 20.8219 120.698 25.0012C120.861 25.411 120.66 25.8751 120.251 26.038C119.841 26.2008 119.377 26.0006 119.214 25.5909C117.339 20.8733 118.158 14.4174 121.648 9.89449C123.406 7.61599 125.85 5.81723 128.974 4.98732Z" fill="black"/>
<path d="M141.454 7.35548C141.724 7.0068 142.225 6.94296 142.574 7.2129C145.036 9.11906 147.989 12.6598 148.791 17.1248C149.605 21.6608 148.168 26.9756 142.157 32.2821L142.146 32.2925L142.133 32.3023C141.123 33.1256 139.311 34.9187 139.233 37.1861C139.218 37.6268 138.848 37.9717 138.408 37.9565C137.967 37.9412 137.622 37.5715 137.637 37.1309C137.741 34.1256 140.051 31.9431 141.104 31.0815C146.77 26.0779 147.918 21.2993 147.219 17.4068C146.507 13.4426 143.849 10.2195 141.596 8.47561C141.248 8.20567 141.184 7.70416 141.454 7.35548Z" fill="black"/>
<path d="M133.871 8.87071C133.871 8.68173 133.718 8.52852 133.529 8.52852C133.34 8.52852 133.187 8.68173 133.187 8.87071C133.187 9.0597 133.34 9.2129 133.529 9.2129V10.8098C132.458 10.8098 131.59 9.94163 131.59 8.87071C131.59 7.79979 132.458 6.93164 133.529 6.93164C134.6 6.93164 135.468 7.79979 135.468 8.87071C135.468 9.94163 134.6 10.8098 133.529 10.8098V9.2129C133.718 9.2129 133.871 9.0597 133.871 8.87071Z" fill="black"/>
<path d="M138.891 10.9239C138.891 10.735 138.737 10.5817 138.548 10.5817C138.359 10.5817 138.206 10.735 138.206 10.9239C138.206 11.1129 138.359 11.2661 138.548 11.2661V12.863C137.478 12.863 136.609 11.9949 136.609 10.9239C136.609 9.85302 137.478 8.98486 138.548 8.98486C139.619 8.98486 140.488 9.85302 140.488 10.9239C140.488 11.9949 139.619 12.863 138.548 12.863V11.2661C138.737 11.2661 138.891 11.1129 138.891 10.9239Z" fill="black"/>
<path d="M129.313 10.9239C129.313 10.735 129.159 10.5817 128.97 10.5817C128.781 10.5817 128.628 10.735 128.628 10.9239C128.628 11.1129 128.781 11.2661 128.97 11.2661V12.863C127.899 12.863 127.031 11.9949 127.031 10.9239C127.031 9.85302 127.899 8.98486 128.97 8.98486C130.041 8.98486 130.909 9.85302 130.909 10.9239C130.909 11.9949 130.041 12.863 128.97 12.863V11.2661C129.159 11.2661 129.313 11.1129 129.313 10.9239Z" fill="black"/>
<path d="M141.856 16.399C142.297 16.399 142.655 16.7565 142.655 17.1975C142.655 17.6385 142.297 17.9959 141.856 17.9959H140.259C139.818 17.9959 139.461 17.6385 139.461 17.1975C139.461 16.7565 139.818 16.399 140.259 16.399H141.856Z" fill="black"/>
<path d="M126.798 16.6271C127.239 16.6271 127.596 16.9845 127.596 17.4255C127.596 17.8665 127.239 18.224 126.798 18.224H125.201C124.76 18.224 124.402 17.8665 124.402 17.4255C124.402 16.9845 124.76 16.6271 125.201 16.6271H126.798Z" fill="black"/>
<path d="M141.856 19.1365C142.297 19.1365 142.655 19.4939 142.655 19.9349C142.655 20.3759 142.297 20.7334 141.856 20.7334H140.259C139.818 20.7334 139.461 20.3759 139.461 19.9349C139.461 19.4939 139.818 19.1365 140.259 19.1365H141.856Z" fill="black"/>
<path d="M126.798 19.3646C127.239 19.3646 127.596 19.7221 127.596 20.1631C127.596 20.604 127.239 20.9615 126.798 20.9615H125.201C124.76 20.9615 124.402 20.604 124.402 20.1631C124.402 19.7221 124.76 19.3646 125.201 19.3646H126.798Z" fill="black"/>
<path d="M141.856 21.874C142.297 21.874 142.655 22.2315 142.655 22.6725C142.655 23.1134 142.297 23.4709 141.856 23.4709H140.259C139.818 23.4709 139.461 23.1134 139.461 22.6725C139.461 22.2315 139.818 21.874 140.259 21.874H141.856Z" fill="black"/>
<path d="M126.798 22.1022C127.239 22.1022 127.596 22.4596 127.596 22.9006C127.596 23.3416 127.239 23.6991 126.798 23.6991H125.201C124.76 23.6991 124.402 23.3416 124.402 22.9006C124.402 22.4596 124.76 22.1022 125.201 22.1022H126.798Z" fill="black"/>
<path d="M38.6761 80.5354V82.3807H33.2812V80.5354H38.6761Z" fill="black"/>
<path d="M35.125 74.1859C35.4681 73.4834 36.4825 73.4835 36.8256 74.1859L36.8575 74.2585L40.8998 84.4605L39.1842 85.1404L35.9753 77.0411L32.7663 85.1404L31.0508 84.4605L35.0931 74.2585L35.125 74.1859Z" fill="black"/>
<path d="M42.5078 73.6138H44.3531V85.22H42.5078V73.6138Z" fill="black"/>
<path d="M35.939 100.139C36.9683 101.2 36.9828 102.882 35.9719 103.96L35.8172 104.125C34.7477 105.266 32.9465 105.295 31.8408 104.189L26.3242 98.673L27.6292 97.3681L33.1455 102.884C33.5141 103.253 34.1146 103.243 34.4711 102.863L34.6258 102.698C34.9627 102.339 34.9578 101.778 34.6147 101.425L29.3416 95.9913L30.6656 94.7062L35.939 100.139Z" fill="black"/>
<path d="M26 67.4021H50.5618V91.7865H35.0512V89.9412H48.7165V69.2474H27.8453V77.2336H26V67.4021Z" fill="black"/>
<path d="M30.082 63.3204H31.9273V68.7153H30.082V63.3204Z" fill="black"/>
<path d="M27.6797 71.1292V72.9745H22.2848V71.1292H27.6797Z" fill="black"/>
<path d="M55 70.4193V72.2646H49.6052V70.4193H55Z" fill="black"/>
<path d="M35.4023 63.3204H37.2476V68.7153H35.4023V63.3204Z" fill="black"/>
<path d="M55 75.7435V77.5888H49.6052V75.7435H55Z" fill="black"/>
<path d="M47.5508 95.6912H45.7055V90.2963H47.5508V95.6912Z" fill="black"/>
<path d="M40.7305 63.3204H42.5758V68.7153H40.7305V63.3204Z" fill="black"/>
<path d="M55 81.0679V82.9132H49.6052V81.0679H55Z" fill="black"/>
<path d="M42.2188 95.6912H40.3734V90.2963H42.2188V95.6912Z" fill="black"/>
<path d="M46.0625 63.3204H47.9078V68.7153H46.0625V63.3204Z" fill="black"/>
<path d="M55 86.392V88.2373H49.6052V86.392H55Z" fill="black"/>
<path d="M36.8984 95.6912H35.0531V90.2963H36.8984V95.6912Z" fill="black"/>
<path d="M31.2909 89.4443C31.2909 83.7984 26.714 79.2215 21.0681 79.2215C15.4222 79.2216 10.8453 83.7985 10.8453 89.4443C10.8453 95.0903 15.4222 99.6671 21.0681 99.6672V101.512C14.4031 101.512 9 96.1094 9 89.4443C9.00003 82.7793 14.4031 77.3763 21.0681 77.3762C27.7332 77.3762 33.1362 82.7793 33.1362 89.4443C33.1362 96.1094 27.7332 101.512 21.0681 101.512V99.6672C26.7141 99.6672 31.2909 95.0903 31.2909 89.4443Z" fill="black"/>
<path d="M16.8442 83.4192C18.5227 82.2364 20.5266 82.003 21.8688 82.1372L22.7868 82.2291L22.6033 84.0652L21.6852 83.9732C20.6612 83.8708 19.1332 84.0636 17.9071 84.9276C16.7385 85.7511 15.7129 87.2753 15.7778 90.1332L15.799 91.0556L13.9542 91.0975L13.9331 90.1752C13.856 86.7861 15.1081 84.6426 16.8442 83.4192Z" fill="black"/>
<path d="M208.539 76.8336C208.539 74.8798 210.123 73.2959 212.077 73.2959H215.614V76.4091H212.077C211.842 76.4091 211.652 76.5991 211.652 76.8336V94.8051H208.539V76.8336Z" fill="black"/>
<path d="M246.465 76.8336C246.465 74.8798 244.881 73.2959 242.927 73.2959H239.389V76.4091H242.927C243.162 76.4091 243.352 76.5991 243.352 76.8336V94.8051H246.465V76.8336Z" fill="black"/>
<path d="M204.574 97.9184V94.8052H235.565V97.9184H207.687C207.687 99.247 208.764 100.324 210.093 100.324H244.48C245.767 100.324 246.818 99.3132 246.882 98.0422L246.885 97.9184H238.678V94.8052H249.998V97.9184C249.998 100.966 247.527 103.437 244.48 103.437H210.093C207.045 103.437 204.574 100.966 204.574 97.9184Z" fill="black"/>
<path d="M224.106 88.2957V90.8429H220.992V88.2957H224.106ZM234.435 84.3335V87.0221H231.322V84.3335H234.435ZM227.778 60.0148C229.39 59.9161 231.101 60.304 232.563 61.3771C233.824 62.3022 234.811 63.6723 235.403 65.4811C236.483 65.8249 237.36 66.4394 237.97 67.2649C238.754 68.3243 239.012 69.6153 238.82 70.8324C238.492 72.9104 236.891 74.714 234.435 75.2537V81.9278H231.322V72.3053H232.879C234.785 72.3052 235.607 71.2181 235.745 70.3468C235.818 69.8836 235.714 69.4496 235.467 69.1161C235.231 68.7959 234.775 68.4514 233.926 68.3265L232.876 68.1723L232.636 67.1386C232.247 65.4636 231.508 64.464 230.722 63.8869C229.924 63.3017 228.956 63.0617 227.968 63.1222C225.83 63.2531 224.256 64.6479 224.094 65.9833L223.952 67.1571L222.783 67.3348C221.439 67.5394 220.728 68.0241 220.369 68.4619C220.012 68.8969 219.879 69.4315 219.953 69.9986C220.112 71.2139 221.161 72.3053 222.549 72.3053H224.106V85.4656H220.992V75.2065C218.694 74.5593 217.143 72.5229 216.866 70.4021C216.693 69.0766 217.002 67.6565 217.963 66.4863C218.738 65.5424 219.856 64.8575 221.265 64.4762C222.19 61.8092 225.08 60.18 227.778 60.0148Z" fill="black"/>
<path d="M229.34 78.9562V81.7863H226.227V78.9562H229.34ZM229.34 72.4468V76.409H226.227V72.4468H229.34Z" fill="black"/>
<path d="M28.5002 141.172C28.8616 141.781 29.425 142.351 29.9389 142.495C30.1502 142.554 30.3611 142.546 30.6061 142.41C30.8767 142.259 31.2459 141.917 31.6549 141.19L32.0143 140.551L35.7864 141.809L35.5679 142.618C35.3774 143.323 35.3522 144.169 35.6184 144.68C35.7306 144.895 35.8937 145.053 36.1685 145.143C36.4696 145.242 36.977 145.279 37.7927 145.075L38.5203 144.893L40.1296 148.572L39.1107 148.827C38.7593 148.914 38.3032 149.164 38.0517 149.569C37.8365 149.915 37.6676 150.541 38.1797 151.651C38.3852 152.096 38.1909 152.623 37.7458 152.829C37.3008 153.034 36.7734 152.84 36.568 152.395C35.8629 150.867 35.9477 149.592 36.544 148.632C36.8604 148.123 37.2896 147.754 37.7228 147.5L37.4796 146.944C36.7794 147.043 36.1577 147.008 35.6167 146.831C34.865 146.585 34.353 146.092 34.0446 145.501C33.6307 144.707 33.5945 143.767 33.6929 142.982L32.8083 142.687C32.4044 143.26 31.9602 143.687 31.4702 143.96C30.7898 144.339 30.0926 144.382 29.4597 144.204C28.5835 143.959 27.8772 143.311 27.3915 142.689L26.5989 142.968C26.6829 143.606 26.6525 144.185 26.5073 144.702C26.2995 145.442 25.872 146.002 25.3267 146.38C24.5227 146.939 23.5211 147.073 22.6413 146.954L22.3456 147.545C23.4213 148.148 24.0112 148.951 24.1117 149.89C24.2264 150.962 23.6559 151.88 23.1825 152.38C22.8453 152.736 22.2835 152.751 21.9276 152.414C21.5717 152.077 21.5565 151.515 21.8937 151.159C22.1811 150.856 22.3841 150.429 22.3466 150.079C22.3198 149.829 22.1286 149.288 20.8285 148.795L19.9102 148.447L21.7079 144.851L22.4383 145.095C23.0741 145.306 23.8428 145.25 24.3143 144.922C24.5298 144.773 24.7046 144.555 24.798 144.223C24.895 143.877 24.9165 143.358 24.7222 142.609L24.5176 141.82L28.1282 140.546L28.5002 141.172Z" fill="black"/>
<path d="M29.9147 145.193C31.3299 145.164 32.8015 145.683 33.8181 146.828C34.8522 147.992 35.3157 149.689 34.9184 151.807C34.828 152.289 34.364 152.606 33.8822 152.516C33.4005 152.425 33.0831 151.962 33.1734 151.48C33.4896 149.794 33.0934 148.685 32.4909 148.007C31.8707 147.309 30.9285 146.948 29.9501 146.968C28.9705 146.987 28.0417 147.386 27.4517 148.093C26.8816 148.777 26.5388 149.855 26.9203 151.435C27.0353 151.912 26.7422 152.391 26.2657 152.506C25.7892 152.621 25.3096 152.328 25.1946 151.852C24.7036 149.818 25.1016 148.139 26.0886 146.956C27.0558 145.797 28.5007 145.221 29.9147 145.193Z" fill="black"/>
<path d="M19.4961 164.323V156.981L22.7994 153.678C23.146 153.331 23.7079 153.331 24.0545 153.678C24.4011 154.024 24.4011 154.586 24.0545 154.933L21.2713 157.716V164.323C21.2713 164.813 20.8739 165.21 20.3837 165.21C19.8935 165.21 19.4961 164.813 19.4961 164.323Z" fill="black"/>
<path d="M40.418 164.323V156.981L37.1147 153.678C36.7681 153.331 36.2062 153.331 35.8596 153.678C35.5129 154.024 35.5129 154.586 35.8596 154.933L38.6427 157.716V164.323C38.6427 164.813 39.0401 165.21 39.5304 165.21C40.0206 165.21 40.418 164.813 40.418 164.323Z" fill="black"/>
<path d="M23.6836 161.28V156.46L26.496 153.789C26.8514 153.451 27.413 153.466 27.7507 153.821C28.0883 154.176 28.0739 154.738 27.7185 155.076L25.4588 157.222V161.28C25.4588 161.77 25.0614 162.167 24.5712 162.167C24.081 162.167 23.6836 161.77 23.6836 161.28Z" fill="black"/>
<path d="M36.2344 161.28V156.46L33.422 153.789C33.0665 153.451 32.5049 153.466 32.1673 153.821C31.8297 154.176 31.8441 154.738 32.1995 155.076L34.4592 157.222V161.28C34.4592 161.77 34.8565 162.167 35.3468 162.167C35.837 162.167 36.2344 161.77 36.2344 161.28Z" fill="black"/>
<path d="M29.2578 158.87V154.432C29.2578 153.942 29.6552 153.545 30.1454 153.545C30.6356 153.545 31.033 153.942 31.033 154.432V158.87C31.033 159.361 30.6356 159.758 30.1454 159.758C29.6552 159.758 29.2578 159.361 29.2578 158.87Z" fill="black"/>
<path d="M20.6376 165.844C20.6376 165.634 20.4673 165.464 20.2572 165.464C20.0471 165.464 19.8768 165.634 19.8768 165.844C19.8768 166.054 20.0471 166.225 20.2572 166.225V168C19.0667 168 18.1016 167.035 18.1016 165.844C18.1016 164.654 19.0667 163.689 20.2572 163.689C21.4477 163.689 22.4128 164.654 22.4128 165.844C22.4128 167.035 21.4477 168 20.2572 168V166.225C20.4673 166.225 20.6376 166.054 20.6376 165.844Z" fill="black"/>
<path d="M39.2765 165.844C39.2765 165.634 39.4468 165.464 39.6569 165.464C39.867 165.464 40.0373 165.634 40.0373 165.844C40.0373 166.054 39.867 166.225 39.6569 166.225V168C40.8474 168 41.8125 167.035 41.8125 165.844C41.8125 164.654 40.8474 163.689 39.6569 163.689C38.4664 163.689 37.5012 164.654 37.5012 165.844C37.5012 167.035 38.4664 168 39.6569 168V166.225C39.4468 166.225 39.2765 166.054 39.2765 165.844Z" fill="black"/>
<path d="M24.9501 162.801C24.9501 162.591 24.7798 162.421 24.5697 162.421C24.3596 162.421 24.1893 162.591 24.1893 162.801C24.1893 163.011 24.3596 163.182 24.5697 163.182V164.957C23.3792 164.957 22.4141 163.992 22.4141 162.801C22.4141 161.611 23.3792 160.646 24.5697 160.646C25.7602 160.646 26.7253 161.611 26.7253 162.801C26.7253 163.992 25.7602 164.957 24.5697 164.957V163.182C24.7798 163.182 24.9501 163.011 24.9501 162.801Z" fill="black"/>
<path d="M34.964 162.801C34.964 162.591 35.1343 162.421 35.3444 162.421C35.5545 162.421 35.7248 162.591 35.7248 162.801C35.7248 163.011 35.5545 163.182 35.3444 163.182V164.957C36.5349 164.957 37.5 163.992 37.5 162.801C37.5 161.611 36.5349 160.646 35.3444 160.646C34.1539 160.646 33.1887 161.611 33.1887 162.801C33.1887 163.992 34.1539 164.957 35.3444 164.957V163.182C35.1343 163.182 34.964 163.011 34.964 162.801Z" fill="black"/>
<path d="M30.5282 160.519C30.5282 160.309 30.3579 160.138 30.1478 160.138C29.9377 160.138 29.7674 160.309 29.7674 160.519C29.7674 160.729 29.9377 160.899 30.1478 160.899V162.674C28.9573 162.674 27.9922 161.709 27.9922 160.519C27.9922 159.328 28.9573 158.363 30.1478 158.363C31.3383 158.363 32.3034 159.328 32.3034 160.519C32.3034 161.709 31.3383 162.674 30.1478 162.674V160.899C30.3579 160.899 30.5282 160.729 30.5282 160.519Z" fill="black"/>
<path d="M21.0974 130.367C22.4903 125.957 27.3489 123.837 31.7737 124.01C34.1612 124.103 36.5527 124.853 38.3979 126.359C40.0187 127.682 41.1799 129.56 41.5464 131.983C43.3788 131.565 45.0824 131.966 46.4525 132.875C48.07 133.948 49.1999 135.711 49.5844 137.606C49.9715 139.515 49.6109 141.612 48.1688 143.291C46.7298 144.966 44.318 146.108 40.8296 146.34C40.3405 146.373 39.9174 146.003 39.8848 145.514C39.8522 145.024 40.2224 144.601 40.7115 144.569C43.8822 144.357 45.7833 143.343 46.822 142.134C47.8574 140.928 48.139 139.411 47.8446 137.959C47.5475 136.495 46.6719 135.151 45.471 134.354C44.2954 133.574 42.7864 133.299 41.1023 133.978L39.9415 134.446L39.8838 133.196C39.7696 130.719 38.7461 128.934 37.2755 127.734C35.7852 126.518 33.7866 125.865 31.7044 125.784C27.4608 125.618 23.3872 127.785 22.6202 131.556L22.4439 132.423L21.5763 132.25C18.4394 131.622 16.3012 132.235 14.9415 133.326C13.5678 134.428 12.8524 136.127 12.7812 137.929C12.7098 139.736 13.2924 141.557 14.3992 142.835C15.4823 144.085 17.0921 144.851 19.227 144.574C19.7131 144.511 20.1582 144.854 20.2214 145.34C20.2845 145.826 19.9417 146.272 19.4556 146.335C16.7103 146.691 14.5173 145.682 13.0574 143.997C11.621 142.339 10.9201 140.062 11.0072 137.859C11.0945 135.65 11.9797 133.426 13.8305 131.941C15.5467 130.564 17.9788 129.914 21.0974 130.367Z" fill="black"/>
<path d="M131.511 148.513C132.068 148.513 132.52 148.964 132.52 149.522C132.52 150.079 132.068 150.531 131.511 150.531H128.658C128.1 150.531 127.648 150.079 127.648 149.522C127.648 148.964 128.1 148.513 128.658 148.513H131.511Z" fill="black"/>
<path d="M119.202 133.728V159.926H145.241V133.728H119.202ZM147.26 159.926C147.26 161.041 146.356 161.944 145.241 161.944H119.202C118.087 161.944 117.184 161.041 117.184 159.926V133.728C117.184 132.613 118.087 131.709 119.202 131.709H145.241C146.356 131.709 147.26 132.613 147.26 133.728V159.926Z" fill="black"/>
<path d="M115.984 140.27H118.206V142.288H115.984C115.371 142.288 114.791 142.009 114.408 141.53L112.809 139.531L114.384 138.27L115.984 140.27Z" fill="black"/>
<path d="M152.794 138.75L152.459 140.76C152.297 141.733 151.455 142.446 150.469 142.446H145.578V140.428H150.469L150.804 138.418L152.794 138.75Z" fill="black"/>
<path d="M118.585 145.818V147.836H114.547V145.818H118.585Z" fill="black"/>
<path d="M148.948 145.976V147.994H145.453V145.976H148.948Z" fill="black"/>
<path d="M125.112 164.999V160.459H127.13V164.999C127.13 166.113 126.226 167.017 125.112 167.017H122.316V164.999H125.112Z" fill="black"/>
<path d="M125.428 128.655V133.194H127.446V128.655C127.446 127.541 126.543 126.637 125.428 126.637H122.633V128.655H125.428Z" fill="black"/>
<path d="M133.151 160.618V164.581H131.133V160.618H133.151Z" fill="black"/>
<path d="M133.467 133.194V129.073H131.449V133.194H133.467Z" fill="black"/>
<path d="M137.316 162.98V160.618H139.335V162.98L142.23 164.296L141.395 166.134L138.499 164.817C137.779 164.49 137.316 163.771 137.316 162.98Z" fill="black"/>
<path d="M137.637 130.674V133.353H139.655V130.674L142.551 129.357L141.716 127.52L138.82 128.836C138.099 129.164 137.637 129.882 137.637 130.674Z" fill="black"/>
<path d="M119.092 151.207V153.226H115.79L114.664 154.477L113.164 153.127L114.29 151.876C114.673 151.45 115.218 151.207 115.79 151.207H119.092Z" fill="black"/>
<path d="M150.997 151.207C151.937 151.207 152.752 151.856 152.964 152.772L153.259 154.05L151.292 154.504L150.997 153.226H145.578V151.207H150.997Z" fill="black"/>
<path d="M121.25 166.166C121.25 165.355 120.592 164.697 119.78 164.697C118.969 164.697 118.311 165.355 118.311 166.166C118.311 166.978 118.969 167.636 119.78 167.636V169.654C117.854 169.654 116.293 168.092 116.293 166.166C116.293 164.24 117.854 162.679 119.78 162.679C121.706 162.679 123.268 164.24 123.268 166.166C123.268 168.092 121.706 169.654 119.78 169.654V167.636C120.592 167.636 121.25 166.978 121.25 166.166Z" fill="black"/>
<path d="M121.566 127.487C121.566 128.299 120.908 128.957 120.097 128.957C119.285 128.957 118.628 128.299 118.628 127.487C118.628 126.676 119.285 126.018 120.097 126.018V124C118.171 124 116.609 125.561 116.609 127.487C116.609 129.413 118.171 130.975 120.097 130.975C122.023 130.975 123.584 129.413 123.584 127.487C123.584 125.561 122.023 124 120.097 124V126.018C120.908 126.018 121.566 126.676 121.566 127.487Z" fill="black"/>
<path d="M153.902 157.289C153.902 156.478 153.244 155.82 152.433 155.82C151.621 155.82 150.963 156.478 150.963 157.289C150.963 158.101 151.621 158.758 152.433 158.758V160.776C150.507 160.776 148.945 159.215 148.945 157.289C148.945 155.363 150.507 153.802 152.433 153.802C154.359 153.802 155.92 155.363 155.92 157.289C155.92 159.215 154.359 160.776 152.433 160.776V158.758C153.244 158.758 153.902 158.101 153.902 157.289Z" fill="black"/>
<path d="M153.269 136.365C153.269 135.553 152.611 134.895 151.8 134.895C150.988 134.895 150.331 135.553 150.331 136.365C150.331 137.176 150.988 137.834 151.8 137.834V139.852C149.874 139.852 148.312 138.291 148.312 136.365C148.313 134.438 149.874 132.877 151.8 132.877C153.726 132.877 155.287 134.438 155.287 136.365C155.287 138.291 153.726 139.852 151.8 139.852V137.834C152.611 137.834 153.269 137.176 153.269 136.365Z" fill="black"/>
<path d="M113.957 136.682C113.957 135.87 113.299 135.212 112.487 135.212C111.676 135.212 111.018 135.87 111.018 136.682C111.018 137.493 111.676 138.151 112.487 138.151V140.169C110.561 140.169 109 138.608 109 136.682C109 134.756 110.561 133.194 112.487 133.194C114.413 133.194 115.975 134.756 115.975 136.682C115.975 138.608 114.413 140.169 112.487 140.169V138.151C113.299 138.151 113.957 137.493 113.957 136.682Z" fill="black"/>
<path d="M145.343 166.166C145.343 165.355 144.686 164.697 143.874 164.697C143.063 164.697 142.405 165.355 142.405 166.166C142.405 166.978 143.063 167.636 143.874 167.636V169.654C141.948 169.654 140.387 168.092 140.387 166.166C140.387 164.24 141.948 162.679 143.874 162.679C145.8 162.679 147.362 164.24 147.362 166.166C147.362 168.092 145.8 169.654 143.874 169.654V167.636C144.686 167.636 145.343 166.978 145.343 166.166Z" fill="black"/>
<path d="M145.66 127.487C145.66 128.299 145.002 128.957 144.191 128.957C143.379 128.957 142.721 128.299 142.721 127.487C142.721 126.676 143.379 126.018 144.191 126.018V124C142.264 124 140.703 125.561 140.703 127.487C140.703 129.413 142.265 130.975 144.191 130.975C146.117 130.975 147.678 129.413 147.678 127.487C147.678 125.561 146.117 124 144.191 124V126.018C145.002 126.018 145.66 126.676 145.66 127.487Z" fill="black"/>
<path d="M114.273 155.704C114.273 154.892 113.615 154.235 112.804 154.235C111.992 154.235 111.335 154.892 111.335 155.704C111.335 156.515 111.992 157.173 112.804 157.173V159.191C110.878 159.191 109.316 157.63 109.316 155.704C109.316 153.778 110.878 152.216 112.804 152.216C114.73 152.216 116.291 153.778 116.291 155.704C116.291 157.63 114.73 159.191 112.804 159.191V157.173C113.615 157.173 114.273 156.515 114.273 155.704Z" fill="black"/>
<path d="M114.275 146.985C114.275 146.437 113.83 145.992 113.281 145.992C112.733 145.992 112.288 146.437 112.288 146.985C112.288 147.534 112.733 147.979 113.281 147.979V149.997L113.204 149.996C111.602 149.956 110.311 148.665 110.271 147.063L110.27 146.985C110.27 145.322 111.618 143.974 113.281 143.974L113.359 143.974C114.987 144.016 116.293 145.348 116.293 146.985L116.292 147.063C116.251 148.691 114.919 149.997 113.281 149.997V147.979C113.83 147.979 114.275 147.534 114.275 146.985Z" fill="black"/>
<path d="M152.318 146.668C152.318 146.12 151.873 145.675 151.324 145.675C150.776 145.675 150.331 146.12 150.331 146.668C150.331 147.217 150.776 147.662 151.324 147.662V149.68L151.247 149.679C149.645 149.639 148.354 148.348 148.313 146.746L148.312 146.668C148.312 145.005 149.661 143.656 151.324 143.656L151.402 143.657C153.03 143.699 154.336 145.031 154.336 146.668L154.335 146.746C154.294 148.374 152.962 149.68 151.324 149.68V147.662C151.873 147.662 152.318 147.217 152.318 146.668Z" fill="black"/>
<path d="M133.611 127.329C133.611 126.78 133.166 126.335 132.617 126.335C132.069 126.335 131.624 126.78 131.624 127.329C131.624 127.878 132.069 128.323 132.617 128.323V130.341L132.54 130.34C130.938 130.299 129.647 129.008 129.606 127.407L129.605 127.329C129.605 125.666 130.954 124.317 132.617 124.317L132.695 124.318C134.323 124.359 135.629 125.692 135.629 127.329L135.628 127.407C135.587 129.034 134.255 130.341 132.617 130.341V128.323C133.166 128.322 133.611 127.878 133.611 127.329Z" fill="black"/>
<path d="M132.978 166.325C132.978 165.776 132.533 165.331 131.985 165.331C131.436 165.331 130.991 165.776 130.991 166.325C130.991 166.874 131.436 167.318 131.985 167.318V169.336L131.907 169.336C130.305 169.295 129.014 168.004 128.974 166.402L128.973 166.325C128.973 164.661 130.321 163.313 131.985 163.313L132.062 163.314C133.69 163.355 134.996 164.687 134.996 166.325L134.995 166.402C134.954 168.03 133.622 169.336 131.985 169.336V167.318C132.533 167.318 132.978 166.874 132.978 166.325Z" fill="black"/>
<path d="M128.836 140.224C129.096 138.847 131.072 138.858 131.317 140.237L133.613 153.149C133.71 153.698 133.345 154.222 132.796 154.32C132.247 154.417 131.723 154.051 131.626 153.503L130.053 144.655L128.38 153.513C128.276 154.061 127.749 154.421 127.201 154.318C126.653 154.214 126.293 153.686 126.397 153.139L128.836 140.224Z" fill="black"/>
<path d="M135.57 153.326V140.486C135.57 139.929 136.022 139.477 136.579 139.477C137.137 139.477 137.588 139.929 137.588 140.486V153.326C137.588 153.883 137.137 154.335 136.579 154.335C136.022 154.335 135.57 153.883 135.57 153.326Z" fill="black"/>
<path d="M242.627 125.805V145.416H212.047V125.805H242.627ZM214.374 143.09H240.3V128.132H214.374V143.09Z" fill="black"/>
<path d="M246.449 130.126V140.929H240.965V138.602H244.123V132.453H240.965V130.126H246.449Z" fill="black"/>
<path d="M208.227 129.462V140.264H213.711V137.938H210.553V131.789H213.711V129.462H208.227Z" fill="black"/>
<path d="M250.272 133.949V136.276H244.289V133.949H250.272Z" fill="black"/>
<path d="M204.404 133.284V135.611H210.387V133.284H204.404Z" fill="black"/>
<path d="M214.707 143.256H217.366V155.044L222.318 157.382H232.365L237.476 155.034V143.921H240.135V156.739L232.947 160.041H221.722L214.707 156.729V143.256Z" fill="black"/>
<path d="M214.707 154.889H217.366V161.537H219.732L221.012 157.695L223.535 158.536L221.648 164.196H214.707V154.889Z" fill="black"/>
<path d="M240.133 154.889H237.474V161.537H235.274L233.994 157.695L231.471 158.536L233.358 164.196H240.133V154.889Z" fill="black"/>
<path d="M218.861 161.87C221.89 161.87 224.346 164.325 224.346 167.354V168.684H211.715V167.354C211.715 164.325 214.17 161.87 217.199 161.87H218.861ZM217.199 164.529C216.12 164.529 215.182 165.135 214.706 166.024H221.354C220.878 165.135 219.941 164.529 218.861 164.529H217.199Z" fill="black"/>
<path d="M237.31 161.537C240.339 161.537 242.795 163.993 242.795 167.022V168.351H230.164V167.022C230.164 163.993 232.62 161.537 235.648 161.537H237.31ZM235.648 164.196C234.569 164.196 233.631 164.802 233.156 165.692H239.803C239.328 164.802 238.39 164.196 237.31 164.196H235.648Z" fill="black"/>
<path d="M207.147 149.681C210.052 146.002 213.779 146.528 215.086 146.581L216.249 146.627L216.156 148.952L214.994 148.905C213.531 148.847 211.054 148.487 208.973 151.123L208.252 152.036L206.426 150.594L207.147 149.681Z" fill="black"/>
<path d="M213.447 150.223C214.013 150.186 214.531 150.255 214.942 150.32C215.398 150.392 215.659 150.445 215.916 150.455L217.078 150.501L216.985 152.827L215.823 152.78C215.387 152.762 214.907 152.67 214.579 152.618C214.206 152.559 213.896 152.525 213.597 152.545C213.092 152.578 212.441 152.769 211.626 153.788L210.899 154.697L209.082 153.243L209.809 152.334C210.988 150.861 212.22 150.303 213.447 150.223Z" fill="black"/>
<path d="M202.886 151.123C205.198 149.442 207.935 149.906 209.579 151.443C210.403 152.212 210.976 153.271 211.064 154.48C211.154 155.701 210.741 156.967 209.786 158.123L209.045 159.02L207.251 157.539L207.992 156.642C208.616 155.887 208.784 155.199 208.744 154.65C208.703 154.087 208.434 153.557 207.991 153.143C207.1 152.311 205.599 152.028 204.255 153.005L203.314 153.689L201.945 151.808L202.886 151.123Z" fill="black"/>
<path d="M248.857 149.567C245.952 145.887 242.225 146.414 240.918 146.466L239.755 146.513L239.848 148.838L241.01 148.791C242.473 148.733 244.95 148.373 247.031 151.009L247.752 151.922L249.578 150.48L248.857 149.567Z" fill="black"/>
<path d="M242.557 150.109C241.991 150.072 241.473 150.141 241.062 150.206C240.605 150.278 240.345 150.33 240.088 150.341L238.926 150.387L239.019 152.712L240.181 152.666C240.617 152.648 241.097 152.556 241.425 152.504C241.798 152.445 242.108 152.411 242.407 152.431C242.912 152.463 243.563 152.655 244.378 153.674L245.105 154.582L246.922 153.129L246.195 152.22C245.016 150.746 243.783 150.188 242.557 150.109Z" fill="black"/>
<path d="M253.118 151.009C250.805 149.328 248.069 149.792 246.425 151.328C245.601 152.098 245.028 153.157 244.94 154.365C244.85 155.587 245.263 156.853 246.218 158.009L246.959 158.906L248.753 157.424L248.012 156.527C247.388 155.772 247.22 155.085 247.26 154.536C247.301 153.973 247.57 153.443 248.013 153.028C248.904 152.196 250.405 151.913 251.749 152.891L252.69 153.575L254.059 151.693L253.118 151.009Z" fill="black"/>
<path d="M221.853 133.284C221.853 132.366 221.109 131.622 220.191 131.622C219.274 131.622 218.529 132.366 218.529 133.284C218.529 134.202 219.274 134.946 220.191 134.946V136.94C218.172 136.94 216.535 135.303 216.535 133.284C216.535 131.265 218.172 129.628 220.191 129.628C222.211 129.628 223.848 131.265 223.848 133.284C223.848 135.303 222.211 136.94 220.191 136.94V134.946C221.109 134.946 221.853 134.202 221.853 133.284Z" fill="black"/>
<path d="M228.833 119.324C228.833 118.59 228.238 117.994 227.504 117.994C226.769 117.994 226.174 118.59 226.174 119.324C226.174 120.058 226.769 120.653 227.504 120.653V122.648C225.668 122.648 224.18 121.16 224.18 119.324C224.18 117.488 225.668 116 227.504 116C229.339 116 230.827 117.488 230.827 119.324C230.827 121.16 229.339 122.648 227.504 122.648V120.653C228.238 120.653 228.833 120.058 228.833 119.324Z" fill="black"/>
<path d="M236.478 133.284C236.478 132.366 235.734 131.622 234.816 131.622C233.899 131.622 233.154 132.366 233.154 133.284C233.154 134.202 233.899 134.946 234.816 134.946V136.94C232.797 136.94 231.16 135.303 231.16 133.284C231.16 131.265 232.797 129.628 234.816 129.628C236.836 129.628 238.473 131.265 238.473 133.284C238.473 135.303 236.836 136.94 234.816 136.94V134.946C235.734 134.946 236.478 134.202 236.478 133.284Z" fill="black"/>
<path d="M232.492 136.94V141.926H221.855V136.94H232.492ZM223.85 139.932H230.498V138.935H223.85V139.932Z" fill="black"/>
<path d="M220.855 150.236V143.754H223.182V150.236C223.182 150.511 223.405 150.735 223.681 150.735H231.326C231.601 150.735 231.824 150.511 231.824 150.236V143.754H234.151V150.236C234.151 151.796 232.886 153.061 231.326 153.061H223.681C222.12 153.061 220.855 151.796 220.855 150.236Z" fill="black"/>
<path d="M226.34 121.318H228.667V127.135H226.34V121.318Z" fill="black"/>
</svg>
