<svg width="221" height="154" viewBox="0 0 221 154" fill="none" xmlns="http://www.w3.org/2000/svg">
<circle cx="200.789" cy="133.789" r="17.6562" stroke="black" stroke-width="3.42583"/>
<path d="M200.656 116.528V120.217" stroke="black" stroke-width="0.790577" stroke-linecap="square"/>
<path d="M218.184 133.759L214.494 133.765" stroke="black" stroke-width="0.790577" stroke-linecap="square"/>
<path d="M200.656 147.36V151.05" stroke="black" stroke-width="0.790577" stroke-linecap="square"/>
<path d="M186.824 133.81L183.135 133.816" stroke="black" stroke-width="0.790577" stroke-linecap="square"/>
<circle cx="200.789" cy="133.789" r="1.71292" fill="black"/>
<path d="M200.789 123.775V133.657" stroke="black" stroke-width="0.790577" stroke-linecap="square"/>
<path d="M207.773 135.897L200.616 133.81" stroke="black" stroke-width="0.790577" stroke-linecap="square"/>
<path d="M116.942 139.959V144.498L113.029 145.907" stroke="black" stroke-width="1.56522" stroke-linecap="round"/>
<path d="M121.481 134.324V128.376C121.481 127.512 120.78 126.811 119.916 126.811H87.9851C87.1207 126.811 86.4199 127.512 86.4199 128.376V147.785C86.4199 148.649 87.1207 149.35 87.9851 149.35H107.297" stroke="black" stroke-width="1.87826" stroke-linecap="round"/>
<path d="M86.4199 124.62V118.985C86.4199 118.12 87.1207 117.42 87.9851 117.42H101.759C102.623 117.42 103.324 118.12 103.324 118.985V120.393C103.324 120.566 103.464 120.707 103.637 120.707H119.759C120.624 120.707 121.324 121.407 121.324 122.272V124.62" stroke="black" stroke-width="1.87826" stroke-linecap="round"/>
<circle cx="116.941" cy="144.498" r="7.98261" stroke="black" stroke-width="1.87826"/>
<path d="M10.1635 143.49C7.58767 143.103 3.16177 141.807 2.4787 136.523C2.08843 133.505 3.46219 127.421 12.0794 127.235C11.1427 124.99 11.2965 118.4 18.1675 117.482C22.1626 116.948 28.1429 119.804 25.8949 127.235C30.0318 126.77 38.0246 127.978 36.9006 136.523C36.8226 138.071 34.9429 143.49 28.4899 143.49" stroke="black" stroke-width="1.29059" stroke-linecap="round"/>
<circle cx="19.3259" cy="143.877" r="9.03415" stroke="black" stroke-width="1.29059"/>
<path d="M19.1973 137.811V144.264L24.3596 142.586" stroke="black" stroke-width="0.774356" stroke-linecap="round"/>
<path d="M19.1978 144.393L15.4551 149.684" stroke="black" stroke-width="0.258119" stroke-linecap="round"/>
<path d="M201.266 79.483V81.3421" stroke="black" stroke-width="0.619718" stroke-linecap="round"/>
<path d="M201.266 82.5041V83.8984" stroke="black" stroke-width="0.619718" stroke-linecap="round"/>
<path d="M193.828 91.0252C195.713 90.5862 199.839 88.9027 201.265 85.6801C201.962 87.3585 204.472 90.7773 208.934 91.0252" stroke="black" stroke-width="0.619718" stroke-linecap="round"/>
<path d="M201.266 85.99V89.1661C202.479 90.2247 205.232 92.4661 206.533 92.9618" stroke="black" stroke-width="0.619718" stroke-linecap="round"/>
<path d="M194.525 68.328C197.082 67.9665 203.356 67.4604 208.004 68.328" stroke="black" stroke-width="0.619718" stroke-linecap="round"/>
<path d="M200.707 77.639C194.675 71.8899 193.393 65.9702 193.519 63.6801H209.167C209.167 69.4558 204.59 75.1354 202.029 77.6555C201.783 77.8978 201.774 78.2969 202.01 78.5498C209.176 86.2442 209.395 90.6815 209.167 92.8844C201.978 93.752 195.74 93.2459 193.519 92.8844C193.226 86.2494 197.8 81.4086 200.719 78.5464C200.974 78.2967 200.965 77.8851 200.707 77.639Z" stroke="black" stroke-width="0.619718" stroke-linecap="round"/>
<rect x="190.859" y="59.8589" width="21.1213" height="2.68465" rx="0.490211" stroke="black" stroke-width="0.878733"/>
<rect x="190.859" y="94.2533" width="21.1213" height="2.83958" rx="0.490211" stroke="black" stroke-width="0.878733"/>
<path d="M192.512 62.7506C192.144 65.4796 193.025 72.0291 199.208 77.3036C199.682 77.7074 199.678 78.4586 199.204 78.8623C195.984 81.6083 191.302 87.4638 192.59 94.1238" stroke="black" stroke-width="0.774648" stroke-linecap="round"/>
<path d="M210.173 62.828C210.542 65.5571 209.661 72.1065 203.477 77.3811C203.004 77.7849 203.008 78.5361 203.481 78.9398C206.702 81.6858 211.383 87.5413 210.096 94.2013" stroke="black" stroke-width="0.774648" stroke-linecap="round"/>
<circle cx="106.213" cy="78.5565" r="14.9596" stroke="black" stroke-width="1.32386"/>
<path d="M106.216 69.2895V78.2918L100.391 84.1167" stroke="black" stroke-width="1.32386" stroke-linecap="round"/>
<path d="M99.0232 91.7951L96.6027 96.6244" stroke="black" stroke-width="1.32386" stroke-linecap="round"/>
<path d="M113.281 91.7951L115.702 96.6244" stroke="black" stroke-width="1.32386" stroke-linecap="round"/>
<path d="M97.8379 65.9273L96.166 62.237L98.0954 61.3629L99.7673 65.0532L97.8379 65.9273Z" stroke="black" stroke-width="1.05909" stroke-linecap="round"/>
<path d="M114.498 65.9108L116.17 62.2205L114.241 61.3464L112.569 65.0367L114.498 65.9108Z" stroke="black" stroke-width="1.05909" stroke-linecap="round"/>
<path d="M95.0084 60.8179L97.9276 59.483C98.3523 59.289 98.8539 59.4727 99.0534 59.8949C99.2551 60.3218 99.0717 60.8308 98.6442 61.0313L95.7372 62.3929C95.3035 62.5958 94.7874 62.4088 94.5841 61.9752C94.3794 61.5386 94.5699 61.0186 95.0084 60.8179Z" stroke="black" stroke-width="1.05909"/>
<path d="M117.443 60.8323L114.524 59.4973C114.099 59.3033 113.597 59.4871 113.398 59.9092C113.196 60.3361 113.379 60.8452 113.807 61.0456L116.714 62.4072C117.148 62.6101 117.664 62.4232 117.867 61.9895C118.072 61.5529 117.881 61.033 117.443 60.8323Z" stroke="black" stroke-width="1.05909"/>
<path d="M89.6656 72.5992C88.4739 74.4526 87.5471 79.8804 89.1362 84.3815" stroke="black" stroke-width="1.05909" stroke-linecap="round"/>
<path d="M87.4139 70.6134C85.8072 73.154 84.5575 80.5944 86.7002 86.7645" stroke="black" stroke-width="1.05909" stroke-linecap="round"/>
<path d="M85.2707 66.9941C82.9432 70.5971 81.0638 81.1925 84.0465 90.0192" stroke="black" stroke-width="1.05909" stroke-linecap="round"/>
<path d="M123.146 72.6526C124.259 74.5545 124.956 80.0166 123.179 84.4467" stroke="black" stroke-width="1.05909" stroke-linecap="round"/>
<path d="M125.478 70.7634C126.977 73.3694 127.912 80.8558 125.511 86.9301" stroke="black" stroke-width="1.05909" stroke-linecap="round"/>
<path d="M127.772 67.2376C129.945 70.9354 131.377 81.6006 128.025 90.2938" stroke="black" stroke-width="1.05909" stroke-linecap="round"/>
<circle cx="18.333" cy="80.8664" r="14.7539" stroke="black" stroke-width="1.43941"/>
<path d="M4.36095 68.9404L3.56687 67.5291C2.38114 65.4218 3.12825 62.7523 5.23557 61.5665C7.34289 60.3808 10.0124 61.1279 11.1982 63.2352L11.9922 64.6465" stroke="black" stroke-width="1.43941"/>
<path d="M32.3207 68.9404L33.1148 67.5291C34.3005 65.4218 33.5534 62.7523 31.4461 61.5665C29.3387 60.3808 26.6692 61.1279 25.4835 63.2352L24.6894 64.6465" stroke="black" stroke-width="1.43941"/>
<path d="M18.2129 70.9105V80.9864L25.17 84.7048" stroke="black" stroke-width="1.43941" stroke-linecap="round"/>
<path d="M9.81745 92.9814L7.05859 97.4196" stroke="black" stroke-width="1.43941" stroke-linecap="round"/>
<path d="M26.8486 92.9814L29.6074 97.4196" stroke="black" stroke-width="1.43941" stroke-linecap="round"/>
<path d="M199.645 21.3245V13.4225" stroke="black" stroke-width="0.912395" stroke-linecap="round"/>
<path d="M207.262 23.0239H201.148" stroke="black" stroke-width="0.912395" stroke-linecap="round"/>
<path d="M198.722 24.1936L191.25 31.9565" stroke="black" stroke-width="0.416794" stroke-linecap="round"/>
<path d="M199.754 5.31391C209.068 5.31418 216.656 13.2788 216.656 23.1518C216.656 33.0246 209.068 40.9894 199.754 40.9897C190.44 40.9897 182.851 33.0247 182.851 23.1518C182.851 13.2787 190.44 5.31391 199.754 5.31391Z" stroke="black" stroke-width="0.860681"/>
<path d="M199.753 7.58755C207.896 7.58755 214.553 14.5248 214.553 23.151C214.553 31.7775 207.897 38.7155 199.753 38.7155C191.609 38.7153 184.954 31.7773 184.954 23.151C184.954 14.5249 191.61 7.58774 199.753 7.58755Z" stroke="black" stroke-width="1.32957"/>
<path d="M199.668 7.77216V10.4062" stroke="black" stroke-width="1.27735" stroke-linecap="square"/>
<path d="M199.584 35.6418V38.2758" stroke="black" stroke-width="1.27735" stroke-linecap="square"/>
<path d="M214.537 23.0664H211.903" stroke="black" stroke-width="1.27735" stroke-linecap="square"/>
<path d="M187.604 23.0664H184.97" stroke="black" stroke-width="1.27735" stroke-linecap="square"/>
<path d="M205.957 34.962L207.098 36.9162" stroke="black" stroke-width="0.912395" stroke-linecap="square"/>
<path d="M192.361 9.38655L193.466 11.2558" stroke="black" stroke-width="0.912395" stroke-linecap="square"/>
<path d="M193.189 34.7437L192.158 36.7581" stroke="black" stroke-width="0.912395" stroke-linecap="square"/>
<path d="M207.01 9.47155L206.043 11.2559" stroke="black" stroke-width="0.912395" stroke-linecap="square"/>
<path d="M210.801 30.0339L212.53 31.2995" stroke="black" stroke-width="0.912395" stroke-linecap="square"/>
<path d="M187.18 14.7396L188.794 15.9291" stroke="black" stroke-width="0.912395" stroke-linecap="square"/>
<path d="M210.555 15.87L212.329 14.6546" stroke="black" stroke-width="0.912395" stroke-linecap="square"/>
<path d="M186.934 31.3342L188.786 30.0338" stroke="black" stroke-width="0.912395" stroke-linecap="square"/>
<circle cx="1.78433" cy="1.78433" r="1.32813" transform="matrix(-1 0 0 1 201.514 21.3245)" stroke="black" stroke-width="0.912395"/>
<path d="M198.334 5.27141V3.33068H199.79H201.245V5.27141" stroke="black" stroke-width="0.833589" stroke-linecap="round"/>
<rect x="196.809" y="0.836371" width="6.15305" height="2.46566" rx="0.833589" stroke="black" stroke-width="0.833589"/>
<path d="M198.141 1.58402V2.36031" stroke="black" stroke-width="0.416794" stroke-linecap="round"/>
<path d="M199.303 1.58402V2.36031" stroke="black" stroke-width="0.416794" stroke-linecap="round"/>
<path d="M200.469 1.58402V2.36031" stroke="black" stroke-width="0.416794" stroke-linecap="round"/>
<path d="M201.635 1.58402V2.36031" stroke="black" stroke-width="0.416794" stroke-linecap="round"/>
<path d="M106.361 12.9898V22.4858H113.097" stroke="black" stroke-width="0.831081" stroke-linecap="square"/>
<circle cx="98.4124" cy="33.3068" r="0.441673" fill="black"/>
<circle cx="93.7737" cy="28.6692" r="0.441673" fill="black"/>
<circle cx="91.5647" cy="21.6024" r="0.441673" fill="black"/>
<circle cx="93.553" cy="13.8732" r="0.441673" fill="black"/>
<circle cx="97.969" cy="9.01477" r="0.441673" fill="black"/>
<circle cx="106.362" cy="7.02724" r="0.441673" fill="black"/>
<circle cx="113.428" cy="9.01477" r="0.441673" fill="black"/>
<circle cx="118.287" cy="13.8732" r="0.441673" fill="black"/>
<circle cx="120.274" cy="21.6024" r="0.441673" fill="black"/>
<circle cx="118.508" cy="28.0067" r="0.441673" fill="black"/>
<circle cx="113.207" cy="33.3068" r="0.441673" fill="black"/>
<circle cx="106.362" cy="35.2943" r="0.441673" fill="black"/>
<path d="M105.919 2.59017C108.96 2.59017 111.828 3.33135 114.353 4.64193L113.729 5.56673C111.385 4.37189 108.731 3.69857 105.919 3.69857C96.4083 3.6989 88.6984 11.4086 88.6982 20.9193C88.6982 30.4301 96.4082 38.1406 105.919 38.1409C115.43 38.1409 123.141 30.4303 123.141 20.9193C123.141 15.9547 121.039 11.4819 117.678 8.33919L118.305 7.40853C121.958 10.7592 124.249 15.5714 124.249 20.9193L124.243 21.3929C123.992 31.2972 115.884 39.2493 105.919 39.2493L105.446 39.2435C95.542 38.9925 87.5898 30.8841 87.5898 20.9193C87.59 10.7966 95.7963 2.5905 105.919 2.59017Z" fill="black"/>
<circle cx="105.92" cy="20.9196" r="20.0845" stroke="black" stroke-width="0.831081"/>
<circle cx="20.419" cy="20.2797" r="1.25877" stroke="black" stroke-width="1.3986"/>
<path d="M21.1172 19.1609L31.6068 9.65034" stroke="black" stroke-width="1.3986" stroke-linecap="round"/>
<path d="M21.5371 21.5384L28.5302 28.5315" stroke="black" stroke-width="1.3986" stroke-linecap="round"/>
<path d="M20.418 36.0839V40.4196" stroke="black" stroke-width="0.83916" stroke-linecap="round"/>
<path d="M4.75586 20.2886L0.420288 20.2527" stroke="black" stroke-width="0.83916" stroke-linecap="round"/>
<path d="M34.1953 12.9609L38.008 10.8964" stroke="black" stroke-width="0.27972" stroke-linecap="round"/>
<path d="M11.9668 33.609L9.62727 37.2594" stroke="black" stroke-width="0.27972" stroke-linecap="round"/>
<path d="M12.2461 7.0569L9.98352 3.35836" stroke="black" stroke-width="0.27972" stroke-linecap="round"/>
<path d="M33.8867 28.4231L37.614 30.638" stroke="black" stroke-width="0.27972" stroke-linecap="round"/>
<path d="M20.418 0.41958V4.7553" stroke="black" stroke-width="0.83916" stroke-linecap="round"/>
<path d="M40.418 20.5836L36.0824 20.5477" stroke="black" stroke-width="0.83916" stroke-linecap="round"/>
<path d="M2.83398 29.9427L6.64663 27.8782" stroke="black" stroke-width="0.27972" stroke-linecap="round"/>
<path d="M31.2109 3.58265L28.8714 7.233" stroke="black" stroke-width="0.27972" stroke-linecap="round"/>
<path d="M30.8574 37.4801L28.5949 33.7816" stroke="black" stroke-width="0.27972" stroke-linecap="round"/>
<path d="M3.22656 10.2038L6.95385 12.4187" stroke="black" stroke-width="0.27972" stroke-linecap="round"/>
</svg>
