<svg width="260" height="178" viewBox="0 0 260 178" fill="none" xmlns="http://www.w3.org/2000/svg">
<path d="M29.7617 24.5713H24.6347C22.6359 24.5713 21.0156 26.1916 21.0156 28.1903V41.7618C21.0156 43.7605 22.6359 45.3808 24.6347 45.3808H46.6505C48.6493 45.3808 50.2696 43.7605 50.2696 41.7618V28.1903C50.2696 26.1916 48.6493 24.5713 46.6505 24.5713H41.8251" stroke="#0C0966" stroke-width="2.4127" stroke-linecap="round"/>
<path d="M35.793 37.5395V14.9204" stroke="#0C0966" stroke-width="2.4127" stroke-linecap="round"/>
<path d="M29.7617 19.7461L35.3383 13.333C35.5788 13.0565 36.0082 13.0565 36.2486 13.333L41.8252 19.7461" stroke="#0C0966" stroke-width="2.4127" stroke-linecap="round"/>
<path d="M222.381 162.66V150.197" stroke="#0C0966" stroke-width="2.69477" stroke-linecap="round"/>
<path d="M217.326 153.228L222.379 148.176L227.432 153.228" stroke="#0C0966" stroke-width="2.69477" stroke-linecap="round"/>
<path d="M215.978 157.944C203.178 159.629 201.83 148.85 210.585 146.154C209.238 132.681 231.133 127.965 234.164 144.806C240.904 143.797 245.617 158.28 228.775 158.28" stroke="#0C0966" stroke-width="2.69477" stroke-linecap="round"/>
<path d="M130.684 154.619V132.603" stroke="#0C0966" stroke-width="2.4127" stroke-linecap="round"/>
<path d="M124.049 138.635L130.257 132.427C130.493 132.191 130.875 132.191 131.11 132.427L137.319 138.635" stroke="#0C0966" stroke-width="2.4127" stroke-linecap="round"/>
<path d="M115 155.825V162.46H146.063V155.825" stroke="#0C0966" stroke-width="2.4127" stroke-linecap="round"/>
<path d="M24.4127 133H38.4436C39.1124 133 39.7511 133.278 40.2074 133.766L47.2876 141.352C47.7046 141.799 47.9365 142.387 47.9365 142.999V163.159C47.9365 164.491 46.8563 165.571 45.5238 165.571H24.4127C23.0802 165.571 22 164.491 22 163.159V135.413C22 134.08 23.0802 133 24.4127 133Z" stroke="#0C0966" stroke-width="2.4127" stroke-linecap="round"/>
<path d="M38.8887 133.603V139.635C38.8887 140.967 39.9689 142.047 41.3014 142.047H47.0315" stroke="#0C0966" stroke-width="2.4127" stroke-linecap="round"/>
<path d="M28.6348 159.841H41.3014" stroke="#0C0966" stroke-width="2.4127" stroke-linecap="round"/>
<path d="M34.9688 155.921V145.063" stroke="#0C0966" stroke-width="2.4127" stroke-linecap="round"/>
<path d="M30.4434 148.984L34.5117 144.645C34.7556 144.384 35.1708 144.391 35.4057 144.66L39.1894 148.984" stroke="#0C0966" stroke-width="2.4127" stroke-linecap="round"/>
<path d="M237.238 29.6825V15.8698C237.238 14.8372 236.401 14 235.368 14H212.87C211.837 14 211 14.8372 211 15.8698V38.3683C211 39.4009 211.837 40.2381 212.87 40.2381H230.603" stroke="#0C0966" stroke-width="1.80952" stroke-linecap="round"/>
<path d="M234.523 36.0157L236.936 33.603M236.936 33.603L239.349 36.0157M236.936 33.603V39.9364" stroke="#0C0966" stroke-width="1.80952" stroke-linecap="round"/>
<path d="M211.602 32.3964L216.988 25.8131C217.011 25.7855 217.052 25.7834 217.077 25.8086L223.017 31.748C223.041 31.7726 223.081 31.7714 223.104 31.7454L230.26 23.6959C230.282 23.6708 230.32 23.6687 230.345 23.6912L236.633 29.3805" stroke="#0C0966" stroke-width="1.80952" stroke-linecap="round"/>
<circle cx="236.633" cy="36.6188" r="6.63492" stroke="#0C0966" stroke-width="1.80952"/>
<path d="M224.785 22.7459C224.785 23.9118 223.84 24.857 222.674 24.857C221.508 24.857 220.562 23.9118 220.562 22.7459C220.562 21.5799 221.508 20.6348 222.674 20.6348C223.84 20.6348 224.785 21.5799 224.785 22.7459Z" fill="#0C0966"/>
<path d="M239.46 86.6667V75.8698C239.46 74.8372 238.623 74 237.59 74H210.87C209.837 74 209 74.8372 209 75.8698V97.7651C209 98.7978 209.837 99.6349 210.87 99.6349H226.794" stroke="#0C0966" stroke-width="1.80952" stroke-linecap="round"/>
<path d="M209 95.4126H225.889" stroke="#0C0966" stroke-width="1.80952" stroke-linecap="round"/>
<path d="M220.158 91.0828V80.1365C220.158 80.09 220.209 80.061 220.249 80.0843L229.42 85.4095C229.459 85.4325 229.46 85.4893 229.421 85.5131L220.25 91.1342C220.21 91.1588 220.158 91.1299 220.158 91.0828Z" stroke="#0C0966" stroke-width="1.80952" stroke-linecap="round"/>
<path d="M234.031 95.1111L236.444 93M236.444 93L238.857 95.1111M236.444 93V99.0317" stroke="#0C0966" stroke-width="1.80952" stroke-linecap="round"/>
<circle cx="236.143" cy="95.714" r="6.63492" stroke="#0C0966" stroke-width="1.80952"/>
<path d="M127.967 100.048L130.379 97.9365M130.379 97.9365L132.792 100.048M130.379 97.9365V103.968" stroke="#0C0966" stroke-width="1.80952" stroke-linecap="round"/>
<circle cx="130.079" cy="100.651" r="6.63492" stroke="#0C0966" stroke-width="1.80952"/>
<path d="M118.316 81.349V101.555C118.316 101.888 118.586 102.159 118.92 102.159H122.84M118.316 78.6347V76.5236C118.316 76.1905 118.586 75.9204 118.92 75.9204H135.85C136.016 75.9204 136.175 75.9888 136.289 76.1094L141.072 81.1746C141.178 81.2866 141.237 81.4348 141.237 81.5888V101.555C141.237 101.888 140.967 102.159 140.634 102.159H137.015" stroke="#0C0966" stroke-width="1.80952" stroke-linecap="round"/>
<path d="M135.809 76.5239V81.0477C135.809 81.3809 136.079 81.6509 136.412 81.6509H140.936" stroke="#0C0966" stroke-width="1.80952" stroke-linecap="round"/>
<path d="M138.825 77.4286V72.6032C138.825 72.2701 138.555 72 138.222 72H115.603C115.27 72 115 72.2701 115 72.6032V99.1429C115 99.476 115.27 99.746 115.603 99.746H118.016" stroke="#0C0966" stroke-width="1.80952" stroke-linecap="round"/>
<path d="M124.348 84.3652H134.602" stroke="#0C0966" stroke-width="1.80952" stroke-linecap="round"/>
<path d="M124.348 88.2856H134.602" stroke="#0C0966" stroke-width="1.80952" stroke-linecap="round"/>
<path d="M130.492 38.0318V29.5874" stroke="#0C0966" stroke-width="1.80952"/>
<path d="M126.873 32.9049L130.492 29.5874L134.111 32.9049" stroke="#0C0966" stroke-width="1.80952" stroke-linecap="round"/>
<path d="M113 32.9048V14.8095C113 13.8101 113.81 13 114.81 13H121.857C123.672 13 125.367 13.9071 126.373 15.4173L127.552 17.1846C128.447 18.527 129.953 19.3333 131.567 19.3333H140.143C142.142 19.3333 143.762 20.9536 143.762 22.9524V38.3333C143.762 40.3321 142.142 41.9524 140.143 41.9524H118.713C116.218 41.9524 114.471 39.4862 115.299 37.1321L118.341 28.4875C118.935 26.7974 120.532 25.6667 122.324 25.6667H138.937" stroke="#0C0966" stroke-width="1.80952"/>
<path d="M21 90.0791V99.6696C21 102.035 22.9174 103.952 25.2825 103.952H48.0825C50.4477 103.952 52.3651 102.035 52.3651 99.6696V90.0791" stroke="#0C0966" stroke-width="2.4127" stroke-linecap="round"/>
<path d="M32.7626 85.0127V96.9556C32.7626 96.9889 32.7896 97.0159 32.8229 97.0159H40.5435C40.5768 97.0159 40.6038 96.9889 40.6038 96.9556V85.0127C40.6038 84.9794 40.6308 84.9524 40.6641 84.9524H45.893C45.9458 84.9524 45.9731 84.8893 45.9369 84.8508L36.7272 75.0468C36.7033 75.0214 36.6631 75.0214 36.6392 75.0468L27.4294 84.8508C27.3933 84.8893 27.4206 84.9524 27.4734 84.9524H32.7022C32.7356 84.9524 32.7626 84.9794 32.7626 85.0127Z" fill="#0C0966"/>
</svg>
