<svg width="296" height="220" viewBox="0 0 296 220" fill="none" xmlns="http://www.w3.org/2000/svg">
<rect x="37.1388" y="23.354" width="34.1864" height="23.851" rx="5.57453" stroke="#03045E" stroke-width="1.59007"/>
<path d="M74.5625 39.2821V32.1415C74.5625 31.2868 74.9533 30.479 75.6234 29.9485L80.5221 26.0703C81.0162 25.6791 81.628 25.4663 82.2582 25.4663H86.051C87.5957 25.4663 88.848 26.7186 88.848 28.2633V43.3973C88.848 44.942 87.5957 46.1943 86.051 46.1943H82.2977C81.6434 46.1943 81.0098 45.9649 80.5072 45.546L75.5689 41.4308C74.9312 40.8994 74.5625 40.1122 74.5625 39.2821Z" stroke="#03045E" stroke-width="1.39849" stroke-linecap="round"/>
<path d="M76.3594 38.4189V33.0636C76.3594 32.4227 76.6524 31.8169 77.155 31.419L80.8289 28.5105C81.1995 28.2171 81.6583 28.0575 82.1309 28.0575H84.9754C86.1339 28.0575 87.0731 28.9966 87.0731 30.1551V41.5052C87.0731 42.6637 86.1339 43.6028 84.9754 43.6028H82.1606C81.6698 43.6028 81.1947 43.4308 80.8177 43.1166L77.1141 40.0304C76.6359 39.6318 76.3594 39.0414 76.3594 38.4189Z" fill="#CDFF71"/>
<circle cx="62.7691" cy="31.3158" r="3.34518" fill="#CDFF71" stroke="#03045E" stroke-width="1.59007"/>
<path d="M85.0391 36.9423V45.8268" stroke="#03045E" stroke-width="1.31623" stroke-linecap="round"/>
<rect x="41.5803" y="39.0206" width="16.4619" height="4.4896" rx="0.748267" fill="#CDFF71" stroke="#03045E" stroke-width="1.49653"/>
<path d="M231.262 165.009H248.96C250.686 164.886 254.324 165.934 254.324 170.374V176.109" stroke="#03045E" stroke-width="1.5011" stroke-linecap="round"/>
<path d="M254.328 178.699V190.354" stroke="#03045E" stroke-width="1.5011" stroke-linecap="round"/>
<path d="M226.384 165.194H218.995C217.145 165.194 214 166.674 214 170.004V189.429C214 191.834 215.739 194.053 218.995 194.053H243.414" stroke="#03045E" stroke-width="1.5011" stroke-linecap="round"/>
<path d="M239.099 178.694C240.099 179.272 240.099 180.716 239.099 181.294L231.702 185.564C230.701 186.142 229.45 185.42 229.45 184.264L229.45 175.723C229.45 174.568 230.701 173.846 231.702 174.423L239.099 178.694Z" fill="#CDFF71" stroke="#03045E" stroke-width="1.5011"/>
<path d="M254.328 174.259L266.538 167.21V191.648L254.328 185.359" stroke="#03045E" stroke-width="1.5011" stroke-linecap="round"/>
<path d="M246.93 202.378V188.134L258.029 197.198H251.185L246.93 202.378Z" fill="#CDFF71" stroke="#03045E" stroke-width="1.5011" stroke-linecap="round"/>
<path d="M244.332 182.933L245.613 185.153" stroke="#03045E" stroke-width="1.5011" stroke-linecap="round"/>
<path d="M250.512 183.128L249.598 185.523" stroke="#03045E" stroke-width="1.5011" stroke-linecap="round"/>
<path d="M241.367 187.579L243.587 188.859" stroke="#03045E" stroke-width="1.5011" stroke-linecap="round"/>
<path d="M256.211 175.642L264.85 170.655V188.293L256.211 184.333V175.642Z" fill="#CDFF71"/>
<path d="M262.785 169.388V181.538" stroke="#03045E" stroke-width="1.43983" stroke-linecap="round"/>
<path d="M74.9627 163.328V157.844C74.9627 156.273 73.6896 155 72.1192 155H48.5584C46.9879 155 45.7148 156.273 45.7148 157.844V173.889M45.7148 184.248V200.091C45.7148 201.661 46.9879 202.934 48.5584 202.934H63.7917M74.9627 177.139V188.107" stroke="#03045E" stroke-width="1.35388" stroke-linecap="round"/>
<rect x="38.6769" y="176.8" width="16.9261" height="6.36432" rx="1.35417" fill="#CDFF71" stroke="#03045E" stroke-width="1.35388"/>
<path d="M64.2141 197.247L60.3803 187.701C58.7441 183.842 63.187 182.42 64.4425 186.279L66.4229 191.56C67.0893 190.267 69.7886 189.463 70.8651 191.56C71.8054 190.466 73.664 189.311 74.8579 191.56C75.5768 189.732 79.4359 188.513 79.4359 193.794C84.1074 204.559 72.0408 209.23 67.6928 205.778C62.1682 201.39 58.3124 199.278 56.6875 198.466C57.9874 194.566 62.2469 196.028 64.2141 197.247Z" fill="#CDFF71"/>
<path d="M67.2608 193.794L66.4229 191.56M66.4229 191.56L64.4425 186.279C63.187 182.42 58.7441 183.842 60.3803 187.701L64.2141 197.247C62.2469 196.028 57.9874 194.566 56.6875 198.466C58.3124 199.278 62.1682 201.39 67.6928 205.778C72.0408 209.23 84.1074 204.559 79.4359 193.794C79.4359 188.513 75.5768 189.732 74.8579 191.56M66.4229 191.56C67.0893 190.267 69.7886 189.463 70.8651 191.56M71.3114 193.794C71.3114 192.83 71.1419 192.099 70.8651 191.56M70.8651 191.56C71.8054 190.466 73.664 189.311 74.8579 191.56M75.5768 193.794C75.3892 192.825 75.1424 192.096 74.8579 191.56" stroke="#03045E" stroke-width="1.35388" stroke-linecap="round"/>
<path d="M58.6894 191.103L57.3555 192.372" stroke="#03045E" stroke-width="1.35388" stroke-linecap="round"/>
<path d="M57.4889 188.31L55.6751 188.31" stroke="#03045E" stroke-width="1.35388" stroke-linecap="round"/>
<path d="M69.5946 188.31L67.6552 188.31" stroke="#03045E" stroke-width="1.35388" stroke-linecap="round"/>
<path d="M68.4666 183.958L67.1946 184.983" stroke="#03045E" stroke-width="1.35388" stroke-linecap="round"/>
<path d="M65.8392 180.949L64.8722 182.335" stroke="#03045E" stroke-width="1.35388" stroke-linecap="round"/>
<path d="M59.4378 180.197L60.2251 181.706" stroke="#03045E" stroke-width="1.35388" stroke-linecap="round"/>
<path d="M56.0599 184.334L57.6381 184.728" stroke="#03045E" stroke-width="1.35388" stroke-linecap="round"/>
<rect x="64.2668" y="166.239" width="14.4887" height="10.0203" rx="1.35417" stroke="#03045E" stroke-width="1.35388"/>
<path d="M79.4336 169.014L85.1207 165.817V176.733L79.4336 173.483" stroke="#03045E" stroke-width="1.35388" stroke-linecap="round"/>
<path d="M57.9062 159.062H62.3747" stroke="#03045E" stroke-width="1.35388" stroke-linecap="round"/>
<circle cx="55.8671" cy="159.062" r="0.812442" fill="#03045E"/>
<path d="M49.1719 173.28H57.4994" stroke="#03045E" stroke-width="1.35388" stroke-linecap="round"/>
<path d="M49.1719 170.03H53.6403" stroke="#03045E" stroke-width="1.35388" stroke-linecap="round"/>
<rect x="65.8359" y="167.787" width="11.2823" height="6.76938" fill="#CDFF71"/>
<line x1="67.3381" y1="167.034" x2="67.3381" y2="171.547" stroke="#03045E" stroke-width="1.50431" stroke-linecap="round"/>
<path d="M82.3789 174.932V171.171" stroke="#03045E" stroke-width="1.44291" stroke-linecap="round"/>
<circle cx="53.787" cy="108.47" r="7.57218" fill="#D6FF8C"/>
<circle cx="76.8339" cy="108.47" r="7.57218" fill="#D6FF8C"/>
<rect x="54.6897" y="82.4612" width="12.9315" height="8.91274" rx="1.16827" fill="#CDFF71" stroke="#03045E" stroke-width="1.3169"/>
<path d="M73.3963 82.0322L67.6172 84.9081V88.9269L73.3963 91.8496V82.0322Z" fill="#CDFF71" stroke="#03045E" stroke-width="1.3169" stroke-linecap="round"/>
<path d="M54.4489 86.8578H40.4374C39.022 86.8578 37 87.6666 37 90.093V120.625C37 122.647 38.375 124.063 40.6396 124.063H84.7195C85.9327 124.063 88.3591 123.456 88.3591 120.423V90.2952C88.3591 88.8798 87.7525 86.8578 84.9217 86.8578H76.4292" stroke="#03045E" stroke-width="1.3169" stroke-linecap="round"/>
<circle cx="40.6369" cy="90.6996" r="0.808805" fill="#03045E"/>
<circle cx="43.8791" cy="90.6996" r="0.808805" fill="#03045E"/>
<circle cx="47.1096" cy="90.6996" r="0.808805" fill="#03045E"/>
<path d="M57.2207 126.593V131.041M57.2207 131.041H67.533M57.2207 131.041H54.4492M67.533 126.593V131.041M67.533 131.041H70.5812" stroke="#03045E" stroke-width="1.3169" stroke-linecap="round"/>
<path d="M50.7549 98.2325C52.5173 98.2325 54.1405 99.993 54.1406 102.427C54.1406 104.861 52.5174 106.621 50.7549 106.621C48.9924 106.621 47.3691 104.861 47.3691 102.427C47.3693 99.9931 48.9925 98.2326 50.7549 98.2325Z" stroke="#03045E" stroke-width="1.3169"/>
<path d="M73.8369 98.2325C75.5993 98.2325 77.2225 99.993 77.2227 102.427C77.2227 104.861 75.5994 106.621 73.8369 106.621C72.0745 106.621 70.4512 104.861 70.4512 102.427C70.4513 99.9931 72.0745 98.2326 73.8369 98.2325Z" stroke="#03045E" stroke-width="1.3169"/>
<path d="M55.1992 105.46C61.0631 107.684 61.6697 115.57 55.8058 115.57V111.728" stroke="#03045E" stroke-width="1.3169" stroke-linecap="round"/>
<path d="M78.2852 105.46C84.149 107.684 84.7556 115.57 78.8918 115.57V111.728" stroke="#03045E" stroke-width="1.3169" stroke-linecap="round"/>
<path d="M53.461 115.57H48.9805" stroke="#03045E" stroke-width="1.3169" stroke-linecap="round"/>
<path d="M76.8379 115.57H71.5703" stroke="#03045E" stroke-width="1.3169" stroke-linecap="round"/>
<path d="M46.5129 105.46C40.4393 106.067 39.0259 115.57 46.5139 116.177V111.526" stroke="#03045E" stroke-width="1.3169" stroke-linecap="round"/>
<path d="M69.5988 105.46C63.5252 106.067 62.1118 115.57 69.5998 116.177V111.526" stroke="#03045E" stroke-width="1.3169" stroke-linecap="round"/>
<circle cx="152.147" cy="180.546" r="6.03398" fill="#D6FF8C"/>
<circle cx="176.286" cy="189.932" r="8.71575" fill="#D6FF8C"/>
<path d="M143.482 197.875V202.001M143.482 202.001H152.519M143.482 202.001H141.125M152.519 197.875V202.001M152.519 202.001H155.27" stroke="#03045E" stroke-width="1.32584" stroke-linecap="round"/>
<path d="M150.745 187.382H145.637" stroke="#03045E" stroke-width="1.32584" stroke-linecap="round"/>
<path d="M174.237 199.455H166.375" stroke="#03045E" stroke-width="1.32584" stroke-linecap="round"/>
<path d="M152.125 177.755C158.019 178.934 159.355 187.657 152.125 187.185V183.256" stroke="#03045E" stroke-width="1.32584" stroke-linecap="round"/>
<path d="M176.359 184.638C185.431 186.452 187.488 199.878 176.359 199.153V193.105" stroke="#03045E" stroke-width="1.32584" stroke-linecap="round"/>
<path d="M144.665 177.559C138.767 178.541 137.59 187.185 144.075 187.185V183.452" stroke="#03045E" stroke-width="1.32584" stroke-linecap="round"/>
<path d="M164.872 184.335C155.794 185.847 153.982 199.153 163.965 199.153V193.407" stroke="#03045E" stroke-width="1.32584" stroke-linecap="round"/>
<path d="M169.953 171.272V164.985C169.953 163.9 169.074 163.021 167.989 163.021H127.965C126.88 163.021 126 163.9 126 164.985V193.864C126 194.949 126.88 195.829 127.965 195.829H154.682" stroke="#03045E" stroke-width="1.32584" stroke-linecap="round"/>
<circle cx="148.424" cy="163.414" r="3.65909" fill="#CDFF71" stroke="#03045E" stroke-width="1.32584"/>
<path d="M148.198 170.756C149.944 170.756 151.465 172.334 151.465 174.416C151.465 176.497 149.944 178.075 148.198 178.075C146.453 178.075 144.933 176.497 144.933 174.416C144.933 172.334 146.453 170.757 148.198 170.756Z" stroke="#03045E" stroke-width="1.32584"/>
<path d="M170.316 171.882C173.194 171.882 175.744 174.795 175.744 178.684C175.744 182.573 173.194 185.486 170.316 185.486C167.439 185.486 164.89 182.573 164.89 178.684C164.89 174.795 167.439 171.882 170.316 171.882Z" stroke="#03045E" stroke-width="1.32584"/>
<circle cx="129.333" cy="166.95" r="0.78582" fill="#03045E"/>
<circle cx="132.087" cy="166.95" r="0.78582" fill="#03045E"/>
<circle cx="134.844" cy="166.95" r="0.78582" fill="#03045E"/>
<circle cx="148.459" cy="163.45" r="1.00566" fill="#03045E"/>
<circle cx="138.738" cy="23.7377" r="6.32734" fill="#D6FF8C"/>
<circle cx="162.843" cy="48.4444" r="6.32734" fill="#D6FF8C"/>
<rect x="145.585" y="30.9629" width="12.1124" height="8.94508" rx="1.12133" stroke="#03045E" stroke-width="1.08469"/>
<path d="M162.216 31.7764L158.158 33.7958C157.954 33.8976 157.824 34.1066 157.824 34.3353V37.2516C157.824 37.4789 157.952 37.6868 158.155 37.7894L162.213 39.8417C162.614 40.0444 163.088 39.7531 163.088 39.304V32.3159C163.088 31.8684 162.617 31.577 162.216 31.7764Z" fill="#CDFF71" stroke="#03045E" stroke-width="1.08469" stroke-linecap="round"/>
<path d="M152.67 35.1407C152.836 35.2368 152.836 35.4773 152.67 35.5734L150.295 36.9445C150.129 37.0404 149.92 36.9205 149.92 36.7286L149.92 33.9855C149.92 33.7934 150.129 33.6736 150.295 33.7697L152.67 35.1407Z" fill="#CDFF71" stroke="#03045E" stroke-width="1.08469"/>
<path d="M129.336 22.1293C129.067 22.0956 128.819 22.287 128.804 22.5584C128.714 24.1809 129.182 25.7911 130.137 27.1175C131.189 28.5774 132.754 29.5854 134.519 29.939C136.283 30.2927 138.116 29.9658 139.649 29.0241C141.182 28.0824 142.303 26.5955 142.785 24.862C143.267 23.1285 143.076 21.2766 142.25 19.6783C141.423 18.08 140.023 16.8535 138.329 16.245C136.636 15.6365 134.775 15.6912 133.12 16.398C131.617 17.0401 130.385 18.1774 129.623 19.613C129.496 19.8531 129.609 20.145 129.858 20.2554V20.2554C130.106 20.3659 130.395 20.2529 130.525 20.0142C131.183 18.8051 132.232 17.8476 133.507 17.3031C134.933 16.6939 136.537 16.6468 137.996 17.1712C139.456 17.6957 140.663 18.7528 141.375 20.1304C142.088 21.508 142.253 23.104 141.837 24.5981C141.421 26.0922 140.455 27.3738 139.134 28.1854C137.812 28.9971 136.233 29.2788 134.712 28.974C133.192 28.6692 131.843 27.8004 130.936 26.5422C130.126 25.4175 129.722 24.056 129.783 22.6806C129.795 22.4091 129.606 22.163 129.336 22.1293V22.1293Z" fill="#03045E"/>
<path d="M135.918 20.0624C136.878 20.0624 137.752 20.9467 137.752 22.16C137.752 23.3733 136.878 24.2567 135.918 24.2567C134.958 24.2564 134.085 23.3731 134.085 22.16C134.085 20.9469 134.958 20.0627 135.918 20.0624Z" stroke="#03045E" stroke-width="1.08469"/>
<path d="M134.216 23.7378C132.896 23.8258 130.387 24.217 130.598 26.7508" stroke="#03045E" stroke-width="1.08469" stroke-linecap="round"/>
<path d="M137.778 23.7433C139.098 23.8313 141.148 24.039 141.449 26.4494" stroke="#03045E" stroke-width="1.08469" stroke-linecap="round"/>
<path d="M169.426 55.5218C169.576 55.77 169.9 55.851 170.137 55.683C171.452 54.7486 172.416 53.3916 172.862 51.8302C173.356 50.1 173.177 48.2469 172.361 46.643C171.546 45.0392 170.153 43.8032 168.464 43.1834C166.775 42.5635 164.914 42.6056 163.254 43.3013C161.595 43.9969 160.26 45.2945 159.518 46.9336C158.775 48.5727 158.68 50.432 159.252 52.1381C159.824 53.8442 161.02 55.2709 162.6 56.1317C164.026 56.9085 165.669 57.1725 167.258 56.8898C167.543 56.839 167.713 56.551 167.641 56.27V56.27C167.569 55.989 167.284 55.8217 166.998 55.8689C165.667 56.0883 164.295 55.8593 163.102 55.2094C161.755 54.4755 160.735 53.2591 160.248 51.8044C159.76 50.3497 159.841 48.7644 160.474 47.3669C161.107 45.9693 162.245 44.8629 163.66 44.2698C165.075 43.6767 166.662 43.6408 168.102 44.1693C169.543 44.6978 170.73 45.7516 171.425 47.1191C172.121 48.4866 172.273 50.0666 171.852 51.5419C171.479 52.8481 170.681 53.9867 169.591 54.7817C169.357 54.9526 169.276 55.2737 169.426 55.5218V55.5218Z" fill="#03045E"/>
<path d="M166.004 46.9843C166.964 46.9843 167.838 47.8686 167.838 49.0819C167.838 50.2951 166.964 51.1786 166.004 51.1786C165.044 51.1783 164.171 50.2949 164.171 49.0819C164.171 47.8688 165.044 46.9845 166.004 46.9843Z" stroke="#03045E" stroke-width="1.08469"/>
<path d="M164.161 50.6654C163.149 50.6654 160.738 51.1562 160.738 53.868" stroke="#03045E" stroke-width="1.08469" stroke-linecap="round"/>
<path d="M167.661 50.5537C168.981 50.6417 171.277 50.855 171.578 53.2654" stroke="#03045E" stroke-width="1.08469" stroke-linecap="round"/>
<path d="M169.698 44.0668C171.176 41.7441 171.809 39.3159 172.073 35.6207C172.073 20.2065 158.876 14.5054 151.486 15.0333V30.6058M151.486 44.0668V55.6802C153.069 55.6802 157.081 55.3107 160.46 53.8327M149.11 15.0333C147.351 15.2093 143.198 16.0363 140.664 17.9366" stroke="#03045E" stroke-width="1.08469" stroke-linecap="round"/>
<path d="M131.807 28.5586C130.136 35.685 130.64 51.1933 148.326 55.6803" stroke="#03045E" stroke-width="1.08469" stroke-linecap="round"/>
<path d="M153.863 15.0332C156.415 16.7048 161.57 21.7373 161.782 28.4942" stroke="#03045E" stroke-width="1.08469" stroke-linecap="round"/>
<path d="M140.936 31.1337C140.056 36.1486 140.355 48.0787 148.59 55.6802" stroke="#03045E" stroke-width="1.08469" stroke-linecap="round"/>
<path d="M148.319 15.2971C147 16.5288 145.366 17.7116 143.859 20.7246" stroke="#03045E" stroke-width="1.08469" stroke-linecap="round"/>
<path d="M131.43 35.3567H145.411" stroke="#03045E" stroke-width="1.08469" stroke-linecap="round"/>
<path d="M163.105 35.3567L172.079 35.3567" stroke="#03045E" stroke-width="1.08469" stroke-linecap="round"/>
<path d="M154.652 55.4165C155.708 54.6246 158.168 52.1528 159.224 50.2524" stroke="#03045E" stroke-width="1.08469" stroke-linecap="round"/>
<path d="M162.317 41.4275C162.229 42.0434 161.457 44.3758 161.035 45.4315" stroke="#03045E" stroke-width="1.08469" stroke-linecap="round"/>
<circle cx="232.31" cy="38.271" r="7.98556" fill="#D6FF8C"/>
<rect x="250.5" y="25.4537" width="10.2828" height="6.232" rx="0.6232" fill="#CDFF71"/>
<path d="M264.219 25.6785V28.4427" stroke="#03045E" stroke-width="1.04427" stroke-linecap="round"/>
<path d="M259.585 32.9955H260.276C261.149 32.9955 261.856 32.2882 261.856 31.4156V25.7872C261.856 24.9146 261.149 24.2073 260.276 24.2073H250.994C250.121 24.2073 249.414 24.9146 249.414 25.7872V31.4156C249.414 32.2882 250.121 32.9955 250.994 32.9955H253.364" stroke="#03045E" stroke-width="1.04427" stroke-linecap="round"/>
<path d="M261.961 26.8734L265.243 25.1231C265.769 24.8425 266.404 25.2238 266.404 25.8201V31.5072C266.404 32.0975 265.781 32.4792 265.255 32.2106L261.961 30.5269" stroke="#03045E" stroke-width="1.04427" stroke-linecap="round"/>
<path d="M259.536 22.2471V21.267C259.536 19.4627 258.074 18 256.269 18H220.986C219.181 18 217.719 19.4627 217.719 21.267V46.7495M259.536 34.6616V46.7495" stroke="#03045E" stroke-width="1.04427" stroke-linecap="round"/>
<path d="M231.859 48.9973H216.911C216.134 48.9973 215.666 49.8577 216.088 50.5099L218.413 54.1035C218.594 54.3827 218.904 54.5512 219.236 54.5512H258.297C258.66 54.5512 258.993 54.3505 259.163 54.0297L261.066 50.436C261.411 49.7832 260.938 48.9973 260.199 48.9973H245.405C245.055 48.9973 244.731 49.1841 244.556 49.4874L244.142 50.2048C243.967 50.5081 243.643 50.6949 243.293 50.6949H233.97C233.62 50.6949 233.297 50.5081 233.122 50.2048L232.707 49.4874C232.532 49.1841 232.209 48.9973 231.859 48.9973Z" stroke="#03045E" stroke-width="1.04427" stroke-linecap="round"/>
<path d="M232.085 29.4343C229.484 20.2868 246.143 17.3465 245.152 29.4343C243.856 39.2353 234.382 40.8688 232.085 29.4343Z" stroke="#03045E" stroke-width="1.04427" stroke-linecap="round"/>
<path d="M245.165 28.7811C243.314 29.4345 238.631 29.7612 236.671 25.8408C236.344 26.8209 235.299 28.7811 233.73 28.7811" stroke="#03045E" stroke-width="1.04427" stroke-linecap="round"/>
<path d="M235.381 36.121L233.73 39.2354C238.174 42.3717 242.116 40.5422 243.531 39.2354L242.225 35.9684" stroke="#03045E" stroke-width="1.04427" stroke-linecap="round"/>
<path d="M233.735 39.2353C231.666 39.1264 227.005 39.954 224.914 44.1357" stroke="#03045E" stroke-width="1.04427" stroke-linecap="round"/>
<path d="M243.531 39.2353C245.6 39.1264 250.261 39.954 252.352 44.1357" stroke="#03045E" stroke-width="1.04427" stroke-linecap="round"/>
<circle cx="220.657" cy="21.5937" r="0.653398" fill="#03045E"/>
<circle cx="223.282" cy="21.5937" r="0.653398" fill="#03045E"/>
<circle cx="225.888" cy="21.5937" r="0.653398" fill="#03045E"/>
<circle cx="168.427" cy="94.8655" r="6.55621" fill="#D6FF8C"/>
<circle cx="168.427" cy="110.292" r="6.55621" fill="#D6FF8C"/>
<circle cx="146.062" cy="104.893" r="7.32753" fill="#D6FF8C"/>
<path d="M132.721 84.6266H172.529C174.457 84.6266 176.02 86.1898 176.021 88.1178V114.831H129.229V88.1178C129.23 86.1899 130.793 84.6267 132.721 84.6266Z" stroke="#03045E" stroke-width="1.31124"/>
<path d="M129.158 115.072L125.012 123.365H179.996L175.849 115.072" stroke="#03045E" stroke-width="1.31124"/>
<path d="M124.848 123.365V125.853C124.848 128.143 126.704 130 128.994 130H175.852C178.142 130 179.999 128.143 179.999 125.853V123.365" stroke="#03045E" stroke-width="1.31124"/>
<path d="M141.023 119.772L138.949 123.365H166.733L164.659 119.772H141.023Z" fill="#CDFF71" stroke="#03045E" stroke-width="1.31124"/>
<circle cx="152.972" cy="84.8008" r="4.32044" fill="#CDFF71" stroke="#03045E" stroke-width="1.31124"/>
<circle cx="153.001" cy="84.8385" r="1.15698" fill="#03045E"/>
<path d="M152.633 89.6517V114.828" stroke="#03045E" stroke-width="1.31124" stroke-linecap="round"/>
<path d="M152.633 100.558H176.269" stroke="#03045E" stroke-width="1.31124" stroke-linecap="round"/>
<circle cx="164.239" cy="90.6063" r="2.66175" stroke="#03045E" stroke-width="1.31124"/>
<circle cx="164.239" cy="105.534" r="2.66175" stroke="#03045E" stroke-width="1.31124"/>
<path d="M158.438 99.3143C160.096 94.7529 166.731 92.6795 170.048 99.3143" stroke="#03045E" stroke-width="1.31124" stroke-linecap="round"/>
<path d="M158.438 114.242C160.096 109.681 166.731 107.608 170.048 114.242" stroke="#03045E" stroke-width="1.31124" stroke-linecap="round"/>
<path d="M148.895 100.558C150.977 90.6063 131.066 91.0209 134.381 101.388C136.596 101.249 141.605 100.31 143.928 97.6557C144.475 99.0379 146.234 101.554 148.895 100.558Z" stroke="#03045E" stroke-width="1.31124"/>
<path d="M137.702 93.9236C136.045 88.1182 145.997 86.8742 145.166 93.9236" stroke="#03045E" stroke-width="1.31124"/>
<path d="M148.066 100.973C148.066 111.754 135.46 112.335 134.797 101.388" stroke="#03045E" stroke-width="1.31124"/>
<path d="M136.879 103.461H139.782" stroke="#03045E" stroke-width="0.771319" stroke-linecap="round"/>
<path d="M142.68 103.461H145.582" stroke="#03045E" stroke-width="0.771319" stroke-linecap="round"/>
<circle cx="138.942" cy="104.29" r="0.414672" fill="#03045E"/>
<circle cx="143.93" cy="104.29" r="0.414672" fill="#03045E"/>
<path d="M139.777 106.778C140.33 107.055 141.685 107.442 142.68 106.778" stroke="#03045E" stroke-width="0.771319" stroke-linecap="round"/>
<path d="M138.527 108.437V111.34C140.85 113.994 143.365 112.446 144.333 111.34V108.437" stroke="#03045E" stroke-width="1.31124"/>
<path d="M138.531 110.925C136.734 110.649 133.141 111.091 133.141 115.072" stroke="#03045E" stroke-width="1.31124"/>
<path d="M144.328 110.925C146.125 110.649 149.719 111.091 149.719 115.072" stroke="#03045E" stroke-width="1.31124"/>
<circle cx="247.741" cy="93.3348" r="12.3348" fill="#D6FF8C"/>
<path d="M230.677 114.497C230.252 112.656 231.606 111.046 232.408 110.374C232.937 109.905 234.368 109.516 234.757 110.963C234.902 111.6 235.192 113.151 235.252 114.525C235.26 114.7 235.217 114.874 235.113 115.014C234.999 115.168 234.848 115.345 234.675 115.519C234.34 115.856 234.195 116.372 234.456 116.768C235.547 118.417 237.232 119.457 238.063 119.807C238.156 119.846 238.255 119.869 238.354 119.847C238.665 119.78 239.031 119.498 239.316 119.228C239.539 119.016 239.837 118.888 240.144 118.911C241.794 119.039 243.259 119.13 243.474 120.102C244.059 122.742 241.181 123.705 239.645 123.304C234.158 121.87 231.193 116.927 230.677 114.497Z" fill="#D6FF8C" stroke="#03045E" stroke-width="1.16495"/>
<path d="M257.839 92.2581H239.283C238.225 92.2581 237.168 93.0334 237.168 94.725V105.65C237.168 107.412 238.084 107.765 240.34 107.765V113.051L245.979 107.765H257.609C259.582 107.765 260.075 106.707 260.075 105.65V94.725C260.075 92.7514 259.249 92.2581 257.839 92.2581Z" stroke="#03045E" stroke-width="1.16495" stroke-linecap="round"/>
<path d="M252.229 99.6252C252.526 99.7967 252.526 100.225 252.229 100.397L247.384 103.195C247.087 103.366 246.716 103.152 246.716 102.809L246.716 97.2131C246.716 96.8704 247.087 96.656 247.384 96.8274L252.229 99.6252Z" fill="#D6FF8C" stroke="#03045E" stroke-width="1.16495"/>
<path d="M251.621 107.765V128.205C251.621 130.152 250.043 131.729 248.096 131.729H226.598C224.652 131.729 223.074 130.152 223.074 128.205V85.2095C223.074 83.2632 224.652 81.6853 226.598 81.6853H248.096C250.043 81.6853 251.621 83.2632 251.621 85.2095V92.258" stroke="#03045E" stroke-width="1.16495" stroke-linecap="round"/>
<path d="M248.801 108.092V124.557C248.801 127.062 248.449 128.136 246.451 128.136H228.713C226.599 128.136 226.246 125.988 226.246 124.557V89.0855C226.246 87.1391 227.824 85.5613 229.77 85.5613H231.072C231.575 85.5613 232.04 85.8295 232.292 86.265C232.544 86.7005 233.009 86.9687 233.512 86.9687H241.049C241.703 86.9687 242.307 86.6203 242.634 86.0545C242.961 85.4888 243.565 85.1404 244.218 85.1404H245.277C247.223 85.1404 248.801 86.7182 248.801 88.6646V92.2466" stroke="#03045E" stroke-width="1.16495" stroke-linecap="round"/>
</svg>
