<svg width="260" height="178" viewBox="0 0 260 178" fill="none" xmlns="http://www.w3.org/2000/svg">
<path d="M131.723 27.0725V20.892C131.723 19.7148 133.267 19.2775 133.885 20.28L136.336 24.2642L136.276 20.6663C136.268 20.1505 136.679 19.7255 137.195 19.7169C137.711 19.7084 138.136 20.1195 138.144 20.6353L138.247 26.7888C138.267 27.9762 136.707 28.4316 136.085 27.4203L133.591 23.367V27.0725C133.591 27.5884 133.173 28.0066 132.657 28.0066C132.141 28.0066 131.723 27.5884 131.723 27.0725Z" fill="black"/>
<path d="M129.032 22.8109C129.032 22.1338 128.483 21.5849 127.806 21.5849H126.931V24.0369H127.806C128.483 24.0369 129.032 23.488 129.032 22.8109ZM130.9 22.8109C130.9 24.5197 129.515 25.905 127.806 25.905H126.931V27.0726C126.931 27.5885 126.512 28.0067 125.997 28.0067C125.481 28.0067 125.062 27.5885 125.062 27.0726V20.8162C125.063 20.209 125.555 19.7168 126.162 19.7168H127.806C129.515 19.7168 130.9 21.1021 130.9 22.8109Z" fill="black"/>
<path d="M146.08 11.1444V28.314L146.068 28.3868C144.103 40.7644 132.902 44.9509 127.614 45.516L127.47 45.5313L127.327 45.5024C114.507 42.8801 110.421 33.0388 110.004 28.3227L110 28.2817V11.1396L128.218 4L146.08 11.1444ZM111.868 12.414V28.1945C112.246 32.2749 115.867 41.1838 127.558 43.6417C132.507 43.0592 142.426 39.165 144.212 28.164V12.4092L128.212 6.00914L111.868 12.414Z" fill="black"/>
<path d="M142.632 13.7936V27.6131L142.62 27.6861C141.032 37.6691 131.976 41.0336 127.716 41.4876L127.572 41.5029L127.43 41.4739C117.095 39.3656 113.784 31.4444 113.445 27.6218L113.441 27.5805V13.7888L128.18 8.02844L142.632 13.7936ZM115.31 15.0643V27.4934C115.609 30.6777 118.451 37.6687 127.66 39.6133C131.583 39.1422 139.355 36.0684 140.764 27.4622V15.0595L128.173 10.0369L115.31 15.0643Z" fill="black"/>
<path d="M122.566 20.2935C122.763 19.8169 123.31 19.5903 123.787 19.7875C124.263 19.9847 124.49 20.5311 124.293 21.0078L121.706 27.2583C121.308 28.2198 119.946 28.2198 119.548 27.2583L116.962 21.0078C116.765 20.5311 116.991 19.9847 117.468 19.7875C117.945 19.5903 118.491 19.8169 118.688 20.2935L120.627 24.9794L122.566 20.2935Z" fill="black"/>
<path d="M12.059 42.4649H38.941V16.2342L30.8462 8.03316H12.059V42.4649ZM41 43.2656C41 43.9606 40.4366 44.5239 39.7417 44.5239H11.2583C10.5634 44.5239 10 43.9606 10 43.2656V7.23242C10 6.53748 10.5634 5.97412 11.2583 5.97412H31.1811C31.5177 5.97413 31.8402 6.10904 32.0766 6.34857L40.6372 15.0217C40.8696 15.2572 41 15.5747 41 15.9056V43.2656Z" fill="black"/>
<path d="M31.089 6.5488C31.6561 6.50832 32.1486 6.93523 32.1891 7.50236L32.5533 12.6006C32.6372 13.7747 33.5596 14.7152 34.7319 14.8218L39.3772 15.2441C39.9435 15.2956 40.3608 15.7963 40.3094 16.3625C40.2579 16.9288 39.7571 17.3461 39.1909 17.2946L34.5456 16.8724C32.3684 16.6744 30.6554 14.928 30.4996 12.7474L30.1355 7.64892C30.095 7.0818 30.5219 6.58931 31.089 6.5488Z" fill="black"/>
<path d="M23.3322 26.6983C26.9466 25.8834 31.1188 27.1378 35.276 32.2029C35.6366 32.6424 35.5727 33.2911 35.1332 33.6518C34.6937 34.0125 34.045 33.9487 33.6843 33.5093C29.8799 28.874 26.4449 28.1074 23.785 28.7071C21.0032 29.3343 18.7295 31.5257 17.498 33.4177C17.1878 33.8942 16.55 34.029 16.0735 33.7188C15.5969 33.4086 15.4621 32.7708 15.7723 32.2943C17.1717 30.1445 19.8397 27.4857 23.3322 26.6983Z" fill="black"/>
<path d="M19.14 29.7755C19.7042 29.705 20.2187 30.1051 20.2893 30.6692C20.5751 32.9559 22.516 34.9606 24.7593 35.4068C25.8495 35.6237 27.0034 35.4704 28.0862 34.7969C29.1772 34.1184 30.2707 32.8638 31.1254 30.7536C31.3389 30.2267 31.9391 29.9725 32.4661 30.1859C32.9931 30.3994 33.2473 30.9997 33.0339 31.5267C32.0583 33.935 30.721 35.5831 29.1738 36.5454C27.6186 37.5127 25.9269 37.7383 24.3576 37.4261C21.2817 36.8142 18.6469 34.1288 18.2463 30.9248C18.1758 30.3606 18.5759 29.8461 19.14 29.7755Z" fill="black"/>
<path d="M26.4713 31.941C26.4713 31.4356 26.0616 31.0258 25.5562 31.0258C25.0508 31.0258 24.6411 31.4356 24.6411 31.941C24.6411 32.4464 25.0508 32.8561 25.5562 32.8561V34.9151C23.9136 34.9151 22.582 33.5836 22.582 31.941C22.582 30.2984 23.9136 28.9668 25.5562 28.9668C27.1988 28.9668 28.5304 30.2984 28.5304 31.941C28.5304 33.5836 27.1988 34.9151 25.5562 34.9151V32.8561C26.0616 32.8561 26.4713 32.4464 26.4713 31.941Z" fill="black"/>
<path d="M22.3804 25.8977L19.249 27.7764L14.4336 24.6807L19.032 20.0823L22.3804 25.8977ZM17.6958 24.3302L19.2865 25.3528L19.5868 25.1725L18.5881 23.4378L17.6958 24.3302Z" fill="black"/>
<path d="M28.5063 26.0121L31.6377 27.8908L36.4531 24.7951L31.8547 20.1967L28.5063 26.0121ZM33.191 24.4445L31.6002 25.4671L31.2999 25.2868L32.2986 23.5522L33.191 24.4445Z" fill="black"/>
<path d="M29.2194 18.786L27.2441 25.5351H24.0032L21.8633 18.786H29.2194ZM25.5104 23.476H25.7014L26.4715 20.8451H24.6761L25.5104 23.476Z" fill="black"/>
<path d="M223.619 8.34055C227.674 6.71844 233.955 6.32646 239.44 8.53165C245.016 10.7733 249.724 15.6875 250.457 24.4847C250.85 28.083 249.552 36.2655 241.607 41.7397C240.793 42.3003 239.667 41.8497 239.47 40.8774L237.63 31.819L238.079 31.3965C240.071 29.5211 240.97 25.7902 240.037 22.4688C239.58 20.8427 238.698 19.3788 237.354 18.3213C236.018 17.2693 234.157 16.5647 231.641 16.5646C228.844 16.5646 225.825 17.9691 224.188 20.4892C222.599 22.9364 222.171 26.669 224.993 31.6573L225.188 32.0011L223.659 40.898C223.511 41.7566 222.568 42.3302 221.701 41.9056C219.197 40.6792 217.11 38.3287 215.618 35.5027C214.12 32.6649 213.176 29.2635 213.016 25.8096C212.696 18.8925 215.54 11.5718 223.619 8.34055ZM238.614 10.5861C233.687 8.60513 227.997 8.97406 224.441 10.3964C217.475 13.1829 214.938 19.4496 215.228 25.7072C215.373 28.8406 216.233 31.9235 217.576 34.4692C218.694 36.5858 220.115 38.2737 221.68 39.336L222.873 32.3985C219.95 27.0232 220.236 22.5093 222.331 19.2829C224.425 16.06 228.187 14.3504 231.641 14.3504C234.591 14.3505 236.951 15.1857 238.724 16.5814C240.49 17.9715 241.605 19.8635 242.169 21.8699C243.215 25.591 242.411 29.9329 240.039 32.556L241.38 39.1581C247.606 34.266 248.567 27.5204 248.255 24.7136L248.253 24.6979L248.252 24.6825C247.595 16.7444 243.448 12.5294 238.614 10.5861Z" fill="black"/>
<path d="M231.918 18.9174C237.322 18.9174 240.661 26.0198 236.107 30.5803C235.456 31.2324 235.166 31.974 235.28 32.6021L236.566 39.6745C236.998 42.053 235.171 44.2424 232.754 44.2424H230.29C227.855 44.2423 226.024 42.0232 226.485 39.6326L227.763 33.0181C227.912 32.2461 227.444 31.3226 226.602 30.2633C225.139 28.4237 224.593 25.654 225.332 23.3028C225.708 22.1038 226.427 20.9901 227.552 20.181C228.678 19.3712 230.14 18.9174 231.918 18.9174ZM231.918 21.1316C230.524 21.1316 229.534 21.4832 228.845 21.9787C228.155 22.4748 227.695 23.1662 227.444 23.9664C226.927 25.6135 227.328 27.6187 228.335 28.8851C229.159 29.9218 230.296 31.5807 229.937 33.4381L228.66 40.0526C228.462 41.0771 229.246 42.0281 230.29 42.0282H232.754C233.79 42.0282 234.573 41.0898 234.387 40.0705L233.101 32.9981C232.811 31.3999 233.593 29.9651 234.54 29.0159C237.754 25.7975 235.275 21.1316 231.918 21.1316Z" fill="black"/>
<path d="M140.842 98.1033C140.842 97.6394 140.466 97.2634 140.003 97.2634H138.323V98.9431H140.003C140.466 98.9431 140.842 98.5671 140.842 98.1033ZM142.802 98.1033C142.802 99.6494 141.549 100.903 140.003 100.903H138.323V102.862H136.363V96.5472C136.363 95.8605 136.92 95.3038 137.607 95.3038H140.003C141.549 95.3038 142.802 96.5572 142.802 98.1033Z" fill="black"/>
<path d="M110.891 84.386C111.36 84.7259 111.88 84.9511 112.406 85.1627C117.237 86.8807 122.323 87.4684 127.309 87.674C132.303 87.8199 137.32 87.3678 142.176 85.5913C142.717 85.3919 143.248 85.1804 143.784 84.9459C143.337 85.3231 142.88 85.6766 142.399 86.0151C138.077 89.075 132.545 90.3708 127.23 90.1921C121.912 89.9819 116.561 88.6087 112.172 85.5804C111.702 85.2278 111.244 84.8493 110.891 84.386Z" fill="black"/>
<path d="M124.184 64.5099C123.824 64.9578 123.504 65.4417 123.223 65.9356C120.817 70.4653 120.368 75.5969 120.324 80.5616C120.361 85.5539 121.049 90.5689 122.939 95.3899C123.151 95.9245 123.379 96.4559 123.624 96.9834C123.238 96.5481 122.87 96.0938 122.521 95.6231C119.366 91.3643 117.825 85.9227 117.805 80.5706C117.824 75.2644 119.143 69.6023 122.842 65.6458C123.257 65.2246 123.71 64.8346 124.184 64.5099Z" fill="black"/>
<path d="M127.694 63.0009C140.019 63.1698 148.618 77.6902 143.043 87.9302C142.426 89.3053 141.694 90.5677 140.844 91.8045C141.551 90.4805 142.132 89.1568 142.597 87.7566C146.827 77.2449 137.972 65.4204 127.694 65.4592C125.519 65.4782 123.377 65.8506 121.403 66.638C109.199 70.8705 108.239 91.4178 121.653 96.1191C123 96.6849 124.392 97.1025 125.872 97.4034C124.368 97.2686 122.922 97.0051 121.49 96.5693C106.929 93.409 105.79 69.4863 120.471 64.2973C122.776 63.3772 125.253 62.9784 127.694 63.0009Z" fill="black"/>
<path d="M128.945 64.9298V91.6645H126.426V64.9298H128.945Z" fill="black"/>
<path d="M132.305 64.9298C132.62 65.2741 132.918 65.6388 133.205 66.0253C135.743 69.4657 137.168 73.7456 137.446 78.0536C137.729 82.3762 136.814 86.7439 134.926 90.5529C134.717 90.9761 134.498 91.3884 134.264 91.8045C134.339 91.3333 134.405 90.8742 134.468 90.4124C135.033 86.249 135.187 82.2168 134.932 78.2146C134.664 74.2215 134.051 70.22 132.781 66.247C132.632 65.7998 132.478 65.3633 132.305 64.9298Z" fill="black"/>
<path d="M112.599 76.3986C116.782 73.2941 122.21 72.0345 127.429 72.2082C132.676 72.3853 137.763 74.0314 142.19 76.6288C142.676 76.9147 143.158 77.2131 143.642 77.5274C143.088 77.3658 142.545 77.2144 142.005 77.07C137.087 75.748 132.223 74.8958 127.343 74.7263C122.472 74.5843 117.534 75.0038 112.837 76.8142C112.313 77.0267 111.805 77.2573 111.309 77.5274C111.703 77.1231 112.136 76.7505 112.599 76.3986Z" fill="black"/>
<path d="M127.478 79.767C132.412 79.767 137.346 80.107 142.28 80.7872C142.828 80.8628 143.376 80.9427 143.925 81.0267C143.376 81.1107 142.828 81.1906 142.28 81.2662C137.346 81.9465 132.412 82.2865 127.478 82.2865C122.544 82.2865 117.61 81.9465 112.676 81.2662C112.128 81.1906 111.579 81.1107 111.031 81.0267C111.579 80.9427 112.128 80.8628 112.676 80.7872C117.61 80.107 122.544 79.767 127.478 79.767Z" fill="black"/>
<path d="M126.565 105.662H152.04V93.2042H126.565V105.662ZM154 106.362C154 107.057 153.436 107.621 152.74 107.621H125.865C125.169 107.621 124.605 107.057 124.605 106.362V92.5044C124.605 91.8086 125.169 91.2446 125.865 91.2446H152.74C153.436 91.2446 154 91.8086 154 92.5044V106.362Z" fill="black"/>
<path d="M135.333 95.7534L133.236 102.045C132.846 103.216 131.18 103.186 130.832 102.002L128.984 95.72L130.864 95.1673L132.082 99.3082L133.474 95.1339L135.333 95.7534Z" fill="black"/>
<path d="M149.943 101.626C149.943 102.884 148.3 103.365 147.622 102.305L145.464 98.9322V102.862H143.504V96.5406C143.504 95.3017 145.095 94.8166 145.792 95.8129L145.825 95.8615L147.983 99.2337V95.3038H149.943V101.626Z" fill="black"/>
<path d="M26.6836 65.1351C29.0779 64.7776 31.6502 65.103 33.9891 66.4308C36.1499 67.6574 38.0481 69.7042 39.4197 72.7221C41.7973 72.2459 43.967 72.8712 45.6849 74.1363C47.5849 75.5355 48.9237 77.7048 49.4622 80.018C50.0017 82.3357 49.7543 84.8802 48.36 86.9917C46.9541 89.1208 44.4733 90.6729 40.8196 91.1623L40.7547 91.1709H15.0235L14.9904 91.1688C9.74483 90.8144 6.82617 85.7318 7.00802 81.167C7.10096 78.8347 7.98834 76.5031 9.86789 74.8314C11.6026 73.2886 14.0855 72.3941 17.3221 72.4851C17.7761 70.7553 18.895 69.1958 20.3482 67.971C22.0581 66.5299 24.2962 65.4916 26.6836 65.1351ZM33.0204 68.1375C31.1127 67.0545 28.9939 66.7744 26.9734 67.0761C24.946 67.3788 23.0453 68.2643 21.613 69.4715C20.1742 70.6842 19.2731 72.1618 19.0964 73.6278L18.9836 74.5632L18.0443 74.4882C14.7835 74.2285 12.5758 75.0491 11.1719 76.2977C9.75925 77.5541 9.04456 79.3464 8.96889 81.2451C8.814 85.1331 11.2795 88.9327 15.0939 89.2086H40.62C43.7969 88.7698 45.6979 87.4622 46.7225 85.9104C47.7653 84.3312 47.9927 82.3609 47.5509 80.4628C47.108 78.5601 46.0092 76.8123 44.5212 75.7165C43.0561 74.6376 41.2067 74.179 39.1368 74.8159L38.2745 75.0813L37.9379 74.2441C36.689 71.1373 34.9226 69.2174 33.0204 68.1375Z" fill="black"/>
<path d="M29.2787 91.0485V97.5486H27.3164V91.0485H29.2787Z" fill="black"/>
<path d="M30.2619 100.369C30.2619 99.2856 29.3834 98.407 28.2996 98.407C27.2159 98.407 26.3373 99.2856 26.3373 100.369C26.3373 101.453 27.2159 102.332 28.2996 102.332V104.294C26.1321 104.294 24.375 102.537 24.375 100.369C24.375 98.2018 26.1321 96.4447 28.2996 96.4447C30.4671 96.4447 32.2242 98.2018 32.2242 100.369C32.2242 102.537 30.4671 104.294 28.2996 104.294V102.332C29.3834 102.332 30.2619 101.453 30.2619 100.369Z" fill="black"/>
<path d="M43.1403 99.7561V101.473H31.7344V99.7561H43.1403Z" fill="black"/>
<path d="M25.238 99.7561V101.473H13.832V99.7561H25.238Z" fill="black"/>
<path d="M22.9681 78.485L20.274 85.333C19.8954 86.2952 18.5201 86.2552 18.1979 85.2726L15.957 78.4383L17.5888 77.9032L19.2991 83.1203L21.3704 77.8564L22.9681 78.485Z" fill="black"/>
<path d="M30.3862 80.7462C30.3862 79.7979 29.6175 79.0292 28.6692 79.0292H27.1975V82.4632H28.6692C29.6175 82.4632 30.3862 81.6945 30.3862 80.7462ZM32.1033 80.7462C32.1033 82.6428 30.5658 84.1802 28.6692 84.1802H27.1975V86.0199H25.4805V78.4159C25.4805 77.8063 25.9747 77.3121 26.5843 77.3121H28.6692C30.5658 77.3121 32.1033 78.8496 32.1033 80.7462Z" fill="black"/>
<path d="M40.811 85.1837C40.811 86.2858 39.3736 86.7072 38.7783 85.7797L35.5373 80.7297V86.02H33.8203V78.639C33.8204 77.5542 35.2132 77.1288 35.8245 78.0004L35.853 78.0431L39.094 83.0928V77.8028H40.811V85.1837Z" fill="black"/>
<path d="M23.2883 136.702C23.7665 136.344 24.4448 136.44 24.8034 136.919L26.3284 138.952C26.687 139.43 26.59 140.108 26.1118 140.467C25.6337 140.825 24.9554 140.729 24.5967 140.251L23.072 138.217C22.7134 137.739 22.8102 137.061 23.2883 136.702Z" fill="black"/>
<path d="M32.5945 136.702C32.1164 136.344 31.438 136.44 31.0794 136.919L29.5544 138.952C29.1958 139.43 29.2928 140.108 29.771 140.467C30.2491 140.825 30.9275 140.729 31.2861 140.251L32.8108 138.217C33.1694 137.739 33.0726 137.061 32.5945 136.702Z" fill="black"/>
<path d="M36.0347 143.462C36.5693 143.194 37.2195 143.411 37.4868 143.946C37.7541 144.48 37.5374 145.131 37.0028 145.398L34.2072 146.796C33.6726 147.063 33.0224 146.846 32.7551 146.312C32.4878 145.777 32.7046 145.127 33.2391 144.86L36.0347 143.462Z" fill="black"/>
<path d="M36.0347 153.404C36.5693 153.671 37.2195 153.454 37.4868 152.92C37.7541 152.385 37.5374 151.735 37.0028 151.467L34.2072 150.07C33.6726 149.802 33.0224 150.019 32.7551 150.554C32.4878 151.088 32.7046 151.738 33.2391 152.006L36.0347 153.404Z" fill="black"/>
<path d="M19.7231 143.462C19.1885 143.194 18.5383 143.411 18.271 143.946C18.0037 144.48 18.2204 145.131 18.755 145.398L21.5506 146.796C22.0852 147.063 22.7355 146.846 23.0028 146.312C23.27 145.777 23.0532 145.127 22.5187 144.86L19.7231 143.462Z" fill="black"/>
<path d="M19.7231 153.404C19.1885 153.671 18.5383 153.454 18.271 152.92C18.0037 152.385 18.2204 151.735 18.755 151.467L21.5506 150.07C22.0852 149.802 22.7355 150.019 23.0028 150.554C23.27 151.088 23.0532 151.738 22.5187 152.006L19.7231 153.404Z" fill="black"/>
<path d="M42.4879 147.099C42.4879 139.1 36.0041 132.616 28.006 132.616C20.0078 132.616 13.5239 139.1 13.5239 147.099C13.5239 155.097 20.0078 161.58 28.006 161.58V163.745L27.7906 163.743C18.7679 163.629 11.4751 156.336 11.3608 147.314L11.3594 147.099C11.3594 137.905 18.8124 130.452 28.006 130.452L28.2211 130.453C37.3155 130.569 44.6524 137.977 44.6524 147.099L44.6509 147.314C44.5357 156.408 37.1277 163.745 28.006 163.745V161.58C36.0041 161.58 42.4878 155.097 42.4879 147.099Z" fill="black"/>
<path d="M26.9258 131.214V128.8C26.9258 128.202 27.4103 127.718 28.008 127.718C28.6057 127.718 29.0903 128.202 29.0903 128.8V131.214C29.0903 131.812 28.6057 132.297 28.008 132.297C27.4103 132.297 26.9258 131.812 26.9258 131.214Z" fill="black"/>
<path d="M26.7969 165.143V162.728C26.7969 162.131 27.2814 161.646 27.8791 161.646C28.4768 161.646 28.9614 162.131 28.9614 162.728V165.143C28.9614 165.74 28.4768 166.225 27.8791 166.225C27.2814 166.225 26.7969 165.74 26.7969 165.143Z" fill="black"/>
<path d="M43.5073 145.889H45.9217C46.5194 145.889 47.0039 146.374 47.0039 146.971C47.0039 147.569 46.5194 148.054 45.9217 148.054H43.5073C42.9096 148.054 42.425 147.569 42.425 146.971C42.425 146.374 42.9096 145.889 43.5073 145.889Z" fill="black"/>
<path d="M10.0854 145.889H12.4998C13.0975 145.889 13.582 146.374 13.582 146.971C13.582 147.569 13.0975 148.054 12.4998 148.054H10.0854C9.48769 148.054 9.00314 147.569 9.00314 146.971C9.00314 146.374 9.48769 145.889 10.0854 145.889Z" fill="black"/>
<path d="M32.135 144.114H23.6254V150.911C23.6254 153.26 25.5304 155.165 27.8802 155.165C30.2301 155.165 32.135 153.26 32.135 150.911V144.114ZM34.2995 150.911C34.2995 154.456 31.4255 157.33 27.8802 157.33C24.3349 157.33 21.4609 154.456 21.4609 150.911V143.273C21.4609 142.542 22.0532 141.95 22.7837 141.95H32.9767C33.7073 141.95 34.2995 142.542 34.2995 143.273V150.911Z" fill="black"/>
<path d="M26.9228 138.137C28.0439 137.862 29.2549 138.009 30.3975 138.742C31.5132 139.457 32.4939 140.684 33.3096 142.451C33.5601 142.994 33.3232 143.637 32.7805 143.887C32.2378 144.138 31.595 143.901 31.3445 143.358C30.6353 141.822 29.8845 140.984 29.2291 140.564C28.6007 140.161 28.0011 140.101 27.4385 140.239C26.2152 140.539 25.0202 141.836 24.5934 143.223C24.4176 143.794 23.812 144.115 23.2408 143.939C22.6695 143.764 22.3489 143.158 22.5247 142.586C23.1145 140.67 24.7786 138.663 26.9228 138.137Z" fill="black"/>
<path d="M131.673 131.167C132.257 131.167 132.73 131.641 132.73 132.224C132.73 132.808 132.257 133.281 131.673 133.281H129.83C129.247 133.281 128.773 132.808 128.773 132.224C128.773 131.641 129.247 131.167 129.83 131.167H131.673Z" fill="black"/>
<path d="M131.955 139.261C131.955 138.364 131.228 137.637 130.331 137.637H128.707V140.885H130.331C131.228 140.885 131.955 140.158 131.955 139.261ZM134.068 139.261C134.068 141.325 132.395 142.998 130.331 142.998H128.707V145.962C128.707 146.546 128.234 147.019 127.65 147.019C127.067 147.019 126.594 146.546 126.594 145.962V136.882C126.594 136.132 127.202 135.524 127.952 135.524H130.331C132.395 135.524 134.068 137.197 134.068 139.261Z" fill="black"/>
<path d="M143.116 145.743C143.116 147.222 141.087 147.636 140.507 146.274L138.09 140.591V145.92C138.09 146.504 137.617 146.977 137.033 146.977C136.45 146.977 135.977 146.504 135.977 145.92V136.889C135.977 135.432 137.943 135.008 138.557 136.294L138.585 136.357L141.003 142.04V136.58C141.003 135.997 141.476 135.524 142.059 135.524C142.643 135.524 143.116 135.997 143.116 136.58V145.743Z" fill="black"/>
<path d="M122.791 136.261C122.967 135.705 123.561 135.397 124.117 135.573C124.673 135.749 124.981 136.343 124.805 136.899L121.902 146.066C121.505 147.32 119.735 147.334 119.319 146.085L116.262 136.914C116.077 136.361 116.376 135.762 116.93 135.578C117.483 135.393 118.082 135.693 118.266 136.246L120.589 143.214L122.791 136.261Z" fill="black"/>
<path d="M126.815 131C127.398 131 127.872 131.473 127.872 132.057C127.872 132.64 127.398 133.113 126.815 133.113H112.793V148.592H128.839L130.668 150.943L132.497 148.592H148.544V133.113H135.024C134.441 133.113 133.968 132.64 133.968 132.057C133.968 131.473 134.441 131 135.024 131H150.657V150.705H133.531L130.668 154.385L127.806 150.705H110.68V131H126.815Z" fill="black"/>
<path d="M126.312 158.476V160.59H112.406V158.476H126.312Z" fill="black"/>
<path d="M135.36 158.476V160.59H149.266V158.476H135.36Z" fill="black"/>
<path d="M128.042 155.155C128.517 154.816 129.177 154.926 129.516 155.401C129.855 155.875 129.745 156.535 129.27 156.874C128.594 157.357 127.884 158.161 127.692 158.985C127.603 159.365 127.622 159.755 127.812 160.167C128.009 160.593 128.423 161.114 129.25 161.674C129.732 162.002 129.858 162.659 129.531 163.142C129.203 163.625 128.546 163.751 128.063 163.423C127.013 162.71 126.293 161.918 125.894 161.054C125.488 160.177 125.448 159.302 125.633 158.506C125.989 156.979 127.155 155.789 128.042 155.155Z" fill="black"/>
<path d="M133.63 155.155C133.155 154.816 132.495 154.926 132.156 155.401C131.817 155.875 131.927 156.535 132.401 156.874C133.078 157.357 133.788 158.161 133.98 158.985C134.069 159.365 134.05 159.755 133.86 160.167C133.663 160.593 133.248 161.114 132.422 161.674C131.939 162.002 131.814 162.659 132.141 163.142C132.469 163.625 133.126 163.751 133.609 163.423C134.659 162.71 135.379 161.918 135.778 161.054C136.184 160.177 136.224 159.302 136.039 158.506C135.683 156.979 134.517 155.789 133.63 155.155Z" fill="black"/>
<path d="M110.797 159.366C110.797 158.867 110.393 158.463 109.895 158.463C109.396 158.463 108.992 158.867 108.992 159.366C108.992 159.864 109.396 160.268 109.895 160.268V162.381L109.739 162.377C108.197 162.299 106.961 161.063 106.883 159.521L106.879 159.366C106.879 157.7 108.229 156.35 109.895 156.35L110.05 156.354C111.643 156.434 112.91 157.752 112.91 159.366L112.906 159.521C112.826 161.114 111.508 162.381 109.895 162.381V160.268C110.393 160.268 110.797 159.864 110.797 159.366Z" fill="black"/>
<path d="M152.68 159.366C152.68 158.867 152.276 158.463 151.777 158.463C151.279 158.463 150.875 158.867 150.875 159.366C150.875 159.864 151.279 160.268 151.777 160.268V162.381L151.622 162.377C150.08 162.299 148.844 161.063 148.766 159.521L148.762 159.366C148.762 157.7 150.112 156.35 151.777 156.35L151.933 156.354C153.526 156.434 154.793 157.752 154.793 159.366L154.789 159.521C154.708 161.114 153.391 162.381 151.777 162.381V160.268C152.276 160.268 152.68 159.864 152.68 159.366Z" fill="black"/>
<path d="M131.506 158.476C132.09 158.476 132.563 158.949 132.563 159.533C132.563 160.117 132.09 160.59 131.506 160.59H130.166C129.582 160.59 129.109 160.117 129.109 159.533C129.109 158.949 129.582 158.476 130.166 158.476H131.506Z" fill="black"/>
<path d="M244.716 154.458V156.275H214.272V154.458H244.716ZM245.171 154.003V131.284C245.171 131.033 244.967 130.829 244.716 130.829H214.272C214.021 130.829 213.818 131.033 213.818 131.284V154.003C213.818 154.254 214.021 154.458 214.272 154.458V156.275C213.017 156.275 212 155.258 212 154.003V131.284C212 130.029 213.017 129.012 214.272 129.012H244.716C245.971 129.012 246.988 130.029 246.988 131.284V154.003C246.988 155.258 245.971 156.275 244.716 156.275V154.458C244.967 154.458 245.171 154.254 245.171 154.003Z" fill="black"/>
<path d="M216.771 133.556V149.459H242.217V133.556H216.771ZM244.034 149.459C244.034 150.463 243.221 151.277 242.217 151.277H216.771C215.767 151.277 214.953 150.463 214.953 149.459V133.556C214.953 132.552 215.767 131.738 216.771 131.738H242.217C243.221 131.738 244.034 132.552 244.034 133.556V149.459Z" fill="black"/>
<path d="M228.016 140.485V142.303H219.609V140.485H228.016Z" fill="black"/>
<path d="M224.774 137.63L220.702 141.41L224.79 145.401L223.521 146.702L218.066 141.377L223.537 136.297L224.774 137.63Z" fill="black"/>
<path d="M230.404 155.934V160.479H228.586V155.934H230.404Z" fill="black"/>
<path d="M242.102 159.57V161.387H216.77V159.57H242.102Z" fill="black"/>
<path d="M242.102 162.182V164H216.77V162.182H242.102Z" fill="black"/>
<path d="M231.085 140.485V142.303H239.492V140.485H231.085Z" fill="black"/>
<path d="M234.332 137.63L238.403 141.41L234.315 145.401L235.585 146.702L241.039 141.377L235.568 136.297L234.332 137.63Z" fill="black"/>
<path d="M209 79.6811C209 76.8181 210.586 74.027 213.416 72.9785C225.021 68.6791 238.108 70.6864 246.069 73.1085C249.145 74.0444 251 76.9544 251 80.0469V88.1059C251 91.3302 248.989 94.3389 245.757 95.1953C235.213 97.9896 223.224 97.8217 214.01 95.2397C210.875 94.3611 209 91.4057 209 88.2973V79.6811ZM211.211 88.2973C211.211 90.5658 212.564 92.5388 214.606 93.1112C223.428 95.5833 235.015 95.755 245.191 93.0584C247.341 92.4887 248.789 90.449 248.789 88.1059V80.0469C248.789 77.8018 247.456 75.8411 245.426 75.2233C237.674 72.865 225.138 70.993 214.184 75.0514C212.362 75.7265 211.211 77.583 211.211 79.6811V88.2973Z" fill="black"/>
<path d="M241.911 85.4319V78.1988C241.911 77.5883 242.406 77.0935 243.016 77.0935C243.627 77.0935 244.122 77.5883 244.122 78.1988V90.4795L242.012 90.9414L238.556 83.4279C238.565 84.2007 238.573 84.9676 238.577 85.6929C238.584 86.9401 238.583 88.0725 238.567 88.9029C238.559 89.3155 238.547 89.6686 238.53 89.9283C238.521 90.0539 238.51 90.1838 238.493 90.2962C238.485 90.3476 238.47 90.4347 238.44 90.5289C238.427 90.5741 238.398 90.6601 238.344 90.7575C238.307 90.8247 238.168 91.0693 237.861 91.2225C237.316 91.4955 236.651 91.2742 236.378 90.7282C236.244 90.459 236.23 90.1612 236.315 89.8957C236.318 89.8676 236.321 89.8299 236.324 89.7812C236.338 89.5751 236.349 89.2643 236.356 88.8607C236.372 88.0585 236.373 86.9482 236.366 85.7056C236.352 83.2232 236.303 80.2448 236.262 78.2211L238.371 77.7368L241.911 85.4319ZM236.821 89.2727C236.817 89.2754 236.812 89.2782 236.808 89.2809C236.812 89.2782 236.817 89.2754 236.821 89.2727Z" fill="black"/>
<path d="M233.068 80.7777C233.068 79.896 232.353 79.1812 231.471 79.1812H229.015V83.3567H231.471C232.353 83.3567 233.068 82.6419 233.068 81.7602V80.7777ZM235.278 81.7602C235.278 83.8627 233.574 85.5672 231.471 85.5672H229.015V90.308C229.015 90.9184 228.52 91.4132 227.91 91.4132C227.3 91.4132 226.805 90.9184 226.805 90.308V78.3216C226.805 77.5755 227.409 76.9707 228.156 76.9707H231.471C233.574 76.9707 235.278 78.6752 235.278 80.7777V81.7602Z" fill="black"/>
<path d="M223.287 77.6537C223.452 77.0662 224.063 76.7239 224.65 76.8893C225.238 77.0547 225.58 77.6653 225.415 78.2529L221.853 90.902L219.711 90.8432L216.886 78.1941C216.753 77.5984 217.128 77.0077 217.724 76.8747C218.32 76.7417 218.91 77.1168 219.043 77.7125L220.913 86.0847L223.287 77.6537Z" fill="black"/>
</svg>
