<svg width="220" height="147" viewBox="0 0 220 147" fill="none" xmlns="http://www.w3.org/2000/svg">
<path d="M11.1875 114.997C13.9103 107.667 25.1156 105.886 28.9904 114.997" stroke="black" stroke-width="1.32882" stroke-linecap="round"/>
<path d="M10.8594 128.153C11.3141 130.608 13.2854 135.623 17.6926 138.382C19.0308 139.219 20.7178 139.281 22.0859 138.494C24.7425 136.964 28.1047 133.749 29.1858 128.153" stroke="black" stroke-width="1.32882" stroke-linecap="round"/>
<path d="M13.5945 134.646C14.0133 136.915 14.1809 142.353 11.5 145.956" stroke="black" stroke-width="1.32882" stroke-linecap="round"/>
<path d="M26.7102 134.541C26.2913 136.81 26.1238 142.249 28.8047 145.851" stroke="black" stroke-width="1.32882" stroke-linecap="round"/>
<rect x="8.21129" y="114.983" width="23.729" height="12.5289" rx="3.32205" stroke="black" stroke-width="1.32882"/>
<rect x="10.68" y="117.261" width="18.7933" height="7.97293" rx="1.99323" stroke="black" stroke-width="1.32882"/>
<path d="M32.4453 118.833H34.2256V124.488H32.4453" stroke="black" stroke-width="1.32882" stroke-linecap="round"/>
<path d="M7.61719 118.833H5.8369V124.488H7.61719" stroke="black" stroke-width="1.32882" stroke-linecap="round"/>
<path d="M18.3047 129.266C18.8981 129.859 20.4201 130.69 21.7605 129.266" stroke="black" stroke-width="1.32882" stroke-linecap="round"/>
<path d="M16.5234 132.237C17.5707 133.075 20.4401 134.248 23.5399 132.237" stroke="black" stroke-width="1.32882" stroke-linecap="round"/>
<path d="M0.945054 15.4116C2.74784 10.9947 8.30645 9.74028 10.8604 9.66516C10.8604 14.4426 15.3677 16.7636 17.6213 17.327C23.7057 18.4538 26.0719 16.8763 29.9028 18.6791C32.9675 20.1213 32.3816 24.8386 31.7056 27.017C30.1281 31.186 20.8888 34.6789 18.41 34.2282C14.1735 33.7775 6.0531 27.7306 2.5225 24.7635C0.715016 23.4114 0.346221 16.8763 0.945054 15.4116Z" stroke="black" stroke-width="1.35209"/>
<path d="M3.97656 11.9187C6.19249 14.6604 12.7426 20.2791 21.2157 20.82C29.6889 21.3608 27.3002 28.7823 25.0467 32.4254" stroke="black" stroke-width="1.35209"/>
<path d="M1.05469 15.6371C1.43027 15.224 3.46592 16.1779 9.50527 20.5948C10.8949 21.3084 14.6432 22.375 17.6178 23.637C21.4488 25.2622 20.5474 32.0876 18.8572 34.2284" stroke="black" stroke-width="1.35209"/>
<path d="M22.7656 25.9401L24.005 25.6021" stroke="black" stroke-width="1.35209" stroke-linecap="round"/>
<path d="M11.7578 12.8199C16.8282 8.31302 29.5604 1.89059 35.4194 6.2849C36.2793 6.92977 39.1377 11.1299 34.18 18.2283" stroke="black" stroke-width="1.35209" stroke-linecap="round"/>
<path d="M10.6328 9.77786C15.1398 2.34139 32.9423 -3.06693 39.3648 4.36957C41.6029 6.96108 43.4101 16.4753 31.3314 27.7428" stroke="black" stroke-width="1.35209"/>
<path d="M188.82 118.179C189.354 115.732 192.318 110.991 199.911 111.581C199.93 111.582 199.948 111.581 199.966 111.577C201.243 111.297 203.99 110.227 205.335 108.092C205.412 107.97 205.591 107.965 205.66 108.092C206.326 109.323 207.046 111.683 205.683 113.354C205.599 113.457 205.632 113.615 205.759 113.656C206.247 113.813 206.894 113.913 207.269 113.661C207.432 113.551 207.762 113.53 207.776 113.726C207.817 114.311 207.581 115.011 206.599 115.442C206.479 115.494 206.435 115.648 206.515 115.752C207.092 116.499 207.914 117.768 207.572 118.179" stroke="black" stroke-width="1.13076" stroke-linecap="round"/>
<path d="M188.344 124.587C190.228 130.806 202.572 135.8 207.567 124.587" stroke="black" stroke-width="1.13076" stroke-linecap="round"/>
<path d="M199.899 127.053C199.459 127.656 198.109 128.516 196.225 127.127" stroke="black" stroke-width="1.13076" stroke-linecap="round"/>
<path d="M192.68 135.8C193.653 135.706 195.62 136.139 195.695 138.627V142.961" stroke="black" stroke-width="1.13076" stroke-linecap="round"/>
<path d="M203.523 135.812C202.55 135.717 200.583 136.151 200.508 138.638V142.973" stroke="black" stroke-width="1.13076" stroke-linecap="round"/>
<path d="M203.518 143.056H192.587C192.483 143.056 192.398 142.971 192.398 142.867V136.177C192.398 133.575 194.508 131.465 197.11 131.465H198.995C201.597 131.465 203.706 133.575 203.706 136.177V142.867C203.706 142.971 203.622 143.056 203.518 143.056Z" stroke="black" stroke-width="1.13076" stroke-linecap="round"/>
<path d="M186.876 124.365L187.939 118.428C187.955 118.338 188.033 118.273 188.124 118.273H208.16C208.253 118.273 208.331 118.34 208.346 118.431L209.321 124.367C209.34 124.482 209.251 124.586 209.135 124.586H187.061C186.944 124.586 186.855 124.48 186.876 124.365Z" stroke="black" stroke-width="1.13076" stroke-linecap="round"/>
<path d="M204.886 120.535H190.563C190.459 120.535 190.375 120.619 190.375 120.723V122.231C190.375 122.335 190.459 122.419 190.563 122.419H204.886C204.99 122.419 205.075 122.335 205.075 122.231V120.723C205.075 120.619 204.99 120.535 204.886 120.535Z" stroke="black" stroke-width="1.13076" stroke-linecap="round"/>
<path d="M107.586 131.482C109.047 133.083 112.951 135.366 116.876 131.691" stroke="black" stroke-width="0.815614"/>
<path d="M105.711 123.862V124.521C105.711 124.791 105.93 125.01 106.2 125.01H106.65C106.79 126.367 108.049 129.29 111.974 130.125C113.61 129.882 117.131 128.518 117.715 125.01H118.166C118.436 125.01 118.655 124.791 118.655 124.521V124.071" stroke="black" stroke-width="0.815614"/>
<path d="M96.8359 142.965L97.6915 136.198C97.8666 134.814 98.9027 133.694 100.269 133.412L106.678 132.091C107.512 131.919 108.11 131.185 108.11 130.333V127.933" stroke="black" stroke-width="0.815614"/>
<path d="M127.422 142.965L126.566 136.198C126.391 134.814 125.355 133.694 123.988 133.412L117.58 132.091C116.746 131.919 116.148 131.185 116.148 130.333V127.933" stroke="black" stroke-width="0.815614"/>
<path d="M106.547 115.407C108.113 111.649 114.689 109.665 118.029 115.615" stroke="black" stroke-width="0.815614"/>
<path d="M110.719 115.198V110.814H113.746V115.198" stroke="black" stroke-width="0.815614"/>
<path d="M104.141 117.562V120.176V121.653C104.141 122.769 104.895 123.754 105.993 123.949C110.385 124.732 115.194 124.5 118.274 124.086C119.415 123.932 120.216 122.935 120.216 121.783V117.821C120.216 116.724 119.485 115.762 118.398 115.615C114.742 115.119 108.726 115.164 105.691 115.603C104.73 115.742 104.141 116.592 104.141 117.562Z" stroke="black" stroke-width="0.815614"/>
<circle cx="109.48" cy="117.428" r="0.57093" stroke="black" stroke-width="0.489368"/>
<circle cx="111.925" cy="117.428" r="0.57093" stroke="black" stroke-width="0.489368"/>
<circle cx="114.37" cy="117.428" r="0.57093" stroke="black" stroke-width="0.489368"/>
<path d="M189.694 15.2231H179.836V19.9128H189.694V15.2231Z" stroke="black" stroke-width="1.62712" stroke-linecap="round"/>
<path d="M180.602 20.5826C180.834 21.7701 181.317 24.0436 181.696 25.2738C181.834 25.7221 181.941 26.1865 181.941 26.6556V30.919" stroke="black" stroke-width="1.62712" stroke-linecap="round"/>
<path d="M207.491 9.86349C206.757 7.40701 203.586 2.20692 196.772 1.05843C192.656 0.420386 185.287 0.484197 181.458 8.23647C180.596 10.8206 180.376 12.2706 180.529 14.6441" stroke="black" stroke-width="1.62712" stroke-linecap="round"/>
<path d="M206.54 25.368C205.87 27.665 205.583 30.6319 204.817 32.3547C204.604 32.8332 199.745 32.9385 196.012 32.0675C194.098 31.6209 190.002 30.0386 188.547 26.1337" stroke="black" stroke-width="1.62712" stroke-linecap="round"/>
<path d="M187.203 14.4574C188.32 13.3727 191.127 11.0502 193.424 10.4377C197.902 9.68662 207.108 8.86753 211.253 10.9364C212.052 11.335 212.602 12.0835 212.871 12.9343C213.605 15.2518 213.963 19.1018 211.619 22.5584C211.428 22.8406 211.204 23.1042 210.913 23.2815C209.889 23.9052 207.386 24.7324 202.899 24.6024C199.677 24.5705 192.371 24.6024 187.873 20.2955" stroke="black" stroke-width="1.62712" stroke-linecap="round"/>
<path d="M199.258 33.1204V35.0345" stroke="black" stroke-width="1.62712" stroke-linecap="round"/>
<path d="M194.703 67.6031C199.257 65.9506 210.017 63.5269 216.627 67.0523" stroke="black" stroke-width="1.1017" stroke-linecap="round"/>
<path d="M177.406 68.815C178.087 68.2707 179.003 68.136 179.814 68.4555C184.841 70.4374 193.667 73.6336 199.498 74.829C200.81 75.098 201.865 76.1528 201.835 77.492C201.748 81.3643 200.637 86.2995 198.096 87.0256" stroke="black" stroke-width="1.1017" stroke-linecap="round"/>
<path d="M186.223 63.7471C183.73 64.0001 178.527 64.8647 177.353 66.3199C177.316 66.3666 177.293 66.4197 177.282 66.4786C176.988 67.9541 176.561 72.0535 177.079 77.4082C177.152 78.2161 177.718 79.9642 179.392 80.493L194.706 86.2218C196.212 86.9196 199.796 87.8964 202.087 86.2218L207.341 83.1574C207.364 83.1439 207.386 83.1283 207.406 83.1108L209.237 81.5355C211.018 80.0029 211.851 77.6401 211.426 75.3292L211.278 74.5219C210.732 71.5527 208.243 69.3358 205.235 69.0817C201.026 68.7262 196.274 68.2456 194.706 67.8234C192.502 67.2302 188.78 66.6556 186.223 63.7471ZM186.223 63.7471C193.09 61.6906 208.279 58.1946 214.096 60.6624C217.952 61.8375 222.535 65.598 210.019 71.2387" stroke="black" stroke-width="1.1017" stroke-linecap="round"/>
<path d="M218.284 64.6284L218.793 70.0293C218.82 70.3185 218.795 70.6104 218.686 70.8799C217.995 72.5975 215.83 75.9101 211.453 78.1793" stroke="black" stroke-width="1.1017" stroke-linecap="round"/>
<path d="M179.719 65.1793C182.95 66.942 191.705 70.776 200.871 72.0099C202.083 72.173 205.168 72.7811 204.507 79.0607C204.434 80.6766 204.022 84.2167 202.965 85.4506" stroke="black" stroke-width="1.1017" stroke-linecap="round"/>
<path d="M91.5668 66.8606C107.69 61.2215 124.009 64.3403 130.915 66.856C131.342 67.0116 131.617 67.4211 131.617 67.8758V77.9826C131.617 82.8789 127.648 86.8481 122.752 86.8481H119.427C114.329 77.6501 104.947 81.0855 102.694 86.8481H99.7014C94.8052 86.8481 90.8359 82.8789 90.8359 77.9826V67.8965C90.8359 67.4315 91.1279 67.0142 91.5668 66.8606Z" stroke="black" stroke-width="1.40837"/>
<path d="M95.9297 65.5709L98.5832 60.264C99.334 58.7622 100.869 57.8136 102.548 57.8136H119.564C121.357 57.8136 122.974 58.8935 123.66 60.5498L125.74 65.5709" stroke="black" stroke-width="1.40837"/>
<path d="M121.646 82.5262C124.777 83.3649 127.852 81.0054 127.852 77.7639V74.119C127.852 72.4162 126.879 70.8489 125.238 70.3951C119.455 68.7962 108.793 68.1284 98.1411 70.472C96.1232 70.916 94.7925 72.7962 94.8992 74.8597L95.0975 78.693C95.2436 81.5177 97.9619 83.4848 100.691 82.7406L101.477 82.5262" stroke="black" stroke-width="1.40837" stroke-linecap="round"/>
<path d="M35.9987 73.9581H18.6058H5.8096C4.84902 73.9581 4.07031 74.7368 4.07031 75.6974V88.4936C4.07031 89.4542 4.84902 90.2329 5.8096 90.2329H15.3929C16.584 90.2329 17.7355 89.8051 18.6376 89.0274L20.204 87.6771C20.5721 87.3597 21.1158 87.3552 21.4892 87.6663L23.1869 89.0811C24.08 89.8254 25.2057 90.2329 26.3683 90.2329H35.9987C36.9593 90.2329 37.738 89.4542 37.738 88.4936V75.6974C37.738 74.7368 36.9593 73.9581 35.9987 73.9581Z" stroke="black" stroke-width="1.49082" stroke-linecap="round"/>
<path d="M38.2422 75.3246H39.8572C40.4061 75.3246 40.8511 75.7696 40.8511 76.3185V87.9966C40.8511 88.5455 40.4061 88.9904 39.8572 88.9904H38.2422" stroke="black" stroke-width="1.49082" stroke-linecap="round"/>
<path d="M3.44531 75.449H1.83026C1.28135 75.449 0.836376 75.894 0.836376 76.4429V88.121C0.836376 88.6699 1.28135 89.1148 1.83026 89.1148H3.44531" stroke="black" stroke-width="1.49082" stroke-linecap="round"/>
<path d="M5.75 73.3368V70.3551C5.75 64.7288 10.311 60.1678 15.9373 60.1678H25.8761C31.5024 60.1678 36.0634 64.7288 36.0634 70.3551V73.3368" stroke="black" stroke-width="1.49082" stroke-linecap="round"/>
<path d="M2.64062 74.7034V69.6617C2.64062 62.5947 8.42122 56.8934 15.4875 56.9909L26.9171 57.1486C33.8468 57.2443 39.4142 62.8891 39.4142 69.8194V74.7034" stroke="black" stroke-width="1.49082" stroke-linecap="round"/>
<path d="M24.4453 78.182L26.0833 84.5154C26.1464 84.7596 26.4913 84.7652 26.5623 84.5231L28.4208 78.182" stroke="black" stroke-width="1.49082" stroke-linecap="round"/>
<path d="M31.2734 84.6422V78.5045C31.2734 78.3885 31.3543 78.2867 31.4688 78.2681C34.0201 77.8529 36.0055 80.7292 32.5309 81.6905C32.3538 81.7395 32.2752 81.9536 32.3885 82.0983L34.3793 84.6422" stroke="black" stroke-width="1.49082" stroke-linecap="round"/>
<path d="M118.443 18.7372C118.086 19.6496 119.288 22.7835 122.014 22.7835C127.132 22.7835 129.75 30.4001 122.847 33.1373C120.906 33.9307 115.785 34.5178 110.834 30.5191C107.066 27.8612 98.6477 24.402 95.125 31.8282" stroke="black" stroke-width="1.66613" stroke-linecap="round"/>
<path d="M125.711 6.59814L129.832 7.24876C130.063 7.28529 130.233 7.48473 130.233 7.71897V13.0493C130.233 13.3463 129.964 13.5708 129.672 13.5177L126.306 12.9056" stroke="black" stroke-width="1.66613" stroke-linecap="round"/>
<path d="M98.6875 7.07436C102.456 5.09087 113.326 3.14705 122.608 7.07436" stroke="black" stroke-width="1.66613" stroke-linecap="round"/>
<path d="M95.3594 6.59814L91.2388 7.24876C91.0074 7.28529 90.837 7.48473 90.837 7.71897V13.0493C90.837 13.3463 91.106 13.5708 91.3982 13.5177L94.7643 12.9056" stroke="black" stroke-width="1.66613" stroke-linecap="round"/>
<path d="M96.8797 4.62631C99.94 2.66439 106.843 1.94916 110.108 1.83784C117.629 1.57852 122.251 3.45786 124.048 4.69683C124.365 4.91559 124.617 5.21467 124.804 5.55149C127.171 9.80969 125.938 14.5676 124.984 16.476C123.562 18.9855 119.892 18.8002 117.623 18.2608C117.056 18.1261 116.551 17.8184 116.123 17.4229L113.211 14.7312C111.661 13.2976 109.268 13.2976 107.718 14.7312L104.733 17.4905C104.353 17.8423 103.909 18.1263 103.414 18.2804C99.1389 19.6115 96.9034 17.6776 96.3028 16.476C94.3552 11.8186 95.1503 7.6947 95.992 5.69526C96.1761 5.25787 96.4802 4.88244 96.8797 4.62631Z" stroke="black" stroke-width="1.66613" stroke-linecap="round"/>
</svg>
