<svg width="260" height="178" viewBox="0 0 260 178" fill="none" xmlns="http://www.w3.org/2000/svg">
<path d="M43.92 15.5366C43.9199 15.2975 43.7064 15.115 43.4702 15.152L31.6578 17.0009C31.4684 17.0307 31.3287 17.1938 31.3287 17.3855V26.9218C31.3287 27.1135 31.4684 27.2767 31.6578 27.3064L43.4702 29.1554C43.7064 29.1923 43.9199 29.0098 43.92 28.7707V15.5366ZM46.2565 28.7707C46.2564 30.4443 44.7623 31.7225 43.1089 31.4637L31.2965 29.615C29.97 29.4073 28.9922 28.2645 28.9922 26.9218V17.3855C28.9922 16.0428 29.97 14.9 31.2965 14.6923L43.1089 12.8436C44.7623 12.5848 46.2564 13.863 46.2565 15.5366V28.7707Z" fill="black"/>
<path d="M24.7567 5.71877C30.7712 5.38946 37.1124 8.56275 39.4175 14.1816C39.6624 14.7785 39.3771 15.4609 38.7801 15.7058C38.1832 15.9507 37.5008 15.6653 37.2559 15.0684C35.4073 10.5623 30.1308 7.76449 24.8845 8.05174C22.2957 8.19348 19.7829 9.08948 17.7662 10.8502C15.7567 12.6046 14.1698 15.2784 13.5274 19.102C13.4205 19.7383 12.8182 20.1675 12.182 20.0606C11.5457 19.9537 11.1165 19.3512 11.2234 18.7149C11.9439 14.4258 13.7646 11.2421 16.2293 9.09019C18.6868 6.94457 21.7152 5.8853 24.7567 5.71877Z" fill="black"/>
<path d="M13.1938 26.0885C13.7449 25.753 14.4636 25.9278 14.7991 26.4789C15.6545 27.8842 16.5868 28.991 17.4328 29.9758C18.2325 30.9068 19.0846 31.8622 19.533 32.823C19.8267 33.4523 19.9147 34.3451 19.9386 35.1777C19.9643 36.0687 19.918 37.1058 19.8299 38.1529C19.6543 40.2404 19.3023 42.4799 18.9585 43.8553C18.802 44.4811 18.1677 44.8616 17.5418 44.7051C16.9159 44.5485 16.5355 43.9143 16.6919 43.2884C16.9971 42.0676 17.3331 39.9584 17.5015 37.9572C17.5854 36.9599 17.6253 36.0173 17.6031 35.2452C17.5792 34.4148 17.4853 33.9608 17.4155 33.8112C17.137 33.2143 16.5611 32.5471 15.6603 31.4985C14.8059 30.5038 13.7652 29.2741 12.8033 27.6938C12.4679 27.1427 12.6426 26.424 13.1938 26.0885Z" fill="black"/>
<path d="M38.3347 29.8123C38.3347 29.1671 38.8577 28.644 39.5029 28.644C40.1481 28.644 40.6712 29.1671 40.6712 29.8123C40.6712 31.1752 40.4532 32.2511 40.2414 33.2773C40.0303 34.3007 39.8215 35.2899 39.7613 36.6152C39.7296 37.3124 39.2687 37.8116 38.9125 38.0958C38.512 38.4153 37.9947 38.6691 37.4144 38.847C36.243 39.2062 34.6754 39.2999 32.8699 38.8666L32.8524 38.8623L32.8351 38.8577L25.6958 36.9106L25.6674 36.9025C23.87 36.3633 22.8987 34.8754 22.3284 33.5067C22.0803 32.9112 22.3621 32.2271 22.9576 31.979C23.5532 31.7309 24.2373 32.0127 24.4854 32.6082C24.952 33.7281 25.5361 34.42 26.3308 34.6618L33.4296 36.5977C34.8623 36.9391 35.9976 36.8376 36.7296 36.6132C37.0862 36.5038 37.3166 36.3745 37.4392 36.2811C37.5216 34.8632 37.753 33.7749 37.9531 32.8052C38.1632 31.787 38.3347 30.9157 38.3347 29.8123Z" fill="black"/>
<path d="M40.4102 29.8123V14.4952C40.4102 13.85 40.9332 13.3269 41.5784 13.3269C42.2236 13.3269 42.7467 13.85 42.7467 14.4952V29.8123C42.7467 30.4576 42.2236 30.9806 41.5784 30.9806C40.9332 30.9806 40.4102 30.4576 40.4102 29.8123Z" fill="black"/>
<path d="M9 23.1923V20.7259C9 19.2204 10.2204 18 11.7259 18H29.8989C30.5441 18 31.0671 18.523 31.0671 19.1683C31.0671 19.8135 30.5441 20.3365 29.8989 20.3365H11.7259C11.5109 20.3365 11.3365 20.5109 11.3365 20.7259V23.1923C11.3365 23.4073 11.5109 23.5817 11.7259 23.5817H29.8989C30.5441 23.5817 31.0671 24.1047 31.0671 24.7499C31.0671 25.3952 30.5441 25.9182 29.8989 25.9182H11.7259C10.2204 25.9182 9 24.6978 9 23.1923Z" fill="black"/>
<path d="M32.7723 37.911C32.8877 37.2763 33.496 36.8551 34.1307 36.9704C34.7655 37.0859 35.1867 37.6941 35.0713 38.3288L34.0329 44.0403C33.9175 44.6751 33.3092 45.0963 32.6745 44.9809C32.0397 44.8655 31.6185 44.2573 31.7339 43.6225L32.7723 37.911Z" fill="black"/>
<path d="M144.252 52.1053C144.784 51.3748 146.024 51.2186 146.613 52.1495L146.669 52.2462L146.774 52.4454C147.3 53.4685 147.825 54.8919 147.974 56.424C148.096 57.6724 147.97 59.0471 147.341 60.325C147.441 60.312 147.474 60.2916 147.466 60.297C147.809 60.0666 148.244 59.9586 148.634 59.9785C148.835 59.9888 149.134 60.0385 149.42 60.2308C149.73 60.4393 149.956 60.7744 150.009 61.182L150.017 61.2647L150.023 61.3835C150.047 61.9838 149.932 62.6633 149.552 63.3136C149.288 63.7653 148.916 64.1656 148.436 64.5029C148.747 64.9534 149.06 65.4522 149.306 65.9369C149.505 66.3268 149.692 66.7677 149.779 67.2008C149.857 67.5878 149.916 68.2735 149.445 68.8389C149.04 69.3245 148.318 69.3902 147.833 68.9856C147.425 68.6457 147.313 68.082 147.527 67.6225C147.494 67.4817 147.413 67.2637 147.266 66.9742C146.955 66.3626 146.471 65.6608 146.054 65.1204C145.445 64.3324 145.813 63.2595 146.629 62.9022C146.833 62.8125 146.998 62.7179 147.13 62.6236C147.075 62.6231 147.02 62.6217 146.967 62.6192C146.428 62.5929 145.895 62.4681 145.462 62.3288C144.367 61.9764 144.266 60.7231 144.81 60.0567L144.882 59.9656C145.61 59.017 145.813 57.8561 145.695 56.6459C145.626 55.9379 145.449 55.2436 145.227 54.6228C144.166 55.8464 142.865 56.7894 141.614 57.4912C139.972 58.4129 138.337 58.9645 137.261 59.2005C137.113 59.2331 136.972 59.2389 136.845 59.229C125.964 58.3847 121.918 65.1134 121.212 68.3499C121.078 68.9675 120.468 69.3591 119.85 69.2245C119.233 69.0899 118.841 68.4801 118.976 67.8625C119.886 63.6837 124.81 56.0578 136.89 56.9368C137.761 56.7316 139.119 56.2662 140.494 55.4949C141.936 54.6858 143.316 53.5855 144.201 52.1802L144.252 52.1053Z" fill="black"/>
<path d="M119.047 76.7397C119.652 76.5564 120.291 76.8982 120.475 77.5031C121.75 81.7134 126.72 85.7345 132.381 86.6301C135.167 87.0709 138.052 86.7377 140.668 85.3366C143.28 83.9384 145.712 81.4302 147.52 77.3695C147.777 76.7921 148.454 76.5323 149.031 76.7894C149.609 77.0466 149.869 77.7232 149.612 78.3006C147.629 82.7526 144.874 85.6812 141.749 87.3547C138.63 89.025 135.228 89.3983 132.023 88.8913C125.702 87.8912 119.869 83.3995 118.284 78.167C118.101 77.5621 118.442 76.923 119.047 76.7397Z" fill="black"/>
<path d="M135.991 80.906C136.364 80.3952 137.08 80.283 137.59 80.6554C138.101 81.0277 138.213 81.7436 137.841 82.2544C137.356 82.9204 136.432 83.6594 135.158 83.8959C133.842 84.1404 132.298 83.8226 130.658 82.6136C130.15 82.2385 130.041 81.5219 130.416 81.0131C130.791 80.5043 131.508 80.3958 132.017 80.7709C133.237 81.6706 134.149 81.755 134.74 81.6453C135.374 81.5276 135.809 81.156 135.991 80.906Z" fill="black"/>
<path d="M129.391 105.734V99.1744C129.341 97.6413 128.74 96.8929 128.131 96.4943C127.453 96.0507 126.614 95.9471 126.068 96C125.438 96.0609 124.879 95.6 124.818 94.9708C124.757 94.3417 125.218 93.7824 125.847 93.7214C126.779 93.6312 128.171 93.7851 129.384 94.579C130.665 95.4169 131.612 96.883 131.679 99.1182L131.68 99.1355V105.734C131.68 106.366 131.168 106.879 130.535 106.879C129.903 106.879 129.391 106.366 129.391 105.734Z" fill="black"/>
<path d="M138.976 105.752V99.1922C139.026 97.6591 139.627 96.9107 140.236 96.5121C140.914 96.0685 141.754 95.965 142.3 96.0178C142.929 96.0787 143.488 95.6178 143.549 94.9886C143.61 94.3595 143.15 93.8002 142.52 93.7393C141.588 93.649 140.196 93.803 138.983 94.5968C137.703 95.4347 136.755 96.9008 136.688 99.136L136.687 99.1533V105.752C136.687 106.384 137.2 106.897 137.832 106.897C138.464 106.897 138.976 106.384 138.976 105.752Z" fill="black"/>
<path d="M141.555 95.4329C141.555 92.1142 138.865 89.4239 135.546 89.4239H132.685C129.366 89.4239 126.676 92.1142 126.676 95.4329V104.733H141.555V95.4329ZM143.844 105.591C143.844 106.381 143.204 107.022 142.414 107.022H125.817C125.027 107.022 124.387 106.381 124.387 105.591V95.4329C124.387 90.85 128.102 87.1348 132.685 87.1348H135.546C140.129 87.1348 143.844 90.85 143.844 95.4329V105.591Z" fill="black"/>
<path d="M149.466 67.1046C150.145 67.1046 150.727 67.5808 150.866 68.2391L150.878 68.3037L152.358 77.3172C152.501 78.1882 151.829 78.9796 150.946 78.9796H117.431C116.54 78.9796 115.866 78.1737 116.023 77.2965L117.637 68.283C117.759 67.601 118.353 67.1046 119.045 67.1046H149.466ZM118.457 76.6904H149.936L148.738 69.3938H119.764L118.457 76.6904Z" fill="black"/>
<path d="M123.598 73.3999H143.628V72.8276H123.598V73.3999ZM145.917 74.2583C145.917 75.0485 145.276 75.689 144.486 75.689H122.739C121.949 75.689 121.309 75.0485 121.309 74.2583V71.9692C121.309 71.179 121.949 70.5385 122.739 70.5385H144.486C145.276 70.5385 145.917 71.179 145.917 71.9692V74.2583Z" fill="black"/>
<path d="M235.457 26.8835C235.457 24.8068 233.774 23.1233 231.697 23.1233H210.766C208.689 23.1233 207.005 24.8068 207.005 26.8835V35.5318C207.005 37.6084 208.689 39.2919 210.766 39.2919H212.927C214.079 39.2919 215.181 38.8258 215.984 37.9998L217.235 36.7122C218.428 35.4834 220.406 35.4981 221.581 36.7445L222.721 37.9538C223.526 38.8078 224.648 39.2919 225.822 39.2919H231.697C233.774 39.2919 235.457 37.6084 235.457 35.5318V26.8835ZM237.462 35.5318C237.462 38.716 234.881 41.2973 231.697 41.2973H225.822C224.096 41.2973 222.446 40.5854 221.262 39.3296L220.122 38.1203C219.73 37.7048 219.071 37.6999 218.673 38.1095L217.422 39.3972C216.242 40.6119 214.621 41.2973 212.927 41.2973H210.766C207.581 41.2973 205 38.716 205 35.5318V26.8835C205 23.6992 207.581 21.1179 210.766 21.1179H231.697C234.881 21.1179 237.462 23.6992 237.462 26.8835V35.5318Z" fill="black"/>
<path d="M241.73 35.2107V27.2711C241.73 25.0919 239.991 23.3114 237.812 23.2613L231.806 23.1232L231.852 21.1183L237.858 21.2564C241.126 21.3315 243.736 24.0023 243.736 27.2711V35.2107C243.736 38.5076 241.082 41.1902 237.786 41.2264L231.338 41.2974L231.316 39.292L237.764 39.2213C239.961 39.1971 241.73 37.4086 241.73 35.2107Z" fill="black"/>
<path d="M226.025 9.45033C229.161 9.15526 232.44 9.90106 235.207 11.9887C237.977 14.0793 240.155 17.4559 241.199 22.285L239.239 22.7087C238.278 18.2628 236.32 15.3412 233.999 13.5894C231.673 11.8347 228.905 11.1937 226.213 11.4469C220.764 11.9596 215.878 16.0694 215.652 21.6598L213.648 21.579C213.924 14.761 219.818 10.0344 226.025 9.45033Z" fill="black"/>
<path d="M232.346 9.80305C234.356 9.54025 236.509 9.94412 238.762 11.2297L238.981 11.357L238.999 11.3678L239.016 11.3791C241.185 12.7936 245.357 17.4037 245.985 25.0468L243.987 25.211C243.413 18.2353 239.618 14.1752 237.936 13.0687C235.952 11.8955 234.181 11.5857 232.606 11.7916C231.01 12.0002 229.524 12.751 228.161 13.8467C225.41 16.057 223.327 19.5313 222.07 22.0649L220.273 21.1738C221.565 18.5685 223.806 14.7732 226.905 12.2834C228.466 11.029 230.286 10.0723 232.346 9.80305Z" fill="black"/>
<path d="M248.997 29.453C248.997 27.7571 247.622 26.3822 245.926 26.3822H242.855V24.3768H245.926C248.73 24.3768 251.002 26.6495 251.002 29.453C251.002 32.2565 248.73 34.5292 245.926 34.5292H242.855V32.5238H245.926C247.622 32.5238 248.997 31.149 248.997 29.453Z" fill="black"/>
<path d="M245.109 34.2785V33.5265H247.115V34.2785C247.115 36.9782 244.926 39.1667 242.227 39.1667V37.1613C243.819 37.1613 245.109 35.8706 245.109 34.2785Z" fill="black"/>
<path d="M132.678 34.66C134.49 33.1217 137.168 33.1875 138.902 34.8131L143.903 39.5022H153.572C153.744 39.5022 153.884 39.3627 153.884 39.1905V25.0093C153.884 24.8372 153.744 24.6977 153.572 24.6977H117.885C117.713 24.6977 117.574 24.8372 117.574 25.0093V39.1905C117.574 39.3627 117.713 39.5022 117.885 39.5022H126.975L132.678 34.66ZM157.001 39.1905C157.001 41.084 155.466 42.6189 153.572 42.6189H143.78C143.067 42.6189 142.381 42.3476 141.862 41.8601L136.77 37.087C136.192 36.5452 135.299 36.5232 134.695 37.0359L128.905 41.9521C128.398 42.3825 127.755 42.6189 127.09 42.6189H117.885C115.992 42.6189 114.457 41.084 114.457 39.1905V25.0093C114.457 23.1159 115.992 21.5809 117.885 21.5809H153.572C155.466 21.5809 157.001 23.1159 157.001 25.0093V39.1905Z" fill="black"/>
<path d="M135.403 7.82871C142.868 7.66238 150.942 11.6606 152.005 20.7772L148.909 21.1379C148.101 14.2033 141.994 10.7992 135.472 10.9445C128.896 11.0911 123.019 14.8047 122.557 21.0721L119.449 20.8429C120.078 12.3059 127.993 7.99382 135.403 7.82871Z" fill="black"/>
<path d="M134.094 19.0877V13.4776C134.094 12.6169 134.791 11.9192 135.652 11.9192C136.513 11.9192 137.21 12.6169 137.21 13.4776V19.0877C137.21 19.9484 136.513 20.6461 135.652 20.6461C134.791 20.6461 134.094 19.9484 134.094 19.0877Z" fill="black"/>
<path d="M26.972 58.1395C31.8653 57.8392 36.9205 60.3386 39.4808 66.3588C39.7079 66.8927 39.4589 67.5096 38.925 67.7367C38.3912 67.9637 37.7745 67.715 37.5474 67.1811C35.3428 61.9974 31.1256 59.9894 27.1008 60.2364C23.0172 60.487 19.1222 63.0537 17.606 67.1358C17.404 67.6796 16.7993 67.9567 16.2555 67.7547C15.7116 67.5527 15.4343 66.9481 15.6363 66.4042C17.4684 61.4716 22.1374 58.4362 26.972 58.1395Z" fill="black"/>
<path d="M37.7396 82.5155C37.8496 81.9459 38.4008 81.5734 38.9704 81.6834C39.54 81.7935 39.9125 82.3444 39.8025 82.914C38.4046 90.1503 34.043 94.3389 30.5642 96.3418C28.5309 97.5124 26.0404 97.4111 24.0799 96.184C18.3235 92.5811 15.792 86.0954 15.2013 82.906C15.0957 82.3355 15.4725 81.7874 16.043 81.6818C16.6135 81.5762 17.1616 81.953 17.2672 82.5235C17.795 85.3737 20.1119 91.2218 25.1947 94.4031C26.5255 95.236 28.1843 95.2877 29.5159 94.521C32.5708 92.7621 36.4784 89.0436 37.7396 82.5155Z" fill="black"/>
<path d="M19.3885 89.6662C19.959 89.5609 20.5069 89.9379 20.6123 90.5083C20.888 92.0018 21.0732 94.4763 20.7646 97.1585C20.4567 99.8348 19.6459 102.817 17.8465 105.235C17.5002 105.7 16.842 105.797 16.3766 105.45C15.9111 105.104 15.8145 104.446 16.1609 103.98C17.6583 101.968 18.393 99.3912 18.6775 96.9185C18.9613 94.4516 18.7858 92.1868 18.5464 90.89C18.4411 90.3195 18.8181 89.7716 19.3885 89.6662Z" fill="black"/>
<path d="M35.9083 89.5375C35.3378 89.4322 34.79 89.8092 34.6846 90.3797C34.4089 91.8732 34.2237 94.3476 34.5323 97.0298C34.8402 99.7062 35.651 102.688 37.4503 105.106C37.7967 105.571 38.4549 105.668 38.9203 105.322C39.3857 104.975 39.4823 104.317 39.136 103.852C37.6386 101.84 36.9039 99.2625 36.6194 96.7898C36.3356 94.323 36.5111 92.0581 36.7505 90.7613C36.8558 90.1908 36.4788 89.6429 35.9083 89.5375Z" fill="black"/>
<path d="M38.0646 80.6427V82.7436H17.0547V80.6427H38.0646ZM40.8659 77.8413V70.6046C40.8659 69.0575 39.6117 67.8033 38.0646 67.8033H17.0547C15.5075 67.8033 14.2533 69.0575 14.2533 70.6046V77.8413C14.2533 79.3885 15.5075 80.6427 17.0547 80.6427V82.7436C14.3472 82.7436 12.1523 80.5488 12.1523 77.8413V70.6046C12.1523 67.8971 14.3472 65.7023 17.0547 65.7023H38.0646C40.772 65.7023 42.9669 67.8971 42.9669 70.6046V77.8413C42.9669 80.5488 40.772 82.7436 38.0646 82.7436V80.6427C39.6117 80.6427 40.8659 79.3885 40.8659 77.8413Z" fill="black"/>
<path d="M36.6643 77.8413V79.9423H18.4557V77.8413H36.6643ZM37.8315 76.6741V71.7717C37.8315 71.1271 37.3089 70.6045 36.6643 70.6045H18.4557C17.8111 70.6045 17.2885 71.1271 17.2885 71.7717V76.6741C17.2885 77.3187 17.8111 77.8413 18.4557 77.8413V79.9423C16.6507 79.9423 15.1875 78.479 15.1875 76.6741V71.7717C15.1875 69.9668 16.6507 68.5035 18.4557 68.5035H36.6643C38.4693 68.5035 39.9325 69.9668 39.9325 71.7717V76.6741C39.9325 78.479 38.4693 79.9423 36.6643 79.9423V77.8413C37.3089 77.8413 37.8315 77.3187 37.8315 76.6741Z" fill="black"/>
<path d="M46.0011 70.2028V79.258H42.7614C42.1813 79.258 41.711 78.7877 41.7109 78.2075C41.7109 77.6274 42.1813 77.157 42.7614 77.157H43.9002V72.3037H42.7614C42.1813 72.3037 41.7109 71.8334 41.7109 71.2533C41.7109 70.6731 42.1813 70.2028 42.7614 70.2028H46.0011Z" fill="black"/>
<path d="M9.00276 70.2028V79.258H12.2425C12.8226 79.258 13.2929 78.7877 13.293 78.2075C13.293 77.6274 12.8226 77.157 12.2425 77.157H11.1038V72.3037H12.2425C12.8226 72.3037 13.293 71.8334 13.293 71.2533C13.293 70.6731 12.8226 70.2028 12.2425 70.2028H9.00276Z" fill="black"/>
<path d="M24.6358 83.3405C25.0461 82.9303 25.711 82.9303 26.1213 83.3405C26.3724 83.5917 26.8335 83.8943 27.3318 83.9775C27.758 84.0486 28.2842 83.9786 28.8633 83.3633C29.2609 82.9408 29.9258 82.9206 30.3483 83.3182C30.7708 83.7158 30.7909 84.3807 30.3932 84.8032C29.324 85.9392 28.0901 86.2342 26.986 86.0499C25.954 85.8777 25.1144 85.3045 24.6358 84.826C24.2256 84.4157 24.2256 83.7507 24.6358 83.3405Z" fill="black"/>
<path d="M31.2479 86.8559C31.7346 86.5402 32.385 86.6788 32.7008 87.1655C33.0165 87.6522 32.8779 88.3029 32.3912 88.6186C28.1051 91.3987 24.0794 89.7932 22.5348 88.5575C22.0818 88.195 22.0085 87.5339 22.3709 87.0809C22.7333 86.628 23.3944 86.5546 23.8475 86.917C24.8785 87.7418 27.9101 89.0209 31.2479 86.8559Z" fill="black"/>
<path d="M235.649 83.7999C235.888 83.1899 236.576 82.889 237.186 83.1276C237.796 83.3663 238.097 84.0542 237.858 84.6642C237.895 84.5712 237.834 84.6826 237.931 85.0719C238.014 85.4059 238.182 85.8097 238.438 86.1949C238.951 86.9673 239.711 87.5267 240.707 87.5267C244.175 87.5267 246.753 90.1062 247.325 93.085C247.615 94.594 247.399 96.2279 246.53 97.7082C245.662 99.1873 244.186 100.437 242.079 101.275L242.079 101.276C239.582 102.296 233.467 102.929 227.621 98.232C225.633 96.8343 222.47 95.269 219.423 94.9974C217.911 94.8627 216.484 95.0509 215.244 95.6774C214.018 96.2966 212.88 97.3905 212.004 99.2366C211.723 99.8284 211.016 100.08 210.424 99.7998C209.832 99.519 209.58 98.8117 209.861 98.2199C210.936 95.9544 212.425 94.4433 214.174 93.5599C215.909 92.6838 217.805 92.4717 219.633 92.6346C223.14 92.9471 226.602 94.6562 228.802 96.1641L229.011 96.3093L229.043 96.3317L229.073 96.3559C234.18 100.481 239.384 99.8146 241.182 99.0799L241.187 99.0775L241.193 99.0755C242.901 98.3981 243.926 97.4594 244.485 96.5072C245.044 95.5537 245.183 94.5107 244.995 93.5323C244.612 91.5363 242.906 89.8988 240.707 89.8988C238.685 89.8988 237.27 88.723 236.463 87.5076C236.058 86.8991 235.779 86.2457 235.629 85.6449C235.493 85.0995 235.415 84.3982 235.649 83.7999Z" fill="black"/>
<path d="M250.997 77.9339C250.997 79.0028 250.029 79.8108 248.978 79.6196L245.25 78.9418C244.606 78.8247 244.178 78.2072 244.295 77.5628C244.413 76.9183 245.03 76.4907 245.675 76.6078L248.625 77.1442V72.5944L244.618 71.962C243.971 71.8598 243.53 71.2523 243.632 70.6053C243.734 69.9583 244.342 69.5165 244.989 69.6187L249.551 70.3391C250.384 70.4706 250.997 71.1884 250.997 72.0315V77.9339Z" fill="black"/>
<path d="M225.774 67.679C230.717 67.4028 236.487 67.9621 241.836 70.2253C242.439 70.4806 242.722 71.1765 242.466 71.7797C242.211 72.3829 241.515 72.665 240.912 72.4098C235.982 70.3242 230.594 69.7853 225.906 70.0472C221.193 70.3106 217.324 71.3745 215.438 72.3671C214.858 72.6721 214.141 72.4497 213.836 71.8701C213.531 71.2904 213.754 70.5732 214.333 70.2681C216.62 69.0643 220.856 67.9538 225.774 67.679Z" fill="black"/>
<path d="M205.003 77.9339C205.003 79.0028 205.971 79.8108 207.022 79.6196L210.75 78.9418C211.394 78.8247 211.822 78.2072 211.705 77.5628C211.587 76.9183 210.97 76.4907 210.325 76.6078L207.375 77.1442V72.5944L211.382 71.962C212.029 71.8598 212.47 71.2523 212.368 70.6053C212.266 69.9583 211.658 69.5165 211.011 69.6187L206.449 70.3391C205.616 70.4706 205.003 71.1884 205.003 72.0315V77.9339Z" fill="black"/>
<path d="M227.498 64.3337C236.019 64.0398 241.404 66.1611 243.648 67.7086C244.175 68.0715 244.569 68.551 244.849 69.055C247.731 74.2396 246.227 79.9493 245.072 82.2588L245.058 82.2863L245.043 82.3131C244.007 84.1412 242.185 84.906 240.457 85.1565C238.733 85.4065 236.93 85.1781 235.586 84.8587C234.716 84.6519 233.98 84.19 233.394 83.6479L230.17 80.6671C228.907 79.4999 226.959 79.4999 225.697 80.6671L222.392 83.7226C221.87 84.2053 221.228 84.6254 220.478 84.8589C215.234 86.4918 212.136 84.1499 211.191 82.2585L211.173 82.2228L211.157 82.1859C208.858 76.6874 209.78 71.7865 210.814 69.3304C211.105 68.6399 211.593 68.03 212.25 67.6084C214.16 66.3841 217.125 65.6135 219.926 65.1259C222.774 64.6302 225.644 64.3972 227.498 64.3339V64.3337ZM242.302 69.6614C240.567 68.4649 235.714 66.424 227.579 66.7045H227.579C225.817 66.7646 223.057 66.9888 220.333 67.463C217.561 67.9454 215.01 68.6572 213.531 69.6053C213.303 69.7509 213.118 69.9724 213 70.2505C212.173 72.2163 211.337 76.4278 213.327 81.2246C213.74 82.0114 215.598 83.8939 219.773 82.5939C220.119 82.4862 220.461 82.2772 220.782 81.9808L224.086 78.9253C226.258 76.9176 229.609 76.9176 231.78 78.9253L235.004 81.9062C235.365 82.2399 235.749 82.4593 236.134 82.5509C237.303 82.8287 238.788 83.0016 240.117 82.8088C241.431 82.6183 242.421 82.1038 242.963 81.1698C243.92 79.2342 245.124 74.433 242.775 70.2076C242.641 69.9656 242.478 69.7829 242.302 69.6614Z" fill="black"/>
<path d="M159.443 141.363V160.675H139.395L133.975 154.594L128.423 160.675H108.238V141.363H159.443ZM110.872 158.041H127.261L133.999 150.663L140.576 158.041H156.81V143.997H110.872V158.041Z" fill="black"/>
<path d="M153.638 132L155.759 142.117L153.182 142.658L151.499 134.633H115.764L114.214 142.638L111.629 142.137L113.591 132H153.638Z" fill="black"/>
<path d="M109.409 145.021V147.654H106.337V155.408H109.409V158.042H103.703V145.021H109.409Z" fill="black"/>
<path d="M158.275 145.021V147.654H161.347V155.408H158.275V158.042H163.98V145.021H158.275Z" fill="black"/>
<path d="M140.132 137.12V142.534H137.499V139.754H129.891V142.534H127.258V137.12H140.132Z" fill="black"/>
<path d="M136.479 145.606C137.207 145.606 137.796 146.195 137.796 146.923C137.796 147.65 137.207 148.239 136.479 148.239H130.774C130.047 148.239 129.457 147.65 129.457 146.923C129.457 146.195 130.047 145.606 130.774 145.606H136.479Z" fill="black"/>
<path d="M24.1632 140.873V148.343H11V140.873H24.1632ZM13.3044 146.038H21.8588V143.177H13.3044V146.038Z" fill="black"/>
<path d="M13.3199 159.315V154.618C13.3199 154.27 13.2388 153.887 13.0999 153.435C12.6626 152.015 12.1207 149.455 11.8654 148.15C11.7432 147.525 12.1504 146.92 12.7748 146.798C13.3993 146.676 14.0046 147.083 14.1268 147.707C14.3833 149.018 14.9053 151.467 15.3023 152.757C15.4674 153.293 15.6244 153.933 15.6244 154.618V159.315C15.6244 159.951 15.1085 160.467 14.4721 160.467C13.8358 160.467 13.3199 159.951 13.3199 159.315Z" fill="black"/>
<path d="M21.9126 125.812C25.2724 124.739 28.6342 124.918 30.992 125.283L31.007 125.286C39.0574 126.643 42.8291 132.785 43.7272 135.791C43.9093 136.401 43.5627 137.043 42.953 137.225C42.3434 137.407 41.7015 137.061 41.5193 136.451C40.8011 134.047 37.5889 128.736 30.6325 127.559C28.4576 127.223 25.4971 127.086 22.6135 128.007C19.7855 128.91 16.9758 130.844 15.016 134.768C14.1783 137.314 14.4008 138.481 14.5702 141.107C14.6112 141.742 14.1295 142.29 13.4945 142.331C12.8595 142.372 12.3115 141.891 12.2705 141.256C12.1042 138.678 11.8221 137.059 12.8546 133.964L12.8796 133.889L12.9144 133.819C15.1701 129.251 18.511 126.898 21.9126 125.812Z" fill="black"/>
<path d="M40.46 152.877C40.6382 152.266 41.2779 151.916 41.8888 152.094C42.4997 152.272 42.8504 152.912 42.6722 153.522C42.3209 154.727 42.0704 156.106 41.7863 157.513C41.5133 158.865 41.2027 160.281 40.7213 161.364C40.5542 161.74 40.2538 161.926 40.127 161.996C39.9694 162.084 39.8075 162.141 39.6766 162.179C39.4102 162.257 39.0931 162.31 38.7662 162.348C38.1009 162.426 37.2279 162.46 36.2577 162.447C34.3177 162.422 31.8649 162.205 29.7075 161.702C27.502 161.187 22.48 159.313 20.6666 154.446C20.4444 153.849 20.7477 153.186 21.3439 152.964C21.9402 152.741 22.6038 153.045 22.826 153.641C24.2175 157.376 28.2198 158.988 30.2314 159.458C32.1855 159.914 34.4653 160.119 36.2883 160.143C37.1996 160.155 37.9659 160.122 38.4987 160.059C38.6078 160.047 38.7006 160.033 38.7785 160.02C39.0615 159.242 39.2908 158.229 39.5274 157.057C39.7967 155.723 40.0733 154.203 40.46 152.877Z" fill="black"/>
<path d="M37.0655 134.711C40.7967 134.667 44.7234 134.998 47.276 136.272C48.4899 136.878 49.2719 137.986 49.6424 139.156C50.514 141.908 50.9667 146.551 48.1179 150.752C47.8689 151.119 47.5122 151.566 46.9864 151.886C45.5992 152.731 42.5985 153.652 37.5476 153.509C35.7854 153.491 32.7854 153.493 29.5936 152.882C26.4065 152.272 22.9119 151.031 20.2106 148.445C19.751 148.005 19.735 147.275 20.1751 146.816C20.6152 146.356 21.3445 146.34 21.8042 146.78C24.0578 148.938 27.0643 150.052 30.027 150.619C32.9849 151.185 35.7835 151.187 37.5706 151.204H37.5814L37.5924 151.205C42.4133 151.345 44.9212 150.445 45.7877 149.918C45.9034 149.847 46.0381 149.713 46.2107 149.458C48.526 146.044 48.1912 142.206 47.4455 139.852C47.2223 139.147 46.7919 138.606 46.2468 138.334C44.234 137.329 40.8068 136.971 37.0928 137.016C33.4681 137.058 29.7887 137.478 27.369 137.881C26.312 138.174 25.0599 138.88 23.8703 139.715C22.6805 140.551 21.6467 141.45 21.0723 142.008C20.6159 142.451 19.8864 142.441 19.443 141.984C18.9996 141.528 19.0101 140.799 19.4665 140.355C20.122 139.718 21.2494 138.74 22.5458 137.83C23.8237 136.932 25.3622 136.03 26.8251 135.64L26.8776 135.626L26.9314 135.617C29.4448 135.196 33.2733 134.756 37.0655 134.711Z" fill="black"/>
<path d="M32.4023 163.848V161.739C32.4023 161.103 32.9182 160.587 33.5546 160.587C34.1909 160.587 34.7068 161.103 34.7068 161.739V163.848C34.7068 164.484 34.1909 165 33.5546 165C32.9182 165 32.4023 164.484 32.4023 163.848Z" fill="black"/>
<path d="M226.436 117.258C231.739 116.902 237.452 119.46 239.524 126.04C239.701 126.6 239.39 127.197 238.83 127.373C238.271 127.549 237.674 127.238 237.498 126.679C235.778 121.218 231.11 119.074 226.579 119.378C221.961 119.687 217.885 122.486 217.196 126.538C217.098 127.116 216.549 127.505 215.971 127.407C215.392 127.309 215.003 126.76 215.101 126.181C216.011 120.829 221.22 117.607 226.436 117.258Z" fill="black"/>
<path d="M237.576 139.325C237.699 138.751 238.264 138.386 238.838 138.509C239.412 138.632 239.777 139.196 239.654 139.77L239.347 141.204C239.306 141.395 239.243 141.584 239.16 141.763C236.553 147.374 234.102 149.727 230.911 150.317C230.752 150.347 230.599 150.358 230.456 150.358H224.51C222.126 150.358 220.12 148.728 218.664 147.007C217.174 145.245 216.049 143.141 215.441 141.692C215.377 141.539 215.331 141.387 215.299 141.238L214.985 139.77C214.862 139.196 215.227 138.632 215.801 138.509C216.375 138.386 216.94 138.751 217.063 139.325L217.377 140.793C217.384 140.826 217.392 140.851 217.401 140.871C217.947 142.174 218.97 144.078 220.287 145.634C221.639 147.232 223.1 148.233 224.51 148.233H230.456C230.489 148.233 230.511 148.23 230.525 148.228C232.672 147.83 234.711 146.295 237.233 140.867C237.249 140.834 237.261 140.796 237.269 140.758L237.576 139.325Z" fill="black"/>
<path d="M225.531 135.36C226.54 134.523 228.008 134.547 228.989 135.416L232.472 138.504C232.587 138.605 232.739 138.652 232.891 138.633L239.036 137.865C239.302 137.832 239.501 137.606 239.501 137.338V128.412C239.501 128.119 239.264 127.881 238.97 127.881H215.438C215.144 127.881 214.906 128.119 214.906 128.412V137.343C214.906 137.61 215.105 137.836 215.37 137.87L221.319 138.635C221.465 138.654 221.613 138.611 221.726 138.517L225.531 135.36ZM241.626 137.338C241.626 138.678 240.629 139.808 239.3 139.974L233.154 140.742C232.396 140.837 231.634 140.601 231.063 140.094L227.579 137.006C227.383 136.833 227.09 136.828 226.888 136.995L223.083 140.152C222.516 140.623 221.779 140.836 221.048 140.742L215.099 139.977C213.774 139.807 212.781 138.679 212.781 137.343V128.412C212.781 126.945 213.971 125.756 215.438 125.756H238.97C240.437 125.756 241.626 126.945 241.626 128.412V137.338Z" fill="black"/>
<path d="M212.854 129.179C213.441 129.179 213.917 129.654 213.917 130.241C213.917 130.828 213.441 131.304 212.854 131.304H212.082V135.142H212.854C213.441 135.142 213.917 135.618 213.917 136.204C213.917 136.791 213.441 137.267 212.854 137.267H211.285C210.552 137.267 209.957 136.672 209.957 135.939V130.507C209.957 129.773 210.552 129.179 211.285 129.179H212.854Z" fill="black"/>
<path d="M241.403 129.179C240.817 129.179 240.341 129.654 240.341 130.241C240.341 130.828 240.817 131.304 241.403 131.304H242.176V135.142H241.403C240.817 135.142 240.341 135.618 240.341 136.204C240.341 136.791 240.817 137.267 241.403 137.267H242.973C243.706 137.267 244.301 136.672 244.301 135.939V130.507C244.301 129.773 243.706 129.179 242.973 129.179H241.403Z" fill="black"/>
<path d="M222.018 152.553C222.018 153.104 221.678 153.598 221.162 153.794L208.413 158.645C207.624 159.012 206.132 160.276 206.196 162.568H248.731C248.759 162.053 248.697 161.438 248.455 160.844C248.122 160.025 247.422 159.176 245.954 158.672L245.932 158.664L245.91 158.655L233.578 153.79C233.071 153.59 232.737 153.1 232.737 152.555V148.148C232.737 147.562 233.213 147.086 233.8 147.086C234.386 147.086 234.862 147.562 234.862 148.148V152.012L246.678 156.674C248.703 157.379 249.861 158.66 250.423 160.043C250.971 161.389 250.93 162.762 250.71 163.685C250.56 164.316 249.997 164.693 249.427 164.693H205.466C204.827 164.693 204.258 164.23 204.157 163.572C203.554 159.623 206.097 157.359 207.56 156.698L207.589 156.685L207.619 156.674L219.893 152.003V148.148C219.893 147.562 220.369 147.086 220.956 147.086C221.542 147.086 222.018 147.562 222.018 148.148V152.553Z" fill="black"/>
<path d="M238.302 128.695V133.802H216.223V128.695H238.302ZM218.348 131.677H236.177V130.82H218.348V131.677Z" fill="black"/>
</svg>
