<svg width="222" height="154" viewBox="0 0 222 154" fill="none" xmlns="http://www.w3.org/2000/svg">
<path d="M11.6797 15.3884H20.159" stroke="black" stroke-width="2.19834" stroke-linecap="round"/>
<path d="M48.5838 26.8512V21.516C48.5838 19.6691 47.1311 18.1489 45.2861 18.065L38.377 17.7509C36.4096 17.6615 34.7656 19.2325 34.7656 21.2019V26.8512C34.7656 28.7591 36.3123 30.3058 38.2202 30.3058H45.1292C47.0371 30.3058 48.5838 28.7591 48.5838 26.8512Z" stroke="black" stroke-width="2.19834" stroke-linecap="round"/>
<path d="M45.2818 17.4297V10.6777C45.2818 8.76979 43.7352 7.22314 41.8273 7.22314H7.43891C5.53102 7.22314 3.98438 8.76979 3.98438 10.6777V35.6446C3.98438 37.5525 5.53102 39.0991 7.43891 39.0991H41.8273C43.7352 39.0991 45.2818 37.5525 45.2818 35.6446V30.3057" stroke="black" stroke-width="2.19834" stroke-linecap="round"/>
<path d="M3.98438 9.57844V4.55366C3.98438 2.64577 5.53102 1.09912 7.43891 1.09912H36.7828C37.968 1.09912 39.0706 1.7068 39.7035 2.70896L42.4554 7.06605" stroke="black" stroke-width="2.19834" stroke-linecap="round"/>
<path d="M99.5625 13.8358H126.466C129.317 13.8358 131.627 16.1465 131.627 18.997V22.2152" stroke="black" stroke-width="1.54834" stroke-linecap="round"/>
<path d="M100.682 7.13232H100.146C97.2951 7.13232 94.9844 9.44305 94.9844 12.2935V34.2596C94.9844 37.11 97.2951 39.4207 100.146 39.4207H126.357C129.208 39.4207 131.518 37.11 131.518 34.2596V30.9297M126.826 7.13232H131.518" stroke="black" stroke-width="1.54834" stroke-linecap="round"/>
<path d="M100.68 10.7763V1.09912H126.376V10.7763" stroke="black" stroke-width="1.54834" stroke-linecap="round"/>
<path d="M130.126 30.2592H133.98V22.7737H130.126C128.059 22.7737 126.383 24.4494 126.383 26.5165C126.383 28.5835 128.059 30.2592 130.126 30.2592Z" stroke="black" stroke-width="1.54834" stroke-linecap="round"/>
<path d="M131.405 19.8083C131.142 19.7451 130.292 19.783 129.199 19.8615C125.705 20.1121 122.93 23.1073 122.93 26.6098C122.93 30.0379 125.598 32.8736 129.02 33.082L131.405 33.2273" stroke="black" stroke-width="1.54834" stroke-linecap="round"/>
<path d="M186.899 11.5762H197.757H209.963C211.364 11.5762 212.501 12.7124 212.501 14.1139C212.501 16.8158 212.9 19.5027 213.686 22.0877L217.222 33.7174C217.991 36.244 216.155 38.8122 213.515 38.9028L198.451 39.4195L183.257 38.9027C180.605 38.8125 178.766 36.221 179.558 33.6877L183.174 22.1174C183.988 19.5135 184.402 16.8012 184.402 14.0731C184.402 12.6941 185.52 11.5762 186.899 11.5762Z" stroke="black" stroke-width="2.00931" stroke-linecap="round"/>
<circle cx="195.948" cy="3.17987" r="2.08075" fill="black"/>
<path d="M196.984 4.91382L199.157 8.92498C199.207 9.01761 199.304 9.07531 199.409 9.07531H203.747" stroke="black" stroke-width="1.43522" stroke-linecap="round"/>
<circle cx="2.08075" cy="2.08075" r="2.08075" transform="matrix(-1 0 0 1 202.359 1.09912)" fill="black"/>
<path d="M199.234 4.91382L197.062 8.92498C197.011 9.01761 196.915 9.07531 196.809 9.07531H192.472" stroke="black" stroke-width="1.43522" stroke-linecap="round"/>
<path d="M8.54688 81.7327C16.4965 70.0516 40.6698 71.1873 42.7789 91.6292" stroke="black" stroke-width="1.94685" stroke-linecap="round"/>
<path d="M6.28227 87.2487L5.63278 90.8208C5.248 92.9371 6.28765 95.0814 8.28822 95.8717C17.5615 99.5346 29.596 100.359 39.7031 96.1717" stroke="black" stroke-width="1.94685" stroke-linecap="round"/>
<path d="M5.79688 76.5411C11.7996 70.4842 27.2771 62.0046 41.1646 76.5411" stroke="black" stroke-width="1.94685" stroke-linecap="round"/>
<path d="M16.9922 60.8041C17.1003 62.9132 18.3874 67.3909 22.6705 68.4292" stroke="black" stroke-width="1.94685" stroke-linecap="round"/>
<path d="M30.6171 60.6418C30.8875 62.7509 30.2926 67.2611 25.75 68.4292" stroke="black" stroke-width="1.94685" stroke-linecap="round"/>
<circle cx="16.9906" cy="59.0194" r="2.92027" fill="black"/>
<circle cx="30.9359" cy="59.6684" r="2.92027" fill="black"/>
<path d="M103.902 64.7975H119.973C122.575 64.7975 124.684 66.9064 124.684 69.508V70.4797C124.684 71.9867 125.282 73.4319 126.348 74.4976L128.972 77.1217C130.356 78.5056 131.685 80.0445 132.047 81.968C132.712 85.5066 131.69 90.6723 124.684 94.7239C115.484 100.044 104.41 96.9407 100.022 94.7239C88.9909 88.5847 93.0759 79.9272 97.8176 74.8945C99.1292 73.5025 100.022 71.7239 100.022 69.8113V68.6768C100.022 66.5343 101.759 64.7975 103.902 64.7975Z" stroke="black" stroke-width="1.66258" stroke-linecap="round"/>
<path d="M128.696 71.1707V66.4255C128.696 63.6899 126.478 61.4723 123.743 61.4723H120.389C118.731 61.4723 117.545 59.8713 118.028 58.2857C118.51 56.7002 117.324 55.0991 115.667 55.0991H114.74C114.285 55.0991 113.86 55.33 113.613 55.7124C113.084 56.53 111.888 56.53 111.358 55.7124C111.111 55.33 110.687 55.0991 110.231 55.0991H109.648C107.986 55.0991 106.831 56.7661 107.377 58.3355C107.916 59.8871 106.82 61.5481 105.179 61.6236L101.429 61.7959C98.623 61.925 96.4141 64.2378 96.4141 67.0472V71.1707" stroke="black" stroke-width="1.66258" stroke-linecap="round"/>
<path d="M104.458 69.231C104.458 71.0321 104.458 74.7729 104.458 75.3271C104.458 75.6283 103.394 77.3345 102.133 79.2447C100.169 82.2222 99.0547 85.6909 99.0547 89.2583V89.459" stroke="black" stroke-width="1.66258" stroke-linecap="round"/>
<path d="M120.386 69.3695C120.386 71.1706 120.386 74.9114 120.386 75.4656C120.386 75.7668 121.45 77.473 122.71 79.3833C124.675 82.3608 125.789 85.8295 125.789 89.3969V89.5975" stroke="black" stroke-width="1.66258" stroke-linecap="round"/>
<path d="M200.328 80.5819V82.421" stroke="black" stroke-width="1.37931" stroke-linecap="round"/>
<path d="M200.102 90.0072V91.8463" stroke="black" stroke-width="1.37931" stroke-linecap="round"/>
<path d="M202.967 82.4209H199.576C198.529 82.4209 197.68 83.27 197.68 84.3174C197.68 85.3649 198.529 86.214 199.576 86.214H201.07C202.118 86.214 202.967 87.0631 202.967 88.1106C202.967 89.158 202.118 90.0071 201.07 90.0071H197.68" stroke="black" stroke-width="1.37931" stroke-linecap="round"/>
<path d="M184.927 68.7428L180.937 75.2387C180.314 76.2522 179.984 77.4184 179.984 78.6079V79.4214C179.984 80.485 180.248 81.532 180.751 82.4688L183.105 86.8477C184.227 88.935 186.405 90.237 188.775 90.237H191.823" stroke="black" stroke-width="1.37931" stroke-linecap="round"/>
<path d="M215.729 68.7428L219.72 75.2387C220.342 76.2522 220.672 77.4184 220.672 78.6079V79.4214C220.672 80.485 220.408 81.532 219.905 82.4688L217.551 86.8477C216.429 88.935 214.251 90.237 211.881 90.237H208.833" stroke="black" stroke-width="1.37931" stroke-linecap="round"/>
<path d="M210.268 61.6165H190.025C188.754 61.6165 187.544 62.1572 186.696 63.1035L184.642 65.3968C183.835 66.2978 184.048 67.7111 185.086 68.3335C185.914 68.8308 186.984 68.6367 187.585 67.8797L188.536 66.6821C189.232 65.8055 190.29 65.2946 191.409 65.2946H209.023C210.133 65.2946 211.177 65.8196 211.84 66.7104L212.855 68.075C213.536 68.9909 214.854 69.128 215.709 68.3718C216.492 67.6798 216.589 66.4941 215.931 65.6835L214.113 63.4466C213.172 62.2887 211.76 61.6165 210.268 61.6165Z" stroke="black" stroke-width="1.37931" stroke-linecap="round"/>
<circle cx="197.691" cy="58.7428" r="1.95402" stroke="black" stroke-width="1.37931"/>
<circle cx="202.972" cy="58.7428" r="1.95402" stroke="black" stroke-width="1.37931"/>
<circle cx="200.096" cy="86.2142" r="9.1954" stroke="black" stroke-width="1.37931"/>
<path d="M47.078 121.1L43.5781 124.156L48.0624 125.373C49.8558 125.859 51.5299 124.278 51.1467 122.46C50.7551 120.601 48.5087 119.85 47.078 121.1Z" stroke="black" stroke-width="1.96156" stroke-linecap="round"/>
<path d="M0.984375 124.525V147.783C0.984375 148.557 1.61167 149.185 2.38549 149.185H23.6824H41.8968C42.6706 149.185 43.2979 148.557 43.2979 147.783V124.525M0.984375 124.525V123.544C0.984375 119.985 3.86995 117.099 7.42949 117.099H36.8528C40.4124 117.099 43.2979 119.985 43.2979 123.544V124.525M0.984375 124.525L6.39298 121.227C6.6127 121.093 6.86507 121.022 7.12241 121.022H36.6299C36.868 121.022 37.1022 121.083 37.3103 121.199L43.2979 124.525" stroke="black" stroke-width="1.96156" stroke-linecap="round"/>
<circle cx="22.4158" cy="135.264" r="3.08244" stroke="black" stroke-width="1.40111"/>
<path d="M22.4172 132.154C22.7218 128.758 26.4324 125.807 28.3864 127.486C29.7391 128.648 29.4063 132.506 25.2269 133.723" stroke="black" stroke-width="1.40111" stroke-linecap="round"/>
<path d="M24.8018 137.797C26.9638 140.433 31.665 140.284 32.3362 137.797C32.8008 136.075 30.0898 133.496 25.9503 134.842" stroke="black" stroke-width="1.40111" stroke-linecap="round"/>
<path d="M20.5954 137.926C18.7019 140.761 19.8443 145.433 22.4189 145.352C24.2014 145.296 26.2569 141.909 23.7661 138.34" stroke="black" stroke-width="1.40111" stroke-linecap="round"/>
<path d="M18.9908 134.846C15.6671 134.088 11.7152 136.707 12.709 139.083C13.397 140.729 17.1196 141.105 19.5659 137.505" stroke="black" stroke-width="1.40111" stroke-linecap="round"/>
<path d="M21.3034 132.322C21.6323 128.928 18.2097 125.569 15.979 126.857C14.4346 127.749 14.719 131.761 19.0624 133.723" stroke="black" stroke-width="1.40111" stroke-linecap="round"/>
<path d="M103.215 124.177H113.311H121.139C121.887 124.177 122.625 124.442 123.193 124.928C138.641 138.148 131.107 148.131 124.579 150.002C124.334 150.072 124.08 150.099 123.825 150.099H101.141C100.812 150.099 100.473 150.048 100.162 149.941C87.4725 145.577 94.089 131.92 101.069 125.028C101.639 124.466 102.414 124.177 103.215 124.177Z" stroke="black" stroke-width="2.06202" stroke-linecap="round"/>
<path d="M96.8125 129.479V124.766C96.8125 121.675 99.3183 119.169 102.409 119.169H123.03C126.121 119.169 128.626 121.675 128.626 124.766V130.215" stroke="black" stroke-width="2.06202" stroke-linecap="round"/>
<circle cx="110.226" cy="115.192" r="2.06202" stroke="black" stroke-width="2.06202"/>
<circle cx="115.226" cy="115.192" r="2.06202" stroke="black" stroke-width="2.06202"/>
<path d="M209.221 144.72H212.67C214.932 144.72 216.766 142.886 216.766 140.624V122.195C216.766 119.933 214.932 118.099 212.67 118.099H183.787M183.787 118.099L206.485 126.082C208.124 126.659 209.221 128.207 209.221 129.945V147.948C209.221 150.754 206.465 152.728 203.809 151.826L183.775 145.021C182.108 144.454 180.989 142.886 180.997 141.126L181.081 120.793C181.087 119.304 182.297 118.099 183.787 118.099Z" stroke="black" stroke-width="1.07775" stroke-linecap="round"/>
<path d="M187.021 122.41L205.307 128.889C205.652 129.011 205.882 129.336 205.882 129.701V147.297C205.882 147.885 205.306 148.301 204.748 148.116L184.758 141.486" stroke="black" stroke-width="1.07775" stroke-linecap="round"/>
<path d="M201.672 121.656H212.018C212.494 121.656 212.88 122.042 212.88 122.518V138.361" stroke="black" stroke-width="1.07775" stroke-linecap="round"/>
<circle cx="200.386" cy="137.606" r="2.37105" stroke="black" stroke-width="1.07775"/>
</svg>
