<svg width="260" height="178" viewBox="0 0 260 178" fill="none" xmlns="http://www.w3.org/2000/svg">
<path d="M28.5034 22.5353C28.6224 22.3768 28.8473 22.3446 29.0058 22.4635C31.5664 24.3839 32.324 26.4838 31.9966 28.1676C31.6742 29.8251 30.2968 31.0063 28.7906 31.0064H20.176C19.9778 31.0064 19.8171 30.8457 19.8171 30.6475C19.8171 30.4492 19.9778 30.2885 20.176 30.2885H28.7906C29.9166 30.2885 31.0278 29.3878 31.2918 28.0304C31.5506 26.6991 30.9919 24.8505 28.5752 23.0379C28.4166 22.919 28.3845 22.6939 28.5034 22.5353ZM21.5389 19.7553C22.2741 19.3722 23.1371 19.1865 24.0608 19.3282C24.9847 19.4699 25.945 19.9351 26.8828 20.8137C27.0274 20.9492 27.0349 21.1764 26.8994 21.321C26.7639 21.4657 26.5367 21.4731 26.3921 21.3376C25.542 20.5412 24.7103 20.1539 23.9521 20.0376C23.1938 19.9213 22.4843 20.0721 21.8707 20.3919C20.6236 21.0418 19.8131 22.3641 19.8131 23.4686V23.8276H19.4541C18.4294 23.8276 17.7059 24.1505 17.2096 24.6193C16.708 25.0931 16.4118 25.7416 16.2949 26.4301C16.1779 27.1199 16.2451 27.8279 16.4466 28.3961C16.652 28.9751 16.9718 29.347 17.3105 29.4739C17.4962 29.5434 17.5904 29.7502 17.5209 29.9359C17.4513 30.1215 17.2445 30.2155 17.0589 30.146C16.4391 29.9139 16.0103 29.3135 15.7701 28.6361C15.526 27.9481 15.4504 27.1158 15.5871 26.31C15.7241 25.5029 16.0782 24.7005 16.7165 24.0975C17.2975 23.5486 18.0924 23.1856 19.1153 23.1202C19.2614 21.812 20.2071 20.4494 21.5389 19.7553Z" fill="black"/>
<path d="M38.5991 27.7438V23.4767C38.5991 22.1846 37.9265 20.9856 36.824 20.3119L36.6172 20.1854C36.448 20.0821 36.3946 19.861 36.498 19.6919C36.6014 19.5227 36.8224 19.4694 36.9915 19.5727L37.1984 19.6991C38.5143 20.5033 39.317 21.9345 39.317 23.4767V27.7438C39.3169 29.0083 38.7763 30.2125 37.8312 31.0526L37.0427 31.7531C36.8946 31.8848 36.6678 31.8714 36.5361 31.7232C36.4044 31.5751 36.4179 31.3483 36.566 31.2166L37.3542 30.516C38.146 29.8122 38.599 28.8032 38.5991 27.7438Z" fill="black"/>
<path d="M27.1925 6C29.2095 6.00004 30.9714 7.36354 31.4776 9.31601L32.3628 12.7299C32.4125 12.9218 32.2971 13.1177 32.1053 13.1674C31.9134 13.2171 31.7176 13.1017 31.6678 12.9099L30.7828 9.49618C30.3587 7.86034 28.8824 6.71792 27.1925 6.71788H20.5018C18.7388 6.71793 17.2194 7.95907 16.8675 9.68664L16.2146 12.8916C16.175 13.0858 15.9854 13.2112 15.7912 13.1716C15.597 13.132 15.4716 12.9424 15.5112 12.7482L16.1641 9.54339C16.5841 7.48144 18.3975 6.00005 20.5018 6H27.1925Z" fill="black"/>
<path d="M15.802 37.7118C15.9973 37.6781 16.1831 37.8093 16.2168 38.0046L16.8309 41.5674C17.1377 43.3464 18.6808 44.6462 20.486 44.6462H27.4298C29.1205 44.6462 30.5975 43.5028 31.0208 41.8658L32.0268 37.9756C32.0765 37.7838 32.2724 37.6685 32.4643 37.7181C32.6562 37.7678 32.7715 37.9637 32.7218 38.1556L31.7158 42.0455C31.2105 43.9993 29.4478 45.3641 27.4298 45.3641H20.486C18.3313 45.3641 16.4897 43.8127 16.1235 41.6894L15.5092 38.1266C15.4755 37.9313 15.6066 37.7455 15.802 37.7118Z" fill="black"/>
<path d="M11.1992 34.3564V17.7254C11.1992 15.2805 13.1812 13.2985 15.6262 13.2985H33.4537C33.6519 13.2985 33.8126 13.4592 33.8126 13.6574C33.8126 13.8556 33.6519 14.0163 33.4537 14.0163H15.6262C13.5777 14.0163 11.9171 15.677 11.9171 17.7254V34.3564C11.9171 34.5547 11.7564 34.7154 11.5582 34.7154C11.3599 34.7154 11.1992 34.5547 11.1992 34.3564Z" fill="black"/>
<path d="M35.7281 33.5189V16.7682C35.7281 16.57 35.8888 16.4093 36.087 16.4093C36.2853 16.4093 36.446 16.57 36.446 16.7682V33.5189C36.446 35.9638 34.464 37.9459 32.019 37.9459H13.5933C13.3951 37.9459 13.2344 37.7851 13.2344 37.5869C13.2344 37.3887 13.3951 37.228 13.5933 37.228H32.019C34.0675 37.228 35.7281 35.5674 35.7281 33.5189Z" fill="black"/>
<path d="M42.9209 9.34333C43.0682 9.21076 43.2953 9.22277 43.4279 9.37013C43.5605 9.51751 43.5485 9.74458 43.4011 9.87716L6.87578 42.7386C6.72841 42.8711 6.50134 42.8591 6.36875 42.7117C6.23618 42.5644 6.24819 42.3373 6.39556 42.2047L42.9209 9.34333Z" fill="black"/>
<path d="M136.46 39.8234C136.518 39.6499 136.706 39.5562 136.879 39.614C137.053 39.6718 137.146 39.8594 137.089 40.033C136.788 40.9354 136.654 43.2601 138.654 45.0937C138.789 45.2173 138.798 45.4267 138.675 45.5616C138.551 45.6964 138.341 45.7054 138.207 45.5818C135.968 43.5293 136.099 40.9082 136.46 39.8234Z" fill="black"/>
<path d="M136.098 6.28154C136.267 6.21119 136.461 6.29104 136.532 6.45986C136.819 7.14873 137.16 8.28644 137.26 9.48529C137.359 10.6756 137.225 11.9893 136.491 12.9685C136.381 13.1148 136.173 13.1444 136.027 13.0347C135.881 12.9249 135.851 12.7172 135.961 12.5709C136.551 11.7837 136.694 10.6685 136.6 9.54049C136.506 8.42099 136.185 7.35065 135.92 6.71473C135.85 6.5459 135.93 6.35191 136.098 6.28154Z" fill="black"/>
<path d="M145.167 26.6801C145.167 18.7538 138.742 12.3282 130.815 12.3282C122.889 12.3282 116.463 18.7538 116.463 26.6801C116.463 34.6065 122.889 41.0321 130.815 41.0321V41.6945C122.523 41.6945 115.801 34.9723 115.801 26.6801C115.801 18.3879 122.523 11.6658 130.815 11.6658C139.107 11.6658 145.829 18.3879 145.829 26.6801C145.829 34.9723 139.107 41.6945 130.815 41.6945V41.0321C138.742 41.0321 145.167 34.6065 145.167 26.6801Z" fill="black"/>
<path d="M140.085 26.6801C140.085 21.5585 135.933 17.4065 130.811 17.4065C125.689 17.4065 121.537 21.5585 121.537 26.6801C121.537 31.8018 125.689 35.9537 130.811 35.9537V36.6161C125.323 36.6161 120.875 32.1676 120.875 26.6801C120.875 21.1926 125.323 16.7441 130.811 16.7441C136.298 16.7441 140.747 21.1926 140.747 26.6801C140.747 32.1676 136.298 36.6161 130.811 36.6161V35.9537C135.933 35.9537 140.085 31.8018 140.085 26.6801Z" fill="black"/>
<path d="M134.791 26.6801C134.791 24.4851 133.011 22.7057 130.816 22.7057C128.621 22.7057 126.842 24.4851 126.842 26.6801C126.842 28.8751 128.621 30.6545 130.816 30.6545V31.3169C128.256 31.3169 126.18 29.2409 126.18 26.6801C126.18 24.1193 128.256 22.0433 130.816 22.0433C133.377 22.0433 135.453 24.1193 135.453 26.6801C135.453 29.2409 133.377 31.3169 130.816 31.3169V30.6545C133.011 30.6545 134.791 28.8751 134.791 26.6801Z" fill="black"/>
<path d="M140.921 36.9505C141.102 36.9247 141.27 37.0506 141.296 37.2317C141.912 41.5435 140.549 44.2389 139.405 45.4452C139.014 45.8581 138.465 46 137.962 46H128.44C128.231 46 128.009 45.9767 127.791 45.9069C126.252 45.414 125.383 44.3132 124.928 43.1566C124.477 42.0094 124.426 40.7923 124.52 39.9992C124.542 39.8176 124.707 39.688 124.888 39.7096C125.07 39.7313 125.199 39.8961 125.178 40.0777C125.094 40.7843 125.141 41.8878 125.545 42.9142C125.944 43.9313 126.686 44.8573 127.993 45.276C128.129 45.3193 128.279 45.3376 128.44 45.3376H137.962C138.354 45.3376 138.7 45.2262 138.925 44.9894C139.917 43.9429 141.23 41.4553 140.64 37.3253C140.614 37.1442 140.74 36.9764 140.921 36.9505Z" fill="black"/>
<path d="M138.071 5.59375C138.799 5.59378 139.54 5.90056 139.967 6.54789C141.601 9.02446 141.851 12.3208 140.947 15.8331C140.901 16.0102 140.721 16.117 140.543 16.0714C140.366 16.0258 140.26 15.8451 140.305 15.6679C141.18 12.2683 140.911 9.18244 139.414 6.91272C139.135 6.48888 138.626 6.25618 138.071 6.25615H128.773C128.145 6.25616 127.564 6.56358 127.249 7.08393C125.49 9.98432 126.024 10.752 125.385 13.0783C125.337 13.2547 125.154 13.3583 124.978 13.3099C124.802 13.2614 124.698 13.0791 124.746 12.9028C125.316 10.8287 124.868 9.73267 126.682 6.74066C127.127 6.00616 127.933 5.59376 128.773 5.59375H138.071Z" fill="black"/>
<path d="M147.484 28.3856V24.9417C147.484 24.1878 147.032 23.507 146.338 23.2132L144.816 22.5691C144.647 22.4979 144.568 22.3035 144.639 22.1351C144.711 21.9667 144.905 21.8877 145.074 21.9589L146.596 22.6032C147.536 23.0007 148.146 23.9217 148.146 24.9417V28.3856C148.146 29.293 147.662 30.1315 146.876 30.585L145.11 31.6036C144.952 31.695 144.749 31.6408 144.658 31.4824C144.566 31.324 144.621 31.1215 144.779 31.03L146.545 30.0112C147.126 29.676 147.484 29.0563 147.484 28.3856Z" fill="black"/>
<path d="M247.557 20.054C247.557 18.2205 246.07 16.7341 244.237 16.7341H237.843C236.009 16.7341 234.523 18.2205 234.523 20.054V29.6447C234.523 31.4783 236.009 32.9646 237.843 32.9646H244.237C246.07 32.9646 247.557 31.4783 247.557 29.6447V20.054ZM248.294 29.6447C248.294 31.8857 246.478 33.7024 244.237 33.7024H237.843C235.602 33.7024 233.785 31.8857 233.785 29.6447V20.054C233.785 17.813 235.602 15.9963 237.843 15.9963H244.237C246.478 15.9963 248.294 17.813 248.294 20.054V29.6447Z" fill="black"/>
<path d="M243.248 21.8711C243.399 21.7343 243.632 21.7457 243.769 21.8966C243.906 22.0475 243.895 22.2809 243.744 22.4177L238.457 27.2131C238.306 27.35 238.072 27.3385 237.935 27.1877C237.799 27.0367 237.81 26.8034 237.961 26.6665L243.248 21.8711Z" fill="black"/>
<path d="M244.489 3.20874C246.565 3.20875 248.306 4.77469 248.524 6.83842L249.035 11.654C249.057 11.8566 248.91 12.0381 248.707 12.0596C248.505 12.0811 248.323 11.9344 248.302 11.7318L247.791 6.91623C247.612 5.22773 246.187 3.9465 244.489 3.94649H237.477C235.779 3.9465 234.355 5.22773 234.176 6.91623L233.665 11.7318C233.644 11.9344 233.462 12.0811 233.26 12.0596C233.057 12.0381 232.91 11.8566 232.932 11.654L233.442 6.83842C233.661 4.7747 235.402 3.20875 237.477 3.20874H244.489Z" fill="black"/>
<path d="M244.521 47.4739C246.611 47.4739 248.36 45.8862 248.56 43.8058L249.092 38.2873C249.112 38.0845 248.963 37.9043 248.76 37.8848C248.558 37.8653 248.378 38.0139 248.358 38.2167L247.826 43.7349C247.662 45.4371 246.231 46.7361 244.521 46.7361H237.682C235.972 46.7361 234.542 45.4371 234.378 43.7349L233.845 38.2167C233.826 38.0139 233.646 37.8653 233.443 37.8848C233.24 37.9043 233.092 38.0845 233.111 38.2873L233.643 43.8058C233.844 45.8862 235.592 47.4739 237.682 47.4739H244.521Z" fill="black"/>
<path d="M251.555 15.7505C251.555 13.917 250.068 12.4306 248.235 12.4306H233.726C231.892 12.4306 230.406 13.917 230.406 15.7505V34.4402C230.406 36.2737 231.892 37.7601 233.726 37.7601H248.235C250.068 37.7601 251.555 36.2737 251.555 34.4402V15.7505ZM252.292 34.4402C252.292 36.6812 250.476 38.4979 248.235 38.4979H233.726C231.485 38.4979 229.668 36.6812 229.668 34.4402V15.7505C229.668 13.5095 231.485 11.6929 233.726 11.6929H248.235C250.476 11.6929 252.292 13.5095 252.292 15.7505V34.4402Z" fill="black"/>
<path d="M21.1528 81.7915L24.7353 85.8412H18.3242V81.7915H21.1528ZM19.0835 85.0818H23.0499L20.8108 82.5508H19.0835V85.0818Z" fill="black"/>
<path d="M28.8309 79.1339V81.4118H30.8557V86.0942H28.8309V88.3722H15.543V79.1339H28.8309ZM16.3023 87.6129H28.0716V85.3349H30.0964V82.1711H28.0716V79.8932H16.3023V87.6129Z" fill="black"/>
<path d="M36.9297 79.134V75.211C36.9297 75.0013 37.0997 74.8313 37.3093 74.8313C37.519 74.8313 37.689 75.0013 37.689 75.211V79.134C37.689 79.3437 37.519 79.5137 37.3093 79.5137C37.0997 79.5137 36.9297 79.3437 36.9297 79.134Z" fill="black"/>
<path d="M37.0586 91.6625V84.8288C37.0586 84.6191 37.2286 84.4491 37.4382 84.4491C37.6479 84.4491 37.8179 84.6191 37.8179 84.8288V91.6625C37.8179 91.8722 37.6479 92.0422 37.4382 92.0422C37.2286 92.0422 37.0586 91.8722 37.0586 91.6625Z" fill="black"/>
<path d="M15.6719 106.596V97.1041C15.6719 96.8945 15.8419 96.7245 16.0515 96.7245C16.2612 96.7245 16.4312 96.8945 16.4312 97.1041V106.596C16.4312 107.504 17.1678 108.241 18.0764 108.241H28.2005C29.1091 108.241 29.8456 107.504 29.8456 106.596V97.1041C29.8456 96.8945 30.0156 96.7245 30.2253 96.7245C30.435 96.7245 30.605 96.8945 30.605 97.1041V106.596C30.605 107.923 29.5284 109 28.2005 109H18.0764C16.7484 109 15.6719 107.923 15.6719 106.596Z" fill="black"/>
<path d="M15.543 60.4044V69.8957C15.543 70.1054 15.7129 70.2754 15.9226 70.2754C16.1323 70.2754 16.3023 70.1054 16.3023 69.8957V60.4044C16.3023 59.4958 17.0388 58.7592 17.9474 58.7592H28.0716C28.9802 58.7592 29.7167 59.4958 29.7167 60.4044V69.8957C29.7167 70.1054 29.8867 70.2754 30.0964 70.2754C30.3061 70.2754 30.476 70.1054 30.476 69.8957V60.4044C30.476 59.0764 29.3995 57.9999 28.0716 57.9999H17.9474C16.6195 57.9999 15.543 59.0764 15.543 60.4044Z" fill="black"/>
<path d="M34.0832 76.3498C34.0832 73.2046 31.5335 70.6549 28.3883 70.6549H17.5049C14.3597 70.6549 11.8101 73.2046 11.8101 76.3498V90.7766C11.8101 93.9218 14.3597 96.4714 17.5049 96.4714H28.3883C31.5335 96.4714 34.0832 93.9218 34.0832 90.7766V76.3498ZM34.8425 90.7766C34.8425 94.3411 31.9529 97.2308 28.3883 97.2308H17.5049C13.9404 97.2308 11.0508 94.3411 11.0508 90.7766V76.3498C11.0508 72.7852 13.9404 69.8956 17.5049 69.8956H28.3883C31.9529 69.8956 34.8425 72.7852 34.8425 76.3498V90.7766Z" fill="black"/>
<path d="M152.031 76.2296L152.04 76.2302C153.161 76.2821 154.024 76.6435 154.624 77.2077C155.222 77.7709 155.528 78.5088 155.582 79.2585C155.669 80.4831 155.08 81.7807 153.944 82.4625C154.554 82.7054 155.031 83.0223 155.377 83.3981C155.865 83.9293 156.073 84.5592 156.031 85.1944C155.949 86.4306 154.942 87.5764 153.528 88.1251C153.523 88.134 153.516 88.1466 153.508 88.1633C153.474 88.2327 153.442 88.3351 153.423 88.4505C153.404 88.5662 153.402 88.6711 153.411 88.7437C153.413 88.7551 153.415 88.7647 153.417 88.7727C154.611 89.677 155.012 90.7792 154.754 91.7997C154.51 92.771 153.695 93.5517 152.691 93.9311C153.787 94.6607 154.227 95.811 154.162 96.8703C154.097 97.9352 153.514 98.9734 152.506 99.3701C152.214 99.4853 151.911 99.4959 151.674 99.4959H133.137C131.95 99.4959 130.823 98.9707 130.06 98.0612L128.512 96.2165C127.907 95.4952 127.014 95.0786 126.072 95.0786H124.599C124.37 95.0786 124.184 94.8925 124.184 94.6631C124.184 94.4336 124.37 94.2476 124.599 94.2476H126.072C127.259 94.2476 128.386 94.773 129.149 95.6826L130.696 97.527C131.302 98.2484 132.195 98.665 133.137 98.665H151.674C151.898 98.665 152.065 98.6506 152.202 98.5968C152.836 98.3471 153.282 97.6485 153.333 96.8197C153.382 96.008 153.042 95.1346 152.175 94.5865C151.905 94.416 151.769 94.1246 151.8 93.8338C151.832 93.5419 152.027 93.285 152.331 93.1781C153.176 92.8809 153.78 92.2643 153.949 91.5966C154.108 90.9651 153.905 90.1657 152.874 89.4037C152.666 89.2499 152.608 89.0017 152.588 88.8527C152.565 88.6789 152.575 88.489 152.603 88.315C152.632 88.1408 152.684 87.9583 152.76 87.8011C152.825 87.6659 152.954 87.4544 153.187 87.3667L153.302 87.3218C154.466 86.8444 155.148 85.9437 155.202 85.1395C155.229 84.7345 155.102 84.3267 154.765 83.9604C154.423 83.5878 153.845 83.241 152.951 83.0143C152.872 82.9941 152.789 82.9714 152.721 82.9445C152.689 82.9317 152.637 82.9089 152.585 82.8712C152.545 82.8419 152.416 82.7397 152.399 82.5496C152.381 82.3442 152.506 82.2169 152.554 82.1752C152.608 82.1285 152.664 82.1008 152.696 82.0865C152.764 82.0556 152.848 82.0294 152.926 82.0067C154.148 81.655 154.834 80.4612 154.753 79.3175C154.713 78.7543 154.486 78.2188 154.054 77.8128C153.625 77.409 152.965 77.1063 152.01 77.0606H138.033C137.804 77.0606 137.618 76.8745 137.618 76.6451C137.618 76.4156 137.804 76.2296 138.033 76.2296H152.031Z" fill="black"/>
<path d="M131.422 72.8907C132.269 71.5329 133.841 70.8075 135.424 71.0444L144.013 72.3303C144.76 72.4422 145.388 72.951 145.652 73.6592L146.593 76.1834C146.673 76.3984 146.563 76.6377 146.348 76.7179C146.133 76.7979 145.894 76.6886 145.814 76.4736L144.873 73.9494C144.715 73.5245 144.338 73.2191 143.89 73.152L135.301 71.8664C134.046 71.6785 132.799 72.2536 132.127 73.3305L129.77 77.1087C129.036 78.2847 127.748 78.9994 126.362 78.9994H124.599C124.37 78.9994 124.184 78.8134 124.184 78.584C124.184 78.3545 124.37 78.1685 124.599 78.1685H126.362C127.462 78.1685 128.483 77.6018 129.065 76.6692L131.422 72.8907Z" fill="black"/>
<path d="M103.965 91.1865V82.1847C103.965 79.9666 105.763 78.1685 107.981 78.1685H117.26C117.489 78.1685 117.675 78.3545 117.675 78.5839C117.675 78.8134 117.489 78.9994 117.26 78.9994H107.981C106.222 78.9994 104.796 80.4255 104.796 82.1847V91.1865C104.796 92.9457 106.222 94.3718 107.981 94.3718H110.751C110.98 94.3718 111.166 94.5578 111.166 94.7872C111.166 95.0167 110.98 95.2027 110.751 95.2027H107.981C105.763 95.2027 103.965 93.4046 103.965 91.1865ZM117.121 94.3718C117.351 94.3718 117.537 94.5578 117.537 94.7872C117.537 95.0167 117.351 95.2027 117.121 95.2027H114.504C114.275 95.2027 114.089 95.0167 114.089 94.7872C114.089 94.5578 114.275 94.3718 114.504 94.3718H117.121Z" fill="black"/>
<path d="M122.541 83.5988C123.031 83.5388 123.457 83.7049 123.775 83.9826C124.088 84.2546 124.298 84.6313 124.395 85.0167C124.492 85.4006 124.487 85.8294 124.321 86.2044C123.651 87.715 122.438 88.7201 121.454 89.5387C121.203 89.7471 120.839 89.753 120.582 89.5484C119.518 88.7016 118.819 87.9864 118.375 87.4224C117.945 86.8754 117.722 86.4281 117.682 86.1194C117.682 86.1166 117.682 86.1144 117.681 86.1127L117.681 86.1097L117.682 86.1146C117.517 85.5124 117.551 84.9835 117.765 84.5568C117.979 84.1302 118.347 83.8559 118.752 83.718C119.534 83.4516 120.545 83.667 121.1 84.3772C121.097 84.3731 121.097 84.3751 121.104 84.3791C121.108 84.3809 121.111 84.3824 121.115 84.3837C121.588 83.9159 122.07 83.6563 122.541 83.5988ZM123.23 84.609C123.068 84.4682 122.872 84.3952 122.641 84.4235C122.401 84.4528 122.071 84.5985 121.672 85.001C121.476 85.1989 121.214 85.2396 121.007 85.2092C120.801 85.179 120.589 85.0722 120.445 84.8887C120.136 84.4925 119.511 84.3371 119.02 84.5046C118.788 84.5837 118.609 84.7277 118.508 84.9293C118.413 85.1182 118.365 85.4019 118.462 85.8111L118.483 85.8947L118.499 85.962C118.502 85.9824 118.505 86.0004 118.507 86.0145C118.516 86.0909 118.621 86.3898 119.029 86.9087C119.412 87.3958 120.035 88.0415 121.01 88.8262C121.985 88.0136 122.998 87.137 123.561 85.8676C123.636 85.6982 123.652 85.466 123.59 85.2206C123.528 84.9766 123.398 84.7555 123.23 84.609Z" fill="black"/>
<path d="M128.333 86.552V85.8636C128.333 85.238 127.826 84.7308 127.201 84.7308C126.971 84.7308 126.785 84.5448 126.785 84.3154C126.785 84.0859 126.971 83.8999 127.201 83.8999C128.285 83.8999 129.164 84.7791 129.164 85.8636V86.552C129.164 87.6366 128.285 88.5158 127.201 88.5158C126.971 88.5158 126.785 88.3298 126.785 88.1003C126.785 87.8709 126.971 87.6848 127.201 87.6848C127.826 87.6848 128.333 87.1777 128.333 86.552Z" fill="black"/>
<path d="M122.173 91.9719V92.8028H119.852V91.9719H122.173ZM126.605 87.5402V85.3344C126.605 82.8868 124.621 80.9027 122.173 80.9027H119.852C117.405 80.9027 115.421 82.8868 115.421 85.3344V87.5402C115.421 89.9877 117.405 91.9719 119.852 91.9719V92.8028L119.717 92.8012C116.918 92.7303 114.662 90.4746 114.591 87.676L114.59 87.5402V85.3344C114.59 82.4279 116.946 80.0718 119.852 80.0718H122.173L122.309 80.0734C125.152 80.1454 127.436 82.4733 127.436 85.3344V87.5402L127.434 87.676C127.363 90.4746 125.107 92.7303 122.309 92.8012L122.173 92.8028V91.9719C124.62 91.9719 126.605 89.9877 126.605 87.5402Z" fill="black"/>
<path d="M124.154 81.0766V77.7291C124.154 77.1937 123.72 76.7597 123.185 76.7596H118.843C118.308 76.7596 117.874 77.1937 117.874 77.7291V81.0766C117.874 81.3061 117.688 81.4921 117.458 81.4921C117.229 81.4921 117.043 81.3061 117.043 81.0766V77.7291C117.043 76.7348 117.849 75.9287 118.843 75.9287H123.185C124.179 75.9288 124.985 76.7348 124.985 77.7291V81.0766C124.985 81.3061 124.799 81.4921 124.57 81.4921C124.34 81.4921 124.154 81.3061 124.154 81.0766Z" fill="black"/>
<path d="M124.154 91.7405V95.0881C124.154 95.6234 123.72 96.0574 123.185 96.0575H118.843C118.308 96.0575 117.874 95.6235 117.874 95.0881V91.7405C117.874 91.511 117.688 91.325 117.458 91.325C117.229 91.325 117.043 91.511 117.043 91.7405V95.0881C117.043 96.0824 117.849 96.8884 118.843 96.8884H123.185C124.179 96.8884 124.985 96.0823 124.985 95.0881V91.7405C124.985 91.5111 124.799 91.3251 124.57 91.325C124.34 91.325 124.154 91.511 124.154 91.7405Z" fill="black"/>
<path d="M254.091 84.2634V79.1257C254.091 78.9074 253.914 78.7305 253.696 78.7305H252.247C252.029 78.7305 251.852 78.5535 251.852 78.3353C251.852 78.117 252.029 77.9401 252.247 77.9401H253.696C254.351 77.9401 254.882 78.4709 254.882 79.1257V84.2634C254.882 84.9182 254.351 85.449 253.696 85.449H252.247C252.029 85.449 251.852 85.2721 251.852 85.0538C251.852 84.8356 252.029 84.6586 252.247 84.6586H253.696C253.914 84.6586 254.091 84.4817 254.091 84.2634Z" fill="black"/>
<path d="M224.188 94.9341V84.5269C224.188 84.3087 224.364 84.1317 224.583 84.1317C224.801 84.1317 224.978 84.3087 224.978 84.5269V94.9341C224.978 96.171 225.981 97.1736 227.217 97.1736H248.954C250.191 97.1736 251.194 96.171 251.194 94.9341V73.7245C251.194 72.4877 250.191 71.485 248.954 71.485H227.217C225.981 71.485 224.978 72.4877 224.978 73.7245V74.7784C224.978 74.9967 224.801 75.1736 224.583 75.1736C224.364 75.1736 224.188 74.9967 224.188 74.7784V73.7245C224.188 72.0511 225.544 70.6946 227.217 70.6946H248.954C250.627 70.6946 251.984 72.0511 251.984 73.7245V94.9341C251.984 96.6075 250.627 97.9641 248.954 97.9641H227.217C225.544 97.9641 224.188 96.6075 224.188 94.9341ZM224.188 80.5748V78.2036C224.188 77.9853 224.364 77.8084 224.583 77.8084C224.801 77.8084 224.978 77.9853 224.978 78.2036V80.5748C224.978 80.7931 224.801 80.97 224.583 80.97C224.364 80.97 224.188 80.7931 224.188 80.5748Z" fill="black"/>
<path d="M245.659 78.0719C245.659 77.8536 245.482 77.6767 245.264 77.6767H231.432C231.213 77.6767 231.037 77.8536 231.037 78.0719V90.8503C231.037 91.0686 231.213 91.2455 231.432 91.2455H245.264C245.482 91.2455 245.659 91.0686 245.659 90.8503V78.0719ZM246.45 90.8503C246.45 91.5051 245.919 92.0359 245.264 92.0359H231.432C230.777 92.0359 230.246 91.5051 230.246 90.8503V78.0719C230.246 77.4171 230.777 76.8862 231.432 76.8862H245.264C245.919 76.8862 246.45 77.4171 246.45 78.0719V90.8503Z" fill="black"/>
<path d="M229.509 97.3132C229.723 97.2704 229.931 97.4092 229.974 97.6232L231.428 104.892C231.465 105.077 231.627 105.21 231.815 105.21H245.107C245.303 105.21 245.469 105.065 245.498 104.871L246.453 98.3025C246.484 98.0865 246.685 97.9368 246.901 97.9682C247.117 97.9997 247.267 98.2002 247.235 98.4162L246.28 104.985C246.195 105.568 245.695 106 245.107 106H231.815C231.25 106 230.764 105.601 230.653 105.047L229.199 97.7781C229.156 97.5641 229.295 97.356 229.509 97.3132Z" fill="black"/>
<path d="M244.877 62C245.443 62 245.931 62.401 246.04 62.9569L247.495 70.355C247.537 70.5691 247.398 70.7768 247.184 70.8189C246.97 70.8609 246.762 70.7214 246.72 70.5073L245.265 63.1095C245.228 62.9242 245.065 62.7904 244.877 62.7904H231.939C231.752 62.7905 231.591 62.9209 231.552 63.1033L229.973 70.5135C229.928 70.7269 229.718 70.8631 229.504 70.8176C229.291 70.7721 229.155 70.5623 229.2 70.3488L230.779 62.9386C230.896 62.3914 231.379 62 231.939 62H244.877Z" fill="black"/>
<path d="M143.67 132.043C143.67 131.677 143.373 131.38 143.006 131.38H122.48C122.113 131.38 121.816 131.677 121.816 132.043V155.764C121.816 156.131 122.113 156.428 122.48 156.428H143.006C143.373 156.428 143.67 156.131 143.67 155.764V132.043ZM144.467 155.764C144.467 156.571 143.813 157.225 143.006 157.225H122.48C121.673 157.225 121.02 156.571 121.02 155.764V132.043C121.02 131.237 121.673 130.583 122.48 130.583H143.006C143.813 130.583 144.467 131.237 144.467 132.043V155.764Z" fill="black"/>
<path d="M141.067 157.595C141.124 157.382 141.342 157.256 141.555 157.313C141.767 157.369 141.894 157.587 141.837 157.8L139.724 165.723C139.554 166.363 138.975 166.807 138.313 166.807H127.748C127.087 166.807 126.508 166.363 126.337 165.723L124.224 157.8C124.168 157.587 124.294 157.369 124.507 157.313C124.719 157.256 124.937 157.382 124.994 157.595L127.107 165.518C127.185 165.808 127.448 166.011 127.748 166.011H138.313C138.614 166.011 138.877 165.808 138.954 165.518L141.067 157.595Z" fill="black"/>
<path d="M140.782 130.213C140.839 130.425 141.057 130.552 141.27 130.495C141.482 130.438 141.608 130.22 141.552 130.007L139.439 122.084C139.269 121.445 138.689 121 138.028 121H127.463C126.802 121 126.223 121.445 126.052 122.084L123.939 130.007C123.883 130.22 124.009 130.438 124.221 130.495C124.434 130.552 124.652 130.425 124.709 130.213L126.822 122.29C126.899 121.999 127.163 121.797 127.463 121.797H138.028C138.329 121.797 138.592 121.999 138.669 122.29L140.782 130.213Z" fill="black"/>
<path d="M134.779 161.074C134.999 161.074 135.177 161.253 135.177 161.473C135.177 161.693 134.999 161.871 134.779 161.871H131.875C131.655 161.871 131.477 161.693 131.477 161.473C131.477 161.253 131.655 161.074 131.875 161.074H134.779Z" fill="black"/>
<path d="M134.197 126.227C134.417 126.227 134.595 126.405 134.595 126.625C134.595 126.845 134.417 127.024 134.197 127.024H131.293C131.073 127.024 130.895 126.845 130.895 126.625C130.895 126.405 131.073 126.227 131.293 126.227H134.197Z" fill="black"/>
<path d="M147.445 146.372V140.274C147.445 140.054 147.624 139.876 147.844 139.876C148.064 139.876 148.242 140.054 148.242 140.274V146.372C148.242 146.592 148.064 146.771 147.844 146.771C147.624 146.771 147.445 146.592 147.445 146.372Z" fill="black"/>
<path d="M121.031 143.07C121.251 143.07 121.429 143.248 121.429 143.468C121.429 143.688 121.251 143.866 121.031 143.866H114.199L110.242 146.976C110.069 147.112 109.819 147.082 109.683 146.909C109.547 146.736 109.577 146.485 109.75 146.349L113.924 143.07H121.031Z" fill="black"/>
<path d="M121.078 147.716C121.298 147.716 121.477 147.894 121.477 148.114C121.477 148.334 121.298 148.513 121.078 148.513H117.83L116.201 151.499C116.096 151.693 115.854 151.764 115.661 151.658C115.468 151.553 115.397 151.311 115.502 151.118L117.357 147.716H121.078Z" fill="black"/>
<path d="M120.957 139.862C121.177 139.862 121.356 139.684 121.356 139.464C121.356 139.244 121.177 139.065 120.957 139.065H117.709L116.08 136.079C115.975 135.885 115.733 135.814 115.539 135.92C115.346 136.025 115.275 136.267 115.381 136.46L117.236 139.862H120.957Z" fill="black"/>
<path d="M109.855 148.114C109.855 146.951 108.911 146.007 107.748 146.007C106.584 146.007 105.64 146.951 105.64 148.114C105.64 149.278 106.584 150.222 107.748 150.222V151.018L107.598 151.015C106.113 150.939 104.923 149.749 104.848 148.264L104.844 148.114C104.844 146.511 106.144 145.211 107.748 145.211L107.897 145.214C109.431 145.292 110.652 146.561 110.652 148.114L110.648 148.264C110.57 149.798 109.301 151.018 107.748 151.018V150.222C108.911 150.222 109.855 149.278 109.855 148.114Z" fill="black"/>
<path d="M135.099 145.706L136.562 142.78H139.422C139.642 142.78 139.82 142.958 139.82 143.178C139.82 143.398 139.642 143.576 139.422 143.576H137.054L135.033 147.619L132.08 140.533L130.052 143.576H126.644C126.424 143.576 126.246 143.398 126.246 143.178C126.246 142.958 126.424 142.78 126.644 142.78H129.626L132.243 138.853L135.099 145.706Z" fill="black"/>
<path d="M116.507 134.176C116.507 133.012 115.564 132.068 114.4 132.068C113.236 132.068 112.293 133.012 112.293 134.176C112.293 135.339 113.236 136.283 114.4 136.283V137.079L114.251 137.076C112.766 137 111.575 135.81 111.5 134.325L111.496 134.176C111.496 132.572 112.796 131.272 114.4 131.272L114.549 131.275C116.084 131.353 117.304 132.622 117.304 134.176L117.3 134.325C117.222 135.859 115.954 137.079 114.4 137.079V136.283C115.564 136.283 116.507 135.339 116.507 134.176Z" fill="black"/>
<path d="M116.82 153.607C116.82 152.443 115.876 151.5 114.713 151.5C113.549 151.5 112.605 152.443 112.605 153.607C112.605 154.771 113.549 155.714 114.713 155.714V156.511L114.563 156.507C113.078 156.432 111.888 155.241 111.812 153.756L111.809 153.607C111.809 152.003 113.109 150.703 114.713 150.703L114.862 150.707C116.396 150.785 117.616 152.053 117.616 153.607L117.613 153.756C117.535 155.291 116.266 156.511 114.713 156.511V155.714C115.876 155.714 116.82 154.771 116.82 153.607Z" fill="black"/>
<path d="M35.1992 140.111V136.513C35.1992 136.292 35.3782 136.113 35.5991 136.113C35.8199 136.113 35.9989 136.292 35.9989 136.513V140.111C35.9989 140.332 35.8199 140.511 35.5991 140.511C35.3782 140.511 35.1992 140.332 35.1992 140.111Z" fill="black"/>
<path d="M35.1992 152.373V145.176C35.1992 144.955 35.3782 144.776 35.5991 144.776C35.8199 144.776 35.9989 144.955 35.9989 145.176V152.373C35.9989 152.594 35.8199 152.773 35.5991 152.773C35.3782 152.773 35.1992 152.594 35.1992 152.373Z" fill="black"/>
<path d="M16.4057 127.39C16.4057 127.488 16.3844 127.584 16.3432 127.672L15.7008 129.049H30.5335L29.8122 127.696C29.7607 127.6 29.7338 127.492 29.7338 127.383V122.918C29.7338 121.961 28.9581 121.185 28.0011 121.185H18.1383C17.1814 121.185 16.4057 121.961 16.4057 122.918V127.39ZM30.5335 127.349L31.3436 128.868C31.5803 129.312 31.2586 129.848 30.7555 129.848H15.4915C15.0039 129.848 14.6813 129.342 14.8875 128.9L15.606 127.36V122.918C15.606 121.519 16.7398 120.385 18.1383 120.385H28.0011C29.3997 120.385 30.5335 121.519 30.5335 122.918V127.349Z" fill="black"/>
<path d="M16.4057 161.495C16.4057 161.398 16.3844 161.302 16.3432 161.214L15.7008 159.837H30.5335L29.8122 161.189C29.7607 161.286 29.7338 161.393 29.7338 161.503V165.968C29.7338 166.925 28.9581 167.7 28.0011 167.7H18.1383C17.1814 167.7 16.4057 166.925 16.4057 165.968V161.495ZM30.5335 161.536L31.3436 160.017C31.5803 159.573 31.2586 159.037 30.7555 159.037H15.4915C15.0039 159.037 14.6813 159.544 14.8875 159.985L15.606 161.525V165.968C15.606 167.366 16.7398 168.5 18.1383 168.5H28.0011C29.3997 168.5 30.5335 167.366 30.5335 165.968V161.536Z" fill="black"/>
<path d="M34.3945 134.647C34.3945 132.954 33.0221 131.581 31.329 131.581H14.9355C13.2425 131.581 11.87 132.954 11.87 134.647V154.106C11.87 155.799 13.2425 157.171 14.9355 157.171H31.329C33.0221 157.171 34.3945 155.799 34.3945 154.106V134.647ZM35.1942 154.106C35.1942 156.24 33.4637 157.971 31.329 157.971H14.9355C12.8008 157.971 11.0703 156.24 11.0703 154.106V134.647C11.0703 132.512 12.8008 130.781 14.9355 130.781H31.329C33.4637 130.781 35.1942 132.512 35.1942 134.647V154.106Z" fill="black"/>
<path d="M21.0734 138.245C21.0734 136.994 20.059 135.979 18.8077 135.979C17.5563 135.979 16.5419 136.994 16.5419 138.245C16.5419 139.497 17.5563 140.511 18.8077 140.511V141.311C17.1146 141.311 15.7422 139.938 15.7422 138.245C15.7422 136.552 17.1146 135.18 18.8077 135.18C20.5007 135.18 21.8731 136.552 21.8731 138.245C21.8731 139.938 20.5007 141.311 18.8077 141.311V140.511C20.059 140.511 21.0734 139.497 21.0734 138.245Z" fill="black"/>
<path d="M21.0734 150.507C21.0734 149.256 20.059 148.241 18.8077 148.241C17.5563 148.241 16.5419 149.256 16.5419 150.507C16.5419 151.758 17.5563 152.773 18.8077 152.773V153.572C17.1146 153.572 15.7422 152.2 15.7422 150.507C15.7422 148.814 17.1146 147.442 18.8077 147.442C20.5007 147.442 21.8731 148.814 21.8731 150.507C21.8731 152.2 20.5007 153.572 18.8077 153.572V152.773C20.059 152.773 21.0734 151.758 21.0734 150.507Z" fill="black"/>
<path d="M18.1359 144.376C18.1359 143.125 17.1215 142.11 15.8702 142.11C14.6188 142.11 13.6044 143.125 13.6044 144.376C13.6044 145.627 14.6188 146.642 15.8702 146.642V147.441C14.1771 147.441 12.8047 146.069 12.8047 144.376C12.8047 142.683 14.1771 141.311 15.8702 141.311C17.5632 141.311 18.9356 142.683 18.9356 144.376C18.9356 146.069 17.5632 147.441 15.8702 147.441V146.642C17.1215 146.642 18.1359 145.627 18.1359 144.376Z" fill="black"/>
<path d="M25.8662 144.376C25.8662 142.83 24.6131 141.577 23.0673 141.577C21.5215 141.577 20.2684 142.83 20.2684 144.376C20.2684 145.922 21.5215 147.175 23.0673 147.175V147.975C21.0799 147.975 19.4688 146.364 19.4688 144.376C19.4688 142.389 21.0799 140.778 23.0673 140.778C25.0548 140.778 26.6659 142.389 26.6659 144.376C26.6659 146.364 25.0548 147.975 23.0673 147.975V147.175C24.6131 147.175 25.8662 145.922 25.8662 144.376Z" fill="black"/>
<path d="M29.6008 138.245C29.6008 136.994 28.5864 135.979 27.335 135.979C26.0836 135.979 25.0692 136.994 25.0692 138.245C25.0692 139.497 26.0836 140.511 27.335 140.511V141.311C25.642 141.311 24.2695 139.938 24.2695 138.245C24.2695 136.552 25.642 135.18 27.335 135.18C29.028 135.18 30.4005 136.552 30.4005 138.245C30.4005 139.938 29.028 141.311 27.335 141.311V140.511C28.5864 140.511 29.6008 139.497 29.6008 138.245Z" fill="black"/>
<path d="M29.6008 150.507C29.6008 149.256 28.5864 148.241 27.335 148.241C26.0836 148.241 25.0692 149.256 25.0692 150.507C25.0692 151.758 26.0836 152.773 27.335 152.773V153.572C25.642 153.572 24.2695 152.2 24.2695 150.507C24.2695 148.814 25.642 147.442 27.335 147.442C29.028 147.442 30.4005 148.814 30.4005 150.507C30.4005 152.2 29.028 153.572 27.335 153.572V152.773C28.5864 152.773 29.6008 151.758 29.6008 150.507Z" fill="black"/>
<path d="M32.2648 144.376C32.2648 143.125 31.2504 142.11 29.9991 142.11C28.7477 142.11 27.7333 143.125 27.7333 144.376C27.7333 145.627 28.7477 146.642 29.9991 146.642V147.441C28.306 147.441 26.9336 146.069 26.9336 144.376C26.9336 142.683 28.306 141.311 29.9991 141.311C31.6921 141.311 33.0645 142.683 33.0645 144.376C33.0645 146.069 31.6921 147.441 29.9991 147.441V146.642C31.2504 146.642 32.2648 145.627 32.2648 144.376Z" fill="black"/>
<path d="M225.523 151.161V135.461C225.523 135.232 225.708 135.047 225.937 135.047C226.165 135.047 226.35 135.232 226.35 135.461V151.161C226.35 152.15 227.151 152.952 228.14 152.952H241.913C242.141 152.952 242.326 153.137 242.326 153.365C242.326 153.593 242.141 153.778 241.913 153.778H228.14C226.695 153.778 225.523 152.606 225.523 151.161Z" fill="black"/>
<path d="M252.244 147.403V141.284C252.244 140.642 251.9 140.049 251.342 139.73L249.56 138.712C249.362 138.599 249.293 138.346 249.406 138.148C249.519 137.95 249.772 137.881 249.97 137.994L251.752 139.012C252.567 139.478 253.07 140.345 253.07 141.284V147.403C253.07 148.342 252.567 149.209 251.752 149.675L249.97 150.694C249.772 150.807 249.519 150.738 249.406 150.54C249.293 150.342 249.362 150.089 249.56 149.976L251.342 148.958C251.9 148.639 252.244 148.046 252.244 147.403Z" fill="black"/>
<path d="M248.523 134.91C248.523 132.552 246.612 130.64 244.254 130.64H225.799C223.441 130.64 221.529 132.552 221.529 134.91V153.089C221.529 155.447 223.441 157.359 225.799 157.359H244.254C246.612 157.359 248.523 155.447 248.523 153.089V134.91ZM249.35 153.089C249.35 155.904 247.068 158.185 244.254 158.185H225.799C222.985 158.185 220.703 155.904 220.703 153.089V134.91C220.703 132.095 222.985 129.814 225.799 129.814H244.254C247.068 129.814 249.35 132.095 249.35 134.91V153.089Z" fill="black"/>
<path d="M240.779 120.999C242.139 120.999 243.273 122.042 243.386 123.397L243.911 129.641C243.93 129.869 243.761 130.069 243.534 130.088C243.306 130.107 243.106 129.938 243.087 129.711L242.563 123.466C242.485 122.539 241.709 121.826 240.779 121.826H228.486C227.544 121.826 226.763 122.556 226.7 123.496L226.283 129.704C226.267 129.931 226.07 130.104 225.843 130.088C225.615 130.073 225.443 129.876 225.458 129.648L225.875 123.441C225.968 122.067 227.109 120.999 228.486 120.999H240.779Z" fill="black"/>
<path d="M229.069 167C227.709 167 226.575 165.958 226.461 164.602L225.937 158.358C225.918 158.131 226.087 157.931 226.314 157.912C226.541 157.892 226.741 158.061 226.76 158.289L227.285 164.533C227.363 165.461 228.138 166.174 229.069 166.174H241.362C242.304 166.174 243.085 165.443 243.148 164.503L243.565 158.296C243.58 158.068 243.777 157.896 244.005 157.911C244.233 157.926 244.405 158.123 244.39 158.351L243.972 164.559C243.88 165.933 242.739 167 241.362 167H229.069Z" fill="black"/>
</svg>
