<svg width="260" height="178" viewBox="0 0 260 178" fill="none" xmlns="http://www.w3.org/2000/svg">
<path d="M42.9844 27.6099C49.6488 27.779 54.9999 33.2348 55 39.9399L54.9961 40.2583C54.8272 46.9228 49.3711 52.2737 42.666 52.2739L42.3477 52.27C35.7888 52.1039 30.5022 46.8172 30.3359 40.2583L30.332 39.9399C30.3321 36.9639 31.3854 34.2338 33.1406 32.103C33.5067 32.3045 33.8819 32.5789 34.21 32.8491C32.5999 34.767 31.6299 37.24 31.6299 39.9399C31.6299 46.0347 36.5713 50.9751 42.666 50.9751C48.7605 50.9748 53.7011 46.0345 53.7012 39.9399C53.7011 33.8454 48.7605 28.9041 42.666 28.9038C40.6239 28.9038 38.7119 29.4603 37.0713 30.4272C36.7616 30.0379 36.2729 29.8094 35.8105 29.6851C37.771 28.372 40.1293 27.606 42.666 27.606L42.9844 27.6099Z" fill="black"/>
<path d="M30.7676 31.5112C35.2265 31.7372 38.7724 35.4249 38.7725 39.9399L38.7617 40.3735C38.6685 42.2127 37.9845 43.895 36.8984 45.2388C36.5829 44.9416 36.3001 44.5649 36.0664 44.1968C36.9506 43.008 37.4745 41.5352 37.4746 39.9399C37.4746 35.9965 34.2773 32.7987 30.334 32.7983C26.3903 32.7983 23.1924 35.9963 23.1924 39.9399C23.1926 43.8834 26.3905 47.0806 30.334 47.0806C31.3682 47.0805 32.35 46.8581 33.2373 46.4624C33.4296 46.8784 33.6903 47.2494 33.9609 47.5581C32.8619 48.0823 31.6328 48.3783 30.334 48.3784L29.8994 48.3677C25.5842 48.149 22.1239 44.6888 21.9053 40.3735L21.8945 39.9399C21.8945 35.2792 25.6733 31.5005 30.334 31.5005L30.7676 31.5112Z" fill="black"/>
<path d="M30.6523 27.6099C37.317 27.7788 42.668 33.2346 42.668 39.9399L42.6641 40.2583C42.6027 42.6792 41.8402 44.9244 40.5771 46.8052C40.5179 46.7896 40.4574 46.7721 40.3945 46.7563C39.9909 46.6554 39.6191 46.5345 39.2773 46.3999C40.5916 44.5836 41.3691 42.3533 41.3691 39.9399C41.3691 33.8452 36.4287 28.9039 30.334 28.9038C24.2392 28.9038 19.2979 33.8452 19.2979 39.9399C19.2979 46.0347 24.2392 50.9751 30.334 50.9751C32.4825 50.9751 34.4859 50.3584 36.1816 49.2964C36.5857 49.5892 36.9874 49.8498 37.3623 50.0718C35.3678 51.458 32.9469 52.2739 30.334 52.2739L30.0156 52.27C23.4567 52.1039 18.1701 46.8172 18.0039 40.2583L18 39.9399C18 33.1281 23.5222 27.606 30.334 27.606L30.6523 27.6099Z" fill="black"/>
<path d="M43.1035 31.5112C47.5625 31.7371 51.1084 35.4248 51.1084 39.9399L51.0977 40.3735C50.8717 44.8324 47.1848 48.3782 42.6699 48.3784L42.2354 48.3677C37.9203 48.1488 34.4598 44.6886 34.2412 40.3735L34.2305 39.9399C34.2305 38.0347 34.8617 36.2764 35.9268 34.8638C36.2204 35.1641 36.5317 35.5158 36.8125 35.855C36.0036 37.0126 35.5283 38.4208 35.5283 39.9399C35.5286 43.8833 38.7266 47.0804 42.6699 47.0806C46.6132 47.0803 49.8103 43.8832 49.8105 39.9399C49.8105 35.9964 46.6134 32.7986 42.6699 32.7983C41.5263 32.7984 40.4457 33.0682 39.4873 33.5464C39.2754 33.1825 38.9903 32.8042 38.7197 32.481C39.8983 31.8554 41.2427 31.5006 42.6699 31.5005L43.1035 31.5112Z" fill="black"/>
<path d="M44.6172 13.9737L45.9155 13" stroke="black" stroke-width="1.2983" stroke-linecap="round"/>
<path d="M27.7383 13.9737L26.44 13" stroke="black" stroke-width="1.2983" stroke-linecap="round"/>
<path d="M45.2656 24.0355L46.5639 25.0093" stroke="black" stroke-width="1.2983" stroke-linecap="round"/>
<path d="M27.0898 24.0355L25.7915 25.0093" stroke="black" stroke-width="1.2983" stroke-linecap="round"/>
<path d="M46.5652 19.1673L47.8619 19.1672" stroke="black" stroke-width="1.2983" stroke-linecap="round"/>
<path d="M25.7902 19.1673L24.4936 19.1672" stroke="black" stroke-width="1.2983" stroke-linecap="round"/>
<path d="M31.3541 15.9212C32.7606 15.272 36.0293 14.9474 36.2229 19.4915C35.891 11.7017 51.1532 15.9212 36.2227 26.6321C33.908 25.0092 29.0365 21.4389 30.0097 17.8686" stroke="black" stroke-width="1.2983" stroke-linecap="round"/>
<path d="M121.508 42.7061V44.4332" stroke="black" stroke-width="1.38169" stroke-linecap="round"/>
<path d="M130.492 42.7061V44.4332" stroke="black" stroke-width="1.38169" stroke-linecap="round"/>
<path d="M119.437 42.7059H132.563C132.945 42.7059 133.254 42.3966 133.254 42.015V37.87C133.254 37.1069 132.635 36.4883 131.872 36.4883H131.181C130.418 36.4883 129.8 37.1069 129.8 37.87V39.9425H122.2V37.87C122.2 37.1069 121.582 36.4883 120.819 36.4883H120.128C119.365 36.4883 118.746 37.1069 118.746 37.87V42.015C118.746 42.3966 119.055 42.7059 119.437 42.7059Z" stroke="black" stroke-width="1.38169" stroke-linecap="round"/>
<path d="M126 33.3799V39.5975" stroke="black" stroke-width="1.38169" stroke-linecap="round"/>
<path d="M120.473 36.1435V34.4164C120.473 33.6533 121.091 33.0347 121.854 33.0347H130.144C130.908 33.0347 131.526 33.6533 131.526 34.4164V36.1435" stroke="black" stroke-width="1.38169" stroke-linecap="round"/>
<path d="M125.99 20.2535C120.817 16.1085 115.291 22.6715 125.99 29.9254C136.016 23.0171 131.525 15.7631 125.99 20.2535Z" fill="black" stroke="black" stroke-width="1.38169" stroke-linecap="round"/>
<path d="M112.871 45.4696V39.9429" stroke="black" stroke-width="1.38169" stroke-linecap="round"/>
<path d="M139.469 45.4696V39.9429" stroke="black" stroke-width="1.38169" stroke-linecap="round"/>
<path d="M116.325 27.5073L114.079 29.698M112.18 31.307L110.262 33.2243C109.934 33.5527 109.694 33.9587 109.563 34.4046L107.954 39.9231C107.596 41.15 108.222 42.5314 109.464 42.2287C110.112 42.0708 110.831 41.7043 111.551 40.9981C111.989 40.5676 112.18 39.9543 112.18 39.3398V39.2517M112.18 31.307L114.079 29.698M112.18 31.307V39.2517M114.079 29.698C117.016 36.8337 116.048 41.4624 112.18 39.2517" stroke="black" stroke-width="1.38169" stroke-linecap="round"/>
<path d="M136.019 27.5073L138.264 29.698M140.164 31.307L142.081 33.2243C142.41 33.5527 142.65 33.9587 142.78 34.4046L144.39 39.9231C144.748 41.15 144.122 42.5314 142.88 42.2287C142.232 42.0708 141.512 41.7043 140.793 40.9981C140.355 40.5676 140.164 39.9543 140.164 39.3398V39.2517M140.164 31.307L138.264 29.698M140.164 31.307V39.2517M138.264 29.698C135.328 36.8337 136.295 41.4624 140.164 39.2517" stroke="black" stroke-width="1.38169" stroke-linecap="round"/>
<path d="M132.561 27.5079H142.924C144.069 27.5079 144.996 26.58 144.996 25.4353C144.996 24.2907 144.069 23.3628 142.924 23.3628H109.073C107.928 23.3628 107 24.2907 107 25.4353C107 26.58 107.928 27.5079 109.073 27.5079H122.889" stroke="black" stroke-width="1.38169" stroke-linecap="round"/>
<path d="M142.06 45.4697H109.591C108.16 45.4697 107 46.6296 107 48.0604C107 49.4912 108.16 50.6511 109.591 50.6511H142.06C143.491 50.6511 144.651 49.4912 144.651 48.0604C144.651 46.6296 143.491 45.4697 142.06 45.4697Z" stroke="black" stroke-width="1.38169" stroke-linecap="round"/>
<path d="M110.457 23.3627L124.485 14.0108C125.405 13.3976 126.601 13.3915 127.527 13.9954L141.89 23.3627" stroke="black" stroke-width="1.38169" stroke-linecap="round"/>
<path d="M109.074 27.853V31.6527V35.7977M109.074 42.3608V45.4696" stroke="black" stroke-width="1.38169" stroke-linecap="round"/>
<path d="M143.273 27.853V36.1432M143.273 42.3608V45.4696" stroke="black" stroke-width="1.38169" stroke-linecap="round"/>
<path d="M209.109 25.9408C210.847 23.5089 215.364 24.2036 213.974 28.3732" stroke="black" stroke-width="1.38983" stroke-linecap="round"/>
<path d="M219.188 25.5936C217.798 23.1612 212.238 25.2462 214.947 28.7299" stroke="black" stroke-width="1.38983" stroke-linecap="round"/>
<path d="M197.928 45.0508C196.256 48.1779 201.11 51.6525 203.835 48.1779" stroke="black" stroke-width="2.08475" stroke-linecap="round"/>
<path d="M202.164 32.8898C203.206 30.9208 206.403 27.6779 210.851 30.4576" stroke="black" stroke-width="2.08475" stroke-linecap="round"/>
<path d="M196.254 37.7544L210.847 45.3985" stroke="black" stroke-width="2.08475" stroke-linecap="round"/>
<path d="M211.965 43.1813L214.791 38.2016C217.159 34.0297 215.462 28.7252 211.113 26.7022C207.234 24.898 202.619 26.3741 200.508 30.0947L196.949 36.3643C195.624 38.1312 192.895 38.9914 191.132 39.3283C190.795 39.3928 190.702 39.88 191.002 40.0464L211.335 51.3075C211.653 51.4839 212.083 51.0611 211.964 50.717C211.104 48.2322 211.469 44.8418 211.848 43.4591C211.874 43.3617 211.915 43.2691 211.965 43.1813Z" stroke="black" stroke-width="2.08475" stroke-linecap="round"/>
<path d="M230.716 45.0508C232.389 48.1779 227.535 51.6525 224.809 48.1779" stroke="black" stroke-width="2.08475" stroke-linecap="round"/>
<path d="M226.484 32.8898C225.442 30.9208 222.245 27.6779 217.798 30.4576" stroke="black" stroke-width="2.08475" stroke-linecap="round"/>
<path d="M232.391 37.7544L217.797 45.3985" stroke="black" stroke-width="2.08475" stroke-linecap="round"/>
<path d="M214.322 29.0676L217.185 27.4884C221.183 25.2825 226.212 26.7024 228.466 30.6736L231.695 36.3643C233.021 38.1312 235.75 38.9914 237.512 39.3283C237.85 39.3928 237.943 39.88 237.642 40.0464L217.31 51.3075C216.991 51.4839 216.562 51.0611 216.681 50.717C217.165 49.3188 217.261 47.6339 217.185 46.1812C217.084 44.2549 216.23 42.4886 215.194 40.8612L214.322 39.4914" stroke="black" stroke-width="2.08475" stroke-linecap="round"/>
<path d="M206.757 14.3412C207.248 14.0296 208.059 13.9889 209.132 14.5289C210.183 15.0579 211.309 16.075 212.204 17.4859C213.099 18.8968 213.539 20.3495 213.569 21.5256C213.601 22.7263 213.218 23.4426 212.727 23.7542C212.235 24.0659 211.424 24.1065 210.351 23.5665C209.301 23.0375 208.173 22.0209 207.278 20.61C206.384 19.199 205.945 17.7459 205.914 16.5698C205.883 15.369 206.265 14.6528 206.757 14.3412Z" stroke="black" stroke-width="2.08475"/>
<path d="M221.924 14.1145C221.446 13.7826 220.637 13.7079 219.543 14.2024C218.471 14.6868 217.302 15.6558 216.349 17.0279C215.396 18.3999 214.895 19.8329 214.816 21.0067C214.734 22.205 215.086 22.9367 215.564 23.2687C216.042 23.6007 216.85 23.6754 217.945 23.1808C219.017 22.6964 220.186 21.728 221.139 20.3559C222.093 18.9838 222.592 17.5503 222.672 16.3765C222.754 15.1781 222.402 14.4465 221.924 14.1145Z" stroke="black" stroke-width="2.08475"/>
<path d="M16.3359 79.6665H20.3359" stroke="black" stroke-width="1.33334"/>
<path d="M46.0039 76.6665H50.0039" stroke="black" stroke-width="1.33334"/>
<path d="M18.332 77.667V81.667" stroke="black" stroke-width="1.33334"/>
<path d="M48 74.6665V78.6665" stroke="black" stroke-width="1.33334"/>
<path d="M23.0039 79.6665L26.0039 82.9999H28.0039L31.0039 79.6665L29.6706 76.6665H24.3372L23.0039 79.6665Z" fill="black"/>
<path d="M22.668 72L24.668 74.3333" stroke="black" stroke-width="1.33334" stroke-linecap="round"/>
<path d="M31.3359 72L29.3359 74.3333" stroke="black" stroke-width="1.33334" stroke-linecap="round"/>
<path d="M27.0039 71V74" stroke="black" stroke-width="1.33334" stroke-linecap="round"/>
<path d="M35 79.6665L38 82.9999H40L43 79.6665L41.6667 76.6665H36.3333L35 79.6665Z" fill="black"/>
<path d="M34.668 72L36.668 74.3333" stroke="black" stroke-width="1.33334" stroke-linecap="round"/>
<path d="M43.3359 72L41.3359 74.3333" stroke="black" stroke-width="1.33334" stroke-linecap="round"/>
<path d="M39 71V74" stroke="black" stroke-width="1.33334" stroke-linecap="round"/>
<path d="M39.6611 82.0039C46.5058 82.1771 52.0009 87.7806 52.001 94.667L51.9971 94.9932C51.8239 101.838 46.2213 107.333 39.335 107.333L39.0078 107.329C32.2719 107.158 26.8423 101.729 26.6719 94.9932L26.668 94.667C26.668 91.832 27.5993 89.2142 29.1729 87.1035C29.5464 87.2548 29.9515 87.5133 30.3242 87.7939C28.8676 89.7007 28.001 92.0825 28.001 94.667C28.0011 100.926 33.076 106 39.335 106C45.594 106 50.6678 100.926 50.668 94.667C50.6679 88.4079 45.594 83.3332 39.335 83.333C37.0531 83.3331 34.9299 84.0095 33.1514 85.1699C32.6441 84.8395 31.9939 84.7086 31.5537 84.6758C33.7012 83.0008 36.4006 82.0001 39.335 82L39.6611 82.0039Z" fill="black"/>
<path d="M27.1123 86.6782C31.6915 86.9103 35.333 90.6966 35.333 95.3335L35.3223 95.7788C35.2266 97.6672 34.5251 99.3951 33.4102 100.775C33.0857 100.469 32.7948 100.082 32.5547 99.7036C33.4621 98.4831 33.9999 96.9712 34 95.3335C33.9999 91.2836 30.7168 87.9998 26.667 87.9995C22.6169 87.9995 19.3331 91.2834 19.333 95.3335C19.3332 99.3835 22.617 102.667 26.667 102.667C27.7297 102.666 28.7388 102.438 29.6504 102.032C29.848 102.459 30.1155 102.841 30.3936 103.158C29.2645 103.696 28.0013 103.999 26.667 104L26.2207 103.989C21.7891 103.764 18.2362 100.21 18.0117 95.7788L18 95.3335C18.0001 90.5471 21.8805 86.6665 26.667 86.6665L27.1123 86.6782Z" fill="black"/>
<path d="M26.9932 82.6709C33.8379 82.8441 39.333 88.4475 39.333 95.334L39.3291 95.6602C39.2662 98.1464 38.4835 100.452 37.1865 102.384C37.126 102.368 37.0642 102.35 37 102.334C36.5852 102.23 36.2036 102.105 35.8525 101.967C37.2017 100.102 37.9999 97.8118 38 95.334C38 89.0748 32.9261 84.0002 26.667 84C20.4077 84 15.333 89.0747 15.333 95.334C15.3333 101.593 20.4079 106.667 26.667 106.667C28.8736 106.667 30.9312 106.033 32.6729 104.942C33.0876 105.243 33.5 105.51 33.8848 105.738C31.8365 107.162 29.3504 108 26.667 108L26.3398 107.996C19.6038 107.825 14.1744 102.396 14.0039 95.6602L14 95.334C14 88.3384 19.6714 82.667 26.667 82.667L26.9932 82.6709Z" fill="black"/>
<path d="M39.7842 86.0117C44.3636 86.2437 48.0049 90.03 48.0049 94.667L47.9941 95.1123C47.7622 99.6916 43.9758 103.333 39.3389 103.333L38.8926 103.322C34.461 103.098 30.9081 99.5439 30.6836 95.1123L30.6719 94.667C30.6719 92.7103 31.3203 90.9048 32.4141 89.4541C32.7157 89.7626 33.0348 90.1243 33.3232 90.4727C32.4928 91.6614 32.0049 93.1071 32.0049 94.667C32.0051 98.7169 35.2889 102 39.3389 102C43.3887 102 46.6717 98.7168 46.6719 94.667C46.6719 90.617 43.3888 87.3332 39.3389 87.333C38.1647 87.333 37.0553 87.6099 36.0713 88.1006C35.8537 87.7268 35.5601 87.3388 35.2822 87.0068C36.4926 86.3645 37.8731 86 39.3389 86L39.7842 86.0117Z" fill="black"/>
<path d="M136.323 91.1089V107.464C136.323 107.76 136.083 108 135.787 108H133.868C133.589 108 133.357 107.786 133.334 107.508L132.302 94.8625L131.269 107.508C131.247 107.786 131.014 108 130.735 108H128.012" stroke="black" stroke-width="1.07246" stroke-linecap="round"/>
<path d="M128.551 91.3765V98.0221" stroke="black" stroke-width="1.07246" stroke-linecap="round"/>
<path d="M116.617 83.3336V76.5005C116.617 74.0551 118.6 72.0728 121.045 72.0728C123.49 72.0728 125.473 74.0551 125.473 76.5005V83.3336" stroke="black" stroke-width="1.07246" stroke-linecap="round"/>
<path d="M114.098 107.999H127.721C128.323 107.999 128.807 107.504 128.793 106.902L128.635 100.084C128.579 97.679 128.429 95.2321 127.44 93.0389C126.238 90.3752 124.134 87.623 121.043 87.623C116.771 87.623 114.828 91.4143 113.852 94.4041C113.408 95.7618 113.251 97.1911 113.218 98.619L113.026 106.902C113.012 107.504 113.496 107.999 114.098 107.999Z" stroke="black" stroke-width="1.07246" stroke-linecap="round"/>
<path d="M120.773 81.7246H118.561C118.431 81.7246 118.306 81.7718 118.208 81.8573L116.72 83.1592C116.461 83.3857 116.479 83.795 116.743 84.0163C117.77 84.8791 119.164 86.3588 119.164 87.6231" stroke="black" stroke-width="1.07246" stroke-linecap="round"/>
<path d="M120.777 81.7246H123.525C123.655 81.7246 123.78 81.7718 123.878 81.8573L125.366 83.1592C125.625 83.3857 125.607 83.795 125.343 84.0163C124.316 84.8791 122.922 86.3588 122.922 87.6231" stroke="black" stroke-width="1.07246" stroke-linecap="round"/>
<path d="M121.045 74.7402C122.182 74.7405 123.189 75.7716 123.189 77.1533C123.189 78.535 122.182 79.5661 121.045 79.5664C119.907 79.5664 118.899 78.5352 118.899 77.1533C118.899 75.7714 119.907 74.7402 121.045 74.7402Z" stroke="black" stroke-width="1.07246"/>
<path d="M121.043 79.5796V81.4564" stroke="black" stroke-width="1.07246" stroke-linecap="round"/>
<path d="M116.754 84.1372L115.949 90.0357" stroke="black" stroke-width="1.07246" stroke-linecap="round"/>
<path d="M136.302 78.7754H128.306C128.001 78.7754 127.757 79.0296 127.77 79.3344L128.26 90.8634C128.273 91.1504 128.509 91.3768 128.796 91.3768H135.812C136.099 91.3768 136.335 91.1504 136.348 90.8634L136.838 79.3344C136.851 79.0296 136.608 78.7754 136.302 78.7754Z" stroke="black" stroke-width="1.07246" stroke-linecap="round"/>
<path d="M136.862 79.3115L138.9 91.2867C138.956 91.6141 138.704 91.9129 138.372 91.9129H136.594" stroke="black" stroke-width="1.07246" stroke-linecap="round"/>
<path d="M127.748 79.3115L125.911 83.7714C125.885 83.8362 125.871 83.9055 125.871 83.9756V90.0361" stroke="black" stroke-width="1.07246" stroke-linecap="round"/>
<path d="M130.426 79.3115L132.303 82.2608M132.303 82.2608L134.179 79.3115M132.303 82.2608V91.1086" stroke="black" stroke-width="1.07246" stroke-linecap="round"/>
<path d="M132.305 71.5361C133.557 71.5361 134.718 72.7691 134.718 74.4854C134.718 76.2016 133.557 77.4346 132.305 77.4346C131.052 77.4345 129.892 76.2016 129.892 74.4854C129.892 72.7692 131.053 71.5362 132.305 71.5361Z" stroke="black" stroke-width="1.07246"/>
<path d="M132.305 77.4346V78.507" stroke="black" stroke-width="1.07246" stroke-linecap="round"/>
<path d="M216.05 100.445L214.531 102.469C214.235 102.863 213.719 103.038 213.247 102.897C199.098 98.678 201.839 87.1387 210.696 91.4104C211.596 89.5143 214.132 86.3912 217.077 89.068" stroke="black" stroke-width="1.81013" stroke-linecap="round"/>
<path d="M199 81.0381H234.468" stroke="black" stroke-width="1.81013"/>
<path d="M223.463 89.2926C217.944 82.4133 208.873 89.347 220.67 101.861C235.682 95.7769 231.947 85.0548 223.463 89.2926Z" fill="black" stroke="black" stroke-width="1.20675" stroke-linecap="round"/>
<path d="M203.053 74.3457H200.207C199.54 74.3457 199 74.886 199 75.5525V106.599C199 107.265 199.54 107.806 200.207 107.806H233.93C234.596 107.806 235.137 107.265 235.137 106.599V75.5525C235.137 74.886 234.596 74.3457 233.93 74.3457H230.787M207.03 74.3457H211.046M215.395 74.3457H219.411M223.76 74.3457H227.106" stroke="black" stroke-width="1.81013"/>
<rect x="202.917" y="71.9051" width="3.54346" height="5.55106" rx="1.77173" stroke="black" stroke-width="1.81013"/>
<rect x="211.62" y="71.9051" width="3.54346" height="5.55106" rx="1.77173" stroke="black" stroke-width="1.81013"/>
<rect x="219.647" y="71.9051" width="3.54346" height="5.55106" rx="1.77173" stroke="black" stroke-width="1.81013"/>
<rect x="227.682" y="71.9051" width="3.54346" height="5.55106" rx="1.77173" stroke="black" stroke-width="1.81013"/>
<path d="M44.343 150.901L52.6445 154.05L58.656 137.733L32.3201 128L26.3086 144.603L31.4613 146.607" stroke="black" stroke-width="1.25782" stroke-linecap="round"/>
<path d="M16 164.355V146.893H44.0535V164.355H16Z" stroke="black" stroke-width="1.25782" stroke-linecap="round"/>
<path d="M18.5781 149.184L26.0209 156.254M41.1927 149.184L33.936 156.254M26.0209 156.254L26.0732 156.304C28.282 158.402 31.754 158.38 33.936 156.254M26.0209 156.254L19.4369 161.493M33.936 156.254L40.6202 161.493" stroke="black" stroke-width="1.25782" stroke-linecap="round"/>
<path d="M33.9844 131.148L38.5323 140.352M55.2117 138.947L45.9618 143.082M38.5323 140.352L38.5642 140.417C39.9139 143.148 43.1805 144.325 45.9618 143.082M38.5323 140.352L30.5456 142.999M45.9618 143.082L50.4294 150.304" stroke="black" stroke-width="1.25782" stroke-linecap="round"/>
<path d="M44.1285 136.919C43.1571 134.165 38.192 135.364 42.8176 141.1C50.2652 138.843 45.857 135.318 44.1285 136.919Z" stroke="black" stroke-width="1.25782"/>
<path d="M30.0681 151.061C28.2135 148.805 23.9576 151.63 30.2661 155.438C36.4928 150.771 31.1449 148.965 30.0681 151.061Z" stroke="black" stroke-width="1.25782"/>
<path d="M50.6953 156.685L50.0904 157.657M48.8807 159.602L48.2758 160.574" stroke="black" stroke-width="1.25782" stroke-linecap="round"/>
<path d="M51.6758 159.991L50.7035 159.386M48.273 157.874L47.3007 157.269" stroke="black" stroke-width="1.25782" stroke-linecap="round"/>
<path d="M23.3594 136.735L22.6891 137.663M21.3486 139.52L20.6783 140.448" stroke="black" stroke-width="1.25782" stroke-linecap="round"/>
<path d="M24.1055 140.1L23.1771 139.429M20.8562 137.754L19.9278 137.083" stroke="black" stroke-width="1.25782" stroke-linecap="round"/>
<path d="M123.398 137.707L124.463 139.127C124.67 139.403 125.032 139.526 125.363 139.427C135.287 136.468 133.364 128.375 127.152 131.371C126.521 130.041 124.742 127.851 122.677 129.728" stroke="black" stroke-width="1.6051" stroke-linecap="round"/>
<path d="M127.09 145.051H127.491" stroke="black" stroke-width="1.6051" stroke-linecap="round"/>
<path d="M131.503 156.287C130.834 156.42 129.256 156.206 128.293 154.28" stroke="black" stroke-width="0.802549" stroke-linecap="round"/>
<path d="M127.892 151.873C127.758 152.007 127.571 152.435 127.892 153.077" stroke="black" stroke-width="0.802549" stroke-linecap="round"/>
<path d="M131.902 143.446C132.304 142.911 133.588 141.6 135.514 140.637C137.921 139.433 140.73 138.229 140.73 133.414C141.399 133.815 142.657 134.939 142.335 136.223" stroke="black" stroke-width="1.6051" stroke-linecap="round"/>
<path d="M125.886 144.249C125.659 144.93 124.683 145.586 124.281 145.854C126.336 146.265 126.857 147.465 126.789 148.592C126.72 149.757 126.135 150.858 126.105 152.025C125.915 159.443 134.158 159.069 137.523 158.695C140.412 158.374 142.205 161.504 142.74 163.109C144.987 162.788 145.014 161.102 144.746 160.3C147.956 163.109 149.963 158.294 147.956 156.688C149.883 155.725 150.097 153.344 149.963 152.274C147.395 156.448 140.867 154.548 137.925 153.077C144.024 153.077 145.549 148.262 145.549 145.854C147.796 141.36 145.95 137.026 144.746 135.421C143.81 137.294 141.135 141.28 137.925 142.243C134.714 143.206 131.772 146.389 130.702 147.86C130.3 141.44 126.288 143.045 125.886 144.249Z" stroke="black" stroke-width="1.6051" stroke-linecap="round"/>
<path d="M136.719 146.656C137.923 148.261 143.139 148.662 143.139 143.847" stroke="black" stroke-width="1.6051" stroke-linecap="round"/>
<path d="M140.735 147.86C141.538 149.866 137.926 152.274 135.117 149.866" stroke="black" stroke-width="1.6051" stroke-linecap="round"/>
<path d="M143.54 156.688C142.871 156.554 141.132 156.287 139.527 156.287C139.929 156.554 140.972 157.33 141.935 158.293" stroke="black" stroke-width="0.802549" stroke-linecap="round"/>
<path d="M119.902 145.051H119.501" stroke="black" stroke-width="1.6051" stroke-linecap="round"/>
<path d="M115.489 156.287C116.158 156.42 117.736 156.206 118.699 154.28" stroke="black" stroke-width="0.802549" stroke-linecap="round"/>
<path d="M119.096 151.873C119.23 152.007 119.417 152.435 119.096 153.077" stroke="black" stroke-width="0.802549" stroke-linecap="round"/>
<path d="M115.086 143.446C114.685 142.911 113.401 141.6 111.474 140.637C109.067 139.433 106.258 138.229 106.258 133.414C105.589 133.815 104.332 134.939 104.653 136.223" stroke="black" stroke-width="1.6051" stroke-linecap="round"/>
<path d="M121.106 144.249C121.333 144.93 122.31 145.586 122.711 145.854C120.656 146.265 120.136 147.465 120.203 148.592C120.272 149.757 120.857 150.858 120.887 152.025C121.077 159.443 112.834 159.069 109.469 158.695C106.58 158.374 104.787 161.504 104.252 163.109C102.005 162.788 101.978 161.102 102.246 160.3C99.0357 163.109 97.0294 158.294 99.0357 156.688C97.1096 155.725 96.8956 153.344 97.0294 152.274C99.5975 156.448 106.125 154.548 109.068 153.077C102.968 153.077 101.443 148.262 101.443 145.854C99.1962 141.36 101.042 137.026 102.246 135.421C103.182 137.294 105.857 141.28 109.068 142.243C112.278 143.206 115.22 146.389 116.291 147.86C116.692 141.44 120.705 143.045 121.106 144.249Z" stroke="black" stroke-width="1.6051" stroke-linecap="round"/>
<path d="M110.27 146.656C109.066 148.261 103.849 148.662 103.849 143.847" stroke="black" stroke-width="1.6051" stroke-linecap="round"/>
<path d="M106.257 147.86C105.455 149.866 109.066 152.274 111.875 149.866" stroke="black" stroke-width="1.6051" stroke-linecap="round"/>
<path d="M103.417 156.688C104.086 156.554 105.825 156.287 107.43 156.287C107.028 156.554 105.985 157.33 105.022 158.293" stroke="black" stroke-width="0.802549" stroke-linecap="round"/>
<path d="M118.81 132.267C120.861 127.522 129.483 130.244 120.616 139.81C107.739 134.917 115.953 129.229 118.81 132.267Z" stroke="black" stroke-width="1.6051"/>
<path d="M220.304 153.361L221.13 155.342C221.173 155.447 221.079 155.558 220.968 155.53L218.886 155.01C218.033 154.796 217.681 153.777 218.221 153.082C218.793 152.347 219.946 152.501 220.304 153.361Z" stroke="black" stroke-width="1.38718" stroke-linecap="round"/>
<path d="M222.165 157.833L221.339 155.853C221.295 155.747 221.39 155.637 221.501 155.665L223.583 156.185C224.436 156.398 224.788 157.418 224.248 158.112C223.676 158.848 222.523 158.694 222.165 157.833Z" stroke="black" stroke-width="1.38718" stroke-linecap="round"/>
<path d="M205.973 149.009C210.597 147.044 221.787 144.293 229.555 149.009" stroke="black" stroke-width="1.38718" stroke-linecap="round"/>
<path d="M203.544 147.023C203.213 147.217 203.102 147.642 203.296 147.972C203.49 148.303 203.915 148.413 204.245 148.22L203.895 147.621L203.544 147.023ZM225.539 145.857C225.905 145.969 226.293 145.764 226.406 145.398C226.518 145.032 226.313 144.644 225.947 144.531L225.743 145.194L225.539 145.857ZM229.032 145.561C228.66 145.468 228.284 145.694 228.191 146.066C228.098 146.438 228.324 146.814 228.696 146.907L228.864 146.234L229.032 145.561ZM203.895 147.621L204.245 148.22C205.842 147.284 208.971 146.008 212.818 145.313C216.659 144.618 221.165 144.511 225.539 145.857L225.743 145.194L225.947 144.531C221.303 143.102 216.562 143.226 212.571 143.948C208.586 144.668 205.299 145.994 203.544 147.023L203.895 147.621ZM228.864 146.234L228.696 146.907C229.081 147.003 230.196 147.407 231.222 148.176L231.638 147.621L232.054 147.066C230.861 146.171 229.571 145.696 229.032 145.561L228.864 146.234Z" fill="black"/>
<path d="M214.992 156.291L220.888 159.759" stroke="black" stroke-width="1.38718" stroke-linecap="round"/>
<path d="M214.992 159.065L220.888 162.533" stroke="black" stroke-width="1.38718" stroke-linecap="round"/>
<path d="M214.992 161.839L220.194 164.961" stroke="black" stroke-width="1.38718" stroke-linecap="round"/>
<path d="M214.641 155.944L214.886 163.054C214.942 164.698 216.292 166.001 217.937 166.001C219.581 166.001 220.929 164.7 220.988 163.057L221.23 156.291" stroke="black" stroke-width="1.38718" stroke-linecap="round"/>
<path d="M205.973 140.685C204.817 138.489 203.615 133.125 208.054 129.241L211.524 135.137C212.102 136.293 212.911 138.813 211.524 139.645" stroke="black" stroke-width="1.38718" stroke-linecap="round"/>
<path d="M208.402 134.096L209.443 135.83" stroke="black" stroke-width="1.38718" stroke-linecap="round"/>
<path d="M206.323 130.628C205.745 130.281 204.242 129.588 202.855 129.588C202.623 130.281 202.508 131.599 202.508 132.709" stroke="black" stroke-width="1.38718" stroke-linecap="round"/>
<path d="M204.936 133.056C203.78 132.94 201.122 132.848 199.734 133.403C201.122 135.83 204.243 140.755 205.63 141.032" stroke="black" stroke-width="1.38718" stroke-linecap="round"/>
<path d="M214.65 138.951C214.647 136.155 216.464 130.24 222.277 129.241L222.277 136.096C222.282 137.564 221.929 138.951 220.547 139.298" stroke="black" stroke-width="1.38718" stroke-linecap="round"/>
<path d="M220.431 129.595C220.119 128.998 219.198 127.623 218.015 126.899C217.456 127.37 216.67 128.434 216.091 129.381" stroke="black" stroke-width="1.38718" stroke-linecap="round"/>
<path d="M217.979 130.944C217.053 130.242 214.832 128.777 213.359 128.526C213.277 131.321 213.273 138.337 214.312 139.298" stroke="black" stroke-width="1.38718" stroke-linecap="round"/>
<path d="M223.664 137.91C224.879 135.746 230.129 131.441 235.802 133.055L233.376 137.563C232.72 138.677 231.984 141.031 229.556 141.031" stroke="black" stroke-width="1.38718" stroke-linecap="round"/>
<path d="M233.552 132.751C233.529 132.078 233.294 130.439 232.54 129.275C231.832 129.458 230.663 130.077 229.732 130.681" stroke="black" stroke-width="1.38718" stroke-linecap="round"/>
<path d="M230.762 132.907C230.231 131.874 228.863 129.592 227.643 128.729C226.442 132.016 222.28 136.177 224.014 139.299" stroke="black" stroke-width="1.38718" stroke-linecap="round"/>
<path d="M214.646 155.944L221.235 155.944L237.188 143.113C234.968 140.338 231.639 141.726 230.252 142.766C228.032 137.217 223.778 139.298 221.929 141.032C218.045 135.483 214.762 138.72 213.606 141.032C208.889 136.87 206.092 140.223 205.283 142.419C201.121 140.2 198.694 141.957 198 143.113L214.646 155.944Z" stroke="black" stroke-width="1.38718" stroke-linecap="round"/>
<path d="M228.516 136.177C229.209 135.714 229.903 135.136 231.984 134.79" stroke="black" stroke-width="1.38718" stroke-linecap="round"/>
</svg>
