<svg width="296" height="220" viewBox="0 0 296 220" fill="none" xmlns="http://www.w3.org/2000/svg">
<path d="M74.8953 21.0435C69.383 17.6623 64.5719 19.0249 61.6818 21.1954C60.4966 22.0853 59.9042 22.5303 59.5556 22.5303C59.2069 22.5303 58.6145 22.0853 57.4293 21.1954C54.5392 19.0249 49.7281 17.6623 44.2158 21.0435C36.9816 25.481 35.3446 40.1206 52.0313 52.4714C55.2095 54.8238 56.7986 56 59.5556 56C62.3125 56 63.9016 54.8238 67.0799 52.4714C83.7665 40.1206 82.1295 25.481 74.8953 21.0435Z" stroke="#1A255C" stroke-width="2.12721" stroke-linecap="round"/>
<path d="M81.8023 183.816C92.7394 173.33 73.1337 152.356 60.3728 170.594C48.0507 152.812 29.3605 171.962 40.3112 183.816L60.3728 205.246L81.8023 183.816Z" stroke="#1A255C" stroke-width="2.17029" stroke-linecap="round"/>
<path d="M71.7695 169.324C74.2012 168.868 79.1559 169.78 79.5206 177.075" stroke="#1A255C" stroke-width="2.17029" stroke-linecap="round"/>
<path d="M60.0946 104.85C74.4705 65.2293 101.82 87.319 60.0946 131.498C19.0762 85.9165 48.168 65.5799 60.0946 104.85Z" stroke="#1A255C" stroke-width="2.14294"/>
<path d="M259.012 181.91C272.264 156.921 249.073 154.46 239.134 171.497C222.09 147.36 194.631 168.185 239.134 206.52C245.949 200.462 252.386 192.322 254.752 189.009" stroke="#1A255C" stroke-width="2.06897" stroke-linecap="round"/>
<path d="M151.136 174.197C179.196 138.114 191.502 183.589 151.136 208.798C116.679 184.083 127.013 149.482 151.136 174.197Z" stroke="#1A255C" stroke-width="2.22724" stroke-linecap="round"/>
<path d="M233.56 124.376L238.184 129L259.32 108.524C274.512 91.3507 248.752 76.1589 238.184 93.9928C231.616 80.7825 204.762 85.8023 216.387 108.524" stroke="#1A255C" stroke-width="2.11188" stroke-linecap="round"/>
<path d="M214.441 117.111L223.028 125.697L236.899 111.827" stroke="#1A255C" stroke-width="3.379" stroke-linecap="round"/>
<circle cx="166.444" cy="117.635" r="9.85994" stroke="#1A255C" stroke-width="1.93347"/>
<path d="M175.061 107.564C186.72 92.1564 160.486 74.2507 152.158 98.819C142.162 72.1687 100.93 97.1533 152.152 130.05C153.123 129.356 155.233 127.801 155.899 127.135" stroke="#1A255C" stroke-width="1.93347" stroke-linecap="round"/>
<path d="M161.809 117.326L165.83 121.348L171.863 114.109" stroke="#1A255C" stroke-width="1.84666" stroke-linecap="round"/>
<path d="M150.967 22.168C139.274 6.39029 110.355 29.4726 150.385 54.6002" stroke="#1A255C" stroke-width="1.74669" stroke-linecap="round"/>
<path d="M151.258 30.057C163.529 0.838931 192.748 30.057 160.315 50.8018C157.394 52.6707 153.595 56.5871 153.595 59.8595" stroke="#1A255C" stroke-width="1.74669" stroke-linecap="round"/>
<path d="M148.627 26.2586C147.653 24.1159 144.42 20.3565 139.277 22.4602" stroke="#1A255C" stroke-width="1.74669" stroke-linecap="round"/>
<path d="M170.545 26.2586C169.571 24.1159 166.338 20.3565 161.195 22.4602" stroke="#1A255C" stroke-width="1.74669" stroke-linecap="round"/>
<path d="M238.945 59L258.196 40.9159C263.184 36.23 263.79 28.5188 259.595 23.1115C254.214 16.1761 243.413 17.3392 239.632 25.2612L238.945 26.7" stroke="#1A255C" stroke-width="2.03593" stroke-linecap="round"/>
<path d="M238.956 59L219.705 40.9159C214.717 36.23 214.111 28.5188 218.307 23.1115C223.688 16.1761 234.489 17.3392 238.27 25.2612L238.956 26.7" stroke="#2A4157" stroke-opacity="0.24" stroke-width="2.03593" stroke-linecap="round"/>
</svg>
